<svg width="47" height="57" viewBox="0 0 47 57" fill="none" xmlns="http://www.w3.org/2000/svg">
<g filter="url(#filter0_d_32122_953)">
<path d="M17.9213 12.125C17.9213 15.25 20.4181 17.75 23.539 17.75C26.5819 17.75 29.1567 15.25 29.1567 12.125C29.1567 9.07812 26.5819 6.5 23.539 6.5C20.4181 6.5 17.9213 9.07812 17.9213 12.125ZM37.7393 12.2812C36.803 11.2656 35.1645 11.2656 34.2282 12.2812L27.4402 19H19.5598L12.7718 12.2812C11.8355 11.2656 10.197 11.2656 9.26073 12.2812C8.24642 13.2188 8.24642 14.8594 9.26073 15.7969L16.673 23.2188V44C16.673 45.4062 17.7653 46.5 19.1697 46.5H20.4181C21.7445 46.5 22.9148 45.4062 22.9148 44V35.25H24.1632V44C24.1632 45.4062 25.2555 46.5 26.6599 46.5H27.9083C29.2347 46.5 30.4051 45.4062 30.4051 44V23.2188L37.7393 15.7969C38.7536 14.8594 38.7536 13.2188 37.7393 12.2812Z" fill="url(#paint0_linear_32122_953)"/>
<path d="M37.629 12.3829L37.6286 12.3832L37.6375 12.3914C38.5875 13.2695 38.5875 14.8086 37.6375 15.6867L37.6374 15.6866L37.6326 15.6914L30.2984 23.1133L30.2551 23.1571V23.2188V44C30.2551 45.3206 29.1547 46.35 27.9083 46.35H26.6599C25.3386 46.35 24.3132 45.3236 24.3132 44V35.25V35.1H24.1632H22.9148H22.7648V35.25V44C22.7648 45.3206 21.6645 46.35 20.4181 46.35H19.1697C17.8483 46.35 16.823 45.3236 16.823 44V23.2188V23.1567L16.7791 23.1128L9.36686 15.6909L9.36695 15.6908L9.36254 15.6867C8.41249 14.8086 8.41249 13.2695 9.36254 12.3914L9.36287 12.3918L9.37101 12.3829C10.2479 11.4317 11.7846 11.4317 12.6615 12.3829L12.6614 12.383L12.6663 12.3879L19.4543 19.1066L19.4981 19.15H19.5598H27.4402H27.5019L27.5457 19.1066L34.3337 12.3879L34.3338 12.388L34.3385 12.3829C35.2154 11.4317 36.7521 11.4317 37.629 12.3829ZM23.539 17.6C20.5011 17.6 18.0713 15.1673 18.0713 12.125C18.0713 9.15943 20.5025 6.65 23.539 6.65C26.4989 6.65 29.0067 9.16078 29.0067 12.125C29.0067 15.166 26.5003 17.6 23.539 17.6Z" stroke="url(#paint1_linear_32122_953)" stroke-width="0.3"/>
</g>
<defs>
<filter id="filter0_d_32122_953" x="0.5" y="0.5" width="46" height="56" filterUnits="userSpaceOnUse" color-interpolation-filters="sRGB">
<feFlood flood-opacity="0" result="BackgroundImageFix"/>
<feColorMatrix in="SourceAlpha" type="matrix" values="0 0 0 0 0 0 0 0 0 0 0 0 0 0 0 0 0 0 127 0" result="hardAlpha"/>
<feOffset dy="2"/>
<feGaussianBlur stdDeviation="4"/>
<feComposite in2="hardAlpha" operator="out"/>
<feColorMatrix type="matrix" values="0 0 0 0 0 0 0 0 0 0.352941 0 0 0 0 0.560784 0 0 0 0.25 0"/>
<feBlend mode="normal" in2="BackgroundImageFix" result="effect1_dropShadow_32122_953"/>
<feBlend mode="normal" in="SourceGraphic" in2="effect1_dropShadow_32122_953" result="shape"/>
</filter>
<linearGradient id="paint0_linear_32122_953" x1="-4.66574" y1="13.5459" x2="14.2666" y2="47.7622" gradientUnits="userSpaceOnUse">
<stop stop-color="#49C3B1"/>
<stop offset="1" stop-color="#0071A3"/>
</linearGradient>
<linearGradient id="paint1_linear_32122_953" x1="23.5" y1="6.5" x2="23.5" y2="46.5" gradientUnits="userSpaceOnUse">
<stop stop-color="white"/>
<stop offset="1" stop-color="#D0D0D0" stop-opacity="0"/>
</linearGradient>
</defs>
</svg>
