<svg width="14" height="17" viewBox="0 0 14 17" fill="none" xmlns="http://www.w3.org/2000/svg">
<path d="M10.0938 2.125C12.375 4.21875 14 7.65625 14 9.3125C14 13.2812 10.8438 16.5 7 16.5C3.125 16.5 0 13.2812 0 9.3125C0 7.0625 2.15625 3.375 5.25 0.5C6.4375 1.625 7.5 2.8125 8.34375 4C8.875 3.34375 9.4375 2.71875 10.0938 2.125ZM9.5 12.75C11.0312 11.6875 11.375 9.59375 10.5312 7.96875C10.4375 7.78125 10.3125 7.5625 10.1875 7.34375L8.34375 9.4375C8.34375 9.4375 5.46875 5.75 5.25 5.5C3.75 7.34375 3 8.40625 3 9.59375C3 12.0312 4.8125 13.5 7.0625 13.5C7.96875 13.5 8.8125 13.2188 9.5 12.75Z" fill="#0071CE"/>
</svg>
