<svg width="12" height="17" viewBox="0 0 12 17" fill="none" xmlns="http://www.w3.org/2000/svg">
<path d="M10.8438 8.96875C11.125 9.4375 10.9688 10.0625 10.5 10.375C10.3438 10.4688 10.1562 10.5 10 10.5C9.65625 10.5 9.3125 10.3438 9.09375 10.0312L8.1875 8.59375V15.5C8.1875 16.0625 7.71875 16.5 7.1875 16.5C6.625 16.5 6.1875 16.0625 6.1875 15.5V11H5.6875V15.5C5.6875 16.0625 5.25 16.5 4.71875 16.5C4.15625 16.5 3.71875 16.0625 3.71875 15.5L3.75 8.59375L2.84375 10.0312C2.53125 10.5 1.9375 10.6562 1.46875 10.375C1 10.0625 0.84375 9.4375 1.125 8.96875L3.34375 5.46875C3.71875 4.875 4.34375 4.5 5.03125 4.5H6.9375C7.625 4.5 8.25 4.875 8.625 5.46875L10.8438 8.96875ZM6 3.5C5.15625 3.5 4.5 2.84375 4.5 2C4.5 1.1875 5.15625 0.5 6 0.5C6.8125 0.5 7.5 1.1875 7.5 2C7.5 2.84375 6.8125 3.5 6 3.5Z" fill="#0071CE"/>
</svg>
