<svg width="16" height="17" viewBox="0 0 16 17" fill="none" xmlns="http://www.w3.org/2000/svg">
<path d="M13 10.5C14.625 10.5 16 11.875 16 13.5C16 15.1562 14.625 16.5 13 16.5H4.3125C4.71875 16 5.28125 15.2812 5.78125 14.5H13C13.5312 14.5 14 14.0625 14 13.5C14 12.9688 13.5312 12.5 13 12.5H10C8.34375 12.5 7 11.1562 7 9.5C7 7.875 8.34375 6.5 10 6.5H11.4062C10.6875 5.5 10 4.3125 10 3.5C10 1.84375 11.3438 0.5 13 0.5C14.6562 0.5 16 1.84375 16 3.5C16 5.15625 13 8.5 13 8.5H10C9.4375 8.5 9 8.96875 9 9.5C9 10.0625 9.4375 10.5 10 10.5H13ZM13 2.5C12.4375 2.5 12 2.96875 12 3.5C12 4.0625 12.4375 4.5 13 4.5C13.5312 4.5 14 4.0625 14 3.5C14 2.96875 13.5312 2.5 13 2.5ZM3 8.5C4.65625 8.5 6 9.84375 6 11.5C6 13.1562 3 16.5 3 16.5C3 16.5 0 13.1562 0 11.5C0 9.84375 1.34375 8.5 3 8.5ZM3 12.5C3.53125 12.5 4 12.0625 4 11.5C4 10.9688 3.53125 10.5 3 10.5C2.4375 10.5 2 10.9688 2 11.5C2 12.0625 2.4375 12.5 3 12.5Z" fill="#0071CE"/>
</svg>
