<svg width="12" height="17" viewBox="0 0 12 17" fill="none" xmlns="http://www.w3.org/2000/svg">
<path d="M7.46875 3.5C6.65625 3.5 5.96875 2.84375 5.96875 2C5.96875 1.1875 6.65625 0.5 7.46875 0.5C8.3125 0.5 8.96875 1.1875 8.96875 2C8.96875 2.84375 8.3125 3.5 7.46875 3.5ZM3.28125 12.5625L3.9375 10.9688C4.1875 11.3438 3.6875 10.75 5.40625 12.625L5 13.6875C4.875 13.9375 4.75 14.1875 4.53125 14.375L2.6875 16.2188C2.3125 16.625 1.65625 16.625 1.28125 16.2188C0.875 15.8438 0.875 15.1875 1.28125 14.8125L2.84375 13.25C3.03125 13.0625 3.1875 12.8125 3.28125 12.5625ZM10.4375 8.1875C10.9375 8.40625 11.125 9.03125 10.875 9.53125C10.625 10 10.0312 10.2188 9.5625 9.96875L8.8125 9.59375C8.34375 9.375 8 8.9375 7.84375 8.4375L7.65625 7.9375L7.125 10.0625L8.5625 11.625C8.78125 11.875 8.9375 12.1562 9 12.5L9.6875 15.2812C9.8125 15.8125 9.5 16.3438 8.9375 16.5C8.40625 16.625 7.875 16.2812 7.75 15.75L7.15625 13.4688C7.09375 13.1562 6.9375 12.8438 6.6875 12.5938L4.84375 10.5625C4.40625 10.0625 4.21875 9.375 4.40625 8.71875L4.875 6.8125L4.03125 7.15625C3.8125 7.25 3.625 7.4375 3.5 7.65625L3.3125 8.0625C3.0625 8.5625 2.46875 8.75 1.96875 8.5C1.5 8.25 1.28125 7.65625 1.53125 7.15625L1.75 6.75C2.0625 6.09375 2.625 5.5625 3.28125 5.3125C4.46875 4.84375 5.09375 4.5 6.21875 4.5C7.65625 4.53125 8.9375 5.5 9.40625 6.875L9.71875 7.8125L10.4375 8.1875Z" fill="#0071CE"/>
</svg>
