<svg width="100" height="30" viewBox="0 0 100 30" fill="none" xmlns="http://www.w3.org/2000/svg">
<path d="M19.9147 4.07162C19.6439 1.4263 18.1824 0 16.1818 0C15.0819 0.0421344 14.0142 0.373378 13.0917 0.95868C10.8334 2.34283 9.01499 4.31279 7.84025 6.64783C7.20755 7.81503 6.82793 8.61578 6.20409 9.97175C6.39263 10.2457 6.55839 10.4863 6.69379 10.6726C7.41886 11.6781 10.3381 16.664 10.3381 16.664L5.63086 18.0459C8.77538 17.1464 11.6719 16.3469 14.9594 15.3944C15.3673 15.3093 15.7426 15.1144 16.0426 14.8318C18.6189 11.6868 20.3348 8.18641 19.9147 4.07162Z" fill="url(#paint0_linear_583_3424)"/>
<path d="M6.70178 10.6688C6.56638 10.4825 6.40062 10.2419 6.21208 9.96802L6.10957 10.1913C5.82738 10.8082 2.97266 18.6504 2.97266 18.6504L3.50159 18.6578H3.51424C4.23805 18.4468 4.94413 18.2433 5.63757 18.0409L10.3449 16.659C10.3449 16.659 7.42559 11.6744 6.70178 10.6688Z" fill="#457ABC"/>
<path d="M3.75653 18.5913L5.6331 18.041C4.93966 18.2397 4.23484 18.4432 3.50977 18.6579C3.59075 18.637 3.67175 18.616 3.75653 18.5913Z" fill="#457ABC"/>
<path d="M6.10269 10.1913L6.2052 9.96801C5.34699 8.62373 4.37336 7.35285 3.29478 6.16907C2.1091 5.08084 0.562782 5.13637 0.0933183 7.51271C0.0464755 7.73055 0.0176894 7.9517 0.00726047 8.17403C-0.0505675 11.5628 0.639939 14.9241 2.03191 18.0298C2.14896 18.2967 2.36583 18.5102 2.63846 18.6268C2.9111 18.7435 3.21907 18.7546 3.49978 18.6578L2.97084 18.6504C2.97084 18.6504 5.82051 10.8082 6.10269 10.1913Z" fill="#6190CB"/>
<path d="M25.6017 22.5541C23.772 19.0426 20.549 17.0957 16.8313 15.8643C16.7184 15.829 16.6005 15.8119 16.482 15.8137C16.2047 15.8246 15.9301 15.8719 15.6658 15.9544C13.1464 16.6614 10.4941 17.435 10.4941 17.435C10.4941 17.435 10.7055 22.501 10.6979 23.3117C10.6979 23.5177 10.6979 23.8595 10.6979 24.2753C11.981 25.1019 13.44 25.9187 14.5561 26.5344C16.7291 27.8206 19.2268 28.491 21.7689 28.4703C25.6233 28.3654 27.3265 25.8657 25.6017 22.5541Z" fill="url(#paint1_linear_583_3424)"/>
<path d="M10.7038 23.3142C10.7114 22.5048 10.5001 17.4375 10.5001 17.4375L8.1199 18.0976C6.80641 18.4702 5.49209 18.8404 4.17691 19.208L3.38477 19.609C3.38477 19.609 8.77537 23.0094 10.471 24.1248L10.7051 24.2741C10.7064 23.862 10.7026 23.519 10.7038 23.3142Z" fill="#5DA473"/>
<path d="M3.37605 19.6102L4.1682 19.2092C5.48421 18.839 3.88981 19.2672 3.88981 19.2672C3.23054 19.5139 2.84965 19.8606 2.98378 20.5874C3.7633 23.4753 5.09975 26.192 6.9217 28.5924C7.05357 28.7442 7.19788 28.8853 7.35321 29.0144C9.01721 30.4431 10.1194 30.4135 10.5294 28.2975C10.6851 26.9633 10.7417 25.6199 10.6989 24.2777L10.4648 24.1284C8.76792 23.0106 3.37605 19.6102 3.37605 19.6102Z" fill="#7CBC98"/>
<path d="M35.8189 27.3995C34.1991 27.4129 32.601 27.0365 31.166 26.3039L31.6076 23.4661C32.8857 24.1589 34.3213 24.5287 35.7835 24.542C37.4285 24.542 38.1498 23.9547 38.1498 22.938C38.1498 20.6308 31.2293 21.608 31.2293 16.6986C31.2293 14.2137 32.8743 12.2001 36.6857 12.2001C38.1261 12.1986 39.5543 12.4571 40.8982 12.9626L40.4768 15.7399C39.3067 15.3513 38.0823 15.1403 36.8464 15.1144C34.9799 15.1144 34.4788 15.7399 34.4788 16.5221C34.4788 18.8109 41.3993 17.756 41.3993 22.7221C41.3968 25.6204 39.3304 27.3995 35.8189 27.3995Z" fill="#055293"/>
<path d="M49.69 25.9917L49.6293 25.972C49.2168 26.4195 48.708 26.7726 48.1392 27.0059C47.5704 27.2393 46.9558 27.3471 46.3392 27.3218C44.0324 27.3218 42.5684 26.0509 42.5684 23.3908C42.5684 21.2008 44.1337 19.6893 46.9011 19.6893C47.6896 19.6852 48.4742 19.7975 49.2282 20.0225V19.3377C49.2282 18.1446 48.5866 17.5968 46.9213 17.5968C45.77 17.5724 44.6271 17.7926 43.5718 18.2421L43.3112 15.8164C44.634 15.2814 46.055 15.0152 47.487 15.0341C51.0782 15.0341 52.3221 16.5406 52.3221 19.7868V27.1219H49.9355L49.69 25.9917ZM49.2282 22.0435C48.6732 21.8599 48.0892 21.7738 47.5034 21.7893C46.1191 21.7893 45.4788 22.3174 45.4788 23.355C45.4788 24.5086 46.1811 24.9195 47.2035 24.9195C48.2665 24.9195 49.2282 24.294 49.2282 23.5315V22.0435Z" fill="#055293"/>
<path d="M61.6224 27.1256V19.5759C61.6224 18.2656 60.9403 17.7375 59.656 17.7375C59.2676 17.7289 58.8823 17.8052 58.5282 17.9609C58.1741 18.1165 57.8603 18.3475 57.6098 18.6369V27.1256H54.4805V15.3315L56.7265 15.1946L57.1884 16.2125C58.1233 15.4403 59.3128 15.0236 60.5379 15.0391C63.1054 15.0391 64.7302 16.6233 64.7302 19.5771V27.1269L61.6224 27.1256Z" fill="#055293"/>
<path d="M68.4652 14.0014C67.2618 14.0014 66.6797 13.6683 66.6797 12.7108C66.6797 11.8694 67.2618 11.4005 68.4652 11.4005C69.6888 11.4005 70.2304 11.8496 70.2304 12.7108C70.2304 13.572 69.6838 14.0014 68.4652 14.0014ZM66.8606 27.1256V15.3512L70.0494 15.2143V27.1256H66.8606Z" fill="#055293"/>
<path d="M76.3683 17.5425V23.6055C76.3683 24.5247 76.8504 24.9158 77.8121 24.9158C78.1382 24.9158 78.4626 24.8697 78.7751 24.7789L78.9548 26.9887C78.2855 27.2215 77.5786 27.3343 76.8681 27.3218C76.3723 27.3725 75.8712 27.3128 75.4025 27.1474C74.9338 26.982 74.5096 26.715 74.162 26.3667C73.8143 26.0183 73.5522 25.5976 73.3954 25.1363C73.2386 24.6749 73.1912 24.1848 73.2567 23.703V17.5425H71.8926V15.2735H73.2681V12.8873L76.3658 12.8195V15.2723H79.0737V17.5413L76.3683 17.5425Z" fill="#055293"/>
<path d="M87.1178 25.9917L87.057 25.972C86.6446 26.4195 86.1357 26.7726 85.5669 27.0059C84.9982 27.2393 84.3835 27.3471 83.767 27.3218C81.4601 27.3218 79.9961 26.0509 79.9961 23.3908C79.9961 21.2008 81.5614 19.6893 84.3288 19.6893C85.1173 19.6852 85.9019 19.7975 86.6559 20.0225V19.3377C86.6559 18.1446 86.0143 17.5968 84.3491 17.5968C83.1978 17.5724 82.0548 17.7926 80.9996 18.2421L80.7389 15.8164C82.0618 15.2814 83.4827 15.0152 84.9147 15.0341C88.5059 15.0341 89.7498 16.5406 89.7498 19.7868V27.1219H87.3582L87.1178 25.9917ZM86.6559 22.0435C86.1009 21.8599 85.517 21.7738 84.9311 21.7893C83.5468 21.7893 82.9065 22.3174 82.9065 23.355C82.9065 24.5086 83.6088 24.9195 84.6312 24.9195C85.6942 24.9195 86.6559 24.294 86.6559 23.5315V22.0435Z" fill="#055293"/>
<path d="M95.3645 27.36C94.0439 27.3976 92.7343 27.1153 91.5531 26.5383L91.8745 24.0348C92.9453 24.5832 94.1359 24.8719 95.3455 24.8763C96.5893 24.8763 97.1107 24.3828 97.1107 23.6832C97.1107 21.7856 91.4746 22.8812 91.4746 18.7343C91.4746 16.6023 92.9589 15.0773 96.0883 15.0773C97.2699 15.074 98.4412 15.2931 99.5377 15.7226L99.2771 18.2063C98.2398 17.8162 97.1392 17.6106 96.0275 17.5992C95.0051 17.5992 94.4432 17.9903 94.4432 18.5962C94.4432 20.3963 99.9996 19.3204 99.9996 23.4081C99.9983 25.7758 98.6545 27.36 95.3645 27.36Z" fill="#055293"/>
<defs>
<linearGradient id="paint0_linear_583_3424" x1="16.4055" y1="-6102.5" x2="6.01241" y2="-6120.1" gradientUnits="userSpaceOnUse">
<stop stop-color="#64ABC8"/>
<stop offset="0.391" stop-color="#63A8C6"/>
<stop offset="0.595" stop-color="#61A0C1"/>
<stop offset="0.755" stop-color="#5E93B8"/>
<stop offset="0.891" stop-color="#5A80AB"/>
<stop offset="0.939" stop-color="#5878A6"/>
</linearGradient>
<linearGradient id="paint1_linear_583_3424" x1="16.191" y1="-6127.67" x2="18.7644" y2="-6116.99" gradientUnits="userSpaceOnUse">
<stop stop-color="#9CC34D"/>
<stop offset="0.383" stop-color="#A2C64D"/>
<stop offset="0.678" stop-color="#8FB64C"/>
<stop offset="1" stop-color="#76A14C"/>
</linearGradient>
</defs>
</svg>
