<svg width="12" height="15" viewBox="0 0 12 15" fill="none" xmlns="http://www.w3.org/2000/svg">
<path d="M11.418 7.44922C11.5547 7.80469 11.4727 8.1875 11.1719 8.43359L4.19922 14.5586C4.03516 14.6953 3.81641 14.75 3.625 14.75C3.43359 14.75 3.24219 14.6953 3.10547 14.5859C2.77734 14.3672 2.64062 13.9297 2.80469 13.5469L4.91016 8.625H1.875C1.49219 8.625 1.16406 8.40625 1.05469 8.07812C0.917969 7.72266 1 7.33984 1.27344 7.09375L8.27344 0.96875C8.57422 0.722656 9.01172 0.695312 9.33984 0.941406C9.69531 1.16016 9.80469 1.59766 9.64062 1.98047L7.53516 6.90234H10.5977C10.9531 6.90234 11.2812 7.12109 11.418 7.44922ZM6.55078 4.82422L4.19922 6.90234H5.64844L6.55078 4.82422ZM5.92188 10.7031L8.27344 8.625H6.82422L5.92188 10.7031Z" fill="#747474"/>
</svg>
