<svg width="36" height="36" viewBox="0 0 36 36" fill="none" xmlns="http://www.w3.org/2000/svg">
<circle cx="18" cy="18" r="18" fill="#DBDBDB"/>
<path d="M18.0201 19.9688C20.8389 19.9688 23.1745 17.6309 23.1745 14.7188V10.207C23.1745 9.67383 22.8121 9.18164 22.3289 8.97656L18.906 7.70508C18.6242 7.58203 18.302 7.5 18.0201 7.5C17.698 7.5 17.3758 7.58203 17.094 7.70508L13.6711 8.97656C13.1879 9.18164 12.8658 9.67383 12.8658 10.207V14.7188C12.8658 17.6309 15.1611 19.9688 18.0201 19.9688ZM16.4094 10.4531C16.4094 10.3301 16.4899 10.248 16.6107 10.248H17.4564V9.3457C17.4564 9.26367 17.5369 9.14062 17.6577 9.14062H18.3423C18.4631 9.14062 18.5436 9.26367 18.5436 9.3457V10.248H19.4295C19.5101 10.248 19.6309 10.3301 19.6309 10.4531V11.1504C19.6309 11.2734 19.5101 11.3555 19.4295 11.3555H18.5436V12.2168C18.5436 12.3398 18.4631 12.4219 18.3423 12.4219H17.6577C17.5369 12.4219 17.4564 12.3398 17.4564 12.2168V11.3555H16.6107C16.4899 11.3555 16.4094 11.2734 16.4094 11.1504V10.4531ZM14.7987 14.0625H21.2416V14.7188C21.2416 16.5645 19.7919 18 18.0201 18C16.2081 18 14.7987 16.5645 14.7987 14.7188V14.0625ZM22.1678 20.3379L18.0201 24.5625L13.8322 20.3379C11.0134 21.2812 9 23.9473 9 27.1055C9 27.8848 9.60403 28.5 10.3691 28.5H25.6309C26.396 28.5 27 27.8848 27 27.1055C27 23.9473 24.9866 21.2812 22.1678 20.3379Z" fill="#002D57"/>
</svg>
