<svg width="41" height="49" viewBox="0 0 41 49" fill="none" xmlns="http://www.w3.org/2000/svg">
<rect x="2" width="36" height="36" rx="18" fill="url(#paint0_linear_2_20523)"/>
<g filter="url(#filter0_bd_2_20523)">
<path d="M27.5 10.5V15.75H32.75L27.5 10.5ZM27.5 17.5H32.75V30.625C32.75 32.1016 31.5469 33.25 30.125 33.25H16.125C14.6484 33.25 13.5 32.1016 13.5 30.625V13.125C13.5 11.7031 14.6484 10.5 16.125 10.5H25.75V15.75C25.75 16.7344 26.5156 17.5 27.5 17.5ZM27.6094 22.75H24.875V20.0156C24.875 19.6328 24.4922 19.25 24.1094 19.25H22.0859C21.7031 19.25 21.375 19.6328 21.375 20.0156V22.75H18.5859C18.2031 22.75 17.875 23.1328 17.875 23.5156V25.5391C17.875 25.9219 18.2031 26.25 18.5859 26.25H21.375V29.0391C21.375 29.4219 21.7031 29.75 22.0859 29.75H24.1094C24.4922 29.75 24.875 29.4219 24.875 29.0391V26.25H27.6094C27.9922 26.25 28.375 25.9219 28.375 25.5391V23.5156C28.375 23.1328 27.9922 22.75 27.6094 22.75ZM26.1875 38.5H14.8125C11.1484 38.5 8.25 35.6016 8.25 31.9375V17.0625C8.25 16.3516 8.79688 15.75 9.5625 15.75C10.2734 15.75 10.875 16.3516 10.875 17.0625V31.9375C10.875 34.125 12.625 35.875 14.8125 35.875H26.1875C26.8984 35.875 27.5 36.4766 27.5 37.1875C27.5 37.9531 26.8984 38.5 26.1875 38.5Z" fill="white" fill-opacity="0.4" shape-rendering="crispEdges"/>
<path d="M27.5 10.5L27.6768 10.3232L27.25 9.89645V10.5H27.5ZM27.5 15.75H27.25V16H27.5V15.75ZM32.75 15.75V16H33.3536L32.9268 15.5732L32.75 15.75ZM32.75 17.5H33V17.25H32.75V17.5ZM25.75 10.5H26V10.25H25.75V10.5ZM24.875 22.75H24.625V23H24.875V22.75ZM21.375 22.75V23H21.625V22.75H21.375ZM21.375 26.25H21.625V26H21.375V26.25ZM24.875 26.25V26H24.625V26.25H24.875ZM27.25 10.5V15.75H27.75V10.5H27.25ZM27.5 16H32.75V15.5H27.5V16ZM32.9268 15.5732L27.6768 10.3232L27.3232 10.6768L32.5732 15.9268L32.9268 15.5732ZM27.5 17.75H32.75V17.25H27.5V17.75ZM32.5 17.5V30.625H33V17.5H32.5ZM32.5 30.625C32.5 31.9601 31.4122 33 30.125 33V33.5C31.6815 33.5 33 32.243 33 30.625H32.5ZM30.125 33H16.125V33.5H30.125V33ZM16.125 33C14.7865 33 13.75 31.9635 13.75 30.625H13.25C13.25 32.2396 14.5104 33.5 16.125 33.5V33ZM13.75 30.625V13.125H13.25V30.625H13.75ZM13.75 13.125C13.75 11.8378 14.7899 10.75 16.125 10.75V10.25C14.507 10.25 13.25 11.5685 13.25 13.125H13.75ZM16.125 10.75H25.75V10.25H16.125V10.75ZM25.5 10.5V15.75H26V10.5H25.5ZM25.5 15.75C25.5 16.8724 26.3776 17.75 27.5 17.75V17.25C26.6537 17.25 26 16.5963 26 15.75H25.5ZM27.6094 22.5H24.875V23H27.6094V22.5ZM25.125 22.75V20.0156H24.625V22.75H25.125ZM25.125 20.0156C25.125 19.7429 24.9912 19.4911 24.8125 19.3125C24.6339 19.1338 24.3821 19 24.1094 19V19.5C24.2195 19.5 24.3505 19.5576 24.459 19.666C24.5674 19.7745 24.625 19.9055 24.625 20.0156H25.125ZM24.1094 19H22.0859V19.5H24.1094V19ZM22.0859 19C21.8093 19 21.5681 19.1375 21.4015 19.3215C21.2352 19.5053 21.125 19.7549 21.125 20.0156H21.625C21.625 19.8935 21.6788 19.7603 21.7723 19.657C21.8655 19.5539 21.9797 19.5 22.0859 19.5V19ZM21.125 20.0156V22.75H21.625V20.0156H21.125ZM21.375 22.5H18.5859V23H21.375V22.5ZM18.5859 22.5C18.3093 22.5 18.0681 22.6375 17.9015 22.8215C17.7352 23.0053 17.625 23.2549 17.625 23.5156H18.125C18.125 23.3935 18.1788 23.2603 18.2723 23.157C18.3655 23.0539 18.4797 23 18.5859 23V22.5ZM17.625 23.5156V25.5391H18.125V23.5156H17.625ZM17.625 25.5391C17.625 26.0599 18.0651 26.5 18.5859 26.5V26C18.3412 26 18.125 25.7838 18.125 25.5391H17.625ZM18.5859 26.5H21.375V26H18.5859V26.5ZM21.125 26.25V29.0391H21.625V26.25H21.125ZM21.125 29.0391C21.125 29.5599 21.5651 30 22.0859 30V29.5C21.8412 29.5 21.625 29.2838 21.625 29.0391H21.125ZM22.0859 30H24.1094V29.5H22.0859V30ZM24.1094 30C24.3701 30 24.6197 29.8898 24.8035 29.7235C24.9875 29.5569 25.125 29.3157 25.125 29.0391H24.625C24.625 29.1453 24.5711 29.2595 24.468 29.3527C24.3647 29.4462 24.2315 29.5 24.1094 29.5V30ZM25.125 29.0391V26.25H24.625V29.0391H25.125ZM24.875 26.5H27.6094V26H24.875V26.5ZM27.6094 26.5C27.8701 26.5 28.1197 26.3898 28.3035 26.2235C28.4875 26.0569 28.625 25.8157 28.625 25.5391H28.125C28.125 25.6453 28.0711 25.7595 27.968 25.8527C27.8647 25.9462 27.7315 26 27.6094 26V26.5ZM28.625 25.5391V23.5156H28.125V25.5391H28.625ZM28.625 23.5156C28.625 23.2429 28.4912 22.9911 28.3125 22.8125C28.1339 22.6338 27.8821 22.5 27.6094 22.5V23C27.7195 23 27.8505 23.0576 27.959 23.166C28.0674 23.2745 28.125 23.4055 28.125 23.5156H28.625ZM26.1875 38.25H14.8125V38.75H26.1875V38.25ZM14.8125 38.25C11.2865 38.25 8.5 35.4635 8.5 31.9375H8C8 35.7396 11.0104 38.75 14.8125 38.75V38.25ZM8.5 31.9375V17.0625H8V31.9375H8.5ZM8.5 17.0625C8.5 16.4828 8.94173 16 9.5625 16V15.5C8.65202 15.5 8 16.2204 8 17.0625H8.5ZM9.5625 16C10.1354 16 10.625 16.4896 10.625 17.0625H11.125C11.125 16.2135 10.4115 15.5 9.5625 15.5V16ZM10.625 17.0625V31.9375H11.125V17.0625H10.625ZM10.625 31.9375C10.625 34.2631 12.4869 36.125 14.8125 36.125V35.625C12.7631 35.625 11.125 33.9869 11.125 31.9375H10.625ZM14.8125 36.125H26.1875V35.625H14.8125V36.125ZM26.1875 36.125C26.7604 36.125 27.25 36.6146 27.25 37.1875H27.75C27.75 36.3385 27.0365 35.625 26.1875 35.625V36.125ZM27.25 37.1875C27.25 37.8083 26.7672 38.25 26.1875 38.25V38.75C27.0296 38.75 27.75 38.098 27.75 37.1875H27.25Z" fill="white"/>
</g>
<defs>
<filter id="filter0_bd_2_20523" x="0.25" y="2.5" width="40.5" height="46" filterUnits="userSpaceOnUse" color-interpolation-filters="sRGB">
<feFlood flood-opacity="0" result="BackgroundImageFix"/>
<feGaussianBlur in="BackgroundImage" stdDeviation="4"/>
<feComposite in2="SourceAlpha" operator="in" result="effect1_backgroundBlur_2_20523"/>
<feColorMatrix in="SourceAlpha" type="matrix" values="0 0 0 0 0 0 0 0 0 0 0 0 0 0 0 0 0 0 127 0" result="hardAlpha"/>
<feOffset dy="2"/>
<feGaussianBlur stdDeviation="4"/>
<feComposite in2="hardAlpha" operator="out"/>
<feColorMatrix type="matrix" values="0 0 0 0 0 0 0 0 0 0.353668 0 0 0 0 0.5625 0 0 0 0.6 0"/>
<feBlend mode="normal" in2="effect1_backgroundBlur_2_20523" result="effect2_dropShadow_2_20523"/>
<feBlend mode="normal" in="SourceGraphic" in2="effect2_dropShadow_2_20523" result="shape"/>
</filter>
<linearGradient id="paint0_linear_2_20523" x1="2" y1="0" x2="38" y2="36" gradientUnits="userSpaceOnUse">
<stop offset="0.235702" stop-color="#4AC0AF"/>
<stop offset="0.764298" stop-color="#0169A7"/>
</linearGradient>
</defs>
</svg>
