<svg width="18" height="20" viewBox="0 0 18 20" fill="none" xmlns="http://www.w3.org/2000/svg">
<path d="M18 18.6719C18 13.9844 13.8121 12.4609 13.4497 12.4609C13.0872 12.4609 12.7651 12.5781 12.5235 12.8125L9.02013 16.25L5.43624 12.8125C5.19463 12.5781 4.87248 12.4609 4.51007 12.4609C4.10738 12.4609 0 13.9844 0 18.6719C0 19.6484 0.845638 20 1.36913 20H16.6309C17.1544 20 18 19.6484 18 18.6719ZM16.6309 18.75H1.36913C1.32886 18.75 1.28859 18.7109 1.28859 18.6719C1.28859 16.5234 2.53691 14.6094 4.51007 13.7109L8.09396 17.1484C8.33557 17.3828 8.65772 17.5 9.02013 17.5C9.34228 17.5 9.66443 17.3828 9.90604 17.1484L13.4899 13.7109C15.4631 14.6094 16.7517 16.5234 16.7517 18.6719C16.7517 18.7109 16.6711 18.75 16.6309 18.75ZM9.98658 2.8125H9.66443V2.5C9.66443 2.1875 9.34228 1.875 9.02013 1.875C8.65772 1.875 8.37584 2.1875 8.37584 2.5V2.8125H8.05369C7.69127 2.8125 7.4094 3.125 7.4094 3.4375C7.4094 3.78906 7.69127 4.0625 8.05369 4.0625H8.37584V4.375C8.37584 4.72656 8.65772 5 9.02013 5C9.34228 5 9.66443 4.72656 9.66443 4.375V4.0625H9.98658C10.3087 4.0625 10.6309 3.78906 10.6309 3.4375C10.6309 3.125 10.3087 2.8125 9.98658 2.8125ZM9.02013 11.875C11.8389 11.875 14.1745 9.64844 14.1745 6.875V2.57813C14.1745 2.07031 13.8121 1.60156 13.3289 1.40625L9.90604 0.195313C9.62416 0.078125 9.30201 0 9.02013 0C8.69799 0 8.37584 0.078125 8.09396 0.195313L4.67114 1.40625C4.18792 1.60156 3.86577 2.07031 3.86577 2.57813V6.875C3.86577 9.64844 6.16107 11.875 9.02013 11.875ZM5.11409 2.57813L8.49664 1.36719C8.69799 1.28906 8.85906 1.25 9.02013 1.25C9.14094 1.25 9.30201 1.28906 9.46309 1.36719L12.8859 2.57813V5.625H5.11409V2.57813ZM12.8456 6.875C12.8456 8.94531 11.1141 10.625 9.02013 10.625C6.88591 10.625 5.15436 8.94531 5.15436 6.875H12.8456Z" fill="black"/>
</svg>
