<svg width="18" height="20" viewBox="0 0 18 20" fill="none" xmlns="http://www.w3.org/2000/svg">
<path d="M18 14.375V1.875C18 0.859375 17.1161 0 16.0714 0H3.21429C1.40625 0 0 1.40625 0 3.125V17.5C0 18.9062 1.125 20 2.57143 20H17.3571C17.6786 20 18 19.7266 18 19.375C18 19.0625 17.6786 18.75 17.3571 18.75H16.7143V16.1719C17.4375 15.8984 18 15.1953 18 14.375ZM15.4286 18.75H2.57143C1.84821 18.75 1.28571 18.2031 1.28571 17.5C1.28571 16.8359 1.84821 16.25 2.57143 16.25H15.4286V18.75ZM16.0714 15H2.57143C2.08929 15 1.64732 15.1562 1.28571 15.3516V3.125C1.28571 2.10938 2.12946 1.25 3.21429 1.25H16.0714C16.3929 1.25 16.7143 1.5625 16.7143 1.875V14.375C16.7143 14.7266 16.3929 15 16.0714 15ZM12.8571 6.25H10.9286V4.375C10.9286 4.02344 10.6071 3.75 10.2857 3.75H9C8.63839 3.75 8.35714 4.0625 8.35714 4.375V6.25H6.42857C6.06696 6.25 5.78571 6.5625 5.78571 6.875V8.125C5.78571 8.47656 6.06696 8.75 6.42857 8.75H8.35714V10.625C8.35714 10.9766 8.63839 11.25 9 11.25H10.2857C10.6071 11.25 10.9286 10.9766 10.9286 10.6641V8.78906H12.8571C13.1786 8.78906 13.5 8.51562 13.5 8.20312V6.875C13.5 6.5625 13.1786 6.25 12.8571 6.25Z" fill="black"/>
</svg>
