<svg width="26" height="23" viewBox="0 0 26 23" fill="none" xmlns="http://www.w3.org/2000/svg">
<path d="M25.75 11.75C25.75 12.5234 25.1055 13.125 24.332 13.125H22.957V21.375C22.957 22.1484 22.3125 22.75 21.582 22.75H17.457C16.6836 22.75 16.125 22.1484 16.125 21.375V16.5625C16.125 16.2188 15.7812 15.918 15.4375 15.918H11.3125C10.9258 15.918 10.625 16.2617 10.625 16.5625V21.375C10.625 22.1484 9.98047 22.75 9.25 22.75H5.125C4.35156 22.75 3.75 22.1484 3.75 21.375V13.125H2.375C1.60156 13.125 1 12.5234 0.957031 11.75C0.957031 11.3633 1.12891 11.0195 1.42969 10.7188L12.4297 1.13672C12.6875 0.878906 13.0312 0.792969 13.332 0.792969C13.6328 0.792969 13.9766 0.921875 14.2344 1.13672L25.1914 10.7188C25.5781 11.0195 25.75 11.3633 25.75 11.75Z" fill="#002D57"/>
</svg>
