<svg width="25" height="23" viewBox="0 0 25 23" fill="none" xmlns="http://www.w3.org/2000/svg">
<path d="M24.3633 10.6328L13.0625 1.00781C12.8477 0.835938 12.5898 0.792969 12.375 0.792969C12.1172 0.792969 11.8594 0.835938 11.6875 1.00781L0.34375 10.6328C0.0859375 10.8477 0 11.1484 0 11.4062C0 12.0938 0.558594 12.4375 1.03125 12.4375C1.24609 12.4375 1.50391 12.3516 1.67578 12.1797L2.75 11.3203V19.3125C2.75 21.2461 4.25391 22.75 6.1875 22.75H18.5195C20.4102 22.75 21.9141 21.2031 21.957 19.3125V11.3203L22.9883 12.2227C23.2031 12.3945 23.418 12.4375 23.6758 12.4375C24.1055 12.4375 24.707 12.0938 24.707 11.4062C24.707 11.1484 24.6211 10.8477 24.3633 10.6328ZM14.3945 20.6875H10.3125V14.5H14.3945V20.6875ZM19.8945 19.3125C19.8945 20.043 19.25 20.6875 18.5195 20.6875H16.5V14.1562C16.5 13.2109 15.7266 12.4375 14.7812 12.4375H9.96875C8.98047 12.4375 8.25 13.2109 8.25 14.1562V20.6875H6.1875C5.41406 20.6875 4.8125 20.043 4.8125 19.3125V9.6875C4.8125 9.64453 4.76953 9.60156 4.76953 9.55859L12.332 3.15625L19.8516 9.55859V19.3125H19.8945Z" fill="#212121"/>
</svg>
