<svg width="53" height="40" viewBox="0 0 53 40" fill="none" xmlns="http://www.w3.org/2000/svg">
<rect x="46.1982" width="27.9991" height="39.1987" rx="5" transform="rotate(90 46.1982 0)" fill="url(#paint0_linear_23107_8256)"/>
<g filter="url(#filter0_bd_23107_8256)">
<path d="M15.25 17.6562L14.3359 19.625H16.0938L15.25 17.6562ZM44.5 5H27.625V32H44.5C46.9609 32 49 30.0312 49 27.5V9.5C49 7.03906 46.9609 5 44.5 5ZM42.8125 16.8125H42.6719C42.1094 18.7812 41.1953 20.3281 40.2109 21.5234C40.7734 21.875 41.125 22.0156 41.125 22.0156C42.0391 22.3672 42.4609 23.3516 42.1094 24.1953C41.8281 24.8984 41.1953 25.25 40.4922 25.25C40.2812 25.25 40.0703 25.25 39.8594 25.1797C39.7891 25.1094 38.875 24.7578 37.6797 23.9141C36.4844 24.7578 35.5703 25.1094 35.4297 25.1797C35.2891 25.25 35.0781 25.25 34.9375 25.25C34.2344 25.25 33.6016 24.8984 33.3203 24.1953C32.9688 23.3516 33.3906 22.3672 34.3047 22.0156C34.3047 22.0156 34.7266 21.8047 35.2188 21.5234C34.9375 21.2422 34.7266 20.9609 34.5156 20.6094C33.9531 19.8359 34.1641 18.7812 34.9375 18.2891C35.7109 17.7266 36.7656 17.9375 37.3281 18.7109C37.3984 18.9219 37.5391 19.0625 37.6797 19.2734C38.2422 18.5703 38.7344 17.7969 39.0859 16.8125H32.6875C31.7031 16.8125 31 16.1094 31 15.125C31 14.2109 31.7031 13.4375 32.6875 13.4375H36.0625C36.0625 12.5234 36.7656 11.75 37.75 11.75C38.6641 11.75 39.4375 12.5234 39.4375 13.4375H42.8125C43.7266 13.4375 44.5 14.2109 44.5 15.125C44.5 16.1094 43.7266 16.8125 42.8125 16.8125ZM4 9.5V27.5C4 29.9609 5.96875 32 8.5 32H25.375V5H8.5C5.96875 5 4 7.03906 4 9.5ZM9.20312 22.9297L13.7031 12.8047C14.1953 11.5391 16.2344 11.5391 16.7266 12.8047L21.2266 22.9297C21.6484 23.7734 21.2266 24.7578 20.3828 25.1094C20.1719 25.25 19.9609 25.25 19.75 25.25C19.0469 25.25 18.4844 24.8984 18.2031 24.2656L17.5703 23H17.5H13C12.9297 23 12.8594 23 12.8594 23L12.2266 24.2656C11.875 25.1094 10.8906 25.5312 10.0469 25.1094C9.20312 24.7578 8.78125 23.7734 9.20312 22.9297Z" fill="url(#paint1_linear_23107_8256)" shape-rendering="crispEdges"/>
<path d="M15.25 17.6562L15.4338 17.5775L15.2573 17.1656L15.0686 17.572L15.25 17.6562ZM14.3359 19.625L14.1545 19.5408L14.0226 19.825H14.3359V19.625ZM16.0938 19.625V19.825H16.3971L16.2776 19.5462L16.0938 19.625ZM27.625 5V4.8H27.425V5H27.625ZM27.625 32H27.425V32.2H27.625V32ZM42.6719 16.8125V16.6125H42.521L42.4796 16.7576L42.6719 16.8125ZM40.2109 21.5234L40.0566 21.3963L39.9117 21.5722L40.1049 21.693L40.2109 21.5234ZM41.125 22.0156L41.0507 22.2013L41.0532 22.2023L41.125 22.0156ZM42.1094 24.1953L41.9247 24.1184L41.9237 24.121L42.1094 24.1953ZM39.8594 25.1797L39.718 25.3211L39.7513 25.3545L39.7961 25.3694L39.8594 25.1797ZM37.6797 23.9141L37.795 23.7507L37.6797 23.6693L37.5644 23.7507L37.6797 23.9141ZM33.3203 24.1953L33.506 24.121L33.5049 24.1184L33.3203 24.1953ZM34.3047 22.0156L34.3765 22.2023L34.3855 22.1988L34.3941 22.1945L34.3047 22.0156ZM35.2188 21.5234L35.318 21.6971L35.5453 21.5672L35.3602 21.382L35.2188 21.5234ZM34.5156 20.6094L34.6871 20.5065L34.6826 20.4989L34.6774 20.4917L34.5156 20.6094ZM34.9375 18.2891L35.0451 18.4581L35.0551 18.4508L34.9375 18.2891ZM37.3281 18.7109L37.5179 18.6477L37.5081 18.6183L37.4899 18.5933L37.3281 18.7109ZM37.6797 19.2734L37.5133 19.3844L37.665 19.612L37.8359 19.3984L37.6797 19.2734ZM39.0859 16.8125L39.2743 16.8798L39.3697 16.6125H39.0859V16.8125ZM36.0625 13.4375V13.6375H36.2625V13.4375H36.0625ZM39.4375 13.4375H39.2375V13.6375H39.4375V13.4375ZM25.375 32V32.2H25.575V32H25.375ZM25.375 5H25.575V4.8H25.375V5ZM9.20312 22.9297L9.38219 23.0192L9.38589 23.0109L9.20312 22.9297ZM13.7031 12.8047L13.8861 12.886L13.8895 12.8772L13.7031 12.8047ZM16.7266 12.8047L16.54 12.8773L16.5438 12.8859L16.7266 12.8047ZM21.2266 22.9297L21.0436 23.011L21.0477 23.0191L21.2266 22.9297ZM20.3828 25.1094L20.3059 24.9248L20.288 24.9322L20.2719 24.943L20.3828 25.1094ZM18.2031 24.2656L18.3861 24.1843L18.382 24.1762L18.2031 24.2656ZM17.5703 23L17.7492 22.9106L17.6939 22.8H17.5703V23ZM12.8594 23V22.8H12.7358L12.6805 22.9106L12.8594 23ZM12.2266 24.2656L12.0473 24.176L12.0419 24.1887L12.2266 24.2656ZM10.0469 25.1094L10.1365 24.9301L10.1238 24.9248L10.0469 25.1094ZM15.0686 17.572L14.1545 19.5408L14.5173 19.7092L15.4314 17.7405L15.0686 17.572ZM14.3359 19.825H16.0938V19.425H14.3359V19.825ZM16.2776 19.5462L15.4338 17.5775L15.0662 17.735L15.9099 19.7038L16.2776 19.5462ZM44.5 4.8H27.625V5.2H44.5V4.8ZM27.425 5V32H27.825V5H27.425ZM27.625 32.2H44.5V31.8H27.625V32.2ZM44.5 32.2C47.0694 32.2 49.2 30.1437 49.2 27.5H48.8C48.8 29.9188 46.8525 31.8 44.5 31.8V32.2ZM49.2 27.5V9.5H48.8V27.5H49.2ZM49.2 9.5C49.2 6.92861 47.0714 4.8 44.5 4.8V5.2C46.8505 5.2 48.8 7.14952 48.8 9.5H49.2ZM42.8125 16.6125H42.6719V17.0125H42.8125V16.6125ZM42.4796 16.7576C41.9254 18.6971 41.0254 20.2198 40.0566 21.3963L40.3653 21.6506C41.3652 20.4364 42.2933 18.8654 42.8642 16.8674L42.4796 16.7576ZM40.1049 21.693C40.3919 21.8724 40.626 21.9985 40.7895 22.0803C40.8712 22.1211 40.9353 22.1509 40.9796 22.1707C41.0017 22.1806 41.0189 22.188 41.0309 22.1931C41.0368 22.1956 41.0415 22.1976 41.0448 22.1989C41.0465 22.1996 41.0478 22.2001 41.0488 22.2005C41.0493 22.2007 41.0497 22.2009 41.05 22.201C41.0502 22.2011 41.0503 22.2012 41.0504 22.2012C41.0505 22.2012 41.0505 22.2013 41.0506 22.2013C41.0506 22.2013 41.0506 22.2013 41.0507 22.2013C41.0507 22.2013 41.0507 22.2013 41.125 22.0156C41.1993 21.8299 41.1993 21.8299 41.1993 21.83C41.1993 21.83 41.1994 21.83 41.1994 21.83C41.1994 21.83 41.1994 21.83 41.1994 21.83C41.1995 21.83 41.1995 21.83 41.1995 21.83C41.1995 21.83 41.1993 21.83 41.1992 21.8299C41.1988 21.8297 41.1981 21.8294 41.197 21.829C41.1949 21.8281 41.1915 21.8267 41.1867 21.8247C41.1772 21.8207 41.1626 21.8144 41.143 21.8056C41.1037 21.788 41.0448 21.7607 40.9683 21.7225C40.8154 21.646 40.5925 21.5261 40.3169 21.3538L40.1049 21.693ZM41.0532 22.2023C41.8671 22.5153 42.231 23.3834 41.9248 24.1184L42.294 24.2722C42.6909 23.3197 42.211 22.219 41.1968 21.829L41.0532 22.2023ZM41.9237 24.121C41.6771 24.7376 41.1256 25.05 40.4922 25.05V25.45C41.265 25.45 41.9792 25.0593 42.2951 24.2696L41.9237 24.121ZM40.4922 25.05C40.2767 25.05 40.098 25.0484 39.9226 24.99L39.7961 25.3694C40.0426 25.4516 40.2858 25.45 40.4922 25.45V25.05ZM40.0008 25.0383C39.9785 25.0159 39.9532 25.0002 39.9409 24.9926C39.9248 24.9827 39.9065 24.9727 39.888 24.9629C39.8508 24.9432 39.8018 24.9191 39.7453 24.8914C39.6306 24.8351 39.4747 24.7593 39.2841 24.6597C38.9031 24.4605 38.3837 24.1662 37.795 23.7507L37.5644 24.0775C38.171 24.5057 38.7063 24.809 39.0988 25.0142C39.2948 25.1166 39.4553 25.1947 39.5692 25.2505C39.6269 25.2788 39.6702 25.3002 39.7011 25.3166C39.7166 25.3247 39.7264 25.3303 39.732 25.3337C39.7413 25.3394 39.7315 25.3346 39.718 25.3211L40.0008 25.0383ZM37.5644 23.7507C36.3854 24.5829 35.4948 24.9235 35.3402 25.0008L35.5191 25.3586C35.6458 25.2952 36.5833 24.9328 37.795 24.0775L37.5644 23.7507ZM35.3402 25.0008C35.302 25.0199 35.2424 25.0343 35.1637 25.0422C35.0872 25.0499 35.0089 25.05 34.9375 25.05V25.45C35.0067 25.45 35.1042 25.4501 35.2035 25.4402C35.3006 25.4305 35.4167 25.4098 35.5191 25.3586L35.3402 25.0008ZM34.9375 25.05C34.3041 25.05 33.7526 24.7376 33.506 24.121L33.1346 24.2696C33.4505 25.0593 34.1647 25.45 34.9375 25.45V25.05ZM33.5049 24.1184C33.1987 23.3834 33.5626 22.5153 34.3765 22.2023L34.2329 21.829C33.2187 22.219 32.7388 23.3197 33.1357 24.2722L33.5049 24.1184ZM34.3047 22.0156C34.3941 22.1945 34.3941 22.1945 34.3941 22.1945C34.3942 22.1945 34.3942 22.1945 34.3942 22.1945C34.3942 22.1945 34.3942 22.1945 34.3943 22.1944C34.3943 22.1944 34.3944 22.1944 34.3945 22.1943C34.3948 22.1942 34.3951 22.194 34.3955 22.1938C34.3964 22.1934 34.3977 22.1927 34.3994 22.1919C34.4027 22.1902 34.4076 22.1877 34.414 22.1845C34.4268 22.178 34.4455 22.1686 34.4694 22.1563C34.5172 22.1318 34.586 22.0963 34.6703 22.052C34.8387 21.9633 35.0693 21.8392 35.318 21.6971L35.1195 21.3498C34.876 21.489 34.6496 21.6109 34.484 21.698C34.4013 21.7416 34.3338 21.7764 34.2872 21.8002C34.2639 21.8122 34.2458 21.8213 34.2335 21.8275C34.2274 21.8306 34.2228 21.8329 34.2197 21.8345C34.2182 21.8353 34.217 21.8358 34.2163 21.8362C34.2159 21.8364 34.2156 21.8365 34.2155 21.8366C34.2154 21.8367 34.2153 21.8367 34.2153 21.8367C34.2153 21.8367 34.2152 21.8367 34.2152 21.8367C34.2152 21.8367 34.2152 21.8367 34.2152 21.8367C34.2152 21.8367 34.2152 21.8367 34.3047 22.0156ZM35.3602 21.382C35.0923 21.1142 34.8911 20.8464 34.6871 20.5065L34.3441 20.7123C34.562 21.0754 34.7827 21.3702 35.0773 21.6649L35.3602 21.382ZM34.6774 20.4917C34.1822 19.8109 34.3695 18.8876 35.0449 18.4578L34.8301 18.1203C33.9586 18.6749 33.7241 19.861 34.3539 20.727L34.6774 20.4917ZM35.0551 18.4508C35.7317 17.9588 36.6632 18.1367 37.1664 18.8286L37.4899 18.5933C36.868 17.7383 35.6902 17.4944 34.8199 18.1273L35.0551 18.4508ZM37.1384 18.7742C37.1823 18.9058 37.2471 19.0118 37.3137 19.1069C37.3889 19.2143 37.4405 19.2753 37.5133 19.3844L37.8461 19.1625C37.7782 19.0607 37.6892 18.9459 37.6414 18.8775C37.5849 18.7968 37.5443 18.727 37.5179 18.6477L37.1384 18.7742ZM37.8359 19.3984C38.4083 18.6829 38.9134 17.8902 39.2743 16.8798L38.8976 16.7452C38.5553 17.7035 38.0761 18.4578 37.5235 19.1485L37.8359 19.3984ZM39.0859 16.6125H32.6875V17.0125H39.0859V16.6125ZM32.6875 16.6125C31.8136 16.6125 31.2 15.9989 31.2 15.125H30.8C30.8 16.2198 31.5927 17.0125 32.6875 17.0125V16.6125ZM31.2 15.125C31.2 14.3159 31.819 13.6375 32.6875 13.6375V13.2375C31.5872 13.2375 30.8 14.106 30.8 15.125H31.2ZM32.6875 13.6375H36.0625V13.2375H32.6875V13.6375ZM36.2625 13.4375C36.2625 12.6284 36.8815 11.95 37.75 11.95V11.55C36.6497 11.55 35.8625 12.4185 35.8625 13.4375H36.2625ZM37.75 11.95C38.5536 11.95 39.2375 12.6339 39.2375 13.4375H39.6375C39.6375 12.413 38.7745 11.55 37.75 11.55V11.95ZM39.4375 13.6375H42.8125V13.2375H39.4375V13.6375ZM42.8125 13.6375C43.6161 13.6375 44.3 14.3214 44.3 15.125H44.7C44.7 14.1005 43.837 13.2375 42.8125 13.2375V13.6375ZM44.3 15.125C44.3 15.9935 43.6216 16.6125 42.8125 16.6125V17.0125C43.8315 17.0125 44.7 16.2253 44.7 15.125H44.3ZM3.8 9.5V27.5H4.2V9.5H3.8ZM3.8 27.5C3.8 30.0694 5.85626 32.2 8.5 32.2V31.8C6.08124 31.8 4.2 29.8525 4.2 27.5H3.8ZM8.5 32.2H25.375V31.8H8.5V32.2ZM25.575 32V5H25.175V32H25.575ZM25.375 4.8H8.5V5.2H25.375V4.8ZM8.5 4.8C5.85626 4.8 3.8 6.93065 3.8 9.5H4.2C4.2 7.14748 6.08124 5.2 8.5 5.2V4.8ZM9.38589 23.0109L13.8859 12.8859L13.5204 12.7235L9.02036 22.8485L9.38589 23.0109ZM13.8895 12.8772C14.0983 12.3404 14.6419 12.0555 15.2148 12.0555C15.7878 12.0555 16.3314 12.3404 16.5402 12.8772L16.913 12.7322C16.6295 12.0034 15.9075 11.6555 15.2148 11.6555C14.5222 11.6555 13.8001 12.0034 13.5167 12.7322L13.8895 12.8772ZM16.5438 12.8859L21.0438 23.0109L21.4093 22.8485L16.9093 12.7235L16.5438 12.8859ZM21.0477 23.0191C21.4135 23.7508 21.0516 24.6141 20.3059 24.9248L20.4597 25.294C21.4016 24.9016 21.8833 23.796 21.4054 22.8402L21.0477 23.0191ZM20.2719 24.943C20.1172 25.0461 19.9649 25.05 19.75 25.05V25.45C19.957 25.45 20.2265 25.4539 20.4938 25.2758L20.2719 24.943ZM19.75 25.05C19.1222 25.05 18.6335 24.7416 18.3859 24.1844L18.0204 24.3469C18.3352 25.0553 18.9716 25.45 19.75 25.45V25.05ZM18.382 24.1762L17.7492 22.9106L17.3914 23.0894L18.0242 24.3551L18.382 24.1762ZM17.5703 22.8H17.5V23.2H17.5703V22.8ZM17.5 22.8H13V23.2H17.5V22.8ZM13 22.8C12.9999 22.8 12.9997 22.8 12.9996 22.8C12.9995 22.8 12.9993 22.8 12.9992 22.8C12.999 22.8 12.9989 22.8 12.9988 22.8C12.9986 22.8 12.9985 22.8 12.9984 22.8C12.9982 22.8 12.9981 22.8 12.9979 22.8C12.9978 22.8 12.9977 22.8 12.9975 22.8C12.9974 22.8 12.9973 22.8 12.9971 22.8C12.997 22.8 12.9968 22.8 12.9967 22.8C12.9966 22.8 12.9964 22.8 12.9963 22.8C12.9962 22.8 12.996 22.8 12.9959 22.8C12.9957 22.8 12.9956 22.8 12.9955 22.8C12.9953 22.8 12.9952 22.8 12.9951 22.8C12.9949 22.8 12.9948 22.8 12.9946 22.8C12.9945 22.8 12.9944 22.8 12.9942 22.8C12.9941 22.8 12.994 22.8 12.9938 22.8C12.9937 22.8 12.9935 22.8 12.9934 22.8C12.9933 22.8 12.9931 22.8 12.993 22.8C12.9929 22.8 12.9927 22.8 12.9926 22.8C12.9924 22.8 12.9923 22.8 12.9922 22.8C12.992 22.8 12.9919 22.8 12.9918 22.8C12.9916 22.8 12.9915 22.8 12.9914 22.8C12.9912 22.8 12.9911 22.8 12.9909 22.8C12.9908 22.8 12.9907 22.8 12.9905 22.8C12.9904 22.8 12.9903 22.8 12.9901 22.8C12.99 22.8 12.9898 22.8 12.9897 22.8C12.9896 22.8 12.9894 22.8 12.9893 22.8C12.9892 22.8 12.989 22.8 12.9889 22.8C12.9887 22.8 12.9886 22.8 12.9885 22.8C12.9883 22.8 12.9882 22.8 12.9881 22.8C12.9879 22.8 12.9878 22.8 12.9877 22.8C12.9875 22.8 12.9874 22.8 12.9872 22.8C12.9871 22.8 12.987 22.8 12.9868 22.8C12.9867 22.8 12.9866 22.8 12.9864 22.8C12.9863 22.8 12.9861 22.8 12.986 22.8C12.9859 22.8 12.9857 22.8 12.9856 22.8C12.9855 22.8 12.9853 22.8 12.9852 22.8C12.9851 22.8 12.9849 22.8 12.9848 22.8C12.9846 22.8 12.9845 22.8 12.9844 22.8C12.9842 22.8 12.9841 22.8 12.984 22.8C12.9838 22.8 12.9837 22.8 12.9836 22.8C12.9834 22.8 12.9833 22.8 12.9831 22.8C12.983 22.8 12.9829 22.8 12.9827 22.8C12.9826 22.8 12.9825 22.8 12.9823 22.8C12.9822 22.8 12.9821 22.8 12.9819 22.8C12.9818 22.8 12.9816 22.8 12.9815 22.8C12.9814 22.8 12.9812 22.8 12.9811 22.8C12.981 22.8 12.9808 22.8 12.9807 22.8C12.9806 22.8 12.9804 22.8 12.9803 22.8C12.9801 22.8 12.98 22.8 12.9799 22.8C12.9797 22.8 12.9796 22.8 12.9795 22.8C12.9793 22.8 12.9792 22.8 12.9791 22.8C12.9789 22.8 12.9788 22.8 12.9787 22.8C12.9785 22.8 12.9784 22.8 12.9782 22.8C12.9781 22.8 12.978 22.8 12.9778 22.8C12.9777 22.8 12.9776 22.8 12.9774 22.8C12.9773 22.8 12.9772 22.8 12.977 22.8C12.9769 22.8 12.9767 22.8 12.9766 22.8C12.9765 22.8 12.9763 22.8 12.9762 22.8C12.9761 22.8 12.9759 22.8 12.9758 22.8C12.9757 22.8 12.9755 22.8 12.9754 22.8C12.9753 22.8 12.9751 22.8 12.975 22.8C12.9749 22.8 12.9747 22.8 12.9746 22.8C12.9744 22.8 12.9743 22.8 12.9742 22.8C12.974 22.8 12.9739 22.8 12.9738 22.8C12.9736 22.8 12.9735 22.8 12.9734 22.8C12.9732 22.8 12.9731 22.8 12.973 22.8C12.9728 22.8 12.9727 22.8 12.9726 22.8C12.9724 22.8 12.9723 22.8 12.9721 22.8C12.972 22.8 12.9719 22.8 12.9717 22.8C12.9716 22.8 12.9715 22.8 12.9713 22.8C12.9712 22.8 12.9711 22.8 12.9709 22.8C12.9708 22.8 12.9707 22.8 12.9705 22.8C12.9704 22.8 12.9703 22.8 12.9701 22.8C12.97 22.8 12.9699 22.8 12.9697 22.8C12.9696 22.8 12.9695 22.8 12.9693 22.8C12.9692 22.8 12.9691 22.8 12.9689 22.8C12.9688 22.8 12.9687 22.8 12.9685 22.8C12.9684 22.8 12.9682 22.8 12.9681 22.8C12.968 22.8 12.9678 22.8 12.9677 22.8C12.9676 22.8 12.9674 22.8 12.9673 22.8C12.9672 22.8 12.967 22.8 12.9669 22.8C12.9668 22.8 12.9666 22.8 12.9665 22.8C12.9664 22.8 12.9662 22.8 12.9661 22.8C12.966 22.8 12.9658 22.8 12.9657 22.8C12.9656 22.8 12.9654 22.8 12.9653 22.8C12.9652 22.8 12.965 22.8 12.9649 22.8C12.9648 22.8 12.9646 22.8 12.9645 22.8C12.9644 22.8 12.9642 22.8 12.9641 22.8C12.964 22.8 12.9638 22.8 12.9637 22.8C12.9636 22.8 12.9634 22.8 12.9633 22.8C12.9632 22.8 12.963 22.8 12.9629 22.8C12.9628 22.8 12.9626 22.8 12.9625 22.8C12.9624 22.8 12.9622 22.8 12.9621 22.8C12.962 22.8 12.9618 22.8 12.9617 22.8C12.9616 22.8 12.9614 22.8 12.9613 22.8C12.9612 22.8 12.961 22.8 12.9609 22.8C12.9608 22.8 12.9606 22.8 12.9605 22.8C12.9604 22.8 12.9603 22.8 12.9601 22.8C12.96 22.8 12.9599 22.8 12.9597 22.8C12.9596 22.8 12.9595 22.8 12.9593 22.8C12.9592 22.8 12.9591 22.8 12.9589 22.8C12.9588 22.8 12.9587 22.8 12.9585 22.8C12.9584 22.8 12.9583 22.8 12.9581 22.8C12.958 22.8 12.9579 22.8 12.9577 22.8C12.9576 22.8 12.9575 22.8 12.9573 22.8C12.9572 22.8 12.9571 22.8 12.957 22.8C12.9568 22.8 12.9567 22.8 12.9566 22.8C12.9564 22.8 12.9563 22.8 12.9562 22.8C12.956 22.8 12.9559 22.8 12.9558 22.8C12.9556 22.8 12.9555 22.8 12.9554 22.8C12.9552 22.8 12.9551 22.8 12.955 22.8C12.9549 22.8 12.9547 22.8 12.9546 22.8C12.9545 22.8 12.9543 22.8 12.9542 22.8C12.9541 22.8 12.9539 22.8 12.9538 22.8C12.9537 22.8 12.9535 22.8 12.9534 22.8C12.9533 22.8 12.9532 22.8 12.953 22.8C12.9529 22.8 12.9528 22.8 12.9526 22.8C12.9525 22.8 12.9524 22.8 12.9522 22.8C12.9521 22.8 12.952 22.8 12.9519 22.8C12.9517 22.8 12.9516 22.8 12.9515 22.8C12.9513 22.8 12.9512 22.8 12.9511 22.8C12.9509 22.8 12.9508 22.8 12.9507 22.8C12.9506 22.8 12.9504 22.8 12.9503 22.8C12.9502 22.8 12.95 22.8 12.9499 22.8C12.9498 22.8 12.9497 22.8 12.9495 22.8C12.9494 22.8 12.9493 22.8 12.9491 22.8C12.949 22.8 12.9489 22.8 12.9488 22.8C12.9486 22.8 12.9485 22.8 12.9484 22.8C12.9482 22.8 12.9481 22.8 12.948 22.8C12.9478 22.8 12.9477 22.8 12.9476 22.8C12.9475 22.8 12.9473 22.8 12.9472 22.8C12.9471 22.8 12.947 22.8 12.9468 22.8C12.9467 22.8 12.9466 22.8 12.9464 22.8C12.9463 22.8 12.9462 22.8 12.9461 22.8C12.9459 22.8 12.9458 22.8 12.9457 22.8C12.9455 22.8 12.9454 22.8 12.9453 22.8C12.9452 22.8 12.945 22.8 12.9449 22.8C12.9448 22.8 12.9446 22.8 12.9445 22.8C12.9444 22.8 12.9443 22.8 12.9441 22.8C12.944 22.8 12.9439 22.8 12.9438 22.8C12.9436 22.8 12.9435 22.8 12.9434 22.8C12.9433 22.8 12.9431 22.8 12.943 22.8C12.9429 22.8 12.9427 22.8 12.9426 22.8C12.9425 22.8 12.9424 22.8 12.9422 22.8C12.9421 22.8 12.942 22.8 12.9419 22.8C12.9417 22.8 12.9416 22.8 12.9415 22.8C12.9414 22.8 12.9412 22.8 12.9411 22.8C12.941 22.8 12.9409 22.8 12.9407 22.8C12.9406 22.8 12.9405 22.8 12.9403 22.8C12.9402 22.8 12.9401 22.8 12.94 22.8C12.9398 22.8 12.9397 22.8 12.9396 22.8C12.9395 22.8 12.9393 22.8 12.9392 22.8C12.9391 22.8 12.939 22.8 12.9388 22.8C12.9387 22.8 12.9386 22.8 12.9385 22.8C12.9383 22.8 12.9382 22.8 12.9381 22.8C12.938 22.8 12.9378 22.8 12.9377 22.8C12.9376 22.8 12.9375 22.8 12.9373 22.8C12.9372 22.8 12.9371 22.8 12.937 22.8C12.9368 22.8 12.9367 22.8 12.9366 22.8C12.9365 22.8 12.9364 22.8 12.9362 22.8C12.9361 22.8 12.936 22.8 12.9359 22.8C12.9357 22.8 12.9356 22.8 12.9355 22.8C12.9354 22.8 12.9352 22.8 12.9351 22.8C12.935 22.8 12.9349 22.8 12.9347 22.8C12.9346 22.8 12.9345 22.8 12.9344 22.8C12.9343 22.8 12.9341 22.8 12.934 22.8C12.9339 22.8 12.9338 22.8 12.9336 22.8C12.9335 22.8 12.9334 22.8 12.9333 22.8C12.9331 22.8 12.933 22.8 12.9329 22.8C12.9328 22.8 12.9327 22.8 12.9325 22.8C12.9324 22.8 12.9323 22.8 12.9322 22.8C12.932 22.8 12.9319 22.8 12.9318 22.8C12.9317 22.8 12.9316 22.8 12.9314 22.8C12.9313 22.8 12.9312 22.8 12.9311 22.8C12.931 22.8 12.9308 22.8 12.9307 22.8C12.9306 22.8 12.9305 22.8 12.9303 22.8C12.9302 22.8 12.9301 22.8 12.93 22.8C12.9299 22.8 12.9297 22.8 12.9296 22.8C12.9295 22.8 12.9294 22.8 12.9293 22.8C12.9291 22.8 12.929 22.8 12.9289 22.8C12.9288 22.8 12.9287 22.8 12.9285 22.8C12.9284 22.8 12.9283 22.8 12.9282 22.8C12.9281 22.8 12.9279 22.8 12.9278 22.8C12.9277 22.8 12.9276 22.8 12.9275 22.8C12.9273 22.8 12.9272 22.8 12.9271 22.8C12.927 22.8 12.9269 22.8 12.9267 22.8C12.9266 22.8 12.9265 22.8 12.9264 22.8C12.9263 22.8 12.9261 22.8 12.926 22.8C12.9259 22.8 12.9258 22.8 12.9257 22.8C12.9256 22.8 12.9254 22.8 12.9253 22.8C12.9252 22.8 12.9251 22.8 12.925 22.8C12.9248 22.8 12.9247 22.8 12.9246 22.8C12.9245 22.8 12.9244 22.8 12.9243 22.8C12.9241 22.8 12.924 22.8 12.9239 22.8C12.9238 22.8 12.9237 22.8 12.9235 22.8C12.9234 22.8 12.9233 22.8 12.9232 22.8C12.9231 22.8 12.923 22.8 12.9228 22.8C12.9227 22.8 12.9226 22.8 12.9225 22.8C12.9224 22.8 12.9223 22.8 12.9221 22.8C12.922 22.8 12.9219 22.8 12.9218 22.8C12.9217 22.8 12.9216 22.8 12.9214 22.8C12.9213 22.8 12.9212 22.8 12.9211 22.8C12.921 22.8 12.9209 22.8 12.9207 22.8C12.9206 22.8 12.9205 22.8 12.9204 22.8C12.9203 22.8 12.9202 22.8 12.9201 22.8C12.9199 22.8 12.9198 22.8 12.9197 22.8C12.9196 22.8 12.9195 22.8 12.9194 22.8C12.9193 22.8 12.9191 22.8 12.919 22.8C12.9189 22.8 12.9188 22.8 12.9187 22.8C12.9186 22.8 12.9184 22.8 12.9183 22.8C12.9182 22.8 12.9181 22.8 12.918 22.8C12.9179 22.8 12.9178 22.8 12.9177 22.8C12.9175 22.8 12.9174 22.8 12.9173 22.8C12.9172 22.8 12.9171 22.8 12.917 22.8C12.9169 22.8 12.9167 22.8 12.9166 22.8C12.9165 22.8 12.9164 22.8 12.9163 22.8C12.9162 22.8 12.9161 22.8 12.916 22.8C12.9158 22.8 12.9157 22.8 12.9156 22.8C12.9155 22.8 12.9154 22.8 12.9153 22.8C12.9152 22.8 12.9151 22.8 12.9149 22.8C12.9148 22.8 12.9147 22.8 12.9146 22.8C12.9145 22.8 12.9144 22.8 12.9143 22.8C12.9142 22.8 12.914 22.8 12.9139 22.8C12.9138 22.8 12.9137 22.8 12.9136 22.8C12.9135 22.8 12.9134 22.8 12.9133 22.8C12.9132 22.8 12.913 22.8 12.9129 22.8C12.9128 22.8 12.9127 22.8 12.9126 22.8C12.9125 22.8 12.9124 22.8 12.9123 22.8C12.9122 22.8 12.9121 22.8 12.9119 22.8C12.9118 22.8 12.9117 22.8 12.9116 22.8C12.9115 22.8 12.9114 22.8 12.9113 22.8C12.9112 22.8 12.9111 22.8 12.911 22.8C12.9109 22.8 12.9107 22.8 12.9106 22.8C12.9105 22.8 12.9104 22.8 12.9103 22.8C12.9102 22.8 12.9101 22.8 12.91 22.8C12.9099 22.8 12.9098 22.8 12.9097 22.8C12.9095 22.8 12.9094 22.8 12.9093 22.8C12.9092 22.8 12.9091 22.8 12.909 22.8C12.9089 22.8 12.9088 22.8 12.9087 22.8C12.9086 22.8 12.9085 22.8 12.9084 22.8C12.9083 22.8 12.9082 22.8 12.908 22.8C12.9079 22.8 12.9078 22.8 12.9077 22.8C12.9076 22.8 12.9075 22.8 12.9074 22.8C12.9073 22.8 12.9072 22.8 12.9071 22.8C12.907 22.8 12.9069 22.8 12.9068 22.8C12.9067 22.8 12.9066 22.8 12.9065 22.8C12.9063 22.8 12.9062 22.8 12.9061 22.8C12.906 22.8 12.9059 22.8 12.9058 22.8C12.9057 22.8 12.9056 22.8 12.9055 22.8C12.9054 22.8 12.9053 22.8 12.9052 22.8C12.9051 22.8 12.905 22.8 12.9049 22.8C12.9048 22.8 12.9047 22.8 12.9046 22.8C12.9045 22.8 12.9044 22.8 12.9043 22.8C12.9041 22.8 12.904 22.8 12.9039 22.8C12.9038 22.8 12.9037 22.8 12.9036 22.8C12.9035 22.8 12.9034 22.8 12.9033 22.8C12.9032 22.8 12.9031 22.8 12.903 22.8C12.9029 22.8 12.9028 22.8 12.9027 22.8C12.9026 22.8 12.9025 22.8 12.9024 22.8C12.9023 22.8 12.9022 22.8 12.9021 22.8C12.902 22.8 12.9019 22.8 12.9018 22.8C12.9017 22.8 12.9016 22.8 12.9015 22.8C12.9014 22.8 12.9013 22.8 12.9012 22.8C12.9011 22.8 12.901 22.8 12.9009 22.8C12.9008 22.8 12.9007 22.8 12.9006 22.8C12.9005 22.8 12.9004 22.8 12.9003 22.8C12.9002 22.8 12.9001 22.8 12.9 22.8C12.8999 22.8 12.8998 22.8 12.8997 22.8C12.8996 22.8 12.8995 22.8 12.8994 22.8C12.8993 22.8 12.8992 22.8 12.8991 22.8C12.899 22.8 12.8989 22.8 12.8988 22.8C12.8987 22.8 12.8986 22.8 12.8985 22.8C12.8984 22.8 12.8983 22.8 12.8982 22.8C12.8981 22.8 12.898 22.8 12.8979 22.8C12.8978 22.8 12.8977 22.8 12.8976 22.8C12.8975 22.8 12.8974 22.8 12.8973 22.8C12.8972 22.8 12.8971 22.8 12.897 22.8C12.8969 22.8 12.8968 22.8 12.8967 22.8C12.8966 22.8 12.8965 22.8 12.8964 22.8C12.8963 22.8 12.8962 22.8 12.8961 22.8C12.896 22.8 12.896 22.8 12.8959 22.8C12.8958 22.8 12.8957 22.8 12.8956 22.8C12.8955 22.8 12.8954 22.8 12.8953 22.8C12.8952 22.8 12.8951 22.8 12.895 22.8C12.8949 22.8 12.8948 22.8 12.8947 22.8C12.8946 22.8 12.8945 22.8 12.8944 22.8C12.8943 22.8 12.8942 22.8 12.8941 22.8C12.894 22.8 12.894 22.8 12.8939 22.8C12.8938 22.8 12.8937 22.8 12.8936 22.8C12.8935 22.8 12.8934 22.8 12.8933 22.8C12.8932 22.8 12.8931 22.8 12.893 22.8C12.8929 22.8 12.8928 22.8 12.8927 22.8C12.8926 22.8 12.8926 22.8 12.8925 22.8C12.8924 22.8 12.8923 22.8 12.8922 22.8C12.8921 22.8 12.892 22.8 12.8919 22.8C12.8918 22.8 12.8917 22.8 12.8916 22.8C12.8915 22.8 12.8915 22.8 12.8914 22.8C12.8913 22.8 12.8912 22.8 12.8911 22.8C12.891 22.8 12.8909 22.8 12.8908 22.8C12.8907 22.8 12.8906 22.8 12.8905 22.8C12.8905 22.8 12.8904 22.8 12.8903 22.8C12.8902 22.8 12.8901 22.8 12.89 22.8C12.8899 22.8 12.8898 22.8 12.8897 22.8C12.8897 22.8 12.8896 22.8 12.8895 22.8C12.8894 22.8 12.8893 22.8 12.8892 22.8C12.8891 22.8 12.889 22.8 12.8889 22.8C12.8889 22.8 12.8888 22.8 12.8887 22.8C12.8886 22.8 12.8885 22.8 12.8884 22.8C12.8883 22.8 12.8882 22.8 12.8882 22.8C12.8881 22.8 12.888 22.8 12.8879 22.8C12.8878 22.8 12.8877 22.8 12.8876 22.8C12.8875 22.8 12.8875 22.8 12.8874 22.8C12.8873 22.8 12.8872 22.8 12.8871 22.8C12.887 22.8 12.8869 22.8 12.8869 22.8C12.8868 22.8 12.8867 22.8 12.8866 22.8C12.8865 22.8 12.8864 22.8 12.8863 22.8C12.8863 22.8 12.8862 22.8 12.8861 22.8C12.886 22.8 12.8859 22.8 12.8858 22.8C12.8857 22.8 12.8857 22.8 12.8856 22.8C12.8855 22.8 12.8854 22.8 12.8853 22.8C12.8852 22.8 12.8852 22.8 12.8851 22.8C12.885 22.8 12.8849 22.8 12.8848 22.8C12.8847 22.8 12.8847 22.8 12.8846 22.8C12.8845 22.8 12.8844 22.8 12.8843 22.8C12.8843 22.8 12.8842 22.8 12.8841 22.8C12.884 22.8 12.8839 22.8 12.8838 22.8C12.8838 22.8 12.8837 22.8 12.8836 22.8C12.8835 22.8 12.8834 22.8 12.8834 22.8C12.8833 22.8 12.8832 22.8 12.8831 22.8C12.883 22.8 12.883 22.8 12.8829 22.8C12.8828 22.8 12.8827 22.8 12.8826 22.8C12.8826 22.8 12.8825 22.8 12.8824 22.8C12.8823 22.8 12.8822 22.8 12.8822 22.8C12.8821 22.8 12.882 22.8 12.8819 22.8C12.8818 22.8 12.8818 22.8 12.8817 22.8C12.8816 22.8 12.8815 22.8 12.8814 22.8C12.8814 22.8 12.8813 22.8 12.8812 22.8C12.8811 22.8 12.8811 22.8 12.881 22.8C12.8809 22.8 12.8808 22.8 12.8807 22.8C12.8807 22.8 12.8806 22.8 12.8805 22.8C12.8804 22.8 12.8804 22.8 12.8803 22.8C12.8802 22.8 12.8801 22.8 12.8801 22.8C12.88 22.8 12.8799 22.8 12.8798 22.8C12.8798 22.8 12.8797 22.8 12.8796 22.8C12.8795 22.8 12.8795 22.8 12.8794 22.8C12.8793 22.8 12.8792 22.8 12.8792 22.8C12.8791 22.8 12.879 22.8 12.8789 22.8C12.8789 22.8 12.8788 22.8 12.8787 22.8C12.8786 22.8 12.8786 22.8 12.8785 22.8C12.8784 22.8 12.8783 22.8 12.8783 22.8C12.8782 22.8 12.8781 22.8 12.878 22.8C12.878 22.8 12.8779 22.8 12.8778 22.8C12.8778 22.8 12.8777 22.8 12.8776 22.8C12.8775 22.8 12.8775 22.8 12.8774 22.8C12.8773 22.8 12.8773 22.8 12.8772 22.8C12.8771 22.8 12.877 22.8 12.877 22.8C12.8769 22.8 12.8768 22.8 12.8768 22.8C12.8767 22.8 12.8766 22.8 12.8765 22.8C12.8765 22.8 12.8764 22.8 12.8763 22.8C12.8763 22.8 12.8762 22.8 12.8761 22.8C12.8761 22.8 12.876 22.8 12.8759 22.8C12.8758 22.8 12.8758 22.8 12.8757 22.8C12.8756 22.8 12.8756 22.8 12.8755 22.8C12.8754 22.8 12.8754 22.8 12.8753 22.8C12.8752 22.8 12.8752 22.8 12.8751 22.8C12.875 22.8 12.875 22.8 12.8749 22.8C12.8748 22.8 12.8748 22.8 12.8747 22.8C12.8746 22.8 12.8746 22.8 12.8745 22.8C12.8744 22.8 12.8744 22.8 12.8743 22.8C12.8742 22.8 12.8742 22.8 12.8741 22.8C12.874 22.8 12.874 22.8 12.8739 22.8C12.8738 22.8 12.8738 22.8 12.8737 22.8C12.8736 22.8 12.8736 22.8 12.8735 22.8C12.8735 22.8 12.8734 22.8 12.8733 22.8C12.8733 22.8 12.8732 22.8 12.8731 22.8C12.8731 22.8 12.873 22.8 12.8729 22.8C12.8729 22.8 12.8728 22.8 12.8728 22.8C12.8727 22.8 12.8726 22.8 12.8726 22.8C12.8725 22.8 12.8724 22.8 12.8724 22.8C12.8723 22.8 12.8723 22.8 12.8722 22.8C12.8721 22.8 12.8721 22.8 12.872 22.8C12.8719 22.8 12.8719 22.8 12.8718 22.8C12.8718 22.8 12.8717 22.8 12.8716 22.8C12.8716 22.8 12.8715 22.8 12.8715 22.8C12.8714 22.8 12.8713 22.8 12.8713 22.8C12.8712 22.8 12.8712 22.8 12.8711 22.8C12.871 22.8 12.871 22.8 12.8709 22.8C12.8709 22.8 12.8708 22.8 12.8707 22.8C12.8707 22.8 12.8706 22.8 12.8706 22.8C12.8705 22.8 12.8705 22.8 12.8704 22.8C12.8703 22.8 12.8703 22.8 12.8702 22.8C12.8702 22.8 12.8701 22.8 12.8701 22.8C12.87 22.8 12.8699 22.8 12.8699 22.8C12.8698 22.8 12.8698 22.8 12.8697 22.8C12.8697 22.8 12.8696 22.8 12.8696 22.8C12.8695 22.8 12.8694 22.8 12.8694 22.8C12.8693 22.8 12.8693 22.8 12.8692 22.8C12.8692 22.8 12.8691 22.8 12.8691 22.8C12.869 22.8 12.8689 22.8 12.8689 22.8C12.8688 22.8 12.8688 22.8 12.8687 22.8C12.8687 22.8 12.8686 22.8 12.8686 22.8C12.8685 22.8 12.8685 22.8 12.8684 22.8C12.8684 22.8 12.8683 22.8 12.8683 22.8C12.8682 22.8 12.8682 22.8 12.8681 22.8C12.868 22.8 12.868 22.8 12.8679 22.8C12.8679 22.8 12.8678 22.8 12.8678 22.8C12.8677 22.8 12.8677 22.8 12.8676 22.8C12.8676 22.8 12.8675 22.8 12.8675 22.8C12.8674 22.8 12.8674 22.8 12.8673 22.8C12.8673 22.8 12.8672 22.8 12.8672 22.8C12.8671 22.8 12.8671 22.8 12.867 22.8C12.867 22.8 12.8669 22.8 12.8669 22.8C12.8668 22.8 12.8668 22.8 12.8668 22.8C12.8667 22.8 12.8667 22.8 12.8666 22.8C12.8666 22.8 12.8665 22.8 12.8665 22.8C12.8664 22.8 12.8664 22.8 12.8663 22.8C12.8663 22.8 12.8662 22.8 12.8662 22.8C12.8661 22.8 12.8661 22.8 12.866 22.8C12.866 22.8 12.866 22.8 12.8659 22.8C12.8659 22.8 12.8658 22.8 12.8658 22.8C12.8657 22.8 12.8657 22.8 12.8656 22.8C12.8656 22.8 12.8656 22.8 12.8655 22.8C12.8655 22.8 12.8654 22.8 12.8654 22.8C12.8653 22.8 12.8653 22.8 12.8652 22.8C12.8652 22.8 12.8652 22.8 12.8651 22.8C12.8651 22.8 12.865 22.8 12.865 22.8C12.865 22.8 12.8649 22.8 12.8649 22.8C12.8648 22.8 12.8648 22.8 12.8647 22.8C12.8647 22.8 12.8647 22.8 12.8646 22.8C12.8646 22.8 12.8645 22.8 12.8645 22.8C12.8645 22.8 12.8644 22.8 12.8644 22.8C12.8643 22.8 12.8643 22.8 12.8643 22.8C12.8642 22.8 12.8642 22.8 12.8641 22.8C12.8641 22.8 12.8641 22.8 12.864 22.8C12.864 22.8 12.8639 22.8 12.8639 22.8C12.8639 22.8 12.8638 22.8 12.8638 22.8C12.8638 22.8 12.8637 22.8 12.8637 22.8C12.8636 22.8 12.8636 22.8 12.8636 22.8C12.8635 22.8 12.8635 22.8 12.8635 22.8C12.8634 22.8 12.8634 22.8 12.8634 22.8C12.8633 22.8 12.8633 22.8 12.8632 22.8C12.8632 22.8 12.8632 22.8 12.8631 22.8C12.8631 22.8 12.8631 22.8 12.863 22.8C12.863 22.8 12.863 22.8 12.8629 22.8C12.8629 22.8 12.8629 22.8 12.8628 22.8C12.8628 22.8 12.8628 22.8 12.8627 22.8C12.8627 22.8 12.8627 22.8 12.8626 22.8C12.8626 22.8 12.8626 22.8 12.8625 22.8C12.8625 22.8 12.8625 22.8 12.8624 22.8C12.8624 22.8 12.8624 22.8 12.8623 22.8C12.8623 22.8 12.8623 22.8 12.8623 22.8C12.8622 22.8 12.8622 22.8 12.8622 22.8C12.8621 22.8 12.8621 22.8 12.8621 22.8C12.862 22.8 12.862 22.8 12.862 22.8C12.8619 22.8 12.8619 22.8 12.8619 22.8C12.8619 22.8 12.8618 22.8 12.8618 22.8C12.8618 22.8 12.8617 22.8 12.8617 22.8C12.8617 22.8 12.8617 22.8 12.8616 22.8C12.8616 22.8 12.8616 22.8 12.8616 22.8C12.8615 22.8 12.8615 22.8 12.8615 22.8C12.8615 22.8 12.8614 22.8 12.8614 22.8C12.8614 22.8 12.8613 22.8 12.8613 22.8C12.8613 22.8 12.8613 22.8 12.8612 22.8C12.8612 22.8 12.8612 22.8 12.8612 22.8C12.8611 22.8 12.8611 22.8 12.8611 22.8C12.8611 22.8 12.8611 22.8 12.861 22.8C12.861 22.8 12.861 22.8 12.861 22.8C12.8609 22.8 12.8609 22.8 12.8609 22.8C12.8609 22.8 12.8608 22.8 12.8608 22.8C12.8608 22.8 12.8608 22.8 12.8608 22.8C12.8607 22.8 12.8607 22.8 12.8607 22.8C12.8607 22.8 12.8606 22.8 12.8606 22.8C12.8606 22.8 12.8606 22.8 12.8606 22.8C12.8605 22.8 12.8605 22.8 12.8605 22.8C12.8605 22.8 12.8605 22.8 12.8604 22.8C12.8604 22.8 12.8604 22.8 12.8604 22.8C12.8604 22.8 12.8604 22.8 12.8603 22.8C12.8603 22.8 12.8603 22.8 12.8603 22.8C12.8603 22.8 12.8602 22.8 12.8602 22.8C12.8602 22.8 12.8602 22.8 12.8602 22.8C12.8602 22.8 12.8601 22.8 12.8601 22.8C12.8601 22.8 12.8601 22.8 12.8601 22.8C12.8601 22.8 12.8601 22.8 12.86 22.8C12.86 22.8 12.86 22.8 12.86 22.8C12.86 22.8 12.86 22.8 12.86 22.8C12.8599 22.8 12.8599 22.8 12.8599 22.8C12.8599 22.8 12.8599 22.8 12.8599 22.8C12.8599 22.8 12.8598 22.8 12.8598 22.8C12.8598 22.8 12.8598 22.8 12.8598 22.8C12.8598 22.8 12.8598 22.8 12.8598 22.8C12.8597 22.8 12.8597 22.8 12.8597 22.8C12.8597 22.8 12.8597 22.8 12.8597 22.8C12.8597 22.8 12.8597 22.8 12.8597 22.8C12.8597 22.8 12.8596 22.8 12.8596 22.8C12.8596 22.8 12.8596 22.8 12.8596 22.8C12.8596 22.8 12.8596 22.8 12.8596 22.8C12.8596 22.8 12.8596 22.8 12.8596 22.8C12.8595 22.8 12.8595 22.8 12.8595 22.8C12.8595 22.8 12.8595 22.8 12.8595 22.8C12.8595 22.8 12.8595 22.8 12.8595 22.8C12.8595 22.8 12.8595 22.8 12.8595 22.8C12.8595 22.8 12.8595 22.8 12.8595 22.8C12.8594 22.8 12.8594 22.8 12.8594 22.8C12.8594 22.8 12.8594 22.8 12.8594 22.8C12.8594 22.8 12.8594 22.8 12.8594 22.8C12.8594 22.8 12.8594 22.8 12.8594 22.8C12.8594 22.8 12.8594 22.8 12.8594 22.8C12.8594 22.8 12.8594 22.8 12.8594 22.8C12.8594 22.8 12.8594 22.8 12.8594 22.8C12.8594 22.8 12.8594 22.8 12.8594 22.8C12.8594 22.8 12.8594 22.8 12.8594 22.8C12.8594 22.8 12.8594 22.8 12.8594 23C12.8594 23.2 12.8594 23.2 12.8594 23.2C12.8594 23.2 12.8594 23.2 12.8594 23.2C12.8594 23.2 12.8594 23.2 12.8594 23.2C12.8594 23.2 12.8594 23.2 12.8594 23.2C12.8594 23.2 12.8594 23.2 12.8594 23.2C12.8594 23.2 12.8594 23.2 12.8594 23.2C12.8594 23.2 12.8594 23.2 12.8594 23.2C12.8594 23.2 12.8594 23.2 12.8594 23.2C12.8594 23.2 12.8594 23.2 12.8594 23.2C12.8594 23.2 12.8594 23.2 12.8595 23.2C12.8595 23.2 12.8595 23.2 12.8595 23.2C12.8595 23.2 12.8595 23.2 12.8595 23.2C12.8595 23.2 12.8595 23.2 12.8595 23.2C12.8595 23.2 12.8595 23.2 12.8595 23.2C12.8595 23.2 12.8595 23.2 12.8596 23.2C12.8596 23.2 12.8596 23.2 12.8596 23.2C12.8596 23.2 12.8596 23.2 12.8596 23.2C12.8596 23.2 12.8596 23.2 12.8596 23.2C12.8596 23.2 12.8597 23.2 12.8597 23.2C12.8597 23.2 12.8597 23.2 12.8597 23.2C12.8597 23.2 12.8597 23.2 12.8597 23.2C12.8597 23.2 12.8597 23.2 12.8598 23.2C12.8598 23.2 12.8598 23.2 12.8598 23.2C12.8598 23.2 12.8598 23.2 12.8598 23.2C12.8598 23.2 12.8599 23.2 12.8599 23.2C12.8599 23.2 12.8599 23.2 12.8599 23.2C12.8599 23.2 12.8599 23.2 12.86 23.2C12.86 23.2 12.86 23.2 12.86 23.2C12.86 23.2 12.86 23.2 12.86 23.2C12.8601 23.2 12.8601 23.2 12.8601 23.2C12.8601 23.2 12.8601 23.2 12.8601 23.2C12.8601 23.2 12.8602 23.2 12.8602 23.2C12.8602 23.2 12.8602 23.2 12.8602 23.2C12.8602 23.2 12.8603 23.2 12.8603 23.2C12.8603 23.2 12.8603 23.2 12.8603 23.2C12.8604 23.2 12.8604 23.2 12.8604 23.2C12.8604 23.2 12.8604 23.2 12.8604 23.2C12.8605 23.2 12.8605 23.2 12.8605 23.2C12.8605 23.2 12.8605 23.2 12.8606 23.2C12.8606 23.2 12.8606 23.2 12.8606 23.2C12.8606 23.2 12.8607 23.2 12.8607 23.2C12.8607 23.2 12.8607 23.2 12.8608 23.2C12.8608 23.2 12.8608 23.2 12.8608 23.2C12.8608 23.2 12.8609 23.2 12.8609 23.2C12.8609 23.2 12.8609 23.2 12.861 23.2C12.861 23.2 12.861 23.2 12.861 23.2C12.8611 23.2 12.8611 23.2 12.8611 23.2C12.8611 23.2 12.8611 23.2 12.8612 23.2C12.8612 23.2 12.8612 23.2 12.8612 23.2C12.8613 23.2 12.8613 23.2 12.8613 23.2C12.8613 23.2 12.8614 23.2 12.8614 23.2C12.8614 23.2 12.8615 23.2 12.8615 23.2C12.8615 23.2 12.8615 23.2 12.8616 23.2C12.8616 23.2 12.8616 23.2 12.8616 23.2C12.8617 23.2 12.8617 23.2 12.8617 23.2C12.8617 23.2 12.8618 23.2 12.8618 23.2C12.8618 23.2 12.8619 23.2 12.8619 23.2C12.8619 23.2 12.8619 23.2 12.862 23.2C12.862 23.2 12.862 23.2 12.8621 23.2C12.8621 23.2 12.8621 23.2 12.8622 23.2C12.8622 23.2 12.8622 23.2 12.8623 23.2C12.8623 23.2 12.8623 23.2 12.8623 23.2C12.8624 23.2 12.8624 23.2 12.8624 23.2C12.8625 23.2 12.8625 23.2 12.8625 23.2C12.8626 23.2 12.8626 23.2 12.8626 23.2C12.8627 23.2 12.8627 23.2 12.8627 23.2C12.8628 23.2 12.8628 23.2 12.8628 23.2C12.8629 23.2 12.8629 23.2 12.8629 23.2C12.863 23.2 12.863 23.2 12.863 23.2C12.8631 23.2 12.8631 23.2 12.8631 23.2C12.8632 23.2 12.8632 23.2 12.8632 23.2C12.8633 23.2 12.8633 23.2 12.8634 23.2C12.8634 23.2 12.8634 23.2 12.8635 23.2C12.8635 23.2 12.8635 23.2 12.8636 23.2C12.8636 23.2 12.8636 23.2 12.8637 23.2C12.8637 23.2 12.8638 23.2 12.8638 23.2C12.8638 23.2 12.8639 23.2 12.8639 23.2C12.8639 23.2 12.864 23.2 12.864 23.2C12.8641 23.2 12.8641 23.2 12.8641 23.2C12.8642 23.2 12.8642 23.2 12.8643 23.2C12.8643 23.2 12.8643 23.2 12.8644 23.2C12.8644 23.2 12.8645 23.2 12.8645 23.2C12.8645 23.2 12.8646 23.2 12.8646 23.2C12.8647 23.2 12.8647 23.2 12.8647 23.2C12.8648 23.2 12.8648 23.2 12.8649 23.2C12.8649 23.2 12.865 23.2 12.865 23.2C12.865 23.2 12.8651 23.2 12.8651 23.2C12.8652 23.2 12.8652 23.2 12.8652 23.2C12.8653 23.2 12.8653 23.2 12.8654 23.2C12.8654 23.2 12.8655 23.2 12.8655 23.2C12.8656 23.2 12.8656 23.2 12.8656 23.2C12.8657 23.2 12.8657 23.2 12.8658 23.2C12.8658 23.2 12.8659 23.2 12.8659 23.2C12.866 23.2 12.866 23.2 12.866 23.2C12.8661 23.2 12.8661 23.2 12.8662 23.2C12.8662 23.2 12.8663 23.2 12.8663 23.2C12.8664 23.2 12.8664 23.2 12.8665 23.2C12.8665 23.2 12.8666 23.2 12.8666 23.2C12.8667 23.2 12.8667 23.2 12.8668 23.2C12.8668 23.2 12.8668 23.2 12.8669 23.2C12.8669 23.2 12.867 23.2 12.867 23.2C12.8671 23.2 12.8671 23.2 12.8672 23.2C12.8672 23.2 12.8673 23.2 12.8673 23.2C12.8674 23.2 12.8674 23.2 12.8675 23.2C12.8675 23.2 12.8676 23.2 12.8676 23.2C12.8677 23.2 12.8677 23.2 12.8678 23.2C12.8678 23.2 12.8679 23.2 12.8679 23.2C12.868 23.2 12.868 23.2 12.8681 23.2C12.8682 23.2 12.8682 23.2 12.8683 23.2C12.8683 23.2 12.8684 23.2 12.8684 23.2C12.8685 23.2 12.8685 23.2 12.8686 23.2C12.8686 23.2 12.8687 23.2 12.8687 23.2C12.8688 23.2 12.8688 23.2 12.8689 23.2C12.8689 23.2 12.869 23.2 12.8691 23.2C12.8691 23.2 12.8692 23.2 12.8692 23.2C12.8693 23.2 12.8693 23.2 12.8694 23.2C12.8694 23.2 12.8695 23.2 12.8696 23.2C12.8696 23.2 12.8697 23.2 12.8697 23.2C12.8698 23.2 12.8698 23.2 12.8699 23.2C12.8699 23.2 12.87 23.2 12.8701 23.2C12.8701 23.2 12.8702 23.2 12.8702 23.2C12.8703 23.2 12.8703 23.2 12.8704 23.2C12.8705 23.2 12.8705 23.2 12.8706 23.2C12.8706 23.2 12.8707 23.2 12.8707 23.2C12.8708 23.2 12.8709 23.2 12.8709 23.2C12.871 23.2 12.871 23.2 12.8711 23.2C12.8712 23.2 12.8712 23.2 12.8713 23.2C12.8713 23.2 12.8714 23.2 12.8715 23.2C12.8715 23.2 12.8716 23.2 12.8716 23.2C12.8717 23.2 12.8718 23.2 12.8718 23.2C12.8719 23.2 12.8719 23.2 12.872 23.2C12.8721 23.2 12.8721 23.2 12.8722 23.2C12.8723 23.2 12.8723 23.2 12.8724 23.2C12.8724 23.2 12.8725 23.2 12.8726 23.2C12.8726 23.2 12.8727 23.2 12.8728 23.2C12.8728 23.2 12.8729 23.2 12.8729 23.2C12.873 23.2 12.8731 23.2 12.8731 23.2C12.8732 23.2 12.8733 23.2 12.8733 23.2C12.8734 23.2 12.8735 23.2 12.8735 23.2C12.8736 23.2 12.8736 23.2 12.8737 23.2C12.8738 23.2 12.8738 23.2 12.8739 23.2C12.874 23.2 12.874 23.2 12.8741 23.2C12.8742 23.2 12.8742 23.2 12.8743 23.2C12.8744 23.2 12.8744 23.2 12.8745 23.2C12.8746 23.2 12.8746 23.2 12.8747 23.2C12.8748 23.2 12.8748 23.2 12.8749 23.2C12.875 23.2 12.875 23.2 12.8751 23.2C12.8752 23.2 12.8752 23.2 12.8753 23.2C12.8754 23.2 12.8754 23.2 12.8755 23.2C12.8756 23.2 12.8756 23.2 12.8757 23.2C12.8758 23.2 12.8758 23.2 12.8759 23.2C12.876 23.2 12.8761 23.2 12.8761 23.2C12.8762 23.2 12.8763 23.2 12.8763 23.2C12.8764 23.2 12.8765 23.2 12.8765 23.2C12.8766 23.2 12.8767 23.2 12.8768 23.2C12.8768 23.2 12.8769 23.2 12.877 23.2C12.877 23.2 12.8771 23.2 12.8772 23.2C12.8773 23.2 12.8773 23.2 12.8774 23.2C12.8775 23.2 12.8775 23.2 12.8776 23.2C12.8777 23.2 12.8778 23.2 12.8778 23.2C12.8779 23.2 12.878 23.2 12.878 23.2C12.8781 23.2 12.8782 23.2 12.8783 23.2C12.8783 23.2 12.8784 23.2 12.8785 23.2C12.8786 23.2 12.8786 23.2 12.8787 23.2C12.8788 23.2 12.8789 23.2 12.8789 23.2C12.879 23.2 12.8791 23.2 12.8792 23.2C12.8792 23.2 12.8793 23.2 12.8794 23.2C12.8795 23.2 12.8795 23.2 12.8796 23.2C12.8797 23.2 12.8798 23.2 12.8798 23.2C12.8799 23.2 12.88 23.2 12.8801 23.2C12.8801 23.2 12.8802 23.2 12.8803 23.2C12.8804 23.2 12.8804 23.2 12.8805 23.2C12.8806 23.2 12.8807 23.2 12.8807 23.2C12.8808 23.2 12.8809 23.2 12.881 23.2C12.8811 23.2 12.8811 23.2 12.8812 23.2C12.8813 23.2 12.8814 23.2 12.8814 23.2C12.8815 23.2 12.8816 23.2 12.8817 23.2C12.8818 23.2 12.8818 23.2 12.8819 23.2C12.882 23.2 12.8821 23.2 12.8822 23.2C12.8822 23.2 12.8823 23.2 12.8824 23.2C12.8825 23.2 12.8826 23.2 12.8826 23.2C12.8827 23.2 12.8828 23.2 12.8829 23.2C12.883 23.2 12.883 23.2 12.8831 23.2C12.8832 23.2 12.8833 23.2 12.8834 23.2C12.8834 23.2 12.8835 23.2 12.8836 23.2C12.8837 23.2 12.8838 23.2 12.8838 23.2C12.8839 23.2 12.884 23.2 12.8841 23.2C12.8842 23.2 12.8843 23.2 12.8843 23.2C12.8844 23.2 12.8845 23.2 12.8846 23.2C12.8847 23.2 12.8847 23.2 12.8848 23.2C12.8849 23.2 12.885 23.2 12.8851 23.2C12.8852 23.2 12.8852 23.2 12.8853 23.2C12.8854 23.2 12.8855 23.2 12.8856 23.2C12.8857 23.2 12.8857 23.2 12.8858 23.2C12.8859 23.2 12.886 23.2 12.8861 23.2C12.8862 23.2 12.8863 23.2 12.8863 23.2C12.8864 23.2 12.8865 23.2 12.8866 23.2C12.8867 23.2 12.8868 23.2 12.8869 23.2C12.8869 23.2 12.887 23.2 12.8871 23.2C12.8872 23.2 12.8873 23.2 12.8874 23.2C12.8875 23.2 12.8875 23.2 12.8876 23.2C12.8877 23.2 12.8878 23.2 12.8879 23.2C12.888 23.2 12.8881 23.2 12.8882 23.2C12.8882 23.2 12.8883 23.2 12.8884 23.2C12.8885 23.2 12.8886 23.2 12.8887 23.2C12.8888 23.2 12.8889 23.2 12.8889 23.2C12.889 23.2 12.8891 23.2 12.8892 23.2C12.8893 23.2 12.8894 23.2 12.8895 23.2C12.8896 23.2 12.8897 23.2 12.8897 23.2C12.8898 23.2 12.8899 23.2 12.89 23.2C12.8901 23.2 12.8902 23.2 12.8903 23.2C12.8904 23.2 12.8905 23.2 12.8905 23.2C12.8906 23.2 12.8907 23.2 12.8908 23.2C12.8909 23.2 12.891 23.2 12.8911 23.2C12.8912 23.2 12.8913 23.2 12.8914 23.2C12.8915 23.2 12.8915 23.2 12.8916 23.2C12.8917 23.2 12.8918 23.2 12.8919 23.2C12.892 23.2 12.8921 23.2 12.8922 23.2C12.8923 23.2 12.8924 23.2 12.8925 23.2C12.8926 23.2 12.8926 23.2 12.8927 23.2C12.8928 23.2 12.8929 23.2 12.893 23.2C12.8931 23.2 12.8932 23.2 12.8933 23.2C12.8934 23.2 12.8935 23.2 12.8936 23.2C12.8937 23.2 12.8938 23.2 12.8939 23.2C12.894 23.2 12.894 23.2 12.8941 23.2C12.8942 23.2 12.8943 23.2 12.8944 23.2C12.8945 23.2 12.8946 23.2 12.8947 23.2C12.8948 23.2 12.8949 23.2 12.895 23.2C12.8951 23.2 12.8952 23.2 12.8953 23.2C12.8954 23.2 12.8955 23.2 12.8956 23.2C12.8957 23.2 12.8958 23.2 12.8959 23.2C12.896 23.2 12.896 23.2 12.8961 23.2C12.8962 23.2 12.8963 23.2 12.8964 23.2C12.8965 23.2 12.8966 23.2 12.8967 23.2C12.8968 23.2 12.8969 23.2 12.897 23.2C12.8971 23.2 12.8972 23.2 12.8973 23.2C12.8974 23.2 12.8975 23.2 12.8976 23.2C12.8977 23.2 12.8978 23.2 12.8979 23.2C12.898 23.2 12.8981 23.2 12.8982 23.2C12.8983 23.2 12.8984 23.2 12.8985 23.2C12.8986 23.2 12.8987 23.2 12.8988 23.2C12.8989 23.2 12.899 23.2 12.8991 23.2C12.8992 23.2 12.8993 23.2 12.8994 23.2C12.8995 23.2 12.8996 23.2 12.8997 23.2C12.8998 23.2 12.8999 23.2 12.9 23.2C12.9001 23.2 12.9002 23.2 12.9003 23.2C12.9004 23.2 12.9005 23.2 12.9006 23.2C12.9007 23.2 12.9008 23.2 12.9009 23.2C12.901 23.2 12.9011 23.2 12.9012 23.2C12.9013 23.2 12.9014 23.2 12.9015 23.2C12.9016 23.2 12.9017 23.2 12.9018 23.2C12.9019 23.2 12.902 23.2 12.9021 23.2C12.9022 23.2 12.9023 23.2 12.9024 23.2C12.9025 23.2 12.9026 23.2 12.9027 23.2C12.9028 23.2 12.9029 23.2 12.903 23.2C12.9031 23.2 12.9032 23.2 12.9033 23.2C12.9034 23.2 12.9035 23.2 12.9036 23.2C12.9037 23.2 12.9038 23.2 12.9039 23.2C12.904 23.2 12.9041 23.2 12.9043 23.2C12.9044 23.2 12.9045 23.2 12.9046 23.2C12.9047 23.2 12.9048 23.2 12.9049 23.2C12.905 23.2 12.9051 23.2 12.9052 23.2C12.9053 23.2 12.9054 23.2 12.9055 23.2C12.9056 23.2 12.9057 23.2 12.9058 23.2C12.9059 23.2 12.906 23.2 12.9061 23.2C12.9062 23.2 12.9063 23.2 12.9065 23.2C12.9066 23.2 12.9067 23.2 12.9068 23.2C12.9069 23.2 12.907 23.2 12.9071 23.2C12.9072 23.2 12.9073 23.2 12.9074 23.2C12.9075 23.2 12.9076 23.2 12.9077 23.2C12.9078 23.2 12.9079 23.2 12.908 23.2C12.9082 23.2 12.9083 23.2 12.9084 23.2C12.9085 23.2 12.9086 23.2 12.9087 23.2C12.9088 23.2 12.9089 23.2 12.909 23.2C12.9091 23.2 12.9092 23.2 12.9093 23.2C12.9094 23.2 12.9095 23.2 12.9097 23.2C12.9098 23.2 12.9099 23.2 12.91 23.2C12.9101 23.2 12.9102 23.2 12.9103 23.2C12.9104 23.2 12.9105 23.2 12.9106 23.2C12.9107 23.2 12.9109 23.2 12.911 23.2C12.9111 23.2 12.9112 23.2 12.9113 23.2C12.9114 23.2 12.9115 23.2 12.9116 23.2C12.9117 23.2 12.9118 23.2 12.9119 23.2C12.9121 23.2 12.9122 23.2 12.9123 23.2C12.9124 23.2 12.9125 23.2 12.9126 23.2C12.9127 23.2 12.9128 23.2 12.9129 23.2C12.913 23.2 12.9132 23.2 12.9133 23.2C12.9134 23.2 12.9135 23.2 12.9136 23.2C12.9137 23.2 12.9138 23.2 12.9139 23.2C12.914 23.2 12.9142 23.2 12.9143 23.2C12.9144 23.2 12.9145 23.2 12.9146 23.2C12.9147 23.2 12.9148 23.2 12.9149 23.2C12.9151 23.2 12.9152 23.2 12.9153 23.2C12.9154 23.2 12.9155 23.2 12.9156 23.2C12.9157 23.2 12.9158 23.2 12.916 23.2C12.9161 23.2 12.9162 23.2 12.9163 23.2C12.9164 23.2 12.9165 23.2 12.9166 23.2C12.9167 23.2 12.9169 23.2 12.917 23.2C12.9171 23.2 12.9172 23.2 12.9173 23.2C12.9174 23.2 12.9175 23.2 12.9177 23.2C12.9178 23.2 12.9179 23.2 12.918 23.2C12.9181 23.2 12.9182 23.2 12.9183 23.2C12.9184 23.2 12.9186 23.2 12.9187 23.2C12.9188 23.2 12.9189 23.2 12.919 23.2C12.9191 23.2 12.9193 23.2 12.9194 23.2C12.9195 23.2 12.9196 23.2 12.9197 23.2C12.9198 23.2 12.9199 23.2 12.9201 23.2C12.9202 23.2 12.9203 23.2 12.9204 23.2C12.9205 23.2 12.9206 23.2 12.9207 23.2C12.9209 23.2 12.921 23.2 12.9211 23.2C12.9212 23.2 12.9213 23.2 12.9214 23.2C12.9216 23.2 12.9217 23.2 12.9218 23.2C12.9219 23.2 12.922 23.2 12.9221 23.2C12.9223 23.2 12.9224 23.2 12.9225 23.2C12.9226 23.2 12.9227 23.2 12.9228 23.2C12.923 23.2 12.9231 23.2 12.9232 23.2C12.9233 23.2 12.9234 23.2 12.9235 23.2C12.9237 23.2 12.9238 23.2 12.9239 23.2C12.924 23.2 12.9241 23.2 12.9243 23.2C12.9244 23.2 12.9245 23.2 12.9246 23.2C12.9247 23.2 12.9248 23.2 12.925 23.2C12.9251 23.2 12.9252 23.2 12.9253 23.2C12.9254 23.2 12.9256 23.2 12.9257 23.2C12.9258 23.2 12.9259 23.2 12.926 23.2C12.9261 23.2 12.9263 23.2 12.9264 23.2C12.9265 23.2 12.9266 23.2 12.9267 23.2C12.9269 23.2 12.927 23.2 12.9271 23.2C12.9272 23.2 12.9273 23.2 12.9275 23.2C12.9276 23.2 12.9277 23.2 12.9278 23.2C12.9279 23.2 12.9281 23.2 12.9282 23.2C12.9283 23.2 12.9284 23.2 12.9285 23.2C12.9287 23.2 12.9288 23.2 12.9289 23.2C12.929 23.2 12.9291 23.2 12.9293 23.2C12.9294 23.2 12.9295 23.2 12.9296 23.2C12.9297 23.2 12.9299 23.2 12.93 23.2C12.9301 23.2 12.9302 23.2 12.9303 23.2C12.9305 23.2 12.9306 23.2 12.9307 23.2C12.9308 23.2 12.931 23.2 12.9311 23.2C12.9312 23.2 12.9313 23.2 12.9314 23.2C12.9316 23.2 12.9317 23.2 12.9318 23.2C12.9319 23.2 12.932 23.2 12.9322 23.2C12.9323 23.2 12.9324 23.2 12.9325 23.2C12.9327 23.2 12.9328 23.2 12.9329 23.2C12.933 23.2 12.9331 23.2 12.9333 23.2C12.9334 23.2 12.9335 23.2 12.9336 23.2C12.9338 23.2 12.9339 23.2 12.934 23.2C12.9341 23.2 12.9343 23.2 12.9344 23.2C12.9345 23.2 12.9346 23.2 12.9347 23.2C12.9349 23.2 12.935 23.2 12.9351 23.2C12.9352 23.2 12.9354 23.2 12.9355 23.2C12.9356 23.2 12.9357 23.2 12.9359 23.2C12.936 23.2 12.9361 23.2 12.9362 23.2C12.9364 23.2 12.9365 23.2 12.9366 23.2C12.9367 23.2 12.9368 23.2 12.937 23.2C12.9371 23.2 12.9372 23.2 12.9373 23.2C12.9375 23.2 12.9376 23.2 12.9377 23.2C12.9378 23.2 12.938 23.2 12.9381 23.2C12.9382 23.2 12.9383 23.2 12.9385 23.2C12.9386 23.2 12.9387 23.2 12.9388 23.2C12.939 23.2 12.9391 23.2 12.9392 23.2C12.9393 23.2 12.9395 23.2 12.9396 23.2C12.9397 23.2 12.9398 23.2 12.94 23.2C12.9401 23.2 12.9402 23.2 12.9403 23.2C12.9405 23.2 12.9406 23.2 12.9407 23.2C12.9409 23.2 12.941 23.2 12.9411 23.2C12.9412 23.2 12.9414 23.2 12.9415 23.2C12.9416 23.2 12.9417 23.2 12.9419 23.2C12.942 23.2 12.9421 23.2 12.9422 23.2C12.9424 23.2 12.9425 23.2 12.9426 23.2C12.9427 23.2 12.9429 23.2 12.943 23.2C12.9431 23.2 12.9433 23.2 12.9434 23.2C12.9435 23.2 12.9436 23.2 12.9438 23.2C12.9439 23.2 12.944 23.2 12.9441 23.2C12.9443 23.2 12.9444 23.2 12.9445 23.2C12.9446 23.2 12.9448 23.2 12.9449 23.2C12.945 23.2 12.9452 23.2 12.9453 23.2C12.9454 23.2 12.9455 23.2 12.9457 23.2C12.9458 23.2 12.9459 23.2 12.9461 23.2C12.9462 23.2 12.9463 23.2 12.9464 23.2C12.9466 23.2 12.9467 23.2 12.9468 23.2C12.947 23.2 12.9471 23.2 12.9472 23.2C12.9473 23.2 12.9475 23.2 12.9476 23.2C12.9477 23.2 12.9478 23.2 12.948 23.2C12.9481 23.2 12.9482 23.2 12.9484 23.2C12.9485 23.2 12.9486 23.2 12.9488 23.2C12.9489 23.2 12.949 23.2 12.9491 23.2C12.9493 23.2 12.9494 23.2 12.9495 23.2C12.9497 23.2 12.9498 23.2 12.9499 23.2C12.95 23.2 12.9502 23.2 12.9503 23.2C12.9504 23.2 12.9506 23.2 12.9507 23.2C12.9508 23.2 12.9509 23.2 12.9511 23.2C12.9512 23.2 12.9513 23.2 12.9515 23.2C12.9516 23.2 12.9517 23.2 12.9519 23.2C12.952 23.2 12.9521 23.2 12.9522 23.2C12.9524 23.2 12.9525 23.2 12.9526 23.2C12.9528 23.2 12.9529 23.2 12.953 23.2C12.9532 23.2 12.9533 23.2 12.9534 23.2C12.9535 23.2 12.9537 23.2 12.9538 23.2C12.9539 23.2 12.9541 23.2 12.9542 23.2C12.9543 23.2 12.9545 23.2 12.9546 23.2C12.9547 23.2 12.9549 23.2 12.955 23.2C12.9551 23.2 12.9552 23.2 12.9554 23.2C12.9555 23.2 12.9556 23.2 12.9558 23.2C12.9559 23.2 12.956 23.2 12.9562 23.2C12.9563 23.2 12.9564 23.2 12.9566 23.2C12.9567 23.2 12.9568 23.2 12.957 23.2C12.9571 23.2 12.9572 23.2 12.9573 23.2C12.9575 23.2 12.9576 23.2 12.9577 23.2C12.9579 23.2 12.958 23.2 12.9581 23.2C12.9583 23.2 12.9584 23.2 12.9585 23.2C12.9587 23.2 12.9588 23.2 12.9589 23.2C12.9591 23.2 12.9592 23.2 12.9593 23.2C12.9595 23.2 12.9596 23.2 12.9597 23.2C12.9599 23.2 12.96 23.2 12.9601 23.2C12.9603 23.2 12.9604 23.2 12.9605 23.2C12.9606 23.2 12.9608 23.2 12.9609 23.2C12.961 23.2 12.9612 23.2 12.9613 23.2C12.9614 23.2 12.9616 23.2 12.9617 23.2C12.9618 23.2 12.962 23.2 12.9621 23.2C12.9622 23.2 12.9624 23.2 12.9625 23.2C12.9626 23.2 12.9628 23.2 12.9629 23.2C12.963 23.2 12.9632 23.2 12.9633 23.2C12.9634 23.2 12.9636 23.2 12.9637 23.2C12.9638 23.2 12.964 23.2 12.9641 23.2C12.9642 23.2 12.9644 23.2 12.9645 23.2C12.9646 23.2 12.9648 23.2 12.9649 23.2C12.965 23.2 12.9652 23.2 12.9653 23.2C12.9654 23.2 12.9656 23.2 12.9657 23.2C12.9658 23.2 12.966 23.2 12.9661 23.2C12.9662 23.2 12.9664 23.2 12.9665 23.2C12.9666 23.2 12.9668 23.2 12.9669 23.2C12.967 23.2 12.9672 23.2 12.9673 23.2C12.9674 23.2 12.9676 23.2 12.9677 23.2C12.9678 23.2 12.968 23.2 12.9681 23.2C12.9682 23.2 12.9684 23.2 12.9685 23.2C12.9687 23.2 12.9688 23.2 12.9689 23.2C12.9691 23.2 12.9692 23.2 12.9693 23.2C12.9695 23.2 12.9696 23.2 12.9697 23.2C12.9699 23.2 12.97 23.2 12.9701 23.2C12.9703 23.2 12.9704 23.2 12.9705 23.2C12.9707 23.2 12.9708 23.2 12.9709 23.2C12.9711 23.2 12.9712 23.2 12.9713 23.2C12.9715 23.2 12.9716 23.2 12.9717 23.2C12.9719 23.2 12.972 23.2 12.9721 23.2C12.9723 23.2 12.9724 23.2 12.9726 23.2C12.9727 23.2 12.9728 23.2 12.973 23.2C12.9731 23.2 12.9732 23.2 12.9734 23.2C12.9735 23.2 12.9736 23.2 12.9738 23.2C12.9739 23.2 12.974 23.2 12.9742 23.2C12.9743 23.2 12.9744 23.2 12.9746 23.2C12.9747 23.2 12.9749 23.2 12.975 23.2C12.9751 23.2 12.9753 23.2 12.9754 23.2C12.9755 23.2 12.9757 23.2 12.9758 23.2C12.9759 23.2 12.9761 23.2 12.9762 23.2C12.9763 23.2 12.9765 23.2 12.9766 23.2C12.9767 23.2 12.9769 23.2 12.977 23.2C12.9772 23.2 12.9773 23.2 12.9774 23.2C12.9776 23.2 12.9777 23.2 12.9778 23.2C12.978 23.2 12.9781 23.2 12.9782 23.2C12.9784 23.2 12.9785 23.2 12.9787 23.2C12.9788 23.2 12.9789 23.2 12.9791 23.2C12.9792 23.2 12.9793 23.2 12.9795 23.2C12.9796 23.2 12.9797 23.2 12.9799 23.2C12.98 23.2 12.9801 23.2 12.9803 23.2C12.9804 23.2 12.9806 23.2 12.9807 23.2C12.9808 23.2 12.981 23.2 12.9811 23.2C12.9812 23.2 12.9814 23.2 12.9815 23.2C12.9816 23.2 12.9818 23.2 12.9819 23.2C12.9821 23.2 12.9822 23.2 12.9823 23.2C12.9825 23.2 12.9826 23.2 12.9827 23.2C12.9829 23.2 12.983 23.2 12.9831 23.2C12.9833 23.2 12.9834 23.2 12.9836 23.2C12.9837 23.2 12.9838 23.2 12.984 23.2C12.9841 23.2 12.9842 23.2 12.9844 23.2C12.9845 23.2 12.9846 23.2 12.9848 23.2C12.9849 23.2 12.9851 23.2 12.9852 23.2C12.9853 23.2 12.9855 23.2 12.9856 23.2C12.9857 23.2 12.9859 23.2 12.986 23.2C12.9861 23.2 12.9863 23.2 12.9864 23.2C12.9866 23.2 12.9867 23.2 12.9868 23.2C12.987 23.2 12.9871 23.2 12.9872 23.2C12.9874 23.2 12.9875 23.2 12.9877 23.2C12.9878 23.2 12.9879 23.2 12.9881 23.2C12.9882 23.2 12.9883 23.2 12.9885 23.2C12.9886 23.2 12.9887 23.2 12.9889 23.2C12.989 23.2 12.9892 23.2 12.9893 23.2C12.9894 23.2 12.9896 23.2 12.9897 23.2C12.9898 23.2 12.99 23.2 12.9901 23.2C12.9903 23.2 12.9904 23.2 12.9905 23.2C12.9907 23.2 12.9908 23.2 12.9909 23.2C12.9911 23.2 12.9912 23.2 12.9914 23.2C12.9915 23.2 12.9916 23.2 12.9918 23.2C12.9919 23.2 12.992 23.2 12.9922 23.2C12.9923 23.2 12.9924 23.2 12.9926 23.2C12.9927 23.2 12.9929 23.2 12.993 23.2C12.9931 23.2 12.9933 23.2 12.9934 23.2C12.9935 23.2 12.9937 23.2 12.9938 23.2C12.994 23.2 12.9941 23.2 12.9942 23.2C12.9944 23.2 12.9945 23.2 12.9946 23.2C12.9948 23.2 12.9949 23.2 12.9951 23.2C12.9952 23.2 12.9953 23.2 12.9955 23.2C12.9956 23.2 12.9957 23.2 12.9959 23.2C12.996 23.2 12.9962 23.2 12.9963 23.2C12.9964 23.2 12.9966 23.2 12.9967 23.2C12.9968 23.2 12.997 23.2 12.9971 23.2C12.9973 23.2 12.9974 23.2 12.9975 23.2C12.9977 23.2 12.9978 23.2 12.9979 23.2C12.9981 23.2 12.9982 23.2 12.9984 23.2C12.9985 23.2 12.9986 23.2 12.9988 23.2C12.9989 23.2 12.999 23.2 12.9992 23.2C12.9993 23.2 12.9995 23.2 12.9996 23.2C12.9997 23.2 12.9999 23.2 13 23.2V22.8ZM12.6805 22.9106L12.0477 24.1762L12.4054 24.3551L13.0383 23.0894L12.6805 22.9106ZM12.0419 24.1887C11.7313 24.9344 10.868 25.2963 10.1363 24.9305L9.95743 25.2883C10.9132 25.7662 12.0187 25.2844 12.4112 24.3425L12.0419 24.1887ZM10.1238 24.9248C9.37813 24.6141 9.01616 23.7508 9.38201 23.0191L9.02424 22.8402C8.54634 23.796 9.02812 24.9016 9.96995 25.294L10.1238 24.9248Z" fill="white"/>
</g>
<defs>
<filter id="filter0_bd_23107_8256" x="0" y="1" width="53" height="39" filterUnits="userSpaceOnUse" color-interpolation-filters="sRGB">
<feFlood flood-opacity="0" result="BackgroundImageFix"/>
<feGaussianBlur in="BackgroundImage" stdDeviation="2"/>
<feComposite in2="SourceAlpha" operator="in" result="effect1_backgroundBlur_23107_8256"/>
<feColorMatrix in="SourceAlpha" type="matrix" values="0 0 0 0 0 0 0 0 0 0 0 0 0 0 0 0 0 0 127 0" result="hardAlpha"/>
<feOffset dy="4"/>
<feGaussianBlur stdDeviation="2"/>
<feComposite in2="hardAlpha" operator="out"/>
<feColorMatrix type="matrix" values="0 0 0 0 0 0 0 0 0 0 0 0 0 0 0 0 0 0 0.25 0"/>
<feBlend mode="normal" in2="effect1_backgroundBlur_23107_8256" result="effect2_dropShadow_23107_8256"/>
<feBlend mode="normal" in="SourceGraphic" in2="effect2_dropShadow_23107_8256" result="shape"/>
</filter>
<linearGradient id="paint0_linear_23107_8256" x1="52.498" y1="10.1626" x2="68.7203" y2="15.6036" gradientUnits="userSpaceOnUse">
<stop stop-color="#4AC0AF"/>
<stop offset="1" stop-color="#0069A7"/>
</linearGradient>
<linearGradient id="paint1_linear_23107_8256" x1="-7" y1="26" x2="47" y2="25.5" gradientUnits="userSpaceOnUse">
<stop stop-color="white" stop-opacity="0.8"/>
<stop offset="1" stop-color="white" stop-opacity="0.1"/>
</linearGradient>
</defs>
</svg>
