<svg width="18" height="21" viewBox="0 0 18 21" fill="none" xmlns="http://www.w3.org/2000/svg">
<path d="M17.75 13.625V2.375C17.75 1.35938 16.8906 0.5 15.875 0.5H4C1.89062 0.5 0.25 2.17969 0.25 4.25V16.75C0.25 18.8594 1.89062 20.5 4 20.5H16.5C17.1641 20.5 17.75 19.9531 17.75 19.2891C17.75 18.8594 17.4766 18.4688 17.125 18.2344V15.0703C17.4766 14.6797 17.75 14.2109 17.75 13.625ZM5.25 6.98438C5.25 6.67188 5.52344 6.35938 5.875 6.35938H7.94531V4.25C7.94531 3.9375 8.21875 3.625 8.57031 3.625H10.6016C10.9141 3.625 11.2266 3.9375 11.2266 4.25V6.35938H13.375C13.6875 6.35938 14 6.67188 14 6.98438V9.01562C14 9.36719 13.6875 9.64062 13.375 9.64062H11.2656V11.75C11.2656 12.1016 10.9531 12.375 10.6406 12.375H8.60938C8.25781 12.375 7.98438 12.1016 7.98438 11.75V9.64062H5.875C5.52344 9.64062 5.25 9.36719 5.25 9.01562V6.98438ZM15.25 18H4C3.29688 18 2.75 17.4531 2.75 16.75C2.75 16.0859 3.29688 15.5 4 15.5H15.25V18Z" fill="#002D57"/>
</svg>
