<svg width="50" height="50" viewBox="0 0 50 50" fill="none" xmlns="http://www.w3.org/2000/svg">
<g filter="url(#filter0_d_480_4416)">
<path d="M4.59042 17.5C6.59048 26 18.7571 36.5 25.0904 39C31.7571 36.3333 43.9123 25.3354 45.5 17C47.5 6.5 41.6808 0 35.0904 0C28.5 0 25.9238 4.33333 25.0904 6.5C24.4238 4.33333 21.5904 0 15.5904 0C8.09042 0 2.04761 6.69333 4.59042 17.5Z" fill="url(#paint0_linear_480_4416)"/>
<path d="M22.9253 33.7722L22.9291 33.7809L22.9333 33.7895C23.2519 34.4416 23.8706 34.8048 24.4987 34.8328C25.1336 34.861 25.779 34.5442 26.1084 33.8699L29.5893 26.7451L30.9426 29.455L31.0819 29.7339L31.3937 29.7315L41.5 29.655V37C41.5 39.4853 39.4853 41.5 37 41.5H12.0419C9.55658 41.5 7.54186 39.4853 7.54186 37V29.6555L16.5485 29.7315L16.8879 29.7344L17.0159 29.4201L18.9268 24.7264L22.9253 33.7722ZM24.5842 28.8467L20.4647 19.4697L20.4647 19.4697L20.4627 19.4653C19.8325 18.0679 17.8376 17.9812 17.265 19.4878L14.5685 26.0803H7.5168C7.51488 25.9851 7.51312 25.8763 7.51154 25.7548C7.50498 25.2501 7.50157 24.5389 7.50043 23.7062C7.49817 22.0414 7.50504 19.8981 7.5138 17.9667C7.52501 15.495 9.53375 13.5 12.0071 13.5H37C39.4853 13.5 41.5 15.5147 41.5 18V26.1606H33.1937L31.1327 21.942L31.1288 21.934L31.1247 21.9263C30.4654 20.6894 28.6248 20.6894 27.9656 21.9263L27.9614 21.934L27.9576 21.942L24.5842 28.8467Z" stroke="white"/>
<g filter="url(#filter1_bd_480_4416)">
<path d="M29.5844 25.6162L25.6592 33.6504C25.1882 34.6145 23.8536 34.5341 23.3826 33.57L18.9079 23.4469L16.5528 29.2316L7.04186 29.1512V38C7.04186 40.2091 8.83272 42 11.0419 42H38C40.2091 42 42 40.2091 42 38L42 29.1512L31.3899 29.2316L29.5844 25.6162ZM42 17C42 14.7909 40.2091 13 38 13H11.0141C8.81582 13 7.02959 14.7711 7.01856 16.9694C6.99854 20.9627 6.98144 26.5391 7.04186 26.5803H14.9042L17.7303 19.6708C18.1228 18.6264 19.5359 18.6264 20.0069 19.6708L24.5601 30.035L28.4068 22.1614C28.8778 21.2777 30.2124 21.2777 30.6834 22.1614L32.8815 26.6606H42V17Z" fill="#D9D9D9" fill-opacity="0.5" shape-rendering="crispEdges"/>
</g>
<path d="M23.1539 33.6711L23.1538 33.6712L23.158 33.6798C23.435 34.2468 23.9701 34.559 24.5098 34.583C25.0529 34.6072 25.6013 34.3383 25.8838 33.7601L29.5868 26.1806L31.1663 29.3433L31.2359 29.4827L31.3918 29.4815L41.75 29.4031L41.75 38C41.75 40.0711 40.0711 41.75 38 41.75H11.0419C8.97079 41.75 7.29186 40.0711 7.29186 38V29.4033L16.5506 29.4815L16.7203 29.483L16.7843 29.3258L18.9173 24.0867L23.1539 33.6711ZM24.5722 29.4408L20.2358 19.5703L20.2358 19.5703L20.2348 19.5681C19.6842 18.3472 17.9802 18.3037 17.4976 19.5794L14.7363 26.3303H7.27319C7.27298 26.3241 7.27277 26.3177 7.27256 26.3112C7.26737 26.1497 7.26319 25.915 7.2599 25.62C7.25333 25.0304 7.25043 24.2058 7.25005 23.2568C7.24927 21.3591 7.25855 18.9672 7.26856 16.9706C7.27889 14.9105 8.9529 13.25 11.0141 13.25H38C40.0711 13.25 41.75 14.9289 41.75 17V26.4106H33.0376L30.908 22.0517L30.9082 22.0516L30.904 22.0439C30.3389 20.9835 28.7513 20.9835 28.1862 22.0439L28.186 22.0438L28.1822 22.0517L24.5722 29.4408Z" stroke="url(#paint1_linear_480_4416)" stroke-width="0.5" style="mix-blend-mode:overlay"/>
</g>
<defs>
<filter id="filter0_d_480_4416" x="0" y="0" width="49.9004" height="50" filterUnits="userSpaceOnUse" color-interpolation-filters="sRGB">
<feFlood flood-opacity="0" result="BackgroundImageFix"/>
<feColorMatrix in="SourceAlpha" type="matrix" values="0 0 0 0 0 0 0 0 0 0 0 0 0 0 0 0 0 0 127 0" result="hardAlpha"/>
<feOffset dy="4"/>
<feGaussianBlur stdDeviation="2"/>
<feComposite in2="hardAlpha" operator="out"/>
<feColorMatrix type="matrix" values="0 0 0 0 0 0 0 0 0 0 0 0 0 0 0 0 0 0 0.2 0"/>
<feBlend mode="normal" in2="BackgroundImageFix" result="effect1_dropShadow_480_4416"/>
<feBlend mode="normal" in="SourceGraphic" in2="effect1_dropShadow_480_4416" result="shape"/>
</filter>
<filter id="filter1_bd_480_4416" x="3" y="9" width="43" height="37" filterUnits="userSpaceOnUse" color-interpolation-filters="sRGB">
<feFlood flood-opacity="0" result="BackgroundImageFix"/>
<feGaussianBlur in="BackgroundImage" stdDeviation="2"/>
<feComposite in2="SourceAlpha" operator="in" result="effect1_backgroundBlur_480_4416"/>
<feColorMatrix in="SourceAlpha" type="matrix" values="0 0 0 0 0 0 0 0 0 0 0 0 0 0 0 0 0 0 127 0" result="hardAlpha"/>
<feOffset dy="-2"/>
<feGaussianBlur stdDeviation="1"/>
<feComposite in2="hardAlpha" operator="out"/>
<feColorMatrix type="matrix" values="0 0 0 0 0 0 0 0 0 0 0 0 0 0 0 0 0 0 0.2 0"/>
<feBlend mode="normal" in2="effect1_backgroundBlur_480_4416" result="effect2_dropShadow_480_4416"/>
<feBlend mode="normal" in="SourceGraphic" in2="effect2_dropShadow_480_4416" result="shape"/>
</filter>
<linearGradient id="paint0_linear_480_4416" x1="13.4275" y1="10.1111" x2="34.9557" y2="20.9717" gradientUnits="userSpaceOnUse">
<stop stop-color="#4AC0AF"/>
<stop offset="1" stop-color="#0069A7"/>
</linearGradient>
<linearGradient id="paint1_linear_480_4416" x1="21.8572" y1="20.9091" x2="35.9399" y2="39.7286" gradientUnits="userSpaceOnUse">
<stop stop-color="white"/>
<stop offset="1"/>
</linearGradient>
</defs>
</svg>
