<svg width="50" height="52" viewBox="0 0 50 52" fill="none" xmlns="http://www.w3.org/2000/svg">
<g filter="url(#filter0_d_480_4385)">
<path fill-rule="evenodd" clip-rule="evenodd" d="M12.566 1.87966C12.9067 2.63384 12.5752 3.52311 11.8255 3.86592L7.52357 5.83301C7.34614 5.91415 7.23221 6.09212 7.23221 6.28819V17.0004C7.23221 17.8288 6.56462 18.5004 5.74111 18.5004C4.91759 18.5004 4.25 17.8288 4.25 17.0004V6.28819C4.25 4.91569 5.04745 3.66986 6.28953 3.10191L10.5915 1.13482C11.3412 0.792012 12.2252 1.12549 12.566 1.87966Z" fill="url(#paint0_linear_480_4385)"/>
<path d="M13.1966 2.5C13.1966 3.88071 12.084 5 10.7115 5C9.33894 5 8.22629 3.88071 8.22629 2.5C8.22629 1.11929 9.33894 0 10.7115 0C12.084 0 13.1966 1.11929 13.1966 2.5Z" fill="url(#paint1_linear_480_4385)"/>
<path fill-rule="evenodd" clip-rule="evenodd" d="M18.7977 1.87966C18.4569 2.63384 18.7884 3.52311 19.5381 3.86592L23.8401 5.83301C24.0175 5.91415 24.1314 6.09212 24.1314 6.28819V17.0004C24.1314 17.8288 24.799 18.5004 25.6225 18.5004C26.4461 18.5004 27.1136 17.8288 27.1136 17.0004V6.28819C27.1136 4.91569 26.3162 3.66986 25.0741 3.10191L20.7722 1.13482C20.0225 0.792012 19.1385 1.12549 18.7977 1.87966Z" fill="url(#paint2_linear_480_4385)"/>
<path d="M18.167 2.5C18.167 3.88071 19.2797 5 20.6522 5C22.0247 5 23.1374 3.88071 23.1374 2.5C23.1374 1.11929 22.0247 0 20.6522 0C19.2797 0 18.167 1.11929 18.167 2.5Z" fill="url(#paint3_linear_480_4385)"/>
<path d="M12.3381 1.9826C12.6226 2.61219 12.3453 3.35337 11.7216 3.63856L9.75892 4.53599C9.00131 4.17619 8.47629 3.40047 8.47629 2.5C8.47629 2.45817 8.47742 2.41662 8.47965 2.37536L10.6954 1.36218C11.3183 1.07735 12.054 1.35381 12.3381 1.9826ZM6.39349 3.32927L7.97823 2.60464C8.01221 3.51734 8.48887 4.31707 9.19927 4.79189L7.41961 5.60565C7.15263 5.72773 6.98221 5.99492 6.98221 6.28819V17.0004C6.98221 17.6921 6.42515 18.2504 5.74111 18.2504C5.05706 18.2504 4.5 17.6921 4.5 17.0004V6.28819C4.5 5.0129 5.24096 3.85627 6.39349 3.32927ZM10.4875 0.907458L8.59565 1.77252C8.89625 0.886258 9.73082 0.25 10.7115 0.25C11.87 0.25 12.8246 1.138 12.9358 2.27716C12.9142 2.10827 12.8674 1.93977 12.7938 1.77672C12.3964 0.897174 11.364 0.506669 10.4875 0.907458ZM12.9362 2.71848C12.8271 3.85973 11.8715 4.75 10.7115 4.75C10.6444 4.75 10.5781 4.74703 10.5125 4.7412L11.9295 4.09328C12.5004 3.83224 12.863 3.3005 12.9362 2.71848ZM18.5699 1.77672C18.4962 1.93977 18.4495 2.10828 18.4278 2.27716C18.539 1.13801 19.4937 0.25 20.6522 0.25C21.6328 0.25 22.4674 0.886257 22.768 1.77252L20.8761 0.907458C19.9996 0.506669 18.9673 0.897174 18.5699 1.77672ZM20.6522 4.75C19.4922 4.75 18.5366 3.85973 18.4274 2.71848C18.5007 3.3005 18.8633 3.83224 19.4342 4.09328L20.8511 4.7412C20.7856 4.74703 20.7192 4.75 20.6522 4.75ZM23.3854 2.60464L24.9702 3.32927C26.1227 3.85627 26.8636 5.0129 26.8636 6.28819V17.0004C26.8636 17.6921 26.3066 18.2504 25.6225 18.2504C24.9385 18.2504 24.3814 17.6921 24.3814 17.0004V6.28819C24.3814 5.99492 24.211 5.72773 23.944 5.60565L22.1644 4.79189C22.8748 4.31707 23.3514 3.51734 23.3854 2.60464ZM22.884 2.37536C22.8862 2.41662 22.8874 2.45817 22.8874 2.5C22.8874 3.40047 22.3623 4.17619 21.6047 4.53599L19.6421 3.63856C19.0184 3.35337 18.741 2.61219 19.0255 1.9826C19.3096 1.35381 20.0453 1.07735 20.6682 1.36218L22.884 2.37536Z" stroke="url(#paint4_linear_480_4385)" stroke-width="0.5" style="mix-blend-mode:overlay"/>
<path fill-rule="evenodd" clip-rule="evenodd" d="M37.0535 12.75C36.0927 12.75 35.3138 13.5335 35.3138 14.5C35.3138 15.4665 36.0927 16.25 37.0535 16.25C38.0142 16.25 38.7931 15.4665 38.7931 14.5C38.7931 13.5335 38.0142 12.75 37.0535 12.75ZM30.8405 14.5C30.8405 11.0482 33.6222 8.25 37.0535 8.25C40.4848 8.25 43.2664 11.0482 43.2664 14.5C43.2664 17.1586 41.6163 19.4295 39.2901 20.3328V25.375C39.2901 32.4857 33.56 38.25 26.4915 38.25C19.7709 38.25 14.2602 33.0392 13.7339 26.4147C12.9428 26.2319 11.9727 25.9474 10.9478 25.5056C8.42111 24.4162 5.35496 22.2663 4.0995 18.1617C3.73623 16.974 4.39884 15.7149 5.57948 15.3495C6.76013 14.9841 8.01173 15.6506 8.37501 16.8383C9.10769 19.2337 10.8876 20.5838 12.71 21.3694C13.6167 21.7604 14.483 21.9859 15.1246 22.1123C15.4426 22.1749 15.6979 22.2118 15.8658 22.2324C15.9196 22.239 15.9642 22.244 15.9987 22.2475C16.0311 22.2461 16.0727 22.244 16.123 22.2408C16.2854 22.2305 16.5342 22.2088 16.8448 22.1637C17.4721 22.0726 18.3169 21.891 19.1993 21.5359C20.9376 20.8365 22.7207 19.5237 23.471 16.8819C23.8104 15.687 25.0484 14.9952 26.2361 15.3366C27.4239 15.678 28.1116 16.9233 27.7723 18.1181C26.5344 22.4763 23.4715 24.6635 20.8607 25.7141C19.9076 26.0976 19.0017 26.3374 18.239 26.4881C18.7802 30.5873 22.2687 33.75 26.4915 33.75C31.0894 33.75 34.8168 30.0004 34.8168 25.375V20.3328C32.4907 19.4295 30.8405 17.1586 30.8405 14.5Z" fill="url(#paint5_linear_480_4385)"/>
<path d="M39.1996 20.0997L39.0401 20.1616V20.3328V25.375C39.0401 32.349 33.4205 38 26.4915 38C19.9036 38 14.4992 32.8917 13.9831 26.3949L13.9686 26.2124L13.7902 26.1711C13.0105 25.9909 12.0551 25.7107 11.0468 25.276C8.55946 24.2036 5.565 22.0983 4.33857 18.0886C4.01524 17.0315 4.60544 15.9127 5.65341 15.5883C6.70073 15.2641 7.8128 15.855 8.13594 16.9114C8.89745 19.4011 10.7484 20.796 12.611 21.599C13.538 21.9987 14.4221 22.2287 15.0762 22.3576C15.4008 22.4215 15.6622 22.4593 15.8353 22.4806C15.8908 22.4874 15.937 22.4925 15.9731 22.4962L15.9911 22.498L16.0092 22.4973C16.0434 22.4958 16.0868 22.4936 16.1389 22.4903C16.3072 22.4796 16.5627 22.4573 16.8807 22.4111C17.5222 22.318 18.3873 22.1322 19.2926 21.7679C21.0806 21.0484 22.9344 19.6865 23.7115 16.9502C24.0134 15.8873 25.1134 15.274 26.167 15.5768C27.2213 15.8798 27.8338 16.9864 27.5318 18.0498C26.321 22.3128 23.3294 24.4512 20.7673 25.4821C19.8314 25.8588 18.941 26.0946 18.1905 26.2429L17.9605 26.2883L17.9912 26.5208C18.5483 30.7416 22.1404 34 26.4915 34C31.2289 34 35.0668 30.1371 35.0668 25.375V20.3328V20.1616L34.9073 20.0997C32.6748 19.2328 31.0905 17.0528 31.0905 14.5C31.0905 11.1849 33.7616 8.5 37.0535 8.5C40.3453 8.5 43.0164 11.1849 43.0164 14.5C43.0164 17.0528 41.4322 19.2328 39.1996 20.0997ZM37.0535 12.5C35.9532 12.5 35.0638 13.3968 35.0638 14.5C35.0638 15.6032 35.9532 16.5 37.0535 16.5C38.1537 16.5 39.0431 15.6032 39.0431 14.5C39.0431 13.3968 38.1537 12.5 37.0535 12.5Z" stroke="url(#paint6_linear_480_4385)" stroke-width="0.5" style="mix-blend-mode:overlay"/>
<path d="M32.5046 27.2617V30.4356H29.3555C28.8032 30.4356 28.3555 30.8833 28.3555 31.4356V32.5661C28.3555 33.1184 28.8032 33.5661 29.3555 33.5661H32.5046V36.74C32.5046 37.2923 32.9524 37.74 33.5046 37.74H34.6165C35.1688 37.74 35.6165 37.2923 35.6165 36.74V33.5661H38.7657C39.318 33.5661 39.7657 33.1184 39.7657 32.5661V31.4356C39.7657 30.8833 39.318 30.4356 38.7657 30.4356H35.6165V27.2617C35.6165 26.7094 35.1688 26.2617 34.6165 26.2617H33.5046C32.9524 26.2617 32.5046 26.7094 32.5046 27.2617Z" fill="#00639F"/>
<g filter="url(#filter1_b_480_4385)">
<path fill-rule="evenodd" clip-rule="evenodd" d="M33.6426 20C27.2913 20 22.1426 25.1487 22.1426 31.5V32.5C22.1426 38.8513 27.2913 44 33.6426 44H34.5003C40.8516 44 46.0003 38.8513 46.0003 32.5V31.5C46.0003 25.1487 40.8516 20 34.5003 20H33.6426ZM32.5154 30.4356V27.2617C32.5154 26.7094 32.9632 26.2617 33.5154 26.2617H34.6273C35.1796 26.2617 35.6273 26.7094 35.6273 27.2617V30.4356H38.7765C39.3288 30.4356 39.7765 30.8833 39.7765 31.4356V32.5661C39.7765 33.1184 39.3288 33.5661 38.7765 33.5661H35.6273V36.74C35.6273 37.2923 35.1796 37.74 34.6273 37.74H33.5154C32.9632 37.74 32.5154 37.2923 32.5154 36.74V33.5661H29.3663C28.814 33.5661 28.3663 33.1184 28.3663 32.5661V31.4356C28.3663 30.8833 28.814 30.4356 29.3663 30.4356H32.5154Z" fill="url(#paint7_radial_480_4385)" fill-opacity="0.5"/>
</g>
<mask id="path-7-inside-1_480_4385" fill="white">
<path fill-rule="evenodd" clip-rule="evenodd" d="M33.6426 20C27.2913 20 22.1426 25.1487 22.1426 31.5V32.5C22.1426 38.8513 27.2913 44 33.6426 44H34.5003C40.8516 44 46.0003 38.8513 46.0003 32.5V31.5C46.0003 25.1487 40.8516 20 34.5003 20H33.6426ZM32.5154 30.4356V27.2617C32.5154 26.7094 32.9632 26.2617 33.5154 26.2617H34.6273C35.1796 26.2617 35.6273 26.7094 35.6273 27.2617V30.4356H38.7765C39.3288 30.4356 39.7765 30.8833 39.7765 31.4356V32.5661C39.7765 33.1184 39.3288 33.5661 38.7765 33.5661H35.6273V36.74C35.6273 37.2923 35.1796 37.74 34.6273 37.74H33.5154C32.9632 37.74 32.5154 37.2923 32.5154 36.74V33.5661H29.3663C28.814 33.5661 28.3663 33.1184 28.3663 32.5661V31.4356C28.3663 30.8833 28.814 30.4356 29.3663 30.4356H32.5154Z"/>
</mask>
<path d="M32.5154 30.4356V30.9356H33.0154V30.4356H32.5154ZM35.6273 30.4356H35.1273V30.9356H35.6273V30.4356ZM35.6273 33.5661V33.0661H35.1273V33.5661H35.6273ZM32.5154 33.5661H33.0154V33.0661H32.5154V33.5661ZM22.6426 31.5C22.6426 25.4249 27.5674 20.5 33.6426 20.5V19.5C27.0152 19.5 21.6426 24.8726 21.6426 31.5H22.6426ZM22.6426 32.5V31.5H21.6426V32.5H22.6426ZM33.6426 43.5C27.5674 43.5 22.6426 38.5751 22.6426 32.5H21.6426C21.6426 39.1274 27.0152 44.5 33.6426 44.5V43.5ZM34.5003 43.5H33.6426V44.5H34.5003V43.5ZM45.5003 32.5C45.5003 38.5751 40.5754 43.5 34.5003 43.5V44.5C41.1277 44.5 46.5003 39.1274 46.5003 32.5H45.5003ZM45.5003 31.5V32.5H46.5003V31.5H45.5003ZM34.5003 20.5C40.5754 20.5 45.5003 25.4249 45.5003 31.5H46.5003C46.5003 24.8726 41.1277 19.5 34.5003 19.5V20.5ZM33.6426 20.5H34.5003V19.5H33.6426V20.5ZM32.0154 27.2617V30.4356H33.0154V27.2617H32.0154ZM33.5154 25.7617C32.687 25.7617 32.0154 26.4333 32.0154 27.2617H33.0154C33.0154 26.9856 33.2393 26.7617 33.5154 26.7617V25.7617ZM34.6273 25.7617H33.5154V26.7617H34.6273V25.7617ZM36.1273 27.2617C36.1273 26.4333 35.4557 25.7617 34.6273 25.7617V26.7617C34.9035 26.7617 35.1273 26.9856 35.1273 27.2617H36.1273ZM36.1273 30.4356V27.2617H35.1273V30.4356H36.1273ZM38.7765 29.9356H35.6273V30.9356H38.7765V29.9356ZM40.2765 31.4356C40.2765 30.6072 39.6049 29.9356 38.7765 29.9356V30.9356C39.0526 30.9356 39.2765 31.1595 39.2765 31.4356H40.2765ZM40.2765 32.5661V31.4356H39.2765V32.5661H40.2765ZM38.7765 34.0661C39.6049 34.0661 40.2765 33.3945 40.2765 32.5661H39.2765C39.2765 32.8422 39.0526 33.0661 38.7765 33.0661V34.0661ZM35.6273 34.0661H38.7765V33.0661H35.6273V34.0661ZM36.1273 36.74V33.5661H35.1273V36.74H36.1273ZM34.6273 38.24C35.4557 38.24 36.1273 37.5684 36.1273 36.74H35.1273C35.1273 37.0161 34.9035 37.24 34.6273 37.24V38.24ZM33.5154 38.24H34.6273V37.24H33.5154V38.24ZM32.0154 36.74C32.0154 37.5684 32.687 38.24 33.5154 38.24V37.24C33.2393 37.24 33.0154 37.0161 33.0154 36.74H32.0154ZM32.0154 33.5661V36.74H33.0154V33.5661H32.0154ZM29.3663 34.0661H32.5154V33.0661H29.3663V34.0661ZM27.8663 32.5661C27.8663 33.3945 28.5378 34.0661 29.3663 34.0661V33.0661C29.0901 33.0661 28.8663 32.8422 28.8663 32.5661H27.8663ZM27.8663 31.4356V32.5661H28.8663V31.4356H27.8663ZM29.3663 29.9356C28.5378 29.9356 27.8663 30.6072 27.8663 31.4356H28.8663C28.8663 31.1595 29.0901 30.9356 29.3663 30.9356V29.9356ZM32.5154 29.9356H29.3663V30.9356H32.5154V29.9356Z" fill="url(#paint8_linear_480_4385)" style="mix-blend-mode:overlay" mask="url(#path-7-inside-1_480_4385)"/>
</g>
<defs>
<filter id="filter0_d_480_4385" x="0" y="0" width="50" height="52" filterUnits="userSpaceOnUse" color-interpolation-filters="sRGB">
<feFlood flood-opacity="0" result="BackgroundImageFix"/>
<feColorMatrix in="SourceAlpha" type="matrix" values="0 0 0 0 0 0 0 0 0 0 0 0 0 0 0 0 0 0 127 0" result="hardAlpha"/>
<feOffset dy="4"/>
<feGaussianBlur stdDeviation="2"/>
<feComposite in2="hardAlpha" operator="out"/>
<feColorMatrix type="matrix" values="0 0 0 0 0 0 0 0 0 0 0 0 0 0 0 0 0 0 0.2 0"/>
<feBlend mode="normal" in2="BackgroundImageFix" result="effect1_dropShadow_480_4385"/>
<feBlend mode="normal" in="SourceGraphic" in2="effect1_dropShadow_480_4385" result="shape"/>
</filter>
<filter id="filter1_b_480_4385" x="19.1426" y="17" width="29.8574" height="30" filterUnits="userSpaceOnUse" color-interpolation-filters="sRGB">
<feFlood flood-opacity="0" result="BackgroundImageFix"/>
<feGaussianBlur in="BackgroundImage" stdDeviation="1.5"/>
<feComposite in2="SourceAlpha" operator="in" result="effect1_backgroundBlur_480_4385"/>
<feBlend mode="normal" in="SourceGraphic" in2="effect1_backgroundBlur_480_4385" result="shape"/>
</filter>
<linearGradient id="paint0_linear_480_4385" x1="9.39432" y1="4.79639" x2="20.6246" y2="19.202" gradientUnits="userSpaceOnUse">
<stop stop-color="#4AC0AF"/>
<stop offset="1" stop-color="#0069A7"/>
</linearGradient>
<linearGradient id="paint1_linear_480_4385" x1="9.39432" y1="4.79639" x2="20.6246" y2="19.202" gradientUnits="userSpaceOnUse">
<stop stop-color="#4AC0AF"/>
<stop offset="1" stop-color="#0069A7"/>
</linearGradient>
<linearGradient id="paint2_linear_480_4385" x1="9.39432" y1="4.79639" x2="20.6246" y2="19.202" gradientUnits="userSpaceOnUse">
<stop stop-color="#4AC0AF"/>
<stop offset="1" stop-color="#0069A7"/>
</linearGradient>
<linearGradient id="paint3_linear_480_4385" x1="9.39432" y1="4.79639" x2="20.6246" y2="19.202" gradientUnits="userSpaceOnUse">
<stop stop-color="#4AC0AF"/>
<stop offset="1" stop-color="#0069A7"/>
</linearGradient>
<linearGradient id="paint4_linear_480_4385" x1="15.6818" y1="2.02348" x2="25.8783" y2="14.1748" gradientUnits="userSpaceOnUse">
<stop stop-color="white" stop-opacity="0.51"/>
<stop offset="1" stop-opacity="0.44"/>
</linearGradient>
<linearGradient id="paint5_linear_480_4385" x1="12.8349" y1="16.0278" x2="31.2055" y2="27.3184" gradientUnits="userSpaceOnUse">
<stop stop-color="#4AC0AF"/>
<stop offset="1" stop-color="#0069A7"/>
</linearGradient>
<linearGradient id="paint6_linear_480_4385" x1="23.6332" y1="11.5313" x2="39.9778" y2="32.1603" gradientUnits="userSpaceOnUse">
<stop stop-color="white" stop-opacity="0.51"/>
<stop offset="1" stop-opacity="0.44"/>
</linearGradient>
<radialGradient id="paint7_radial_480_4385" cx="0" cy="0" r="1" gradientUnits="userSpaceOnUse" gradientTransform="translate(28.4052 23.2727) rotate(67.7037) scale(19.651 17.9723)">
<stop stop-color="white"/>
<stop offset="1" stop-color="#C9C5C5"/>
</radialGradient>
<linearGradient id="paint8_linear_480_4385" x1="30.9596" y1="27.3043" x2="39.3281" y2="40.3026" gradientUnits="userSpaceOnUse">
<stop stop-color="white"/>
<stop offset="1" stop-color="#676161" stop-opacity="0.5"/>
</linearGradient>
</defs>
</svg>
