<svg width="52" height="45" viewBox="0 0 52 45" fill="none" xmlns="http://www.w3.org/2000/svg">
<rect x="10" y="3" width="31" height="31" rx="15.5" fill="url(#paint0_linear_23202_5265)"/>
<g filter="url(#filter0_bd_23202_5265)">
<path d="M41.6959 31.1484C43.1008 29.4492 44 27.3535 44 25.0312C44 19.5371 39.167 15.0625 33.2101 15.0625C33.1539 15.0625 33.1539 15.1191 33.1539 15.1191C33.1539 15.4023 33.2101 15.6855 33.2101 15.9688C33.2101 21.5762 28.7143 26.2773 22.7012 27.4668C23.8813 31.8281 28.0961 35 33.2101 35C35.0646 35 36.8629 34.5469 38.3803 33.8105C39.7852 34.4336 41.5273 35 43.5504 35C43.719 35 43.8876 34.9434 43.9438 34.7734C44 34.6035 43.9438 34.4336 43.8314 34.3203C43.8314 34.2637 42.5951 32.9609 41.6959 31.1484ZM31.4118 15.9688C31.4118 10.4746 26.1292 6 19.7227 6C13.26 6 8.03361 10.4746 8.03361 15.9688C8.03361 18.2344 8.87657 20.2734 10.3377 21.9727C9.43855 23.8418 8.14601 25.2012 8.14601 25.2578C7.97741 25.3711 7.97741 25.541 8.03361 25.7109C8.08981 25.8809 8.2584 25.9375 8.42699 25.9375C10.6187 25.9375 12.417 25.3145 13.822 24.5781C15.5641 25.4844 17.531 25.9375 19.7227 25.9375C26.1292 25.9375 31.4118 21.5195 31.4118 15.9688ZM19.7227 22.3125C18.9359 22.3125 18.3739 21.7461 18.3739 20.9531C18.3739 20.1602 18.9359 19.5938 19.7227 19.5938C20.5095 19.5938 21.0714 20.1602 21.0714 20.9531C21.0714 21.7461 20.5095 22.3125 19.7227 22.3125ZM22.7012 15.7422L20.7342 16.9316V17.9904C20.7342 18.5568 20.2847 18.5481 19.7227 18.5481C19.1607 18.5481 18.7111 18.5568 18.7111 17.9904V16.3839C18.7111 15.9875 18.8797 15.6289 19.2169 15.459L21.6334 13.9863C21.9706 13.7598 22.1392 13.4766 22.1392 13.1367C22.1392 12.627 21.6334 11.605 20.7342 11.605H19.7227C18.7111 11.605 17.9806 12.4135 17.9806 13.1367C17.9806 13.7031 17.531 14.1562 16.969 14.1562C16.407 14.1562 15.7466 13.7031 15.7466 13.1367C15.7466 11.4375 17.934 9.34615 19.6199 9.34615H20.7266C22.4125 9.34615 24.2185 11.4375 24.2185 13.1367C24.2185 14.1562 23.6565 15.1758 22.7012 15.7422Z" fill="white" fill-opacity="0.4" shape-rendering="crispEdges"/>
<path d="M41.5032 30.9891L41.3998 31.1142L41.4719 31.2595C41.9307 32.1843 42.4742 32.9766 42.9012 33.5433C43.1149 33.827 43.3001 34.0548 43.4309 34.2143C43.4972 34.2951 43.5469 34.3552 43.5811 34.398C43.5812 34.3981 43.5813 34.3983 43.5814 34.3984V34.4233L43.6539 34.4964C43.7094 34.5523 43.7291 34.6264 43.7064 34.6949C43.7016 34.7096 43.6952 34.7179 43.6768 34.7272C43.6523 34.7395 43.61 34.75 43.5504 34.75C41.5746 34.75 39.8683 34.197 38.4816 33.582L38.3755 33.535L38.2711 33.5856C36.786 34.3063 35.0249 34.75 33.2101 34.75C28.2997 34.75 24.2567 31.7681 23.0156 27.657C28.9872 26.3649 33.4601 21.6364 33.4601 15.9688C33.4601 15.8147 33.445 15.6627 33.4313 15.5247L33.4308 15.5193C33.4237 15.4479 33.417 15.38 33.4121 15.3143C39.1559 15.4139 43.75 19.755 43.75 25.0312C43.75 27.2863 42.8773 29.3272 41.5032 30.9891ZM10.563 22.081L10.6339 21.9337L10.5273 21.8097C9.10089 20.1509 8.28361 18.1684 8.28361 15.9688C8.28361 10.6483 13.3595 6.25 19.7227 6.25C26.0305 6.25 31.1618 10.649 31.1618 15.9688C31.1618 21.3443 26.0314 25.6875 19.7227 25.6875C17.5664 25.6875 15.6398 25.242 13.9373 24.3563L13.8215 24.2961L13.7059 24.3567C12.3279 25.0789 10.5693 25.6875 8.42699 25.6875C8.36744 25.6875 8.32514 25.677 8.30066 25.6647C8.28222 25.6554 8.27582 25.6471 8.27097 25.6324C8.24931 25.567 8.24791 25.5276 8.25154 25.5075C8.25302 25.4993 8.25525 25.4945 8.25793 25.4904C8.26071 25.4862 8.26777 25.4772 8.28543 25.4653L8.39601 25.391V25.3364C8.39676 25.3354 8.39752 25.3345 8.3983 25.3335C8.42324 25.3024 8.45591 25.2628 8.4967 25.2132C8.51462 25.1915 8.5341 25.1678 8.55519 25.1422C8.69144 24.9763 8.88372 24.7394 9.10465 24.4449C9.54592 23.8567 10.1039 23.0353 10.563 22.081ZM18.1239 20.9531C18.1239 21.8823 18.796 22.5625 19.7227 22.5625C20.6494 22.5625 21.3214 21.8823 21.3214 20.9531C21.3214 20.0239 20.6494 19.3438 19.7227 19.3438C18.796 19.3438 18.1239 20.0239 18.1239 20.9531ZM20.9842 17.9904V17.0726L22.8286 15.9572C22.829 15.957 22.8293 15.9568 22.8296 15.9566C23.8594 15.3457 24.4685 14.2453 24.4685 13.1367C24.4685 12.2068 23.9797 11.2021 23.2905 10.4369C22.6028 9.6734 21.6676 9.09615 20.7266 9.09615H19.6199C18.6857 9.09615 17.6581 9.66667 16.8769 10.4248C16.0962 11.1825 15.4966 12.1908 15.4966 13.1367C15.4966 13.5213 15.7194 13.8418 15.993 14.0558C16.2674 14.2704 16.6262 14.4062 16.969 14.4062C17.6709 14.4062 18.2306 13.8393 18.2306 13.1367C18.2306 12.5643 18.8361 11.855 19.7227 11.855H20.7342C21.0795 11.855 21.3644 12.0497 21.5737 12.3295C21.7869 12.6144 21.8892 12.9461 21.8892 13.1367C21.8892 13.375 21.7787 13.5861 21.4984 13.7758L19.0949 15.2406C18.6575 15.4661 18.4611 15.9245 18.4611 16.3839V17.9904C18.4611 18.1639 18.4955 18.3211 18.5802 18.4521C18.6665 18.5858 18.7889 18.6671 18.9182 18.7157C19.0431 18.7626 19.1802 18.7814 19.311 18.79C19.4336 18.7982 19.5664 18.7981 19.6952 18.7981C19.7044 18.7981 19.7136 18.7981 19.7227 18.7981C19.7318 18.7981 19.741 18.7981 19.7502 18.7981C19.879 18.7981 20.0118 18.7982 20.1344 18.79C20.2651 18.7814 20.4022 18.7626 20.5271 18.7157C20.6565 18.6671 20.7788 18.5858 20.8652 18.4521C20.9499 18.3211 20.9842 18.1639 20.9842 17.9904Z" stroke="url(#paint1_linear_23202_5265)" stroke-width="0.5" shape-rendering="crispEdges"/>
</g>
<defs>
<filter id="filter0_bd_23202_5265" x="0" y="-2" width="52" height="47" filterUnits="userSpaceOnUse" color-interpolation-filters="sRGB">
<feFlood flood-opacity="0" result="BackgroundImageFix"/>
<feGaussianBlur in="BackgroundImage" stdDeviation="4"/>
<feComposite in2="SourceAlpha" operator="in" result="effect1_backgroundBlur_23202_5265"/>
<feColorMatrix in="SourceAlpha" type="matrix" values="0 0 0 0 0 0 0 0 0 0 0 0 0 0 0 0 0 0 127 0" result="hardAlpha"/>
<feOffset dy="2"/>
<feGaussianBlur stdDeviation="4"/>
<feComposite in2="hardAlpha" operator="out"/>
<feColorMatrix type="matrix" values="0 0 0 0 0 0 0 0 0 0.353668 0 0 0 0 0.5625 0 0 0 0.6 0"/>
<feBlend mode="normal" in2="effect1_backgroundBlur_23202_5265" result="effect2_dropShadow_23202_5265"/>
<feBlend mode="normal" in="SourceGraphic" in2="effect2_dropShadow_23202_5265" result="shape"/>
</filter>
<linearGradient id="paint0_linear_23202_5265" x1="10" y1="3" x2="41" y2="34" gradientUnits="userSpaceOnUse">
<stop offset="0.235702" stop-color="#4AC0AF"/>
<stop offset="0.764298" stop-color="#0169A7"/>
</linearGradient>
<linearGradient id="paint1_linear_23202_5265" x1="10.7666" y1="9.90385" x2="44.7061" y2="34.7453" gradientUnits="userSpaceOnUse">
<stop stop-color="white" stop-opacity="0.72"/>
<stop offset="1" stop-color="white" stop-opacity="0"/>
</linearGradient>
</defs>
</svg>
