<svg width="24" height="25" viewBox="0 0 24 25" fill="none" xmlns="http://www.w3.org/2000/svg">
<path d="M20.5781 18.0156C20.8594 18.2969 21 18.6719 21 19C20.9531 19.7969 20.3906 20.5 19.4531 20.5H1.5C0.609375 20.5 0 19.7969 0 19C0 18.6719 0.09375 18.2969 0.375 18.0156C1.26562 17.0312 3 15.5781 3 10.75C3 7.14062 5.53125 4.23438 9 3.48438V2.5C9 1.70312 9.65625 1 10.5 1C11.2969 1 12 1.70312 12 2.5V3.48438C15.4219 4.23438 17.9531 7.14062 17.9531 10.75C17.9531 15.5781 19.6875 17.0312 20.5781 18.0156ZM3.14062 18.25H17.8125C16.8281 16.9375 15.75 14.7812 15.75 10.7969V10.75C15.75 7.89062 13.3594 5.5 10.5 5.5C7.59375 5.5 5.25 7.89062 5.25 10.75V10.7969C5.25 14.7812 4.125 16.9375 3.14062 18.25ZM10.4531 25C8.8125 25 7.5 23.6875 7.5 22H13.5C13.5 23.6875 12.1406 25 10.4531 25Z" fill="black"/>
<rect x="13" width="11" height="11" rx="5.33333" fill="#B50303"/>
<path d="M18.5094 9.12C17.9894 9.12 17.5261 9.03333 17.1194 8.86C16.7127 8.68667 16.3961 8.44333 16.1694 8.13C15.9427 7.81667 15.8294 7.46333 15.8294 7.07C15.8294 6.69 15.9327 6.35 16.1394 6.05C16.3527 5.75 16.6194 5.54 16.9394 5.42C16.6394 5.32 16.3994 5.12 16.2194 4.82C16.0461 4.52 15.9594 4.19333 15.9594 3.84C15.9594 3.46 16.0661 3.12333 16.2794 2.83C16.4994 2.53667 16.8027 2.31333 17.1894 2.16C17.5761 2 18.0127 1.92 18.4994 1.92C18.9927 1.92 19.4294 2 19.8094 2.16C20.1961 2.31333 20.4961 2.53667 20.7094 2.83C20.9294 3.11667 21.0394 3.45 21.0394 3.83C21.0394 4.18333 20.9494 4.51 20.7694 4.81C20.5894 5.11 20.3494 5.31333 20.0494 5.42C20.4027 5.54667 20.6761 5.76333 20.8694 6.07C21.0694 6.37 21.1694 6.70333 21.1694 7.07C21.1694 7.47 21.0561 7.82667 20.8294 8.14C20.6027 8.44667 20.2861 8.68667 19.8794 8.86C19.4794 9.03333 19.0227 9.12 18.5094 9.12ZM18.4994 4.85C18.8794 4.85 19.1727 4.77333 19.3794 4.62C19.5927 4.46 19.6994 4.23333 19.6994 3.94C19.6994 3.64667 19.5961 3.42 19.3894 3.26C19.1827 3.1 18.8861 3.02 18.4994 3.02C18.1127 3.02 17.8161 3.1 17.6094 3.26C17.4027 3.42 17.2994 3.64667 17.2994 3.94C17.2994 4.23333 17.4027 4.46 17.6094 4.62C17.8161 4.77333 18.1127 4.85 18.4994 4.85ZM18.4994 8.01C18.9194 8.01 19.2427 7.92 19.4694 7.74C19.6961 7.56 19.8094 7.31 19.8094 6.99C19.8094 6.66333 19.6961 6.41333 19.4694 6.24C19.2427 6.06 18.9194 5.97 18.4994 5.97C18.0861 5.97 17.7627 6.06 17.5294 6.24C17.3027 6.41333 17.1894 6.66333 17.1894 6.99C17.1894 7.31667 17.3027 7.57 17.5294 7.75C17.7561 7.92333 18.0794 8.01 18.4994 8.01Z" fill="white"/>
</svg>
