<svg width="34" height="34" viewBox="0 0 34 34" fill="none" xmlns="http://www.w3.org/2000/svg">
<rect width="34" height="34" rx="17" fill="#DBDBDB"/>
<path d="M16.9531 29C15.3125 29 14 27.6875 14 26H20C20 27.6875 18.6406 29 16.9531 29ZM27.0781 22.0156C27.3594 22.2969 27.5 22.6719 27.5 23C27.4531 23.7969 26.8906 24.5 25.9531 24.5H8C7.10938 24.5 6.5 23.7969 6.5 23C6.5 22.6719 6.59375 22.2969 6.875 22.0156C7.76562 21.0312 9.5 19.5781 9.5 14.75C9.5 11.1406 12.0312 8.23438 15.5 7.48438V6.5C15.5 5.70312 16.1562 5 17 5C17.7969 5 18.5 5.70312 18.5 6.5V7.48438C21.9219 8.23438 24.4531 11.1406 24.4531 14.75C24.4531 19.5781 26.1875 21.0312 27.0781 22.0156Z" fill="black"/>
</svg>
