<svg width="26" height="25" viewBox="0 0 26 25" fill="none" xmlns="http://www.w3.org/2000/svg">
<path d="M20.5781 18.0156C20.8594 18.2969 21 18.6719 21 19C20.9531 19.7969 20.3906 20.5 19.4531 20.5H1.5C0.609375 20.5 0 19.7969 0 19C0 18.6719 0.09375 18.2969 0.375 18.0156C1.26562 17.0312 3 15.5781 3 10.75C3 7.14062 5.53125 4.23438 9 3.48438V2.5C9 1.70312 9.65625 1 10.5 1C11.2969 1 12 1.70312 12 2.5V3.48438C15.4219 4.23438 17.9531 7.14062 17.9531 10.75C17.9531 15.5781 19.6875 17.0312 20.5781 18.0156ZM3.14062 18.25H17.8125C16.8281 16.9375 15.75 14.7812 15.75 10.7969V10.75C15.75 7.89062 13.3594 5.5 10.5 5.5C7.59375 5.5 5.25 7.89062 5.25 10.75V10.7969C5.25 14.7812 4.125 16.9375 3.14062 18.25ZM10.4531 25C8.8125 25 7.5 23.6875 7.5 22H13.5C13.5 23.6875 12.1406 25 10.4531 25Z" fill="black"/>
<rect x="10" y="1" width="16" height="11" rx="5.33333" fill="#B50303"/>
<path d="M15.351 10.121C14.449 10.121 13.745 9.802 13.25 9.307L13.844 8.339C14.229 8.735 14.658 8.977 15.351 8.977C16.682 8.977 17.287 7.767 17.287 6.568C17.287 6.491 17.287 6.425 17.287 6.348C16.946 6.843 16.176 7.382 15.318 7.382C13.998 7.382 12.854 6.568 12.854 5.006C12.854 3.653 13.921 2.542 15.56 2.542C17.716 2.542 18.585 4.291 18.585 6.337C18.585 8.449 17.474 10.121 15.351 10.121ZM15.659 6.271C16.286 6.271 16.902 5.941 17.265 5.413C17.199 4.621 16.759 3.686 15.626 3.686C14.669 3.686 14.163 4.379 14.163 4.962C14.163 5.864 14.867 6.271 15.659 6.271ZM24.2455 6.667H22.2105V8.944H21.3965V6.667H19.3615V5.919H21.3965V3.719H22.2105V5.919H24.2455V6.667Z" fill="white"/>
</svg>
