<svg width="21" height="24" viewBox="0 0 21 24" fill="none" xmlns="http://www.w3.org/2000/svg">
<path d="M20.5781 17.0156C20.8594 17.2969 21 17.6719 21 18C20.9531 18.7969 20.3906 19.5 19.4531 19.5H1.5C0.609375 19.5 0 18.7969 0 18C0 17.6719 0.09375 17.2969 0.375 17.0156C1.26562 16.0312 3 14.5781 3 9.75C3 6.14062 5.53125 3.23438 9 2.48438V1.5C9 0.703125 9.65625 0 10.5 0C11.2969 0 12 0.703125 12 1.5V2.48438C15.4219 3.23438 17.9531 6.14062 17.9531 9.75C17.9531 14.5781 19.6875 16.0312 20.5781 17.0156ZM3.14062 17.25H17.8125C16.8281 15.9375 15.75 13.7812 15.75 9.79688V9.75C15.75 6.89062 13.3594 4.5 10.5 4.5C7.59375 4.5 5.25 6.89062 5.25 9.75V9.79688C5.25 13.7812 4.125 15.9375 3.14062 17.25ZM10.4531 24C8.8125 24 7.5 22.6875 7.5 21H13.5C13.5 22.6875 12.1406 24 10.4531 24Z" fill="black"/>
</svg>
