<svg width="24" height="25" viewBox="0 0 24 25" fill="none" xmlns="http://www.w3.org/2000/svg">
<path d="M20.5781 18.0156C20.8594 18.2969 21 18.6719 21 19C20.9531 19.7969 20.3906 20.5 19.4531 20.5H1.5C0.609375 20.5 0 19.7969 0 19C0 18.6719 0.09375 18.2969 0.375 18.0156C1.26562 17.0312 3 15.5781 3 10.75C3 7.14062 5.53125 4.23438 9 3.48438V2.5C9 1.70312 9.65625 1 10.5 1C11.2969 1 12 1.70312 12 2.5V3.48438C15.4219 4.23438 17.9531 7.14062 17.9531 10.75C17.9531 15.5781 19.6875 17.0312 20.5781 18.0156ZM3.14062 18.25H17.8125C16.8281 16.9375 15.75 14.7812 15.75 10.7969V10.75C15.75 7.89062 13.3594 5.5 10.5 5.5C7.59375 5.5 5.25 7.89062 5.25 10.75V10.7969C5.25 14.7812 4.125 16.9375 3.14062 18.25ZM10.4531 25C8.8125 25 7.5 23.6875 7.5 22H13.5C13.5 23.6875 12.1406 25 10.4531 25Z" fill="black"/>
<rect x="13" width="11" height="11" rx="5.33333" fill="#B50303"/>
<path d="M20.9294 2.04V2.71L18.2394 9H17.0294L16.7894 8.96L19.3894 3.19H16.2994V2.04H20.9294Z" fill="white"/>
</svg>
