<svg width="24" height="25" viewBox="0 0 24 25" fill="none" xmlns="http://www.w3.org/2000/svg">
<path d="M20.5781 18.0156C20.8594 18.2969 21 18.6719 21 19C20.9531 19.7969 20.3906 20.5 19.4531 20.5H1.5C0.609375 20.5 0 19.7969 0 19C0 18.6719 0.09375 18.2969 0.375 18.0156C1.26562 17.0312 3 15.5781 3 10.75C3 7.14062 5.53125 4.23438 9 3.48438V2.5C9 1.70312 9.65625 1 10.5 1C11.2969 1 12 1.70312 12 2.5V3.48438C15.4219 4.23438 17.9531 7.14062 17.9531 10.75C17.9531 15.5781 19.6875 17.0312 20.5781 18.0156ZM3.14062 18.25H17.8125C16.8281 16.9375 15.75 14.7812 15.75 10.7969V10.75C15.75 7.89062 13.3594 5.5 10.5 5.5C7.59375 5.5 5.25 7.89062 5.25 10.75V10.7969C5.25 14.7812 4.125 16.9375 3.14062 18.25ZM10.4531 25C8.8125 25 7.5 23.6875 7.5 22H13.5C13.5 23.6875 12.1406 25 10.4531 25Z" fill="black"/>
<rect x="13" width="11" height="11" rx="5.33333" fill="#B50303"/>
<path d="M18.6994 4.53C19.1794 4.53 19.6027 4.62667 19.9694 4.82C20.3361 5.00667 20.6194 5.27333 20.8194 5.62C21.0194 5.96 21.1194 6.35 21.1194 6.79C21.1194 7.25 21.0094 7.65667 20.7894 8.01C20.5761 8.36333 20.2761 8.63667 19.8894 8.83C19.5027 9.02333 19.0661 9.12 18.5794 9.12C17.7127 9.12 17.0461 8.82 16.5794 8.22C16.1127 7.62 15.8794 6.78 15.8794 5.7C15.8794 4.92 15.9994 4.24667 16.2394 3.68C16.4794 3.11333 16.8227 2.68 17.2694 2.38C17.7161 2.07333 18.2461 1.92 18.8594 1.92C19.5594 1.92 20.2094 2.10667 20.8094 2.48V3.69H20.7694C20.4894 3.47667 20.1861 3.31667 19.8594 3.21C19.5327 3.09667 19.2294 3.04 18.9494 3.04C18.4894 3.04 18.1194 3.20333 17.8394 3.53C17.5661 3.85 17.3927 4.31667 17.3194 4.93C17.5261 4.79 17.7394 4.69 17.9594 4.63C18.1861 4.56333 18.4327 4.53 18.6994 4.53ZM18.5594 8C18.8994 8 19.1794 7.89 19.3994 7.67C19.6261 7.45 19.7394 7.16333 19.7394 6.81C19.7394 6.47667 19.6361 6.20333 19.4294 5.99C19.2294 5.77 18.9461 5.66 18.5794 5.66C18.1727 5.66 17.7394 5.79333 17.2794 6.06C17.3127 6.69333 17.4361 7.17667 17.6494 7.51C17.8627 7.83667 18.1661 8 18.5594 8Z" fill="white"/>
</svg>
