<svg width="24" height="25" viewBox="0 0 24 25" fill="none" xmlns="http://www.w3.org/2000/svg">
<path d="M20.5781 18.0156C20.8594 18.2969 21 18.6719 21 19C20.9531 19.7969 20.3906 20.5 19.4531 20.5H1.5C0.609375 20.5 0 19.7969 0 19C0 18.6719 0.09375 18.2969 0.375 18.0156C1.26562 17.0312 3 15.5781 3 10.75C3 7.14062 5.53125 4.23438 9 3.48438V2.5C9 1.70312 9.65625 1 10.5 1C11.2969 1 12 1.70312 12 2.5V3.48438C15.4219 4.23438 17.9531 7.14062 17.9531 10.75C17.9531 15.5781 19.6875 17.0312 20.5781 18.0156ZM3.14062 18.25H17.8125C16.8281 16.9375 15.75 14.7812 15.75 10.7969V10.75C15.75 7.89062 13.3594 5.5 10.5 5.5C7.59375 5.5 5.25 7.89062 5.25 10.75V10.7969C5.25 14.7812 4.125 16.9375 3.14062 18.25ZM10.4531 25C8.8125 25 7.5 23.6875 7.5 22H13.5C13.5 23.6875 12.1406 25 10.4531 25Z" fill="black"/>
<rect x="13" width="11" height="11" rx="5.33333" fill="#B50303"/>
<path d="M19.8494 5.36C20.1894 5.54 20.4527 5.78333 20.6394 6.09C20.8327 6.39 20.9294 6.72333 20.9294 7.09C20.9294 7.49667 20.8161 7.85333 20.5894 8.16C20.3627 8.46667 20.0427 8.70333 19.6294 8.87C19.2161 9.03667 18.7461 9.12 18.2194 9.12C17.8327 9.12 17.4627 9.07333 17.1094 8.98C16.7627 8.88667 16.4161 8.74333 16.0694 8.55V7.26H16.1094C16.8027 7.74 17.4894 7.98 18.1694 7.98C18.5961 7.98 18.9361 7.89667 19.1894 7.73C19.4427 7.55667 19.5694 7.32 19.5694 7.02C19.5694 6.69333 19.4261 6.43 19.1394 6.23C18.8527 6.02333 18.4661 5.92 17.9794 5.92H17.5594V4.82H17.9794C18.4327 4.82 18.7894 4.73667 19.0494 4.57C19.3094 4.40333 19.4394 4.17333 19.4394 3.88C19.4394 3.62 19.3294 3.42 19.1094 3.28C18.8961 3.14 18.5961 3.07 18.2094 3.07C17.9094 3.07 17.6061 3.11667 17.2994 3.21C16.9994 3.30333 16.6694 3.45 16.3094 3.65H16.2694V2.41C16.9027 2.08333 17.5694 1.92 18.2694 1.92C19.0294 1.92 19.6361 2.08667 20.0894 2.42C20.5494 2.74667 20.7794 3.19333 20.7794 3.76C20.7794 4.09333 20.6961 4.4 20.5294 4.68C20.3694 4.95333 20.1427 5.18 19.8494 5.36Z" fill="white"/>
</svg>
