<svg width="17" height="16" viewBox="0 0 17 16" fill="none" xmlns="http://www.w3.org/2000/svg">
<path d="M9.75 8.125L11.4062 9.40625C11.75 9.65625 11.8125 10.125 11.5625 10.4688C11.4062 10.6562 11.1875 10.75 10.9688 10.75C10.8125 10.75 10.6562 10.7188 10.5312 10.625L8.53125 9.125C8.34375 8.96875 8.25 8.75 8.25 8.5V4.75C8.25 4.34375 8.5625 4 9 4C9.40625 4 9.75 4.34375 9.75 4.75V8.125ZM8.96875 0C13.4062 0 16.9375 3.59375 16.9375 8C16.9375 12.4375 13.375 16 8.96875 16C4.53125 16 0.96875 12.4375 0.96875 8C0.96875 3.59375 4.53125 0 8.96875 0ZM9 14.5C12.5625 14.5 15.5 11.5938 15.5 8C15.5 4.4375 12.5625 1.5 9 1.5C5.40625 1.5 2.5 4.4375 2.5 8C2.5 11.5938 5.40625 14.5 9 14.5Z" fill="#0071A3"/>
</svg>
