<svg width="22" height="25" viewBox="0 0 22 25" fill="none" xmlns="http://www.w3.org/2000/svg">
<path d="M19.25 6.5C19.7188 6.5 20.0469 6.92188 20 7.34375L18.6406 22.4844C18.5469 23.6094 17.6094 24.5 16.4375 24.5H5.51562C4.39062 24.5 3.40625 23.6094 3.3125 22.4844L1.95312 7.34375C1.90625 6.92188 2.23438 6.5 2.70312 6.5C3.07812 6.5 3.40625 6.82812 3.45312 7.20312L4.8125 22.3438C4.8125 22.7188 5.14062 23 5.51562 23H16.4375C16.8125 23 17.1406 22.7188 17.1875 22.3438L18.5 7.20312C18.5469 6.82812 18.875 6.5 19.25 6.5ZM20.75 3.5C21.125 3.5 21.5 3.875 21.5 4.25C21.5 4.67188 21.125 5 20.75 5H1.25C0.828125 5 0.5 4.67188 0.5 4.25C0.5 3.875 0.828125 3.5 1.25 3.5H5.75L7.29688 1.4375C7.71875 0.875 8.375 0.5 9.125 0.5H12.875C13.5781 0.5 14.2344 0.875 14.6562 1.4375L16.25 3.5H20.75ZM7.625 3.5H14.375L13.4375 2.32812C13.2969 2.14062 13.1094 2 12.875 2H9.125C8.89062 2 8.65625 2.14062 8.51562 2.32812L7.625 3.5Z" fill="#055293"/>
</svg>
