<svg width="14" height="4" viewBox="0 0 14 4" fill="none" xmlns="http://www.w3.org/2000/svg">
<path d="M10.9375 1.75C10.9375 1.03906 11.5117 0.4375 12.25 0.4375C12.9609 0.4375 13.5625 1.03906 13.5625 1.75C13.5625 2.48828 12.9609 3.0625 12.25 3.0625C11.5117 3.0625 10.9375 2.48828 10.9375 1.75ZM3.0625 1.75C3.0625 2.48828 2.46094 3.0625 1.75 3.0625C1.01172 3.0625 0.4375 2.48828 0.4375 1.75C0.4375 1.03906 1.01172 0.4375 1.75 0.4375C2.46094 0.4375 3.0625 1.03906 3.0625 1.75ZM8.3125 1.75C8.3125 2.48828 7.71094 3.0625 7 3.0625C6.26172 3.0625 5.6875 2.48828 5.6875 1.75C5.6875 1.03906 6.26172 0.4375 7 0.4375C7.71094 0.4375 8.3125 1.03906 8.3125 1.75Z" fill="#212121"/>
</svg>
