<svg width="172" height="154" viewBox="0 0 172 154" fill="none" xmlns="http://www.w3.org/2000/svg">
<path d="M86 154C133.22 154 171.5 147.284 171.5 139C171.5 130.716 133.22 124 86 124C38.7797 124 0.5 130.716 0.5 139C0.5 147.284 38.7797 154 86 154Z" fill="#EBEAEA"/>
<path d="M88.0547 139C81.2188 139 75.75 133.531 75.75 126.5H100.75C100.75 133.531 95.0859 139 88.0547 139ZM130.242 109.898C131.414 111.07 132 112.633 132 114C131.805 117.32 129.461 120.25 125.555 120.25H50.75C47.0391 120.25 44.5 117.32 44.5 114C44.5 112.633 44.8906 111.07 46.0625 109.898C49.7734 105.797 57 99.7422 57 79.625C57 64.5859 67.5469 52.4766 82 49.3516V45.25C82 41.9297 84.7344 39 88.25 39C91.5703 39 94.5 41.9297 94.5 45.25V49.3516C108.758 52.4766 119.305 64.5859 119.305 79.625C119.305 99.7422 126.531 105.797 130.242 109.898Z" fill="#B3C1DB"/>
<path d="M118.273 40.2381L114.737 43.7734L137.611 66.6467L141.146 63.1114L118.273 40.2381Z" fill="#99CFC2"/>
<path d="M103.338 57.6758C119.265 57.6758 132.176 44.7646 132.176 28.8379C132.176 12.9112 119.265 0 103.338 0C87.4112 0 74.5 12.9112 74.5 28.8379C74.5 44.7646 87.4112 57.6758 103.338 57.6758Z" fill="#99CFC2"/>
<path d="M103.338 53.4596C116.936 53.4596 127.96 42.4362 127.96 28.8382C127.96 15.2402 116.936 4.2168 103.338 4.2168C89.7402 4.2168 78.7168 15.2402 78.7168 28.8382C78.7168 42.4362 89.7402 53.4596 103.338 53.4596Z" fill="#EBEAEA"/>
<path d="M164.258 87.852L162.353 89.7573C160.697 91.4132 158.012 91.4132 156.356 89.7573L125.421 58.8191L133.32 50.9199L164.255 81.8549C165.914 83.5108 165.914 86.1961 164.258 87.852Z" fill="#4AC0AF"/>
<path d="M115.8 37.2192L112.936 40.2977L90.8779 20.4522L93.7422 17.377L115.8 37.2192Z" fill="#99CFC2"/>
<path d="M111.461 17L114.625 19.8451L94.6648 41.2825L91.5 38.4342L111.461 17Z" fill="#99CFC2"/>
</svg>
