<svg width="16" height="16" viewBox="0 0 16 16" fill="none" xmlns="http://www.w3.org/2000/svg">
<path d="M15.5938 10.375C15.5938 10.9375 14.2188 13.4688 13.5938 13.5C13.5 13.5 13.4062 13.4688 13.3438 13.4062L11.875 12.5625C11.3125 13.0312 10.6875 13.4062 10 13.6562V15.3438C10 15.5938 9.8125 15.7812 9.5625 15.8438C9.03125 15.9688 8.46875 16 7.96875 16C7.4375 16 6.90625 15.9375 6.375 15.8438C6.15625 15.7812 6 15.5938 6 15.3438V13.6562C5.28125 13.4062 4.65625 13.0312 4.09375 12.5625L2.625 13.4062C2.5625 13.4688 2.46875 13.5 2.375 13.5C1.6875 13.5 0.375 10.8438 0.375 10.375C0.375 10.2188 0.46875 10.0312 0.625 9.9375L2.09375 9.125C2.03125 8.75 2 8.375 2 8C2 7.625 2.03125 7.28125 2.09375 6.90625L0.625 6.09375C0.46875 6 0.375 5.8125 0.375 5.625C0.375 5.09375 1.75 2.53125 2.375 2.53125C2.46875 2.53125 2.5625 2.5625 2.625 2.625L4.09375 3.46875C4.65625 2.96875 5.28125 2.625 6 2.375V0.6875C6 0.4375 6.15625 0.25 6.375 0.1875C6.90625 0.0625 7.4375 0 8 0C8.53125 0 9.0625 0.0625 9.59375 0.1875C9.8125 0.21875 10 0.4375 10 0.6875V2.375C10.6875 2.625 11.3125 2.96875 11.875 3.46875L13.3438 2.625C13.4062 2.5625 13.5 2.53125 13.5938 2.53125C14.2812 2.53125 15.5938 5.1875 15.5938 5.625C15.5938 5.8125 15.5 6 15.3438 6.09375L13.875 6.90625C13.9375 7.28125 14 7.65625 14 8C14 8.375 13.9375 8.75 13.875 9.125L15.3438 9.9375C15.5 10.0312 15.5938 10.2188 15.5938 10.375ZM8 10.5C9.375 10.5 10.5 9.40625 10.5 8C10.5 6.625 9.375 5.5 8 5.5C6.59375 5.5 5.5 6.625 5.5 8C5.5 9.40625 6.59375 10.5 8 10.5Z" fill="#0071A3"/>
</svg>
