<svg width="28" height="24" viewBox="0 0 28 24" fill="none" xmlns="http://www.w3.org/2000/svg">
<path d="M26.625 15.7969C27.2344 16.6406 27.0469 17.8125 26.1562 18.4219L19.7812 23.0625C18.9844 23.6719 17.9531 24 16.9219 24H0.703125C0.328125 24 0 23.6719 0 23.25V18.75C0 18.375 0.328125 18 0.703125 18L3.28125 18.0469L5.4375 16.2656C6.42188 15.4688 7.73438 15.0469 8.95312 15.0469H16.4531C17.3906 15.0469 18.0938 15.8438 17.9531 16.7812C17.8125 17.5312 17.1094 18.0469 16.4062 18.0469H12.7031C12.375 18.0469 12 18.375 12 18.7969C12 19.1719 12.3281 19.5469 12.7031 19.5469H18.375L24 15.375C24.8438 14.7656 26.0156 14.9531 26.625 15.7969ZM7.5 8.25C7.07812 8.25 6.75 7.92188 6.75 7.5V4.5C6.75 4.125 7.07812 3.75 7.5 3.75H10.5V0.75C10.5 0.375 10.8281 0 11.25 0H14.25C14.625 0 15 0.375 15 0.75V3.75H18C18.375 3.75 18.75 4.125 18.75 4.5V7.5C18.75 7.92188 18.375 8.25 18 8.25H15V11.25C15 11.6719 14.625 12 14.25 12H11.25C10.8281 12 10.5 11.6719 10.5 11.25V8.25H7.5Z" fill="#008767"/>
</svg>
