<svg width="27" height="24" viewBox="0 0 27 24" fill="none" xmlns="http://www.w3.org/2000/svg">
<path d="M26.4844 10.875C26.8125 11.2031 26.9531 11.5781 26.7656 12C26.7656 12.7969 26.1094 13.5 25.2656 13.5H23.8125V20.9531C23.8125 22.5469 22.5 23.9062 20.8594 23.9062H5.90625C4.26562 23.9062 2.95312 22.5938 2.95312 20.9531V13.5H1.45312C0.65625 13.5 0 12.8438 0 12C0 11.5781 0.140625 11.2031 0.5625 10.875L12.5156 0.421875C12.8438 0.140625 13.2188 0.046875 13.5 0.046875C13.875 0.046875 14.2031 0.1875 14.5312 0.421875L26.4844 10.875ZM13.4531 9C11.8125 9 10.4531 10.3594 10.4531 12C10.4531 13.6875 11.8125 14.9531 13.4531 14.9531C15.0469 14.9531 16.4062 13.5938 16.4062 12C16.4062 10.3594 15.0938 9 13.4531 9ZM17.9531 21C18.375 21 18.7031 20.6719 18.6094 20.2969C18.6094 18.2812 16.9688 16.5938 14.9062 16.5938H11.9531C9.89062 16.5938 8.25 18.2344 8.25 20.2969C8.25 20.6719 8.53125 21 8.95312 21H17.9531Z" fill="#008767"/>
</svg>
