<svg width="27" height="22" viewBox="0 0 27 22" fill="none" xmlns="http://www.w3.org/2000/svg">
<path d="M26.625 8C26.8125 8 27 8.1875 27 8.375C26.9531 9.6875 26.625 14.2812 22.8281 17.7031C18.8906 21.5469 15 21.5 13.5 21.5C12 21.5 8.0625 21.5469 4.125 17.75C0.328125 14.3281 0 9.6875 0 8.375C0 8.1875 0.140625 8 0.328125 8C1.6875 8.04688 6.65625 8.32812 10.3594 11.9375C11.9062 13.2969 12.8906 14.8906 13.5 16.3438C14.1094 14.8906 15.0469 13.2969 16.5938 11.8906C20.2969 8.32812 25.2656 8.04688 26.625 8ZM13.5 13.2031C12.8906 12.3125 12.1875 11.5156 11.3906 10.8125C10.5 9.92188 9.5625 9.26562 8.57812 8.70312C9.375 5.42188 11.0156 2.46875 13.125 0.640625C13.3125 0.5 13.6406 0.5 13.8281 0.640625C15.9375 2.46875 17.5781 5.42188 18.375 8.70312C17.3906 9.26562 16.4531 9.96875 15.5625 10.8594C14.7656 11.5156 14.0625 12.3125 13.5 13.2031Z" fill="#008767"/>
</svg>
