<svg width="24" height="24" viewBox="0 0 24 24" fill="none" xmlns="http://www.w3.org/2000/svg">
<path d="M15.75 0C20.2969 0 24 3.65625 24 8.25C24 12.7969 20.2969 16.5 15.75 16.5C15.0469 16.5 14.3906 16.4062 13.7344 16.2656L12.1875 17.8125C12.0469 17.9531 11.8594 18 11.6719 18H9V20.25C9 20.6719 8.625 21 8.25 21H6V23.25C6 23.6719 5.625 24 5.25 24H0.75C0.328125 24 0 23.6719 0 23.25V18.6562C0 18.2344 0.140625 17.8594 0.421875 17.5781L7.73438 10.2656C7.59375 9.60938 7.5 8.95312 7.5 8.25C7.5 3.70312 11.1562 0 15.75 0ZM17.625 8.25C18.6562 8.25 19.5 7.45312 19.5 6.375C19.5 5.34375 18.6562 4.5 17.625 4.5C16.5469 4.5 15.75 5.34375 15.75 6.375C15.75 7.45312 16.5469 8.25 17.625 8.25Z" fill="#008767"/>
</svg>
