<svg width="18" height="27" viewBox="0 0 18 27" fill="none" xmlns="http://www.w3.org/2000/svg">
<path d="M14.6875 0.25C16.4648 0.25 17.9375 1.72266 17.9375 3.5V23C17.9375 24.8281 16.4648 26.25 14.6875 26.25H3.3125C1.48438 26.25 0.0625 24.8281 0.0625 23V3.5C0.0625 1.72266 1.48438 0.25 3.3125 0.25H14.6875ZM9 24.625C9.86328 24.625 10.625 23.9141 10.625 23C10.625 22.1367 9.86328 21.375 9 21.375C8.08594 21.375 7.375 22.1367 7.375 23C7.375 23.9141 8.08594 24.625 9 24.625ZM14.6875 3.5H3.3125V19.75H14.6875V3.5Z" fill="#008767"/>
</svg>
