<svg width="18" height="27" viewBox="0 0 18 27" fill="none" xmlns="http://www.w3.org/2000/svg">
<path d="M14.6875 0.75C16.4648 0.75 17.9375 2.22266 17.9375 4V23.5C17.9375 25.3281 16.4648 26.75 14.6875 26.75H3.3125C1.48438 26.75 0.0625 25.3281 0.0625 23.5V4C0.0625 2.22266 1.48438 0.75 3.3125 0.75H14.6875ZM9 25.125C9.86328 25.125 10.625 24.4141 10.625 23.5C10.625 22.6367 9.86328 21.875 9 21.875C8.08594 21.875 7.375 22.6367 7.375 23.5C7.375 24.4141 8.08594 25.125 9 25.125ZM14.6875 4H3.3125V20.25H14.6875V4Z" fill="#008767"/>
</svg>
