<svg width="14" height="16" viewBox="0 0 14 16" fill="none" xmlns="http://www.w3.org/2000/svg">
<path d="M13.25 2.5C13.6562 2.5 14 2.84375 14 3.25C14 3.6875 13.6562 4 13.25 4H13L12.3125 14.5938C12.2812 15.4062 11.625 16 10.8125 16H3.15625C2.34375 16 1.6875 15.4062 1.65625 14.5938L1 4H0.71875C0.3125 4 0 3.625 0 3.25C0 2.84375 0.3125 2.5 0.71875 2.5H3.0625L4.125 0.75C4.40625 0.28125 4.875 0 5.40625 0H8.5625C9.09375 0 9.5625 0.28125 9.84375 0.75L10.9062 2.5H13.25ZM5.40625 1.5L4.8125 2.5H9.15625L8.5625 1.5H5.40625ZM10.8125 14.5L11.4688 4H2.5L3.15625 14.5H10.8125Z" fill="#0071A3"/>
</svg>
