<svg width="40" height="46" viewBox="0 0 40 46" fill="none" xmlns="http://www.w3.org/2000/svg">
<g filter="url(#filter0_d_1845_35129)">
<path d="M29 9.75H25.625C24.75 7.58203 22.5625 6 20 6C17.375 6 15.1875 7.58203 14.3125 9.75H11C9.3125 9.75 8 11.0391 8 12.5625V33.1875C8 34.7695 9.3125 36 11 36H29C30.625 36 32 34.7695 32 33.1875V12.5625C32 11.0391 30.625 9.75 29 9.75ZM20 9.75C21.0625 9.75 22 10.6289 22 11.625C22 12.6797 21.0625 13.5 20 13.5C18.875 13.5 18 12.6797 18 11.625C18 10.6289 18.875 9.75 20 9.75ZM14 28.9688C13.125 28.9688 12.5 28.3828 12.5 27.5625C12.5 26.8008 13.125 26.1562 14 26.1562C14.8125 26.1562 15.5 26.8008 15.5 27.5625C15.5 28.3828 14.8125 28.9688 14 28.9688ZM15 22.875C14.6875 22.875 14.4375 22.8164 14.25 22.6406L12.25 20.7656C11.875 20.4141 11.875 19.7695 12.25 19.418C12.625 19.0664 13.3125 19.0664 13.6875 19.418L15 20.6484L18.25 17.543C18.625 17.1914 19.3125 17.1914 19.6875 17.543C20.0625 17.8945 20.0625 18.5391 19.6875 18.8906L15.6875 22.6406C15.5 22.8164 15.25 22.875 15 22.875ZM27 28.5H19C18.4375 28.5 18 28.0898 18 27.5625C18 27.0938 18.4375 26.625 19 26.625H27C27.5 26.625 28 27.0938 28 27.5625C28 28.0898 27.5 28.5 27 28.5ZM27 22.875H21C20.4375 22.875 20 22.4648 20 21.9375C20 21.4688 20.4375 21 21 21H27C27.5 21 28 21.4688 28 21.9375C28 22.4648 27.5 22.875 27 22.875Z" fill="url(#paint0_linear_1845_35129)"/>
<path d="M25.4859 9.80614L25.5238 9.9H25.625H29C30.5514 9.9 31.85 11.1309 31.85 12.5625V33.1875C31.85 34.6758 30.5535 35.85 29 35.85H11C9.38608 35.85 8.15 34.6777 8.15 33.1875V12.5625C8.15 11.1289 9.38817 9.9 11 9.9H14.3125H14.4137L14.4516 9.80614C15.3038 7.69454 17.4365 6.15 20 6.15C22.5001 6.15 24.6333 7.6937 25.4859 9.80614ZM18.1474 17.4335L18.1464 17.4345L14.999 20.4419L13.7901 19.3085C13.5697 19.102 13.265 19.0043 12.9688 19.0043C12.6725 19.0043 12.3678 19.102 12.1474 19.3085C11.7092 19.7194 11.7092 20.4642 12.1474 20.8751L14.1474 22.7501C14.3754 22.9638 14.6713 23.025 15 23.025C15.2708 23.025 15.5643 22.9617 15.7901 22.7501L19.7901 19.0001C20.2283 18.5892 20.2283 17.8444 19.7901 17.4335C19.5697 17.227 19.265 17.1293 18.9688 17.1293C18.6725 17.1293 18.3678 17.227 18.1474 17.4335ZM22.15 11.625C22.15 10.5371 21.1361 9.6 20 9.6C18.7983 9.6 17.85 10.54 17.85 11.625C17.85 12.7715 18.8014 13.65 20 13.65C21.1329 13.65 22.15 12.7744 22.15 11.625ZM12.35 27.5625C12.35 28.4746 13.0514 29.1187 14 29.1187C14.8818 29.1187 15.65 28.4785 15.65 27.5625C15.65 26.709 14.8861 26.0063 14 26.0063C13.0472 26.0063 12.35 26.713 12.35 27.5625ZM19 28.65H27C27.5673 28.65 28.15 28.1874 28.15 27.5625C28.15 27.2758 27.9989 27.0043 27.7901 26.8085C27.5807 26.6122 27.2955 26.475 27 26.475H19C18.3578 26.475 17.85 27.0078 17.85 27.5625C17.85 28.1817 18.3639 28.65 19 28.65ZM21 23.025H27C27.5673 23.025 28.15 22.5624 28.15 21.9375C28.15 21.6508 27.9989 21.3793 27.7901 21.1835C27.5807 20.9872 27.2955 20.85 27 20.85H21C20.3578 20.85 19.85 21.3828 19.85 21.9375C19.85 22.5567 20.3639 23.025 21 23.025Z" stroke="url(#paint1_linear_1845_35129)" stroke-width="0.3"/>
</g>
<defs>
<filter id="filter0_d_1845_35129" x="0" y="0" width="40" height="46" filterUnits="userSpaceOnUse" color-interpolation-filters="sRGB">
<feFlood flood-opacity="0" result="BackgroundImageFix"/>
<feColorMatrix in="SourceAlpha" type="matrix" values="0 0 0 0 0 0 0 0 0 0 0 0 0 0 0 0 0 0 127 0" result="hardAlpha"/>
<feOffset dy="2"/>
<feGaussianBlur stdDeviation="4"/>
<feComposite in2="hardAlpha" operator="out"/>
<feColorMatrix type="matrix" values="0 0 0 0 0 0 0 0 0 0.352941 0 0 0 0 0.560784 0 0 0 0.25 0"/>
<feBlend mode="normal" in2="BackgroundImageFix" result="effect1_dropShadow_1845_35129"/>
<feBlend mode="normal" in="SourceGraphic" in2="effect1_dropShadow_1845_35129" result="shape"/>
</filter>
<linearGradient id="paint0_linear_1845_35129" x1="-2.53259" y1="11.2844" x2="11.1681" y2="37.6963" gradientUnits="userSpaceOnUse">
<stop stop-color="#49C3B1"/>
<stop offset="1" stop-color="#0071A3"/>
</linearGradient>
<linearGradient id="paint1_linear_1845_35129" x1="20" y1="6" x2="20" y2="36" gradientUnits="userSpaceOnUse">
<stop stop-color="white"/>
<stop offset="1" stop-color="#D0D0D0" stop-opacity="0"/>
</linearGradient>
</defs>
</svg>
