<svg width="172" height="155" viewBox="0 0 172 155" fill="none" xmlns="http://www.w3.org/2000/svg">
<path d="M85.8577 154.586C133.078 154.586 171.358 147.87 171.358 139.586C171.358 131.302 133.078 124.586 85.8577 124.586C38.6373 124.586 0.357666 131.302 0.357666 139.586C0.357666 147.87 38.6373 154.586 85.8577 154.586Z" fill="#EBEAEA"/>
<path d="M118.13 40.8242L114.595 44.3595L137.468 67.2327L141.003 63.6974L118.13 40.8242Z" fill="#99CFC2"/>
<path d="M103.196 58.2619C119.122 58.2619 132.033 45.3507 132.033 29.424C132.033 13.4972 119.122 0.58606 103.196 0.58606C87.2688 0.58606 74.3577 13.4972 74.3577 29.424C74.3577 45.3507 87.2688 58.2619 103.196 58.2619Z" fill="#99CFC2"/>
<path d="M103.196 54.0456C116.794 54.0456 127.817 43.0222 127.817 29.4242C127.817 15.8262 116.794 4.80286 103.196 4.80286C89.5978 4.80286 78.5745 15.8262 78.5745 29.4242C78.5745 43.0222 89.5978 54.0456 103.196 54.0456Z" fill="#EBEAEA"/>
<path d="M164.116 88.4381L162.211 90.3433C160.555 91.9992 157.869 91.9992 156.214 90.3433L125.279 59.4052L133.178 51.506L164.113 82.4409C165.772 84.0969 165.772 86.7821 164.116 88.4381Z" fill="#4AC0AF"/>
<path d="M115.657 37.8053L112.793 40.8837L90.7356 21.0383L93.5999 17.963L115.657 37.8053Z" fill="#99CFC2"/>
<path d="M111.318 17.5861L114.483 20.4312L94.5224 41.8686L91.3577 39.0203L111.318 17.5861Z" fill="#99CFC2"/>
<path d="M115.358 113.461C115.358 115.688 114.326 117.469 113.001 118.953V130.977C114.326 131.867 115.358 133.352 115.358 134.984C115.358 137.508 113.148 139.586 110.643 139.586H63.5006C55.5452 139.586 49.3577 133.352 49.3577 125.336V77.8361C49.3577 69.9689 55.5452 63.5861 63.5006 63.5861H108.286C112.117 63.5861 115.358 66.8517 115.358 70.7111V113.461ZM70.4247 82.5861C69.2461 82.5861 68.2148 83.7736 68.2148 84.9611C68.2148 86.297 69.2461 87.3361 70.4247 87.3361H98.8577C100.036 87.3361 101.215 86.297 101.215 84.9611C101.215 83.7736 100.036 82.5861 98.7104 82.5861H70.4247ZM70.4247 92.0861C69.2461 92.0861 68.2148 93.2736 68.2148 94.4611C68.2148 95.797 69.2461 96.8361 70.4247 96.8361H98.8577C100.036 96.8361 101.215 95.797 101.215 94.4611C101.215 93.2736 100.036 92.0861 98.7104 92.0861H70.4247ZM105.929 130.086V120.586H63.5006C60.8488 120.586 58.7863 122.813 58.7863 125.336C58.7863 128.008 60.8488 130.086 63.5006 130.086H105.929Z" fill="#B3C1DB"/>
</svg>
