<svg width="325" height="295" viewBox="0 0 325 295" fill="none" xmlns="http://www.w3.org/2000/svg">
<circle cx="165" cy="44" r="44" fill="#0069A7" fill-opacity="0.22"/>
<circle cx="281" cy="185" r="44" fill="#0069A7" fill-opacity="0.22"/>
<circle cx="44" cy="190" r="44" fill="#0069A7" fill-opacity="0.22"/>
<circle cx="166" cy="112" r="47" fill="#002F87" fill-opacity="0.08"/>
<circle cx="235" cy="238" r="47" fill="#002F87" fill-opacity="0.08"/>
<circle cx="95" cy="243" r="47" fill="#002F87" fill-opacity="0.08"/>
<path d="M126.709 115H124.863V106.329H128.919C130.804 106.329 131.831 107.603 131.831 109.124C131.831 110.632 130.791 111.919 128.919 111.919H126.709V115ZM128.672 110.294C129.4 110.294 129.946 109.839 129.946 109.124C129.946 108.396 129.4 107.954 128.672 107.954H126.709V110.294H128.672ZM135.672 115.156C133.761 115.156 132.318 113.869 132.318 111.854C132.318 110.034 133.657 108.565 135.568 108.565C137.44 108.565 138.714 109.969 138.714 112.023V112.387H134.047C134.151 113.18 134.788 113.843 135.854 113.843C136.387 113.843 137.128 113.609 137.531 113.219L138.259 114.285C137.635 114.857 136.647 115.156 135.672 115.156ZM137.115 111.269C137.076 110.671 136.66 109.878 135.568 109.878C134.541 109.878 134.099 110.645 134.021 111.269H137.115ZM145.795 115H144.144V111.204C144.144 110.333 143.689 110.034 142.987 110.034C142.337 110.034 141.83 110.398 141.557 110.775V115H139.906V108.721H141.557V109.54C141.96 109.059 142.727 108.565 143.754 108.565C145.132 108.565 145.795 109.345 145.795 110.567V115ZM149.697 115.156C148.605 115.156 147.552 114.792 146.889 114.181L147.604 113.024C148.059 113.453 148.995 113.882 149.775 113.882C150.49 113.882 150.828 113.596 150.828 113.206C150.828 112.166 147.097 113.011 147.097 110.541C147.097 109.488 148.02 108.565 149.671 108.565C150.737 108.565 151.582 108.929 152.206 109.423L151.543 110.554C151.166 110.151 150.451 109.826 149.684 109.826C149.086 109.826 148.696 110.099 148.696 110.45C148.696 111.386 152.414 110.606 152.414 113.141C152.414 114.285 151.439 115.156 149.697 115.156ZM159.051 115H157.4V114.35C156.971 114.857 156.23 115.156 155.411 115.156C154.41 115.156 153.227 114.48 153.227 113.076C153.227 111.607 154.41 111.048 155.411 111.048C156.243 111.048 156.984 111.321 157.4 111.815V110.97C157.4 110.333 156.854 109.917 156.022 109.917C155.346 109.917 154.722 110.164 154.189 110.658L153.565 109.553C154.332 108.877 155.32 108.565 156.308 108.565C157.738 108.565 159.051 109.137 159.051 110.944V115ZM156.074 114.038C156.607 114.038 157.127 113.856 157.4 113.492V112.712C157.127 112.348 156.607 112.166 156.074 112.166C155.424 112.166 154.891 112.504 154.891 113.115C154.891 113.7 155.424 114.038 156.074 114.038ZM170.14 115H168.476V111.035C168.476 110.45 168.216 110.034 167.54 110.034C166.955 110.034 166.474 110.424 166.24 110.762V115H164.576V111.035C164.576 110.45 164.316 110.034 163.64 110.034C163.068 110.034 162.587 110.424 162.34 110.775V115H160.689V108.721H162.34V109.54C162.6 109.163 163.432 108.565 164.394 108.565C165.317 108.565 165.902 108.994 166.136 109.709C166.5 109.137 167.332 108.565 168.294 108.565C169.451 108.565 170.14 109.176 170.14 110.463V115ZM172.578 108.045C172.045 108.045 171.59 107.603 171.59 107.057C171.59 106.511 172.045 106.082 172.578 106.082C173.124 106.082 173.566 106.511 173.566 107.057C173.566 107.603 173.124 108.045 172.578 108.045ZM173.41 115H171.759V108.721H173.41V115ZM177.998 115.156C176.087 115.156 174.644 113.869 174.644 111.854C174.644 110.034 175.983 108.565 177.894 108.565C179.766 108.565 181.04 109.969 181.04 112.023V112.387H176.373C176.477 113.18 177.114 113.843 178.18 113.843C178.713 113.843 179.454 113.609 179.857 113.219L180.585 114.285C179.961 114.857 178.973 115.156 177.998 115.156ZM179.441 111.269C179.402 110.671 178.986 109.878 177.894 109.878C176.867 109.878 176.425 110.645 176.347 111.269H179.441ZM188.122 115H186.471V111.204C186.471 110.333 186.016 110.034 185.314 110.034C184.664 110.034 184.157 110.398 183.884 110.775V115H182.233V108.721H183.884V109.54C184.287 109.059 185.054 108.565 186.081 108.565C187.459 108.565 188.122 109.345 188.122 110.567V115ZM191.867 115.156C190.71 115.156 190.086 114.558 190.086 113.44V110.164H189.046V108.721H190.086V107.005H191.75V108.721H193.024V110.164H191.75V112.998C191.75 113.388 191.958 113.687 192.322 113.687C192.569 113.687 192.803 113.596 192.894 113.505L193.245 114.753C192.998 114.974 192.556 115.156 191.867 115.156ZM197.065 115.156C194.998 115.156 193.75 113.648 193.75 111.854C193.75 110.073 194.998 108.565 197.065 108.565C199.145 108.565 200.393 110.073 200.393 111.854C200.393 113.648 199.145 115.156 197.065 115.156ZM197.065 113.687C198.092 113.687 198.677 112.842 198.677 111.854C198.677 110.879 198.092 110.034 197.065 110.034C196.038 110.034 195.466 110.879 195.466 111.854C195.466 112.842 196.038 113.687 197.065 113.687ZM203.88 115.156C202.788 115.156 201.735 114.792 201.072 114.181L201.787 113.024C202.242 113.453 203.178 113.882 203.958 113.882C204.673 113.882 205.011 113.596 205.011 113.206C205.011 112.166 201.28 113.011 201.28 110.541C201.28 109.488 202.203 108.565 203.854 108.565C204.92 108.565 205.765 108.929 206.389 109.423L205.726 110.554C205.349 110.151 204.634 109.826 203.867 109.826C203.269 109.826 202.879 110.099 202.879 110.45C202.879 111.386 206.597 110.606 206.597 113.141C206.597 114.285 205.622 115.156 203.88 115.156Z" fill="black"/>
<path d="M199.782 241.156C198.118 241.156 196.922 240.597 196.116 239.778L197.117 238.374C197.728 239.011 198.677 239.544 199.873 239.544C200.887 239.544 201.381 239.076 201.381 238.582C201.381 237.048 196.389 238.101 196.389 234.838C196.389 233.395 197.637 232.199 199.678 232.199C201.056 232.199 202.2 232.615 203.058 233.408L202.031 234.76C201.329 234.11 200.393 233.811 199.509 233.811C198.716 233.811 198.274 234.162 198.274 234.682C198.274 236.06 203.253 235.137 203.253 238.374C203.253 239.96 202.122 241.156 199.782 241.156ZM207.408 241.156C205.497 241.156 204.054 239.869 204.054 237.854C204.054 236.034 205.393 234.565 207.304 234.565C209.176 234.565 210.45 235.969 210.45 238.023V238.387H205.783C205.887 239.18 206.524 239.843 207.59 239.843C208.123 239.843 208.864 239.609 209.267 239.219L209.995 240.285C209.371 240.857 208.383 241.156 207.408 241.156ZM208.851 237.269C208.812 236.671 208.396 235.878 207.304 235.878C206.277 235.878 205.835 236.645 205.757 237.269H208.851ZM217.531 241H215.88V237.204C215.88 236.333 215.425 236.034 214.723 236.034C214.073 236.034 213.566 236.398 213.293 236.775V241H211.642V234.721H213.293V235.54C213.696 235.059 214.463 234.565 215.49 234.565C216.868 234.565 217.531 235.345 217.531 236.567V241ZM221.277 241.156C220.12 241.156 219.496 240.558 219.496 239.44V236.164H218.456V234.721H219.496V233.005H221.16V234.721H222.434V236.164H221.16V238.998C221.16 239.388 221.368 239.687 221.732 239.687C221.979 239.687 222.213 239.596 222.304 239.505L222.655 240.753C222.408 240.974 221.966 241.156 221.277 241.156ZM224.382 234.045C223.849 234.045 223.394 233.603 223.394 233.057C223.394 232.511 223.849 232.082 224.382 232.082C224.928 232.082 225.37 232.511 225.37 233.057C225.37 233.603 224.928 234.045 224.382 234.045ZM225.214 241H223.563V234.721H225.214V241ZM236.302 241H234.638V237.035C234.638 236.45 234.378 236.034 233.702 236.034C233.117 236.034 232.636 236.424 232.402 236.762V241H230.738V237.035C230.738 236.45 230.478 236.034 229.802 236.034C229.23 236.034 228.749 236.424 228.502 236.775V241H226.851V234.721H228.502V235.54C228.762 235.163 229.594 234.565 230.556 234.565C231.479 234.565 232.064 234.994 232.298 235.709C232.662 235.137 233.494 234.565 234.456 234.565C235.613 234.565 236.302 235.176 236.302 236.463V241ZM238.741 234.045C238.208 234.045 237.753 233.603 237.753 233.057C237.753 232.511 238.208 232.082 238.741 232.082C239.287 232.082 239.729 232.511 239.729 233.057C239.729 233.603 239.287 234.045 238.741 234.045ZM239.573 241H237.922V234.721H239.573V241ZM244.161 241.156C242.25 241.156 240.807 239.869 240.807 237.854C240.807 236.034 242.146 234.565 244.057 234.565C245.929 234.565 247.203 235.969 247.203 238.023V238.387H242.536C242.64 239.18 243.277 239.843 244.343 239.843C244.876 239.843 245.617 239.609 246.02 239.219L246.748 240.285C246.124 240.857 245.136 241.156 244.161 241.156ZM245.604 237.269C245.565 236.671 245.149 235.878 244.057 235.878C243.03 235.878 242.588 236.645 242.51 237.269H245.604ZM254.284 241H252.633V237.204C252.633 236.333 252.178 236.034 251.476 236.034C250.826 236.034 250.319 236.398 250.046 236.775V241H248.395V234.721H250.046V235.54C250.449 235.059 251.216 234.565 252.243 234.565C253.621 234.565 254.284 235.345 254.284 236.567V241ZM258.029 241.156C256.872 241.156 256.248 240.558 256.248 239.44V236.164H255.208V234.721H256.248V233.005H257.912V234.721H259.186V236.164H257.912V238.998C257.912 239.388 258.12 239.687 258.484 239.687C258.731 239.687 258.965 239.596 259.056 239.505L259.407 240.753C259.16 240.974 258.718 241.156 258.029 241.156ZM263.228 241.156C261.161 241.156 259.913 239.648 259.913 237.854C259.913 236.073 261.161 234.565 263.228 234.565C265.308 234.565 266.556 236.073 266.556 237.854C266.556 239.648 265.308 241.156 263.228 241.156ZM263.228 239.687C264.255 239.687 264.84 238.842 264.84 237.854C264.84 236.879 264.255 236.034 263.228 236.034C262.201 236.034 261.629 236.879 261.629 237.854C261.629 238.842 262.201 239.687 263.228 239.687ZM270.043 241.156C268.951 241.156 267.898 240.792 267.235 240.181L267.95 239.024C268.405 239.453 269.341 239.882 270.121 239.882C270.836 239.882 271.174 239.596 271.174 239.206C271.174 238.166 267.443 239.011 267.443 236.541C267.443 235.488 268.366 234.565 270.017 234.565C271.083 234.565 271.928 234.929 272.552 235.423L271.889 236.554C271.512 236.151 270.797 235.826 270.03 235.826C269.432 235.826 269.042 236.099 269.042 236.45C269.042 237.386 272.76 236.606 272.76 239.141C272.76 240.285 271.785 241.156 270.043 241.156Z" fill="black"/>
<path d="M57.5658 241.12C55.5658 241.12 54.0158 239.72 54.0158 237.67C54.0158 235.62 55.5658 234.22 57.5658 234.22C59.0358 234.22 59.8858 235.02 60.3558 235.85L59.1358 236.45C58.8558 235.91 58.2558 235.48 57.5658 235.48C56.3558 235.48 55.4758 236.41 55.4758 237.67C55.4758 238.93 56.3558 239.86 57.5658 239.86C58.2558 239.86 58.8558 239.44 59.1358 238.89L60.3558 239.48C59.8758 240.31 59.0358 241.12 57.5658 241.12ZM63.411 241.12C61.821 241.12 60.861 239.96 60.861 238.58C60.861 237.21 61.821 236.05 63.411 236.05C65.011 236.05 65.971 237.21 65.971 238.58C65.971 239.96 65.011 241.12 63.411 241.12ZM63.411 239.99C64.201 239.99 64.651 239.34 64.651 238.58C64.651 237.83 64.201 237.18 63.411 237.18C62.621 237.18 62.181 237.83 62.181 238.58C62.181 239.34 62.621 239.99 63.411 239.99ZM74.1832 241H72.9032V237.95C72.9032 237.5 72.7032 237.18 72.1832 237.18C71.7332 237.18 71.3632 237.48 71.1832 237.74V241H69.9032V237.95C69.9032 237.5 69.7032 237.18 69.1832 237.18C68.7432 237.18 68.3732 237.48 68.1832 237.75V241H66.9132V236.17H68.1832V236.8C68.3832 236.51 69.0232 236.05 69.7632 236.05C70.4732 236.05 70.9232 236.38 71.1032 236.93C71.3832 236.49 72.0232 236.05 72.7632 236.05C73.6532 236.05 74.1832 236.52 74.1832 237.51V241ZM78.1888 241.12C77.6188 241.12 77.0888 240.88 76.6988 240.38V242.84H75.4288V236.17H76.6988V236.78C77.0688 236.31 77.5988 236.05 78.1888 236.05C79.4288 236.05 80.3288 236.97 80.3288 238.58C80.3288 240.19 79.4288 241.12 78.1888 241.12ZM77.7888 239.99C78.5188 239.99 79.0088 239.42 79.0088 238.58C79.0088 237.75 78.5188 237.18 77.7888 237.18C77.3788 237.18 76.9088 237.42 76.6988 237.73V239.44C76.9088 239.74 77.3788 239.99 77.7888 239.99ZM83.4989 241.12C81.9089 241.12 80.9489 239.96 80.9489 238.58C80.9489 237.21 81.9089 236.05 83.4989 236.05C85.0989 236.05 86.0589 237.21 86.0589 238.58C86.0589 239.96 85.0989 241.12 83.4989 241.12ZM83.4989 239.99C84.2889 239.99 84.7389 239.34 84.7389 238.58C84.7389 237.83 84.2889 237.18 83.4989 237.18C82.7089 237.18 82.2689 237.83 82.2689 238.58C82.2689 239.34 82.7089 239.99 83.4989 239.99ZM88.2711 241H87.0011V236.17H88.2711V236.83C88.6111 236.4 89.2111 236.05 89.8111 236.05V237.29C89.7211 237.27 89.6011 237.26 89.4611 237.26C89.0411 237.26 88.4811 237.5 88.2711 237.81V241ZM92.2246 241.12C91.3346 241.12 90.8546 240.66 90.8546 239.8V237.28H90.0546V236.17H90.8546V234.85H92.1346V236.17H93.1146V237.28H92.1346V239.46C92.1346 239.76 92.2946 239.99 92.5746 239.99C92.7646 239.99 92.9446 239.92 93.0146 239.85L93.2846 240.81C93.0946 240.98 92.7546 241.12 92.2246 241.12ZM98.1535 241H96.8835V240.5C96.5535 240.89 95.9835 241.12 95.3535 241.12C94.5835 241.12 93.6735 240.6 93.6735 239.52C93.6735 238.39 94.5835 237.96 95.3535 237.96C95.9935 237.96 96.5635 238.17 96.8835 238.55V237.9C96.8835 237.41 96.4635 237.09 95.8235 237.09C95.3035 237.09 94.8235 237.28 94.4135 237.66L93.9335 236.81C94.5235 236.29 95.2835 236.05 96.0435 236.05C97.1435 236.05 98.1535 236.49 98.1535 237.88V241ZM95.8635 240.26C96.2735 240.26 96.6735 240.12 96.8835 239.84V239.24C96.6735 238.96 96.2735 238.82 95.8635 238.82C95.3635 238.82 94.9535 239.08 94.9535 239.55C94.9535 240 95.3635 240.26 95.8635 240.26ZM106.683 241H105.403V237.95C105.403 237.5 105.203 237.18 104.683 237.18C104.233 237.18 103.863 237.48 103.683 237.74V241H102.403V237.95C102.403 237.5 102.203 237.18 101.683 237.18C101.243 237.18 100.873 237.48 100.683 237.75V241H99.4132V236.17H100.683V236.8C100.883 236.51 101.523 236.05 102.263 236.05C102.973 236.05 103.423 236.38 103.603 236.93C103.883 236.49 104.523 236.05 105.263 236.05C106.153 236.05 106.683 236.52 106.683 237.51V241ZM108.559 235.65C108.149 235.65 107.799 235.31 107.799 234.89C107.799 234.47 108.149 234.14 108.559 234.14C108.979 234.14 109.319 234.47 109.319 234.89C109.319 235.31 108.979 235.65 108.559 235.65ZM109.199 241H107.929V236.17H109.199V241ZM112.728 241.12C111.258 241.12 110.148 240.13 110.148 238.58C110.148 237.18 111.178 236.05 112.648 236.05C114.088 236.05 115.068 237.13 115.068 238.71V238.99H111.478C111.558 239.6 112.048 240.11 112.868 240.11C113.278 240.11 113.848 239.93 114.158 239.63L114.718 240.45C114.238 240.89 113.478 241.12 112.728 241.12ZM113.838 238.13C113.808 237.67 113.488 237.06 112.648 237.06C111.858 237.06 111.518 237.65 111.458 238.13H113.838ZM120.515 241H119.245V238.08C119.245 237.41 118.895 237.18 118.355 237.18C117.855 237.18 117.465 237.46 117.255 237.75V241H115.985V236.17H117.255V236.8C117.565 236.43 118.155 236.05 118.945 236.05C120.005 236.05 120.515 236.65 120.515 237.59V241ZM123.396 241.12C122.506 241.12 122.026 240.66 122.026 239.8V237.28H121.226V236.17H122.026V234.85H123.306V236.17H124.286V237.28H123.306V239.46C123.306 239.76 123.466 239.99 123.746 239.99C123.936 239.99 124.116 239.92 124.186 239.85L124.456 240.81C124.266 240.98 123.926 241.12 123.396 241.12ZM127.395 241.12C125.805 241.12 124.845 239.96 124.845 238.58C124.845 237.21 125.805 236.05 127.395 236.05C128.995 236.05 129.955 237.21 129.955 238.58C129.955 239.96 128.995 241.12 127.395 241.12ZM127.395 239.99C128.185 239.99 128.635 239.34 128.635 238.58C128.635 237.83 128.185 237.18 127.395 237.18C126.605 237.18 126.165 237.83 126.165 238.58C126.165 239.34 126.605 239.99 127.395 239.99ZM132.638 241.12C131.798 241.12 130.988 240.84 130.478 240.37L131.028 239.48C131.378 239.81 132.098 240.14 132.698 240.14C133.248 240.14 133.508 239.92 133.508 239.62C133.508 238.82 130.638 239.47 130.638 237.57C130.638 236.76 131.348 236.05 132.618 236.05C133.438 236.05 134.088 236.33 134.568 236.71L134.058 237.58C133.768 237.27 133.218 237.02 132.628 237.02C132.168 237.02 131.868 237.23 131.868 237.5C131.868 238.22 134.728 237.62 134.728 239.57C134.728 240.45 133.978 241.12 132.638 241.12ZM135.953 241.2H135.033L137.403 234.13H138.323L135.953 241.2ZM55.1823 253.12C53.9023 253.12 52.9823 252.69 52.3623 252.06L53.1323 250.98C53.6023 251.47 54.3323 251.88 55.2523 251.88C56.0323 251.88 56.4123 251.52 56.4123 251.14C56.4123 249.96 52.5723 250.77 52.5723 248.26C52.5723 247.15 53.5323 246.23 55.1023 246.23C56.1623 246.23 57.0423 246.55 57.7023 247.16L56.9123 248.2C56.3723 247.7 55.6523 247.47 54.9723 247.47C54.3623 247.47 54.0223 247.74 54.0223 248.14C54.0223 249.2 57.8523 248.49 57.8523 250.98C57.8523 252.2 56.9823 253.12 55.1823 253.12ZM61.0484 253.12C59.5784 253.12 58.4684 252.13 58.4684 250.58C58.4684 249.18 59.4984 248.05 60.9684 248.05C62.4084 248.05 63.3884 249.13 63.3884 250.71V250.99H59.7984C59.8784 251.6 60.3684 252.11 61.1884 252.11C61.5984 252.11 62.1684 251.93 62.4784 251.63L63.0384 252.45C62.5584 252.89 61.7984 253.12 61.0484 253.12ZM62.1584 250.13C62.1284 249.67 61.8084 249.06 60.9684 249.06C60.1784 249.06 59.8384 249.65 59.7784 250.13H62.1584ZM68.8358 253H67.5658V250.08C67.5658 249.41 67.2158 249.18 66.6758 249.18C66.1758 249.18 65.7858 249.46 65.5758 249.75V253H64.3058V248.17H65.5758V248.8C65.8858 248.43 66.4758 248.05 67.2658 248.05C68.3258 248.05 68.8358 248.65 68.8358 249.59V253ZM71.8368 253.12C70.9968 253.12 70.1868 252.84 69.6768 252.37L70.2268 251.48C70.5768 251.81 71.2968 252.14 71.8968 252.14C72.4468 252.14 72.7068 251.92 72.7068 251.62C72.7068 250.82 69.8368 251.47 69.8368 249.57C69.8368 248.76 70.5468 248.05 71.8168 248.05C72.6368 248.05 73.2868 248.33 73.7668 248.71L73.2568 249.58C72.9668 249.27 72.4168 249.02 71.8268 249.02C71.3668 249.02 71.0668 249.23 71.0668 249.5C71.0668 250.22 73.9268 249.62 73.9268 251.57C73.9268 252.45 73.1768 253.12 71.8368 253.12ZM79.0324 253H77.7624V252.5C77.4324 252.89 76.8624 253.12 76.2324 253.12C75.4624 253.12 74.5524 252.6 74.5524 251.52C74.5524 250.39 75.4624 249.96 76.2324 249.96C76.8724 249.96 77.4424 250.17 77.7624 250.55V249.9C77.7624 249.41 77.3424 249.09 76.7024 249.09C76.1824 249.09 75.7024 249.28 75.2924 249.66L74.8124 248.81C75.4024 248.29 76.1624 248.05 76.9224 248.05C78.0224 248.05 79.0324 248.49 79.0324 249.88V253ZM76.7424 252.26C77.1524 252.26 77.5524 252.12 77.7624 251.84V251.24C77.5524 250.96 77.1524 250.82 76.7424 250.82C76.2424 250.82 75.8324 251.08 75.8324 251.55C75.8324 252 76.2424 252.26 76.7424 252.26ZM82.5421 253.12C81.0521 253.12 79.9821 252.07 79.9821 250.58C79.9821 249.1 81.0521 248.05 82.5421 248.05C83.5321 248.05 84.1321 248.48 84.4521 248.92L83.6221 249.7C83.3921 249.36 83.0421 249.18 82.6021 249.18C81.8321 249.18 81.2921 249.74 81.2921 250.58C81.2921 251.42 81.8321 251.99 82.6021 251.99C83.0421 251.99 83.3921 251.79 83.6221 251.47L84.4521 252.24C84.1321 252.69 83.5321 253.12 82.5421 253.12ZM85.9123 247.65C85.5023 247.65 85.1523 247.31 85.1523 246.89C85.1523 246.47 85.5023 246.14 85.9123 246.14C86.3323 246.14 86.6723 246.47 86.6723 246.89C86.6723 247.31 86.3323 247.65 85.9123 247.65ZM86.5523 253H85.2823V248.17H86.5523V253ZM90.0516 253.12C88.4616 253.12 87.5016 251.96 87.5016 250.58C87.5016 249.21 88.4616 248.05 90.0516 248.05C91.6516 248.05 92.6116 249.21 92.6116 250.58C92.6116 251.96 91.6516 253.12 90.0516 253.12ZM90.0516 251.99C90.8416 251.99 91.2916 251.34 91.2916 250.58C91.2916 249.83 90.8416 249.18 90.0516 249.18C89.2616 249.18 88.8216 249.83 88.8216 250.58C88.8216 251.34 89.2616 251.99 90.0516 251.99ZM98.0838 253H96.8138V250.08C96.8138 249.41 96.4638 249.18 95.9238 249.18C95.4238 249.18 95.0338 249.46 94.8238 249.75V253H93.5538V248.17H94.8238V248.8C95.1338 248.43 95.7238 248.05 96.5138 248.05C97.5738 248.05 98.0838 248.65 98.0838 249.59V253ZM101.615 253.12C100.145 253.12 99.0348 252.13 99.0348 250.58C99.0348 249.18 100.065 248.05 101.535 248.05C102.975 248.05 103.955 249.13 103.955 250.71V250.99H100.365C100.445 251.6 100.935 252.11 101.755 252.11C102.165 252.11 102.735 251.93 103.045 251.63L103.605 252.45C103.125 252.89 102.365 253.12 101.615 253.12ZM102.725 250.13C102.695 249.67 102.375 249.06 101.535 249.06C100.745 249.06 100.405 249.65 100.345 250.13H102.725ZM106.612 253.12C105.772 253.12 104.962 252.84 104.452 252.37L105.002 251.48C105.352 251.81 106.072 252.14 106.672 252.14C107.222 252.14 107.482 251.92 107.482 251.62C107.482 250.82 104.612 251.47 104.612 249.57C104.612 248.76 105.322 248.05 106.592 248.05C107.412 248.05 108.062 248.33 108.542 248.71L108.032 249.58C107.742 249.27 107.192 249.02 106.602 249.02C106.142 249.02 105.842 249.23 105.842 249.5C105.842 250.22 108.702 249.62 108.702 251.57C108.702 252.45 107.952 253.12 106.612 253.12ZM113.756 253H112.476V249.28H111.676V248.17H112.476V247.91C112.476 246.88 113.136 246.23 114.106 246.23C114.566 246.23 115.056 246.35 115.366 246.68L114.886 247.43C114.756 247.3 114.586 247.23 114.356 247.23C114.006 247.23 113.756 247.46 113.756 247.91V248.17H114.736V249.28H113.756V253ZM117.978 246L116.358 247.44H115.468L116.808 246H117.978ZM116.738 253H115.468V248.17H116.738V253ZM119.737 253.12C118.897 253.12 118.087 252.84 117.577 252.37L118.127 251.48C118.477 251.81 119.197 252.14 119.797 252.14C120.347 252.14 120.607 251.92 120.607 251.62C120.607 250.82 117.737 251.47 117.737 249.57C117.737 248.76 118.447 248.05 119.717 248.05C120.537 248.05 121.187 248.33 121.667 248.71L121.157 249.58C120.867 249.27 120.317 249.02 119.727 249.02C119.267 249.02 118.967 249.23 118.967 249.5C118.967 250.22 121.827 249.62 121.827 251.57C121.827 252.45 121.077 253.12 119.737 253.12ZM123.393 247.65C122.983 247.65 122.633 247.31 122.633 246.89C122.633 246.47 122.983 246.14 123.393 246.14C123.813 246.14 124.153 246.47 124.153 246.89C124.153 247.31 123.813 247.65 123.393 247.65ZM124.033 253H122.763V248.17H124.033V253ZM127.542 253.12C126.052 253.12 124.982 252.07 124.982 250.58C124.982 249.1 126.052 248.05 127.542 248.05C128.532 248.05 129.132 248.48 129.452 248.92L128.622 249.7C128.392 249.36 128.042 249.18 127.602 249.18C126.832 249.18 126.292 249.74 126.292 250.58C126.292 251.42 126.832 251.99 127.602 251.99C128.042 251.99 128.392 251.79 128.622 251.47L129.452 252.24C129.132 252.69 128.532 253.12 127.542 253.12ZM134.452 253H133.182V252.5C132.852 252.89 132.282 253.12 131.652 253.12C130.882 253.12 129.972 252.6 129.972 251.52C129.972 250.39 130.882 249.96 131.652 249.96C132.292 249.96 132.862 250.17 133.182 250.55V249.9C133.182 249.41 132.762 249.09 132.122 249.09C131.602 249.09 131.122 249.28 130.712 249.66L130.232 248.81C130.822 248.29 131.582 248.05 132.342 248.05C133.442 248.05 134.452 248.49 134.452 249.88V253ZM132.162 252.26C132.572 252.26 132.972 252.12 133.182 251.84V251.24C132.972 250.96 132.572 250.82 132.162 250.82C131.662 250.82 131.252 251.08 131.252 251.55C131.252 252 131.662 252.26 132.162 252.26ZM137.452 253.12C136.612 253.12 135.802 252.84 135.292 252.37L135.842 251.48C136.192 251.81 136.912 252.14 137.512 252.14C138.062 252.14 138.322 251.92 138.322 251.62C138.322 250.82 135.452 251.47 135.452 249.57C135.452 248.76 136.162 248.05 137.432 248.05C138.252 248.05 138.902 248.33 139.382 248.71L138.872 249.58C138.582 249.27 138.032 249.02 137.442 249.02C136.982 249.02 136.682 249.23 136.682 249.5C136.682 250.22 139.542 249.62 139.542 251.57C139.542 252.45 138.792 253.12 137.452 253.12Z" fill="black"/>
<path d="M165.5 144C158.566 144 153 149.166 153 155.5C153 161.879 158.566 167 165.5 167C172.385 167 178 161.879 178 155.5C178 149.166 172.385 144 165.5 144ZM171.115 153.523L164.865 159.273C164.621 159.543 164.279 159.633 163.938 159.633C163.547 159.633 163.205 159.543 162.961 159.273L159.836 156.398C159.299 155.904 159.299 155.141 159.836 154.646C160.373 154.152 161.203 154.152 161.74 154.646L163.938 156.623L169.211 151.771C169.748 151.277 170.578 151.277 171.115 151.771C171.652 152.266 171.652 153.029 171.115 153.523Z" fill="#065394"/>
<path d="M232 267C225.344 267 220 272.166 220 278.5C220 284.879 225.344 290 232 290C238.609 290 244 284.879 244 278.5C244 272.166 238.609 267 232 267ZM237.391 276.523L231.391 282.273C231.156 282.543 230.828 282.633 230.5 282.633C230.125 282.633 229.797 282.543 229.562 282.273L226.562 279.398C226.047 278.904 226.047 278.141 226.562 277.646C227.078 277.152 227.875 277.152 228.391 277.646L230.5 279.623L235.562 274.771C236.078 274.277 236.875 274.277 237.391 274.771C237.906 275.266 237.906 276.029 237.391 276.523Z" fill="#065394"/>
<path d="M93 272C86.3438 272 81 277.166 81 283.5C81 289.879 86.3438 295 93 295C99.6094 295 105 289.879 105 283.5C105 277.166 99.6094 272 93 272ZM98.3906 281.523L92.3906 287.273C92.1562 287.543 91.8281 287.633 91.5 287.633C91.125 287.633 90.7969 287.543 90.5625 287.273L87.5625 284.398C87.0469 283.904 87.0469 283.141 87.5625 282.646C88.0781 282.152 88.875 282.152 89.3906 282.646L91.5 284.623L96.5625 279.771C97.0781 279.277 97.875 279.277 98.3906 279.771C98.9062 280.266 98.9062 281.029 98.3906 281.523Z" fill="#065394"/>
<g filter="url(#filter0_d_4144_28910)">
<path d="M121.448 150.259C121.832 150.578 122.078 151.062 122.069 151.519L122.58 161.612C122.571 162.069 122.406 162.49 122.178 162.765C121.858 163.15 121.474 163.389 120.971 163.436C120.012 163.475 119.189 162.792 119.153 161.832L118.833 156.081L103.25 174.832L108.962 174.094C109.912 173.954 110.735 174.638 110.872 175.588C110.917 176.091 110.753 176.512 110.478 176.842C110.204 177.172 109.82 177.411 109.373 177.503L99.3565 178.848C98.9087 178.94 98.4335 178.731 98.0497 178.412C97.7207 178.139 97.4283 177.71 97.4375 177.253L96.9269 167.16C96.8904 166.2 97.5759 165.375 98.5355 165.336C99.495 165.297 100.317 165.98 100.354 166.94L100.618 172.645L116.202 153.894L110.545 154.678C109.64 154.763 108.772 154.134 108.635 153.184C108.498 152.233 109.184 151.408 110.134 151.268L120.15 149.924C120.598 149.832 121.119 149.986 121.448 150.259Z" fill="url(#paint0_linear_4144_28910)"/>
<path d="M121.919 151.516L121.919 151.516L121.919 151.527L122.43 161.614C122.42 162.038 122.267 162.423 122.062 162.669C121.764 163.029 121.415 163.243 120.961 163.286C120.077 163.321 119.336 162.693 119.303 161.826L119.303 161.826L119.302 161.823L118.983 156.073L118.962 155.692L118.718 155.986L103.135 174.736L102.891 175.03L103.269 174.981L108.981 174.243L108.981 174.243L108.984 174.242C109.842 174.116 110.594 174.73 110.723 175.606C110.763 176.063 110.614 176.444 110.363 176.746C110.111 177.049 109.759 177.269 109.347 177.355L99.3365 178.699L99.3365 178.699L99.3261 178.701C98.9428 178.78 98.5135 178.603 98.1456 178.297C97.8351 178.039 97.5796 177.649 97.5875 177.256L97.5879 177.256L97.5873 177.245L97.0767 167.154C97.0767 167.154 97.0767 167.153 97.0767 167.153C97.0435 166.267 97.6739 165.521 98.5416 165.486C99.4274 165.449 100.171 166.078 100.204 166.946L100.204 166.947L100.468 172.652L100.486 173.038L100.734 172.741L116.317 153.99L116.564 153.693L116.181 153.746L110.528 154.529C109.7 154.605 108.908 154.029 108.783 153.162C108.66 152.303 109.278 151.546 110.155 151.417C110.155 151.417 110.156 151.417 110.156 151.417L120.17 150.073L120.17 150.073L120.181 150.071C120.58 149.988 121.055 150.127 121.352 150.374C121.706 150.669 121.927 151.112 121.919 151.516Z" stroke="url(#paint1_linear_4144_28910)" stroke-width="0.3"/>
</g>
<g filter="url(#filter1_d_4144_28910)">
<path d="M207.519 149.037C207.959 148.802 208.5 148.755 208.92 148.936L218.463 152.262C218.883 152.442 219.212 152.753 219.38 153.068C219.616 153.51 219.693 153.955 219.548 154.438C219.223 155.342 218.28 155.847 217.377 155.519L211.929 153.651L223.436 175.146L224.902 169.576C225.13 168.643 226.073 168.138 227.005 168.369C227.488 168.516 227.816 168.827 228.019 169.205C228.221 169.583 228.298 170.029 228.215 170.479L225.691 180.264C225.608 180.714 225.236 181.076 224.796 181.311C224.419 181.513 223.911 181.622 223.491 181.442L213.948 178.116C213.045 177.789 212.539 176.843 212.864 175.939C213.188 175.036 214.131 174.531 215.034 174.859L220.419 176.761L208.912 155.266L207.509 160.802C207.247 161.672 206.338 162.24 205.406 162.009C204.474 161.778 203.968 160.832 204.196 159.899L206.72 150.114C206.803 149.664 207.142 149.239 207.519 149.037Z" fill="url(#paint2_linear_4144_28910)"/>
<path d="M208.861 149.074L208.861 149.074L208.871 149.078L218.409 152.402C218.798 152.57 219.097 152.857 219.248 153.139C219.468 153.551 219.536 153.954 219.405 154.391C219.104 155.223 218.244 155.674 217.428 155.378L217.428 155.378L217.426 155.378L211.978 153.509L211.617 153.385L211.797 153.722L223.304 175.216L223.484 175.553L223.581 175.184L225.047 169.614L225.047 169.614L225.048 169.612C225.254 168.769 226.106 168.303 226.965 168.514C227.404 168.648 227.701 168.93 227.886 169.276C228.072 169.623 228.144 170.032 228.069 170.446L225.546 180.227L225.545 180.227L225.543 180.237C225.473 180.622 225.147 180.953 224.725 181.179C224.369 181.369 223.912 181.46 223.55 181.304L223.55 181.304L223.54 181.3L213.999 177.975C213.999 177.975 213.999 177.975 213.998 177.975C213.165 177.672 212.711 176.807 213.005 175.99C213.305 175.156 214.166 174.703 214.983 175L214.984 175L220.369 176.902L220.734 177.031L220.551 176.69L209.045 155.195L208.862 154.854L208.767 155.229L207.365 160.762C207.123 161.557 206.292 162.074 205.442 161.863C204.599 161.654 204.131 160.797 204.341 159.936C204.342 159.935 204.342 159.935 204.342 159.935L206.866 150.151L206.866 150.151L206.868 150.141C206.942 149.74 207.249 149.352 207.59 149.17C207.996 148.952 208.489 148.914 208.861 149.074Z" stroke="url(#paint3_linear_4144_28910)" stroke-width="0.3"/>
</g>
<g filter="url(#filter2_d_4144_28910)">
<path d="M147 237.513C147 237.017 147.211 236.52 147.563 236.236L154.875 229.426C155.227 229.142 155.648 229 156 229C156.492 229 156.914 229.142 157.266 229.497C157.898 230.206 157.898 231.27 157.195 231.909L153.047 235.811L177.023 235.811L172.875 231.909C172.172 231.27 172.172 230.206 172.805 229.497C173.156 229.142 173.578 229 174 229C174.422 229 174.844 229.142 175.195 229.426L182.508 236.236C182.859 236.52 183 237.017 183 237.513C183 237.939 182.859 238.435 182.508 238.719L175.195 245.53C174.492 246.168 173.438 246.168 172.805 245.459C172.172 244.749 172.172 243.685 172.875 243.047L177.023 239.216L153.047 239.216L157.195 243.047C157.828 243.685 157.898 244.749 157.266 245.459C156.633 246.168 155.578 246.168 154.875 245.53L147.563 238.719C147.211 238.435 147 237.939 147 237.513Z" fill="url(#paint4_linear_4144_28910)"/>
<path d="M147.657 236.353L147.657 236.353L147.665 236.346L154.973 229.539C155.299 229.277 155.687 229.15 156 229.15C156.458 229.15 156.838 229.28 157.156 229.599C157.738 230.254 157.729 231.221 157.094 231.798L157.094 231.798L157.093 231.799L152.944 235.701L152.668 235.961L153.047 235.961L177.023 235.96L177.402 235.96L177.126 235.701L172.978 231.799L172.978 231.799L172.976 231.798C172.341 231.221 172.332 230.254 172.914 229.599C173.234 229.278 173.615 229.15 174 229.15C174.386 229.15 174.773 229.279 175.097 229.539L182.406 236.346L182.405 236.346L182.414 236.353C182.714 236.595 182.85 237.037 182.85 237.513C182.85 237.915 182.716 238.358 182.414 238.602L182.413 238.602L182.406 238.609L175.094 245.419C174.446 246.007 173.488 245.999 172.917 245.359C172.332 244.704 172.34 243.735 172.976 243.158L172.977 243.157L177.125 239.326L177.407 239.066L177.023 239.066L153.047 239.066L152.663 239.066L152.945 239.326L157.091 243.155C157.669 243.74 157.73 244.712 157.154 245.359C156.583 245.999 155.625 246.007 154.977 245.419C154.976 245.419 154.976 245.419 154.976 245.419L147.665 238.609L147.665 238.609L147.657 238.602C147.344 238.35 147.15 237.898 147.15 237.513C147.15 237.054 147.346 236.604 147.657 236.353Z" stroke="url(#paint5_linear_4144_28910)" stroke-width="0.3"/>
</g>
<path d="M138.604 34H137.804L133.914 28.68V34H133.084V27.33H133.934L137.774 32.54V27.33H138.604V34ZM142.244 34.12C140.774 34.12 139.854 32.98 139.854 31.58C139.854 30.18 140.774 29.05 142.244 29.05C143.714 29.05 144.634 30.18 144.634 31.58C144.634 32.98 143.714 34.12 142.244 34.12ZM142.244 33.45C143.274 33.45 143.844 32.57 143.844 31.58C143.844 30.6 143.274 29.72 142.244 29.72C141.214 29.72 140.644 30.6 140.644 31.58C140.644 32.57 141.214 33.45 142.244 33.45ZM150.824 34.12C150.164 34.12 149.594 33.8 149.194 33.27V35.84H148.444V29.17H149.194V29.89C149.544 29.4 150.144 29.05 150.824 29.05C152.094 29.05 152.974 30.01 152.974 31.58C152.974 33.14 152.094 34.12 150.824 34.12ZM150.634 33.45C151.604 33.45 152.184 32.65 152.184 31.58C152.184 30.51 151.604 29.72 150.634 29.72C150.044 29.72 149.454 30.07 149.194 30.49V32.67C149.454 33.09 150.044 33.45 150.634 33.45ZM158.177 34H157.427V33.32C157.057 33.74 156.427 34.12 155.707 34.12C154.697 34.12 154.167 33.62 154.167 32.58V29.17H154.917V32.35C154.917 33.2 155.347 33.45 156.007 33.45C156.587 33.45 157.147 33.11 157.427 32.72V29.17H158.177V34ZM161.865 34.12C160.425 34.12 159.395 33.09 159.395 31.58C159.395 30.18 160.395 29.05 161.775 29.05C163.235 29.05 164.095 30.19 164.095 31.64V31.83H160.195C160.255 32.74 160.885 33.5 161.925 33.5C162.485 33.5 163.035 33.28 163.425 32.88L163.785 33.37C163.295 33.85 162.645 34.12 161.865 34.12ZM163.355 31.27C163.345 30.56 162.865 29.67 161.765 29.67C160.735 29.67 160.225 30.54 160.185 31.27H163.355ZM169.56 34H168.81V33.28C168.45 33.77 167.86 34.12 167.18 34.12C165.92 34.12 165.03 33.16 165.03 31.59C165.03 30.04 165.92 29.05 167.18 29.05C167.83 29.05 168.42 29.37 168.81 29.9V27.33H169.56V34ZM167.37 33.45C167.96 33.45 168.55 33.1 168.81 32.68V30.5C168.55 30.08 167.96 29.72 167.37 29.72C166.39 29.72 165.81 30.52 165.81 31.59C165.81 32.66 166.39 33.45 167.37 33.45ZM173.172 34.12C171.702 34.12 170.782 32.98 170.782 31.58C170.782 30.18 171.702 29.05 173.172 29.05C174.642 29.05 175.562 30.18 175.562 31.58C175.562 32.98 174.642 34.12 173.172 34.12ZM173.172 33.45C174.202 33.45 174.772 32.57 174.772 31.58C174.772 30.6 174.202 29.72 173.172 29.72C172.142 29.72 171.572 30.6 171.572 31.58C171.572 32.57 172.142 33.45 173.172 33.45ZM180.122 34H179.372V27.33H180.122V34ZM181.998 28.48C181.718 28.48 181.488 28.26 181.488 27.98C181.488 27.7 181.718 27.47 181.998 27.47C182.278 27.47 182.498 27.7 182.498 27.98C182.498 28.26 182.278 28.48 181.998 28.48ZM182.368 34H181.618V29.17H182.368V34ZM188.114 34H187.364V33.28C187.004 33.77 186.414 34.12 185.734 34.12C184.474 34.12 183.584 33.16 183.584 31.59C183.584 30.04 184.474 29.05 185.734 29.05C186.384 29.05 186.974 29.37 187.364 29.9V27.33H188.114V34ZM185.924 33.45C186.514 33.45 187.104 33.1 187.364 32.68V30.5C187.104 30.08 186.514 29.72 185.924 29.72C184.944 29.72 184.364 30.52 184.364 31.59C184.364 32.66 184.944 33.45 185.924 33.45ZM189.996 28.48C189.716 28.48 189.486 28.26 189.486 27.98C189.486 27.7 189.716 27.47 189.996 27.47C190.276 27.47 190.496 27.7 190.496 27.98C190.496 28.26 190.276 28.48 189.996 28.48ZM190.366 34H189.616V29.17H190.366V34ZM195.632 34H194.882V33.45C194.492 33.89 193.932 34.12 193.282 34.12C192.472 34.12 191.602 33.57 191.602 32.52C191.602 31.43 192.462 30.93 193.282 30.93C193.942 30.93 194.492 31.14 194.882 31.58V30.71C194.882 30.07 194.362 29.7 193.662 29.7C193.082 29.7 192.612 29.9 192.182 30.37L191.832 29.85C192.352 29.31 192.972 29.05 193.762 29.05C194.792 29.05 195.632 29.51 195.632 30.68V34ZM193.562 33.58C194.082 33.58 194.592 33.38 194.882 32.98V32.06C194.592 31.67 194.082 31.47 193.562 31.47C192.852 31.47 192.362 31.91 192.362 32.52C192.362 33.14 192.852 33.58 193.562 33.58ZM197.896 34H197.146V29.17H197.896V29.94C198.286 29.44 198.846 29.06 199.506 29.06V29.83C199.416 29.82 199.326 29.81 199.216 29.81C198.746 29.81 198.116 30.19 197.896 30.58V34ZM137.444 44.12C136.004 44.12 135.034 43.01 135.034 41.58C135.034 40.15 136.004 39.05 137.444 39.05C138.324 39.05 138.844 39.41 139.214 39.89L138.714 40.34C138.394 39.9 137.984 39.72 137.484 39.72C136.464 39.72 135.814 40.51 135.814 41.58C135.814 42.65 136.464 43.45 137.484 43.45C137.984 43.45 138.394 43.25 138.714 42.82L139.214 43.28C138.844 43.76 138.324 44.12 137.444 44.12ZM142.385 44.12C140.915 44.12 139.995 42.98 139.995 41.58C139.995 40.18 140.915 39.05 142.385 39.05C143.855 39.05 144.775 40.18 144.775 41.58C144.775 42.98 143.855 44.12 142.385 44.12ZM142.385 43.45C143.415 43.45 143.985 42.57 143.985 41.58C143.985 40.6 143.415 39.72 142.385 39.72C141.355 39.72 140.785 40.6 140.785 41.58C140.785 42.57 141.355 43.45 142.385 43.45ZM150.008 44H149.268V40.84C149.268 39.98 148.828 39.72 148.178 39.72C147.588 39.72 147.038 40.08 146.748 40.47V44H145.998V39.17H146.748V39.87C147.088 39.46 147.748 39.05 148.478 39.05C149.478 39.05 150.008 39.56 150.008 40.61V44ZM156.294 44.12C154.854 44.12 153.824 43.09 153.824 41.58C153.824 40.18 154.824 39.05 156.204 39.05C157.664 39.05 158.524 40.19 158.524 41.64V41.83H154.624C154.684 42.74 155.314 43.5 156.354 43.5C156.914 43.5 157.464 43.28 157.854 42.88L158.214 43.37C157.724 43.85 157.074 44.12 156.294 44.12ZM157.784 41.27C157.774 40.56 157.294 39.67 156.194 39.67C155.164 39.67 154.654 40.54 154.614 41.27H157.784ZM161.278 44.12C160.478 44.12 159.818 43.87 159.328 43.36L159.708 42.82C160.028 43.19 160.638 43.51 161.298 43.51C162.038 43.51 162.448 43.16 162.448 42.68C162.448 41.51 159.458 42.23 159.458 40.44C159.458 39.68 160.098 39.05 161.248 39.05C162.078 39.05 162.658 39.36 163.038 39.75L162.688 40.27C162.398 39.92 161.878 39.66 161.248 39.66C160.588 39.66 160.178 39.99 160.178 40.42C160.178 41.47 163.168 40.78 163.168 42.66C163.168 43.47 162.518 44.12 161.278 44.12ZM165.617 44.12C164.897 44.12 164.537 43.71 164.537 42.99V39.83H163.737V39.17H164.537V37.85H165.297V39.17H166.277V39.83H165.297V42.83C165.297 43.19 165.457 43.45 165.777 43.45C165.997 43.45 166.187 43.35 166.287 43.24L166.507 43.81C166.317 43.99 166.047 44.12 165.617 44.12ZM169.436 44.12C167.966 44.12 167.046 42.98 167.046 41.58C167.046 40.18 167.966 39.05 169.436 39.05C170.906 39.05 171.826 40.18 171.826 41.58C171.826 42.98 170.906 44.12 169.436 44.12ZM169.436 43.45C170.466 43.45 171.036 42.57 171.036 41.58C171.036 40.6 170.466 39.72 169.436 39.72C168.406 39.72 167.836 40.6 167.836 41.58C167.836 42.57 168.406 43.45 169.436 43.45ZM173.38 44.1C173.08 44.1 172.83 43.85 172.83 43.55C172.83 43.25 173.08 43 173.38 43C173.68 43 173.93 43.25 173.93 43.55C173.93 43.85 173.68 44.1 173.38 44.1ZM183.623 44H182.673L182.083 42.51H178.763L178.173 44H177.223L179.913 37.33H180.943L183.623 44ZM181.843 41.78L180.423 38.18L179.013 41.78H181.843ZM185.215 44H184.465V37.33H185.215V44ZM188.651 45.96C187.841 45.96 187.281 45.8 186.701 45.23L187.081 44.69C187.481 45.16 187.961 45.34 188.651 45.34C189.451 45.34 190.211 44.95 190.211 43.93V43.2C189.851 43.69 189.261 44.06 188.581 44.06C187.321 44.06 186.431 43.12 186.431 41.56C186.431 40.01 187.311 39.05 188.581 39.05C189.231 39.05 189.821 39.37 190.211 39.9V39.17H190.961V43.93C190.961 45.46 189.831 45.96 188.651 45.96ZM188.771 43.39C189.361 43.39 189.941 43.03 190.211 42.61V40.49C189.941 40.08 189.361 39.72 188.771 39.72C187.791 39.72 187.211 40.49 187.211 41.56C187.211 42.62 187.791 43.39 188.771 43.39ZM194.573 44.12C193.103 44.12 192.183 42.98 192.183 41.58C192.183 40.18 193.103 39.05 194.573 39.05C196.043 39.05 196.963 40.18 196.963 41.58C196.963 42.98 196.043 44.12 194.573 44.12ZM194.573 43.45C195.603 43.45 196.173 42.57 196.173 41.58C196.173 40.6 195.603 39.72 194.573 39.72C193.543 39.72 192.973 40.6 192.973 41.58C192.973 42.57 193.543 43.45 194.573 43.45ZM138.188 54H137.438V50.72C137.438 50.11 137.178 49.72 136.548 49.72C136.048 49.72 135.518 50.07 135.268 50.46V54H134.518V50.72C134.518 50.11 134.268 49.72 133.628 49.72C133.138 49.72 132.618 50.08 132.358 50.47V54H131.608V49.17H132.358V49.87C132.568 49.56 133.208 49.05 133.928 49.05C134.658 49.05 135.078 49.45 135.218 49.95C135.488 49.51 136.138 49.05 136.838 49.05C137.718 49.05 138.188 49.54 138.188 50.51V54ZM143.455 54H142.705V53.45C142.315 53.89 141.755 54.12 141.105 54.12C140.295 54.12 139.425 53.57 139.425 52.52C139.425 51.43 140.285 50.93 141.105 50.93C141.765 50.93 142.315 51.14 142.705 51.58V50.71C142.705 50.07 142.185 49.7 141.485 49.7C140.905 49.7 140.435 49.9 140.005 50.37L139.655 49.85C140.175 49.31 140.795 49.05 141.585 49.05C142.615 49.05 143.455 49.51 143.455 50.68V54ZM141.385 53.58C141.905 53.58 142.415 53.38 142.705 52.98V52.06C142.415 51.67 141.905 51.47 141.385 51.47C140.675 51.47 140.185 51.91 140.185 52.52C140.185 53.14 140.675 53.58 141.385 53.58ZM145.718 54H144.968V47.33H145.718V54ZM149.324 54.12C147.854 54.12 146.934 52.98 146.934 51.58C146.934 50.18 147.854 49.05 149.324 49.05C150.794 49.05 151.714 50.18 151.714 51.58C151.714 52.98 150.794 54.12 149.324 54.12ZM149.324 53.45C150.354 53.45 150.924 52.57 150.924 51.58C150.924 50.6 150.354 49.72 149.324 49.72C148.294 49.72 147.724 50.6 147.724 51.58C147.724 52.57 148.294 53.45 149.324 53.45ZM157.634 54H156.814L154.804 49.17H155.624L157.224 53.13L158.834 49.17H159.644L157.634 54ZM164.197 54H163.447V53.45C163.057 53.89 162.497 54.12 161.847 54.12C161.037 54.12 160.167 53.57 160.167 52.52C160.167 51.43 161.027 50.93 161.847 50.93C162.507 50.93 163.057 51.14 163.447 51.58V50.71C163.447 50.07 162.927 49.7 162.227 49.7C161.647 49.7 161.177 49.9 160.747 50.37L160.397 49.85C160.917 49.31 161.537 49.05 162.327 49.05C163.357 49.05 164.197 49.51 164.197 50.68V54ZM162.127 53.58C162.647 53.58 163.157 53.38 163.447 52.98V52.06C163.157 51.67 162.647 51.47 162.127 51.47C161.417 51.47 160.927 51.91 160.927 52.52C160.927 53.14 161.417 53.58 162.127 53.58ZM172.068 54H171.318V53.45C170.928 53.89 170.368 54.12 169.718 54.12C168.908 54.12 168.038 53.57 168.038 52.52C168.038 51.43 168.898 50.93 169.718 50.93C170.378 50.93 170.928 51.14 171.318 51.58V50.71C171.318 50.07 170.798 49.7 170.098 49.7C169.518 49.7 169.048 49.9 168.618 50.37L168.268 49.85C168.788 49.31 169.408 49.05 170.198 49.05C171.228 49.05 172.068 49.51 172.068 50.68V54ZM169.998 53.58C170.518 53.58 171.028 53.38 171.318 52.98V52.06C171.028 51.67 170.518 51.47 169.998 51.47C169.288 51.47 168.798 51.91 168.798 52.52C168.798 53.14 169.288 53.58 169.998 53.58ZM178.549 54.12C177.889 54.12 177.319 53.8 176.919 53.27V55.84H176.169V49.17H176.919V49.89C177.269 49.4 177.869 49.05 178.549 49.05C179.819 49.05 180.699 50.01 180.699 51.58C180.699 53.14 179.819 54.12 178.549 54.12ZM178.359 53.45C179.329 53.45 179.909 52.65 179.909 51.58C179.909 50.51 179.329 49.72 178.359 49.72C177.769 49.72 177.179 50.07 176.919 50.49V52.67C177.179 53.09 177.769 53.45 178.359 53.45ZM185.662 54H184.912V53.45C184.522 53.89 183.962 54.12 183.312 54.12C182.502 54.12 181.632 53.57 181.632 52.52C181.632 51.43 182.492 50.93 183.312 50.93C183.972 50.93 184.522 51.14 184.912 51.58V50.71C184.912 50.07 184.392 49.7 183.692 49.7C183.112 49.7 182.642 49.9 182.212 50.37L181.862 49.85C182.382 49.31 183.002 49.05 183.792 49.05C184.822 49.05 185.662 49.51 185.662 50.68V54ZM183.592 53.58C184.112 53.58 184.622 53.38 184.912 52.98V52.06C184.622 51.67 184.112 51.47 183.592 51.47C182.882 51.47 182.392 51.91 182.392 52.52C182.392 53.14 182.882 53.58 183.592 53.58ZM188.715 54.12C187.915 54.12 187.255 53.87 186.765 53.36L187.145 52.82C187.465 53.19 188.075 53.51 188.735 53.51C189.475 53.51 189.885 53.16 189.885 52.68C189.885 51.51 186.895 52.23 186.895 50.44C186.895 49.68 187.535 49.05 188.685 49.05C189.515 49.05 190.095 49.36 190.475 49.75L190.125 50.27C189.835 49.92 189.315 49.66 188.685 49.66C188.025 49.66 187.615 49.99 187.615 50.42C187.615 51.47 190.605 50.78 190.605 52.66C190.605 53.47 189.955 54.12 188.715 54.12ZM195.593 54H194.843V53.45C194.453 53.89 193.893 54.12 193.243 54.12C192.433 54.12 191.563 53.57 191.563 52.52C191.563 51.43 192.423 50.93 193.243 50.93C193.903 50.93 194.453 51.14 194.843 51.58V50.71C194.843 50.07 194.323 49.7 193.623 49.7C193.043 49.7 192.573 49.9 192.143 50.37L191.793 49.85C192.313 49.31 192.933 49.05 193.723 49.05C194.753 49.05 195.593 49.51 195.593 50.68V54ZM193.523 53.58C194.043 53.58 194.553 53.38 194.843 52.98V52.06C194.553 51.67 194.043 51.47 193.523 51.47C192.813 51.47 192.323 51.91 192.323 52.52C192.323 53.14 192.813 53.58 193.523 53.58ZM197.856 54H197.106V49.17H197.856V49.94C198.246 49.44 198.806 49.06 199.466 49.06V49.83C199.376 49.82 199.286 49.81 199.176 49.81C198.706 49.81 198.076 50.19 197.856 50.58V54ZM199.977 54.1C199.677 54.1 199.427 53.85 199.427 53.55C199.427 53.25 199.677 53 199.977 53C200.277 53 200.527 53.25 200.527 53.55C200.527 53.85 200.277 54.1 199.977 54.1Z" fill="black"/>
<path d="M258.372 175H257.542V168.33H260.222C261.562 168.33 262.312 169.25 262.312 170.34C262.312 171.43 261.552 172.35 260.222 172.35H258.372V175ZM260.122 171.61C260.912 171.61 261.452 171.09 261.452 170.34C261.452 169.59 260.912 169.07 260.122 169.07H258.372V171.61H260.122ZM264.131 175H263.381V170.17H264.131V170.94C264.521 170.44 265.081 170.06 265.741 170.06V170.83C265.651 170.82 265.561 170.81 265.451 170.81C264.981 170.81 264.351 171.19 264.131 171.58V175ZM268.872 175.12C267.432 175.12 266.402 174.09 266.402 172.58C266.402 171.18 267.402 170.05 268.782 170.05C270.242 170.05 271.102 171.19 271.102 172.64V172.83H267.202C267.262 173.74 267.892 174.5 268.932 174.5C269.492 174.5 270.042 174.28 270.432 173.88L270.792 174.37C270.302 174.85 269.652 175.12 268.872 175.12ZM270.362 172.27C270.352 171.56 269.872 170.67 268.772 170.67C267.742 170.67 267.232 171.54 267.192 172.27H270.362ZM274.426 175.12C272.956 175.12 272.036 173.98 272.036 172.58C272.036 171.18 272.956 170.05 274.426 170.05C275.896 170.05 276.816 171.18 276.816 172.58C276.816 173.98 275.896 175.12 274.426 175.12ZM274.426 174.45C275.456 174.45 276.026 173.57 276.026 172.58C276.026 171.6 275.456 170.72 274.426 170.72C273.396 170.72 272.826 171.6 272.826 172.58C272.826 173.57 273.396 174.45 274.426 174.45ZM280.169 175.12C278.729 175.12 277.759 174.01 277.759 172.58C277.759 171.15 278.729 170.05 280.169 170.05C281.049 170.05 281.569 170.41 281.939 170.89L281.439 171.34C281.119 170.9 280.709 170.72 280.209 170.72C279.189 170.72 278.539 171.51 278.539 172.58C278.539 173.65 279.189 174.45 280.209 174.45C280.709 174.45 281.119 174.25 281.439 173.82L281.939 174.28C281.569 174.76 281.049 175.12 280.169 175.12ZM287.01 175H286.26V174.32C285.89 174.74 285.26 175.12 284.54 175.12C283.53 175.12 283 174.62 283 173.58V170.17H283.75V173.35C283.75 174.2 284.18 174.45 284.84 174.45C285.42 174.45 285.98 174.11 286.26 173.72V170.17H287.01V175ZM290.888 175.12C290.228 175.12 289.658 174.8 289.258 174.27V176.84H288.508V170.17H289.258V170.89C289.608 170.4 290.208 170.05 290.888 170.05C292.158 170.05 293.038 171.01 293.038 172.58C293.038 174.14 292.158 175.12 290.888 175.12ZM290.698 174.45C291.668 174.45 292.248 173.65 292.248 172.58C292.248 171.51 291.668 170.72 290.698 170.72C290.108 170.72 289.518 171.07 289.258 171.49V173.67C289.518 174.09 290.108 174.45 290.698 174.45ZM298 175H297.25V174.45C296.86 174.89 296.3 175.12 295.65 175.12C294.84 175.12 293.97 174.57 293.97 173.52C293.97 172.43 294.83 171.93 295.65 171.93C296.31 171.93 296.86 172.14 297.25 172.58V171.71C297.25 171.07 296.73 170.7 296.03 170.7C295.45 170.7 294.98 170.9 294.55 171.37L294.2 170.85C294.72 170.31 295.34 170.05 296.13 170.05C297.16 170.05 298 170.51 298 171.68V175ZM295.93 174.58C296.45 174.58 296.96 174.38 297.25 173.98V173.06C296.96 172.67 296.45 172.47 295.93 172.47C295.22 172.47 294.73 172.91 294.73 173.52C294.73 174.14 295.22 174.58 295.93 174.58ZM303.764 175H303.014V174.28C302.654 174.77 302.064 175.12 301.384 175.12C300.124 175.12 299.234 174.16 299.234 172.59C299.234 171.04 300.124 170.05 301.384 170.05C302.034 170.05 302.624 170.37 303.014 170.9V168.33H303.764V175ZM301.574 174.45C302.164 174.45 302.754 174.1 303.014 173.68V171.5C302.754 171.08 302.164 170.72 301.574 170.72C300.594 170.72 300.014 171.52 300.014 172.59C300.014 173.66 300.594 174.45 301.574 174.45ZM307.376 175.12C305.906 175.12 304.986 173.98 304.986 172.58C304.986 171.18 305.906 170.05 307.376 170.05C308.846 170.05 309.766 171.18 309.766 172.58C309.766 173.98 308.846 175.12 307.376 175.12ZM307.376 174.45C308.406 174.45 308.976 173.57 308.976 172.58C308.976 171.6 308.406 170.72 307.376 170.72C306.346 170.72 305.776 171.6 305.776 172.58C305.776 173.57 306.346 174.45 307.376 174.45ZM254.077 185H250.147V178.33H250.977V184.26H254.077V185ZM255.908 185H255.158V178.33H255.908V185ZM259.594 185.12C258.154 185.12 257.124 184.09 257.124 182.58C257.124 181.18 258.124 180.05 259.504 180.05C260.964 180.05 261.824 181.19 261.824 182.64V182.83H257.924C257.984 183.74 258.614 184.5 259.654 184.5C260.214 184.5 260.764 184.28 261.154 183.88L261.514 184.37C261.024 184.85 260.374 185.12 259.594 185.12ZM261.084 182.27C261.074 181.56 260.594 180.67 259.494 180.67C258.464 180.67 257.954 181.54 257.914 182.27H261.084ZM267.049 185H266.309V181.84C266.309 180.98 265.869 180.72 265.219 180.72C264.629 180.72 264.079 181.08 263.789 181.47V185H263.039V180.17H263.789V180.87C264.129 180.46 264.789 180.05 265.519 180.05C266.519 180.05 267.049 180.56 267.049 181.61V185ZM270.667 185.12C269.197 185.12 268.277 183.98 268.277 182.58C268.277 181.18 269.197 180.05 270.667 180.05C272.137 180.05 273.057 181.18 273.057 182.58C273.057 183.98 272.137 185.12 270.667 185.12ZM270.667 184.45C271.697 184.45 272.267 183.57 272.267 182.58C272.267 181.6 271.697 180.72 270.667 180.72C269.637 180.72 269.067 181.6 269.067 182.58C269.067 183.57 269.637 184.45 270.667 184.45ZM281.117 185H280.367V184.28C280.007 184.77 279.417 185.12 278.737 185.12C277.477 185.12 276.587 184.16 276.587 182.59C276.587 181.04 277.477 180.05 278.737 180.05C279.387 180.05 279.977 180.37 280.367 180.9V178.33H281.117V185ZM278.927 184.45C279.517 184.45 280.107 184.1 280.367 183.68V181.5C280.107 181.08 279.517 180.72 278.927 180.72C277.947 180.72 277.367 181.52 277.367 182.59C277.367 183.66 277.947 184.45 278.927 184.45ZM284.809 185.12C283.369 185.12 282.339 184.09 282.339 182.58C282.339 181.18 283.339 180.05 284.719 180.05C286.179 180.05 287.039 181.19 287.039 182.64V182.83H283.139C283.199 183.74 283.829 184.5 284.869 184.5C285.429 184.5 285.979 184.28 286.369 183.88L286.729 184.37C286.239 184.85 285.589 185.12 284.809 185.12ZM286.299 182.27C286.289 181.56 285.809 180.67 284.709 180.67C283.679 180.67 283.169 181.54 283.129 182.27H286.299ZM297.422 185H296.672V181.72C296.672 181.11 296.412 180.72 295.782 180.72C295.282 180.72 294.752 181.07 294.502 181.46V185H293.752V181.72C293.752 181.11 293.502 180.72 292.862 180.72C292.372 180.72 291.852 181.08 291.592 181.47V185H290.842V180.17H291.592V180.87C291.802 180.56 292.442 180.05 293.162 180.05C293.892 180.05 294.312 180.45 294.452 180.95C294.722 180.51 295.372 180.05 296.072 180.05C296.952 180.05 297.422 180.54 297.422 181.51V185ZM299.298 179.48C299.018 179.48 298.788 179.26 298.788 178.98C298.788 178.7 299.018 178.47 299.298 178.47C299.578 178.47 299.798 178.7 299.798 178.98C299.798 179.26 299.578 179.48 299.298 179.48ZM299.668 185H298.918V180.17H299.668V185ZM303.354 185.12C301.914 185.12 300.884 184.09 300.884 182.58C300.884 181.18 301.884 180.05 303.264 180.05C304.724 180.05 305.584 181.19 305.584 182.64V182.83H301.684C301.744 183.74 302.374 184.5 303.414 184.5C303.974 184.5 304.524 184.28 304.914 183.88L305.274 184.37C304.784 184.85 304.134 185.12 303.354 185.12ZM304.844 182.27C304.834 181.56 304.354 180.67 303.254 180.67C302.224 180.67 301.714 181.54 301.674 182.27H304.844ZM311.049 185H310.299V184.28C309.939 184.77 309.349 185.12 308.669 185.12C307.409 185.12 306.519 184.16 306.519 182.59C306.519 181.04 307.409 180.05 308.669 180.05C309.319 180.05 309.909 180.37 310.299 180.9V178.33H311.049V185ZM308.859 184.45C309.449 184.45 310.039 184.1 310.299 183.68V181.5C310.039 181.08 309.449 180.72 308.859 180.72C307.879 180.72 307.299 181.52 307.299 182.59C307.299 183.66 307.879 184.45 308.859 184.45ZM314.661 185.12C313.191 185.12 312.271 183.98 312.271 182.58C312.271 181.18 313.191 180.05 314.661 180.05C316.131 180.05 317.051 181.18 317.051 182.58C317.051 183.98 316.131 185.12 314.661 185.12ZM314.661 184.45C315.691 184.45 316.261 183.57 316.261 182.58C316.261 181.6 315.691 180.72 314.661 180.72C313.631 180.72 313.061 181.6 313.061 182.58C313.061 183.57 313.631 184.45 314.661 184.45Z" fill="black"/>
<path d="M28.2418 165H23.8718V158.33H28.2418V159.07H24.7018V161.22H28.1718V161.96H24.7018V164.26H28.2418V165ZM31.6452 165H30.8252L28.8152 160.17H29.6352L31.2352 164.13L32.8452 160.17H33.6552L31.6452 165ZM34.8175 159.48C34.5375 159.48 34.3075 159.26 34.3075 158.98C34.3075 158.7 34.5375 158.47 34.8175 158.47C35.0975 158.47 35.3175 158.7 35.3175 158.98C35.3175 159.26 35.0975 159.48 34.8175 159.48ZM35.1875 165H34.4375V160.17H35.1875V165ZM37.9136 165.12C37.1936 165.12 36.8336 164.71 36.8336 163.99V160.83H36.0336V160.17H36.8336V158.85H37.5936V160.17H38.5736V160.83H37.5936V163.83C37.5936 164.19 37.7536 164.45 38.0736 164.45C38.2936 164.45 38.4836 164.35 38.5836 164.24L38.8036 164.81C38.6136 164.99 38.3436 165.12 37.9136 165.12ZM43.393 165H42.643V164.45C42.253 164.89 41.693 165.12 41.043 165.12C40.233 165.12 39.363 164.57 39.363 163.52C39.363 162.43 40.223 161.93 41.043 161.93C41.703 161.93 42.253 162.14 42.643 162.58V161.71C42.643 161.07 42.123 160.7 41.423 160.7C40.843 160.7 40.373 160.9 39.943 161.37L39.593 160.85C40.113 160.31 40.733 160.05 41.523 160.05C42.553 160.05 43.393 160.51 43.393 161.68V165ZM41.323 164.58C41.843 164.58 42.353 164.38 42.643 163.98V163.06C42.353 162.67 41.843 162.47 41.323 162.47C40.613 162.47 40.123 162.91 40.123 163.52C40.123 164.14 40.613 164.58 41.323 164.58ZM47.0363 165.12C45.5963 165.12 44.6263 164.01 44.6263 162.58C44.6263 161.15 45.5963 160.05 47.0363 160.05C47.9163 160.05 48.4363 160.41 48.8063 160.89L48.3063 161.34C47.9863 160.9 47.5763 160.72 47.0763 160.72C46.0563 160.72 45.4062 161.51 45.4062 162.58C45.4062 163.65 46.0563 164.45 47.0763 164.45C47.5763 164.45 47.9863 164.25 48.3063 163.82L48.8063 164.28C48.4363 164.76 47.9163 165.12 47.0363 165.12ZM50.2472 159.48C49.9672 159.48 49.7372 159.26 49.7372 158.98C49.7372 158.7 49.9672 158.47 50.2472 158.47C50.5272 158.47 50.7472 158.7 50.7472 158.98C50.7472 159.26 50.5272 159.48 50.2472 159.48ZM50.6172 165H49.8672V160.17H50.6172V165ZM54.2233 165.12C52.7533 165.12 51.8333 163.98 51.8333 162.58C51.8333 161.18 52.7533 160.05 54.2233 160.05C55.6933 160.05 56.6133 161.18 56.6133 162.58C56.6133 163.98 55.6933 165.12 54.2233 165.12ZM54.2233 164.45C55.2533 164.45 55.8233 163.57 55.8233 162.58C55.8233 161.6 55.2533 160.72 54.2233 160.72C53.1933 160.72 52.6233 161.6 52.6233 162.58C52.6233 163.57 53.1933 164.45 54.2233 164.45ZM55.8233 158L54.1333 159.44H53.5633L55.0433 158H55.8233ZM61.8459 165H61.1059V161.84C61.1059 160.98 60.6659 160.72 60.0159 160.72C59.4259 160.72 58.8759 161.08 58.5859 161.47V165H57.8359V160.17H58.5859V160.87C58.9259 160.46 59.5859 160.05 60.3159 160.05C61.3159 160.05 61.8459 160.56 61.8459 161.61V165ZM64.3635 164.76C64.3635 165.37 64.0135 165.94 63.5535 166.27L63.1735 165.96C63.4935 165.75 63.7835 165.36 63.8235 165.03C63.8035 165.04 63.7335 165.05 63.6835 165.05C63.4135 165.05 63.2035 164.83 63.2035 164.54C63.2035 164.25 63.4335 164 63.7335 164C64.0735 164 64.3635 164.28 64.3635 164.76ZM18.5125 175H17.5625L16.9725 173.51H13.6525L13.0625 175H12.1125L14.8025 168.33H15.8325L18.5125 175ZM16.7325 172.78L15.3125 169.18L13.9025 172.78H16.7325ZM23.2473 175H22.4973V174.32C22.1273 174.74 21.4973 175.12 20.7773 175.12C19.7673 175.12 19.2373 174.62 19.2373 173.58V170.17H19.9873V173.35C19.9873 174.2 20.4173 174.45 21.0773 174.45C21.6573 174.45 22.2173 174.11 22.4973 173.72V170.17H23.2473V175ZM31.3251 175H30.5751V171.72C30.5751 171.11 30.3151 170.72 29.6851 170.72C29.1851 170.72 28.6551 171.07 28.4051 171.46V175H27.6551V171.72C27.6551 171.11 27.4051 170.72 26.7651 170.72C26.2751 170.72 25.7551 171.08 25.4951 171.47V175H24.7451V170.17H25.4951V170.87C25.7051 170.56 26.3451 170.05 27.0651 170.05C27.7951 170.05 28.2151 170.45 28.3551 170.95C28.6251 170.51 29.2751 170.05 29.9751 170.05C30.8551 170.05 31.3251 170.54 31.3251 171.51V175ZM35.0113 175.12C33.5713 175.12 32.5413 174.09 32.5413 172.58C32.5413 171.18 33.5413 170.05 34.9213 170.05C36.3813 170.05 37.2413 171.19 37.2413 172.64V172.83H33.3413C33.4013 173.74 34.0313 174.5 35.0713 174.5C35.6313 174.5 36.1813 174.28 36.5713 173.88L36.9313 174.37C36.4413 174.85 35.7913 175.12 35.0113 175.12ZM36.5013 172.27C36.4913 171.56 36.0113 170.67 34.9113 170.67C33.8813 170.67 33.3713 171.54 33.3313 172.27H36.5013ZM42.4661 175H41.7261V171.84C41.7261 170.98 41.2861 170.72 40.6361 170.72C40.0461 170.72 39.4961 171.08 39.2061 171.47V175H38.4561V170.17H39.2061V170.87C39.5461 170.46 40.2061 170.05 40.9361 170.05C41.9361 170.05 42.4661 170.56 42.4661 171.61V175ZM45.2036 175.12C44.4836 175.12 44.1236 174.71 44.1236 173.99V170.83H43.3236V170.17H44.1236V168.85H44.8836V170.17H45.8636V170.83H44.8836V173.83C44.8836 174.19 45.0436 174.45 45.3636 174.45C45.5836 174.45 45.7736 174.35 45.8736 174.24L46.0936 174.81C45.9036 174.99 45.6336 175.12 45.2036 175.12ZM49.0231 175.12C47.5531 175.12 46.6331 173.98 46.6331 172.58C46.6331 171.18 47.5531 170.05 49.0231 170.05C50.4931 170.05 51.4131 171.18 51.4131 172.58C51.4131 173.98 50.4931 175.12 49.0231 175.12ZM49.0231 174.45C50.0531 174.45 50.6231 173.57 50.6231 172.58C50.6231 171.6 50.0531 170.72 49.0231 170.72C47.9931 170.72 47.4231 171.6 47.4231 172.58C47.4231 173.57 47.9931 174.45 49.0231 174.45ZM59.4736 175H58.7236V174.28C58.3636 174.77 57.7736 175.12 57.0936 175.12C55.8336 175.12 54.9436 174.16 54.9436 172.59C54.9436 171.04 55.8336 170.05 57.0936 170.05C57.7436 170.05 58.3336 170.37 58.7236 170.9V168.33H59.4736V175ZM57.2836 174.45C57.8736 174.45 58.4636 174.1 58.7236 173.68V171.5C58.4636 171.08 57.8736 170.72 57.2836 170.72C56.3036 170.72 55.7236 171.52 55.7236 172.59C55.7236 173.66 56.3036 174.45 57.2836 174.45ZM63.1656 175.12C61.7256 175.12 60.6956 174.09 60.6956 172.58C60.6956 171.18 61.6956 170.05 63.0756 170.05C64.5356 170.05 65.3956 171.19 65.3956 172.64V172.83H61.4956C61.5556 173.74 62.1856 174.5 63.2256 174.5C63.7856 174.5 64.3356 174.28 64.7256 173.88L65.0856 174.37C64.5956 174.85 63.9456 175.12 63.1656 175.12ZM64.6556 172.27C64.6456 171.56 64.1656 170.67 63.0656 170.67C62.0356 170.67 61.5256 171.54 61.4856 172.27H64.6556ZM69.9482 175H69.1982V168.33H69.9482V175ZM75.2143 175H74.4643V174.45C74.0743 174.89 73.5143 175.12 72.8643 175.12C72.0543 175.12 71.1843 174.57 71.1843 173.52C71.1843 172.43 72.0443 171.93 72.8643 171.93C73.5243 171.93 74.0743 172.14 74.4643 172.58V171.71C74.4643 171.07 73.9443 170.7 73.2443 170.7C72.6643 170.7 72.1943 170.9 71.7643 171.37L71.4143 170.85C71.9343 170.31 72.5543 170.05 73.3443 170.05C74.3743 170.05 75.2143 170.51 75.2143 171.68V175ZM73.1443 174.58C73.6643 174.58 74.1743 174.38 74.4643 173.98V173.06C74.1743 172.67 73.6643 172.47 73.1443 172.47C72.4343 172.47 71.9443 172.91 71.9443 173.52C71.9443 174.14 72.4343 174.58 73.1443 174.58ZM22.7657 185H22.0157V180.83H21.2157V180.17H22.0157V179.8C22.0157 178.81 22.5657 178.23 23.4157 178.23C23.8057 178.23 24.1357 178.32 24.4357 178.6L24.1257 179.08C23.9657 178.94 23.7757 178.85 23.5357 178.85C23.0357 178.85 22.7657 179.18 22.7657 179.8V180.17H23.7457V180.83H22.7657V185ZM25.3975 185H24.6475V180.17H25.3975V180.94C25.7875 180.44 26.3475 180.06 27.0075 180.06V180.83C26.9175 180.82 26.8275 180.81 26.7175 180.81C26.2475 180.81 25.6175 181.19 25.3975 181.58V185ZM30.1382 185.12C28.6982 185.12 27.6682 184.09 27.6682 182.58C27.6682 181.18 28.6682 180.05 30.0482 180.05C31.5082 180.05 32.3682 181.19 32.3682 182.64V182.83H28.4682C28.5282 183.74 29.1582 184.5 30.1982 184.5C30.7582 184.5 31.3082 184.28 31.6982 183.88L32.0582 184.37C31.5682 184.85 30.9182 185.12 30.1382 185.12ZM31.6282 182.27C31.6182 181.56 31.1382 180.67 30.0382 180.67C29.0082 180.67 28.4982 181.54 28.4582 182.27H31.6282ZM35.713 185.12C34.273 185.12 33.303 184.01 33.303 182.58C33.303 181.15 34.273 180.05 35.713 180.05C36.593 180.05 37.113 180.41 37.483 180.89L36.983 181.34C36.663 180.9 36.253 180.72 35.753 180.72C34.733 180.72 34.083 181.51 34.083 182.58C34.083 183.65 34.733 184.45 35.753 184.45C36.253 184.45 36.663 184.25 36.983 183.82L37.483 184.28C37.113 184.76 36.593 185.12 35.713 185.12ZM42.5539 185H41.8039V184.32C41.4339 184.74 40.8039 185.12 40.0839 185.12C39.0739 185.12 38.5439 184.62 38.5439 183.58V180.17H39.2939V183.35C39.2939 184.2 39.7239 184.45 40.3839 184.45C40.9639 184.45 41.5239 184.11 41.8039 183.72V180.17H42.5539V185ZM46.2418 185.12C44.8018 185.12 43.7718 184.09 43.7718 182.58C43.7718 181.18 44.7718 180.05 46.1518 180.05C47.6118 180.05 48.4718 181.19 48.4718 182.64V182.83H44.5718C44.6318 183.74 45.2618 184.5 46.3018 184.5C46.8618 184.5 47.4118 184.28 47.8018 183.88L48.1618 184.37C47.6718 184.85 47.0218 185.12 46.2418 185.12ZM47.7318 182.27C47.7218 181.56 47.2418 180.67 46.1418 180.67C45.1118 180.67 44.6018 181.54 44.5618 182.27H47.7318ZM53.6965 185H52.9565V181.84C52.9565 180.98 52.5165 180.72 51.8665 180.72C51.2765 180.72 50.7265 181.08 50.4365 181.47V185H49.6865V180.17H50.4365V180.87C50.7765 180.46 51.4365 180.05 52.1665 180.05C53.1665 180.05 53.6965 180.56 53.6965 181.61V185ZM57.3341 185.12C55.8941 185.12 54.9241 184.01 54.9241 182.58C54.9241 181.15 55.8941 180.05 57.3341 180.05C58.2141 180.05 58.7341 180.41 59.1041 180.89L58.6041 181.34C58.2841 180.9 57.8741 180.72 57.3741 180.72C56.3541 180.72 55.7041 181.51 55.7041 182.58C55.7041 183.65 56.3541 184.45 57.3741 184.45C57.8741 184.45 58.2841 184.25 58.6041 183.82L59.1041 184.28C58.7341 184.76 58.2141 185.12 57.3341 185.12ZM60.545 179.48C60.265 179.48 60.035 179.26 60.035 178.98C60.035 178.7 60.265 178.47 60.545 178.47C60.825 178.47 61.045 178.7 61.045 178.98C61.045 179.26 60.825 179.48 60.545 179.48ZM60.915 185H60.165V180.17H60.915V185ZM66.1811 185H65.4311V184.45C65.0411 184.89 64.4811 185.12 63.8311 185.12C63.0211 185.12 62.1511 184.57 62.1511 183.52C62.1511 182.43 63.0111 181.93 63.8311 181.93C64.4911 181.93 65.0411 182.14 65.4311 182.58V181.71C65.4311 181.07 64.9111 180.7 64.2111 180.7C63.6311 180.7 63.1611 180.9 62.7311 181.37L62.3811 180.85C62.9011 180.31 63.5211 180.05 64.3111 180.05C65.3411 180.05 66.1811 180.51 66.1811 181.68V185ZM64.1111 184.58C64.6311 184.58 65.1411 184.38 65.4311 183.98V183.06C65.1411 182.67 64.6311 182.47 64.1111 182.47C63.4011 182.47 62.9111 182.91 62.9111 183.52C62.9111 184.14 63.4011 184.58 64.1111 184.58ZM27.1925 195.12C25.7525 195.12 24.7825 194.01 24.7825 192.58C24.7825 191.15 25.7525 190.05 27.1925 190.05C28.0725 190.05 28.5925 190.41 28.9625 190.89L28.4625 191.34C28.1425 190.9 27.7325 190.72 27.2325 190.72C26.2125 190.72 25.5625 191.51 25.5625 192.58C25.5625 193.65 26.2125 194.45 27.2325 194.45C27.7325 194.45 28.1425 194.25 28.4625 193.82L28.9625 194.28C28.5925 194.76 28.0725 195.12 27.1925 195.12ZM33.7934 195H33.0434V194.45C32.6534 194.89 32.0934 195.12 31.4434 195.12C30.6334 195.12 29.7634 194.57 29.7634 193.52C29.7634 192.43 30.6234 191.93 31.4434 191.93C32.1034 191.93 32.6534 192.14 33.0434 192.58V191.71C33.0434 191.07 32.5234 190.7 31.8234 190.7C31.2434 190.7 30.7734 190.9 30.3434 191.37L29.9934 190.85C30.5134 190.31 31.1334 190.05 31.9234 190.05C32.9534 190.05 33.7934 190.51 33.7934 191.68V195ZM31.7234 194.58C32.2434 194.58 32.7534 194.38 33.0434 193.98V193.06C32.7534 192.67 32.2434 192.47 31.7234 192.47C31.0134 192.47 30.5234 192.91 30.5234 193.52C30.5234 194.14 31.0134 194.58 31.7234 194.58ZM36.0566 195H35.3066V190.17H36.0566V190.94C36.4466 190.44 37.0066 190.06 37.6666 190.06V190.83C37.5766 190.82 37.4866 190.81 37.3766 190.81C36.9066 190.81 36.2766 191.19 36.0566 191.58V195ZM42.8574 195H42.1074V194.28C41.7474 194.77 41.1574 195.12 40.4774 195.12C39.2174 195.12 38.3274 194.16 38.3274 192.59C38.3274 191.04 39.2174 190.05 40.4774 190.05C41.1274 190.05 41.7174 190.37 42.1074 190.9V188.33H42.8574V195ZM40.6674 194.45C41.2574 194.45 41.8474 194.1 42.1074 193.68V191.5C41.8474 191.08 41.2574 190.72 40.6674 190.72C39.6874 190.72 39.1074 191.52 39.1074 192.59C39.1074 193.66 39.6874 194.45 40.6674 194.45ZM46.3394 188L44.6494 189.44H44.0794L45.5594 188H46.3394ZM45.1094 195H44.3594V190.17H45.1094V195ZM50.3755 195H49.6255V194.45C49.2355 194.89 48.6755 195.12 48.0255 195.12C47.2155 195.12 46.3455 194.57 46.3455 193.52C46.3455 192.43 47.2055 191.93 48.0255 191.93C48.6855 191.93 49.2355 192.14 49.6255 192.58V191.71C49.6255 191.07 49.1055 190.7 48.4055 190.7C47.8255 190.7 47.3555 190.9 46.9255 191.37L46.5755 190.85C47.0955 190.31 47.7155 190.05 48.5055 190.05C49.5355 190.05 50.3755 190.51 50.3755 191.68V195ZM48.3055 194.58C48.8255 194.58 49.3355 194.38 49.6255 193.98V193.06C49.3355 192.67 48.8255 192.47 48.3055 192.47C47.5955 192.47 47.1055 192.91 47.1055 193.52C47.1055 194.14 47.5955 194.58 48.3055 194.58ZM54.0187 195.12C52.5787 195.12 51.6087 194.01 51.6087 192.58C51.6087 191.15 52.5787 190.05 54.0187 190.05C54.8987 190.05 55.4187 190.41 55.7887 190.89L55.2887 191.34C54.9687 190.9 54.5587 190.72 54.0587 190.72C53.0387 190.72 52.3887 191.51 52.3887 192.58C52.3887 193.65 53.0387 194.45 54.0587 194.45C54.5587 194.45 54.9687 194.25 55.2887 193.82L55.7887 194.28C55.4187 194.76 54.8987 195.12 54.0187 195.12ZM60.6196 195H59.8696V194.45C59.4796 194.89 58.9196 195.12 58.2696 195.12C57.4596 195.12 56.5896 194.57 56.5896 193.52C56.5896 192.43 57.4496 191.93 58.2696 191.93C58.9296 191.93 59.4796 192.14 59.8696 192.58V191.71C59.8696 191.07 59.3496 190.7 58.6496 190.7C58.0696 190.7 57.5996 190.9 57.1696 191.37L56.8196 190.85C57.3396 190.31 57.9596 190.05 58.7496 190.05C59.7796 190.05 60.6196 190.51 60.6196 191.68V195ZM58.5496 194.58C59.0696 194.58 59.5796 194.38 59.8696 193.98V193.06C59.5796 192.67 59.0696 192.47 58.5496 192.47C57.8396 192.47 57.3496 192.91 57.3496 193.52C57.3496 194.14 57.8396 194.58 58.5496 194.58ZM63.1428 194.76C63.1428 195.37 62.7928 195.94 62.3328 196.27L61.9528 195.96C62.2728 195.75 62.5628 195.36 62.6028 195.03C62.5828 195.04 62.5128 195.05 62.4628 195.05C62.1928 195.05 61.9828 194.83 61.9828 194.54C61.9828 194.25 62.2128 194 62.5128 194C62.8528 194 63.1428 194.28 63.1428 194.76ZM8.14059 205.12C7.34059 205.12 6.68059 204.87 6.19059 204.36L6.57059 203.82C6.89059 204.19 7.50059 204.51 8.16059 204.51C8.90059 204.51 9.31059 204.16 9.31059 203.68C9.31059 202.51 6.32059 203.23 6.32059 201.44C6.32059 200.68 6.96059 200.05 8.11059 200.05C8.94059 200.05 9.52059 200.36 9.90059 200.75L9.55059 201.27C9.26059 200.92 8.74059 200.66 8.11059 200.66C7.45059 200.66 7.04059 200.99 7.04059 201.42C7.04059 202.47 10.0306 201.78 10.0306 203.66C10.0306 204.47 9.38059 205.12 8.14059 205.12ZM15.259 205H14.509V204.32C14.139 204.74 13.509 205.12 12.789 205.12C11.779 205.12 11.249 204.62 11.249 203.58V200.17H11.999V203.35C11.999 204.2 12.429 204.45 13.089 204.45C13.669 204.45 14.229 204.11 14.509 203.72V200.17H15.259V205ZM21.0068 205H20.2568V204.28C19.8968 204.77 19.3068 205.12 18.6268 205.12C17.3668 205.12 16.4768 204.16 16.4768 202.59C16.4768 201.04 17.3668 200.05 18.6268 200.05C19.2768 200.05 19.8668 200.37 20.2568 200.9V198.33H21.0068V205ZM18.8168 204.45C19.4068 204.45 19.9968 204.1 20.2568 203.68V201.5C19.9968 201.08 19.4068 200.72 18.8168 200.72C17.8368 200.72 17.2568 201.52 17.2568 202.59C17.2568 203.66 17.8368 204.45 18.8168 204.45ZM24.6188 205.12C23.1488 205.12 22.2288 203.98 22.2288 202.58C22.2288 201.18 23.1488 200.05 24.6188 200.05C26.0888 200.05 27.0088 201.18 27.0088 202.58C27.0088 203.98 26.0888 205.12 24.6188 205.12ZM24.6188 204.45C25.6488 204.45 26.2188 203.57 26.2188 202.58C26.2188 201.6 25.6488 200.72 24.6188 200.72C23.5888 200.72 23.0188 201.6 23.0188 202.58C23.0188 203.57 23.5888 204.45 24.6188 204.45ZM28.9814 205H28.2314V200.17H28.9814V200.94C29.3714 200.44 29.9314 200.06 30.5914 200.06V200.83C30.5014 200.82 30.4114 200.81 30.3014 200.81C29.8314 200.81 29.2014 201.19 28.9814 201.58V205ZM35.3022 205H34.5522V204.45C34.1622 204.89 33.6022 205.12 32.9522 205.12C32.1422 205.12 31.2722 204.57 31.2722 203.52C31.2722 202.43 32.1322 201.93 32.9522 201.93C33.6122 201.93 34.1622 202.14 34.5522 202.58V201.71C34.5522 201.07 34.0322 200.7 33.3322 200.7C32.7522 200.7 32.2822 200.9 31.8522 201.37L31.5022 200.85C32.0222 200.31 32.6422 200.05 33.4322 200.05C34.4622 200.05 35.3022 200.51 35.3022 201.68V205ZM33.2322 204.58C33.7522 204.58 34.2622 204.38 34.5522 203.98V203.06C34.2622 202.67 33.7522 202.47 33.2322 202.47C32.5222 202.47 32.0322 202.91 32.0322 203.52C32.0322 204.14 32.5222 204.58 33.2322 204.58ZM38.9454 205.12C37.5054 205.12 36.5354 204.01 36.5354 202.58C36.5354 201.15 37.5054 200.05 38.9454 200.05C39.8254 200.05 40.3454 200.41 40.7154 200.89L40.2154 201.34C39.8954 200.9 39.4854 200.72 38.9854 200.72C37.9654 200.72 37.3154 201.51 37.3154 202.58C37.3154 203.65 37.9654 204.45 38.9854 204.45C39.4854 204.45 39.8954 204.25 40.2154 203.82L40.7154 204.28C40.3454 204.76 39.8254 205.12 38.9454 205.12ZM42.1564 199.48C41.8764 199.48 41.6464 199.26 41.6464 198.98C41.6464 198.7 41.8764 198.47 42.1564 198.47C42.4364 198.47 42.6564 198.7 42.6564 198.98C42.6564 199.26 42.4364 199.48 42.1564 199.48ZM42.5264 205H41.7764V200.17H42.5264V205ZM46.1325 205.12C44.6625 205.12 43.7425 203.98 43.7425 202.58C43.7425 201.18 44.6625 200.05 46.1325 200.05C47.6025 200.05 48.5225 201.18 48.5225 202.58C48.5225 203.98 47.6025 205.12 46.1325 205.12ZM46.1325 204.45C47.1625 204.45 47.7325 203.57 47.7325 202.58C47.7325 201.6 47.1625 200.72 46.1325 200.72C45.1025 200.72 44.5325 201.6 44.5325 202.58C44.5325 203.57 45.1025 204.45 46.1325 204.45ZM47.7325 198L46.0425 199.44H45.4725L46.9525 198H47.7325ZM53.7551 205H53.0151V201.84C53.0151 200.98 52.5751 200.72 51.9251 200.72C51.3351 200.72 50.7851 201.08 50.4951 201.47V205H49.7451V200.17H50.4951V200.87C50.8351 200.46 51.4951 200.05 52.2251 200.05C53.2251 200.05 53.7551 200.56 53.7551 201.61V205ZM56.2727 204.76C56.2727 205.37 55.9227 205.94 55.4627 206.27L55.0827 205.96C55.4027 205.75 55.6927 205.36 55.7327 205.03C55.7127 205.04 55.6427 205.05 55.5927 205.05C55.3227 205.05 55.1127 204.83 55.1127 204.54C55.1127 204.25 55.3427 204 55.6427 204C55.9827 204 56.2727 204.28 56.2727 204.76ZM64.4053 205H63.6553V204.28C63.2953 204.77 62.7053 205.12 62.0253 205.12C60.7653 205.12 59.8753 204.16 59.8753 202.59C59.8753 201.04 60.7653 200.05 62.0253 200.05C62.6753 200.05 63.2653 200.37 63.6553 200.9V198.33H64.4053V205ZM62.2153 204.45C62.8053 204.45 63.3953 204.1 63.6553 203.68V201.5C63.3953 201.08 62.8053 200.72 62.2153 200.72C61.2353 200.72 60.6553 201.52 60.6553 202.59C60.6553 203.66 61.2353 204.45 62.2153 204.45ZM68.0172 205.12C66.5472 205.12 65.6272 203.98 65.6272 202.58C65.6272 201.18 66.5472 200.05 68.0172 200.05C69.4872 200.05 70.4072 201.18 70.4072 202.58C70.4072 203.98 69.4872 205.12 68.0172 205.12ZM68.0172 204.45C69.0472 204.45 69.6172 203.57 69.6172 202.58C69.6172 201.6 69.0472 200.72 68.0172 200.72C66.9872 200.72 66.4172 201.6 66.4172 202.58C66.4172 203.57 66.9872 204.45 68.0172 204.45ZM72.3799 205H71.6299V198.33H72.3799V205ZM75.986 205.12C74.516 205.12 73.596 203.98 73.596 202.58C73.596 201.18 74.516 200.05 75.986 200.05C77.456 200.05 78.376 201.18 78.376 202.58C78.376 203.98 77.456 205.12 75.986 205.12ZM75.986 204.45C77.016 204.45 77.586 203.57 77.586 202.58C77.586 201.6 77.016 200.72 75.986 200.72C74.956 200.72 74.386 201.6 74.386 202.58C74.386 203.57 74.956 204.45 75.986 204.45ZM80.3486 205H79.5986V200.17H80.3486V200.94C80.7386 200.44 81.2986 200.06 81.9586 200.06V200.83C81.8686 200.82 81.7786 200.81 81.6686 200.81C81.1986 200.81 80.5686 201.19 80.3486 201.58V205ZM19 215H18.25V214.28C17.89 214.77 17.3 215.12 16.62 215.12C15.36 215.12 14.47 214.16 14.47 212.59C14.47 211.04 15.36 210.05 16.62 210.05C17.27 210.05 17.86 210.37 18.25 210.9V208.33H19V215ZM16.81 214.45C17.4 214.45 17.99 214.1 18.25 213.68V211.5C17.99 211.08 17.4 210.72 16.81 210.72C15.83 210.72 15.25 211.52 15.25 212.59C15.25 213.66 15.83 214.45 16.81 214.45ZM22.692 215.12C21.252 215.12 20.222 214.09 20.222 212.58C20.222 211.18 21.222 210.05 22.602 210.05C24.062 210.05 24.922 211.19 24.922 212.64V212.83H21.022C21.082 213.74 21.712 214.5 22.752 214.5C23.312 214.5 23.862 214.28 24.252 213.88L24.612 214.37C24.122 214.85 23.472 215.12 22.692 215.12ZM24.182 212.27C24.172 211.56 23.692 210.67 22.592 210.67C21.562 210.67 21.052 211.54 21.012 212.27H24.182ZM30.9146 215.12C29.4746 215.12 28.4446 214.09 28.4446 212.58C28.4446 211.18 29.4446 210.05 30.8246 210.05C32.2846 210.05 33.1446 211.19 33.1446 212.64V212.83H29.2446C29.3046 213.74 29.9346 214.5 30.9746 214.5C31.5346 214.5 32.0846 214.28 32.4746 213.88L32.8346 214.37C32.3446 214.85 31.6946 215.12 30.9146 215.12ZM32.4046 212.27C32.3946 211.56 31.9146 210.67 30.8146 210.67C29.7846 210.67 29.2746 211.54 29.2346 212.27H32.4046ZM35.8994 215.12C35.0994 215.12 34.4394 214.87 33.9494 214.36L34.3294 213.82C34.6494 214.19 35.2594 214.51 35.9194 214.51C36.6594 214.51 37.0694 214.16 37.0694 213.68C37.0694 212.51 34.0794 213.23 34.0794 211.44C34.0794 210.68 34.7194 210.05 35.8694 210.05C36.6994 210.05 37.2794 210.36 37.6594 210.75L37.3094 211.27C37.0194 210.92 36.4994 210.66 35.8694 210.66C35.2094 210.66 34.7994 210.99 34.7994 211.42C34.7994 212.47 37.7894 211.78 37.7894 213.66C37.7894 214.47 37.1394 215.12 35.8994 215.12ZM40.2378 215.12C39.5178 215.12 39.1578 214.71 39.1578 213.99V210.83H38.3578V210.17H39.1578V208.85H39.9178V210.17H40.8978V210.83H39.9178V213.83C39.9178 214.19 40.0778 214.45 40.3978 214.45C40.6178 214.45 40.8078 214.35 40.9078 214.24L41.1278 214.81C40.9378 214.99 40.6678 215.12 40.2378 215.12ZM44.0573 215.12C42.5873 215.12 41.6673 213.98 41.6673 212.58C41.6673 211.18 42.5873 210.05 44.0573 210.05C45.5273 210.05 46.4473 211.18 46.4473 212.58C46.4473 213.98 45.5273 215.12 44.0573 215.12ZM44.0573 214.45C45.0873 214.45 45.6573 213.57 45.6573 212.58C45.6573 211.6 45.0873 210.72 44.0573 210.72C43.0273 210.72 42.4573 211.6 42.4573 212.58C42.4573 213.57 43.0273 214.45 44.0573 214.45ZM45.6573 208L43.9673 209.44H43.3973L44.8773 208H45.6573ZM54.2499 215H53.4999V211.72C53.4999 211.11 53.2399 210.72 52.6099 210.72C52.1099 210.72 51.5799 211.07 51.3299 211.46V215H50.5799V211.72C50.5799 211.11 50.3299 210.72 49.6899 210.72C49.1999 210.72 48.6799 211.08 48.4199 211.47V215H47.6699V210.17H48.4199V210.87C48.6299 210.56 49.2699 210.05 49.9899 210.05C50.7199 210.05 51.1399 210.45 51.2799 210.95C51.5499 210.51 52.1999 210.05 52.8999 210.05C53.7799 210.05 54.2499 210.54 54.2499 211.51V215ZM59.5161 215H58.7661V214.45C58.3761 214.89 57.8161 215.12 57.1661 215.12C56.3561 215.12 55.4861 214.57 55.4861 213.52C55.4861 212.43 56.3461 211.93 57.1661 211.93C57.8261 211.93 58.3761 212.14 58.7661 212.58V211.71C58.7661 211.07 58.2461 210.7 57.5461 210.7C56.9661 210.7 56.4961 210.9 56.0661 211.37L55.7161 210.85C56.2361 210.31 56.8561 210.05 57.6461 210.05C58.6761 210.05 59.5161 210.51 59.5161 211.68V215ZM57.4461 214.58C57.9661 214.58 58.4761 214.38 58.7661 213.98V213.06C58.4761 212.67 57.9661 212.47 57.4461 212.47C56.7361 212.47 56.2461 212.91 56.2461 213.52C56.2461 214.14 56.7361 214.58 57.4461 214.58ZM62.9693 216.96C62.1593 216.96 61.5993 216.8 61.0193 216.23L61.3993 215.69C61.7993 216.16 62.2793 216.34 62.9693 216.34C63.7693 216.34 64.5293 215.95 64.5293 214.93V214.2C64.1693 214.69 63.5793 215.06 62.8993 215.06C61.6393 215.06 60.7493 214.12 60.7493 212.56C60.7493 211.01 61.6293 210.05 62.8993 210.05C63.5493 210.05 64.1393 210.37 64.5293 210.9V210.17H65.2793V214.93C65.2793 216.46 64.1493 216.96 62.9693 216.96ZM63.0893 214.39C63.6793 214.39 64.2593 214.03 64.5293 213.61V211.49C64.2593 211.08 63.6793 210.72 63.0893 210.72C62.1093 210.72 61.5293 211.49 61.5293 212.56C61.5293 213.62 62.1093 214.39 63.0893 214.39ZM68.8913 215.12C67.4213 215.12 66.5013 213.98 66.5013 212.58C66.5013 211.18 67.4213 210.05 68.8913 210.05C70.3613 210.05 71.2813 211.18 71.2813 212.58C71.2813 213.98 70.3613 215.12 68.8913 215.12ZM68.8913 214.45C69.9213 214.45 70.4913 213.57 70.4913 212.58C70.4913 211.6 69.9213 210.72 68.8913 210.72C67.8613 210.72 67.2913 211.6 67.2913 212.58C67.2913 213.57 67.8613 214.45 68.8913 214.45ZM72.8355 215.1C72.5355 215.1 72.2855 214.85 72.2855 214.55C72.2855 214.25 72.5355 214 72.8355 214C73.1355 214 73.3855 214.25 73.3855 214.55C73.3855 214.85 73.1355 215.1 72.8355 215.1Z" fill="black"/>
<defs>
<filter id="filter0_d_4144_28910" x="88.9255" y="143.897" width="41.6543" height="44.9724" filterUnits="userSpaceOnUse" color-interpolation-filters="sRGB">
<feFlood flood-opacity="0" result="BackgroundImageFix"/>
<feColorMatrix in="SourceAlpha" type="matrix" values="0 0 0 0 0 0 0 0 0 0 0 0 0 0 0 0 0 0 127 0" result="hardAlpha"/>
<feOffset dy="2"/>
<feGaussianBlur stdDeviation="4"/>
<feComposite in2="hardAlpha" operator="out"/>
<feColorMatrix type="matrix" values="0 0 0 0 0 0 0 0 0 0.352941 0 0 0 0 0.560784 0 0 0 0.25 0"/>
<feBlend mode="normal" in2="BackgroundImageFix" result="effect1_dropShadow_4144_28910"/>
<feBlend mode="normal" in="SourceGraphic" in2="effect1_dropShadow_4144_28910" result="shape"/>
</filter>
<filter id="filter1_d_4144_28910" x="196.142" y="142.826" width="40.1064" height="48.7075" filterUnits="userSpaceOnUse" color-interpolation-filters="sRGB">
<feFlood flood-opacity="0" result="BackgroundImageFix"/>
<feColorMatrix in="SourceAlpha" type="matrix" values="0 0 0 0 0 0 0 0 0 0 0 0 0 0 0 0 0 0 127 0" result="hardAlpha"/>
<feOffset dy="2"/>
<feGaussianBlur stdDeviation="4"/>
<feComposite in2="hardAlpha" operator="out"/>
<feColorMatrix type="matrix" values="0 0 0 0 0 0 0 0 0 0.352941 0 0 0 0 0.560784 0 0 0 0.25 0"/>
<feBlend mode="normal" in2="BackgroundImageFix" result="effect1_dropShadow_4144_28910"/>
<feBlend mode="normal" in="SourceGraphic" in2="effect1_dropShadow_4144_28910" result="shape"/>
</filter>
<filter id="filter2_d_4144_28910" x="139" y="223" width="52" height="33" filterUnits="userSpaceOnUse" color-interpolation-filters="sRGB">
<feFlood flood-opacity="0" result="BackgroundImageFix"/>
<feColorMatrix in="SourceAlpha" type="matrix" values="0 0 0 0 0 0 0 0 0 0 0 0 0 0 0 0 0 0 127 0" result="hardAlpha"/>
<feOffset dy="2"/>
<feGaussianBlur stdDeviation="4"/>
<feComposite in2="hardAlpha" operator="out"/>
<feColorMatrix type="matrix" values="0 0 0 0 0 0 0 0 0 0.352941 0 0 0 0 0.560784 0 0 0 0.25 0"/>
<feBlend mode="normal" in2="BackgroundImageFix" result="effect1_dropShadow_4144_28910"/>
<feBlend mode="normal" in="SourceGraphic" in2="effect1_dropShadow_4144_28910" result="shape"/>
</filter>
<linearGradient id="paint0_linear_4144_28910" x1="83.5366" y1="187.24" x2="99.9624" y2="196.259" gradientUnits="userSpaceOnUse">
<stop stop-color="#49C3B1"/>
<stop offset="1" stop-color="#0071A3"/>
</linearGradient>
<linearGradient id="paint1_linear_4144_28910" x1="103.19" y1="158.884" x2="116.328" y2="169.804" gradientUnits="userSpaceOnUse">
<stop stop-color="white"/>
<stop offset="1" stop-color="#D0D0D0" stop-opacity="0"/>
</linearGradient>
<linearGradient id="paint2_linear_4144_28910" x1="227.512" y1="198.08" x2="242.05" y2="186.256" gradientUnits="userSpaceOnUse">
<stop stop-color="#49C3B1"/>
<stop offset="1" stop-color="#0071A3"/>
</linearGradient>
<linearGradient id="paint3_linear_4144_28910" x1="208.638" y1="169.199" x2="223.699" y2="161.137" gradientUnits="userSpaceOnUse">
<stop stop-color="white"/>
<stop offset="1" stop-color="#D0D0D0" stop-opacity="0"/>
</linearGradient>
<linearGradient id="paint4_linear_4144_28910" x1="198.799" y1="243.005" x2="195.214" y2="224.714" gradientUnits="userSpaceOnUse">
<stop stop-color="#49C3B1"/>
<stop offset="1" stop-color="#0071A3"/>
</linearGradient>
<linearGradient id="paint5_linear_4144_28910" x1="165" y1="246" x2="165" y2="229" gradientUnits="userSpaceOnUse">
<stop stop-color="white"/>
<stop offset="1" stop-color="#D0D0D0" stop-opacity="0"/>
</linearGradient>
</defs>
</svg>
