<svg width="281" height="255" viewBox="0 0 281 255" fill="none" xmlns="http://www.w3.org/2000/svg">
<g clip-path="url(#clip0_862_21171)">
<path d="M142.662 76.0678C163.673 76.0678 180.705 59.0394 180.705 38.0339C180.705 17.0284 163.673 0 142.662 0C121.652 0 104.619 17.0284 104.619 38.0339C104.619 59.0394 121.652 76.0678 142.662 76.0678Z" fill="#0069A7" fill-opacity="0.22"/>
<path d="M242.957 197.949C263.968 197.949 281 180.921 281 159.915C281 138.91 263.968 121.881 242.957 121.881C221.947 121.881 204.914 138.91 204.914 159.915C204.914 180.921 221.947 197.949 242.957 197.949Z" fill="#0069A7" fill-opacity="0.22"/>
<path d="M38.0431 202.271C59.0537 202.271 76.0862 185.243 76.0862 164.238C76.0862 143.232 59.0537 126.204 38.0431 126.204C17.0325 126.204 0 143.232 0 164.238C0 185.243 17.0325 202.271 38.0431 202.271Z" fill="#0069A7" fill-opacity="0.22"/>
<path d="M143.526 137.441C165.969 137.441 184.163 119.251 184.163 96.8136C184.163 74.3759 165.969 56.1865 143.526 56.1865C121.082 56.1865 102.889 74.3759 102.889 96.8136C102.889 119.251 121.082 137.441 143.526 137.441Z" fill="#002F87" fill-opacity="0.08"/>
<path d="M203.184 246.356C225.627 246.356 243.821 228.166 243.821 205.729C243.821 183.291 225.627 165.102 203.184 165.102C180.741 165.102 162.547 183.291 162.547 205.729C162.547 228.166 180.741 246.356 203.184 246.356Z" fill="#002F87" fill-opacity="0.08"/>
<path d="M82.1389 250.678C104.582 250.678 122.776 232.489 122.776 210.051C122.776 187.613 104.582 169.424 82.1389 169.424C59.6957 169.424 41.502 187.613 41.502 210.051C41.502 232.489 59.6957 250.678 82.1389 250.678Z" fill="#002F87" fill-opacity="0.08"/>
<path d="M121.927 100.271H120.196V93.7119H117.836V92.1992H124.276V93.7119H121.927V100.271ZM130.836 100.271H129.299V96.7132C129.299 95.9023 128.875 95.6482 128.21 95.6482C127.616 95.6482 127.144 95.987 126.878 96.338V100.271H125.341V92.1992H126.878V95.1883C127.253 94.7406 127.98 94.2807 128.936 94.2807C130.219 94.2807 130.836 94.9826 130.836 96.1202V100.271ZM135.074 100.416C133.149 100.416 131.987 99.0125 131.987 97.3424C131.987 95.6845 133.149 94.2807 135.074 94.2807C137.011 94.2807 138.173 95.6845 138.173 97.3424C138.173 99.0125 137.011 100.416 135.074 100.416ZM135.074 99.0488C136.03 99.0488 136.575 98.2622 136.575 97.3424C136.575 96.4348 136.03 95.6482 135.074 95.6482C134.118 95.6482 133.585 96.4348 133.585 97.3424C133.585 98.2622 134.118 99.0488 135.074 99.0488ZM144.796 100.271H143.259V99.5328C142.86 99.9806 142.158 100.416 141.201 100.416C139.918 100.416 139.313 99.7144 139.313 98.5768V94.4259H140.85V97.9717C140.85 98.7825 141.274 99.0488 141.928 99.0488C142.521 99.0488 142.993 98.722 143.259 98.3832V94.4259H144.796V100.271ZM148.72 102.643C147.715 102.643 146.941 102.413 146.202 101.772L146.892 100.658C147.364 101.179 147.982 101.384 148.72 101.384C149.458 101.384 150.33 101.058 150.33 99.908V99.315C149.87 99.8959 149.241 100.235 148.526 100.235C147.062 100.235 145.948 99.2061 145.948 97.2577C145.948 95.3457 147.05 94.2807 148.526 94.2807C149.228 94.2807 149.858 94.5833 150.33 95.1762V94.4259H151.879V99.8717C151.879 102.098 150.16 102.643 148.72 102.643ZM149.011 98.8672C149.519 98.8672 150.076 98.5768 150.33 98.2017V96.3138C150.076 95.9265 149.519 95.6482 149.011 95.6482C148.139 95.6482 147.534 96.2533 147.534 97.2577C147.534 98.2622 148.139 98.8672 149.011 98.8672ZM158.899 100.271H157.362V96.7132C157.362 95.9023 156.938 95.6482 156.272 95.6482C155.679 95.6482 155.207 95.987 154.941 96.338V100.271H153.404V92.1992H154.941V95.1883C155.316 94.7406 156.042 94.2807 156.999 94.2807C158.282 94.2807 158.899 94.9826 158.899 96.1202V100.271ZM162.386 100.416C161.309 100.416 160.728 99.8596 160.728 98.8188V95.7692H159.759V94.4259H160.728V92.8285H162.277V94.4259H163.463V95.7692H162.277V98.4074C162.277 98.7704 162.471 99.0488 162.81 99.0488C163.04 99.0488 163.258 98.9641 163.342 98.8794L163.669 100.041C163.439 100.247 163.028 100.416 162.386 100.416ZM166.622 100.416C165.605 100.416 164.625 100.077 164.007 99.5086L164.673 98.4316C165.097 98.8309 165.968 99.2303 166.694 99.2303C167.36 99.2303 167.675 98.9641 167.675 98.601C167.675 97.6329 164.201 98.4195 164.201 96.1202C164.201 95.1399 165.06 94.2807 166.598 94.2807C167.59 94.2807 168.377 94.6196 168.958 95.0794L168.341 96.1323C167.99 95.7571 167.324 95.4546 166.61 95.4546C166.053 95.4546 165.69 95.7087 165.69 96.0355C165.69 96.9068 169.152 96.1807 169.152 98.5405C169.152 99.6055 168.244 100.416 166.622 100.416Z" fill="black"/>
<path d="M182.563 206.593H180.844V198.521H186.557V200.034H182.563V201.74H186.472V203.253H182.563V206.593ZM190.47 206.738C188.691 206.738 187.347 205.54 187.347 203.665C187.347 201.97 188.594 200.603 190.374 200.603C192.117 200.603 193.303 201.91 193.303 203.822V204.161H188.957C189.054 204.899 189.647 205.516 190.64 205.516C191.136 205.516 191.826 205.298 192.201 204.935L192.879 205.928C192.298 206.46 191.378 206.738 190.47 206.738ZM191.814 203.12C191.778 202.563 191.39 201.825 190.374 201.825C189.417 201.825 189.006 202.539 188.933 203.12H191.814ZM197.162 206.738C195.382 206.738 194.039 205.54 194.039 203.665C194.039 201.97 195.285 200.603 197.065 200.603C198.808 200.603 199.994 201.91 199.994 203.822V204.161H195.649C195.745 204.899 196.339 205.516 197.331 205.516C197.827 205.516 198.517 205.298 198.893 204.935L199.57 205.928C198.989 206.46 198.069 206.738 197.162 206.738ZM198.505 203.12C198.469 202.563 198.082 201.825 197.065 201.825C196.109 201.825 195.697 202.539 195.624 203.12H198.505ZM202.642 206.593H201.104V198.521H202.642V206.593ZM204.928 200.119C204.432 200.119 204.009 199.707 204.009 199.199C204.009 198.691 204.432 198.292 204.928 198.292C205.437 198.292 205.848 198.691 205.848 199.199C205.848 199.707 205.437 200.119 204.928 200.119ZM205.703 206.593H204.166V200.748H205.703V206.593ZM212.711 206.593H211.174V203.06C211.174 202.249 210.75 201.97 210.096 201.97C209.491 201.97 209.019 202.309 208.765 202.66V206.593H207.227V200.748H208.765V201.511C209.14 201.063 209.854 200.603 210.81 200.603C212.094 200.603 212.711 201.329 212.711 202.467V206.593ZM216.634 208.965C215.629 208.965 214.854 208.735 214.116 208.094L214.806 206.981C215.278 207.501 215.895 207.707 216.634 207.707C217.372 207.707 218.244 207.38 218.244 206.23V205.637C217.784 206.218 217.154 206.557 216.44 206.557C214.975 206.557 213.862 205.528 213.862 203.58C213.862 201.668 214.963 200.603 216.44 200.603C217.142 200.603 217.771 200.905 218.244 201.498V200.748H219.793V206.194C219.793 208.421 218.074 208.965 216.634 208.965ZM216.924 205.189C217.433 205.189 217.989 204.899 218.244 204.524V202.636C217.989 202.249 217.433 201.97 216.924 201.97C216.053 201.97 215.447 202.576 215.447 203.58C215.447 204.584 216.053 205.189 216.924 205.189ZM223.424 206.738C222.408 206.738 221.427 206.4 220.81 205.831L221.475 204.754C221.899 205.153 222.771 205.553 223.497 205.553C224.163 205.553 224.477 205.286 224.477 204.923C224.477 203.955 221.003 204.742 221.003 202.442C221.003 201.462 221.863 200.603 223.4 200.603C224.393 200.603 225.179 200.942 225.761 201.402L225.143 202.454C224.792 202.079 224.126 201.777 223.412 201.777C222.855 201.777 222.492 202.031 222.492 202.358C222.492 203.229 225.954 202.503 225.954 204.863C225.954 205.928 225.046 206.738 223.424 206.738Z" fill="black"/>
<path d="M60.587 200.542H56.5181V193.047H60.4633C61.8908 193.047 62.6214 193.957 62.6214 194.957C62.6214 195.901 62.0369 196.531 61.3288 196.677C62.1269 196.8 62.7675 197.576 62.7675 198.52C62.7675 199.643 62.0145 200.542 60.587 200.542ZM60.1149 196.047C60.6544 196.047 60.9916 195.71 60.9916 195.238C60.9916 194.766 60.6544 194.418 60.1149 194.418H58.1142V196.047H60.1149ZM60.1711 199.16C60.7781 199.16 61.1377 198.834 61.1377 198.295C61.1377 197.823 60.8005 197.418 60.1711 197.418H58.1142V199.16H60.1711ZM66.4889 200.677C64.8367 200.677 63.589 199.565 63.589 197.823C63.589 196.25 64.7467 194.98 66.399 194.98C68.0176 194.98 69.1191 196.193 69.1191 197.969V198.284H65.0839C65.1739 198.969 65.7246 199.542 66.6463 199.542C67.1071 199.542 67.7478 199.34 68.0963 199.003L68.7257 199.924C68.1862 200.419 67.3319 200.677 66.4889 200.677ZM67.7366 197.317C67.7029 196.8 67.3432 196.115 66.399 196.115C65.5111 196.115 65.1289 196.778 65.0615 197.317H67.7366ZM75.2531 200.542H73.8256V197.239C73.8256 196.486 73.4322 196.25 72.814 196.25C72.2633 196.25 71.8249 196.564 71.5776 196.89V200.542H70.1502V193.047H71.5776V195.823C71.9261 195.407 72.6005 194.98 73.4884 194.98C74.6799 194.98 75.2531 195.632 75.2531 196.688V200.542ZM81.3574 200.542H79.9299V199.98C79.559 200.419 78.9183 200.677 78.2102 200.677C77.3447 200.677 76.3219 200.093 76.3219 198.879C76.3219 197.609 77.3447 197.126 78.2102 197.126C78.9295 197.126 79.5702 197.362 79.9299 197.789V197.059C79.9299 196.508 79.4578 196.149 78.7385 196.149C78.154 196.149 77.6145 196.362 77.1536 196.789L76.6141 195.834C77.2773 195.25 78.1315 194.98 78.9857 194.98C80.2221 194.98 81.3574 195.474 81.3574 197.036V200.542ZM78.7834 199.711C79.2443 199.711 79.6939 199.553 79.9299 199.239V198.565C79.6939 198.25 79.2443 198.093 78.7834 198.093C78.2214 198.093 77.7606 198.385 77.7606 198.913C77.7606 199.419 78.2214 199.711 78.7834 199.711ZM85.7182 200.542H84.1783L81.9977 195.115H83.5264L84.9426 198.89L86.3588 195.115H87.8991L85.7182 200.542ZM89.2444 194.53C88.7836 194.53 88.3902 194.148 88.3902 193.676C88.3902 193.204 88.7836 192.834 89.2444 192.834C89.7165 192.834 90.0986 193.204 90.0986 193.676C90.0986 194.148 89.7165 194.53 89.2444 194.53ZM89.9638 200.542H88.5363V195.115H89.9638V200.542ZM93.8969 200.677C92.1097 200.677 91.0307 199.374 91.0307 197.823C91.0307 196.283 92.1097 194.98 93.8969 194.98C95.6953 194.98 96.7743 196.283 96.7743 197.823C96.7743 199.374 95.6953 200.677 93.8969 200.677ZM93.8969 199.407C94.7849 199.407 95.2907 198.677 95.2907 197.823C95.2907 196.98 94.7849 196.25 93.8969 196.25C93.0089 196.25 92.5144 196.98 92.5144 197.823C92.5144 198.677 93.0089 199.407 93.8969 199.407ZM99.261 200.542H97.8335V195.115H99.261V195.856C99.6431 195.373 100.318 194.98 100.992 194.98V196.373C100.891 196.351 100.756 196.34 100.599 196.34C100.126 196.34 99.497 196.609 99.261 196.958V200.542ZM103.839 200.677C102.895 200.677 101.985 200.362 101.411 199.834L102.029 198.834C102.423 199.205 103.232 199.576 103.907 199.576C104.525 199.576 104.817 199.329 104.817 198.992C104.817 198.093 101.591 198.823 101.591 196.688C101.591 195.778 102.389 194.98 103.817 194.98C104.738 194.98 105.469 195.294 106.008 195.721L105.435 196.699C105.109 196.351 104.491 196.07 103.828 196.07C103.311 196.07 102.974 196.306 102.974 196.609C102.974 197.418 106.188 196.744 106.188 198.935C106.188 199.924 105.345 200.677 103.839 200.677ZM107.566 200.767H106.532L109.195 192.822H110.229L107.566 200.767ZM64.3159 214.373H62.7198V206.878H66.2267C67.8565 206.878 68.7445 207.979 68.7445 209.294C68.7445 210.597 67.8453 211.71 66.2267 211.71H64.3159V214.373ZM66.0131 210.305C66.6426 210.305 67.1147 209.912 67.1147 209.294C67.1147 208.664 66.6426 208.282 66.0131 208.282H64.3159V210.305H66.0131ZM74.8031 214.373H73.3756V211.069C73.3756 210.316 72.9822 210.08 72.364 210.08C71.8132 210.08 71.3749 210.395 71.1276 210.721V214.373H69.7001V206.878H71.1276V209.653C71.476 209.237 72.1504 208.81 73.0384 208.81C74.2298 208.81 74.8031 209.462 74.8031 210.518V214.373ZM76.0291 216.497L76.2427 215.216C76.3663 215.272 76.5574 215.305 76.6923 215.305C77.0632 215.305 77.3105 215.204 77.4454 214.912L77.6477 214.451L75.4446 208.945H76.9733L78.3895 212.721L79.8057 208.945H81.3456L78.7941 215.261C78.3895 216.283 77.6702 216.553 76.7372 216.575C76.5686 216.575 76.209 216.542 76.0291 216.497ZM83.9387 214.508C82.9945 214.508 82.0841 214.193 81.5109 213.665L82.1291 212.665C82.5225 213.036 83.3317 213.406 84.0061 213.406C84.6243 213.406 84.9166 213.159 84.9166 212.822C84.9166 211.923 81.6907 212.653 81.6907 210.518C81.6907 209.608 82.4887 208.81 83.9162 208.81C84.8379 208.81 85.5685 209.125 86.108 209.552L85.5348 210.53C85.2088 210.181 84.5906 209.9 83.9275 209.9C83.4104 209.9 83.0732 210.136 83.0732 210.44C83.0732 211.249 86.2879 210.575 86.2879 212.766C86.2879 213.755 85.4449 214.508 83.9387 214.508ZM88.0478 208.361C87.5869 208.361 87.1935 207.979 87.1935 207.507C87.1935 207.035 87.5869 206.664 88.0478 206.664C88.5199 206.664 88.902 207.035 88.902 207.507C88.902 207.979 88.5199 208.361 88.0478 208.361ZM88.7671 214.373H87.3397V208.945H88.7671V214.373ZM92.7115 214.508C91.0368 214.508 89.8341 213.328 89.8341 211.653C89.8341 209.99 91.0368 208.81 92.7115 208.81C93.8243 208.81 94.4987 209.294 94.8584 209.788L93.9254 210.664C93.6669 210.282 93.2735 210.08 92.779 210.08C91.9135 210.08 91.3065 210.709 91.3065 211.653C91.3065 212.597 91.9135 213.238 92.779 213.238C93.2735 213.238 93.6669 213.013 93.9254 212.653L94.8584 213.519C94.4987 214.024 93.8243 214.508 92.7115 214.508ZM100.478 214.373H99.0509V213.811C98.68 214.249 98.0393 214.508 97.3312 214.508C96.4657 214.508 95.4428 213.923 95.4428 212.71C95.4428 211.44 96.4657 210.957 97.3312 210.957C98.0505 210.957 98.6912 211.193 99.0509 211.62V210.889C99.0509 210.339 98.5788 209.979 97.8594 209.979C97.275 209.979 96.7354 210.193 96.2746 210.62L95.7351 209.664C96.3982 209.08 97.2525 208.81 98.1067 208.81C99.3431 208.81 100.478 209.305 100.478 210.867V214.373ZM97.9044 213.541C98.3652 213.541 98.8148 213.384 99.0509 213.069V212.395C98.8148 212.08 98.3652 211.923 97.9044 211.923C97.3424 211.923 96.8816 212.215 96.8816 212.743C96.8816 213.249 97.3424 213.541 97.9044 213.541ZM103.322 214.373H101.895V206.878H103.322V214.373ZM58.4685 228.338C57.0298 228.338 55.9957 227.855 55.2988 227.147L56.1643 225.933C56.6926 226.484 57.5131 226.945 58.5472 226.945C59.4239 226.945 59.851 226.54 59.851 226.113C59.851 224.787 55.5349 225.697 55.5349 222.877C55.5349 221.629 56.6139 220.596 58.3786 220.596C59.57 220.596 60.5591 220.955 61.301 221.641L60.413 222.809C59.8061 222.248 58.9968 221.989 58.2325 221.989C57.5468 221.989 57.1647 222.292 57.1647 222.742C57.1647 223.933 61.4696 223.135 61.4696 225.933C61.4696 227.304 60.4917 228.338 58.4685 228.338ZM65.062 228.338C63.4097 228.338 62.1621 227.226 62.1621 225.484C62.1621 223.911 63.3198 222.641 64.9721 222.641C66.5906 222.641 67.6921 223.854 67.6921 225.63V225.945H63.657C63.7469 226.63 64.2977 227.203 65.2193 227.203C65.6802 227.203 66.3209 227.001 66.6693 226.664L67.2987 227.585C66.7592 228.08 65.905 228.338 65.062 228.338ZM66.3096 224.978C66.2759 224.461 65.9162 223.776 64.9721 223.776C64.0841 223.776 63.7019 224.439 63.6345 224.978H66.3096ZM73.815 228.203H72.3875V224.922C72.3875 224.169 71.9941 223.911 71.3872 223.911C70.8252 223.911 70.3868 224.225 70.1508 224.551V228.203H68.7233V222.776H70.1508V223.484C70.4992 223.068 71.1624 222.641 72.0503 222.641C73.2418 222.641 73.815 223.315 73.815 224.371V228.203ZM77.1881 228.338C76.244 228.338 75.3335 228.024 74.7603 227.495L75.3785 226.495C75.7719 226.866 76.5812 227.237 77.2556 227.237C77.8738 227.237 78.166 226.99 78.166 226.653C78.166 225.754 74.9401 226.484 74.9401 224.349C74.9401 223.439 75.7382 222.641 77.1656 222.641C78.0873 222.641 78.8179 222.955 79.3574 223.383L78.7842 224.36C78.4582 224.012 77.84 223.731 77.1769 223.731C76.6598 223.731 76.3226 223.967 76.3226 224.27C76.3226 225.079 79.5373 224.405 79.5373 226.596C79.5373 227.585 78.6943 228.338 77.1881 228.338ZM85.276 228.203H83.8485V227.641C83.4776 228.08 82.8369 228.338 82.1288 228.338C81.2633 228.338 80.2405 227.754 80.2405 226.54C80.2405 225.27 81.2633 224.787 82.1288 224.787C82.8482 224.787 83.4888 225.023 83.8485 225.45V224.72C83.8485 224.169 83.3764 223.81 82.6571 223.81C82.0726 223.81 81.5331 224.023 81.0722 224.45L80.5327 223.495C81.1959 222.911 82.0501 222.641 82.9044 222.641C84.1408 222.641 85.276 223.135 85.276 224.697V228.203ZM82.702 227.372C83.1629 227.372 83.6125 227.214 83.8485 226.9V226.226C83.6125 225.911 83.1629 225.754 82.702 225.754C82.14 225.754 81.6792 226.046 81.6792 226.574C81.6792 227.08 82.14 227.372 82.702 227.372ZM88.5129 228.338C87.5126 228.338 86.9731 227.821 86.9731 226.855V224.023H86.0737V222.776H86.9731V221.292H88.4118V222.776H89.5133V224.023H88.4118V226.473C88.4118 226.81 88.5916 227.068 88.9063 227.068C89.1199 227.068 89.3222 226.99 89.4009 226.911L89.7044 227.99C89.4908 228.181 89.1087 228.338 88.5129 228.338ZM91.1976 222.191C90.7367 222.191 90.3433 221.809 90.3433 221.337C90.3433 220.865 90.7367 220.495 91.1976 220.495C91.6697 220.495 92.0518 220.865 92.0518 221.337C92.0518 221.809 91.6697 222.191 91.1976 222.191ZM91.9169 228.203H90.4895V222.776H91.9169V228.203ZM95.8501 228.338C94.0629 228.338 92.9839 227.035 92.9839 225.484C92.9839 223.944 94.0629 222.641 95.8501 222.641C97.6485 222.641 98.7275 223.944 98.7275 225.484C98.7275 227.035 97.6485 228.338 95.8501 228.338ZM95.8501 227.068C96.738 227.068 97.2438 226.338 97.2438 225.484C97.2438 224.641 96.738 223.911 95.8501 223.911C94.9621 223.911 94.4676 224.641 94.4676 225.484C94.4676 226.338 94.9621 227.068 95.8501 227.068ZM104.878 228.203H103.451V224.922C103.451 224.169 103.058 223.911 102.451 223.911C101.889 223.911 101.45 224.225 101.214 224.551V228.203H99.7867V222.776H101.214V223.484C101.563 223.068 102.226 222.641 103.114 222.641C104.305 222.641 104.878 223.315 104.878 224.371V228.203ZM108.252 228.338C107.308 228.338 106.398 228.024 105.824 227.495L106.442 226.495C106.836 226.866 107.645 227.237 108.32 227.237C108.938 227.237 109.23 226.99 109.23 226.653C109.23 225.754 106.004 226.484 106.004 224.349C106.004 223.439 106.802 222.641 108.23 222.641C109.151 222.641 109.882 222.955 110.421 223.383L109.848 224.36C109.522 224.012 108.904 223.731 108.241 223.731C107.724 223.731 107.387 223.967 107.387 224.27C107.387 225.079 110.601 224.405 110.601 226.596C110.601 227.585 109.758 228.338 108.252 228.338Z" fill="black"/>
<path d="M143.095 124.475C137.1 124.475 132.287 128.94 132.287 134.415C132.287 139.929 137.1 144.356 143.095 144.356C149.048 144.356 153.902 139.929 153.902 134.415C153.902 128.94 149.048 124.475 143.095 124.475ZM147.95 132.706L142.546 137.677C142.335 137.91 142.039 137.988 141.743 137.988C141.406 137.988 141.111 137.91 140.9 137.677L138.198 135.192C137.733 134.765 137.733 134.105 138.198 133.677C138.662 133.25 139.38 133.25 139.844 133.677L141.743 135.386L146.303 131.192C146.768 130.765 147.485 130.765 147.95 131.192C148.414 131.62 148.414 132.279 147.95 132.706Z" fill="#065394"/>
<path d="M200.59 230.796C194.835 230.796 190.215 235.262 190.215 240.737C190.215 246.251 194.835 250.678 200.59 250.678C206.304 250.678 210.966 246.251 210.966 240.737C210.966 235.262 206.304 230.796 200.59 230.796ZM205.251 239.028L200.064 243.998C199.86 244.232 199.577 244.31 199.293 244.31C198.969 244.31 198.685 244.232 198.482 243.998L195.888 241.513C195.443 241.086 195.443 240.427 195.888 239.999C196.335 239.572 197.024 239.572 197.47 239.999L199.293 241.708L203.67 237.514C204.116 237.087 204.805 237.087 205.251 237.514C205.697 237.942 205.697 238.601 205.251 239.028Z" fill="#065394"/>
<path d="M80.4086 235.119C74.6535 235.119 70.0332 239.584 70.0332 245.059C70.0332 250.573 74.6535 255 80.4086 255C86.1232 255 90.784 250.573 90.784 245.059C90.784 239.584 86.1232 235.119 80.4086 235.119ZM85.0694 243.35L79.8817 248.321C79.679 248.554 79.3953 248.632 79.1117 248.632C78.7874 248.632 78.5038 248.554 78.3011 248.321L75.7072 245.836C75.2614 245.409 75.2614 244.749 75.7072 244.321C76.153 243.894 76.8421 243.894 77.2878 244.321L79.1117 246.03L83.4888 241.836C83.9346 241.409 84.6236 241.409 85.0694 241.836C85.5152 242.264 85.5152 242.923 85.0694 243.35Z" fill="#065394"/>
<g filter="url(#filter0_d_862_21171)">
<path d="M105.005 129.885C105.337 130.161 105.55 130.579 105.543 130.974L105.984 139.698C105.976 140.093 105.834 140.457 105.636 140.695C105.359 141.028 105.027 141.235 104.593 141.275C103.763 141.309 103.053 140.718 103.021 139.889L102.745 134.917L89.2714 151.126L94.2092 150.488C95.0315 150.367 95.7422 150.957 95.8607 151.779C95.9004 152.214 95.7578 152.578 95.5209 152.863C95.284 153.149 94.9519 153.354 94.5646 153.435L85.9046 154.597C85.5174 154.677 85.1066 154.496 84.7747 154.22C84.4903 153.985 84.2375 153.614 84.2454 153.219L83.8039 144.493C83.7724 143.664 84.3651 142.951 85.1948 142.917C86.0244 142.883 86.7355 143.474 86.7666 144.304L86.9957 149.235L100.469 133.027L95.5779 133.705C94.7963 133.777 94.0458 133.234 93.9274 132.412C93.8089 131.591 94.4012 130.878 95.2226 130.757L103.883 129.595C104.27 129.515 104.72 129.648 105.005 129.885Z" fill="url(#paint0_linear_862_21171)"/>
<path d="M105.412 130.972V130.98L105.853 139.7C105.844 140.067 105.712 140.4 105.536 140.612C105.277 140.923 104.976 141.108 104.584 141.146C103.819 141.175 103.178 140.633 103.149 139.884V139.881L102.874 134.911L102.856 134.581L102.645 134.835L89.1704 151.043L88.9594 151.296L89.2871 151.255L94.2249 150.616H94.2275C94.9694 150.507 95.6204 151.038 95.7311 151.794C95.7665 152.19 95.6377 152.519 95.4207 152.781C95.2028 153.042 94.8985 153.233 94.5422 153.307L85.8866 154.469V154.468L85.8776 154.47C85.5462 154.539 85.1751 154.386 84.8569 154.121C84.5884 153.898 84.3675 153.561 84.3744 153.221L84.3743 153.212L83.9328 144.489C83.9327 144.488 83.9327 144.488 83.9327 144.488C83.904 143.722 84.4491 143.078 85.1993 143.046C85.9653 143.015 86.6085 143.558 86.6371 144.308V144.31L86.8653 149.242L86.8809 149.575L87.0944 149.318L100.569 133.11L100.782 132.852L100.451 132.898L95.5625 133.576C94.8466 133.641 94.1627 133.143 94.0546 132.394C93.9474 131.651 94.4817 130.997 95.24 130.886L103.9 129.724L103.909 129.722C104.254 129.651 104.664 129.771 104.921 129.984C105.228 130.239 105.419 130.621 105.412 130.972Z" stroke="url(#paint1_linear_862_21171)" stroke-width="0.3"/>
</g>
<g filter="url(#filter1_d_862_21171)">
<path d="M179.424 128.829C179.804 128.626 180.273 128.585 180.636 128.741L188.887 131.616C189.25 131.772 189.534 132.041 189.68 132.313C189.884 132.694 189.951 133.08 189.824 133.497C189.543 134.279 188.729 134.715 187.947 134.432L183.238 132.817L193.186 151.397L194.454 146.583C194.652 145.776 195.466 145.34 196.273 145.539C196.69 145.667 196.974 145.935 197.149 146.262C197.324 146.589 197.39 146.974 197.319 147.362L195.136 155.822C195.065 156.211 194.742 156.523 194.362 156.727C194.036 156.901 193.598 156.995 193.235 156.84L184.983 153.965C184.202 153.681 183.764 152.864 184.045 152.083C184.326 151.302 185.142 150.866 185.922 151.149L190.578 152.793L180.629 134.213L179.416 138.998C179.19 139.751 178.404 140.241 177.598 140.042C176.791 139.842 176.354 139.024 176.551 138.218L178.734 129.759C178.806 129.371 179.098 129.003 179.424 128.829Z" fill="url(#paint2_linear_862_21171)"/>
<path d="M180.585 128.861L180.594 128.863L188.841 131.737C189.177 131.883 189.436 132.131 189.567 132.375C189.757 132.731 189.815 133.079 189.703 133.457C189.442 134.176 188.698 134.566 187.993 134.31L187.991 134.309L183.28 132.694L182.968 132.587L183.125 132.878L193.073 151.458L193.228 151.749L193.313 151.43L194.58 146.616L194.581 146.614C194.759 145.885 195.495 145.482 196.239 145.665C196.619 145.781 196.875 146.024 197.035 146.324C197.196 146.624 197.258 146.977 197.193 147.335L195.011 155.79V155.789L195.01 155.798C194.948 156.131 194.666 156.417 194.301 156.613C193.994 156.777 193.599 156.855 193.286 156.721V156.72L193.278 156.717L185.028 153.843H185.028C184.306 153.581 183.914 152.833 184.168 152.127C184.428 151.406 185.173 151.015 185.879 151.271L185.88 151.271L190.536 152.916L190.851 153.027L190.693 152.732L180.744 134.152L180.587 133.857L180.505 134.181L179.292 138.963C179.083 139.651 178.364 140.097 177.63 139.916C176.901 139.735 176.496 138.994 176.678 138.25V138.249L178.86 129.792L178.862 129.783C178.926 129.437 179.192 129.101 179.486 128.943C179.838 128.755 180.264 128.723 180.585 128.861Z" stroke="url(#paint3_linear_862_21171)" stroke-width="0.3"/>
</g>
<g filter="url(#filter2_d_862_21171)">
<path d="M127.098 205.308C127.098 204.879 127.28 204.45 127.584 204.204L133.907 198.317C134.211 198.072 134.575 197.949 134.879 197.949C135.305 197.949 135.669 198.072 135.974 198.379C136.52 198.992 136.52 199.911 135.912 200.464L132.326 203.837H153.056L149.47 200.464C148.862 199.911 148.862 198.992 149.409 198.379C149.713 198.072 150.077 197.949 150.442 197.949C150.807 197.949 151.172 198.072 151.475 198.317L157.798 204.204C158.102 204.45 158.224 204.879 158.224 205.308C158.224 205.676 158.102 206.105 157.798 206.35L151.475 212.238C150.868 212.789 149.956 212.789 149.409 212.176C148.862 211.563 148.862 210.643 149.47 210.092L153.056 206.78H132.326L135.912 210.092C136.46 210.643 136.52 211.563 135.974 212.176C135.427 212.789 134.514 212.789 133.907 212.238L127.584 206.35C127.28 206.105 127.098 205.676 127.098 205.308Z" fill="url(#paint4_linear_862_21171)"/>
<path d="M127.665 204.305L127.672 204.299L133.99 198.415C134.272 198.189 134.608 198.079 134.878 198.079C135.274 198.079 135.603 198.191 135.878 198.467C136.381 199.033 136.373 199.869 135.824 200.368L135.823 200.369L132.236 203.742L131.998 203.967H132.325H153.055H153.383L153.144 203.742L149.558 200.369L149.556 200.368C149.007 199.869 148.999 199.033 149.503 198.467C149.779 198.19 150.109 198.079 150.441 198.079C150.775 198.079 151.11 198.191 151.39 198.415L157.709 204.299H157.709L157.716 204.305C157.976 204.515 158.093 204.897 158.093 205.308C158.093 205.656 157.977 206.039 157.716 206.249H157.715L157.709 206.256L151.387 212.142C150.827 212.65 149.999 212.643 149.505 212.09C148.999 211.524 149.006 210.686 149.556 210.188L149.557 210.187L153.143 206.875L153.387 206.651H153.055H132.325H131.993L132.237 206.875L135.822 210.185C136.321 210.691 136.374 211.531 135.876 212.09C135.382 212.643 134.554 212.65 133.994 212.142H133.993L127.672 206.256L127.665 206.249C127.394 206.032 127.227 205.641 127.227 205.308C127.227 204.911 127.396 204.522 127.665 204.305Z" stroke="url(#paint5_linear_862_21171)" stroke-width="0.3"/>
</g>
<path d="M121.228 24.2036H120.51V18.438H121.228V24.2036ZM126.632 24.3073C125.387 24.3073 124.548 23.3478 124.548 22.1117C124.548 20.8756 125.387 19.9248 126.632 19.9248C127.392 19.9248 127.842 20.236 128.162 20.6509L127.73 21.0399C127.453 20.6595 127.099 20.5039 126.666 20.5039C125.784 20.5039 125.222 21.1868 125.222 22.1117C125.222 23.0366 125.784 23.7282 126.666 23.7282C127.099 23.7282 127.453 23.5553 127.73 23.1836L128.162 23.5812C127.842 23.9961 127.392 24.3073 126.632 24.3073ZM132.339 24.2036H131.69V23.7282C131.353 24.1085 130.869 24.3073 130.307 24.3073C129.607 24.3073 128.855 23.8319 128.855 22.9243C128.855 21.9821 129.598 21.5499 130.307 21.5499C130.878 21.5499 131.353 21.7314 131.69 22.1117V21.3597C131.69 20.8065 131.241 20.4866 130.636 20.4866C130.134 20.4866 129.728 20.6595 129.356 21.0658L129.053 20.6163C129.503 20.1495 130.039 19.9248 130.722 19.9248C131.613 19.9248 132.339 20.3224 132.339 21.3338V24.2036ZM130.549 23.8405C130.999 23.8405 131.44 23.6677 131.69 23.3219V22.5266C131.44 22.1895 130.999 22.0166 130.549 22.0166C129.935 22.0166 129.512 22.397 129.512 22.9243C129.512 23.4602 129.935 23.8405 130.549 23.8405ZM137.114 24.2036H136.474V21.4721C136.474 20.7287 136.094 20.5039 135.532 20.5039C135.022 20.5039 134.546 20.8151 134.296 21.1522V24.2036H133.647V20.0285H134.296V20.6336C134.59 20.2792 135.16 19.9248 135.791 19.9248C136.656 19.9248 137.114 20.3656 137.114 21.2733V24.2036ZM139.24 19.0085C139.24 19.5358 138.938 20.0285 138.54 20.3138L138.211 20.0458C138.488 19.8643 138.739 19.5185 138.773 19.2419C138.756 19.2505 138.696 19.2592 138.652 19.2592C138.419 19.2592 138.237 19.069 138.237 18.8183C138.237 18.5677 138.436 18.3516 138.696 18.3516C138.99 18.3516 139.24 18.585 139.24 19.0085ZM141.423 24.3073C140.801 24.3073 140.49 23.9529 140.49 23.3305V20.599H139.798V20.0285H140.49V18.8875H141.147V20.0285H141.994V20.599H141.147V23.1922C141.147 23.5034 141.285 23.7282 141.562 23.7282C141.752 23.7282 141.916 23.6417 142.003 23.5466L142.193 24.0394C142.029 24.195 141.795 24.3073 141.423 24.3073ZM146.98 24.3073C145.735 24.3073 144.897 23.3478 144.897 22.1117C144.897 20.8756 145.735 19.9248 146.98 19.9248C147.741 19.9248 148.191 20.236 148.511 20.6509L148.078 21.0399C147.802 20.6595 147.447 20.5039 147.015 20.5039C146.133 20.5039 145.571 21.1868 145.571 22.1117C145.571 23.0366 146.133 23.7282 147.015 23.7282C147.447 23.7282 147.802 23.5553 148.078 23.1836L148.511 23.5812C148.191 23.9961 147.741 24.3073 146.98 24.3073ZM151.252 24.3073C149.981 24.3073 149.186 23.3219 149.186 22.1117C149.186 20.9016 149.981 19.9248 151.252 19.9248C152.523 19.9248 153.319 20.9016 153.319 22.1117C153.319 23.3219 152.523 24.3073 151.252 24.3073ZM151.252 23.7282C152.143 23.7282 152.636 22.9675 152.636 22.1117C152.636 21.2646 152.143 20.5039 151.252 20.5039C150.362 20.5039 149.869 21.2646 149.869 22.1117C149.869 22.9675 150.362 23.7282 151.252 23.7282ZM156.434 24.3073C155.863 24.3073 155.371 24.0307 155.025 23.5726V25.7941H154.376V20.0285H155.025V20.6509C155.327 20.2273 155.846 19.9248 156.434 19.9248C157.532 19.9248 158.293 20.7546 158.293 22.1117C158.293 23.4602 157.532 24.3073 156.434 24.3073ZM156.27 23.7282C157.108 23.7282 157.61 23.0366 157.61 22.1117C157.61 21.1868 157.108 20.5039 156.27 20.5039C155.76 20.5039 155.25 20.8065 155.025 21.1695V23.0539C155.25 23.417 155.76 23.7282 156.27 23.7282ZM161.218 24.3073C159.973 24.3073 159.082 23.417 159.082 22.1117C159.082 20.9016 159.947 19.9248 161.14 19.9248C162.403 19.9248 163.146 20.9102 163.146 22.1636V22.3278H159.774C159.826 23.1144 160.371 23.7714 161.27 23.7714C161.754 23.7714 162.23 23.5812 162.567 23.2355L162.878 23.659C162.454 24.0739 161.892 24.3073 161.218 24.3073ZM162.506 21.8438C162.498 21.23 162.083 20.4607 161.132 20.4607C160.241 20.4607 159.8 21.2127 159.765 21.8438H162.506ZM164.483 24.29C164.223 24.29 164.007 24.0739 164.007 23.8146C164.007 23.5553 164.223 23.3392 164.483 23.3392C164.742 23.3392 164.958 23.5553 164.958 23.8146C164.958 24.0739 164.742 24.29 164.483 24.29ZM112.295 32.9514C111.301 32.9514 110.558 32.5711 110.082 32.0351L110.514 31.4819C110.886 31.9141 111.509 32.3117 112.321 32.3117C113.35 32.3117 113.679 31.7585 113.679 31.309C113.679 29.8222 110.264 30.6521 110.264 28.5948C110.264 27.6439 111.111 26.987 112.252 26.987C113.125 26.987 113.809 27.2895 114.293 27.7995L113.86 28.3268C113.428 27.8428 112.823 27.6353 112.192 27.6353C111.509 27.6353 111.007 28.007 111.007 28.5516C111.007 29.8482 114.422 29.1048 114.422 31.2572C114.422 32.087 113.852 32.9514 112.295 32.9514ZM117.293 32.9514C116.022 32.9514 115.226 31.966 115.226 30.7558C115.226 29.5456 116.022 28.5689 117.293 28.5689C118.564 28.5689 119.359 29.5456 119.359 30.7558C119.359 31.966 118.564 32.9514 117.293 32.9514ZM117.293 32.3722C118.183 32.3722 118.676 31.6116 118.676 30.7558C118.676 29.9087 118.183 29.148 117.293 29.148C116.402 29.148 115.91 29.9087 115.91 30.7558C115.91 31.6116 116.402 32.3722 117.293 32.3722ZM126.106 32.8477H125.457V30.0124C125.457 29.4851 125.233 29.148 124.688 29.148C124.256 29.148 123.797 29.4505 123.581 29.7877V32.8477H122.933V30.0124C122.933 29.4851 122.717 29.148 122.163 29.148C121.74 29.148 121.29 29.4592 121.065 29.7963V32.8477H120.417V28.6726H121.065V29.2777C121.247 29.0097 121.8 28.5689 122.423 28.5689C123.054 28.5689 123.417 28.9146 123.538 29.3468C123.771 28.9665 124.333 28.5689 124.939 28.5689C125.7 28.5689 126.106 28.9924 126.106 29.8309V32.8477ZM129.293 32.9514C128.048 32.9514 127.157 32.0611 127.157 30.7558C127.157 29.5456 128.022 28.5689 129.215 28.5689C130.477 28.5689 131.221 29.5543 131.221 30.8077V30.9719H127.849C127.901 31.7585 128.446 32.4155 129.345 32.4155C129.829 32.4155 130.305 32.2253 130.642 31.8795L130.953 32.3031C130.529 32.718 129.967 32.9514 129.293 32.9514ZM130.581 30.4878C130.573 29.8741 130.158 29.1048 129.206 29.1048C128.316 29.1048 127.875 29.8568 127.84 30.4878H130.581ZM133.334 32.9514C132.712 32.9514 132.4 32.597 132.4 31.9746V29.2431H131.709V28.6726H132.4V27.5316H133.057V28.6726H133.905V29.2431H133.057V31.8363C133.057 32.1475 133.196 32.3722 133.472 32.3722C133.663 32.3722 133.827 32.2858 133.913 32.1907L134.104 32.6834C133.939 32.839 133.706 32.9514 133.334 32.9514ZM138.288 32.8477H137.64V30.0989C137.64 29.3555 137.268 29.148 136.697 29.148C136.196 29.148 135.712 29.4592 135.47 29.7963V32.8477H134.821V27.0821H135.47V29.2777C135.755 28.9233 136.326 28.5689 136.957 28.5689C137.83 28.5689 138.288 28.9924 138.288 29.9V32.8477ZM139.911 28.0761C139.669 28.0761 139.47 27.886 139.47 27.6439C139.47 27.4019 139.669 27.2031 139.911 27.2031C140.153 27.2031 140.344 27.4019 140.344 27.6439C140.344 27.886 140.153 28.0761 139.911 28.0761ZM140.231 32.8477H139.583V28.6726H140.231V32.8477ZM144.993 32.8477H144.353V30.1161C144.353 29.3728 143.972 29.148 143.41 29.148C142.9 29.148 142.425 29.4592 142.174 29.7963V32.8477H141.525V28.6726H142.174V29.2777C142.468 28.9233 143.039 28.5689 143.67 28.5689C144.534 28.5689 144.993 29.0097 144.993 29.9173V32.8477ZM147.973 34.5419C147.273 34.5419 146.788 34.4036 146.287 33.9109L146.615 33.4441C146.961 33.8504 147.376 34.006 147.973 34.006C148.665 34.006 149.322 33.6689 149.322 32.7872V32.1561C149.01 32.5797 148.5 32.8995 147.912 32.8995C146.823 32.8995 146.053 32.087 146.053 30.7385C146.053 29.3987 146.814 28.5689 147.912 28.5689C148.474 28.5689 148.985 28.8455 149.322 29.3036V28.6726H149.97V32.7872C149.97 34.1097 148.993 34.5419 147.973 34.5419ZM148.077 32.3204C148.587 32.3204 149.088 32.0092 149.322 31.6461V29.8136C149.088 29.4592 148.587 29.148 148.077 29.148C147.229 29.148 146.728 29.8136 146.728 30.7385C146.728 31.6548 147.229 32.3204 148.077 32.3204ZM154.155 31.7153C154.38 32.0783 154.89 32.3722 155.409 32.3722C156.247 32.3722 156.749 31.6894 156.749 30.7644C156.749 29.8395 156.247 29.148 155.409 29.148C154.89 29.148 154.38 29.4592 154.155 29.8222V31.7153ZM154.155 32.8477H153.506V27.0821H154.155V29.3036C154.492 28.8455 155.002 28.5689 155.564 28.5689C156.662 28.5689 157.423 29.4246 157.423 30.7644C157.423 32.1216 156.654 32.9514 155.564 32.9514C154.976 32.9514 154.466 32.6489 154.155 32.2253V32.8477ZM161.739 32.8477H161.091V32.3722C160.754 32.7526 160.27 32.9514 159.708 32.9514C159.007 32.9514 158.255 32.476 158.255 31.5683C158.255 30.6261 158.999 30.1939 159.708 30.1939C160.278 30.1939 160.754 30.3755 161.091 30.7558V30.0038C161.091 29.4505 160.641 29.1307 160.036 29.1307C159.535 29.1307 159.128 29.3036 158.756 29.7099L158.454 29.2604C158.903 28.7936 159.439 28.5689 160.123 28.5689C161.013 28.5689 161.739 28.9665 161.739 29.9778V32.8477ZM159.95 32.4846C160.399 32.4846 160.84 32.3117 161.091 31.966V31.1707C160.84 30.8336 160.399 30.6607 159.95 30.6607C159.336 30.6607 158.912 31.0411 158.912 31.5683C158.912 32.1043 159.336 32.4846 159.95 32.4846ZM166.722 32.8477H166.074V32.2253C165.762 32.6489 165.252 32.9514 164.664 32.9514C163.575 32.9514 162.805 32.1216 162.805 30.7644C162.805 29.4246 163.575 28.5689 164.664 28.5689C165.226 28.5689 165.736 28.8455 166.074 29.3036V27.0821H166.722V32.8477ZM164.829 32.3722C165.339 32.3722 165.849 32.0697 166.074 31.7066V29.8222C165.849 29.4592 165.339 29.148 164.829 29.148C163.981 29.148 163.48 29.8395 163.48 30.7644C163.48 31.6894 163.981 32.3722 164.829 32.3722ZM170.587 28.0761C170.345 28.0761 170.146 27.886 170.146 27.6439C170.146 27.4019 170.345 27.2031 170.587 27.2031C170.829 27.2031 171.019 27.4019 171.019 27.6439C171.019 27.886 170.829 28.0761 170.587 28.0761ZM170.907 32.8477H170.258V28.6726H170.907V32.8477ZM173.532 32.9514C172.84 32.9514 172.269 32.7353 171.846 32.2944L172.174 31.8277C172.451 32.1475 172.978 32.4241 173.549 32.4241C174.189 32.4241 174.543 32.1216 174.543 31.7066C174.543 30.6953 171.958 31.3177 171.958 29.7704C171.958 29.1134 172.512 28.5689 173.506 28.5689C174.224 28.5689 174.725 28.8368 175.054 29.1739L174.751 29.6234C174.5 29.3209 174.051 29.0961 173.506 29.0961C172.935 29.0961 172.581 29.3814 172.581 29.7531C172.581 30.6607 175.166 30.0643 175.166 31.6894C175.166 32.3895 174.604 32.9514 173.532 32.9514ZM113.764 43.186C113.064 43.186 112.58 43.0477 112.078 42.555L112.407 42.0882C112.753 42.4944 113.168 42.65 113.764 42.65C114.456 42.65 115.113 42.3129 115.113 41.4312V40.8002C114.802 41.2238 114.292 41.5436 113.704 41.5436C112.614 41.5436 111.845 40.7311 111.845 39.3826C111.845 38.0428 112.606 37.2129 113.704 37.2129C114.266 37.2129 114.776 37.4895 115.113 37.9477V37.3166H115.762V41.4312C115.762 42.7538 114.785 43.186 113.764 43.186ZM113.868 40.9644C114.378 40.9644 114.88 40.6533 115.113 40.2902V38.4577C114.88 38.1033 114.378 37.7921 113.868 37.7921C113.021 37.7921 112.519 38.4577 112.519 39.3826C112.519 40.2989 113.021 40.9644 113.868 40.9644ZM118.885 41.5955C117.614 41.5955 116.818 40.61 116.818 39.3999C116.818 38.1897 117.614 37.2129 118.885 37.2129C120.156 37.2129 120.951 38.1897 120.951 39.3999C120.951 40.61 120.156 41.5955 118.885 41.5955ZM118.885 41.0163C119.775 41.0163 120.268 40.2556 120.268 39.3999C120.268 38.5528 119.775 37.7921 118.885 37.7921C117.994 37.7921 117.501 38.5528 117.501 39.3999C117.501 40.2556 117.994 41.0163 118.885 41.0163ZM122.336 36.7202C122.094 36.7202 121.895 36.53 121.895 36.288C121.895 36.046 122.094 35.8472 122.336 35.8472C122.578 35.8472 122.769 36.046 122.769 36.288C122.769 36.53 122.578 36.7202 122.336 36.7202ZM122.656 41.4917H122.008V37.3166H122.656V41.4917ZM127.417 41.4917H126.777V38.7602C126.777 38.0168 126.396 37.7921 125.834 37.7921C125.324 37.7921 124.849 38.1033 124.598 38.4404V41.4917H123.95V37.3166H124.598V37.9217C124.892 37.5673 125.463 37.2129 126.094 37.2129C126.958 37.2129 127.417 37.6538 127.417 38.5614V41.4917ZM130.398 43.186C129.698 43.186 129.213 43.0477 128.712 42.555L129.04 42.0882C129.386 42.4944 129.801 42.65 130.398 42.65C131.09 42.65 131.747 42.3129 131.747 41.4312V40.8002C131.435 41.2238 130.925 41.5436 130.337 41.5436C129.248 41.5436 128.478 40.7311 128.478 39.3826C128.478 38.0428 129.239 37.2129 130.337 37.2129C130.899 37.2129 131.409 37.4895 131.747 37.9477V37.3166H132.395V41.4312C132.395 42.7538 131.418 43.186 130.398 43.186ZM130.502 40.9644C131.012 40.9644 131.513 40.6533 131.747 40.2902V38.4577C131.513 38.1033 131.012 37.7921 130.502 37.7921C129.654 37.7921 129.153 38.4577 129.153 39.3826C129.153 40.2989 129.654 40.9644 130.502 40.9644ZM136.995 41.5955C136.372 41.5955 136.061 41.2411 136.061 40.6187V37.8872H135.369V37.3166H136.061V36.1756H136.718V37.3166H137.566V37.8872H136.718V40.4804C136.718 40.7916 136.857 41.0163 137.133 41.0163C137.323 41.0163 137.488 40.9299 137.574 40.8348L137.764 41.3275C137.6 41.4831 137.367 41.5955 136.995 41.5955ZM140.297 41.5955C139.026 41.5955 138.23 40.61 138.23 39.3999C138.23 38.1897 139.026 37.2129 140.297 37.2129C141.568 37.2129 142.363 38.1897 142.363 39.3999C142.363 40.61 141.568 41.5955 140.297 41.5955ZM140.297 41.0163C141.187 41.0163 141.68 40.2556 141.68 39.3999C141.68 38.5528 141.187 37.7921 140.297 37.7921C139.406 37.7921 138.913 38.5528 138.913 39.3999C138.913 40.2556 139.406 41.0163 140.297 41.0163ZM149.134 41.4917H148.486V38.7429C148.486 37.9995 148.114 37.7921 147.543 37.7921C147.042 37.7921 146.558 38.1033 146.315 38.4404V41.4917H145.667V35.7261H146.315V37.9217C146.601 37.5673 147.171 37.2129 147.803 37.2129C148.676 37.2129 149.134 37.6365 149.134 38.5441V41.4917ZM153.688 41.4917H153.04V41.0163C152.702 41.3967 152.218 41.5955 151.656 41.5955C150.956 41.5955 150.204 41.12 150.204 40.2124C150.204 39.2702 150.947 38.838 151.656 38.838C152.227 38.838 152.702 39.0195 153.04 39.3999V38.6478C153.04 38.0946 152.59 37.7748 151.985 37.7748C151.483 37.7748 151.077 37.9477 150.705 38.3539L150.403 37.9044C150.852 37.4377 151.388 37.2129 152.071 37.2129C152.962 37.2129 153.688 37.6105 153.688 38.6219V41.4917ZM151.898 41.1287C152.348 41.1287 152.789 40.9558 153.04 40.61V39.8148C152.789 39.4777 152.348 39.3048 151.898 39.3048C151.284 39.3048 150.861 39.6851 150.861 40.2124C150.861 40.7483 151.284 41.1287 151.898 41.1287ZM157.055 41.5955C156.484 41.5955 155.991 41.3189 155.646 40.8607V43.0822H154.997V37.3166H155.646V37.939C155.948 37.5155 156.467 37.2129 157.055 37.2129C158.153 37.2129 158.914 38.0428 158.914 39.3999C158.914 40.7483 158.153 41.5955 157.055 41.5955ZM156.891 41.0163C157.729 41.0163 158.231 40.3248 158.231 39.3999C158.231 38.475 157.729 37.7921 156.891 37.7921C156.38 37.7921 155.87 38.0946 155.646 38.4577V40.3421C155.87 40.7051 156.38 41.0163 156.891 41.0163ZM162.002 41.5955C161.432 41.5955 160.939 41.3189 160.593 40.8607V43.0822H159.944V37.3166H160.593V37.939C160.895 37.5155 161.414 37.2129 162.002 37.2129C163.1 37.2129 163.861 38.0428 163.861 39.3999C163.861 40.7483 163.1 41.5955 162.002 41.5955ZM161.838 41.0163C162.677 41.0163 163.178 40.3248 163.178 39.3999C163.178 38.475 162.677 37.7921 161.838 37.7921C161.328 37.7921 160.818 38.0946 160.593 38.4577V40.3421C160.818 40.7051 161.328 41.0163 161.838 41.0163ZM166.786 41.5955C165.541 41.5955 164.651 40.7051 164.651 39.3999C164.651 38.1897 165.515 37.2129 166.708 37.2129C167.971 37.2129 168.714 38.1983 168.714 39.4517V39.616H165.342C165.394 40.4026 165.939 41.0595 166.838 41.0595C167.322 41.0595 167.798 40.8694 168.135 40.5236L168.446 40.9472C168.022 41.3621 167.461 41.5955 166.786 41.5955ZM168.074 39.1319C168.066 38.5182 167.651 37.7488 166.7 37.7488C165.809 37.7488 165.368 38.5009 165.334 39.1319H168.074ZM173.232 41.4917H172.592V38.7602C172.592 38.0168 172.212 37.7921 171.65 37.7921C171.139 37.7921 170.664 38.1033 170.413 38.4404V41.4917H169.765V37.3166H170.413V37.9217C170.707 37.5673 171.278 37.2129 171.909 37.2129C172.774 37.2129 173.232 37.6538 173.232 38.5614V41.4917Z" fill="black"/>
<path d="M230.555 156.458H229.837V150.692H233.615V151.332H230.555V153.19H233.555V153.83H230.555V156.458ZM236.467 156.561C235.222 156.561 234.331 155.671 234.331 154.366C234.331 153.155 235.196 152.179 236.389 152.179C237.651 152.179 238.395 153.164 238.395 154.418V154.582H235.023C235.075 155.368 235.62 156.025 236.519 156.025C237.003 156.025 237.479 155.835 237.816 155.489L238.127 155.913C237.703 156.328 237.141 156.561 236.467 156.561ZM237.755 154.098C237.747 153.484 237.332 152.715 236.38 152.715C235.49 152.715 235.049 153.467 235.014 154.098H237.755ZM242.705 156.458H242.057V155.982C241.719 156.362 241.235 156.561 240.673 156.561C239.973 156.561 239.221 156.086 239.221 155.178C239.221 154.236 239.964 153.804 240.673 153.804C241.244 153.804 241.719 153.985 242.057 154.366V153.614C242.057 153.06 241.607 152.741 241.002 152.741C240.5 152.741 240.094 152.913 239.722 153.32L239.42 152.87C239.869 152.403 240.405 152.179 241.088 152.179C241.979 152.179 242.705 152.576 242.705 153.588V156.458ZM240.915 156.094C241.365 156.094 241.806 155.922 242.057 155.576V154.781C241.806 154.443 241.365 154.271 240.915 154.271C240.302 154.271 239.878 154.651 239.878 155.178C239.878 155.714 240.302 156.094 240.915 156.094ZM244.662 156.458H244.013V152.282H244.662V152.948C244.999 152.516 245.483 152.187 246.054 152.187V152.853C245.976 152.844 245.898 152.836 245.803 152.836C245.397 152.836 244.852 153.164 244.662 153.501V156.458ZM247.697 156.458H247.048V152.853H246.356V152.282H247.048V151.963C247.048 151.107 247.524 150.605 248.259 150.605C248.596 150.605 248.881 150.683 249.14 150.925L248.872 151.34C248.734 151.219 248.57 151.141 248.362 151.141C247.93 151.141 247.697 151.427 247.697 151.963V152.282H248.544V152.853H247.697V156.458ZM252.791 156.458H252.142V155.87C251.822 156.233 251.278 156.561 250.655 156.561C249.782 156.561 249.324 156.129 249.324 155.23V152.282H249.972V155.031C249.972 155.766 250.344 155.982 250.915 155.982C251.416 155.982 251.9 155.688 252.142 155.351V152.282H252.791V156.458ZM254.735 156.458H254.086V150.692H254.735V156.458ZM234.388 165.102H233.609L232.338 160.451L231.067 165.102H230.289L228.646 159.336H229.442L230.722 164.142L232.044 159.336H232.641L233.964 164.142L235.235 159.336H236.039L234.388 165.102ZM238.284 165.205C237.013 165.205 236.218 164.22 236.218 163.01C236.218 161.8 237.013 160.823 238.284 160.823C239.555 160.823 240.351 161.8 240.351 163.01C240.351 164.22 239.555 165.205 238.284 165.205ZM238.284 164.626C239.175 164.626 239.668 163.865 239.668 163.01C239.668 162.163 239.175 161.402 238.284 161.402C237.394 161.402 236.901 162.163 236.901 163.01C236.901 163.865 237.394 164.626 238.284 164.626ZM242.057 165.102H241.408V160.926H242.057V161.592C242.394 161.16 242.878 160.831 243.449 160.831V161.497C243.371 161.488 243.293 161.48 243.198 161.48C242.792 161.48 242.247 161.808 242.057 162.145V165.102ZM244.911 165.102H244.262V160.926H244.911V161.592C245.248 161.16 245.732 160.831 246.303 160.831V161.497C246.225 161.488 246.147 161.48 246.052 161.48C245.646 161.48 245.101 161.808 244.911 162.145V165.102ZM247.445 160.33C247.203 160.33 247.004 160.14 247.004 159.898C247.004 159.656 247.203 159.457 247.445 159.457C247.687 159.457 247.877 159.656 247.877 159.898C247.877 160.14 247.687 160.33 247.445 160.33ZM247.765 165.102H247.116V160.926H247.765V165.102ZM250.952 165.205C249.707 165.205 248.816 164.315 248.816 163.01C248.816 161.8 249.681 160.823 250.874 160.823C252.136 160.823 252.88 161.808 252.88 163.062V163.226H249.508C249.56 164.012 250.105 164.669 251.004 164.669C251.488 164.669 251.963 164.479 252.301 164.133L252.612 164.557C252.188 164.972 251.626 165.205 250.952 165.205ZM252.24 162.742C252.231 162.128 251.816 161.359 250.865 161.359C249.975 161.359 249.534 162.111 249.499 162.742H252.24ZM257.604 165.102H256.956V164.479C256.644 164.903 256.134 165.205 255.546 165.205C254.457 165.205 253.687 164.375 253.687 163.018C253.687 161.679 254.457 160.823 255.546 160.823C256.108 160.823 256.619 161.099 256.956 161.558V159.336H257.604V165.102ZM255.711 164.626C256.221 164.626 256.731 164.324 256.956 163.961V162.076C256.731 161.713 256.221 161.402 255.711 161.402C254.863 161.402 254.362 162.093 254.362 163.018C254.362 163.943 254.863 164.626 255.711 164.626Z" fill="black"/>
<path d="M21.7607 146.949H20.9393L20.4292 145.661H17.5587L17.0486 146.949H16.2272L18.553 141.184H19.4435L21.7607 146.949ZM20.2217 145.03L18.9939 141.918L17.7748 145.03H20.2217ZM24.1442 146.949H23.4352L21.6973 142.774H22.4063L23.7897 146.197L25.1817 142.774H25.8821L24.1442 146.949ZM28.3829 147.053C27.1119 147.053 26.3165 146.067 26.3165 144.857C26.3165 143.647 27.1119 142.67 28.3829 142.67C29.6539 142.67 30.4493 143.647 30.4493 144.857C30.4493 146.067 29.6539 147.053 28.3829 147.053ZM28.3829 146.474C29.2734 146.474 29.7663 145.713 29.7663 144.857C29.7663 144.01 29.2734 143.25 28.3829 143.25C27.4923 143.25 26.9995 144.01 26.9995 144.857C26.9995 145.713 27.4923 146.474 28.3829 146.474ZM31.835 142.178C31.5929 142.178 31.394 141.987 31.394 141.745C31.394 141.503 31.5929 141.305 31.835 141.305C32.077 141.305 32.2673 141.503 32.2673 141.745C32.2673 141.987 32.077 142.178 31.835 142.178ZM32.1549 146.949H31.5064V142.774H32.1549V146.949ZM37.123 146.949H36.4746V146.327C36.1633 146.75 35.6532 147.053 35.0652 147.053C33.9758 147.053 33.2063 146.223 33.2063 144.866C33.2063 143.526 33.9758 142.67 35.0652 142.67C35.6272 142.67 36.1374 142.947 36.4746 143.405V141.184H37.123V146.949ZM35.2295 146.474C35.7396 146.474 36.2498 146.171 36.4746 145.808V143.924C36.2498 143.561 35.7396 143.25 35.2295 143.25C34.3822 143.25 33.8807 143.941 33.8807 144.866C33.8807 145.791 34.3822 146.474 35.2295 146.474ZM41.6813 146.949H41.0328V146.474C40.6956 146.854 40.2114 147.053 39.6494 147.053C38.9491 147.053 38.1969 146.577 38.1969 145.67C38.1969 144.728 38.9405 144.295 39.6494 144.295C40.2201 144.295 40.6956 144.477 41.0328 144.857V144.105C41.0328 143.552 40.5832 143.232 39.978 143.232C39.4765 143.232 39.0701 143.405 38.6984 143.811L38.3957 143.362C38.8453 142.895 39.3814 142.67 40.0645 142.67C40.955 142.67 41.6813 143.068 41.6813 144.079V146.949ZM39.8915 146.586C40.3411 146.586 40.7821 146.413 41.0328 146.067V145.272C40.7821 144.935 40.3411 144.762 39.8915 144.762C39.2777 144.762 38.854 145.143 38.854 145.67C38.854 146.206 39.2777 146.586 39.8915 146.586ZM46.4567 146.949H45.8169V144.218C45.8169 143.474 45.4365 143.25 44.8745 143.25C44.3644 143.25 43.8888 143.561 43.6381 143.898V146.949H42.9896V142.774H43.6381V143.379C43.932 143.025 44.5027 142.67 45.1339 142.67C45.9985 142.67 46.4567 143.111 46.4567 144.019V146.949ZM49.6019 147.053C48.3568 147.053 47.5181 146.093 47.5181 144.857C47.5181 143.621 48.3568 142.67 49.6019 142.67C50.3627 142.67 50.8123 142.982 51.1322 143.396L50.6999 143.785C50.4232 143.405 50.0687 143.25 49.6364 143.25C48.7545 143.25 48.1925 143.932 48.1925 144.857C48.1925 145.782 48.7545 146.474 49.6364 146.474C50.0687 146.474 50.4232 146.301 50.6999 145.929L51.1322 146.327C50.8123 146.742 50.3627 147.053 49.6019 147.053ZM53.943 147.053C52.698 147.053 51.8074 146.163 51.8074 144.857C51.8074 143.647 52.672 142.67 53.8652 142.67C55.1275 142.67 55.8711 143.656 55.8711 144.909V145.073H52.4991C52.551 145.86 53.0957 146.517 53.9949 146.517C54.4791 146.517 54.9546 146.327 55.2918 145.981L55.6031 146.405C55.1794 146.82 54.6174 147.053 53.943 147.053ZM55.2313 144.589C55.2226 143.976 54.8076 143.206 53.8565 143.206C52.966 143.206 52.525 143.958 52.4904 144.589H55.2313ZM57.7356 146.742C57.7356 147.269 57.4329 147.762 57.0352 148.047L56.7067 147.779C56.9833 147.597 57.2341 147.26 57.2687 146.975C57.2514 146.984 57.1908 146.992 57.1476 146.992C56.9142 146.992 56.7326 146.802 56.7326 146.552C56.7326 146.301 56.9315 146.085 57.1908 146.085C57.4848 146.085 57.7356 146.327 57.7356 146.742ZM9.00504 155.593H8.28738V149.828H9.00504V155.593ZM13.7972 155.593H13.1574V152.862C13.1574 152.118 12.7769 151.894 12.2149 151.894C11.7048 151.894 11.2293 152.205 10.9785 152.542V155.593H10.3301V151.418H10.9785V152.023C11.2725 151.669 11.8431 151.314 12.4743 151.314C13.3389 151.314 13.7972 151.755 13.7972 152.663V155.593ZM16.9423 155.697C15.6973 155.697 14.8586 154.737 14.8586 153.501C14.8586 152.265 15.6973 151.314 16.9423 151.314C17.7032 151.314 18.1528 151.626 18.4727 152.041L18.0404 152.43C17.7637 152.049 17.4092 151.894 16.9769 151.894C16.095 151.894 15.533 152.576 15.533 153.501C15.533 154.426 16.095 155.118 16.9769 155.118C17.4092 155.118 17.7637 154.945 18.0404 154.573L18.4727 154.971C18.1528 155.386 17.7032 155.697 16.9423 155.697ZM20.0385 155.593H19.39V151.418H20.0385V152.084C20.3757 151.652 20.8599 151.323 21.4305 151.323V151.989C21.3527 151.98 21.2749 151.971 21.1798 151.971C20.7734 151.971 20.2287 152.3 20.0385 152.637V155.593ZM24.1374 155.697C22.8923 155.697 22.0018 154.807 22.0018 153.501C22.0018 152.291 22.8664 151.314 24.0596 151.314C25.3219 151.314 26.0655 152.3 26.0655 153.553V153.717H22.6935C22.7453 154.504 23.29 155.161 24.1892 155.161C24.6734 155.161 25.149 154.971 25.4862 154.625L25.7974 155.049C25.3738 155.464 24.8118 155.697 24.1374 155.697ZM25.4256 153.233C25.417 152.62 25.002 151.85 24.0509 151.85C23.1604 151.85 22.7194 152.602 22.6848 153.233H25.4256ZM30.3754 155.593H29.7269V155.118C29.3897 155.498 28.9056 155.697 28.3436 155.697C27.6432 155.697 26.891 155.222 26.891 154.314C26.891 153.372 27.6346 152.94 28.3436 152.94C28.9142 152.94 29.3897 153.121 29.7269 153.501V152.749C29.7269 152.196 29.2773 151.876 28.6721 151.876C28.1706 151.876 27.7643 152.049 27.3925 152.455L27.0899 152.006C27.5395 151.539 28.0755 151.314 28.7586 151.314C29.6491 151.314 30.3754 151.712 30.3754 152.723V155.593ZM28.5856 155.23C29.0352 155.23 29.4762 155.057 29.7269 154.712V153.916C29.4762 153.579 29.0352 153.406 28.5856 153.406C27.9718 153.406 27.5481 153.787 27.5481 154.314C27.5481 154.85 27.9718 155.23 28.5856 155.23ZM33.0152 155.697C32.3236 155.697 31.7529 155.481 31.3292 155.04L31.6578 154.573C31.9345 154.893 32.4619 155.17 33.0325 155.17C33.6724 155.17 34.0268 154.867 34.0268 154.452C34.0268 153.441 31.4416 154.063 31.4416 152.516C31.4416 151.859 31.995 151.314 32.9893 151.314C33.7069 151.314 34.2084 151.582 34.537 151.92L34.2344 152.369C33.9836 152.066 33.534 151.842 32.9893 151.842C32.4187 151.842 32.0642 152.127 32.0642 152.499C32.0642 153.406 34.6494 152.81 34.6494 154.435C34.6494 155.135 34.0874 155.697 33.0152 155.697ZM37.5963 155.697C36.3513 155.697 35.4607 154.807 35.4607 153.501C35.4607 152.291 36.3253 151.314 37.5185 151.314C38.7808 151.314 39.5244 152.3 39.5244 153.553V153.717H36.1524C36.2043 154.504 36.749 155.161 37.6482 155.161C38.1324 155.161 38.6079 154.971 38.9451 154.625L39.2564 155.049C38.8327 155.464 38.2707 155.697 37.5963 155.697ZM38.8846 153.233C38.876 152.62 38.4609 151.85 37.5099 151.85C36.6193 151.85 36.1784 152.602 36.1438 153.233H38.8846ZM44.2494 155.593H43.6009V154.971C43.2896 155.394 42.7795 155.697 42.1916 155.697C41.1022 155.697 40.3327 154.867 40.3327 153.51C40.3327 152.17 41.1022 151.314 42.1916 151.314C42.7536 151.314 43.2637 151.591 43.6009 152.049V149.828H44.2494V155.593ZM42.3559 155.118C42.866 155.118 43.3761 154.815 43.6009 154.452V152.568C43.3761 152.205 42.866 151.894 42.3559 151.894C41.5085 151.894 41.0071 152.585 41.0071 153.51C41.0071 154.435 41.5085 155.118 42.3559 155.118ZM51.2613 155.593H50.6129V152.844C50.6129 152.101 50.2411 151.894 49.6704 151.894C49.1689 151.894 48.6848 152.205 48.4427 152.542V155.593H47.7942V149.828H48.4427V152.023C48.728 151.669 49.2986 151.314 49.9298 151.314C50.8031 151.314 51.2613 151.738 51.2613 152.646V155.593ZM54.4496 155.697C53.2045 155.697 52.314 154.807 52.314 153.501C52.314 152.291 53.1786 151.314 54.3718 151.314C55.6341 151.314 56.3777 152.3 56.3777 153.553V153.717H53.0057C53.0575 154.504 53.6023 155.161 54.5015 155.161C54.9856 155.161 55.4612 154.971 55.7984 154.625L56.1096 155.049C55.686 155.464 55.124 155.697 54.4496 155.697ZM55.7379 153.233C55.7292 152.62 55.3142 151.85 54.3631 151.85C53.4726 151.85 53.0316 152.602 52.997 153.233H55.7379ZM60.6876 155.593H60.0391V155.118C59.7019 155.498 59.2178 155.697 58.6558 155.697C57.9554 155.697 57.2032 155.222 57.2032 154.314C57.2032 153.372 57.9468 152.94 58.6558 152.94C59.2264 152.94 59.7019 153.121 60.0391 153.501V152.749C60.0391 152.196 59.5895 151.876 58.9843 151.876C58.4828 151.876 58.0765 152.049 57.7047 152.455L57.4021 152.006C57.8517 151.539 58.3877 151.314 59.0708 151.314C59.9613 151.314 60.6876 151.712 60.6876 152.723V155.593ZM58.8979 155.23C59.3475 155.23 59.7884 155.057 60.0391 154.712V153.916C59.7884 153.579 59.3475 153.406 58.8979 153.406C58.284 153.406 57.8603 153.787 57.8603 154.314C57.8603 154.85 58.284 155.23 58.8979 155.23ZM62.6444 155.593H61.9959V151.418H62.6444V152.084C62.9816 151.652 63.4658 151.323 64.0364 151.323V151.989C63.9586 151.98 63.8808 151.971 63.7857 151.971C63.3793 151.971 62.8346 152.3 62.6444 152.637V155.593ZM65.9133 155.697C65.2908 155.697 64.9796 155.343 64.9796 154.72V151.989H64.2879V151.418H64.9796V150.277H65.6367V151.418H66.484V151.989H65.6367V154.582C65.6367 154.893 65.775 155.118 66.0517 155.118C66.2419 155.118 66.4062 155.031 66.4926 154.936L66.6828 155.429C66.5186 155.585 66.2851 155.697 65.9133 155.697ZM8.52151 164.237H7.87305V160.062H8.52151V160.728C8.85867 160.296 9.34285 159.967 9.9135 159.967V160.633C9.83568 160.624 9.75787 160.615 9.66276 160.615C9.25639 160.615 8.71168 160.944 8.52151 161.281V164.237ZM12.6204 164.341C11.3754 164.341 10.4848 163.451 10.4848 162.145C10.4848 160.935 11.3494 159.959 12.5426 159.959C13.805 159.959 14.5485 160.944 14.5485 162.197V162.362H11.1765C11.2284 163.148 11.7731 163.805 12.6723 163.805C13.1565 163.805 13.632 163.615 13.9692 163.269L14.2805 163.693C13.8568 164.108 13.2948 164.341 12.6204 164.341ZM13.9087 161.877C13.9001 161.264 13.485 160.494 12.534 160.494C11.6434 160.494 11.2025 161.246 11.1679 161.877H13.9087ZM18.8585 164.237H18.21V163.762C17.8728 164.142 17.3886 164.341 16.8266 164.341C16.1263 164.341 15.3741 163.866 15.3741 162.958C15.3741 162.016 16.1176 161.584 16.8266 161.584C17.3973 161.584 17.8728 161.765 18.21 162.145V161.393C18.21 160.84 17.7604 160.52 17.1552 160.52C16.6537 160.52 16.2473 160.693 15.8755 161.1L15.5729 160.65C16.0225 160.183 16.5586 159.959 17.2416 159.959C18.1322 159.959 18.8585 160.356 18.8585 161.367V164.237ZM17.0687 163.874C17.5183 163.874 17.9593 163.701 18.21 163.356V162.56C17.9593 162.223 17.5183 162.05 17.0687 162.05C16.4548 162.05 16.0312 162.431 16.0312 162.958C16.0312 163.494 16.4548 163.874 17.0687 163.874ZM21.2303 164.341C20.6078 164.341 20.2965 163.987 20.2965 163.364V160.633H19.6048V160.062H20.2965V158.921H20.9536V160.062H21.8009V160.633H20.9536V163.226C20.9536 163.537 21.0919 163.762 21.3686 163.762C21.5588 163.762 21.7231 163.675 21.8096 163.58L21.9998 164.073C21.8355 164.229 21.6021 164.341 21.2303 164.341ZM24.6018 164.341C23.3567 164.341 22.4662 163.451 22.4662 162.145C22.4662 160.935 23.3308 159.959 24.5239 159.959C25.7863 159.959 26.5299 160.944 26.5299 162.197V162.362H23.1578C23.2097 163.148 23.7544 163.805 24.6536 163.805C25.1378 163.805 25.6134 163.615 25.9506 163.269L26.2618 163.693C25.8382 164.108 25.2762 164.341 24.6018 164.341ZM25.89 161.877C25.8814 161.264 25.4664 160.494 24.5153 160.494C23.6247 160.494 23.1838 161.246 23.1492 161.877H25.89ZM28.3944 164.03C28.3944 164.557 28.0918 165.05 27.6941 165.335L27.3655 165.067C27.6422 164.886 27.8929 164.549 27.9275 164.263C27.9102 164.272 27.8497 164.281 27.8065 164.281C27.573 164.281 27.3914 164.09 27.3914 163.84C27.3914 163.589 27.5903 163.373 27.8497 163.373C28.1437 163.373 28.3944 163.615 28.3944 164.03ZM33.0828 164.341C32.3911 164.341 31.8204 164.125 31.3968 163.684L31.7253 163.217C32.002 163.537 32.5294 163.814 33.1001 163.814C33.7399 163.814 34.0944 163.511 34.0944 163.096C34.0944 162.085 31.5092 162.707 31.5092 161.16C31.5092 160.503 32.0625 159.959 33.0568 159.959C33.7745 159.959 34.2759 160.226 34.6045 160.564L34.3019 161.013C34.0511 160.711 33.6015 160.486 33.0568 160.486C32.4862 160.486 32.1317 160.771 32.1317 161.143C32.1317 162.05 34.7169 161.454 34.7169 163.079C34.7169 163.779 34.1549 164.341 33.0828 164.341ZM40.0416 164.237H39.3845L38.2951 160.883L37.2057 164.237H36.5572L35.2257 160.062H35.9001L36.9204 163.39L38.0184 160.062H38.5804L39.6698 163.39L40.6901 160.062H41.3731L40.0416 164.237ZM44.0134 164.341C42.7684 164.341 41.8778 163.451 41.8778 162.145C41.8778 160.935 42.7424 159.959 43.9356 159.959C45.1979 159.959 45.9415 160.944 45.9415 162.197V162.362H42.5695C42.6214 163.148 43.1661 163.805 44.0653 163.805C44.5495 163.805 45.025 163.615 45.3622 163.269L45.6735 163.693C45.2498 164.108 44.6878 164.341 44.0134 164.341ZM45.3017 161.877C45.293 161.264 44.878 160.494 43.927 160.494C43.0364 160.494 42.5954 161.246 42.5609 161.877H45.3017ZM50.2514 164.237H49.603V163.762C49.2658 164.142 48.7816 164.341 48.2196 164.341C47.5193 164.341 46.767 163.866 46.767 162.958C46.767 162.016 47.5106 161.584 48.2196 161.584C48.7902 161.584 49.2658 161.765 49.603 162.145V161.393C49.603 160.84 49.1534 160.52 48.5481 160.52C48.0467 160.52 47.6403 160.693 47.2685 161.1L46.9659 160.65C47.4155 160.183 47.9516 159.959 48.6346 159.959C49.5252 159.959 50.2514 160.356 50.2514 161.367V164.237ZM48.4617 163.874C48.9113 163.874 49.3522 163.701 49.603 163.356V162.56C49.3522 162.223 48.9113 162.05 48.4617 162.05C47.8478 162.05 47.4241 162.431 47.4241 162.958C47.4241 163.494 47.8478 163.874 48.4617 163.874ZM52.6233 164.341C52.0007 164.341 51.6895 163.987 51.6895 163.364V160.633H50.9978V160.062H51.6895V158.921H52.3466V160.062H53.1939V160.633H52.3466V163.226C52.3466 163.537 52.4849 163.762 52.7616 163.762C52.9518 163.762 53.1161 163.675 53.2025 163.58L53.3928 164.073C53.2285 164.229 52.995 164.341 52.6233 164.341ZM54.4298 159.466C54.1877 159.466 53.9888 159.276 53.9888 159.034C53.9888 158.792 54.1877 158.593 54.4298 158.593C54.6719 158.593 54.8621 158.792 54.8621 159.034C54.8621 159.276 54.6719 159.466 54.4298 159.466ZM54.7497 164.237H54.1012V160.062H54.7497V164.237ZM59.5103 164.237H58.8705V161.506C58.8705 160.762 58.4901 160.538 57.9281 160.538C57.418 160.538 56.9424 160.849 56.6917 161.186V164.237H56.0432V160.062H56.6917V160.667C56.9857 160.313 57.5563 159.959 58.1875 159.959C59.0521 159.959 59.5103 160.399 59.5103 161.307V164.237ZM62.4912 165.932C61.7909 165.932 61.3067 165.793 60.8052 165.301L61.1338 164.834C61.4796 165.24 61.8946 165.396 62.4912 165.396C63.1829 165.396 63.84 165.059 63.84 164.177V163.546C63.5287 163.969 63.0186 164.289 62.4307 164.289C61.3413 164.289 60.5717 163.477 60.5717 162.128C60.5717 160.788 61.3326 159.959 62.4307 159.959C62.9927 159.959 63.5028 160.235 63.84 160.693V160.062H64.4885V164.177C64.4885 165.499 63.5114 165.932 62.4912 165.932ZM62.5949 163.71C63.1051 163.71 63.6065 163.399 63.84 163.036V161.203C63.6065 160.849 63.1051 160.538 62.5949 160.538C61.7476 160.538 61.2461 161.203 61.2461 162.128C61.2461 163.044 61.7476 163.71 62.5949 163.71ZM66.6604 164.03C66.6604 164.557 66.3578 165.05 65.96 165.335L65.6315 165.067C65.9081 164.886 66.1589 164.549 66.1935 164.263C66.1762 164.272 66.1157 164.281 66.0724 164.281C65.839 164.281 65.6574 164.09 65.6574 163.84C65.6574 163.589 65.8563 163.373 66.1157 163.373C66.4096 163.373 66.6604 163.615 66.6604 164.03ZM13.8484 172.985C13.1568 172.985 12.5861 172.769 12.1624 172.328L12.491 171.861C12.7677 172.181 13.2951 172.458 13.8657 172.458C14.5056 172.458 14.86 172.155 14.86 171.74C14.86 170.729 12.2748 171.351 12.2748 169.804C12.2748 169.147 12.8282 168.603 13.8225 168.603C14.5401 168.603 15.0416 168.871 15.3702 169.208L15.0676 169.657C14.8168 169.355 14.3672 169.13 13.8225 169.13C13.2519 169.13 12.8974 169.415 12.8974 169.787C12.8974 170.694 15.4826 170.098 15.4826 171.723C15.4826 172.423 14.9206 172.985 13.8484 172.985ZM17.5996 172.985C16.9771 172.985 16.6658 172.631 16.6658 172.008V169.277H15.9741V168.706H16.6658V167.565H17.3229V168.706H18.1702V169.277H17.3229V171.87C17.3229 172.181 17.4612 172.406 17.7379 172.406C17.9281 172.406 18.0924 172.32 18.1789 172.224L18.3691 172.717C18.2048 172.873 17.9714 172.985 17.5996 172.985ZM20.9019 172.985C19.6309 172.985 18.8355 172 18.8355 170.79C18.8355 169.579 19.6309 168.603 20.9019 168.603C22.1729 168.603 22.9683 169.579 22.9683 170.79C22.9683 172 22.1729 172.985 20.9019 172.985ZM20.9019 172.406C21.7924 172.406 22.2853 171.645 22.2853 170.79C22.2853 169.942 21.7924 169.182 20.9019 169.182C20.0113 169.182 19.5185 169.942 19.5185 170.79C19.5185 171.645 20.0113 172.406 20.9019 172.406ZM29.7147 172.881H29.0662V170.046C29.0662 169.519 28.8414 169.182 28.2967 169.182C27.8644 169.182 27.4061 169.484 27.19 169.821V172.881H26.5415V170.046C26.5415 169.519 26.3254 169.182 25.772 169.182C25.3484 169.182 24.8988 169.493 24.674 169.83V172.881H24.0255V168.706H24.674V169.311C24.8555 169.043 25.4089 168.603 26.0314 168.603C26.6626 168.603 27.0257 168.948 27.1468 169.381C27.3802 169 27.9422 168.603 28.5474 168.603C29.3083 168.603 29.7147 169.026 29.7147 169.865V172.881ZM34.2679 172.881H33.6194V172.406C33.2822 172.786 32.7981 172.985 32.2361 172.985C31.5357 172.985 30.7835 172.51 30.7835 171.602C30.7835 170.66 31.5271 170.228 32.2361 170.228C32.8067 170.228 33.2822 170.409 33.6194 170.79V170.037C33.6194 169.484 33.1698 169.164 32.5646 169.164C32.0631 169.164 31.6568 169.337 31.285 169.744L30.9824 169.294C31.432 168.827 31.968 168.603 32.6511 168.603C33.5416 168.603 34.2679 169 34.2679 170.012V172.881ZM32.4781 172.518C32.9277 172.518 33.3687 172.345 33.6194 172V171.204C33.3687 170.867 32.9277 170.694 32.4781 170.694C31.8643 170.694 31.4406 171.075 31.4406 171.602C31.4406 172.138 31.8643 172.518 32.4781 172.518ZM37.4179 172.985C36.1728 172.985 35.3341 172.026 35.3341 170.79C35.3341 169.553 36.1728 168.603 37.4179 168.603C38.1787 168.603 38.6283 168.914 38.9482 169.329L38.5159 169.718C38.2393 169.337 37.8848 169.182 37.4524 169.182C36.5705 169.182 36.0085 169.865 36.0085 170.79C36.0085 171.714 36.5705 172.406 37.4524 172.406C37.8848 172.406 38.2393 172.233 38.5159 171.861L38.9482 172.259C38.6283 172.674 38.1787 172.985 37.4179 172.985ZM43.3413 172.881H42.6928V170.133C42.6928 169.389 42.321 169.182 41.7504 169.182C41.2489 169.182 40.7647 169.493 40.5226 169.83V172.881H39.8742V167.116H40.5226V169.311C40.8079 168.957 41.3786 168.603 42.0098 168.603C42.883 168.603 43.3413 169.026 43.3413 169.934V172.881ZM47.8957 172.881H47.2472V172.406C46.91 172.786 46.4259 172.985 45.8639 172.985C45.1635 172.985 44.4113 172.51 44.4113 171.602C44.4113 170.66 45.1549 170.228 45.8639 170.228C46.4345 170.228 46.91 170.409 47.2472 170.79V170.037C47.2472 169.484 46.7976 169.164 46.1924 169.164C45.6909 169.164 45.2846 169.337 44.9128 169.744L44.6102 169.294C45.0598 168.827 45.5958 168.603 46.2789 168.603C47.1694 168.603 47.8957 169 47.8957 170.012V172.881ZM46.106 172.518C46.5556 172.518 46.9965 172.345 47.2472 172V171.204C46.9965 170.867 46.5556 170.694 46.106 170.694C45.4921 170.694 45.0684 171.075 45.0684 171.602C45.0684 172.138 45.4921 172.518 46.106 172.518ZM51.0457 172.985C49.8006 172.985 48.962 172.026 48.962 170.79C48.962 169.553 49.8006 168.603 51.0457 168.603C51.8065 168.603 52.2561 168.914 52.576 169.329L52.1437 169.718C51.8671 169.337 51.5126 169.182 51.0803 169.182C50.1984 169.182 49.6363 169.865 49.6363 170.79C49.6363 171.714 50.1984 172.406 51.0803 172.406C51.5126 172.406 51.8671 172.233 52.1437 171.861L52.576 172.259C52.2561 172.674 51.8065 172.985 51.0457 172.985ZM56.9691 172.881H56.3206V170.133C56.3206 169.389 55.9488 169.182 55.3782 169.182C54.8767 169.182 54.3925 169.493 54.1504 169.83V172.881H53.502V167.116H54.1504V169.311C54.4357 168.957 55.0064 168.603 55.6376 168.603C56.5108 168.603 56.9691 169.026 56.9691 169.934V172.881ZM60.1574 172.985C58.9124 172.985 58.0218 172.095 58.0218 170.79C58.0218 169.579 58.8864 168.603 60.0796 168.603C61.3419 168.603 62.0855 169.588 62.0855 170.841V171.006H58.7135C58.7654 171.792 59.3101 172.449 60.2093 172.449C60.6935 172.449 61.169 172.259 61.5062 171.913L61.8175 172.337C61.3938 172.752 60.8318 172.985 60.1574 172.985ZM61.4457 170.522C61.4371 169.908 61.022 169.139 60.071 169.139C59.1804 169.139 58.7395 169.891 58.7049 170.522H61.4457Z" fill="black"/>
</g>
<defs>
<filter id="filter0_d_862_21171" x="75.7812" y="123.552" width="38.2227" height="41.0884" filterUnits="userSpaceOnUse" color-interpolation-filters="sRGB">
<feFlood flood-opacity="0" result="BackgroundImageFix"/>
<feColorMatrix in="SourceAlpha" type="matrix" values="0 0 0 0 0 0 0 0 0 0 0 0 0 0 0 0 0 0 127 0" result="hardAlpha"/>
<feOffset dy="2"/>
<feGaussianBlur stdDeviation="4"/>
<feComposite in2="hardAlpha" operator="out"/>
<feColorMatrix type="matrix" values="0 0 0 0 0 0 0 0 0 0.352941 0 0 0 0 0.560784 0 0 0 0.25 0"/>
<feBlend mode="normal" in2="BackgroundImageFix" result="effect1_dropShadow_862_21171"/>
<feBlend mode="normal" in="SourceGraphic" in2="effect1_dropShadow_862_21171" result="shape"/>
</filter>
<filter id="filter1_d_862_21171" x="168.484" y="122.626" width="36.8848" height="44.313" filterUnits="userSpaceOnUse" color-interpolation-filters="sRGB">
<feFlood flood-opacity="0" result="BackgroundImageFix"/>
<feColorMatrix in="SourceAlpha" type="matrix" values="0 0 0 0 0 0 0 0 0 0 0 0 0 0 0 0 0 0 127 0" result="hardAlpha"/>
<feOffset dy="2"/>
<feGaussianBlur stdDeviation="4"/>
<feComposite in2="hardAlpha" operator="out"/>
<feColorMatrix type="matrix" values="0 0 0 0 0 0 0 0 0 0.352941 0 0 0 0 0.560784 0 0 0 0.25 0"/>
<feBlend mode="normal" in2="BackgroundImageFix" result="effect1_dropShadow_862_21171"/>
<feBlend mode="normal" in="SourceGraphic" in2="effect1_dropShadow_862_21171" result="shape"/>
</filter>
<filter id="filter2_d_862_21171" x="119.076" y="191.929" width="47.168" height="30.7354" filterUnits="userSpaceOnUse" color-interpolation-filters="sRGB">
<feFlood flood-opacity="0" result="BackgroundImageFix"/>
<feColorMatrix in="SourceAlpha" type="matrix" values="0 0 0 0 0 0 0 0 0 0 0 0 0 0 0 0 0 0 127 0" result="hardAlpha"/>
<feOffset dy="2"/>
<feGaussianBlur stdDeviation="4"/>
<feComposite in2="hardAlpha" operator="out"/>
<feColorMatrix type="matrix" values="0 0 0 0 0 0 0 0 0 0.352941 0 0 0 0 0.560784 0 0 0 0.25 0"/>
<feBlend mode="normal" in2="BackgroundImageFix" result="effect1_dropShadow_862_21171"/>
<feBlend mode="normal" in="SourceGraphic" in2="effect1_dropShadow_862_21171" result="shape"/>
</filter>
<linearGradient id="paint0_linear_862_21171" x1="72.2265" y1="161.851" x2="86.427" y2="169.65" gradientUnits="userSpaceOnUse">
<stop stop-color="#49C3B1"/>
<stop offset="1" stop-color="#0071A3"/>
</linearGradient>
<linearGradient id="paint1_linear_862_21171" x1="89.2179" y1="137.34" x2="100.576" y2="146.782" gradientUnits="userSpaceOnUse">
<stop stop-color="white"/>
<stop offset="1" stop-color="#D0D0D0" stop-opacity="0"/>
</linearGradient>
<linearGradient id="paint2_linear_862_21171" x1="196.71" y1="171.221" x2="209.278" y2="160.998" gradientUnits="userSpaceOnUse">
<stop stop-color="#49C3B1"/>
<stop offset="1" stop-color="#0071A3"/>
</linearGradient>
<linearGradient id="paint3_linear_862_21171" x1="180.393" y1="146.257" x2="193.414" y2="139.286" gradientUnits="userSpaceOnUse">
<stop stop-color="white"/>
<stop offset="1" stop-color="#D0D0D0" stop-opacity="0"/>
</linearGradient>
<linearGradient id="paint4_linear_862_21171" x1="171.884" y1="210.055" x2="168.786" y2="194.244" gradientUnits="userSpaceOnUse">
<stop stop-color="#49C3B1"/>
<stop offset="1" stop-color="#0071A3"/>
</linearGradient>
<linearGradient id="paint5_linear_862_21171" x1="142.66" y1="212.644" x2="142.66" y2="197.949" gradientUnits="userSpaceOnUse">
<stop stop-color="white"/>
<stop offset="1" stop-color="#D0D0D0" stop-opacity="0"/>
</linearGradient>
<clipPath id="clip0_862_21171">
<rect width="281" height="255" fill="white"/>
</clipPath>
</defs>
</svg>
