<svg width="44" height="53" viewBox="0 0 44 53" fill="none" xmlns="http://www.w3.org/2000/svg">
<g filter="url(#filter0_d_1845_35143)">
<path d="M16.7932 11.2031C16.7932 14.0938 19.1235 16.4062 22.0364 16.4062C24.8765 16.4062 27.2796 14.0938 27.2796 11.2031C27.2796 8.38477 24.8765 6 22.0364 6C19.1235 6 16.7932 8.38477 16.7932 11.2031ZM35.29 11.3477C34.4161 10.4082 32.8869 10.4082 32.013 11.3477L25.6775 17.5625H18.3225L11.987 11.3477C11.1131 10.4082 9.58388 10.4082 8.71001 11.3477C7.76333 12.2148 7.76333 13.7324 8.71001 14.5996L15.6281 21.4648V40.6875C15.6281 41.9883 16.6476 43 17.9584 43H19.1235C20.3615 43 21.4538 41.9883 21.4538 40.6875V32.5938H22.619V40.6875C22.619 41.9883 23.6385 43 24.9493 43H26.1144C27.3524 43 28.4447 41.9883 28.4447 40.6875V21.4648L35.29 14.5996C36.2367 13.7324 36.2367 12.2148 35.29 11.3477Z" fill="url(#paint0_linear_1845_35143)"/>
<path d="M35.1802 11.4498L35.1798 11.4501L35.1887 11.4583C36.0704 12.266 36.0704 13.6813 35.1887 14.489L35.1886 14.4889L35.1838 14.4937L28.3385 21.3589L28.2947 21.4028V21.4648V40.6875C28.2947 41.9013 27.2737 42.85 26.1144 42.85H24.9493C23.7202 42.85 22.769 41.9044 22.769 40.6875V32.5938V32.4438H22.619H21.4538H21.3038V32.5938V40.6875C21.3038 41.9013 20.2828 42.85 19.1235 42.85H17.9584C16.7294 42.85 15.7781 41.9044 15.7781 40.6875V21.4648V21.4024L15.7337 21.3584L8.81567 14.4931L8.81576 14.4931L8.81133 14.489C7.92956 13.6813 7.92956 12.266 8.81133 11.4583L8.81166 11.4586L8.81984 11.4498C9.63438 10.5741 11.0626 10.5741 11.8772 11.4498L11.8771 11.4499L11.882 11.4547L18.2175 17.6696L18.2612 17.7125H18.3225H25.6775H25.7388L25.7825 17.6696L32.118 11.4547L32.1182 11.4548L32.1228 11.4498C32.9374 10.5741 34.3656 10.5741 35.1802 11.4498ZM22.0364 16.2563C19.2053 16.2563 16.9432 14.0098 16.9432 11.2031C16.9432 8.46734 19.2066 6.15 22.0364 6.15C24.7947 6.15 27.1296 8.46869 27.1296 11.2031C27.1296 14.0085 24.7961 16.2563 22.0364 16.2563Z" stroke="url(#paint1_linear_1845_35143)" stroke-width="0.3"/>
</g>
<defs>
<filter id="filter0_d_1845_35143" x="0" y="0" width="44" height="53" filterUnits="userSpaceOnUse" color-interpolation-filters="sRGB">
<feFlood flood-opacity="0" result="BackgroundImageFix"/>
<feColorMatrix in="SourceAlpha" type="matrix" values="0 0 0 0 0 0 0 0 0 0 0 0 0 0 0 0 0 0 127 0" result="hardAlpha"/>
<feOffset dy="2"/>
<feGaussianBlur stdDeviation="4"/>
<feComposite in2="hardAlpha" operator="out"/>
<feColorMatrix type="matrix" values="0 0 0 0 0 0 0 0 0 0.352941 0 0 0 0 0.560784 0 0 0 0.25 0"/>
<feBlend mode="normal" in2="BackgroundImageFix" result="effect1_dropShadow_1845_35143"/>
<feBlend mode="normal" in="SourceGraphic" in2="effect1_dropShadow_1845_35143" result="shape"/>
</filter>
<linearGradient id="paint0_linear_1845_35143" x1="-4.28802" y1="12.5175" x2="13.1407" y2="44.3" gradientUnits="userSpaceOnUse">
<stop stop-color="#49C3B1"/>
<stop offset="1" stop-color="#0071A3"/>
</linearGradient>
<linearGradient id="paint1_linear_1845_35143" x1="22" y1="6" x2="22" y2="43" gradientUnits="userSpaceOnUse">
<stop stop-color="white"/>
<stop offset="1" stop-color="#D0D0D0" stop-opacity="0"/>
</linearGradient>
</defs>
</svg>
