<svg width="51" height="45" viewBox="0 0 51 45" fill="none" xmlns="http://www.w3.org/2000/svg">
<g filter="url(#filter0_d_770_5449)">
<path d="M33.2946 14.3425H23.5559V17.6298C23.5559 20.0792 21.762 22.2708 19.3914 22.5286C16.6364 22.8509 14.3299 20.6593 14.3299 17.9521V10.1527L12.7281 11.1196C9.90907 12.7955 8.17918 15.8895 8.17918 19.2413L3.05359 22.2063C2.02848 22.7864 1.70813 24.0756 2.28475 25.0424L7.41034 34.0021C7.98697 34.9689 9.2043 35.2912 10.2294 34.7111L16.8286 30.9081H25.6062C27.8486 30.9081 29.7066 29.0388 29.7066 26.7828C31.3725 26.7828 32.782 25.3647 32.782 23.6888V20.5304H33.2946C34.1275 20.5304 34.8322 19.8858 34.8322 18.9834V15.8895C34.8322 15.0515 34.1275 14.3425 33.2946 14.3425ZM42.7128 11.9576L37.5872 2.99795C37.0106 2.03108 35.7933 1.70879 34.8322 2.28891L28.169 6.09191H24.1966C21.762 6.09191 19.3914 6.80095 17.2771 8.0901C16.7005 8.47684 16.3801 9.12142 16.3801 9.83045V17.9521C16.3801 19.4346 17.4693 20.5304 18.9429 20.5304C20.3524 20.5304 21.5057 19.4346 21.5057 17.9521V12.2798H33.2946C35.2167 12.2798 36.8825 13.8913 36.8825 15.8895V17.6943L42.0081 14.7292C42.9691 14.2136 43.2895 12.9244 42.7128 11.9576Z" fill="url(#paint0_linear_770_5449)"/>
<path d="M14.1799 10.4185V17.9521C14.1799 20.7441 16.5598 23.0106 19.4084 22.6776C21.8632 22.4102 23.7059 20.1467 23.7059 17.6298V14.4925H33.2946C34.0438 14.4925 34.6822 15.1335 34.6822 15.8895V18.9834C34.6822 19.7998 34.0479 20.3804 33.2946 20.3804H32.782H32.632V20.5304V23.6888C32.632 25.2827 31.2888 26.6328 29.7066 26.6328H29.5566V26.7828C29.5566 28.9568 27.7649 30.7581 25.6062 30.7581H16.8286H16.7885L16.7537 30.7781L10.1555 34.5805C10.1554 34.5806 10.1553 34.5807 10.1552 34.5807C9.19931 35.1214 8.07367 34.8201 7.53985 33.9264C7.53962 33.926 7.5394 33.9256 7.53917 33.9252L2.41495 24.968L2.41498 24.968L2.41358 24.9656C1.87994 24.0708 2.17584 22.8754 3.12747 22.3369L3.1287 22.3362L8.25429 19.3711L8.32918 19.3278V19.2413C8.32918 15.9408 10.0325 12.8966 12.8048 11.2485L12.8057 11.248L14.1799 10.4185ZM42.5826 12.0321L42.584 12.0344C43.1203 12.9336 42.817 14.1249 41.9371 14.5971L41.9371 14.597L41.9329 14.5994L37.0325 17.4342V15.8895C37.0325 13.8076 35.2986 12.1298 33.2946 12.1298H21.5057H21.3557V12.2798V17.9521C21.3557 19.3502 20.2712 20.3804 18.9429 20.3804C17.553 20.3804 16.5301 19.3526 16.5301 17.9521V9.83045C16.5301 9.16837 16.8279 8.5733 17.358 8.21645C19.4498 6.94165 21.7926 6.24191 24.1966 6.24191H28.169H28.2088L28.2433 6.22219L34.9066 2.41919L34.9066 2.41923L34.9098 2.41733C35.7971 1.88172 36.9222 2.17689 37.4578 3.07371C37.458 3.07407 37.4582 3.07442 37.4584 3.07478L42.5826 12.0321Z" stroke="url(#paint1_linear_770_5449)" stroke-width="0.3"/>
</g>
<defs>
<filter id="filter0_d_770_5449" x="-6" y="-4" width="57" height="49" filterUnits="userSpaceOnUse" color-interpolation-filters="sRGB">
<feFlood flood-opacity="0" result="BackgroundImageFix"/>
<feColorMatrix in="SourceAlpha" type="matrix" values="0 0 0 0 0 0 0 0 0 0 0 0 0 0 0 0 0 0 127 0" result="hardAlpha"/>
<feOffset dy="2"/>
<feGaussianBlur stdDeviation="4"/>
<feComposite in2="hardAlpha" operator="out"/>
<feColorMatrix type="matrix" values="0 0 0 0 0 0 0 0 0 0.352941 0 0 0 0 0.560784 0 0 0 0.25 0"/>
<feBlend mode="normal" in2="BackgroundImageFix" result="effect1_dropShadow_770_5449"/>
<feBlend mode="normal" in="SourceGraphic" in2="effect1_dropShadow_770_5449" result="shape"/>
</filter>
<linearGradient id="paint0_linear_770_5449" x1="-15.9932" y1="7.81288" x2="-4.91393" y2="40.983" gradientUnits="userSpaceOnUse">
<stop stop-color="#49C3B1"/>
<stop offset="1" stop-color="#0071A3"/>
</linearGradient>
<linearGradient id="paint1_linear_770_5449" x1="22.5" y1="2" x2="22.5" y2="35" gradientUnits="userSpaceOnUse">
<stop stop-color="white"/>
<stop offset="1" stop-color="#D0D0D0" stop-opacity="0"/>
</linearGradient>
</defs>
</svg>
