<svg width="47" height="46" viewBox="0 0 47 46" fill="none" xmlns="http://www.w3.org/2000/svg">
<g filter="url(#filter0_d_359_4499)">
<path d="M9.9375 32.25C8.84766 32.25 8 33.1289 8 34.125C8 35.1797 8.84766 36 9.9375 36C10.9668 36 11.875 35.1797 11.875 34.125C11.875 33.1289 10.9668 32.25 9.9375 32.25ZM16.7188 28.5C15.084 28.5 13.8125 29.7891 13.8125 31.3125C13.8125 32.8945 15.084 34.125 16.7188 34.125C18.293 34.125 19.625 32.8945 19.625 31.3125C19.625 29.7891 18.293 28.5 16.7188 28.5ZM31.25 10.6875C31.0078 10.6875 30.8262 10.7461 30.6445 10.7461C29.4941 7.93359 26.6484 6 23.5 6C20.3516 6 17.5059 7.875 16.3555 10.6875C16.1133 10.6289 15.9316 10.6289 15.75 10.6289C11.4512 10.6289 8 13.9688 8 18.1289C8 22.2891 11.4512 25.6289 15.75 25.6289C16.4766 25.6289 17.2637 25.5117 18.0508 25.2773C19.0195 27.2695 21.1387 28.5586 23.5 28.5586C25.8008 28.5586 27.8594 27.3281 28.8887 25.3359C29.6758 25.5703 30.4629 25.6875 31.25 25.6875C35.4883 25.6875 39 22.3477 39 18.2461C39 14.0859 35.4883 10.6875 31.25 10.6875Z" fill="url(#paint0_linear_359_4499)"/>
<path d="M30.4131 10.8407L30.4767 10.9961H30.6445C30.7485 10.9961 30.8509 10.9807 30.9378 10.9676C30.9458 10.9664 30.9537 10.9652 30.9614 10.9641C31.0584 10.9496 31.1487 10.9375 31.25 10.9375C35.3567 10.9375 38.75 14.2304 38.75 18.2461C38.75 22.1994 35.3606 25.4375 31.25 25.4375C30.4881 25.4375 29.725 25.3241 28.96 25.0963L28.7616 25.0373L28.6666 25.2212C27.6816 27.1275 25.7104 28.3086 23.5 28.3086C21.2281 28.3086 19.1998 27.0686 18.2756 25.168L18.1828 24.9772L17.9794 25.0377C17.2135 25.2658 16.4504 25.3789 15.75 25.3789C11.5815 25.3789 8.25 22.1433 8.25 18.1289C8.25 14.1145 11.5815 10.8789 15.75 10.8789C15.9295 10.8789 16.0855 10.8794 16.2967 10.9305L16.5055 10.981L16.5869 10.7821C17.6973 8.06732 20.449 6.25 23.5 6.25C26.5477 6.25 29.3015 8.12291 30.4131 10.8407ZM8.25 34.125C8.25 33.2696 8.98306 32.5 9.9375 32.5C10.8365 32.5 11.625 33.2746 11.625 34.125C11.625 35.029 10.8417 35.75 9.9375 35.75C8.97794 35.75 8.25 35.034 8.25 34.125ZM14.0625 31.3125C14.0625 29.9314 15.2177 28.75 16.7188 28.75C18.1627 28.75 19.375 29.9348 19.375 31.3125C19.375 32.7455 18.1661 33.875 16.7188 33.875C15.2143 33.875 14.0625 32.7488 14.0625 31.3125Z" stroke="url(#paint1_linear_359_4499)" stroke-width="0.5"/>
</g>
<defs>
<filter id="filter0_d_359_4499" x="0" y="0" width="47" height="46" filterUnits="userSpaceOnUse" color-interpolation-filters="sRGB">
<feFlood flood-opacity="0" result="BackgroundImageFix"/>
<feColorMatrix in="SourceAlpha" type="matrix" values="0 0 0 0 0 0 0 0 0 0 0 0 0 0 0 0 0 0 127 0" result="hardAlpha"/>
<feOffset dy="2"/>
<feGaussianBlur stdDeviation="4"/>
<feComposite in2="hardAlpha" operator="out"/>
<feColorMatrix type="matrix" values="0 0 0 0 0 0 0 0 0 0.352941 0 0 0 0 0.560784 0 0 0 0.25 0"/>
<feBlend mode="normal" in2="BackgroundImageFix" result="effect1_dropShadow_359_4499"/>
<feBlend mode="normal" in="SourceGraphic" in2="effect1_dropShadow_359_4499" result="shape"/>
</filter>
<linearGradient id="paint0_linear_359_4499" x1="-5.6046" y1="11.2844" x2="5.98702" y2="40.1481" gradientUnits="userSpaceOnUse">
<stop stop-color="#49C3B1"/>
<stop offset="1" stop-color="#0071A3"/>
</linearGradient>
<linearGradient id="paint1_linear_359_4499" x1="23.5" y1="6" x2="23.5" y2="36" gradientUnits="userSpaceOnUse">
<stop stop-color="white"/>
<stop offset="1" stop-color="#D0D0D0" stop-opacity="0"/>
</linearGradient>
</defs>
</svg>
