<svg width="194" height="195" viewBox="0 0 194 195" fill="none" xmlns="http://www.w3.org/2000/svg">
<g clip-path="url(#clip0_104_315)">
<path d="M43.5297 184.904C43.4268 184.904 43.3281 184.863 43.2554 184.791C43.1826 184.718 43.1417 184.619 43.1417 184.516V129.686C43.1417 129.583 43.1826 129.484 43.2554 129.412C43.3281 129.339 43.4268 129.298 43.5297 129.298C43.6326 129.298 43.7313 129.339 43.8041 129.412C43.8768 129.484 43.9177 129.583 43.9177 129.686V184.516C43.9177 184.619 43.8768 184.718 43.8041 184.791C43.7313 184.863 43.6326 184.904 43.5297 184.904Z" fill="#1D0A03"/>
<path d="M150.411 184.904C150.308 184.904 150.209 184.863 150.137 184.791C150.064 184.718 150.023 184.619 150.023 184.516V129.686C150.023 129.583 150.064 129.484 150.137 129.412C150.209 129.339 150.308 129.298 150.411 129.298C150.514 129.298 150.613 129.339 150.685 129.412C150.758 129.484 150.799 129.583 150.799 129.686V184.516C150.799 184.619 150.758 184.718 150.685 184.791C150.613 184.863 150.514 184.904 150.411 184.904Z" fill="#1D0A03"/>
<path d="M50.4759 127.658C50.373 127.658 50.2743 127.617 50.2015 127.544C50.1288 127.471 50.0879 127.373 50.0879 127.27V107.359C50.0879 107.257 50.1288 107.158 50.2015 107.085C50.2743 107.012 50.373 106.971 50.4759 106.971C50.5788 106.971 50.6775 107.012 50.7502 107.085C50.823 107.158 50.8639 107.257 50.8639 107.359V127.27C50.8639 127.373 50.823 127.471 50.7502 127.544C50.6775 127.617 50.5788 127.658 50.4759 127.658Z" fill="#1D0A03"/>
<path d="M143.463 127.658C143.36 127.658 143.261 127.617 143.189 127.544C143.116 127.471 143.075 127.373 143.075 127.27V107.359C143.075 107.257 143.116 107.158 143.189 107.085C143.261 107.012 143.36 106.971 143.463 106.971C143.566 106.971 143.665 107.012 143.737 107.085C143.81 107.158 143.851 107.257 143.851 107.359V127.27C143.851 127.373 143.81 127.471 143.737 127.544C143.665 127.617 143.566 127.658 143.463 127.658Z" fill="#1D0A03"/>
<path d="M159.96 124.327H33.982C33.6906 124.327 33.4543 124.563 33.4543 124.854V133.891C33.4543 134.182 33.6906 134.419 33.982 134.419H159.96C160.251 134.419 160.487 134.182 160.487 133.891V124.854C160.487 124.563 160.251 124.327 159.96 124.327Z" fill="#40C2D6"/>
<path d="M154.024 79.2479H39.9175C39.5902 79.2479 39.3248 79.5132 39.3248 79.8405V111.267C39.3248 111.594 39.5902 111.859 39.9175 111.859H154.024C154.352 111.859 154.617 111.594 154.617 111.267V79.8405C154.617 79.5132 154.352 79.2479 154.024 79.2479Z" fill="#306FC8"/>
<path d="M94.6885 68.0143C91.9975 68.368 89.4205 69.3228 87.1487 70.8079C86.0299 71.5555 84.9951 72.4215 84.0622 73.3911C81.3636 76.1701 80.0599 79.0995 79.0182 81.7069C75.2031 91.2924 73.2952 96.0852 75.3011 99.7256C76.6106 102.102 78.8707 103.322 79.4595 103.632C82.2366 105.087 85.1068 104.932 88.1536 104.766C89.5075 104.692 90.8545 104.523 92.1849 104.261L94.6885 68.0143Z" fill="#94BE53"/>
<path d="M101.4 68.0143C104.091 68.3679 106.667 69.3227 108.939 70.8079C110.058 71.5551 111.093 72.4212 112.026 73.3911C114.725 76.1701 116.028 79.0995 117.07 81.7069C120.885 91.2924 122.793 96.0852 120.787 99.7256C119.478 102.102 117.218 103.322 116.629 103.632C113.852 105.087 110.981 104.932 107.935 104.766C106.581 104.691 105.233 104.523 103.903 104.261C103.068 92.179 102.233 80.0967 101.4 68.0143Z" fill="#94BE53"/>
<path d="M103.723 59.2087H92.0908V76.1953H103.723V59.2087Z" fill="#FC9C86"/>
<path d="M82.3608 112.664C83.9002 105.132 84.6602 97.4607 84.6287 89.7724C84.5879 79.5874 83.1814 75.719 86.0148 72.2581C91.3935 65.6873 107.123 66.6039 111.215 73.2659C112.635 75.5774 111.721 77.0596 111.215 83.8496C110.087 99.0407 113.106 112.665 113.106 112.665H82.3569L82.3608 112.664Z" fill="#94BE53"/>
<path d="M91.3216 156.869C91.0257 158.235 90.5232 160.331 89.7152 162.836C88.0497 167.999 86.9692 169.061 86.2727 171.901C85.067 176.816 85.876 183.533 88.5095 184.414C91.1431 185.296 96.383 180.631 97.8623 175.464C98.7518 172.36 98.1775 169.414 100.224 163.931C100.558 163.036 100.87 162.32 101.075 161.866C97.8248 160.198 94.5736 158.532 91.3216 156.869Z" fill="#1D0A03"/>
<path d="M116.264 150.31C116.897 151.556 117.913 153.457 119.33 155.675C122.249 160.247 123.564 161 124.956 163.572C127.367 168.021 128.286 174.727 125.961 176.239C123.636 177.751 117.385 174.574 114.645 169.951C112.996 167.17 112.802 164.178 109.438 159.392C108.888 158.616 108.405 157.997 108.092 157.61L116.264 150.31Z" fill="#1D0A03"/>
<path d="M103.723 68.3693C103.723 68.3693 101.985 71.516 97.7323 71.3763C93.4799 71.2367 92.0908 68.575 92.0908 68.575C92.3314 68.1947 93.9183 65.8047 96.9408 65.3623C99.522 64.9821 102.141 66.1539 103.723 68.3693Z" fill="#FC9C86"/>
<path d="M111.503 107.359H82.4384C81.9612 107.359 81.5596 107.068 81.5091 106.68L78.5409 84.3481C78.4818 83.9029 78.9154 83.5139 79.4712 83.5139H114.47C115.027 83.5139 115.459 83.9019 115.4 84.3481L112.433 106.685C112.381 107.068 111.981 107.359 111.503 107.359Z" fill="#B9B9B9"/>
<path d="M109.925 164.756C109.758 164.743 109.597 164.693 109.452 164.609C109.307 164.525 109.183 164.41 109.089 164.271C76.1876 115.927 79.1665 106.903 81.7894 104.616C82.3403 104.131 85.1378 101.977 88.5939 102.191C94.2383 102.541 98.0029 108.996 98.9894 110.677C101.026 114.162 101.567 117.226 101.636 117.604C102.617 123.012 107.534 134.066 122.624 157.555C122.738 157.73 122.8 157.934 122.803 158.143C122.807 158.352 122.751 158.558 122.643 158.736C121.68 160.302 120.379 161.633 118.835 162.63C115.321 164.904 111.55 164.884 109.925 164.756Z" fill="#102D55"/>
<path d="M87.4387 166.099C87.1974 165.987 87.0039 165.793 86.8929 165.552C86.7819 165.31 86.7608 165.037 86.8334 164.782C91.4632 148.292 93.3188 134.843 94.1385 125.276C95.0493 114.637 95.1851 102.901 101.699 100.569C104.437 99.5888 107.448 100.579 108.754 101.262C119.672 106.976 110.015 142.875 101.92 167.549C101.854 167.753 101.73 167.933 101.564 168.068C101.397 168.203 101.195 168.286 100.982 168.308C98.808 168.531 96.6149 168.484 94.4528 168.167C92.0286 167.813 89.667 167.117 87.4387 166.099Z" fill="#306F9F"/>
<path d="M96.971 97.6469C98.824 97.6469 100.326 96.1447 100.326 94.2916C100.326 92.4386 98.824 90.9364 96.971 90.9364C95.1179 90.9364 93.6157 92.4386 93.6157 94.2916C93.6157 96.1447 95.1179 97.6469 96.971 97.6469Z" fill="white"/>
<path d="M91.0044 58.1455C89.8404 58.615 88.432 57.8468 87.8616 56.4344C87.2913 55.0221 87.7646 53.4934 88.9286 53.02C90.0926 52.5467 91.5011 53.311 92.0714 54.7311C92.6418 56.1512 92.1684 57.6722 91.0044 58.1455Z" fill="#FC9C86"/>
<path d="M106.707 53.1171C106.707 57.9787 102.765 66.1733 97.9069 66.1733C93.0492 66.1733 89.111 57.9806 89.111 53.1171C89.111 50.7837 90.0379 48.5459 91.6878 46.896C93.3377 45.2461 95.5755 44.3192 97.9089 44.3192C100.242 44.3192 102.48 45.2461 104.13 46.896C105.78 48.5459 106.707 50.7837 106.707 53.1171Z" fill="#FC9C86"/>
<path d="M101.399 54.5527C101.399 54.644 101.372 54.7332 101.321 54.8092C101.27 54.8851 101.198 54.9443 101.114 54.9792C101.03 55.0142 100.937 55.0233 100.847 55.0055C100.758 54.9877 100.675 54.9437 100.611 54.8791C100.546 54.8146 100.502 54.7323 100.484 54.6427C100.467 54.5532 100.476 54.4603 100.511 54.376C100.546 54.2916 100.605 54.2195 100.681 54.1688C100.757 54.118 100.846 54.0909 100.937 54.0909C101.06 54.0912 101.177 54.1399 101.263 54.2265C101.35 54.313 101.399 54.4303 101.399 54.5527Z" fill="#1D0A03"/>
<path d="M102.974 51.9996C102.974 52.279 102.171 51.7707 101.034 51.891C100.379 51.9647 99.4823 52.2441 99.3426 51.9802C99.0593 51.4642 99.8043 51.0102 100.844 50.9598C101.981 50.9055 102.974 51.7203 102.974 51.9996Z" fill="#1D0A03"/>
<path d="M95.3374 54.5527C95.3372 54.6439 95.3099 54.7331 95.2591 54.8089C95.2082 54.8847 95.1361 54.9437 95.0517 54.9785C94.9673 55.0133 94.8745 55.0223 94.785 55.0044C94.6955 54.9865 94.6133 54.9424 94.5488 54.8778C94.4844 54.8132 94.4405 54.7309 94.4227 54.6414C94.405 54.5519 94.4142 54.4591 94.4492 54.3748C94.4842 54.2905 94.5433 54.2184 94.6192 54.1677C94.6952 54.117 94.7844 54.09 94.8757 54.09C94.9364 54.09 94.9965 54.1019 95.0526 54.1252C95.1087 54.1485 95.1596 54.1826 95.2025 54.2255C95.2454 54.2685 95.2794 54.3195 95.3025 54.3757C95.3257 54.4318 95.3375 54.4919 95.3374 54.5527Z" fill="#1D0A03"/>
<path d="M96.4791 51.9802C96.3355 52.2441 95.4392 51.9647 94.7835 51.891C93.6428 51.7707 92.8435 52.279 92.8435 51.9996C92.8435 51.7203 93.8368 50.9055 94.9775 50.9598C96.0135 51.0064 96.7584 51.4642 96.4791 51.9802Z" fill="#1D0A03"/>
<path d="M97.7963 59.4017H97.776C97.7248 59.397 97.6775 59.3722 97.6446 59.3328C97.6117 59.2933 97.5958 59.2424 97.6004 59.1912C97.6004 59.167 97.8215 56.7313 97.8215 55.287C97.8215 55.2355 97.842 55.1862 97.8784 55.1498C97.9147 55.1134 97.9641 55.093 98.0155 55.093C98.067 55.093 98.1163 55.1134 98.1527 55.1498C98.1891 55.1862 98.2095 55.2355 98.2095 55.287C98.2095 56.7487 97.9884 59.2019 97.9864 59.2261C97.9819 59.2737 97.96 59.3179 97.9249 59.3502C97.8899 59.3826 97.8441 59.401 97.7963 59.4017Z" fill="#1D0A03"/>
<path d="M89.6503 56.3685C89.6386 56.5198 89.8676 56.7914 90.0266 56.9234C90.0566 56.949 90.0781 56.9832 90.0882 57.0214C90.0982 57.0596 90.0964 57.1 90.0829 57.1371C90.0694 57.1742 90.0449 57.2063 90.0126 57.2292C89.9804 57.252 89.942 57.2644 89.9025 57.2648C89.8575 57.2649 89.8137 57.2499 89.7783 57.2221C89.6813 57.1445 89.239 56.7449 89.2623 56.3491C89.2778 56.0465 89.53 55.8641 89.7473 55.7788C89.693 55.2162 89.4679 54.5294 89.1032 54.2384C89.0366 54.1831 88.9584 54.1436 88.8745 54.1227C88.7905 54.1019 88.7029 54.1003 88.6182 54.1181C88.5678 54.1272 88.5159 54.116 88.4737 54.0869C88.4315 54.0578 88.4026 54.0132 88.3932 53.9629C88.3878 53.9382 88.3875 53.9126 88.3923 53.8877C88.3971 53.8629 88.4068 53.8392 88.4209 53.8182C88.4351 53.7972 88.4533 53.7792 88.4745 53.7654C88.4957 53.7516 88.5195 53.7423 88.5445 53.7379C88.6837 53.7084 88.8278 53.7106 88.9661 53.7442C89.1044 53.7777 89.2335 53.8419 89.3438 53.9319C89.8598 54.3393 90.1198 55.2394 90.143 55.9068C90.1441 55.9516 90.1296 55.9955 90.1021 56.0308C90.0745 56.0662 90.0355 56.0909 89.9917 56.1008C89.9917 56.1008 89.658 56.1862 89.6503 56.3685Z" fill="#1D0A03"/>
<path d="M103.762 62.398C103.653 62.5571 101.12 66.2508 97.9147 66.3672C97.8681 66.3672 97.8254 66.3672 97.7789 66.3672C94.6205 66.3672 92.0365 62.3747 91.9278 62.204C91.9124 62.1826 91.9015 62.1583 91.8958 62.1326C91.8901 62.1069 91.8897 62.0803 91.8946 62.0544C91.8996 62.0285 91.9097 62.0039 91.9244 61.9821C91.9391 61.9603 91.9582 61.9417 91.9803 61.9274C92.0025 61.9132 92.0273 61.9036 92.0533 61.8993C92.0793 61.8949 92.1059 61.8959 92.1314 61.9022C92.157 61.9085 92.1811 61.9199 92.2021 61.9358C92.2231 61.9516 92.2407 61.9716 92.2537 61.9945C92.2809 62.0372 94.9077 66.0879 97.8991 65.9715C100.906 65.8628 103.413 62.2118 103.44 62.173C103.469 62.1311 103.513 62.1023 103.563 62.0928C103.613 62.0834 103.665 62.0941 103.708 62.1225C103.73 62.1366 103.749 62.1551 103.764 62.1767C103.778 62.1984 103.789 62.2229 103.794 62.2486C103.799 62.2744 103.799 62.3009 103.793 62.3266C103.788 62.3523 103.777 62.3766 103.762 62.398Z" fill="#1D0A03"/>
<path d="M100.134 61.0051C99.5753 61.6996 98.8498 61.8937 98.2096 61.8937C97.701 61.8863 97.1988 61.7796 96.7313 61.5794C96.7083 61.5682 96.6878 61.5526 96.6709 61.5335C96.654 61.5143 96.641 61.4921 96.6327 61.4679C96.6244 61.4438 96.621 61.4182 96.6226 61.3927C96.6242 61.3672 96.6308 61.3423 96.6421 61.3194C96.6526 61.2964 96.6677 61.2758 96.6865 61.2587C96.7052 61.2417 96.7272 61.2286 96.7511 61.2203C96.775 61.212 96.8004 61.2086 96.8256 61.2102C96.8509 61.2119 96.8756 61.2187 96.8981 61.2302C96.9757 61.2651 98.7605 62.0876 99.8314 60.7646C99.8648 60.7292 99.9102 60.7077 99.9587 60.7042C100.007 60.7008 100.055 60.7156 100.093 60.7459C100.131 60.7761 100.157 60.8195 100.164 60.8675C100.172 60.9156 100.161 60.9647 100.134 61.0051Z" fill="#1D0A03"/>
<path d="M100.674 74.3581C99.2387 74.3581 98.3308 73.0923 98.0049 72.5413C97.4423 73.1233 95.7283 74.6753 94.0444 73.7499C92.8679 73.1015 91.9125 72.1157 91.3012 70.9195C91.2894 70.8961 91.2825 70.8706 91.2808 70.8445C91.2791 70.8184 91.2827 70.7922 91.2914 70.7675C91.3001 70.7429 91.3137 70.7202 91.3314 70.7009C91.3491 70.6817 91.3705 70.6662 91.3943 70.6554C91.4181 70.6446 91.4439 70.6387 91.47 70.6381C91.4962 70.6375 91.5222 70.6422 91.5465 70.6519C91.5708 70.6617 91.5928 70.6762 91.6114 70.6947C91.6299 70.7131 91.6445 70.7351 91.6543 70.7594C92.2369 71.8749 93.1327 72.796 94.2316 73.4094C95.9601 74.362 97.8768 72.1077 97.8953 72.0844C97.9164 72.0595 97.9434 72.0402 97.974 72.0285C98.0045 72.0168 98.0375 72.013 98.0699 72.0175C98.1022 72.0218 98.1329 72.0342 98.1592 72.0535C98.1855 72.0728 98.2065 72.0985 98.2202 72.1281C98.2629 72.2193 99.2872 74.3533 101.182 73.91C103.127 73.4531 104.179 69.9398 104.189 69.9048C104.203 69.8554 104.237 69.8138 104.282 69.7892C104.327 69.7645 104.38 69.7589 104.43 69.7734C104.479 69.7879 104.521 69.8215 104.545 69.8667C104.57 69.9119 104.576 69.965 104.561 70.0144C104.516 70.1677 103.433 73.78 101.269 74.2873C101.074 74.3336 100.875 74.3573 100.674 74.3581Z" fill="#1D0A03"/>
<path d="M86.3671 83.4916C86.335 83.4917 86.3034 83.4856 86.275 83.474C86.2466 83.4623 86.2224 83.4455 86.2044 83.4249C84.4502 81.4125 86.2907 79.4296 86.617 79.1065V76.1743C86.617 76.1341 86.6377 76.0955 86.6744 76.0671C86.7112 76.0386 86.761 76.0226 86.813 76.0226C86.865 76.0226 86.9149 76.0386 86.9516 76.0671C86.9884 76.0955 87.009 76.1341 87.009 76.1743V79.1596C87.0088 79.1959 86.9917 79.2308 86.961 79.2582C86.8718 79.3393 84.7912 81.2608 86.5298 83.2551C86.5497 83.2779 86.5613 83.3045 86.5631 83.332C86.565 83.3595 86.5572 83.3869 86.5404 83.4112C86.5237 83.4355 86.4987 83.4559 86.4682 83.47C86.4377 83.4842 86.4027 83.4917 86.3671 83.4916Z" fill="#1D0A03"/>
<path d="M110.114 83.4916C110.081 83.4915 110.048 83.484 110.02 83.4698C109.991 83.4555 109.968 83.4352 109.952 83.4109C109.937 83.3866 109.929 83.3593 109.931 83.3318C109.933 83.3044 109.944 83.2778 109.962 83.2551C111.593 81.2608 109.641 79.3393 109.557 79.2582C109.529 79.2307 109.513 79.1958 109.513 79.1596V76.1743C109.513 76.1341 109.532 76.0955 109.567 76.0671C109.601 76.0386 109.648 76.0226 109.697 76.0226C109.746 76.0226 109.792 76.0386 109.827 76.0671C109.861 76.0955 109.881 76.1341 109.881 76.1743V79.1065C110.187 79.4296 111.912 81.4125 110.267 83.4249C110.25 83.4455 110.227 83.4623 110.201 83.474C110.174 83.4856 110.144 83.4917 110.114 83.4916Z" fill="#1D0A03"/>
<path d="M73.4465 53.1229C73.4465 46.8596 67.3016 41.7816 59.723 41.7816C52.1443 41.7816 45.9994 46.8596 45.9994 53.1229C45.9994 59.3861 52.1434 64.4641 59.723 64.4641C61.7403 64.4707 63.7409 64.0979 65.6205 63.3651L69.064 66.4429C69.1125 66.4856 69.1731 66.512 69.2373 66.5185C69.3016 66.525 69.3662 66.5113 69.4223 66.4792C69.4783 66.4471 69.5229 66.3983 69.5498 66.3396C69.5767 66.2809 69.5846 66.2153 69.5723 66.1519L68.6343 61.7471C71.5783 59.6626 73.4465 56.5741 73.4465 53.1229Z" fill="#4EABD5"/>
<path d="M66.8136 47.9315H52.6322C52.4656 47.9315 52.3306 48.0665 52.3306 48.2331V58.0127C52.3306 58.1793 52.4656 58.3143 52.6322 58.3143H66.8136C66.9802 58.3143 67.1153 58.1793 67.1153 58.0127V48.2331C67.1153 48.0665 66.9802 47.9315 66.8136 47.9315Z" fill="#306FC8"/>
<path d="M56.5675 53.1229V49.9083C56.5677 49.8432 56.5849 49.7793 56.6176 49.723C56.6502 49.6667 56.697 49.6199 56.7534 49.5874C56.8098 49.5549 56.8737 49.5378 56.9388 49.5377C57.0039 49.5377 57.0679 49.5548 57.1243 49.5872L59.9082 51.1906L62.6921 52.7979C62.7485 52.8305 62.7953 52.8774 62.8278 52.9339C62.8604 52.9903 62.8775 53.0543 62.8775 53.1195C62.8775 53.1846 62.8604 53.2486 62.8278 53.3051C62.7953 53.3615 62.7485 53.4084 62.6921 53.441L59.9082 55.0483L57.1243 56.6546C57.0679 56.6874 57.0039 56.7047 56.9387 56.7048C56.8735 56.705 56.8094 56.6879 56.7529 56.6553C56.6965 56.6227 56.6496 56.5758 56.617 56.5193C56.5845 56.4628 56.5674 56.3988 56.5675 56.3336V53.1229Z" fill="white"/>
<path d="M136.357 26.5604C124.748 26.5604 115.337 34.3379 115.337 43.9312C115.337 48.7482 117.711 53.1054 121.545 56.2502L118.91 61.4193C118.865 61.5082 118.849 61.609 118.865 61.7074C118.881 61.8058 118.927 61.8968 118.997 61.9674C119.067 62.0381 119.158 62.0847 119.256 62.1007C119.355 62.1167 119.456 62.1013 119.545 62.0566L125.753 58.9235C128.867 60.4318 132.49 61.301 136.362 61.301C147.97 61.301 157.381 53.5235 157.381 43.9292C157.381 34.335 147.965 26.5604 136.357 26.5604Z" fill="#4EABD5"/>
<path d="M144.071 47.4552C144.368 47.0208 144.626 46.5609 144.841 46.0807L144.85 46.0662C145.558 44.4761 145.783 42.7128 145.496 40.996C145.21 39.2791 144.425 37.6844 143.238 36.4105C142.052 35.1366 140.518 34.2397 138.826 33.8315C137.133 33.4233 135.359 33.5218 133.722 34.1148C133.722 34.1148 133.561 34.1701 133.301 34.2807H133.295C132.352 34.6813 130.046 35.8453 128.672 38.1257C126.917 41.0425 127.586 43.096 127.304 44.0486C127.021 45.0011 126.158 45.135 126.41 45.5511C126.663 45.9672 127.809 45.8489 128.018 46.1467C128.226 46.4445 127.809 47.0391 127.989 47.4862C128.077 47.7376 128.257 47.9457 128.494 48.0682C128.494 48.0682 128.212 48.336 128.315 48.8568C128.419 49.3777 128.814 49.1168 129.037 49.6755C129.26 50.2342 128.524 51.8629 129.773 52.666C131.023 53.4692 133.653 52.4876 134.417 53.1122C135.18 53.7369 134.999 56.2822 134.999 56.2822H143.704C143.704 56.2822 142.346 51.7445 142.99 49.8986C143.293 49.06 143.654 48.2436 144.071 47.4552Z" fill="white"/>
<path d="M123.07 37.2304C120.846 36.5815 119.078 36.8638 118.738 37.664C118.42 38.409 119.303 39.6913 120.391 40.2239C121.413 40.7234 122.677 40.5925 123.7 39.8795C123.688 40.0627 123.714 40.2465 123.776 40.4193C123.837 40.5922 123.934 40.7506 124.059 40.8846C124.185 41.0187 124.337 41.1255 124.505 41.1986C124.673 41.2716 124.855 41.3093 125.039 41.3093C125.222 41.3093 125.404 41.2716 125.572 41.1986C125.741 41.1255 125.893 41.0187 126.018 40.8846C126.144 40.7506 126.24 40.5922 126.302 40.4193C126.364 40.2465 126.389 40.0627 126.377 39.8795C126.377 39.8795 128.071 41.7991 129.804 40.9717C131.538 40.1443 131.183 39.1355 131.183 39.1355C132.431 39.671 133.598 39.3295 133.939 38.6505C134.19 38.15 133.98 37.4972 133.664 37.114C133.039 36.3594 131.643 36.2255 130.277 36.9511C130.227 36.8279 129.539 35.1682 128.346 35.0664C126.968 34.948 126.891 36.6028 126.891 36.6028C126.891 36.6028 123.424 33.6463 123.07 37.2304Z" fill="#40C2D6"/>
<path d="M141.559 42.2822C139.335 41.6333 137.567 41.9155 137.227 42.7158C136.91 43.4607 137.792 44.7431 138.876 45.2756C139.897 45.7752 141.16 45.6442 142.184 44.9313C142.173 45.1139 142.199 45.2968 142.261 45.4689C142.324 45.6409 142.421 45.7983 142.546 45.9315C142.671 46.0647 142.823 46.1709 142.991 46.2434C143.159 46.316 143.34 46.3534 143.523 46.3534C143.706 46.3534 143.887 46.316 144.055 46.2434C144.223 46.1709 144.374 46.0647 144.499 45.9315C144.625 45.7983 144.722 45.6409 144.784 45.4689C144.846 45.2968 144.873 45.1139 144.862 44.9313C144.862 44.9313 146.555 46.8509 148.289 46.0235C150.022 45.1961 149.671 44.1873 149.671 44.1873C150.919 44.7227 152.086 44.3813 152.428 43.7023C152.677 43.2017 152.468 42.5489 152.151 42.1668C151.528 41.4111 150.13 41.2773 148.765 42.0028C148.716 41.8796 148.027 40.2209 146.835 40.1181C145.456 39.9998 145.38 41.6546 145.38 41.6546C145.38 41.6546 141.911 38.699 141.559 42.2822Z" fill="#40C2D6"/>
<path d="M107.037 19.9654C107.037 14.4151 101.592 9.91522 94.8757 9.91522C88.1595 9.91522 82.7148 14.4151 82.7148 19.9654C82.7148 25.3062 87.7588 29.6722 94.1201 29.9952L95.5033 33.4329C95.5249 33.4864 95.5628 33.5318 95.6117 33.5625C95.6606 33.5932 95.7179 33.6076 95.7755 33.6037C95.8331 33.5998 95.8879 33.5779 95.9323 33.5409C95.9766 33.5039 96.0081 33.4539 96.0223 33.398L96.9215 29.872C102.663 29.0679 107.037 24.9396 107.037 19.9654Z" fill="#4EABD5"/>
<path d="M93.3034 27.221C94.805 27.221 96.0223 26.0037 96.0223 24.5021C96.0223 23.0004 94.805 21.7831 93.3034 21.7831C91.8018 21.7831 90.5845 23.0004 90.5845 24.5021C90.5845 26.0037 91.8018 27.221 93.3034 27.221Z" fill="white"/>
<path d="M94.6099 12.7127H95.6526C95.7447 12.7127 95.833 12.7493 95.8982 12.8144C95.9633 12.8795 95.9999 12.9679 95.9999 13.06V24.506H94.6099V12.7127Z" fill="white"/>
<path d="M94.6099 12.7127C94.6099 12.7127 96.3035 12.605 97.2483 13.9378C98.193 15.2705 98.7304 16.0116 100.313 15.6556C100.313 15.6556 99.2154 17.4327 98.0408 17.2261C96.8661 17.0195 96.1269 15.6556 95.0008 16.0999L94.6099 12.7127Z" fill="white"/>
<path d="M98.0438 45.8557C97.6141 45.7722 96.9836 45.7247 96.4404 46.0497C95.5596 46.5793 95.3898 47.7898 95.3375 48.1837C94.9727 50.952 90.9637 51.6407 90.6727 55.2365C90.3817 58.8323 93.7602 63.5164 93.3189 67.6942C92.8775 71.872 86.3349 71.3725 86.3349 71.3725C85.9081 71.6955 85.4619 72.0612 85.005 72.4725C84.4408 72.9815 83.9061 73.5223 83.4036 74.0924C83.1457 73.0958 82.9996 72.0735 82.968 71.0446C82.9215 69.1347 83.2183 66.4536 84.5889 63.3671C87.334 57.2047 85.5928 49.2613 89.1091 45.166C92.6253 41.0706 97.097 42.8981 97.097 42.8981C102.788 42.2919 105.051 44.0757 105.947 45.0399C107.855 47.105 108.065 50.4544 108.485 57.1523C108.61 59.1466 108.601 60.9178 109.336 63.3894C109.671 64.5214 109.972 65.1587 110.139 66.3188C110.43 68.3694 110.029 70.128 109.636 71.3036C108.957 70.9098 108.226 70.516 107.436 70.1338C106.19 69.5312 104.908 69.0077 103.596 68.5663C103.596 68.5663 103.292 62.7278 103.596 61.7355C103.9 60.7432 106.452 58.0835 106.357 55.9049C106.335 55.5323 106.257 55.1652 106.124 54.8165C105.692 53.7369 104.799 53.1995 104.443 52.9464C102.124 51.2974 103.21 47.9024 100.97 46.4027C100.43 46.039 99.5366 45.683 98.0438 45.8557Z" fill="#1D0A03"/>
<path d="M88.1846 52.9366C88.0496 52.9377 87.9152 52.9201 87.785 52.8843C87.7605 52.8773 87.7376 52.8656 87.7176 52.8498C87.6976 52.834 87.6809 52.8144 87.6684 52.7922C87.656 52.7699 87.6481 52.7455 87.6451 52.7202C87.6422 52.6948 87.6442 52.6692 87.6511 52.6447C87.6581 52.6202 87.6698 52.5972 87.6856 52.5772C87.7014 52.5572 87.721 52.5406 87.7432 52.5281C87.7655 52.5157 87.7899 52.5078 87.8152 52.5048C87.8406 52.5018 87.8662 52.5039 87.8907 52.5108C89.4282 52.9463 92.5302 49.8065 93.4566 47.7355C94.4266 45.5598 96.6217 45.0923 96.7138 45.0729C96.7389 45.0678 96.7647 45.0677 96.7897 45.0726C96.8148 45.0775 96.8387 45.0873 96.8599 45.1014C96.8812 45.1156 96.8995 45.1338 96.9137 45.155C96.9279 45.1763 96.9378 45.2001 96.9428 45.2251C96.9479 45.2501 96.948 45.2758 96.9432 45.3009C96.9383 45.3259 96.9286 45.3497 96.9145 45.371C96.9005 45.3922 96.8824 45.4105 96.8613 45.4248C96.8401 45.439 96.8164 45.449 96.7914 45.4541C96.7711 45.4541 94.7021 45.9041 93.8116 47.8946C92.8794 49.9723 90.0218 52.9366 88.1846 52.9366Z" fill="white"/>
<path d="M88.076 50.9821C87.9894 50.982 87.9029 50.9765 87.817 50.9656C87.7917 50.9624 87.7673 50.9542 87.7452 50.9415C87.723 50.9288 87.7036 50.9119 87.688 50.8918C87.6725 50.8716 87.661 50.8485 87.6543 50.8239C87.6477 50.7993 87.6459 50.7736 87.6492 50.7483C87.6524 50.7229 87.6606 50.6984 87.6734 50.6762C87.6861 50.6541 87.7031 50.6346 87.7234 50.619C87.7437 50.6034 87.7668 50.592 87.7916 50.5854C87.8163 50.5788 87.8421 50.5771 87.8674 50.5805C89.658 50.8211 92.1267 47.9363 92.151 47.9072C92.1861 47.8761 92.2314 47.8589 92.2783 47.8586C92.3252 47.8584 92.3706 47.8751 92.4061 47.9058C92.4416 47.9365 92.4648 47.9789 92.4714 48.0254C92.478 48.0718 92.4675 48.1191 92.442 48.1584C92.344 48.2806 90.0267 50.9821 88.076 50.9821Z" fill="white"/>
<path d="M105.897 51.9608C105.685 51.9586 105.478 51.9026 105.295 51.7978C104.228 51.2158 103.501 49.1788 103.078 47.5783C102.433 45.1398 99.5152 44.8138 99.4891 44.81C99.4637 44.8074 99.4391 44.7999 99.4167 44.7878C99.3942 44.7758 99.3744 44.7594 99.3582 44.7397C99.3421 44.72 99.33 44.6973 99.3227 44.6729C99.3153 44.6485 99.3129 44.6229 99.3154 44.5975C99.3208 44.5465 99.3462 44.4997 99.386 44.4673C99.4258 44.435 99.4768 44.4197 99.5279 44.4249C99.5599 44.4249 102.741 44.7789 103.455 47.4794C104.027 49.6396 104.747 51.0529 105.484 51.4564C105.582 51.5152 105.692 51.5523 105.805 51.5654C105.919 51.5784 106.034 51.5671 106.143 51.5321C106.192 51.5165 106.246 51.5211 106.291 51.5448C106.337 51.5686 106.372 51.6095 106.387 51.6586C106.403 51.7078 106.398 51.7611 106.374 51.8068C106.351 51.8526 106.31 51.887 106.261 51.9026C106.143 51.9406 106.02 51.9602 105.897 51.9608Z" fill="white"/>
<path d="M106.326 50.6183C106.205 50.6173 106.086 50.5912 105.975 50.5417C105.034 50.1294 104.358 48.1274 104.284 47.9004C104.276 47.8761 104.273 47.8504 104.275 47.8249C104.277 47.7993 104.284 47.7744 104.295 47.7516C104.307 47.7288 104.323 47.7085 104.342 47.6919C104.362 47.6753 104.385 47.6628 104.409 47.655C104.458 47.6391 104.511 47.6432 104.557 47.6665C104.603 47.6898 104.637 47.7303 104.653 47.7791C104.84 48.3505 105.468 49.8966 106.131 50.1857C106.189 50.2142 106.254 50.229 106.319 50.229C106.385 50.229 106.449 50.2142 106.508 50.1857C106.531 50.1737 106.557 50.1664 106.583 50.1645C106.609 50.1626 106.635 50.166 106.66 50.1745C106.685 50.1831 106.708 50.1965 106.727 50.2141C106.747 50.2317 106.762 50.2531 106.773 50.2769C106.784 50.3008 106.79 50.3266 106.791 50.3528C106.792 50.379 106.787 50.4051 106.777 50.4295C106.768 50.4539 106.753 50.4761 106.735 50.4947C106.716 50.5133 106.694 50.528 106.67 50.5378C106.562 50.5892 106.445 50.6166 106.326 50.6183Z" fill="white"/>
<path d="M88.5814 70.1532C88.5348 70.1527 88.49 70.1355 88.4551 70.1048C88.4202 70.074 88.3974 70.0318 88.3911 69.9857C88.3847 69.9396 88.3952 69.8927 88.4205 69.8537C88.4458 69.8146 88.4843 69.786 88.529 69.7729C89.596 69.4722 90.3652 68.864 90.8104 67.9658C92.0045 65.5583 90.5544 61.8131 90.5398 61.7763C90.5302 61.7525 90.5255 61.7271 90.5258 61.7016C90.5261 61.676 90.5314 61.6507 90.5415 61.6272C90.5516 61.6037 90.5663 61.5824 90.5846 61.5646C90.603 61.5468 90.6247 61.5327 90.6485 61.5233C90.6723 61.5139 90.6977 61.5093 90.7233 61.5098C90.7488 61.5103 90.7741 61.5158 90.7975 61.526C90.8209 61.5363 90.8421 61.5511 90.8598 61.5695C90.8775 61.588 90.8914 61.6098 90.9006 61.6337C90.9637 61.7937 92.4294 65.5748 91.1587 68.1375C90.663 69.1386 89.8133 69.8137 88.6367 70.1464C88.6186 70.1512 88.6 70.1535 88.5814 70.1532Z" fill="white"/>
<path d="M87.2709 69.5838C87.2241 69.5832 87.1791 69.5657 87.1441 69.5346C87.1092 69.5034 87.0867 69.4607 87.0808 69.4143C87.0749 69.3678 87.0859 69.3208 87.112 69.2819C87.138 69.243 87.1772 69.2148 87.2224 69.2026C89.9656 68.4945 89.8414 64.1906 89.8365 64.1469C89.8347 64.0956 89.8533 64.0457 89.8882 64.008C89.9231 63.9704 89.9715 63.9481 90.0228 63.9461C90.0737 63.9455 90.123 63.9645 90.1604 63.9992C90.1977 64.0338 90.2203 64.0815 90.2236 64.1324C90.2313 64.3264 90.3652 68.7884 87.3194 69.5779C87.3035 69.5817 87.2872 69.5837 87.2709 69.5838Z" fill="white"/>
<path d="M108.881 68.5275C108.855 68.5279 108.83 68.5229 108.806 68.5129C108.758 68.4932 108.721 68.4554 108.701 68.408C108.682 68.3605 108.682 68.3072 108.701 68.2597C108.725 68.2015 109.272 66.8241 108.133 64.9879C106.903 63.0062 107.033 60.1457 107.039 60.0244C107.038 59.9985 107.044 59.9729 107.054 59.9492C107.065 59.9255 107.08 59.9043 107.099 59.887C107.118 59.8697 107.141 59.8567 107.166 59.8487C107.19 59.8408 107.217 59.8382 107.242 59.8411C107.294 59.8439 107.342 59.8669 107.376 59.905C107.41 59.9432 107.428 59.9935 107.426 60.0448C107.426 60.0729 107.297 62.9063 108.463 64.7833C109.714 66.7979 109.086 68.3451 109.059 68.4091C109.044 68.4442 109.019 68.4741 108.988 68.4951C108.956 68.5162 108.919 68.5274 108.881 68.5275Z" fill="white"/>
<path d="M108.058 56.4345C107.488 57.8468 106.079 58.615 104.915 58.1455C103.751 57.6761 103.266 56.1435 103.84 54.7311C104.415 53.3188 105.819 52.5506 106.983 53.0201C108.147 53.4895 108.627 55.0183 108.058 56.4345Z" fill="#FC9C86"/>
<path d="M107.425 53.959C107.414 54.0094 107.384 54.0537 107.341 54.0826C107.299 54.1115 107.246 54.1229 107.196 54.1142C107.111 54.0962 107.023 54.0981 106.939 54.1196C106.855 54.1411 106.777 54.1818 106.711 54.2384C106.346 54.5294 106.121 55.2006 106.067 55.7749C106.288 55.8602 106.536 56.0426 106.552 56.3452C106.575 56.7449 106.129 57.1445 106.039 57.2182C106.003 57.2448 105.96 57.2597 105.915 57.2609C105.886 57.2612 105.858 57.2551 105.832 57.243C105.806 57.231 105.782 57.2132 105.764 57.1911C105.731 57.1518 105.715 57.1013 105.72 57.0505C105.724 56.9996 105.748 56.9526 105.787 56.9195C105.946 56.7875 106.175 56.5159 106.167 56.3646C106.156 56.1823 105.826 56.1008 105.822 56.0969C105.778 56.087 105.739 56.0623 105.712 56.0269C105.684 55.9916 105.67 55.9477 105.671 55.9029C105.694 55.2355 105.962 54.3354 106.47 53.928C106.58 53.838 106.709 53.7738 106.848 53.7403C106.986 53.7067 107.13 53.7045 107.269 53.734C107.32 53.7434 107.364 53.7724 107.393 53.8145C107.422 53.8567 107.434 53.9086 107.425 53.959Z" fill="#1D0A03"/>
</g>
<defs>
<clipPath id="clip0_104_315">
<rect width="194" height="194" fill="white" transform="translate(0 0.16864)"/>
</clipPath>
</defs>
</svg>
