<svg width="195" height="195" viewBox="0 0 195 195" fill="none" xmlns="http://www.w3.org/2000/svg">
<path d="M16.6035 122.671C16.4972 122.671 16.3947 122.632 16.3164 122.56C16.238 122.488 16.1895 122.39 16.1804 122.284L14.3412 100.653C14.3365 100.598 14.3428 100.542 14.3597 100.489C14.3766 100.436 14.4038 100.386 14.4397 100.344C14.4757 100.301 14.5197 100.266 14.5692 100.24C14.6187 100.215 14.6728 100.199 14.7283 100.194C14.7839 100.19 14.8398 100.196 14.893 100.213C14.9461 100.23 14.9954 100.257 15.038 100.293C15.0806 100.329 15.1158 100.373 15.1414 100.422C15.167 100.472 15.1826 100.526 15.1873 100.582L17.0255 122.212C17.0303 122.267 17.0241 122.323 17.0072 122.376C16.9904 122.429 16.9633 122.478 16.9274 122.521C16.8916 122.563 16.8477 122.598 16.7983 122.624C16.7489 122.65 16.6949 122.665 16.6394 122.67L16.6035 122.671Z" fill="#1D0A03"/>
<path d="M51.5693 171.616C51.461 171.616 51.3568 171.575 51.2781 171.5C51.1994 171.426 51.1522 171.324 51.1463 171.216L48.6683 125.571C48.5995 124.309 47.8 123.32 46.8481 123.32H21.1482C20.1963 123.32 19.3978 124.309 19.3291 125.571L16.8511 171.204C16.8451 171.316 16.7947 171.421 16.7111 171.496C16.6275 171.571 16.5175 171.61 16.4053 171.604C16.2931 171.598 16.1879 171.548 16.1128 171.464C16.0378 171.38 15.999 171.27 16.005 171.158L18.4819 125.524C18.575 123.814 19.7511 122.474 21.1461 122.474H46.8492C48.2505 122.474 49.4213 123.814 49.5133 125.524L51.9923 171.167C51.9953 171.222 51.9874 171.278 51.9689 171.33C51.9504 171.382 51.9218 171.431 51.8847 171.472C51.8476 171.513 51.8027 171.547 51.7525 171.571C51.7024 171.595 51.6481 171.609 51.5926 171.612L51.5693 171.616Z" fill="#1D0A03"/>
<path d="M33.6968 104.805H11.0639C10.4938 104.805 9.97453 104.382 9.9005 103.86L7.78105 88.3916C7.75684 88.251 7.76419 88.1068 7.80255 87.9695C7.84091 87.8321 7.90933 87.7049 8.00285 87.5972C8.09638 87.4895 8.21267 87.404 8.34332 87.3467C8.47397 87.2895 8.61571 87.262 8.75828 87.2663H33.5963C33.8955 87.2657 34.1827 87.3839 34.3949 87.5949C34.607 87.8059 34.7268 88.0924 34.7279 88.3916V103.86C34.7279 104.383 34.2668 104.805 33.6968 104.805Z" fill="#4EABD5"/>
<path d="M133.422 29.5207L132.775 37.5289L122.783 42.3601C122.783 42.3601 120.49 39.3438 123.417 35.3587C126.345 31.3736 127.825 23.6298 127.825 23.6298L133.422 29.5207Z" fill="#1D0A03"/>
<path d="M38.8208 53.5877H28.5323V69.8242H38.8208V53.5877Z" fill="#FC9C86"/>
<path d="M140.402 24.3934H130.816V39.5257H140.402V24.3934Z" fill="#FC9C86"/>
<path d="M18.8638 106.309C19.7247 102.044 20.9864 95.2343 22.0281 86.7332C23.6209 73.7394 23.1915 69.1398 26.982 66.5095C31.0337 63.7005 38.7754 63.9247 42.5976 67.6063C42.8123 67.8085 43.0136 68.0243 43.2005 68.2525C44.275 69.6115 45.2692 72.2873 45.8783 80.7323C46.863 94.3914 45.6732 106.978 45.6732 106.978L18.8638 106.309Z" fill="#94BE53"/>
<path d="M55.2594 120.825H12.736C12.5608 120.825 12.4187 120.967 12.4187 121.143V124.106C12.4187 124.281 12.5608 124.423 12.736 124.423H55.2594C55.4346 124.423 55.5767 124.281 55.5767 124.106V121.143C55.5767 120.967 55.4346 120.825 55.2594 120.825Z" fill="#4EABD5"/>
<path d="M55.767 157.934C55.3355 159.512 53.8453 165.199 53.2001 170.654C53.1927 170.719 53.1992 170.786 53.2192 170.849C53.2393 170.912 53.2724 170.97 53.3165 171.019C53.3605 171.068 53.4145 171.108 53.4748 171.134C53.5351 171.161 53.6005 171.175 53.6665 171.175H69.8004C69.8888 171.175 69.9755 171.151 70.0503 171.104C70.1252 171.057 70.1852 170.989 70.2234 170.91C70.2616 170.83 70.2764 170.741 70.2661 170.653C70.2559 170.565 70.2209 170.482 70.1653 170.414C69.3583 169.418 67.7 167.718 65.3373 166.985C65.2226 166.948 65.1268 166.868 65.0702 166.761C65.0135 166.655 65.0005 166.531 65.0337 166.415L66.7132 160.426C66.7304 160.364 66.735 160.3 66.7266 160.237C66.7183 160.174 66.6972 160.114 66.6646 160.059C66.632 160.005 66.5887 159.957 66.5372 159.92C66.4858 159.883 66.4273 159.857 66.3653 159.843L56.318 157.602C56.2011 157.576 56.0786 157.596 55.976 157.658C55.8735 157.719 55.7986 157.818 55.767 157.934Z" fill="#1D0A03"/>
<path d="M28.5166 162.717L35.8744 171.034C35.9182 171.084 35.9722 171.124 36.0328 171.152C36.0934 171.179 36.1591 171.193 36.2256 171.193L43.1466 171.177C43.2255 171.177 43.3031 171.157 43.3721 171.119C43.4412 171.081 43.4996 171.026 43.5418 170.959C43.584 170.892 43.6086 170.816 43.6135 170.737C43.6184 170.659 43.6033 170.58 43.5696 170.509C42.5945 168.452 41.6201 166.395 40.6464 164.336C40.6067 164.253 40.5927 164.159 40.6062 164.068C40.6198 163.976 40.6603 163.891 40.7225 163.822C41.6553 162.794 42.5878 161.767 43.5199 160.74C43.6023 160.649 43.6458 160.529 43.6411 160.407C43.6363 160.285 43.5837 160.169 43.4945 160.085L36.2171 153.217C36.1699 153.172 36.114 153.138 36.053 153.117C35.9919 153.095 35.9271 153.086 35.8625 153.091C35.7979 153.096 35.735 153.114 35.6777 153.144C35.6204 153.174 35.57 153.216 35.5297 153.266L28.5018 162.117C28.4333 162.202 28.3972 162.31 28.3999 162.42C28.4026 162.529 28.444 162.635 28.5166 162.717Z" fill="#1D0A03"/>
<path d="M177.319 171.616C177.212 171.616 177.109 171.576 177.03 171.502C176.951 171.429 176.904 171.329 176.896 171.222L171.849 97.8159C171.774 96.7672 171.306 95.7858 170.537 95.0684C169.768 94.351 168.757 93.9509 167.706 93.9482H115.354C114.303 93.9509 113.291 94.3511 112.523 95.0685C111.755 95.7859 111.286 96.7673 111.211 97.8159L106.165 171.202C106.158 171.315 106.106 171.419 106.021 171.493C105.936 171.567 105.826 171.604 105.713 171.596C105.601 171.589 105.497 171.537 105.423 171.452C105.349 171.367 105.312 171.257 105.319 171.144L110.366 97.7577C110.457 96.496 111.021 95.3153 111.946 94.4522C112.871 93.5892 114.088 93.1077 115.353 93.1042H167.705C168.97 93.1079 170.187 93.5894 171.112 94.4524C172.036 95.3154 172.601 96.496 172.692 97.7577L177.742 171.167C177.75 171.278 177.713 171.389 177.639 171.473C177.565 171.558 177.461 171.609 177.349 171.617L177.319 171.616Z" fill="#1D0A03"/>
<path d="M148.557 69.8707H139.556V92.9869H148.557V69.8707Z" fill="#40C2D6"/>
<path d="M177.581 40.9788H110.532C110.078 40.9788 109.71 41.3467 109.71 41.8006V82.3198C109.71 82.7736 110.078 83.1416 110.532 83.1416H177.581C178.035 83.1416 178.403 82.7736 178.403 82.3198V41.8006C178.403 41.3467 178.035 40.9788 177.581 40.9788Z" fill="#86EBF9"/>
<mask id="mask0_104_316" style="mask-type:luminance" maskUnits="userSpaceOnUse" x="109" y="40" width="70" height="44">
<path d="M177.581 40.9788H110.532C110.078 40.9788 109.71 41.3467 109.71 41.8006V82.3198C109.71 82.7736 110.078 83.1416 110.532 83.1416H177.581C178.035 83.1416 178.403 82.7736 178.403 82.3198V41.8006C178.403 41.3467 178.035 40.9788 177.581 40.9788Z" fill="white"/>
</mask>
<g mask="url(#mask0_104_316)">
<path d="M177.581 40.9788H110.532C110.078 40.9788 109.71 41.3467 109.71 41.8006V82.3198C109.71 82.7736 110.078 83.1416 110.532 83.1416H177.581C178.035 83.1416 178.403 82.7736 178.403 82.3198V41.8006C178.403 41.3467 178.035 40.9788 177.581 40.9788Z" fill="#4EABD5"/>
<path d="M178.965 76.7366H107.36V85.0188H178.965V76.7366Z" fill="#4EABD5"/>
</g>
<path d="M83.9513 31.6189C83.9513 40.0629 75.6723 46.9078 65.4558 46.9078C61.3311 46.9078 57.5237 45.7909 54.4481 43.9084L48.6313 47.0093C48.6059 47.28 48.2082 46.9035 48.3901 46.5439L50.9834 41.1417C48.4621 38.5272 46.9518 35.219 46.9518 31.6232C46.956 23.175 55.2392 16.3322 65.4558 16.3322C75.6723 16.3322 83.9513 23.175 83.9513 31.6189Z" fill="#4EABD5"/>
<path d="M83.0682 72.6416C82.806 72.1498 82.0857 72.8362 81.3221 73.2814C80.8815 73.5403 80.4023 73.7274 79.9028 73.8356C80.457 73.3808 81.3729 72.6014 81.9123 71.9943C82.7658 71.0329 82.9699 70.447 82.5035 70.0779C82.1608 69.8061 81.8224 70.1498 80.7299 71.0647C80.164 71.5395 79.5009 72.0303 78.7521 72.3613C79.062 72.0059 79.7114 71.3523 80.329 70.648C81.2217 69.6284 82.2454 68.647 81.6775 68.0198C81.3422 67.6486 80.4454 68.4058 79.447 69.2593C78.7458 69.8579 78.0107 70.4893 77.4312 70.7717C77.9399 70.2059 78.1281 69.8981 78.4973 69.4856C79.3201 68.5634 80.5268 67.4222 79.7421 66.8046C79.2799 66.4408 77.9071 67.8939 76.7258 68.8966C75.6576 69.8019 74.7163 70.7453 74.7163 70.7453C74.7163 70.7453 76.1589 68.1012 75.1023 67.6782C74.3176 67.3683 74.1505 68.3815 73.5011 68.9875C73.2131 69.2518 72.9425 69.5344 72.691 69.8336C72.1325 70.5052 71.8554 70.9071 71.4874 71.7204C71.1194 72.5337 71.0104 74.3062 72.0892 75.7446C73.4641 77.5743 76.2318 77.7837 77.8627 77.1787C78.4539 76.9587 80.2465 76.0672 81.5114 74.9736C82.5955 74.0471 83.2798 73.0371 83.0682 72.6416Z" fill="#FC9C86"/>
<path d="M71.4936 71.8494C71.4936 71.8494 71.0198 73.4136 69.28 75.4294C69.3572 76.9302 72.5216 80.176 73.0335 79.7656C73.5454 79.3553 74.3132 78.6202 74.9985 78.1602C75.7526 77.6536 76.7563 77.6102 77.8657 77.1808C80.8186 74.9683 72.9478 68.3921 71.4936 71.8494Z" fill="#FC9C86"/>
<path d="M75.2778 73.9773C75.2404 73.9769 75.2039 73.9663 75.1721 73.9467C75.1478 73.9326 75.1266 73.9138 75.1097 73.8914C75.0927 73.8691 75.0804 73.8436 75.0734 73.8164C75.0664 73.7893 75.0649 73.761 75.069 73.7332C75.073 73.7055 75.0825 73.6788 75.097 73.6548C75.52 72.9504 74.8358 71.3893 74.5343 70.8468C74.5132 70.8086 74.5045 70.7649 74.5092 70.7215C74.5139 70.6782 74.5319 70.6373 74.5608 70.6046C74.5898 70.5718 74.6282 70.5488 74.6708 70.5387C74.7135 70.5287 74.7581 70.5321 74.7987 70.5485C74.8992 70.5887 77.2767 71.5713 77.76 73.6378C77.7676 73.6652 77.7695 73.6939 77.7658 73.7221C77.762 73.7502 77.7526 73.7774 77.7381 73.8018C77.7236 73.8263 77.7043 73.8476 77.6814 73.8644C77.6585 73.8813 77.6325 73.8933 77.6048 73.8999C77.5771 73.9064 77.5484 73.9073 77.5204 73.9025C77.4924 73.8977 77.4656 73.8873 77.4417 73.8719C77.4178 73.8566 77.3972 73.8365 77.3812 73.813C77.3653 73.7895 77.3542 73.763 77.3486 73.7351C77.0462 72.4544 75.8796 71.6199 75.1784 71.2138C75.4904 71.9298 75.8965 73.146 75.4545 73.8747C75.4361 73.9054 75.4102 73.9308 75.3794 73.9488C75.3485 73.9667 75.3135 73.9765 75.2778 73.9773Z" fill="#1D0A03"/>
<path d="M36.0826 64.8395C38.2507 64.9019 41.2649 65.3451 43.9195 67.2911C46.205 68.9663 46.9158 70.887 49.4593 74.8551C51.2128 77.5815 53.1258 80.2019 55.1884 82.7026L70.1007 73.8959C71.6279 75.6007 73.1547 77.3052 74.6812 79.0094C72.2283 81.8577 69.4384 84.3973 66.3726 86.5724C61.514 90.017 57.5522 92.826 53.0562 92.4316C44.6387 91.6912 40.1333 80.2394 39.87 79.5414C38.6785 78.1871 37.7142 76.6488 37.0144 74.9863C35.1879 70.6247 35.7241 66.6248 36.0826 64.8395Z" fill="#94BE53"/>
<path d="M121.988 70.666C122.122 63.3061 122.05 57.7631 121.953 53.9071C121.862 50.3112 121.712 46.6741 123.646 42.5906C124.115 41.5986 125.046 39.6293 126.818 37.9255C131.648 33.2995 141.196 32.1266 145.256 36.1212C148.019 38.8403 146.961 42.5356 146.275 55.7928C145.869 63.635 145.845 69.9648 145.878 73.86L121.988 70.666Z" fill="#FC9C86"/>
<path opacity="0.9" d="M121.986 64.0654C120.95 70.4111 119.913 76.7532 118.876 83.0919L148.656 83.1416C148.801 81.7074 148.965 79.6292 149 77.1079C149.04 74.1699 148.989 72.6754 148.656 70.8162C148.389 69.3207 147.757 67.1843 146.075 64.7275L121.986 64.0654Z" fill="#639B3F"/>
<path d="M174.257 156.505C174.257 156.505 169.901 150.287 170.581 147.473C171.261 144.659 175.392 150.423 175.392 150.423C175.392 150.423 172.896 143.071 175.392 142.073C177.888 141.074 178.524 149.016 178.524 149.016C178.524 149.016 179.431 141.755 181.745 142.481C184.059 143.206 181.745 150.786 181.745 150.786C181.745 150.786 184.968 145.34 186.783 146.384C188.598 147.427 184.695 153.055 184.695 153.055C184.695 153.055 190.005 147.344 192.229 149.248C194.454 151.151 189.057 154.606 189.057 154.606L188.149 157.278L174.257 156.505Z" fill="#86EBF9"/>
<path d="M186.583 156.331C186.583 156.331 190.257 151.088 189.684 148.717C189.111 146.345 185.627 151.204 185.627 151.204C185.627 151.204 187.732 145.003 185.627 144.162C183.522 143.32 182.983 150.018 182.983 150.018C182.983 150.018 182.217 143.894 180.265 144.506C178.312 145.119 180.265 151.51 180.265 151.51C180.265 151.51 177.548 146.918 176.016 147.798C174.485 148.678 177.777 153.424 177.777 153.424C177.777 153.424 173.299 148.605 171.424 150.211C169.549 151.818 174.103 154.73 174.103 154.73L174.869 156.983L186.583 156.331Z" fill="#40C2D6"/>
<path d="M42.8397 54.5903C42.81 58.0677 42.3532 61.8328 39.3961 62.2347C34.8737 62.8481 26.7682 56.1809 26.1548 51.6586C25.8744 49.4932 26.4622 47.3047 27.7899 45.5713C29.1176 43.8378 31.0774 42.7002 33.2411 42.4068C35.4048 42.1134 37.5966 42.6882 39.338 44.0055C41.0794 45.3228 42.2287 47.2757 42.5351 49.4376C42.7029 50.6507 42.8003 51.8725 42.827 53.0969C42.8312 53.5792 42.8397 54.0826 42.8397 54.5903Z" fill="#FC9C86"/>
<path d="M40.9022 51.0156C40.9148 51.101 40.9017 51.1882 40.8647 51.2662C40.8276 51.3442 40.7682 51.4094 40.694 51.4536C40.6198 51.4977 40.5341 51.5189 40.4479 51.5143C40.3617 51.5097 40.2788 51.4796 40.2097 51.4277C40.1406 51.3759 40.0885 51.3048 40.0599 51.2233C40.0314 51.1418 40.0277 51.0537 40.0493 50.9701C40.0709 50.8865 40.1169 50.8112 40.1814 50.7537C40.2458 50.6963 40.3259 50.6593 40.4115 50.6475C40.5252 50.6324 40.6403 50.6624 40.7321 50.7312C40.8238 50.8001 40.8849 50.9022 40.9022 51.0156Z" fill="#1D0A03"/>
<path d="M41.9514 48.8283C41.9303 49.0906 41.2196 48.5491 40.145 48.5703C39.5232 48.5872 38.6644 48.7733 38.5502 48.5153C38.3302 48.0118 39.062 47.6396 40.0435 47.6819C41.1138 47.7242 41.9768 48.566 41.9514 48.8283Z" fill="#1D0A03"/>
<path d="M35.259 51.7855C35.2735 51.8993 35.2425 52.0142 35.1728 52.1052C35.1031 52.1963 35.0003 52.2562 34.8867 52.272C34.8017 52.2834 34.7152 52.2693 34.6382 52.2316C34.5611 52.1938 34.497 52.134 34.454 52.0598C34.411 51.9855 34.3909 51.9002 34.3964 51.8146C34.4019 51.7289 34.4326 51.6469 34.4848 51.5787C34.5369 51.5106 34.6081 51.4595 34.6893 51.4318C34.7705 51.4041 34.8581 51.4012 34.941 51.4233C35.0239 51.4455 35.0984 51.4917 35.155 51.5562C35.2116 51.6206 35.2478 51.7005 35.259 51.7855Z" fill="#1D0A03"/>
<path d="M35.9948 48.8622C35.9568 49.1414 35.0768 49.1879 34.4761 49.3402C33.4312 49.6067 32.8897 50.3175 32.8008 50.0721C32.712 49.8267 33.317 48.786 34.3365 48.4561C35.2672 48.1557 36.071 48.3165 35.9948 48.8622Z" fill="#1D0A03"/>
<path d="M38.7068 55.9398C38.6525 55.9508 38.5961 55.9408 38.5489 55.9117C38.5018 55.8827 38.4675 55.8367 38.453 55.7832C38.453 55.7579 37.9327 53.503 37.7465 52.1408C37.7393 52.0853 37.7544 52.0292 37.7885 51.9848C37.8226 51.9404 37.8729 51.9113 37.9284 51.9039C37.9839 51.8967 38.0401 51.9118 38.0845 51.9459C38.1289 51.98 38.158 52.0303 38.1653 52.0858C38.3472 53.4269 38.8591 55.6648 38.8633 55.6817C38.8703 55.7089 38.8717 55.7373 38.8676 55.7651C38.8634 55.7929 38.8538 55.8195 38.8392 55.8436C38.8246 55.8676 38.8054 55.8885 38.7827 55.905C38.76 55.9215 38.7342 55.9333 38.7068 55.9398Z" fill="#1D0A03"/>
<path d="M43.1117 102.454C42.9445 102.308 42.8268 102.114 42.7749 101.898C42.7229 101.682 42.7393 101.456 42.8218 101.25C42.9043 101.044 43.0488 100.869 43.2353 100.749C43.4218 100.629 43.641 100.569 43.8626 100.579C45.7367 100.665 47.945 100.806 50.405 101.038C66.9735 102.606 79.5454 103.796 82.4506 110.028C85.6129 116.825 76.3027 127.489 62.6638 143.082C56.8826 149.692 50.7143 155.953 44.1915 161.833C44.0343 161.976 43.8375 162.069 43.627 162.098C43.4164 162.128 43.2019 162.093 43.0112 161.999C39.0596 160.055 35.7732 156.982 33.5678 153.17C33.4604 152.982 33.413 152.765 33.4319 152.549C33.4508 152.333 33.5351 152.128 33.6736 151.961L60.6575 119.15C60.8329 118.935 60.9182 118.661 60.8953 118.385C60.8724 118.109 60.7432 117.852 60.5348 117.669L43.1117 102.454Z" fill="#102D55"/>
<path d="M21.053 97.9723C20.8294 97.9878 20.6164 98.0733 20.444 98.2166C20.2717 98.3599 20.1488 98.5538 20.0927 98.7708C19.2413 102.07 16.9632 112.799 22.2608 118.465C24.7388 121.115 27.9402 121.658 31.498 122.007C37.9674 122.641 47.7344 122.842 60.2714 120.308C60.4428 120.274 60.6201 120.282 60.7875 120.333C60.955 120.383 61.1075 120.473 61.2318 120.596C61.3561 120.719 61.4482 120.871 61.5002 121.038C61.5522 121.205 61.5624 121.382 61.5299 121.554L54.2546 160.127C54.2157 160.328 54.2356 160.536 54.312 160.726C54.3884 160.916 54.5179 161.079 54.6851 161.197C56.5977 162.544 58.7394 163.531 61.0054 164.11C62.92 164.594 64.9 164.768 66.8698 164.625C67.0788 164.608 67.2782 164.53 67.4433 164.401C67.6083 164.271 67.7318 164.096 67.7984 163.897C73.0674 148.245 75.9579 135.052 77.6342 125.66C80.2052 111.235 79.7494 106.689 77.2238 103.849C75.7432 102.181 73.7337 101.411 53.8231 100.254C49.7672 100.018 46.2823 99.8422 43.5865 99.7163C43.3486 99.7052 43.1213 99.6147 42.9409 99.4592C42.7605 99.3037 42.6374 99.0923 42.5913 98.8586L42.3015 97.4054C42.2502 97.1504 42.1078 96.9228 41.9009 96.7651C41.694 96.6075 41.4367 96.5306 41.1773 96.5488L21.053 97.9723Z" fill="#306F9F"/>
<path d="M20.2883 98.0263L46.2686 96.5414V101.937L31.0675 102.95L20.2883 98.0263Z" fill="#94BE53"/>
<path d="M185.42 91.2344H97.6442C97.535 91.2344 97.4464 91.3229 97.4464 91.4322V94.3279C97.4464 94.4371 97.535 94.5257 97.6442 94.5257H185.42C185.529 94.5257 185.617 94.4371 185.617 94.3279V91.4322C185.617 91.3229 185.529 91.2344 185.42 91.2344Z" fill="#4EABD5"/>
<path d="M38.8208 62.4038V64.8363C38.8208 64.8363 33.8035 63.5164 31.168 58.5499C31.7862 59.3166 32.5113 59.9905 33.3213 60.5509C35.483 62.0442 37.6871 62.3382 38.8208 62.4038Z" fill="#1D0A03"/>
<path d="M39.1889 63.7228H27.9803C27.881 63.7228 27.8005 63.8033 27.8005 63.9026V66.8459C27.8005 66.9452 27.881 67.0257 27.9803 67.0257H39.1889C39.2882 67.0257 39.3687 66.9452 39.3687 66.8459V63.9026C39.3687 63.8033 39.2882 63.7228 39.1889 63.7228Z" fill="#94BE53"/>
<path d="M25.6442 103.162C25.5931 103.162 25.5438 103.143 25.5055 103.109C25.4673 103.075 25.4425 103.029 25.436 102.978C25.4294 102.927 25.4414 102.876 25.4698 102.833C25.4981 102.791 25.5409 102.76 25.5903 102.747C25.6622 102.727 32.8666 100.818 38.9394 101.242C38.9676 101.243 38.9952 101.25 39.0205 101.263C39.0459 101.275 39.0685 101.293 39.087 101.314C39.1055 101.335 39.1196 101.36 39.1284 101.387C39.1372 101.414 39.1406 101.442 39.1383 101.47C39.1342 101.526 39.1082 101.578 39.066 101.614C39.0238 101.651 38.9688 101.669 38.913 101.666C32.91 101.243 25.7732 103.138 25.7013 103.157C25.6826 103.161 25.6634 103.163 25.6442 103.162Z" fill="#1D0A03"/>
<path d="M42.3406 48.4688C40.9872 46.2479 39.0259 44.4612 36.6887 43.3203C36.0049 43.7421 35.3935 44.2714 34.8781 44.8877C32.8898 47.2737 33.664 49.5412 31.6799 51.208C30.6096 52.1091 30.1315 51.6691 29.4885 52.4771C27.9148 54.457 30.4531 57.7736 29.4885 58.7339C28.6593 59.5631 24.467 58.1205 22.3771 54.8292C20.0165 51.1064 20.1561 44.7312 24.4543 41.406C28.8201 38.0344 34.3747 40.2004 34.6285 40.3061C35.3372 40.0672 36.0805 39.9471 36.8283 39.9508C37.4756 39.9508 39.3666 39.9634 40.9023 41.351C42.3364 42.6456 42.586 44.3673 42.679 44.8919C42.9062 46.0922 42.7889 47.3323 42.3406 48.4688Z" fill="#1D0A03"/>
<path d="M29.0738 56.0287C28.0501 56.6125 26.6413 56.0794 25.9306 54.8314C25.2199 53.5835 25.478 52.107 26.5017 51.519C27.5255 50.931 28.9342 51.4725 29.6407 52.7162C30.3472 53.96 30.0976 55.4406 29.0738 56.0287Z" fill="#FC9C86"/>
<path d="M29.2179 54.696C29.2179 54.7521 29.1957 54.8059 29.156 54.8456C29.1163 54.8853 29.0625 54.9076 29.0064 54.9076C28.7145 54.9076 28.1223 54.7426 27.9742 54.108C27.8811 53.7061 28.2111 53.4227 28.5326 53.2619C28.2407 52.8642 27.6865 52.2762 27.1408 52.3777C26.5739 52.4835 26.667 53.1181 26.6755 53.1942C26.6853 53.2492 26.6731 53.3058 26.6414 53.3518C26.6097 53.3977 26.5611 53.4293 26.5062 53.4396C26.4787 53.4444 26.4505 53.4438 26.4233 53.4377C26.396 53.4316 26.3702 53.4201 26.3474 53.404C26.3246 53.3879 26.3052 53.3674 26.2903 53.3437C26.2755 53.3201 26.2655 53.2937 26.2609 53.2661C26.1932 52.8812 26.2736 52.1112 27.0647 51.9632C28.135 51.7643 28.998 53.1942 29.0318 53.2577C29.0479 53.2851 29.0576 53.3157 29.0603 53.3474C29.0629 53.3791 29.0583 53.4109 29.0469 53.4406C29.0356 53.4703 29.0176 53.497 28.9945 53.5188C28.9714 53.5406 28.9437 53.5569 28.9134 53.5665C28.7864 53.6046 28.3338 53.7907 28.3846 54.0107C28.4903 54.4591 28.9557 54.4803 29.0064 54.4803C29.0346 54.4803 29.0624 54.4859 29.0884 54.4968C29.1143 54.5077 29.1378 54.5236 29.1575 54.5437C29.1772 54.5638 29.1927 54.5876 29.2031 54.6138C29.2135 54.6399 29.2185 54.6679 29.2179 54.696Z" fill="#1D0A03"/>
<path d="M28.5324 40.0714L23.7604 45.664C23.7604 45.664 18.2228 46.3578 17.1567 43.9084C16.0906 41.459 18.5951 36.5051 22.8044 36.1117C27.0136 35.7183 28.5324 40.0714 28.5324 40.0714Z" fill="#1D0A03"/>
<path d="M56.9517 105.452C56.9517 105.452 59.5143 105.729 60.5634 106.347C61.6126 106.964 62.3847 106.747 63.5882 106.347C64.7918 105.946 67.0455 107.396 68.1254 107.705C69.2052 108.013 68.4342 106.347 66.9832 105.452C67.6717 105.627 68.321 105.931 68.8974 106.347C69.8228 107.026 70.2237 107.426 70.7493 107.119C71.2749 106.811 69.7975 104.865 68.4035 104.279C68.4035 104.279 70.0079 104.603 70.6097 105.004C71.2115 105.406 72.1686 106.591 72.6784 106.285C73.1882 105.98 71.9835 104.263 71.4093 103.816C70.835 103.368 69.4643 102.998 69.4643 102.998C70.6277 102.836 71.3564 103.081 71.8101 103.338C72.4679 103.709 72.9735 104.348 73.6165 104.207C73.7286 104.182 73.9094 104.143 73.9867 103.996C74.2585 103.494 72.929 102.237 72.0311 101.547C71.1195 100.844 70.01 100.296 68.4617 99.9227C65.6305 99.2405 64.6363 99.9385 61.8876 99.5927C60.2413 99.377 58.6421 98.8903 57.1548 98.1522C55.4943 99.6456 54.8079 101.748 55.4224 103.475C55.783 104.487 56.4948 105.12 56.9517 105.452Z" fill="#FC9C86"/>
<path d="M22.8268 76.8783C22.7263 80.0512 22.2684 94.4008 32.0957 100.955C34.4616 102.533 38.3694 103.149 46.0974 104.52C50.2295 105.253 53.7598 105.675 56.3763 105.929C56.5934 105.95 56.8118 105.906 57.0046 105.804C57.1974 105.703 57.3562 105.547 57.4614 105.356L60.4122 100.034C60.4932 99.8878 60.5406 99.7256 60.5509 99.559C60.5611 99.3924 60.534 99.2256 60.4714 99.0709C60.4088 98.9161 60.3124 98.7773 60.1893 98.6647C60.0661 98.552 59.9193 98.4683 59.7596 98.4198L40.8844 92.6526C40.6425 92.5798 40.4328 92.4264 40.2901 92.2179C38.5735 89.7133 37.2805 86.9435 36.4626 84.0193C34.1284 75.5584 37.1775 70.1128 33.7995 67.2943C31.7499 65.5841 28.3422 65.6814 26.2365 66.977C23.143 68.8701 22.941 73.3131 22.8268 76.8783Z" fill="#94BE53"/>
<path d="M46.0984 88.5957C46.0423 88.5957 45.9885 88.5734 45.9489 88.5337C45.9092 88.494 45.8869 88.4402 45.8869 88.3841V82.6318C45.8869 82.586 45.9017 82.5415 45.9292 82.5049C46.2581 82.0649 47.3041 80.4743 46.8811 78.4658C46.6843 77.5378 46.2229 76.6867 45.5527 76.0154C45.526 75.9886 45.5073 75.9549 45.4988 75.9181L44.2148 70.7992C44.2067 70.772 44.2041 70.7433 44.2072 70.7151C44.2104 70.6868 44.2192 70.6594 44.2332 70.6346C44.2472 70.6099 44.266 70.5882 44.2886 70.5708C44.3112 70.5535 44.337 70.5409 44.3645 70.5338C44.3921 70.5266 44.4208 70.5252 44.4489 70.5294C44.4771 70.5336 44.5041 70.5435 44.5283 70.5584C44.5525 70.5733 44.5735 70.593 44.59 70.6162C44.6064 70.6394 44.618 70.6657 44.6241 70.6935L45.9028 75.7594C46.6088 76.4826 47.0948 77.3915 47.3041 78.3802C47.7367 80.4827 46.7087 82.1559 46.3142 82.7005V88.3841C46.3142 88.4123 46.3086 88.4401 46.2977 88.4661C46.2868 88.492 46.2708 88.5155 46.2507 88.5352C46.2306 88.5549 46.2068 88.5704 46.1807 88.5808C46.1545 88.5912 46.1266 88.5962 46.0984 88.5957Z" fill="#1D0A03"/>
<path d="M45.2533 94.1989C45.2234 94.199 45.1939 94.1929 45.1666 94.1809L38.2699 91.062C38.2229 91.0408 38.1853 91.0032 38.1641 90.9562C35.7009 85.4566 34.4043 81.15 34.3112 78.1591V78.0703C34.2874 76.5941 34.0046 75.1336 33.4757 73.7552C32.989 72.5133 32.3051 71.358 31.4504 70.3338C31.4326 70.3125 31.4192 70.2878 31.411 70.2612C31.4028 70.2347 31.3998 70.2067 31.4024 70.179C31.4049 70.1513 31.4129 70.1244 31.4259 70.0998C31.4388 70.0752 31.4565 70.0534 31.4779 70.0356C31.4993 70.0178 31.524 70.0044 31.5505 69.9962C31.5771 69.988 31.605 69.985 31.6327 69.9876C31.6604 69.9901 31.6873 69.9981 31.7119 70.0111C31.7366 70.024 31.7584 70.0417 31.7761 70.0631C32.6596 71.1226 33.3667 72.3175 33.8702 73.6019C34.4167 75.0255 34.7092 76.5339 34.7343 78.0586V78.1464C34.8263 81.0633 36.0997 85.2885 38.5184 90.7056L45.3421 93.7906C45.3861 93.8106 45.4219 93.8451 45.4435 93.8883C45.4652 93.9315 45.4714 93.9808 45.4611 94.028C45.4509 94.0752 45.4248 94.1175 45.3871 94.1478C45.3495 94.1781 45.3027 94.1946 45.2543 94.1946L45.2533 94.1989Z" fill="#1D0A03"/>
<path d="M27.8355 97.1253C27.8053 97.1253 27.7753 97.1188 27.7478 97.1062C27.7202 97.0936 27.6957 97.0752 27.6758 97.0523C26.1793 95.3073 22.74 85.7708 22.594 85.3657C22.583 85.3393 22.5775 85.3108 22.5778 85.2822C22.5781 85.2535 22.5842 85.2252 22.5958 85.199C22.6074 85.1728 22.6241 85.1492 22.6451 85.1296C22.6661 85.1101 22.6908 85.095 22.7178 85.0853C22.7448 85.0756 22.7735 85.0715 22.8021 85.0733C22.8307 85.075 22.8586 85.0825 22.8843 85.0954C22.9099 85.1083 22.9326 85.1262 22.9511 85.1481C22.9695 85.1701 22.9834 85.1955 22.9917 85.223C23.0276 85.3213 26.5516 95.0905 27.9963 96.7763C28.0144 96.7974 28.0281 96.8219 28.0367 96.8483C28.0453 96.8747 28.0486 96.9025 28.0464 96.9302C28.0443 96.9579 28.0367 96.9849 28.0241 97.0097C28.0115 97.0344 27.9941 97.0565 27.973 97.0745C27.935 97.1078 27.8861 97.1259 27.8355 97.1253Z" fill="#1D0A03"/>
<path d="M53.839 85.5064C53.8051 85.506 53.7718 85.4976 53.7417 85.482C53.7171 85.4692 53.6952 85.4516 53.6773 85.4303C53.6594 85.409 53.6459 85.3844 53.6376 85.3579C53.6292 85.3314 53.6262 85.3035 53.6286 85.2758C53.6311 85.2481 53.639 85.2211 53.6518 85.1965L55.0024 82.6043C55.0152 82.5796 55.0328 82.5577 55.0541 82.5399C55.0754 82.522 55.1 82.5085 55.1266 82.5002C55.1531 82.4918 55.181 82.4888 55.2087 82.4912C55.2364 82.4937 55.2633 82.5015 55.288 82.5144C55.3126 82.5272 55.3345 82.5448 55.3523 82.5661C55.3702 82.5874 55.3837 82.612 55.392 82.6385C55.4004 82.6651 55.4034 82.693 55.401 82.7206C55.3986 82.7483 55.3907 82.7753 55.3778 82.7999L54.0273 85.3943C54.0091 85.4283 53.982 85.4568 53.9488 85.4766C53.9156 85.4963 53.8777 85.5066 53.839 85.5064Z" fill="#1D0A03"/>
<path d="M35.7231 93.4956C35.6936 93.4957 35.6645 93.4896 35.6376 93.4777C35.6106 93.4659 35.5864 93.4486 35.5665 93.4269C35.5289 93.3854 35.5092 93.3308 35.5118 93.2749C35.5144 93.219 35.539 93.1664 35.5803 93.1286L38.2137 90.7141C38.2346 90.6953 38.2589 90.6807 38.2854 90.6713C38.3118 90.6619 38.3399 90.6578 38.3679 90.6592C38.3959 90.6606 38.4234 90.6676 38.4488 90.6796C38.4741 90.6917 38.4969 90.7086 38.5157 90.7294C38.5345 90.7503 38.549 90.7746 38.5585 90.801C38.5679 90.8275 38.572 90.8555 38.5706 90.8836C38.5691 90.9116 38.5622 90.9391 38.5502 90.9644C38.5381 90.9898 38.5212 91.0125 38.5004 91.0314L35.8659 93.4459C35.826 93.4795 35.7752 93.4972 35.7231 93.4956Z" fill="#1D0A03"/>
<path d="M41.6246 45.9676C41.5838 45.9678 41.5439 45.9562 41.5095 45.9342C41.4752 45.9123 41.4479 45.8809 41.431 45.8438C40.5363 43.8756 38.236 42.7059 38.2127 42.6942C38.1625 42.6691 38.1243 42.6251 38.1066 42.5719C38.0888 42.5186 38.0929 42.4605 38.118 42.4103C38.1432 42.3601 38.1872 42.3219 38.2404 42.3041C38.2937 42.2864 38.3518 42.2905 38.402 42.3156C38.5014 42.3653 40.8588 43.5615 41.816 45.6682C41.8275 45.6936 41.8339 45.721 41.8348 45.7488C41.8357 45.7766 41.8311 45.8043 41.8213 45.8303C41.8114 45.8564 41.7966 45.8802 41.7775 45.9005C41.7585 45.9208 41.7356 45.9371 41.7102 45.9485C41.6833 45.9608 41.6541 45.9673 41.6246 45.9676Z" fill="white"/>
<path d="M28.3708 50.0055C28.3243 50.0055 28.2777 50.0055 28.2301 50.0055C28.1742 50.0036 28.1213 49.9796 28.0831 49.9388C28.0448 49.8979 28.0243 49.8436 28.026 49.7877C28.025 49.7594 28.03 49.7312 28.0408 49.705C28.0515 49.6789 28.0678 49.6553 28.0884 49.636C28.1091 49.6166 28.1337 49.6019 28.1605 49.5929C28.1873 49.5838 28.2157 49.5807 28.2439 49.5836C31.6282 49.6893 33.1353 45.2897 33.1501 45.2474C33.1577 45.2196 33.1708 45.1937 33.1888 45.1712C33.2067 45.1487 33.229 45.1301 33.2543 45.1165C33.2797 45.1029 33.3075 45.0947 33.3362 45.0922C33.3648 45.0897 33.3937 45.0932 33.421 45.1022C33.4482 45.1113 33.4734 45.1258 33.4949 45.145C33.5164 45.1641 33.5337 45.1874 33.5459 45.2134C33.558 45.2395 33.5648 45.2678 33.5657 45.2965C33.5665 45.3252 33.5615 45.3539 33.551 45.3806C33.4875 45.5689 31.9709 50.0055 28.3708 50.0055Z" fill="white"/>
<path d="M26.2997 48.858C25.7058 48.8657 25.1166 48.7531 24.5674 48.527C24.5407 48.5169 24.5164 48.5016 24.4959 48.4819C24.4753 48.4622 24.459 48.4385 24.4478 48.4123C24.4366 48.3862 24.4308 48.358 24.4308 48.3295C24.4307 48.3011 24.4364 48.2729 24.4476 48.2467C24.4587 48.2204 24.475 48.1968 24.4954 48.177C24.5159 48.1572 24.5402 48.1418 24.5668 48.1316C24.5934 48.1215 24.6217 48.1168 24.6502 48.1178C24.6786 48.1189 24.7066 48.1257 24.7323 48.1378C27.3637 49.2525 31.0124 46.8285 31.0484 46.8042C31.095 46.7727 31.1521 46.7611 31.2072 46.7718C31.2624 46.7825 31.311 46.8147 31.3424 46.8613C31.3738 46.9078 31.3855 46.965 31.3748 47.0201C31.364 47.0753 31.3319 47.1239 31.2853 47.1553C31.1584 47.2399 28.7259 48.858 26.2997 48.858Z" fill="white"/>
<path d="M26.0736 39.9169C26.0276 39.9168 25.9828 39.9016 25.9462 39.8738C25.9095 39.8459 25.883 39.8068 25.8705 39.7625C25.659 39.0222 25.2518 38.4775 24.6469 38.1433C23.236 37.3638 21.216 37.9487 21.1948 37.955C21.1682 37.963 21.1402 37.9655 21.1125 37.9627C21.0849 37.9598 21.058 37.9515 21.0336 37.9382C21.0091 37.9249 20.9875 37.907 20.97 37.8854C20.9525 37.8638 20.9394 37.8389 20.9315 37.8123C20.9236 37.7856 20.921 37.7576 20.9239 37.73C20.9268 37.7023 20.9351 37.6755 20.9483 37.651C20.9616 37.6266 20.9795 37.605 21.0011 37.5874C21.0228 37.5699 21.0476 37.5568 21.0743 37.5489C21.1642 37.5225 23.2826 36.9069 24.8489 37.7721C25.5585 38.1634 26.0387 38.7937 26.2777 39.6483C26.2927 39.7023 26.2856 39.76 26.258 39.8088C26.2305 39.8575 26.1847 39.8934 26.1307 39.9084C26.1121 39.9139 26.0929 39.9167 26.0736 39.9169Z" fill="white"/>
<path d="M39.0494 57.8223C39.0494 58.2284 38.4359 58.5542 37.6745 58.5542C36.913 58.5542 36.2996 58.2284 36.2996 57.8223C36.2996 57.4162 36.913 57.0905 37.6745 57.0905C38.4359 57.0905 39.0494 57.4204 39.0494 57.8223Z" fill="#1D0A03"/>
<path d="M142.623 22.5954C142.052 26.8089 134.501 33.0234 130.283 32.4523C127.533 32.0758 127.102 28.5688 127.076 25.3283C127.076 24.8544 127.076 24.3849 127.085 23.9322C127.11 22.7913 127.202 21.6528 127.36 20.5225C127.635 18.4984 128.702 16.6664 130.328 15.4296C131.954 14.1927 134.004 13.6523 136.028 13.9272C138.052 14.2021 139.884 15.2698 141.121 16.8954C142.358 18.521 142.898 20.5713 142.623 22.5954Z" fill="#FC9C86"/>
<path d="M129.678 22.1089C129.667 22.1879 129.633 22.2618 129.58 22.3213C129.527 22.3809 129.457 22.4234 129.38 22.4435C129.303 22.4636 129.221 22.4604 129.146 22.4343C129.071 22.4082 129.005 22.3603 128.956 22.2968C128.908 22.2333 128.88 22.1569 128.875 22.0773C128.87 21.9977 128.889 21.9184 128.929 21.8494C128.969 21.7805 129.029 21.7249 129.1 21.6898C129.172 21.6547 129.252 21.6415 129.331 21.652C129.384 21.659 129.435 21.6764 129.481 21.7032C129.527 21.7301 129.568 21.7657 129.6 21.8082C129.632 21.8507 129.656 21.8991 129.669 21.9507C129.683 22.0023 129.686 22.0561 129.678 22.1089Z" fill="#1D0A03"/>
<path d="M131.002 19.928C130.858 20.148 130.097 19.8434 129.53 19.7376C128.544 19.5515 127.808 19.9365 127.825 19.6953C127.842 19.4542 128.769 18.8112 129.759 18.9339C130.664 19.046 131.282 19.4944 131.002 19.928Z" fill="#1D0A03"/>
<path d="M134.936 22.8196C134.926 22.8986 134.892 22.9727 134.84 23.0325C134.787 23.0924 134.718 23.1353 134.641 23.1558C134.564 23.1763 134.483 23.1736 134.407 23.1479C134.332 23.1223 134.266 23.0748 134.217 23.0116C134.169 22.9483 134.14 22.8722 134.135 22.7927C134.13 22.7132 134.148 22.6339 134.188 22.5649C134.228 22.4959 134.287 22.4403 134.359 22.4051C134.43 22.3698 134.511 22.3566 134.59 22.367C134.642 22.3739 134.693 22.3911 134.739 22.4176C134.784 22.4441 134.825 22.4793 134.857 22.5214C134.889 22.5634 134.913 22.6114 134.926 22.6626C134.94 22.7137 134.943 22.7671 134.936 22.8196Z" fill="#1D0A03"/>
<path d="M136.616 20.7552C136.591 20.9963 135.939 20.476 134.937 20.476C134.361 20.476 133.553 20.6325 133.456 20.3914C133.261 19.9133 133.951 19.5876 134.86 19.6426C135.859 19.706 136.65 20.5098 136.616 20.7552Z" fill="#1D0A03"/>
<path d="M131.832 23.0481C131.658 24.3172 131.18 26.4197 131.176 26.4409C131.165 26.4886 131.138 26.5311 131.1 26.5612C131.061 26.5913 131.013 26.6071 130.964 26.6059C130.949 26.6081 130.933 26.6081 130.918 26.6059C130.891 26.5999 130.865 26.5885 130.842 26.5725C130.819 26.5564 130.799 26.536 130.785 26.5124C130.77 26.4888 130.759 26.4625 130.755 26.435C130.75 26.4075 130.751 26.3793 130.757 26.352C130.757 26.3309 131.239 24.2453 131.409 22.9931C131.417 22.9383 131.446 22.8891 131.491 22.8558C131.535 22.8226 131.591 22.8081 131.645 22.8154C131.701 22.8218 131.752 22.8498 131.786 22.8934C131.821 22.937 131.838 22.9926 131.832 23.0481Z" fill="#1D0A03"/>
<path d="M137.949 29.0236C135.491 33.6517 130.816 34.8785 130.816 34.8785V32.6089C132.65 32.5139 134.422 31.9168 135.939 30.8828C136.695 30.3622 137.371 29.7361 137.949 29.0236Z" fill="#1D0A03"/>
<path d="M67.0284 43.6323C66.6579 43.631 66.2885 43.5909 65.9264 43.5128C59.2444 42.0904 58.1138 43.4166 58.1 43.4303C58.0666 43.4748 58.017 43.5042 57.9619 43.5124C57.9069 43.5205 57.8509 43.5066 57.806 43.4737C57.762 43.4416 57.7321 43.3938 57.7224 43.3403C57.7128 43.2867 57.7242 43.2314 57.7542 43.186C57.8674 43.0221 59.0529 41.6187 66.012 43.0983C68.3578 43.5985 69.7644 42.3029 70.5333 41.1142C64.7683 41.808 56.9007 40.4796 52.8331 37.1238C50.6767 35.3428 49.8591 33.1493 50.4673 30.7781C51.0637 28.49 52.2909 26.4154 54.0089 24.7907C55.7269 23.166 57.8668 22.0565 60.1846 21.5886C62.0259 21.2226 63.7995 21.3189 65.3753 21.8318C66.2544 21.6628 67.1561 21.6471 68.0405 21.7853C73.8648 22.7086 77.7103 27.8993 78.4284 32.3836C79.6931 32.4241 80.9477 32.6231 82.1628 32.9759C82.214 32.9935 82.2565 33.0301 82.2815 33.0782C82.3066 33.1262 82.3122 33.182 82.2973 33.2341C82.2824 33.2862 82.248 33.3305 82.2014 33.3581C82.1547 33.3856 82.0993 33.3941 82.0465 33.382C80.8878 33.0458 79.6922 32.8533 78.4865 32.8088C78.8789 36.1138 77.5982 38.7123 74.9488 39.9635C73.8912 40.4637 72.5629 40.8223 71.0748 41.0401C71.0219 41.1311 70.969 41.221 70.9119 41.3077C69.9347 42.8423 68.6053 43.6323 67.0284 43.6323ZM62.3749 21.7916C61.6685 21.7928 60.9638 21.8637 60.2713 22.0031C58.0311 22.4556 55.9631 23.5283 54.303 25.099C52.6429 26.6698 51.4574 28.6753 50.8818 30.8871C50.3097 33.1165 51.0585 35.1048 53.1081 36.797C57.1778 40.1602 65.1332 41.442 70.8083 40.6615C71.7104 39.0159 72.1303 36.8245 72.106 34.5274L72.0002 34.5845L71.7538 34.7146C71.6902 35.0316 71.604 35.3437 71.4957 35.6484C70.3821 38.7673 67.3647 39.9212 63.423 38.7335C58.7558 37.3279 57.53 32.9251 58.3856 29.1854C59.2941 25.213 61.8059 22.8735 64.5451 22.0423C63.8331 21.875 63.1041 21.7909 62.3728 21.7916H62.3749ZM72.5121 34.3116C72.5639 36.6384 72.179 38.8593 71.3233 40.5843C72.6401 40.3728 73.8161 40.0344 74.7701 39.5838C77.2587 38.4077 78.4516 35.9425 78.0624 32.8024C77.7007 32.8024 77.3422 32.813 76.9847 32.8394C75.2513 32.9663 73.8447 33.6178 72.5121 34.3116ZM65.2897 22.2548C61.9106 22.9476 59.5437 26.003 58.7928 29.2806C57.5892 34.5422 60.5981 37.4432 63.5404 38.3295C68.876 39.936 70.5989 36.8911 71.0928 35.5067C71.1555 35.3304 71.2105 35.1517 71.2578 34.9705C69.4905 35.8737 67.7254 36.5696 65.3605 35.8927C63.4727 35.3544 61.5161 33.6464 61.6113 31.9648C61.6631 31.0383 62.3781 30.0769 63.5721 29.326C65.0908 28.3742 67.5836 27.7026 69.4725 28.4852C71.1795 29.1917 72.1451 31.7268 71.8352 34.1963L72.0922 34.061C71.9727 30.8173 70.9828 27.4192 69.2229 25.0713C68.2322 23.7508 66.8589 22.7675 65.2897 22.2548ZM67.5974 28.5614C66.2225 28.5614 64.7926 29.0595 63.7974 29.6846C62.7228 30.3562 62.0777 31.1959 62.0333 31.9849C61.9593 33.3027 63.5679 34.9367 65.4758 35.4824C67.8227 36.1529 69.5772 35.3671 71.3731 34.4301C71.7876 32.0526 70.9225 29.5397 69.3107 28.8713C68.7658 28.6549 68.1836 28.5478 67.5974 28.5561V28.5614ZM66.1569 22.1322C67.5064 22.7148 68.68 23.6401 69.5614 24.8164C71.3307 27.1749 72.3408 30.573 72.4952 33.8473C73.814 33.1705 75.2154 32.5507 76.953 32.4206C77.3013 32.3952 77.6503 32.3825 78.0001 32.3825C77.2777 28.0633 73.5718 23.0946 67.976 22.2083C67.375 22.1089 66.7644 22.0815 66.1569 22.1269V22.1322Z" fill="#1D0A03"/>
<path d="M136.895 44.1115C136.472 44.4288 135.372 44.7249 132.178 42.5885C129.784 45.4314 116.17 61.2406 106.267 57.5812C105.539 57.3105 104.549 56.8324 101.901 54.603C97.7468 51.1129 92.6111 45.9137 87.8053 38.3158C89.2606 37.1975 90.7158 36.0744 92.1711 34.9462L109 48.7417C112.735 46.4037 116.331 43.8512 119.771 41.0973C121.992 39.3205 123.438 38.0175 125.926 36.8288C129.416 35.162 132.728 34.8193 134.941 34.7812C135.918 36.907 138.528 42.8783 136.895 44.1115Z" fill="#FC9C86"/>
<path opacity="0.9" d="M130.814 35.217C130.814 35.217 125.666 36.1382 121.907 38.852C118.976 40.9672 115.554 43.1639 114.186 44.0279C114.015 44.1366 113.886 44.3015 113.822 44.4943C113.759 44.6872 113.764 44.8961 113.837 45.0855L117.661 55.0747C117.706 55.1902 117.774 55.2951 117.861 55.3825C117.949 55.4699 118.054 55.5378 118.17 55.5817C118.285 55.6256 118.409 55.6446 118.532 55.6375C118.656 55.6303 118.776 55.5971 118.886 55.54L120.113 54.9055C120.243 54.8376 120.389 54.8036 120.536 54.8065C120.682 54.8094 120.826 54.8492 120.954 54.9221C121.081 54.9951 121.189 55.0989 121.266 55.224C121.343 55.3492 121.387 55.4916 121.395 55.6384L121.862 64.4642C121.874 64.685 121.969 64.8934 122.127 65.0475C122.286 65.2016 122.497 65.2902 122.718 65.2954L145.862 65.8285C145.981 65.8311 146.099 65.8095 146.21 65.7649C146.32 65.7203 146.421 65.6537 146.505 65.5691C146.589 65.4845 146.655 65.3837 146.698 65.2729C146.742 65.162 146.763 65.0434 146.759 64.9242L146.141 44.4066C146.141 44.4066 145.665 36.6088 144.398 35.2127C143.255 33.9552 140.696 33.8125 140.202 33.7966C140.149 33.7945 140.095 33.7977 140.043 33.8061L130.814 35.217Z" fill="#639B3F"/>
<path d="M135.255 35.5427C136.671 34.9279 138.182 34.5585 139.722 34.4502C139.722 34.4502 142.049 34.2905 144.388 34.9473C151.304 36.888 155.299 49.5116 157.789 57.3813C158.235 58.7922 158.846 60.8397 157.888 62.643C156.849 64.6112 154.408 65.4298 150.443 66.0178C146.657 66.5794 140.95 67.0077 133.692 65.9935C133.75 64.0743 133.808 62.155 133.865 60.2358L148.557 57.5791C146.485 52.6817 144.413 47.7846 142.339 42.8878C141.654 42.7461 137.958 41.9148 136.155 38.5664C135.655 37.629 135.349 36.6008 135.255 35.5427Z" fill="#FC9C86"/>
<path opacity="0.9" d="M133.794 35.7701C133.78 35.5878 133.823 35.4056 133.918 35.2493C134.013 35.0931 134.155 34.9707 134.323 34.8997C136.23 34.0887 138.253 33.5854 140.317 33.4084C141.586 33.3027 142.653 33.2107 143.841 33.4581C147.162 34.1488 149.129 36.998 151.633 40.7557C153.354 43.3343 154.811 46.0792 155.983 48.949C156.069 49.1607 156.068 49.3973 155.982 49.6086C155.895 49.8199 155.73 49.9893 155.521 50.0806L146.486 54.0424C146.289 54.1285 146.068 54.1397 145.864 54.0741C145.66 54.0084 145.487 53.8704 145.377 53.686L140.118 44.8359C140.033 44.6915 139.908 44.5747 139.758 44.4996C138.687 43.9708 136.319 42.5716 134.88 39.7097C134.265 38.4797 133.896 37.1414 133.794 35.7701Z" fill="#639B3F"/>
<path d="M140.318 33.4085C140.318 33.4085 137.34 37.4781 134.484 37.5331C131.629 37.5881 130.816 35.2233 130.816 35.2233C134.416 32.262 140.318 33.4085 140.318 33.4085Z" fill="#FC9C86"/>
<path d="M122.3 51.6364C122.258 51.6364 122.217 51.6239 122.182 51.6006C122.148 51.5772 122.121 51.5441 122.105 51.5053C120.573 47.7782 123.541 44.6657 123.975 44.2384L124.757 40.3316C124.768 40.2768 124.801 40.2288 124.847 40.1978C124.894 40.1669 124.951 40.1557 125.006 40.1666C125.061 40.1776 125.109 40.2099 125.14 40.2565C125.171 40.3031 125.183 40.3602 125.172 40.4152L124.382 44.3854C124.373 44.4298 124.35 44.4702 124.317 44.5007C124.283 44.5314 120.972 47.6259 122.501 51.3456C122.522 51.3973 122.522 51.4553 122.5 51.5068C122.479 51.5583 122.438 51.5992 122.386 51.6205C122.359 51.6321 122.33 51.6375 122.3 51.6364Z" fill="#1D0A03"/>
<path d="M113.652 79.8135L134.768 76.9885C134.906 76.97 135.004 76.8428 134.985 76.7044L131.238 48.6935C131.219 48.5552 131.092 48.458 130.954 48.4765L109.837 51.3016C109.699 51.3201 109.602 51.4472 109.62 51.5856L113.368 79.5965C113.386 79.7349 113.513 79.832 113.652 79.8135Z" fill="#4FAE8C"/>
<path d="M116.373 52.6431L124.999 51.4891C125.088 51.4771 125.151 51.3947 125.139 51.3049L124.761 48.4777C124.749 48.388 124.667 48.325 124.577 48.337L115.952 49.4909C115.862 49.5029 115.799 49.5854 115.811 49.6751L116.189 52.5023C116.201 52.592 116.284 52.6551 116.373 52.6431Z" fill="#2D1929"/>
<path d="M123.78 66.6893C123.687 66.1701 124.626 66.2589 125.455 66.1426C125.936 66.0758 126.403 65.933 126.838 65.7195C126.159 65.7058 125.019 65.6624 124.262 65.526C123.063 65.3145 122.57 64.9908 122.699 64.444C122.794 64.0411 123.248 64.0982 124.603 64.1405C125.302 64.1616 126.083 64.1405 126.835 63.947C126.396 63.8645 125.529 63.7576 124.657 63.5937C123.394 63.3579 122.057 63.2267 122.111 62.4303C122.144 61.9576 123.256 61.9967 124.501 62.0475C125.373 62.0824 126.291 62.1215 126.888 61.9925C126.179 61.8698 125.857 61.7503 125.341 61.6583C124.187 61.4542 122.62 61.3114 122.842 60.3892C122.972 59.8477 124.851 60.1258 126.316 60.1776C127.641 60.2263 128.893 60.3796 128.893 60.3796C128.893 60.3796 126.267 59.2554 126.811 58.3247C127.214 57.6341 127.929 58.294 128.771 58.3617C129.141 58.39 129.509 58.4426 129.872 58.5193C130.681 58.6917 131.123 58.8292 131.874 59.2194C132.625 59.6097 133.745 60.8661 133.784 62.5699C133.835 64.7381 131.892 66.518 130.323 67.0225C129.753 67.2055 127.891 67.5915 126.312 67.5174C124.956 67.4593 123.853 67.1082 123.78 66.6893Z" fill="#FC9C86"/>
<path d="M131.94 59.3157C131.94 59.3157 133.21 60.2041 135.688 60.6906C136.509 61.8539 136.053 66.1267 135.435 66.1235C134.816 66.1203 133.809 66.0178 133.03 66.0791C132.17 66.1436 131.398 66.6999 130.319 67.0309C126.819 67.105 128.831 57.5918 131.94 59.3157Z" fill="#FC9C86"/>
<path d="M146.406 53.5602C146.367 53.5603 146.329 53.5497 146.296 53.5295C146.263 53.5094 146.236 53.4804 146.218 53.446C146.185 53.3814 142.894 46.9945 141.714 44.4372C140.508 41.826 140.887 39.587 140.904 39.4929C140.908 39.4655 140.919 39.4394 140.934 39.416C140.949 39.3926 140.968 39.3723 140.991 39.3564C141.014 39.3405 141.039 39.3292 141.066 39.3233C141.093 39.3173 141.122 39.3167 141.149 39.3216C141.176 39.3264 141.202 39.3366 141.226 39.3516C141.249 39.3665 141.269 39.386 141.285 39.4088C141.301 39.4315 141.313 39.4572 141.319 39.4844C141.325 39.5115 141.325 39.5396 141.32 39.5669C141.32 39.5881 140.951 41.7752 142.099 44.2595C143.274 46.8073 146.561 53.1879 146.593 53.2492C146.61 53.2814 146.618 53.3172 146.617 53.3533C146.615 53.3894 146.605 53.4246 146.586 53.4554C146.567 53.4863 146.541 53.5118 146.509 53.5296C146.478 53.5474 146.442 53.5568 146.406 53.557V53.5602Z" fill="#1D0A03"/>
<path d="M151.634 59.3189C151.602 59.3188 151.569 59.3112 151.54 59.2967L148.462 57.7695C148.437 57.7576 148.414 57.7408 148.395 57.7198C148.375 57.6989 148.361 57.6744 148.351 57.6477C148.342 57.621 148.338 57.5926 148.34 57.5643C148.341 57.5361 148.349 57.5084 148.361 57.4831C148.374 57.4577 148.392 57.4351 148.413 57.4167C148.435 57.3983 148.46 57.3843 148.487 57.3757C148.513 57.3671 148.542 57.364 148.57 57.3666C148.598 57.3692 148.626 57.3774 148.651 57.3908L151.728 58.918C151.771 58.9393 151.805 58.9743 151.825 59.0175C151.846 59.0606 151.851 59.1093 151.84 59.1557C151.829 59.2021 151.803 59.2434 151.765 59.2731C151.728 59.3027 151.682 59.3188 151.634 59.3189Z" fill="#1D0A03"/>
<path d="M133.575 27.9976C132.767 28.8057 132.026 29.0003 131.493 29.0003C131.216 29.0054 130.941 28.9475 130.689 28.831C130.665 28.8181 130.643 28.8004 130.625 28.7789C130.607 28.7574 130.593 28.7325 130.585 28.7058C130.577 28.679 130.574 28.6509 130.576 28.623C130.579 28.5951 130.587 28.5681 130.601 28.5434C130.628 28.4944 130.673 28.4578 130.727 28.4413C130.78 28.4247 130.838 28.4295 130.888 28.4545C130.931 28.4799 131.98 29.0003 133.274 27.7015C133.314 27.6628 133.367 27.6411 133.422 27.6411C133.478 27.6411 133.531 27.6628 133.57 27.7015C133.61 27.7405 133.632 27.7934 133.633 27.8487C133.634 27.9041 133.613 27.9576 133.575 27.9976Z" fill="#1D0A03"/>
<path d="M151.634 40.7525C151.634 40.7525 147.738 35.714 144.921 34.7833C142.103 33.8526 139.493 35.9636 138.283 33.1884C137.073 30.4133 139.26 27.3716 140.318 25.7471C141.375 24.1226 141.079 23.8899 139.459 22.7689C137.839 21.6478 132.902 18.9615 132.741 15.3571C132.741 15.3571 127.758 18.1915 127.187 22.0539C127.187 22.0539 125.177 15.7379 127.187 14.1007C129.196 12.4635 132.102 12.9585 132.102 12.9585C132.102 12.9585 137.708 11.0251 142.336 13.208C146.964 15.391 145.377 26.8089 149.147 30.5783C152.916 34.3476 151.634 40.7525 151.634 40.7525Z" fill="#1D0A03"/>
<path d="M142.526 25.5525C141.862 26.7159 140.555 27.2109 139.599 26.6651C138.643 26.1194 138.406 24.7403 139.07 23.5811C139.734 22.422 141.041 21.9228 141.997 22.4685C142.953 23.0143 143.186 24.3934 142.526 25.5525Z" fill="#FC9C86"/>
<path d="M142.234 24.0972C142.229 24.125 142.219 24.1516 142.204 24.1755C142.189 24.1993 142.17 24.22 142.147 24.2363C142.124 24.2526 142.098 24.2642 142.07 24.2705C142.043 24.2767 142.014 24.2775 141.987 24.2728C141.959 24.2681 141.932 24.2579 141.908 24.2429C141.884 24.228 141.864 24.2084 141.848 24.1854C141.831 24.1624 141.82 24.1365 141.813 24.109C141.807 24.0815 141.806 24.0531 141.811 24.0253C141.82 23.9751 141.824 23.9241 141.824 23.873C141.824 23.6742 141.764 23.3527 141.392 23.2808C140.901 23.1877 140.39 23.7165 140.123 24.0846C140.419 24.2368 140.72 24.5076 140.631 24.8799C140.491 25.4764 139.933 25.6329 139.658 25.6371C139.602 25.6371 139.548 25.6148 139.508 25.5752C139.468 25.5355 139.446 25.4817 139.446 25.4256C139.446 25.3695 139.468 25.3157 139.508 25.276C139.548 25.2364 139.602 25.2141 139.658 25.2141C139.704 25.2141 140.123 25.1929 140.22 24.7826C140.263 24.6049 139.882 24.4314 139.742 24.3891C139.713 24.3789 139.686 24.3625 139.663 24.3409C139.641 24.3194 139.623 24.2933 139.611 24.2643C139.6 24.2347 139.596 24.2029 139.599 24.1715C139.602 24.14 139.612 24.1096 139.628 24.0824C139.662 24.0232 140.461 22.6822 141.477 22.8683C142.221 23.0058 142.297 23.7355 142.234 24.0972Z" fill="#1D0A03"/>
<path d="M89.4805 40.1899C88.2748 39.0392 87.2383 38.43 86.6842 38.155C86.4956 38.1086 86.3127 38.0419 86.1384 37.9562C86.1088 37.9393 85.8381 37.7827 85.305 37.4612C84.1417 36.7717 83.5621 36.4205 83.3167 36.2132C82.991 35.934 81.9207 35.0245 82.1533 34.3011C82.2253 34.0896 82.4156 33.84 82.6272 33.8315C82.936 33.8146 83.0037 34.3095 83.5452 34.6014C83.5959 34.6268 84.239 34.961 84.662 34.648C84.7585 34.5717 84.8357 34.4737 84.8872 34.362C84.9386 34.2502 84.9629 34.1279 84.9581 34.005C84.9454 33.4761 84.3659 32.9939 83.8201 32.9346C83.2363 32.8797 83.0544 33.4254 82.3522 33.3831C82.2887 33.3831 81.743 33.345 81.6118 33.0362C81.4426 32.6385 82.073 32.0716 82.1576 31.9955C82.5262 31.6731 82.986 31.4735 83.4732 31.4244C84.4801 31.3186 85.2373 31.8643 85.4362 32.0166C85.0014 31.5147 84.6 30.9848 84.2347 30.4302C83.7313 29.673 82.9402 28.4969 83.1856 28.2938C83.799 27.7989 84.6662 28.7973 85.5673 29.6772C86.1934 30.2864 86.773 30.921 87.086 31.2255C86.8153 30.5106 86.388 29.8718 85.9777 29.3218C85.1739 28.2642 84.8735 27.93 85.1443 27.6297C85.5081 27.2151 86.0454 27.4308 86.8957 28.2727C87.4372 28.8015 88.1183 29.6941 88.5159 30.2314C88.4372 29.761 88.286 29.3058 88.0675 28.8819C87.6868 28.15 87.086 27.4478 87.5556 27.2278C87.9321 27.0501 88.8417 27.7354 89.6582 28.7846C90.61 30.0114 91.3588 31.7247 91.5322 32.2874C91.8749 33.345 91.8664 34.2757 92.3022 35.0033C92.6998 35.6591 93.3513 36.4121 93.7025 36.907C94.0536 37.402 90.8765 40.1899 89.4805 40.1899Z" fill="#FC9C86"/>
<path d="M108.553 52.0341H108.522C108.494 52.0301 108.468 52.0207 108.444 52.0064C108.42 51.9922 108.399 51.9734 108.383 51.9511C108.366 51.9288 108.354 51.9034 108.347 51.8765C108.341 51.8495 108.339 51.8215 108.343 51.794L108.79 48.7174C108.793 48.6896 108.803 48.6629 108.817 48.6387C108.831 48.6146 108.85 48.5935 108.873 48.5767C108.895 48.5598 108.921 48.5475 108.948 48.5406C108.975 48.5336 109.003 48.5321 109.031 48.536C109.059 48.54 109.086 48.5494 109.11 48.5636C109.134 48.5779 109.155 48.5968 109.172 48.6193C109.189 48.6417 109.201 48.6673 109.208 48.6944C109.215 48.7216 109.217 48.7499 109.213 48.7777L108.766 51.8553C108.758 51.9059 108.732 51.952 108.693 51.9848C108.654 52.0177 108.604 52.0352 108.553 52.0341Z" fill="#1D0A03"/>
<path d="M127.075 19.8488H127.045C126.989 19.8407 126.94 19.811 126.906 19.7662C126.873 19.7214 126.858 19.6652 126.866 19.6098C126.891 19.4363 127.509 15.3698 130.209 14.5459C130.236 14.5362 130.265 14.5321 130.293 14.5337C130.322 14.5354 130.35 14.5429 130.376 14.5557C130.401 14.5685 130.424 14.5864 130.442 14.6083C130.461 14.6302 130.475 14.6556 130.483 14.683C130.492 14.7104 130.494 14.7392 130.491 14.7677C130.488 14.7962 130.479 14.8237 130.465 14.8487C130.451 14.8737 130.432 14.8955 130.409 14.9129C130.387 14.9303 130.361 14.9429 130.333 14.95C127.89 15.6903 127.29 19.6299 127.285 19.6701C127.277 19.72 127.252 19.7654 127.213 19.7982C127.175 19.831 127.126 19.8489 127.075 19.8488Z" fill="white"/>
<path d="M140.608 21.6203C137.752 21.6203 134.501 16.2878 134.355 16.0467C134.328 15.9988 134.321 15.9424 134.335 15.8894C134.349 15.8364 134.383 15.7908 134.43 15.7624C134.477 15.734 134.533 15.725 134.587 15.7372C134.64 15.7493 134.687 15.7818 134.717 15.8277C134.754 15.888 138.382 21.8413 141.044 21.1422C141.072 21.1341 141.1 21.1315 141.129 21.1347C141.157 21.1378 141.184 21.1467 141.209 21.1606C141.234 21.1746 141.256 21.1935 141.273 21.216C141.29 21.2386 141.303 21.2644 141.31 21.292C141.317 21.3195 141.319 21.3482 141.314 21.3764C141.31 21.4045 141.3 21.4315 141.285 21.4557C141.27 21.48 141.251 21.5009 141.228 21.5174C141.204 21.5339 141.178 21.5455 141.15 21.5515C140.973 21.598 140.791 21.6211 140.608 21.6203Z" fill="white"/>
<path d="M141.544 20.385C139.521 20.385 138.2 17.4237 138.138 17.2767C138.116 17.2252 138.114 17.1669 138.135 17.1147C138.156 17.0624 138.196 17.0204 138.247 16.998C138.299 16.9755 138.357 16.9745 138.409 16.995C138.462 17.0155 138.504 17.056 138.526 17.1074C138.542 17.1434 140.128 20.7033 142.256 19.8107C142.307 19.7913 142.364 19.7925 142.414 19.814C142.465 19.8355 142.505 19.8756 142.526 19.9259C142.547 19.9763 142.548 20.0329 142.529 20.084C142.509 20.1351 142.471 20.1766 142.421 20.1999C142.144 20.3202 141.846 20.3831 141.544 20.385Z" fill="white"/>
<path d="M142.119 33.915C141.449 33.915 140.905 33.6887 140.495 33.2424C139.284 31.9161 139.734 29.1071 139.755 28.9876C139.764 28.9315 139.795 28.8813 139.841 28.8481C139.887 28.8149 139.945 28.8013 140.001 28.8105C140.057 28.8196 140.107 28.8506 140.14 28.8967C140.174 28.9428 140.187 29.0003 140.178 29.0563C140.178 29.0838 139.742 31.7839 140.813 32.9568C141.182 33.3598 141.677 33.5322 142.327 33.4856C142.355 33.4835 142.383 33.4868 142.409 33.4954C142.436 33.504 142.46 33.5177 142.481 33.5358C142.502 33.5539 142.52 33.5759 142.532 33.6007C142.545 33.6255 142.552 33.6525 142.555 33.6802C142.557 33.7079 142.553 33.7358 142.544 33.7621C142.536 33.7885 142.522 33.8129 142.504 33.8339C142.485 33.8549 142.463 33.8722 142.438 33.8846C142.414 33.8971 142.387 33.9045 142.359 33.9066C142.274 33.9118 142.196 33.915 142.119 33.915Z" fill="white"/>
<path d="M145.366 33.5342C144.436 33.5342 143.674 33.2518 143.094 32.6881C141.757 31.3947 141.887 29.1039 141.894 29.0066C141.897 28.9506 141.923 28.8984 141.965 28.8613C142.007 28.8242 142.062 28.8053 142.118 28.8088C142.146 28.8106 142.173 28.8178 142.198 28.8301C142.223 28.8423 142.245 28.8594 142.264 28.8804C142.282 28.9013 142.296 28.9257 142.305 28.952C142.314 28.9784 142.317 29.0063 142.316 29.0341C142.316 29.0552 142.193 31.2286 143.389 32.3857C143.973 32.9494 144.786 33.1852 145.807 33.0869C145.835 33.0841 145.863 33.0868 145.889 33.0949C145.916 33.103 145.941 33.1162 145.962 33.1339C145.984 33.1516 146.001 33.1734 146.015 33.198C146.028 33.2226 146.036 33.2495 146.038 33.2772C146.041 33.3049 146.038 33.3329 146.03 33.3595C146.022 33.3861 146.008 33.4108 145.991 33.4323C145.973 33.4537 145.951 33.4714 145.926 33.4843C145.902 33.4973 145.875 33.5053 145.847 33.5078C145.682 33.5258 145.521 33.5342 145.366 33.5342Z" fill="white"/>
<path d="M123.419 37.4644C123.368 37.4649 123.318 37.4466 123.279 37.4129C123.24 37.3792 123.215 37.3325 123.208 37.2814C123.195 37.1831 123.133 36.263 124.807 34.4798C126.393 32.7877 126.7 30.1606 126.703 30.1341C126.709 30.078 126.738 30.0267 126.782 29.9914C126.826 29.9561 126.882 29.9397 126.938 29.9459C126.994 29.952 127.046 29.9802 127.081 30.0243C127.116 30.0683 127.132 30.1245 127.126 30.1806C127.114 30.2938 126.801 32.977 125.117 34.7696C123.582 36.4036 123.63 37.2254 123.63 37.2328C123.635 37.2883 123.618 37.3436 123.583 37.3868C123.548 37.43 123.497 37.4575 123.442 37.4634L123.419 37.4644Z" fill="white"/>
<path d="M61.1006 167.481C61.0445 167.485 60.989 167.467 60.9462 167.43C60.9035 167.394 60.8771 167.342 60.8727 167.286C60.8684 167.229 60.8865 167.174 60.9231 167.131C60.9597 167.088 61.0117 167.062 61.0678 167.058L64.4236 166.529C64.4511 166.524 64.4793 166.525 64.5064 166.532C64.5336 166.538 64.5592 166.55 64.5818 166.566C64.6045 166.582 64.6237 166.603 64.6383 166.627C64.6529 166.65 64.6627 166.677 64.6671 166.704C64.6715 166.732 64.6704 166.76 64.6639 166.787C64.6574 166.814 64.6455 166.84 64.6291 166.862C64.6127 166.885 64.5919 166.904 64.5681 166.918C64.5443 166.933 64.5178 166.942 64.4903 166.947L61.1345 167.475L61.1006 167.481Z" fill="white"/>
<path d="M40.1682 164.072C40.1394 164.072 40.111 164.066 40.0846 164.054L37.741 163.042C37.6896 163.02 37.649 162.978 37.6282 162.926C37.6074 162.874 37.608 162.816 37.6299 162.765C37.653 162.714 37.6952 162.675 37.7472 162.655C37.7993 162.635 37.8571 162.637 37.9081 162.659L40.2517 163.671C40.2966 163.69 40.3335 163.724 40.3562 163.768C40.3789 163.811 40.3859 163.861 40.376 163.908C40.3662 163.956 40.3401 163.999 40.3022 164.03C40.2644 164.061 40.217 164.078 40.1682 164.077V164.072Z" fill="white"/>
<path d="M186.986 171.651H175.358C175.257 171.651 175.16 171.613 175.084 171.546C175.009 171.478 174.961 171.386 174.949 171.285L173.107 155.184C173.1 155.126 173.106 155.068 173.123 155.012C173.141 154.957 173.17 154.906 173.208 154.863C173.247 154.819 173.294 154.784 173.347 154.761C173.401 154.737 173.458 154.725 173.516 154.725H188.83C188.888 154.725 188.946 154.737 188.999 154.761C189.052 154.785 189.099 154.82 189.138 154.863C189.177 154.906 189.206 154.957 189.223 155.012C189.241 155.068 189.247 155.126 189.241 155.184L187.398 171.285C187.387 171.386 187.338 171.479 187.262 171.547C187.186 171.614 187.088 171.651 186.986 171.651Z" fill="#4EABD5"/>
</svg>
