<svg width="195" height="195" viewBox="0 0 195 195" fill="none" xmlns="http://www.w3.org/2000/svg">
<path d="M176.367 172.146H16.8341C16.4136 172.146 15.9988 172.046 15.6228 171.853C15.2469 171.661 14.92 171.381 14.6684 171.037C14.4167 170.693 14.2471 170.294 14.1731 169.871C14.0991 169.448 14.1227 169.013 14.242 168.602L26.0137 128.012C26.1796 127.44 26.5221 126.939 26.9901 126.583C27.458 126.227 28.0263 126.035 28.6099 126.036H164.597C165.18 126.036 165.747 126.229 166.214 126.585C166.681 126.941 167.023 127.442 167.189 128.013L178.959 168.603C179.079 169.014 179.102 169.449 179.028 169.872C178.954 170.295 178.785 170.694 178.533 171.038C178.281 171.382 177.955 171.661 177.579 171.854C177.203 172.046 176.788 172.146 176.367 172.146Z" fill="#4EABD5"/>
<path d="M101.936 60.948H89.192V79.3882H101.936V60.948Z" fill="#FC9C86"/>
<path d="M105.561 54.9879C105.561 60.5941 101.107 70.0458 95.6219 70.0458C90.1366 70.0458 85.6866 60.5899 85.6866 54.9879C85.6866 52.2962 86.7336 49.7148 88.5972 47.8116C90.4608 45.9083 92.9884 44.8391 95.624 44.8391C98.2595 44.8391 100.787 45.9083 102.651 47.8116C104.514 49.7148 105.561 52.2962 105.561 54.9879Z" fill="#FC9C86"/>
<path d="M94.0089 53.6779C93.8481 53.9812 92.8335 53.6569 92.0953 53.5726C90.8085 53.4336 89.9012 54.0191 89.9012 53.699C89.9012 53.3789 91.023 52.4354 92.3098 52.4943C93.4852 52.5533 94.3224 53.0798 94.0089 53.6779Z" fill="#1D0A03"/>
<path d="M101.346 53.7032C101.346 54.0191 100.439 53.4378 99.1524 53.5768C98.41 53.6568 97.3995 53.9812 97.2387 53.6821C96.9211 53.084 97.7625 52.5575 98.9379 52.5027C100.225 52.4396 101.346 53.3788 101.346 53.7032Z" fill="#1D0A03"/>
<path d="M95.5678 57.4856C95.5678 59.1704 95.3204 62.0009 95.3163 62.0304C95.3111 62.0825 95.2872 62.1308 95.249 62.1659C95.2109 62.2009 95.1613 62.2202 95.11 62.2199H95.0915C95.0375 62.2146 94.9877 62.1877 94.9529 62.1451C94.9182 62.1026 94.9013 62.0477 94.9059 61.9925C94.9059 61.963 95.1533 59.1494 95.1533 57.4856C95.1533 57.4298 95.1751 57.3762 95.2137 57.3367C95.2524 57.2972 95.3049 57.275 95.3596 57.275C95.3868 57.2748 95.4138 57.28 95.4391 57.2905C95.4644 57.3009 95.4873 57.3164 95.5067 57.336C95.5261 57.3556 95.5415 57.3789 95.5519 57.4046C95.5624 57.4302 95.5678 57.4578 95.5678 57.4856Z" fill="#1D0A03"/>
<path d="M78.2667 119.854L76.2046 126.383C54.6636 131.56 40.4907 140.282 40.4422 149.292C40.4278 151.959 41.6547 153.907 42.1043 154.596C50.992 168.217 91.4922 155.869 95.5556 154.596C98.458 155.551 139.92 168.875 147.911 155.728C149.371 153.325 149.339 150.664 149.296 149.787C148.802 139.665 134.84 130.442 114.527 125.807C113.713 123.505 112.899 121.202 112.086 118.9L78.2667 119.854Z" fill="#306F9F"/>
<path d="M90.8388 73.6166C82.7295 74.8065 78.6269 77.9802 76.373 80.7159C73.2932 84.4551 73.1065 88.0606 69.9866 97.5987C68.0946 103.382 66.218 108 64.9137 111.029L45.1885 134.052L48.3848 140.191C53.7834 137.641 64.9189 131.478 73.9335 118.703C79.8627 110.277 83.7857 100.555 85.3906 90.3088C88.4055 85.2306 90.2672 79.5266 90.8388 73.6166Z" fill="#FC9C86"/>
<path d="M99.5168 73.4513C107.626 74.6412 111.729 77.8149 113.982 80.5496C117.062 84.2898 117.248 87.8943 120.374 97.4334C122.266 103.215 124.142 107.834 125.446 110.862L145.171 133.885L141.975 140.025C136.575 137.476 125.441 131.312 116.426 118.537C110.495 110.112 106.571 100.389 104.967 90.1424C101.952 85.0645 100.091 79.3609 99.5188 73.4513H99.5168Z" fill="#FC9C86"/>
<path d="M91.9262 57.3309C91.6097 57.3272 91.3005 57.2328 91.034 57.0583C90.7674 56.8839 90.5543 56.6364 90.4188 56.3442C90.3987 56.2943 90.3982 56.2385 90.4172 56.1881C90.4363 56.1378 90.4735 56.0969 90.5213 56.0738C90.569 56.0507 90.6236 56.0472 90.6738 56.064C90.724 56.0808 90.7659 56.1167 90.791 56.1642C90.8978 56.3961 91.0694 56.5905 91.2843 56.7228C91.4992 56.8551 91.7477 56.9194 91.9984 56.9076C92.2222 56.8907 92.4374 56.8129 92.6217 56.6821C92.8059 56.5513 92.9525 56.3725 93.046 56.1642C93.0575 56.1391 93.0738 56.1167 93.0939 56.0981C93.114 56.0795 93.1374 56.0651 93.163 56.0557C93.1885 56.0464 93.2155 56.0423 93.2426 56.0436C93.2697 56.045 93.2962 56.0518 93.3207 56.0636C93.3452 56.0754 93.3672 56.092 93.3854 56.1125C93.4037 56.1331 93.4177 56.157 93.4269 56.1831C93.436 56.2091 93.44 56.2368 93.4387 56.2644C93.4374 56.2921 93.4308 56.3192 93.4192 56.3442C93.2942 56.6205 93.0989 56.8574 92.8537 57.0304C92.6086 57.2034 92.3224 57.3061 92.0252 57.3277C91.9984 57.3298 91.9602 57.3309 91.9262 57.3309Z" fill="#1D0A03"/>
<path d="M100.557 56.3441C100.421 56.636 100.209 56.8832 99.9425 57.0575C99.6763 57.2318 99.3675 57.3261 99.0513 57.3297C99.017 57.3317 98.9825 57.3317 98.9482 57.3297C98.6511 57.3086 98.365 57.2064 98.1198 57.0337C97.8745 56.8611 97.6792 56.6244 97.5542 56.3483C97.532 56.2968 97.5303 56.2385 97.5496 56.1858C97.5689 56.1331 97.6075 56.0901 97.6573 56.0661C97.6822 56.0541 97.7091 56.0474 97.7366 56.0462C97.764 56.0451 97.7914 56.0495 97.8172 56.0594C97.8429 56.0692 97.8665 56.0841 97.8865 56.1034C97.9065 56.1226 97.9225 56.1457 97.9336 56.1714C98.0315 56.3932 98.19 56.5814 98.3901 56.7135C98.5902 56.8455 98.8234 56.9157 99.0616 56.9157C99.2998 56.9157 99.533 56.8455 99.7331 56.7135C99.9332 56.5814 100.092 56.3932 100.19 56.1714C100.2 56.1445 100.216 56.12 100.236 56.0996C100.256 56.0791 100.28 56.0631 100.306 56.0524C100.332 56.0418 100.36 56.0369 100.389 56.0379C100.417 56.0389 100.445 56.0459 100.47 56.0584C100.496 56.0708 100.519 56.0885 100.537 56.1104C100.556 56.1322 100.57 56.1577 100.578 56.1853C100.587 56.2129 100.59 56.242 100.587 56.2708C100.584 56.2996 100.575 56.3274 100.561 56.3525L100.557 56.3441Z" fill="#1D0A03"/>
<path d="M96.5784 64.3133C96.2442 64.6664 95.8018 64.8923 95.3246 64.9535C95.252 64.9618 95.179 64.966 95.106 64.9661C94.5433 64.9516 94.0068 64.7198 93.6048 64.3175C93.5659 64.2778 93.5441 64.224 93.5441 64.1679C93.5441 64.1119 93.5659 64.0581 93.6048 64.0184C93.6436 63.9788 93.6963 63.9565 93.7512 63.9565C93.8061 63.9565 93.8588 63.9788 93.8976 64.0184C94.0007 64.1237 94.5286 64.6249 95.2792 64.5323C95.6608 64.4854 96.0149 64.3054 96.2814 64.0226C96.3 64.0026 96.3224 63.9867 96.3472 63.9758C96.372 63.9649 96.3987 63.9593 96.4258 63.9593C96.4528 63.9593 96.4795 63.9649 96.5043 63.9758C96.5291 63.9867 96.5515 64.0026 96.5701 64.0226C96.6078 64.0607 96.6297 64.1121 96.6312 64.1663C96.6328 64.2204 96.6138 64.273 96.5784 64.3133Z" fill="#1D0A03"/>
<path d="M101.684 66.4488C101.598 66.5963 99.5109 70.0291 95.5805 70.3787C95.4403 70.3913 95.2959 70.3955 95.1557 70.3955C91.4521 70.3955 89.2786 66.1119 89.1838 65.9223C89.171 65.8975 89.1632 65.8703 89.1609 65.8424C89.1586 65.8145 89.1617 65.7863 89.1702 65.7597C89.1786 65.733 89.1922 65.7083 89.2101 65.687C89.228 65.6658 89.2499 65.6484 89.2745 65.6359C89.3232 65.611 89.3796 65.6067 89.4314 65.624C89.4832 65.6414 89.5261 65.679 89.5508 65.7286C89.5715 65.7749 91.8563 70.2776 95.5475 69.9574C99.2593 69.6331 101.309 66.2719 101.33 66.2298C101.344 66.206 101.362 66.1853 101.384 66.1688C101.406 66.1524 101.431 66.1405 101.457 66.1338C101.484 66.1272 101.511 66.1259 101.538 66.1301C101.565 66.1343 101.591 66.1438 101.614 66.1582C101.638 66.1726 101.658 66.1915 101.674 66.2139C101.69 66.2363 101.702 66.2617 101.708 66.2887C101.715 66.3157 101.716 66.3437 101.712 66.3712C101.708 66.3987 101.698 66.4251 101.684 66.4488Z" fill="#1D0A03"/>
<path d="M75.9036 126.668C77.2893 114.463 77.2872 104.668 77.0305 97.9862C76.6686 88.5545 75.7736 84.6131 78.5926 80.3948C82.9323 73.9083 92.483 72.155 99.4437 73.2659C102.11 73.6871 108.881 74.7717 112.641 80.2063C116.854 86.299 113.607 92.5864 113.382 107.675C113.291 113.765 113.711 119.852 114.634 125.869C113.441 127.83 109.669 133.45 102.486 135.845C100.344 136.56 93.3821 138.882 88.5846 135.462C86.1018 133.691 85.9709 131.645 82.5735 129.323C80.0938 127.624 77.6017 126.961 75.9036 126.668Z" fill="#639B3F"/>
<path d="M92.6037 74.2788C92.6291 74.1334 92.6219 73.9841 92.5825 73.842C92.5432 73.6999 92.4727 73.5688 92.3765 73.4586C92.2803 73.3483 92.1608 73.2619 92.0271 73.2057C91.8934 73.1495 91.7489 73.125 91.6046 73.1342C84.3645 73.5986 80.3794 76.0826 78.0637 78.3171C74.392 81.8531 73.925 85.6955 69.609 95.3926C67.4045 100.342 65.3125 104.319 63.8226 107.004C63.728 107.173 63.6855 107.367 63.7006 107.561C63.7157 107.755 63.7877 107.939 63.9072 108.091C64.9104 109.354 66.025 110.664 67.2612 111.987C69.385 114.26 71.6714 116.368 74.1013 118.294C74.201 118.374 74.3151 118.432 74.4371 118.466C74.559 118.5 74.6864 118.509 74.8117 118.492C74.9371 118.475 75.0578 118.433 75.1671 118.368C75.2763 118.303 75.3717 118.216 75.4479 118.113L83.6139 107.112C83.6703 107.039 83.7161 106.958 83.75 106.871C85.2966 102.704 86.7937 98.2051 88.1763 93.3929C89.9812 87.1058 91.4591 80.7255 92.6037 74.2788Z" fill="#639B3F"/>
<path d="M98.1851 74.2958C98.1597 74.1492 98.1674 73.9986 98.2077 73.8556C98.248 73.7126 98.3198 73.5808 98.4176 73.4705C98.5155 73.3601 98.6367 73.2741 98.772 73.2189C98.9074 73.1638 99.0533 73.1409 99.1987 73.1522C106.829 73.744 110.931 76.4218 113.292 78.8932C116.868 82.6345 117.026 86.5011 121.371 96.1624C123.038 99.8732 124.896 103.491 126.938 107.001C127.038 107.171 127.084 107.368 127.071 107.565C127.057 107.763 126.985 107.951 126.863 108.106C125.863 109.369 124.751 110.671 123.519 111.99C121.396 114.263 119.109 116.371 116.679 118.298C116.579 118.377 116.465 118.435 116.343 118.469C116.221 118.503 116.094 118.512 115.968 118.495C115.843 118.478 115.722 118.436 115.613 118.371C115.504 118.306 115.408 118.219 115.332 118.116L107.166 107.116C107.11 107.04 107.065 106.957 107.033 106.869C105.486 102.702 103.989 98.2031 102.605 93.3909C100.804 87.1097 99.3286 80.7358 98.1851 74.2958Z" fill="#639B3F"/>
<path d="M101.936 73.4745C101.717 73.8241 99.8036 76.7388 96.2114 77.0378C93.4399 77.2653 90.7344 75.8416 89.2002 73.365C90.9357 71.9715 93.0643 71.1858 95.2711 71.1242C98.8592 71.0399 101.301 72.9438 101.936 73.4745Z" fill="#FC9C86"/>
<path d="M37.4417 148.945C36.9623 148.453 38.0212 147.846 38.814 147.097C39.2747 146.667 39.6649 146.164 39.9699 145.607C39.2409 146.102 38.0026 146.909 37.1004 147.33C35.6724 147.996 34.9156 148.022 34.6516 147.33C34.4557 146.821 34.9785 146.543 36.4385 145.577C37.1953 145.074 38.0057 144.464 38.6614 143.693C38.1346 143.932 37.1386 144.467 36.0951 144.945C34.5846 145.637 33.0731 146.498 32.5431 145.591C32.2338 145.055 33.436 144.264 34.7908 143.38C35.7394 142.764 36.7406 142.116 37.2778 141.53C37.0942 141.684 36.2312 142.372 35.0795 142.222C34.2103 142.106 33.0545 141.493 32.9349 140.47C32.8483 139.732 33.3113 138.859 33.802 138.812C34.3578 138.761 34.4877 139.807 35.4053 140.045C36.1034 140.226 37.0365 139.881 37.2901 139.226C37.3501 139.073 37.3743 138.907 37.3608 138.743C37.3474 138.578 37.2967 138.419 37.2128 138.278C36.8334 137.695 35.8869 137.819 35.8147 137.83C35.0197 137.946 34.7145 138.539 34.3392 138.376C34.0815 138.265 33.9577 137.869 33.9701 137.568C34.0114 136.553 35.7384 135.9 36.2632 135.698C37.2314 135.337 38.2439 135.115 39.2718 135.037C39.8977 134.977 40.4246 134.932 41.0081 134.979C41.1958 134.996 43.6642 135.252 45.0056 136.988C46.7708 139.274 45.7273 142.904 44.6117 144.398C44.1426 145.023 42.4588 146.834 40.7287 147.943C39.2522 148.896 37.8273 149.342 37.4417 148.945Z" fill="#FC9C86"/>
<path d="M40.665 134.853C40.665 134.853 42.6611 134.86 45.6378 133.524C47.3627 134.165 50.0188 139.126 49.3609 139.588C48.7031 140.05 47.5648 140.695 46.7833 141.343C45.9213 142.058 45.512 143.238 44.6181 144.405C40.9609 147.115 36.1066 135.321 40.665 134.853Z" fill="#FC9C86"/>
<path d="M40.4381 142.721C40.4053 142.721 40.3728 142.713 40.3436 142.698C40.3144 142.682 40.2892 142.66 40.2701 142.632L37.9296 139.289C37.9002 139.248 37.8867 139.196 37.8916 139.145C37.8966 139.094 37.9197 139.047 37.9566 139.012C37.9935 138.977 38.0416 138.957 38.0918 138.955C38.1421 138.954 38.1911 138.972 38.2296 139.005C38.2471 139.021 40.0783 140.562 41.3991 139.997C41.4492 139.977 41.5049 139.978 41.5543 140C41.6036 140.021 41.6428 140.062 41.6635 140.112C41.6842 140.163 41.6847 140.22 41.665 140.271C41.6453 140.322 41.6068 140.363 41.5579 140.385C40.6691 140.765 39.6473 140.385 38.9215 139.981L40.6062 142.388C40.6376 142.434 40.6502 142.49 40.6411 142.545C40.632 142.6 40.602 142.649 40.5578 142.681C40.5231 142.707 40.4812 142.721 40.4381 142.721Z" fill="#1D0A03"/>
<path d="M147.567 149.433C148.157 149.085 147.29 148.215 146.717 147.281C146.384 146.742 146.136 146.152 145.984 145.533C146.562 146.206 147.548 147.317 148.311 147.965C149.519 148.99 150.241 149.218 150.673 148.625C150.993 148.187 150.56 147.783 149.399 146.454C148.798 145.767 148.173 144.961 147.739 144.04C148.185 144.412 149.009 145.199 149.893 145.936C151.173 147.008 152.411 148.244 153.154 147.515C153.594 147.081 152.633 145.995 151.553 144.777C150.795 143.929 149.996 143.037 149.628 142.326C149.765 142.523 150.421 143.422 151.571 143.582C152.44 143.703 153.713 143.421 154.091 142.466C154.365 141.776 154.142 140.811 153.679 140.635C153.156 140.436 152.762 141.411 151.815 141.394C151.093 141.381 150.284 140.799 150.207 140.099C150.189 139.935 150.208 139.769 150.263 139.614C150.318 139.458 150.408 139.318 150.525 139.205C151.04 138.743 151.923 139.116 151.989 139.146C152.727 139.47 152.87 140.125 153.274 140.069C153.551 140.03 153.772 139.681 153.838 139.387C154.058 138.397 152.559 137.303 152.105 136.965C151.263 136.357 150.344 135.871 149.372 135.52C148.783 135.295 148.288 135.099 147.71 134.994C147.526 134.96 145.078 134.545 143.337 135.862C141.046 137.594 141.117 141.376 141.814 143.117C142.105 143.847 143.265 146.045 144.65 147.577C145.833 148.899 147.093 149.712 147.567 149.433Z" fill="#FC9C86"/>
<path d="M148.077 134.97C148.077 134.97 146.15 134.443 143.62 132.354C141.791 132.511 137.949 136.587 138.465 137.208C138.98 137.83 139.914 138.758 140.502 139.593C141.151 140.514 141.242 141.763 141.81 143.129C144.639 146.722 152.356 136.643 148.077 134.97Z" fill="#FC9C86"/>
<path d="M146.33 142.63C146.287 142.63 146.245 142.617 146.21 142.592C146.176 142.567 146.149 142.532 146.135 142.491C146.12 142.45 146.119 142.405 146.13 142.363C146.142 142.321 146.166 142.284 146.199 142.256L148.443 140.385C147.638 140.583 146.555 140.675 145.794 140.069C145.772 140.053 145.753 140.032 145.738 140.008C145.724 139.983 145.715 139.956 145.711 139.928C145.707 139.9 145.708 139.872 145.715 139.844C145.723 139.817 145.735 139.791 145.752 139.769C145.769 139.746 145.791 139.728 145.815 139.714C145.839 139.7 145.866 139.692 145.894 139.689C145.921 139.686 145.949 139.689 145.976 139.697C146.002 139.706 146.027 139.719 146.048 139.738C147.182 140.638 149.339 139.64 149.361 139.632C149.406 139.612 149.458 139.608 149.505 139.623C149.553 139.638 149.594 139.67 149.62 139.713C149.646 139.756 149.657 139.808 149.649 139.858C149.641 139.908 149.616 139.954 149.577 139.986L146.46 142.586C146.422 142.616 146.377 142.631 146.33 142.63Z" fill="#1D0A03"/>
<path d="M77.0624 113.797H77.0479C77.0209 113.795 76.9946 113.787 76.9705 113.774C76.9464 113.762 76.9249 113.744 76.9074 113.723C76.8899 113.702 76.8766 113.678 76.8683 113.651C76.8601 113.625 76.857 113.597 76.8592 113.57C77.6119 104.417 77.2387 88.6808 77.2345 88.5229C77.2345 88.467 77.2563 88.4134 77.2949 88.3739C77.3336 88.3344 77.3861 88.3123 77.4408 88.3123C77.4946 88.3122 77.5463 88.3337 77.5848 88.3721C77.6233 88.4104 77.6456 88.4627 77.647 88.5176C77.647 88.6755 78.0254 104.434 77.2706 113.61C77.265 113.662 77.2405 113.71 77.202 113.744C77.1635 113.779 77.1137 113.798 77.0624 113.797Z" fill="#1D0A03"/>
<path d="M113.631 114.446C113.578 114.446 113.527 114.425 113.489 114.387C113.45 114.35 113.427 114.299 113.425 114.245C113.165 108.546 113.425 85.1701 113.425 84.9342C113.425 84.8784 113.447 84.8248 113.485 84.7853C113.524 84.7458 113.576 84.7236 113.631 84.7236C113.686 84.7236 113.738 84.7458 113.777 84.7853C113.816 84.8248 113.837 84.8784 113.837 84.9342C113.837 85.1701 113.578 108.534 113.837 114.22C113.84 114.276 113.821 114.33 113.784 114.372C113.747 114.413 113.696 114.438 113.641 114.44L113.631 114.446Z" fill="#1D0A03"/>
<path d="M104.142 152.256C104.142 152.256 126.573 147.449 127.795 146.298C129.017 145.147 117.838 139.137 113.518 138.786C109.198 138.434 107.506 140.734 107.506 140.734L98.1129 143.133L104.142 152.256Z" fill="#FC9C86"/>
<path d="M84.117 150.753C84.117 150.753 62.9112 141.87 61.9141 140.512C60.9171 139.153 72.9775 135.316 77.2894 135.773C81.6013 136.23 82.8571 138.803 82.8571 138.803L91.6675 142.901L84.117 150.753Z" fill="#FC9C86"/>
<path d="M56.1786 142.973C63.5686 142.57 71.1768 142.283 79.0032 142.109C87.0751 141.939 94.9235 141.907 102.549 142.013L107.338 151.563L97.4737 154.59C84.4177 158.925 70.7508 161.028 57.0241 160.816L56.1786 142.973Z" fill="#306F9F"/>
<path d="M106.155 55.2534C106.155 55.2534 105.211 56.8918 103.8 56.2558C102.047 55.4597 103.697 50.0768 101.346 48.5099C99.8739 47.5285 98.3562 49.1249 94.4093 48.9143C92.8651 48.8304 91.343 48.5021 89.8974 47.9413C89.2691 48.6302 88.7905 49.4469 88.4931 50.3379C87.8373 52.3513 88.39 54.1667 87.3341 55.8051C87.1939 56.0242 86.9795 56.3064 86.6413 56.3948C85.7834 56.6054 84.8885 55.3924 84.7854 55.2534C83.0573 50.4727 83.4202 46.0922 85.7257 44.3106C86.2933 43.8835 86.9545 43.6044 87.6517 43.4976C88.4833 42.7792 89.3973 42.1668 90.3737 41.6738C93.7391 39.9806 99.7193 38.7844 103.505 42.2003C105.58 44.0747 106.174 46.5893 106.483 47.9034C107.258 51.2267 106.559 53.994 106.155 55.2534Z" fill="#1D0A03"/>
<path d="M106.972 58.8166C106.328 60.4466 104.736 61.3312 103.421 60.7878C102.105 60.2445 101.565 58.4838 102.208 56.8496C102.852 55.2153 104.444 54.335 105.759 54.8784C107.075 55.4217 107.619 57.1823 106.972 58.8166Z" fill="#FC9C86"/>
<path d="M87.7073 60.7879C86.3917 61.3312 84.8039 60.4467 84.1563 58.8167C83.5088 57.1866 84.0532 55.4218 85.3689 54.8784C86.6845 54.3351 88.2765 55.2196 88.9199 56.8497C89.5632 58.4797 89.023 60.2445 87.7073 60.7879Z" fill="#FC9C86"/>
<path d="M106.358 55.9609C106.352 55.988 106.342 56.0137 106.326 56.0367C106.311 56.0596 106.292 56.0793 106.269 56.0945C106.247 56.1098 106.221 56.1203 106.195 56.1256C106.168 56.1308 106.141 56.1307 106.114 56.1252C106.018 56.1036 105.917 56.1054 105.821 56.1302C105.725 56.1551 105.636 56.2024 105.562 56.2684C105.141 56.6095 104.885 57.3972 104.827 58.0585C105.071 58.1553 105.359 58.3617 105.376 58.7113C105.401 59.1747 104.86 59.659 104.799 59.7096C104.762 59.7409 104.715 59.7573 104.667 59.7559C104.637 59.7557 104.608 59.7492 104.581 59.7369C104.554 59.7246 104.53 59.7067 104.51 59.6843C104.492 59.6631 104.479 59.6385 104.47 59.6119C104.462 59.5853 104.459 59.5573 104.461 59.5295C104.463 59.5017 104.471 59.4746 104.484 59.4498C104.496 59.425 104.514 59.4031 104.535 59.3852C104.72 59.2252 104.976 58.9177 104.964 58.7324C104.951 58.5218 104.572 58.4165 104.568 58.4165C104.521 58.4058 104.48 58.379 104.45 58.3406C104.421 58.3022 104.406 58.2546 104.407 58.2059C104.436 57.4435 104.728 56.4074 105.306 55.9398C105.428 55.8357 105.571 55.7611 105.726 55.7217C105.88 55.6823 106.041 55.6791 106.197 55.7124C106.223 55.7179 106.248 55.7287 106.271 55.7442C106.293 55.7597 106.313 55.7795 106.327 55.8026C106.342 55.8257 106.353 55.8515 106.358 55.8787C106.363 55.9059 106.363 55.9338 106.358 55.9609Z" fill="#1D0A03"/>
<path d="M86.2803 58.7366C86.272 58.9219 86.5277 59.2294 86.7133 59.3895C86.7344 59.4073 86.7517 59.4293 86.7644 59.454C86.777 59.4788 86.7847 59.5059 86.787 59.5337C86.7893 59.5615 86.7862 59.5895 86.7778 59.6161C86.7694 59.6427 86.7559 59.6673 86.7381 59.6885C86.7182 59.7109 86.694 59.7288 86.6671 59.7411C86.6401 59.7534 86.6109 59.7599 86.5813 59.7601C86.532 59.7618 86.4837 59.7454 86.4452 59.7138C86.3834 59.659 85.8431 59.1789 85.872 58.7155C85.8885 58.3659 86.173 58.1595 86.4164 58.0627C86.3628 57.3972 86.1071 56.6095 85.6864 56.2726C85.6106 56.2066 85.521 56.1593 85.4244 56.1345C85.3278 56.1097 85.227 56.1079 85.1296 56.1294C85.1031 56.1349 85.0757 56.135 85.0491 56.1298C85.0225 56.1245 84.9972 56.114 84.9746 56.0987C84.952 56.0835 84.9326 56.0638 84.9174 56.0409C84.9023 56.018 84.8917 55.9922 84.8863 55.9651C84.8809 55.9377 84.8809 55.9095 84.8863 55.8821C84.8917 55.8547 84.9024 55.8287 84.9178 55.8055C84.9331 55.7824 84.9529 55.7626 84.9758 55.7474C84.9987 55.7321 85.0243 55.7216 85.0512 55.7166C85.2069 55.6833 85.3679 55.6865 85.5222 55.7259C85.6765 55.7653 85.8201 55.8399 85.9421 55.944C86.5195 56.4116 86.8123 57.4477 86.8412 58.2101C86.8412 58.2585 86.8254 58.3055 86.7963 58.3437C86.7671 58.3818 86.7263 58.4089 86.6803 58.4207C86.6803 58.4207 86.2926 58.5218 86.2803 58.7366Z" fill="#1D0A03"/>
<path d="M65.0395 142.576C65.0144 142.576 64.9896 142.571 64.9663 142.562C61.0214 141.035 56.7063 140.814 52.6317 141.93C52.5795 141.942 52.5251 141.932 52.4796 141.904C52.4342 141.875 52.4014 141.83 52.388 141.777C52.3747 141.724 52.3819 141.668 52.4081 141.621C52.4343 141.573 52.4775 141.538 52.5285 141.523C56.674 140.387 61.0636 140.608 65.0797 142.154L102.456 141.817C102.51 141.817 102.563 141.84 102.601 141.879C102.64 141.919 102.662 141.972 102.662 142.028C102.662 142.084 102.64 142.137 102.601 142.177C102.563 142.216 102.51 142.239 102.456 142.239L65.0415 142.576H65.0395Z" fill="#1D0A03"/>
<path d="M96.603 154.823C96.5529 154.823 96.5046 154.805 96.4669 154.771C96.4292 154.738 96.4047 154.691 96.398 154.641C96.3913 154.59 96.4029 154.539 96.4306 154.496C96.4582 154.453 96.5001 154.423 96.5483 154.409L106.327 151.652C106.353 151.645 106.38 151.643 106.407 151.646C106.434 151.65 106.46 151.659 106.484 151.672C106.507 151.686 106.528 151.704 106.545 151.726C106.561 151.748 106.573 151.773 106.581 151.8C106.588 151.827 106.59 151.854 106.586 151.882C106.583 151.909 106.574 151.936 106.561 151.96C106.548 151.984 106.53 152.005 106.508 152.022C106.487 152.039 106.462 152.052 106.436 152.059L96.6576 154.816C96.6398 154.821 96.6214 154.823 96.603 154.823Z" fill="#1D0A03"/>
<path d="M85.4841 52.7072C85.4353 52.7074 85.388 52.6898 85.3507 52.6577C85.3133 52.6256 85.2884 52.581 85.2802 52.5318C85.272 52.4827 85.2812 52.4322 85.3061 52.3893C85.331 52.3464 85.3699 52.3139 85.4161 52.2976C87.3163 51.6205 87.2049 48.2583 87.2039 48.2246C87.2017 48.1689 87.2212 48.1146 87.2581 48.0735C87.295 48.0324 87.3463 48.008 87.4008 48.0055C87.4279 48.0044 87.455 48.0088 87.4804 48.0183C87.5059 48.0279 87.5292 48.0424 87.5491 48.0612C87.569 48.08 87.5851 48.1026 87.5965 48.1277C87.6079 48.1529 87.6142 48.1801 87.6153 48.2077C87.6215 48.3583 87.738 51.9164 85.5532 52.6946C85.5311 52.7029 85.5077 52.7072 85.4841 52.7072Z" fill="white"/>
<path d="M84.7812 51.3782C84.732 51.3786 84.6843 51.361 84.6467 51.3286C84.6091 51.2963 84.5841 51.2512 84.5761 51.2017C84.5681 51.1521 84.5778 51.1013 84.6033 51.0583C84.6288 51.0154 84.6685 50.9832 84.7152 50.9675C85.8339 50.5874 85.936 48.7772 85.937 48.7562C85.9383 48.7285 85.945 48.7014 85.9566 48.6764C85.9682 48.6513 85.9845 48.6289 86.0046 48.6103C86.0247 48.5917 86.0483 48.5773 86.0738 48.5681C86.0994 48.5588 86.1265 48.5547 86.1535 48.5561C86.2079 48.5591 86.2589 48.5839 86.2954 48.6252C86.3319 48.6664 86.3509 48.7207 86.3484 48.7762C86.3484 48.8625 86.2319 50.8927 84.8462 51.3645C84.8254 51.3726 84.8034 51.3772 84.7812 51.3782Z" fill="white"/>
<path d="M96.3345 47.1536C95.4544 47.1581 94.5759 47.0785 93.7104 46.9156C93.6568 46.9043 93.6098 46.8717 93.5798 46.825C93.5497 46.7783 93.539 46.7213 93.5501 46.6666C93.5612 46.6118 93.5931 46.5638 93.6388 46.5331C93.6846 46.5024 93.7404 46.4915 93.794 46.5028C93.8496 46.5155 99.3668 47.6306 102.583 44.6759C102.603 44.6574 102.627 44.6432 102.652 44.6341C102.678 44.625 102.705 44.6211 102.732 44.6227C102.76 44.6243 102.786 44.6314 102.811 44.6435C102.835 44.6556 102.857 44.6725 102.875 44.6932C102.893 44.714 102.907 44.7382 102.916 44.7644C102.925 44.7906 102.929 44.8184 102.927 44.8461C102.925 44.8738 102.919 44.901 102.907 44.9259C102.895 44.9509 102.878 44.9733 102.858 44.9918C100.927 46.764 98.2884 47.1536 96.3345 47.1536Z" fill="white"/>
<path d="M97.744 45.5772C97.717 45.5781 97.69 45.5734 97.6647 45.5636C97.6393 45.5538 97.6161 45.539 97.5964 45.52C97.5767 45.501 97.5608 45.4783 97.5497 45.4531C97.5386 45.4278 97.5325 45.4006 97.5316 45.3729C97.5308 45.3453 97.5354 45.3177 97.545 45.2919C97.5546 45.266 97.5691 45.2423 97.5877 45.2222C97.6062 45.202 97.6285 45.1858 97.6532 45.1745C97.6779 45.1631 97.7046 45.1569 97.7317 45.156C97.7616 45.156 100.791 44.9454 102.125 42.8531C102.155 42.8063 102.202 42.7736 102.255 42.7622C102.309 42.7507 102.365 42.7615 102.411 42.792C102.456 42.8226 102.488 42.8705 102.5 42.9252C102.511 42.9799 102.5 43.0369 102.47 43.0837C101.027 45.3519 97.8894 45.5678 97.7564 45.5762L97.744 45.5772Z" fill="white"/>
<path d="M153.981 76.5638C153.981 76.5638 149.008 69.317 149.786 66.0338C150.563 62.7505 155.276 69.4718 155.276 69.4718C155.276 69.4718 152.427 60.9025 155.276 59.7389C158.125 58.5754 158.85 67.8323 158.85 67.8323C158.85 67.8323 159.886 59.3714 162.523 60.2233C165.161 61.0752 162.523 69.9036 162.523 69.9036C162.523 69.9036 166.201 63.5561 168.273 64.7723C170.346 65.9885 165.895 72.5434 165.895 72.5434C165.895 72.5434 171.954 65.8832 174.493 68.1019C177.031 70.3205 170.868 74.3493 170.868 74.3493L169.837 77.4631L153.981 76.5638Z" fill="#40C2D6"/>
<path d="M168.049 76.3628C168.049 76.3628 172.243 70.2554 171.587 67.4849C170.932 64.7145 166.957 70.3849 166.957 70.3849C166.957 70.3849 169.359 63.1571 166.957 62.1715C164.555 61.1858 163.943 68.997 163.943 68.997C163.943 68.997 163.07 61.8598 160.842 62.5737C158.614 63.2876 160.842 70.7387 160.842 70.7387C160.842 70.7387 157.74 65.3852 155.996 66.4108C154.251 67.4365 158.005 72.9689 158.005 72.9689C158.005 72.9689 152.894 67.3512 150.754 69.2234C148.613 71.0956 153.812 74.4884 153.812 74.4884L154.685 77.1146L168.049 76.3628Z" fill="#4EABD5"/>
<path d="M168.929 86.7212H154.815L152.606 74.4895H171.14L168.929 86.7212Z" fill="#40C2D6"/>
<path d="M73.7192 41.6727C71.9994 40.8629 71.0621 39.2508 70.559 37.8966C72.518 36.1318 73.6934 33.8805 73.6934 31.428C73.6934 25.7618 67.4297 21.1686 59.7019 21.1686C51.9741 21.1686 45.7094 25.7618 45.7094 31.428C45.7094 37.0942 51.9741 41.6906 59.7019 41.6906C62.8415 41.6906 65.7398 40.9324 68.0752 39.652C69.9486 41.6959 72.3871 42.0065 73.646 42.0065C73.6852 42.007 73.7235 41.9937 73.7543 41.9688C73.7851 41.944 73.8066 41.909 73.8151 41.8699C73.8237 41.8308 73.8189 41.7898 73.8014 41.7539C73.7839 41.718 73.7549 41.6893 73.7192 41.6727Z" fill="#4EABD5"/>
<path d="M58.992 29.2515C59.5797 27.5361 60.9634 26.4189 62.3729 26.4379C63.8958 26.4589 65.1073 27.7994 65.4413 28.9324C66.128 31.2596 63.6803 34.6481 59.1168 37.1185C54.6203 34.5049 52.2468 31.1164 52.9799 28.8682C53.3563 27.7183 54.7327 26.3073 56.2989 26.5021C57.5207 26.6537 58.592 27.7467 58.992 29.2515Z" fill="white"/>
<path d="M180.071 87.1425H144.737C144.628 87.1425 144.523 87.0981 144.446 87.0191C144.368 86.9402 144.325 86.833 144.325 86.7213C144.325 86.6096 144.368 86.5025 144.446 86.4235C144.523 86.3445 144.628 86.3001 144.737 86.3001H180.071C180.18 86.3001 180.285 86.3445 180.362 86.4235C180.44 86.5025 180.483 86.6096 180.483 86.7213C180.483 86.833 180.44 86.9402 180.362 87.0191C180.285 87.0981 180.18 87.1425 180.071 87.1425Z" fill="#1D0A03"/>
</svg>
