<svg width="195" height="195" viewBox="0 0 195 195" fill="none" xmlns="http://www.w3.org/2000/svg">
<mask id="mask0_104_318" style="mask-type:luminance" maskUnits="userSpaceOnUse" x="73" y="69" width="19" height="38">
<path d="M91.7727 69.5778H73.808V106.918H91.7727V69.5778Z" fill="white"/>
</mask>
<g mask="url(#mask0_104_318)">
<path d="M91.7727 69.5778H73.808V106.918H91.7727V69.5778Z" fill="#FC9C86"/>
<path d="M94.4215 85.607C91.2115 88.1446 87.2338 89.5154 83.1416 89.4944C76.0789 89.4113 71.5972 85.0857 70.6978 84.1828C70.7835 81.1152 70.8691 78.0477 70.9548 74.9801H94.3459C94.3661 78.5212 94.3912 82.0635 94.4215 85.607Z" fill="#FC9C86"/>
</g>
<path d="M76.8499 90.6844C76.8499 90.6844 63.3481 121.443 57.5777 145.224C51.8074 169.006 41.7066 186.025 28.4805 181.438C15.2545 176.852 33.616 126.037 39.836 111.171C46.056 96.3057 76.8499 90.6844 76.8499 90.6844Z" fill="#FAFAFA"/>
<path d="M107.462 47.2133C107.33 51.1762 104.938 60.3978 104.439 63.5523C101.416 73.4916 93.6545 85.6864 83.0888 85.165C70.271 84.4095 65.1128 68.7392 63.6428 63.9791C62.0633 58.8678 60.7747 53.9038 60.5593 53.1482C60.059 51.4119 59.8659 49.6016 59.9887 47.7988C59.7279 46.7448 59.4672 45.7248 59.2329 44.7766C59.2329 44.7766 59.6599 23.9987 74.3937 18.7098L74.7716 18.6531C81.8985 15.9104 87.9371 16.9796 92.1543 18.706H92.1845C94.4644 19.523 96.5603 20.7825 98.3516 22.412L98.6199 22.65C107.054 30.5456 107.357 44.7577 107.357 44.7577C107.458 45.5721 107.493 46.3932 107.462 47.2133Z" fill="#FC9C86"/>
<path d="M87.4196 61.5198C87.1324 62.502 86.0441 63.2424 84.1773 63.7147H84.132C84.0904 63.7151 84.05 63.7015 84.0171 63.6762C83.9842 63.6508 83.9607 63.6151 83.9506 63.5749C83.9443 63.5508 83.9429 63.5258 83.9464 63.5011C83.9498 63.4765 83.9581 63.4528 83.9707 63.4314C83.9834 63.41 84.0001 63.3913 84.02 63.3764C84.0399 63.3615 84.0625 63.3506 84.0866 63.3444C85.8098 62.9062 86.8112 62.2564 87.0568 61.4102C87.2684 60.6811 86.8452 59.9746 86.301 59.0831C86.0894 58.7317 85.8513 58.3275 85.6359 57.9044C84.6686 55.9853 84.2831 53.6997 84.5023 51.1044C84.5063 51.0543 84.53 51.0078 84.5683 50.9752C84.6066 50.9426 84.6562 50.9266 84.7063 50.9306C84.7565 50.9346 84.8029 50.9583 84.8355 50.9966C84.8681 51.0349 84.8842 51.0845 84.8802 51.1346C84.6799 53.6468 85.054 55.8606 85.9874 57.7193C86.199 58.1386 86.422 58.5126 86.6373 58.8526C87.1966 59.8198 87.6765 60.632 87.4196 61.5198Z" fill="#2D1929"/>
<path d="M116.188 184.627H49.2833C49.2833 184.627 41.1738 116.899 44.0118 107.001C46.8497 97.1029 72.6404 91.4853 72.6404 91.4853C85.0577 87.7566 113.35 94.9042 116.188 107.001C119.026 119.097 116.188 184.627 116.188 184.627Z" fill="#306F9F"/>
<path d="M107.512 184.536L111.566 142.319L97.6451 93.2079C97.6451 93.2079 117.042 97.7413 122.922 114.364C128.802 130.986 134.032 184.551 134.032 184.551L107.512 184.536Z" fill="#FAFAFA"/>
<path d="M102.747 148.598L100.857 184.865L60.9374 184.4C66.3299 169.946 70.5773 165.923 73.8271 166.085C78.1615 166.301 81.6002 173.191 85.4093 172.749C86.0857 172.67 86.7622 172.043 87.4877 170.566C91.0852 163.222 97.6642 93.2004 97.6642 93.2004L102.747 148.598Z" fill="#102E82"/>
<path d="M70.2749 92.1011L65.3624 184.536L39.9042 184.464C41.5065 150.045 42.4436 125.342 41.9637 116.494C41.873 114.855 41.5367 110.125 44.231 105.641C45.2589 103.944 47.0198 101.787 52.0306 98.8407C57.6745 95.5522 63.8482 93.2716 70.2749 92.1011Z" fill="#FAFAFA"/>
<path d="M97.6451 93.2004V184.793H116.188L115.84 123.128C115.84 123.128 107.368 99.3091 97.6451 93.2004Z" fill="#FAFAFA"/>
<path d="M70.2862 92.0482L66.5338 159.603L59.2331 133.374L63.6279 126.706L57.525 121.228L66.9079 92.8302C67.1762 92.7471 67.4483 92.664 67.7317 92.5884C68.5721 92.3592 69.425 92.1789 70.2862 92.0482Z" fill="#DBDBDB"/>
<path d="M102.021 130.869L106.401 138.462L97.6451 159.618V93.2004C97.9928 93.2646 98.3707 93.3515 98.7788 93.4648C99.2811 93.611 99.7723 93.7928 100.249 94.0088L107.856 124.507L102.021 130.869Z" fill="#DBDBDB"/>
<path d="M66.1444 167.865L65.3546 184.544L39.8965 184.472C39.8965 184.472 55.3822 177.883 66.1444 167.865Z" fill="#DBDBDB"/>
<path d="M121.342 184.865L97.6451 184.793C97.6451 184.793 111.317 175.791 112.473 170.566C113.63 165.341 113.437 136.437 113.437 136.437L116.57 116.487L116.434 137.608L121.342 184.865Z" fill="#DBDBDB"/>
<path d="M108.933 51.0969H104.47L102.788 41.2746C102.788 41.2746 104.908 32.6914 100.804 28.4943C96.7004 24.2972 91.8823 28.4943 85.0426 29.1856C78.2028 29.877 71.5634 24.7165 66.7907 27.0927C62.018 29.469 64.41 42.6799 64.41 42.6799L63.0987 50.5793L58.2996 52.608C55.2765 39.1099 55.6544 34.6257 55.6544 34.6257C55.8698 32.0908 56.1343 28.9892 57.7706 25.9065C62.974 16.1031 77.9912 14.1424 87.2872 15.0718C91.7349 15.5176 101.919 16.5376 106.801 24.0554C109.208 27.7614 109.571 31.8716 109.975 36.4768C110.404 41.3746 110.052 46.3093 108.933 51.0969Z" fill="#2D1929"/>
<path d="M110.947 56.0117C109.352 59.952 105.43 62.0864 102.188 60.7756C98.9452 59.4647 97.6 55.2071 99.1946 51.2668C100.789 47.3266 104.708 45.1921 107.954 46.503C111.2 47.8139 112.538 52.0715 110.947 56.0117Z" fill="#FC9C86"/>
<path d="M109.114 49.0493C109.11 49.0742 109.101 49.098 109.087 49.1193C109.074 49.1405 109.056 49.1588 109.035 49.1729C109.014 49.1871 108.991 49.1968 108.966 49.2016C108.941 49.2063 108.916 49.2059 108.891 49.2004C108.606 49.1436 108.311 49.1517 108.029 49.2243C107.747 49.2969 107.485 49.4321 107.263 49.6198C106.099 50.5416 105.415 52.7025 105.316 54.4251C105.694 54.5422 106.639 54.9162 106.688 55.7927C106.745 56.7825 105.434 57.8931 105.377 57.9423C105.343 57.9703 105.3 57.9851 105.256 57.9838C105.229 57.9836 105.202 57.9777 105.177 57.9667C105.153 57.9556 105.131 57.9396 105.112 57.9196C105.08 57.8808 105.065 57.831 105.069 57.7809C105.073 57.7307 105.097 57.6843 105.135 57.6514C105.475 57.3643 106.348 56.4765 106.31 55.8154C106.265 55.0258 105.093 54.7538 105.082 54.75C105.039 54.7411 105.001 54.7172 104.974 54.6826C104.947 54.648 104.933 54.605 104.935 54.5611C104.999 52.7856 105.691 50.4056 107.028 49.3251C107.294 49.1021 107.607 48.9423 107.943 48.8579C108.28 48.7735 108.631 48.7666 108.971 48.8378C109.017 48.8478 109.058 48.8754 109.085 48.9148C109.111 48.9542 109.122 49.0024 109.114 49.0493Z" fill="#2D1929"/>
<path d="M66.0349 60.7756C62.7927 62.0864 58.8551 59.952 57.2756 56.0117C55.696 52.0715 57.0262 47.8139 60.2684 46.503C63.5107 45.1921 67.4482 47.3266 69.0278 51.2668C70.6074 55.2071 69.2961 59.4647 66.0349 60.7756Z" fill="#FC9C86"/>
<path d="M61.9274 55.804C61.8896 56.4689 62.7625 57.3567 63.1026 57.6438C63.1406 57.6767 63.1643 57.7232 63.1686 57.7733C63.1728 57.8234 63.1573 57.8732 63.1253 57.912C63.107 57.932 63.0849 57.9481 63.0602 57.9591C63.0355 57.9702 63.0087 57.976 62.9817 57.9762C62.9376 57.9775 62.8947 57.9628 62.8607 57.9347C62.8041 57.8856 61.4928 56.7749 61.5495 55.7851C61.5986 54.9087 62.5395 54.5347 62.9212 54.4176C62.823 52.6949 62.139 50.534 60.9751 49.6122C60.7515 49.4253 60.4885 49.2912 60.2059 49.2199C59.9233 49.1486 59.6282 49.1419 59.3426 49.2004C59.2931 49.2093 59.242 49.1985 59.2004 49.1703C59.1587 49.142 59.1297 49.0986 59.1197 49.0493C59.1147 49.0252 59.1147 49.0004 59.1194 48.9763C59.1242 48.9522 59.1337 48.9293 59.1474 48.9089C59.1611 48.8885 59.1788 48.871 59.1993 48.8575C59.2199 48.844 59.2429 48.8347 59.267 48.8302C59.6066 48.759 59.9578 48.7659 60.2943 48.8504C60.6308 48.9348 60.9437 49.0945 61.2094 49.3175C62.5547 50.3829 63.2386 52.778 63.3029 54.5536C63.3047 54.5974 63.2909 54.6405 63.2639 54.675C63.2369 54.7096 63.1985 54.7335 63.1555 54.7424C63.1555 54.7424 61.9727 55.0182 61.9274 55.804Z" fill="#2D1929"/>
<path d="M91.7727 91.6968C91.7727 91.6968 87.9523 98.6404 84.215 98.9049C80.4777 99.1693 73.808 91.1755 73.808 91.1755C83.0889 86.2643 91.7727 91.6968 91.7727 91.6968Z" fill="#FC9C86"/>
<path d="M82.7906 98.6782C82.7906 98.6782 77.213 104.881 75.4294 104.137C73.6458 103.393 69.6818 94.6095 69.6137 93.6197C69.5457 92.6299 71.2991 88.497 71.9604 87.1786C72.1324 86.8046 72.3888 86.4756 72.7094 86.2173C73.03 85.959 73.4062 85.7786 73.8083 85.6901C74.233 88.3906 75.2612 90.9607 76.8163 93.2093C78.3713 95.4579 80.4134 97.3272 82.7906 98.6782Z" fill="#306F9F"/>
<path d="M89.1087 105.278C87.4687 105.025 85.9496 103.321 85.2203 102.256C84.5116 101.19 83.8802 100.076 83.3309 98.92C88.8669 96.4191 91.7615 87.3524 91.7615 87.3524C92.2528 86.9997 92.8566 86.8397 93.4582 86.9028C94.214 87.0124 94.709 87.5299 95.2418 88.259C95.6915 88.8748 97.0972 90.7939 97.4222 93.0757C98.2082 98.4931 92.8649 105.867 89.1087 105.278Z" fill="#306F9F"/>
<path d="M82.7866 98.682C82.7261 98.8936 80.7384 105.592 78.0555 106.664C75.3725 107.737 73.1203 105.014 70.2823 95.5389C70.4713 96.0375 73.4906 104.016 76.2 104.832C78.9095 105.648 82.6619 98.8822 82.7866 98.682Z" fill="#102E82"/>
<path d="M97.6414 93.2079C97.4903 93.5857 92.6269 106.173 89.5055 106.502C86.3842 106.831 83.4329 99.1504 83.346 98.9124C83.4858 99.09 88.0393 104.878 89.4564 104.685C90.8735 104.492 97.4336 93.5517 97.6414 93.2079Z" fill="#102E82"/>
<path d="M91.773 184.578H76.2003C78.6339 170.521 78.6679 170.184 78.6679 170.184C79.9565 156.924 73.1394 155.791 73.8083 142.051C74.0955 136.128 75.6108 130.223 77.4775 123.385C79.0155 117.767 80.4288 113.635 80.4288 113.635C80.4288 113.635 77.8743 108.217 78.0557 106.664C78.2371 105.112 82.0953 99.8644 82.0953 99.8644C83.4481 97.934 87.9185 104.492 88.2964 106.26C88.6743 108.028 85.1449 113.51 85.1449 113.51C83.7542 116.683 85.4169 145.92 91.773 156.342C98.129 166.765 91.773 184.578 91.773 184.578Z" fill="#639B3F"/>
<path d="M90.2991 67.2583C89.2826 70.6583 86.0441 72.6114 83.1609 72.0183C81.0447 71.5801 79.314 69.8121 78.6678 67.5227L90.2991 67.2583Z" fill="#2D1929"/>
<path d="M75.3613 45.0222C73.7088 45.0222 72.0935 45.5118 70.7193 46.4292C69.3451 47.3466 68.2737 48.6506 67.6405 50.1764C67.0073 51.7023 66.8407 53.3815 67.1617 55.002C67.4827 56.6225 68.2769 58.1115 69.444 59.2809C70.6111 60.4503 72.0988 61.2477 73.719 61.5723C75.3392 61.8968 77.0193 61.734 78.547 61.1044C80.0747 60.4749 81.3814 59.4067 82.3022 58.035C83.2229 56.6633 83.7164 55.0495 83.7201 53.3975C83.7221 51.1789 82.8427 49.0503 81.2752 47.4797C79.7077 45.9091 77.5805 45.0252 75.3613 45.0222ZM75.3613 60.9796C73.8567 60.9796 72.386 60.5333 71.1353 59.6973C69.8845 58.8612 68.9101 57.673 68.3352 56.283C67.7603 54.893 67.6108 53.3638 67.9057 51.8888C68.2006 50.4139 68.9266 49.0595 69.9918 47.9973C71.057 46.935 72.4135 46.2126 73.8896 45.9215C75.3657 45.6303 76.895 45.7835 78.2839 46.3617C79.6729 46.9399 80.859 47.9171 81.6922 49.1695C82.5253 50.422 82.9681 51.8934 82.9643 53.3975C82.9573 55.4095 82.1534 57.3369 80.7286 58.7578C79.3037 60.1787 77.3738 60.9776 75.3613 60.9796Z" fill="#2D1929"/>
<path d="M94.3463 45.0222C92.6932 45.0192 91.0764 45.5063 89.7002 46.4218C88.324 47.3374 87.2503 48.6404 86.6148 50.1659C85.9793 51.6915 85.8105 53.3712 86.1298 54.9927C86.4491 56.6142 87.2421 58.1046 88.4086 59.2755C89.5751 60.4465 91.0627 61.2453 92.6833 61.5711C94.3039 61.8969 95.9848 61.735 97.5134 61.1059C99.042 60.4767 100.35 59.4086 101.271 58.0366C102.192 56.6645 102.686 55.0501 102.69 53.3975C102.692 51.1815 101.815 49.0552 100.25 47.4851C98.6863 45.9149 96.5629 45.0292 94.3463 45.0222ZM94.3463 60.9796C92.8411 60.9826 91.3689 60.5388 90.1162 59.7046C88.8635 58.8704 87.8866 57.6832 87.3094 56.2935C86.7322 54.9038 86.5806 53.3741 86.8738 51.8981C87.1669 50.4222 87.8918 49.0664 88.9564 48.0027C90.0209 46.9389 91.3774 46.215 92.8539 45.9226C94.3304 45.6302 95.8605 45.7826 97.2503 46.3603C98.6402 46.9381 99.8272 47.9152 100.661 49.168C101.495 50.4208 101.938 51.8928 101.934 53.3975C101.927 55.4069 101.125 57.332 99.7038 58.7525C98.2822 60.173 96.3562 60.9736 94.3463 60.9796Z" fill="#2D1929"/>
<path d="M86.7433 53.6393C86.7433 53.7395 86.7035 53.8356 86.6326 53.9064C86.5617 53.9773 86.4656 54.0171 86.3654 54.0171H83.3423C83.2421 54.0171 83.146 53.9773 83.0751 53.9064C83.0042 53.8356 82.9644 53.7395 82.9644 53.6393C82.9644 53.5391 83.0042 53.443 83.0751 53.3722C83.146 53.3013 83.2421 53.2615 83.3423 53.2615H86.3654C86.4656 53.2615 86.5617 53.3013 86.6326 53.3722C86.7035 53.443 86.7433 53.5391 86.7433 53.6393Z" fill="#2D1929"/>
<path d="M67.7693 52.0262C67.7068 52.0682 67.6331 52.0906 67.5577 52.0904C67.4961 52.0909 67.4354 52.0764 67.3807 52.0481C67.3261 52.0198 67.2791 51.9785 67.244 51.928L62.528 45.0448C62.4993 45.0039 62.4789 44.9577 62.4681 44.9089C62.4574 44.86 62.4564 44.8096 62.4653 44.7604C62.4742 44.7112 62.4928 44.6642 62.52 44.6222C62.5471 44.5803 62.5824 44.5441 62.6237 44.5159C62.6649 44.4876 62.7114 44.4678 62.7604 44.4577C62.8093 44.4475 62.8598 44.4471 62.9089 44.4566C62.958 44.4661 63.0048 44.4853 63.0464 44.513C63.0881 44.5406 63.1238 44.5763 63.1515 44.6179L67.8676 51.5086C67.9218 51.5907 67.9419 51.6907 67.9236 51.7873C67.9052 51.884 67.8499 51.9697 67.7693 52.0262Z" fill="#2D1929"/>
<path d="M105.46 43.8964L102.24 51.1309C102.21 51.1978 102.161 51.2544 102.1 51.294C102.038 51.3336 101.966 51.3544 101.893 51.3538C101.84 51.353 101.789 51.3414 101.741 51.3198C101.696 51.2997 101.655 51.2709 101.621 51.235C101.586 51.199 101.56 51.1567 101.542 51.1104C101.524 51.0641 101.515 51.0147 101.516 50.965C101.518 50.9154 101.529 50.8665 101.549 50.8211L104.772 43.5753C104.789 43.5257 104.816 43.4802 104.852 43.4416C104.887 43.403 104.93 43.3723 104.979 43.3514C105.027 43.3304 105.079 43.3197 105.131 43.3199C105.183 43.3201 105.235 43.3312 105.283 43.3525C105.331 43.3738 105.374 43.4049 105.409 43.4437C105.445 43.4826 105.471 43.5283 105.488 43.578C105.505 43.6278 105.511 43.6804 105.506 43.7326C105.501 43.7848 105.485 43.8355 105.46 43.8813V43.8964Z" fill="#2D1929"/>
<path d="M159.256 116.487C159.535 119.509 160.068 148.22 151.029 150.729C143.706 152.757 135.774 150.139 132.464 148.383C129.498 146.765 126.76 144.762 124.32 142.425C119.808 138.776 109.492 128.784 109.333 113.91C109.303 110.726 109.182 97.9 119.124 90.4464C127.755 83.9751 140.535 84.1262 148.221 89.7589C154.082 93.4422 157.143 99.2223 157.151 99.2336C159.751 102.218 160.631 107.277 159.256 116.487Z" fill="#4EABD5"/>
<path d="M164.402 126.09C164.115 128.969 160.574 129.762 158.783 129.762L159.256 116.487C159.826 119.679 161.032 121.628 162.082 122.837C163.223 124.163 164.523 124.892 164.402 126.09Z" fill="#4EABD5"/>
<path d="M145.444 126.706H126.928V167.495H145.444V126.706Z" fill="#4EABD5"/>
<path d="M168.725 168.998L167.373 184.782H100.577L99.3455 170.403C98.688 162.75 104.22 156.324 111.718 156.324H157.631C164.357 156.335 169.315 162.107 168.725 168.998Z" fill="#4EABD5"/>
<path d="M154.528 103.196C154.528 110.982 148.777 112.709 139.462 112.905C132.018 113.064 129.509 124.862 122.661 126.067C122.057 126.173 118.992 126.32 116.517 124.613C111.298 121.013 110.675 110.333 115.871 98.2437C116.936 96.8724 123.466 88.7388 133.764 88.5915C143.736 88.4441 154.509 95.8297 154.528 103.196Z" fill="#306FC8"/>
<path d="M114.616 122.671L94.928 140.872C94.3953 141.365 93.6888 141.626 92.9638 141.597C92.2389 141.569 91.5548 141.254 91.0622 140.721L90.8808 140.525C90.3883 139.992 90.1276 139.286 90.1559 138.561C90.1842 137.837 90.4994 137.153 91.032 136.66L110.716 118.459C110.98 118.215 111.289 118.025 111.626 117.9C111.963 117.775 112.321 117.718 112.68 117.732C113.039 117.747 113.392 117.831 113.718 117.982C114.045 118.132 114.338 118.346 114.582 118.61L114.767 118.806C115.259 119.339 115.519 120.045 115.49 120.77C115.462 121.494 115.148 122.178 114.616 122.671Z" fill="#2D1929"/>
<path d="M138.34 96.8422C136.391 94.7368 133.953 93.1444 131.241 92.2059C128.53 91.2673 125.629 91.0117 122.795 91.4615C119.961 91.9114 117.282 93.0529 114.995 94.7849C112.708 96.517 110.883 98.7861 109.682 101.391C108.482 103.997 107.942 106.858 108.111 109.721C108.281 112.585 109.154 115.363 110.653 117.808C112.153 120.254 114.232 122.292 116.708 123.743C119.183 125.193 121.978 126.011 124.845 126.124C125.08 126.124 125.31 126.124 125.544 126.124C128.935 126.119 132.25 125.127 135.085 123.269C137.921 121.411 140.154 118.768 141.511 115.662C142.868 112.556 143.291 109.122 142.728 105.78C142.164 102.438 140.64 99.3322 138.34 96.8422ZM139.946 109.252C139.835 112.078 138.895 114.809 137.244 117.105C135.593 119.401 133.303 121.161 130.659 122.167C128.015 123.172 125.133 123.379 122.373 122.76C119.613 122.141 117.096 120.725 115.134 118.688C113.172 116.65 111.853 114.081 111.34 111.3C110.828 108.519 111.144 105.648 112.25 103.046C113.356 100.443 115.203 98.2224 117.562 96.6608C119.92 95.0991 122.685 94.2649 125.514 94.262H126.089C127.982 94.3354 129.843 94.7812 131.565 95.5738C133.286 96.3664 134.834 97.4904 136.121 98.8814C137.408 100.272 138.408 101.903 139.064 103.681C139.721 105.458 140.02 107.348 139.946 109.241V109.252Z" fill="#2D1929"/>
<path d="M110.625 130.465C110.625 130.465 112.613 134.428 107.852 134.526C107.852 134.526 110.028 138.564 105.173 138.477C105.173 138.477 105.758 139.864 105.067 140.914C104.375 141.964 102.962 142.021 102.149 142.066C97.3767 142.323 90.2611 142.206 89.2484 142.191L81.0861 154.046L71.261 136.452L87.3854 126.721C87.3854 126.721 97.9247 120.378 102.187 119.664C106.45 118.95 114.125 125.569 114.083 128.058C114.041 130.548 110.625 130.465 110.625 130.465Z" fill="#FC9C86"/>
<path d="M86.4635 151.027C82.3597 155.134 56.0437 181.2 39.5112 184.336C37.123 184.789 32.1198 185.738 28.3371 182.927C24.819 180.305 23.5569 175.33 23.8025 171.737C24.2106 165.292 29.4028 159.467 57.4003 143.207C67.2254 137.495 75.7089 132.92 82.0876 129.584C83.5412 136.719 84.9998 143.867 86.4635 151.027Z" fill="#FAFAFA"/>
<path d="M63.6128 137.616V139.633C35.7739 154.185 26.2701 171.933 26.2701 171.933C27.6433 166.312 30.413 161.127 34.3228 156.86C36.9892 153.973 40.1372 151.571 43.6264 149.762L44.3821 132.025C43.7095 125.406 43.0344 118.787 42.3567 112.169C43.9665 118.531 45.5737 124.892 47.1785 131.254C47.1483 136.588 47.1168 141.923 47.084 147.257L63.6128 137.616Z" fill="#DBDBDB"/>
<path d="M110.735 130.597C110.716 130.613 110.694 130.624 110.67 130.631C110.646 130.638 110.621 130.641 110.596 130.638C110.572 130.635 110.548 130.627 110.526 130.615C110.505 130.603 110.486 130.586 110.47 130.567L106.355 125.414C106.324 125.375 106.309 125.325 106.314 125.275C106.32 125.225 106.345 125.179 106.384 125.147C106.423 125.116 106.473 125.101 106.523 125.106C106.573 125.112 106.618 125.137 106.65 125.176L110.765 130.329C110.796 130.368 110.811 130.419 110.805 130.469C110.799 130.519 110.774 130.565 110.735 130.597Z" fill="#2D1929"/>
<path d="M107.931 134.677C107.905 134.692 107.875 134.7 107.844 134.699C107.81 134.699 107.776 134.69 107.747 134.672C107.718 134.654 107.694 134.628 107.678 134.597L104.798 129.097C104.775 129.052 104.771 129 104.786 128.953C104.802 128.905 104.835 128.865 104.88 128.842C104.924 128.819 104.976 128.815 105.024 128.83C105.072 128.845 105.112 128.879 105.135 128.923L108.011 134.424C108.022 134.445 108.03 134.469 108.032 134.494C108.034 134.519 108.032 134.543 108.024 134.567C108.017 134.591 108.005 134.612 107.989 134.631C107.973 134.65 107.953 134.666 107.931 134.677Z" fill="#2D1929"/>
<path d="M105.271 138.621C105.239 138.64 105.202 138.65 105.165 138.651C105.134 138.651 105.104 138.644 105.077 138.629C105.05 138.615 105.027 138.594 105.01 138.568L102.629 135.013C102.602 134.971 102.592 134.919 102.602 134.87C102.612 134.821 102.641 134.777 102.682 134.749C102.724 134.721 102.775 134.712 102.824 134.721C102.872 134.731 102.915 134.76 102.943 134.802L105.324 138.356C105.351 138.399 105.361 138.45 105.351 138.499C105.341 138.549 105.313 138.592 105.271 138.621Z" fill="#2D1929"/>
<path d="M123.802 110.676L125.223 119.724L117.39 107.273H124.702L121.478 97.6204L130.793 98.7538L133.665 110.676H123.802Z" fill="#EFBD42"/>
<path d="M82.0119 25.8267C81.9305 25.6893 81.9211 25.5159 81.9855 25.3377C82.0498 25.1596 82.1836 24.9884 82.3628 24.8551C82.5419 24.7219 82.7546 24.6353 82.9624 24.611C83.1703 24.5867 83.3596 24.6262 83.4963 24.7225C86.7863 27.0182 93.967 23.2563 94.0503 23.2121C94.1597 23.1539 94.2756 23.1119 94.3915 23.0885C94.5074 23.0651 94.6209 23.0608 94.7256 23.0758C94.8303 23.0908 94.9241 23.1248 95.0016 23.1759C95.0791 23.227 95.1388 23.2941 95.1773 23.3734C95.254 23.533 95.2406 23.7318 95.1401 23.9267C95.0396 24.1216 94.8602 24.2966 94.6409 24.4137C94.3063 24.6069 86.2492 28.8205 82.1704 25.9788C82.1052 25.9385 82.0517 25.8871 82.0119 25.8267Z" fill="white"/>
<path d="M82.3815 21.7625C82.3001 21.6251 82.2907 21.4516 82.355 21.2735C82.4194 21.0953 82.5532 20.9241 82.7323 20.7909C82.9115 20.6576 83.1242 20.571 83.332 20.5467C83.5399 20.5224 83.7292 20.562 83.8658 20.6583C87.1558 22.9539 94.3366 19.192 94.4199 19.1478C94.5293 19.0896 94.6452 19.0476 94.7611 19.0242C94.877 19.0009 94.9905 18.9966 95.0952 19.0115C95.1999 19.0265 95.2937 19.0605 95.3712 19.1116C95.4487 19.1627 95.5084 19.2298 95.5469 19.3092C95.6235 19.4687 95.6102 19.6676 95.5097 19.8624C95.4092 20.0573 95.2298 20.2324 95.0105 20.3494C94.6759 20.5426 86.6187 24.7562 82.54 21.9145C82.4748 21.8742 82.4213 21.8229 82.3815 21.7625Z" fill="white"/>
<path d="M93.7549 53.5194C93.7538 53.7735 93.6775 54.0216 93.5356 54.2325C93.3938 54.4433 93.1927 54.6075 92.9577 54.7043C92.7227 54.8011 92.4643 54.8263 92.215 54.7766C91.9657 54.7269 91.7368 54.6045 91.5569 54.425C91.377 54.2454 91.2543 54.0167 91.2043 53.7676C91.1542 53.5184 91.179 53.2601 91.2755 53.025C91.372 52.7899 91.5359 52.5886 91.7466 52.4465C91.9573 52.3044 92.2054 52.2278 92.4595 52.2263C92.6297 52.2253 92.7985 52.2581 92.956 52.3227C93.1134 52.3873 93.2565 52.4825 93.377 52.6028C93.4974 52.723 93.5929 52.8659 93.6577 53.0233C93.7226 53.1806 93.7556 53.3493 93.7549 53.5194Z" fill="black"/>
<path d="M98.1834 46.3259C98.186 47.1113 95.9261 45.7265 92.7634 46.1133C90.9306 46.3402 88.449 47.1589 88.0448 46.4223C87.2397 44.9986 89.2854 43.6827 92.1886 43.5056C95.3616 43.3292 98.1549 45.548 98.1834 46.3259Z" fill="black"/>
<path d="M76.844 53.4855C76.8464 53.6552 76.8151 53.8237 76.7518 53.9811C76.6884 54.1386 76.5944 54.2818 76.4751 54.4026C76.3558 54.5233 76.2136 54.6191 76.0569 54.6844C75.9002 54.7496 75.7321 54.783 75.5624 54.7826C75.3931 54.7829 75.2256 54.7499 75.0691 54.6854C74.9127 54.6209 74.7705 54.5262 74.6507 54.4068C74.5308 54.2874 74.4357 54.1455 74.3707 53.9893C74.3057 53.8332 74.2721 53.6657 74.2719 53.4965C74.2716 53.3274 74.3046 53.1598 74.3692 53.0034C74.4337 52.8471 74.5283 52.7049 74.6478 52.5851C74.7673 52.4653 74.9092 52.3702 75.0654 52.3052C75.2216 52.2403 75.3891 52.2067 75.5583 52.2064C75.7269 52.2055 75.8939 52.2379 76.0499 52.3018C76.2059 52.3657 76.3477 52.4598 76.4672 52.5787C76.5867 52.6975 76.6815 52.8388 76.7461 52.9945C76.8108 53.1501 76.844 53.317 76.844 53.4855Z" fill="black"/>
<path d="M80.1755 45.5873C79.8846 46.3677 77.2989 45.9531 75.4707 46.0214C72.273 46.132 70.262 47.8591 70.1483 47.0777C70.0345 46.2964 72.4554 43.6759 75.6168 43.3624C78.5138 43.0861 80.753 44.0501 80.1755 45.5873Z" fill="black"/>
<path d="M95.3224 80.0231C95.1481 80.2321 91.0878 85.1325 83.6952 85.1325H83.5106C76.0052 85.0565 70.4172 77.7439 70.1814 77.4305C70.1062 77.3269 70.078 77.2001 70.1029 77.0775C70.1279 76.9549 70.2039 76.8463 70.3146 76.7752C70.4252 76.7046 70.5612 76.6769 70.6935 76.6982C70.8258 76.7196 70.9438 76.7881 71.0221 76.8891C71.0836 76.9651 76.5486 84.1068 83.5209 84.1828H83.6849C90.5752 84.1828 94.4509 79.5008 94.5022 79.4533C94.5837 79.3526 94.7052 79.286 94.8398 79.2681C94.9744 79.2503 95.1111 79.2828 95.2199 79.3583C95.3287 79.4339 95.4006 79.5464 95.4198 79.6711C95.4391 79.7957 95.404 79.9224 95.3224 80.0231Z" fill="#1D0A03"/>
</svg>
