<svg width="195" height="195" viewBox="0 0 195 195" fill="none" xmlns="http://www.w3.org/2000/svg">
<path d="M91.3785 79.4997C86.3869 79.4587 81.437 80.4115 76.8174 82.3028C72.1978 84.1941 68.0008 86.9859 64.4711 90.5156C60.9414 94.0454 58.1495 98.2423 56.2582 102.862C54.367 107.482 53.4141 112.431 53.4552 117.423C53.6279 137.846 70.3172 154.535 90.7402 154.711C95.7324 154.753 100.683 153.8 105.303 151.909C109.923 150.017 114.121 147.225 117.651 143.695C121.181 140.165 123.973 135.968 125.864 131.348C127.755 126.727 128.708 121.777 128.667 116.785C128.491 96.3617 111.802 79.6601 91.3785 79.4997ZM92.2757 143.125C87.0269 143.371 81.8262 142.024 77.357 139.261C72.8878 136.497 69.3593 132.446 67.2349 127.64C65.1106 122.834 64.4899 117.498 65.4544 112.333C66.419 107.167 68.9236 102.415 72.6391 98.6991C76.3547 94.9835 81.1074 92.4789 86.2727 91.5144C91.438 90.5499 96.7743 91.1706 101.58 93.2949C106.386 95.4192 110.437 98.9478 113.201 103.417C115.964 107.886 117.311 113.087 117.065 118.336C116.754 124.81 114.042 130.936 109.459 135.519C104.876 140.102 98.7498 142.814 92.2757 143.125Z" fill="#659D42"/>
<path d="M95.7084 149.008H86.3255C85.1358 149.008 84.1713 149.974 84.1713 151.165V163.35C84.1713 164.541 85.1358 165.507 86.3255 165.507H95.7084C96.8981 165.507 97.8626 164.541 97.8626 163.35V151.165C97.8626 149.974 96.8981 149.008 95.7084 149.008Z" fill="#659D42"/>
<path d="M138.585 122.631V113.248C138.585 112.058 137.619 111.094 136.428 111.094H124.243C123.052 111.094 122.086 112.058 122.086 113.248V122.631C122.086 123.82 123.052 124.785 124.243 124.785H136.428C137.619 124.785 138.585 123.82 138.585 122.631Z" fill="#EFBD42"/>
<path d="M59.9486 122.631V113.248C59.9486 112.058 58.9826 111.094 57.791 111.094H45.6065C44.4149 111.094 43.4489 112.058 43.4489 113.248V122.631C43.4489 123.82 44.4149 124.785 45.6065 124.785H57.791C58.9826 124.785 59.9486 123.82 59.9486 122.631Z" fill="#659D42"/>
<path d="M121.317 154.893L127.964 148.246C128.807 147.403 128.807 146.037 127.964 145.194L119.347 136.577C118.504 135.734 117.138 135.734 116.295 136.577L109.649 143.224C108.806 144.066 108.806 145.433 109.649 146.276L118.266 154.893C119.108 155.735 120.475 155.735 121.317 154.893Z" fill="#659D42"/>
<path d="M65.7538 99.331L72.4002 92.6845C73.243 91.8418 73.243 90.4755 72.4002 89.6327L63.7832 81.0156C62.9404 80.1729 61.5741 80.1729 60.7313 81.0156L54.0849 87.6621C53.2421 88.5048 53.2421 89.8712 54.0849 90.7139L62.7019 99.331C63.5447 100.174 64.911 100.174 65.7538 99.331Z" fill="#EFBD42"/>
<path d="M127.961 87.6642L121.314 81.0177C120.472 80.175 119.105 80.175 118.263 81.0177L109.645 89.6348C108.803 90.4776 108.803 91.8439 109.645 92.6867L116.292 99.3331C117.135 100.176 118.501 100.176 119.344 99.3331L127.961 90.716C128.804 89.8733 128.804 88.5069 127.961 87.6642Z" fill="#EFBD42"/>
<path d="M72.4009 143.226L65.7545 136.579C64.9117 135.737 63.5454 135.737 62.7026 136.579L54.0856 145.197C53.2428 146.039 53.2428 147.406 54.0856 148.248L60.732 154.895C61.5748 155.738 62.9411 155.738 63.7839 154.895L72.4009 146.278C73.2437 145.435 73.2437 144.069 72.4009 143.226Z" fill="#659D42"/>
<path d="M169.995 91.2534C169.994 87.9655 168.794 84.7907 166.62 82.3232C164.446 79.8558 161.447 78.2649 158.184 77.8482C158.184 77.8081 158.184 77.768 158.184 77.728C158.194 75.2259 157.632 72.7547 156.542 70.5024C155.451 68.2502 153.861 66.2763 151.893 64.731C149.924 63.1857 147.629 62.1098 145.181 61.5851C142.734 61.0605 140.199 61.1009 137.77 61.7033C135.542 57.9756 131.929 55.2804 127.72 54.2059C123.511 53.1314 119.048 53.765 115.305 55.9684C114.369 54.3101 113.007 52.932 111.36 51.9769C109.713 51.0219 107.84 50.5245 105.935 50.5365C104.031 50.5484 102.164 51.0692 100.529 52.0449C98.8938 53.0206 97.5493 54.4156 96.6348 56.0855C94.4516 53.814 91.7121 52.1527 88.6882 51.2663C85.6643 50.38 82.4611 50.2994 79.3965 51.0326C76.3318 51.7659 73.5122 53.2874 71.2175 55.4463C68.9228 57.6051 67.2326 60.3263 66.3148 63.3397C66.0559 63.3212 65.7938 63.2996 65.5287 63.2996C63.6969 63.2953 61.8912 63.7341 60.2657 64.5785C58.6403 65.4229 57.2434 66.648 56.1942 68.149C55.1451 69.6501 54.4748 71.3826 54.2407 73.1987C54.0066 75.0148 54.2155 76.8606 54.8497 78.5785C50.6839 81.4783 47.6799 85.759 46.3702 90.6615C45.0605 95.5641 45.5298 100.772 47.6947 105.362C49.8597 109.951 53.5806 113.626 58.1977 115.736C62.8148 117.845 68.0299 118.251 72.9183 116.884C73.4609 117.004 74.0128 117.136 74.5646 117.266C75.2153 119.527 76.3426 121.622 77.8708 123.412C79.3991 125.201 81.2928 126.643 83.4247 127.64C85.5566 128.636 87.8773 129.166 90.2309 129.192C92.5844 129.217 94.9162 128.739 97.0695 127.79C98.0287 127.35 99.0758 127.136 100.131 127.163C101.185 127.19 102.22 127.458 103.155 127.947L103.186 127.962C108.479 131.984 115.585 138.341 117.148 144.489C119.704 154.548 116.988 164.603 118.745 165.722C120.502 166.84 127.849 166.84 129.763 165.722C131.206 164.88 130.842 150.504 134.307 141.793C135.297 141.68 136.278 141.505 137.245 141.269C138.225 141.03 139.19 140.733 140.134 140.378C142.905 141.138 145.826 141.165 148.61 140.455C151.394 139.746 153.946 138.325 156.015 136.331C158.083 134.338 159.597 131.841 160.409 129.085C161.22 126.33 161.3 123.411 160.641 120.615C162.706 119.95 164.579 118.798 166.104 117.257C167.628 115.715 168.759 113.829 169.401 111.758C170.042 109.687 170.175 107.492 169.789 105.359C169.402 103.226 168.507 101.217 167.18 99.503C169.008 97.1415 169.998 94.2393 169.995 91.2534Z" fill="#3C7DCE"/>
<path d="M72.4145 90.469C72.1936 90.468 71.9814 90.3837 71.8201 90.2328C71.6589 90.082 71.5607 89.8758 71.5452 89.6557C71.2708 85.669 69.9021 82.7853 67.476 81.0878C62.9013 77.8806 55.9559 79.8154 55.885 79.8338C55.7749 79.8656 55.6596 79.8754 55.5457 79.8626C55.4318 79.8498 55.3216 79.8148 55.2212 79.7594C55.1209 79.7041 55.0325 79.6295 54.961 79.54C54.8895 79.4505 54.8363 79.3477 54.8045 79.2377C54.7728 79.1276 54.763 79.0124 54.7758 78.8986C54.7885 78.7848 54.8236 78.6746 54.879 78.5743C54.9344 78.474 55.009 78.3856 55.0986 78.3142C55.1882 78.2427 55.2909 78.1896 55.401 78.1578C55.7093 78.0654 63.2064 75.9673 68.4717 79.6521C71.354 81.667 72.9755 84.9943 73.2869 89.5355C73.3013 89.7654 73.2241 89.9916 73.0722 90.1647C72.9203 90.3379 72.706 90.444 72.4761 90.4598L72.4145 90.469Z" fill="white"/>
<path d="M75.3947 118.641C75.1866 118.641 74.9855 118.566 74.8278 118.43C74.6701 118.293 74.5661 118.105 74.5346 117.899C74.2682 115.486 74.5099 113.044 75.2441 110.731C76.356 107.194 79.1665 102.475 86.228 100.066C86.4425 100.007 86.6714 100.033 86.8678 100.137C87.0642 100.242 87.2134 100.418 87.2848 100.629C87.3561 100.841 87.3444 101.071 87.2519 101.274C87.1593 101.477 86.9931 101.637 86.787 101.721C81.6729 103.464 78.3464 106.674 76.9059 111.254C76.254 113.315 76.0323 115.487 76.2547 117.637C76.2721 117.75 76.2671 117.866 76.2399 117.977C76.2127 118.088 76.1639 118.193 76.0963 118.285C76.0286 118.377 75.9435 118.455 75.8458 118.514C75.748 118.573 75.6396 118.612 75.5267 118.629C75.4832 118.638 75.439 118.642 75.3947 118.641Z" fill="white"/>
<path d="M123.049 75.1103H122.932C122.702 75.0796 122.494 74.9588 122.353 74.7747C122.212 74.5905 122.15 74.3579 122.181 74.1282C124.105 59.8474 138.551 61.2742 138.684 61.2897C138.798 61.3022 138.909 61.3372 139.009 61.3925C139.11 61.4478 139.199 61.5224 139.271 61.612C139.343 61.7016 139.396 61.8045 139.428 61.9148C139.46 62.0251 139.47 62.1406 139.458 62.2548C139.445 62.369 139.41 62.4795 139.355 62.5802C139.3 62.6809 139.225 62.7697 139.135 62.8415C139.046 62.9133 138.943 62.9668 138.832 62.9989C138.722 63.031 138.607 63.041 138.492 63.0284C137.958 62.9698 125.606 61.7931 123.917 74.3598C123.886 74.5683 123.782 74.7588 123.623 74.8966C123.463 75.0344 123.26 75.1103 123.049 75.1103Z" fill="white"/>
<path d="M152.84 102.756H152.735C152.542 102.732 152.361 102.644 152.223 102.507C152.085 102.369 151.997 102.189 151.973 101.996C151.876 101.05 151.506 100.153 150.908 99.414C150.31 98.6746 149.51 98.1243 148.604 97.83C146.426 97.1742 144.014 98.2303 142.866 100.342C142.755 100.546 142.568 100.698 142.346 100.765C142.123 100.831 141.883 100.807 141.678 100.696C141.474 100.586 141.321 100.399 141.255 100.177C141.188 99.9547 141.213 99.7151 141.323 99.511C142.866 96.6755 146.136 95.2654 149.104 96.1583C149.953 96.422 150.738 96.856 151.412 97.4336C152.087 98.0112 152.635 98.7202 153.025 99.5172C155.243 95.912 159.159 93.8892 162.845 94.6743C166.418 95.4348 168.281 98.6059 168.769 99.5603C168.874 99.7664 168.893 100.006 168.821 100.226C168.749 100.446 168.593 100.628 168.386 100.733C168.18 100.838 167.94 100.857 167.719 100.785C167.499 100.714 167.316 100.558 167.211 100.352C166.813 99.5726 165.298 96.9649 162.481 96.3799C158.98 95.6349 155.185 98.1317 153.652 102.19C153.589 102.355 153.479 102.497 153.334 102.598C153.189 102.699 153.017 102.754 152.84 102.756Z" fill="white"/>
<path d="M140.948 141.708C140.794 141.709 140.643 141.669 140.511 141.591C137.198 139.668 135.111 137.078 134.305 133.9C132.812 127.984 136.296 122.194 136.46 121.951C136.52 121.853 136.6 121.768 136.693 121.702C136.786 121.635 136.892 121.587 137.004 121.561C137.116 121.534 137.232 121.531 137.345 121.549C137.459 121.568 137.567 121.609 137.665 121.669C137.762 121.73 137.847 121.809 137.914 121.902C137.981 121.996 138.029 122.101 138.055 122.213C138.081 122.325 138.085 122.441 138.067 122.554C138.048 122.668 138.007 122.776 137.946 122.874C137.903 122.944 134.696 128.307 136.013 133.494C136.7 136.201 138.513 138.416 141.397 140.099C141.563 140.195 141.693 140.343 141.766 140.52C141.84 140.697 141.852 140.894 141.803 141.079C141.753 141.264 141.643 141.427 141.491 141.544C141.339 141.661 141.152 141.724 140.96 141.723L140.948 141.708Z" fill="white"/>
<path d="M91.8069 51.6768L64.0406 77.6554L38.1353 49.884C37.8857 49.6186 37.6454 49.3471 37.4082 49.0756C23.4388 33.0299 45.7732 11.0287 61.7021 25.115L65.7075 28.6574L69.873 25.4575C86.7263 12.5161 107.573 36.0693 92.4755 51.0381C92.2537 51.2541 92.0318 51.467 91.8069 51.6768Z" fill="#4EABD5"/>
<path d="M42.1885 49.0444C38.4116 43.3938 38.6636 36.1098 42.6279 31.2466C47.5449 25.2101 55.5351 26.1673 55.9991 26.229C54.6685 26.4791 48.7342 27.742 44.7238 33.3524C39.7576 40.2906 41.9057 48.0841 42.1885 49.0444Z" fill="white"/>
</svg>
