<svg width="15" height="16" viewBox="0 0 15 16" fill="none" xmlns="http://www.w3.org/2000/svg">
<path d="M6.5 2C6.5 1.03125 7.5 1.28125 7.5 0C7.875 0 8.5 0.9375 8.5 1.75C8.5 2.59375 8.03125 3 7.5 3C6.9375 3 6.5 2.5625 6.5 2ZM11.5 3C10.9375 3 10.5 2.5625 10.5 2C10.5 1.03125 11.5 1.28125 11.5 0C11.875 0 12.5 0.9375 12.5 1.75C12.5 2.59375 12.0312 3 11.5 3ZM14.5 8.5V16H0.5V8.5C0.5 7.6875 1.15625 7 2 7H2.75V3.5H4.25V7H6.75V3.5H8.25V7H10.75V3.5H12.25V7H13C13.8125 7 14.5 7.6875 14.5 8.5ZM2 8.6875V10.4688C2.25 10.6875 2.46875 10.875 2.8125 10.875C3.625 10.875 3.75 9.875 5.15625 9.875C6.53125 9.875 6.71875 10.875 7.5 10.875C8.28125 10.875 8.4375 9.875 9.8125 9.875C11.2188 9.875 11.375 10.875 12.1562 10.875C12.5 10.875 12.7188 10.6875 13 10.4688V8.71875C13 8.59375 12.9062 8.53125 12.8125 8.53125L2.1875 8.5C2.0625 8.5 2 8.59375 2 8.6875ZM13 14.5V12C12.75 12.0938 12.5 12.125 12.1562 12.125C10.75 12.125 10.625 11.125 9.8125 11.125C9.03125 11.125 8.875 12.125 7.5 12.125C6.125 12.125 5.9375 11.125 5.15625 11.125C4.34375 11.125 4.21875 12.125 2.8125 12.125C2.46875 12.125 2.21875 12.0938 2 12V14.5H13ZM3.5 3C2.9375 3 2.5 2.5625 2.5 2C2.5 1.03125 3.5 1.28125 3.5 0C3.875 0 4.5 0.9375 4.5 1.75C4.5 2.59375 4.03125 3 3.5 3Z" fill="#5B5C5B"/>
</svg>
