<svg width="20" height="16" viewBox="0 0 20 16" fill="none" xmlns="http://www.w3.org/2000/svg">
<path d="M7.625 12C7.8125 12 8 12.1875 8 12.375V13.625C8 13.8438 7.8125 14 7.625 14H6.375C6.15625 14 6 13.8438 6 13.625V12.375C6 12.1875 6.15625 12 6.375 12H7.625ZM7.625 6C7.8125 6 8 6.1875 8 6.375V7.625C8 7.84375 7.8125 8 7.625 8H6.375C6.15625 8 6 7.84375 6 7.625V6.375C6 6.1875 6.15625 6 6.375 6H7.625ZM4.625 6C4.8125 6 5 6.1875 5 6.375V7.625C5 7.84375 4.8125 8 4.625 8H3.375C3.15625 8 3 7.84375 3 7.625V6.375C3 6.1875 3.15625 6 3.375 6H4.625ZM4.625 12C4.8125 12 5 12.1875 5 12.375V13.625C5 13.8438 4.8125 14 4.625 14H3.375C3.15625 14 3 13.8438 3 13.625V12.375C3 12.1875 3.15625 12 3.375 12H4.625ZM4.625 9C4.8125 9 5 9.1875 5 9.375V10.625C5 10.8438 4.8125 11 4.625 11H3.375C3.15625 11 3 10.8438 3 10.625V9.375C3 9.1875 3.15625 9 3.375 9H4.625ZM7.625 9C7.8125 9 8 9.1875 8 9.375V10.625C8 10.8438 7.8125 11 7.625 11H6.375C6.15625 11 6 10.8438 6 10.625V9.375C6 9.1875 6.15625 9 6.375 9H7.625ZM16.625 12C16.8125 12 17 12.1875 17 12.375V13.625C17 13.8438 16.8125 14 16.625 14H15.375C15.1562 14 15 13.8438 15 13.625V12.375C15 12.1875 15.1562 12 15.375 12H16.625ZM16.625 9C16.8125 9 17 9.1875 17 9.375V10.625C17 10.8438 16.8125 11 16.625 11H15.375C15.1562 11 15 10.8438 15 10.625V9.375C15 9.1875 15.1562 9 15.375 9H16.625ZM19.25 6C19.6562 6 20 6.34375 20 6.75V15.5C20 15.7812 19.75 16 19.5 16H19C18.7188 16 18.5 15.7812 18.5 15.5V7.5H14.5V1.5H9.5V4.5H1.5V15.5C1.5 15.7812 1.25 16 1 16H0.5C0.21875 16 0 15.7812 0 15.5V3.75C0 3.34375 0.3125 3 0.75 3H2V0.5C2 0.25 2.21875 0 2.5 0H3C3.25 0 3.5 0.25 3.5 0.5V3H5.5V0.5C5.5 0.25 5.71875 0 6 0H6.5C6.75 0 7 0.25 7 0.5V3H8V0.75C8 0.34375 8.3125 0 8.75 0H15.25C15.6562 0 16 0.34375 16 0.75V6H19.25ZM12.625 3C12.8125 3 13 3.1875 13 3.375V4.625C13 4.84375 12.8125 5 12.625 5H11.375C11.1562 5 11 4.84375 11 4.625V3.375C11 3.1875 11.1562 3 11.375 3H12.625ZM12.625 9C12.8125 9 13 9.1875 13 9.375V10.625C13 10.8438 12.8125 11 12.625 11H11.375C11.1562 11 11 10.8438 11 10.625V9.375C11 9.1875 11.1562 9 11.375 9H12.625ZM12.625 6C12.8125 6 13 6.1875 13 6.375V7.625C13 7.84375 12.8125 8 12.625 8H11.375C11.1562 8 11 7.84375 11 7.625V6.375C11 6.1875 11.1562 6 11.375 6H12.625Z" fill="#5B5C5B"/>
</svg>
