<svg width="16" height="16" viewBox="0 0 16 16" fill="none" xmlns="http://www.w3.org/2000/svg">
<path d="M14.75 0C15.4062 0 16 0.40625 16 1.0625V11.25C16 11.6875 15.7188 12.0625 15.2812 12.2188C13.75 12.8125 12.5 13 11.4062 13C8.875 13 7.09375 11.9375 4.5625 11.9375C3.65625 11.9375 2.65625 12.0938 1.5 12.4688V15.625C1.5 15.8438 1.3125 16 1.125 16H0.375C0.15625 16 0 15.8438 0 15.625V0.75C0 0.34375 0.3125 0 0.75 0C1.09375 0 1.375 0.25 1.4375 0.59375C2.78125 0.1875 3.84375 0.03125 4.71875 0.03125C7.09375 0.03125 8.3125 1.09375 10.375 1.09375C11.3438 1.09375 12.5 0.875 14.0938 0.15625C14.3125 0.0625 14.5312 0 14.75 0ZM5.5 1.25C5.21875 1.25 5 1.5 5 1.75C5 2.03125 5.21875 2.25 5.5 2.25C5.75 2.25 6 2.03125 6 1.75C6 1.5 5.75 1.25 5.5 1.25ZM5.5 3C5.21875 3 5 3.25 5 3.5C5 3.78125 5.21875 4 5.5 4C5.75 4 6 3.78125 6 3.5C6 3.25 5.75 3 5.5 3ZM3.25 1.25C2.96875 1.25 2.75 1.5 2.75 1.75C2.75 2.03125 2.96875 2.25 3.25 2.25C3.5 2.25 3.75 2.03125 3.75 1.75C3.75 1.5 3.5 1.25 3.25 1.25ZM3.25 3C2.96875 3 2.75 3.25 2.75 3.5C2.75 3.78125 2.96875 4 3.25 4C3.5 4 3.75 3.78125 3.75 3.5C3.75 3.25 3.5 3 3.25 3ZM14.5 10.9375V8.9375C11.3438 9.9375 9.5 9.40625 7.8125 9C6.0625 8.5625 4.375 8.125 1.5 9.15625V10.875C4.21875 10.125 6.0625 10.4375 8.34375 11.0312C10.5625 11.5625 12.0312 11.8125 14.5 10.9375ZM14.5 7.375V5.4375C11.3438 6.4375 9.5 5.90625 7.8125 5.5C6.0625 5.03125 4.375 4.625 1.5 5.65625V7.5625C4.5 6.625 6.375 7.09375 8.15625 7.53125C9.9375 7.96875 11.5938 8.375 14.5 7.375ZM14.5 3.875V1.625C12.9375 2.28125 11.625 2.59375 10.375 2.59375C9.4375 2.59375 8.6875 2.4375 8 2.21875V4C9.78125 4.4375 11.4688 4.9375 14.5 3.875Z" fill="#5B5C5B"/>
</svg>
