<svg width="20" height="12" viewBox="0 0 20 12" fill="none" xmlns="http://www.w3.org/2000/svg">
<path d="M17.5 4C17.75 4 18 4.25 18 4.5C18 4.78125 17.75 5 17.5 5H17.125C16.875 5.78125 16.375 6.59375 15.7188 7.34375C16.0312 7.625 16.3438 7.90625 16.6875 8.09375C16.8438 8.21875 16.9062 8.4375 16.8125 8.59375L16.6875 8.8125C16.5625 9 16.3438 9.0625 16.1562 8.96875C15.75 8.6875 15.3438 8.375 15 8.0625C14.625 8.375 14.25 8.6875 13.8125 8.96875C13.625 9.0625 13.4062 9 13.2812 8.8125L13.1562 8.625C13.0625 8.4375 13.125 8.21875 13.2812 8.09375C13.6562 7.875 14 7.625 14.3125 7.34375C14 7 13.7188 6.65625 13.5 6.3125C13.375 6.125 13.4375 5.90625 13.625 5.78125L13.8438 5.65625C14 5.5625 14.2188 5.59375 14.3438 5.78125C14.5312 6.0625 14.7812 6.34375 15 6.625C15.5 6.125 15.8438 5.5625 16.0625 5.03125H12.5C12.2188 5.03125 12 4.78125 12 4.5C12 4.25 12.2188 4 12.5 4H14.5V3.5C14.5 3.25 14.7188 3 15 3C15.25 3 15.5 3.25 15.5 3.5V4.03125L17.5 4ZM18 0C19.0938 0 20 0.90625 20 2V10C20 11.0938 19.0938 12 18 12H2C0.875 12 0 11.0938 0 10V2C0 0.875 0.875 0 2 0H18ZM9.5 11V1H2C1.4375 1 1 1.46875 1 2V10C1 10.5625 1.4375 11 2 11H9.5ZM19 10V2C19 1.46875 18.5312 1 18 1H10.5V11H18C18.5312 11 19 10.5625 19 10ZM2.25 8.96875C2 8.84375 1.90625 8.53125 2.03125 8.28125L4.53125 3.28125C4.71875 2.96875 5.25 2.96875 5.4375 3.28125L7.9375 8.28125C8.0625 8.53125 7.96875 8.84375 7.71875 8.96875C7.625 9 7.5625 9 7.5 9C7.3125 9 7.125 8.90625 7.03125 8.75L6.4375 7.5H3.53125L2.9375 8.75C2.8125 9 2.5 9.09375 2.25 8.96875ZM5 4.625L4.03125 6.5H5.9375L5 4.625Z" fill="#757575"/>
</svg>
