<svg width="11" height="15" viewBox="0 0 11 15" fill="none" xmlns="http://www.w3.org/2000/svg">
<path d="M5.25 0.75C8.14844 0.75 10.5 3.10156 10.5 6C10.5 8.13281 9.76172 8.70703 5.76953 14.4766C5.63281 14.668 5.44141 14.75 5.25 14.75C5.03125 14.75 4.83984 14.668 4.70312 14.4766C0.710938 8.73438 0 8.13281 0 6C0 3.10156 2.32422 0.75 5.25 0.75ZM5.25 12.9453C5.71484 12.2617 6.15234 11.6328 6.53516 11.1133C8.91406 7.72266 9.1875 7.28516 9.1875 6C9.1875 3.83984 7.41016 2.0625 5.25 2.0625C3.0625 2.0625 1.3125 3.83984 1.3125 6C1.3125 7.28516 1.55859 7.72266 3.9375 11.1133C4.32031 11.6328 4.75781 12.2617 5.25 12.9453ZM5.25 3.8125C6.45312 3.8125 7.4375 4.76953 7.4375 6C7.4375 7.20312 6.45312 8.1875 5.25 8.1875C4.01953 8.1875 3.0625 7.20312 3.0625 6C3.0625 4.76953 4.01953 3.8125 5.25 3.8125ZM5.25 6.875C5.71484 6.875 6.125 6.49219 6.125 6C6.125 5.53516 5.71484 5.125 5.25 5.125C4.75781 5.125 4.375 5.53516 4.375 6C4.375 6.49219 4.75781 6.875 5.25 6.875Z" fill="#5B5C5B"/>
</svg>
