<svg width="16" height="12" viewBox="0 0 16 12" fill="none" xmlns="http://www.w3.org/2000/svg">
<path d="M14.5 0C15.3125 0 16 0.6875 16 1.5V10.5C16 11.3438 15.3125 12 14.5 12H1.5C0.65625 12 0 11.3438 0 10.5V1.5C0 0.6875 0.65625 0 1.5 0H14.5ZM14.5 1.5H1.5V2.78125C2.1875 3.375 3.3125 4.25 5.6875 6.125C6.21875 6.53125 7.25 7.53125 8 7.5C8.71875 7.53125 9.75 6.53125 10.2812 6.125C12.6562 4.25 13.7812 3.375 14.5 2.78125V1.5ZM1.5 10.5H14.5V4.71875C13.7812 5.28125 12.75 6.09375 11.2188 7.3125C10.5 7.84375 9.3125 9.03125 8 9C6.65625 9.03125 5.4375 7.84375 4.75 7.3125C3.21875 6.09375 2.1875 5.28125 1.5 4.71875V10.5Z" fill="#757575"/>
</svg>
