<svg width="18" height="17" viewBox="0 0 18 17" fill="none" xmlns="http://www.w3.org/2000/svg">
<path d="M10.75 3.9375C10.75 4.375 10.4062 4.6875 10 4.6875C9.5625 4.6875 9.25 4.375 9.25 3.9375C9.25 3.53125 9.5625 3.1875 10 3.1875C10.4062 3.1875 10.75 3.53125 10.75 3.9375ZM10 11C9.84375 11 9.6875 10.9375 9.5625 10.8125C8.46875 9.5625 5.59375 6.125 5.59375 4.25C5.59375 1.90625 7.5625 0 10 0C12.4062 0 14.375 1.90625 14.375 4.25C14.375 6.125 11.5 9.5625 10.4062 10.8125C10.3125 10.9375 10.1562 11 10 11ZM10 1.5C8.375 1.5 7.09375 2.75 7.09375 4.25C7.09375 4.90625 8.09375 6.71875 10 9C11.9062 6.71875 12.875 4.90625 12.875 4.25C12.875 2.75 11.5938 1.5 10 1.5ZM17.5 5C17.75 5 18 5.21875 18 5.5V13.3438C18 13.75 17.75 14.125 17.3438 14.25L12.625 15.9062C12.2188 16.0625 11.7812 16.0312 11.375 15.9062L6 14L0.6875 15.9688C0.625 16 0.5625 16 0.5 16C0.21875 16 0 15.8125 0 15.5V7.6875C0 7.28125 0.25 6.90625 0.625 6.75L4.78125 5.3125C4.90625 5.75 5.09375 6.21875 5.34375 6.6875L1.5 8.03125V14.0625L5.46875 12.5938H5.5V6.96875C5.90625 7.71875 6.40625 8.5 7 9.25V12.7812L11 14.1875V11.6562C11.0312 11.5938 11.0938 11.5312 11.1562 11.5C11.625 10.9688 12.0625 10.4375 12.5 9.90625V14.375L16.5 12.9688V6.9375L13.9375 7.90625C14.375 7.21875 14.75 6.53125 15 5.90625L17.3125 5.0625C17.375 5.03125 17.4375 5 17.5 5Z" fill="#5B5C5B"/>
</svg>
