<svg width="16" height="17" viewBox="0 0 16 17" fill="none" xmlns="http://www.w3.org/2000/svg">
<path d="M10.9688 5.03125C13.7812 5.28125 16 7.625 16 10.5C16 10.5312 16 10.5312 16 10.5312C16 13.5625 13.5312 16.0312 10.5 16.0312C8.75 16.0312 7.21875 15.2188 6.1875 13.9688C5.96875 14 5.71875 14 5.5 14C2.4375 14 0 11.5625 0 8.5C0 5.96875 1.71875 3.8125 4.09375 3.1875L3 1L4 0H7L8 1L6.90625 3.1875C9.25 3.8125 11 5.96875 11 8.5C11 8.53125 11 8.5 11 8.53125C11 10.1562 10.2812 11.625 9.15625 12.625C8.5625 12.25 8.125 11.625 8.03125 10.9062C8.625 10.2812 8.96875 9.4375 9 8.5C9 8.15625 8.90625 7.8125 8.8125 7.46875C7.71875 8.0625 7 9.1875 7 10.5C7 10.5312 7 10.5312 7 10.5312C7 12.4375 8.5625 14.0312 10.5 14.0312C12.4062 14.0312 14 12.4375 14 10.5312C14 9.0625 13.0938 7.84375 11.8438 7.28125C11.6875 6.46875 11.375 5.71875 10.9688 5.03125ZM2 8.5C2 10.3438 3.40625 11.8438 5.1875 11.9688C5.0625 11.5312 5 11.0312 5 10.5C5 8.5 6.0625 6.78125 7.6875 5.8125C7.09375 5.3125 6.3125 5 5.5 5C3.5625 5.03125 2 6.59375 2 8.5Z" fill="#757575"/>
</svg>
