<svg width="11" height="17" viewBox="0 0 11 17" fill="none" xmlns="http://www.w3.org/2000/svg">
<path d="M6.48633 13.5C6.48633 14.0625 6.01758 14.5 5.48633 14.5C4.92383 14.5 4.48633 14.0625 4.48633 13.5C4.48633 12.9688 4.92383 12.5 5.48633 12.5C6.01758 12.5 6.48633 12.9688 6.48633 13.5ZM7.98633 11.625C7.98633 11.8438 7.79883 12 7.61133 12H3.36133C3.14258 12 2.98633 11.8438 2.98633 11.625V3.375C2.98633 3.1875 3.14258 3 3.36133 3H7.61133C7.79883 3 7.98633 3.1875 7.98633 3.375V11.625ZM10.4863 2V15C10.4863 15.8438 9.79883 16.5 8.98633 16.5H1.98633C1.14258 16.5 0.486328 15.8438 0.486328 15V2C0.486328 1.1875 1.14258 0.5 1.98633 0.5H8.98633C9.79883 0.5 10.4863 1.1875 10.4863 2ZM8.98633 14.8125V2.1875C8.98633 2.09375 8.89258 2 8.79883 2H2.17383C2.04883 2 1.98633 2.09375 1.98633 2.1875V14.8125C1.98633 14.9375 2.04883 15 2.17383 15H8.79883C8.89258 15 8.98633 14.9375 8.98633 14.8125Z" fill="#5B5C5B"/>
</svg>
