<svg width="19" height="16" viewBox="0 0 19 16" fill="none" xmlns="http://www.w3.org/2000/svg">
<path d="M16.4863 5.40625C17.5801 5.40625 18.4863 6.25 18.4863 7.28125V10.5625C18.4863 11.0938 18.0176 11.5 17.4863 11.5V14.3125C17.4863 14.8438 17.0176 15.25 16.4863 15.25H13.4863C12.9238 15.25 12.4863 14.8438 12.4863 14.3125V12.3125C12.5801 12.25 12.7051 12.1875 12.7988 12.0938L13.9238 11.0938L13.9863 11.0625V13.8438H15.9863V10.0938H16.9863V7.28125C16.9863 7.03125 16.7363 6.8125 16.4863 6.8125H13.4863C13.4551 6.8125 13.4551 6.84375 13.4551 6.84375L12.7988 6.25C12.6113 6.09375 12.3613 5.96875 12.1113 5.90625C12.4863 5.625 12.9551 5.40625 13.4551 5.40625C13.4551 5.40625 13.4551 5.40625 13.4863 5.40625H16.4863ZM14.9863 4.9375C13.5801 4.9375 12.4863 3.90625 12.4863 2.59375C12.4863 1.3125 13.5801 0.25 14.9863 0.25C16.3613 0.25 17.4863 1.3125 17.4863 2.59375C17.4863 3.90625 16.3613 4.9375 14.9863 4.9375ZM14.9863 1.65625C14.4238 1.65625 13.9863 2.09375 13.9863 2.59375C13.9863 3.125 14.4238 3.53125 14.9863 3.53125C15.5176 3.53125 15.9863 3.125 15.9863 2.59375C15.9863 2.09375 15.5176 1.65625 14.9863 1.65625ZM5.01758 11.0938L6.14258 12.0938C6.23633 12.1875 6.36133 12.25 6.48633 12.3125V14.3125C6.48633 14.8438 6.01758 15.25 5.48633 15.25H2.48633C1.92383 15.25 1.48633 14.8438 1.48633 14.3125V11.5C0.923828 11.5 0.486328 11.0938 0.486328 10.5625V7.28125C0.486328 6.25 1.36133 5.40625 2.48633 5.40625H5.48633V5.4375C5.98633 5.4375 6.45508 5.625 6.83008 5.90625C6.58008 5.96875 6.33008 6.09375 6.14258 6.25L5.48633 6.84375V6.8125H2.48633C2.20508 6.8125 1.98633 7.03125 1.98633 7.28125V10.0938H2.98633V13.8438H4.98633V11.0625L5.01758 11.0938ZM3.98633 4.9375C2.58008 4.9375 1.48633 3.90625 1.48633 2.59375C1.48633 1.3125 2.58008 0.25 3.98633 0.25C5.36133 0.25 6.48633 1.3125 6.48633 2.59375C6.48633 3.90625 5.36133 4.9375 3.98633 4.9375ZM3.98633 1.65625C3.42383 1.65625 2.98633 2.09375 2.98633 2.59375C2.98633 3.125 3.42383 3.53125 3.98633 3.53125C4.51758 3.53125 4.98633 3.125 4.98633 2.59375C4.98633 2.09375 4.51758 1.65625 3.98633 1.65625ZM14.3613 8.90625C14.4238 8.96875 14.4551 9.0625 14.4551 9.1875C14.4551 9.28125 14.4238 9.375 14.3613 9.4375L12.1113 11.4375C12.0488 11.4688 11.9551 11.5312 11.8301 11.5312C11.7988 11.5312 11.7363 11.5 11.7051 11.5C11.5801 11.4375 11.4863 11.3125 11.4863 11.1562V10.0938H7.48633V11.1562C7.45508 11.3125 7.36133 11.4375 7.23633 11.5C7.20508 11.5 7.14258 11.5312 7.08008 11.5312C6.98633 11.5312 6.89258 11.4688 6.83008 11.4375L4.58008 9.4375C4.51758 9.375 4.45508 9.28125 4.45508 9.1875C4.45508 9.0625 4.51758 8.96875 4.58008 8.90625L6.83008 6.9375C6.89258 6.875 6.98633 6.84375 7.11133 6.84375C7.14258 6.84375 7.20508 6.84375 7.23633 6.84375C7.36133 6.90625 7.45508 7.03125 7.48633 7.1875V8.21875H11.4863V7.1875C11.4863 7.03125 11.5801 6.90625 11.7051 6.84375C11.7363 6.84375 11.7988 6.84375 11.8613 6.84375C11.9551 6.84375 12.0488 6.875 12.1113 6.9375L14.3613 8.90625Z" fill="#5B5C5B"/>
</svg>
