<svg width="17" height="16" viewBox="0 0 17 16" fill="none" xmlns="http://www.w3.org/2000/svg">
<path fill-rule="evenodd" clip-rule="evenodd" d="M8.2907 0C3.98634 0 0.5 3.58 0.5 8C0.5 12.42 3.98634 16 8.2907 16C12.5951 16 16.0814 12.42 16.0814 8C16.0814 3.58 12.5951 0 8.2907 0ZM8.29033 2.40039C9.57969 2.40039 10.6275 3.47639 10.6275 4.80039C10.6275 6.12839 9.57969 7.20039 8.29033 7.20039C7.00097 7.20039 5.95312 6.12839 5.95312 4.80039C5.95312 3.47639 7.00097 2.40039 8.29033 2.40039ZM3.61621 11.1837C4.62511 12.7357 6.33906 13.7597 8.29063 13.7597C10.2422 13.7597 11.9562 12.7357 12.965 11.1837C12.9417 9.59573 9.84487 8.71973 8.29063 8.71973C6.73639 8.71973 3.63569 9.59573 3.61621 11.1837Z" fill="#055293"/>
</svg>
