<svg width="15" height="13" viewBox="0 0 15 13" fill="none" xmlns="http://www.w3.org/2000/svg">
<path d="M11.1172 5.02734L13.9883 10.0586C14.0703 10.1953 14.0977 10.332 14.125 10.4961V12C14.125 12.4922 13.7148 12.875 13.25 12.875H2.75C2.25781 12.875 1.875 12.4922 1.875 12V10.4961C1.875 10.332 1.90234 10.1953 1.98438 10.0586L4.85547 5.02734C5.15625 4.48047 5.73047 4.125 6.38672 4.125H9.58594C10.2422 4.125 10.8164 4.48047 11.1172 5.02734ZM12.8125 11.5625V10.6055L9.96875 5.68359C9.88672 5.54688 9.75 5.4375 9.58594 5.4375H6.38672C6.22266 5.4375 6.08594 5.54688 6.00391 5.68359L3.1875 10.6055V11.5625H12.8125ZM8 6.75C8.95703 6.75 9.75 7.54297 9.75 8.5C9.75 9.48438 8.95703 10.25 8 10.25C7.01562 10.25 6.25 9.48438 6.25 8.5C6.25 7.54297 7.01562 6.75 8 6.75ZM14.8359 3.11328C14.918 3.22266 15 3.33203 15 3.46875V5C15 5.24609 14.7812 5.4375 14.5625 5.4375H12.6211C12.457 5.4375 12.3203 5.35547 12.2383 5.21875L11.5 3.25C10.4062 2.78516 9.20312 2.59375 8 2.59375C6.76953 2.59375 5.56641 2.78516 4.5 3.25L3.73438 5.21875C3.65234 5.35547 3.51562 5.4375 3.35156 5.4375H1.4375C1.19141 5.4375 1 5.24609 1 5V3.46875H0.972656C0.972656 3.33203 1.05469 3.22266 1.13672 3.11328C3.05078 1.52734 5.48438 0.625 8 0.625C10.4883 0.625 12.9219 1.52734 14.8359 3.11328Z" fill="#5B5C5B"/>
</svg>
