<svg width="18" height="16" viewBox="0 0 18 16" fill="none" xmlns="http://www.w3.org/2000/svg">
<path d="M9 6.5C9 8.75 7.375 10.5938 5.25 10.9375V12.75H6.625C6.8125 12.75 7 12.9375 7 13.125V13.875C7 14.0938 6.8125 14.25 6.625 14.25H5.25V15.625C5.25 15.8438 5.0625 16 4.875 16H4.125C3.90625 16 3.75 15.8438 3.75 15.625V14.25H2.375C2.15625 14.25 2 14.0938 2 13.875V13.125C2 12.9375 2.15625 12.75 2.375 12.75H3.75V10.9375C1.59375 10.5938 0 8.75 0 6.5C0 4.03125 2 2 4.5 2C6.96875 2 9 4.03125 9 6.5ZM1.5 6.5C1.5 8.15625 2.84375 9.5 4.5 9.5C6.125 9.5 7.5 8.15625 7.5 6.5C7.5 4.875 6.125 3.5 4.5 3.5C2.84375 3.5 1.5 4.875 1.5 6.5ZM18 0.375V2.34375C18 2.6875 17.5938 2.84375 17.3438 2.625L16.9062 2.15625L15.1562 3.90625C15.6875 4.65625 16 5.53125 16 6.5C16 9 13.9688 11 11.5 11C10.4375 11 9.46875 10.6562 8.6875 10.0625C9.03125 9.65625 9.28125 9.21875 9.5 8.78125C10.0312 9.21875 10.7188 9.53125 11.5 9.53125C13.125 9.53125 14.5 8.15625 14.5 6.53125C14.5 4.875 13.125 3.53125 11.5 3.53125C10.7188 3.53125 10.0312 3.8125 9.5 4.28125C9.28125 3.8125 9.03125 3.375 8.6875 3C9.46875 2.375 10.4375 2 11.5 2C12.4688 2 13.3438 2.3125 14.0938 2.84375L15.8438 1.09375L15.375 0.65625C15.125 0.40625 15.3125 0 15.6562 0H17.625C17.8125 0 18 0.1875 18 0.375Z" fill="#5B5C5B"/>
</svg>
