<svg width="15" height="16" viewBox="0 0 15 16" fill="none" xmlns="http://www.w3.org/2000/svg">
<path d="M7.48633 8C9.67383 8 11.4863 6.21875 11.4863 4C11.4863 1.8125 9.67383 0 7.48633 0C5.26758 0 3.48633 1.8125 3.48633 4C3.48633 6.21875 5.26758 8 7.48633 8ZM10.2676 9H9.73633C9.04883 9.34375 8.29883 9.5 7.48633 9.5C6.67383 9.5 5.89258 9.34375 5.20508 9H4.67383C2.36133 9 0.486328 10.9062 0.486328 13.2188V14.5C0.486328 15.3438 1.14258 16 1.98633 16H12.9863C13.7988 16 14.4863 15.3438 14.4863 14.5V13.2188C14.4863 10.9062 12.5801 9 10.2676 9Z" fill="#055293"/>
</svg>
