<svg width="52" height="46" viewBox="0 0 52 46" fill="none" xmlns="http://www.w3.org/2000/svg">
<rect x="46.0791" y="4.51953" width="27.9991" height="39.1987" rx="5" transform="rotate(90 46.0791 4.51953)" fill="url(#paint0_linear_2_20426)"/>
<g filter="url(#filter0_d_2_20426)">
<mask id="path-2-inside-1_2_20426" fill="white">
<path d="M40.0892 9.08799C42.8506 9.09186 45.086 11.3336 45.0821 14.095L45.0569 32.094C45.053 34.8555 42.8113 37.0909 40.0499 37.087L10.8512 37.0461C8.08981 37.0422 5.85438 34.8005 5.85825 32.0391L5.88349 14.04C5.88736 11.2786 8.12907 9.04318 10.8905 9.04705L40.0892 9.08799Z"/>
</mask>
<path d="M5.88349 14.04L5.38349 14.0393L5.88349 14.04ZM10.8905 9.04705L10.8912 8.54705L10.8905 9.04705ZM10.8512 37.0461L10.8519 36.5461L10.8512 37.0461ZM5.85825 32.0391L6.35825 32.0398L5.85825 32.0391ZM45.0569 32.094L45.5569 32.0947L45.0569 32.094ZM40.0499 37.087L40.0492 37.587L40.0499 37.087ZM45.0821 14.095L44.5821 14.0943L45.0821 14.095ZM40.0892 9.08799L40.0885 9.58799L40.0892 9.08799ZM44.5821 14.0943L44.5569 32.0933L45.5569 32.0947L45.5821 14.0957L44.5821 14.0943ZM40.0506 36.587L10.8519 36.5461L10.8505 37.5461L40.0492 37.587L40.0506 36.587ZM6.35825 32.0398L6.38349 14.0407L5.38349 14.0393L5.35825 32.0384L6.35825 32.0398ZM10.8898 9.54705L40.0885 9.58799L40.0899 8.58799L10.8912 8.54705L10.8898 9.54705ZM6.38349 14.0407C6.38697 11.5555 8.40451 9.54357 10.8898 9.54705L10.8912 8.54705C7.85363 8.54279 5.38775 11.0018 5.38349 14.0393L6.38349 14.0407ZM10.8519 36.5461C8.36665 36.5426 6.35477 34.5251 6.35825 32.0398L5.35825 32.0384C5.35399 35.0759 7.81296 37.5418 10.8505 37.5461L10.8519 36.5461ZM44.5569 32.0933C44.5534 34.5786 42.5359 36.5905 40.0506 36.587L40.0492 37.587C43.0868 37.5913 45.5526 35.1323 45.5569 32.0947L44.5569 32.0933ZM45.5821 14.0957C45.5864 11.0581 43.1274 8.59225 40.0899 8.58799L40.0885 9.58799C42.5737 9.59148 44.5856 11.609 44.5821 14.0943L45.5821 14.0957Z" fill="url(#paint1_linear_2_20426)" style="mix-blend-mode:overlay" mask="url(#path-2-inside-1_2_20426)"/>
<g filter="url(#filter1_bd_2_20426)">
<path fill-rule="evenodd" clip-rule="evenodd" d="M45.8692 14.0452C45.8731 11.2838 43.6377 9.04206 40.8763 9.03819L11.6776 8.99725C8.91618 8.99338 6.67447 11.2288 6.6706 13.9902L6.64536 31.9893C6.64149 34.7507 8.87692 36.9924 11.6383 36.9963L40.837 37.0372C43.5984 37.0411 45.8401 34.8057 45.844 32.0442L45.8692 14.0452ZM24.419 18.1106C24.419 20.6419 22.3799 22.6106 19.919 22.6106C17.3877 22.6106 15.419 20.6419 15.419 18.1106C15.419 15.6497 17.3877 13.6106 19.919 13.6106C22.3799 13.6106 24.419 15.6497 24.419 18.1106ZM31.169 20.9231L37.919 20.9231C38.833 20.9231 39.6065 21.6966 39.6065 22.6106C39.6065 23.595 38.833 24.2981 37.919 24.2981L31.169 24.2981C30.1846 24.2981 29.4815 23.595 29.4815 22.6106C29.4815 21.6966 30.1846 20.9231 31.169 20.9231ZM17.669 24.8606L22.169 24.8606C25.2627 24.8606 27.794 27.3919 27.794 30.4856C27.794 31.1184 27.2315 31.6106 26.669 31.6106L13.169 31.6106C12.5362 31.6106 12.044 31.1184 12.044 30.4856C12.044 27.3919 14.5049 24.8606 17.669 24.8606ZM31.169 15.2981L37.919 15.2981C38.833 15.2981 39.6065 16.0716 39.6065 16.9856C39.6065 17.97 38.833 18.6731 37.919 18.6731L31.169 18.6731C30.1846 18.6731 29.4815 17.97 29.4815 16.9856C29.4815 16.0716 30.1846 15.2981 31.169 15.2981Z" fill="#D9D9D9" fill-opacity="0.5" shape-rendering="crispEdges"/>
</g>
</g>
<defs>
<filter id="filter0_d_2_20426" x="1.8584" y="8.99707" width="48.0107" height="36.0898" filterUnits="userSpaceOnUse" color-interpolation-filters="sRGB">
<feFlood flood-opacity="0" result="BackgroundImageFix"/>
<feColorMatrix in="SourceAlpha" type="matrix" values="0 0 0 0 0 0 0 0 0 0 0 0 0 0 0 0 0 0 127 0" result="hardAlpha"/>
<feOffset dy="4"/>
<feGaussianBlur stdDeviation="2"/>
<feComposite in2="hardAlpha" operator="out"/>
<feColorMatrix type="matrix" values="0 0 0 0 0 0 0 0 0 0 0 0 0 0 0 0 0 0 0.2 0"/>
<feBlend mode="normal" in2="BackgroundImageFix" result="effect1_dropShadow_2_20426"/>
<feBlend mode="normal" in="SourceGraphic" in2="effect1_dropShadow_2_20426" result="shape"/>
</filter>
<filter id="filter1_bd_2_20426" x="2.64551" y="4.99707" width="47.2236" height="36.04" filterUnits="userSpaceOnUse" color-interpolation-filters="sRGB">
<feFlood flood-opacity="0" result="BackgroundImageFix"/>
<feGaussianBlur in="BackgroundImage" stdDeviation="2"/>
<feComposite in2="SourceAlpha" operator="in" result="effect1_backgroundBlur_2_20426"/>
<feColorMatrix in="SourceAlpha" type="matrix" values="0 0 0 0 0 0 0 0 0 0 0 0 0 0 0 0 0 0 127 0" result="hardAlpha"/>
<feOffset dy="-1"/>
<feGaussianBlur stdDeviation="1"/>
<feComposite in2="hardAlpha" operator="out"/>
<feColorMatrix type="matrix" values="0 0 0 0 0 0 0 0 0 0 0 0 0 0 0 0 0 0 0.2 0"/>
<feBlend mode="normal" in2="effect1_backgroundBlur_2_20426" result="effect2_dropShadow_2_20426"/>
<feBlend mode="normal" in="SourceGraphic" in2="effect2_dropShadow_2_20426" result="shape"/>
</filter>
<linearGradient id="paint0_linear_2_20426" x1="52.3789" y1="14.6822" x2="68.6012" y2="20.1232" gradientUnits="userSpaceOnUse">
<stop stop-color="#4AC0AF"/>
<stop offset="1" stop-color="#0069A7"/>
</linearGradient>
<linearGradient id="paint1_linear_2_20426" x1="35.5595" y1="23.0413" x2="11.1749" y2="38.8437" gradientUnits="userSpaceOnUse">
<stop stop-color="white"/>
<stop offset="1"/>
</linearGradient>
</defs>
</svg>
