<svg width="36" height="36" viewBox="0 0 36 36" fill="none" xmlns="http://www.w3.org/2000/svg">
<rect width="36" height="36" rx="18" fill="#E5E5E5"/>
<path d="M14.25 24.75H11.75C11.0469 24.75 10.5 24.2031 10.5 23.5V13.5C10.5 12.8359 11.0469 12.25 11.75 12.25H14.25C14.9141 12.25 15.5 11.7031 15.5 11C15.5 10.3359 14.9141 9.75 14.25 9.75H11.75C9.64062 9.75 8 11.4297 8 13.5V23.5C8 25.6094 9.64062 27.25 11.75 27.25H14.25C14.9141 27.25 15.5 26.7031 15.5 26C15.5 25.3359 14.9141 24.75 14.25 24.75ZM27.6094 17.6406L22.6094 12.6406C22.1406 12.1328 21.3203 12.1328 20.8516 12.6406C20.3438 13.1094 20.3438 13.9297 20.8516 14.3984L23.7031 17.25H15.5C14.7969 17.25 14.25 17.8359 14.25 18.5C14.25 19.2031 14.7969 19.75 15.5 19.75H23.7031L20.8516 22.6406C20.3438 23.1094 20.3438 23.9297 20.8516 24.3984C21.3203 24.9062 22.1406 24.9062 22.6094 24.3984L27.6094 19.3984C28.1172 18.9297 28.1172 18.1094 27.6094 17.6406Z" fill="#055293"/>
</svg>
