<svg width="44" height="48" viewBox="0 0 44 48" fill="none" xmlns="http://www.w3.org/2000/svg">
<circle cx="21.7124" cy="17.7124" r="17.7124" fill="url(#paint0_linear_2_20413)"/>
<g filter="url(#filter0_bd_2_20413)">
<path d="M22 3.5C12.0156 3.5 4 11.5859 4 21.5C4 31.4844 12.0156 39.5 22 39.5C31.9141 39.5 40 31.4844 40 21.5C40 11.5859 31.9141 3.5 22 3.5ZM22 12.5C24.7422 12.5 27.0625 14.8203 27.0625 17.5625C27.0625 20.375 24.7422 22.625 22 22.625C19.1875 22.625 16.9375 20.375 16.9375 17.5625C16.9375 14.8203 19.1875 12.5 22 12.5ZM22 35C18.2734 35 14.8984 33.5234 12.4375 31.0625C13.5625 28.1094 16.375 26 19.75 26H24.25C27.5547 26 30.3672 28.1094 31.4922 31.0625C29.0312 33.5234 25.6562 35 22 35Z" fill="url(#paint1_radial_2_20413)" fill-opacity="0.9" shape-rendering="crispEdges"/>
<path d="M12.4375 31.0625L12.3441 31.0269L12.321 31.0874L12.3668 31.1332L12.4375 31.0625ZM31.4922 31.0625L31.5629 31.1332L31.6087 31.0874L31.5856 31.0269L31.4922 31.0625ZM22 3.4C11.9601 3.4 3.9 11.531 3.9 21.5H4.1C4.1 11.6409 12.0711 3.6 22 3.6V3.4ZM3.9 21.5C3.9 31.5396 11.9604 39.6 22 39.6V39.4C12.0709 39.4 4.1 31.4291 4.1 21.5H3.9ZM22 39.6C31.969 39.6 40.1 31.5399 40.1 21.5H39.9C39.9 31.4289 31.8591 39.4 22 39.4V39.6ZM40.1 21.5C40.1 11.5307 31.9693 3.4 22 3.4V3.6C31.8588 3.6 39.9 11.6412 39.9 21.5H40.1ZM22 12.6C24.687 12.6 26.9625 14.8755 26.9625 17.5625H27.1625C27.1625 14.7651 24.7974 12.4 22 12.4V12.6ZM26.9625 17.5625C26.9625 20.3189 24.6879 22.525 22 22.525V22.725C24.7965 22.725 27.1625 20.4311 27.1625 17.5625H26.9625ZM22 22.525C19.2427 22.525 17.0375 20.3198 17.0375 17.5625H16.8375C16.8375 20.4302 19.1323 22.725 22 22.725V22.525ZM17.0375 17.5625C17.0375 14.8746 19.2436 12.6 22 12.6V12.4C19.1314 12.4 16.8375 14.766 16.8375 17.5625H17.0375ZM22 34.9C18.3005 34.9 14.9508 33.4343 12.5082 30.9918L12.3668 31.1332C14.8461 33.6125 18.2464 35.1 22 35.1V34.9ZM12.5309 31.0981C13.6419 28.1818 16.4186 26.1 19.75 26.1V25.9C16.3314 25.9 13.4831 28.037 12.3441 31.0269L12.5309 31.0981ZM19.75 26.1H24.25V25.9H19.75V26.1ZM24.25 26.1C27.5106 26.1 30.2876 28.1813 31.3987 31.0981L31.5856 31.0269C30.4468 28.0375 27.5988 25.9 24.25 25.9V26.1ZM31.4215 30.9918C28.9787 33.4345 25.6289 34.9 22 34.9V35.1C25.6836 35.1 29.0838 33.6123 31.5629 31.1332L31.4215 30.9918Z" fill="white" fill-opacity="0.7"/>
</g>
<defs>
<filter id="filter0_bd_2_20413" x="0" y="-0.5" width="44" height="48" filterUnits="userSpaceOnUse" color-interpolation-filters="sRGB">
<feFlood flood-opacity="0" result="BackgroundImageFix"/>
<feGaussianBlur in="BackgroundImage" stdDeviation="2"/>
<feComposite in2="SourceAlpha" operator="in" result="effect1_backgroundBlur_2_20413"/>
<feColorMatrix in="SourceAlpha" type="matrix" values="0 0 0 0 0 0 0 0 0 0 0 0 0 0 0 0 0 0 127 0" result="hardAlpha"/>
<feOffset dy="4"/>
<feGaussianBlur stdDeviation="2"/>
<feComposite in2="hardAlpha" operator="out"/>
<feColorMatrix type="matrix" values="0 0 0 0 0 0 0 0 0 0 0 0 0 0 0 0 0 0 0.25 0"/>
<feBlend mode="normal" in2="effect1_backgroundBlur_2_20413" result="effect2_dropShadow_2_20413"/>
<feBlend mode="normal" in="SourceGraphic" in2="effect2_dropShadow_2_20413" result="shape"/>
</filter>
<linearGradient id="paint0_linear_2_20413" x1="11.9706" y1="9.18422" x2="37.982" y2="27.6803" gradientUnits="userSpaceOnUse">
<stop stop-color="#4AC0AF"/>
<stop offset="1" stop-color="#0069A7"/>
</linearGradient>
<radialGradient id="paint1_radial_2_20413" cx="0" cy="0" r="1" gradientUnits="userSpaceOnUse" gradientTransform="translate(22.5 8) rotate(91.9749) scale(29.0172 29.8707)">
<stop stop-color="white" stop-opacity="0.7"/>
<stop offset="1" stop-color="white" stop-opacity="0.1"/>
</radialGradient>
</defs>
</svg>
