<svg width="15" height="19" viewBox="0 0 15 19" fill="none" xmlns="http://www.w3.org/2000/svg">
<path d="M7.21875 10.5C6.56978 10.5 5.93539 10.3076 5.39579 9.94701C4.85619 9.58646 4.43562 9.074 4.18727 8.47443C3.93892 7.87486 3.87394 7.21511 4.00055 6.57861C4.12716 5.94211 4.43967 5.35745 4.89856 4.89856C5.35745 4.43967 5.94211 4.12716 6.57861 4.00055C7.21511 3.87394 7.87486 3.93892 8.47443 4.18727C9.074 4.43562 9.58646 4.85619 9.94701 5.39579C10.3076 5.93539 10.5 6.56978 10.5 7.21875C10.499 8.08867 10.1529 8.92267 9.5378 9.5378C8.92267 10.1529 8.08867 10.499 7.21875 10.5V10.5ZM7.21875 5.25C6.82937 5.25 6.44873 5.36547 6.12497 5.5818C5.80121 5.79813 5.54887 6.1056 5.39986 6.46534C5.25085 6.82509 5.21187 7.22094 5.28783 7.60284C5.3638 7.98474 5.5513 8.33553 5.82663 8.61087C6.10197 8.8862 6.45277 9.07371 6.83467 9.14967C7.21657 9.22564 7.61242 9.18665 7.97216 9.03764C8.3319 8.88863 8.63938 8.63629 8.85571 8.31253C9.07204 7.98877 9.1875 7.60813 9.1875 7.21875C9.18698 6.69677 8.97939 6.19631 8.61029 5.82721C8.24119 5.45811 7.74074 5.25052 7.21875 5.25V5.25Z" fill="#5B5C5B"/>
<path d="M7.21876 18.375L1.68263 11.846C1.60571 11.7479 1.52958 11.6493 1.45426 11.55C0.508589 10.3043 -0.00228453 8.78274 7.68002e-06 7.21875C7.68002e-06 5.30422 0.760553 3.4681 2.11433 2.11432C3.46811 0.760545 5.30423 0 7.21876 0C9.13329 0 10.9694 0.760545 12.3232 2.11432C13.677 3.4681 14.4375 5.30422 14.4375 7.21875C14.4398 8.78203 13.9292 10.3029 12.9839 11.548L12.9833 11.55C12.9833 11.55 12.7864 11.8086 12.7569 11.8433L7.21876 18.375ZM2.50163 10.7592C2.50295 10.7592 2.6552 10.9613 2.68998 11.0047L7.21876 16.3459L11.7534 10.9974C11.7823 10.9613 11.9359 10.7579 11.9365 10.7573C12.709 9.73948 13.1265 8.49649 13.125 7.21875C13.125 5.65232 12.5027 4.15004 11.3951 3.0424C10.2875 1.93476 8.78519 1.3125 7.21876 1.3125C5.65232 1.3125 4.15004 1.93476 3.04241 3.0424C1.93477 4.15004 1.31251 5.65232 1.31251 7.21875C1.31113 8.49728 1.72908 9.74099 2.50229 10.7592H2.50163Z" fill="#5B5C5B"/>
</svg>
