<svg width="17" height="17" viewBox="0 0 17 17" fill="none" xmlns="http://www.w3.org/2000/svg">
<path d="M15.2812 10.5312C16 10.8438 16.4062 11.625 16.1875 12.4062L15.5312 15.25C15.4062 16 14.75 16.5 13.9688 16.5C6.40625 16.5 0.28125 10.375 0.28125 2.8125C0.28125 2.03125 0.78125 1.375 1.53125 1.21875L4.375 0.5625C5.15625 0.375 5.9375 0.78125 6.25 1.5L7.59375 4.625C7.875 5.28125 7.65625 6.0625 7.125 6.53125L6.0625 7.375C6.875 8.75 8.03125 9.90625 9.4375 10.7188L10.2812 9.6875C10.75 9.125 11.5312 8.90625 12.2188 9.21875L15.2812 10.5312ZM14.75 12.0625C14.7812 12 14.75 11.9375 14.6875 11.875L11.625 10.5625C11.5625 10.5312 11.5 10.5625 11.4688 10.5938L10.2188 12.125C10 12.4062 9.59375 12.4688 9.28125 12.3125C7.1875 11.2812 5.46875 9.5625 4.4375 7.46875C4.28125 7.15625 4.375 6.78125 4.625 6.5625L6.15625 5.3125C6.21875 5.28125 6.21875 5.21875 6.1875 5.15625L4.875 2.09375C4.84375 2.0625 4.8125 2 4.75 2L4.71875 2.03125L1.875 2.6875C1.8125 2.6875 1.75 2.75 1.75 2.8125C1.75 9.53125 7.25 15 13.9688 15C14.0312 15 14.0938 14.9375 14.0938 14.9062L14.75 12.0625Z" fill="#5B5C5B"/>
</svg>
