<svg width="15" height="17" viewBox="0 0 15 17" fill="none" xmlns="http://www.w3.org/2000/svg">
<path d="M9.09375 10C12.125 10 14.5938 12.4688 14.5938 15.5C14.5938 16.0625 14.125 16.5 13.5938 16.5H1.59375C1.03125 16.5 0.59375 16.0625 0.59375 15.5C0.59375 12.4688 3.03125 10 6.09375 10H9.09375ZM2.09375 15H13.0625C12.8125 13.0312 11.125 11.5 9.09375 11.5H6.09375C4.03125 11.5 2.34375 13.0312 2.09375 15ZM7.59375 8.5C5.375 8.5 3.59375 6.71875 3.59375 4.5C3.59375 2.3125 5.375 0.5 7.59375 0.5C9.78125 0.5 11.5938 2.3125 11.5938 4.5C11.5938 6.71875 9.78125 8.5 7.59375 8.5ZM7.59375 2C6.1875 2 5.09375 3.125 5.09375 4.5C5.09375 5.90625 6.1875 7 7.59375 7C8.96875 7 10.0938 5.90625 10.0938 4.5C10.0938 3.125 8.96875 2 7.59375 2Z" fill="#5B5C5B"/>
</svg>
