<svg width="20" height="19" viewBox="0 0 20 19" fill="none" xmlns="http://www.w3.org/2000/svg">
<path d="M6.93092 12.2711V12.825C6.93092 13.9588 7.38129 15.0462 8.18297 15.8479C8.98465 16.6496 10.072 17.1 11.2057 17.1C12.3394 17.1 13.4268 16.6496 14.2284 15.8479C15.0301 15.0462 15.4805 13.9588 15.4805 12.825V11.2385C14.8464 11.0144 14.312 10.5733 13.9716 9.99323C13.6313 9.41316 13.507 8.73143 13.6207 8.06855C13.7343 7.40567 14.0787 6.80433 14.5929 6.37082C15.107 5.93731 15.7579 5.69954 16.4304 5.69954C17.103 5.69954 17.7538 5.93731 18.268 6.37082C18.7822 6.80433 19.1265 7.40567 19.2402 8.06855C19.3539 8.73143 19.2296 9.41316 18.8893 9.99323C18.5489 10.5733 18.0145 11.0144 17.3804 11.2385V12.825C17.3804 14.4627 16.7298 16.0333 15.5719 17.1914C14.4139 18.3494 12.8433 19 11.2057 19C9.56807 19 7.99751 18.3494 6.83954 17.1914C5.68156 16.0333 5.03101 14.4627 5.03101 12.825V12.2711C3.70291 12.0463 2.49731 11.3584 1.6279 10.3295C0.758493 9.30058 0.281423 7.99707 0.28125 6.65L0.28125 1.9C0.28125 1.39609 0.481418 0.912816 0.837719 0.556497C1.19402 0.200178 1.67727 0 2.18115 0L3.13111 0C3.38305 0 3.62467 0.100089 3.80282 0.278249C3.98097 0.456408 4.08106 0.698044 4.08106 0.95C4.08106 1.20196 3.98097 1.44359 3.80282 1.62175C3.62467 1.79991 3.38305 1.9 3.13111 1.9H2.18115V6.65C2.18115 7.65782 2.58149 8.62437 3.29409 9.33701C4.0067 10.0496 4.97319 10.45 5.98096 10.45C6.98874 10.45 7.95523 10.0496 8.66783 9.33701C9.38044 8.62437 9.78077 7.65782 9.78077 6.65V1.9H8.83082C8.57888 1.9 8.33725 1.79991 8.1591 1.62175C7.98095 1.44359 7.88087 1.20196 7.88087 0.95C7.88087 0.698044 7.98095 0.456408 8.1591 0.278249C8.33725 0.100089 8.57888 0 8.83082 0L9.78077 0C10.2847 0 10.7679 0.200178 11.1242 0.556497C11.4805 0.912816 11.6807 1.39609 11.6807 1.9V6.65C11.6805 7.99707 11.2034 9.30058 10.334 10.3295C9.46461 11.3584 8.25902 12.0463 6.93092 12.2711ZM16.4304 9.5C16.6824 9.5 16.924 9.39991 17.1022 9.22175C17.2803 9.04359 17.3804 8.80196 17.3804 8.55C17.3804 8.29804 17.2803 8.05641 17.1022 7.87825C16.924 7.70009 16.6824 7.6 16.4304 7.6C16.1785 7.6 15.9369 7.70009 15.7587 7.87825C15.5806 8.05641 15.4805 8.29804 15.4805 8.55C15.4805 8.80196 15.5806 9.04359 15.7587 9.22175C15.9369 9.39991 16.1785 9.5 16.4304 9.5Z" fill="#5B5C5B"/>
</svg>
