<svg width="21" height="17" viewBox="0 0 21 17" fill="none" xmlns="http://www.w3.org/2000/svg">
<path d="M9.15625 10C12.1562 10 14.5938 12.4375 14.5938 15.4375C14.5938 16.0312 14.0938 16.5 13.5 16.5H1.65625C1.0625 16.5 0.59375 16.0312 0.59375 15.4375C0.59375 12.4375 3 10 6 10H9.15625ZM2.09375 15H13.0625C12.8125 13.0625 11.1875 11.5 9.15625 11.5H6C3.96875 11.5 2.3125 13.0625 2.09375 15ZM7.59375 8.5C5.375 8.5 3.59375 6.71875 3.59375 4.5C3.59375 2.3125 5.375 0.5 7.59375 0.5C9.78125 0.5 11.5938 2.3125 11.5938 4.5C11.5938 6.71875 9.78125 8.5 7.59375 8.5ZM7.59375 2C6.1875 2 5.09375 3.125 5.09375 4.5C5.09375 5.90625 6.1875 7 7.59375 7C8.96875 7 10.0938 5.90625 10.0938 4.5C10.0938 3.125 8.96875 2 7.59375 2ZM20.3438 4.71875C20.6562 5 20.6562 5.46875 20.375 5.78125L17.125 9.28125C17 9.4375 16.7812 9.5 16.5938 9.5C16.375 9.5 16.1875 9.4375 16.0625 9.28125L14.3125 7.53125C14 7.25 14 6.78125 14.3125 6.5C14.5938 6.1875 15.0625 6.1875 15.3438 6.5L16.5625 7.6875L19.2812 4.75C19.5625 4.4375 20.0312 4.4375 20.3438 4.71875Z" fill="#5B5C5B"/>
</svg>
