<svg width="19" height="17" viewBox="0 0 19 17" fill="none" xmlns="http://www.w3.org/2000/svg">
<path d="M6.53125 1.375C7.11841 1.375 7.69239 1.54911 8.1806 1.87532C8.66881 2.20153 9.04932 2.66519 9.27402 3.20766C9.49872 3.75013 9.55751 4.34704 9.44296 4.92292C9.32841 5.49881 9.04566 6.02779 8.63047 6.44297C8.21529 6.85816 7.68631 7.14091 7.11042 7.25546C6.53454 7.37001 5.93763 7.31122 5.39516 7.08652C4.85269 6.86182 4.38903 6.48131 4.06282 5.9931C3.73661 5.50489 3.5625 4.93091 3.5625 4.34375C3.5625 3.55639 3.87528 2.80128 4.43203 2.24453C4.98878 1.68778 5.74389 1.375 6.53125 1.375ZM6.53125 0.1875C5.70922 0.1875 4.90565 0.43126 4.22216 0.887954C3.53867 1.34465 3.00595 1.99377 2.69138 2.75322C2.3768 3.51268 2.29449 4.34836 2.45486 5.15459C2.61523 5.96083 3.01108 6.7014 3.59234 7.28266C4.1736 7.86392 4.91417 8.25977 5.72041 8.42014C6.52664 8.58051 7.36232 8.4982 8.12178 8.18362C8.88123 7.86905 9.53035 7.33633 9.98705 6.65284C10.4437 5.96935 10.6875 5.16578 10.6875 4.34375C10.6875 3.24144 10.2496 2.18429 9.47016 1.40484C8.69071 0.625389 7.63356 0.1875 6.53125 0.1875ZM12.4688 16.8125H11.2812V13.8438C11.2812 13.0564 10.9685 12.3013 10.4117 11.7445C9.85497 11.1878 9.09986 10.875 8.3125 10.875H4.75C3.96264 10.875 3.20753 11.1878 2.65078 11.7445C2.09403 12.3013 1.78125 13.0564 1.78125 13.8438V16.8125H0.59375V13.8438C0.59375 12.7414 1.03164 11.6843 1.81109 10.9048C2.59054 10.1254 3.64769 9.6875 4.75 9.6875H8.3125C9.41481 9.6875 10.472 10.1254 11.2514 10.9048C12.0309 11.6843 12.4688 12.7414 12.4688 13.8438V16.8125ZM12.4688 1.375H18.4062V2.5625H12.4688V1.375ZM12.4688 4.34375H18.4062V5.53125H12.4688V4.34375ZM12.4688 7.3125H16.625V8.5H12.4688V7.3125Z" fill="#999999"/>
</svg>
