<svg width="52" height="44" viewBox="0 0 52 44" fill="none" xmlns="http://www.w3.org/2000/svg">
<g filter="url(#filter0_d_1845_35140)">
<path d="M42.65 9.9375H39.95V7.3125C39.95 6.60156 39.3313 6 38.6 6C37.8125 6 37.25 6.60156 37.25 7.3125V9.9375H34.55C33.7625 9.9375 33.2 10.5391 33.2 11.25C33.2 11.9062 33.7625 12.5625 34.4938 12.5625H37.25V15.1875C37.25 15.9531 37.8125 16.5 38.6 16.5C39.3313 16.5 39.95 15.9531 39.95 15.2422V12.5625H42.65C43.3813 12.5625 44 12.0156 44 11.3047C44 10.6484 43.3813 9.9375 42.65 9.9375ZM20.6 9.5C13.625 9.5 8 15.0234 8 21.75C8 28.5312 13.625 34 20.6 34C27.5188 34 33.2 28.5312 33.2 21.75C33.2 15.0234 27.5188 9.5 20.6 9.5ZM16.0438 17.375C17 17.375 17.8438 18.1953 17.8438 19.125C17.8438 20.1094 17 20.875 16.0438 20.875C15.0313 20.875 14.3 20.1094 14.3 19.125C14.3 18.1953 15.0875 17.375 16.0438 17.375ZM26.675 26.125C25.1 27.8203 22.9063 28.75 20.6 28.75C18.2375 28.75 16.0438 27.8203 14.525 26.125C14.1875 25.7422 14.1875 25.1953 14.5813 24.8672C14.975 24.5391 15.5375 24.5938 15.8188 24.9766C17.0563 26.2891 18.7438 27 20.6 27C22.4 27 24.0875 26.2891 25.325 24.9766C25.6063 24.5938 26.225 24.5391 26.5625 24.8672C26.9563 25.1953 26.9563 25.7422 26.675 26.125ZM25.1 20.875C24.0875 20.875 23.2438 20.1094 23.2438 19.125C23.2438 18.1953 24.0875 17.375 25.1 17.375C26.0563 17.375 26.9 18.1953 26.9 19.125C26.9 20.1094 26.0563 20.875 25.1 20.875Z" fill="url(#paint0_linear_1845_35140)"/>
<path d="M39.8 9.9375V10.0875H39.95H42.65C42.9662 10.0875 43.2663 10.2417 43.4903 10.4782C43.7151 10.7154 43.85 11.0217 43.85 11.3047C43.85 11.9208 43.311 12.4125 42.65 12.4125H39.95H39.8V12.5625V15.2422C39.8 15.8583 39.261 16.35 38.6 16.35C37.8913 16.35 37.4 15.8663 37.4 15.1875V12.5625V12.4125H37.25H34.4938C33.8535 12.4125 33.35 11.8318 33.35 11.25C33.35 10.6218 33.8455 10.0875 34.55 10.0875H37.25H37.4V9.9375V7.3125C37.4 6.68429 37.8955 6.15 38.6 6.15C39.2524 6.15 39.8 6.68836 39.8 7.3125V9.9375ZM26.7849 26.2271L26.7908 26.2208L26.7959 26.2138C27.1132 25.7819 27.1252 25.1449 26.6629 24.7556C26.4582 24.5592 26.1757 24.4823 25.9095 24.5059C25.6444 24.5293 25.3801 24.6536 25.2099 24.88C24.0019 26.1577 22.3567 26.85 20.6 26.85C18.7864 26.85 17.1414 26.1572 15.9339 24.88C15.5946 24.4277 14.9359 24.3764 14.4852 24.752C14.0168 25.1423 14.028 25.788 14.4125 26.2242L14.4133 26.2251C15.9625 27.9544 18.198 28.9 20.6 28.9C22.9468 28.9 25.1808 27.9538 26.7849 26.2271ZM8.15 21.75C8.15 15.1098 13.7043 9.65 20.6 9.65C27.4399 9.65 33.05 15.1102 33.05 21.75C33.05 28.444 27.4404 33.85 20.6 33.85C13.7038 33.85 8.15 28.4445 8.15 21.75ZM17.9938 19.125C17.9938 18.1085 17.0788 17.225 16.0438 17.225C15.0025 17.225 14.15 18.1146 14.15 19.125C14.15 20.1899 14.9461 21.025 16.0438 21.025C17.0757 21.025 17.9938 20.1992 17.9938 19.125ZM23.0938 19.125C23.0938 20.202 24.0148 21.025 25.1 21.025C26.132 21.025 27.05 20.1992 27.05 19.125C27.05 18.1085 26.1351 17.225 25.1 17.225C24.0117 17.225 23.0938 18.1056 23.0938 19.125Z" stroke="url(#paint1_linear_1845_35140)" stroke-width="0.3"/>
</g>
<defs>
<filter id="filter0_d_1845_35140" x="0" y="0" width="52" height="44" filterUnits="userSpaceOnUse" color-interpolation-filters="sRGB">
<feFlood flood-opacity="0" result="BackgroundImageFix"/>
<feColorMatrix in="SourceAlpha" type="matrix" values="0 0 0 0 0 0 0 0 0 0 0 0 0 0 0 0 0 0 127 0" result="hardAlpha"/>
<feOffset dy="2"/>
<feGaussianBlur stdDeviation="4"/>
<feComposite in2="hardAlpha" operator="out"/>
<feColorMatrix type="matrix" values="0 0 0 0 0 0 0 0 0 0.352941 0 0 0 0 0.560784 0 0 0 0.25 0"/>
<feBlend mode="normal" in2="BackgroundImageFix" result="effect1_dropShadow_1845_35140"/>
<feBlend mode="normal" in="SourceGraphic" in2="effect1_dropShadow_1845_35140" result="shape"/>
</filter>
<linearGradient id="paint0_linear_1845_35140" x1="-7.79889" y1="10.9321" x2="1.34593" y2="39.2648" gradientUnits="userSpaceOnUse">
<stop stop-color="#49C3B1"/>
<stop offset="1" stop-color="#0071A3"/>
</linearGradient>
<linearGradient id="paint1_linear_1845_35140" x1="26" y1="6" x2="26" y2="34" gradientUnits="userSpaceOnUse">
<stop stop-color="white"/>
<stop offset="1" stop-color="#D0D0D0" stop-opacity="0"/>
</linearGradient>
</defs>
</svg>
