<svg width="14" height="15" viewBox="0 0 14 15" fill="none" xmlns="http://www.w3.org/2000/svg">
<path d="M7 0.75C10.8555 0.75 14 3.89453 14 7.75C14 11.6328 10.8555 14.75 7 14.75C3.11719 14.75 0 11.6328 0 7.75C0 3.89453 3.11719 0.75 7 0.75ZM7 11.6875C7.46484 11.6875 7.875 11.3047 7.875 10.8125C7.875 10.3203 7.46484 9.9375 7 9.9375C6.48047 9.9375 6.125 10.3203 6.125 10.8125C6.125 11.3047 6.50781 11.6875 7 11.6875ZM8.88672 7.80469C9.48828 7.44922 9.84375 6.82031 9.84375 6.16406C9.84375 5.09766 8.99609 4.25 7.875 4.25H6.48047C5.44141 4.25 4.59375 5.09766 4.59375 6.16406C4.59375 6.51953 4.89453 6.82031 5.25 6.82031C5.60547 6.82031 5.90625 6.51953 5.90625 6.16406C5.90625 5.83594 6.15234 5.5625 6.50781 5.5625H7.90234C8.23047 5.5625 8.53125 5.83594 8.53125 6.16406C8.53125 6.38281 8.42188 6.57422 8.23047 6.68359L6.67188 7.61328C6.45312 7.75 6.34375 7.96875 6.34375 8.1875V8.625C6.34375 8.98047 6.64453 9.28125 7 9.28125C7.35547 9.28125 7.65625 8.98047 7.65625 8.625V8.57031L8.88672 7.80469Z" fill="#002E58"/>
</svg>
