<svg width="35" height="35" viewBox="0 0 35 35" fill="none" xmlns="http://www.w3.org/2000/svg">
<path d="M17.2833 30.14L11.0365 23.6458H6.89267L15.8608 32.985C16.2937 33.3561 16.7885 33.5417 17.2833 33.5417C17.7781 33.5417 18.2729 33.3561 18.7058 32.985L27.7358 23.6458H23.5919L17.2833 30.14ZM30.1479 7.75065C28.6635 6.45182 26.7462 5.83333 24.8907 5.83333C22.6023 5.83333 20.252 6.82291 18.5203 8.55468L17.3451 9.85351L16.1082 8.55468C14.3764 6.82291 12.0261 5.83333 9.73772 5.83333C7.88225 5.83333 5.96493 6.45182 4.48056 7.75065C0.645921 11.0905 0.460374 17.028 3.92392 20.6152L4.97535 21.7285H10.9747L12.8302 17.2754L16.3556 25.0684C16.6648 25.8105 17.7781 25.8724 18.1492 25.1302L21.2416 18.9453L22.6023 21.7285H29.6531L30.7045 20.6152C34.1681 17.028 33.9825 11.0905 30.1479 7.75065ZM28.5398 18.5742L27.4265 19.7493H23.7774L22.1075 16.2858C21.7364 15.6055 20.685 15.6055 20.3139 16.2858L17.2833 22.347L13.6961 14.3685C13.325 13.5644 12.2117 13.5644 11.9024 14.3685L9.67587 19.7493H7.20191L6.08863 18.5742C4.10946 16.4713 3.61467 12.4512 6.45972 10.0391C8.93368 7.87434 12.3354 8.92578 13.9434 10.6575L17.3451 14.1211L20.685 10.6575C22.2931 8.98763 25.6947 7.87434 28.1687 10.0391C31.0138 12.4512 30.5808 16.4713 28.5398 18.5742Z" fill="#999999"/>
</svg>
