<svg width="35" height="35" viewBox="0 0 35 35" fill="none" xmlns="http://www.w3.org/2000/svg">
<path d="M35 25.6462C35 28.5144 32.4844 30.625 29.5859 30.625C28.6016 30.625 28.2734 30.5168 24.8828 29.5968C22.5859 29.0015 20.9453 26.9991 20.9453 24.7803L21 20.3967L23.625 22.2367V24.7803C23.625 25.8626 24.3906 26.7826 25.5391 27.1073C29.0937 28.0273 29.0937 28.0273 29.5859 28.0273C31.2812 28.0273 32.7578 26.7826 32.2109 24.7262C31.1172 20.5591 29.3672 16.6085 26.9609 12.9285C25.7031 10.9802 25.5937 10.7096 24.7734 10.7096C24.1719 10.7096 23.625 11.1967 23.625 11.6838V16.9332L27.3984 19.6391C28 20.072 28.1641 20.8838 27.7266 21.425C27.4531 21.8038 27.0703 21.9661 26.6328 21.9661C26.3594 21.9661 26.0859 21.912 25.8672 21.7497L17.5 15.7967L9.07812 21.7497C8.80469 21.912 8.53125 21.9661 8.3125 21.9661C7.875 21.9661 7.49219 21.8038 7.21875 21.425C6.78125 20.8838 6.94531 20.072 7.54687 19.6391L11.375 16.9332V11.6838C11.375 11.1967 10.7734 10.7096 10.1172 10.7096C9.29687 10.7096 9.1875 10.9802 7.92969 12.9285C5.63281 16.6085 3.82812 20.5591 2.73437 24.7262C2.1875 26.7826 3.66406 28.0273 5.35937 28.0273C5.85156 28.0273 5.85156 28.0273 9.40625 27.1073C10.5547 26.7826 11.375 25.8626 11.375 24.7803V22.2367L14 20.3967V24.7803C14 26.9991 12.3594 29.0015 10.0625 29.5968C6.67187 30.5168 6.34375 30.625 5.35937 30.625C2.46094 30.625 0 28.5144 0 25.6462C0 25.105 0.0546875 24.5638 0.164062 24.0767C1.36719 19.6391 3.22656 15.472 5.74219 11.5755C6.94531 9.68139 7.71094 8.16609 10.1172 8.16609C12.25 8.11198 14 9.73551 14 11.6838V15.0932L15.9687 13.6861C16.0781 13.5779 16.1875 13.4696 16.1875 13.3073V4.21549C16.1875 3.51196 16.7344 2.91666 17.5 2.91666C18.2109 2.91666 18.7578 3.51196 18.7578 4.21549V13.3073C18.7578 13.4696 18.8125 13.5779 18.9219 13.632L21 15.0932V11.6838C21 9.73551 22.6953 8.16609 24.7734 8.16609C27.1797 8.16609 27.9453 9.68139 29.2031 11.5755C31.7187 15.472 33.5781 19.6391 34.7812 24.0767C34.8906 24.5638 35 25.105 35 25.6462Z" fill="#999999"/>
</svg>
