<svg width="35" height="35" viewBox="0 0 35 35" fill="none" xmlns="http://www.w3.org/2000/svg">
<path d="M25.2656 15.6885C25.5391 15.0391 25.8672 14.3896 26.0859 13.5779C26.3047 12.9826 26.6328 12.4955 27.125 12.1708C25.2109 6.81315 20.0703 2.91667 14 2.91667C6.23437 2.91667 0 9.14022 0 16.7708C0 24.4556 6.23437 30.625 14 30.625C16.8984 30.625 19.6328 29.7591 21.9297 28.1897C21.4922 27.3779 21.1641 26.512 21.0547 25.592C19.1406 27.1073 16.6797 28.0273 14 28.0273C7.71094 28.0273 2.625 22.9944 2.625 16.7708C2.625 10.6014 7.71094 5.51432 14 5.51432C19.8516 5.51432 24.7187 10.0061 25.2656 15.6885ZM13.5625 9.84375C13.0703 9.84375 12.6875 10.2767 12.6875 10.7096V14.1732C12.6875 14.6602 13.0703 15.0391 13.5625 15.0391H14.4375C14.875 15.0391 15.3125 14.6602 15.3125 14.1732V10.7096C15.3125 10.2767 14.875 9.84375 14.4375 9.84375H13.5625ZM17.9375 9.84375C17.4453 9.84375 17.0625 10.2767 17.0625 10.7096V14.1732C17.0625 14.6602 17.4453 15.0391 17.9375 15.0391H18.8125C19.25 15.0391 19.6875 14.6602 19.6875 14.1732V10.7096C19.6875 10.2767 19.25 9.84375 18.8125 9.84375H17.9375ZM9.1875 9.84375C8.69531 9.84375 8.3125 10.2767 8.3125 10.7096V14.1732C8.3125 14.6602 8.69531 15.0391 9.1875 15.0391H10.0625C10.5 15.0391 10.9375 14.6602 10.9375 14.1732V10.7096C10.9375 10.2767 10.5 9.84375 10.0625 9.84375H9.1875ZM29.8594 14.0649C29.5859 13.0908 28.1641 13.0367 27.8359 14.0649C26.1953 19.4226 22.75 20.8838 22.75 24.6179C22.75 27.9732 25.4844 30.625 28.875 30.625C32.2109 30.625 35 27.9732 35 24.6179C35 20.8297 31.5 19.4226 29.8594 14.0649Z" fill="#999999"/>
</svg>
