<svg width="35" height="29" viewBox="0 0 35 29" fill="none" xmlns="http://www.w3.org/2000/svg">
<path d="M8.75 18.2344C11.6484 18.2344 14 15.9614 14 13.0391C14 10.1708 11.6484 7.84376 8.75 7.84376C5.79687 7.84376 3.5 10.1708 3.5 13.0391C3.5 15.9073 5.79687 18.2344 8.75 18.2344ZM8.75 10.4414C10.1719 10.4414 11.375 11.632 11.375 13.0391C11.375 14.5003 10.1719 15.6367 8.75 15.6367C7.27344 15.6367 6.125 14.5003 6.125 13.0391C6.125 11.632 7.27344 10.4414 8.75 10.4414ZM10.5 19.9662H7C3.11719 19.9662 0 23.105 0 26.8932C0 27.8674 0.765625 28.625 1.75 28.625H15.75C16.6797 28.625 17.5 27.8674 17.5 26.8932C17.5 23.105 14.3281 19.9662 10.5 19.9662ZM2.67969 26.0274C3.11719 24.0791 4.86719 22.5638 7 22.5638H10.5C12.5781 22.5638 14.3281 24.0791 14.7656 26.0274H2.67969ZM31.9375 0.916672H11.8125C10.1172 0.916672 8.75 2.32374 8.75 3.94727V5.2461C8.75 6.00375 9.29687 6.54493 10.0625 6.54493C10.7734 6.54493 11.375 6.00375 11.375 5.2461V3.94727C11.375 3.7308 11.5391 3.51433 11.8125 3.51433H31.9375C32.1562 3.51433 32.375 3.7308 32.375 3.94727V20.3991C32.375 20.6697 32.1562 20.832 31.9375 20.832H19.25C18.4844 20.832 17.9375 21.4273 17.9375 22.1309C17.9375 22.8885 18.4844 23.4297 19.25 23.4297H31.9375C33.5781 23.4297 35 22.0767 35 20.3991V3.94727C35 2.32374 33.5781 0.916672 31.9375 0.916672ZM17.9375 9.95435C17.3906 9.46729 16.5703 9.46729 16.0781 9.95435C15.5312 10.4955 15.5312 11.3073 16.0781 11.7944L20.0156 15.6908C20.2891 15.9614 20.6172 16.0697 21 16.0697C21.3281 16.0697 21.6562 15.9614 21.875 15.6908L27.125 10.5496V11.7402C27.125 12.4979 27.6719 13.0391 28.4375 13.0391C29.1484 13.0391 29.75 12.4979 29.75 11.7402V7.41081C29.75 6.70728 29.1484 6.11198 28.4375 6.11198H24.0625C23.2969 6.11198 22.75 6.70728 22.75 7.41081C22.75 8.16846 23.2969 8.70964 24.0625 8.70964H25.2656L21 12.9308L17.9375 9.95435Z" fill="#999999"/>
</svg>
