<svg width="35" height="35" viewBox="0 0 35 35" fill="none" xmlns="http://www.w3.org/2000/svg">
<path d="M17.5 17.9557C18.7532 17.9557 19.7786 16.9873 19.7786 15.6771C19.7786 15.1074 19.4938 14.5377 19.152 14.139L21.0319 9.69563C21.2598 9.2399 21.0319 8.67024 20.5762 8.49934C20.1204 8.27147 19.5508 8.49934 19.3799 8.95507L17.443 13.3984C16.1898 13.4554 15.2213 14.4238 15.2213 15.6771C15.2213 16.9873 16.1898 17.9557 17.5 17.9557ZM27.9818 6.56249H25.1904C23.3675 4.34081 20.5762 2.91666 17.5 2.91666C14.3669 2.91666 11.5755 4.34081 9.75259 6.56249H7.01822C4.73957 6.56249 2.91666 8.44237 2.91666 10.6641V27.9818C2.91666 30.2604 4.73957 32.0833 7.01822 32.0833H27.9818C30.2034 32.0833 32.0833 30.2604 32.0833 27.9818V10.6641C32.0833 8.44237 30.2034 6.56249 27.9818 6.56249ZM17.5 5.65103C21.4876 5.65103 24.7917 8.95507 24.7917 12.9427C24.7917 16.9873 21.4876 20.2344 17.5 20.2344C13.4554 20.2344 10.2083 16.9873 10.2083 12.9427C10.2083 8.95507 13.4554 5.65103 17.5 5.65103ZM29.3489 27.9818C29.3489 28.7793 28.7223 29.3489 27.9818 29.3489H7.01822C6.22069 29.3489 5.65103 28.7793 5.65103 27.9818V10.6641C5.65103 9.92349 6.22069 9.29686 7.01822 9.29686H8.15754C7.70181 10.4362 7.47395 11.6894 7.47395 12.9427C7.47395 18.5254 11.9173 22.9687 17.5 22.9687C23.0257 22.9687 27.526 18.5254 27.526 12.9427C27.526 11.6894 27.2412 10.4362 26.7855 9.29686H27.9818C28.7223 9.29686 29.3489 9.92349 29.3489 10.6641V27.9818Z" fill="#999999"/>
</svg>
