<svg width="31" height="31" viewBox="0 0 31 31" fill="none" xmlns="http://www.w3.org/2000/svg">
<path d="M20.0573 14.5885C21.0257 14.5885 21.8232 13.791 21.8232 12.7656C21.8232 11.7972 21.0257 10.9427 20.0573 10.9427C19.0319 10.9427 18.1774 11.7972 18.1774 12.7656C18.1774 13.791 19.0319 14.5885 20.0573 14.5885ZM10.8857 14.5885C11.8542 14.5885 12.7086 13.791 12.7086 12.7656C12.7086 11.7972 11.8542 10.9427 10.8857 10.9427C9.86034 10.9427 9.06281 11.7972 9.06281 12.7656C9.06281 13.791 9.91731 14.5885 10.8857 14.5885ZM20.2851 18.7471C19.0889 20.1712 17.3229 20.9687 15.5 20.9687C13.6201 20.9687 11.8542 20.1712 10.6579 18.7471C10.2021 18.1774 9.34765 18.1204 8.77798 18.5762C8.20832 19.0319 8.09439 19.9433 8.60709 20.513C10.3161 22.5638 12.8226 23.7601 15.5 23.7601C18.1204 23.7601 20.6269 22.5638 22.3359 20.513C22.8486 19.9433 22.7917 19.0889 22.165 18.5762C21.5954 18.1204 20.7409 18.1774 20.2851 18.7471ZM15.5 0.916656C7.4108 0.916656 0.916656 7.46776 0.916656 15.5C0.916656 23.5892 7.4108 30.0833 15.5 30.0833C23.5322 30.0833 30.0833 23.5892 30.0833 15.5C30.0833 7.46776 23.5322 0.916656 15.5 0.916656ZM15.5 27.3489C8.94888 27.3489 3.65103 22.0511 3.65103 15.5C3.65103 9.00585 8.94888 3.65103 15.5 3.65103C21.9941 3.65103 27.3489 9.00585 27.3489 15.5C27.3489 22.0511 21.9941 27.3489 15.5 27.3489Z" fill="#999999"/>
</svg>
