<svg width="49" height="53" viewBox="0 0 49 53" fill="none" xmlns="http://www.w3.org/2000/svg">
<g filter="url(#filter0_d_2_4046)">
<rect x="4.75" y="4" width="40" height="19" rx="5" fill="url(#paint0_linear_2_4046)"/>
<rect x="5.25" y="12.5" width="39" height="32" rx="4.5" stroke="white"/>
<rect x="14.75" width="4" height="8" rx="2" fill="url(#paint1_linear_2_4046)"/>
<rect x="15" y="0.25" width="3.5" height="7.5" rx="1.75" stroke="url(#paint2_linear_2_4046)" stroke-opacity="0.5" stroke-width="0.5" style="mix-blend-mode:overlay"/>
<rect x="30.75" width="4" height="8" rx="2" fill="url(#paint3_linear_2_4046)"/>
<rect x="31" y="0.25" width="3.5" height="7.5" rx="1.75" stroke="url(#paint4_linear_2_4046)" stroke-opacity="0.5" stroke-width="0.5" style="mix-blend-mode:overlay"/>
<g filter="url(#filter1_bd_2_4046)">
<rect x="4.75" y="12" width="40" height="33" rx="5" fill="url(#paint5_radial_2_4046)" fill-opacity="0.5" shape-rendering="crispEdges"/>
</g>
<rect x="5" y="12.25" width="39.5" height="32.5" rx="4.75" stroke="white" stroke-width="0.5"/>
<path d="M26.6875 29.7969V25.5781C26.6875 25.0703 26.2578 24.6406 25.75 24.6406C25.2031 24.6406 24.8125 25.0703 24.8125 25.5781V30.2656C24.8125 30.5781 24.9297 30.8516 25.1641 31.0469L27.6641 32.9219C27.8203 33.0391 28.0156 33.0781 28.2109 33.0781C28.4844 33.0781 28.7578 32.9609 28.9531 32.7266C29.2656 32.2969 29.1875 31.7109 28.7578 31.3984L26.6875 29.7969ZM25.7109 19.6406C20.1641 19.6406 15.7109 24.1328 15.7109 29.6406C15.7109 35.1875 20.1641 39.6406 25.7109 39.6406C31.2188 39.6406 35.6719 35.1875 35.6719 29.6406C35.6719 24.1328 31.2578 19.6406 25.7109 19.6406ZM25.75 37.7656C21.2578 37.7656 17.625 34.1328 17.625 29.6406C17.625 25.1875 21.2578 21.5156 25.75 21.5156C30.2031 21.5156 33.875 25.1875 33.875 29.6406C33.875 34.1328 30.2031 37.7656 25.75 37.7656Z" fill="#004A73"/>
</g>
<defs>
<filter id="filter0_d_2_4046" x="0.75" y="0" width="48" height="53" filterUnits="userSpaceOnUse" color-interpolation-filters="sRGB">
<feFlood flood-opacity="0" result="BackgroundImageFix"/>
<feColorMatrix in="SourceAlpha" type="matrix" values="0 0 0 0 0 0 0 0 0 0 0 0 0 0 0 0 0 0 127 0" result="hardAlpha"/>
<feOffset dy="4"/>
<feGaussianBlur stdDeviation="2"/>
<feComposite in2="hardAlpha" operator="out"/>
<feColorMatrix type="matrix" values="0 0 0 0 0 0 0 0 0 0 0 0 0 0 0 0 0 0 0.2 0"/>
<feBlend mode="normal" in2="BackgroundImageFix" result="effect1_dropShadow_2_4046"/>
<feBlend mode="normal" in="SourceGraphic" in2="effect1_dropShadow_2_4046" result="shape"/>
</filter>
<filter id="filter1_bd_2_4046" x="0.75" y="8" width="48" height="41" filterUnits="userSpaceOnUse" color-interpolation-filters="sRGB">
<feFlood flood-opacity="0" result="BackgroundImageFix"/>
<feGaussianBlur in="BackgroundImage" stdDeviation="2"/>
<feComposite in2="SourceAlpha" operator="in" result="effect1_backgroundBlur_2_4046"/>
<feColorMatrix in="SourceAlpha" type="matrix" values="0 0 0 0 0 0 0 0 0 0 0 0 0 0 0 0 0 0 127 0" result="hardAlpha"/>
<feOffset dy="-2"/>
<feGaussianBlur stdDeviation="1"/>
<feComposite in2="hardAlpha" operator="out"/>
<feColorMatrix type="matrix" values="0 0 0 0 0 0 0 0 0 0 0 0 0 0 0 0 0 0 0.2 0"/>
<feBlend mode="normal" in2="effect1_backgroundBlur_2_4046" result="effect2_dropShadow_2_4046"/>
<feBlend mode="normal" in="SourceGraphic" in2="effect2_dropShadow_2_4046" result="shape"/>
</filter>
<linearGradient id="paint0_linear_2_4046" x1="13.75" y1="8.92593" x2="26.7896" y2="21.8164" gradientUnits="userSpaceOnUse">
<stop stop-color="#4AC0AF"/>
<stop offset="1" stop-color="#0069A7"/>
</linearGradient>
<linearGradient id="paint1_linear_2_4046" x1="15.25" y1="4.5" x2="17.75" y2="4.5" gradientUnits="userSpaceOnUse">
<stop offset="0.364583" stop-color="#D9D9D9"/>
<stop offset="1" stop-color="#B3B3B3"/>
</linearGradient>
<linearGradient id="paint2_linear_2_4046" x1="15.25" y1="2" x2="18.25" y2="6.5" gradientUnits="userSpaceOnUse">
<stop stop-color="white"/>
<stop offset="1"/>
</linearGradient>
<linearGradient id="paint3_linear_2_4046" x1="31.25" y1="4.5" x2="33.75" y2="4.5" gradientUnits="userSpaceOnUse">
<stop offset="0.364583" stop-color="#D9D9D9"/>
<stop offset="1" stop-color="#B3B3B3"/>
</linearGradient>
<linearGradient id="paint4_linear_2_4046" x1="31.25" y1="2" x2="34.25" y2="6.5" gradientUnits="userSpaceOnUse">
<stop stop-color="white"/>
<stop offset="1"/>
</linearGradient>
<radialGradient id="paint5_radial_2_4046" cx="0" cy="0" r="1" gradientUnits="userSpaceOnUse" gradientTransform="translate(15.25 16.5) rotate(63.4349) scale(27.9508 29.1291)">
<stop stop-color="white"/>
<stop offset="1" stop-color="#C9C5C5"/>
</radialGradient>
</defs>
</svg>
