<svg width="49" height="53" viewBox="0 0 49 53" fill="none" xmlns="http://www.w3.org/2000/svg">
<g filter="url(#filter0_d_2_4020)">
<rect x="4.75" y="4" width="40" height="19" rx="5" fill="url(#paint0_linear_2_4020)"/>
<rect x="5.25" y="12.5" width="39" height="32" rx="4.5" stroke="white"/>
<rect x="14.75" width="4" height="8" rx="2" fill="url(#paint1_linear_2_4020)"/>
<rect x="15" y="0.25" width="3.5" height="7.5" rx="1.75" stroke="url(#paint2_linear_2_4020)" stroke-opacity="0.5" stroke-width="0.5" style="mix-blend-mode:overlay"/>
<rect x="30.75" width="4" height="8" rx="2" fill="url(#paint3_linear_2_4020)"/>
<rect x="31" y="0.25" width="3.5" height="7.5" rx="1.75" stroke="url(#paint4_linear_2_4020)" stroke-opacity="0.5" stroke-width="0.5" style="mix-blend-mode:overlay"/>
<g filter="url(#filter1_bd_2_4020)">
<rect x="4.75" y="12" width="40" height="33" rx="5" fill="url(#paint5_radial_2_4020)" fill-opacity="0.5" shape-rendering="crispEdges"/>
</g>
<rect x="5" y="12.25" width="39.5" height="32.5" rx="4.75" stroke="white" stroke-width="0.5"/>
<path d="M32.625 29.5C32.625 30.2031 32.0391 30.7891 31.375 30.7891H25.75V36.4141C25.75 37.0781 25.1641 37.625 24.5 37.625C23.7969 37.625 23.25 37.0781 23.25 36.4141V30.7891H17.625C16.9219 30.7891 16.375 30.2031 16.375 29.5C16.375 28.8359 16.9219 28.2891 17.625 28.2891H23.25V22.6641C23.25 21.9609 23.7969 21.375 24.5 21.375C25.1641 21.375 25.75 21.9609 25.75 22.6641V28.2891H31.375C32.0391 28.25 32.625 28.8359 32.625 29.5Z" fill="#004A73"/>
</g>
<defs>
<filter id="filter0_d_2_4020" x="0.75" y="0" width="48" height="53" filterUnits="userSpaceOnUse" color-interpolation-filters="sRGB">
<feFlood flood-opacity="0" result="BackgroundImageFix"/>
<feColorMatrix in="SourceAlpha" type="matrix" values="0 0 0 0 0 0 0 0 0 0 0 0 0 0 0 0 0 0 127 0" result="hardAlpha"/>
<feOffset dy="4"/>
<feGaussianBlur stdDeviation="2"/>
<feComposite in2="hardAlpha" operator="out"/>
<feColorMatrix type="matrix" values="0 0 0 0 0 0 0 0 0 0 0 0 0 0 0 0 0 0 0.2 0"/>
<feBlend mode="normal" in2="BackgroundImageFix" result="effect1_dropShadow_2_4020"/>
<feBlend mode="normal" in="SourceGraphic" in2="effect1_dropShadow_2_4020" result="shape"/>
</filter>
<filter id="filter1_bd_2_4020" x="0.75" y="8" width="48" height="41" filterUnits="userSpaceOnUse" color-interpolation-filters="sRGB">
<feFlood flood-opacity="0" result="BackgroundImageFix"/>
<feGaussianBlur in="BackgroundImage" stdDeviation="2"/>
<feComposite in2="SourceAlpha" operator="in" result="effect1_backgroundBlur_2_4020"/>
<feColorMatrix in="SourceAlpha" type="matrix" values="0 0 0 0 0 0 0 0 0 0 0 0 0 0 0 0 0 0 127 0" result="hardAlpha"/>
<feOffset dy="-2"/>
<feGaussianBlur stdDeviation="1"/>
<feComposite in2="hardAlpha" operator="out"/>
<feColorMatrix type="matrix" values="0 0 0 0 0 0 0 0 0 0 0 0 0 0 0 0 0 0 0.2 0"/>
<feBlend mode="normal" in2="effect1_backgroundBlur_2_4020" result="effect2_dropShadow_2_4020"/>
<feBlend mode="normal" in="SourceGraphic" in2="effect2_dropShadow_2_4020" result="shape"/>
</filter>
<linearGradient id="paint0_linear_2_4020" x1="13.75" y1="8.92593" x2="26.7896" y2="21.8164" gradientUnits="userSpaceOnUse">
<stop stop-color="#4AC0AF"/>
<stop offset="1" stop-color="#0069A7"/>
</linearGradient>
<linearGradient id="paint1_linear_2_4020" x1="15.25" y1="4.5" x2="17.75" y2="4.5" gradientUnits="userSpaceOnUse">
<stop offset="0.364583" stop-color="#D9D9D9"/>
<stop offset="1" stop-color="#B3B3B3"/>
</linearGradient>
<linearGradient id="paint2_linear_2_4020" x1="15.25" y1="2" x2="18.25" y2="6.5" gradientUnits="userSpaceOnUse">
<stop stop-color="white"/>
<stop offset="1"/>
</linearGradient>
<linearGradient id="paint3_linear_2_4020" x1="31.25" y1="4.5" x2="33.75" y2="4.5" gradientUnits="userSpaceOnUse">
<stop offset="0.364583" stop-color="#D9D9D9"/>
<stop offset="1" stop-color="#B3B3B3"/>
</linearGradient>
<linearGradient id="paint4_linear_2_4020" x1="31.25" y1="2" x2="34.25" y2="6.5" gradientUnits="userSpaceOnUse">
<stop stop-color="white"/>
<stop offset="1"/>
</linearGradient>
<radialGradient id="paint5_radial_2_4020" cx="0" cy="0" r="1" gradientUnits="userSpaceOnUse" gradientTransform="translate(15.25 16.5) rotate(63.4349) scale(27.9508 29.1291)">
<stop stop-color="white"/>
<stop offset="1" stop-color="#C9C5C5"/>
</radialGradient>
</defs>
</svg>
