<svg width="26" height="26" viewBox="0 0 26 26" fill="none" xmlns="http://www.w3.org/2000/svg">
<path fill-rule="evenodd" clip-rule="evenodd" d="M7.54396 2.68945V0H5.75085V2.68945H3.16092C1.62044 2.68945 0.371643 3.89365 0.371643 5.37911V23.3101C0.371643 24.7956 1.62044 25.9998 3.16092 25.9998H22.6858C24.2263 25.9998 25.4751 24.7956 25.4751 23.3101V5.37911C25.4751 3.89365 24.2263 2.68945 22.6858 2.68945H20.0957V0H18.3026V2.68945H7.54396ZM23.6156 8.06897V5.37911C23.6156 4.88396 23.1993 4.48256 22.6858 4.48256H3.16092C2.64743 4.48256 2.23116 4.88396 2.23116 5.37911V8.06897H23.6156ZM2.23116 9.86207V23.3101C2.23116 23.8053 2.64742 24.2067 3.16092 24.2067H22.6858C23.1993 24.2067 23.6156 23.8053 23.6156 23.3101V9.86207H2.23116ZM12.0268 12.5514H13.8199V15.2411H16.5095V17.0343H13.8199V19.7238H12.0268V17.0342H9.33709V15.2411H12.0268V12.5514Z" fill="white"/>
</svg>
