<svg width="13" height="17" viewBox="0 0 13 17" fill="none" xmlns="http://www.w3.org/2000/svg">
<path d="M3.84375 8.25C4.25 8.25 4.59375 8.59375 4.59375 9C4.59375 9.4375 4.25 9.75 3.84375 9.75C3.40625 9.75 3.09375 9.4375 3.09375 9C3.09375 8.59375 3.40625 8.25 3.84375 8.25ZM3.84375 11.25C4.25 11.25 4.59375 11.5938 4.59375 12C4.59375 12.4375 4.25 12.75 3.84375 12.75C3.40625 12.75 3.09375 12.4375 3.09375 12C3.09375 11.5938 3.40625 11.25 3.84375 11.25ZM9.59375 11.5C9.84375 11.5 10.0938 11.75 10.0938 12C10.0938 12.2812 9.84375 12.5 9.59375 12.5H6.09375C5.8125 12.5 5.59375 12.2812 5.59375 12C5.59375 11.75 5.8125 11.5 6.09375 11.5H9.59375ZM10.5938 2.5C11.6875 2.5 12.5938 3.40625 12.5938 4.5V14.5C12.5938 15.625 11.6875 16.5 10.5938 16.5H2.59375C1.46875 16.5 0.59375 15.625 0.59375 14.5V4.5C0.59375 3.40625 1.46875 2.5 2.59375 2.5H4.125C4.375 1.375 5.375 0.5 6.59375 0.5C7.78125 0.5 8.78125 1.375 9.03125 2.5H10.5938ZM6.59375 2C6.15625 2 5.84375 2.34375 5.84375 2.75C5.84375 3.1875 6.15625 3.5 6.59375 3.5C7 3.5 7.34375 3.1875 7.34375 2.75C7.34375 2.34375 7 2 6.59375 2ZM11.0938 14.5V4.5C11.0938 4.25 10.8438 4 10.5938 4H10C10.0625 4.1875 10.0938 4.34375 10.0938 4.5V5C10.0938 5.28125 9.84375 5.5 9.59375 5.5H3.59375C3.3125 5.5 3.09375 5.28125 3.09375 5V4.5C3.09375 4.34375 3.09375 4.1875 3.15625 4H2.59375C2.3125 4 2.09375 4.25 2.09375 4.5V14.5C2.09375 14.7812 2.3125 15 2.59375 15H10.5938C10.8438 15 11.0938 14.7812 11.0938 14.5ZM9.59375 8.5C9.84375 8.5 10.0938 8.75 10.0938 9C10.0938 9.28125 9.84375 9.5 9.59375 9.5H6.09375C5.8125 9.5 5.59375 9.28125 5.59375 9C5.59375 8.75 5.8125 8.5 6.09375 8.5H9.59375Z" fill="#5B5C5B"/>
</svg>
