<svg width="12" height="13" viewBox="0 0 12 13" fill="none" xmlns="http://www.w3.org/2000/svg">
<path d="M8.4375 5.75H6.375V4.4375C6.375 4.22656 6.23438 4.01562 6.02344 3.92188C5.8125 3.85156 5.57812 3.875 5.41406 4.03906L3.16406 6.125C3.04688 6.21875 3 6.38281 3 6.52344C3 6.71094 3.04688 6.85156 3.16406 6.94531L5.41406 8.98438C5.57812 9.14844 5.83594 9.17188 6.02344 9.07812C6.23438 9.00781 6.375 8.79688 6.375 8.58594V7.27344L8.4375 7.25C8.74219 7.25 9 7.01562 9 6.6875V6.3125C9 6.00781 8.74219 5.75 8.4375 5.75ZM6 0.5C2.67188 0.5 0 3.19531 0 6.5C0 9.82812 2.67188 12.5 6 12.5C9.30469 12.5 12 9.82812 12 6.5C12 3.19531 9.30469 0.5 6 0.5ZM6 11.375C3.30469 11.375 1.125 9.19531 1.125 6.5C1.125 3.82812 3.30469 1.625 6 1.625C8.67188 1.625 10.875 3.82812 10.875 6.5C10.875 9.19531 8.67188 11.375 6 11.375Z" fill="#3CA70D"/>
</svg>
