<svg width="100%" height="100%" viewBox="0 0 375 107" fill="none" xmlns="http://www.w3.org/2000/svg">
<path d="M167.223 107C321.434 107 446.446 80.535 446.446 47.8888C446.446 15.2427 321.434 -11.2223 167.223 -11.2223C13.0124 -11.2223 -112 15.2427 -112 47.8888C-112 80.535 13.0124 107 167.223 107Z" fill="#3CA70D"/>
<path d="M208.777 107C362.988 107 488 80.535 488 47.8888C488 15.2427 362.988 -11.2223 208.777 -11.2223C54.5665 -11.2223 -70.4459 15.2427 -70.4459 47.8888C-70.4459 80.535 54.5665 107 208.777 107Z" fill="#0079DE"/>
<path d="M189 106C343.64 106 469 77.5701 469 42.5C469 7.42992 343.64 -21 189 -21C34.3603 -21 -91 7.42992 -91 42.5C-91 77.5701 34.3603 106 189 106Z" fill="#055293"/>
</svg>
