<svg width="100%" height="100%" viewBox="0 0 626 62" fill="none" xmlns="http://www.w3.org/2000/svg">
<path d="M0 0.5H313H626V62L581 39.5L442.5 17L313 13.5L197 17L52.5 38L0 62V0.5Z" fill="#999999"/>
<path fill-rule="evenodd" clip-rule="evenodd" d="M626 62C559.99 33.5346 444.472 14.6681 313 14.6681C292.043 14.6681 271.491 15.1475 251.48 16.0688C280.522 14.0643 310.917 13 342.213 13C455.919 13 557.717 27.0487 626 49.191V62Z" fill="#61B73B"/>
<path fill-rule="evenodd" clip-rule="evenodd" d="M4.00411e-06 50.2253C68.1277 27.4871 171.084 13 286.291 13C319.33 13 351.362 14.1915 381.854 16.4274C359.542 15.2722 336.526 14.6681 313 14.6681C181.528 14.6681 66.0098 33.5346 4.00411e-06 62V50.2253Z" fill="#0079DE"/>
</svg>
