<svg width="14" height="17" viewBox="0 0 14 17" fill="none" xmlns="http://www.w3.org/2000/svg">
<path d="M9.43735 14.077C9.32263 14.6426 9.01611 15.1512 8.56973 15.5165C8.12334 15.8818 7.56456 16.0814 6.98804 16.0814C6.41152 16.0814 5.85273 15.8818 5.40635 15.5165C4.95997 15.1512 4.65345 14.6426 4.53873 14.077H9.43735ZM6.98604 0.0616455C10.1342 0.0616455 12.7284 2.39887 12.9684 5.42174L12.9814 5.64495L12.9864 5.86916L12.9854 9.47859L13.9391 12.068L13.9641 12.1531L13.9801 12.2392L13.9851 12.3283C13.9851 12.6436 13.7891 12.9189 13.4632 13.036L13.3493 13.069L13.2353 13.079H0.740792C0.652388 13.0787 0.564729 13.0628 0.481865 13.032C0.194945 12.9269 0.00599832 12.6596 0 12.3153L0.00399883 12.1982L0.0379894 12.068L0.987723 9.48159L0.989722 5.86015L0.993721 5.63494C1.11669 2.51498 3.75995 0.0616455 6.98604 0.0616455Z" fill="#055293"/>
</svg>
