<svg width="15" height="16" viewBox="0 0 15 16" fill="none" xmlns="http://www.w3.org/2000/svg">
<path d="M14.5 12V9.5C14.5 8.6875 13.8125 8 13 8H12.5V3.5H10.5V8H8.5V3.5H6.5V8H4.5V3.5H2.5V8H2C1.15625 8 0.5 8.6875 0.5 9.5V12C1.375 12 1.46875 11 2.8125 11C4.1875 11 4.28125 12 5.15625 12C6 12 6.15625 11 7.5 11C8.84375 11 8.96875 12 9.8125 12C10.6875 12 10.8125 11 12.1562 11C13.5 11 13.5938 12 14.5 12ZM14.5 16V13C13.125 13 13 12 12.1562 12C11.2812 12 11.1875 13 9.8125 13C8.46875 13 8.375 12 7.5 12C6.625 12 6.5 13 5.15625 13C3.8125 13 3.6875 12 2.8125 12C1.9375 12 1.84375 13 0.5 13V16H14.5ZM3.5 3C4.03125 3 4.5 2.59375 4.5 1.75C4.5 0.9375 3.875 0 3.5 0C3.5 1.28125 2.5 1.03125 2.5 2C2.5 2.5625 2.9375 3 3.5 3ZM7.5 3C8.03125 3 8.5 2.59375 8.5 1.75C8.5 0.9375 7.875 0 7.5 0C7.5 1.28125 6.5 1.03125 6.5 2C6.5 2.5625 6.9375 3 7.5 3ZM11.5 3C12.0312 3 12.5 2.59375 12.5 1.75C12.5 0.9375 11.875 0 11.5 0C11.5 1.28125 10.5 1.03125 10.5 2C10.5 2.5625 10.9375 3 11.5 3Z" fill="#5B5C5B"/>
</svg>
