<svg width="31" height="30" viewBox="0 0 31 30" fill="none" xmlns="http://www.w3.org/2000/svg">
<circle cx="15.5" cy="15" r="15" fill="#3CA70D"/>
<path d="M15.375 20.7344C15.9023 20.7344 16.3594 20.3125 16.3594 19.75V17.5C16.3594 16.9727 15.9023 16.5156 15.375 16.5156C14.8125 16.5156 14.3906 16.9727 14.3906 17.5V19.75C14.3906 20.3125 14.8125 20.7344 15.375 20.7344ZM23.25 14.6875C23.25 13.7734 22.4766 13 21.5625 13H20.4375V11.3828C20.4375 8.57031 18.1875 6.28516 15.375 6.25C12.5625 6.25 10.3125 8.53516 10.3125 11.3125V13H9.1875C8.23828 13 7.5 13.7734 7.5 14.6875V22.5625C7.5 23.5117 8.23828 24.25 9.1875 24.25H21.5625C22.4766 24.25 23.25 23.5117 23.25 22.5625V14.6875ZM12 13V11.3125C12 9.48438 13.5117 7.9375 15.375 7.9375C17.2031 7.9375 18.75 9.48438 18.75 11.3125V13H12ZM21.5625 14.6875V22.5625H9.1875V14.6875H21.5625Z" fill="white"/>
</svg>
