<svg width="14" height="16" viewBox="0 0 14 16" fill="none" xmlns="http://www.w3.org/2000/svg">
<path d="M4 4.625V3.375C4 3.1875 4.15625 3 4.375 3H5.625C5.8125 3 6 3.1875 6 3.375V4.625C6 4.84375 5.8125 5 5.625 5H4.375C4.15625 5 4 4.84375 4 4.625ZM8.375 5C8.15625 5 8 4.84375 8 4.625V3.375C8 3.1875 8.15625 3 8.375 3H9.625C9.8125 3 10 3.1875 10 3.375V4.625C10 4.84375 9.8125 5 9.625 5H8.375ZM4.375 8C4.15625 8 4 7.84375 4 7.625V6.375C4 6.1875 4.15625 6 4.375 6H5.625C5.8125 6 6 6.1875 6 6.375V7.625C6 7.84375 5.8125 8 5.625 8H4.375ZM8.375 8C8.15625 8 8 7.84375 8 7.625V6.375C8 6.1875 8.15625 6 8.375 6H9.625C9.8125 6 10 6.1875 10 6.375V7.625C10 7.84375 9.8125 8 9.625 8H8.375ZM6 10.625C6 10.8438 5.8125 11 5.625 11H4.375C4.15625 11 4 10.8438 4 10.625V9.375C4 9.1875 4.15625 9 4.375 9H5.625C5.8125 9 6 9.1875 6 9.375V10.625ZM8.375 11C8.15625 11 8 10.8438 8 10.625V9.375C8 9.1875 8.15625 9 8.375 9H9.625C9.8125 9 10 9.1875 10 9.375V10.625C10 10.8438 9.8125 11 9.625 11H8.375ZM14 14.875V16H0V14.875C0 14.6875 0.15625 14.5 0.375 14.5H0.96875V0.75C0.96875 0.34375 1.3125 0 1.71875 0H12.25C12.6562 0 13 0.34375 13 0.75V14.5H13.625C13.8125 14.5 14 14.6875 14 14.875ZM2.46875 14.4688H6V12.375C6 12.1875 6.15625 12 6.375 12H7.625C7.8125 12 8 12.1875 8 12.375V14.4688H11.5V1.53125L2.5 1.5L2.46875 14.4688Z" fill="#757575"/>
</svg>
