<svg width="35" height="35" viewBox="0 0 35 35" fill="none" xmlns="http://www.w3.org/2000/svg">
<path d="M16.1593 13.1946L20.1109 9.31354L19.8992 8.89015C19.123 8.67846 18.3468 8.46677 17.5 8.46677C12.4899 8.46677 8.46774 12.5595 8.46774 17.499C8.46774 22.5091 12.4899 26.5313 17.5 26.5313C22.4395 26.5313 26.5323 22.5091 26.5323 17.499C26.5323 16.6522 26.3206 15.876 26.1089 15.0998L25.6855 14.8881L21.8044 18.8397C21.2399 20.6744 19.4758 22.0152 17.5 22.0152C14.9597 22.0152 12.9839 20.0393 12.9839 17.499C12.9839 15.5232 14.3246 13.7591 16.1593 13.1946ZM34.1532 12.2772L31.6129 14.747C31.2601 15.1704 30.7661 15.4527 30.2722 15.5938C30.4133 16.2289 30.4839 16.8639 30.4839 17.499C30.4839 24.6966 24.627 30.4829 17.5 30.4829C10.3024 30.4829 4.51613 24.6966 4.51613 17.499C4.51613 10.372 10.3024 4.51515 17.5 4.51515C18.1351 4.51515 18.7702 4.58572 19.4052 4.72685C19.6169 4.23289 19.8286 3.73894 20.252 3.38612L22.7218 0.845798C21.3105 0.422411 18.9819 -0.000976562 17.5 -0.000976562C7.83266 -0.000976562 0 7.90225 0 17.499C0 27.1664 7.83266 34.999 17.5 34.999C27.0968 34.999 35 27.1664 35 17.499C35 15.6643 34.6472 13.9002 34.1532 12.2772Z" fill="#3CA70D"/>
<path d="M22.6513 9.89663L21.5222 6.36841C21.4517 6.22728 21.3811 6.08615 21.3811 5.94502C21.3811 5.5922 21.5928 5.16881 21.8751 4.88655L26.3206 0.440986C27.0968 -0.335223 28.367 -0.0529654 28.7198 1.0055L30.0606 4.88655L33.9416 6.22728C35.0001 6.5801 35.2823 7.85026 34.5061 8.62647L30.0606 13.072C29.6372 13.4954 29.0727 13.6366 28.5787 13.4249L25.0505 12.2958L18.6291 18.6466C17.994 19.3523 16.9356 19.3523 16.3005 18.6466C15.5948 18.0116 15.5948 16.9531 16.3005 16.318L22.6513 9.89663Z" fill="#055293"/>
</svg>
