<svg width="26" height="31" viewBox="0 0 26 31" fill="none" xmlns="http://www.w3.org/2000/svg">
<path d="M1.15551 11.5728C0.757465 11.5728 0.473145 11.9221 0.473145 12.2714V27.4092C0.473145 28.9812 1.66729 30.2038 3.20262 30.2038H23.2188C24.6972 30.2038 25.9482 28.9812 25.9482 27.4092V12.2714C25.9482 11.9221 25.607 11.5728 25.2659 11.5728H1.15551ZM19.1245 19.7239V22.0527C19.1245 22.4603 18.7834 22.7514 18.4422 22.7514H15.0303V26.2447C15.0303 26.6523 14.6891 26.9434 14.348 26.9434H12.0734C11.6754 26.9434 11.391 26.6523 11.391 26.2447V22.7514H7.97919C7.58115 22.7514 7.29683 22.4603 7.29683 22.0527V19.7239C7.29683 19.3745 7.58115 19.0252 7.97919 19.0252H11.391V15.5319C11.391 15.1825 11.6754 14.8332 12.0734 14.8332H14.348C14.6891 14.8332 15.0303 15.1825 15.0303 15.5319V19.0252H18.4422C18.7834 19.0252 19.1245 19.3745 19.1245 19.7239Z" fill="#3CA70D"/>
<path d="M25.9482 9.01133C25.9482 9.41888 25.607 9.70999 25.2659 9.70999H1.15551C0.757465 9.70999 0.473145 9.41888 0.473145 9.01133V6.91535C0.473145 5.40159 1.66729 4.12071 3.20262 4.12071H5.93209V1.09319C5.93209 0.743861 6.21641 0.394531 6.61446 0.394531H8.88902C9.2302 0.394531 9.57139 0.743861 9.57139 1.09319V4.12071H16.85V1.09319C16.85 0.743861 17.1343 0.394531 17.5323 0.394531H19.8069C20.1481 0.394531 20.4893 0.743861 20.4893 1.09319V4.12071H23.2188C24.6972 4.12071 25.9482 5.40159 25.9482 6.91535V9.01133Z" fill="#055293"/>
</svg>
