<svg width="22" height="24" viewBox="0 0 22 24" fill="none" xmlns="http://www.w3.org/2000/svg">
<path d="M18.5 3H17V0.75C17 0.375 16.625 0 16.25 0C15.8281 0 15.5 0.375 15.5 0.75V3H6.5V0.75C6.5 0.375 6.125 0 5.75 0C5.32812 0 5 0.375 5 0.75V3H3.5C1.8125 3 0.5 4.35938 0.5 6V21C0.5 22.6875 1.8125 24 3.5 24H18.5C20.1406 24 21.5 22.6875 21.5 21V6C21.5 4.35938 20.1406 3 18.5 3ZM20 21C20 21.8438 19.2969 22.5 18.5 22.5H3.5C2.65625 22.5 2 21.8438 2 21V9H20V21ZM20 7.5H2V6C2 5.20312 2.65625 4.5 3.5 4.5H18.5C19.2969 4.5 20 5.20312 20 6V7.5ZM10.5312 20.0625C10.7656 20.3438 11.1875 20.3438 11.4219 20.0625L15.4062 16.0781C16.5781 14.9062 16.4844 12.9844 15.2188 11.9062C14.5625 11.3438 12.9688 10.5469 11 12.5625C8.98438 10.5469 7.39062 11.3438 6.73438 11.9062C5.46875 12.9844 5.375 14.9062 6.54688 16.0781L10.5312 20.0625ZM7.71875 13.0312C8.32812 12.5156 9.17188 12.8906 9.5 13.2188L11 14.7188L12.4531 13.2188C12.7812 12.8906 13.625 12.5156 14.2344 13.0312C14.9375 13.5938 14.8438 14.5312 14.3281 15L10.9531 18.4219L7.625 15C7.10938 14.5312 7.01562 13.5938 7.71875 13.0312Z" fill="#055293"/>
</svg>
