<svg width="18" height="20" viewBox="0 0 18 20" fill="none" xmlns="http://www.w3.org/2000/svg">
<path d="M15 2.5H13.4375V0.9375C13.4375 0.429688 13.0078 0 12.5 0C12.0312 0 11.5625 0.429688 11.5625 0.9375V2.5H5.9375V0.9375C5.9375 0.429688 5.50781 0 5 0C4.45312 0 4.0625 0.429688 4.0625 0.9375V2.5H2.5C1.09375 2.5 0 3.63281 0 5V17.5C0 18.9062 1.09375 20 2.5 20H15C16.3672 20 17.5 18.9062 17.5 17.5V5C17.5 3.63281 16.3672 2.5 15 2.5ZM15.625 17.5C15.625 17.8516 15.3125 18.125 15 18.125H2.5C2.14844 18.125 1.875 17.8516 1.875 17.5V7.5H15.625V17.5ZM4.375 15H8.125C8.4375 15 8.75 14.7266 8.75 14.375V10.625C8.75 10.3125 8.4375 10 8.125 10H4.375C4.02344 10 3.75 10.3125 3.75 10.625V14.375C3.75 14.7266 4.02344 15 4.375 15Z" fill="#757575"/>
</svg>
