<svg width="15" height="17" viewBox="0 0 15 17" fill="none" xmlns="http://www.w3.org/2000/svg">
<path d="M12.4138 2.26562C13.5076 2.26562 14.4138 3.17188 14.4138 4.26562V14.2656C14.4138 15.3906 13.5076 16.2656 12.4138 16.2656H2.41382C1.28882 16.2656 0.413818 15.3906 0.413818 14.2656V4.26562C0.413818 3.17188 1.28882 2.26562 2.41382 2.26562H3.66382V1.01562C3.66382 0.609375 3.97632 0.265625 4.41382 0.265625C4.82007 0.265625 5.16382 0.609375 5.16382 1.01562V2.26562H9.66382V1.01562C9.66382 0.609375 10.0388 0.265625 10.4138 0.265625C10.8201 0.265625 11.1638 0.609375 11.1638 1.01562V2.26562H12.4138ZM12.9138 6.26562H8.16382V9.51562H12.9138V6.26562ZM6.66382 6.26562H1.91382V9.51562H6.66382V6.26562ZM1.91382 14.2656C1.91382 14.5469 2.13257 14.7656 2.41382 14.7656H6.66382V11.0156H1.91382V14.2656ZM12.4138 14.7656C12.6638 14.7656 12.9138 14.5469 12.9138 14.2656V11.0156H8.16382V14.7656H12.4138Z" fill="#757575"/>
</svg>
