<svg width="15" height="17" viewBox="0 0 15 17" fill="none" xmlns="http://www.w3.org/2000/svg">
<path d="M12.5938 2.5C13.6875 2.5 14.5938 3.40625 14.5938 4.5V14.5C14.5938 15.625 13.6875 16.5 12.5938 16.5H2.59375C1.46875 16.5 0.59375 15.625 0.59375 14.5V4.5C0.59375 3.40625 1.46875 2.5 2.59375 2.5H3.84375V1.25C3.84375 0.84375 4.15625 0.5 4.59375 0.5C5 0.5 5.34375 0.84375 5.34375 1.25V2.5H9.84375V1.25C9.84375 0.84375 10.2188 0.5 10.5938 0.5C11 0.5 11.3438 0.84375 11.3438 1.25V2.5H12.5938ZM13.0938 14.5V6.5H2.09375V14.5C2.09375 14.7812 2.3125 15 2.59375 15H12.5938C12.8438 15 13.0938 14.7812 13.0938 14.5ZM4.09375 12.5C3.8125 12.5 3.59375 12.2812 3.59375 12V9C3.59375 8.75 3.8125 8.5 4.09375 8.5H7.09375C7.34375 8.5 7.59375 8.75 7.59375 9V12C7.59375 12.2812 7.34375 12.5 7.09375 12.5H4.09375Z" fill="#5B5C5B"/>
</svg>
