<svg width="42" height="47" viewBox="0 0 42 47" fill="none" xmlns="http://www.w3.org/2000/svg">
<circle cx="20.0001" cy="11.467" r="11.467" fill="url(#paint0_linear_188_1803)"/>
<circle cx="20.0028" cy="11.467" r="11.217" stroke="url(#paint1_linear_188_1803)" stroke-width="0.5" style="mix-blend-mode:overlay"/>
<path d="M11.3997 22.9328C12.8695 22.8292 14.6055 23.6394 16.1316 24.6207C18.4406 26.1055 21.5593 26.1055 23.8684 24.6207C25.3944 23.6394 27.1304 22.8292 28.6002 22.9328C35.8281 23.4423 39.1116 32.4894 39.1116 38.2221C36.7015 40.7502 27.6932 43 20 43C12.3067 43 3.2984 40.7502 0.888306 38.2221C0.888489 32.4894 4.17184 23.4423 11.3997 22.9328Z" fill="url(#paint2_linear_188_1803)"/>
<mask id="path-4-inside-1_188_1803" fill="white">
<path d="M11.3997 22.9328C12.8695 22.8292 14.6055 23.6394 16.1316 24.6207C18.4406 26.1055 21.5593 26.1055 23.8684 24.6207C25.3944 23.6394 27.1304 22.8292 28.6002 22.9328C35.8281 23.4423 39.1116 32.4894 39.1116 38.2221C36.7015 40.7502 27.6932 43 20 43C12.3067 43 3.2984 40.7502 0.888306 38.2221C0.888489 32.4894 4.17184 23.4423 11.3997 22.9328Z"/>
</mask>
<path d="M11.3997 22.9328L11.3645 22.434L11.3997 22.9328ZM28.6002 22.9328L28.565 23.4315L28.6002 22.9328ZM39.1116 38.2221L39.4735 38.5671L39.6116 38.4222V38.2221H39.1116ZM0.888306 38.2221L0.388306 38.2221L0.388299 38.4222L0.526408 38.5671L0.888306 38.2221ZM23.8684 24.6207L23.5979 24.2002L23.8684 24.6207ZM1.38831 38.2221C1.38839 35.4352 2.19019 31.8263 3.86861 28.8653C5.54605 25.906 8.04927 23.6702 11.4349 23.4315L11.3645 22.434C7.52229 22.7049 4.76989 25.2474 2.99865 28.3722C1.22837 31.4953 0.3884 35.2763 0.388306 38.2221L1.38831 38.2221ZM38.7497 37.8771C38.2162 38.4367 37.2741 39.0192 35.9913 39.5766C34.7194 40.1293 33.1545 40.6395 31.4157 41.074C27.9375 41.9433 23.8028 42.5 20 42.5V43.5C23.8903 43.5 28.1065 42.9318 31.6582 42.0442C33.4345 41.6002 35.0544 41.074 36.3898 40.4938C37.7142 39.9183 38.802 39.2715 39.4735 38.5671L38.7497 37.8771ZM20 42.5C16.1971 42.5 12.0624 41.9433 8.58417 41.074C6.84547 40.6395 5.28056 40.1292 4.00865 39.5766C2.72578 39.0192 1.7837 38.4367 1.2502 37.8771L0.526408 38.5671C1.19796 39.2715 2.2857 39.9183 3.61014 40.4938C4.94554 41.074 6.56543 41.6002 8.34171 42.0442C11.8935 42.9318 16.1096 43.5 20 43.5V42.5ZM11.4349 23.4315C12.7291 23.3403 14.3438 24.0656 15.8611 25.0413L16.402 24.2002C14.8671 23.2132 13.0098 22.318 11.3645 22.434L11.4349 23.4315ZM24.1388 25.0413C25.6561 24.0656 27.2708 23.3403 28.565 23.4315L28.6354 22.434C26.9901 22.318 25.1328 23.2132 23.5979 24.2002L24.1388 25.0413ZM28.565 23.4315C31.9506 23.6702 34.4539 25.906 36.1314 28.8653C37.8098 31.8263 38.6116 35.4352 38.6116 38.2221H39.6116C39.6116 35.2763 38.7716 31.4953 37.0013 28.3722C35.2301 25.2474 32.4776 22.7049 28.6354 22.434L28.565 23.4315ZM15.8611 25.0413C18.3349 26.632 21.665 26.632 24.1388 25.0413L23.5979 24.2002C21.4536 25.579 18.5463 25.579 16.402 24.2002L15.8611 25.0413Z" fill="url(#paint3_linear_188_1803)" style="mix-blend-mode:overlay" mask="url(#path-4-inside-1_188_1803)"/>
<g filter="url(#filter0_bd_188_1803)">
<path d="M9.0925 29.577L15.4838 26.8265C16.2461 26.5339 17.1257 26.7094 17.5947 27.3532L19.1752 29.2891C19.7611 30.0068 20.769 30.237 21.569 29.7698C24.5683 28.0183 27.0519 25.5404 28.8078 22.5478C29.278 21.7465 29.0468 20.7353 28.326 20.1492L26.3902 18.5749C25.7452 18.1068 25.5693 17.2289 25.8624 16.4681L28.6183 10.0893C28.9702 9.32849 29.8497 8.86031 30.6706 9.03588L36.5929 10.4404C37.4724 10.616 38.0001 11.3182 38.0001 12.1961C38.0001 26.9435 25.9797 38.999 11.2034 38.999C10.3239 38.999 9.62023 38.4138 9.44432 37.536L8.03705 31.6838C7.86114 30.806 8.33023 29.9281 9.0925 29.577Z" fill="url(#paint4_radial_188_1803)" fill-opacity="0.5" shape-rendering="crispEdges"/>
</g>
<path d="M17.3927 27.5004L17.3924 27.5006L17.4011 27.5113L18.9816 29.4472C19.6376 30.2508 20.7787 30.5209 21.6951 29.9857C24.7313 28.2126 27.2458 25.7039 29.0234 22.6743C29.5621 21.7563 29.2908 20.6115 28.4837 19.9552L26.5479 18.381L26.5481 18.3807L26.537 18.3726C26.0033 17.9852 25.8353 17.2392 26.094 16.5626L28.8465 10.1914C29.1526 9.53317 29.917 9.13177 30.6157 9.2798L36.5352 10.6837L36.5351 10.6838L36.5439 10.6856C37.2982 10.8361 37.7501 11.4287 37.7501 12.1961C37.7501 26.8057 25.8414 38.749 11.2034 38.749C10.4461 38.749 9.84256 38.251 9.68944 37.4869L9.68962 37.4868L9.68739 37.4775L8.28128 31.6302C8.13097 30.869 8.53952 30.1086 9.19438 29.8053L15.5779 27.0582C16.2565 26.7997 17.0045 26.9677 17.3927 27.5004Z" stroke="white" stroke-width="0.5"/>
<defs>
<filter id="filter0_bd_188_1803" x="4.00012" y="6.99902" width="38" height="40" filterUnits="userSpaceOnUse" color-interpolation-filters="sRGB">
<feFlood flood-opacity="0" result="BackgroundImageFix"/>
<feGaussianBlur in="BackgroundImage" stdDeviation="1"/>
<feComposite in2="SourceAlpha" operator="in" result="effect1_backgroundBlur_188_1803"/>
<feColorMatrix in="SourceAlpha" type="matrix" values="0 0 0 0 0 0 0 0 0 0 0 0 0 0 0 0 0 0 127 0" result="hardAlpha"/>
<feOffset dy="4"/>
<feGaussianBlur stdDeviation="2"/>
<feComposite in2="hardAlpha" operator="out"/>
<feColorMatrix type="matrix" values="0 0 0 0 0 0 0 0 0 0 0 0 0 0 0 0 0 0 0.35 0"/>
<feBlend mode="normal" in2="effect1_backgroundBlur_188_1803" result="effect2_dropShadow_188_1803"/>
<feBlend mode="normal" in="SourceGraphic" in2="effect2_dropShadow_188_1803" result="shape"/>
</filter>
<linearGradient id="paint0_linear_188_1803" x1="13.6932" y1="5.94585" x2="25.8051" y2="11.6332" gradientUnits="userSpaceOnUse">
<stop stop-color="#4AC0AF"/>
<stop offset="1" stop-color="#0069A7"/>
</linearGradient>
<linearGradient id="paint1_linear_188_1803" x1="20.0028" y1="2.5084" x2="32.8293" y2="14.8769" gradientUnits="userSpaceOnUse">
<stop stop-color="white" stop-opacity="0.51"/>
<stop offset="1" stop-opacity="0.44"/>
</linearGradient>
<linearGradient id="paint2_linear_188_1803" x1="9.48855" y1="28.1288" x2="23.1817" y2="40.3706" gradientUnits="userSpaceOnUse">
<stop stop-color="#4AC0AF"/>
<stop offset="1" stop-color="#0069A7"/>
</linearGradient>
<linearGradient id="paint3_linear_188_1803" x1="20" y1="25.1197" x2="29.4393" y2="42.4495" gradientUnits="userSpaceOnUse">
<stop stop-color="white" stop-opacity="0.51"/>
<stop offset="1" stop-opacity="0.44"/>
</linearGradient>
<radialGradient id="paint4_radial_188_1803" cx="0" cy="0" r="1" gradientUnits="userSpaceOnUse" gradientTransform="translate(4.3977 6.11131) rotate(75.2525) scale(34.1002 21.8712)">
<stop stop-color="white"/>
<stop offset="1" stop-color="#C9C5C5"/>
</radialGradient>
</defs>
</svg>
