<svg width="29" height="23" viewBox="0 0 29 23" fill="none" xmlns="http://www.w3.org/2000/svg">
<path d="M26.9219 13.1094L20.6875 4.71875C18.9531 2.375 15.6719 1.90625 13.375 3.64062C12.4375 4.29688 11.8281 5.1875 11.5 6.17188L11.4531 5.75C11.4531 2.89062 9.10938 0.5 6.20312 0.5C3.25 0.5 0.953125 2.89062 0.953125 5.75V16.25C0.953125 19.1562 3.34375 21.5 6.20312 21.5C9.10938 21.5 11.4531 19.1562 11.4531 16.25L11.5 9.45312C11.6406 10.0156 11.875 10.5312 12.25 11L18.4844 19.3906C20.2188 21.7344 23.5 22.2031 25.8438 20.4688C28.1875 18.7344 28.6562 15.4531 26.9219 13.1094ZM9.25 11H3.25V5.75C3.25 1.8125 9.25 1.8125 9.25 5.75V11ZM17.1719 13.8594L14.0312 9.64062C11.6875 6.45312 16.4688 2.89062 18.8594 6.07812L22 10.25L17.1719 13.8594Z" fill="#48AC1C"/>
</svg>
