<?xml version="1.0" encoding="utf-8"?>
<!-- Generator: Adobe Illustrator 16.0.3, SVG Export Plug-In . SVG Version: 6.00 Build 0)  -->
<!DOCTYPE svg PUBLIC "-//W3C//DTD SVG 1.1//EN" "http://www.w3.org/Graphics/SVG/1.1/DTD/svg11.dtd">
<svg version="1.1" id="Capa_1" xmlns="http://www.w3.org/2000/svg" xmlns:xlink="http://www.w3.org/1999/xlink" x="0px" y="0px"
	 width="49px" height="49px" viewBox="0 0 49 49" enable-background="new 0 0 49 49" xml:space="preserve">
<radialGradient id="SVGID_1_" cx="-1167.418" cy="-102.7539" r="11.3383" gradientTransform="matrix(-1.7378 0.0593 0.219 -0.9649 -1983.2723 4.4346)" gradientUnits="userSpaceOnUse">
	<stop  offset="0.0887" style="stop-color:#165D7F;stop-opacity:0.6"/>
	<stop  offset="1" style="stop-color:#0B304A;stop-opacity:0"/>
</radialGradient>
<path fill="url(#SVGID_1_)" d="M16.712,58.188l-2.625-1.413C2.496,50.539-3.539,35.106,0.614,22.301l0,0
	C4.763,9.503,17.528,4.183,29.12,10.416l2.625,1.415c11.596,6.238,17.631,21.67,13.477,34.469l0,0
	C41.071,59.104,28.306,64.424,16.712,58.188z"/>
<linearGradient id="SVGID_2_" gradientUnits="userSpaceOnUse" x1="-568.2705" y1="545.5752" x2="-533.1976" y2="582.8415" gradientTransform="matrix(1 0 0 1 575.4004 -546.6406)">
	<stop  offset="0.2357" style="stop-color:#4AC0AF"/>
	<stop  offset="0.7643" style="stop-color:#0169A7"/>
</linearGradient>
<path fill="url(#SVGID_2_)" d="M23.568,0h2.198c9.702,0,17.568,7.866,17.568,17.568l0,0c0,9.704-7.866,17.569-17.568,17.569h-2.198
	C13.865,35.137,6,27.271,6,17.568l0,0C6,7.866,13.865,0,23.568,0z"/>
<g>
	
		<linearGradient id="SVGID_3_" gradientUnits="userSpaceOnUse" x1="-561.6289" y1="559.9482" x2="-548.8291" y2="585.5479" gradientTransform="matrix(1 0 0 1 575.4004 -546.6406)">
		<stop  offset="0" style="stop-color:#D9D9D9;stop-opacity:0.5"/>
		<stop  offset="1" style="stop-color:#D9D9D9;stop-opacity:0.6"/>
	</linearGradient>
	<path shape-rendering="crispEdges" fill="url(#SVGID_3_)" d="M23.289,24.227c0.383,0.383,0.984,0.383,1.367,0l5.906-6.234
		c1.75-1.805,1.641-4.813-0.273-6.508c-1.695-1.477-4.211-1.203-5.742,0.438l-0.602,0.602l-0.602-0.602
		c-1.531-1.641-4.047-1.914-5.742-0.438c-1.914,1.695-2.023,4.703-0.273,6.508L23.289,24.227z M39.313,28.93
		c-0.711-0.984-2.078-1.203-3.063-0.492l-6.563,4.867H23.07c-0.438,0-0.82-0.438-0.82-0.875c0-0.437,0.438-0.82,0.82-0.82h4.321
		c0.819,0,1.641-0.602,1.805-1.422c0.164-1.039-0.656-2.078-1.75-2.078h-8.75c-1.422,0-2.953,0.547-4.102,1.478l-2.516,2.022H9.07
		c-0.492,0-0.82,0.438-0.82,0.875v5.142c0,0.492,0.383,0.875,0.82,0.875h18.922c1.203,0,2.406-0.383,3.336-1.095l7.438-5.413
		C39.805,31.281,40.023,29.914,39.313,28.93z"/>
	<path fill="#FFFFFF" d="M23.289,24.227L23.108,24.4l0.004,0.004L23.289,24.227z M24.656,24.227l0.177,0.177l0.005-0.005
		L24.656,24.227z M30.563,17.992l-0.18-0.174l-0.002,0.002L30.563,17.992z M30.289,11.484l0.166-0.187l-0.002-0.001L30.289,11.484z
		 M24.547,11.922l0.177,0.177l0.006-0.006L24.547,11.922z M23.945,12.523L23.769,12.7l0.177,0.177l0.177-0.177L23.945,12.523z
		 M23.344,11.922l-0.183,0.171l0.006,0.006L23.344,11.922z M17.602,11.484l-0.164-0.188l-0.002,0.001L17.602,11.484z M17.328,17.992
		l0.181-0.173l-0.001-0.001L17.328,17.992z M36.25,28.438l-0.146-0.203l-0.002,0.002L36.25,28.438z M29.688,33.305v0.25h0.082
		l0.066-0.049L29.688,33.305z M29.195,30.188l0.246,0.049v-0.01L29.195,30.188z M14.594,29.586l0.157,0.195v-0.002L14.594,29.586z
		 M12.078,31.609v0.25h0.088l0.069-0.055L12.078,31.609z M31.328,37.406l-0.146-0.202l-0.006,0.003L31.328,37.406z M38.766,31.992
		l-0.141-0.207l-0.006,0.005L38.766,31.992z M23.112,24.403c0.48,0.48,1.24,0.48,1.721,0l-0.354-0.354
		c-0.285,0.285-0.729,0.285-1.014,0L23.112,24.403z M24.838,24.398l5.906-6.234l-0.363-0.344l-5.906,6.234L24.838,24.398z
		 M30.742,18.166c1.85-1.908,1.732-5.08-0.287-6.869l-0.332,0.374c1.809,1.602,1.91,4.445,0.26,6.147L30.742,18.166z M30.453,11.296
		c-1.809-1.575-4.477-1.272-6.089,0.456l0.365,0.341c1.451-1.554,3.813-1.797,5.396-0.419L30.453,11.296z M24.37,11.745
		l-0.602,0.602l0.354,0.354l0.602-0.602L24.37,11.745z M24.122,12.347l-0.602-0.602l-0.354,0.354l0.602,0.602L24.122,12.347z
		 M23.526,11.751c-1.612-1.728-4.28-2.031-6.089-0.456l0.328,0.377c1.582-1.378,3.945-1.134,5.396,0.419L23.526,11.751z
		 M17.436,11.297c-2.02,1.789-2.137,4.961-0.287,6.869l0.359-0.348c-1.65-1.702-1.549-4.545,0.259-6.147L17.436,11.297z
		 M17.147,18.165l5.961,6.234l0.361-0.346l-5.961-6.234L17.147,18.165z M39.516,28.783c-0.793-1.098-2.315-1.34-3.412-0.549
		l0.293,0.406c0.873-0.632,2.084-0.438,2.713,0.436L39.516,28.783z M36.102,28.236l-6.563,4.867l0.297,0.401l6.563-4.866
		L36.102,28.236z M29.688,33.055H23.07v0.5h6.618V33.055L29.688,33.055z M23.07,33.055c-0.134,0-0.276-0.068-0.39-0.191
		c-0.114-0.125-0.18-0.284-0.18-0.434H22c0,0.289,0.125,0.566,0.312,0.771c0.187,0.203,0.455,0.354,0.758,0.354V33.055z M22.5,32.43
		c0-0.135,0.069-0.277,0.189-0.394c0.122-0.116,0.268-0.177,0.381-0.177v-0.5c-0.27,0-0.534,0.131-0.727,0.314
		C22.15,31.859,22,32.127,22,32.43H22.5z M23.07,31.859h4.321v-0.5H23.07V31.859z M27.391,31.859c0.926,0,1.859-0.674,2.051-1.623
		l-0.49-0.098c-0.139,0.69-0.846,1.221-1.561,1.221V31.859z M29.441,30.227c0.188-1.182-0.74-2.367-1.996-2.367v0.5
		c0.932,0,1.645,0.894,1.503,1.789L29.441,30.227z M27.445,27.859h-8.75v0.5h8.75V27.859z M18.695,27.859
		c-1.48,0-3.067,0.566-4.259,1.531l0.314,0.389c1.105-0.895,2.582-1.42,3.944-1.42L18.695,27.859L18.695,27.859z M14.437,29.391
		l-2.516,2.023l0.313,0.391l2.516-2.023L14.437,29.391z M12.078,31.359H9.07v0.5h3.008V31.359z M9.07,31.359
		c-0.66,0-1.07,0.582-1.07,1.125h0.5c0-0.332,0.247-0.625,0.57-0.625V31.359z M8,32.484v5.141h0.5v-5.141H8z M8,37.625
		c0,0.619,0.484,1.125,1.07,1.125v-0.5c-0.289,0-0.57-0.26-0.57-0.625H8z M9.07,38.75h18.922v-0.5H9.07V38.75z M27.992,38.75
		c1.254,0,2.512-0.398,3.488-1.145l-0.306-0.398c-0.883,0.676-2.03,1.043-3.184,1.043L27.992,38.75L27.992,38.75z M31.475,37.607
		l7.438-5.414L38.62,31.79l-7.438,5.414L31.475,37.607z M38.906,32.199c1.156-0.791,1.402-2.318,0.609-3.416l-0.406,0.293
		c0.629,0.871,0.438,2.078-0.484,2.709L38.906,32.199z"/>
</g>
</svg>
