<svg width="30" height="24" viewBox="0 0 30 24" fill="none" xmlns="http://www.w3.org/2000/svg">
<path d="M16.5 6C16.5 9.32812 13.7812 12 10.4531 12C7.17188 12 4.45312 9.32812 4.45312 6C4.45312 2.71875 7.17188 0 10.4531 0C13.7812 0 16.5 2.71875 16.5 6ZM5.95312 6C5.95312 8.48438 7.96875 10.5 10.4531 10.5C12.9844 10.5 14.9531 8.48438 14.9531 6C14.9531 3.51562 12.9844 1.5 10.4531 1.5C7.96875 1.5 5.95312 3.51562 5.95312 6ZM12.6562 14.25C17.25 14.25 21 18 21 22.5938C21 23.3906 20.3438 24 19.5469 24H1.40625C0.609375 24 0 23.3906 0 22.5938C0 18 3.70312 14.25 8.29688 14.25H12.6562ZM7.45312 20.25C7.875 20.25 8.20312 19.9219 8.20312 19.5C8.20312 19.125 7.875 18.75 7.45312 18.75C7.07812 18.75 6.70312 19.125 6.70312 19.5C6.70312 19.9219 7.07812 20.25 7.45312 20.25ZM9.70312 19.5C9.70312 20.7656 8.71875 21.75 7.45312 21.75C6.23438 21.75 5.20312 20.7656 5.20312 19.5C5.20312 18.5625 5.85938 17.7188 6.70312 17.3906V15.9375C3.75 16.6406 1.5 19.3125 1.5 22.5H19.4531C19.4531 19.5938 17.5781 17.1094 14.9531 16.1719V17.3906C15.8438 17.7188 16.5 18.5625 16.5 19.5V21C16.5 21.4219 16.125 21.75 15.75 21.75C15.3281 21.75 14.9531 21.4219 14.9531 21V19.5C14.9531 19.125 14.625 18.75 14.2031 18.75C13.8281 18.75 13.4531 19.125 13.4531 19.5V21C13.4531 21.4219 13.125 21.75 12.7031 21.75C12.3281 21.75 11.9531 21.4219 11.9531 21V19.5C11.9531 18.5625 12.6094 17.7188 13.4531 17.3906V15.7969C13.2188 15.7969 12.9375 15.75 12.6562 15.75H8.29688H8.20312V17.3906C9.09375 17.7188 9.70312 18.5625 9.70312 19.5ZM21.5625 13.4531C21.4688 13.5469 21.3281 13.5469 21.1875 13.5C21.0469 13.4062 21 13.2656 21 13.125V10.5H20.25C18.9844 10.5 18 9.51562 18 8.25V2.25C18 1.03125 18.9844 0 20.25 0H27.75C28.9688 0 30 1.03125 30 2.25V8.25C30 9.51562 28.9688 10.5 27.75 10.5H25.5L21.5625 13.4531ZM27.75 9C28.125 9 28.5 8.67188 28.5 8.25V2.25C28.5 1.875 28.125 1.5 27.75 1.5H20.25C19.8281 1.5 19.5 1.875 19.5 2.25V8.25C19.5 8.67188 19.8281 9 20.25 9H22.5V10.875L24.9844 9H27.75Z" fill="#055293"/>
</svg>
