<svg width="46" height="46" viewBox="0 0 46 46" fill="none" xmlns="http://www.w3.org/2000/svg">
<path d="M27.6477 11.1714C28.2 11.1714 28.6506 11.6207 28.6325 12.1727C28.3263 21.5115 23.689 24.3898 18.0134 24.3898C12.3377 24.3898 7.72709 21.5115 7.42264 12.1727C7.40465 11.6207 7.85326 11.1714 8.40554 11.1714C10.1933 11.1714 13.1858 11.1714 18.0134 11.1714C23.2739 11.1714 24.9302 11.1714 27.6477 11.1714Z" fill="url(#paint0_linear_188_1752)"/>
<mask id="path-2-inside-1_188_1752" fill="white">
<path d="M27.6477 11.1714C28.2 11.1714 28.6506 11.6207 28.6325 12.1727C28.3263 21.5115 23.689 24.3898 18.0134 24.3898C12.3377 24.3898 7.72709 21.5115 7.42264 12.1727C7.40465 11.6207 7.85326 11.1714 8.40554 11.1714C10.1933 11.1714 13.1858 11.1714 18.0134 11.1714C23.2739 11.1714 24.9302 11.1714 27.6477 11.1714Z"/>
</mask>
<path d="M28.6325 12.1727L28.1328 12.1563L28.6325 12.1727ZM28.1328 12.1563C27.9821 16.7509 26.7692 19.6623 24.9848 21.4279C23.2024 23.1915 20.7708 23.8898 18.0134 23.8898V24.8898C20.9316 24.8898 23.6564 24.149 25.6881 22.1387C27.7178 20.1305 28.9767 16.9333 29.1322 12.1891L28.1328 12.1563ZM18.0134 23.8898C15.256 23.8898 12.8315 23.1915 11.0561 21.4285C9.27838 19.6631 8.07219 16.7517 7.92238 12.1564L6.92291 12.189C7.07755 16.9325 8.32891 20.1296 10.3515 22.1381C12.3765 24.149 15.0951 24.8898 18.0134 24.8898V23.8898ZM8.40554 11.6714C8.40904 11.6714 8.41253 11.6714 8.41603 11.6714C8.41953 11.6714 8.42304 11.6714 8.42655 11.6714C8.43006 11.6714 8.43357 11.6714 8.43709 11.6714C8.44061 11.6714 8.44414 11.6714 8.44767 11.6714C8.45119 11.6714 8.45473 11.6714 8.45826 11.6714C8.4618 11.6714 8.46535 11.6714 8.46889 11.6714C8.47244 11.6714 8.47599 11.6714 8.47955 11.6714C8.4831 11.6714 8.48666 11.6714 8.49023 11.6714C8.4938 11.6714 8.49737 11.6714 8.50094 11.6714C8.50452 11.6714 8.5081 11.6714 8.51168 11.6714C8.51526 11.6714 8.51885 11.6714 8.52245 11.6714C8.52604 11.6714 8.52964 11.6714 8.53324 11.6714C8.53684 11.6714 8.54045 11.6714 8.54406 11.6714C8.54767 11.6714 8.55129 11.6714 8.55491 11.6714C8.55853 11.6714 8.56216 11.6714 8.56579 11.6714C8.56942 11.6714 8.57306 11.6714 8.5767 11.6714C8.58034 11.6714 8.58398 11.6714 8.58763 11.6714C8.59128 11.6714 8.59493 11.6714 8.59859 11.6714C8.60225 11.6714 8.60591 11.6714 8.60958 11.6714C8.61325 11.6714 8.61692 11.6714 8.6206 11.6714C8.62428 11.6714 8.62796 11.6714 8.63165 11.6714C8.63533 11.6714 8.63903 11.6714 8.64272 11.6714C8.64642 11.6714 8.65012 11.6714 8.65382 11.6714C8.65753 11.6714 8.66124 11.6714 8.66496 11.6714C8.66867 11.6714 8.67239 11.6714 8.67611 11.6714C8.67984 11.6714 8.68357 11.6714 8.6873 11.6714C8.69104 11.6714 8.69477 11.6714 8.69852 11.6714C8.70226 11.6714 8.70601 11.6714 8.70976 11.6714C8.71352 11.6714 8.71727 11.6714 8.72103 11.6714C8.7248 11.6714 8.72856 11.6714 8.73234 11.6714C8.73611 11.6714 8.73988 11.6714 8.74366 11.6714C8.74745 11.6714 8.75123 11.6714 8.75502 11.6714C8.75881 11.6714 8.76261 11.6714 8.76641 11.6714C8.77021 11.6714 8.77401 11.6714 8.77782 11.6714C8.78163 11.6714 8.78545 11.6714 8.78927 11.6714C8.79309 11.6714 8.79691 11.6714 8.80074 11.6714C8.80457 11.6714 8.8084 11.6714 8.81224 11.6714C8.81608 11.6714 8.81992 11.6714 8.82377 11.6714C8.82762 11.6714 8.83147 11.6714 8.83533 11.6714C8.83918 11.6714 8.84305 11.6714 8.84691 11.6714C8.85078 11.6714 8.85465 11.6714 8.85853 11.6714C8.8624 11.6714 8.86629 11.6714 8.87017 11.6714C8.87406 11.6714 8.87795 11.6714 8.88184 11.6714C8.88574 11.6714 8.88964 11.6714 8.89355 11.6714C8.89745 11.6714 8.90136 11.6714 8.90528 11.6714C8.90919 11.6714 8.91311 11.6714 8.91703 11.6714C8.92096 11.6714 8.92489 11.6714 8.92882 11.6714C8.93276 11.6714 8.9367 11.6714 8.94064 11.6714C8.94458 11.6714 8.94853 11.6714 8.95249 11.6714C8.95644 11.6714 8.9604 11.6714 8.96436 11.6714C8.96832 11.6714 8.97229 11.6714 8.97626 11.6714C8.98024 11.6714 8.98421 11.6714 8.9882 11.6714C8.99218 11.6714 8.99617 11.6714 9.00016 11.6714C9.00415 11.6714 9.00815 11.6714 9.01215 11.6714C9.01615 11.6714 9.02016 11.6714 9.02417 11.6714C9.02818 11.6714 9.0322 11.6714 9.03622 11.6714C9.04024 11.6714 9.04426 11.6714 9.0483 11.6714C9.05233 11.6714 9.05636 11.6714 9.0604 11.6714C9.06444 11.6714 9.06849 11.6714 9.07254 11.6714C9.07659 11.6714 9.08065 11.6714 9.08471 11.6714C9.08877 11.6714 9.09283 11.6714 9.0969 11.6714C9.10097 11.6714 9.10505 11.6714 9.10912 11.6714C9.1132 11.6714 9.11729 11.6714 9.12138 11.6714C9.12547 11.6714 9.12956 11.6714 9.13366 11.6714C9.13776 11.6714 9.14186 11.6714 9.14597 11.6714C9.15008 11.6714 9.1542 11.6714 9.15832 11.6714C9.16243 11.6714 9.16656 11.6714 9.17069 11.6714C9.17482 11.6714 9.17895 11.6714 9.18309 11.6714C9.18723 11.6714 9.19137 11.6714 9.19552 11.6714C9.19967 11.6714 9.20382 11.6714 9.20798 11.6714C9.21214 11.6714 9.2163 11.6714 9.22047 11.6714C9.22463 11.6714 9.22881 11.6714 9.23299 11.6714C9.23716 11.6714 9.24135 11.6714 9.24553 11.6714C9.24972 11.6714 9.25391 11.6714 9.25811 11.6714C9.26231 11.6714 9.26651 11.6714 9.27072 11.6714C9.27493 11.6714 9.27914 11.6714 9.28336 11.6714C9.28757 11.6714 9.2918 11.6714 9.29602 11.6714C9.30025 11.6714 9.30448 11.6714 9.30872 11.6714C9.31296 11.6714 9.3172 11.6714 9.32145 11.6714C9.32569 11.6714 9.32995 11.6714 9.3342 11.6714C9.33846 11.6714 9.34272 11.6714 9.34699 11.6714C9.35126 11.6714 9.35553 11.6714 9.35981 11.6714C9.36408 11.6714 9.36837 11.6714 9.37265 11.6714C9.37694 11.6714 9.38123 11.6714 9.38553 11.6714C9.38983 11.6714 9.39413 11.6714 9.39843 11.6714C9.40274 11.6714 9.40705 11.6714 9.41137 11.6714C9.41569 11.6714 9.42001 11.6714 9.42434 11.6714C9.42866 11.6714 9.43299 11.6714 9.43733 11.6714C9.44167 11.6714 9.44601 11.6714 9.45036 11.6714C9.4547 11.6714 9.45906 11.6714 9.46341 11.6714C9.46777 11.6714 9.47213 11.6714 9.4765 11.6714C9.48087 11.6714 9.48524 11.6714 9.48962 11.6714C9.49399 11.6714 9.49837 11.6714 9.50276 11.6714C9.50715 11.6714 9.51154 11.6714 9.51594 11.6714C9.52034 11.6714 9.52474 11.6714 9.52915 11.6714C9.53355 11.6714 9.53797 11.6714 9.54238 11.6714C9.5468 11.6714 9.55122 11.6714 9.55565 11.6714C9.56008 11.6714 9.56451 11.6714 9.56895 11.6714C9.57339 11.6714 9.57783 11.6714 9.58228 11.6714C9.58672 11.6714 9.59118 11.6714 9.59563 11.6714C9.60009 11.6714 9.60455 11.6714 9.60902 11.6714C9.61349 11.6714 9.61796 11.6714 9.62244 11.6714C9.62692 11.6714 9.6314 11.6714 9.63589 11.6714C9.64038 11.6714 9.64487 11.6714 9.64937 11.6714C9.65387 11.6714 9.65837 11.6714 9.66288 11.6714C9.66739 11.6714 9.6719 11.6714 9.67642 11.6714C9.68094 11.6714 9.68547 11.6714 9.68999 11.6714C9.69452 11.6714 9.69906 11.6714 9.7036 11.6714C9.70814 11.6714 9.71268 11.6714 9.71723 11.6714C9.72178 11.6714 9.72633 11.6714 9.73089 11.6714C9.73545 11.6714 9.74002 11.6714 9.74459 11.6714C9.74916 11.6714 9.75373 11.6714 9.75831 11.6714C9.76289 11.6714 9.76748 11.6714 9.77207 11.6714C9.77666 11.6714 9.78125 11.6714 9.78585 11.6714C9.79045 11.6714 9.79506 11.6714 9.79967 11.6714C9.80428 11.6714 9.8089 11.6714 9.81352 11.6714C9.81814 11.6714 9.82277 11.6714 9.8274 11.6714C9.83203 11.6714 9.83667 11.6714 9.84131 11.6714C9.84595 11.6714 9.8506 11.6714 9.85525 11.6714C9.8599 11.6714 9.86456 11.6714 9.86922 11.6714C9.87388 11.6714 9.87855 11.6714 9.88322 11.6714C9.8879 11.6714 9.89257 11.6714 9.89726 11.6714C9.90194 11.6714 9.90663 11.6714 9.91132 11.6714C9.91601 11.6714 9.92071 11.6714 9.92542 11.6714C9.93012 11.6714 9.93483 11.6714 9.93954 11.6714C9.94426 11.6714 9.94898 11.6714 9.9537 11.6714C9.95842 11.6714 9.96315 11.6714 9.96789 11.6714C9.97262 11.6714 9.97736 11.6714 9.98211 11.6714C9.98685 11.6714 9.9916 11.6714 9.99636 11.6714C10.0011 11.6714 10.0059 11.6714 10.0106 11.6714C10.0154 11.6714 10.0202 11.6714 10.025 11.6714C10.0297 11.6714 10.0345 11.6714 10.0393 11.6714C10.0441 11.6714 10.0489 11.6714 10.0537 11.6714C10.0585 11.6714 10.0633 11.6714 10.0681 11.6714C10.0729 11.6714 10.0777 11.6714 10.0825 11.6714C10.0873 11.6714 10.0922 11.6714 10.097 11.6714C10.1018 11.6714 10.1067 11.6714 10.1115 11.6714C10.1163 11.6714 10.1212 11.6714 10.126 11.6714C10.1309 11.6714 10.1357 11.6714 10.1406 11.6714C10.1455 11.6714 10.1503 11.6714 10.1552 11.6714C10.1601 11.6714 10.1649 11.6714 10.1698 11.6714C10.1747 11.6714 10.1796 11.6714 10.1845 11.6714C10.1894 11.6714 10.1943 11.6714 10.1992 11.6714C10.2041 11.6714 10.209 11.6714 10.2139 11.6714C10.2188 11.6714 10.2237 11.6714 10.2286 11.6714C10.2336 11.6714 10.2385 11.6714 10.2434 11.6714C10.2484 11.6714 10.2533 11.6714 10.2582 11.6714C10.2632 11.6714 10.2681 11.6714 10.2731 11.6714C10.278 11.6714 10.283 11.6714 10.288 11.6714C10.2929 11.6714 10.2979 11.6714 10.3029 11.6714C10.3079 11.6714 10.3128 11.6714 10.3178 11.6714C10.3228 11.6714 10.3278 11.6714 10.3328 11.6714C10.3378 11.6714 10.3428 11.6714 10.3478 11.6714C10.3528 11.6714 10.3578 11.6714 10.3629 11.6714C10.3679 11.6714 10.3729 11.6714 10.3779 11.6714C10.383 11.6714 10.388 11.6714 10.393 11.6714C10.3981 11.6714 10.4031 11.6714 10.4082 11.6714C10.4132 11.6714 10.4183 11.6714 10.4233 11.6714C10.4284 11.6714 10.4335 11.6714 10.4385 11.6714C10.4436 11.6714 10.4487 11.6714 10.4538 11.6714C10.4588 11.6714 10.4639 11.6714 10.469 11.6714C10.4741 11.6714 10.4792 11.6714 10.4843 11.6714C10.4894 11.6714 10.4945 11.6714 10.4997 11.6714C10.5048 11.6714 10.5099 11.6714 10.515 11.6714C10.5201 11.6714 10.5253 11.6714 10.5304 11.6714C10.5355 11.6714 10.5407 11.6714 10.5458 11.6714C10.551 11.6714 10.5561 11.6714 10.5613 11.6714C10.5664 11.6714 10.5716 11.6714 10.5768 11.6714C10.5819 11.6714 10.5871 11.6714 10.5923 11.6714C10.5975 11.6714 10.6027 11.6714 10.6079 11.6714C10.613 11.6714 10.6182 11.6714 10.6234 11.6714C10.6286 11.6714 10.6338 11.6714 10.6391 11.6714C10.6443 11.6714 10.6495 11.6714 10.6547 11.6714C10.6599 11.6714 10.6652 11.6714 10.6704 11.6714C10.6756 11.6714 10.6809 11.6714 10.6861 11.6714C10.6914 11.6714 10.6966 11.6714 10.7019 11.6714C10.7071 11.6714 10.7124 11.6714 10.7176 11.6714C10.7229 11.6714 10.7282 11.6714 10.7334 11.6714C10.7387 11.6714 10.744 11.6714 10.7493 11.6714C10.7546 11.6714 10.7599 11.6714 10.7652 11.6714C10.7705 11.6714 10.7758 11.6714 10.7811 11.6714C10.7864 11.6714 10.7917 11.6714 10.797 11.6714C10.8023 11.6714 10.8077 11.6714 10.813 11.6714C10.8183 11.6714 10.8237 11.6714 10.829 11.6714C10.8344 11.6714 10.8397 11.6714 10.8451 11.6714C10.8504 11.6714 10.8558 11.6714 10.8611 11.6714C10.8665 11.6714 10.8719 11.6714 10.8772 11.6714C10.8826 11.6714 10.888 11.6714 10.8934 11.6714C10.8988 11.6714 10.9042 11.6714 10.9096 11.6714C10.915 11.6714 10.9204 11.6714 10.9258 11.6714C10.9312 11.6714 10.9366 11.6714 10.942 11.6714C10.9474 11.6714 10.9528 11.6714 10.9583 11.6714C10.9637 11.6714 10.9691 11.6714 10.9746 11.6714C10.98 11.6714 10.9855 11.6714 10.9909 11.6714C10.9964 11.6714 11.0018 11.6714 11.0073 11.6714C11.0128 11.6714 11.0182 11.6714 11.0237 11.6714C11.0292 11.6714 11.0346 11.6714 11.0401 11.6714C11.0456 11.6714 11.0511 11.6714 11.0566 11.6714C11.0621 11.6714 11.0676 11.6714 11.0731 11.6714C11.0786 11.6714 11.0841 11.6714 11.0896 11.6714C11.0952 11.6714 11.1007 11.6714 11.1062 11.6714C11.1117 11.6714 11.1173 11.6714 11.1228 11.6714C11.1284 11.6714 11.1339 11.6714 11.1395 11.6714C11.145 11.6714 11.1506 11.6714 11.1561 11.6714C11.1617 11.6714 11.1673 11.6714 11.1728 11.6714C11.1784 11.6714 11.184 11.6714 11.1896 11.6714C11.1951 11.6714 11.2007 11.6714 11.2063 11.6714C11.2119 11.6714 11.2175 11.6714 11.2231 11.6714C11.2287 11.6714 11.2344 11.6714 11.24 11.6714C11.2456 11.6714 11.2512 11.6714 11.2568 11.6714C11.2625 11.6714 11.2681 11.6714 11.2737 11.6714C11.2794 11.6714 11.285 11.6714 11.2907 11.6714C11.2963 11.6714 11.302 11.6714 11.3077 11.6714C11.3133 11.6714 11.319 11.6714 11.3247 11.6714C11.3303 11.6714 11.336 11.6714 11.3417 11.6714C11.3474 11.6714 11.3531 11.6714 11.3588 11.6714C11.3645 11.6714 11.3702 11.6714 11.3759 11.6714C11.3816 11.6714 11.3873 11.6714 11.393 11.6714C11.3987 11.6714 11.4045 11.6714 11.4102 11.6714C11.4159 11.6714 11.4217 11.6714 11.4274 11.6714C11.4331 11.6714 11.4389 11.6714 11.4446 11.6714C11.4504 11.6714 11.4561 11.6714 11.4619 11.6714C11.4677 11.6714 11.4734 11.6714 11.4792 11.6714C11.485 11.6714 11.4908 11.6714 11.4966 11.6714C11.5023 11.6714 11.5081 11.6714 11.5139 11.6714C11.5197 11.6714 11.5255 11.6714 11.5313 11.6714C11.5372 11.6714 11.543 11.6714 11.5488 11.6714C11.5546 11.6714 11.5604 11.6714 11.5663 11.6714C11.5721 11.6714 11.5779 11.6714 11.5838 11.6714C11.5896 11.6714 11.5955 11.6714 11.6013 11.6714C11.6072 11.6714 11.613 11.6714 11.6189 11.6714C11.6248 11.6714 11.6306 11.6714 11.6365 11.6714C11.6424 11.6714 11.6483 11.6714 11.6542 11.6714C11.66 11.6714 11.6659 11.6714 11.6718 11.6714C11.6777 11.6714 11.6836 11.6714 11.6896 11.6714C11.6955 11.6714 11.7014 11.6714 11.7073 11.6714C11.7132 11.6714 11.7192 11.6714 11.7251 11.6714C11.731 11.6714 11.737 11.6714 11.7429 11.6714C11.7489 11.6714 11.7548 11.6714 11.7608 11.6714C11.7667 11.6714 11.7727 11.6714 11.7787 11.6714C11.7846 11.6714 11.7906 11.6714 11.7966 11.6714C11.8026 11.6714 11.8085 11.6714 11.8145 11.6714C11.8205 11.6714 11.8265 11.6714 11.8325 11.6714C11.8385 11.6714 11.8445 11.6714 11.8505 11.6714C11.8566 11.6714 11.8626 11.6714 11.8686 11.6714C11.8746 11.6714 11.8807 11.6714 11.8867 11.6714C11.8927 11.6714 11.8988 11.6714 11.9048 11.6714C11.9109 11.6714 11.9169 11.6714 11.923 11.6714C11.9291 11.6714 11.9351 11.6714 11.9412 11.6714C11.9473 11.6714 11.9533 11.6714 11.9594 11.6714C11.9655 11.6714 11.9716 11.6714 11.9777 11.6714C11.9838 11.6714 11.9899 11.6714 11.996 11.6714C12.0021 11.6714 12.0082 11.6714 12.0143 11.6714C12.0204 11.6714 12.0266 11.6714 12.0327 11.6714C12.0388 11.6714 12.045 11.6714 12.0511 11.6714C12.0572 11.6714 12.0634 11.6714 12.0695 11.6714C12.0757 11.6714 12.0819 11.6714 12.088 11.6714C12.0942 11.6714 12.1003 11.6714 12.1065 11.6714C12.1127 11.6714 12.1189 11.6714 12.1251 11.6714C12.1313 11.6714 12.1375 11.6714 12.1436 11.6714C12.1498 11.6714 12.1561 11.6714 12.1623 11.6714C12.1685 11.6714 12.1747 11.6714 12.1809 11.6714C12.1871 11.6714 12.1934 11.6714 12.1996 11.6714C12.2058 11.6714 12.2121 11.6714 12.2183 11.6714C12.2246 11.6714 12.2308 11.6714 12.2371 11.6714C12.2433 11.6714 12.2496 11.6714 12.2559 11.6714C12.2621 11.6714 12.2684 11.6714 12.2747 11.6714C12.281 11.6714 12.2873 11.6714 12.2935 11.6714C12.2998 11.6714 12.3061 11.6714 12.3124 11.6714C12.3187 11.6714 12.3251 11.6714 12.3314 11.6714C12.3377 11.6714 12.344 11.6714 12.3503 11.6714C12.3567 11.6714 12.363 11.6714 12.3693 11.6714C12.3757 11.6714 12.382 11.6714 12.3884 11.6714C12.3947 11.6714 12.4011 11.6714 12.4074 11.6714C12.4138 11.6714 12.4202 11.6714 12.4265 11.6714C12.4329 11.6714 12.4393 11.6714 12.4457 11.6714C12.4521 11.6714 12.4585 11.6714 12.4649 11.6714C12.4713 11.6714 12.4777 11.6714 12.4841 11.6714C12.4905 11.6714 12.4969 11.6714 12.5033 11.6714C12.5097 11.6714 12.5162 11.6714 12.5226 11.6714C12.529 11.6714 12.5355 11.6714 12.5419 11.6714C12.5484 11.6714 12.5548 11.6714 12.5613 11.6714C12.5677 11.6714 12.5742 11.6714 12.5807 11.6714C12.5871 11.6714 12.5936 11.6714 12.6001 11.6714C12.6066 11.6714 12.6131 11.6714 12.6196 11.6714C12.626 11.6714 12.6325 11.6714 12.639 11.6714C12.6456 11.6714 12.6521 11.6714 12.6586 11.6714C12.6651 11.6714 12.6716 11.6714 12.6781 11.6714C12.6847 11.6714 12.6912 11.6714 12.6977 11.6714C12.7043 11.6714 12.7108 11.6714 12.7174 11.6714C12.7239 11.6714 12.7305 11.6714 12.7371 11.6714C12.7436 11.6714 12.7502 11.6714 12.7568 11.6714C12.7633 11.6714 12.7699 11.6714 12.7765 11.6714C12.7831 11.6714 12.7897 11.6714 12.7963 11.6714C12.8029 11.6714 12.8095 11.6714 12.8161 11.6714C12.8227 11.6714 12.8293 11.6714 12.836 11.6714C12.8426 11.6714 12.8492 11.6714 12.8559 11.6714C12.8625 11.6714 12.8691 11.6714 12.8758 11.6714C12.8824 11.6714 12.8891 11.6714 12.8957 11.6714C12.9024 11.6714 12.9091 11.6714 12.9157 11.6714C12.9224 11.6714 12.9291 11.6714 12.9358 11.6714C12.9425 11.6714 12.9492 11.6714 12.9558 11.6714C12.9625 11.6714 12.9692 11.6714 12.976 11.6714C12.9827 11.6714 12.9894 11.6714 12.9961 11.6714C13.0028 11.6714 13.0095 11.6714 13.0163 11.6714C13.023 11.6714 13.0297 11.6714 13.0365 11.6714C13.0432 11.6714 13.05 11.6714 13.0567 11.6714C13.0635 11.6714 13.0703 11.6714 13.077 11.6714C13.0838 11.6714 13.0906 11.6714 13.0973 11.6714C13.1041 11.6714 13.1109 11.6714 13.1177 11.6714C13.1245 11.6714 13.1313 11.6714 13.1381 11.6714C13.1449 11.6714 13.1517 11.6714 13.1585 11.6714C13.1653 11.6714 13.1722 11.6714 13.179 11.6714C13.1858 11.6714 13.1927 11.6714 13.1995 11.6714C13.2063 11.6714 13.2132 11.6714 13.22 11.6714C13.2269 11.6714 13.2338 11.6714 13.2406 11.6714C13.2475 11.6714 13.2544 11.6714 13.2612 11.6714C13.2681 11.6714 13.275 11.6714 13.2819 11.6714C13.2888 11.6714 13.2957 11.6714 13.3026 11.6714C13.3095 11.6714 13.3164 11.6714 13.3233 11.6714C13.3302 11.6714 13.3371 11.6714 13.3441 11.6714C13.351 11.6714 13.3579 11.6714 13.3649 11.6714C13.3718 11.6714 13.3787 11.6714 13.3857 11.6714C13.3926 11.6714 13.3996 11.6714 13.4066 11.6714C13.4135 11.6714 13.4205 11.6714 13.4275 11.6714C13.4344 11.6714 13.4414 11.6714 13.4484 11.6714C13.4554 11.6714 13.4624 11.6714 13.4694 11.6714C13.4764 11.6714 13.4834 11.6714 13.4904 11.6714C13.4974 11.6714 13.5044 11.6714 13.5115 11.6714C13.5185 11.6714 13.5255 11.6714 13.5325 11.6714C13.5396 11.6714 13.5466 11.6714 13.5537 11.6714C13.5607 11.6714 13.5678 11.6714 13.5748 11.6714C13.5819 11.6714 13.589 11.6714 13.596 11.6714C13.6031 11.6714 13.6102 11.6714 13.6173 11.6714C13.6244 11.6714 13.6315 11.6714 13.6386 11.6714C13.6457 11.6714 13.6528 11.6714 13.6599 11.6714C13.667 11.6714 13.6741 11.6714 13.6812 11.6714C13.6883 11.6714 13.6955 11.6714 13.7026 11.6714C13.7097 11.6714 13.7169 11.6714 13.724 11.6714C13.7312 11.6714 13.7383 11.6714 13.7455 11.6714C13.7526 11.6714 13.7598 11.6714 13.767 11.6714C13.7742 11.6714 13.7813 11.6714 13.7885 11.6714C13.7957 11.6714 13.8029 11.6714 13.8101 11.6714C13.8173 11.6714 13.8245 11.6714 13.8317 11.6714C13.8389 11.6714 13.8461 11.6714 13.8533 11.6714C13.8606 11.6714 13.8678 11.6714 13.875 11.6714C13.8823 11.6714 13.8895 11.6714 13.8968 11.6714C13.904 11.6714 13.9113 11.6714 13.9185 11.6714C13.9258 11.6714 13.933 11.6714 13.9403 11.6714C13.9476 11.6714 13.9549 11.6714 13.9621 11.6714C13.9694 11.6714 13.9767 11.6714 13.984 11.6714C13.9913 11.6714 13.9986 11.6714 14.0059 11.6714C14.0132 11.6714 14.0205 11.6714 14.0279 11.6714C14.0352 11.6714 14.0425 11.6714 14.0498 11.6714C14.0572 11.6714 14.0645 11.6714 14.0719 11.6714C14.0792 11.6714 14.0866 11.6714 14.0939 11.6714C14.1013 11.6714 14.1087 11.6714 14.116 11.6714C14.1234 11.6714 14.1308 11.6714 14.1382 11.6714C14.1455 11.6714 14.1529 11.6714 14.1603 11.6714C14.1677 11.6714 14.1751 11.6714 14.1825 11.6714C14.1899 11.6714 14.1974 11.6714 14.2048 11.6714C14.2122 11.6714 14.2196 11.6714 14.2271 11.6714C14.2345 11.6714 14.2419 11.6714 14.2494 11.6714C14.2568 11.6714 14.2643 11.6714 14.2717 11.6714C14.2792 11.6714 14.2867 11.6714 14.2941 11.6714C14.3016 11.6714 14.3091 11.6714 14.3166 11.6714C14.3241 11.6714 14.3316 11.6714 14.3391 11.6714C14.3466 11.6714 14.3541 11.6714 14.3616 11.6714C14.3691 11.6714 14.3766 11.6714 14.3841 11.6714C14.3916 11.6714 14.3992 11.6714 14.4067 11.6714C14.4142 11.6714 14.4218 11.6714 14.4293 11.6714C14.4369 11.6714 14.4444 11.6714 14.452 11.6714C14.4596 11.6714 14.4671 11.6714 14.4747 11.6714C14.4823 11.6714 14.4898 11.6714 14.4974 11.6714C14.505 11.6714 14.5126 11.6714 14.5202 11.6714C14.5278 11.6714 14.5354 11.6714 14.543 11.6714C14.5506 11.6714 14.5583 11.6714 14.5659 11.6714C14.5735 11.6714 14.5811 11.6714 14.5888 11.6714C14.5964 11.6714 14.6041 11.6714 14.6117 11.6714C14.6194 11.6714 14.627 11.6714 14.6347 11.6714C14.6423 11.6714 14.65 11.6714 14.6577 11.6714C14.6654 11.6714 14.673 11.6714 14.6807 11.6714C14.6884 11.6714 14.6961 11.6714 14.7038 11.6714C14.7115 11.6714 14.7192 11.6714 14.7269 11.6714C14.7346 11.6714 14.7424 11.6714 14.7501 11.6714C14.7578 11.6714 14.7656 11.6714 14.7733 11.6714C14.781 11.6714 14.7888 11.6714 14.7965 11.6714C14.8043 11.6714 14.812 11.6714 14.8198 11.6714C14.8276 11.6714 14.8353 11.6714 14.8431 11.6714C14.8509 11.6714 14.8587 11.6714 14.8665 11.6714C14.8743 11.6714 14.8821 11.6714 14.8899 11.6714C14.8977 11.6714 14.9055 11.6714 14.9133 11.6714C14.9211 11.6714 14.9289 11.6714 14.9368 11.6714C14.9446 11.6714 14.9524 11.6714 14.9603 11.6714C14.9681 11.6714 14.976 11.6714 14.9838 11.6714C14.9917 11.6714 14.9995 11.6714 15.0074 11.6714C15.0153 11.6714 15.0231 11.6714 15.031 11.6714C15.0389 11.6714 15.0468 11.6714 15.0547 11.6714C15.0626 11.6714 15.0705 11.6714 15.0784 11.6714C15.0863 11.6714 15.0942 11.6714 15.1021 11.6714C15.11 11.6714 15.118 11.6714 15.1259 11.6714C15.1338 11.6714 15.1418 11.6714 15.1497 11.6714C15.1577 11.6714 15.1656 11.6714 15.1736 11.6714C15.1815 11.6714 15.1895 11.6714 15.1975 11.6714C15.2054 11.6714 15.2134 11.6714 15.2214 11.6714C15.2294 11.6714 15.2374 11.6714 15.2454 11.6714C15.2534 11.6714 15.2614 11.6714 15.2694 11.6714C15.2774 11.6714 15.2854 11.6714 15.2934 11.6714C15.3015 11.6714 15.3095 11.6714 15.3175 11.6714C15.3256 11.6714 15.3336 11.6714 15.3417 11.6714C15.3497 11.6714 15.3578 11.6714 15.3658 11.6714C15.3739 11.6714 15.382 11.6714 15.39 11.6714C15.3981 11.6714 15.4062 11.6714 15.4143 11.6714C15.4224 11.6714 15.4305 11.6714 15.4386 11.6714C15.4467 11.6714 15.4548 11.6714 15.4629 11.6714C15.471 11.6714 15.4791 11.6714 15.4873 11.6714C15.4954 11.6714 15.5035 11.6714 15.5117 11.6714C15.5198 11.6714 15.528 11.6714 15.5361 11.6714C15.5443 11.6714 15.5524 11.6714 15.5606 11.6714C15.5688 11.6714 15.5769 11.6714 15.5851 11.6714C15.5933 11.6714 15.6015 11.6714 15.6097 11.6714C15.6179 11.6714 15.6261 11.6714 15.6343 11.6714C15.6425 11.6714 15.6507 11.6714 15.6589 11.6714C15.6671 11.6714 15.6754 11.6714 15.6836 11.6714C15.6918 11.6714 15.7001 11.6714 15.7083 11.6714C15.7166 11.6714 15.7248 11.6714 15.7331 11.6714C15.7413 11.6714 15.7496 11.6714 15.7579 11.6714C15.7661 11.6714 15.7744 11.6714 15.7827 11.6714C15.791 11.6714 15.7993 11.6714 15.8076 11.6714C15.8159 11.6714 15.8242 11.6714 15.8325 11.6714C15.8408 11.6714 15.8491 11.6714 15.8575 11.6714C15.8658 11.6714 15.8741 11.6714 15.8825 11.6714C15.8908 11.6714 15.8991 11.6714 15.9075 11.6714C15.9158 11.6714 15.9242 11.6714 15.9326 11.6714C15.9409 11.6714 15.9493 11.6714 15.9577 11.6714C15.9661 11.6714 15.9745 11.6714 15.9828 11.6714C15.9912 11.6714 15.9996 11.6714 16.008 11.6714C16.0164 11.6714 16.0249 11.6714 16.0333 11.6714C16.0417 11.6714 16.0501 11.6714 16.0585 11.6714C16.067 11.6714 16.0754 11.6714 16.0839 11.6714C16.0923 11.6714 16.1008 11.6714 16.1092 11.6714C16.1177 11.6714 16.1261 11.6714 16.1346 11.6714C16.1431 11.6714 16.1516 11.6714 16.1601 11.6714C16.1685 11.6714 16.177 11.6714 16.1855 11.6714C16.194 11.6714 16.2025 11.6714 16.211 11.6714C16.2196 11.6714 16.2281 11.6714 16.2366 11.6714C16.2451 11.6714 16.2537 11.6714 16.2622 11.6714C16.2707 11.6714 16.2793 11.6714 16.2878 11.6714C16.2964 11.6714 16.3049 11.6714 16.3135 11.6714C16.3221 11.6714 16.3306 11.6714 16.3392 11.6714C16.3478 11.6714 16.3564 11.6714 16.365 11.6714C16.3736 11.6714 16.3822 11.6714 16.3908 11.6714C16.3994 11.6714 16.408 11.6714 16.4166 11.6714C16.4252 11.6714 16.4339 11.6714 16.4425 11.6714C16.4511 11.6714 16.4598 11.6714 16.4684 11.6714C16.4771 11.6714 16.4857 11.6714 16.4944 11.6714C16.503 11.6714 16.5117 11.6714 16.5204 11.6714C16.529 11.6714 16.5377 11.6714 16.5464 11.6714C16.5551 11.6714 16.5638 11.6714 16.5725 11.6714C16.5812 11.6714 16.5899 11.6714 16.5986 11.6714C16.6073 11.6714 16.616 11.6714 16.6248 11.6714C16.6335 11.6714 16.6422 11.6714 16.651 11.6714C16.6597 11.6714 16.6685 11.6714 16.6772 11.6714C16.686 11.6714 16.6947 11.6714 16.7035 11.6714C16.7123 11.6714 16.721 11.6714 16.7298 11.6714C16.7386 11.6714 16.7474 11.6714 16.7562 11.6714C16.765 11.6714 16.7738 11.6714 16.7826 11.6714C16.7914 11.6714 16.8002 11.6714 16.809 11.6714C16.8179 11.6714 16.8267 11.6714 16.8355 11.6714C16.8444 11.6714 16.8532 11.6714 16.862 11.6714C16.8709 11.6714 16.8797 11.6714 16.8886 11.6714C16.8975 11.6714 16.9063 11.6714 16.9152 11.6714C16.9241 11.6714 16.933 11.6714 16.9419 11.6714C16.9508 11.6714 16.9597 11.6714 16.9686 11.6714C16.9775 11.6714 16.9864 11.6714 16.9953 11.6714C17.0042 11.6714 17.0131 11.6714 17.0221 11.6714C17.031 11.6714 17.0399 11.6714 17.0489 11.6714C17.0578 11.6714 17.0668 11.6714 17.0757 11.6714C17.0847 11.6714 17.0937 11.6714 17.1026 11.6714C17.1116 11.6714 17.1206 11.6714 17.1296 11.6714C17.1385 11.6714 17.1475 11.6714 17.1565 11.6714C17.1655 11.6714 17.1745 11.6714 17.1836 11.6714C17.1926 11.6714 17.2016 11.6714 17.2106 11.6714C17.2196 11.6714 17.2287 11.6714 17.2377 11.6714C17.2468 11.6714 17.2558 11.6714 17.2649 11.6714C17.2739 11.6714 17.283 11.6714 17.292 11.6714C17.3011 11.6714 17.3102 11.6714 17.3193 11.6714C17.3284 11.6714 17.3374 11.6714 17.3465 11.6714C17.3556 11.6714 17.3647 11.6714 17.3738 11.6714C17.383 11.6714 17.3921 11.6714 17.4012 11.6714C17.4103 11.6714 17.4194 11.6714 17.4286 11.6714C17.4377 11.6714 17.4469 11.6714 17.456 11.6714C17.4652 11.6714 17.4743 11.6714 17.4835 11.6714C17.4926 11.6714 17.5018 11.6714 17.511 11.6714C17.5202 11.6714 17.5294 11.6714 17.5386 11.6714C17.5477 11.6714 17.5569 11.6714 17.5662 11.6714C17.5754 11.6714 17.5846 11.6714 17.5938 11.6714C17.603 11.6714 17.6122 11.6714 17.6215 11.6714C17.6307 11.6714 17.6399 11.6714 17.6492 11.6714C17.6584 11.6714 17.6677 11.6714 17.677 11.6714C17.6862 11.6714 17.6955 11.6714 17.7048 11.6714C17.714 11.6714 17.7233 11.6714 17.7326 11.6714C17.7419 11.6714 17.7512 11.6714 17.7605 11.6714C17.7698 11.6714 17.7791 11.6714 17.7884 11.6714C17.7977 11.6714 17.8071 11.6714 17.8164 11.6714C17.8257 11.6714 17.8351 11.6714 17.8444 11.6714C17.8538 11.6714 17.8631 11.6714 17.8725 11.6714C17.8818 11.6714 17.8912 11.6714 17.9006 11.6714C17.9099 11.6714 17.9193 11.6714 17.9287 11.6714C17.9381 11.6714 17.9475 11.6714 17.9569 11.6714C17.9663 11.6714 17.9757 11.6714 17.9851 11.6714C17.9945 11.6714 18.004 11.6714 18.0134 11.6714V10.6714C18.004 10.6714 17.9945 10.6714 17.9851 10.6714C17.9757 10.6714 17.9663 10.6714 17.9569 10.6714C17.9475 10.6714 17.9381 10.6714 17.9287 10.6714C17.9193 10.6714 17.9099 10.6714 17.9006 10.6714C17.8912 10.6714 17.8818 10.6714 17.8725 10.6714C17.8631 10.6714 17.8538 10.6714 17.8444 10.6714C17.8351 10.6714 17.8257 10.6714 17.8164 10.6714C17.8071 10.6714 17.7977 10.6714 17.7884 10.6714C17.7791 10.6714 17.7698 10.6714 17.7605 10.6714C17.7512 10.6714 17.7419 10.6714 17.7326 10.6714C17.7233 10.6714 17.714 10.6714 17.7048 10.6714C17.6955 10.6714 17.6862 10.6714 17.677 10.6714C17.6677 10.6714 17.6584 10.6714 17.6492 10.6714C17.6399 10.6714 17.6307 10.6714 17.6215 10.6714C17.6122 10.6714 17.603 10.6714 17.5938 10.6714C17.5846 10.6714 17.5754 10.6714 17.5662 10.6714C17.5569 10.6714 17.5477 10.6714 17.5386 10.6714C17.5294 10.6714 17.5202 10.6714 17.511 10.6714C17.5018 10.6714 17.4926 10.6714 17.4835 10.6714C17.4743 10.6714 17.4652 10.6714 17.456 10.6714C17.4469 10.6714 17.4377 10.6714 17.4286 10.6714C17.4194 10.6714 17.4103 10.6714 17.4012 10.6714C17.3921 10.6714 17.383 10.6714 17.3738 10.6714C17.3647 10.6714 17.3556 10.6714 17.3465 10.6714C17.3374 10.6714 17.3284 10.6714 17.3193 10.6714C17.3102 10.6714 17.3011 10.6714 17.292 10.6714C17.283 10.6714 17.2739 10.6714 17.2649 10.6714C17.2558 10.6714 17.2468 10.6714 17.2377 10.6714C17.2287 10.6714 17.2196 10.6714 17.2106 10.6714C17.2016 10.6714 17.1926 10.6714 17.1836 10.6714C17.1745 10.6714 17.1655 10.6714 17.1565 10.6714C17.1475 10.6714 17.1385 10.6714 17.1296 10.6714C17.1206 10.6714 17.1116 10.6714 17.1026 10.6714C17.0937 10.6714 17.0847 10.6714 17.0757 10.6714C17.0668 10.6714 17.0578 10.6714 17.0489 10.6714C17.0399 10.6714 17.031 10.6714 17.0221 10.6714C17.0131 10.6714 17.0042 10.6714 16.9953 10.6714C16.9864 10.6714 16.9775 10.6714 16.9686 10.6714C16.9597 10.6714 16.9508 10.6714 16.9419 10.6714C16.933 10.6714 16.9241 10.6714 16.9152 10.6714C16.9063 10.6714 16.8975 10.6714 16.8886 10.6714C16.8797 10.6714 16.8709 10.6714 16.862 10.6714C16.8532 10.6714 16.8444 10.6714 16.8355 10.6714C16.8267 10.6714 16.8179 10.6714 16.809 10.6714C16.8002 10.6714 16.7914 10.6714 16.7826 10.6714C16.7738 10.6714 16.765 10.6714 16.7562 10.6714C16.7474 10.6714 16.7386 10.6714 16.7298 10.6714C16.721 10.6714 16.7123 10.6714 16.7035 10.6714C16.6947 10.6714 16.686 10.6714 16.6772 10.6714C16.6685 10.6714 16.6597 10.6714 16.651 10.6714C16.6422 10.6714 16.6335 10.6714 16.6248 10.6714C16.616 10.6714 16.6073 10.6714 16.5986 10.6714C16.5899 10.6714 16.5812 10.6714 16.5725 10.6714C16.5638 10.6714 16.5551 10.6714 16.5464 10.6714C16.5377 10.6714 16.529 10.6714 16.5204 10.6714C16.5117 10.6714 16.503 10.6714 16.4944 10.6714C16.4857 10.6714 16.4771 10.6714 16.4684 10.6714C16.4598 10.6714 16.4511 10.6714 16.4425 10.6714C16.4339 10.6714 16.4252 10.6714 16.4166 10.6714C16.408 10.6714 16.3994 10.6714 16.3908 10.6714C16.3822 10.6714 16.3736 10.6714 16.365 10.6714C16.3564 10.6714 16.3478 10.6714 16.3392 10.6714C16.3306 10.6714 16.3221 10.6714 16.3135 10.6714C16.3049 10.6714 16.2964 10.6714 16.2878 10.6714C16.2793 10.6714 16.2707 10.6714 16.2622 10.6714C16.2537 10.6714 16.2451 10.6714 16.2366 10.6714C16.2281 10.6714 16.2196 10.6714 16.211 10.6714C16.2025 10.6714 16.194 10.6714 16.1855 10.6714C16.177 10.6714 16.1685 10.6714 16.1601 10.6714C16.1516 10.6714 16.1431 10.6714 16.1346 10.6714C16.1261 10.6714 16.1177 10.6714 16.1092 10.6714C16.1008 10.6714 16.0923 10.6714 16.0839 10.6714C16.0754 10.6714 16.067 10.6714 16.0585 10.6714C16.0501 10.6714 16.0417 10.6714 16.0333 10.6714C16.0249 10.6714 16.0164 10.6714 16.008 10.6714C15.9996 10.6714 15.9912 10.6714 15.9828 10.6714C15.9745 10.6714 15.9661 10.6714 15.9577 10.6714C15.9493 10.6714 15.9409 10.6714 15.9326 10.6714C15.9242 10.6714 15.9158 10.6714 15.9075 10.6714C15.8991 10.6714 15.8908 10.6714 15.8825 10.6714C15.8741 10.6714 15.8658 10.6714 15.8575 10.6714C15.8491 10.6714 15.8408 10.6714 15.8325 10.6714C15.8242 10.6714 15.8159 10.6714 15.8076 10.6714C15.7993 10.6714 15.791 10.6714 15.7827 10.6714C15.7744 10.6714 15.7661 10.6714 15.7579 10.6714C15.7496 10.6714 15.7413 10.6714 15.7331 10.6714C15.7248 10.6714 15.7166 10.6714 15.7083 10.6714C15.7001 10.6714 15.6918 10.6714 15.6836 10.6714C15.6754 10.6714 15.6671 10.6714 15.6589 10.6714C15.6507 10.6714 15.6425 10.6714 15.6343 10.6714C15.6261 10.6714 15.6179 10.6714 15.6097 10.6714C15.6015 10.6714 15.5933 10.6714 15.5851 10.6714C15.5769 10.6714 15.5688 10.6714 15.5606 10.6714C15.5524 10.6714 15.5443 10.6714 15.5361 10.6714C15.528 10.6714 15.5198 10.6714 15.5117 10.6714C15.5035 10.6714 15.4954 10.6714 15.4873 10.6714C15.4791 10.6714 15.471 10.6714 15.4629 10.6714C15.4548 10.6714 15.4467 10.6714 15.4386 10.6714C15.4305 10.6714 15.4224 10.6714 15.4143 10.6714C15.4062 10.6714 15.3981 10.6714 15.39 10.6714C15.382 10.6714 15.3739 10.6714 15.3658 10.6714C15.3578 10.6714 15.3497 10.6714 15.3417 10.6714C15.3336 10.6714 15.3256 10.6714 15.3175 10.6714C15.3095 10.6714 15.3015 10.6714 15.2934 10.6714C15.2854 10.6714 15.2774 10.6714 15.2694 10.6714C15.2614 10.6714 15.2534 10.6714 15.2454 10.6714C15.2374 10.6714 15.2294 10.6714 15.2214 10.6714C15.2134 10.6714 15.2054 10.6714 15.1975 10.6714C15.1895 10.6714 15.1815 10.6714 15.1736 10.6714C15.1656 10.6714 15.1577 10.6714 15.1497 10.6714C15.1418 10.6714 15.1338 10.6714 15.1259 10.6714C15.118 10.6714 15.11 10.6714 15.1021 10.6714C15.0942 10.6714 15.0863 10.6714 15.0784 10.6714C15.0705 10.6714 15.0626 10.6714 15.0547 10.6714C15.0468 10.6714 15.0389 10.6714 15.031 10.6714C15.0231 10.6714 15.0153 10.6714 15.0074 10.6714C14.9995 10.6714 14.9917 10.6714 14.9838 10.6714C14.976 10.6714 14.9681 10.6714 14.9603 10.6714C14.9524 10.6714 14.9446 10.6714 14.9368 10.6714C14.9289 10.6714 14.9211 10.6714 14.9133 10.6714C14.9055 10.6714 14.8977 10.6714 14.8899 10.6714C14.8821 10.6714 14.8743 10.6714 14.8665 10.6714C14.8587 10.6714 14.8509 10.6714 14.8431 10.6714C14.8353 10.6714 14.8276 10.6714 14.8198 10.6714C14.812 10.6714 14.8043 10.6714 14.7965 10.6714C14.7888 10.6714 14.781 10.6714 14.7733 10.6714C14.7656 10.6714 14.7578 10.6714 14.7501 10.6714C14.7424 10.6714 14.7346 10.6714 14.7269 10.6714C14.7192 10.6714 14.7115 10.6714 14.7038 10.6714C14.6961 10.6714 14.6884 10.6714 14.6807 10.6714C14.673 10.6714 14.6654 10.6714 14.6577 10.6714C14.65 10.6714 14.6423 10.6714 14.6347 10.6714C14.627 10.6714 14.6194 10.6714 14.6117 10.6714C14.6041 10.6714 14.5964 10.6714 14.5888 10.6714C14.5811 10.6714 14.5735 10.6714 14.5659 10.6714C14.5583 10.6714 14.5506 10.6714 14.543 10.6714C14.5354 10.6714 14.5278 10.6714 14.5202 10.6714C14.5126 10.6714 14.505 10.6714 14.4974 10.6714C14.4898 10.6714 14.4823 10.6714 14.4747 10.6714C14.4671 10.6714 14.4596 10.6714 14.452 10.6714C14.4444 10.6714 14.4369 10.6714 14.4293 10.6714C14.4218 10.6714 14.4142 10.6714 14.4067 10.6714C14.3992 10.6714 14.3916 10.6714 14.3841 10.6714C14.3766 10.6714 14.3691 10.6714 14.3616 10.6714C14.3541 10.6714 14.3466 10.6714 14.3391 10.6714C14.3316 10.6714 14.3241 10.6714 14.3166 10.6714C14.3091 10.6714 14.3016 10.6714 14.2941 10.6714C14.2867 10.6714 14.2792 10.6714 14.2717 10.6714C14.2643 10.6714 14.2568 10.6714 14.2494 10.6714C14.2419 10.6714 14.2345 10.6714 14.2271 10.6714C14.2196 10.6714 14.2122 10.6714 14.2048 10.6714C14.1974 10.6714 14.1899 10.6714 14.1825 10.6714C14.1751 10.6714 14.1677 10.6714 14.1603 10.6714C14.1529 10.6714 14.1455 10.6714 14.1382 10.6714C14.1308 10.6714 14.1234 10.6714 14.116 10.6714C14.1087 10.6714 14.1013 10.6714 14.0939 10.6714C14.0866 10.6714 14.0792 10.6714 14.0719 10.6714C14.0645 10.6714 14.0572 10.6714 14.0498 10.6714C14.0425 10.6714 14.0352 10.6714 14.0279 10.6714C14.0205 10.6714 14.0132 10.6714 14.0059 10.6714C13.9986 10.6714 13.9913 10.6714 13.984 10.6714C13.9767 10.6714 13.9694 10.6714 13.9621 10.6714C13.9549 10.6714 13.9476 10.6714 13.9403 10.6714C13.933 10.6714 13.9258 10.6714 13.9185 10.6714C13.9113 10.6714 13.904 10.6714 13.8968 10.6714C13.8895 10.6714 13.8823 10.6714 13.875 10.6714C13.8678 10.6714 13.8606 10.6714 13.8533 10.6714C13.8461 10.6714 13.8389 10.6714 13.8317 10.6714C13.8245 10.6714 13.8173 10.6714 13.8101 10.6714C13.8029 10.6714 13.7957 10.6714 13.7885 10.6714C13.7813 10.6714 13.7742 10.6714 13.767 10.6714C13.7598 10.6714 13.7526 10.6714 13.7455 10.6714C13.7383 10.6714 13.7312 10.6714 13.724 10.6714C13.7169 10.6714 13.7097 10.6714 13.7026 10.6714C13.6955 10.6714 13.6883 10.6714 13.6812 10.6714C13.6741 10.6714 13.667 10.6714 13.6599 10.6714C13.6528 10.6714 13.6457 10.6714 13.6386 10.6714C13.6315 10.6714 13.6244 10.6714 13.6173 10.6714C13.6102 10.6714 13.6031 10.6714 13.596 10.6714C13.589 10.6714 13.5819 10.6714 13.5748 10.6714C13.5678 10.6714 13.5607 10.6714 13.5537 10.6714C13.5466 10.6714 13.5396 10.6714 13.5325 10.6714C13.5255 10.6714 13.5185 10.6714 13.5115 10.6714C13.5044 10.6714 13.4974 10.6714 13.4904 10.6714C13.4834 10.6714 13.4764 10.6714 13.4694 10.6714C13.4624 10.6714 13.4554 10.6714 13.4484 10.6714C13.4414 10.6714 13.4344 10.6714 13.4275 10.6714C13.4205 10.6714 13.4135 10.6714 13.4066 10.6714C13.3996 10.6714 13.3926 10.6714 13.3857 10.6714C13.3787 10.6714 13.3718 10.6714 13.3649 10.6714C13.3579 10.6714 13.351 10.6714 13.3441 10.6714C13.3371 10.6714 13.3302 10.6714 13.3233 10.6714C13.3164 10.6714 13.3095 10.6714 13.3026 10.6714C13.2957 10.6714 13.2888 10.6714 13.2819 10.6714C13.275 10.6714 13.2681 10.6714 13.2612 10.6714C13.2544 10.6714 13.2475 10.6714 13.2406 10.6714C13.2338 10.6714 13.2269 10.6714 13.22 10.6714C13.2132 10.6714 13.2063 10.6714 13.1995 10.6714C13.1927 10.6714 13.1858 10.6714 13.179 10.6714C13.1722 10.6714 13.1653 10.6714 13.1585 10.6714C13.1517 10.6714 13.1449 10.6714 13.1381 10.6714C13.1313 10.6714 13.1245 10.6714 13.1177 10.6714C13.1109 10.6714 13.1041 10.6714 13.0973 10.6714C13.0906 10.6714 13.0838 10.6714 13.077 10.6714C13.0703 10.6714 13.0635 10.6714 13.0567 10.6714C13.05 10.6714 13.0432 10.6714 13.0365 10.6714C13.0297 10.6714 13.023 10.6714 13.0163 10.6714C13.0095 10.6714 13.0028 10.6714 12.9961 10.6714C12.9894 10.6714 12.9827 10.6714 12.976 10.6714C12.9692 10.6714 12.9625 10.6714 12.9558 10.6714C12.9492 10.6714 12.9425 10.6714 12.9358 10.6714C12.9291 10.6714 12.9224 10.6714 12.9157 10.6714C12.9091 10.6714 12.9024 10.6714 12.8957 10.6714C12.8891 10.6714 12.8824 10.6714 12.8758 10.6714C12.8691 10.6714 12.8625 10.6714 12.8559 10.6714C12.8492 10.6714 12.8426 10.6714 12.836 10.6714C12.8293 10.6714 12.8227 10.6714 12.8161 10.6714C12.8095 10.6714 12.8029 10.6714 12.7963 10.6714C12.7897 10.6714 12.7831 10.6714 12.7765 10.6714C12.7699 10.6714 12.7633 10.6714 12.7568 10.6714C12.7502 10.6714 12.7436 10.6714 12.7371 10.6714C12.7305 10.6714 12.7239 10.6714 12.7174 10.6714C12.7108 10.6714 12.7043 10.6714 12.6977 10.6714C12.6912 10.6714 12.6847 10.6714 12.6781 10.6714C12.6716 10.6714 12.6651 10.6714 12.6586 10.6714C12.6521 10.6714 12.6456 10.6714 12.639 10.6714C12.6325 10.6714 12.626 10.6714 12.6196 10.6714C12.6131 10.6714 12.6066 10.6714 12.6001 10.6714C12.5936 10.6714 12.5871 10.6714 12.5807 10.6714C12.5742 10.6714 12.5677 10.6714 12.5613 10.6714C12.5548 10.6714 12.5484 10.6714 12.5419 10.6714C12.5355 10.6714 12.529 10.6714 12.5226 10.6714C12.5162 10.6714 12.5097 10.6714 12.5033 10.6714C12.4969 10.6714 12.4905 10.6714 12.4841 10.6714C12.4777 10.6714 12.4713 10.6714 12.4649 10.6714C12.4585 10.6714 12.4521 10.6714 12.4457 10.6714C12.4393 10.6714 12.4329 10.6714 12.4265 10.6714C12.4202 10.6714 12.4138 10.6714 12.4074 10.6714C12.4011 10.6714 12.3947 10.6714 12.3884 10.6714C12.382 10.6714 12.3757 10.6714 12.3693 10.6714C12.363 10.6714 12.3567 10.6714 12.3503 10.6714C12.344 10.6714 12.3377 10.6714 12.3314 10.6714C12.3251 10.6714 12.3187 10.6714 12.3124 10.6714C12.3061 10.6714 12.2998 10.6714 12.2935 10.6714C12.2873 10.6714 12.281 10.6714 12.2747 10.6714C12.2684 10.6714 12.2621 10.6714 12.2559 10.6714C12.2496 10.6714 12.2433 10.6714 12.2371 10.6714C12.2308 10.6714 12.2246 10.6714 12.2183 10.6714C12.2121 10.6714 12.2058 10.6714 12.1996 10.6714C12.1934 10.6714 12.1871 10.6714 12.1809 10.6714C12.1747 10.6714 12.1685 10.6714 12.1623 10.6714C12.1561 10.6714 12.1498 10.6714 12.1436 10.6714C12.1375 10.6714 12.1313 10.6714 12.1251 10.6714C12.1189 10.6714 12.1127 10.6714 12.1065 10.6714C12.1003 10.6714 12.0942 10.6714 12.088 10.6714C12.0819 10.6714 12.0757 10.6714 12.0695 10.6714C12.0634 10.6714 12.0572 10.6714 12.0511 10.6714C12.045 10.6714 12.0388 10.6714 12.0327 10.6714C12.0266 10.6714 12.0204 10.6714 12.0143 10.6714C12.0082 10.6714 12.0021 10.6714 11.996 10.6714C11.9899 10.6714 11.9838 10.6714 11.9777 10.6714C11.9716 10.6714 11.9655 10.6714 11.9594 10.6714C11.9533 10.6714 11.9473 10.6714 11.9412 10.6714C11.9351 10.6714 11.9291 10.6714 11.923 10.6714C11.9169 10.6714 11.9109 10.6714 11.9048 10.6714C11.8988 10.6714 11.8927 10.6714 11.8867 10.6714C11.8807 10.6714 11.8746 10.6714 11.8686 10.6714C11.8626 10.6714 11.8566 10.6714 11.8505 10.6714C11.8445 10.6714 11.8385 10.6714 11.8325 10.6714C11.8265 10.6714 11.8205 10.6714 11.8145 10.6714C11.8085 10.6714 11.8026 10.6714 11.7966 10.6714C11.7906 10.6714 11.7846 10.6714 11.7787 10.6714C11.7727 10.6714 11.7667 10.6714 11.7608 10.6714C11.7548 10.6714 11.7489 10.6714 11.7429 10.6714C11.737 10.6714 11.731 10.6714 11.7251 10.6714C11.7192 10.6714 11.7132 10.6714 11.7073 10.6714C11.7014 10.6714 11.6955 10.6714 11.6896 10.6714C11.6836 10.6714 11.6777 10.6714 11.6718 10.6714C11.6659 10.6714 11.66 10.6714 11.6542 10.6714C11.6483 10.6714 11.6424 10.6714 11.6365 10.6714C11.6306 10.6714 11.6248 10.6714 11.6189 10.6714C11.613 10.6714 11.6072 10.6714 11.6013 10.6714C11.5955 10.6714 11.5896 10.6714 11.5838 10.6714C11.5779 10.6714 11.5721 10.6714 11.5663 10.6714C11.5604 10.6714 11.5546 10.6714 11.5488 10.6714C11.543 10.6714 11.5372 10.6714 11.5313 10.6714C11.5255 10.6714 11.5197 10.6714 11.5139 10.6714C11.5081 10.6714 11.5023 10.6714 11.4966 10.6714C11.4908 10.6714 11.485 10.6714 11.4792 10.6714C11.4734 10.6714 11.4677 10.6714 11.4619 10.6714C11.4561 10.6714 11.4504 10.6714 11.4446 10.6714C11.4389 10.6714 11.4331 10.6714 11.4274 10.6714C11.4217 10.6714 11.4159 10.6714 11.4102 10.6714C11.4045 10.6714 11.3987 10.6714 11.393 10.6714C11.3873 10.6714 11.3816 10.6714 11.3759 10.6714C11.3702 10.6714 11.3645 10.6714 11.3588 10.6714C11.3531 10.6714 11.3474 10.6714 11.3417 10.6714C11.336 10.6714 11.3303 10.6714 11.3247 10.6714C11.319 10.6714 11.3133 10.6714 11.3077 10.6714C11.302 10.6714 11.2963 10.6714 11.2907 10.6714C11.285 10.6714 11.2794 10.6714 11.2737 10.6714C11.2681 10.6714 11.2625 10.6714 11.2568 10.6714C11.2512 10.6714 11.2456 10.6714 11.24 10.6714C11.2344 10.6714 11.2287 10.6714 11.2231 10.6714C11.2175 10.6714 11.2119 10.6714 11.2063 10.6714C11.2007 10.6714 11.1951 10.6714 11.1896 10.6714C11.184 10.6714 11.1784 10.6714 11.1728 10.6714C11.1673 10.6714 11.1617 10.6714 11.1561 10.6714C11.1506 10.6714 11.145 10.6714 11.1395 10.6714C11.1339 10.6714 11.1284 10.6714 11.1228 10.6714C11.1173 10.6714 11.1117 10.6714 11.1062 10.6714C11.1007 10.6714 11.0952 10.6714 11.0896 10.6714C11.0841 10.6714 11.0786 10.6714 11.0731 10.6714C11.0676 10.6714 11.0621 10.6714 11.0566 10.6714C11.0511 10.6714 11.0456 10.6714 11.0401 10.6714C11.0346 10.6714 11.0292 10.6714 11.0237 10.6714C11.0182 10.6714 11.0128 10.6714 11.0073 10.6714C11.0018 10.6714 10.9964 10.6714 10.9909 10.6714C10.9855 10.6714 10.98 10.6714 10.9746 10.6714C10.9691 10.6714 10.9637 10.6714 10.9583 10.6714C10.9528 10.6714 10.9474 10.6714 10.942 10.6714C10.9366 10.6714 10.9312 10.6714 10.9258 10.6714C10.9204 10.6714 10.915 10.6714 10.9096 10.6714C10.9042 10.6714 10.8988 10.6714 10.8934 10.6714C10.888 10.6714 10.8826 10.6714 10.8772 10.6714C10.8719 10.6714 10.8665 10.6714 10.8611 10.6714C10.8558 10.6714 10.8504 10.6714 10.8451 10.6714C10.8397 10.6714 10.8344 10.6714 10.829 10.6714C10.8237 10.6714 10.8183 10.6714 10.813 10.6714C10.8077 10.6714 10.8023 10.6714 10.797 10.6714C10.7917 10.6714 10.7864 10.6714 10.7811 10.6714C10.7758 10.6714 10.7705 10.6714 10.7652 10.6714C10.7599 10.6714 10.7546 10.6714 10.7493 10.6714C10.744 10.6714 10.7387 10.6714 10.7334 10.6714C10.7282 10.6714 10.7229 10.6714 10.7176 10.6714C10.7124 10.6714 10.7071 10.6714 10.7019 10.6714C10.6966 10.6714 10.6914 10.6714 10.6861 10.6714C10.6809 10.6714 10.6756 10.6714 10.6704 10.6714C10.6652 10.6714 10.6599 10.6714 10.6547 10.6714C10.6495 10.6714 10.6443 10.6714 10.6391 10.6714C10.6338 10.6714 10.6286 10.6714 10.6234 10.6714C10.6182 10.6714 10.613 10.6714 10.6079 10.6714C10.6027 10.6714 10.5975 10.6714 10.5923 10.6714C10.5871 10.6714 10.5819 10.6714 10.5768 10.6714C10.5716 10.6714 10.5664 10.6714 10.5613 10.6714C10.5561 10.6714 10.551 10.6714 10.5458 10.6714C10.5407 10.6714 10.5355 10.6714 10.5304 10.6714C10.5253 10.6714 10.5201 10.6714 10.515 10.6714C10.5099 10.6714 10.5048 10.6714 10.4997 10.6714C10.4945 10.6714 10.4894 10.6714 10.4843 10.6714C10.4792 10.6714 10.4741 10.6714 10.469 10.6714C10.4639 10.6714 10.4588 10.6714 10.4538 10.6714C10.4487 10.6714 10.4436 10.6714 10.4385 10.6714C10.4335 10.6714 10.4284 10.6714 10.4233 10.6714C10.4183 10.6714 10.4132 10.6714 10.4082 10.6714C10.4031 10.6714 10.3981 10.6714 10.393 10.6714C10.388 10.6714 10.383 10.6714 10.3779 10.6714C10.3729 10.6714 10.3679 10.6714 10.3629 10.6714C10.3578 10.6714 10.3528 10.6714 10.3478 10.6714C10.3428 10.6714 10.3378 10.6714 10.3328 10.6714C10.3278 10.6714 10.3228 10.6714 10.3178 10.6714C10.3128 10.6714 10.3079 10.6714 10.3029 10.6714C10.2979 10.6714 10.2929 10.6714 10.288 10.6714C10.283 10.6714 10.278 10.6714 10.2731 10.6714C10.2681 10.6714 10.2632 10.6714 10.2582 10.6714C10.2533 10.6714 10.2484 10.6714 10.2434 10.6714C10.2385 10.6714 10.2336 10.6714 10.2286 10.6714C10.2237 10.6714 10.2188 10.6714 10.2139 10.6714C10.209 10.6714 10.2041 10.6714 10.1992 10.6714C10.1943 10.6714 10.1894 10.6714 10.1845 10.6714C10.1796 10.6714 10.1747 10.6714 10.1698 10.6714C10.1649 10.6714 10.1601 10.6714 10.1552 10.6714C10.1503 10.6714 10.1455 10.6714 10.1406 10.6714C10.1357 10.6714 10.1309 10.6714 10.126 10.6714C10.1212 10.6714 10.1163 10.6714 10.1115 10.6714C10.1067 10.6714 10.1018 10.6714 10.097 10.6714C10.0922 10.6714 10.0873 10.6714 10.0825 10.6714C10.0777 10.6714 10.0729 10.6714 10.0681 10.6714C10.0633 10.6714 10.0585 10.6714 10.0537 10.6714C10.0489 10.6714 10.0441 10.6714 10.0393 10.6714C10.0345 10.6714 10.0297 10.6714 10.025 10.6714C10.0202 10.6714 10.0154 10.6714 10.0106 10.6714C10.0059 10.6714 10.0011 10.6714 9.99636 10.6714C9.9916 10.6714 9.98685 10.6714 9.98211 10.6714C9.97736 10.6714 9.97262 10.6714 9.96789 10.6714C9.96315 10.6714 9.95842 10.6714 9.9537 10.6714C9.94898 10.6714 9.94426 10.6714 9.93954 10.6714C9.93483 10.6714 9.93012 10.6714 9.92542 10.6714C9.92071 10.6714 9.91601 10.6714 9.91132 10.6714C9.90663 10.6714 9.90194 10.6714 9.89726 10.6714C9.89257 10.6714 9.8879 10.6714 9.88322 10.6714C9.87855 10.6714 9.87388 10.6714 9.86922 10.6714C9.86456 10.6714 9.8599 10.6714 9.85525 10.6714C9.8506 10.6714 9.84595 10.6714 9.84131 10.6714C9.83667 10.6714 9.83203 10.6714 9.8274 10.6714C9.82277 10.6714 9.81814 10.6714 9.81352 10.6714C9.8089 10.6714 9.80428 10.6714 9.79967 10.6714C9.79506 10.6714 9.79045 10.6714 9.78585 10.6714C9.78125 10.6714 9.77666 10.6714 9.77207 10.6714C9.76748 10.6714 9.76289 10.6714 9.75831 10.6714C9.75373 10.6714 9.74916 10.6714 9.74459 10.6714C9.74002 10.6714 9.73545 10.6714 9.73089 10.6714C9.72633 10.6714 9.72178 10.6714 9.71723 10.6714C9.71268 10.6714 9.70814 10.6714 9.7036 10.6714C9.69906 10.6714 9.69452 10.6714 9.68999 10.6714C9.68547 10.6714 9.68094 10.6714 9.67642 10.6714C9.6719 10.6714 9.66739 10.6714 9.66288 10.6714C9.65837 10.6714 9.65387 10.6714 9.64937 10.6714C9.64487 10.6714 9.64038 10.6714 9.63589 10.6714C9.6314 10.6714 9.62692 10.6714 9.62244 10.6714C9.61796 10.6714 9.61349 10.6714 9.60902 10.6714C9.60455 10.6714 9.60009 10.6714 9.59563 10.6714C9.59118 10.6714 9.58672 10.6714 9.58228 10.6714C9.57783 10.6714 9.57339 10.6714 9.56895 10.6714C9.56451 10.6714 9.56008 10.6714 9.55565 10.6714C9.55122 10.6714 9.5468 10.6714 9.54238 10.6714C9.53797 10.6714 9.53355 10.6714 9.52915 10.6714C9.52474 10.6714 9.52034 10.6714 9.51594 10.6714C9.51154 10.6714 9.50715 10.6714 9.50276 10.6714C9.49837 10.6714 9.49399 10.6714 9.48962 10.6714C9.48524 10.6714 9.48087 10.6714 9.4765 10.6714C9.47213 10.6714 9.46777 10.6714 9.46341 10.6714C9.45906 10.6714 9.4547 10.6714 9.45036 10.6714C9.44601 10.6714 9.44167 10.6714 9.43733 10.6714C9.43299 10.6714 9.42866 10.6714 9.42434 10.6714C9.42001 10.6714 9.41569 10.6714 9.41137 10.6714C9.40705 10.6714 9.40274 10.6714 9.39843 10.6714C9.39413 10.6714 9.38983 10.6714 9.38553 10.6714C9.38123 10.6714 9.37694 10.6714 9.37265 10.6714C9.36837 10.6714 9.36408 10.6714 9.35981 10.6714C9.35553 10.6714 9.35126 10.6714 9.34699 10.6714C9.34272 10.6714 9.33846 10.6714 9.3342 10.6714C9.32995 10.6714 9.32569 10.6714 9.32145 10.6714C9.3172 10.6714 9.31296 10.6714 9.30872 10.6714C9.30448 10.6714 9.30025 10.6714 9.29602 10.6714C9.2918 10.6714 9.28757 10.6714 9.28336 10.6714C9.27914 10.6714 9.27493 10.6714 9.27072 10.6714C9.26651 10.6714 9.26231 10.6714 9.25811 10.6714C9.25391 10.6714 9.24972 10.6714 9.24553 10.6714C9.24135 10.6714 9.23716 10.6714 9.23299 10.6714C9.22881 10.6714 9.22463 10.6714 9.22047 10.6714C9.2163 10.6714 9.21214 10.6714 9.20798 10.6714C9.20382 10.6714 9.19967 10.6714 9.19552 10.6714C9.19137 10.6714 9.18723 10.6714 9.18309 10.6714C9.17895 10.6714 9.17482 10.6714 9.17069 10.6714C9.16656 10.6714 9.16243 10.6714 9.15832 10.6714C9.1542 10.6714 9.15008 10.6714 9.14597 10.6714C9.14186 10.6714 9.13776 10.6714 9.13366 10.6714C9.12956 10.6714 9.12547 10.6714 9.12138 10.6714C9.11729 10.6714 9.1132 10.6714 9.10912 10.6714C9.10505 10.6714 9.10097 10.6714 9.0969 10.6714C9.09283 10.6714 9.08877 10.6714 9.08471 10.6714C9.08065 10.6714 9.07659 10.6714 9.07254 10.6714C9.06849 10.6714 9.06444 10.6714 9.0604 10.6714C9.05636 10.6714 9.05233 10.6714 9.0483 10.6714C9.04426 10.6714 9.04024 10.6714 9.03622 10.6714C9.0322 10.6714 9.02818 10.6714 9.02417 10.6714C9.02016 10.6714 9.01615 10.6714 9.01215 10.6714C9.00815 10.6714 9.00415 10.6714 9.00016 10.6714C8.99617 10.6714 8.99218 10.6714 8.9882 10.6714C8.98421 10.6714 8.98024 10.6714 8.97626 10.6714C8.97229 10.6714 8.96832 10.6714 8.96436 10.6714C8.9604 10.6714 8.95644 10.6714 8.95249 10.6714C8.94853 10.6714 8.94458 10.6714 8.94064 10.6714C8.9367 10.6714 8.93276 10.6714 8.92882 10.6714C8.92489 10.6714 8.92096 10.6714 8.91703 10.6714C8.91311 10.6714 8.90919 10.6714 8.90528 10.6714C8.90136 10.6714 8.89745 10.6714 8.89355 10.6714C8.88964 10.6714 8.88574 10.6714 8.88184 10.6714C8.87795 10.6714 8.87406 10.6714 8.87017 10.6714C8.86629 10.6714 8.8624 10.6714 8.85853 10.6714C8.85465 10.6714 8.85078 10.6714 8.84691 10.6714C8.84305 10.6714 8.83918 10.6714 8.83533 10.6714C8.83147 10.6714 8.82762 10.6714 8.82377 10.6714C8.81992 10.6714 8.81608 10.6714 8.81224 10.6714C8.8084 10.6714 8.80457 10.6714 8.80074 10.6714C8.79691 10.6714 8.79309 10.6714 8.78927 10.6714C8.78545 10.6714 8.78163 10.6714 8.77782 10.6714C8.77401 10.6714 8.77021 10.6714 8.76641 10.6714C8.76261 10.6714 8.75881 10.6714 8.75502 10.6714C8.75123 10.6714 8.74745 10.6714 8.74366 10.6714C8.73988 10.6714 8.73611 10.6714 8.73234 10.6714C8.72856 10.6714 8.7248 10.6714 8.72103 10.6714C8.71727 10.6714 8.71352 10.6714 8.70976 10.6714C8.70601 10.6714 8.70226 10.6714 8.69852 10.6714C8.69477 10.6714 8.69104 10.6714 8.6873 10.6714C8.68357 10.6714 8.67984 10.6714 8.67611 10.6714C8.67239 10.6714 8.66867 10.6714 8.66496 10.6714C8.66124 10.6714 8.65753 10.6714 8.65382 10.6714C8.65012 10.6714 8.64642 10.6714 8.64272 10.6714C8.63903 10.6714 8.63533 10.6714 8.63165 10.6714C8.62796 10.6714 8.62428 10.6714 8.6206 10.6714C8.61692 10.6714 8.61325 10.6714 8.60958 10.6714C8.60591 10.6714 8.60225 10.6714 8.59859 10.6714C8.59493 10.6714 8.59128 10.6714 8.58763 10.6714C8.58398 10.6714 8.58034 10.6714 8.5767 10.6714C8.57306 10.6714 8.56942 10.6714 8.56579 10.6714C8.56216 10.6714 8.55853 10.6714 8.55491 10.6714C8.55129 10.6714 8.54767 10.6714 8.54406 10.6714C8.54045 10.6714 8.53684 10.6714 8.53324 10.6714C8.52964 10.6714 8.52604 10.6714 8.52245 10.6714C8.51885 10.6714 8.51526 10.6714 8.51168 10.6714C8.5081 10.6714 8.50452 10.6714 8.50094 10.6714C8.49737 10.6714 8.4938 10.6714 8.49023 10.6714C8.48666 10.6714 8.4831 10.6714 8.47955 10.6714C8.47599 10.6714 8.47244 10.6714 8.46889 10.6714C8.46535 10.6714 8.4618 10.6714 8.45826 10.6714C8.45473 10.6714 8.45119 10.6714 8.44767 10.6714C8.44414 10.6714 8.44061 10.6714 8.43709 10.6714C8.43357 10.6714 8.43006 10.6714 8.42655 10.6714C8.42304 10.6714 8.41953 10.6714 8.41603 10.6714C8.41253 10.6714 8.40904 10.6714 8.40554 10.6714V11.6714ZM18.0134 11.6714C23.2739 11.6714 24.9302 11.6714 27.6477 11.6714L27.6477 10.6714C24.9302 10.6714 23.2739 10.6714 18.0134 10.6714V11.6714ZM7.92238 12.1564C7.91389 11.896 8.12647 11.6714 8.40554 11.6714V10.6714C7.58005 10.6714 6.89541 11.3454 6.92291 12.189L7.92238 12.1564ZM29.1322 12.1891C29.1599 11.3441 28.4719 10.6714 27.6477 10.6714L27.6477 11.6714C27.9282 11.6714 28.1413 11.8973 28.1328 12.1563L29.1322 12.1891Z" fill="url(#paint1_linear_188_1752)" style="mix-blend-mode:overlay" mask="url(#path-2-inside-1_188_1752)"/>
<path d="M10.1419 24.3892C11.4081 24.2999 12.8874 24.9419 14.2258 25.7632C16.5657 27.1989 19.6709 27.1989 22.0108 25.7632C23.3492 24.9419 24.8285 24.2999 26.0947 24.3892C32.7983 24.8618 35.8437 33.2526 35.8437 38.5694C33.6084 40.9142 25.2535 43.0008 18.1183 43.0008C10.9831 43.0008 2.62822 40.9142 0.392944 38.5694C0.393114 33.2526 3.4383 24.8618 10.1419 24.3892Z" fill="url(#paint2_linear_188_1752)"/>
<mask id="path-5-inside-2_188_1752" fill="white">
<path d="M10.1419 24.3892C11.4081 24.2999 12.8874 24.9419 14.2258 25.7632C16.5657 27.1989 19.6709 27.1989 22.0108 25.7632C23.3492 24.9419 24.8285 24.2999 26.0947 24.3892C32.7983 24.8618 35.8437 33.2526 35.8437 38.5694C33.6084 40.9142 25.2535 43.0008 18.1183 43.0008C10.9831 43.0008 2.62822 40.9142 0.392944 38.5694C0.393114 33.2526 3.4383 24.8618 10.1419 24.3892Z"/>
</mask>
<path d="M10.1419 24.3892L10.1067 23.8904L10.1419 24.3892ZM26.0947 24.3892L26.0595 24.8879L26.0947 24.3892ZM35.8437 38.5694L36.2056 38.9145L36.3437 38.7696V38.5694H35.8437ZM0.392944 38.5694L-0.107056 38.5694L-0.107062 38.7696L0.0310462 38.9145L0.392944 38.5694ZM14.2258 25.7632L13.9643 26.1893L14.2258 25.7632ZM22.0108 25.7632L21.7493 25.337L22.0108 25.7632ZM0.892944 38.5695C0.893027 35.9905 1.63528 32.6496 3.18861 29.9093C4.74098 27.1706 7.05358 25.1081 10.177 24.8879L10.1067 23.8904C6.52661 24.1428 3.96482 26.512 2.31866 29.4161C0.673461 32.3185 -0.106968 35.8315 -0.107056 38.5694L0.892944 38.5695ZM35.4818 38.2244C34.992 38.7382 34.1235 39.2761 32.9352 39.7924C31.7578 40.304 30.3084 40.7766 28.6972 41.1793C25.4739 41.9849 21.6422 42.5008 18.1183 42.5008V43.5008C21.7297 43.5008 25.6429 42.9734 28.9397 42.1495C30.5885 41.7374 32.0929 41.2487 33.3337 40.7096C34.5636 40.1752 35.5777 39.573 36.2056 38.9145L35.4818 38.2244ZM18.1183 42.5008C14.5944 42.5008 10.7626 41.9849 7.53937 41.1793C5.92815 40.7766 4.47875 40.304 3.3014 39.7924C2.11309 39.2761 1.24464 38.7382 0.754842 38.2244L0.0310462 38.9145C0.658892 39.573 1.67302 40.1752 2.90289 40.7096C4.14373 41.2487 5.64811 41.7374 7.29691 42.1495C10.5937 42.9734 14.5069 43.5008 18.1183 43.5008V42.5008ZM10.177 24.8879C11.2768 24.8104 12.6399 25.3767 13.9643 26.1893L14.4873 25.337C13.1349 24.5072 11.5394 23.7894 10.1067 23.8904L10.177 24.8879ZM22.2723 26.1893C23.5967 25.3767 24.9598 24.8104 26.0595 24.8879L26.1299 23.8904C24.6972 23.7894 23.1017 24.5072 21.7493 25.337L22.2723 26.1893ZM26.0595 24.8879C29.183 25.1081 31.4957 27.1706 33.048 29.9093C34.6014 32.6496 35.3437 35.9905 35.3437 38.5694H36.3437C36.3437 35.8315 35.5632 32.3185 33.918 29.4161C32.2718 26.512 29.71 24.1428 26.1299 23.8904L26.0595 24.8879ZM13.9643 26.1893C16.4646 27.7235 19.772 27.7235 22.2723 26.1893L21.7493 25.337C19.5698 26.6743 16.6667 26.6743 14.4873 25.337L13.9643 26.1893Z" fill="url(#paint3_linear_188_1752)" style="mix-blend-mode:overlay" mask="url(#path-5-inside-2_188_1752)"/>
<path fill-rule="evenodd" clip-rule="evenodd" d="M9.40686 10.1211H26.4194C27.5239 10.1211 28.4194 9.22566 28.4194 8.12109V5.1714C28.4194 4.35359 27.9215 3.61818 27.1622 3.31445L19.7701 0.357617C18.578 -0.119205 17.2482 -0.119206 16.0562 0.357617L8.66408 3.31445C7.90476 3.61818 7.40686 4.35359 7.40686 5.1714V8.12109C7.40686 9.22566 8.30229 10.1211 9.40686 10.1211ZM17.0536 4.00824V2.57557C17.0536 2.10082 17.4384 1.71597 17.9132 1.71597C18.3879 1.71597 18.7728 2.10082 18.7728 2.57557V4.00824H20.2055C20.6802 4.00824 21.0651 4.3931 21.0651 4.86784C21.0651 5.34259 20.6802 5.72745 20.2055 5.72745H18.7728V7.16012C18.7728 7.63486 18.3879 8.01972 17.9132 8.01972C17.4384 8.01972 17.0536 7.63486 17.0536 7.16012V5.72745H15.6209C15.1462 5.72745 14.7613 5.34259 14.7613 4.86784C14.7613 4.3931 15.1462 4.00824 15.6209 4.00824H17.0536Z" fill="url(#paint4_linear_188_1752)"/>
<mask id="path-8-inside-3_188_1752" fill="white">
<path fill-rule="evenodd" clip-rule="evenodd" d="M9.40686 10.1211H26.4194C27.5239 10.1211 28.4194 9.22566 28.4194 8.12109V5.1714C28.4194 4.35359 27.9215 3.61818 27.1622 3.31445L19.7701 0.357617C18.578 -0.119205 17.2482 -0.119206 16.0562 0.357617L8.66408 3.31445C7.90476 3.61818 7.40686 4.35359 7.40686 5.1714V8.12109C7.40686 9.22566 8.30229 10.1211 9.40686 10.1211ZM17.0536 4.00824V2.57557C17.0536 2.10082 17.4384 1.71597 17.9132 1.71597C18.3879 1.71597 18.7728 2.10082 18.7728 2.57557V4.00824H20.2055C20.6802 4.00824 21.0651 4.3931 21.0651 4.86784C21.0651 5.34259 20.6802 5.72745 20.2055 5.72745H18.7728V7.16012C18.7728 7.63486 18.3879 8.01972 17.9132 8.01972C17.4384 8.01972 17.0536 7.63486 17.0536 7.16012V5.72745H15.6209C15.1462 5.72745 14.7613 5.34259 14.7613 4.86784C14.7613 4.3931 15.1462 4.00824 15.6209 4.00824H17.0536Z"/>
</mask>
<path d="M27.1622 3.31445L27.3478 2.85021V2.85021L27.1622 3.31445ZM19.7701 0.357617L19.5844 0.821855V0.821855L19.7701 0.357617ZM16.0562 0.357617L15.8705 -0.106622V-0.106622L16.0562 0.357617ZM8.66408 3.31445L8.47838 2.85021H8.47838L8.66408 3.31445ZM17.0536 4.00824V4.50824H17.5536V4.00824H17.0536ZM18.7728 4.00824H18.2728V4.50824H18.7728V4.00824ZM18.7728 5.72745V5.22745H18.2728V5.72745H18.7728ZM17.0536 5.72745H17.5536V5.22745H17.0536V5.72745ZM26.4194 9.62109H9.40686V10.6211H26.4194V9.62109ZM27.9194 8.12109C27.9194 8.94952 27.2478 9.62109 26.4194 9.62109V10.6211C27.8001 10.6211 28.9194 9.5018 28.9194 8.12109H27.9194ZM27.9194 5.1714V8.12109H28.9194V5.1714H27.9194ZM26.9765 3.77869C27.5459 4.00648 27.9194 4.55805 27.9194 5.1714H28.9194C28.9194 4.14914 28.297 3.22987 27.3478 2.85021L26.9765 3.77869ZM19.5844 0.821855L26.9765 3.77869L27.3478 2.85021L19.9558 -0.106622L19.5844 0.821855ZM16.2419 0.821855C17.3147 0.392715 18.5115 0.392715 19.5844 0.821855L19.9558 -0.106622C18.6445 -0.631126 17.1817 -0.631126 15.8705 -0.106622L16.2419 0.821855ZM8.84977 3.77869L16.2419 0.821855L15.8705 -0.106622L8.47838 2.85021L8.84977 3.77869ZM7.90686 5.1714C7.90686 4.55805 8.28029 4.00648 8.84977 3.77869L8.47838 2.85021C7.52924 3.22987 6.90686 4.14914 6.90686 5.1714H7.90686ZM7.90686 8.12109V5.1714H6.90686V8.12109H7.90686ZM9.40686 9.62109C8.57843 9.62109 7.90686 8.94952 7.90686 8.12109H6.90686C6.90686 9.5018 8.02615 10.6211 9.40686 10.6211V9.62109ZM16.5536 2.57557V4.00824H17.5536V2.57557H16.5536ZM17.9132 1.21597C17.1623 1.21597 16.5536 1.82468 16.5536 2.57557H17.5536C17.5536 2.37697 17.7146 2.21597 17.9132 2.21597V1.21597ZM19.2728 2.57557C19.2728 1.82468 18.6641 1.21597 17.9132 1.21597V2.21597C18.1118 2.21597 18.2728 2.37697 18.2728 2.57557H19.2728ZM19.2728 4.00824V2.57557H18.2728V4.00824H19.2728ZM20.2055 3.50824H18.7728V4.50824H20.2055V3.50824ZM21.5651 4.86784C21.5651 4.11696 20.9563 3.50824 20.2055 3.50824V4.50824C20.4041 4.50824 20.5651 4.66924 20.5651 4.86784H21.5651ZM20.2055 6.22745C20.9563 6.22745 21.5651 5.61873 21.5651 4.86784H20.5651C20.5651 5.06645 20.4041 5.22745 20.2055 5.22745V6.22745ZM18.7728 6.22745H20.2055V5.22745H18.7728V6.22745ZM19.2728 7.16012V5.72745H18.2728V7.16012H19.2728ZM17.9132 8.51972C18.6641 8.51972 19.2728 7.91101 19.2728 7.16012H18.2728C18.2728 7.35872 18.1118 7.51972 17.9132 7.51972V8.51972ZM16.5536 7.16012C16.5536 7.91101 17.1623 8.51972 17.9132 8.51972V7.51972C17.7146 7.51972 17.5536 7.35872 17.5536 7.16012H16.5536ZM16.5536 5.72745V7.16012H17.5536V5.72745H16.5536ZM15.6209 6.22745H17.0536V5.22745H15.6209V6.22745ZM14.2613 4.86784C14.2613 5.61873 14.87 6.22745 15.6209 6.22745V5.22745C15.4223 5.22745 15.2613 5.06645 15.2613 4.86784H14.2613ZM15.6209 3.50824C14.87 3.50824 14.2613 4.11696 14.2613 4.86784H15.2613C15.2613 4.66924 15.4223 4.50824 15.6209 4.50824V3.50824ZM17.0536 3.50824H15.6209V4.50824H17.0536V3.50824Z" fill="url(#paint5_linear_188_1752)" style="mix-blend-mode:overlay" mask="url(#path-8-inside-3_188_1752)"/>
<g filter="url(#filter0_bd_188_1752)">
<path d="M39.6071 15.7349C40.7117 15.7349 41.6071 16.6303 41.6071 17.7349V31.2639C41.6071 32.3684 40.7117 33.2639 39.6071 33.2639H25.8163C25.4741 33.2639 25.1376 33.3517 24.8391 33.5188L17.5396 37.6066C16.2064 38.3531 14.5624 37.3895 14.5624 35.8615V17.7349C14.5624 16.6303 15.4578 15.7349 16.5624 15.7349H39.6071Z" fill="url(#paint6_radial_188_1752)" fill-opacity="0.5" shape-rendering="crispEdges"/>
</g>
<path d="M39.6071 15.9849C40.5736 15.9849 41.3571 16.7684 41.3571 17.7349V31.2639C41.3571 32.2304 40.5736 33.0139 39.6071 33.0139H25.8163C25.4313 33.0139 25.0528 33.1126 24.7169 33.3007L17.4174 37.3884C16.2509 38.0417 14.8124 37.1985 14.8124 35.8615V17.7349C14.8124 16.7684 15.5959 15.9849 16.5624 15.9849H39.6071Z" stroke="white" stroke-width="0.5"/>
<defs>
<filter id="filter0_bd_188_1752" x="10.5624" y="13.7349" width="35.0447" height="32.1294" filterUnits="userSpaceOnUse" color-interpolation-filters="sRGB">
<feFlood flood-opacity="0" result="BackgroundImageFix"/>
<feGaussianBlur in="BackgroundImage" stdDeviation="1"/>
<feComposite in2="SourceAlpha" operator="in" result="effect1_backgroundBlur_188_1752"/>
<feColorMatrix in="SourceAlpha" type="matrix" values="0 0 0 0 0 0 0 0 0 0 0 0 0 0 0 0 0 0 127 0" result="hardAlpha"/>
<feOffset dy="4"/>
<feGaussianBlur stdDeviation="2"/>
<feComposite in2="hardAlpha" operator="out"/>
<feColorMatrix type="matrix" values="0 0 0 0 0 0 0 0 0 0 0 0 0 0 0 0 0 0 0.35 0"/>
<feBlend mode="normal" in2="effect1_backgroundBlur_188_1752" result="effect2_dropShadow_188_1752"/>
<feBlend mode="normal" in="SourceGraphic" in2="effect2_dropShadow_188_1752" result="shape"/>
</filter>
<linearGradient id="paint0_linear_188_1752" x1="12.1945" y1="14.5984" x2="20.9152" y2="21.1693" gradientUnits="userSpaceOnUse">
<stop stop-color="#4AC0AF"/>
<stop offset="1" stop-color="#0069A7"/>
</linearGradient>
<linearGradient id="paint1_linear_188_1752" x1="18.0275" y1="12.6172" x2="24.7723" y2="23.0536" gradientUnits="userSpaceOnUse">
<stop stop-color="white" stop-opacity="0.51"/>
<stop offset="1" stop-opacity="0.44"/>
</linearGradient>
<linearGradient id="paint2_linear_188_1752" x1="8.36936" y1="29.2082" x2="21.0692" y2="40.5621" gradientUnits="userSpaceOnUse">
<stop stop-color="#4AC0AF"/>
<stop offset="1" stop-color="#0069A7"/>
</linearGradient>
<linearGradient id="paint3_linear_188_1752" x1="18.1183" y1="26.4174" x2="26.8729" y2="42.4902" gradientUnits="userSpaceOnUse">
<stop stop-color="white" stop-opacity="0.51"/>
<stop offset="1" stop-opacity="0.44"/>
</linearGradient>
<linearGradient id="paint4_linear_188_1752" x1="12.1347" y1="2.62399" x2="19.079" y2="9.39376" gradientUnits="userSpaceOnUse">
<stop stop-color="#4AC0AF"/>
<stop offset="1" stop-color="#0069A7"/>
</linearGradient>
<linearGradient id="paint5_linear_188_1752" x1="17.9131" y1="1.10699" x2="22.4419" y2="10.1734" gradientUnits="userSpaceOnUse">
<stop stop-color="white" stop-opacity="0.51"/>
<stop offset="1" stop-opacity="0.44"/>
</linearGradient>
<radialGradient id="paint6_radial_188_1752" cx="0" cy="0" r="1" gradientUnits="userSpaceOnUse" gradientTransform="translate(11.3148 11.2729) rotate(74.426) scale(29.1469 19.6398)">
<stop stop-color="white"/>
<stop offset="1" stop-color="#C9C5C5"/>
</radialGradient>
</defs>
</svg>
