<svg width="17" height="16" viewBox="0 0 17 16" fill="none" xmlns="http://www.w3.org/2000/svg">
<path d="M16.3516 8C16.3516 3.75 12.8516 0.25 8.60156 0.25C4.32031 0.25 0.851562 3.75 0.851562 8C0.851562 12.2812 4.32031 15.75 8.60156 15.75C12.8516 15.75 16.3516 12.2812 16.3516 8ZM7.69531 12.125C7.50781 12.3125 7.16406 12.3125 6.97656 12.125L3.72656 8.875C3.53906 8.6875 3.53906 8.34375 3.72656 8.15625L4.44531 7.46875C4.63281 7.25 4.94531 7.25 5.13281 7.46875L7.35156 9.65625L12.0391 4.96875C12.2266 4.75 12.5391 4.75 12.7266 4.96875L13.4453 5.65625C13.6328 5.84375 13.6328 6.1875 13.4453 6.375L7.69531 12.125Z" fill="#3CA70D"/>
</svg>
