<svg width="23" height="26" viewBox="0 0 23 26" fill="none" xmlns="http://www.w3.org/2000/svg">
<path d="M12.5308 26C12.2003 25.9339 11.8699 25.8788 11.5504 25.7907C10.4306 25.5073 9.4048 24.9349 8.57554 24.1308C7.74628 23.3267 7.14262 22.3189 6.82489 21.2084C6.63478 20.5498 6.542 19.867 6.54951 19.1816V14.0265C6.2521 13.9604 5.9657 13.9053 5.70134 13.8282C4.32407 13.483 3.07361 12.7526 2.09629 11.7227C1.11897 10.6927 0.455217 9.40562 0.182711 8.01215C0.0667235 7.46546 0.0113133 6.90766 0.0174832 6.34885C-0.00454724 4.94991 0.0174832 3.562 0.00646799 2.16306C-0.01079 2.00938 0.00659443 1.85379 0.0573446 1.70771C0.108095 1.56163 0.190921 1.42877 0.299742 1.3189C0.408563 1.20902 0.540614 1.12491 0.686197 1.07275C0.83178 1.02059 0.987197 1.00171 1.14104 1.01748C1.73586 1.05053 2.31966 1.01748 2.9255 1.01748L2.98058 0.76413C3.02497 0.53423 3.15332 0.329071 3.34064 0.188583C3.52795 0.048094 3.76084 -0.0176734 3.99398 0.00408006C4.22016 0.0205256 4.43248 0.11927 4.5908 0.281645C4.74911 0.444019 4.84245 0.658771 4.85316 0.885298C4.8752 1.60129 4.8752 2.31728 4.85316 3.04428C4.8422 3.26966 4.74847 3.48307 4.58994 3.64364C4.4314 3.80421 4.2192 3.90065 3.99398 3.91448C3.76041 3.93856 3.52636 3.87368 3.33852 3.7328C3.15068 3.59192 3.02286 3.3854 2.98058 3.15443C2.96621 3.07643 2.94783 2.99922 2.9255 2.92311H1.93413C1.93413 3.03327 1.92312 3.12139 1.92312 3.20951C1.92312 4.26697 1.9121 5.32443 1.92312 6.38189C1.89816 7.3979 2.1493 8.40165 2.64977 9.2862C3.15024 10.1707 3.88129 10.903 4.76504 11.4048C5.8638 12.0377 7.14262 12.2849 8.39808 12.1073C9.65354 11.9296 10.8136 11.3373 11.6936 10.4245C12.7363 9.33095 13.3062 7.87062 13.2798 6.35986V2.93413H12.3105C12.2664 2.93413 12.1893 3.03327 12.1783 3.09936C12.147 3.34161 12.0233 3.56238 11.833 3.71549C11.6427 3.8686 11.4005 3.94217 11.1572 3.92083C10.9139 3.89949 10.6882 3.78487 10.5275 3.60097C10.3667 3.41707 10.2833 3.17812 10.2947 2.93413V0.984435C10.2846 0.738086 10.3713 0.497566 10.5362 0.314303C10.7012 0.13104 10.9313 0.0195787 11.1773 0.00375119C11.4233 -0.0120764 11.6658 0.0689862 11.8529 0.229606C12.0399 0.390227 12.1567 0.617656 12.1783 0.863267C12.1853 0.920116 12.2001 0.975723 12.2223 1.0285C12.8502 1.0285 13.4781 1.05053 14.0949 1.0285C14.2443 1.01325 14.3952 1.03165 14.5365 1.08234C14.6779 1.13302 14.806 1.21471 14.9117 1.32141C15.0173 1.4281 15.0977 1.5571 15.147 1.69893C15.1963 1.84076 15.2132 1.99182 15.1965 2.14103C15.1854 3.55098 15.1965 4.96093 15.1965 6.37088C15.2158 8.25396 14.5379 10.0777 13.2934 11.491C12.0488 12.9043 10.3255 13.8074 8.45514 14.0265V19.3358C8.45351 20.4964 8.87898 21.6171 9.65048 22.4843C10.422 23.3514 11.4855 23.9043 12.6385 24.0377C13.7915 24.1711 14.9532 23.8757 15.9023 23.2076C16.8515 22.5396 17.5216 21.5456 17.785 20.4153C17.8737 20.0101 17.918 19.5964 17.9172 19.1816C17.9392 18.0801 17.9172 16.9675 17.9172 15.866C17.9284 15.7905 17.9108 15.7135 17.868 15.6503C17.8252 15.587 17.7602 15.5422 17.6859 15.5245C16.9069 15.2457 16.2511 14.7013 15.8336 13.9869C15.4162 13.2725 15.264 12.4339 15.4036 11.6184C15.5432 10.8028 15.9657 10.0626 16.597 9.52772C17.2283 8.99285 18.0279 8.69758 18.8552 8.69378C19.6826 8.68999 20.4849 8.97791 21.121 9.50697C21.7572 10.036 22.1865 10.7723 22.3336 11.5866C22.4807 12.4008 22.3361 13.2408 21.9253 13.959C21.5144 14.6772 20.8636 15.2276 20.0872 15.5135C20.0005 15.5299 19.9234 15.5792 19.8721 15.651C19.8208 15.7228 19.7992 15.8117 19.8118 15.899C19.8228 17.0777 19.8228 18.2673 19.8118 19.4459C19.7853 20.8945 19.2854 22.2947 18.3883 23.4324C17.4913 24.5701 16.2464 25.3829 14.844 25.7466C14.5135 25.8348 14.172 25.8898 13.8306 25.9559H12.5087L12.5308 26ZM18.7984 10.6668C18.5808 10.6754 18.3672 10.7288 18.1712 10.8238C17.9751 10.9187 17.8008 11.0531 17.6591 11.2186C17.5175 11.384 17.4115 11.577 17.3479 11.7853C17.2842 11.9936 17.2643 12.2129 17.2893 12.4292C17.3231 12.7406 17.4474 13.0353 17.6469 13.2768C17.8463 13.5183 18.1121 13.6961 18.4114 13.7882C18.7108 13.8803 19.0306 13.8826 19.3312 13.795C19.6319 13.7073 19.9003 13.5335 20.1033 13.295C20.3063 13.0564 20.4349 12.7636 20.4733 12.4528C20.5117 12.142 20.4582 11.8267 20.3194 11.5459C20.1806 11.2652 19.9626 11.0313 19.6922 10.8731C19.4219 10.7149 19.1112 10.6393 18.7984 10.6558V10.6668Z" fill="white"/>
</svg>
