<svg width="21" height="20" viewBox="0 0 21 20" fill="none" xmlns="http://www.w3.org/2000/svg">
<path d="M10.5002 4.57764e-05C4.95337 4.57764e-05 0.500244 4.49223 0.500244 10C0.500244 15.5469 4.95337 20 10.5002 20C16.0081 20 20.5002 15.5469 20.5002 10C20.5002 4.49223 16.0081 4.57764e-05 10.5002 4.57764e-05ZM10.5002 18.125C6.00806 18.125 2.37524 14.4922 2.37524 10C2.37524 5.54692 6.00806 1.87505 10.5002 1.87505C14.9534 1.87505 18.6252 5.54692 18.6252 10C18.6252 14.4922 14.9534 18.125 10.5002 18.125ZM10.5002 11.875C11.0081 11.875 11.4377 11.4844 11.4377 10.9375V5.93755C11.4377 5.42973 11.0081 5.00005 10.5002 5.00005C9.95337 5.00005 9.56274 5.42973 9.56274 5.93755V10.9375C9.56274 11.4844 9.95337 11.875 10.5002 11.875ZM10.5002 13.2032C9.79712 13.2032 9.25024 13.75 9.25024 14.4141C9.25024 15.0782 9.79712 15.625 10.5002 15.625C11.1643 15.625 11.7112 15.0782 11.7112 14.4141C11.7112 13.75 11.1643 13.2032 10.5002 13.2032Z" fill="#407F06"/>
</svg>
