<svg width="36" height="37" viewBox="0 0 36 37" fill="none" xmlns="http://www.w3.org/2000/svg">
<path d="M23.625 12.8047C24.3281 13.5078 24.3281 14.5625 23.625 15.1953L20.3203 18.5L23.625 21.8047C24.3281 22.5078 24.3281 23.5625 23.625 24.1953C22.9922 24.8984 21.9375 24.8984 21.3047 24.1953L18 20.8906L14.625 24.1953C13.9922 24.8984 12.9375 24.8984 12.3047 24.1953C11.6016 23.5625 11.6016 22.5078 12.3047 21.8047L15.5391 18.5L12.2344 15.1953C11.5312 14.5625 11.5312 13.5078 12.2344 12.8047C12.8672 12.1719 13.9219 12.1719 14.625 12.8047L18 16.1797L21.2344 12.8047C21.8672 12.1719 22.9219 12.1719 23.625 12.8047ZM18 0.5C27.9141 0.5 36 8.58594 36 18.5C36 28.4844 27.9141 36.5 18 36.5C8.01562 36.5 0 28.4844 0 18.5C0 8.58594 8.01562 0.5 18 0.5ZM18 33.125C26.0156 33.125 32.625 26.5859 32.625 18.5C32.625 10.4844 26.0156 3.875 18 3.875C9.91406 3.875 3.375 10.4844 3.375 18.5C3.375 26.5859 9.91406 33.125 18 33.125Z" fill="#0071A3"/>
</svg>
