<svg width="32" height="32" viewBox="0 0 32 32" fill="none" xmlns="http://www.w3.org/2000/svg">
<path d="M16 0C7.125 0 0 7.1875 0 16C0 24.875 7.125 32 16 32C24.8125 32 32 24.875 32 16C32 7.1875 24.8125 0 16 0ZM23.1875 13.25L15.1875 21.25C14.875 21.625 14.4375 21.75 14 21.75C13.5 21.75 13.0625 21.625 12.75 21.25L8.75 17.25C8.0625 16.5625 8.0625 15.5 8.75 14.8125C9.4375 14.125 10.5 14.125 11.1875 14.8125L14 17.5625L20.75 10.8125C21.4375 10.125 22.5 10.125 23.1875 10.8125C23.875 11.5 23.875 12.5625 23.1875 13.25Z" fill="#3CA70D"/>
</svg>
