<svg width="27" height="17" viewBox="0 0 27 17" fill="none" xmlns="http://www.w3.org/2000/svg">
<path d="M17.1314 0.0135193C12.6939 0.0135193 9.13139 3.60727 9.13139 8.01352C9.13139 12.451 12.6939 16.0135 17.1314 16.0135C21.5376 16.0135 25.1314 12.451 25.1314 8.01352C25.1314 3.60727 21.5376 0.0135193 17.1314 0.0135193ZM17.1314 14.5135C13.5376 14.5135 10.6314 11.6073 10.6314 8.01352C10.6314 4.45102 13.5376 1.51352 17.1314 1.51352C20.6939 1.51352 23.6314 4.45102 23.6314 8.01352C23.6314 11.6073 20.6939 14.5135 17.1314 14.5135ZM18.3814 10.5135H17.8814V7.76352C17.8814 7.35727 17.5376 7.01352 17.1314 7.01352H16.1314C15.6939 7.01352 15.3814 7.35727 15.3814 7.76352C15.3814 8.20102 15.6939 8.51352 16.1314 8.51352H16.3814V10.5135H15.8814C15.4439 10.5135 15.1314 10.8573 15.1314 11.2635C15.1314 11.701 15.4439 12.0135 15.8814 12.0135H18.3814C18.7876 12.0135 19.1314 11.701 19.1314 11.2635C19.1314 10.8573 18.7876 10.5135 18.3814 10.5135ZM17.1314 6.01352C17.6626 6.01352 18.1314 5.57602 18.1314 5.01352C18.1314 4.48227 17.6626 4.01352 17.1314 4.01352C16.5689 4.01352 16.1314 4.48227 16.1314 5.01352C16.1314 5.57602 16.5689 6.01352 17.1314 6.01352Z" fill="#002F87"/>
</svg>
