<svg width="12" height="12" viewBox="0 0 12 12" fill="none" xmlns="http://www.w3.org/2000/svg">
<path d="M6 0C2.67188 0 0 2.69531 0 6C0 9.32812 2.67188 12 6 12C9.30469 12 12 9.32812 12 6C12 2.69531 9.30469 0 6 0ZM6 10.875C3.30469 10.875 1.125 8.69531 1.125 6C1.125 3.32812 3.30469 1.125 6 1.125C8.67188 1.125 10.875 3.32812 10.875 6C10.875 8.69531 8.67188 10.875 6 10.875ZM6 7.875C5.57812 7.875 5.25 8.20312 5.25 8.625C5.25 9.04688 5.55469 9.375 6 9.375C6.39844 9.375 6.75 9.04688 6.75 8.625C6.75 8.20312 6.39844 7.875 6 7.875ZM6.77344 3H5.57812C4.66406 3 3.9375 3.72656 3.9375 4.64062C3.9375 4.94531 4.19531 5.20312 4.5 5.20312C4.80469 5.20312 5.0625 4.94531 5.0625 4.64062C5.0625 4.35938 5.27344 4.125 5.55469 4.125H6.75C7.05469 4.125 7.3125 4.35938 7.3125 4.64062C7.3125 4.82812 7.21875 4.99219 7.05469 5.08594L5.71875 5.88281C5.53125 6 5.4375 6.1875 5.4375 6.375V6.75C5.4375 7.05469 5.69531 7.3125 6 7.3125C6.30469 7.3125 6.5625 7.05469 6.5625 6.75V6.70312L7.61719 6.04688C8.10938 5.74219 8.41406 5.20312 8.41406 4.64062C8.4375 3.72656 7.71094 3 6.77344 3Z" fill="#B50303"/>
</svg>
