<svg width="21" height="17" viewBox="0 0 21 17" fill="none" xmlns="http://www.w3.org/2000/svg">
<path d="M19.7383 6.5H15.4883V1.25C15.4883 0.84375 15.1445 0.5 14.7383 0.5H10.2383C9.80078 0.5 9.48828 0.84375 9.48828 1.25V3.5H7.48828V1C7.48828 0.75 7.23828 0.5 6.98828 0.5H6.48828C6.20703 0.5 5.98828 0.75 5.98828 1V3.5H3.98828V1C3.98828 0.75 3.73828 0.5 3.48828 0.5H2.98828C2.70703 0.5 2.48828 0.75 2.48828 1V3.5H1.23828C0.800781 3.5 0.488281 3.84375 0.488281 4.25V15.5C0.488281 16.0625 0.925781 16.5 1.48828 16.5H19.4883C20.0195 16.5 20.4883 16.0625 20.4883 15.5V7.25C20.4883 6.84375 20.1445 6.5 19.7383 6.5ZM4.48828 13.125C4.48828 13.3438 4.30078 13.5 4.11328 13.5H2.86328C2.64453 13.5 2.48828 13.3438 2.48828 13.125V11.875C2.48828 11.6875 2.64453 11.5 2.86328 11.5H4.11328C4.30078 11.5 4.48828 11.6875 4.48828 11.875V13.125ZM4.48828 10.125C4.48828 10.3438 4.30078 10.5 4.11328 10.5H2.86328C2.64453 10.5 2.48828 10.3438 2.48828 10.125V8.875C2.48828 8.6875 2.64453 8.5 2.86328 8.5H4.11328C4.30078 8.5 4.48828 8.6875 4.48828 8.875V10.125ZM4.48828 7.125C4.48828 7.34375 4.30078 7.5 4.11328 7.5H2.86328C2.64453 7.5 2.48828 7.34375 2.48828 7.125V5.875C2.48828 5.6875 2.64453 5.5 2.86328 5.5H4.11328C4.30078 5.5 4.48828 5.6875 4.48828 5.875V7.125ZM8.48828 13.125C8.48828 13.3438 8.30078 13.5 8.11328 13.5H6.86328C6.64453 13.5 6.48828 13.3438 6.48828 13.125V11.875C6.48828 11.6875 6.64453 11.5 6.86328 11.5H8.11328C8.30078 11.5 8.48828 11.6875 8.48828 11.875V13.125ZM8.48828 10.125C8.48828 10.3438 8.30078 10.5 8.11328 10.5H6.86328C6.64453 10.5 6.48828 10.3438 6.48828 10.125V8.875C6.48828 8.6875 6.64453 8.5 6.86328 8.5H8.11328C8.30078 8.5 8.48828 8.6875 8.48828 8.875V10.125ZM8.48828 7.125C8.48828 7.34375 8.30078 7.5 8.11328 7.5H6.86328C6.64453 7.5 6.48828 7.34375 6.48828 7.125V5.875C6.48828 5.6875 6.64453 5.5 6.86328 5.5H8.11328C8.30078 5.5 8.48828 5.6875 8.48828 5.875V7.125ZM13.4883 10.125C13.4883 10.3438 13.3008 10.5 13.1133 10.5H11.8633C11.6445 10.5 11.4883 10.3438 11.4883 10.125V8.875C11.4883 8.6875 11.6445 8.5 11.8633 8.5H13.1133C13.3008 8.5 13.4883 8.6875 13.4883 8.875V10.125ZM13.4883 7.125C13.4883 7.34375 13.3008 7.5 13.1133 7.5H11.8633C11.6445 7.5 11.4883 7.34375 11.4883 7.125V5.875C11.4883 5.6875 11.6445 5.5 11.8633 5.5H13.1133C13.3008 5.5 13.4883 5.6875 13.4883 5.875V7.125ZM13.4883 4.125C13.4883 4.34375 13.3008 4.5 13.1133 4.5H11.8633C11.6445 4.5 11.4883 4.34375 11.4883 4.125V2.875C11.4883 2.6875 11.6445 2.5 11.8633 2.5H13.1133C13.3008 2.5 13.4883 2.6875 13.4883 2.875V4.125ZM18.4883 13.125C18.4883 13.3438 18.3008 13.5 18.1133 13.5H16.8633C16.6445 13.5 16.4883 13.3438 16.4883 13.125V11.875C16.4883 11.6875 16.6445 11.5 16.8633 11.5H18.1133C18.3008 11.5 18.4883 11.6875 18.4883 11.875V13.125ZM18.4883 10.125C18.4883 10.3438 18.3008 10.5 18.1133 10.5H16.8633C16.6445 10.5 16.4883 10.3438 16.4883 10.125V8.875C16.4883 8.6875 16.6445 8.5 16.8633 8.5H18.1133C18.3008 8.5 18.4883 8.6875 18.4883 8.875V10.125Z" fill="#5B5C5B"/>
</svg>
