<svg width="20" height="17" viewBox="0 0 20 17" fill="none" xmlns="http://www.w3.org/2000/svg">
<path d="M7.625 12.0206H6.375C6.15625 12.0206 6 12.2081 6 12.3956V13.6456C6 13.8643 6.15625 14.0206 6.375 14.0206H7.625C7.8125 14.0206 8 13.8643 8 13.6456V12.3956C8 12.2081 7.8125 12.0206 7.625 12.0206ZM7.625 6.0206H6.375C6.15625 6.0206 6 6.2081 6 6.3956V7.6456C6 7.86435 6.15625 8.0206 6.375 8.0206H7.625C7.8125 8.0206 8 7.86435 8 7.6456V6.3956C8 6.2081 7.8125 6.0206 7.625 6.0206ZM4.625 6.0206H3.375C3.15625 6.0206 3 6.2081 3 6.3956V7.6456C3 7.86435 3.15625 8.0206 3.375 8.0206H4.625C4.8125 8.0206 5 7.86435 5 7.6456V6.3956C5 6.2081 4.8125 6.0206 4.625 6.0206ZM4.625 12.0206H3.375C3.15625 12.0206 3 12.2081 3 12.3956V13.6456C3 13.8643 3.15625 14.0206 3.375 14.0206H4.625C4.8125 14.0206 5 13.8643 5 13.6456V12.3956C5 12.2081 4.8125 12.0206 4.625 12.0206ZM4.625 9.0206H3.375C3.15625 9.0206 3 9.2081 3 9.3956V10.6456C3 10.8643 3.15625 11.0206 3.375 11.0206H4.625C4.8125 11.0206 5 10.8643 5 10.6456V9.3956C5 9.2081 4.8125 9.0206 4.625 9.0206ZM7.625 9.0206H6.375C6.15625 9.0206 6 9.2081 6 9.3956V10.6456C6 10.8643 6.15625 11.0206 6.375 11.0206H7.625C7.8125 11.0206 8 10.8643 8 10.6456V9.3956C8 9.2081 7.8125 9.0206 7.625 9.0206ZM16.625 12.0206H15.375C15.1562 12.0206 15 12.2081 15 12.3956V13.6456C15 13.8643 15.1562 14.0206 15.375 14.0206H16.625C16.8125 14.0206 17 13.8643 17 13.6456V12.3956C17 12.2081 16.8125 12.0206 16.625 12.0206ZM16.625 9.0206H15.375C15.1562 9.0206 15 9.2081 15 9.3956V10.6456C15 10.8643 15.1562 11.0206 15.375 11.0206H16.625C16.8125 11.0206 17 10.8643 17 10.6456V9.3956C17 9.2081 16.8125 9.0206 16.625 9.0206ZM19.25 6.0206H16V0.770599C16 0.364349 15.6562 0.0205994 15.25 0.0205994H8.75C8.3125 0.0205994 8 0.364349 8 0.770599V3.0206H7V0.520599C7 0.270599 6.75 0.0205994 6.5 0.0205994H6C5.71875 0.0205994 5.5 0.270599 5.5 0.520599V3.0206H3.5V0.520599C3.5 0.270599 3.25 0.0205994 3 0.0205994H2.5C2.21875 0.0205994 2 0.270599 2 0.520599V3.0206H0.75C0.3125 3.0206 0 3.36435 0 3.7706V15.5206C0 15.8018 0.21875 16.0206 0.5 16.0206H1C1.25 16.0206 1.5 15.8018 1.5 15.5206V4.5206H9.5V1.5206H14.5V7.5206H18.5V15.5206C18.5 15.8018 18.7188 16.0206 19 16.0206H19.5C19.75 16.0206 20 15.8018 20 15.5206V6.7706C20 6.36435 19.6562 6.0206 19.25 6.0206ZM12.625 3.0206H11.375C11.1562 3.0206 11 3.2081 11 3.3956V4.6456C11 4.86435 11.1562 5.0206 11.375 5.0206H12.625C12.8125 5.0206 13 4.86435 13 4.6456V3.3956C13 3.2081 12.8125 3.0206 12.625 3.0206ZM12.625 9.0206H11.375C11.1562 9.0206 11 9.2081 11 9.3956V10.6456C11 10.8643 11.1562 11.0206 11.375 11.0206H12.625C12.8125 11.0206 13 10.8643 13 10.6456V9.3956C13 9.2081 12.8125 9.0206 12.625 9.0206ZM12.625 6.0206H11.375C11.1562 6.0206 11 6.2081 11 6.3956V7.6456C11 7.86435 11.1562 8.0206 11.375 8.0206H12.625C12.8125 8.0206 13 7.86435 13 7.6456V6.3956C13 6.2081 12.8125 6.0206 12.625 6.0206Z" fill="#999999"/>
</svg>
