<svg width="20" height="17" viewBox="0 0 20 17" fill="none" xmlns="http://www.w3.org/2000/svg">
<path d="M19.25 6.5H15V1.25C15 0.84375 14.6562 0.5 14.25 0.5H9.75C9.3125 0.5 9 0.84375 9 1.25V3.5H7V1C7 0.75 6.75 0.5 6.5 0.5H6C5.71875 0.5 5.5 0.75 5.5 1V3.5H3.5V1C3.5 0.75 3.25 0.5 3 0.5H2.5C2.21875 0.5 2 0.75 2 1V3.5H0.75C0.3125 3.5 0 3.84375 0 4.25V15.5C0 16.0625 0.4375 16.5 1 16.5H19C19.5312 16.5 20 16.0625 20 15.5V7.25C20 6.84375 19.6562 6.5 19.25 6.5ZM4 13.125C4 13.3438 3.8125 13.5 3.625 13.5H2.375C2.15625 13.5 2 13.3438 2 13.125V11.875C2 11.6875 2.15625 11.5 2.375 11.5H3.625C3.8125 11.5 4 11.6875 4 11.875V13.125ZM4 10.125C4 10.3438 3.8125 10.5 3.625 10.5H2.375C2.15625 10.5 2 10.3438 2 10.125V8.875C2 8.6875 2.15625 8.5 2.375 8.5H3.625C3.8125 8.5 4 8.6875 4 8.875V10.125ZM4 7.125C4 7.34375 3.8125 7.5 3.625 7.5H2.375C2.15625 7.5 2 7.34375 2 7.125V5.875C2 5.6875 2.15625 5.5 2.375 5.5H3.625C3.8125 5.5 4 5.6875 4 5.875V7.125ZM8 13.125C8 13.3438 7.8125 13.5 7.625 13.5H6.375C6.15625 13.5 6 13.3438 6 13.125V11.875C6 11.6875 6.15625 11.5 6.375 11.5H7.625C7.8125 11.5 8 11.6875 8 11.875V13.125ZM8 10.125C8 10.3438 7.8125 10.5 7.625 10.5H6.375C6.15625 10.5 6 10.3438 6 10.125V8.875C6 8.6875 6.15625 8.5 6.375 8.5H7.625C7.8125 8.5 8 8.6875 8 8.875V10.125ZM8 7.125C8 7.34375 7.8125 7.5 7.625 7.5H6.375C6.15625 7.5 6 7.34375 6 7.125V5.875C6 5.6875 6.15625 5.5 6.375 5.5H7.625C7.8125 5.5 8 5.6875 8 5.875V7.125ZM13 10.125C13 10.3438 12.8125 10.5 12.625 10.5H11.375C11.1562 10.5 11 10.3438 11 10.125V8.875C11 8.6875 11.1562 8.5 11.375 8.5H12.625C12.8125 8.5 13 8.6875 13 8.875V10.125ZM13 7.125C13 7.34375 12.8125 7.5 12.625 7.5H11.375C11.1562 7.5 11 7.34375 11 7.125V5.875C11 5.6875 11.1562 5.5 11.375 5.5H12.625C12.8125 5.5 13 5.6875 13 5.875V7.125ZM13 4.125C13 4.34375 12.8125 4.5 12.625 4.5H11.375C11.1562 4.5 11 4.34375 11 4.125V2.875C11 2.6875 11.1562 2.5 11.375 2.5H12.625C12.8125 2.5 13 2.6875 13 2.875V4.125ZM18 13.125C18 13.3438 17.8125 13.5 17.625 13.5H16.375C16.1562 13.5 16 13.3438 16 13.125V11.875C16 11.6875 16.1562 11.5 16.375 11.5H17.625C17.8125 11.5 18 11.6875 18 11.875V13.125ZM18 10.125C18 10.3438 17.8125 10.5 17.625 10.5H16.375C16.1562 10.5 16 10.3438 16 10.125V8.875C16 8.6875 16.1562 8.5 16.375 8.5H17.625C17.8125 8.5 18 8.6875 18 8.875V10.125Z" fill="#065394"/>
</svg>
