<svg width="19" height="16" viewBox="0 0 19 16" fill="none" xmlns="http://www.w3.org/2000/svg">
<path d="M8.41992 6.25V8H6.66992C6.51367 8 6.41992 8.125 6.41992 8.25V9.75C6.41992 9.90625 6.51367 10 6.66992 10H8.41992V11.75C8.41992 11.9062 8.51367 12 8.66992 12H10.1699C10.2949 12 10.4199 11.9062 10.4199 11.75V10H12.1699C12.2949 10 12.4199 9.90625 12.4199 9.75V8.25C12.4199 8.125 12.2949 8 12.1699 8H10.4199V6.25C10.4199 6.125 10.2949 6 10.1699 6H8.66992C8.51367 6 8.41992 6.125 8.41992 6.25ZM18.2324 6.75L10.5137 0.40625C10.2324 0.15625 9.82617 0.03125 9.41992 0.03125C8.98242 0.03125 8.57617 0.15625 8.29492 0.40625L0.576172 6.75C0.482422 6.84375 0.419922 6.96875 0.419922 7.125C0.419922 7.25 0.451172 7.375 0.513672 7.4375L0.857422 7.84375C0.919922 7.9375 1.07617 8 1.23242 8C1.35742 8 1.45117 7.96875 1.54492 7.90625L2.41992 7.1875V9H2.38867V15.5C2.38867 15.7812 2.60742 16 2.88867 16H15.9199C16.1699 16 16.4199 15.7812 16.4199 15.5V7.1875L17.2637 7.90625C17.3574 7.96875 17.4512 8.03125 17.5762 8.03125C17.7324 8.03125 17.8887 7.9375 17.9824 7.84375L18.2949 7.4375C18.3574 7.375 18.4199 7.25 18.4199 7.125C18.4199 6.96875 18.3262 6.84375 18.2324 6.75ZM14.9199 7H14.8887V14.5H3.88867V6.09375H3.91992V5.96875L9.41992 1.4375L14.9199 5.96875V7Z" fill="#999999"/>
</svg>
