<svg width="12" height="16" viewBox="0 0 12 16" fill="none" xmlns="http://www.w3.org/2000/svg">
<path d="M10.5 2H8C8 0.90625 7.09375 0 6 0C4.875 0 4 0.90625 4 2H1.5C0.65625 2 0 2.6875 0 3.5V14.5C0 15.3438 0.65625 16 1.5 16H10.5C11.3125 16 12 15.3438 12 14.5V3.5C12 2.6875 11.3125 2 10.5 2ZM6 1.25C6.40625 1.25 6.75 1.59375 6.75 2C6.75 2.4375 6.40625 2.75 6 2.75C5.5625 2.75 5.25 2.4375 5.25 2C5.25 1.59375 5.5625 1.25 6 1.25ZM6 6C7.09375 6 8 6.90625 8 8C8 9.125 7.09375 10 6 10C4.875 10 4 9.125 4 8C4 6.90625 4.875 6 6 6ZM9.5 13.4062C9.5 13.75 9.1875 14 8.78125 14H3.1875C2.8125 14 2.5 13.75 2.5 13.4062V12.8125C2.5 11.8125 3.4375 11 4.59375 11H4.75C5.0625 11.1562 5.625 11.25 6 11.25C6.34375 11.25 6.90625 11.1562 7.21875 11H7.375C8.5625 11 9.5 11.8125 9.5 12.8125V13.4062Z" fill="#999999"/>
</svg>
