<svg width="12" height="17" viewBox="0 0 12 17" fill="none" xmlns="http://www.w3.org/2000/svg">
<path d="M10.5 2.55807H8C8 1.46432 7.09375 0.558075 6 0.558075C4.875 0.558075 4 1.46432 4 2.55807H1.5C0.65625 2.55807 0 3.24557 0 4.05807V15.0581C0 15.9018 0.65625 16.5581 1.5 16.5581H10.5C11.3125 16.5581 12 15.9018 12 15.0581V4.05807C12 3.24557 11.3125 2.55807 10.5 2.55807ZM6 1.80807C6.40625 1.80807 6.75 2.15182 6.75 2.55807C6.75 2.99557 6.40625 3.30807 6 3.30807C5.5625 3.30807 5.25 2.99557 5.25 2.55807C5.25 2.15182 5.5625 1.80807 6 1.80807ZM10.5 14.8706C10.5 14.9956 10.4062 15.0581 10.3125 15.0581H1.6875C1.5625 15.0581 1.5 14.9956 1.5 14.8706V4.24557C1.5 4.15182 1.5625 4.05807 1.6875 4.05807H3V5.18307C3 5.40182 3.15625 5.55807 3.375 5.55807H8.625C8.8125 5.55807 9 5.40182 9 5.18307V4.05807H10.3125C10.4062 4.05807 10.5 4.15182 10.5 4.24557V14.8706ZM7.375 11.5581H7.21875C6.84375 11.7456 6.4375 11.8081 6 11.8081C5.53125 11.8081 5.125 11.7456 4.75 11.5581H4.59375C3.4375 11.5581 2.5 12.3706 2.5 13.3706V13.5581C2.5 13.8393 2.71875 14.0581 3 14.0581H9C9.25 14.0581 9.5 13.8393 9.5 13.5581V13.3706C9.5 12.3706 8.53125 11.5581 7.375 11.5581ZM6 11.0581C7.09375 11.0581 8 10.1831 8 9.05807C8 7.96432 7.09375 7.05807 6 7.05807C4.875 7.05807 4 7.96432 4 9.05807C4 10.1831 4.875 11.0581 6 11.0581Z" fill="#5B5C5B"/>
</svg>
