<svg width="12" height="16" viewBox="0 0 12 16" fill="none" xmlns="http://www.w3.org/2000/svg">
<path d="M10 2C11.0938 2 12 2.90625 12 4V14C12 15.125 11.0938 16 10 16H2C0.875 16 0 15.125 0 14V4C0 2.90625 0.875 2 2 2H3.53125C3.78125 0.875 4.78125 0 6 0C7.1875 0 8.1875 0.875 8.4375 2H10ZM6 1.5C5.5625 1.5 5.25 1.84375 5.25 2.25C5.25 2.6875 5.5625 3 6 3C6.40625 3 6.75 2.6875 6.75 2.25C6.75 1.84375 6.40625 1.5 6 1.5ZM10.5 14V4C10.5 3.75 10.25 3.5 10 3.5H9.40625C9.46875 3.6875 9.5 3.84375 9.5 4V4.5C9.5 4.78125 9.25 5 9 5H3C2.71875 5 2.5 4.78125 2.5 4.5V4C2.5 3.84375 2.5 3.6875 2.5625 3.5H2C1.71875 3.5 1.5 3.75 1.5 4V14C1.5 14.2812 1.71875 14.5 2 14.5H2.03125C2.28125 13.0938 3.5 12 5 12H7C8.46875 12 9.6875 13.0938 9.9375 14.5H10C10.25 14.5 10.5 14.2812 10.5 14ZM6 7C7.09375 7 8 7.90625 8 9C8 10.125 7.09375 11 6 11C4.875 11 4 10.125 4 9C4 7.90625 4.875 7 6 7Z" fill="#757575"/>
</svg>
