<svg width="38" height="38" viewBox="0 0 38 38" fill="none" xmlns="http://www.w3.org/2000/svg">
<path d="M19 0C29.4648 0 38 8.53516 38 19C38 29.5391 29.4648 38 19 38C8.46094 38 0 29.5391 0 19C0 8.53516 8.46094 0 19 0ZM19 34.4375C27.4609 34.4375 34.4375 27.5352 34.4375 19C34.4375 10.5391 27.4609 3.5625 19 3.5625C10.4648 3.5625 3.5625 10.5391 3.5625 19C3.5625 27.5352 10.4648 34.4375 19 34.4375ZM26.5703 21.375C27.3867 21.8203 27.6836 22.9336 27.1641 23.75C26.8672 24.3438 26.2734 24.6406 25.6797 24.6406C25.3086 24.6406 25.0117 24.5664 24.7891 24.418L18.1094 20.5586C17.5156 20.2617 17.2188 19.668 17.2188 19V8.90625C17.2188 7.94141 17.9609 7.125 19 7.125C19.9648 7.125 20.7812 7.94141 20.7812 8.90625V18.0352L26.5703 21.375Z" fill="#4E9D2D"/>
</svg>
