<svg width="12" height="13" viewBox="0 0 12 13" fill="none" xmlns="http://www.w3.org/2000/svg">
<path d="M11.7188 11.3193C12.0562 11.7243 12.0562 12.3318 11.7188 12.6963C11.3438 13.1012 10.7812 13.1012 10.4438 12.6963L6.01875 7.87695L1.55625 12.6963C1.18125 13.1012 0.61875 13.1012 0.28125 12.6963C-0.09375 12.3318 -0.09375 11.7243 0.28125 11.3193L4.74375 6.5L0.28125 1.68069C-0.09375 1.2757 -0.09375 0.668224 0.28125 0.303738C0.61875 -0.101246 1.18125 -0.101246 1.51875 0.303738L6.01875 5.16355L10.4812 0.344237C10.8188 -0.0607477 11.3813 -0.0607477 11.7188 0.344237C12.0938 0.708723 12.0938 1.3162 11.7188 1.72118L7.25625 6.5L11.7188 11.3193Z" fill="white"/>
</svg>
