<svg width="10" height="11" viewBox="0 0 10 11" fill="none" xmlns="http://www.w3.org/2000/svg">
<path d="M9.76562 8.73438C10.0469 9.04688 10.0469 9.51562 9.76562 9.79688C9.45312 10.1094 8.98438 10.1094 8.70312 9.79688L5.01562 6.07812L1.29688 9.79688C0.984375 10.1094 0.515625 10.1094 0.234375 9.79688C-0.078125 9.51562 -0.078125 9.04688 0.234375 8.73438L3.95312 5.01562L0.234375 1.29688C-0.078125 0.984375 -0.078125 0.515625 0.234375 0.234375C0.515625 -0.078125 0.984375 -0.078125 1.26562 0.234375L5.01562 3.98438L8.73438 0.265625C9.01562 -0.046875 9.48438 -0.046875 9.76562 0.265625C10.0781 0.546875 10.0781 1.01562 9.76562 1.32812L6.04688 5.01562L9.76562 8.73438Z" fill="#A0A0A0"/>
</svg>
