<svg width="39" height="35" viewBox="0 0 39 35" fill="none" xmlns="http://www.w3.org/2000/svg">
<path d="M34.25 11.1143H27.875V4.73926C27.875 2.41504 25.9492 0.489258 23.625 0.489258H4.5C2.10938 0.489258 0.25 2.41504 0.25 4.73926V15.3643C0.25 17.7549 2.10938 19.6143 4.5 19.6143H6.625V23.0674C6.625 23.5986 6.95703 23.8643 7.42188 23.8643C7.55469 23.8643 7.6875 23.8643 7.88672 23.7314L13 20.876V25.9893C13 28.3799 14.8594 30.2393 17.25 30.2393H23.625L30.7969 34.3564C30.9961 34.4893 31.1289 34.4893 31.3281 34.4893C31.7266 34.4893 32.125 34.2236 32.125 33.6924V30.2393H34.25C36.5742 30.2393 38.5 28.3799 38.5 25.9893V15.3643C38.5 13.04 36.5742 11.1143 34.25 11.1143ZM4.5 17.4893C3.30469 17.4893 2.375 16.5596 2.375 15.3643V4.73926C2.375 3.61035 3.30469 2.61426 4.5 2.61426H23.625C24.7539 2.61426 25.75 3.61035 25.75 4.73926V15.3643C25.75 16.5596 24.7539 17.4893 23.625 17.4893H14.5273L14.0625 17.8213L8.75 20.8096V17.4893H4.5ZM36.375 25.9893C36.375 27.1846 35.3789 28.1143 34.25 28.1143H30V31.4346L24.6211 28.4463L24.1562 28.1143H17.25C16.0547 28.1143 15.125 27.1846 15.125 25.9893V19.6143H23.625C25.9492 19.6143 27.875 17.7549 27.875 15.3643V13.2393H34.25C35.3789 13.2393 36.375 14.2354 36.375 15.3643V25.9893Z" fill="white"/>
</svg>
