<svg width="34" height="34" viewBox="0 0 34 34" fill="none" xmlns="http://www.w3.org/2000/svg">
<path d="M17.0002 0.332031C7.75537 0.332031 0.333496 7.81901 0.333496 16.9987C0.333496 26.2435 7.75537 33.6654 17.0002 33.6654C26.1799 33.6654 33.6668 26.2435 33.6668 16.9987C33.6668 7.81901 26.1799 0.332031 17.0002 0.332031ZM17.0002 30.5404C9.51318 30.5404 3.4585 24.4857 3.4585 16.9987C3.4585 9.57682 9.51318 3.45703 17.0002 3.45703C24.422 3.45703 30.5418 9.57682 30.5418 16.9987C30.5418 24.4857 24.422 30.5404 17.0002 30.5404ZM17.0002 20.1237C17.8465 20.1237 18.5627 19.4727 18.5627 18.5612V10.2279C18.5627 9.38151 17.8465 8.66537 17.0002 8.66537C16.0887 8.66537 15.4377 9.38151 15.4377 10.2279V18.5612C15.4377 19.4727 16.0887 20.1237 17.0002 20.1237ZM17.0002 22.3372C15.8283 22.3372 14.9168 23.2487 14.9168 24.3555C14.9168 25.4622 15.8283 26.3737 17.0002 26.3737C18.1069 26.3737 19.0184 25.4622 19.0184 24.3555C19.0184 23.2487 18.1069 22.3372 17.0002 22.3372Z" fill="#E7A304"/>
</svg>
