<svg width="320" height="144" viewBox="0 0 320 144" fill="none" xmlns="http://www.w3.org/2000/svg">
<path d="M72.616 76.792L70.25 78.808H69.452L71.524 76.792H72.616ZM70.348 89.168C67.59 89.168 65.714 87.096 65.714 84.338C65.714 81.58 67.59 79.508 70.348 79.508C73.106 79.508 74.996 81.58 74.996 84.338C74.996 87.096 73.106 89.168 70.348 89.168ZM70.348 88.132C72.434 88.132 73.792 86.508 73.792 84.338C73.792 82.154 72.434 80.544 70.348 80.544C68.248 80.544 66.918 82.154 66.918 84.338C66.918 86.508 68.248 88.132 70.348 88.132ZM80.0871 89.168C79.1631 89.168 78.3651 88.72 77.8051 87.978V91.576H76.7551V82.238H77.8051V83.246C78.2951 82.56 79.1351 82.07 80.0871 82.07C81.8651 82.07 83.0971 83.414 83.0971 85.612C83.0971 87.796 81.8651 89.168 80.0871 89.168ZM79.8211 88.23C81.1791 88.23 81.9911 87.11 81.9911 85.612C81.9911 84.114 81.1791 83.008 79.8211 83.008C78.9951 83.008 78.1691 83.498 77.8051 84.086V87.138C78.1691 87.726 78.9951 88.23 79.8211 88.23ZM86.4888 89.168C85.4808 89.168 84.9768 88.594 84.9768 87.586V83.162H83.8568V82.238H84.9768V80.39H86.0408V82.238H87.4128V83.162H86.0408V87.362C86.0408 87.866 86.2648 88.23 86.7128 88.23C87.0208 88.23 87.2868 88.09 87.4268 87.936L87.7348 88.734C87.4688 88.986 87.0908 89.168 86.4888 89.168ZM89.414 81.272C89.022 81.272 88.7 80.964 88.7 80.572C88.7 80.18 89.022 79.858 89.414 79.858C89.806 79.858 90.114 80.18 90.114 80.572C90.114 80.964 89.806 81.272 89.414 81.272ZM89.932 89H88.882V82.238H89.932V89ZM101.239 89H100.189V84.408C100.189 83.554 99.8246 83.008 98.9426 83.008C98.2426 83.008 97.5006 83.498 97.1506 84.044V89H96.1006V84.408C96.1006 83.554 95.7506 83.008 94.8546 83.008C94.1686 83.008 93.4406 83.512 93.0766 84.058V89H92.0266V82.238H93.0766V83.218C93.3706 82.784 94.2666 82.07 95.2746 82.07C96.2966 82.07 96.8846 82.63 97.0806 83.33C97.4586 82.714 98.3686 82.07 99.3486 82.07C100.581 82.07 101.239 82.756 101.239 84.114V89ZM106.287 89.168C104.229 89.168 102.941 87.572 102.941 85.612C102.941 83.652 104.229 82.07 106.287 82.07C108.345 82.07 109.633 83.652 109.633 85.612C109.633 87.572 108.345 89.168 106.287 89.168ZM106.287 88.23C107.729 88.23 108.527 86.998 108.527 85.612C108.527 84.24 107.729 83.008 106.287 83.008C104.845 83.008 104.047 84.24 104.047 85.612C104.047 86.998 104.845 88.23 106.287 88.23Z" fill="#008767"/>
<path d="M177.254 89H176.092V79.662H179.844C181.72 79.662 182.77 80.95 182.77 82.476C182.77 84.002 181.706 85.29 179.844 85.29H177.254V89ZM179.704 84.254C180.81 84.254 181.566 83.526 181.566 82.476C181.566 81.426 180.81 80.698 179.704 80.698H177.254V84.254H179.704ZM185.317 89H184.267V82.238H185.317V83.316C185.863 82.616 186.647 82.084 187.571 82.084V83.162C187.445 83.148 187.319 83.134 187.165 83.134C186.507 83.134 185.625 83.666 185.317 84.212V89ZM191.954 89.168C189.938 89.168 188.496 87.726 188.496 85.612C188.496 83.652 189.896 82.07 191.828 82.07C193.872 82.07 195.076 83.666 195.076 85.696V85.962H189.616C189.7 87.236 190.582 88.3 192.038 88.3C192.822 88.3 193.592 87.992 194.138 87.432L194.642 88.118C193.956 88.79 193.046 89.168 191.954 89.168ZM194.04 85.178C194.026 84.184 193.354 82.938 191.814 82.938C190.372 82.938 189.658 84.156 189.602 85.178H194.04ZM199.731 89H198.583L195.769 82.238H196.917L199.157 87.782L201.411 82.238H202.545L199.731 89ZM206.706 89.168C204.69 89.168 203.248 87.726 203.248 85.612C203.248 83.652 204.648 82.07 206.58 82.07C208.624 82.07 209.828 83.666 209.828 85.696V85.962H204.368C204.452 87.236 205.334 88.3 206.79 88.3C207.574 88.3 208.344 87.992 208.89 87.432L209.394 88.118C208.708 88.79 207.798 89.168 206.706 89.168ZM208.792 85.178C208.778 84.184 208.106 82.938 206.566 82.938C205.124 82.938 204.41 84.156 204.354 85.178H208.792ZM217.143 89H216.107V84.576C216.107 83.372 215.491 83.008 214.581 83.008C213.755 83.008 212.985 83.512 212.579 84.058V89H211.529V82.238H212.579V83.218C213.055 82.644 213.979 82.07 215.001 82.07C216.401 82.07 217.143 82.784 217.143 84.254V89ZM222.235 89.168C220.219 89.168 218.861 87.614 218.861 85.612C218.861 83.61 220.219 82.07 222.235 82.07C223.467 82.07 224.195 82.574 224.713 83.246L224.013 83.876C223.565 83.26 222.991 83.008 222.291 83.008C220.863 83.008 219.953 84.114 219.953 85.612C219.953 87.11 220.863 88.23 222.291 88.23C222.991 88.23 223.565 87.95 224.013 87.348L224.713 87.992C224.195 88.664 223.467 89.168 222.235 89.168ZM226.73 81.272C226.338 81.272 226.016 80.964 226.016 80.572C226.016 80.18 226.338 79.858 226.73 79.858C227.122 79.858 227.43 80.18 227.43 80.572C227.43 80.964 227.122 81.272 226.73 81.272ZM227.248 89H226.198V82.238H227.248V89ZM232.297 89.168C230.239 89.168 228.951 87.572 228.951 85.612C228.951 83.652 230.239 82.07 232.297 82.07C234.355 82.07 235.643 83.652 235.643 85.612C235.643 87.572 234.355 89.168 232.297 89.168ZM232.297 88.23C233.739 88.23 234.537 86.998 234.537 85.612C234.537 84.24 233.739 83.008 232.297 83.008C230.855 83.008 230.057 84.24 230.057 85.612C230.057 86.998 230.855 88.23 232.297 88.23ZM234.537 79.2L232.171 81.216H231.373L233.445 79.2H234.537ZM242.969 89H241.933V84.576C241.933 83.372 241.317 83.008 240.407 83.008C239.581 83.008 238.811 83.512 238.405 84.058V89H237.355V82.238H238.405V83.218C238.881 82.644 239.805 82.07 240.827 82.07C242.227 82.07 242.969 82.784 242.969 84.254V89Z" fill="#B50303"/>
<path d="M64.5 69C64.5 66.2386 66.7386 64 69.5 64H120.9V74H69.5C66.7386 74 64.5 71.7614 64.5 69V69Z" fill="#008767"/>
<path d="M124.9 64H181.3V74H124.9V64Z" fill="#E7A304"/>
<path d="M185.301 64H236.701C239.462 64 241.701 66.2386 241.701 69V69C241.701 71.7614 239.462 74 236.701 74H185.301V64Z" fill="#B50303"/>
<path d="M9.086 12H7.756L6.93 9.914H2.282L1.456 12H0.126L3.892 2.662H5.334L9.086 12ZM6.594 8.892L4.606 3.852L2.632 8.892H6.594ZM15.8788 12H14.8428V7.576C14.8428 6.372 14.2268 6.008 13.3168 6.008C12.4908 6.008 11.7208 6.512 11.3148 7.058V12H10.2648V5.238H11.3148V6.218C11.7908 5.644 12.7148 5.07 13.7368 5.07C15.1368 5.07 15.8788 5.784 15.8788 7.254V12ZM19.7115 12.168C18.7035 12.168 18.1995 11.594 18.1995 10.586V6.162H17.0795V5.238H18.1995V3.39H19.2635V5.238H20.6355V6.162H19.2635V10.362C19.2635 10.866 19.4875 11.23 19.9355 11.23C20.2435 11.23 20.5095 11.09 20.6495 10.936L20.9575 11.734C20.6915 11.986 20.3135 12.168 19.7115 12.168ZM25.1707 12.168C23.1547 12.168 21.7127 10.726 21.7127 8.612C21.7127 6.652 23.1127 5.07 25.0447 5.07C27.0887 5.07 28.2927 6.666 28.2927 8.696V8.962H22.8327C22.9167 10.236 23.7987 11.3 25.2547 11.3C26.0387 11.3 26.8087 10.992 27.3547 10.432L27.8587 11.118C27.1727 11.79 26.2627 12.168 25.1707 12.168ZM27.2567 8.178C27.2427 7.184 26.5707 5.938 25.0307 5.938C23.5887 5.938 22.8747 7.156 22.8187 8.178H27.2567ZM32.1494 12.168C31.0294 12.168 30.1054 11.818 29.4194 11.104L29.9514 10.348C30.3994 10.866 31.2534 11.314 32.1774 11.314C33.2134 11.314 33.7874 10.824 33.7874 10.152C33.7874 8.514 29.6014 9.522 29.6014 7.016C29.6014 5.952 30.4974 5.07 32.1074 5.07C33.2694 5.07 34.0814 5.504 34.6134 6.05L34.1234 6.778C33.7174 6.288 32.9894 5.924 32.1074 5.924C31.1834 5.924 30.6094 6.386 30.6094 6.988C30.6094 8.458 34.7954 7.492 34.7954 10.124C34.7954 11.258 33.8854 12.168 32.1494 12.168ZM46.0742 12H45.0242V10.992C44.5202 11.678 43.6942 12.168 42.7422 12.168C40.9782 12.168 39.7322 10.824 39.7322 8.626C39.7322 6.456 40.9782 5.07 42.7422 5.07C43.6522 5.07 44.4782 5.518 45.0242 6.26V2.662H46.0742V12ZM43.0082 11.23C43.8342 11.23 44.6602 10.74 45.0242 10.152V7.1C44.6602 6.512 43.8342 6.008 43.0082 6.008C41.6362 6.008 40.8242 7.128 40.8242 8.626C40.8242 10.124 41.6362 11.23 43.0082 11.23ZM51.243 12.168C49.227 12.168 47.785 10.726 47.785 8.612C47.785 6.652 49.185 5.07 51.117 5.07C53.161 5.07 54.365 6.666 54.365 8.696V8.962H48.905C48.989 10.236 49.871 11.3 51.327 11.3C52.111 11.3 52.881 10.992 53.427 10.432L53.931 11.118C53.245 11.79 52.335 12.168 51.243 12.168ZM53.329 8.178C53.315 7.184 52.643 5.938 51.103 5.938C49.661 5.938 48.947 7.156 48.891 8.178H53.329ZM62.6707 12.168C60.6547 12.168 59.2967 10.614 59.2967 8.612C59.2967 6.61 60.6547 5.07 62.6707 5.07C63.9027 5.07 64.6307 5.574 65.1487 6.246L64.4487 6.876C64.0007 6.26 63.4267 6.008 62.7267 6.008C61.2987 6.008 60.3887 7.114 60.3887 8.612C60.3887 10.11 61.2987 11.23 62.7267 11.23C63.4267 11.23 64.0007 10.95 64.4487 10.348L65.1487 10.992C64.6307 11.664 63.9027 12.168 62.6707 12.168ZM69.588 12.168C67.53 12.168 66.242 10.572 66.242 8.612C66.242 6.652 67.53 5.07 69.588 5.07C71.646 5.07 72.934 6.652 72.934 8.612C72.934 10.572 71.646 12.168 69.588 12.168ZM69.588 11.23C71.03 11.23 71.828 9.998 71.828 8.612C71.828 7.24 71.03 6.008 69.588 6.008C68.146 6.008 67.348 7.24 67.348 8.612C67.348 9.998 68.146 11.23 69.588 11.23ZM80.2597 12H79.2237V7.576C79.2237 6.372 78.6077 6.008 77.6977 6.008C76.8717 6.008 76.1017 6.512 75.6957 7.058V12H74.6457V5.238H75.6957V6.218C76.1717 5.644 77.0957 5.07 78.1177 5.07C79.5177 5.07 80.2597 5.784 80.2597 7.254V12ZM84.0923 12.168C83.0843 12.168 82.5803 11.594 82.5803 10.586V6.162H81.4603V5.238H82.5803V3.39H83.6443V5.238H85.0163V6.162H83.6443V10.362C83.6443 10.866 83.8683 11.23 84.3163 11.23C84.6243 11.23 84.8903 11.09 85.0303 10.936L85.3383 11.734C85.0723 11.986 84.6943 12.168 84.0923 12.168ZM87.0175 4.272C86.6255 4.272 86.3035 3.964 86.3035 3.572C86.3035 3.18 86.6255 2.858 87.0175 2.858C87.4095 2.858 87.7175 3.18 87.7175 3.572C87.7175 3.964 87.4095 4.272 87.0175 4.272ZM87.5355 12H86.4855V5.238H87.5355V12ZM95.2441 12H94.2081V7.576C94.2081 6.372 93.5921 6.008 92.6821 6.008C91.8561 6.008 91.0861 6.512 90.6801 7.058V12H89.6301V5.238H90.6801V6.218C91.1561 5.644 92.0801 5.07 93.1021 5.07C94.5021 5.07 95.2441 5.784 95.2441 7.254V12ZM102.969 12H101.919V11.048C101.401 11.636 100.519 12.168 99.5107 12.168C98.0967 12.168 97.3547 11.468 97.3547 10.012V5.238H98.4047V9.69C98.4047 10.88 99.0067 11.23 99.9307 11.23C100.743 11.23 101.527 10.754 101.919 10.208V5.238H102.969V12ZM110.344 12H109.294V11.23C108.748 11.846 107.964 12.168 107.054 12.168C105.92 12.168 104.702 11.398 104.702 9.928C104.702 8.402 105.906 7.702 107.054 7.702C107.978 7.702 108.748 7.996 109.294 8.612V7.394C109.294 6.498 108.566 5.98 107.586 5.98C106.774 5.98 106.116 6.26 105.514 6.918L105.024 6.19C105.752 5.434 106.62 5.07 107.726 5.07C109.168 5.07 110.344 5.714 110.344 7.352V12ZM107.446 11.412C108.174 11.412 108.888 11.132 109.294 10.572V9.284C108.888 8.738 108.174 8.458 107.446 8.458C106.452 8.458 105.766 9.074 105.766 9.928C105.766 10.796 106.452 11.412 107.446 11.412ZM113.512 12H112.462V5.238H113.512V6.316C114.058 5.616 114.842 5.084 115.766 5.084V6.162C115.64 6.148 115.514 6.134 115.36 6.134C114.702 6.134 113.82 6.666 113.512 7.212V12ZM123.772 12.168C121.756 12.168 120.314 10.726 120.314 8.612C120.314 6.652 121.714 5.07 123.646 5.07C125.69 5.07 126.894 6.666 126.894 8.696V8.962H121.434C121.518 10.236 122.4 11.3 123.856 11.3C124.64 11.3 125.41 10.992 125.956 10.432L126.46 11.118C125.774 11.79 124.864 12.168 123.772 12.168ZM125.858 8.178C125.844 7.184 125.172 5.938 123.632 5.938C122.19 5.938 121.476 7.156 121.42 8.178H125.858ZM130.751 12.168C129.631 12.168 128.707 11.818 128.021 11.104L128.553 10.348C129.001 10.866 129.855 11.314 130.779 11.314C131.815 11.314 132.389 10.824 132.389 10.152C132.389 8.514 128.203 9.522 128.203 7.016C128.203 5.952 129.099 5.07 130.709 5.07C131.871 5.07 132.683 5.504 133.215 6.05L132.725 6.778C132.319 6.288 131.591 5.924 130.709 5.924C129.785 5.924 129.211 6.386 129.211 6.988C129.211 8.458 133.397 7.492 133.397 10.124C133.397 11.258 132.487 12.168 130.751 12.168ZM139.258 4.272C138.866 4.272 138.544 3.964 138.544 3.572C138.544 3.18 138.866 2.858 139.258 2.858C139.65 2.858 139.958 3.18 139.958 3.572C139.958 3.964 139.65 4.272 139.258 4.272ZM139.776 12H138.726V5.238H139.776V12ZM151.082 12H150.032V7.408C150.032 6.554 149.668 6.008 148.786 6.008C148.086 6.008 147.344 6.498 146.994 7.044V12H145.944V7.408C145.944 6.554 145.594 6.008 144.698 6.008C144.012 6.008 143.284 6.512 142.92 7.058V12H141.87V5.238H142.92V6.218C143.214 5.784 144.11 5.07 145.118 5.07C146.14 5.07 146.728 5.63 146.924 6.33C147.302 5.714 148.212 5.07 149.192 5.07C150.424 5.07 151.082 5.756 151.082 7.114V12ZM156.509 12.168C155.585 12.168 154.787 11.72 154.227 10.978V14.576H153.177V5.238H154.227V6.246C154.717 5.56 155.557 5.07 156.509 5.07C158.287 5.07 159.519 6.414 159.519 8.612C159.519 10.796 158.287 12.168 156.509 12.168ZM156.243 11.23C157.601 11.23 158.413 10.11 158.413 8.612C158.413 7.114 157.601 6.008 156.243 6.008C155.417 6.008 154.591 6.498 154.227 7.086V10.138C154.591 10.726 155.417 11.23 156.243 11.23ZM164.143 12.168C162.085 12.168 160.797 10.572 160.797 8.612C160.797 6.652 162.085 5.07 164.143 5.07C166.201 5.07 167.489 6.652 167.489 8.612C167.489 10.572 166.201 12.168 164.143 12.168ZM164.143 11.23C165.585 11.23 166.383 9.998 166.383 8.612C166.383 7.24 165.585 6.008 164.143 6.008C162.701 6.008 161.903 7.24 161.903 8.612C161.903 9.998 162.701 11.23 164.143 11.23ZM170.25 12H169.2V5.238H170.25V6.316C170.796 5.616 171.58 5.084 172.504 5.084V6.162C172.378 6.148 172.252 6.134 172.098 6.134C171.44 6.134 170.558 6.666 170.25 7.212V12ZM175.543 12.168C174.535 12.168 174.031 11.594 174.031 10.586V6.162H172.911V5.238H174.031V3.39H175.095V5.238H176.467V6.162H175.095V10.362C175.095 10.866 175.319 11.23 175.767 11.23C176.075 11.23 176.341 11.09 176.481 10.936L176.789 11.734C176.523 11.986 176.145 12.168 175.543 12.168ZM183.215 12H182.165V11.23C181.619 11.846 180.835 12.168 179.925 12.168C178.791 12.168 177.573 11.398 177.573 9.928C177.573 8.402 178.777 7.702 179.925 7.702C180.849 7.702 181.619 7.996 182.165 8.612V7.394C182.165 6.498 181.437 5.98 180.457 5.98C179.645 5.98 178.987 6.26 178.385 6.918L177.895 6.19C178.623 5.434 179.491 5.07 180.597 5.07C182.039 5.07 183.215 5.714 183.215 7.352V12ZM180.317 11.412C181.045 11.412 181.759 11.132 182.165 10.572V9.284C181.759 8.738 181.045 8.458 180.317 8.458C179.323 8.458 178.637 9.074 178.637 9.928C178.637 10.796 179.323 11.412 180.317 11.412ZM190.947 12H189.911V7.576C189.911 6.372 189.295 6.008 188.385 6.008C187.559 6.008 186.789 6.512 186.383 7.058V12H185.333V5.238H186.383V6.218C186.859 5.644 187.783 5.07 188.805 5.07C190.205 5.07 190.947 5.784 190.947 7.254V12ZM194.78 12.168C193.772 12.168 193.268 11.594 193.268 10.586V6.162H192.148V5.238H193.268V3.39H194.332V5.238H195.704V6.162H194.332V10.362C194.332 10.866 194.556 11.23 195.004 11.23C195.312 11.23 195.578 11.09 195.718 10.936L196.026 11.734C195.76 11.986 195.382 12.168 194.78 12.168ZM200.239 12.168C198.223 12.168 196.781 10.726 196.781 8.612C196.781 6.652 198.181 5.07 200.113 5.07C202.157 5.07 203.361 6.666 203.361 8.696V8.962H197.901C197.985 10.236 198.867 11.3 200.323 11.3C201.107 11.3 201.877 10.992 202.423 10.432L202.927 11.118C202.241 11.79 201.331 12.168 200.239 12.168ZM202.325 8.178C202.311 7.184 201.639 5.938 200.099 5.938C198.657 5.938 197.943 7.156 197.887 8.178H202.325ZM211.527 11.23C212.353 11.23 213.179 10.726 213.543 10.138V7.086C213.179 6.498 212.353 6.008 211.527 6.008C210.169 6.008 209.357 7.114 209.357 8.612C209.357 10.11 210.169 11.23 211.527 11.23ZM211.261 12.168C209.483 12.168 208.251 10.796 208.251 8.612C208.251 6.414 209.483 5.07 211.261 5.07C212.213 5.07 213.053 5.56 213.543 6.246V5.238H214.593V14.576H213.543V10.978C212.983 11.72 212.185 12.168 211.261 12.168ZM222.31 12H221.26V11.048C220.742 11.636 219.86 12.168 218.852 12.168C217.438 12.168 216.696 11.468 216.696 10.012V5.238H217.746V9.69C217.746 10.88 218.348 11.23 219.272 11.23C220.084 11.23 220.868 10.754 221.26 10.208V5.238H222.31V12ZM227.473 12.168C225.457 12.168 224.015 10.726 224.015 8.612C224.015 6.652 225.415 5.07 227.347 5.07C229.391 5.07 230.595 6.666 230.595 8.696V8.962H225.135C225.219 10.236 226.101 11.3 227.557 11.3C228.341 11.3 229.111 10.992 229.657 10.432L230.161 11.118C229.475 11.79 228.565 12.168 227.473 12.168ZM229.559 8.178C229.545 7.184 228.873 5.938 227.333 5.938C225.891 5.938 225.177 7.156 225.121 8.178H229.559ZM236.969 12H235.919V5.238H236.969V6.316C237.515 5.616 238.299 5.084 239.223 5.084V6.162C239.097 6.148 238.971 6.134 238.817 6.134C238.159 6.134 237.277 6.666 236.969 7.212V12ZM243.606 12.168C241.59 12.168 240.148 10.726 240.148 8.612C240.148 6.652 241.548 5.07 243.48 5.07C245.524 5.07 246.728 6.666 246.728 8.696V8.962H241.268C241.352 10.236 242.234 11.3 243.69 11.3C244.474 11.3 245.244 10.992 245.79 10.432L246.294 11.118C245.608 11.79 244.698 12.168 243.606 12.168ZM245.692 8.178C245.678 7.184 245.006 5.938 243.466 5.938C242.024 5.938 241.31 7.156 241.254 8.178H245.692ZM251.411 12.168C249.395 12.168 248.037 10.614 248.037 8.612C248.037 6.61 249.395 5.07 251.411 5.07C252.643 5.07 253.371 5.574 253.889 6.246L253.189 6.876C252.741 6.26 252.167 6.008 251.467 6.008C250.039 6.008 249.129 7.114 249.129 8.612C249.129 10.11 250.039 11.23 251.467 11.23C252.167 11.23 252.741 10.95 253.189 10.348L253.889 10.992C253.371 11.664 252.643 12.168 251.411 12.168ZM260.988 12H259.938V11.048C259.42 11.636 258.538 12.168 257.53 12.168C256.116 12.168 255.374 11.468 255.374 10.012V5.238H256.424V9.69C256.424 10.88 257.026 11.23 257.95 11.23C258.762 11.23 259.546 10.754 259.938 10.208V5.238H260.988V12ZM266.151 12.168C264.135 12.168 262.693 10.726 262.693 8.612C262.693 6.652 264.093 5.07 266.025 5.07C268.069 5.07 269.273 6.666 269.273 8.696V8.962H263.813C263.897 10.236 264.779 11.3 266.235 11.3C267.019 11.3 267.789 10.992 268.335 10.432L268.839 11.118C268.153 11.79 267.243 12.168 266.151 12.168ZM268.237 8.178C268.223 7.184 267.551 5.938 266.011 5.938C264.569 5.938 263.855 7.156 263.799 8.178H268.237ZM272.024 12H270.974V5.238H272.024V6.316C272.57 5.616 273.354 5.084 274.278 5.084V6.162C274.152 6.148 274.026 6.134 273.872 6.134C273.214 6.134 272.332 6.666 272.024 7.212V12ZM281.545 12H280.495V10.992C279.991 11.678 279.165 12.168 278.213 12.168C276.449 12.168 275.203 10.824 275.203 8.626C275.203 6.456 276.449 5.07 278.213 5.07C279.123 5.07 279.949 5.518 280.495 6.26V2.662H281.545V12ZM278.479 11.23C279.305 11.23 280.131 10.74 280.495 10.152V7.1C280.131 6.512 279.305 6.008 278.479 6.008C277.107 6.008 276.295 7.128 276.295 8.626C276.295 10.124 277.107 11.23 278.479 11.23ZM286.714 12.168C284.698 12.168 283.256 10.726 283.256 8.612C283.256 6.652 284.656 5.07 286.588 5.07C288.632 5.07 289.836 6.666 289.836 8.696V8.962H284.376C284.46 10.236 285.342 11.3 286.798 11.3C287.582 11.3 288.352 10.992 288.898 10.432L289.402 11.118C288.716 11.79 287.806 12.168 286.714 12.168ZM288.8 8.178C288.786 7.184 288.114 5.938 286.574 5.938C285.132 5.938 284.418 7.156 284.362 8.178H288.8ZM293.692 12.168C292.572 12.168 291.648 11.818 290.962 11.104L291.494 10.348C291.942 10.866 292.796 11.314 293.72 11.314C294.756 11.314 295.33 10.824 295.33 10.152C295.33 8.514 291.144 9.522 291.144 7.016C291.144 5.952 292.04 5.07 293.65 5.07C294.812 5.07 295.624 5.504 296.156 6.05L295.666 6.778C295.26 6.288 294.532 5.924 293.65 5.924C292.726 5.924 292.152 6.386 292.152 6.988C292.152 8.458 296.338 7.492 296.338 10.124C296.338 11.258 295.428 12.168 293.692 12.168ZM3.892 27.23C4.718 27.23 5.544 26.726 5.908 26.138V23.086C5.544 22.498 4.718 22.008 3.892 22.008C2.534 22.008 1.722 23.114 1.722 24.612C1.722 26.11 2.534 27.23 3.892 27.23ZM3.626 28.168C1.848 28.168 0.616 26.796 0.616 24.612C0.616 22.414 1.848 21.07 3.626 21.07C4.578 21.07 5.418 21.56 5.908 22.246V21.238H6.958V30.576H5.908V26.978C5.348 27.72 4.55 28.168 3.626 28.168ZM14.6757 28H13.6257V27.048C13.1077 27.636 12.2257 28.168 11.2177 28.168C9.80372 28.168 9.06172 27.468 9.06172 26.012V21.238H10.1117V25.69C10.1117 26.88 10.7137 27.23 11.6377 27.23C12.4497 27.23 13.2337 26.754 13.6257 26.208V21.238H14.6757V28ZM19.8387 28.168C17.8227 28.168 16.3807 26.726 16.3807 24.612C16.3807 22.652 17.7807 21.07 19.7127 21.07C21.7567 21.07 22.9607 22.666 22.9607 24.696V24.962H17.5007C17.5847 26.236 18.4667 27.3 19.9227 27.3C20.7067 27.3 21.4767 26.992 22.0227 26.432L22.5267 27.118C21.8407 27.79 20.9307 28.168 19.8387 28.168ZM21.9247 24.178C21.9107 23.184 21.2387 21.938 19.6987 21.938C18.2567 21.938 17.5427 23.156 17.4867 24.178H21.9247ZM29.3344 28H28.2844V18.662H29.3344V28ZM34.3829 28.168C32.3249 28.168 31.0369 26.572 31.0369 24.612C31.0369 22.652 32.3249 21.07 34.3829 21.07C36.4409 21.07 37.7289 22.652 37.7289 24.612C37.7289 26.572 36.4409 28.168 34.3829 28.168ZM34.3829 27.23C35.8249 27.23 36.6229 25.998 36.6229 24.612C36.6229 23.24 35.8249 22.008 34.3829 22.008C32.9409 22.008 32.1429 23.24 32.1429 24.612C32.1429 25.998 32.9409 27.23 34.3829 27.23ZM41.5966 28.168C40.4766 28.168 39.5526 27.818 38.8666 27.104L39.3986 26.348C39.8466 26.866 40.7006 27.314 41.6246 27.314C42.6606 27.314 43.2346 26.824 43.2346 26.152C43.2346 24.514 39.0486 25.522 39.0486 23.016C39.0486 21.952 39.9446 21.07 41.5546 21.07C42.7166 21.07 43.5286 21.504 44.0606 22.05L43.5706 22.778C43.1646 22.288 42.4366 21.924 41.5546 21.924C40.6306 21.924 40.0566 22.386 40.0566 22.988C40.0566 24.458 44.2426 23.492 44.2426 26.124C44.2426 27.258 43.3326 28.168 41.5966 28.168ZM50.6215 28H49.5715V21.238H50.6215V22.316C51.1675 21.616 51.9515 21.084 52.8755 21.084V22.162C52.7495 22.148 52.6235 22.134 52.4695 22.134C51.8115 22.134 50.9295 22.666 50.6215 23.212V28ZM57.2586 28.168C55.2426 28.168 53.8006 26.726 53.8006 24.612C53.8006 22.652 55.2006 21.07 57.1326 21.07C59.1766 21.07 60.3806 22.666 60.3806 24.696V24.962H54.9206C55.0046 26.236 55.8866 27.3 57.3426 27.3C58.1266 27.3 58.8966 26.992 59.4426 26.432L59.9466 27.118C59.2606 27.79 58.3506 28.168 57.2586 28.168ZM59.3446 24.178C59.3306 23.184 58.6586 21.938 57.1186 21.938C55.6766 21.938 54.9626 23.156 54.9066 24.178H59.3446ZM64.2373 28.168C63.1173 28.168 62.1933 27.818 61.5073 27.104L62.0393 26.348C62.4873 26.866 63.3413 27.314 64.2653 27.314C65.3013 27.314 65.8753 26.824 65.8753 26.152C65.8753 24.514 61.6893 25.522 61.6893 23.016C61.6893 21.952 62.5853 21.07 64.1953 21.07C65.3573 21.07 66.1693 21.504 66.7013 22.05L66.2113 22.778C65.8053 22.288 65.0773 21.924 64.1953 21.924C63.2713 21.924 62.6973 22.386 62.6973 22.988C62.6973 24.458 66.8833 23.492 66.8833 26.124C66.8833 27.258 65.9733 28.168 64.2373 28.168ZM74.2031 28H73.1531V27.048C72.6351 27.636 71.7531 28.168 70.7451 28.168C69.3311 28.168 68.5891 27.468 68.5891 26.012V21.238H69.6391V25.69C69.6391 26.88 70.2411 27.23 71.1651 27.23C71.9771 27.23 72.7611 26.754 73.1531 26.208V21.238H74.2031V28ZM77.35 28H76.3V18.662H77.35V28ZM81.1665 28.168C80.1585 28.168 79.6545 27.594 79.6545 26.586V22.162H78.5345V21.238H79.6545V19.39H80.7185V21.238H82.0905V22.162H80.7185V26.362C80.7185 26.866 80.9425 27.23 81.3905 27.23C81.6985 27.23 81.9645 27.09 82.1045 26.936L82.4125 27.734C82.1465 27.986 81.7685 28.168 81.1665 28.168ZM88.8378 28H87.7878V27.23C87.2418 27.846 86.4578 28.168 85.5478 28.168C84.4138 28.168 83.1958 27.398 83.1958 25.928C83.1958 24.402 84.3998 23.702 85.5478 23.702C86.4718 23.702 87.2418 23.996 87.7878 24.612V23.394C87.7878 22.498 87.0598 21.98 86.0798 21.98C85.2678 21.98 84.6098 22.26 84.0078 22.918L83.5178 22.19C84.2458 21.434 85.1138 21.07 86.2198 21.07C87.6618 21.07 88.8378 21.714 88.8378 23.352V28ZM85.9398 27.412C86.6678 27.412 87.3818 27.132 87.7878 26.572V25.284C87.3818 24.738 86.6678 24.458 85.9398 24.458C84.9458 24.458 84.2598 25.074 84.2598 25.928C84.2598 26.796 84.9458 27.412 85.9398 27.412ZM96.9062 28H95.8563V26.992C95.3523 27.678 94.5263 28.168 93.5743 28.168C91.8103 28.168 90.5643 26.824 90.5643 24.626C90.5643 22.456 91.8103 21.07 93.5743 21.07C94.4843 21.07 95.3103 21.518 95.8563 22.26V18.662H96.9062V28ZM93.8403 27.23C94.6663 27.23 95.4923 26.74 95.8563 26.152V23.1C95.4923 22.512 94.6663 22.008 93.8403 22.008C92.4683 22.008 91.6562 23.128 91.6562 24.626C91.6562 26.124 92.4683 27.23 93.8403 27.23ZM101.963 28.168C99.905 28.168 98.617 26.572 98.617 24.612C98.617 22.652 99.905 21.07 101.963 21.07C104.021 21.07 105.309 22.652 105.309 24.612C105.309 26.572 104.021 28.168 101.963 28.168ZM101.963 27.23C103.405 27.23 104.203 25.998 104.203 24.612C104.203 23.24 103.405 22.008 101.963 22.008C100.521 22.008 99.723 23.24 99.723 24.612C99.723 25.998 100.521 27.23 101.963 27.23ZM109.177 28.168C108.057 28.168 107.133 27.818 106.447 27.104L106.979 26.348C107.427 26.866 108.281 27.314 109.205 27.314C110.241 27.314 110.815 26.824 110.815 26.152C110.815 24.514 106.629 25.522 106.629 23.016C106.629 21.952 107.525 21.07 109.135 21.07C110.297 21.07 111.109 21.504 111.641 22.05L111.151 22.778C110.745 22.288 110.017 21.924 109.135 21.924C108.211 21.924 107.637 22.386 107.637 22.988C107.637 24.458 111.823 23.492 111.823 26.124C111.823 27.258 110.913 28.168 109.177 28.168ZM123.102 28H122.052V26.992C121.548 27.678 120.722 28.168 119.77 28.168C118.006 28.168 116.76 26.824 116.76 24.626C116.76 22.456 118.006 21.07 119.77 21.07C120.68 21.07 121.506 21.518 122.052 22.26V18.662H123.102V28ZM120.036 27.23C120.862 27.23 121.688 26.74 122.052 26.152V23.1C121.688 22.512 120.862 22.008 120.036 22.008C118.664 22.008 117.852 23.128 117.852 24.626C117.852 26.124 118.664 27.23 120.036 27.23ZM128.27 28.168C126.254 28.168 124.812 26.726 124.812 24.612C124.812 22.652 126.212 21.07 128.144 21.07C130.188 21.07 131.392 22.666 131.392 24.696V24.962H125.932C126.016 26.236 126.898 27.3 128.354 27.3C129.138 27.3 129.908 26.992 130.454 26.432L130.958 27.118C130.272 27.79 129.362 28.168 128.27 28.168ZM130.356 24.178C130.342 23.184 129.67 21.938 128.13 21.938C126.688 21.938 125.974 23.156 125.918 24.178H130.356ZM138.438 28.168C137.43 28.168 136.926 27.594 136.926 26.586V22.162H135.806V21.238H136.926V19.39H137.99V21.238H139.362V22.162H137.99V26.362C137.99 26.866 138.214 27.23 138.662 27.23C138.97 27.23 139.236 27.09 139.376 26.936L139.684 27.734C139.418 27.986 139.04 28.168 138.438 28.168ZM146.445 28H145.395V27.048C144.877 27.636 143.995 28.168 142.987 28.168C141.573 28.168 140.831 27.468 140.831 26.012V21.238H141.881V25.69C141.881 26.88 142.483 27.23 143.407 27.23C144.219 27.23 145.003 26.754 145.395 26.208V21.238H146.445V28ZM161.377 28H160.327V23.408C160.327 22.554 159.963 22.008 159.081 22.008C158.381 22.008 157.639 22.498 157.289 23.044V28H156.239V23.408C156.239 22.554 155.889 22.008 154.993 22.008C154.307 22.008 153.579 22.512 153.215 23.058V28H152.165V21.238H153.215V22.218C153.509 21.784 154.405 21.07 155.413 21.07C156.435 21.07 157.023 21.63 157.219 22.33C157.597 21.714 158.507 21.07 159.487 21.07C160.719 21.07 161.377 21.756 161.377 23.114V28ZM166.538 28.168C164.522 28.168 163.08 26.726 163.08 24.612C163.08 22.652 164.48 21.07 166.412 21.07C168.456 21.07 169.66 22.666 169.66 24.696V24.962H164.2C164.284 26.236 165.166 27.3 166.622 27.3C167.406 27.3 168.176 26.992 168.722 26.432L169.226 27.118C168.54 27.79 167.63 28.168 166.538 28.168ZM168.624 24.178C168.61 23.184 167.938 21.938 166.398 21.938C164.956 21.938 164.242 23.156 164.186 24.178H168.624ZM177.311 28H176.261V26.992C175.757 27.678 174.931 28.168 173.979 28.168C172.215 28.168 170.969 26.824 170.969 24.626C170.969 22.456 172.215 21.07 173.979 21.07C174.889 21.07 175.715 21.518 176.261 22.26V18.662H177.311V28ZM174.245 27.23C175.071 27.23 175.897 26.74 176.261 26.152V23.1C175.897 22.512 175.071 22.008 174.245 22.008C172.873 22.008 172.061 23.128 172.061 24.626C172.061 26.124 172.873 27.23 174.245 27.23ZM179.945 20.272C179.553 20.272 179.231 19.964 179.231 19.572C179.231 19.18 179.553 18.858 179.945 18.858C180.337 18.858 180.645 19.18 180.645 19.572C180.645 19.964 180.337 20.272 179.945 20.272ZM180.463 28H179.413V21.238H180.463V28ZM185.54 28.168C183.524 28.168 182.166 26.614 182.166 24.612C182.166 22.61 183.524 21.07 185.54 21.07C186.772 21.07 187.5 21.574 188.018 22.246L187.318 22.876C186.87 22.26 186.296 22.008 185.596 22.008C184.168 22.008 183.258 23.114 183.258 24.612C183.258 26.11 184.168 27.23 185.596 27.23C186.296 27.23 186.87 26.95 187.318 26.348L188.018 26.992C187.5 27.664 186.772 28.168 185.54 28.168ZM190.035 20.272C189.643 20.272 189.321 19.964 189.321 19.572C189.321 19.18 189.643 18.858 190.035 18.858C190.427 18.858 190.735 19.18 190.735 19.572C190.735 19.964 190.427 20.272 190.035 20.272ZM190.553 28H189.503V21.238H190.553V28ZM195.602 28.168C193.544 28.168 192.256 26.572 192.256 24.612C192.256 22.652 193.544 21.07 195.602 21.07C197.66 21.07 198.948 22.652 198.948 24.612C198.948 26.572 197.66 28.168 195.602 28.168ZM195.602 27.23C197.044 27.23 197.842 25.998 197.842 24.612C197.842 23.24 197.044 22.008 195.602 22.008C194.16 22.008 193.362 23.24 193.362 24.612C193.362 25.998 194.16 27.23 195.602 27.23ZM197.842 18.2L195.476 20.216H194.678L196.75 18.2H197.842ZM206.273 28H205.237V23.576C205.237 22.372 204.621 22.008 203.711 22.008C202.885 22.008 202.115 22.512 201.709 23.058V28H200.659V21.238H201.709V22.218C202.185 21.644 203.109 21.07 204.131 21.07C205.531 21.07 206.273 21.784 206.273 23.254V28ZM214.163 28.168C213.043 28.168 212.119 27.818 211.433 27.104L211.965 26.348C212.413 26.866 213.267 27.314 214.191 27.314C215.227 27.314 215.801 26.824 215.801 26.152C215.801 24.514 211.615 25.522 211.615 23.016C211.615 21.952 212.511 21.07 214.121 21.07C215.283 21.07 216.095 21.504 216.627 22.05L216.137 22.778C215.731 22.288 215.003 21.924 214.121 21.924C213.197 21.924 212.623 22.386 212.623 22.988C212.623 24.458 216.809 23.492 216.809 26.124C216.809 27.258 215.899 28.168 214.163 28.168ZM221.581 28.168C219.565 28.168 218.123 26.726 218.123 24.612C218.123 22.652 219.523 21.07 221.455 21.07C223.499 21.07 224.703 22.666 224.703 24.696V24.962H219.243C219.327 26.236 220.209 27.3 221.665 27.3C222.449 27.3 223.219 26.992 223.765 26.432L224.269 27.118C223.583 27.79 222.673 28.168 221.581 28.168ZM223.667 24.178C223.653 23.184 222.981 21.938 221.441 21.938C219.999 21.938 219.285 23.156 219.229 24.178H223.667ZM235.977 28H234.927V26.992C234.423 27.678 233.597 28.168 232.645 28.168C230.881 28.168 229.635 26.824 229.635 24.626C229.635 22.456 230.881 21.07 232.645 21.07C233.555 21.07 234.381 21.518 234.927 22.26V18.662H235.977V28ZM232.911 27.23C233.737 27.23 234.563 26.74 234.927 26.152V23.1C234.563 22.512 233.737 22.008 232.911 22.008C231.539 22.008 230.727 23.128 230.727 24.626C230.727 26.124 231.539 27.23 232.911 27.23ZM243.357 28H242.307V27.23C241.761 27.846 240.977 28.168 240.067 28.168C238.933 28.168 237.715 27.398 237.715 25.928C237.715 24.402 238.919 23.702 240.067 23.702C240.991 23.702 241.761 23.996 242.307 24.612V23.394C242.307 22.498 241.579 21.98 240.599 21.98C239.787 21.98 239.129 22.26 238.527 22.918L238.037 22.19C238.765 21.434 239.633 21.07 240.739 21.07C242.181 21.07 243.357 21.714 243.357 23.352V28ZM240.459 27.412C241.187 27.412 241.901 27.132 242.307 26.572V25.284C241.901 24.738 241.187 24.458 240.459 24.458C239.465 24.458 238.779 25.074 238.779 25.928C238.779 26.796 239.465 27.412 240.459 27.412ZM252.165 28.168C250.149 28.168 248.707 26.726 248.707 24.612C248.707 22.652 250.107 21.07 252.039 21.07C254.083 21.07 255.287 22.666 255.287 24.696V24.962H249.827C249.911 26.236 250.793 27.3 252.249 27.3C253.033 27.3 253.803 26.992 254.349 26.432L254.853 27.118C254.167 27.79 253.257 28.168 252.165 28.168ZM254.251 24.178C254.237 23.184 253.565 21.938 252.025 21.938C250.583 21.938 249.869 23.156 249.813 24.178H254.251ZM262.602 28H261.566V23.576C261.566 22.372 260.95 22.008 260.04 22.008C259.214 22.008 258.444 22.512 258.038 23.058V28H256.988V21.238H258.038V22.218C258.514 21.644 259.438 21.07 260.46 21.07C261.86 21.07 262.602 21.784 262.602 23.254V28ZM271.009 28.168C269.427 28.168 268.265 27.468 267.691 26.628L268.377 25.9C268.923 26.628 269.875 27.132 270.981 27.132C272.339 27.132 273.165 26.446 273.165 25.382C273.165 24.22 272.213 23.73 270.841 23.73C270.449 23.73 270.015 23.73 269.875 23.744V22.68C270.029 22.694 270.463 22.694 270.841 22.694C272.017 22.694 273.011 22.232 273.011 21.154C273.011 20.118 272.059 19.558 270.925 19.558C269.903 19.558 269.147 19.95 268.461 20.692L267.817 19.964C268.489 19.138 269.567 18.522 271.023 18.522C272.815 18.522 274.173 19.432 274.173 21C274.173 22.358 273.039 23.03 272.171 23.17C273.011 23.254 274.327 23.968 274.327 25.48C274.327 27.034 273.067 28.168 271.009 28.168ZM6.664 44H5.628V39.576C5.628 38.372 5.012 38.008 4.102 38.008C3.276 38.008 2.506 38.512 2.1 39.058V44H1.05V37.238H2.1V38.218C2.576 37.644 3.5 37.07 4.522 37.07C5.922 37.07 6.664 37.784 6.664 39.254V44ZM9.30661 36.272C8.91461 36.272 8.59261 35.964 8.59261 35.572C8.59261 35.18 8.91461 34.858 9.30661 34.858C9.69861 34.858 10.0066 35.18 10.0066 35.572C10.0066 35.964 9.69861 36.272 9.30661 36.272ZM9.82461 44H8.77461V37.238H9.82461V44ZM14.8731 44H13.7251L10.9111 37.238H12.0591L14.2991 42.782L16.5531 37.238H17.6871L14.8731 44ZM21.8484 44.168C19.8324 44.168 18.3904 42.726 18.3904 40.612C18.3904 38.652 19.7904 37.07 21.7224 37.07C23.7664 37.07 24.9704 38.666 24.9704 40.696V40.962H19.5104C19.5944 42.236 20.4764 43.3 21.9324 43.3C22.7164 43.3 23.4864 42.992 24.0324 42.432L24.5364 43.118C23.8504 43.79 22.9404 44.168 21.8484 44.168ZM23.9344 40.178C23.9204 39.184 23.2484 37.938 21.7084 37.938C20.2664 37.938 19.5524 39.156 19.4964 40.178H23.9344ZM27.7211 44H26.6711V34.662H27.7211V44ZM32.8816 44.168C30.8656 44.168 29.4236 42.726 29.4236 40.612C29.4236 38.652 30.8236 37.07 32.7556 37.07C34.7996 37.07 36.0036 38.666 36.0036 40.696V40.962H30.5436C30.6276 42.236 31.5096 43.3 32.9656 43.3C33.7496 43.3 34.5196 42.992 35.0656 42.432L35.5696 43.118C34.8836 43.79 33.9736 44.168 32.8816 44.168ZM34.9676 40.178C34.9536 39.184 34.2816 37.938 32.7416 37.938C31.2996 37.938 30.5856 39.156 30.5296 40.178H34.9676ZM39.8603 44.168C38.7403 44.168 37.8163 43.818 37.1303 43.104L37.6623 42.348C38.1103 42.866 38.9643 43.314 39.8883 43.314C40.9243 43.314 41.4983 42.824 41.4983 42.152C41.4983 40.514 37.3123 41.522 37.3123 39.016C37.3123 37.952 38.2083 37.07 39.8183 37.07C40.9803 37.07 41.7923 37.504 42.3243 38.05L41.8343 38.778C41.4283 38.288 40.7003 37.924 39.8183 37.924C38.8943 37.924 38.3203 38.386 38.3203 38.988C38.3203 40.458 42.5063 39.492 42.5063 42.124C42.5063 43.258 41.5963 44.168 39.8603 44.168ZM44.7721 44.14C44.3521 44.14 44.0021 43.79 44.0021 43.37C44.0021 42.95 44.3521 42.6 44.7721 42.6C45.1921 42.6 45.5421 42.95 45.5421 43.37C45.5421 43.79 45.1921 44.14 44.7721 44.14Z" fill="#212121"/>
<path d="M2.254 124H1.092V114.662H4.844C6.72 114.662 7.77 115.95 7.77 117.476C7.77 119.002 6.706 120.29 4.844 120.29H2.254V124ZM4.704 119.254C5.81 119.254 6.566 118.526 6.566 117.476C6.566 116.426 5.81 115.698 4.704 115.698H2.254V119.254H4.704ZM14.2714 124H13.2214V123.23C12.6754 123.846 11.8914 124.168 10.9814 124.168C9.84736 124.168 8.62936 123.398 8.62936 121.928C8.62936 120.402 9.83336 119.702 10.9814 119.702C11.9054 119.702 12.6754 119.996 13.2214 120.612V119.394C13.2214 118.498 12.4934 117.98 11.5134 117.98C10.7014 117.98 10.0434 118.26 9.44136 118.918L8.95136 118.19C9.67936 117.434 10.5474 117.07 11.6534 117.07C13.0954 117.07 14.2714 117.714 14.2714 119.352V124ZM11.3734 123.412C12.1014 123.412 12.8154 123.132 13.2214 122.572V121.284C12.8154 120.738 12.1014 120.458 11.3734 120.458C10.3794 120.458 9.69336 121.074 9.69336 121.928C9.69336 122.796 10.3794 123.412 11.3734 123.412ZM17.4398 124H16.3898V117.238H17.4398V118.316C17.9858 117.616 18.7698 117.084 19.6938 117.084V118.162C19.5678 118.148 19.4418 118.134 19.2878 118.134C18.6298 118.134 17.7478 118.666 17.4398 119.212V124ZM26.2889 124H25.2389V123.23C24.6929 123.846 23.9089 124.168 22.9989 124.168C21.8649 124.168 20.6469 123.398 20.6469 121.928C20.6469 120.402 21.8509 119.702 22.9989 119.702C23.9229 119.702 24.6929 119.996 25.2389 120.612V119.394C25.2389 118.498 24.5109 117.98 23.5309 117.98C22.7189 117.98 22.0609 118.26 21.4589 118.918L20.9689 118.19C21.6969 117.434 22.5649 117.07 23.6709 117.07C25.1129 117.07 26.2889 117.714 26.2889 119.352V124ZM23.3909 123.412C24.1189 123.412 24.8329 123.132 25.2389 122.572V121.284C24.8329 120.738 24.1189 120.458 23.3909 120.458C22.3969 120.458 21.7109 121.074 21.7109 121.928C21.7109 122.796 22.3969 123.412 23.3909 123.412ZM32.5625 116.272C32.1705 116.272 31.8485 115.964 31.8485 115.572C31.8485 115.18 32.1705 114.858 32.5625 114.858C32.9545 114.858 33.2625 115.18 33.2625 115.572C33.2625 115.964 32.9545 116.272 32.5625 116.272ZM33.0805 124H32.0305V117.238H33.0805V124ZM40.789 124H39.753V119.576C39.753 118.372 39.137 118.008 38.227 118.008C37.401 118.008 36.631 118.512 36.225 119.058V124H35.175V117.238H36.225V118.218C36.701 117.644 37.625 117.07 38.647 117.07C40.047 117.07 40.789 117.784 40.789 119.254V124ZM48.8496 124H47.7996V122.992C47.2956 123.678 46.4696 124.168 45.5176 124.168C43.7536 124.168 42.5076 122.824 42.5076 120.626C42.5076 118.456 43.7536 117.07 45.5176 117.07C46.4276 117.07 47.2536 117.518 47.7996 118.26V114.662H48.8496V124ZM45.7836 123.23C46.6096 123.23 47.4356 122.74 47.7996 122.152V119.1C47.4356 118.512 46.6096 118.008 45.7836 118.008C44.4116 118.008 43.5996 119.128 43.5996 120.626C43.5996 122.124 44.4116 123.23 45.7836 123.23ZM51.4843 116.272C51.0923 116.272 50.7703 115.964 50.7703 115.572C50.7703 115.18 51.0923 114.858 51.4843 114.858C51.8763 114.858 52.1843 115.18 52.1843 115.572C52.1843 115.964 51.8763 116.272 51.4843 116.272ZM52.0023 124H50.9523V117.238H52.0023V124ZM57.0789 124.168C55.0629 124.168 53.7049 122.614 53.7049 120.612C53.7049 118.61 55.0629 117.07 57.0789 117.07C58.3109 117.07 59.0389 117.574 59.5569 118.246L58.8569 118.876C58.4089 118.26 57.8349 118.008 57.1349 118.008C55.7069 118.008 54.7969 119.114 54.7969 120.612C54.7969 122.11 55.7069 123.23 57.1349 123.23C57.8349 123.23 58.4089 122.95 58.8569 122.348L59.5569 122.992C59.0389 123.664 58.3109 124.168 57.0789 124.168ZM66.3202 124H65.2702V123.23C64.7242 123.846 63.9402 124.168 63.0302 124.168C61.8962 124.168 60.6782 123.398 60.6782 121.928C60.6782 120.402 61.8822 119.702 63.0302 119.702C63.9542 119.702 64.7242 119.996 65.2702 120.612V119.394C65.2702 118.498 64.5422 117.98 63.5622 117.98C62.7502 117.98 62.0922 118.26 61.4902 118.918L61.0002 118.19C61.7282 117.434 62.5962 117.07 63.7022 117.07C65.1442 117.07 66.3202 117.714 66.3202 119.352V124ZM63.4222 123.412C64.1502 123.412 64.8642 123.132 65.2702 122.572V121.284C64.8642 120.738 64.1502 120.458 63.4222 120.458C62.4282 120.458 61.7422 121.074 61.7422 121.928C61.7422 122.796 62.4282 123.412 63.4222 123.412ZM74.3887 124H73.3387V122.992C72.8347 123.678 72.0087 124.168 71.0567 124.168C69.2927 124.168 68.0467 122.824 68.0467 120.626C68.0467 118.456 69.2927 117.07 71.0567 117.07C71.9667 117.07 72.7927 117.518 73.3387 118.26V114.662H74.3887V124ZM71.3227 123.23C72.1487 123.23 72.9747 122.74 73.3387 122.152V119.1C72.9747 118.512 72.1487 118.008 71.3227 118.008C69.9507 118.008 69.1387 119.128 69.1387 120.626C69.1387 122.124 69.9507 123.23 71.3227 123.23ZM79.4454 124.168C77.3874 124.168 76.0994 122.572 76.0994 120.612C76.0994 118.652 77.3874 117.07 79.4454 117.07C81.5034 117.07 82.7914 118.652 82.7914 120.612C82.7914 122.572 81.5034 124.168 79.4454 124.168ZM79.4454 123.23C80.8874 123.23 81.6854 121.998 81.6854 120.612C81.6854 119.24 80.8874 118.008 79.4454 118.008C78.0034 118.008 77.2054 119.24 77.2054 120.612C77.2054 121.998 78.0034 123.23 79.4454 123.23ZM85.5531 124H84.5031V117.238H85.5531V118.316C86.0991 117.616 86.8831 117.084 87.8071 117.084V118.162C87.6811 118.148 87.5551 118.134 87.4011 118.134C86.7431 118.134 85.8611 118.666 85.5531 119.212V124ZM92.1902 124.168C90.1742 124.168 88.7322 122.726 88.7322 120.612C88.7322 118.652 90.1322 117.07 92.0642 117.07C94.1082 117.07 95.3122 118.666 95.3122 120.696V120.962H89.8522C89.9362 122.236 90.8182 123.3 92.2742 123.3C93.0582 123.3 93.8282 122.992 94.3742 122.432L94.8782 123.118C94.1922 123.79 93.2822 124.168 92.1902 124.168ZM94.2762 120.178C94.2622 119.184 93.5902 117.938 92.0502 117.938C90.6082 117.938 89.8942 119.156 89.8382 120.178H94.2762ZM99.1689 124.168C98.0489 124.168 97.1249 123.818 96.4389 123.104L96.9709 122.348C97.4189 122.866 98.2729 123.314 99.1969 123.314C100.233 123.314 100.807 122.824 100.807 122.152C100.807 120.514 96.6209 121.522 96.6209 119.016C96.6209 117.952 97.5169 117.07 99.1269 117.07C100.289 117.07 101.101 117.504 101.633 118.05L101.143 118.778C100.737 118.288 100.009 117.924 99.1269 117.924C98.2029 117.924 97.6289 118.386 97.6289 118.988C97.6289 120.458 101.815 119.492 101.815 122.124C101.815 123.258 100.905 124.168 99.1689 124.168ZM110.098 124H108.95L106.136 117.238H107.284L109.524 122.782L111.778 117.238H112.912L110.098 124ZM117.073 124.168C115.057 124.168 113.615 122.726 113.615 120.612C113.615 118.652 115.015 117.07 116.947 117.07C118.991 117.07 120.195 118.666 120.195 120.696V120.962H114.735C114.819 122.236 115.701 123.3 117.157 123.3C117.941 123.3 118.711 122.992 119.257 122.432L119.761 123.118C119.075 123.79 118.165 124.168 117.073 124.168ZM119.159 120.178C119.145 119.184 118.473 117.938 116.933 117.938C115.491 117.938 114.777 119.156 114.721 120.178H119.159ZM122.946 124H121.896V117.238H122.946V118.316C123.492 117.616 124.276 117.084 125.2 117.084V118.162C125.074 118.148 124.948 118.134 124.794 118.134C124.136 118.134 123.254 118.666 122.946 119.212V124ZM132.467 124H131.417V122.992C130.913 123.678 130.087 124.168 129.135 124.168C127.371 124.168 126.125 122.824 126.125 120.626C126.125 118.456 127.371 117.07 129.135 117.07C130.045 117.07 130.871 117.518 131.417 118.26V114.662H132.467V124ZM129.401 123.23C130.227 123.23 131.053 122.74 131.417 122.152V119.1C131.053 118.512 130.227 118.008 129.401 118.008C128.029 118.008 127.217 119.128 127.217 120.626C127.217 122.124 128.029 123.23 129.401 123.23ZM137.636 124.168C135.62 124.168 134.178 122.726 134.178 120.612C134.178 118.652 135.578 117.07 137.51 117.07C139.554 117.07 140.758 118.666 140.758 120.696V120.962H135.298C135.382 122.236 136.264 123.3 137.72 123.3C138.504 123.3 139.274 122.992 139.82 122.432L140.324 123.118C139.638 123.79 138.728 124.168 137.636 124.168ZM139.722 120.178C139.708 119.184 139.036 117.938 137.496 117.938C136.054 117.938 135.34 119.156 135.284 120.178H139.722ZM144.614 124.168C143.494 124.168 142.57 123.818 141.884 123.104L142.416 122.348C142.864 122.866 143.718 123.314 144.642 123.314C145.678 123.314 146.252 122.824 146.252 122.152C146.252 120.514 142.066 121.522 142.066 119.016C142.066 117.952 142.962 117.07 144.572 117.07C145.734 117.07 146.546 117.504 147.078 118.05L146.588 118.778C146.182 118.288 145.454 117.924 144.572 117.924C143.648 117.924 143.074 118.386 143.074 118.988C143.074 120.458 147.26 119.492 147.26 122.124C147.26 123.258 146.35 124.168 144.614 124.168ZM155.543 124.168C153.485 124.168 152.197 122.572 152.197 120.612C152.197 118.652 153.485 117.07 155.543 117.07C157.601 117.07 158.889 118.652 158.889 120.612C158.889 122.572 157.601 124.168 155.543 124.168ZM155.543 123.23C156.985 123.23 157.783 121.998 157.783 120.612C157.783 119.24 156.985 118.008 155.543 118.008C154.101 118.008 153.303 119.24 153.303 120.612C153.303 121.998 154.101 123.23 155.543 123.23ZM169.502 124H168.452V123.23C167.906 123.846 167.122 124.168 166.212 124.168C165.078 124.168 163.86 123.398 163.86 121.928C163.86 120.402 165.064 119.702 166.212 119.702C167.136 119.702 167.906 119.996 168.452 120.612V119.394C168.452 118.498 167.724 117.98 166.744 117.98C165.932 117.98 165.274 118.26 164.672 118.918L164.182 118.19C164.91 117.434 165.778 117.07 166.884 117.07C168.326 117.07 169.502 117.714 169.502 119.352V124ZM166.604 123.412C167.332 123.412 168.046 123.132 168.452 122.572V121.284C168.046 120.738 167.332 120.458 166.604 120.458C165.61 120.458 164.924 121.074 164.924 121.928C164.924 122.796 165.61 123.412 166.604 123.412ZM180.832 124H179.782V119.408C179.782 118.554 179.418 118.008 178.536 118.008C177.836 118.008 177.094 118.498 176.744 119.044V124H175.694V119.408C175.694 118.554 175.344 118.008 174.448 118.008C173.762 118.008 173.034 118.512 172.67 119.058V124H171.62V117.238H172.67V118.218C172.964 117.784 173.86 117.07 174.868 117.07C175.89 117.07 176.478 117.63 176.674 118.33C177.052 117.714 177.962 117.07 178.942 117.07C180.174 117.07 180.832 117.756 180.832 119.114V124ZM188.205 124H187.155V123.23C186.609 123.846 185.825 124.168 184.915 124.168C183.781 124.168 182.563 123.398 182.563 121.928C182.563 120.402 183.767 119.702 184.915 119.702C185.839 119.702 186.609 119.996 187.155 120.612V119.394C187.155 118.498 186.427 117.98 185.447 117.98C184.635 117.98 183.977 118.26 183.375 118.918L182.885 118.19C183.613 117.434 184.481 117.07 185.587 117.07C187.029 117.07 188.205 117.714 188.205 119.352V124ZM185.307 123.412C186.035 123.412 186.749 123.132 187.155 122.572V121.284C186.749 120.738 186.035 120.458 185.307 120.458C184.313 120.458 183.627 121.074 183.627 121.928C183.627 122.796 184.313 123.412 185.307 123.412ZM191.373 124H190.323V117.238H191.373V118.316C191.919 117.616 192.703 117.084 193.627 117.084V118.162C193.501 118.148 193.375 118.134 193.221 118.134C192.563 118.134 191.681 118.666 191.373 119.212V124ZM195.477 116.272C195.085 116.272 194.763 115.964 194.763 115.572C194.763 115.18 195.085 114.858 195.477 114.858C195.869 114.858 196.177 115.18 196.177 115.572C196.177 115.964 195.869 116.272 195.477 116.272ZM195.995 124H194.945V117.238H195.995V124ZM199.139 124H198.089V114.662H199.139V124ZM202.284 124H201.234V114.662H202.284V124ZM207.332 124.168C205.274 124.168 203.986 122.572 203.986 120.612C203.986 118.652 205.274 117.07 207.332 117.07C209.39 117.07 210.678 118.652 210.678 120.612C210.678 122.572 209.39 124.168 207.332 124.168ZM207.332 123.23C208.774 123.23 209.572 121.998 209.572 120.612C209.572 119.24 208.774 118.008 207.332 118.008C205.89 118.008 205.092 119.24 205.092 120.612C205.092 121.998 205.89 123.23 207.332 123.23ZM214.546 124.168C213.426 124.168 212.502 123.818 211.816 123.104L212.348 122.348C212.796 122.866 213.65 123.314 214.574 123.314C215.61 123.314 216.184 122.824 216.184 122.152C216.184 120.514 211.998 121.522 211.998 119.016C211.998 117.952 212.894 117.07 214.504 117.07C215.666 117.07 216.478 117.504 217.01 118.05L216.52 118.778C216.114 118.288 215.386 117.924 214.504 117.924C213.58 117.924 213.006 118.386 213.006 118.988C213.006 120.458 217.192 119.492 217.192 122.124C217.192 123.258 216.282 124.168 214.546 124.168ZM220.312 123.664C220.312 124.518 219.822 125.316 219.178 125.778L218.646 125.344C219.094 125.05 219.5 124.504 219.556 124.042C219.528 124.056 219.43 124.07 219.36 124.07C218.982 124.07 218.688 123.762 218.688 123.356C218.688 122.95 219.01 122.6 219.43 122.6C219.906 122.6 220.312 122.992 220.312 123.664ZM227.469 124.168C226.461 124.168 225.957 123.594 225.957 122.586V118.162H224.837V117.238H225.957V115.39H227.021V117.238H228.393V118.162H227.021V122.362C227.021 122.866 227.245 123.23 227.693 123.23C228.001 123.23 228.267 123.09 228.407 122.936L228.715 123.734C228.449 123.986 228.071 124.168 227.469 124.168ZM232.928 124.168C230.913 124.168 229.471 122.726 229.471 120.612C229.471 118.652 230.87 117.07 232.803 117.07C234.847 117.07 236.051 118.666 236.051 120.696V120.962H230.591C230.675 122.236 231.557 123.3 233.013 123.3C233.797 123.3 234.567 122.992 235.113 122.432L235.617 123.118C234.931 123.79 234.021 124.168 232.928 124.168ZM235.015 120.178C235.001 119.184 234.329 117.938 232.789 117.938C231.347 117.938 230.633 119.156 230.577 120.178H235.015ZM244.44 124.168C242.424 124.168 240.982 122.726 240.982 120.612C240.982 118.652 242.382 117.07 244.314 117.07C246.358 117.07 247.562 118.666 247.562 120.696V120.962H242.102C242.186 122.236 243.068 123.3 244.524 123.3C245.308 123.3 246.078 122.992 246.624 122.432L247.128 123.118C246.442 123.79 245.532 124.168 244.44 124.168ZM246.526 120.178C246.512 119.184 245.84 117.938 244.3 117.938C242.858 117.938 242.144 119.156 242.088 120.178H246.526ZM254.877 124H253.841V119.576C253.841 118.372 253.225 118.008 252.315 118.008C251.489 118.008 250.719 118.512 250.313 119.058V124H249.263V117.238H250.313V118.218C250.789 117.644 251.713 117.07 252.735 117.07C254.135 117.07 254.877 117.784 254.877 119.254V124ZM259.97 124.168C257.954 124.168 256.596 122.614 256.596 120.612C256.596 118.61 257.954 117.07 259.97 117.07C261.202 117.07 261.93 117.574 262.448 118.246L261.748 118.876C261.3 118.26 260.726 118.008 260.026 118.008C258.598 118.008 257.688 119.114 257.688 120.612C257.688 122.11 258.598 123.23 260.026 123.23C260.726 123.23 261.3 122.95 261.748 122.348L262.448 122.992C261.93 123.664 261.202 124.168 259.97 124.168ZM269.547 124H268.497V123.048C267.979 123.636 267.097 124.168 266.089 124.168C264.675 124.168 263.933 123.468 263.933 122.012V117.238H264.983V121.69C264.983 122.88 265.585 123.23 266.509 123.23C267.321 123.23 268.105 122.754 268.497 122.208V117.238H269.547V124ZM274.71 124.168C272.694 124.168 271.252 122.726 271.252 120.612C271.252 118.652 272.652 117.07 274.584 117.07C276.628 117.07 277.832 118.666 277.832 120.696V120.962H272.372C272.456 122.236 273.338 123.3 274.794 123.3C275.578 123.3 276.348 122.992 276.894 122.432L277.398 123.118C276.712 123.79 275.802 124.168 274.71 124.168ZM276.796 120.178C276.782 119.184 276.11 117.938 274.57 117.938C273.128 117.938 272.414 119.156 272.358 120.178H276.796ZM285.146 124H284.11V119.576C284.11 118.372 283.494 118.008 282.584 118.008C281.758 118.008 280.988 118.512 280.582 119.058V124H279.532V117.238H280.582V118.218C281.058 117.644 281.982 117.07 283.004 117.07C284.404 117.07 285.146 117.784 285.146 119.254V124ZM288.979 124.168C287.971 124.168 287.467 123.594 287.467 122.586V118.162H286.347V117.238H287.467V115.39H288.531V117.238H289.903V118.162H288.531V122.362C288.531 122.866 288.755 123.23 289.203 123.23C289.511 123.23 289.777 123.09 289.917 122.936L290.225 123.734C289.959 123.986 289.581 124.168 288.979 124.168ZM292.422 124H291.372V117.238H292.422V118.316C292.968 117.616 293.752 117.084 294.676 117.084V118.162C294.55 118.148 294.424 118.134 294.27 118.134C293.612 118.134 292.73 118.666 292.422 119.212V124ZM301.271 124H300.221V123.23C299.675 123.846 298.891 124.168 297.981 124.168C296.847 124.168 295.629 123.398 295.629 121.928C295.629 120.402 296.833 119.702 297.981 119.702C298.905 119.702 299.675 119.996 300.221 120.612V119.394C300.221 118.498 299.493 117.98 298.513 117.98C297.701 117.98 297.043 118.26 296.441 118.918L295.951 118.19C296.679 117.434 297.547 117.07 298.653 117.07C300.095 117.07 301.271 117.714 301.271 119.352V124ZM298.373 123.412C299.101 123.412 299.815 123.132 300.221 122.572V121.284C299.815 120.738 299.101 120.458 298.373 120.458C297.379 120.458 296.693 121.074 296.693 121.928C296.693 122.796 297.379 123.412 298.373 123.412ZM305.546 124.168C304.426 124.168 303.502 123.818 302.816 123.104L303.348 122.348C303.796 122.866 304.65 123.314 305.574 123.314C306.61 123.314 307.184 122.824 307.184 122.152C307.184 120.514 302.998 121.522 302.998 119.016C302.998 117.952 303.894 117.07 305.504 117.07C306.666 117.07 307.478 117.504 308.01 118.05L307.52 118.778C307.114 118.288 306.386 117.924 305.504 117.924C304.58 117.924 304.006 118.386 304.006 118.988C304.006 120.458 308.192 119.492 308.192 122.124C308.192 123.258 307.282 124.168 305.546 124.168ZM4.116 140.168C2.1 140.168 0.658 138.726 0.658 136.612C0.658 134.652 2.058 133.07 3.99 133.07C6.034 133.07 7.238 134.666 7.238 136.696V136.962H1.778C1.862 138.236 2.744 139.3 4.2 139.3C4.984 139.3 5.754 138.992 6.3 138.432L6.804 139.118C6.118 139.79 5.208 140.168 4.116 140.168ZM6.202 136.178C6.188 135.184 5.516 133.938 3.976 133.938C2.534 133.938 1.82 135.156 1.764 136.178H6.202ZM14.5527 140H13.5167V135.576C13.5167 134.372 12.9007 134.008 11.9907 134.008C11.1647 134.008 10.3947 134.512 9.98867 135.058V140H8.93867V133.238H9.98867V134.218C10.4647 133.644 11.3887 133.07 12.4107 133.07C13.8107 133.07 14.5527 133.784 14.5527 135.254V140ZM25.9003 140H24.8503V139.048C24.3323 139.636 23.4503 140.168 22.4423 140.168C21.0283 140.168 20.2863 139.468 20.2863 138.012V133.238H21.3363V137.69C21.3363 138.88 21.9383 139.23 22.8623 139.23C23.6743 139.23 24.4583 138.754 24.8503 138.208V133.238H25.9003V140ZM33.6113 140H32.5753V135.576C32.5753 134.372 31.9593 134.008 31.0493 134.008C30.2233 134.008 29.4533 134.512 29.0473 135.058V140H27.9973V133.238H29.0473V134.218C29.5233 133.644 30.4473 133.07 31.4693 133.07C32.8693 133.07 33.6113 133.784 33.6113 135.254V140ZM44.9589 140H43.9229V135.576C43.9229 134.372 43.3069 134.008 42.3969 134.008C41.5709 134.008 40.8009 134.512 40.3949 135.058V140H39.3449V133.238H40.3949V134.218C40.8709 133.644 41.7949 133.07 42.8169 133.07C44.2169 133.07 44.9589 133.784 44.9589 135.254V140ZM47.6015 132.272C47.2095 132.272 46.8875 131.964 46.8875 131.572C46.8875 131.18 47.2095 130.858 47.6015 130.858C47.9935 130.858 48.3015 131.18 48.3015 131.572C48.3015 131.964 47.9935 132.272 47.6015 132.272ZM48.1195 140H47.0695V133.238H48.1195V140ZM53.1681 140H52.0201L49.2061 133.238H50.3541L52.5941 138.782L54.8481 133.238H55.9821L53.1681 140ZM60.1433 140.168C58.1273 140.168 56.6853 138.726 56.6853 136.612C56.6853 134.652 58.0853 133.07 60.0173 133.07C62.0613 133.07 63.2653 134.666 63.2653 136.696V136.962H57.8053C57.8893 138.236 58.7713 139.3 60.2273 139.3C61.0113 139.3 61.7813 138.992 62.3273 138.432L62.8313 139.118C62.1453 139.79 61.2353 140.168 60.1433 140.168ZM62.2293 136.178C62.2153 135.184 61.5433 133.938 60.0033 133.938C58.5613 133.938 57.8473 135.156 57.7913 136.178H62.2293ZM66.016 140H64.966V130.662H66.016V140ZM80.9456 140H79.8956V135.408C79.8956 134.554 79.5316 134.008 78.6496 134.008C77.9496 134.008 77.2076 134.498 76.8576 135.044V140H75.8076V135.408C75.8076 134.554 75.4576 134.008 74.5616 134.008C73.8756 134.008 73.1476 134.512 72.7836 135.058V140H71.7336V133.238H72.7836V134.218C73.0776 133.784 73.9736 133.07 74.9816 133.07C76.0036 133.07 76.5916 133.63 76.7876 134.33C77.1656 133.714 78.0756 133.07 79.0556 133.07C80.2876 133.07 80.9456 133.756 80.9456 135.114V140ZM86.1062 140.168C84.0902 140.168 82.6482 138.726 82.6482 136.612C82.6482 134.652 84.0482 133.07 85.9802 133.07C88.0242 133.07 89.2282 134.666 89.2282 136.696V136.962H83.7682C83.8522 138.236 84.7342 139.3 86.1902 139.3C86.9742 139.3 87.7442 138.992 88.2902 138.432L88.7942 139.118C88.1082 139.79 87.1982 140.168 86.1062 140.168ZM88.1922 136.178C88.1782 135.184 87.5062 133.938 85.9662 133.938C84.5242 133.938 83.8102 135.156 83.7542 136.178H88.1922ZM96.8789 140H95.8289V138.992C95.3249 139.678 94.4989 140.168 93.5469 140.168C91.7829 140.168 90.5369 138.824 90.5369 136.626C90.5369 134.456 91.7829 133.07 93.5469 133.07C94.4569 133.07 95.2829 133.518 95.8289 134.26V130.662H96.8789V140ZM93.8129 139.23C94.6389 139.23 95.4649 138.74 95.8289 138.152V135.1C95.4649 134.512 94.6389 134.008 93.8129 134.008C92.4409 134.008 91.6289 135.128 91.6289 136.626C91.6289 138.124 92.4409 139.23 93.8129 139.23ZM99.5136 132.272C99.1216 132.272 98.7996 131.964 98.7996 131.572C98.7996 131.18 99.1216 130.858 99.5136 130.858C99.9056 130.858 100.214 131.18 100.214 131.572C100.214 131.964 99.9056 132.272 99.5136 132.272ZM100.032 140H98.9816V133.238H100.032V140ZM105.08 140.168C103.022 140.168 101.734 138.572 101.734 136.612C101.734 134.652 103.022 133.07 105.08 133.07C107.138 133.07 108.426 134.652 108.426 136.612C108.426 138.572 107.138 140.168 105.08 140.168ZM105.08 139.23C106.522 139.23 107.32 137.998 107.32 136.612C107.32 135.24 106.522 134.008 105.08 134.008C103.638 134.008 102.84 135.24 102.84 136.612C102.84 137.998 103.638 139.23 105.08 139.23ZM119.039 140H117.989V139.23C117.443 139.846 116.659 140.168 115.749 140.168C114.615 140.168 113.397 139.398 113.397 137.928C113.397 136.402 114.601 135.702 115.749 135.702C116.673 135.702 117.443 135.996 117.989 136.612V135.394C117.989 134.498 117.261 133.98 116.281 133.98C115.469 133.98 114.811 134.26 114.209 134.918L113.719 134.19C114.447 133.434 115.315 133.07 116.421 133.07C117.863 133.07 119.039 133.714 119.039 135.352V140ZM116.141 139.412C116.869 139.412 117.583 139.132 117.989 138.572V137.284C117.583 136.738 116.869 136.458 116.141 136.458C115.147 136.458 114.461 137.074 114.461 137.928C114.461 138.796 115.147 139.412 116.141 139.412ZM127.734 140.168C125.676 140.168 124.388 138.572 124.388 136.612C124.388 134.652 125.676 133.07 127.734 133.07C129.792 133.07 131.08 134.652 131.08 136.612C131.08 138.572 129.792 140.168 127.734 140.168ZM127.734 139.23C129.176 139.23 129.974 137.998 129.974 136.612C129.974 135.24 129.176 134.008 127.734 134.008C126.292 134.008 125.494 135.24 125.494 136.612C125.494 137.998 126.292 139.23 127.734 139.23ZM129.974 130.2L127.608 132.216H126.81L128.882 130.2H129.974ZM136.124 140.168C135.2 140.168 134.402 139.72 133.842 138.978V142.576H132.792V133.238H133.842V134.246C134.332 133.56 135.172 133.07 136.124 133.07C137.902 133.07 139.134 134.414 139.134 136.612C139.134 138.796 137.902 140.168 136.124 140.168ZM135.858 139.23C137.216 139.23 138.028 138.11 138.028 136.612C138.028 135.114 137.216 134.008 135.858 134.008C135.032 134.008 134.206 134.498 133.842 135.086V138.138C134.206 138.726 135.032 139.23 135.858 139.23ZM142.526 140.168C141.518 140.168 141.014 139.594 141.014 138.586V134.162H139.894V133.238H141.014V131.39H142.078V133.238H143.45V134.162H142.078V138.362C142.078 138.866 142.302 139.23 142.75 139.23C143.058 139.23 143.324 139.09 143.464 138.936L143.772 139.734C143.506 139.986 143.128 140.168 142.526 140.168ZM145.451 132.272C145.059 132.272 144.737 131.964 144.737 131.572C144.737 131.18 145.059 130.858 145.451 130.858C145.843 130.858 146.151 131.18 146.151 131.572C146.151 131.964 145.843 132.272 145.451 132.272ZM145.969 140H144.919V133.238H145.969V140ZM157.276 140H156.226V135.408C156.226 134.554 155.862 134.008 154.98 134.008C154.28 134.008 153.538 134.498 153.188 135.044V140H152.138V135.408C152.138 134.554 151.788 134.008 150.892 134.008C150.206 134.008 149.478 134.512 149.114 135.058V140H148.064V133.238H149.114V134.218C149.408 133.784 150.304 133.07 151.312 133.07C152.334 133.07 152.922 133.63 153.118 134.33C153.496 133.714 154.406 133.07 155.386 133.07C156.618 133.07 157.276 133.756 157.276 135.114V140ZM162.324 140.168C160.266 140.168 158.978 138.572 158.978 136.612C158.978 134.652 160.266 133.07 162.324 133.07C164.382 133.07 165.67 134.652 165.67 136.612C165.67 138.572 164.382 140.168 162.324 140.168ZM162.324 139.23C163.766 139.23 164.564 137.998 164.564 136.612C164.564 135.24 163.766 134.008 162.324 134.008C160.882 134.008 160.084 135.24 160.084 136.612C160.084 137.998 160.882 139.23 162.324 139.23ZM167.846 140.14C167.426 140.14 167.076 139.79 167.076 139.37C167.076 138.95 167.426 138.6 167.846 138.6C168.266 138.6 168.616 138.95 168.616 139.37C168.616 139.79 168.266 140.14 167.846 140.14Z" fill="#212121"/>
</svg>
