<svg width="320" height="144" viewBox="0 0 320 144" fill="none" xmlns="http://www.w3.org/2000/svg">
<path d="M70.348 90.168C73.106 90.168 74.982 88.096 74.982 85.338C74.982 82.58 73.106 80.508 70.348 80.508C67.576 80.508 65.714 82.58 65.714 85.338C65.714 88.096 67.576 90.168 70.348 90.168ZM70.348 89.132C68.248 89.132 66.918 87.508 66.918 85.338C66.918 83.154 68.248 81.544 70.348 81.544C72.434 81.544 73.778 83.154 73.778 85.338C73.778 87.508 72.434 89.132 70.348 89.132ZM80.0871 90.168C81.8651 90.168 83.0971 88.796 83.0971 86.612C83.0971 84.414 81.8651 83.07 80.0871 83.07C79.1351 83.07 78.2951 83.56 77.8051 84.246V83.238H76.7551V92.576H77.8051V88.978C78.3511 89.734 79.1631 90.168 80.0871 90.168ZM79.8211 89.23C78.9951 89.23 78.1691 88.726 77.8051 88.138V85.086C78.1691 84.498 78.9951 84.008 79.8211 84.008C81.1791 84.008 81.9911 85.114 81.9911 86.612C81.9911 88.11 81.1791 89.23 79.8211 89.23ZM86.4748 90.168C87.0908 90.168 87.4688 89.986 87.7348 89.734L87.4268 88.95C87.2868 89.104 87.0068 89.23 86.7128 89.23C86.2508 89.23 86.0268 88.866 86.0268 88.362V84.162H87.3988V83.238H86.0268V81.39H84.9768V83.238H83.8568V84.162H84.9768V88.586C84.9768 89.594 85.4808 90.168 86.4748 90.168ZM89.4 82.272C89.792 82.272 90.114 81.964 90.114 81.572C90.114 81.18 89.792 80.858 89.4 80.858C89.022 80.858 88.7 81.18 88.7 81.572C88.7 81.964 89.022 82.272 89.4 82.272ZM89.932 90V83.238H88.882V90H89.932ZM101.239 90V85.114C101.239 83.756 100.581 83.07 99.3486 83.07C98.3686 83.07 97.4586 83.714 97.0806 84.33C96.8846 83.63 96.2966 83.07 95.2606 83.07C94.2666 83.07 93.3566 83.784 93.0766 84.218V83.238H92.0266V90H93.0766V85.058C93.4406 84.512 94.1686 84.008 94.8546 84.008C95.7366 84.008 96.1006 84.554 96.1006 85.408V90H97.1506V85.044C97.5006 84.512 98.2426 84.008 98.9426 84.008C99.8106 84.008 100.189 84.554 100.189 85.408V90H101.239ZM108.947 90V83.238H107.897V88.208C107.505 88.754 106.721 89.23 105.895 89.23C104.985 89.23 104.383 88.88 104.383 87.69V83.238H103.333V88.012C103.333 89.482 104.075 90.168 105.489 90.168C106.497 90.168 107.379 89.636 107.897 89.048V90H108.947ZM120.256 90V85.114C120.256 83.756 119.598 83.07 118.366 83.07C117.386 83.07 116.476 83.714 116.098 84.33C115.902 83.63 115.314 83.07 114.278 83.07C113.284 83.07 112.374 83.784 112.094 84.218V83.238H111.044V90H112.094V85.058C112.458 84.512 113.186 84.008 113.872 84.008C114.754 84.008 115.118 84.554 115.118 85.408V90H116.168V85.044C116.518 84.512 117.26 84.008 117.96 84.008C118.828 84.008 119.206 84.554 119.206 85.408V90H120.256Z" fill="#008767"/>
<path d="M177.254 90V86.29H179.844C181.692 86.29 182.77 85.002 182.77 83.476C182.77 81.95 181.72 80.662 179.844 80.662H176.092V90H177.254ZM179.704 85.254H177.254V81.698H179.704C180.81 81.698 181.566 82.426 181.566 83.476C181.566 84.526 180.81 85.254 179.704 85.254ZM185.317 90V85.212C185.625 84.666 186.507 84.134 187.151 84.134C187.319 84.134 187.445 84.148 187.571 84.176V83.098C186.647 83.098 185.863 83.616 185.317 84.33V83.238H184.267V90H185.317ZM191.94 90.168C193.046 90.168 193.956 89.804 194.628 89.132L194.124 88.446C193.592 88.992 192.808 89.3 192.038 89.3C190.582 89.3 189.686 88.236 189.602 86.962H195.076V86.696C195.076 84.666 193.872 83.07 191.828 83.07C189.896 83.07 188.496 84.652 188.496 86.612C188.496 88.726 189.938 90.168 191.94 90.168ZM194.04 86.192H189.602C189.658 85.156 190.372 83.938 191.814 83.938C193.354 83.938 194.026 85.184 194.04 86.192ZM199.731 90L202.545 83.238H201.397L199.157 88.782L196.903 83.238H195.769L198.583 90H199.731ZM206.692 90.168C207.798 90.168 208.708 89.804 209.38 89.132L208.876 88.446C208.344 88.992 207.56 89.3 206.79 89.3C205.334 89.3 204.438 88.236 204.354 86.962H209.828V86.696C209.828 84.666 208.624 83.07 206.58 83.07C204.648 83.07 203.248 84.652 203.248 86.612C203.248 88.726 204.69 90.168 206.692 90.168ZM208.792 86.192H204.354C204.41 85.156 205.124 83.938 206.566 83.938C208.106 83.938 208.778 85.184 208.792 86.192ZM217.143 90V85.254C217.143 83.784 216.401 83.07 214.987 83.07C213.979 83.07 213.055 83.658 212.579 84.218V83.238H211.529V90H212.579V85.058C212.971 84.512 213.755 84.008 214.581 84.008C215.491 84.008 216.093 84.386 216.093 85.576V90H217.143ZM220.947 90.168C221.563 90.168 221.941 89.986 222.207 89.734L221.899 88.95C221.759 89.104 221.479 89.23 221.185 89.23C220.723 89.23 220.499 88.866 220.499 88.362V84.162H221.871V83.238H220.499V81.39H219.449V83.238H218.329V84.162H219.449V88.586C219.449 89.594 219.953 90.168 220.947 90.168ZM223.873 82.272C224.265 82.272 224.587 81.964 224.587 81.572C224.587 81.18 224.265 80.858 223.873 80.858C223.495 80.858 223.173 81.18 223.173 81.572C223.173 81.964 223.495 82.272 223.873 82.272ZM224.405 90V83.238H223.355V90H224.405ZM229.453 90.168C231.511 90.168 232.799 88.572 232.799 86.612C232.799 84.652 231.511 83.07 229.453 83.07C227.395 83.07 226.107 84.652 226.107 86.612C226.107 88.572 227.395 90.168 229.453 90.168ZM229.453 89.23C228.011 89.23 227.199 87.998 227.199 86.612C227.199 85.24 228.011 84.008 229.453 84.008C230.895 84.008 231.693 85.24 231.693 86.612C231.693 87.998 230.895 89.23 229.453 89.23ZM240.125 90V85.254C240.125 83.784 239.383 83.07 237.969 83.07C236.961 83.07 236.037 83.658 235.561 84.218V83.238H234.511V90H235.561V85.058C235.953 84.512 236.737 84.008 237.563 84.008C238.473 84.008 239.075 84.386 239.075 85.576V90H240.125Z" fill="#B50303"/>
<path d="M64.5 69C64.5 66.2386 66.7386 64 69.5 64H120.9V74H69.5C66.7386 74 64.5 71.7614 64.5 69V69Z" fill="#008767"/>
<path d="M124.9 64H181.3V74H124.9V64Z" fill="#E7A304"/>
<path d="M185.301 64H236.701C239.462 64 241.701 66.2386 241.701 69V69C241.701 71.7614 239.462 74 236.701 74H185.301V64Z" fill="#B50303"/>
<path d="M5.348 11H1.092V1.662H5.25C6.874 1.662 7.868 2.642 7.868 4.042C7.868 5.218 7.084 6.002 6.23 6.184C7.224 6.338 8.05 7.36 8.05 8.48C8.05 9.978 7.056 11 5.348 11ZM5.054 5.708C6.104 5.708 6.664 5.064 6.664 4.21C6.664 3.37 6.104 2.698 5.054 2.698H2.254V5.708H5.054ZM5.124 9.964C6.202 9.964 6.846 9.348 6.846 8.354C6.846 7.5 6.258 6.744 5.124 6.744H2.254V9.964H5.124ZM12.9207 11.168C10.9047 11.168 9.46269 9.726 9.46269 7.612C9.46269 5.652 10.8627 4.07 12.7947 4.07C14.8387 4.07 16.0427 5.666 16.0427 7.696V7.962H10.5827C10.6667 9.236 11.5487 10.3 13.0047 10.3C13.7887 10.3 14.5587 9.992 15.1047 9.432L15.6087 10.118C14.9227 10.79 14.0127 11.168 12.9207 11.168ZM15.0067 7.178C14.9927 6.184 14.3207 4.938 12.7807 4.938C11.3387 4.938 10.6247 6.156 10.5687 7.178H15.0067ZM19.0874 11H18.0374V5.162H16.9174V4.238H18.0374V3.72C18.0374 2.334 18.8074 1.522 19.9974 1.522C20.5434 1.522 21.0054 1.648 21.4254 2.04L20.9914 2.712C20.7674 2.516 20.5014 2.39 20.1654 2.39C19.4654 2.39 19.0874 2.852 19.0874 3.72V4.238H20.4594V5.162H19.0874V11ZM24.6759 11.168C22.6179 11.168 21.3299 9.572 21.3299 7.612C21.3299 5.652 22.6179 4.07 24.6759 4.07C26.7339 4.07 28.0219 5.652 28.0219 7.612C28.0219 9.572 26.7339 11.168 24.6759 11.168ZM24.6759 10.23C26.1179 10.23 26.9159 8.998 26.9159 7.612C26.9159 6.24 26.1179 5.008 24.6759 5.008C23.2339 5.008 22.4359 6.24 22.4359 7.612C22.4359 8.998 23.2339 10.23 24.6759 10.23ZM30.7836 11H29.7336V4.238H30.7836V5.316C31.3296 4.616 32.1136 4.084 33.0376 4.084V5.162C32.9116 5.148 32.7856 5.134 32.6316 5.134C31.9736 5.134 31.0916 5.666 30.7836 6.212V11ZM37.4207 11.168C35.4047 11.168 33.9627 9.726 33.9627 7.612C33.9627 5.652 35.3627 4.07 37.2947 4.07C39.3387 4.07 40.5427 5.666 40.5427 7.696V7.962H35.0827C35.1667 9.236 36.0487 10.3 37.5047 10.3C38.2887 10.3 39.0587 9.992 39.6047 9.432L40.1087 10.118C39.4227 10.79 38.5127 11.168 37.4207 11.168ZM39.5067 7.178C39.4927 6.184 38.8207 4.938 37.2807 4.938C35.8387 4.938 35.1247 6.156 35.0687 7.178H39.5067ZM49.1984 11.168C48.2744 11.168 47.4764 10.72 46.9164 9.978V13.576H45.8664V4.238H46.9164V5.246C47.4064 4.56 48.2464 4.07 49.1984 4.07C50.9764 4.07 52.2084 5.414 52.2084 7.612C52.2084 9.796 50.9764 11.168 49.1984 11.168ZM48.9324 10.23C50.2904 10.23 51.1024 9.11 51.1024 7.612C51.1024 6.114 50.2904 5.008 48.9324 5.008C48.1064 5.008 47.2804 5.498 46.9164 6.086V9.138C47.2804 9.726 48.1064 10.23 48.9324 10.23ZM54.9281 11H53.8781V4.238H54.9281V5.316C55.4741 4.616 56.2581 4.084 57.1821 4.084V5.162C57.0561 5.148 56.9301 5.134 56.7761 5.134C56.1181 5.134 55.2361 5.666 54.9281 6.212V11ZM61.4532 11.168C59.3952 11.168 58.1072 9.572 58.1072 7.612C58.1072 5.652 59.3952 4.07 61.4532 4.07C63.5112 4.07 64.7992 5.652 64.7992 7.612C64.7992 9.572 63.5112 11.168 61.4532 11.168ZM61.4532 10.23C62.8952 10.23 63.6932 8.998 63.6932 7.612C63.6932 6.24 62.8952 5.008 61.4532 5.008C60.0112 5.008 59.2132 6.24 59.2132 7.612C59.2132 8.998 60.0112 10.23 61.4532 10.23ZM69.4929 11.168C67.4769 11.168 66.1189 9.614 66.1189 7.612C66.1189 5.61 67.4769 4.07 69.4929 4.07C70.7249 4.07 71.4529 4.574 71.9709 5.246L71.2709 5.876C70.8229 5.26 70.2489 5.008 69.5489 5.008C68.1209 5.008 67.2109 6.114 67.2109 7.612C67.2109 9.11 68.1209 10.23 69.5489 10.23C70.2489 10.23 70.8229 9.95 71.2709 9.348L71.9709 9.992C71.4529 10.664 70.7249 11.168 69.4929 11.168ZM76.5222 11.168C74.5063 11.168 73.0643 9.726 73.0643 7.612C73.0643 5.652 74.4642 4.07 76.3963 4.07C78.4403 4.07 79.6443 5.666 79.6443 7.696V7.962H74.1843C74.2683 9.236 75.1503 10.3 76.6063 10.3C77.3903 10.3 78.1603 9.992 78.7063 9.432L79.2103 10.118C78.5243 10.79 77.6143 11.168 76.5222 11.168ZM78.6083 7.178C78.5943 6.184 77.9223 4.938 76.3823 4.938C74.9403 4.938 74.2263 6.156 74.1703 7.178H78.6083ZM84.4109 11.168C82.3949 11.168 80.9529 9.726 80.9529 7.612C80.9529 5.652 82.3529 4.07 84.2849 4.07C86.3289 4.07 87.5329 5.666 87.5329 7.696V7.962H82.0729C82.1569 9.236 83.0389 10.3 84.4949 10.3C85.2789 10.3 86.0489 9.992 86.5949 9.432L87.0989 10.118C86.4129 10.79 85.5029 11.168 84.4109 11.168ZM86.4969 7.178C86.4829 6.184 85.8109 4.938 84.2709 4.938C82.8289 4.938 82.1149 6.156 82.0589 7.178H86.4969ZM95.1836 11H94.1336V9.992C93.6296 10.678 92.8036 11.168 91.8516 11.168C90.0876 11.168 88.8416 9.824 88.8416 7.626C88.8416 5.456 90.0876 4.07 91.8516 4.07C92.7616 4.07 93.5876 4.518 94.1336 5.26V1.662H95.1836V11ZM92.1176 10.23C92.9436 10.23 93.7696 9.74 94.1336 9.152V6.1C93.7696 5.512 92.9436 5.008 92.1176 5.008C90.7456 5.008 89.9336 6.128 89.9336 7.626C89.9336 9.124 90.7456 10.23 92.1176 10.23ZM97.8183 3.272C97.4263 3.272 97.1043 2.964 97.1043 2.572C97.1043 2.18 97.4263 1.858 97.8183 1.858C98.2103 1.858 98.5183 2.18 98.5183 2.572C98.5183 2.964 98.2103 3.272 97.8183 3.272ZM98.3363 11H97.2863V4.238H98.3363V11ZM106.045 11H105.009V6.576C105.009 5.372 104.393 5.008 103.483 5.008C102.657 5.008 101.887 5.512 101.481 6.058V11H100.431V4.238H101.481V5.218C101.957 4.644 102.881 4.07 103.903 4.07C105.303 4.07 106.045 4.784 106.045 6.254V11ZM110.871 13.744C109.737 13.744 108.953 13.52 108.141 12.722L108.673 11.966C109.233 12.624 109.905 12.876 110.871 12.876C111.991 12.876 113.055 12.33 113.055 10.902V9.88C112.551 10.566 111.725 11.084 110.773 11.084C109.009 11.084 107.763 9.768 107.763 7.584C107.763 5.414 108.995 4.07 110.773 4.07C111.683 4.07 112.509 4.518 113.055 5.26V4.238H114.105V10.902C114.105 13.044 112.523 13.744 110.871 13.744ZM111.039 10.146C111.865 10.146 112.677 9.642 113.055 9.054V6.086C112.677 5.512 111.865 5.008 111.039 5.008C109.667 5.008 108.855 6.086 108.855 7.584C108.855 9.068 109.667 10.146 111.039 10.146ZM117.622 10.664C117.622 11.518 117.132 12.316 116.488 12.778L115.956 12.344C116.404 12.05 116.81 11.504 116.866 11.042C116.838 11.056 116.74 11.07 116.67 11.07C116.292 11.07 115.998 10.762 115.998 10.356C115.998 9.95 116.32 9.6 116.74 9.6C117.216 9.6 117.622 9.992 117.622 10.664ZM123.59 3.272C123.198 3.272 122.876 2.964 122.876 2.572C122.876 2.18 123.198 1.858 123.59 1.858C123.982 1.858 124.29 2.18 124.29 2.572C124.29 2.964 123.982 3.272 123.59 3.272ZM124.108 11H123.058V4.238H124.108V11ZM127.924 11.168C126.916 11.168 126.412 10.594 126.412 9.586V5.162H125.292V4.238H126.412V2.39H127.476V4.238H128.848V5.162H127.476V9.362C127.476 9.866 127.7 10.23 128.148 10.23C128.456 10.23 128.722 10.09 128.862 9.936L129.17 10.734C128.904 10.986 128.526 11.168 127.924 11.168ZM130.92 5.232H130.402C130.402 5.232 130.024 2.362 130.024 2.166C130.024 1.816 130.304 1.522 130.654 1.522C131.018 1.522 131.298 1.816 131.298 2.166C131.298 2.362 130.92 5.232 130.92 5.232ZM134.839 11.168C133.719 11.168 132.795 10.818 132.109 10.104L132.641 9.348C133.089 9.866 133.943 10.314 134.867 10.314C135.903 10.314 136.477 9.824 136.477 9.152C136.477 7.514 132.291 8.522 132.291 6.016C132.291 4.952 133.187 4.07 134.797 4.07C135.959 4.07 136.771 4.504 137.303 5.05L136.813 5.778C136.407 5.288 135.679 4.924 134.797 4.924C133.873 4.924 133.299 5.386 133.299 5.988C133.299 7.458 137.485 6.492 137.485 9.124C137.485 10.258 136.575 11.168 134.839 11.168ZM143.346 3.272C142.954 3.272 142.632 2.964 142.632 2.572C142.632 2.18 142.954 1.858 143.346 1.858C143.738 1.858 144.046 2.18 144.046 2.572C144.046 2.964 143.738 3.272 143.346 3.272ZM143.864 11H142.814V4.238H143.864V11ZM155.17 11H154.12V6.408C154.12 5.554 153.756 5.008 152.874 5.008C152.174 5.008 151.432 5.498 151.082 6.044V11H150.032V6.408C150.032 5.554 149.682 5.008 148.786 5.008C148.1 5.008 147.372 5.512 147.008 6.058V11H145.958V4.238H147.008V5.218C147.302 4.784 148.198 4.07 149.206 4.07C150.228 4.07 150.816 4.63 151.012 5.33C151.39 4.714 152.3 4.07 153.28 4.07C154.512 4.07 155.17 4.756 155.17 6.114V11ZM160.597 11.168C159.673 11.168 158.875 10.72 158.315 9.978V13.576H157.265V4.238H158.315V5.246C158.805 4.56 159.645 4.07 160.597 4.07C162.375 4.07 163.607 5.414 163.607 7.612C163.607 9.796 162.375 11.168 160.597 11.168ZM160.331 10.23C161.689 10.23 162.501 9.11 162.501 7.612C162.501 6.114 161.689 5.008 160.331 5.008C159.505 5.008 158.679 5.498 158.315 6.086V9.138C158.679 9.726 159.505 10.23 160.331 10.23ZM168.231 11.168C166.173 11.168 164.885 9.572 164.885 7.612C164.885 5.652 166.173 4.07 168.231 4.07C170.289 4.07 171.577 5.652 171.577 7.612C171.577 9.572 170.289 11.168 168.231 11.168ZM168.231 10.23C169.673 10.23 170.471 8.998 170.471 7.612C170.471 6.24 169.673 5.008 168.231 5.008C166.789 5.008 165.991 6.24 165.991 7.612C165.991 8.998 166.789 10.23 168.231 10.23ZM174.338 11H173.288V4.238H174.338V5.316C174.884 4.616 175.668 4.084 176.592 4.084V5.162C176.466 5.148 176.34 5.134 176.186 5.134C175.528 5.134 174.646 5.666 174.338 6.212V11ZM179.631 11.168C178.623 11.168 178.119 10.594 178.119 9.586V5.162H176.999V4.238H178.119V2.39H179.183V4.238H180.555V5.162H179.183V9.362C179.183 9.866 179.407 10.23 179.855 10.23C180.163 10.23 180.429 10.09 180.569 9.936L180.877 10.734C180.611 10.986 180.233 11.168 179.631 11.168ZM187.303 11H186.253V10.23C185.707 10.846 184.923 11.168 184.013 11.168C182.879 11.168 181.661 10.398 181.661 8.928C181.661 7.402 182.865 6.702 184.013 6.702C184.937 6.702 185.707 6.996 186.253 7.612V6.394C186.253 5.498 185.525 4.98 184.545 4.98C183.733 4.98 183.075 5.26 182.473 5.918L181.983 5.19C182.711 4.434 183.579 4.07 184.685 4.07C186.127 4.07 187.303 4.714 187.303 6.352V11ZM184.405 10.412C185.133 10.412 185.847 10.132 186.253 9.572V8.284C185.847 7.738 185.133 7.458 184.405 7.458C183.411 7.458 182.725 8.074 182.725 8.928C182.725 9.796 183.411 10.412 184.405 10.412ZM195.035 11H193.999V6.576C193.999 5.372 193.383 5.008 192.473 5.008C191.647 5.008 190.877 5.512 190.471 6.058V11H189.421V4.238H190.471V5.218C190.947 4.644 191.871 4.07 192.893 4.07C194.293 4.07 195.035 4.784 195.035 6.254V11ZM198.868 11.168C197.86 11.168 197.356 10.594 197.356 9.586V5.162H196.236V4.238H197.356V2.39H198.42V4.238H199.792V5.162H198.42V9.362C198.42 9.866 198.644 10.23 199.092 10.23C199.4 10.23 199.666 10.09 199.806 9.936L200.114 10.734C199.848 10.986 199.47 11.168 198.868 11.168ZM206.606 11.168C205.598 11.168 205.094 10.594 205.094 9.586V5.162H203.974V4.238H205.094V2.39H206.158V4.238H207.53V5.162H206.158V9.362C206.158 9.866 206.382 10.23 206.83 10.23C207.138 10.23 207.404 10.09 207.544 9.936L207.852 10.734C207.586 10.986 207.208 11.168 206.606 11.168ZM211.953 11.168C209.895 11.168 208.607 9.572 208.607 7.612C208.607 5.652 209.895 4.07 211.953 4.07C214.011 4.07 215.299 5.652 215.299 7.612C215.299 9.572 214.011 11.168 211.953 11.168ZM211.953 10.23C213.395 10.23 214.193 8.998 214.193 7.612C214.193 6.24 213.395 5.008 211.953 5.008C210.511 5.008 209.713 6.24 209.713 7.612C209.713 8.998 210.511 10.23 211.953 10.23ZM221.684 11H220.634V4.238H221.684V5.316C222.23 4.616 223.014 4.084 223.938 4.084V5.162C223.812 5.148 223.686 5.134 223.532 5.134C222.874 5.134 221.992 5.666 221.684 6.212V11ZM228.321 11.168C226.305 11.168 224.863 9.726 224.863 7.612C224.863 5.652 226.263 4.07 228.195 4.07C230.239 4.07 231.443 5.666 231.443 7.696V7.962H225.983C226.067 9.236 226.949 10.3 228.405 10.3C229.189 10.3 229.959 9.992 230.505 9.432L231.009 10.118C230.323 10.79 229.413 11.168 228.321 11.168ZM230.407 7.178C230.393 6.184 229.721 4.938 228.181 4.938C226.739 4.938 226.025 6.156 225.969 7.178H230.407ZM242.356 11H241.306V6.408C241.306 5.554 240.942 5.008 240.06 5.008C239.36 5.008 238.618 5.498 238.268 6.044V11H237.218V6.408C237.218 5.554 236.868 5.008 235.972 5.008C235.286 5.008 234.558 5.512 234.194 6.058V11H233.144V4.238H234.194V5.218C234.488 4.784 235.384 4.07 236.392 4.07C237.414 4.07 238.002 4.63 238.198 5.33C238.576 4.714 239.486 4.07 240.466 4.07C241.698 4.07 242.356 4.756 242.356 6.114V11ZM247.516 11.168C245.5 11.168 244.058 9.726 244.058 7.612C244.058 5.652 245.458 4.07 247.39 4.07C249.434 4.07 250.638 5.666 250.638 7.696V7.962H245.178C245.262 9.236 246.144 10.3 247.6 10.3C248.384 10.3 249.154 9.992 249.7 9.432L250.204 10.118C249.518 10.79 248.608 11.168 247.516 11.168ZM249.602 7.178C249.588 6.184 248.916 4.938 247.376 4.938C245.934 4.938 245.22 6.156 245.164 7.178H249.602ZM261.551 11H260.501V6.408C260.501 5.554 260.137 5.008 259.255 5.008C258.555 5.008 257.813 5.498 257.463 6.044V11H256.413V6.408C256.413 5.554 256.063 5.008 255.167 5.008C254.481 5.008 253.753 5.512 253.389 6.058V11H252.339V4.238H253.389V5.218C253.683 4.784 254.579 4.07 255.587 4.07C256.609 4.07 257.197 4.63 257.393 5.33C257.771 4.714 258.681 4.07 259.661 4.07C260.893 4.07 261.551 4.756 261.551 6.114V11ZM264.696 9.166C265.06 9.754 265.886 10.23 266.726 10.23C268.084 10.23 268.896 9.124 268.896 7.626C268.896 6.128 268.084 5.008 266.726 5.008C265.886 5.008 265.06 5.512 264.696 6.1V9.166ZM264.696 11H263.646V1.662H264.696V5.26C265.242 4.518 266.068 4.07 266.978 4.07C268.756 4.07 269.988 5.456 269.988 7.626C269.988 9.824 268.742 11.168 266.978 11.168C266.026 11.168 265.2 10.678 264.696 9.992V11ZM274.764 11.168C272.748 11.168 271.306 9.726 271.306 7.612C271.306 5.652 272.706 4.07 274.638 4.07C276.682 4.07 277.886 5.666 277.886 7.696V7.962H272.426C272.51 9.236 273.392 10.3 274.848 10.3C275.632 10.3 276.402 9.992 276.948 9.432L277.452 10.118C276.766 10.79 275.856 11.168 274.764 11.168ZM276.85 7.178C276.836 6.184 276.164 4.938 274.624 4.938C273.182 4.938 272.468 6.156 272.412 7.178H276.85ZM280.637 11H279.587V4.238H280.637V5.316C281.183 4.616 281.967 4.084 282.891 4.084V5.162C282.765 5.148 282.639 5.134 282.485 5.134C281.827 5.134 280.945 5.666 280.637 6.212V11ZM289.553 11.168C288.545 11.168 288.041 10.594 288.041 9.586V5.162H286.921V4.238H288.041V2.39H289.105V4.238H290.477V5.162H289.105V9.362C289.105 9.866 289.329 10.23 289.777 10.23C290.085 10.23 290.351 10.09 290.491 9.936L290.799 10.734C290.533 10.986 290.155 11.168 289.553 11.168ZM297.574 11H296.524V6.548C296.524 5.344 295.922 5.008 294.998 5.008C294.186 5.008 293.402 5.512 293.01 6.058V11H291.96V1.662H293.01V5.218C293.472 4.644 294.396 4.07 295.418 4.07C296.832 4.07 297.574 4.756 297.574 6.226V11ZM304.949 11H303.899V10.23C303.353 10.846 302.569 11.168 301.659 11.168C300.525 11.168 299.307 10.398 299.307 8.928C299.307 7.402 300.511 6.702 301.659 6.702C302.583 6.702 303.353 6.996 303.899 7.612V6.394C303.899 5.498 303.171 4.98 302.191 4.98C301.379 4.98 300.721 5.26 300.119 5.918L299.629 5.19C300.357 4.434 301.225 4.07 302.331 4.07C303.773 4.07 304.949 4.714 304.949 6.352V11ZM302.051 10.412C302.779 10.412 303.493 10.132 303.899 9.572V8.284C303.493 7.738 302.779 7.458 302.051 7.458C301.057 7.458 300.371 8.074 300.371 8.928C300.371 9.796 301.057 10.412 302.051 10.412ZM308.79 11.168C307.782 11.168 307.278 10.594 307.278 9.586V5.162H306.158V4.238H307.278V2.39H308.342V4.238H309.714V5.162H308.342V9.362C308.342 9.866 308.566 10.23 309.014 10.23C309.322 10.23 309.588 10.09 309.728 9.936L310.036 10.734C309.77 10.986 309.392 11.168 308.79 11.168ZM2.772 25.168C1.764 25.168 1.26 24.594 1.26 23.586V19.162H0.14V18.238H1.26V16.39H2.324V18.238H3.696V19.162H2.324V23.362C2.324 23.866 2.548 24.23 2.996 24.23C3.304 24.23 3.57 24.09 3.71 23.936L4.018 24.734C3.752 24.986 3.374 25.168 2.772 25.168ZM10.7932 25H9.74323V20.548C9.74323 19.344 9.14123 19.008 8.21723 19.008C7.40523 19.008 6.62123 19.512 6.22923 20.058V25H5.17923V15.662H6.22923V19.218C6.69123 18.644 7.61523 18.07 8.63723 18.07C10.0512 18.07 10.7932 18.756 10.7932 20.226V25ZM15.9558 25.168C13.9398 25.168 12.4978 23.726 12.4978 21.612C12.4978 19.652 13.8978 18.07 15.8298 18.07C17.8738 18.07 19.0778 19.666 19.0778 21.696V21.962H13.6178C13.7018 23.236 14.5838 24.3 16.0398 24.3C16.8238 24.3 17.5938 23.992 18.1398 23.432L18.6438 24.118C17.9578 24.79 17.0478 25.168 15.9558 25.168ZM18.0418 21.178C18.0278 20.184 17.3558 18.938 15.8158 18.938C14.3738 18.938 13.6598 20.156 13.6038 21.178H18.0418ZM25.4516 25H24.4016V18.238H25.4516V19.316C25.9976 18.616 26.7816 18.084 27.7056 18.084V19.162C27.5796 19.148 27.4536 19.134 27.2996 19.134C26.6416 19.134 25.7596 19.666 25.4516 20.212V25ZM32.0887 25.168C30.0727 25.168 28.6307 23.726 28.6307 21.612C28.6307 19.652 30.0307 18.07 31.9627 18.07C34.0067 18.07 35.2107 19.666 35.2107 21.696V21.962H29.7507C29.8347 23.236 30.7167 24.3 32.1727 24.3C32.9567 24.3 33.7267 23.992 34.2727 23.432L34.7767 24.118C34.0907 24.79 33.1807 25.168 32.0887 25.168ZM34.1747 21.178C34.1607 20.184 33.4887 18.938 31.9487 18.938C30.5067 18.938 29.7927 20.156 29.7367 21.178H34.1747ZM39.0673 25.168C37.9473 25.168 37.0233 24.818 36.3373 24.104L36.8693 23.348C37.3173 23.866 38.1713 24.314 39.0953 24.314C40.1313 24.314 40.7053 23.824 40.7053 23.152C40.7053 21.514 36.5193 22.522 36.5193 20.016C36.5193 18.952 37.4153 18.07 39.0253 18.07C40.1873 18.07 40.9993 18.504 41.5313 19.05L41.0413 19.778C40.6353 19.288 39.9073 18.924 39.0253 18.924C38.1013 18.924 37.5273 19.386 37.5273 19.988C37.5273 21.458 41.7133 20.492 41.7133 23.124C41.7133 24.258 40.8033 25.168 39.0673 25.168ZM49.0331 25H47.9831V24.048C47.4651 24.636 46.5831 25.168 45.5751 25.168C44.1611 25.168 43.4191 24.468 43.4191 23.012V18.238H44.4691V22.69C44.4691 23.88 45.0711 24.23 45.9951 24.23C46.8071 24.23 47.5911 23.754 47.9831 23.208V18.238H49.0331V25ZM52.1801 25H51.1301V15.662H52.1801V25ZM55.9966 25.168C54.9886 25.168 54.4846 24.594 54.4846 23.586V19.162H53.3646V18.238H54.4846V16.39H55.5486V18.238H56.9206V19.162H55.5486V23.362C55.5486 23.866 55.7726 24.23 56.2206 24.23C56.5286 24.23 56.7946 24.09 56.9346 23.936L57.2426 24.734C56.9766 24.986 56.5986 25.168 55.9966 25.168ZM60.5458 25.168C59.4258 25.168 58.5018 24.818 57.8158 24.104L58.3478 23.348C58.7958 23.866 59.6498 24.314 60.5738 24.314C61.6098 24.314 62.1838 23.824 62.1838 23.152C62.1838 21.514 57.9978 22.522 57.9978 20.016C57.9978 18.952 58.8938 18.07 60.5038 18.07C61.6658 18.07 62.4778 18.504 63.0098 19.05L62.5198 19.778C62.1138 19.288 61.3858 18.924 60.5038 18.924C59.5798 18.924 59.0058 19.386 59.0058 19.988C59.0058 21.458 63.1918 20.492 63.1918 23.124C63.1918 24.258 62.2818 25.168 60.5458 25.168ZM71.4747 25.168C69.4167 25.168 68.1287 23.572 68.1287 21.612C68.1287 19.652 69.4167 18.07 71.4747 18.07C73.5327 18.07 74.8207 19.652 74.8207 21.612C74.8207 23.572 73.5327 25.168 71.4747 25.168ZM71.4747 24.23C72.9167 24.23 73.7147 22.998 73.7147 21.612C73.7147 20.24 72.9167 19.008 71.4747 19.008C70.0327 19.008 69.2347 20.24 69.2347 21.612C69.2347 22.998 70.0327 24.23 71.4747 24.23ZM77.8764 25H76.8264V19.162H75.7064V18.238H76.8264V17.72C76.8264 16.334 77.5964 15.522 78.7864 15.522C79.3324 15.522 79.7944 15.648 80.2144 16.04L79.7804 16.712C79.5564 16.516 79.2904 16.39 78.9544 16.39C78.2544 16.39 77.8764 16.852 77.8764 17.72V18.238H79.2484V19.162H77.8764V25ZM83.77 27.646L83.924 26.694C84.078 26.764 84.33 26.806 84.498 26.806C84.96 26.806 85.268 26.652 85.506 26.092L85.954 25.07L83.126 18.238H84.274L86.514 23.782L88.768 18.238H89.902L86.514 26.372C86.108 27.352 85.422 27.73 84.526 27.744C84.302 27.744 83.952 27.702 83.77 27.646ZM93.9513 25.168C91.8933 25.168 90.6053 23.572 90.6053 21.612C90.6053 19.652 91.8933 18.07 93.9513 18.07C96.0093 18.07 97.2973 19.652 97.2973 21.612C97.2973 23.572 96.0093 25.168 93.9513 25.168ZM93.9513 24.23C95.3933 24.23 96.1913 22.998 96.1913 21.612C96.1913 20.24 95.3933 19.008 93.9513 19.008C92.5093 19.008 91.7113 20.24 91.7113 21.612C91.7113 22.998 92.5093 24.23 93.9513 24.23ZM104.623 25H103.573V24.048C103.055 24.636 102.173 25.168 101.165 25.168C99.751 25.168 99.009 24.468 99.009 23.012V18.238H100.059V22.69C100.059 23.88 100.661 24.23 101.585 24.23C102.397 24.23 103.181 23.754 103.573 23.208V18.238H104.623V25ZM107.77 25H106.72V18.238H107.77V19.316C108.316 18.616 109.1 18.084 110.024 18.084V19.162C109.898 19.148 109.772 19.134 109.618 19.134C108.96 19.134 108.078 19.666 107.77 20.212V25ZM124.176 25H123.126V20.408C123.126 19.554 122.762 19.008 121.88 19.008C121.18 19.008 120.438 19.498 120.088 20.044V25H119.038V20.408C119.038 19.554 118.688 19.008 117.792 19.008C117.106 19.008 116.378 19.512 116.014 20.058V25H114.964V18.238H116.014V19.218C116.308 18.784 117.204 18.07 118.212 18.07C119.234 18.07 119.822 18.63 120.018 19.33C120.396 18.714 121.306 18.07 122.286 18.07C123.518 18.07 124.176 18.756 124.176 20.114V25ZM129.337 25.168C127.321 25.168 125.879 23.726 125.879 21.612C125.879 19.652 127.279 18.07 129.211 18.07C131.255 18.07 132.459 19.666 132.459 21.696V21.962H126.999C127.083 23.236 127.965 24.3 129.421 24.3C130.205 24.3 130.975 23.992 131.521 23.432L132.025 24.118C131.339 24.79 130.429 25.168 129.337 25.168ZM131.423 21.178C131.409 20.184 130.737 18.938 129.197 18.938C127.755 18.938 127.041 20.156 126.985 21.178H131.423ZM139.437 25H138.387V24.23C137.841 24.846 137.057 25.168 136.147 25.168C135.013 25.168 133.795 24.398 133.795 22.928C133.795 21.402 134.999 20.702 136.147 20.702C137.071 20.702 137.841 20.996 138.387 21.612V20.394C138.387 19.498 137.659 18.98 136.679 18.98C135.867 18.98 135.209 19.26 134.607 19.918L134.117 19.19C134.845 18.434 135.713 18.07 136.819 18.07C138.261 18.07 139.437 18.714 139.437 20.352V25ZM136.539 24.412C137.267 24.412 137.981 24.132 138.387 23.572V22.284C137.981 21.738 137.267 21.458 136.539 21.458C135.545 21.458 134.859 22.074 134.859 22.928C134.859 23.796 135.545 24.412 136.539 24.412ZM143.712 25.168C142.592 25.168 141.668 24.818 140.982 24.104L141.514 23.348C141.962 23.866 142.816 24.314 143.74 24.314C144.776 24.314 145.35 23.824 145.35 23.152C145.35 21.514 141.164 22.522 141.164 20.016C141.164 18.952 142.06 18.07 143.67 18.07C144.832 18.07 145.644 18.504 146.176 19.05L145.686 19.778C145.28 19.288 144.552 18.924 143.67 18.924C142.746 18.924 142.172 19.386 142.172 19.988C142.172 21.458 146.358 20.492 146.358 23.124C146.358 24.258 145.448 25.168 143.712 25.168ZM153.678 25H152.628V24.048C152.11 24.636 151.228 25.168 150.22 25.168C148.806 25.168 148.064 24.468 148.064 23.012V18.238H149.114V22.69C149.114 23.88 149.716 24.23 150.64 24.23C151.452 24.23 152.236 23.754 152.628 23.208V18.238H153.678V25ZM156.825 25H155.775V18.238H156.825V19.316C157.371 18.616 158.155 18.084 159.079 18.084V19.162C158.953 19.148 158.827 19.134 158.673 19.134C158.015 19.134 157.133 19.666 156.825 20.212V25ZM163.462 25.168C161.446 25.168 160.004 23.726 160.004 21.612C160.004 19.652 161.404 18.07 163.336 18.07C165.38 18.07 166.584 19.666 166.584 21.696V21.962H161.124C161.208 23.236 162.09 24.3 163.546 24.3C164.33 24.3 165.1 23.992 165.646 23.432L166.15 24.118C165.464 24.79 164.554 25.168 163.462 25.168ZM165.548 21.178C165.534 20.184 164.862 18.938 163.322 18.938C161.88 18.938 161.166 20.156 161.11 21.178H165.548ZM177.496 25H176.446V20.408C176.446 19.554 176.082 19.008 175.2 19.008C174.5 19.008 173.758 19.498 173.408 20.044V25H172.358V20.408C172.358 19.554 172.008 19.008 171.112 19.008C170.426 19.008 169.698 19.512 169.334 20.058V25H168.284V18.238H169.334V19.218C169.628 18.784 170.524 18.07 171.532 18.07C172.554 18.07 173.142 18.63 173.338 19.33C173.716 18.714 174.626 18.07 175.606 18.07C176.838 18.07 177.496 18.756 177.496 20.114V25ZM182.657 25.168C180.641 25.168 179.199 23.726 179.199 21.612C179.199 19.652 180.599 18.07 182.531 18.07C184.575 18.07 185.779 19.666 185.779 21.696V21.962H180.319C180.403 23.236 181.285 24.3 182.741 24.3C183.525 24.3 184.295 23.992 184.841 23.432L185.345 24.118C184.659 24.79 183.749 25.168 182.657 25.168ZM184.743 21.178C184.729 20.184 184.057 18.938 182.517 18.938C181.075 18.938 180.361 20.156 180.305 21.178H184.743ZM193.094 25H192.058V20.576C192.058 19.372 191.442 19.008 190.532 19.008C189.706 19.008 188.936 19.512 188.53 20.058V25H187.48V18.238H188.53V19.218C189.006 18.644 189.93 18.07 190.952 18.07C192.352 18.07 193.094 18.784 193.094 20.254V25ZM196.926 25.168C195.918 25.168 195.414 24.594 195.414 23.586V19.162H194.294V18.238H195.414V16.39H196.478V18.238H197.85V19.162H196.478V23.362C196.478 23.866 196.702 24.23 197.15 24.23C197.458 24.23 197.724 24.09 197.864 23.936L198.172 24.734C197.906 24.986 197.528 25.168 196.926 25.168ZM208.221 25H207.171V24.23C206.625 24.846 205.841 25.168 204.931 25.168C203.797 25.168 202.579 24.398 202.579 22.928C202.579 21.402 203.783 20.702 204.931 20.702C205.855 20.702 206.625 20.996 207.171 21.612V20.394C207.171 19.498 206.443 18.98 205.463 18.98C204.651 18.98 203.993 19.26 203.391 19.918L202.901 19.19C203.629 18.434 204.497 18.07 205.603 18.07C207.045 18.07 208.221 18.714 208.221 20.352V25ZM205.323 24.412C206.051 24.412 206.765 24.132 207.171 23.572V22.284C206.765 21.738 206.051 21.458 205.323 21.458C204.329 21.458 203.643 22.074 203.643 22.928C203.643 23.796 204.329 24.412 205.323 24.412ZM211.389 25H210.339V18.238H211.389V19.316C211.935 18.616 212.719 18.084 213.643 18.084V19.162C213.517 19.148 213.391 19.134 213.237 19.134C212.579 19.134 211.697 19.666 211.389 20.212V25ZM218.026 25.168C216.01 25.168 214.568 23.726 214.568 21.612C214.568 19.652 215.968 18.07 217.9 18.07C219.944 18.07 221.148 19.666 221.148 21.696V21.962H215.688C215.772 23.236 216.654 24.3 218.11 24.3C218.894 24.3 219.664 23.992 220.21 23.432L220.714 24.118C220.028 24.79 219.118 25.168 218.026 25.168ZM220.112 21.178C220.098 20.184 219.426 18.938 217.886 18.938C216.444 18.938 215.73 20.156 215.674 21.178H220.112ZM229.188 27.744C228.054 27.744 227.27 27.52 226.458 26.722L226.99 25.966C227.55 26.624 228.222 26.876 229.188 26.876C230.308 26.876 231.372 26.33 231.372 24.902V23.88C230.868 24.566 230.042 25.084 229.09 25.084C227.326 25.084 226.08 23.768 226.08 21.584C226.08 19.414 227.312 18.07 229.09 18.07C230 18.07 230.826 18.518 231.372 19.26V18.238H232.422V24.902C232.422 27.044 230.84 27.744 229.188 27.744ZM229.356 24.146C230.182 24.146 230.994 23.642 231.372 23.054V20.086C230.994 19.512 230.182 19.008 229.356 19.008C227.984 19.008 227.172 20.086 227.172 21.584C227.172 23.068 227.984 24.146 229.356 24.146ZM235.057 17.272C234.665 17.272 234.343 16.964 234.343 16.572C234.343 16.18 234.665 15.858 235.057 15.858C235.449 15.858 235.757 16.18 235.757 16.572C235.757 16.964 235.449 17.272 235.057 17.272ZM235.575 25H234.525V18.238H235.575V25ZM240.623 25H239.475L236.661 18.238H237.809L240.049 23.782L242.303 18.238H243.437L240.623 25ZM247.598 25.168C245.582 25.168 244.14 23.726 244.14 21.612C244.14 19.652 245.54 18.07 247.472 18.07C249.516 18.07 250.72 19.666 250.72 21.696V21.962H245.26C245.344 23.236 246.226 24.3 247.682 24.3C248.466 24.3 249.236 23.992 249.782 23.432L250.286 24.118C249.6 24.79 248.69 25.168 247.598 25.168ZM249.684 21.178C249.67 20.184 248.998 18.938 247.458 18.938C246.016 18.938 245.302 20.156 245.246 21.178H249.684ZM258.035 25H256.999V20.576C256.999 19.372 256.383 19.008 255.473 19.008C254.647 19.008 253.877 19.512 253.471 20.058V25H252.421V18.238H253.471V19.218C253.947 18.644 254.871 18.07 255.893 18.07C257.293 18.07 258.035 18.784 258.035 20.254V25ZM264.301 17.272C263.909 17.272 263.587 16.964 263.587 16.572C263.587 16.18 263.909 15.858 264.301 15.858C264.693 15.858 265.001 16.18 265.001 16.572C265.001 16.964 264.693 17.272 264.301 17.272ZM264.819 25H263.769V18.238H264.819V25ZM272.527 25H271.491V20.576C271.491 19.372 270.875 19.008 269.965 19.008C269.139 19.008 268.369 19.512 267.963 20.058V25H266.913V18.238H267.963V19.218C268.439 18.644 269.363 18.07 270.385 18.07C271.785 18.07 272.527 18.784 272.527 20.254V25ZM280.935 25.168C279.353 25.168 278.191 24.468 277.617 23.628L278.303 22.9C278.849 23.628 279.801 24.132 280.907 24.132C282.265 24.132 283.091 23.446 283.091 22.382C283.091 21.22 282.139 20.73 280.767 20.73C280.375 20.73 279.941 20.73 279.801 20.744V19.68C279.955 19.694 280.389 19.694 280.767 19.694C281.943 19.694 282.937 19.232 282.937 18.154C282.937 17.118 281.985 16.558 280.851 16.558C279.829 16.558 279.073 16.95 278.387 17.692L277.743 16.964C278.415 16.138 279.493 15.522 280.949 15.522C282.741 15.522 284.099 16.432 284.099 18C284.099 19.358 282.965 20.03 282.097 20.17C282.937 20.254 284.253 20.968 284.253 22.48C284.253 24.034 282.993 25.168 280.935 25.168ZM2.1 39H1.05V29.662H2.1V39ZM7.26053 39.168C5.24453 39.168 3.80253 37.726 3.80253 35.612C3.80253 33.652 5.20253 32.07 7.13453 32.07C9.17853 32.07 10.3825 33.666 10.3825 35.696V35.962H4.92253C5.00653 37.236 5.88853 38.3 7.34453 38.3C8.12853 38.3 8.89853 37.992 9.44453 37.432L9.94853 38.118C9.26253 38.79 8.35253 39.168 7.26053 39.168ZM9.34653 35.178C9.33253 34.184 8.66053 32.938 7.12053 32.938C5.67853 32.938 4.96453 34.156 4.90853 35.178H9.34653ZM15.0372 39H13.8892L11.0752 32.238H12.2232L14.4632 37.782L16.7172 32.238H17.8512L15.0372 39ZM22.0125 39.168C19.9965 39.168 18.5545 37.726 18.5545 35.612C18.5545 33.652 19.9545 32.07 21.8865 32.07C23.9305 32.07 25.1345 33.666 25.1345 35.696V35.962H19.6745C19.7585 37.236 20.6405 38.3 22.0965 38.3C22.8805 38.3 23.6505 37.992 24.1965 37.432L24.7005 38.118C24.0145 38.79 23.1045 39.168 22.0125 39.168ZM24.0985 35.178C24.0845 34.184 23.4125 32.938 21.8725 32.938C20.4305 32.938 19.7165 34.156 19.6605 35.178H24.0985ZM27.8852 39H26.8352V29.662H27.8852V39ZM32.1357 39.168C31.0157 39.168 30.0917 38.818 29.4057 38.104L29.9377 37.348C30.3857 37.866 31.2397 38.314 32.1637 38.314C33.1997 38.314 33.7737 37.824 33.7737 37.152C33.7737 35.514 29.5877 36.522 29.5877 34.016C29.5877 32.952 30.4837 32.07 32.0937 32.07C33.2557 32.07 34.0677 32.504 34.5997 33.05L34.1097 33.778C33.7037 33.288 32.9757 32.924 32.0937 32.924C31.1697 32.924 30.5957 33.386 30.5957 33.988C30.5957 35.458 34.7817 34.492 34.7817 37.124C34.7817 38.258 33.8717 39.168 32.1357 39.168ZM37.0475 39.14C36.6275 39.14 36.2775 38.79 36.2775 38.37C36.2775 37.95 36.6275 37.6 37.0475 37.6C37.4675 37.6 37.8175 37.95 37.8175 38.37C37.8175 38.79 37.4675 39.14 37.0475 39.14Z" fill="#212121"/>
<path d="M2.254 124H1.092V114.662H7.21V115.698H2.254V118.708H7.112V119.744H2.254V124ZM11.7149 124.168C9.65694 124.168 8.36894 122.572 8.36894 120.612C8.36894 118.652 9.65694 117.07 11.7149 117.07C13.7729 117.07 15.0609 118.652 15.0609 120.612C15.0609 122.572 13.7729 124.168 11.7149 124.168ZM11.7149 123.23C13.1569 123.23 13.9549 121.998 13.9549 120.612C13.9549 119.24 13.1569 118.008 11.7149 118.008C10.2729 118.008 9.47494 119.24 9.47494 120.612C9.47494 121.998 10.2729 123.23 11.7149 123.23ZM17.8227 124H16.7727V117.238H17.8227V118.316C18.3687 117.616 19.1527 117.084 20.0767 117.084V118.162C19.9507 118.148 19.8247 118.134 19.6707 118.134C19.0127 118.134 18.1307 118.666 17.8227 119.212V124ZM27.7328 126.744C26.5988 126.744 25.8148 126.52 25.0028 125.722L25.5348 124.966C26.0948 125.624 26.7668 125.876 27.7328 125.876C28.8528 125.876 29.9168 125.33 29.9168 123.902V122.88C29.4128 123.566 28.5868 124.084 27.6348 124.084C25.8708 124.084 24.6248 122.768 24.6248 120.584C24.6248 118.414 25.8568 117.07 27.6348 117.07C28.5448 117.07 29.3708 117.518 29.9168 118.26V117.238H30.9668V123.902C30.9668 126.044 29.3848 126.744 27.7328 126.744ZM27.9008 123.146C28.7268 123.146 29.5388 122.642 29.9168 122.054V119.086C29.5388 118.512 28.7268 118.008 27.9008 118.008C26.5288 118.008 25.7168 119.086 25.7168 120.584C25.7168 122.068 26.5288 123.146 27.9008 123.146ZM34.1195 124H33.0695V117.238H34.1195V118.316C34.6655 117.616 35.4495 117.084 36.3735 117.084V118.162C36.2475 118.148 36.1215 118.134 35.9675 118.134C35.3095 118.134 34.4275 118.666 34.1195 119.212V124ZM40.7566 124.168C38.7406 124.168 37.2986 122.726 37.2986 120.612C37.2986 118.652 38.6986 117.07 40.6306 117.07C42.6746 117.07 43.8786 118.666 43.8786 120.696V120.962H38.4186C38.5026 122.236 39.3846 123.3 40.8406 123.3C41.6246 123.3 42.3946 122.992 42.9406 122.432L43.4446 123.118C42.7586 123.79 41.8486 124.168 40.7566 124.168ZM42.8426 120.178C42.8286 119.184 42.1566 117.938 40.6166 117.938C39.1746 117.938 38.4606 119.156 38.4046 120.178H42.8426ZM48.6453 124.168C46.6293 124.168 45.1873 122.726 45.1873 120.612C45.1873 118.652 46.5873 117.07 48.5193 117.07C50.5633 117.07 51.7673 118.666 51.7673 120.696V120.962H46.3073C46.3913 122.236 47.2733 123.3 48.7293 123.3C49.5133 123.3 50.2833 122.992 50.8293 122.432L51.3333 123.118C50.6473 123.79 49.7373 124.168 48.6453 124.168ZM50.7313 120.178C50.7173 119.184 50.0453 117.938 48.5053 117.938C47.0633 117.938 46.3493 119.156 46.2933 120.178H50.7313ZM59.082 124H58.046V119.576C58.046 118.372 57.43 118.008 56.52 118.008C55.694 118.008 54.924 118.512 54.518 119.058V124H53.468V117.238H54.518V118.218C54.994 117.644 55.918 117.07 56.94 117.07C58.34 117.07 59.082 117.784 59.082 119.254V124ZM67.7696 124.168C65.7116 124.168 64.4236 122.572 64.4236 120.612C64.4236 118.652 65.7116 117.07 67.7696 117.07C69.8276 117.07 71.1156 118.652 71.1156 120.612C71.1156 122.572 69.8276 124.168 67.7696 124.168ZM67.7696 123.23C69.2116 123.23 70.0096 121.998 70.0096 120.612C70.0096 119.24 69.2116 118.008 67.7696 118.008C66.3276 118.008 65.5296 119.24 65.5296 120.612C65.5296 121.998 66.3276 123.23 67.7696 123.23ZM73.8773 124H72.8273V117.238H73.8773V118.316C74.4233 117.616 75.2073 117.084 76.1313 117.084V118.162C76.0053 118.148 75.8793 118.134 75.7253 118.134C75.0673 118.134 74.1853 118.666 73.8773 119.212V124ZM80.7075 126.646L80.8615 125.694C81.0155 125.764 81.2675 125.806 81.4355 125.806C81.8975 125.806 82.2055 125.652 82.4435 125.092L82.8915 124.07L80.0635 117.238H81.2115L83.4515 122.782L85.7055 117.238H86.8395L83.4515 125.372C83.0455 126.352 82.3595 126.73 81.4635 126.744C81.2395 126.744 80.8895 126.702 80.7075 126.646ZM91.0008 124.168C88.9848 124.168 87.5428 122.726 87.5428 120.612C87.5428 118.652 88.9428 117.07 90.8748 117.07C92.9188 117.07 94.1228 118.666 94.1228 120.696V120.962H88.6628C88.7468 122.236 89.6288 123.3 91.0848 123.3C91.8688 123.3 92.6388 122.992 93.1848 122.432L93.6888 123.118C93.0028 123.79 92.0928 124.168 91.0008 124.168ZM93.0868 120.178C93.0728 119.184 92.4008 117.938 90.8608 117.938C89.4188 117.938 88.7048 119.156 88.6488 120.178H93.0868ZM96.8734 124H95.8234V114.662H96.8734V124ZM100.018 124H98.968V114.662H100.018V124ZM105.067 124.168C103.009 124.168 101.721 122.572 101.721 120.612C101.721 118.652 103.009 117.07 105.067 117.07C107.125 117.07 108.413 118.652 108.413 120.612C108.413 122.572 107.125 124.168 105.067 124.168ZM105.067 123.23C106.509 123.23 107.307 121.998 107.307 120.612C107.307 119.24 106.509 118.008 105.067 118.008C103.625 118.008 102.827 119.24 102.827 120.612C102.827 121.998 103.625 123.23 105.067 123.23ZM117.04 124H115.976L114.212 118.568L112.448 124H111.398L109.242 117.238H110.334L111.986 122.628L113.764 117.238H114.674L116.438 122.628L118.09 117.238H119.196L117.04 124ZM124.561 116.272C124.169 116.272 123.847 115.964 123.847 115.572C123.847 115.18 124.169 114.858 124.561 114.858C124.953 114.858 125.261 115.18 125.261 115.572C125.261 115.964 124.953 116.272 124.561 116.272ZM125.079 124H124.029V117.238H125.079V124ZM132.787 124H131.751V119.576C131.751 118.372 131.135 118.008 130.225 118.008C129.399 118.008 128.629 118.512 128.223 119.058V124H127.173V117.238H128.223V118.218C128.699 117.644 129.623 117.07 130.645 117.07C132.045 117.07 132.787 117.784 132.787 119.254V124ZM140.848 124H139.798V122.992C139.294 123.678 138.468 124.168 137.516 124.168C135.752 124.168 134.506 122.824 134.506 120.626C134.506 118.456 135.752 117.07 137.516 117.07C138.426 117.07 139.252 117.518 139.798 118.26V114.662H140.848V124ZM137.782 123.23C138.608 123.23 139.434 122.74 139.798 122.152V119.1C139.434 118.512 138.608 118.008 137.782 118.008C136.41 118.008 135.598 119.128 135.598 120.626C135.598 122.124 136.41 123.23 137.782 123.23ZM143.482 116.272C143.09 116.272 142.768 115.964 142.768 115.572C142.768 115.18 143.09 114.858 143.482 114.858C143.874 114.858 144.182 115.18 144.182 115.572C144.182 115.964 143.874 116.272 143.482 116.272ZM144 124H142.95V117.238H144V124ZM149.077 124.168C147.061 124.168 145.703 122.614 145.703 120.612C145.703 118.61 147.061 117.07 149.077 117.07C150.309 117.07 151.037 117.574 151.555 118.246L150.855 118.876C150.407 118.26 149.833 118.008 149.133 118.008C147.705 118.008 146.795 119.114 146.795 120.612C146.795 122.11 147.705 123.23 149.133 123.23C149.833 123.23 150.407 122.95 150.855 122.348L151.555 122.992C151.037 123.664 150.309 124.168 149.077 124.168ZM158.318 124H157.268V123.23C156.722 123.846 155.938 124.168 155.028 124.168C153.894 124.168 152.676 123.398 152.676 121.928C152.676 120.402 153.88 119.702 155.028 119.702C155.952 119.702 156.722 119.996 157.268 120.612V119.394C157.268 118.498 156.54 117.98 155.56 117.98C154.748 117.98 154.09 118.26 153.488 118.918L152.998 118.19C153.726 117.434 154.594 117.07 155.7 117.07C157.142 117.07 158.318 117.714 158.318 119.352V124ZM155.42 123.412C156.148 123.412 156.862 123.132 157.268 122.572V121.284C156.862 120.738 156.148 120.458 155.42 120.458C154.426 120.458 153.74 121.074 153.74 121.928C153.74 122.796 154.426 123.412 155.42 123.412ZM162.159 124.168C161.151 124.168 160.647 123.594 160.647 122.586V118.162H159.527V117.238H160.647V115.39H161.711V117.238H163.083V118.162H161.711V122.362C161.711 122.866 161.935 123.23 162.383 123.23C162.691 123.23 162.957 123.09 163.097 122.936L163.405 123.734C163.139 123.986 162.761 124.168 162.159 124.168ZM167.506 124.168C165.448 124.168 164.16 122.572 164.16 120.612C164.16 118.652 165.448 117.07 167.506 117.07C169.564 117.07 170.852 118.652 170.852 120.612C170.852 122.572 169.564 124.168 167.506 124.168ZM167.506 123.23C168.948 123.23 169.746 121.998 169.746 120.612C169.746 119.24 168.948 118.008 167.506 118.008C166.064 118.008 165.266 119.24 165.266 120.612C165.266 121.998 166.064 123.23 167.506 123.23ZM173.614 124H172.564V117.238H173.614V118.316C174.16 117.616 174.944 117.084 175.868 117.084V118.162C175.742 118.148 175.616 118.134 175.462 118.134C174.804 118.134 173.922 118.666 173.614 119.212V124ZM179.341 124.168C178.221 124.168 177.297 123.818 176.611 123.104L177.143 122.348C177.591 122.866 178.445 123.314 179.369 123.314C180.405 123.314 180.979 122.824 180.979 122.152C180.979 120.514 176.793 121.522 176.793 119.016C176.793 117.952 177.689 117.07 179.299 117.07C180.461 117.07 181.273 117.504 181.805 118.05L181.315 118.778C180.909 118.288 180.181 117.924 179.299 117.924C178.375 117.924 177.801 118.386 177.801 118.988C177.801 120.458 181.987 119.492 181.987 122.124C181.987 123.258 181.077 124.168 179.341 124.168ZM185.107 123.664C185.107 124.518 184.617 125.316 183.973 125.778L183.441 125.344C183.889 125.05 184.295 124.504 184.351 124.042C184.323 124.056 184.225 124.07 184.155 124.07C183.777 124.07 183.483 123.762 183.483 123.356C183.483 122.95 183.805 122.6 184.225 122.6C184.701 122.6 185.107 122.992 185.107 123.664ZM190.178 126.646L190.332 125.694C190.486 125.764 190.738 125.806 190.906 125.806C191.368 125.806 191.676 125.652 191.914 125.092L192.362 124.07L189.534 117.238H190.682L192.922 122.782L195.176 117.238H196.31L192.922 125.372C192.516 126.352 191.83 126.73 190.934 126.744C190.71 126.744 190.36 126.702 190.178 126.646ZM200.359 124.168C198.301 124.168 197.013 122.572 197.013 120.612C197.013 118.652 198.301 117.07 200.359 117.07C202.417 117.07 203.705 118.652 203.705 120.612C203.705 122.572 202.417 124.168 200.359 124.168ZM200.359 123.23C201.801 123.23 202.599 121.998 202.599 120.612C202.599 119.24 201.801 118.008 200.359 118.008C198.917 118.008 198.119 119.24 198.119 120.612C198.119 121.998 198.917 123.23 200.359 123.23ZM211.031 124H209.981V123.048C209.463 123.636 208.581 124.168 207.573 124.168C206.159 124.168 205.417 123.468 205.417 122.012V117.238H206.467V121.69C206.467 122.88 207.069 123.23 207.993 123.23C208.805 123.23 209.589 122.754 209.981 122.208V117.238H211.031V124ZM222.029 124H220.979V123.23C220.433 123.846 219.649 124.168 218.739 124.168C217.605 124.168 216.387 123.398 216.387 121.928C216.387 120.402 217.591 119.702 218.739 119.702C219.663 119.702 220.433 119.996 220.979 120.612V119.394C220.979 118.498 220.251 117.98 219.271 117.98C218.459 117.98 217.801 118.26 217.199 118.918L216.709 118.19C217.437 117.434 218.305 117.07 219.411 117.07C220.853 117.07 222.029 117.714 222.029 119.352V124ZM219.131 123.412C219.859 123.412 220.573 123.132 220.979 122.572V121.284C220.573 120.738 219.859 120.458 219.131 120.458C218.137 120.458 217.451 121.074 217.451 121.928C217.451 122.796 218.137 123.412 219.131 123.412ZM225.198 124H224.148V117.238H225.198V118.316C225.744 117.616 226.528 117.084 227.452 117.084V118.162C227.326 118.148 227.2 118.134 227.046 118.134C226.388 118.134 225.506 118.666 225.198 119.212V124ZM231.835 124.168C229.819 124.168 228.377 122.726 228.377 120.612C228.377 118.652 229.777 117.07 231.709 117.07C233.753 117.07 234.957 118.666 234.957 120.696V120.962H229.497C229.581 122.236 230.463 123.3 231.919 123.3C232.703 123.3 233.473 122.992 234.019 122.432L234.523 123.118C233.837 123.79 232.927 124.168 231.835 124.168ZM233.921 120.178C233.907 119.184 233.235 117.938 231.695 117.938C230.253 117.938 229.539 119.156 229.483 120.178H233.921ZM245.558 124H244.508V123.23C243.962 123.846 243.178 124.168 242.268 124.168C241.134 124.168 239.916 123.398 239.916 121.928C239.916 120.402 241.12 119.702 242.268 119.702C243.192 119.702 243.962 119.996 244.508 120.612V119.394C244.508 118.498 243.78 117.98 242.8 117.98C241.988 117.98 241.33 118.26 240.728 118.918L240.238 118.19C240.966 117.434 241.834 117.07 242.94 117.07C244.382 117.07 245.558 117.714 245.558 119.352V124ZM242.66 123.412C243.388 123.412 244.102 123.132 244.508 122.572V121.284C244.102 120.738 243.388 120.458 242.66 120.458C241.666 120.458 240.98 121.074 240.98 121.928C240.98 122.796 241.666 123.412 242.66 123.412ZM249.399 124.168C248.391 124.168 247.887 123.594 247.887 122.586V118.162H246.767V117.238H247.887V115.39H248.951V117.238H250.323V118.162H248.951V122.362C248.951 122.866 249.175 123.23 249.623 123.23C249.931 123.23 250.197 123.09 250.337 122.936L250.645 123.734C250.379 123.986 250.001 124.168 249.399 124.168ZM260.693 124H259.643V123.23C259.097 123.846 258.313 124.168 257.403 124.168C256.269 124.168 255.051 123.398 255.051 121.928C255.051 120.402 256.255 119.702 257.403 119.702C258.327 119.702 259.097 119.996 259.643 120.612V119.394C259.643 118.498 258.915 117.98 257.935 117.98C257.123 117.98 256.465 118.26 255.863 118.918L255.373 118.19C256.101 117.434 256.969 117.07 258.075 117.07C259.517 117.07 260.693 117.714 260.693 119.352V124ZM257.795 123.412C258.523 123.412 259.237 123.132 259.643 122.572V121.284C259.237 120.738 258.523 120.458 257.795 120.458C256.801 120.458 256.115 121.074 256.115 121.928C256.115 122.796 256.801 123.412 257.795 123.412ZM275.647 124H274.597V119.408C274.597 118.554 274.233 118.008 273.351 118.008C272.651 118.008 271.909 118.498 271.559 119.044V124H270.509V119.408C270.509 118.554 270.159 118.008 269.263 118.008C268.577 118.008 267.849 118.512 267.485 119.058V124H266.435V117.238H267.485V118.218C267.779 117.784 268.675 117.07 269.683 117.07C270.705 117.07 271.293 117.63 271.489 118.33C271.867 117.714 272.777 117.07 273.757 117.07C274.989 117.07 275.647 117.756 275.647 119.114V124ZM280.807 124.168C278.791 124.168 277.349 122.726 277.349 120.612C277.349 118.652 278.749 117.07 280.681 117.07C282.725 117.07 283.929 118.666 283.929 120.696V120.962H278.469C278.553 122.236 279.435 123.3 280.891 123.3C281.675 123.3 282.445 122.992 282.991 122.432L283.495 123.118C282.809 123.79 281.899 124.168 280.807 124.168ZM282.893 120.178C282.879 119.184 282.207 117.938 280.667 117.938C279.225 117.938 278.511 119.156 278.455 120.178H282.893ZM291.58 124H290.53V122.992C290.026 123.678 289.2 124.168 288.248 124.168C286.484 124.168 285.238 122.824 285.238 120.626C285.238 118.456 286.484 117.07 288.248 117.07C289.158 117.07 289.984 117.518 290.53 118.26V114.662H291.58V124ZM288.514 123.23C289.34 123.23 290.166 122.74 290.53 122.152V119.1C290.166 118.512 289.34 118.008 288.514 118.008C287.142 118.008 286.33 119.128 286.33 120.626C286.33 122.124 287.142 123.23 288.514 123.23ZM294.215 116.272C293.823 116.272 293.501 115.964 293.501 115.572C293.501 115.18 293.823 114.858 294.215 114.858C294.607 114.858 294.915 115.18 294.915 115.572C294.915 115.964 294.607 116.272 294.215 116.272ZM294.733 124H293.683V117.238H294.733V124ZM302.441 124H301.391V123.048C300.873 123.636 299.991 124.168 298.983 124.168C297.569 124.168 296.827 123.468 296.827 122.012V117.238H297.877V121.69C297.877 122.88 298.479 123.23 299.403 123.23C300.215 123.23 300.999 122.754 301.391 122.208V117.238H302.441V124ZM313.75 124H312.7V119.408C312.7 118.554 312.336 118.008 311.454 118.008C310.754 118.008 310.012 118.498 309.662 119.044V124H308.612V119.408C308.612 118.554 308.262 118.008 307.366 118.008C306.68 118.008 305.952 118.512 305.588 119.058V124H304.538V117.238H305.588V118.218C305.882 117.784 306.778 117.07 307.786 117.07C308.808 117.07 309.396 117.63 309.592 118.33C309.97 117.714 310.88 117.07 311.86 117.07C313.092 117.07 313.75 117.756 313.75 119.114V124ZM2.772 140.168C1.764 140.168 1.26 139.594 1.26 138.586V134.162H0.14V133.238H1.26V131.39H2.324V133.238H3.696V134.162H2.324V138.362C2.324 138.866 2.548 139.23 2.996 139.23C3.304 139.23 3.57 139.09 3.71 138.936L4.018 139.734C3.752 139.986 3.374 140.168 2.772 140.168ZM8.11923 140.168C6.06123 140.168 4.77323 138.572 4.77323 136.612C4.77323 134.652 6.06123 133.07 8.11923 133.07C10.1772 133.07 11.4652 134.652 11.4652 136.612C11.4652 138.572 10.1772 140.168 8.11923 140.168ZM8.11923 139.23C9.56123 139.23 10.3592 137.998 10.3592 136.612C10.3592 135.24 9.56123 134.008 8.11923 134.008C6.67723 134.008 5.87923 135.24 5.87923 136.612C5.87923 137.998 6.67723 139.23 8.11923 139.23ZM19.754 140.168C17.696 140.168 16.408 138.572 16.408 136.612C16.408 134.652 17.696 133.07 19.754 133.07C21.812 133.07 23.1 134.652 23.1 136.612C23.1 138.572 21.812 140.168 19.754 140.168ZM19.754 139.23C21.196 139.23 21.994 137.998 21.994 136.612C21.994 135.24 21.196 134.008 19.754 134.008C18.312 134.008 17.514 135.24 17.514 136.612C17.514 137.998 18.312 139.23 19.754 139.23ZM28.1437 140.168C27.2197 140.168 26.4217 139.72 25.8617 138.978V142.576H24.8117V133.238H25.8617V134.246C26.3517 133.56 27.1917 133.07 28.1437 133.07C29.9217 133.07 31.1537 134.414 31.1537 136.612C31.1537 138.796 29.9217 140.168 28.1437 140.168ZM27.8777 139.23C29.2357 139.23 30.0477 138.11 30.0477 136.612C30.0477 135.114 29.2357 134.008 27.8777 134.008C27.0517 134.008 26.2257 134.498 25.8617 135.086V138.138C26.2257 138.726 27.0517 139.23 27.8777 139.23ZM34.5454 140.168C33.5374 140.168 33.0334 139.594 33.0334 138.586V134.162H31.9134V133.238H33.0334V131.39H34.0974V133.238H35.4694V134.162H34.0974V138.362C34.0974 138.866 34.3214 139.23 34.7694 139.23C35.0774 139.23 35.3434 139.09 35.4834 138.936L35.7914 139.734C35.5254 139.986 35.1474 140.168 34.5454 140.168ZM37.4707 132.272C37.0787 132.272 36.7567 131.964 36.7567 131.572C36.7567 131.18 37.0787 130.858 37.4707 130.858C37.8627 130.858 38.1707 131.18 38.1707 131.572C38.1707 131.964 37.8627 132.272 37.4707 132.272ZM37.9887 140H36.9387V133.238H37.9887V140ZM49.2952 140H48.2452V135.408C48.2452 134.554 47.8812 134.008 46.9992 134.008C46.2992 134.008 45.5572 134.498 45.2072 135.044V140H44.1572V135.408C44.1572 134.554 43.8072 134.008 42.9112 134.008C42.2252 134.008 41.4972 134.512 41.1332 135.058V140H40.0832V133.238H41.1332V134.218C41.4272 133.784 42.3232 133.07 43.3312 133.07C44.3532 133.07 44.9412 133.63 45.1372 134.33C45.5152 133.714 46.4252 133.07 47.4052 133.07C48.6372 133.07 49.2952 133.756 49.2952 135.114V140ZM56.6678 140H55.6178V139.23C55.0718 139.846 54.2878 140.168 53.3778 140.168C52.2438 140.168 51.0258 139.398 51.0258 137.928C51.0258 136.402 52.2298 135.702 53.3778 135.702C54.3018 135.702 55.0718 135.996 55.6178 136.612V135.394C55.6178 134.498 54.8898 133.98 53.9098 133.98C53.0978 133.98 52.4398 134.26 51.8378 134.918L51.3478 134.19C52.0758 133.434 52.9438 133.07 54.0498 133.07C55.4918 133.07 56.6678 133.714 56.6678 135.352V140ZM53.7698 139.412C54.4978 139.412 55.2118 139.132 55.6178 138.572V137.284C55.2118 136.738 54.4978 136.458 53.7698 136.458C52.7758 136.458 52.0898 137.074 52.0898 137.928C52.0898 138.796 52.7758 139.412 53.7698 139.412ZM59.8363 140H58.7863V130.662H59.8363V140ZM66.6039 140H65.5539V130.662H66.6039V140ZM71.7644 140.168C69.7484 140.168 68.3064 138.726 68.3064 136.612C68.3064 134.652 69.7064 133.07 71.6384 133.07C73.6824 133.07 74.8864 134.666 74.8864 136.696V136.962H69.4264C69.5104 138.236 70.3924 139.3 71.8484 139.3C72.6324 139.3 73.4024 138.992 73.9484 138.432L74.4524 139.118C73.7664 139.79 72.8564 140.168 71.7644 140.168ZM73.8504 136.178C73.8364 135.184 73.1644 133.938 71.6244 133.938C70.1824 133.938 69.4684 135.156 69.4124 136.178H73.8504ZM79.5411 140H78.3931L75.5791 133.238H76.7271L78.9671 138.782L81.2211 133.238H82.3551L79.5411 140ZM86.5164 140.168C84.5004 140.168 83.0584 138.726 83.0584 136.612C83.0584 134.652 84.4584 133.07 86.3904 133.07C88.4344 133.07 89.6384 134.666 89.6384 136.696V136.962H84.1784C84.2624 138.236 85.1444 139.3 86.6004 139.3C87.3844 139.3 88.1544 138.992 88.7004 138.432L89.2044 139.118C88.5184 139.79 87.6084 140.168 86.5164 140.168ZM88.6024 136.178C88.5884 135.184 87.9164 133.938 86.3764 133.938C84.9344 133.938 84.2204 135.156 84.1644 136.178H88.6024ZM92.3891 140H91.3391V130.662H92.3891V140ZM95.0436 140.14C94.6236 140.14 94.2736 139.79 94.2736 139.37C94.2736 138.95 94.6236 138.6 95.0436 138.6C95.4636 138.6 95.8136 138.95 95.8136 139.37C95.8136 139.79 95.4636 140.14 95.0436 140.14Z" fill="#212121"/>
</svg>
