<svg width="13" height="15" viewBox="0 0 13 15" fill="none" xmlns="http://www.w3.org/2000/svg">
<path d="M6.125 8.625C8.28516 8.625 10.0625 6.875 10.0625 4.6875C10.0625 2.52734 8.28516 0.75 6.125 0.75C3.9375 0.75 2.1875 2.52734 2.1875 4.6875C2.1875 6.875 3.9375 8.625 6.125 8.625ZM6.125 2.0625C7.54688 2.0625 8.75 3.26562 8.75 4.6875C8.75 6.13672 7.54688 7.3125 6.125 7.3125C4.67578 7.3125 3.5 6.13672 3.5 4.6875C3.5 3.26562 4.67578 2.0625 6.125 2.0625ZM8.55859 9.0625C8.25781 9.0625 7.95703 9.14453 7.68359 9.25391C7.19141 9.41797 6.67188 9.5 6.125 9.5C5.55078 9.5 5.03125 9.41797 4.53906 9.25391C4.26562 9.14453 3.96484 9.0625 3.66406 9.0625C1.64062 9.0625 0 10.7305 0 12.7539V14.0938C0 14.4766 0.273438 14.75 0.65625 14.75C1.01172 14.75 1.3125 14.4766 1.3125 14.0938V12.7539C1.3125 11.4961 2.26953 10.4844 3.5 10.4023V11.7695C2.84375 11.9609 2.40625 12.5352 2.40625 13.2188C2.40625 14.0664 3.08984 14.75 3.9375 14.75C4.75781 14.75 5.46875 14.0664 5.46875 13.2188C5.46875 12.5352 5.00391 11.9609 4.375 11.7695V10.5391C4.92188 10.7305 5.52344 10.8125 6.125 10.8125C6.69922 10.8125 7.30078 10.7305 7.875 10.5391V11.5508C7.08203 11.7422 6.5625 12.4805 6.5625 13.3008V14.0938C6.5625 14.2305 6.58984 14.3398 6.67188 14.4219L6.97266 14.6953C7.05469 14.7773 7.19141 14.7773 7.27344 14.6953L7.57422 14.3945C7.65625 14.3125 7.65625 14.1758 7.57422 14.0664L7.41016 13.9297V13.2188C7.41016 12.6992 7.90234 12.2891 8.44922 12.3711C8.88672 12.4258 9.16016 12.8359 9.16016 13.2734V13.9297L9.02344 14.0664C8.94141 14.1758 8.94141 14.3125 9.02344 14.3945L9.32422 14.6953C9.40625 14.7773 9.54297 14.7773 9.625 14.6953L9.92578 14.4219C10.0078 14.3398 10.0352 14.2305 10.0352 14.0938V13.2188C10.0352 12.4258 9.48828 11.7422 8.72266 11.5508V10.4023C9.95312 10.4844 10.9102 11.4961 10.9102 12.7539V14.0938C10.9102 14.4766 11.2109 14.75 11.5664 14.75C11.9492 14.75 12.2227 14.4766 12.2227 14.0938V12.7539C12.25 10.7305 10.582 9.0625 8.55859 9.0625ZM4.59375 13.2188C4.59375 13.6016 4.29297 13.875 3.9375 13.875C3.55469 13.875 3.28125 13.6016 3.28125 13.2188C3.28125 12.8633 3.55469 12.5625 3.9375 12.5625C4.29297 12.5625 4.59375 12.8633 4.59375 13.2188Z" fill="#5B5C5B"/>
</svg>
