<svg width="18" height="18" viewBox="0 0 18 18" fill="none" xmlns="http://www.w3.org/2000/svg">
<path d="M12.7404 3.26621L14.7339 5.2587L12.7404 3.26621ZM14.0223 1.5109L8.63215 6.90107C8.35365 7.17919 8.1637 7.53354 8.08627 7.91944L7.58838 10.4117L10.0806 9.91287C10.4665 9.83569 10.8204 9.64651 11.099 9.36792L16.4892 3.97775C16.6512 3.81577 16.7796 3.62348 16.8673 3.41185C16.955 3.20022 17.0001 2.97339 17.0001 2.74433C17.0001 2.51526 16.955 2.28843 16.8673 2.0768C16.7796 1.86517 16.6512 1.67288 16.4892 1.5109C16.3272 1.34893 16.1349 1.22044 15.9233 1.13278C15.7116 1.04512 15.4848 1 15.2558 1C15.0267 1 14.7999 1.04512 14.5882 1.13278C14.3766 1.22044 14.1843 1.34893 14.0223 1.5109V1.5109Z" stroke="#055293" stroke-width="1.5" stroke-linecap="round" stroke-linejoin="round"/>
<path d="M15.1178 12.2941V15.1176C15.1178 15.6169 14.9195 16.0956 14.5665 16.4487C14.2134 16.8017 13.7347 17 13.2354 17H2.88237C2.38314 17 1.90435 16.8017 1.55133 16.4487C1.19832 16.0956 1 15.6169 1 15.1176V4.76457C1 4.26534 1.19832 3.78655 1.55133 3.43354C1.90435 3.08052 2.38314 2.8822 2.88237 2.8822H5.70593" stroke="#055293" stroke-width="1.5" stroke-linecap="round" stroke-linejoin="round"/>
</svg>
