<svg width="16" height="17" viewBox="0 0 16 17" fill="none" xmlns="http://www.w3.org/2000/svg">
<path d="M15.4062 5.59375C14.625 5 14 4.5 10.2812 1.8125C9.75 1.4375 8.71875 0.5 8 0.5H7.96875C7.25 0.5 6.21875 1.4375 5.6875 1.8125C1.96875 4.5 1.34375 4.96875 0.5625 5.59375C0.1875 5.875 0 6.3125 0 6.78125V15C0 15.8438 0.65625 16.5 1.5 16.5H14.5C15.3125 16.5 16 15.8438 16 15.0312V6.78125C16 6.3125 15.7812 5.875 15.4062 5.59375ZM9.46875 12C9.03125 12.3438 8.5 12.5 8 12.5C7.46875 12.5 6.9375 12.3438 6.5 12L2 8.46875V7.03125C2.65625 6.5 3.4375 5.90625 6.875 3.40625C6.96875 3.34375 7.09375 3.25 7.21875 3.15625C7.375 3.03125 7.71875 2.75 8 2.59375C8.25 2.75 8.59375 3.03125 8.75 3.15625C8.875 3.25 9 3.34375 9.09375 3.4375C12.5 5.90625 13.3125 6.5 14 7.03125V8.46875L9.46875 12Z" fill="#065394"/>
</svg>
