<svg width="16" height="16" viewBox="0 0 16 16" fill="none" xmlns="http://www.w3.org/2000/svg">
<path d="M14 3.12109C15.0938 3.12109 16 4.02734 16 5.12109V13.1211C16 14.2461 15.0938 15.1211 14 15.1211H2C0.875 15.1211 0 14.2461 0 13.1211V5.12109C0 4.02734 0.875 3.12109 2 3.12109H4V2.12109C4 1.02734 4.875 0.121094 6 0.121094H10C11.0938 0.121094 12 1.02734 12 2.12109V3.12109H14ZM5.5 2.12109V3.12109H10.5V2.12109C10.5 1.87109 10.25 1.62109 10 1.62109H6C5.71875 1.62109 5.5 1.87109 5.5 2.12109ZM11.5 4.62109H4.5V13.6211H11.5V4.62109ZM1.5 13.1211C1.5 13.4023 1.71875 13.6211 2 13.6211H3V4.62109H2C1.71875 4.62109 1.5 4.87109 1.5 5.12109V13.1211ZM14.5 13.1211V5.12109C14.5 4.87109 14.25 4.62109 14 4.62109H13V13.6211H14C14.25 13.6211 14.5 13.4023 14.5 13.1211Z" fill="#757575"/>
</svg>
