<svg width="60" height="24" viewBox="0 0 60 24" fill="none" xmlns="http://www.w3.org/2000/svg">
<path d="M11.912 21.3499V18.3499H3.992V14.7259H11.744V11.7259H3.992V8.34185H11.912V5.34185H0.584V21.3499H11.912ZM28.9042 21.3499V5.34185H25.4962V15.3979L18.0802 5.34185H14.5762V21.3499H17.9842V10.9099L25.6162 21.3499H28.9042ZM52.3672 7.84985C51.7109 3.67798 50.0703 0.724854 48.2422 0.724854C46.3672 0.724854 44.7734 3.67798 44.0703 7.84985H52.3672ZM43.7422 12.3499C43.7422 13.428 43.7891 14.4124 43.8828 15.3499H52.5547C52.6484 14.4124 52.6953 13.428 52.6953 12.3499C52.6953 11.3186 52.6484 10.3342 52.5547 9.34985H43.8828C43.7891 10.3342 43.7422 11.3186 43.7422 12.3499ZM58.9297 7.84985C57.6172 4.70923 54.8984 2.22485 51.5234 1.24048C52.6953 2.83423 53.4453 5.22485 53.8672 7.84985H58.9297ZM44.9141 1.24048C41.5391 2.22485 38.8203 4.70923 37.5078 7.84985H42.5703C42.9922 5.22485 43.7422 2.83423 44.9141 1.24048ZM59.4453 9.34985H54.0547C54.1484 10.3342 54.2422 11.3655 54.2422 12.3499C54.2422 13.3811 54.1484 14.3655 54.0547 15.3499H59.4453C59.6797 14.4124 59.8203 13.428 59.8203 12.3499C59.8203 11.3186 59.6797 10.3342 59.4453 9.34985ZM42.2422 12.3499C42.2422 11.3655 42.2891 10.3342 42.3828 9.34985H36.9922C36.7578 10.3342 36.6172 11.3186 36.6172 12.3499C36.6172 13.428 36.7578 14.4124 36.9922 15.3499H42.3828C42.2891 14.3655 42.2422 13.3811 42.2422 12.3499ZM44.0703 16.8499C44.7734 21.0686 46.3672 23.9749 48.2422 23.9749C50.0703 23.9749 51.7109 21.0686 52.3672 16.8499H44.0703ZM51.5234 23.5061C54.8984 22.5217 57.6172 20.0374 58.9297 16.8499H53.8672C53.4922 19.5217 52.6953 21.9124 51.5234 23.5061ZM37.5078 16.8499C38.8203 20.0374 41.5391 22.5217 44.9141 23.5061C43.7422 21.9124 42.9922 19.5217 42.5703 16.8499H37.5078Z" fill="#E5E5E5"/>
</svg>
