<svg width="16" height="13" viewBox="0 0 16 13" fill="none" xmlns="http://www.w3.org/2000/svg">
<path d="M14.5 0.519531H1.5C0.65625 0.519531 0 1.20703 0 2.01953V11.0195C0 11.8633 0.65625 12.5195 1.5 12.5195H14.5C15.3125 12.5195 16 11.8633 16 11.0195V2.01953C16 1.20703 15.3125 0.519531 14.5 0.519531ZM14.5 2.01953V3.30078C13.7812 3.89453 12.6562 4.76953 10.2812 6.64453C9.75 7.05078 8.71875 8.05078 8 8.01953C7.25 8.05078 6.21875 7.05078 5.6875 6.64453C3.3125 4.76953 2.1875 3.89453 1.5 3.30078V2.01953H14.5ZM1.5 11.0195V5.23828C2.1875 5.80078 3.21875 6.61328 4.75 7.83203C5.4375 8.36328 6.65625 9.55078 8 9.51953C9.3125 9.55078 10.5 8.36328 11.2188 7.83203C12.75 6.61328 13.7812 5.80078 14.5 5.23828V11.0195H1.5Z" fill="#999999"/>
</svg>
