<svg width="19" height="15" viewBox="0 0 19 15" fill="none" xmlns="http://www.w3.org/2000/svg">
<path d="M18.2266 13.6016L15.4102 11.3594C16.2578 10.5117 16.9961 9.44531 17.5156 8.24219C17.5703 8.13281 17.5977 7.91406 17.5977 7.77734C17.5977 7.64062 17.5703 7.44922 17.5156 7.3125C16.0391 3.94922 13.0859 1.67969 9.75 1.67969C8.02734 1.67969 6.41406 2.28125 5.07422 3.32031L2.03906 0.914062C1.92969 0.804688 1.79297 0.75 1.65625 0.75C1.4375 0.75 1.24609 0.859375 1.13672 1.02344C0.890625 1.29688 0.945312 1.70703 1.24609 1.92578L17.4062 14.5859C17.6797 14.832 18.0898 14.7773 18.3086 14.4766C18.582 14.2305 18.5273 13.8203 18.2266 13.6016ZM11.7734 8.51562L9.53125 6.79297C9.64062 6.54688 9.72266 6.30078 9.72266 6C9.72266 5.86328 9.69531 5.72656 9.64062 5.58984C9.69531 5.58984 9.72266 5.5625 9.75 5.5625C10.9531 5.5625 11.9375 6.54688 11.9375 7.77734C11.9375 8.02344 11.8555 8.29688 11.7734 8.51562ZM12.8398 9.36328C13.0859 8.87109 13.25 8.35156 13.25 7.77734C13.25 5.83594 11.6641 4.25 9.75 4.25C8.84766 4.25 8.05469 4.60547 7.45312 5.125L6.14062 4.11328C7.23438 3.375 8.46484 2.9375 9.75 2.9375C12.457 2.9375 14.9727 4.79688 16.2852 7.75C15.793 8.84375 15.1367 9.77344 14.3438 10.5117L12.8398 9.36328ZM9.75 11.25C10.1055 11.25 10.4609 11.1953 10.7891 11.0859L9.25781 9.88281C8.62891 9.74609 8.08203 9.30859 7.78125 8.73438L6.25 7.53125C6.25 7.61328 6.25 7.69531 6.25 7.75C6.25 9.69141 7.80859 11.25 9.75 11.25ZM9.75 12.5625C7.01562 12.5625 4.5 10.7305 3.1875 7.77734C3.48828 7.12109 3.84375 6.51953 4.25391 6L3.21484 5.15234C2.72266 5.80859 2.3125 6.51953 1.95703 7.28516C1.90234 7.42188 1.84766 7.61328 1.84766 7.75C1.84766 7.88672 1.875 8.10547 1.92969 8.24219C3.40625 11.6055 6.35938 13.875 9.72266 13.875C10.9531 13.875 12.1289 13.5469 13.2227 12.9727L12.0469 12.0703C11.3359 12.3984 10.543 12.5625 9.75 12.5625Z" fill="#757575"/>
</svg>
