<svg width="37" height="38" viewBox="0 0 37 38" fill="none" xmlns="http://www.w3.org/2000/svg">
<path d="M23.7031 17.9561C22.4375 17.9561 21.3828 16.9717 21.3828 15.7061C21.3828 14.5107 22.4375 13.4561 23.7031 13.4561C24.8984 13.4561 25.8828 14.5107 25.8828 15.7061C25.8828 16.9717 24.8984 17.9561 23.7031 17.9561ZM12.3828 17.9561C11.1875 17.9561 10.1328 16.9717 10.1328 15.7061C10.1328 14.5107 11.1172 13.4561 12.3828 13.4561C13.5781 13.4561 14.6328 14.5107 14.6328 15.7061C14.6328 16.9717 13.5781 17.9561 12.3828 17.9561ZM23.9844 23.0889C24.5469 22.3857 25.6016 22.3154 26.3047 22.8779C27.0781 23.5107 27.1484 24.5654 26.5156 25.2686C24.4062 27.7998 21.3125 29.2764 18.0781 29.2764C14.7734 29.2764 11.6797 27.7998 9.57031 25.2686C8.9375 24.5654 9.07812 23.4404 9.78125 22.8779C10.4844 22.3154 11.5391 22.3857 12.1016 23.0889C13.5781 24.8467 15.7578 25.8311 18.0781 25.8311C20.3281 25.8311 22.5078 24.8467 23.9844 23.0889ZM18.0781 1.08105C27.9922 1.08105 36.0781 9.16699 36.0781 19.0811C36.0781 29.0654 27.9922 37.0811 18.0781 37.0811C8.09375 37.0811 0.078125 29.0654 0.078125 19.0811C0.078125 9.16699 8.09375 1.08105 18.0781 1.08105ZM18.0781 33.7061C26.0938 33.7061 32.7031 27.167 32.7031 19.0811C32.7031 11.0654 26.0938 4.45605 18.0781 4.45605C9.99219 4.45605 3.45312 11.0654 3.45312 19.0811C3.45312 27.167 9.99219 33.7061 18.0781 33.7061Z" fill="#2E7300"/>
</svg>
