<svg width="48" height="48" viewBox="0 0 48 48" fill="none" xmlns="http://www.w3.org/2000/svg">
<path d="M2.46857 13.1657V7.81714C2.46857 4.79596 4.79596 2.46857 7.81714 2.46857H13.1657C13.8474 2.46857 14.4 1.91596 14.4 1.23429C14.4 0.552609 13.8474 0 13.1657 0H7.81714C3.43261 0 0 3.43261 0 7.81714V13.1657C0 13.8474 0.552609 14.4 1.23429 14.4C1.91596 14.4 2.46857 13.8474 2.46857 13.1657Z" fill="#407F06"/>
<path d="M45.5314 13.1657V7.81714C45.5314 4.79596 43.204 2.46857 40.1829 2.46857H34.8343C34.1526 2.46857 33.6 1.91596 33.6 1.23429C33.6 0.552609 34.1526 0 34.8343 0H40.1829C44.5674 0 48 3.43261 48 7.81714V13.1657C48 13.8474 47.4474 14.4 46.7657 14.4C46.084 14.4 45.5314 13.8474 45.5314 13.1657Z" fill="#407F06"/>
<path d="M2.46857 34.8343V40.1829C2.46857 43.204 4.79596 45.5314 7.81714 45.5314H13.1657C13.8474 45.5314 14.4 46.084 14.4 46.7657C14.4 47.4474 13.8474 48 13.1657 48H7.81714C3.43261 48 0 44.5674 0 40.1829V34.8343C0 34.1526 0.552609 33.6 1.23429 33.6C1.91596 33.6 2.46857 34.1526 2.46857 34.8343Z" fill="#407F06"/>
<path d="M45.5314 34.8343V40.1829C45.5314 43.204 43.204 45.5314 40.1829 45.5314H34.8343C34.1526 45.5314 33.6 46.084 33.6 46.7657C33.6 47.4474 34.1526 48 34.8343 48H40.1829C44.5674 48 48 44.5674 48 40.1829V34.8343C48 34.1526 47.4474 33.6 46.7657 33.6C46.084 33.6 45.5314 34.1526 45.5314 34.8343Z" fill="#407F06"/>
<path d="M13.0527 18.1304V21.561C13.0527 22.271 13.59 22.8467 14.2527 22.8467C14.9155 22.8467 15.4527 22.271 15.4527 21.561V18.1304C15.4527 17.4204 14.9155 16.8447 14.2527 16.8447C13.59 16.8447 13.0527 17.4204 13.0527 18.1304Z" fill="#407F06"/>
<path d="M32.8438 18.1304V21.561C32.8438 22.271 33.381 22.8467 34.0438 22.8467C34.7065 22.8467 35.2438 22.271 35.2438 21.561V18.1304C35.2438 17.4204 34.7065 16.8447 34.0438 16.8447C33.381 16.8447 32.8438 17.4204 32.8438 18.1304Z" fill="#407F06"/>
<path d="M15.5595 35.4503C17.9002 37.6349 20.735 38.7374 24.0003 38.7374C27.2656 38.7374 30.1004 37.6349 32.4411 35.4503C32.9511 34.9743 32.9787 34.175 32.5027 33.665C32.0267 33.155 31.2274 33.1274 30.7174 33.6034C28.8475 35.3486 26.6298 36.211 24.0003 36.211C21.3709 36.211 19.1531 35.3486 17.2832 33.6034C16.7732 33.1274 15.9739 33.155 15.4979 33.665C15.0219 34.175 15.0495 34.9743 15.5595 35.4503Z" fill="#407F06"/>
<path d="M24.0001 18.1059V26.948C24.0001 27.5139 23.7235 27.7901 23.1549 27.7901H22.3159C21.6183 27.7901 21.0527 28.3557 21.0527 29.0533C21.0527 29.7509 21.6183 30.3165 22.3159 30.3165H23.1549C25.1181 30.3165 26.5264 28.9098 26.5264 26.948V18.1059C26.5264 17.4083 25.9609 16.8428 25.2633 16.8428C24.5656 16.8428 24.0001 17.4083 24.0001 18.1059Z" fill="#407F06"/>
</svg>