<svg width="37" height="37" viewBox="0 0 37 37" fill="none" xmlns="http://www.w3.org/2000/svg">
<path d="M23.7031 17.707C22.4375 17.707 21.3828 16.7227 21.3828 15.457C21.3828 14.2617 22.4375 13.207 23.7031 13.207C24.8984 13.207 25.8828 14.2617 25.8828 15.457C25.8828 16.7227 24.8984 17.707 23.7031 17.707ZM12.3828 17.707C11.1875 17.707 10.1328 16.7227 10.1328 15.457C10.1328 14.2617 11.1172 13.207 12.3828 13.207C13.5781 13.207 14.6328 14.2617 14.6328 15.457C14.6328 16.7227 13.5781 17.707 12.3828 17.707ZM23.9844 22.8398C24.5469 22.1367 25.6016 22.0664 26.3047 22.6289C27.0781 23.2617 27.1484 24.3164 26.5156 25.0195C24.4062 27.5508 21.3125 29.0273 18.0781 29.0273C14.7734 29.0273 11.6797 27.5508 9.57031 25.0195C8.9375 24.3164 9.07812 23.1914 9.78125 22.6289C10.4844 22.0664 11.5391 22.1367 12.1016 22.8398C13.5781 24.5977 15.7578 25.582 18.0781 25.582C20.3281 25.582 22.5078 24.5977 23.9844 22.8398ZM18.0781 0.832031C27.9922 0.832031 36.0781 8.91797 36.0781 18.832C36.0781 28.8164 27.9922 36.832 18.0781 36.832C8.09375 36.832 0.078125 28.8164 0.078125 18.832C0.078125 8.91797 8.09375 0.832031 18.0781 0.832031ZM18.0781 33.457C26.0938 33.457 32.7031 26.918 32.7031 18.832C32.7031 10.8164 26.0938 4.20703 18.0781 4.20703C9.99219 4.20703 3.45312 10.8164 3.45312 18.832C3.45312 26.918 9.99219 33.457 18.0781 33.457Z" fill="#2E7300"/>
</svg>
