<svg width="317" height="125" viewBox="0 0 317 125" fill="none" xmlns="http://www.w3.org/2000/svg">
<path d="M5.064 10H3.902V1.698H0.948V0.661999H8.032V1.698H5.064V10ZM15.1624 10H14.1124V5.548C14.1124 4.358 13.4964 4.008 12.5864 4.008C11.7744 4.008 10.9904 4.512 10.5844 5.058V10H9.53438V0.661999H10.5844V4.218C11.0604 3.658 11.9844 3.07 13.0064 3.07C14.4204 3.07 15.1624 3.756 15.1624 5.226V10ZM17.777 2.272C17.399 2.272 17.077 1.964 17.077 1.572C17.077 1.18 17.399 0.857999 17.777 0.857999C18.169 0.857999 18.491 1.18 18.491 1.572C18.491 1.964 18.169 2.272 17.777 2.272ZM18.309 10H17.259V3.238H18.309V10ZM22.5455 10.168C21.4395 10.168 20.5015 9.832 19.8155 9.104L20.3615 8.348C20.8095 8.866 21.6635 9.314 22.5875 9.314C23.6235 9.314 24.1835 8.824 24.1835 8.152C24.1835 6.514 19.9975 7.522 19.9975 5.016C19.9975 3.966 20.9075 3.07 22.5175 3.07C23.6655 3.07 24.4775 3.504 25.0235 4.05L24.5335 4.778C24.1275 4.288 23.3855 3.924 22.5175 3.924C21.5935 3.924 21.0195 4.386 21.0195 4.988C21.0195 6.472 25.2055 5.492 25.2055 8.124C25.2055 9.258 24.2955 10.168 22.5455 10.168ZM33.5727 10.168C31.5707 10.168 30.1287 8.726 30.1287 6.612C30.1287 4.652 31.5287 3.07 33.4607 3.07C35.5047 3.07 36.7087 4.666 36.7087 6.696V6.962H31.2347C31.3187 8.236 32.2147 9.3 33.6707 9.3C34.4407 9.3 35.2247 8.992 35.7567 8.446L36.2607 9.132C35.5887 9.804 34.6787 10.168 33.5727 10.168ZM35.6727 6.192C35.6587 5.184 34.9867 3.938 33.4467 3.938C32.0047 3.938 31.2907 5.156 31.2347 6.192H35.6727ZM40.5514 10.168C39.4454 10.168 38.5074 9.832 37.8214 9.104L38.3674 8.348C38.8154 8.866 39.6694 9.314 40.5934 9.314C41.6294 9.314 42.1894 8.824 42.1894 8.152C42.1894 6.514 38.0034 7.522 38.0034 5.016C38.0034 3.966 38.9134 3.07 40.5234 3.07C41.6714 3.07 42.4834 3.504 43.0294 4.05L42.5394 4.778C42.1334 4.288 41.3914 3.924 40.5234 3.924C39.5994 3.924 39.0254 4.386 39.0254 4.988C39.0254 6.472 43.2114 5.492 43.2114 8.124C43.2114 9.258 42.3014 10.168 40.5514 10.168ZM46.6252 10.168C45.6312 10.168 45.1272 9.594 45.1272 8.586V4.162H44.0072V3.238H45.1272V1.39H46.1772V3.238H47.5492V4.162H46.1772V8.362C46.1772 8.866 46.4012 9.23 46.8632 9.23C47.1572 9.23 47.4372 9.104 47.5772 8.95L47.8852 9.734C47.6192 9.986 47.2412 10.168 46.6252 10.168ZM49.5504 2.272C49.1724 2.272 48.8504 1.964 48.8504 1.572C48.8504 1.18 49.1724 0.857999 49.5504 0.857999C49.9424 0.857999 50.2644 1.18 50.2644 1.572C50.2644 1.964 49.9424 2.272 49.5504 2.272ZM50.0824 10H49.0324V3.238H50.0824V10ZM61.389 10H60.339V5.408C60.339 4.554 59.961 4.008 59.093 4.008C58.393 4.008 57.651 4.512 57.301 5.044V10H56.251V5.408C56.251 4.554 55.887 4.008 55.005 4.008C54.319 4.008 53.591 4.512 53.227 5.058V10H52.177V3.238H53.227V4.218C53.507 3.784 54.417 3.07 55.411 3.07C56.447 3.07 57.035 3.63 57.231 4.33C57.609 3.714 58.519 3.07 59.499 3.07C60.731 3.07 61.389 3.756 61.389 5.114V10ZM68.7616 10H67.7116V9.23C67.1516 9.846 66.3816 10.168 65.4716 10.168C64.3236 10.168 63.1056 9.398 63.1056 7.928C63.1056 6.416 64.3236 5.702 65.4716 5.702C66.3956 5.702 67.1656 5.996 67.7116 6.626V5.408C67.7116 4.498 66.9836 3.98 66.0036 3.98C65.1916 3.98 64.5336 4.274 63.9316 4.918L63.4416 4.19C64.1696 3.434 65.0376 3.07 66.1436 3.07C67.5716 3.07 68.7616 3.714 68.7616 5.352V10ZM65.8496 9.412C66.5916 9.412 67.3056 9.132 67.7116 8.572V7.298C67.3056 6.738 66.5916 6.458 65.8496 6.458C64.8696 6.458 64.1836 7.074 64.1836 7.942C64.1836 8.796 64.8696 9.412 65.8496 9.412ZM72.5744 10.168C71.5804 10.168 71.0764 9.594 71.0764 8.586V4.162H69.9564V3.238H71.0764V1.39H72.1264V3.238H73.4984V4.162H72.1264V8.362C72.1264 8.866 72.3504 9.23 72.8124 9.23C73.1064 9.23 73.3864 9.104 73.5264 8.95L73.8344 9.734C73.5684 9.986 73.1904 10.168 72.5744 10.168ZM78.0336 10.168C76.0316 10.168 74.5896 8.726 74.5896 6.612C74.5896 4.652 75.9896 3.07 77.9216 3.07C79.9656 3.07 81.1696 4.666 81.1696 6.696V6.962H75.6956C75.7796 8.236 76.6756 9.3 78.1316 9.3C78.9016 9.3 79.6856 8.992 80.2176 8.446L80.7216 9.132C80.0496 9.804 79.1396 10.168 78.0336 10.168ZM80.1336 6.192C80.1196 5.184 79.4476 3.938 77.9076 3.938C76.4656 3.938 75.7516 5.156 75.6956 6.192H80.1336ZM89.4617 10.168C87.4457 10.168 86.0877 8.628 86.0877 6.612C86.0877 4.61 87.4457 3.07 89.4617 3.07C90.6937 3.07 91.4217 3.574 91.9397 4.246L91.2397 4.89C90.7917 4.274 90.2177 4.008 89.5177 4.008C88.0757 4.008 87.1797 5.114 87.1797 6.612C87.1797 8.11 88.0757 9.23 89.5177 9.23C90.2177 9.23 90.7917 8.95 91.2397 8.348L91.9397 8.992C91.4217 9.664 90.6937 10.168 89.4617 10.168ZM98.6893 10H97.6393V9.23C97.0793 9.846 96.3093 10.168 95.3993 10.168C94.2513 10.168 93.0333 9.398 93.0333 7.928C93.0333 6.416 94.2513 5.702 95.3993 5.702C96.3233 5.702 97.0933 5.996 97.6393 6.626V5.408C97.6393 4.498 96.9113 3.98 95.9313 3.98C95.1193 3.98 94.4613 4.274 93.8593 4.918L93.3693 4.19C94.0973 3.434 94.9653 3.07 96.0713 3.07C97.4993 3.07 98.6893 3.714 98.6893 5.352V10ZM95.7773 9.412C96.5193 9.412 97.2333 9.132 97.6393 8.572V7.298C97.2333 6.738 96.5193 6.458 95.7773 6.458C94.7973 6.458 94.1113 7.074 94.1113 7.942C94.1113 8.796 94.7973 9.412 95.7773 9.412ZM106.408 10H105.358V5.576C105.358 4.386 104.756 4.008 103.846 4.008C103.02 4.008 102.236 4.512 101.844 5.058V10H100.794V3.238H101.844V4.218C102.32 3.658 103.244 3.07 104.252 3.07C105.666 3.07 106.408 3.784 106.408 5.254V10ZM113.164 8.166C113.528 8.754 114.354 9.23 115.18 9.23C116.552 9.23 117.364 8.124 117.364 6.626C117.364 5.128 116.552 4.008 115.18 4.008C114.354 4.008 113.528 4.512 113.164 5.1V8.166ZM113.164 10H112.114V0.661999H113.164V4.26C113.71 3.518 114.522 3.07 115.446 3.07C117.21 3.07 118.456 4.47 118.456 6.626C118.456 8.824 117.21 10.168 115.446 10.168C114.494 10.168 113.668 9.678 113.164 8.992V10ZM123.219 10.168C121.217 10.168 119.775 8.726 119.775 6.612C119.775 4.652 121.175 3.07 123.107 3.07C125.151 3.07 126.355 4.666 126.355 6.696V6.962H120.881C120.965 8.236 121.861 9.3 123.317 9.3C124.087 9.3 124.871 8.992 125.403 8.446L125.907 9.132C125.235 9.804 124.325 10.168 123.219 10.168ZM125.319 6.192C125.305 5.184 124.633 3.938 123.093 3.938C121.651 3.938 120.937 5.156 120.881 6.192H125.319ZM137.279 10H136.229V9.048C135.711 9.636 134.829 10.168 133.821 10.168C132.407 10.168 131.665 9.482 131.665 8.012V3.238H132.715V7.69C132.715 8.88 133.317 9.23 134.227 9.23C135.053 9.23 135.837 8.754 136.229 8.208V3.238H137.279V10ZM141.518 10.168C140.412 10.168 139.474 9.832 138.788 9.104L139.334 8.348C139.782 8.866 140.636 9.314 141.56 9.314C142.596 9.314 143.156 8.824 143.156 8.152C143.156 6.514 138.97 7.522 138.97 5.016C138.97 3.966 139.88 3.07 141.49 3.07C142.638 3.07 143.45 3.504 143.996 4.05L143.506 4.778C143.1 4.288 142.358 3.924 141.49 3.924C140.566 3.924 139.992 4.386 139.992 4.988C139.992 6.472 144.178 5.492 144.178 8.124C144.178 9.258 143.268 10.168 141.518 10.168ZM148.936 10.168C146.934 10.168 145.492 8.726 145.492 6.612C145.492 4.652 146.892 3.07 148.824 3.07C150.868 3.07 152.072 4.666 152.072 6.696V6.962H146.598C146.682 8.236 147.578 9.3 149.034 9.3C149.804 9.3 150.588 8.992 151.12 8.446L151.624 9.132C150.952 9.804 150.042 10.168 148.936 10.168ZM151.036 6.192C151.022 5.184 150.35 3.938 148.81 3.938C147.368 3.938 146.654 5.156 146.598 6.192H151.036ZM159.723 10H158.673V8.992C158.169 9.678 157.343 10.168 156.391 10.168C154.627 10.168 153.381 8.824 153.381 6.626C153.381 4.47 154.613 3.07 156.391 3.07C157.301 3.07 158.127 3.518 158.673 4.26V0.661999H159.723V10ZM156.643 9.23C157.483 9.23 158.295 8.754 158.673 8.166V5.1C158.295 4.512 157.483 4.008 156.643 4.008C155.285 4.008 154.473 5.128 154.473 6.626C154.473 8.124 155.285 9.23 156.643 9.23ZM170.713 10H169.663V9.23C169.103 9.846 168.333 10.168 167.423 10.168C166.275 10.168 165.057 9.398 165.057 7.928C165.057 6.416 166.275 5.702 167.423 5.702C168.347 5.702 169.117 5.996 169.663 6.626V5.408C169.663 4.498 168.935 3.98 167.955 3.98C167.143 3.98 166.485 4.274 165.883 4.918L165.393 4.19C166.121 3.434 166.989 3.07 168.095 3.07C169.523 3.07 170.713 3.714 170.713 5.352V10ZM167.801 9.412C168.543 9.412 169.257 9.132 169.663 8.572V7.298C169.257 6.738 168.543 6.458 167.801 6.458C166.821 6.458 166.135 7.074 166.135 7.942C166.135 8.796 166.821 9.412 167.801 9.412ZM174.96 10.168C173.854 10.168 172.916 9.832 172.23 9.104L172.776 8.348C173.224 8.866 174.078 9.314 175.002 9.314C176.038 9.314 176.598 8.824 176.598 8.152C176.598 6.514 172.412 7.522 172.412 5.016C172.412 3.966 173.322 3.07 174.932 3.07C176.08 3.07 176.892 3.504 177.438 4.05L176.948 4.778C176.542 4.288 175.8 3.924 174.932 3.924C174.008 3.924 173.434 4.386 173.434 4.988C173.434 6.472 177.62 5.492 177.62 8.124C177.62 9.258 176.71 10.168 174.96 10.168ZM188.213 10H187.163V9.23C186.603 9.846 185.833 10.168 184.923 10.168C183.775 10.168 182.557 9.398 182.557 7.928C182.557 6.416 183.775 5.702 184.923 5.702C185.847 5.702 186.617 5.996 187.163 6.626V5.408C187.163 4.498 186.435 3.98 185.455 3.98C184.643 3.98 183.985 4.274 183.383 4.918L182.893 4.19C183.621 3.434 184.489 3.07 185.595 3.07C187.023 3.07 188.213 3.714 188.213 5.352V10ZM185.301 9.412C186.043 9.412 186.757 9.132 187.163 8.572V7.298C186.757 6.738 186.043 6.458 185.301 6.458C184.321 6.458 183.635 7.074 183.635 7.942C183.635 8.796 184.321 9.412 185.301 9.412ZM195.932 10H194.882V5.576C194.882 4.386 194.28 4.008 193.37 4.008C192.544 4.008 191.76 4.512 191.368 5.058V10H190.318V3.238H191.368V4.218C191.844 3.658 192.768 3.07 193.776 3.07C195.19 3.07 195.932 3.784 195.932 5.254V10ZM202.156 2.272C201.778 2.272 201.456 1.964 201.456 1.572C201.456 1.18 201.778 0.857999 202.156 0.857999C202.548 0.857999 202.87 1.18 202.87 1.572C202.87 1.964 202.548 2.272 202.156 2.272ZM202.688 10H201.638V3.238H202.688V10ZM210.396 10H209.346V5.576C209.346 4.386 208.744 4.008 207.834 4.008C207.008 4.008 206.224 4.512 205.832 5.058V10H204.782V3.238H205.832V4.218C206.308 3.658 207.232 3.07 208.24 3.07C209.654 3.07 210.396 3.784 210.396 5.254V10ZM218.443 10H217.393V8.992C216.889 9.678 216.063 10.168 215.111 10.168C213.347 10.168 212.101 8.824 212.101 6.626C212.101 4.47 213.333 3.07 215.111 3.07C216.021 3.07 216.847 3.518 217.393 4.26V0.661999H218.443V10ZM215.363 9.23C216.203 9.23 217.015 8.754 217.393 8.166V5.1C217.015 4.512 216.203 4.008 215.363 4.008C214.005 4.008 213.193 5.128 213.193 6.626C213.193 8.124 214.005 9.23 215.363 9.23ZM221.064 2.272C220.686 2.272 220.364 1.964 220.364 1.572C220.364 1.18 220.686 0.857999 221.064 0.857999C221.456 0.857999 221.778 1.18 221.778 1.572C221.778 1.964 221.456 2.272 221.064 2.272ZM221.596 10H220.546V3.238H221.596V10ZM226.673 10.168C224.657 10.168 223.299 8.628 223.299 6.612C223.299 4.61 224.657 3.07 226.673 3.07C227.905 3.07 228.633 3.574 229.151 4.246L228.451 4.89C228.003 4.274 227.429 4.008 226.729 4.008C225.287 4.008 224.391 5.114 224.391 6.612C224.391 8.11 225.287 9.23 226.729 9.23C227.429 9.23 228.003 8.95 228.451 8.348L229.151 8.992C228.633 9.664 227.905 10.168 226.673 10.168ZM235.9 10H234.85V9.23C234.29 9.846 233.52 10.168 232.61 10.168C231.462 10.168 230.244 9.398 230.244 7.928C230.244 6.416 231.462 5.702 232.61 5.702C233.534 5.702 234.304 5.996 234.85 6.626V5.408C234.85 4.498 234.122 3.98 233.142 3.98C232.33 3.98 231.672 4.274 231.07 4.918L230.58 4.19C231.308 3.434 232.176 3.07 233.282 3.07C234.71 3.07 235.9 3.714 235.9 5.352V10ZM232.988 9.412C233.73 9.412 234.444 9.132 234.85 8.572V7.298C234.444 6.738 233.73 6.458 232.988 6.458C232.008 6.458 231.322 7.074 231.322 7.942C231.322 8.796 232.008 9.412 232.988 9.412ZM239.713 10.168C238.719 10.168 238.215 9.594 238.215 8.586V4.162H237.095V3.238H238.215V1.39H239.265V3.238H240.637V4.162H239.265V8.362C239.265 8.866 239.489 9.23 239.951 9.23C240.245 9.23 240.525 9.104 240.665 8.95L240.973 9.734C240.707 9.986 240.329 10.168 239.713 10.168ZM245.074 10.168C243.016 10.168 241.728 8.572 241.728 6.612C241.728 4.652 243.016 3.07 245.074 3.07C247.132 3.07 248.42 4.652 248.42 6.612C248.42 8.572 247.132 10.168 245.074 10.168ZM245.074 9.23C246.516 9.23 247.314 7.998 247.314 6.612C247.314 5.24 246.516 4.008 245.074 4.008C243.632 4.008 242.82 5.24 242.82 6.612C242.82 7.998 243.632 9.23 245.074 9.23ZM251.182 10H250.132V3.238H251.182V4.33C251.728 3.616 252.512 3.098 253.436 3.098V4.176C253.31 4.148 253.184 4.134 253.016 4.134C252.372 4.134 251.49 4.666 251.182 5.212V10ZM259.707 10H258.657V4.162H257.537V3.238H258.657V2.72C258.657 1.334 259.413 0.521999 260.617 0.521999C261.149 0.521999 261.625 0.647999 262.045 1.04L261.611 1.726C261.387 1.53 261.121 1.39 260.771 1.39C260.085 1.39 259.707 1.866 259.707 2.72V3.238H261.079V4.162H259.707V10ZM265.281 10.168C263.223 10.168 261.935 8.572 261.935 6.612C261.935 4.652 263.223 3.07 265.281 3.07C267.339 3.07 268.627 4.652 268.627 6.612C268.627 8.572 267.339 10.168 265.281 10.168ZM265.281 9.23C266.723 9.23 267.521 7.998 267.521 6.612C267.521 5.24 266.723 4.008 265.281 4.008C263.839 4.008 263.027 5.24 263.027 6.612C263.027 7.998 263.839 9.23 265.281 9.23ZM271.389 10H270.339V3.238H271.389V4.33C271.935 3.616 272.719 3.098 273.643 3.098V4.176C273.517 4.148 273.391 4.134 273.223 4.134C272.579 4.134 271.697 4.666 271.389 5.212V10ZM3.692 26.168C2.586 26.168 1.648 25.832 0.962 25.104L1.508 24.348C1.956 24.866 2.81 25.314 3.734 25.314C4.77 25.314 5.33 24.824 5.33 24.152C5.33 22.514 1.144 23.522 1.144 21.016C1.144 19.966 2.054 19.07 3.664 19.07C4.812 19.07 5.624 19.504 6.17 20.05L5.68 20.778C5.274 20.288 4.532 19.924 3.664 19.924C2.74 19.924 2.166 20.386 2.166 20.988C2.166 22.472 6.352 21.492 6.352 24.124C6.352 25.258 5.442 26.168 3.692 26.168ZM13.6718 26H12.6218V25.048C12.1038 25.636 11.2218 26.168 10.2138 26.168C8.79981 26.168 8.05781 25.482 8.05781 24.012V19.238H9.10781V23.69C9.10781 24.88 9.70981 25.23 10.6198 25.23C11.4458 25.23 12.2298 24.754 12.6218 24.208V19.238H13.6718V26ZM16.8188 24.166C17.1828 24.754 18.0088 25.23 18.8347 25.23C20.2068 25.23 21.0188 24.124 21.0188 22.626C21.0188 21.128 20.2068 20.008 18.8347 20.008C18.0088 20.008 17.1828 20.512 16.8188 21.1V24.166ZM16.8188 26H15.7688V16.662H16.8188V20.26C17.3648 19.518 18.1768 19.07 19.1008 19.07C20.8648 19.07 22.1107 20.47 22.1107 22.626C22.1107 24.824 20.8648 26.168 19.1008 26.168C18.1488 26.168 17.3228 25.678 16.8188 24.992V26ZM24.3395 18.272C23.9615 18.272 23.6395 17.964 23.6395 17.572C23.6395 17.18 23.9615 16.858 24.3395 16.858C24.7315 16.858 25.0535 17.18 25.0535 17.572C25.0535 17.964 24.7315 18.272 24.3395 18.272ZM22.8695 28.744C22.1835 28.744 21.8195 28.576 21.3855 28.24L21.7635 27.442C22.0015 27.68 22.3095 27.876 22.7295 27.876C23.3595 27.876 23.8215 27.512 23.8215 26.658V19.238H24.8715V26.658C24.8715 27.988 24.1575 28.744 22.8695 28.744ZM30.018 26.168C28.016 26.168 26.574 24.726 26.574 22.612C26.574 20.652 27.974 19.07 29.906 19.07C31.95 19.07 33.154 20.666 33.154 22.696V22.962H27.68C27.764 24.236 28.66 25.3 30.116 25.3C30.886 25.3 31.67 24.992 32.202 24.446L32.706 25.132C32.034 25.804 31.124 26.168 30.018 26.168ZM32.118 22.192C32.104 21.184 31.432 19.938 29.892 19.938C28.45 19.938 27.736 21.156 27.68 22.192H32.118ZM37.8367 26.168C35.8207 26.168 34.4627 24.628 34.4627 22.612C34.4627 20.61 35.8207 19.07 37.8367 19.07C39.0687 19.07 39.7967 19.574 40.3147 20.246L39.6147 20.89C39.1667 20.274 38.5927 20.008 37.8927 20.008C36.4507 20.008 35.5547 21.114 35.5547 22.612C35.5547 24.11 36.4507 25.23 37.8927 25.23C38.5927 25.23 39.1667 24.95 39.6147 24.348L40.3147 24.992C39.7967 25.664 39.0687 26.168 37.8367 26.168ZM43.4943 26.168C42.5003 26.168 41.9963 25.594 41.9963 24.586V20.162H40.8763V19.238H41.9963V17.39H43.0463V19.238H44.4183V20.162H43.0463V24.362C43.0463 24.866 43.2703 25.23 43.7323 25.23C44.0263 25.23 44.3063 25.104 44.4463 24.95L44.7543 25.734C44.4883 25.986 44.1103 26.168 43.4943 26.168ZM46.5036 20.232H45.9856C45.9856 20.232 45.6076 17.362 45.6076 17.166C45.6076 16.816 45.8876 16.522 46.2376 16.522C46.6016 16.522 46.8816 16.816 46.8816 17.166C46.8816 17.362 46.5036 20.232 46.5036 20.232ZM50.4088 26.168C49.3028 26.168 48.3648 25.832 47.6788 25.104L48.2248 24.348C48.6728 24.866 49.5268 25.314 50.4508 25.314C51.4868 25.314 52.0468 24.824 52.0468 24.152C52.0468 22.514 47.8608 23.522 47.8608 21.016C47.8608 19.966 48.7708 19.07 50.3808 19.07C51.5288 19.07 52.3408 19.504 52.8868 20.05L52.3968 20.778C51.9908 20.288 51.2488 19.924 50.3808 19.924C49.4568 19.924 48.8828 20.386 48.8828 20.988C48.8828 22.472 53.0688 21.492 53.0688 24.124C53.0688 25.258 52.1588 26.168 50.4088 26.168ZM59.728 26H58.678V20.162H57.558V19.238H58.678V18.72C58.678 17.334 59.434 16.522 60.638 16.522C61.17 16.522 61.646 16.648 62.066 17.04L61.632 17.726C61.408 17.53 61.142 17.39 60.792 17.39C60.106 17.39 59.728 17.866 59.728 18.72V19.238H61.1V20.162H59.728V26ZM67.6268 26H66.5768V25.23C66.0168 25.846 65.2468 26.168 64.3368 26.168C63.1888 26.168 61.9708 25.398 61.9708 23.928C61.9708 22.416 63.1888 21.702 64.3368 21.702C65.2608 21.702 66.0308 21.996 66.5768 22.626V21.408C66.5768 20.498 65.8488 19.98 64.8688 19.98C64.0568 19.98 63.3988 20.274 62.7968 20.918L62.3068 20.19C63.0348 19.434 63.9028 19.07 65.0088 19.07C66.4368 19.07 67.6268 19.714 67.6268 21.352V26ZM64.7148 25.412C65.4568 25.412 66.1708 25.132 66.5768 24.572V23.298C66.1708 22.738 65.4568 22.458 64.7148 22.458C63.7348 22.458 63.0488 23.074 63.0488 23.942C63.0488 24.796 63.7348 25.412 64.7148 25.412ZM72.7136 26.168C70.6976 26.168 69.3396 24.628 69.3396 22.612C69.3396 20.61 70.6976 19.07 72.7136 19.07C73.9456 19.07 74.6736 19.574 75.1916 20.246L74.4916 20.89C74.0436 20.274 73.4696 20.008 72.7696 20.008C71.3276 20.008 70.4316 21.114 70.4316 22.612C70.4316 24.11 71.3276 25.23 72.7696 25.23C73.4696 25.23 74.0436 24.95 74.4916 24.348L75.1916 24.992C74.6736 25.664 73.9456 26.168 72.7136 26.168ZM77.1813 18.272C76.8033 18.272 76.4813 17.964 76.4813 17.572C76.4813 17.18 76.8033 16.858 77.1813 16.858C77.5733 16.858 77.8953 17.18 77.8953 17.572C77.8953 17.964 77.5733 18.272 77.1813 18.272ZM77.7133 26H76.6633V19.238H77.7133V26ZM85.0858 26H84.0358V25.23C83.4758 25.846 82.7058 26.168 81.7958 26.168C80.6478 26.168 79.4298 25.398 79.4298 23.928C79.4298 22.416 80.6478 21.702 81.7958 21.702C82.7198 21.702 83.4898 21.996 84.0358 22.626V21.408C84.0358 20.498 83.3078 19.98 82.3278 19.98C81.5158 19.98 80.8578 20.274 80.2558 20.918L79.7658 20.19C80.4938 19.434 81.3618 19.07 82.4678 19.07C83.8958 19.07 85.0858 19.714 85.0858 21.352V26ZM82.1738 25.412C82.9158 25.412 83.6298 25.132 84.0358 24.572V23.298C83.6298 22.738 82.9158 22.458 82.1738 22.458C81.1938 22.458 80.5078 23.074 80.5078 23.942C80.5078 24.796 81.1938 25.412 82.1738 25.412ZM88.2406 26H87.1906V16.662H88.2406V26ZM96.0865 26.168C94.9805 26.168 94.0425 25.832 93.3565 25.104L93.9025 24.348C94.3505 24.866 95.2045 25.314 96.1285 25.314C97.1645 25.314 97.7245 24.824 97.7245 24.152C97.7245 22.514 93.5385 23.522 93.5385 21.016C93.5385 19.966 94.4485 19.07 96.0585 19.07C97.2065 19.07 98.0185 19.504 98.5645 20.05L98.0745 20.778C97.6685 20.288 96.9265 19.924 96.0585 19.924C95.1345 19.924 94.5605 20.386 94.5605 20.988C94.5605 22.472 98.7465 21.492 98.7465 24.124C98.7465 25.258 97.8365 26.168 96.0865 26.168ZM106.402 26H105.058L102.622 22.962L101.502 24.068V26H100.452V16.662H101.502V22.836L105.058 19.238H106.388L103.392 22.304L106.402 26ZM108.162 18.272C107.784 18.272 107.462 17.964 107.462 17.572C107.462 17.18 107.784 16.858 108.162 16.858C108.554 16.858 108.876 17.18 108.876 17.572C108.876 17.964 108.554 18.272 108.162 18.272ZM108.694 26H107.644V19.238H108.694V26ZM116.402 26H115.352V21.576C115.352 20.386 114.75 20.008 113.84 20.008C113.014 20.008 112.23 20.512 111.838 21.058V26H110.788V19.238H111.838V20.218C112.314 19.658 113.238 19.07 114.246 19.07C115.66 19.07 116.402 19.784 116.402 21.254V26ZM127.387 26H126.337V25.23C125.777 25.846 125.007 26.168 124.097 26.168C122.949 26.168 121.731 25.398 121.731 23.928C121.731 22.416 122.949 21.702 124.097 21.702C125.021 21.702 125.791 21.996 126.337 22.626V21.408C126.337 20.498 125.609 19.98 124.629 19.98C123.817 19.98 123.159 20.274 122.557 20.918L122.067 20.19C122.795 19.434 123.663 19.07 124.769 19.07C126.197 19.07 127.387 19.714 127.387 21.352V26ZM124.475 25.412C125.217 25.412 125.931 25.132 126.337 24.572V23.298C125.931 22.738 125.217 22.458 124.475 22.458C123.495 22.458 122.809 23.074 122.809 23.942C122.809 24.796 123.495 25.412 124.475 25.412ZM132.207 28.744C131.059 28.744 130.275 28.52 129.477 27.736L130.009 26.952C130.569 27.624 131.241 27.876 132.207 27.876C133.327 27.876 134.377 27.33 134.377 25.846V24.88C133.887 25.566 133.061 26.084 132.109 26.084C130.345 26.084 129.099 24.768 129.099 22.584C129.099 20.414 130.331 19.07 132.109 19.07C133.019 19.07 133.831 19.518 134.377 20.26V19.238H135.427V25.804C135.427 28.044 133.859 28.744 132.207 28.744ZM132.361 25.16C133.201 25.16 134.013 24.642 134.377 24.054V21.1C134.013 20.512 133.201 20.008 132.361 20.008C131.003 20.008 130.191 21.086 130.191 22.584C130.191 24.068 131.003 25.16 132.361 25.16ZM138.048 18.272C137.67 18.272 137.348 17.964 137.348 17.572C137.348 17.18 137.67 16.858 138.048 16.858C138.44 16.858 138.762 17.18 138.762 17.572C138.762 17.964 138.44 18.272 138.048 18.272ZM138.58 26H137.53V19.238H138.58V26ZM146.289 26H145.239V21.576C145.239 20.386 144.637 20.008 143.727 20.008C142.901 20.008 142.117 20.512 141.725 21.058V26H140.675V19.238H141.725V20.218C142.201 19.658 143.125 19.07 144.133 19.07C145.547 19.07 146.289 19.784 146.289 21.254V26ZM151.102 28.744C149.954 28.744 149.17 28.52 148.372 27.736L148.904 26.952C149.464 27.624 150.136 27.876 151.102 27.876C152.222 27.876 153.272 27.33 153.272 25.846V24.88C152.782 25.566 151.956 26.084 151.004 26.084C149.24 26.084 147.994 24.768 147.994 22.584C147.994 20.414 149.226 19.07 151.004 19.07C151.914 19.07 152.726 19.518 153.272 20.26V19.238H154.322V25.804C154.322 28.044 152.754 28.744 151.102 28.744ZM151.256 25.16C152.096 25.16 152.908 24.642 153.272 24.054V21.1C152.908 20.512 152.096 20.008 151.256 20.008C149.898 20.008 149.086 21.086 149.086 22.584C149.086 24.068 149.898 25.16 151.256 25.16ZM156.985 26.14C156.565 26.14 156.215 25.79 156.215 25.37C156.215 24.95 156.565 24.6 156.985 24.6C157.405 24.6 157.755 24.95 157.755 25.37C157.755 25.79 157.405 26.14 156.985 26.14ZM164.465 26H163.303V16.662H164.465V26ZM168.319 26.168C167.325 26.168 166.821 25.594 166.821 24.586V20.162H165.701V19.238H166.821V17.39H167.871V19.238H169.243V20.162H167.871V24.362C167.871 24.866 168.095 25.23 168.557 25.23C168.851 25.23 169.131 25.104 169.271 24.95L169.579 25.734C169.313 25.986 168.935 26.168 168.319 26.168ZM183.547 26H182.497V21.408C182.497 20.554 182.119 20.008 181.251 20.008C180.551 20.008 179.809 20.512 179.459 21.044V26H178.409V21.408C178.409 20.554 178.045 20.008 177.163 20.008C176.477 20.008 175.749 20.512 175.385 21.058V26H174.335V19.238H175.385V20.218C175.665 19.784 176.575 19.07 177.569 19.07C178.605 19.07 179.193 19.63 179.389 20.33C179.767 19.714 180.677 19.07 181.657 19.07C182.889 19.07 183.547 19.756 183.547 21.114V26ZM190.92 26H189.87V25.23C189.31 25.846 188.54 26.168 187.63 26.168C186.482 26.168 185.264 25.398 185.264 23.928C185.264 22.416 186.482 21.702 187.63 21.702C188.554 21.702 189.324 21.996 189.87 22.626V21.408C189.87 20.498 189.142 19.98 188.162 19.98C187.35 19.98 186.692 20.274 186.09 20.918L185.6 20.19C186.328 19.434 187.196 19.07 188.302 19.07C189.73 19.07 190.92 19.714 190.92 21.352V26ZM188.008 25.412C188.75 25.412 189.464 25.132 189.87 24.572V23.298C189.464 22.738 188.75 22.458 188.008 22.458C187.028 22.458 186.342 23.074 186.342 23.942C186.342 24.796 187.028 25.412 188.008 25.412ZM192.647 28.646L192.815 27.694C192.969 27.764 193.221 27.806 193.389 27.806C193.851 27.806 194.159 27.652 194.397 27.092L194.845 26.07L192.017 19.238H193.151L195.405 24.782L197.645 19.238H198.793L195.405 27.372C194.999 28.352 194.313 28.73 193.417 28.744C193.193 28.744 192.843 28.702 192.647 28.646ZM204.547 24.166C204.911 24.754 205.737 25.23 206.563 25.23C207.935 25.23 208.747 24.124 208.747 22.626C208.747 21.128 207.935 20.008 206.563 20.008C205.737 20.008 204.911 20.512 204.547 21.1V24.166ZM204.547 26H203.497V16.662H204.547V20.26C205.093 19.518 205.905 19.07 206.829 19.07C208.593 19.07 209.839 20.47 209.839 22.626C209.839 24.824 208.593 26.168 206.829 26.168C205.877 26.168 205.051 25.678 204.547 24.992V26ZM214.602 26.168C212.6 26.168 211.158 24.726 211.158 22.612C211.158 20.652 212.558 19.07 214.49 19.07C216.534 19.07 217.738 20.666 217.738 22.696V22.962H212.264C212.348 24.236 213.244 25.3 214.7 25.3C215.47 25.3 216.254 24.992 216.786 24.446L217.29 25.132C216.618 25.804 215.708 26.168 214.602 26.168ZM216.702 22.192C216.688 21.184 216.016 19.938 214.476 19.938C213.034 19.938 212.32 21.156 212.264 22.192H216.702ZM223.566 18.272C223.188 18.272 222.866 17.964 222.866 17.572C222.866 17.18 223.188 16.858 223.566 16.858C223.958 16.858 224.28 17.18 224.28 17.572C224.28 17.964 223.958 18.272 223.566 18.272ZM224.098 26H223.048V19.238H224.098V26ZM231.807 26H230.757V21.576C230.757 20.386 230.155 20.008 229.245 20.008C228.419 20.008 227.635 20.512 227.243 21.058V26H226.193V19.238H227.243V20.218C227.719 19.658 228.643 19.07 229.651 19.07C231.065 19.07 231.807 19.784 231.807 21.254V26ZM235.248 26H234.198V20.162H233.078V19.238H234.198V18.72C234.198 17.32 234.982 16.522 236.158 16.522C236.55 16.522 236.914 16.592 237.18 16.76L236.914 17.558C236.76 17.46 236.578 17.39 236.312 17.39C235.626 17.39 235.248 17.866 235.248 18.72V19.238H236.62V20.162H235.248V26ZM238.916 26H237.866V16.662H238.916V26ZM246.641 26H245.591V25.048C245.073 25.636 244.191 26.168 243.183 26.168C241.769 26.168 241.027 25.482 241.027 24.012V19.238H242.077V23.69C242.077 24.88 242.679 25.23 243.589 25.23C244.415 25.23 245.199 24.754 245.591 24.208V19.238H246.641V26ZM251.79 26.168C249.788 26.168 248.346 24.726 248.346 22.612C248.346 20.652 249.745 19.07 251.678 19.07C253.722 19.07 254.926 20.666 254.926 22.696V22.962H249.452C249.535 24.236 250.432 25.3 251.888 25.3C252.658 25.3 253.442 24.992 253.974 24.446L254.478 25.132C253.806 25.804 252.896 26.168 251.79 26.168ZM253.89 22.192C253.876 21.184 253.204 19.938 251.664 19.938C250.222 19.938 249.508 21.156 249.452 22.192H253.89ZM262.24 26H261.19V21.576C261.19 20.386 260.588 20.008 259.678 20.008C258.852 20.008 258.068 20.512 257.676 21.058V26H256.626V19.238H257.676V20.218C258.152 19.658 259.076 19.07 260.084 19.07C261.498 19.07 262.24 19.784 262.24 21.254V26ZM267.319 26.168C265.303 26.168 263.945 24.628 263.945 22.612C263.945 20.61 265.303 19.07 267.319 19.07C268.551 19.07 269.279 19.574 269.797 20.246L269.097 20.89C268.649 20.274 268.075 20.008 267.375 20.008C265.933 20.008 265.037 21.114 265.037 22.612C265.037 24.11 265.933 25.23 267.375 25.23C268.075 25.23 268.649 24.95 269.097 24.348L269.797 24.992C269.279 25.664 268.551 26.168 267.319 26.168ZM274.321 26.168C272.319 26.168 270.877 24.726 270.877 22.612C270.877 20.652 272.277 19.07 274.209 19.07C276.253 19.07 277.457 20.666 277.457 22.696V22.962H271.983C272.067 24.236 272.963 25.3 274.419 25.3C275.189 25.3 275.973 24.992 276.505 24.446L277.009 25.132C276.337 25.804 275.427 26.168 274.321 26.168ZM276.421 22.192C276.407 21.184 275.735 19.938 274.195 19.938C272.753 19.938 272.039 21.156 271.983 22.192H276.421ZM285.107 26H284.057V24.992C283.553 25.678 282.727 26.168 281.775 26.168C280.011 26.168 278.765 24.824 278.765 22.626C278.765 20.47 279.997 19.07 281.775 19.07C282.685 19.07 283.511 19.518 284.057 20.26V16.662H285.107V26ZM282.027 25.23C282.867 25.23 283.679 24.754 284.057 24.166V21.1C283.679 20.512 282.867 20.008 282.027 20.008C280.669 20.008 279.857 21.128 279.857 22.626C279.857 24.124 280.669 25.23 282.027 25.23ZM291.87 24.166C292.234 24.754 293.06 25.23 293.886 25.23C295.258 25.23 296.07 24.124 296.07 22.626C296.07 21.128 295.258 20.008 293.886 20.008C293.06 20.008 292.234 20.512 291.87 21.1V24.166ZM291.87 26H290.82V16.662H291.87V20.26C292.416 19.518 293.228 19.07 294.152 19.07C295.916 19.07 297.162 20.47 297.162 22.626C297.162 24.824 295.916 26.168 294.152 26.168C293.2 26.168 292.374 25.678 291.87 24.992V26ZM298.494 28.646L298.662 27.694C298.816 27.764 299.068 27.806 299.236 27.806C299.698 27.806 300.006 27.652 300.244 27.092L300.692 26.07L297.864 19.238H298.998L301.252 24.782L303.492 19.238H304.64L301.252 27.372C300.846 28.352 300.16 28.73 299.264 28.744C299.04 28.744 298.69 28.702 298.494 28.646ZM10.762 42H9.712V37.408C9.712 36.554 9.334 36.008 8.466 36.008C7.766 36.008 7.024 36.512 6.674 37.044V42H5.624V37.408C5.624 36.554 5.26 36.008 4.378 36.008C3.692 36.008 2.964 36.512 2.6 37.058V42H1.55V35.238H2.6V36.218C2.88 35.784 3.79 35.07 4.784 35.07C5.82 35.07 6.408 35.63 6.604 36.33C6.982 35.714 7.892 35.07 8.872 35.07C10.104 35.07 10.762 35.756 10.762 37.114V42ZM18.1346 42H17.0846V41.23C16.5246 41.846 15.7546 42.168 14.8446 42.168C13.6966 42.168 12.4786 41.398 12.4786 39.928C12.4786 38.416 13.6966 37.702 14.8446 37.702C15.7686 37.702 16.5386 37.996 17.0846 38.626V37.408C17.0846 36.498 16.3566 35.98 15.3766 35.98C14.5646 35.98 13.9066 36.274 13.3046 36.918L12.8146 36.19C13.5426 35.434 14.4106 35.07 15.5166 35.07C16.9446 35.07 18.1346 35.714 18.1346 37.352V42ZM15.2226 41.412C15.9646 41.412 16.6786 41.132 17.0846 40.572V39.298C16.6786 38.738 15.9646 38.458 15.2226 38.458C14.2426 38.458 13.5566 39.074 13.5566 39.942C13.5566 40.796 14.2426 41.412 15.2226 41.412ZM25.8535 42H24.8035V37.576C24.8035 36.386 24.2015 36.008 23.2915 36.008C22.4655 36.008 21.6815 36.512 21.2895 37.058V42H20.2395V35.238H21.2895V36.218C21.7655 35.658 22.6895 35.07 23.6975 35.07C25.1115 35.07 25.8535 35.784 25.8535 37.254V42ZM27.5724 44.646L27.7404 43.694C27.8944 43.764 28.1464 43.806 28.3144 43.806C28.7764 43.806 29.0844 43.652 29.3224 43.092L29.7704 42.07L26.9424 35.238H28.0764L30.3304 40.782L32.5704 35.238H33.7184L30.3304 43.372C29.9244 44.352 29.2384 44.73 28.3424 44.744C28.1184 44.744 27.7684 44.702 27.5724 44.646ZM39.767 42H38.717V36.162H37.597V35.238H38.717V34.72C38.717 33.334 39.473 32.522 40.677 32.522C41.209 32.522 41.685 32.648 42.105 33.04L41.671 33.726C41.447 33.53 41.181 33.39 40.831 33.39C40.145 33.39 39.767 33.866 39.767 34.72V35.238H41.139V36.162H39.767V42ZM47.6659 42H46.6159V41.23C46.0559 41.846 45.2859 42.168 44.3759 42.168C43.2279 42.168 42.0099 41.398 42.0099 39.928C42.0099 38.416 43.2279 37.702 44.3759 37.702C45.2999 37.702 46.0699 37.996 46.6159 38.626V37.408C46.6159 36.498 45.8879 35.98 44.9079 35.98C44.0959 35.98 43.4379 36.274 42.8359 36.918L42.3459 36.19C43.0739 35.434 43.9419 35.07 45.0479 35.07C46.4759 35.07 47.6659 35.714 47.6659 37.352V42ZM44.7539 41.412C45.4959 41.412 46.2099 41.132 46.6159 40.572V39.298C46.2099 38.738 45.4959 38.458 44.7539 38.458C43.7739 38.458 43.0879 39.074 43.0879 39.942C43.0879 40.796 43.7739 41.412 44.7539 41.412ZM52.7527 42.168C50.7367 42.168 49.3787 40.628 49.3787 38.612C49.3787 36.61 50.7367 35.07 52.7527 35.07C53.9847 35.07 54.7127 35.574 55.2307 36.246L54.5307 36.89C54.0827 36.274 53.5087 36.008 52.8087 36.008C51.3667 36.008 50.4707 37.114 50.4707 38.612C50.4707 40.11 51.3667 41.23 52.8087 41.23C53.5087 41.23 54.0827 40.95 54.5307 40.348L55.2307 40.992C54.7127 41.664 53.9847 42.168 52.7527 42.168ZM58.4103 42.168C57.4163 42.168 56.9123 41.594 56.9123 40.586V36.162H55.7923V35.238H56.9123V33.39H57.9623V35.238H59.3343V36.162H57.9623V40.362C57.9623 40.866 58.1863 41.23 58.6483 41.23C58.9423 41.23 59.2223 41.104 59.3623 40.95L59.6703 41.734C59.4043 41.986 59.0263 42.168 58.4103 42.168ZM63.7716 42.168C61.7136 42.168 60.4256 40.572 60.4256 38.612C60.4256 36.652 61.7136 35.07 63.7716 35.07C65.8296 35.07 67.1176 36.652 67.1176 38.612C67.1176 40.572 65.8296 42.168 63.7716 42.168ZM63.7716 41.23C65.2136 41.23 66.0116 39.998 66.0116 38.612C66.0116 37.24 65.2136 36.008 63.7716 36.008C62.3296 36.008 61.5176 37.24 61.5176 38.612C61.5176 39.998 62.3296 41.23 63.7716 41.23ZM69.8793 42H68.8293V35.238H69.8793V36.33C70.4253 35.616 71.2093 35.098 72.1333 35.098V36.176C72.0073 36.148 71.8813 36.134 71.7133 36.134C71.0693 36.134 70.1873 36.666 69.8793 37.212V42ZM75.5924 42.168C74.4864 42.168 73.5484 41.832 72.8624 41.104L73.4084 40.348C73.8564 40.866 74.7104 41.314 75.6344 41.314C76.6704 41.314 77.2304 40.824 77.2304 40.152C77.2304 38.514 73.0444 39.522 73.0444 37.016C73.0444 35.966 73.9544 35.07 75.5644 35.07C76.7124 35.07 77.5244 35.504 78.0704 36.05L77.5804 36.778C77.1744 36.288 76.4324 35.924 75.5644 35.924C74.6404 35.924 74.0664 36.386 74.0664 36.988C74.0664 38.472 78.2524 37.492 78.2524 40.124C78.2524 41.258 77.3424 42.168 75.5924 42.168ZM85.7096 42.168C84.6036 42.168 83.6656 41.832 82.9796 41.104L83.5256 40.348C83.9736 40.866 84.8276 41.314 85.7516 41.314C86.7876 41.314 87.3476 40.824 87.3476 40.152C87.3476 38.514 83.1616 39.522 83.1616 37.016C83.1616 35.966 84.0716 35.07 85.6816 35.07C86.8296 35.07 87.6416 35.504 88.1876 36.05L87.6976 36.778C87.2916 36.288 86.5496 35.924 85.6816 35.924C84.7576 35.924 84.1836 36.386 84.1836 36.988C84.1836 38.472 88.3696 37.492 88.3696 40.124C88.3696 41.258 87.4596 42.168 85.7096 42.168ZM95.6894 42H94.6394V41.048C94.1214 41.636 93.2394 42.168 92.2314 42.168C90.8174 42.168 90.0754 41.482 90.0754 40.012V35.238H91.1254V39.69C91.1254 40.88 91.7274 41.23 92.6374 41.23C93.4634 41.23 94.2474 40.754 94.6394 40.208V35.238H95.6894V42ZM100.768 42.168C98.7523 42.168 97.3943 40.628 97.3943 38.612C97.3943 36.61 98.7523 35.07 100.768 35.07C102 35.07 102.728 35.574 103.246 36.246L102.546 36.89C102.098 36.274 101.524 36.008 100.824 36.008C99.3823 36.008 98.4863 37.114 98.4863 38.612C98.4863 40.11 99.3823 41.23 100.824 41.23C101.524 41.23 102.098 40.95 102.546 40.348L103.246 40.992C102.728 41.664 102 42.168 100.768 42.168ZM110.346 42H109.296V37.548C109.296 36.358 108.68 36.008 107.77 36.008C106.958 36.008 106.174 36.512 105.768 37.058V42H104.718V32.662H105.768V36.218C106.244 35.658 107.168 35.07 108.19 35.07C109.604 35.07 110.346 35.756 110.346 37.226V42ZM121.33 42H120.28V41.23C119.72 41.846 118.95 42.168 118.04 42.168C116.892 42.168 115.674 41.398 115.674 39.928C115.674 38.416 116.892 37.702 118.04 37.702C118.964 37.702 119.734 37.996 120.28 38.626V37.408C120.28 36.498 119.552 35.98 118.572 35.98C117.76 35.98 117.102 36.274 116.5 36.918L116.01 36.19C116.738 35.434 117.606 35.07 118.712 35.07C120.14 35.07 121.33 35.714 121.33 37.352V42ZM118.418 41.412C119.16 41.412 119.874 41.132 120.28 40.572V39.298C119.874 38.738 119.16 38.458 118.418 38.458C117.438 38.458 116.752 39.074 116.752 39.942C116.752 40.796 117.438 41.412 118.418 41.412ZM125.577 42.168C124.471 42.168 123.533 41.832 122.847 41.104L123.393 40.348C123.841 40.866 124.695 41.314 125.619 41.314C126.655 41.314 127.215 40.824 127.215 40.152C127.215 38.514 123.029 39.522 123.029 37.016C123.029 35.966 123.939 35.07 125.549 35.07C126.697 35.07 127.509 35.504 128.055 36.05L127.565 36.778C127.159 36.288 126.417 35.924 125.549 35.924C124.625 35.924 124.051 36.386 124.051 36.988C124.051 38.472 128.237 37.492 128.237 40.124C128.237 41.258 127.327 42.168 125.577 42.168ZM134.896 42H133.846V36.162H132.726V35.238H133.846V34.72C133.846 33.334 134.602 32.522 135.806 32.522C136.338 32.522 136.814 32.648 137.234 33.04L136.8 33.726C136.576 33.53 136.31 33.39 135.96 33.39C135.274 33.39 134.896 33.866 134.896 34.72V35.238H136.268V36.162H134.896V42ZM142.795 42H141.745V41.23C141.185 41.846 140.415 42.168 139.505 42.168C138.357 42.168 137.139 41.398 137.139 39.928C137.139 38.416 138.357 37.702 139.505 37.702C140.429 37.702 141.199 37.996 141.745 38.626V37.408C141.745 36.498 141.017 35.98 140.037 35.98C139.225 35.98 138.567 36.274 137.965 36.918L137.475 36.19C138.203 35.434 139.071 35.07 140.177 35.07C141.605 35.07 142.795 35.714 142.795 37.352V42ZM139.883 41.412C140.625 41.412 141.339 41.132 141.745 40.572V39.298C141.339 38.738 140.625 38.458 139.883 38.458C138.903 38.458 138.217 39.074 138.217 39.942C138.217 40.796 138.903 41.412 139.883 41.412ZM146.608 42.168C145.614 42.168 145.11 41.594 145.11 40.586V36.162H143.99V35.238H145.11V33.39H146.16V35.238H147.532V36.162H146.16V40.362C146.16 40.866 146.384 41.23 146.846 41.23C147.14 41.23 147.42 41.104 147.56 40.95L147.868 41.734C147.602 41.986 147.224 42.168 146.608 42.168ZM149.533 34.272C149.155 34.272 148.833 33.964 148.833 33.572C148.833 33.18 149.155 32.858 149.533 32.858C149.925 32.858 150.247 33.18 150.247 33.572C150.247 33.964 149.925 34.272 149.533 34.272ZM150.065 42H149.015V35.238H150.065V42ZM154.875 44.744C153.727 44.744 152.943 44.52 152.145 43.736L152.677 42.952C153.237 43.624 153.909 43.876 154.875 43.876C155.995 43.876 157.045 43.33 157.045 41.846V40.88C156.555 41.566 155.729 42.084 154.777 42.084C153.013 42.084 151.767 40.768 151.767 38.584C151.767 36.414 152.999 35.07 154.777 35.07C155.687 35.07 156.499 35.518 157.045 36.26V35.238H158.095V41.804C158.095 44.044 156.527 44.744 154.875 44.744ZM155.029 41.16C155.869 41.16 156.681 40.642 157.045 40.054V37.1C156.681 36.512 155.869 36.008 155.029 36.008C153.671 36.008 152.859 37.086 152.859 38.584C152.859 40.068 153.671 41.16 155.029 41.16ZM165.812 42H164.762V41.048C164.244 41.636 163.362 42.168 162.354 42.168C160.94 42.168 160.198 41.482 160.198 40.012V35.238H161.248V39.69C161.248 40.88 161.85 41.23 162.76 41.23C163.586 41.23 164.37 40.754 164.762 40.208V35.238H165.812V42ZM170.961 42.168C168.959 42.168 167.517 40.726 167.517 38.612C167.517 36.652 168.917 35.07 170.849 35.07C172.893 35.07 174.097 36.666 174.097 38.696V38.962H168.623C168.707 40.236 169.603 41.3 171.059 41.3C171.829 41.3 172.613 40.992 173.145 40.446L173.649 41.132C172.977 41.804 172.067 42.168 170.961 42.168ZM173.061 38.192C173.047 37.184 172.375 35.938 170.835 35.938C169.393 35.938 168.679 37.156 168.623 38.192H173.061ZM180.457 42H179.407V32.662H180.457V42ZM185.604 42.168C183.602 42.168 182.16 40.726 182.16 38.612C182.16 36.652 183.56 35.07 185.492 35.07C187.536 35.07 188.74 36.666 188.74 38.696V38.962H183.266C183.35 40.236 184.246 41.3 185.702 41.3C186.472 41.3 187.256 40.992 187.788 40.446L188.292 41.132C187.62 41.804 186.71 42.168 185.604 42.168ZM187.704 38.192C187.69 37.184 187.018 35.938 185.478 35.938C184.036 35.938 183.322 37.156 183.266 38.192H187.704ZM193.395 42H192.247L189.433 35.238H190.567L192.821 40.782L195.061 35.238H196.209L193.395 42ZM200.356 42.168C198.354 42.168 196.912 40.726 196.912 38.612C196.912 36.652 198.312 35.07 200.244 35.07C202.288 35.07 203.492 36.666 203.492 38.696V38.962H198.018C198.102 40.236 198.998 41.3 200.454 41.3C201.224 41.3 202.008 40.992 202.54 40.446L203.044 41.132C202.372 41.804 201.462 42.168 200.356 42.168ZM202.456 38.192C202.442 37.184 201.77 35.938 200.23 35.938C198.788 35.938 198.074 37.156 198.018 38.192H202.456ZM206.243 42H205.193V32.662H206.243V42ZM209.751 41.664C209.751 42.518 209.247 43.316 208.603 43.778L208.085 43.344C208.533 43.05 208.939 42.504 208.995 42.042C208.967 42.056 208.869 42.07 208.799 42.07C208.407 42.07 208.127 41.776 208.127 41.356C208.127 40.95 208.449 40.6 208.869 40.6C209.331 40.6 209.751 40.992 209.751 41.664ZM216.881 42.168C215.887 42.168 215.383 41.594 215.383 40.586V36.162H214.263V35.238H215.383V33.39H216.433V35.238H217.805V36.162H216.433V40.362C216.433 40.866 216.657 41.23 217.119 41.23C217.413 41.23 217.693 41.104 217.833 40.95L218.141 41.734C217.875 41.986 217.497 42.168 216.881 42.168ZM224.916 42H223.866V37.548C223.866 36.358 223.25 36.008 222.34 36.008C221.528 36.008 220.744 36.512 220.338 37.058V42H219.288V32.662H220.338V36.218C220.814 35.658 221.738 35.07 222.76 35.07C224.174 35.07 224.916 35.756 224.916 37.226V42ZM230.065 42.168C228.063 42.168 226.621 40.726 226.621 38.612C226.621 36.652 228.021 35.07 229.953 35.07C231.997 35.07 233.201 36.666 233.201 38.696V38.962H227.727C227.811 40.236 228.707 41.3 230.163 41.3C230.933 41.3 231.717 40.992 232.249 40.446L232.753 41.132C232.081 41.804 231.171 42.168 230.065 42.168ZM232.165 38.192C232.151 37.184 231.479 35.938 229.939 35.938C228.497 35.938 227.783 37.156 227.727 38.192H232.165ZM244.125 42H243.075V41.048C242.557 41.636 241.675 42.168 240.667 42.168C239.253 42.168 238.511 41.482 238.511 40.012V35.238H239.561V39.69C239.561 40.88 240.163 41.23 241.073 41.23C241.899 41.23 242.683 40.754 243.075 40.208V35.238H244.125V42ZM248.364 42.168C247.258 42.168 246.32 41.832 245.634 41.104L246.18 40.348C246.628 40.866 247.482 41.314 248.406 41.314C249.442 41.314 250.002 40.824 250.002 40.152C250.002 38.514 245.816 39.522 245.816 37.016C245.816 35.966 246.726 35.07 248.336 35.07C249.484 35.07 250.296 35.504 250.842 36.05L250.352 36.778C249.946 36.288 249.204 35.924 248.336 35.924C247.412 35.924 246.838 36.386 246.838 36.988C246.838 38.472 251.024 37.492 251.024 40.124C251.024 41.258 250.114 42.168 248.364 42.168ZM255.782 42.168C253.78 42.168 252.338 40.726 252.338 38.612C252.338 36.652 253.738 35.07 255.67 35.07C257.714 35.07 258.918 36.666 258.918 38.696V38.962H253.444C253.528 40.236 254.424 41.3 255.88 41.3C256.65 41.3 257.434 40.992 257.966 40.446L258.47 41.132C257.798 41.804 256.888 42.168 255.782 42.168ZM257.882 38.192C257.868 37.184 257.196 35.938 255.656 35.938C254.214 35.938 253.5 37.156 253.444 38.192H257.882ZM267.182 42.168C265.124 42.168 263.836 40.572 263.836 38.612C263.836 36.652 265.124 35.07 267.182 35.07C269.24 35.07 270.528 36.652 270.528 38.612C270.528 40.572 269.24 42.168 267.182 42.168ZM267.182 41.23C268.624 41.23 269.422 39.998 269.422 38.612C269.422 37.24 268.624 36.008 267.182 36.008C265.74 36.008 264.928 37.24 264.928 38.612C264.928 39.998 265.74 41.23 267.182 41.23ZM273.583 42H272.533V36.162H271.413V35.238H272.533V34.72C272.533 33.334 273.289 32.522 274.493 32.522C275.025 32.522 275.501 32.648 275.921 33.04L275.487 33.726C275.263 33.53 274.997 33.39 274.647 33.39C273.961 33.39 273.583 33.866 273.583 34.72V35.238H274.955V36.162H273.583V42ZM3.692 58.168C2.586 58.168 1.648 57.832 0.962 57.104L1.508 56.348C1.956 56.866 2.81 57.314 3.734 57.314C4.77 57.314 5.33 56.824 5.33 56.152C5.33 54.514 1.144 55.522 1.144 53.016C1.144 51.966 2.054 51.07 3.664 51.07C4.812 51.07 5.624 51.504 6.17 52.05L5.68 52.778C5.274 52.288 4.532 51.924 3.664 51.924C2.74 51.924 2.166 52.386 2.166 52.988C2.166 54.472 6.352 53.492 6.352 56.124C6.352 57.258 5.442 58.168 3.692 58.168ZM14.0078 58H12.6638L10.2278 54.962L9.10781 56.068V58H8.05781V48.662H9.10781V54.836L12.6638 51.238H13.9938L10.9978 54.304L14.0078 58ZM15.7672 50.272C15.3892 50.272 15.0672 49.964 15.0672 49.572C15.0672 49.18 15.3892 48.858 15.7672 48.858C16.1592 48.858 16.4812 49.18 16.4812 49.572C16.4812 49.964 16.1592 50.272 15.7672 50.272ZM16.2992 58H15.2492V51.238H16.2992V58ZM24.0078 58H22.9578V53.576C22.9578 52.386 22.3558 52.008 21.4458 52.008C20.6198 52.008 19.8358 52.512 19.4438 53.058V58H18.3938V51.238H19.4438V52.218C19.9198 51.658 20.8438 51.07 21.8518 51.07C23.2658 51.07 24.0078 51.784 24.0078 53.254V58ZM29.0867 58.168C27.0707 58.168 25.7127 56.628 25.7127 54.612C25.7127 52.61 27.0707 51.07 29.0867 51.07C30.3187 51.07 31.0467 51.574 31.5647 52.246L30.8647 52.89C30.4167 52.274 29.8427 52.008 29.1427 52.008C27.7007 52.008 26.8047 53.114 26.8047 54.612C26.8047 56.11 27.7007 57.23 29.1427 57.23C29.8427 57.23 30.4167 56.95 30.8647 56.348L31.5647 56.992C31.0467 57.664 30.3187 58.168 29.0867 58.168ZM38.3143 58H37.2643V57.23C36.7043 57.846 35.9343 58.168 35.0243 58.168C33.8763 58.168 32.6583 57.398 32.6583 55.928C32.6583 54.416 33.8763 53.702 35.0243 53.702C35.9483 53.702 36.7183 53.996 37.2643 54.626V53.408C37.2643 52.498 36.5363 51.98 35.5563 51.98C34.7443 51.98 34.0863 52.274 33.4843 52.918L32.9943 52.19C33.7223 51.434 34.5903 51.07 35.6963 51.07C37.1243 51.07 38.3143 51.714 38.3143 53.352V58ZM35.4023 57.412C36.1443 57.412 36.8583 57.132 37.2643 56.572V55.298C36.8583 54.738 36.1443 54.458 35.4023 54.458C34.4223 54.458 33.7363 55.074 33.7363 55.942C33.7363 56.796 34.4223 57.412 35.4023 57.412ZM41.4691 58H40.4191V51.238H41.4691V52.33C42.0151 51.616 42.7991 51.098 43.7231 51.098V52.176C43.5971 52.148 43.4711 52.134 43.3031 52.134C42.6591 52.134 41.7771 52.666 41.4691 53.212V58ZM48.0922 58.168C46.0902 58.168 44.6482 56.726 44.6482 54.612C44.6482 52.652 46.0482 51.07 47.9802 51.07C50.0242 51.07 51.2282 52.666 51.2282 54.696V54.962H45.7542C45.8382 56.236 46.7342 57.3 48.1902 57.3C48.9602 57.3 49.7442 56.992 50.2762 56.446L50.7802 57.132C50.1082 57.804 49.1982 58.168 48.0922 58.168ZM50.1922 54.192C50.1782 53.184 49.5062 51.938 47.9662 51.938C46.5242 51.938 45.8102 53.156 45.7542 54.192H50.1922ZM59.4923 58.168C57.4343 58.168 56.1463 56.572 56.1463 54.612C56.1463 52.652 57.4343 51.07 59.4923 51.07C61.5503 51.07 62.8383 52.652 62.8383 54.612C62.8383 56.572 61.5503 58.168 59.4923 58.168ZM59.4923 57.23C60.9343 57.23 61.7323 55.998 61.7323 54.612C61.7323 53.24 60.9343 52.008 59.4923 52.008C58.0503 52.008 57.2383 53.24 57.2383 54.612C57.2383 55.998 58.0503 57.23 59.4923 57.23ZM65.6 58H64.55V51.238H65.6V52.33C66.146 51.616 66.93 51.098 67.854 51.098V52.176C67.728 52.148 67.602 52.134 67.434 52.134C66.79 52.134 65.908 52.666 65.6 53.212V58ZM75.7625 58.168C73.7465 58.168 72.3885 56.628 72.3885 54.612C72.3885 52.61 73.7465 51.07 75.7625 51.07C76.9945 51.07 77.7225 51.574 78.2405 52.246L77.5405 52.89C77.0925 52.274 76.5185 52.008 75.8185 52.008C74.3765 52.008 73.4805 53.114 73.4805 54.612C73.4805 56.11 74.3765 57.23 75.8185 57.23C76.5185 57.23 77.0925 56.95 77.5405 56.348L78.2405 56.992C77.7225 57.664 76.9945 58.168 75.7625 58.168ZM82.6661 58.168C80.6081 58.168 79.3201 56.572 79.3201 54.612C79.3201 52.652 80.6081 51.07 82.6661 51.07C84.7241 51.07 86.0121 52.652 86.0121 54.612C86.0121 56.572 84.7241 58.168 82.6661 58.168ZM82.6661 57.23C84.1081 57.23 84.9061 55.998 84.9061 54.612C84.9061 53.24 84.1081 52.008 82.6661 52.008C81.2241 52.008 80.4121 53.24 80.4121 54.612C80.4121 55.998 81.2241 57.23 82.6661 57.23ZM89.8658 58.168C88.7598 58.168 87.8218 57.832 87.1358 57.104L87.6818 56.348C88.1298 56.866 88.9838 57.314 89.9078 57.314C90.9438 57.314 91.5038 56.824 91.5038 56.152C91.5038 54.514 87.3178 55.522 87.3178 53.016C87.3178 51.966 88.2278 51.07 89.8378 51.07C90.9858 51.07 91.7978 51.504 92.3438 52.05L91.8538 52.778C91.4478 52.288 90.7058 51.924 89.8378 51.924C88.9138 51.924 88.3398 52.386 88.3398 52.988C88.3398 54.472 92.5258 53.492 92.5258 56.124C92.5258 57.258 91.6158 58.168 89.8658 58.168ZM103.444 58H102.394V53.408C102.394 52.554 102.016 52.008 101.148 52.008C100.448 52.008 99.7056 52.512 99.3556 53.044V58H98.3056V53.408C98.3056 52.554 97.9416 52.008 97.0596 52.008C96.3736 52.008 95.6456 52.512 95.2816 53.058V58H94.2316V51.238H95.2816V52.218C95.5616 51.784 96.4716 51.07 97.4656 51.07C98.5016 51.07 99.0896 51.63 99.2856 52.33C99.6636 51.714 100.574 51.07 101.554 51.07C102.786 51.07 103.444 51.756 103.444 53.114V58ZM108.59 58.168C106.588 58.168 105.146 56.726 105.146 54.612C105.146 52.652 106.546 51.07 108.478 51.07C110.522 51.07 111.726 52.666 111.726 54.696V54.962H106.252C106.336 56.236 107.232 57.3 108.688 57.3C109.458 57.3 110.242 56.992 110.774 56.446L111.278 57.132C110.606 57.804 109.696 58.168 108.59 58.168ZM110.69 54.192C110.676 53.184 110.004 51.938 108.464 51.938C107.022 51.938 106.308 53.156 106.252 54.192H110.69ZM115.135 58.168C114.141 58.168 113.637 57.594 113.637 56.586V52.162H112.517V51.238H113.637V49.39H114.687V51.238H116.059V52.162H114.687V56.362C114.687 56.866 114.911 57.23 115.373 57.23C115.667 57.23 115.947 57.104 116.087 56.95L116.395 57.734C116.129 57.986 115.751 58.168 115.135 58.168ZM118.06 50.272C117.682 50.272 117.36 49.964 117.36 49.572C117.36 49.18 117.682 48.858 118.06 48.858C118.452 48.858 118.774 49.18 118.774 49.572C118.774 49.964 118.452 50.272 118.06 50.272ZM118.592 58H117.542V51.238H118.592V58ZM123.669 58.168C121.653 58.168 120.295 56.628 120.295 54.612C120.295 52.61 121.653 51.07 123.669 51.07C124.901 51.07 125.629 51.574 126.147 52.246L125.447 52.89C124.999 52.274 124.425 52.008 123.725 52.008C122.283 52.008 121.387 53.114 121.387 54.612C121.387 56.11 122.283 57.23 123.725 57.23C124.425 57.23 124.999 56.95 125.447 56.348L126.147 56.992C125.629 57.664 124.901 58.168 123.669 58.168ZM129.76 58.168C128.654 58.168 127.716 57.832 127.03 57.104L127.576 56.348C128.024 56.866 128.878 57.314 129.802 57.314C130.838 57.314 131.398 56.824 131.398 56.152C131.398 54.514 127.212 55.522 127.212 53.016C127.212 51.966 128.122 51.07 129.732 51.07C130.88 51.07 131.692 51.504 132.238 52.05L131.748 52.778C131.342 52.288 130.6 51.924 129.732 51.924C128.808 51.924 128.234 52.386 128.234 52.988C128.234 54.472 132.42 53.492 132.42 56.124C132.42 57.258 131.51 58.168 129.76 58.168ZM141.068 58.168C140.144 58.168 139.332 57.734 138.786 56.978V60.576H137.736V51.238H138.786V52.246C139.276 51.56 140.116 51.07 141.068 51.07C142.846 51.07 144.078 52.414 144.078 54.612C144.078 56.796 142.846 58.168 141.068 58.168ZM140.802 57.23C142.16 57.23 142.972 56.11 142.972 54.612C142.972 53.114 142.16 52.008 140.802 52.008C139.976 52.008 139.15 52.498 138.786 53.086V56.138C139.15 56.726 139.976 57.23 140.802 57.23ZM146.797 58H145.747V51.238H146.797V52.33C147.343 51.616 148.127 51.098 149.051 51.098V52.176C148.925 52.148 148.799 52.134 148.631 52.134C147.987 52.134 147.105 52.666 146.797 53.212V58ZM153.322 58.168C151.264 58.168 149.976 56.572 149.976 54.612C149.976 52.652 151.264 51.07 153.322 51.07C155.38 51.07 156.668 52.652 156.668 54.612C156.668 56.572 155.38 58.168 153.322 58.168ZM153.322 57.23C154.764 57.23 155.562 55.998 155.562 54.612C155.562 53.24 154.764 52.008 153.322 52.008C151.88 52.008 151.068 53.24 151.068 54.612C151.068 55.998 151.88 57.23 153.322 57.23ZM164.33 58H163.28V56.992C162.776 57.678 161.95 58.168 160.998 58.168C159.234 58.168 157.988 56.824 157.988 54.626C157.988 52.47 159.22 51.07 160.998 51.07C161.908 51.07 162.734 51.518 163.28 52.26V48.662H164.33V58ZM161.25 57.23C162.09 57.23 162.902 56.754 163.28 56.166V53.1C162.902 52.512 162.09 52.008 161.25 52.008C159.892 52.008 159.08 53.128 159.08 54.626C159.08 56.124 159.892 57.23 161.25 57.23ZM172.047 58H170.997V57.048C170.479 57.636 169.597 58.168 168.589 58.168C167.175 58.168 166.433 57.482 166.433 56.012V51.238H167.483V55.69C167.483 56.88 168.085 57.23 168.995 57.23C169.821 57.23 170.605 56.754 170.997 56.208V51.238H172.047V58ZM177.126 58.168C175.11 58.168 173.752 56.628 173.752 54.612C173.752 52.61 175.11 51.07 177.126 51.07C178.358 51.07 179.086 51.574 179.604 52.246L178.904 52.89C178.456 52.274 177.882 52.008 177.182 52.008C175.74 52.008 174.844 53.114 174.844 54.612C174.844 56.11 175.74 57.23 177.182 57.23C177.882 57.23 178.456 56.95 178.904 56.348L179.604 56.992C179.086 57.664 178.358 58.168 177.126 58.168ZM182.783 58.168C181.789 58.168 181.285 57.594 181.285 56.586V52.162H180.165V51.238H181.285V49.39H182.335V51.238H183.707V52.162H182.335V56.362C182.335 56.866 182.559 57.23 183.021 57.23C183.315 57.23 183.595 57.104 183.735 56.95L184.043 57.734C183.777 57.986 183.399 58.168 182.783 58.168ZM187.333 58.168C186.227 58.168 185.289 57.832 184.603 57.104L185.149 56.348C185.597 56.866 186.451 57.314 187.375 57.314C188.411 57.314 188.971 56.824 188.971 56.152C188.971 54.514 184.785 55.522 184.785 53.016C184.785 51.966 185.695 51.07 187.305 51.07C188.453 51.07 189.265 51.504 189.811 52.05L189.321 52.778C188.915 52.288 188.173 51.924 187.305 51.924C186.381 51.924 185.807 52.386 185.807 52.988C185.807 54.472 189.993 53.492 189.993 56.124C189.993 57.258 189.083 58.168 187.333 58.168ZM192.258 58.14C191.838 58.14 191.488 57.79 191.488 57.37C191.488 56.95 191.838 56.6 192.258 56.6C192.678 56.6 193.028 56.95 193.028 57.37C193.028 57.79 192.678 58.14 192.258 58.14ZM5.82 90H4.378L0.626 80.662H1.956L5.106 88.726L8.256 80.662H9.586L5.82 90ZM11.2828 82.272C10.9048 82.272 10.5828 81.964 10.5828 81.572C10.5828 81.18 10.9048 80.858 11.2828 80.858C11.6748 80.858 11.9968 81.18 11.9968 81.572C11.9968 81.964 11.6748 82.272 11.2828 82.272ZM11.8148 90H10.7648V83.238H11.8148V90ZM19.8594 90H18.8094V88.992C18.3054 89.678 17.4794 90.168 16.5274 90.168C14.7634 90.168 13.5174 88.824 13.5174 86.626C13.5174 84.47 14.7494 83.07 16.5274 83.07C17.4374 83.07 18.2634 83.518 18.8094 84.26V80.662H19.8594V90ZM16.7794 89.23C17.6194 89.23 18.4314 88.754 18.8094 88.166V85.1C18.4314 84.512 17.6194 84.008 16.7794 84.008C15.4214 84.008 14.6094 85.128 14.6094 86.626C14.6094 88.124 15.4214 89.23 16.7794 89.23ZM25.0141 90.168C23.0121 90.168 21.5701 88.726 21.5701 86.612C21.5701 84.652 22.9701 83.07 24.9021 83.07C26.9461 83.07 28.1501 84.666 28.1501 86.696V86.962H22.6761C22.7601 88.236 23.6561 89.3 25.1121 89.3C25.8821 89.3 26.6661 88.992 27.1981 88.446L27.7021 89.132C27.0301 89.804 26.1201 90.168 25.0141 90.168ZM27.1141 86.192C27.1001 85.184 26.4281 83.938 24.8881 83.938C23.4461 83.938 22.7321 85.156 22.6761 86.192H27.1141ZM32.8048 90.168C30.7468 90.168 29.4588 88.572 29.4588 86.612C29.4588 84.652 30.7468 83.07 32.8048 83.07C34.8628 83.07 36.1508 84.652 36.1508 86.612C36.1508 88.572 34.8628 90.168 32.8048 90.168ZM32.8048 89.23C34.2468 89.23 35.0448 87.998 35.0448 86.612C35.0448 85.24 34.2468 84.008 32.8048 84.008C31.3628 84.008 30.5508 85.24 30.5508 86.612C30.5508 87.998 31.3628 89.23 32.8048 89.23ZM41.9899 82.272C41.6119 82.272 41.2899 81.964 41.2899 81.572C41.2899 81.18 41.6119 80.858 41.9899 80.858C42.3819 80.858 42.7039 81.18 42.7039 81.572C42.7039 81.964 42.3819 82.272 41.9899 82.272ZM42.5219 90H41.4719V83.238H42.5219V90ZM53.8284 90H52.7784V85.408C52.7784 84.554 52.4004 84.008 51.5324 84.008C50.8324 84.008 50.0904 84.512 49.7404 85.044V90H48.6904V85.408C48.6904 84.554 48.3264 84.008 47.4444 84.008C46.7584 84.008 46.0304 84.512 45.6664 85.058V90H44.6164V83.238H45.6664V84.218C45.9464 83.784 46.8564 83.07 47.8504 83.07C48.8864 83.07 49.4744 83.63 49.6704 84.33C50.0484 83.714 50.9584 83.07 51.9384 83.07C53.1704 83.07 53.8284 83.756 53.8284 85.114V90ZM61.201 90H60.151V89.23C59.591 89.846 58.821 90.168 57.911 90.168C56.763 90.168 55.545 89.398 55.545 87.928C55.545 86.416 56.763 85.702 57.911 85.702C58.835 85.702 59.605 85.996 60.151 86.626V85.408C60.151 84.498 59.423 83.98 58.443 83.98C57.631 83.98 56.973 84.274 56.371 84.918L55.881 84.19C56.609 83.434 57.477 83.07 58.583 83.07C60.011 83.07 61.201 83.714 61.201 85.352V90ZM58.289 89.412C59.031 89.412 59.745 89.132 60.151 88.572V87.298C59.745 86.738 59.031 86.458 58.289 86.458C57.309 86.458 56.623 87.074 56.623 87.942C56.623 88.796 57.309 89.412 58.289 89.412ZM66.0219 92.744C64.8739 92.744 64.0899 92.52 63.2919 91.736L63.8239 90.952C64.3839 91.624 65.0559 91.876 66.0219 91.876C67.1419 91.876 68.1919 91.33 68.1919 89.846V88.88C67.7019 89.566 66.8759 90.084 65.9239 90.084C64.1599 90.084 62.9139 88.768 62.9139 86.584C62.9139 84.414 64.1459 83.07 65.9239 83.07C66.8339 83.07 67.6459 83.518 68.1919 84.26V83.238H69.2419V89.804C69.2419 92.044 67.6739 92.744 66.0219 92.744ZM66.1759 89.16C67.0159 89.16 67.8279 88.642 68.1919 88.054V85.1C67.8279 84.512 67.0159 84.008 66.1759 84.008C64.8179 84.008 64.0059 85.086 64.0059 86.584C64.0059 88.068 64.8179 89.16 66.1759 89.16ZM74.3969 90.168C72.3949 90.168 70.9529 88.726 70.9529 86.612C70.9529 84.652 72.3529 83.07 74.2849 83.07C76.3289 83.07 77.5329 84.666 77.5329 86.696V86.962H72.0589C72.1429 88.236 73.0389 89.3 74.4949 89.3C75.2649 89.3 76.0489 88.992 76.5809 88.446L77.0849 89.132C76.4129 89.804 75.5029 90.168 74.3969 90.168ZM76.4969 86.192C76.4829 85.184 75.8109 83.938 74.2709 83.938C72.8289 83.938 72.1149 85.156 72.0589 86.192H76.4969ZM81.3756 90.168C80.2696 90.168 79.3316 89.832 78.6456 89.104L79.1916 88.348C79.6396 88.866 80.4936 89.314 81.4176 89.314C82.4536 89.314 83.0136 88.824 83.0136 88.152C83.0136 86.514 78.8276 87.522 78.8276 85.016C78.8276 83.966 79.7376 83.07 81.3476 83.07C82.4956 83.07 83.3076 83.504 83.8536 84.05L83.3636 84.778C82.9576 84.288 82.2156 83.924 81.3476 83.924C80.4236 83.924 79.8496 84.386 79.8496 84.988C79.8496 86.472 84.0356 85.492 84.0356 88.124C84.0356 89.258 83.1256 90.168 81.3756 90.168ZM91.0588 90.168C90.0648 90.168 89.5608 89.594 89.5608 88.586V84.162H88.4408V83.238H89.5608V81.39H90.6108V83.238H91.9828V84.162H90.6108V88.362C90.6108 88.866 90.8348 89.23 91.2968 89.23C91.5908 89.23 91.8708 89.104 92.0108 88.95L92.3188 89.734C92.0528 89.986 91.6748 90.168 91.0588 90.168ZM98.744 90H97.694V89.23C97.134 89.846 96.364 90.168 95.454 90.168C94.306 90.168 93.088 89.398 93.088 87.928C93.088 86.416 94.306 85.702 95.454 85.702C96.378 85.702 97.148 85.996 97.694 86.626V85.408C97.694 84.498 96.966 83.98 95.986 83.98C95.174 83.98 94.516 84.274 93.914 84.918L93.424 84.19C94.152 83.434 95.02 83.07 96.126 83.07C97.554 83.07 98.744 83.714 98.744 85.352V90ZM95.832 89.412C96.574 89.412 97.288 89.132 97.694 88.572V87.298C97.288 86.738 96.574 86.458 95.832 86.458C94.852 86.458 94.166 87.074 94.166 87.942C94.166 88.796 94.852 89.412 95.832 89.412ZM106.799 90H105.455L103.019 86.962L101.899 88.068V90H100.849V80.662H101.899V86.836L105.455 83.238H106.785L103.789 86.304L106.799 90ZM111.051 90.168C109.049 90.168 107.607 88.726 107.607 86.612C107.607 84.652 109.007 83.07 110.939 83.07C112.983 83.07 114.187 84.666 114.187 86.696V86.962H108.713C108.797 88.236 109.693 89.3 111.149 89.3C111.919 89.3 112.703 88.992 113.235 88.446L113.739 89.132C113.067 89.804 112.157 90.168 111.051 90.168ZM113.151 86.192C113.137 85.184 112.465 83.938 110.925 83.938C109.483 83.938 108.769 85.156 108.713 86.192H113.151ZM121.502 90H120.452V85.576C120.452 84.386 119.85 84.008 118.94 84.008C118.114 84.008 117.33 84.512 116.938 85.058V90H115.888V83.238H116.938V84.218C117.414 83.658 118.338 83.07 119.346 83.07C120.76 83.07 121.502 83.784 121.502 85.254V90ZM127.726 82.272C127.348 82.272 127.026 81.964 127.026 81.572C127.026 81.18 127.348 80.858 127.726 80.858C128.118 80.858 128.44 81.18 128.44 81.572C128.44 81.964 128.118 82.272 127.726 82.272ZM128.258 90H127.208V83.238H128.258V90ZM135.967 90H134.917V85.576C134.917 84.386 134.315 84.008 133.405 84.008C132.579 84.008 131.795 84.512 131.403 85.058V90H130.353V83.238H131.403V84.218C131.879 83.658 132.803 83.07 133.811 83.07C135.225 83.07 135.967 83.784 135.967 85.254V90ZM145.005 90.168C144.081 90.168 143.269 89.734 142.723 88.978V92.576H141.673V83.238H142.723V84.246C143.213 83.56 144.053 83.07 145.005 83.07C146.783 83.07 148.015 84.414 148.015 86.612C148.015 88.796 146.783 90.168 145.005 90.168ZM144.739 89.23C146.097 89.23 146.909 88.11 146.909 86.612C146.909 85.114 146.097 84.008 144.739 84.008C143.913 84.008 143.087 84.498 142.723 85.086V88.138C143.087 88.726 143.913 89.23 144.739 89.23ZM152.639 90.168C150.581 90.168 149.293 88.572 149.293 86.612C149.293 84.652 150.581 83.07 152.639 83.07C154.697 83.07 155.985 84.652 155.985 86.612C155.985 88.572 154.697 90.168 152.639 90.168ZM152.639 89.23C154.081 89.23 154.879 87.998 154.879 86.612C154.879 85.24 154.081 84.008 152.639 84.008C151.197 84.008 150.385 85.24 150.385 86.612C150.385 87.998 151.197 89.23 152.639 89.23ZM160.65 90.168C158.592 90.168 157.304 88.572 157.304 86.612C157.304 84.652 158.592 83.07 160.65 83.07C162.708 83.07 163.996 84.652 163.996 86.612C163.996 88.572 162.708 90.168 160.65 90.168ZM160.65 89.23C162.092 89.23 162.89 87.998 162.89 86.612C162.89 85.24 162.092 84.008 160.65 84.008C159.208 84.008 158.396 85.24 158.396 86.612C158.396 87.998 159.208 89.23 160.65 89.23ZM166.758 90H165.708V83.238H166.758V84.33C167.304 83.616 168.088 83.098 169.012 83.098V84.176C168.886 84.148 168.76 84.134 168.592 84.134C167.948 84.134 167.066 84.666 166.758 85.212V90ZM174.989 90H173.939V80.662H174.989V90ZM177.601 82.272C177.223 82.272 176.901 81.964 176.901 81.572C176.901 81.18 177.223 80.858 177.601 80.858C177.993 80.858 178.315 81.18 178.315 81.572C178.315 81.964 177.993 82.272 177.601 82.272ZM178.133 90H177.083V83.238H178.133V90ZM182.944 92.744C181.796 92.744 181.012 92.52 180.214 91.736L180.746 90.952C181.306 91.624 181.978 91.876 182.944 91.876C184.064 91.876 185.114 91.33 185.114 89.846V88.88C184.624 89.566 183.798 90.084 182.846 90.084C181.082 90.084 179.836 88.768 179.836 86.584C179.836 84.414 181.068 83.07 182.846 83.07C183.756 83.07 184.568 83.518 185.114 84.26V83.238H186.164V89.804C186.164 92.044 184.596 92.744 182.944 92.744ZM183.098 89.16C183.938 89.16 184.75 88.642 185.114 88.054V85.1C184.75 84.512 183.938 84.008 183.098 84.008C181.74 84.008 180.928 85.086 180.928 86.584C180.928 88.068 181.74 89.16 183.098 89.16ZM193.895 90H192.845V85.548C192.845 84.358 192.229 84.008 191.319 84.008C190.507 84.008 189.723 84.512 189.317 85.058V90H188.267V80.662H189.317V84.218C189.793 83.658 190.717 83.07 191.739 83.07C193.153 83.07 193.895 83.756 193.895 85.226V90ZM197.699 90.168C196.705 90.168 196.201 89.594 196.201 88.586V84.162H195.081V83.238H196.201V81.39H197.251V83.238H198.623V84.162H197.251V88.362C197.251 88.866 197.475 89.23 197.937 89.23C198.231 89.23 198.511 89.104 198.651 88.95L198.959 89.734C198.693 89.986 198.315 90.168 197.699 90.168ZM200.625 82.272C200.247 82.272 199.925 81.964 199.925 81.572C199.925 81.18 200.247 80.858 200.625 80.858C201.017 80.858 201.339 81.18 201.339 81.572C201.339 81.964 201.017 82.272 200.625 82.272ZM201.157 90H200.107V83.238H201.157V90ZM208.865 90H207.815V85.576C207.815 84.386 207.213 84.008 206.303 84.008C205.477 84.008 204.693 84.512 204.301 85.058V90H203.251V83.238H204.301V84.218C204.777 83.658 205.701 83.07 206.709 83.07C208.123 83.07 208.865 83.784 208.865 85.254V90ZM213.678 92.744C212.53 92.744 211.746 92.52 210.948 91.736L211.48 90.952C212.04 91.624 212.712 91.876 213.678 91.876C214.798 91.876 215.848 91.33 215.848 89.846V88.88C215.358 89.566 214.532 90.084 213.58 90.084C211.816 90.084 210.57 88.768 210.57 86.584C210.57 84.414 211.802 83.07 213.58 83.07C214.49 83.07 215.302 83.518 215.848 84.26V83.238H216.898V89.804C216.898 92.044 215.33 92.744 213.678 92.744ZM213.832 89.16C214.672 89.16 215.484 88.642 215.848 88.054V85.1C215.484 84.512 214.672 84.008 213.832 84.008C212.474 84.008 211.662 85.086 211.662 86.584C211.662 88.068 212.474 89.16 213.832 89.16ZM225.593 90.168C223.577 90.168 222.219 88.628 222.219 86.612C222.219 84.61 223.577 83.07 225.593 83.07C226.825 83.07 227.553 83.574 228.071 84.246L227.371 84.89C226.923 84.274 226.349 84.008 225.649 84.008C224.207 84.008 223.311 85.114 223.311 86.612C223.311 88.11 224.207 89.23 225.649 89.23C226.349 89.23 226.923 88.95 227.371 88.348L228.071 88.992C227.553 89.664 226.825 90.168 225.593 90.168ZM232.496 90.168C230.438 90.168 229.15 88.572 229.15 86.612C229.15 84.652 230.438 83.07 232.496 83.07C234.554 83.07 235.842 84.652 235.842 86.612C235.842 88.572 234.554 90.168 232.496 90.168ZM232.496 89.23C233.938 89.23 234.736 87.998 234.736 86.612C234.736 85.24 233.938 84.008 232.496 84.008C231.054 84.008 230.242 85.24 230.242 86.612C230.242 87.998 231.054 89.23 232.496 89.23ZM243.168 90H242.118V85.576C242.118 84.386 241.516 84.008 240.606 84.008C239.78 84.008 238.996 84.512 238.604 85.058V90H237.554V83.238H238.604V84.218C239.08 83.658 240.004 83.07 241.012 83.07C242.426 83.07 243.168 83.784 243.168 85.254V90ZM251.215 90H250.165V88.992C249.661 89.678 248.835 90.168 247.883 90.168C246.119 90.168 244.873 88.824 244.873 86.626C244.873 84.47 246.105 83.07 247.883 83.07C248.793 83.07 249.619 83.518 250.165 84.26V80.662H251.215V90ZM248.135 89.23C248.975 89.23 249.787 88.754 250.165 88.166V85.1C249.787 84.512 248.975 84.008 248.135 84.008C246.777 84.008 245.965 85.128 245.965 86.626C245.965 88.124 246.777 89.23 248.135 89.23ZM253.836 82.272C253.458 82.272 253.136 81.964 253.136 81.572C253.136 81.18 253.458 80.858 253.836 80.858C254.228 80.858 254.55 81.18 254.55 81.572C254.55 81.964 254.228 82.272 253.836 82.272ZM254.368 90H253.318V83.238H254.368V90ZM258.17 90.168C257.176 90.168 256.672 89.594 256.672 88.586V84.162H255.552V83.238H256.672V81.39H257.722V83.238H259.094V84.162H257.722V88.362C257.722 88.866 257.946 89.23 258.408 89.23C258.702 89.23 258.982 89.104 259.122 88.95L259.43 89.734C259.164 89.986 258.786 90.168 258.17 90.168ZM261.095 82.272C260.717 82.272 260.395 81.964 260.395 81.572C260.395 81.18 260.717 80.858 261.095 80.858C261.487 80.858 261.809 81.18 261.809 81.572C261.809 81.964 261.487 82.272 261.095 82.272ZM261.627 90H260.577V83.238H261.627V90ZM266.676 90.168C264.618 90.168 263.33 88.572 263.33 86.612C263.33 84.652 264.618 83.07 266.676 83.07C268.734 83.07 270.022 84.652 270.022 86.612C270.022 88.572 268.734 90.168 266.676 90.168ZM266.676 89.23C268.118 89.23 268.916 87.998 268.916 86.612C268.916 85.24 268.118 84.008 266.676 84.008C265.234 84.008 264.422 85.24 264.422 86.612C264.422 87.998 265.234 89.23 266.676 89.23ZM277.348 90H276.298V85.576C276.298 84.386 275.696 84.008 274.786 84.008C273.96 84.008 273.176 84.512 272.784 85.058V90H271.734V83.238H272.784V84.218C273.26 83.658 274.184 83.07 275.192 83.07C276.606 83.07 277.348 83.784 277.348 85.254V90ZM281.587 90.168C280.481 90.168 279.543 89.832 278.857 89.104L279.403 88.348C279.851 88.866 280.705 89.314 281.629 89.314C282.665 89.314 283.225 88.824 283.225 88.152C283.225 86.514 279.039 87.522 279.039 85.016C279.039 83.966 279.949 83.07 281.559 83.07C282.707 83.07 283.519 83.504 284.065 84.05L283.575 84.778C283.169 84.288 282.427 83.924 281.559 83.924C280.635 83.924 280.061 84.386 280.061 84.988C280.061 86.472 284.247 85.492 284.247 88.124C284.247 89.258 283.337 90.168 281.587 90.168ZM291.732 92.296L291.102 92.786C289.842 91.064 289.128 88.852 289.128 86.598C289.128 84.344 289.842 82.146 291.102 80.41L291.732 80.886C290.836 82.664 290.276 84.26 290.276 86.598C290.276 88.922 290.836 90.532 291.732 92.296ZM296.086 90.168C294.084 90.168 292.642 88.726 292.642 86.612C292.642 84.652 294.042 83.07 295.974 83.07C298.018 83.07 299.222 84.666 299.222 86.696V86.962H293.748C293.832 88.236 294.728 89.3 296.184 89.3C296.954 89.3 297.738 88.992 298.27 88.446L298.774 89.132C298.102 89.804 297.192 90.168 296.086 90.168ZM298.186 86.192C298.172 85.184 297.5 83.938 295.96 83.938C294.518 83.938 293.804 85.156 293.748 86.192H298.186ZM301.387 90.14C300.967 90.14 300.617 89.79 300.617 89.37C300.617 88.95 300.967 88.6 301.387 88.6C301.807 88.6 302.157 88.95 302.157 89.37C302.157 89.79 301.807 90.14 301.387 90.14ZM306.674 92.744C305.526 92.744 304.742 92.52 303.944 91.736L304.476 90.952C305.036 91.624 305.708 91.876 306.674 91.876C307.794 91.876 308.844 91.33 308.844 89.846V88.88C308.354 89.566 307.528 90.084 306.576 90.084C304.812 90.084 303.566 88.768 303.566 86.584C303.566 84.414 304.798 83.07 306.576 83.07C307.486 83.07 308.298 83.518 308.844 84.26V83.238H309.894V89.804C309.894 92.044 308.326 92.744 306.674 92.744ZM306.828 89.16C307.668 89.16 308.48 88.642 308.844 88.054V85.1C308.48 84.512 307.668 84.008 306.828 84.008C305.47 84.008 304.658 85.086 304.658 86.584C304.658 88.068 305.47 89.16 306.828 89.16ZM312.557 90.14C312.137 90.14 311.787 89.79 311.787 89.37C311.787 88.95 312.137 88.6 312.557 88.6C312.977 88.6 313.327 88.95 313.327 89.37C313.327 89.79 312.977 90.14 312.557 90.14ZM316.638 89.664C316.638 90.518 316.134 91.316 315.49 91.778L314.972 91.344C315.42 91.05 315.826 90.504 315.882 90.042C315.854 90.056 315.756 90.07 315.686 90.07C315.294 90.07 315.014 89.776 315.014 89.356C315.014 88.95 315.336 88.6 315.756 88.6C316.218 88.6 316.638 88.992 316.638 89.664ZM2.6 104.166C2.964 104.754 3.79 105.23 4.616 105.23C5.988 105.23 6.8 104.124 6.8 102.626C6.8 101.128 5.988 100.008 4.616 100.008C3.79 100.008 2.964 100.512 2.6 101.1V104.166ZM2.6 106H1.55V96.662H2.6V100.26C3.146 99.518 3.958 99.07 4.882 99.07C6.646 99.07 7.892 100.47 7.892 102.626C7.892 104.824 6.646 106.168 4.882 106.168C3.93 106.168 3.104 105.678 2.6 104.992V106ZM14.8807 106H13.8307V105.23C13.2707 105.846 12.5007 106.168 11.5907 106.168C10.4427 106.168 9.22473 105.398 9.22473 103.928C9.22473 102.416 10.4427 101.702 11.5907 101.702C12.5147 101.702 13.2847 101.996 13.8307 102.626V101.408C13.8307 100.498 13.1027 99.98 12.1227 99.98C11.3107 99.98 10.6527 100.274 10.0507 100.918L9.56073 100.19C10.2887 99.434 11.1567 99.07 12.2627 99.07C13.6907 99.07 14.8807 99.714 14.8807 101.352V106ZM11.9687 105.412C12.7107 105.412 13.4247 105.132 13.8307 104.572V103.298C13.4247 102.738 12.7107 102.458 11.9687 102.458C10.9887 102.458 10.3027 103.074 10.3027 103.942C10.3027 104.796 10.9887 105.412 11.9687 105.412ZM19.9675 106.168C17.9515 106.168 16.5935 104.628 16.5935 102.612C16.5935 100.61 17.9515 99.07 19.9675 99.07C21.1995 99.07 21.9275 99.574 22.4455 100.246L21.7455 100.89C21.2975 100.274 20.7235 100.008 20.0235 100.008C18.5815 100.008 17.6855 101.114 17.6855 102.612C17.6855 104.11 18.5815 105.23 20.0235 105.23C20.7235 105.23 21.2975 104.95 21.7455 104.348L22.4455 104.992C21.9275 105.664 21.1995 106.168 19.9675 106.168ZM29.8672 106H28.5232L26.0872 102.962L24.9672 104.068V106H23.9172V96.662H24.9672V102.836L28.5232 99.238H29.8532L26.8572 102.304L29.8672 106ZM33.4558 103.074H30.0958V102.15H33.4558V103.074ZM35.973 106H34.923V96.662H35.973V106ZM38.5856 98.272C38.2076 98.272 37.8856 97.964 37.8856 97.572C37.8856 97.18 38.2076 96.858 38.5856 96.858C38.9776 96.858 39.2996 97.18 39.2996 97.572C39.2996 97.964 38.9776 98.272 38.5856 98.272ZM39.1176 106H38.0676V99.238H39.1176V106ZM43.9281 108.744C42.7801 108.744 41.9961 108.52 41.1981 107.736L41.7301 106.952C42.2901 107.624 42.9621 107.876 43.9281 107.876C45.0481 107.876 46.0981 107.33 46.0981 105.846V104.88C45.6081 105.566 44.7821 106.084 43.8301 106.084C42.0661 106.084 40.8201 104.768 40.8201 102.584C40.8201 100.414 42.0521 99.07 43.8301 99.07C44.7401 99.07 45.5521 99.518 46.0981 100.26V99.238H47.1481V105.804C47.1481 108.044 45.5801 108.744 43.9281 108.744ZM44.0821 105.16C44.9221 105.16 45.7341 104.642 46.0981 104.054V101.1C45.7341 100.512 44.9221 100.008 44.0821 100.008C42.7241 100.008 41.9121 101.086 41.9121 102.584C41.9121 104.068 42.7241 105.16 44.0821 105.16ZM54.8792 106H53.8292V101.548C53.8292 100.358 53.2132 100.008 52.3032 100.008C51.4912 100.008 50.7072 100.512 50.3012 101.058V106H49.2512V96.662H50.3012V100.218C50.7772 99.658 51.7012 99.07 52.7232 99.07C54.1372 99.07 54.8792 99.756 54.8792 101.226V106ZM58.6838 106.168C57.6898 106.168 57.1858 105.594 57.1858 104.586V100.162H56.0658V99.238H57.1858V97.39H58.2358V99.238H59.6078V100.162H58.2358V104.362C58.2358 104.866 58.4598 105.23 58.9218 105.23C59.2158 105.23 59.4958 105.104 59.6358 104.95L59.9438 105.734C59.6778 105.986 59.2998 106.168 58.6838 106.168ZM61.609 98.272C61.231 98.272 60.909 97.964 60.909 97.572C60.909 97.18 61.231 96.858 61.609 96.858C62.001 96.858 62.323 97.18 62.323 97.572C62.323 97.964 62.001 98.272 61.609 98.272ZM62.141 106H61.091V99.238H62.141V106ZM69.8495 106H68.7995V101.576C68.7995 100.386 68.1975 100.008 67.2875 100.008C66.4615 100.008 65.6775 100.512 65.2855 101.058V106H64.2355V99.238H65.2855V100.218C65.7615 99.658 66.6855 99.07 67.6935 99.07C69.1075 99.07 69.8495 99.784 69.8495 101.254V106ZM74.6625 108.744C73.5145 108.744 72.7305 108.52 71.9325 107.736L72.4645 106.952C73.0245 107.624 73.6965 107.876 74.6625 107.876C75.7825 107.876 76.8325 107.33 76.8325 105.846V104.88C76.3425 105.566 75.5165 106.084 74.5645 106.084C72.8005 106.084 71.5545 104.768 71.5545 102.584C71.5545 100.414 72.7865 99.07 74.5645 99.07C75.4745 99.07 76.2865 99.518 76.8325 100.26V99.238H77.8825V105.804C77.8825 108.044 76.3145 108.744 74.6625 108.744ZM74.8165 105.16C75.6565 105.16 76.4685 104.642 76.8325 104.054V101.1C76.4685 100.512 75.6565 100.008 74.8165 100.008C73.4585 100.008 72.6465 101.086 72.6465 102.584C72.6465 104.068 73.4585 105.16 74.8165 105.16ZM81.3995 105.664C81.3995 106.518 80.8955 107.316 80.2515 107.778L79.7335 107.344C80.1815 107.05 80.5875 106.504 80.6435 106.042C80.6155 106.056 80.5175 106.07 80.4475 106.07C80.0555 106.07 79.7755 105.776 79.7755 105.356C79.7755 104.95 80.0975 104.6 80.5175 104.6C80.9795 104.6 81.3995 104.992 81.3995 105.664ZM89.7755 106.168C87.7175 106.168 86.4295 104.572 86.4295 102.612C86.4295 100.652 87.7175 99.07 89.7755 99.07C91.8335 99.07 93.1215 100.652 93.1215 102.612C93.1215 104.572 91.8335 106.168 89.7755 106.168ZM89.7755 105.23C91.2175 105.23 92.0155 103.998 92.0155 102.612C92.0155 101.24 91.2175 100.008 89.7755 100.008C88.3335 100.008 87.5215 101.24 87.5215 102.612C87.5215 103.998 88.3335 105.23 89.7755 105.23ZM97.7872 106H96.6392L93.8252 99.238H94.9592L97.2132 104.782L99.4532 99.238H100.601L97.7872 106ZM104.748 106.168C102.746 106.168 101.304 104.726 101.304 102.612C101.304 100.652 102.704 99.07 104.636 99.07C106.68 99.07 107.884 100.666 107.884 102.696V102.962H102.41C102.494 104.236 103.39 105.3 104.846 105.3C105.616 105.3 106.4 104.992 106.932 104.446L107.436 105.132C106.764 105.804 105.854 106.168 104.748 106.168ZM106.848 102.192C106.834 101.184 106.162 99.938 104.622 99.938C103.18 99.938 102.466 101.156 102.41 102.192H106.848ZM110.635 106H109.585V99.238H110.635V100.33C111.181 99.616 111.965 99.098 112.889 99.098V100.176C112.763 100.148 112.637 100.134 112.469 100.134C111.825 100.134 110.943 100.666 110.635 101.212V106ZM119.834 106H118.784V101.548C118.784 100.358 118.168 100.008 117.258 100.008C116.446 100.008 115.662 100.512 115.256 101.058V106H114.206V96.662H115.256V100.218C115.732 99.658 116.656 99.07 117.678 99.07C119.092 99.07 119.834 99.756 119.834 101.226V106ZM124.983 106.168C122.981 106.168 121.539 104.726 121.539 102.612C121.539 100.652 122.939 99.07 124.871 99.07C126.915 99.07 128.119 100.666 128.119 102.696V102.962H122.645C122.729 104.236 123.625 105.3 125.081 105.3C125.851 105.3 126.635 104.992 127.167 104.446L127.671 105.132C126.999 105.804 126.089 106.168 124.983 106.168ZM127.083 102.192C127.069 101.184 126.397 99.938 124.857 99.938C123.415 99.938 122.701 101.156 122.645 102.192H127.083ZM135.098 106H134.048V105.23C133.488 105.846 132.718 106.168 131.808 106.168C130.66 106.168 129.442 105.398 129.442 103.928C129.442 102.416 130.66 101.702 131.808 101.702C132.732 101.702 133.502 101.996 134.048 102.626V101.408C134.048 100.498 133.32 99.98 132.34 99.98C131.528 99.98 130.87 100.274 130.268 100.918L129.778 100.19C130.506 99.434 131.374 99.07 132.48 99.07C133.908 99.07 135.098 99.714 135.098 101.352V106ZM132.186 105.412C132.928 105.412 133.642 105.132 134.048 104.572V103.298C133.642 102.738 132.928 102.458 132.186 102.458C131.206 102.458 130.52 103.074 130.52 103.942C130.52 104.796 131.206 105.412 132.186 105.412ZM143.152 106H142.102V104.992C141.598 105.678 140.772 106.168 139.82 106.168C138.056 106.168 136.81 104.824 136.81 102.626C136.81 100.47 138.042 99.07 139.82 99.07C140.73 99.07 141.556 99.518 142.102 100.26V96.662H143.152V106ZM140.072 105.23C140.912 105.23 141.724 104.754 142.102 104.166V101.1C141.724 100.512 140.912 100.008 140.072 100.008C138.714 100.008 137.902 101.128 137.902 102.626C137.902 104.124 138.714 105.23 140.072 105.23ZM149.914 106H148.864V96.662H149.914V106ZM152.527 98.272C152.149 98.272 151.827 97.964 151.827 97.572C151.827 97.18 152.149 96.858 152.527 96.858C152.919 96.858 153.241 97.18 153.241 97.572C153.241 97.964 152.919 98.272 152.527 98.272ZM153.059 106H152.009V99.238H153.059V106ZM157.87 108.744C156.722 108.744 155.938 108.52 155.14 107.736L155.672 106.952C156.232 107.624 156.904 107.876 157.87 107.876C158.99 107.876 160.04 107.33 160.04 105.846V104.88C159.55 105.566 158.724 106.084 157.772 106.084C156.008 106.084 154.762 104.768 154.762 102.584C154.762 100.414 155.994 99.07 157.772 99.07C158.682 99.07 159.494 99.518 160.04 100.26V99.238H161.09V105.804C161.09 108.044 159.522 108.744 157.87 108.744ZM158.024 105.16C158.864 105.16 159.676 104.642 160.04 104.054V101.1C159.676 100.512 158.864 100.008 158.024 100.008C156.666 100.008 155.854 101.086 155.854 102.584C155.854 104.068 156.666 105.16 158.024 105.16ZM168.821 106H167.771V101.548C167.771 100.358 167.155 100.008 166.245 100.008C165.433 100.008 164.649 100.512 164.243 101.058V106H163.193V96.662H164.243V100.218C164.719 99.658 165.643 99.07 166.665 99.07C168.079 99.07 168.821 99.756 168.821 101.226V106ZM172.625 106.168C171.631 106.168 171.127 105.594 171.127 104.586V100.162H170.007V99.238H171.127V97.39H172.177V99.238H173.549V100.162H172.177V104.362C172.177 104.866 172.401 105.23 172.863 105.23C173.157 105.23 173.437 105.104 173.577 104.95L173.885 105.734C173.619 105.986 173.241 106.168 172.625 106.168ZM175.55 98.272C175.172 98.272 174.85 97.964 174.85 97.572C174.85 97.18 175.172 96.858 175.55 96.858C175.942 96.858 176.264 97.18 176.264 97.572C176.264 97.964 175.942 98.272 175.55 98.272ZM176.082 106H175.032V99.238H176.082V106ZM183.791 106H182.741V101.576C182.741 100.386 182.139 100.008 181.229 100.008C180.403 100.008 179.619 100.512 179.227 101.058V106H178.177V99.238H179.227V100.218C179.703 99.658 180.627 99.07 181.635 99.07C183.049 99.07 183.791 99.784 183.791 101.254V106ZM188.604 108.744C187.456 108.744 186.672 108.52 185.874 107.736L186.406 106.952C186.966 107.624 187.638 107.876 188.604 107.876C189.724 107.876 190.774 107.33 190.774 105.846V104.88C190.284 105.566 189.458 106.084 188.506 106.084C186.742 106.084 185.496 104.768 185.496 102.584C185.496 100.414 186.728 99.07 188.506 99.07C189.416 99.07 190.228 99.518 190.774 100.26V99.238H191.824V105.804C191.824 108.044 190.256 108.744 188.604 108.744ZM188.758 105.16C189.598 105.16 190.41 104.642 190.774 104.054V101.1C190.41 100.512 189.598 100.008 188.758 100.008C187.4 100.008 186.588 101.086 186.588 102.584C186.588 104.068 187.4 105.16 188.758 105.16ZM193.745 108.786L193.115 108.296C194.025 106.532 194.585 104.922 194.585 102.598C194.585 100.26 194.025 98.664 193.115 96.886L193.745 96.41C195.019 98.146 195.733 100.344 195.733 102.598C195.733 104.852 195.019 107.064 193.745 108.786ZM210.221 106H209.171V101.408C209.171 100.554 208.793 100.008 207.925 100.008C207.225 100.008 206.483 100.512 206.133 101.044V106H205.083V101.408C205.083 100.554 204.719 100.008 203.837 100.008C203.151 100.008 202.423 100.512 202.059 101.058V106H201.009V99.238H202.059V100.218C202.339 99.784 203.249 99.07 204.243 99.07C205.279 99.07 205.867 99.63 206.063 100.33C206.441 99.714 207.351 99.07 208.331 99.07C209.563 99.07 210.221 99.756 210.221 101.114V106ZM217.594 106H216.544V105.23C215.984 105.846 215.214 106.168 214.304 106.168C213.156 106.168 211.938 105.398 211.938 103.928C211.938 102.416 213.156 101.702 214.304 101.702C215.228 101.702 215.998 101.996 216.544 102.626V101.408C216.544 100.498 215.816 99.98 214.836 99.98C214.024 99.98 213.366 100.274 212.764 100.918L212.274 100.19C213.002 99.434 213.87 99.07 214.976 99.07C216.404 99.07 217.594 99.714 217.594 101.352V106ZM214.682 105.412C215.424 105.412 216.138 105.132 216.544 104.572V103.298C216.138 102.738 215.424 102.458 214.682 102.458C213.702 102.458 213.016 103.074 213.016 103.942C213.016 104.796 213.702 105.412 214.682 105.412ZM219.32 108.646L219.488 107.694C219.642 107.764 219.894 107.806 220.062 107.806C220.524 107.806 220.832 107.652 221.07 107.092L221.518 106.07L218.69 99.238H219.824L222.078 104.782L224.318 99.238H225.466L222.078 107.372C221.672 108.352 220.986 108.73 220.09 108.744C219.866 108.744 219.516 108.702 219.32 108.646ZM236.121 106H235.071V104.992C234.567 105.678 233.741 106.168 232.789 106.168C231.025 106.168 229.779 104.824 229.779 102.626C229.779 100.47 231.011 99.07 232.789 99.07C233.699 99.07 234.525 99.518 235.071 100.26V96.662H236.121V106ZM233.041 105.23C233.881 105.23 234.693 104.754 235.071 104.166V101.1C234.693 100.512 233.881 100.008 233.041 100.008C231.683 100.008 230.871 101.128 230.871 102.626C230.871 104.124 231.683 105.23 233.041 105.23ZM238.742 98.272C238.364 98.272 238.042 97.964 238.042 97.572C238.042 97.18 238.364 96.858 238.742 96.858C239.134 96.858 239.456 97.18 239.456 97.572C239.456 97.964 239.134 98.272 238.742 98.272ZM239.274 106H238.224V99.238H239.274V106ZM243.51 106.168C242.404 106.168 241.466 105.832 240.78 105.104L241.326 104.348C241.774 104.866 242.628 105.314 243.552 105.314C244.588 105.314 245.148 104.824 245.148 104.152C245.148 102.514 240.962 103.522 240.962 101.016C240.962 99.966 241.872 99.07 243.482 99.07C244.63 99.07 245.442 99.504 245.988 100.05L245.498 100.778C245.092 100.288 244.35 99.924 243.482 99.924C242.558 99.924 241.984 100.386 241.984 100.988C241.984 102.472 246.17 101.492 246.17 104.124C246.17 105.258 245.26 106.168 243.51 106.168ZM249.584 106.168C248.59 106.168 248.086 105.594 248.086 104.586V100.162H246.966V99.238H248.086V97.39H249.136V99.238H250.508V100.162H249.136V104.362C249.136 104.866 249.36 105.23 249.822 105.23C250.116 105.23 250.396 105.104 250.536 104.95L250.844 105.734C250.578 105.986 250.2 106.168 249.584 106.168ZM254.945 106.168C252.887 106.168 251.599 104.572 251.599 102.612C251.599 100.652 252.887 99.07 254.945 99.07C257.003 99.07 258.291 100.652 258.291 102.612C258.291 104.572 257.003 106.168 254.945 106.168ZM254.945 105.23C256.387 105.23 257.185 103.998 257.185 102.612C257.185 101.24 256.387 100.008 254.945 100.008C253.503 100.008 252.691 101.24 252.691 102.612C252.691 103.998 253.503 105.23 254.945 105.23ZM261.053 106H260.003V99.238H261.053V100.33C261.599 99.616 262.383 99.098 263.307 99.098V100.176C263.181 100.148 263.055 100.134 262.887 100.134C262.243 100.134 261.361 100.666 261.053 101.212V106ZM266.332 106.168C265.338 106.168 264.834 105.594 264.834 104.586V100.162H263.714V99.238H264.834V97.39H265.884V99.238H267.256V100.162H265.884V104.362C265.884 104.866 266.108 105.23 266.57 105.23C266.864 105.23 267.144 105.104 267.284 104.95L267.592 105.734C267.326 105.986 266.948 106.168 266.332 106.168ZM274.057 106.168C273.063 106.168 272.559 105.594 272.559 104.586V100.162H271.439V99.238H272.559V97.39H273.609V99.238H274.981V100.162H273.609V104.362C273.609 104.866 273.833 105.23 274.295 105.23C274.589 105.23 274.869 105.104 275.009 104.95L275.317 105.734C275.051 105.986 274.673 106.168 274.057 106.168ZM282.092 106H281.042V101.548C281.042 100.358 280.426 100.008 279.516 100.008C278.704 100.008 277.92 100.512 277.514 101.058V106H276.464V96.662H277.514V100.218C277.99 99.658 278.914 99.07 279.936 99.07C281.35 99.07 282.092 99.756 282.092 101.226V106ZM287.241 106.168C285.239 106.168 283.797 104.726 283.797 102.612C283.797 100.652 285.197 99.07 287.129 99.07C289.173 99.07 290.377 100.666 290.377 102.696V102.962H284.903C284.987 104.236 285.883 105.3 287.339 105.3C288.109 105.3 288.893 104.992 289.425 104.446L289.929 105.132C289.257 105.804 288.347 106.168 287.241 106.168ZM289.341 102.192C289.327 101.184 288.655 99.938 287.115 99.938C285.673 99.938 284.959 101.156 284.903 102.192H289.341ZM4.602 122.168C2.6 122.168 1.158 120.726 1.158 118.612C1.158 116.652 2.558 115.07 4.49 115.07C6.534 115.07 7.738 116.666 7.738 118.696V118.962H2.264C2.348 120.236 3.244 121.3 4.7 121.3C5.47 121.3 6.254 120.992 6.786 120.446L7.29 121.132C6.618 121.804 5.708 122.168 4.602 122.168ZM6.702 118.192C6.688 117.184 6.016 115.938 4.476 115.938C3.034 115.938 2.32 117.156 2.264 118.192H6.702ZM11.5807 122.168C10.4747 122.168 9.53667 121.832 8.85067 121.104L9.39667 120.348C9.84467 120.866 10.6987 121.314 11.6227 121.314C12.6587 121.314 13.2187 120.824 13.2187 120.152C13.2187 118.514 9.03267 119.522 9.03267 117.016C9.03267 115.966 9.94267 115.07 11.5527 115.07C12.7007 115.07 13.5127 115.504 14.0587 116.05L13.5687 116.778C13.1627 116.288 12.4207 115.924 11.5527 115.924C10.6287 115.924 10.0547 116.386 10.0547 116.988C10.0547 118.472 14.2407 117.492 14.2407 120.124C14.2407 121.258 13.3307 122.168 11.5807 122.168ZM17.6545 122.168C16.6605 122.168 16.1565 121.594 16.1565 120.586V116.162H15.0365V115.238H16.1565V113.39H17.2065V115.238H18.5785V116.162H17.2065V120.362C17.2065 120.866 17.4305 121.23 17.8925 121.23C18.1865 121.23 18.4665 121.104 18.6065 120.95L18.9145 121.734C18.6485 121.986 18.2705 122.168 17.6545 122.168ZM20.5797 114.272C20.2017 114.272 19.8797 113.964 19.8797 113.572C19.8797 113.18 20.2017 112.858 20.5797 112.858C20.9717 112.858 21.2937 113.18 21.2937 113.572C21.2937 113.964 20.9717 114.272 20.5797 114.272ZM21.1117 122H20.0617V115.238H21.1117V122ZM32.4183 122H31.3683V117.408C31.3683 116.554 30.9903 116.008 30.1223 116.008C29.4223 116.008 28.6803 116.512 28.3303 117.044V122H27.2803V117.408C27.2803 116.554 26.9163 116.008 26.0343 116.008C25.3483 116.008 24.6203 116.512 24.2563 117.058V122H23.2063V115.238H24.2563V116.218C24.5363 115.784 25.4463 115.07 26.4403 115.07C27.4763 115.07 28.0643 115.63 28.2603 116.33C28.6383 115.714 29.5482 115.07 30.5283 115.07C31.7603 115.07 32.4183 115.756 32.4183 117.114V122ZM39.7909 122H38.7409V121.23C38.1809 121.846 37.4109 122.168 36.5009 122.168C35.3529 122.168 34.1349 121.398 34.1349 119.928C34.1349 118.416 35.3529 117.702 36.5009 117.702C37.4249 117.702 38.1949 117.996 38.7409 118.626V117.408C38.7409 116.498 38.0129 115.98 37.0329 115.98C36.2209 115.98 35.5629 116.274 34.9609 116.918L34.4709 116.19C35.1989 115.434 36.0669 115.07 37.1729 115.07C38.6009 115.07 39.7909 115.714 39.7909 117.352V122ZM36.8789 121.412C37.6209 121.412 38.3349 121.132 38.7409 120.572V119.298C38.3349 118.738 37.6209 118.458 36.8789 118.458C35.8989 118.458 35.2129 119.074 35.2129 119.942C35.2129 120.796 35.8989 121.412 36.8789 121.412ZM43.6037 122.168C42.6097 122.168 42.1057 121.594 42.1057 120.586V116.162H40.9857V115.238H42.1057V113.39H43.1557V115.238H44.5277V116.162H43.1557V120.362C43.1557 120.866 43.3797 121.23 43.8417 121.23C44.1357 121.23 44.4157 121.104 44.5557 120.95L44.8637 121.734C44.5977 121.986 44.2197 122.168 43.6037 122.168ZM46.5289 114.272C46.1509 114.272 45.8289 113.964 45.8289 113.572C45.8289 113.18 46.1509 112.858 46.5289 112.858C46.9209 112.858 47.2429 113.18 47.2429 113.572C47.2429 113.964 46.9209 114.272 46.5289 114.272ZM47.0609 122H46.0109V115.238H47.0609V122ZM52.1095 122.168C50.0515 122.168 48.7635 120.572 48.7635 118.612C48.7635 116.652 50.0515 115.07 52.1095 115.07C54.1675 115.07 55.4555 116.652 55.4555 118.612C55.4555 120.572 54.1675 122.168 52.1095 122.168ZM52.1095 121.23C53.5515 121.23 54.3495 119.998 54.3495 118.612C54.3495 117.24 53.5515 116.008 52.1095 116.008C50.6675 116.008 49.8555 117.24 49.8555 118.612C49.8555 119.998 50.6675 121.23 52.1095 121.23ZM62.7812 122H61.7312V117.576C61.7312 116.386 61.1292 116.008 60.2192 116.008C59.3932 116.008 58.6092 116.512 58.2172 117.058V122H57.1672V115.238H58.2172V116.218C58.6932 115.658 59.6172 115.07 60.6252 115.07C62.0392 115.07 62.7812 115.784 62.7812 117.254V122ZM71.4415 122.168C69.3835 122.168 68.0955 120.572 68.0955 118.612C68.0955 116.652 69.3835 115.07 71.4415 115.07C73.4995 115.07 74.7875 116.652 74.7875 118.612C74.7875 120.572 73.4995 122.168 71.4415 122.168ZM71.4415 121.23C72.8835 121.23 73.6815 119.998 73.6815 118.612C73.6815 117.24 72.8835 116.008 71.4415 116.008C69.9995 116.008 69.1875 117.24 69.1875 118.612C69.1875 119.998 69.9995 121.23 71.4415 121.23ZM77.8432 122H76.7932V116.162H75.6732V115.238H76.7932V114.72C76.7932 113.334 77.5492 112.522 78.7532 112.522C79.2852 112.522 79.7612 112.648 80.1812 113.04L79.7472 113.726C79.5232 113.53 79.2572 113.39 78.9072 113.39C78.2212 113.39 77.8432 113.866 77.8432 114.72V115.238H79.2152V116.162H77.8432V122ZM86.2154 122.168C85.1094 122.168 84.1714 121.832 83.4854 121.104L84.0314 120.348C84.4794 120.866 85.3334 121.314 86.2574 121.314C87.2934 121.314 87.8534 120.824 87.8534 120.152C87.8534 118.514 83.6674 119.522 83.6674 117.016C83.6674 115.966 84.5774 115.07 86.1874 115.07C87.3354 115.07 88.1474 115.504 88.6934 116.05L88.2034 116.778C87.7974 116.288 87.0554 115.924 86.1874 115.924C85.2634 115.924 84.6894 116.386 84.6894 116.988C84.6894 118.472 88.8754 117.492 88.8754 120.124C88.8754 121.258 87.9654 122.168 86.2154 122.168ZM96.1953 122H95.1453V121.048C94.6273 121.636 93.7453 122.168 92.7373 122.168C91.3233 122.168 90.5813 121.482 90.5813 120.012V115.238H91.6313V119.69C91.6313 120.88 92.2333 121.23 93.1433 121.23C93.9693 121.23 94.7533 120.754 95.1453 120.208V115.238H96.1953V122ZM99.3422 120.166C99.7062 120.754 100.532 121.23 101.358 121.23C102.73 121.23 103.542 120.124 103.542 118.626C103.542 117.128 102.73 116.008 101.358 116.008C100.532 116.008 99.7062 116.512 99.3422 117.1V120.166ZM99.3422 122H98.2922V112.662H99.3422V116.26C99.8882 115.518 100.7 115.07 101.624 115.07C103.388 115.07 104.634 116.47 104.634 118.626C104.634 120.824 103.388 122.168 101.624 122.168C100.672 122.168 99.8462 121.678 99.3422 120.992V122ZM106.863 114.272C106.485 114.272 106.163 113.964 106.163 113.572C106.163 113.18 106.485 112.858 106.863 112.858C107.255 112.858 107.577 113.18 107.577 113.572C107.577 113.964 107.255 114.272 106.863 114.272ZM105.393 124.744C104.707 124.744 104.343 124.576 103.909 124.24L104.287 123.442C104.525 123.68 104.833 123.876 105.253 123.876C105.883 123.876 106.345 123.512 106.345 122.658V115.238H107.395V122.658C107.395 123.988 106.681 124.744 105.393 124.744ZM112.541 122.168C110.539 122.168 109.097 120.726 109.097 118.612C109.097 116.652 110.497 115.07 112.429 115.07C114.473 115.07 115.677 116.666 115.677 118.696V118.962H110.203C110.287 120.236 111.183 121.3 112.639 121.3C113.409 121.3 114.193 120.992 114.725 120.446L115.229 121.132C114.557 121.804 113.647 122.168 112.541 122.168ZM114.641 118.192C114.627 117.184 113.955 115.938 112.415 115.938C110.973 115.938 110.259 117.156 110.203 118.192H114.641ZM120.36 122.168C118.344 122.168 116.986 120.628 116.986 118.612C116.986 116.61 118.344 115.07 120.36 115.07C121.592 115.07 122.32 115.574 122.838 116.246L122.138 116.89C121.69 116.274 121.116 116.008 120.416 116.008C118.974 116.008 118.078 117.114 118.078 118.612C118.078 120.11 118.974 121.23 120.416 121.23C121.116 121.23 121.69 120.95 122.138 120.348L122.838 120.992C122.32 121.664 121.592 122.168 120.36 122.168ZM126.018 122.168C125.024 122.168 124.52 121.594 124.52 120.586V116.162H123.4V115.238H124.52V113.39H125.57V115.238H126.942V116.162H125.57V120.362C125.57 120.866 125.794 121.23 126.256 121.23C126.55 121.23 126.83 121.104 126.97 120.95L127.278 121.734C127.012 121.986 126.634 122.168 126.018 122.168ZM129.027 116.232H128.509C128.509 116.232 128.131 113.362 128.131 113.166C128.131 112.816 128.411 112.522 128.761 112.522C129.125 112.522 129.405 112.816 129.405 113.166C129.405 113.362 129.027 116.232 129.027 116.232ZM132.932 122.168C131.826 122.168 130.888 121.832 130.202 121.104L130.748 120.348C131.196 120.866 132.05 121.314 132.974 121.314C134.01 121.314 134.57 120.824 134.57 120.152C134.57 118.514 130.384 119.522 130.384 117.016C130.384 115.966 131.294 115.07 132.904 115.07C134.052 115.07 134.864 115.504 135.41 116.05L134.92 116.778C134.514 116.288 133.772 115.924 132.904 115.924C131.98 115.924 131.406 116.386 131.406 116.988C131.406 118.472 135.592 117.492 135.592 120.124C135.592 121.258 134.682 122.168 132.932 122.168ZM142.251 122H141.201V116.162H140.081V115.238H141.201V114.72C141.201 113.334 141.957 112.522 143.161 112.522C143.693 112.522 144.169 112.648 144.589 113.04L144.155 113.726C143.931 113.53 143.665 113.39 143.315 113.39C142.629 113.39 142.251 113.866 142.251 114.72V115.238H143.623V116.162H142.251V122ZM150.15 122H149.1V121.23C148.54 121.846 147.77 122.168 146.86 122.168C145.712 122.168 144.494 121.398 144.494 119.928C144.494 118.416 145.712 117.702 146.86 117.702C147.784 117.702 148.554 117.996 149.1 118.626V117.408C149.1 116.498 148.372 115.98 147.392 115.98C146.58 115.98 145.922 116.274 145.32 116.918L144.83 116.19C145.558 115.434 146.426 115.07 147.532 115.07C148.96 115.07 150.15 115.714 150.15 117.352V122ZM147.238 121.412C147.98 121.412 148.694 121.132 149.1 120.572V119.298C148.694 118.738 147.98 118.458 147.238 118.458C146.258 118.458 145.572 119.074 145.572 119.942C145.572 120.796 146.258 121.412 147.238 121.412ZM155.237 122.168C153.221 122.168 151.863 120.628 151.863 118.612C151.863 116.61 153.221 115.07 155.237 115.07C156.469 115.07 157.197 115.574 157.715 116.246L157.015 116.89C156.567 116.274 155.993 116.008 155.293 116.008C153.851 116.008 152.955 117.114 152.955 118.612C152.955 120.11 153.851 121.23 155.293 121.23C155.993 121.23 156.567 120.95 157.015 120.348L157.715 120.992C157.197 121.664 156.469 122.168 155.237 122.168ZM159.705 114.272C159.327 114.272 159.005 113.964 159.005 113.572C159.005 113.18 159.327 112.858 159.705 112.858C160.097 112.858 160.419 113.18 160.419 113.572C160.419 113.964 160.097 114.272 159.705 114.272ZM160.237 122H159.187V115.238H160.237V122ZM167.609 122H166.559V121.23C165.999 121.846 165.229 122.168 164.319 122.168C163.171 122.168 161.953 121.398 161.953 119.928C161.953 118.416 163.171 117.702 164.319 117.702C165.243 117.702 166.013 117.996 166.559 118.626V117.408C166.559 116.498 165.831 115.98 164.851 115.98C164.039 115.98 163.381 116.274 162.779 116.918L162.289 116.19C163.017 115.434 163.885 115.07 164.991 115.07C166.419 115.07 167.609 115.714 167.609 117.352V122ZM164.697 121.412C165.439 121.412 166.153 121.132 166.559 120.572V119.298C166.153 118.738 165.439 118.458 164.697 118.458C163.717 118.458 163.031 119.074 163.031 119.942C163.031 120.796 163.717 121.412 164.697 121.412ZM170.764 122H169.714V112.662H170.764V122ZM178.61 122.168C177.504 122.168 176.566 121.832 175.88 121.104L176.426 120.348C176.874 120.866 177.728 121.314 178.652 121.314C179.688 121.314 180.248 120.824 180.248 120.152C180.248 118.514 176.062 119.522 176.062 117.016C176.062 115.966 176.972 115.07 178.582 115.07C179.73 115.07 180.542 115.504 181.088 116.05L180.598 116.778C180.192 116.288 179.45 115.924 178.582 115.924C177.658 115.924 177.084 116.386 177.084 116.988C177.084 118.472 181.27 117.492 181.27 120.124C181.27 121.258 180.36 122.168 178.61 122.168ZM188.926 122H187.582L185.146 118.962L184.026 120.068V122H182.976V112.662H184.026V118.836L187.582 115.238H188.912L185.916 118.304L188.926 122ZM190.685 114.272C190.307 114.272 189.985 113.964 189.985 113.572C189.985 113.18 190.307 112.858 190.685 112.858C191.077 112.858 191.399 113.18 191.399 113.572C191.399 113.964 191.077 114.272 190.685 114.272ZM191.217 122H190.167V115.238H191.217V122ZM198.926 122H197.876V117.576C197.876 116.386 197.274 116.008 196.364 116.008C195.538 116.008 194.754 116.512 194.362 117.058V122H193.312V115.238H194.362V116.218C194.838 115.658 195.762 115.07 196.77 115.07C198.184 115.07 198.926 115.784 198.926 117.254V122ZM209.91 122H208.86V121.23C208.3 121.846 207.53 122.168 206.62 122.168C205.472 122.168 204.254 121.398 204.254 119.928C204.254 118.416 205.472 117.702 206.62 117.702C207.544 117.702 208.314 117.996 208.86 118.626V117.408C208.86 116.498 208.132 115.98 207.152 115.98C206.34 115.98 205.682 116.274 205.08 116.918L204.59 116.19C205.318 115.434 206.186 115.07 207.292 115.07C208.72 115.07 209.91 115.714 209.91 117.352V122ZM206.998 121.412C207.74 121.412 208.454 121.132 208.86 120.572V119.298C208.454 118.738 207.74 118.458 206.998 118.458C206.018 118.458 205.332 119.074 205.332 119.942C205.332 120.796 206.018 121.412 206.998 121.412ZM214.731 124.744C213.583 124.744 212.799 124.52 212.001 123.736L212.533 122.952C213.093 123.624 213.765 123.876 214.731 123.876C215.851 123.876 216.901 123.33 216.901 121.846V120.88C216.411 121.566 215.585 122.084 214.633 122.084C212.869 122.084 211.623 120.768 211.623 118.584C211.623 116.414 212.855 115.07 214.633 115.07C215.543 115.07 216.355 115.518 216.901 116.26V115.238H217.951V121.804C217.951 124.044 216.383 124.744 214.731 124.744ZM214.885 121.16C215.725 121.16 216.537 120.642 216.901 120.054V117.1C216.537 116.512 215.725 116.008 214.885 116.008C213.527 116.008 212.715 117.086 212.715 118.584C212.715 120.068 213.527 121.16 214.885 121.16ZM223.106 122.168C221.104 122.168 219.662 120.726 219.662 118.612C219.662 116.652 221.062 115.07 222.994 115.07C225.038 115.07 226.242 116.666 226.242 118.696V118.962H220.768C220.852 120.236 221.748 121.3 223.204 121.3C223.974 121.3 224.758 120.992 225.29 120.446L225.794 121.132C225.122 121.804 224.212 122.168 223.106 122.168ZM225.206 118.192C225.192 117.184 224.52 115.938 222.98 115.938C221.538 115.938 220.824 117.156 220.768 118.192H225.206ZM228.407 122.14C227.987 122.14 227.637 121.79 227.637 121.37C227.637 120.95 227.987 120.6 228.407 120.6C228.827 120.6 229.177 120.95 229.177 121.37C229.177 121.79 228.827 122.14 228.407 122.14Z" fill="#212121"/>
</svg>
