<svg width="8" height="16" viewBox="0 0 8 16" fill="none" xmlns="http://www.w3.org/2000/svg">
<path d="M4 0C2.875 0 2 0.90625 2 2C2 3.125 2.875 4 4 4C5.09375 4 6 3.125 6 2C6 0.90625 5.09375 0 4 0ZM7.71875 11.0938L6.21875 5.09375C6.125 4.78125 5.8125 4.5 5.5 4.5H5.125C4.40625 4.84375 3.59375 4.84375 2.84375 4.5H2.5C2.15625 4.5 1.84375 4.78125 1.75 5.09375L0.25 11.0938C0.125 11.5625 0.5 12 1 12H2.75V15.25C2.75 15.6875 3.0625 16 3.5 16H4.5C4.90625 16 5.25 15.6875 5.25 15.25V12H7C7.46875 12 7.84375 11.5625 7.71875 11.0938Z" fill="#5B5C5B"/>
</svg>
