<svg width="15" height="16" viewBox="0 0 15 16" fill="none" xmlns="http://www.w3.org/2000/svg">
<path d="M3.5 12.25V3H1.25C0.8125 3 0.5 3.34375 0.5 3.75V15.25C0.5 15.6875 0.8125 16 1.25 16H9.75C10.1562 16 10.5 15.6875 10.5 15.25V14H5.25C4.28125 14 3.5 13.2188 3.5 12.25ZM10.5 3.25V0H5.25C4.8125 0 4.5 0.34375 4.5 0.75V12.25C4.5 12.6875 4.8125 13 5.25 13H13.75C14.1562 13 14.5 12.6875 14.5 12.25V4H11.25C10.8125 4 10.5 3.6875 10.5 3.25ZM12.5 7.25V8.75C12.5 8.90625 12.375 9 12.25 9H10.5V10.75C10.5 10.9062 10.375 11 10.25 11H8.75C8.59375 11 8.5 10.9062 8.5 10.75V9H6.75C6.59375 9 6.5 8.90625 6.5 8.75V7.25C6.5 7.125 6.59375 7 6.75 7H8.5V5.25C8.5 5.125 8.59375 5 8.75 5H10.25C10.375 5 10.5 5.125 10.5 5.25V7H12.25C12.375 7 12.5 7.125 12.5 7.25ZM14.2812 2.28125L12.2188 0.21875C12.0938 0.125 11.8438 0 11.6875 0H11.5V3H14.5V2.8125C14.5 2.65625 14.375 2.40625 14.2812 2.28125Z" fill="#3CA70D"/>
</svg>
