<svg width="16" height="21" viewBox="0 0 16 21" fill="none" xmlns="http://www.w3.org/2000/svg">
<path d="M13.0938 3C14.4609 3 15.5938 4.13281 15.5938 5.5V18C15.5938 19.4062 14.4609 20.5 13.0938 20.5H3.09375C1.6875 20.5 0.59375 19.4062 0.59375 18V5.5C0.59375 4.13281 1.6875 3 3.09375 3H5.00781C5.32031 1.59375 6.57031 0.5 8.09375 0.5C9.57812 0.5 10.8281 1.59375 11.1406 3H13.0938ZM8.09375 2.375C7.54688 2.375 7.15625 2.80469 7.15625 3.3125C7.15625 3.85938 7.54688 4.25 8.09375 4.25C8.60156 4.25 9.03125 3.85938 9.03125 3.3125C9.03125 2.80469 8.60156 2.375 8.09375 2.375ZM13.7188 18V5.5C13.7188 5.1875 13.4062 4.875 13.0938 4.875H12.3516C12.4297 5.10938 12.4688 5.30469 12.4688 5.5V6.125C12.4688 6.47656 12.1562 6.75 11.8438 6.75H4.34375C3.99219 6.75 3.71875 6.47656 3.71875 6.125V5.5C3.71875 5.30469 3.71875 5.10938 3.79688 4.875H3.09375C2.74219 4.875 2.46875 5.1875 2.46875 5.5V18C2.46875 18.3516 2.74219 18.625 3.09375 18.625H13.0938C13.4062 18.625 13.7188 18.3516 13.7188 18ZM11.2188 11.75C11.5312 11.75 11.8438 12.0625 11.8438 12.375V13.625C11.8438 13.9766 11.5312 14.25 11.2188 14.25H9.34375V16.125C9.34375 16.4766 9.03125 16.75 8.71875 16.75H7.46875C7.11719 16.75 6.84375 16.4766 6.84375 16.125V14.25H4.96875C4.61719 14.25 4.34375 13.9766 4.34375 13.625V12.375C4.34375 12.0625 4.61719 11.75 4.96875 11.75H6.84375V9.875C6.84375 9.5625 7.11719 9.25 7.46875 9.25H8.71875C9.03125 9.25 9.34375 9.5625 9.34375 9.875V11.75H11.2188Z" fill="#2E7300"/>
</svg>
