<svg width="16" height="17" viewBox="0 0 16 17" fill="none" xmlns="http://www.w3.org/2000/svg">
<path d="M14.75 0.3927C14.5312 0.3927 14.3125 0.4552 14.0938 0.54895C12.5 1.2677 11.3438 1.48645 10.375 1.48645C8.3125 1.48645 7.09375 0.42395 4.71875 0.42395C3.84375 0.42395 2.78125 0.5802 1.4375 0.98645C1.375 0.6427 1.09375 0.3927 0.75 0.3927C0.3125 0.3927 0 0.73645 0 1.1427V16.0177C0 16.2365 0.15625 16.3927 0.375 16.3927H1.125C1.3125 16.3927 1.5 16.2365 1.5 16.0177V12.8615C2.65625 12.4865 3.65625 12.3302 4.5625 12.3302C7.09375 12.3302 8.875 13.3927 11.4062 13.3927C12.5 13.3927 13.75 13.2052 15.2812 12.6115C15.7188 12.4552 16 12.0802 16 11.6427V1.4552C16 0.79895 15.4062 0.3927 14.75 0.3927ZM5.5 1.6427C5.75 1.6427 6 1.8927 6 2.1427C6 2.42395 5.75 2.6427 5.5 2.6427C5.21875 2.6427 5 2.42395 5 2.1427C5 1.8927 5.21875 1.6427 5.5 1.6427ZM5.5 3.3927C5.75 3.3927 6 3.6427 6 3.8927C6 4.17395 5.75 4.3927 5.5 4.3927C5.21875 4.3927 5 4.17395 5 3.8927C5 3.6427 5.21875 3.3927 5.5 3.3927ZM3.25 1.6427C3.5 1.6427 3.75 1.8927 3.75 2.1427C3.75 2.42395 3.5 2.6427 3.25 2.6427C2.96875 2.6427 2.75 2.42395 2.75 2.1427C2.75 1.8927 2.96875 1.6427 3.25 1.6427ZM3.25 3.3927C3.5 3.3927 3.75 3.6427 3.75 3.8927C3.75 4.17395 3.5 4.3927 3.25 4.3927C2.96875 4.3927 2.75 4.17395 2.75 3.8927C2.75 3.6427 2.96875 3.3927 3.25 3.3927ZM14.5 11.3302C12.0312 12.2052 10.5625 11.9552 8.34375 11.424C6.0625 10.8302 4.21875 10.5177 1.5 11.2677V9.54895C4.375 8.5177 6.0625 8.9552 7.8125 9.3927C9.5 9.79895 11.3438 10.3302 14.5 9.3302V11.3302ZM14.5 7.7677C11.5938 8.7677 9.9375 8.36145 8.15625 7.92395C6.375 7.48645 4.5 7.0177 1.5 7.9552V6.04895C4.375 5.0177 6.0625 5.42395 7.8125 5.8927C9.5 6.29895 11.3438 6.8302 14.5 5.8302V7.7677ZM14.5 4.2677C11.4688 5.3302 9.78125 4.8302 8 4.3927V2.61145C8.6875 2.8302 9.4375 2.98645 10.375 2.98645C11.625 2.98645 12.9375 2.67395 14.5 2.0177V4.2677Z" fill="#999999"/>
</svg>
