<svg width="17" height="19" viewBox="0 0 17 19" fill="none" xmlns="http://www.w3.org/2000/svg">
<path d="M1.48828 2.5C0.925781 2.5 0.488281 2.96875 0.488281 3.5V18C0.488281 18.2812 0.707031 18.5 0.988281 18.5H1.98828C2.23828 18.5 2.48828 18.2812 2.48828 18V3.5C2.48828 2.96875 2.01953 2.5 1.48828 2.5ZM9.83203 12C8.05078 11.5312 6.36328 11.0938 3.48828 12.3438V14.5C9.26953 11.625 10.3945 16.1875 15.8945 13.7812C16.2383 13.625 16.4883 13.2812 16.4883 12.9062V11.7812C15.1133 12.3125 13.957 12.5312 12.957 12.5312C11.8008 12.5312 10.832 12.25 9.83203 12ZM9.83203 9C8.05078 8.53125 6.36328 8.09375 3.48828 9.34375V11.2812C6.42578 10.0938 8.30078 10.5625 10.1133 11.0312C11.8945 11.5 13.582 11.9375 16.4883 10.6875V8.75C15.1133 9.3125 13.957 9.53125 12.957 9.53125C11.8008 9.53125 10.832 9.25 9.83203 9ZM10.1445 5.0625C11.7695 5.5625 13.1758 5.96875 16.4883 4.4375V3.46875C16.4883 2.6875 15.6445 2.28125 14.9258 2.65625C9.58203 5.375 10.0195 0.5625 3.48828 3.53125V8.28125C6.42578 7.09375 8.30078 7.5625 10.1133 8.03125C11.8945 8.5 13.582 8.9375 16.4883 7.6875V5.53125C14.8008 6.28125 13.5508 6.53125 12.5195 6.53125C11.5195 6.53125 10.6758 6.28125 9.86328 6.03125C9.73828 5.96875 9.61328 5.9375 9.48828 5.90625V4.875C9.70703 4.9375 9.92578 5 10.1445 5.0625ZM5.48828 6.53125C5.20703 6.53125 4.98828 6.28125 4.98828 6.03125C4.98828 5.75 5.20703 5.53125 5.48828 5.53125C5.73828 5.53125 5.98828 5.75 5.98828 6.03125C5.98828 6.28125 5.73828 6.53125 5.48828 6.53125ZM5.48828 4.78125C5.20703 4.78125 4.98828 4.5625 4.98828 4.28125C4.98828 4 5.20703 3.78125 5.48828 3.78125C5.73828 3.78125 5.98828 4 5.98828 4.28125C5.98828 4.5625 5.73828 4.78125 5.48828 4.78125ZM7.48828 6.28125C7.20703 6.28125 6.98828 6.0625 6.98828 5.78125C6.98828 5.5 7.20703 5.28125 7.48828 5.28125C7.73828 5.28125 7.98828 5.5 7.98828 5.78125C7.98828 6.03125 7.73828 6.28125 7.48828 6.28125ZM7.48828 4.53125C7.20703 4.53125 6.98828 4.3125 6.98828 4.03125C6.98828 3.75 7.20703 3.53125 7.48828 3.53125C7.73828 3.53125 7.98828 3.75 7.98828 4.03125C7.98828 4.3125 7.73828 4.53125 7.48828 4.53125Z" fill="#5B5C5B"/>
</svg>
