<svg width="16" height="16" viewBox="0 0 16 16" fill="none" xmlns="http://www.w3.org/2000/svg">
<path d="M14.6562 12.625L11 6.71875V1.5H11.625C11.8125 1.5 12 1.34375 12 1.125V0.375C12 0.1875 11.8125 0 11.625 0H4.375C4.15625 0 4 0.1875 4 0.375V1.125C4 1.34375 4.15625 1.5 4.375 1.5H5V6.71875L1.3125 12.625C0.40625 14.0938 1.46875 16 3.1875 16H12.7812C14.5 16 15.5625 14.0938 14.6562 12.625ZM12.7812 14.5H3.1875C2.625 14.5 2.3125 13.875 2.59375 13.4062L6.25 7.53125C6.40625 7.28125 6.5 7 6.5 6.71875V1.5H9.5V6.71875C9.5 7 9.5625 7.28125 9.71875 7.53125L13.375 13.4062C13.6562 13.875 13.3438 14.5 12.7812 14.5Z" fill="#4E9D2D"/>
</svg>
