<svg width="16" height="13" viewBox="0 0 16 13" fill="none" xmlns="http://www.w3.org/2000/svg">
<path d="M15.6016 5.54688C15.3555 5.21875 14.9727 5 14.5352 5H3.78906C3.24219 5 2.75 5.35547 2.55859 5.875L1 10.0312V2.375C1 1.91016 1.38281 1.5 1.875 1.5H5.07422C5.32031 1.5 5.53906 1.60938 5.70312 1.77344L7.17969 3.25H12.375C12.8398 3.25 13.25 3.66016 13.25 4.125H14.125C14.125 3.16797 13.332 2.375 12.375 2.375H7.5625L6.30469 1.14453C5.97656 0.816406 5.53906 0.625 5.07422 0.625H1.875C0.890625 0.625 0.125 1.41797 0.125 2.375V11.125C0.125 12.1094 0.890625 12.875 1.875 12.875H12.8945C13.4688 12.875 13.9609 12.5195 14.125 11.9727L15.7656 6.72266C15.9297 6.3125 15.8477 5.875 15.6016 5.54688ZM14.9727 6.44922L13.332 11.6992C13.2773 11.8906 13.1133 12 12.8945 12H1.875C1.76562 12 1.68359 12 1.60156 11.9727C1.54688 11.918 1.49219 11.8906 1.46484 11.8359C1.38281 11.6992 1.35547 11.5625 1.41016 11.4258L3.37891 6.17578C3.43359 6.01172 3.59766 5.875 3.78906 5.875H14.5625C14.6992 5.875 14.8086 5.95703 14.8906 6.06641C14.9727 6.17578 15 6.3125 14.9727 6.44922Z" fill="#3CA70D"/>
<path d="M2.55859 5.875L2.65223 5.91011L2.65243 5.90957L2.55859 5.875ZM1 10.0312H0.9L1.09363 10.0664L1 10.0312ZM7.17969 3.25L7.10898 3.32071L7.13827 3.35H7.17969V3.25ZM13.25 4.125H13.15V4.225H13.25V4.125ZM14.125 4.125V4.225H14.225V4.125H14.125ZM7.5625 2.375L7.49257 2.44648L7.52172 2.475H7.5625V2.375ZM6.30469 1.14453L6.23397 1.21525L6.23476 1.21601L6.30469 1.14453ZM14.125 11.9727L14.0295 11.9428L14.0292 11.9439L14.125 11.9727ZM15.7656 6.72266L15.6725 6.68541L15.6702 6.69283L15.7656 6.72266ZM14.9727 6.44922L15.0686 6.47921L15.0707 6.46883L14.9727 6.44922ZM13.332 11.6992L13.2366 11.6694L13.2359 11.6717L13.332 11.6992ZM1.60156 11.9727L1.53085 12.0434L1.54754 12.0601L1.56994 12.0675L1.60156 11.9727ZM1.46484 11.8359L1.55455 11.7911L1.55059 11.7845L1.46484 11.8359ZM1.41016 11.4258L1.50303 11.4629L1.50379 11.4609L1.41016 11.4258ZM3.37891 6.17578L3.4726 6.21092L3.47377 6.2074L3.37891 6.17578ZM15.6816 5.48688C15.4186 5.1363 15.0074 4.9 14.5352 4.9V5.1C14.9379 5.1 15.2923 5.3012 15.5216 5.60687L15.6816 5.48688ZM14.5352 4.9H3.78906V5.1H14.5352V4.9ZM3.78906 4.9C3.19846 4.9 2.67001 5.28333 2.46476 5.84043L2.65243 5.90957C2.82999 5.42761 3.28591 5.1 3.78906 5.1V4.9ZM2.46496 5.83989L0.906367 9.99614L1.09363 10.0664L2.65223 5.91011L2.46496 5.83989ZM1.1 10.0312V2.375H0.9V10.0312H1.1ZM1.1 2.375C1.1 1.96335 1.44006 1.6 1.875 1.6V1.4C1.32557 1.4 0.9 1.85697 0.9 2.375H1.1ZM1.875 1.6H5.07422V1.4H1.875V1.6ZM5.07422 1.6C5.28942 1.6 5.48377 1.6955 5.63241 1.84415L5.77384 1.70273C5.59436 1.52325 5.35121 1.4 5.07422 1.4V1.6ZM5.63241 1.84415L7.10898 3.32071L7.2504 3.17929L5.77384 1.70273L5.63241 1.84415ZM7.17969 3.35H12.375V3.15H7.17969V3.35ZM12.375 3.35C12.7846 3.35 13.15 3.71538 13.15 4.125H13.35C13.35 3.60493 12.8951 3.15 12.375 3.15V3.35ZM13.25 4.225H14.125V4.025H13.25V4.225ZM14.225 4.125C14.225 3.11274 13.3873 2.275 12.375 2.275V2.475C13.2768 2.475 14.025 3.2232 14.025 4.125H14.225ZM12.375 2.275H7.5625V2.475H12.375V2.275ZM7.63243 2.30352L6.37462 1.07305L6.23476 1.21601L7.49257 2.44648L7.63243 2.30352ZM6.3754 1.07382C6.02957 0.727997 5.56704 0.525 5.07422 0.525V0.725C5.51109 0.725 5.92355 0.904816 6.23398 1.21524L6.3754 1.07382ZM5.07422 0.525H1.875V0.725H5.07422V0.525ZM1.875 0.525C0.83438 0.525 0.025 1.36376 0.025 2.375H0.225C0.225 1.47218 0.94687 0.725 1.875 0.725V0.525ZM0.025 2.375V11.125H0.225V2.375H0.025ZM0.025 11.125C0.025 12.1646 0.835397 12.975 1.875 12.975V12.775C0.945853 12.775 0.225 12.0541 0.225 11.125H0.025ZM1.875 12.975H12.8945V12.775H1.875V12.975ZM12.8945 12.975C13.5114 12.975 14.0436 12.592 14.2208 12.0014L14.0292 11.9439C13.8783 12.4471 13.4261 12.775 12.8945 12.775V12.975ZM14.2204 12.0025L15.8611 6.75248L15.6702 6.69283L14.0296 11.9428L14.2204 12.0025ZM15.8585 6.7598C16.0366 6.31446 15.9467 5.84044 15.6816 5.48688L15.5216 5.60687C15.7486 5.90956 15.8228 6.31054 15.6728 6.68552L15.8585 6.7598ZM14.8772 6.41939L13.2366 11.6694L13.4275 11.729L15.0681 6.47905L14.8772 6.41939ZM13.2359 11.6717C13.1956 11.8128 13.0769 11.9 12.8945 11.9V12.1C13.1497 12.1 13.3591 11.9685 13.4282 11.7267L13.2359 11.6717ZM12.8945 11.9H1.875V12.1H12.8945V11.9ZM1.875 11.9C1.76208 11.9 1.69705 11.8991 1.63319 11.8778L1.56994 12.0675C1.67014 12.1009 1.76917 12.1 1.875 12.1V11.9ZM1.67227 11.9019C1.64145 11.8711 1.60574 11.8436 1.58803 11.8284C1.56693 11.8103 1.55884 11.8003 1.55429 11.7912L1.3754 11.8807C1.3982 11.9262 1.43112 11.9573 1.45787 11.9802C1.48801 12.0061 1.50699 12.0195 1.53085 12.0434L1.67227 11.9019ZM1.55059 11.7845C1.479 11.6652 1.46347 11.5618 1.503 11.4629L1.31731 11.3886C1.24747 11.5632 1.28663 11.7333 1.37909 11.8874L1.55059 11.7845ZM1.50379 11.4609L3.47254 6.21089L3.28527 6.14067L1.31652 11.3907L1.50379 11.4609ZM3.47377 6.2074C3.51626 6.07996 3.64498 5.975 3.78906 5.975V5.775C3.55033 5.775 3.35093 5.94348 3.28404 6.14416L3.47377 6.2074ZM3.78906 5.975H14.5625V5.775H3.78906V5.975ZM14.5625 5.975C14.655 5.975 14.7382 6.02983 14.8106 6.12641L14.9706 6.00641C14.879 5.88423 14.7435 5.775 14.5625 5.775V5.975ZM14.8106 6.12641C14.8742 6.21124 14.8968 6.31852 14.8746 6.42961L15.0707 6.46883C15.1032 6.30648 15.0711 6.14033 14.9706 6.00641L14.8106 6.12641Z" fill="#3CA70D"/>
</svg>
