<svg width="18" height="17" viewBox="0 0 18 17" fill="none" xmlns="http://www.w3.org/2000/svg">
<path d="M9 7.15234C9 4.68359 6.96875 2.65234 4.5 2.65234C2 2.65234 0 4.68359 0 7.15234C0 9.40234 1.59375 11.2461 3.75 11.5898V13.4023H2.375C2.15625 13.4023 2 13.5898 2 13.7773V14.5273C2 14.7461 2.15625 14.9023 2.375 14.9023H3.75V16.2773C3.75 16.4961 3.90625 16.6523 4.125 16.6523H4.875C5.0625 16.6523 5.25 16.4961 5.25 16.2773V14.9023H6.625C6.8125 14.9023 7 14.7461 7 14.5273V13.7773C7 13.5898 6.8125 13.4023 6.625 13.4023H5.25V11.5898C7.375 11.2461 9 9.40234 9 7.15234ZM1.5 7.15234C1.5 5.52734 2.84375 4.15234 4.5 4.15234C6.125 4.15234 7.5 5.52734 7.5 7.15234C7.5 8.80859 6.125 10.1523 4.5 10.1523C2.84375 10.1523 1.5 8.80859 1.5 7.15234ZM18 1.02734C18 0.839844 17.8125 0.652344 17.625 0.652344H15.6562C15.3125 0.652344 15.125 1.05859 15.375 1.30859L15.8438 1.74609L14.0938 3.49609C13.3438 2.96484 12.4688 2.65234 11.5 2.65234C10.4375 2.65234 9.46875 3.02734 8.6875 3.65234C9.03125 4.02734 9.28125 4.46484 9.5 4.93359C10.0312 4.46484 10.7188 4.18359 11.5 4.18359C13.125 4.18359 14.5 5.52734 14.5 7.18359C14.5 8.80859 13.125 10.1836 11.5 10.1836C10.7188 10.1836 10.0312 9.87109 9.5 9.43359C9.28125 9.87109 9.03125 10.3086 8.6875 10.7148C9.46875 11.3086 10.4375 11.6523 11.5 11.6523C13.9688 11.6523 16 9.65234 16 7.15234C16 6.18359 15.6875 5.30859 15.1562 4.55859L16.9062 2.80859L17.3438 3.27734C17.5938 3.49609 18 3.33984 18 2.99609V1.02734Z" fill="#999999"/>
</svg>
