<svg width="43" height="55" viewBox="0 0 43 55" fill="none" xmlns="http://www.w3.org/2000/svg">
<ellipse cx="21.5" cy="20.3693" rx="20.5" ry="20.3693" fill="url(#paint0_linear_480_4354)"/>
<g filter="url(#filter0_d_480_4354)">
<g filter="url(#filter1_b_480_4354)">
<path d="M30.2166 15.8984C30.7689 15.8984 31.2197 16.3486 31.2003 16.9006C30.8923 25.6889 26.4857 28.3997 21.0948 28.3997C15.7039 28.3997 11.3224 25.6889 11.0162 16.9006C10.997 16.3486 11.4466 15.8984 11.9989 15.8984C13.706 15.8984 16.5436 15.8984 21.0948 15.8984C26.0706 15.8984 27.6585 15.8984 30.2166 15.8984Z" fill="url(#paint1_radial_480_4354)" fill-opacity="0.5"/>
</g>
<mask id="path-3-inside-1_480_4354" fill="white">
<path d="M30.2166 15.8984C30.7689 15.8984 31.2197 16.3486 31.2003 16.9006C30.8923 25.6889 26.4857 28.3997 21.0948 28.3997C15.7039 28.3997 11.3224 25.6889 11.0162 16.9006C10.997 16.3486 11.4466 15.8984 11.9989 15.8984C13.706 15.8984 16.5436 15.8984 21.0948 15.8984C26.0706 15.8984 27.6585 15.8984 30.2166 15.8984Z"/>
</mask>
<path d="M30.2166 15.8984L30.2166 16.3984L30.2166 15.8984ZM30.7006 16.883C30.5493 21.2013 29.3945 23.933 27.7038 25.5885C26.0145 27.2427 23.7108 27.8997 21.0948 27.8997V28.8997C23.8696 28.8997 26.4647 28.2013 28.4034 26.303C30.3408 24.406 31.5433 21.3881 31.7 16.9181L30.7006 16.883ZM21.0948 27.8997C18.4787 27.8997 16.1819 27.2427 14.4992 25.5891C12.8149 23.9339 11.6664 21.2021 11.5159 16.8831L10.5165 16.918C10.6722 21.3873 11.8676 24.4051 13.7983 26.3024C15.7306 28.2013 18.3199 28.8997 21.0948 28.8997V27.8997ZM11.9989 16.3984C12.0022 16.3984 12.0056 16.3984 12.0089 16.3984C12.0122 16.3984 12.0156 16.3984 12.0189 16.3984C12.0223 16.3984 12.0257 16.3984 12.029 16.3984C12.0324 16.3984 12.0357 16.3984 12.0391 16.3984C12.0425 16.3984 12.0458 16.3984 12.0492 16.3984C12.0526 16.3984 12.056 16.3984 12.0594 16.3984C12.0628 16.3984 12.0661 16.3984 12.0695 16.3984C12.0729 16.3984 12.0763 16.3984 12.0797 16.3984C12.0831 16.3984 12.0865 16.3984 12.09 16.3984C12.0934 16.3984 12.0968 16.3984 12.1002 16.3984C12.1036 16.3984 12.1071 16.3984 12.1105 16.3984C12.1139 16.3984 12.1174 16.3984 12.1208 16.3984C12.1242 16.3984 12.1277 16.3984 12.1311 16.3984C12.1346 16.3984 12.138 16.3984 12.1415 16.3984C12.1449 16.3984 12.1484 16.3984 12.1519 16.3984C12.1553 16.3984 12.1588 16.3984 12.1623 16.3984C12.1657 16.3984 12.1692 16.3984 12.1727 16.3984C12.1762 16.3984 12.1797 16.3984 12.1832 16.3984C12.1866 16.3984 12.1901 16.3984 12.1936 16.3984C12.1971 16.3984 12.2006 16.3984 12.2041 16.3984C12.2077 16.3984 12.2112 16.3984 12.2147 16.3984C12.2182 16.3984 12.2217 16.3984 12.2253 16.3984C12.2288 16.3984 12.2323 16.3984 12.2358 16.3984C12.2394 16.3984 12.2429 16.3984 12.2465 16.3984C12.25 16.3984 12.2536 16.3984 12.2571 16.3984C12.2607 16.3984 12.2642 16.3984 12.2678 16.3984C12.2713 16.3984 12.2749 16.3984 12.2785 16.3984C12.282 16.3984 12.2856 16.3984 12.2892 16.3984C12.2928 16.3984 12.2964 16.3984 12.2999 16.3984C12.3035 16.3984 12.3071 16.3984 12.3107 16.3984C12.3143 16.3984 12.3179 16.3984 12.3215 16.3984C12.3251 16.3984 12.3287 16.3984 12.3324 16.3984C12.336 16.3984 12.3396 16.3984 12.3432 16.3984C12.3468 16.3984 12.3505 16.3984 12.3541 16.3984C12.3577 16.3984 12.3614 16.3984 12.365 16.3984C12.3687 16.3984 12.3723 16.3984 12.376 16.3984C12.3796 16.3984 12.3833 16.3984 12.3869 16.3984C12.3906 16.3984 12.3942 16.3984 12.3979 16.3984C12.4016 16.3984 12.4052 16.3984 12.4089 16.3984C12.4126 16.3984 12.4163 16.3984 12.42 16.3984C12.4237 16.3984 12.4273 16.3984 12.431 16.3984C12.4347 16.3984 12.4384 16.3984 12.4421 16.3984C12.4458 16.3984 12.4496 16.3984 12.4533 16.3984C12.457 16.3984 12.4607 16.3984 12.4644 16.3984C12.4681 16.3984 12.4719 16.3984 12.4756 16.3984C12.4793 16.3984 12.4831 16.3984 12.4868 16.3984C12.4905 16.3984 12.4943 16.3984 12.498 16.3984C12.5018 16.3984 12.5055 16.3984 12.5093 16.3984C12.5131 16.3984 12.5168 16.3984 12.5206 16.3984C12.5244 16.3984 12.5281 16.3984 12.5319 16.3984C12.5357 16.3984 12.5395 16.3984 12.5432 16.3984C12.547 16.3984 12.5508 16.3984 12.5546 16.3984C12.5584 16.3984 12.5622 16.3984 12.566 16.3984C12.5698 16.3984 12.5736 16.3984 12.5774 16.3984C12.5813 16.3984 12.5851 16.3984 12.5889 16.3984C12.5927 16.3984 12.5965 16.3984 12.6004 16.3984C12.6042 16.3984 12.608 16.3984 12.6119 16.3984C12.6157 16.3984 12.6196 16.3984 12.6234 16.3984C12.6273 16.3984 12.6311 16.3984 12.635 16.3984C12.6388 16.3984 12.6427 16.3984 12.6466 16.3984C12.6504 16.3984 12.6543 16.3984 12.6582 16.3984C12.6621 16.3984 12.6659 16.3984 12.6698 16.3984C12.6737 16.3984 12.6776 16.3984 12.6815 16.3984C12.6854 16.3984 12.6893 16.3984 12.6932 16.3984C12.6971 16.3984 12.701 16.3984 12.7049 16.3984C12.7088 16.3984 12.7127 16.3984 12.7167 16.3984C12.7206 16.3984 12.7245 16.3984 12.7284 16.3984C12.7324 16.3984 12.7363 16.3984 12.7403 16.3984C12.7442 16.3984 12.7481 16.3984 12.7521 16.3984C12.756 16.3984 12.76 16.3984 12.764 16.3984C12.7679 16.3984 12.7719 16.3984 12.7758 16.3984C12.7798 16.3984 12.7838 16.3984 12.7878 16.3984C12.7917 16.3984 12.7957 16.3984 12.7997 16.3984C12.8037 16.3984 12.8077 16.3984 12.8117 16.3984C12.8157 16.3984 12.8197 16.3984 12.8237 16.3984C12.8277 16.3984 12.8317 16.3984 12.8357 16.3984C12.8397 16.3984 12.8438 16.3984 12.8478 16.3984C12.8518 16.3984 12.8558 16.3984 12.8599 16.3984C12.8639 16.3984 12.8679 16.3984 12.872 16.3984C12.876 16.3984 12.8801 16.3984 12.8841 16.3984C12.8882 16.3984 12.8922 16.3984 12.8963 16.3984C12.9004 16.3984 12.9044 16.3984 12.9085 16.3984C12.9126 16.3984 12.9166 16.3984 12.9207 16.3984C12.9248 16.3984 12.9289 16.3984 12.933 16.3984C12.9371 16.3984 12.9412 16.3984 12.9453 16.3984C12.9494 16.3984 12.9535 16.3984 12.9576 16.3984C12.9617 16.3984 12.9658 16.3984 12.9699 16.3984C12.974 16.3984 12.9781 16.3984 12.9823 16.3984C12.9864 16.3984 12.9905 16.3984 12.9947 16.3984C12.9988 16.3984 13.0029 16.3984 13.0071 16.3984C13.0112 16.3984 13.0154 16.3984 13.0195 16.3984C13.0237 16.3984 13.0279 16.3984 13.032 16.3984C13.0362 16.3984 13.0404 16.3984 13.0445 16.3984C13.0487 16.3984 13.0529 16.3984 13.0571 16.3984C13.0612 16.3984 13.0654 16.3984 13.0696 16.3984C13.0738 16.3984 13.078 16.3984 13.0822 16.3984C13.0864 16.3984 13.0906 16.3984 13.0948 16.3984C13.0991 16.3984 13.1033 16.3984 13.1075 16.3984C13.1117 16.3984 13.1159 16.3984 13.1202 16.3984C13.1244 16.3984 13.1286 16.3984 13.1329 16.3984C13.1371 16.3984 13.1414 16.3984 13.1456 16.3984C13.1499 16.3984 13.1541 16.3984 13.1584 16.3984C13.1626 16.3984 13.1669 16.3984 13.1712 16.3984C13.1754 16.3984 13.1797 16.3984 13.184 16.3984C13.1883 16.3984 13.1925 16.3984 13.1968 16.3984C13.2011 16.3984 13.2054 16.3984 13.2097 16.3984C13.214 16.3984 13.2183 16.3984 13.2226 16.3984C13.2269 16.3984 13.2312 16.3984 13.2355 16.3984C13.2399 16.3984 13.2442 16.3984 13.2485 16.3984C13.2528 16.3984 13.2572 16.3984 13.2615 16.3984C13.2658 16.3984 13.2702 16.3984 13.2745 16.3984C13.2789 16.3984 13.2832 16.3984 13.2876 16.3984C13.2919 16.3984 13.2963 16.3984 13.3007 16.3984C13.305 16.3984 13.3094 16.3984 13.3138 16.3984C13.3181 16.3984 13.3225 16.3984 13.3269 16.3984C13.3313 16.3984 13.3357 16.3984 13.3401 16.3984C13.3445 16.3984 13.3489 16.3984 13.3533 16.3984C13.3577 16.3984 13.3621 16.3984 13.3665 16.3984C13.3709 16.3984 13.3753 16.3984 13.3797 16.3984C13.3842 16.3984 13.3886 16.3984 13.393 16.3984C13.3974 16.3984 13.4019 16.3984 13.4063 16.3984C13.4108 16.3984 13.4152 16.3984 13.4197 16.3984C13.4241 16.3984 13.4286 16.3984 13.433 16.3984C13.4375 16.3984 13.442 16.3984 13.4464 16.3984C13.4509 16.3984 13.4554 16.3984 13.4599 16.3984C13.4643 16.3984 13.4688 16.3984 13.4733 16.3984C13.4778 16.3984 13.4823 16.3984 13.4868 16.3984C13.4913 16.3984 13.4958 16.3984 13.5003 16.3984C13.5048 16.3984 13.5093 16.3984 13.5138 16.3984C13.5184 16.3984 13.5229 16.3984 13.5274 16.3984C13.5319 16.3984 13.5365 16.3984 13.541 16.3984C13.5456 16.3984 13.5501 16.3984 13.5547 16.3984C13.5592 16.3984 13.5638 16.3984 13.5683 16.3984C13.5729 16.3984 13.5774 16.3984 13.582 16.3984C13.5866 16.3984 13.5911 16.3984 13.5957 16.3984C13.6003 16.3984 13.6049 16.3984 13.6095 16.3984C13.6141 16.3984 13.6186 16.3984 13.6232 16.3984C13.6278 16.3984 13.6324 16.3984 13.6371 16.3984C13.6417 16.3984 13.6463 16.3984 13.6509 16.3984C13.6555 16.3984 13.6601 16.3984 13.6648 16.3984C13.6694 16.3984 13.674 16.3984 13.6787 16.3984C13.6833 16.3984 13.6879 16.3984 13.6926 16.3984C13.6972 16.3984 13.7019 16.3984 13.7065 16.3984C13.7112 16.3984 13.7158 16.3984 13.7205 16.3984C13.7252 16.3984 13.7299 16.3984 13.7345 16.3984C13.7392 16.3984 13.7439 16.3984 13.7486 16.3984C13.7533 16.3984 13.7579 16.3984 13.7626 16.3984C13.7673 16.3984 13.772 16.3984 13.7767 16.3984C13.7815 16.3984 13.7862 16.3984 13.7909 16.3984C13.7956 16.3984 13.8003 16.3984 13.805 16.3984C13.8098 16.3984 13.8145 16.3984 13.8192 16.3984C13.824 16.3984 13.8287 16.3984 13.8335 16.3984C13.8382 16.3984 13.843 16.3984 13.8477 16.3984C13.8525 16.3984 13.8572 16.3984 13.862 16.3984C13.8668 16.3984 13.8715 16.3984 13.8763 16.3984C13.8811 16.3984 13.8859 16.3984 13.8906 16.3984C13.8954 16.3984 13.9002 16.3984 13.905 16.3984C13.9098 16.3984 13.9146 16.3984 13.9194 16.3984C13.9242 16.3984 13.929 16.3984 13.9338 16.3984C13.9387 16.3984 13.9435 16.3984 13.9483 16.3984C13.9531 16.3984 13.958 16.3984 13.9628 16.3984C13.9676 16.3984 13.9725 16.3984 13.9773 16.3984C13.9822 16.3984 13.987 16.3984 13.9919 16.3984C13.9967 16.3984 14.0016 16.3984 14.0065 16.3984C14.0113 16.3984 14.0162 16.3984 14.0211 16.3984C14.0259 16.3984 14.0308 16.3984 14.0357 16.3984C14.0406 16.3984 14.0455 16.3984 14.0504 16.3984C14.0553 16.3984 14.0602 16.3984 14.0651 16.3984C14.07 16.3984 14.0749 16.3984 14.0798 16.3984C14.0847 16.3984 14.0897 16.3984 14.0946 16.3984C14.0995 16.3984 14.1044 16.3984 14.1094 16.3984C14.1143 16.3984 14.1192 16.3984 14.1242 16.3984C14.1291 16.3984 14.1341 16.3984 14.139 16.3984C14.144 16.3984 14.149 16.3984 14.1539 16.3984C14.1589 16.3984 14.1639 16.3984 14.1688 16.3984C14.1738 16.3984 14.1788 16.3984 14.1838 16.3984C14.1888 16.3984 14.1938 16.3984 14.1988 16.3984C14.2038 16.3984 14.2088 16.3984 14.2138 16.3984C14.2188 16.3984 14.2238 16.3984 14.2288 16.3984C14.2338 16.3984 14.2388 16.3984 14.2439 16.3984C14.2489 16.3984 14.2539 16.3984 14.259 16.3984C14.264 16.3984 14.2691 16.3984 14.2741 16.3984C14.2792 16.3984 14.2842 16.3984 14.2893 16.3984C14.2943 16.3984 14.2994 16.3984 14.3045 16.3984C14.3095 16.3984 14.3146 16.3984 14.3197 16.3984C14.3247 16.3984 14.3298 16.3984 14.3349 16.3984C14.34 16.3984 14.3451 16.3984 14.3502 16.3984C14.3553 16.3984 14.3604 16.3984 14.3655 16.3984C14.3706 16.3984 14.3757 16.3984 14.3809 16.3984C14.386 16.3984 14.3911 16.3984 14.3962 16.3984C14.4014 16.3984 14.4065 16.3984 14.4116 16.3984C14.4168 16.3984 14.4219 16.3984 14.4271 16.3984C14.4322 16.3984 14.4374 16.3984 14.4425 16.3984C14.4477 16.3984 14.4529 16.3984 14.458 16.3984C14.4632 16.3984 14.4684 16.3984 14.4736 16.3984C14.4787 16.3984 14.4839 16.3984 14.4891 16.3984C14.4943 16.3984 14.4995 16.3984 14.5047 16.3984C14.5099 16.3984 14.5151 16.3984 14.5203 16.3984C14.5255 16.3984 14.5308 16.3984 14.536 16.3984C14.5412 16.3984 14.5464 16.3984 14.5517 16.3984C14.5569 16.3984 14.5621 16.3984 14.5674 16.3984C14.5726 16.3984 14.5779 16.3984 14.5831 16.3984C14.5884 16.3984 14.5936 16.3984 14.5989 16.3984C14.6042 16.3984 14.6094 16.3984 14.6147 16.3984C14.62 16.3984 14.6253 16.3984 14.6306 16.3984C14.6358 16.3984 14.6411 16.3984 14.6464 16.3984C14.6517 16.3984 14.657 16.3984 14.6623 16.3984C14.6676 16.3984 14.6729 16.3984 14.6783 16.3984C14.6836 16.3984 14.6889 16.3984 14.6942 16.3984C14.6996 16.3984 14.7049 16.3984 14.7102 16.3984C14.7156 16.3984 14.7209 16.3984 14.7262 16.3984C14.7316 16.3984 14.7369 16.3984 14.7423 16.3984C14.7477 16.3984 14.753 16.3984 14.7584 16.3984C14.7638 16.3984 14.7691 16.3984 14.7745 16.3984C14.7799 16.3984 14.7853 16.3984 14.7907 16.3984C14.7961 16.3984 14.8015 16.3984 14.8069 16.3984C14.8123 16.3984 14.8177 16.3984 14.8231 16.3984C14.8285 16.3984 14.8339 16.3984 14.8393 16.3984C14.8447 16.3984 14.8502 16.3984 14.8556 16.3984C14.861 16.3984 14.8665 16.3984 14.8719 16.3984C14.8773 16.3984 14.8828 16.3984 14.8882 16.3984C14.8937 16.3984 14.8992 16.3984 14.9046 16.3984C14.9101 16.3984 14.9156 16.3984 14.921 16.3984C14.9265 16.3984 14.932 16.3984 14.9375 16.3984C14.9429 16.3984 14.9484 16.3984 14.9539 16.3984C14.9594 16.3984 14.9649 16.3984 14.9704 16.3984C14.9759 16.3984 14.9814 16.3984 14.987 16.3984C14.9925 16.3984 14.998 16.3984 15.0035 16.3984C15.0091 16.3984 15.0146 16.3984 15.0201 16.3984C15.0257 16.3984 15.0312 16.3984 15.0367 16.3984C15.0423 16.3984 15.0478 16.3984 15.0534 16.3984C15.059 16.3984 15.0645 16.3984 15.0701 16.3984C15.0757 16.3984 15.0812 16.3984 15.0868 16.3984C15.0924 16.3984 15.098 16.3984 15.1036 16.3984C15.1092 16.3984 15.1148 16.3984 15.1204 16.3984C15.126 16.3984 15.1316 16.3984 15.1372 16.3984C15.1428 16.3984 15.1484 16.3984 15.154 16.3984C15.1597 16.3984 15.1653 16.3984 15.1709 16.3984C15.1765 16.3984 15.1822 16.3984 15.1878 16.3984C15.1935 16.3984 15.1991 16.3984 15.2048 16.3984C15.2104 16.3984 15.2161 16.3984 15.2218 16.3984C15.2274 16.3984 15.2331 16.3984 15.2388 16.3984C15.2444 16.3984 15.2501 16.3984 15.2558 16.3984C15.2615 16.3984 15.2672 16.3984 15.2729 16.3984C15.2786 16.3984 15.2843 16.3984 15.29 16.3984C15.2957 16.3984 15.3014 16.3984 15.3071 16.3984C15.3129 16.3984 15.3186 16.3984 15.3243 16.3984C15.33 16.3984 15.3358 16.3984 15.3415 16.3984C15.3473 16.3984 15.353 16.3984 15.3588 16.3984C15.3645 16.3984 15.3703 16.3984 15.376 16.3984C15.3818 16.3984 15.3876 16.3984 15.3933 16.3984C15.3991 16.3984 15.4049 16.3984 15.4107 16.3984C15.4164 16.3984 15.4222 16.3984 15.428 16.3984C15.4338 16.3984 15.4396 16.3984 15.4454 16.3984C15.4512 16.3984 15.457 16.3984 15.4629 16.3984C15.4687 16.3984 15.4745 16.3984 15.4803 16.3984C15.4861 16.3984 15.492 16.3984 15.4978 16.3984C15.5037 16.3984 15.5095 16.3984 15.5153 16.3984C15.5212 16.3984 15.5271 16.3984 15.5329 16.3984C15.5388 16.3984 15.5446 16.3984 15.5505 16.3984C15.5564 16.3984 15.5623 16.3984 15.5681 16.3984C15.574 16.3984 15.5799 16.3984 15.5858 16.3984C15.5917 16.3984 15.5976 16.3984 15.6035 16.3984C15.6094 16.3984 15.6153 16.3984 15.6212 16.3984C15.6271 16.3984 15.633 16.3984 15.639 16.3984C15.6449 16.3984 15.6508 16.3984 15.6568 16.3984C15.6627 16.3984 15.6686 16.3984 15.6746 16.3984C15.6805 16.3984 15.6865 16.3984 15.6924 16.3984C15.6984 16.3984 15.7044 16.3984 15.7103 16.3984C15.7163 16.3984 15.7223 16.3984 15.7283 16.3984C15.7342 16.3984 15.7402 16.3984 15.7462 16.3984C15.7522 16.3984 15.7582 16.3984 15.7642 16.3984C15.7702 16.3984 15.7762 16.3984 15.7822 16.3984C15.7882 16.3984 15.7943 16.3984 15.8003 16.3984C15.8063 16.3984 15.8123 16.3984 15.8184 16.3984C15.8244 16.3984 15.8304 16.3984 15.8365 16.3984C15.8425 16.3984 15.8486 16.3984 15.8546 16.3984C15.8607 16.3984 15.8668 16.3984 15.8728 16.3984C15.8789 16.3984 15.885 16.3984 15.891 16.3984C15.8971 16.3984 15.9032 16.3984 15.9093 16.3984C15.9154 16.3984 15.9215 16.3984 15.9276 16.3984C15.9337 16.3984 15.9398 16.3984 15.9459 16.3984C15.952 16.3984 15.9581 16.3984 15.9643 16.3984C15.9704 16.3984 15.9765 16.3984 15.9826 16.3984C15.9888 16.3984 15.9949 16.3984 16.0011 16.3984C16.0072 16.3984 16.0134 16.3984 16.0195 16.3984C16.0257 16.3984 16.0318 16.3984 16.038 16.3984C16.0442 16.3984 16.0503 16.3984 16.0565 16.3984C16.0627 16.3984 16.0689 16.3984 16.0751 16.3984C16.0813 16.3984 16.0875 16.3984 16.0937 16.3984C16.0999 16.3984 16.1061 16.3984 16.1123 16.3984C16.1185 16.3984 16.1247 16.3984 16.1309 16.3984C16.1371 16.3984 16.1434 16.3984 16.1496 16.3984C16.1558 16.3984 16.1621 16.3984 16.1683 16.3984C16.1746 16.3984 16.1808 16.3984 16.1871 16.3984C16.1933 16.3984 16.1996 16.3984 16.2059 16.3984C16.2121 16.3984 16.2184 16.3984 16.2247 16.3984C16.231 16.3984 16.2373 16.3984 16.2435 16.3984C16.2498 16.3984 16.2561 16.3984 16.2624 16.3984C16.2687 16.3984 16.275 16.3984 16.2814 16.3984C16.2877 16.3984 16.294 16.3984 16.3003 16.3984C16.3066 16.3984 16.313 16.3984 16.3193 16.3984C16.3256 16.3984 16.332 16.3984 16.3383 16.3984C16.3447 16.3984 16.351 16.3984 16.3574 16.3984C16.3637 16.3984 16.3701 16.3984 16.3765 16.3984C16.3828 16.3984 16.3892 16.3984 16.3956 16.3984C16.402 16.3984 16.4084 16.3984 16.4147 16.3984C16.4211 16.3984 16.4275 16.3984 16.4339 16.3984C16.4403 16.3984 16.4467 16.3984 16.4532 16.3984C16.4596 16.3984 16.466 16.3984 16.4724 16.3984C16.4788 16.3984 16.4853 16.3984 16.4917 16.3984C16.4982 16.3984 16.5046 16.3984 16.511 16.3984C16.5175 16.3984 16.5239 16.3984 16.5304 16.3984C16.5369 16.3984 16.5433 16.3984 16.5498 16.3984C16.5563 16.3984 16.5627 16.3984 16.5692 16.3984C16.5757 16.3984 16.5822 16.3984 16.5887 16.3984C16.5952 16.3984 16.6017 16.3984 16.6082 16.3984C16.6147 16.3984 16.6212 16.3984 16.6277 16.3984C16.6342 16.3984 16.6408 16.3984 16.6473 16.3984C16.6538 16.3984 16.6603 16.3984 16.6669 16.3984C16.6734 16.3984 16.68 16.3984 16.6865 16.3984C16.6931 16.3984 16.6996 16.3984 16.7062 16.3984C16.7127 16.3984 16.7193 16.3984 16.7259 16.3984C16.7325 16.3984 16.739 16.3984 16.7456 16.3984C16.7522 16.3984 16.7588 16.3984 16.7654 16.3984C16.772 16.3984 16.7786 16.3984 16.7852 16.3984C16.7918 16.3984 16.7984 16.3984 16.805 16.3984C16.8117 16.3984 16.8183 16.3984 16.8249 16.3984C16.8315 16.3984 16.8382 16.3984 16.8448 16.3984C16.8515 16.3984 16.8581 16.3984 16.8648 16.3984C16.8714 16.3984 16.8781 16.3984 16.8847 16.3984C16.8914 16.3984 16.8981 16.3984 16.9048 16.3984C16.9114 16.3984 16.9181 16.3984 16.9248 16.3984C16.9315 16.3984 16.9382 16.3984 16.9449 16.3984C16.9516 16.3984 16.9583 16.3984 16.965 16.3984C16.9717 16.3984 16.9784 16.3984 16.9852 16.3984C16.9919 16.3984 16.9986 16.3984 17.0053 16.3984C17.0121 16.3984 17.0188 16.3984 17.0256 16.3984C17.0323 16.3984 17.0391 16.3984 17.0458 16.3984C17.0526 16.3984 17.0593 16.3984 17.0661 16.3984C17.0729 16.3984 17.0796 16.3984 17.0864 16.3984C17.0932 16.3984 17.1 16.3984 17.1068 16.3984C17.1136 16.3984 17.1204 16.3984 17.1272 16.3984C17.134 16.3984 17.1408 16.3984 17.1476 16.3984C17.1544 16.3984 17.1612 16.3984 17.1681 16.3984C17.1749 16.3984 17.1817 16.3984 17.1886 16.3984C17.1954 16.3984 17.2023 16.3984 17.2091 16.3984C17.216 16.3984 17.2228 16.3984 17.2297 16.3984C17.2365 16.3984 17.2434 16.3984 17.2503 16.3984C17.2571 16.3984 17.264 16.3984 17.2709 16.3984C17.2778 16.3984 17.2847 16.3984 17.2916 16.3984C17.2985 16.3984 17.3054 16.3984 17.3123 16.3984C17.3192 16.3984 17.3261 16.3984 17.333 16.3984C17.34 16.3984 17.3469 16.3984 17.3538 16.3984C17.3607 16.3984 17.3677 16.3984 17.3746 16.3984C17.3816 16.3984 17.3885 16.3984 17.3955 16.3984C17.4024 16.3984 17.4094 16.3984 17.4164 16.3984C17.4233 16.3984 17.4303 16.3984 17.4373 16.3984C17.4443 16.3984 17.4512 16.3984 17.4582 16.3984C17.4652 16.3984 17.4722 16.3984 17.4792 16.3984C17.4862 16.3984 17.4932 16.3984 17.5002 16.3984C17.5073 16.3984 17.5143 16.3984 17.5213 16.3984C17.5283 16.3984 17.5354 16.3984 17.5424 16.3984C17.5494 16.3984 17.5565 16.3984 17.5635 16.3984C17.5706 16.3984 17.5776 16.3984 17.5847 16.3984C17.5918 16.3984 17.5988 16.3984 17.6059 16.3984C17.613 16.3984 17.62 16.3984 17.6271 16.3984C17.6342 16.3984 17.6413 16.3984 17.6484 16.3984C17.6555 16.3984 17.6626 16.3984 17.6697 16.3984C17.6768 16.3984 17.6839 16.3984 17.6911 16.3984C17.6982 16.3984 17.7053 16.3984 17.7124 16.3984C17.7196 16.3984 17.7267 16.3984 17.7338 16.3984C17.741 16.3984 17.7481 16.3984 17.7553 16.3984C17.7624 16.3984 17.7696 16.3984 17.7768 16.3984C17.7839 16.3984 17.7911 16.3984 17.7983 16.3984C17.8055 16.3984 17.8127 16.3984 17.8199 16.3984C17.827 16.3984 17.8342 16.3984 17.8414 16.3984C17.8487 16.3984 17.8559 16.3984 17.8631 16.3984C17.8703 16.3984 17.8775 16.3984 17.8847 16.3984C17.892 16.3984 17.8992 16.3984 17.9064 16.3984C17.9137 16.3984 17.9209 16.3984 17.9282 16.3984C17.9354 16.3984 17.9427 16.3984 17.9499 16.3984C17.9572 16.3984 17.9645 16.3984 17.9717 16.3984C17.979 16.3984 17.9863 16.3984 17.9936 16.3984C18.0009 16.3984 18.0082 16.3984 18.0155 16.3984C18.0228 16.3984 18.0301 16.3984 18.0374 16.3984C18.0447 16.3984 18.052 16.3984 18.0593 16.3984C18.0667 16.3984 18.074 16.3984 18.0813 16.3984C18.0887 16.3984 18.096 16.3984 18.1033 16.3984C18.1107 16.3984 18.118 16.3984 18.1254 16.3984C18.1328 16.3984 18.1401 16.3984 18.1475 16.3984C18.1549 16.3984 18.1622 16.3984 18.1696 16.3984C18.177 16.3984 18.1844 16.3984 18.1918 16.3984C18.1992 16.3984 18.2066 16.3984 18.214 16.3984C18.2214 16.3984 18.2288 16.3984 18.2362 16.3984C18.2436 16.3984 18.2511 16.3984 18.2585 16.3984C18.2659 16.3984 18.2734 16.3984 18.2808 16.3984C18.2883 16.3984 18.2957 16.3984 18.3032 16.3984C18.3106 16.3984 18.3181 16.3984 18.3255 16.3984C18.333 16.3984 18.3405 16.3984 18.348 16.3984C18.3554 16.3984 18.3629 16.3984 18.3704 16.3984C18.3779 16.3984 18.3854 16.3984 18.3929 16.3984C18.4004 16.3984 18.4079 16.3984 18.4154 16.3984C18.423 16.3984 18.4305 16.3984 18.438 16.3984C18.4455 16.3984 18.4531 16.3984 18.4606 16.3984C18.4681 16.3984 18.4757 16.3984 18.4832 16.3984C18.4908 16.3984 18.4984 16.3984 18.5059 16.3984C18.5135 16.3984 18.5211 16.3984 18.5286 16.3984C18.5362 16.3984 18.5438 16.3984 18.5514 16.3984C18.559 16.3984 18.5666 16.3984 18.5742 16.3984C18.5818 16.3984 18.5894 16.3984 18.597 16.3984C18.6046 16.3984 18.6122 16.3984 18.6198 16.3984C18.6275 16.3984 18.6351 16.3984 18.6427 16.3984C18.6504 16.3984 18.658 16.3984 18.6657 16.3984C18.6733 16.3984 18.681 16.3984 18.6886 16.3984C18.6963 16.3984 18.704 16.3984 18.7116 16.3984C18.7193 16.3984 18.727 16.3984 18.7347 16.3984C18.7424 16.3984 18.7501 16.3984 18.7578 16.3984C18.7655 16.3984 18.7732 16.3984 18.7809 16.3984C18.7886 16.3984 18.7963 16.3984 18.804 16.3984C18.8117 16.3984 18.8195 16.3984 18.8272 16.3984C18.8349 16.3984 18.8427 16.3984 18.8504 16.3984C18.8582 16.3984 18.8659 16.3984 18.8737 16.3984C18.8814 16.3984 18.8892 16.3984 18.897 16.3984C18.9048 16.3984 18.9125 16.3984 18.9203 16.3984C18.9281 16.3984 18.9359 16.3984 18.9437 16.3984C18.9515 16.3984 18.9593 16.3984 18.9671 16.3984C18.9749 16.3984 18.9827 16.3984 18.9905 16.3984C18.9984 16.3984 19.0062 16.3984 19.014 16.3984C19.0219 16.3984 19.0297 16.3984 19.0375 16.3984C19.0454 16.3984 19.0532 16.3984 19.0611 16.3984C19.069 16.3984 19.0768 16.3984 19.0847 16.3984C19.0926 16.3984 19.1004 16.3984 19.1083 16.3984C19.1162 16.3984 19.1241 16.3984 19.132 16.3984C19.1399 16.3984 19.1478 16.3984 19.1557 16.3984C19.1636 16.3984 19.1715 16.3984 19.1794 16.3984C19.1874 16.3984 19.1953 16.3984 19.2032 16.3984C19.2112 16.3984 19.2191 16.3984 19.227 16.3984C19.235 16.3984 19.2429 16.3984 19.2509 16.3984C19.2589 16.3984 19.2668 16.3984 19.2748 16.3984C19.2828 16.3984 19.2907 16.3984 19.2987 16.3984C19.3067 16.3984 19.3147 16.3984 19.3227 16.3984C19.3307 16.3984 19.3387 16.3984 19.3467 16.3984C19.3547 16.3984 19.3627 16.3984 19.3707 16.3984C19.3788 16.3984 19.3868 16.3984 19.3948 16.3984C19.4028 16.3984 19.4109 16.3984 19.4189 16.3984C19.427 16.3984 19.435 16.3984 19.4431 16.3984C19.4511 16.3984 19.4592 16.3984 19.4673 16.3984C19.4753 16.3984 19.4834 16.3984 19.4915 16.3984C19.4996 16.3984 19.5077 16.3984 19.5158 16.3984C19.5239 16.3984 19.532 16.3984 19.5401 16.3984C19.5482 16.3984 19.5563 16.3984 19.5644 16.3984C19.5725 16.3984 19.5807 16.3984 19.5888 16.3984C19.5969 16.3984 19.6051 16.3984 19.6132 16.3984C19.6214 16.3984 19.6295 16.3984 19.6377 16.3984C19.6458 16.3984 19.654 16.3984 19.6622 16.3984C19.6703 16.3984 19.6785 16.3984 19.6867 16.3984C19.6949 16.3984 19.7031 16.3984 19.7113 16.3984C19.7195 16.3984 19.7277 16.3984 19.7359 16.3984C19.7441 16.3984 19.7523 16.3984 19.7605 16.3984C19.7687 16.3984 19.777 16.3984 19.7852 16.3984C19.7934 16.3984 19.8017 16.3984 19.8099 16.3984C19.8182 16.3984 19.8264 16.3984 19.8347 16.3984C19.8429 16.3984 19.8512 16.3984 19.8595 16.3984C19.8677 16.3984 19.876 16.3984 19.8843 16.3984C19.8926 16.3984 19.9009 16.3984 19.9092 16.3984C19.9175 16.3984 19.9258 16.3984 19.9341 16.3984C19.9424 16.3984 19.9507 16.3984 19.959 16.3984C19.9673 16.3984 19.9757 16.3984 19.984 16.3984C19.9923 16.3984 20.0007 16.3984 20.009 16.3984C20.0174 16.3984 20.0257 16.3984 20.0341 16.3984C20.0425 16.3984 20.0508 16.3984 20.0592 16.3984C20.0676 16.3984 20.0759 16.3984 20.0843 16.3984C20.0927 16.3984 20.1011 16.3984 20.1095 16.3984C20.1179 16.3984 20.1263 16.3984 20.1347 16.3984C20.1431 16.3984 20.1515 16.3984 20.16 16.3984C20.1684 16.3984 20.1768 16.3984 20.1853 16.3984C20.1937 16.3984 20.2021 16.3984 20.2106 16.3984C20.219 16.3984 20.2275 16.3984 20.236 16.3984C20.2444 16.3984 20.2529 16.3984 20.2614 16.3984C20.2698 16.3984 20.2783 16.3984 20.2868 16.3984C20.2953 16.3984 20.3038 16.3984 20.3123 16.3984C20.3208 16.3984 20.3293 16.3984 20.3378 16.3984C20.3463 16.3984 20.3548 16.3984 20.3634 16.3984C20.3719 16.3984 20.3804 16.3984 20.389 16.3984C20.3975 16.3984 20.4061 16.3984 20.4146 16.3984C20.4232 16.3984 20.4317 16.3984 20.4403 16.3984C20.4488 16.3984 20.4574 16.3984 20.466 16.3984C20.4746 16.3984 20.4832 16.3984 20.4918 16.3984C20.5003 16.3984 20.5089 16.3984 20.5175 16.3984C20.5261 16.3984 20.5348 16.3984 20.5434 16.3984C20.552 16.3984 20.5606 16.3984 20.5692 16.3984C20.5779 16.3984 20.5865 16.3984 20.5951 16.3984C20.6038 16.3984 20.6124 16.3984 20.6211 16.3984C20.6297 16.3984 20.6384 16.3984 20.6471 16.3984C20.6557 16.3984 20.6644 16.3984 20.6731 16.3984C20.6818 16.3984 20.6905 16.3984 20.6992 16.3984C20.7079 16.3984 20.7166 16.3984 20.7253 16.3984C20.734 16.3984 20.7427 16.3984 20.7514 16.3984C20.7601 16.3984 20.7688 16.3984 20.7776 16.3984C20.7863 16.3984 20.7951 16.3984 20.8038 16.3984C20.8125 16.3984 20.8213 16.3984 20.8301 16.3984C20.8388 16.3984 20.8476 16.3984 20.8563 16.3984C20.8651 16.3984 20.8739 16.3984 20.8827 16.3984C20.8915 16.3984 20.9003 16.3984 20.9091 16.3984C20.9179 16.3984 20.9267 16.3984 20.9355 16.3984C20.9443 16.3984 20.9531 16.3984 20.9619 16.3984C20.9707 16.3984 20.9796 16.3984 20.9884 16.3984C20.9972 16.3984 21.0061 16.3984 21.0149 16.3984C21.0238 16.3984 21.0326 16.3984 21.0415 16.3984C21.0504 16.3984 21.0592 16.3984 21.0681 16.3984C21.077 16.3984 21.0859 16.3984 21.0948 16.3984V15.3984C21.0859 15.3984 21.077 15.3984 21.0681 15.3984C21.0592 15.3984 21.0504 15.3984 21.0415 15.3984C21.0326 15.3984 21.0238 15.3984 21.0149 15.3984C21.0061 15.3984 20.9972 15.3984 20.9884 15.3984C20.9796 15.3984 20.9707 15.3984 20.9619 15.3984C20.9531 15.3984 20.9443 15.3984 20.9355 15.3984C20.9267 15.3984 20.9179 15.3984 20.9091 15.3984C20.9003 15.3984 20.8915 15.3984 20.8827 15.3984C20.8739 15.3984 20.8651 15.3984 20.8563 15.3984C20.8476 15.3984 20.8388 15.3984 20.8301 15.3984C20.8213 15.3984 20.8125 15.3984 20.8038 15.3984C20.7951 15.3984 20.7863 15.3984 20.7776 15.3984C20.7688 15.3984 20.7601 15.3984 20.7514 15.3984C20.7427 15.3984 20.734 15.3984 20.7253 15.3984C20.7166 15.3984 20.7079 15.3984 20.6992 15.3984C20.6905 15.3984 20.6818 15.3984 20.6731 15.3984C20.6644 15.3984 20.6557 15.3984 20.6471 15.3984C20.6384 15.3984 20.6297 15.3984 20.6211 15.3984C20.6124 15.3984 20.6038 15.3984 20.5951 15.3984C20.5865 15.3984 20.5779 15.3984 20.5692 15.3984C20.5606 15.3984 20.552 15.3984 20.5434 15.3984C20.5348 15.3984 20.5261 15.3984 20.5175 15.3984C20.5089 15.3984 20.5003 15.3984 20.4918 15.3984C20.4832 15.3984 20.4746 15.3984 20.466 15.3984C20.4574 15.3984 20.4488 15.3984 20.4403 15.3984C20.4317 15.3984 20.4232 15.3984 20.4146 15.3984C20.4061 15.3984 20.3975 15.3984 20.389 15.3984C20.3804 15.3984 20.3719 15.3984 20.3634 15.3984C20.3548 15.3984 20.3463 15.3984 20.3378 15.3984C20.3293 15.3984 20.3208 15.3984 20.3123 15.3984C20.3038 15.3984 20.2953 15.3984 20.2868 15.3984C20.2783 15.3984 20.2698 15.3984 20.2614 15.3984C20.2529 15.3984 20.2444 15.3984 20.236 15.3984C20.2275 15.3984 20.219 15.3984 20.2106 15.3984C20.2021 15.3984 20.1937 15.3984 20.1853 15.3984C20.1768 15.3984 20.1684 15.3984 20.16 15.3984C20.1515 15.3984 20.1431 15.3984 20.1347 15.3984C20.1263 15.3984 20.1179 15.3984 20.1095 15.3984C20.1011 15.3984 20.0927 15.3984 20.0843 15.3984C20.0759 15.3984 20.0676 15.3984 20.0592 15.3984C20.0508 15.3984 20.0425 15.3984 20.0341 15.3984C20.0257 15.3984 20.0174 15.3984 20.009 15.3984C20.0007 15.3984 19.9923 15.3984 19.984 15.3984C19.9757 15.3984 19.9673 15.3984 19.959 15.3984C19.9507 15.3984 19.9424 15.3984 19.9341 15.3984C19.9258 15.3984 19.9175 15.3984 19.9092 15.3984C19.9009 15.3984 19.8926 15.3984 19.8843 15.3984C19.876 15.3984 19.8677 15.3984 19.8595 15.3984C19.8512 15.3984 19.8429 15.3984 19.8347 15.3984C19.8264 15.3984 19.8182 15.3984 19.8099 15.3984C19.8017 15.3984 19.7934 15.3984 19.7852 15.3984C19.777 15.3984 19.7687 15.3984 19.7605 15.3984C19.7523 15.3984 19.7441 15.3984 19.7359 15.3984C19.7277 15.3984 19.7195 15.3984 19.7113 15.3984C19.7031 15.3984 19.6949 15.3984 19.6867 15.3984C19.6785 15.3984 19.6703 15.3984 19.6622 15.3984C19.654 15.3984 19.6458 15.3984 19.6377 15.3984C19.6295 15.3984 19.6214 15.3984 19.6132 15.3984C19.6051 15.3984 19.5969 15.3984 19.5888 15.3984C19.5807 15.3984 19.5725 15.3984 19.5644 15.3984C19.5563 15.3984 19.5482 15.3984 19.5401 15.3984C19.532 15.3984 19.5239 15.3984 19.5158 15.3984C19.5077 15.3984 19.4996 15.3984 19.4915 15.3984C19.4834 15.3984 19.4753 15.3984 19.4673 15.3984C19.4592 15.3984 19.4511 15.3984 19.4431 15.3984C19.435 15.3984 19.427 15.3984 19.4189 15.3984C19.4109 15.3984 19.4028 15.3984 19.3948 15.3984C19.3868 15.3984 19.3788 15.3984 19.3707 15.3984C19.3627 15.3984 19.3547 15.3984 19.3467 15.3984C19.3387 15.3984 19.3307 15.3984 19.3227 15.3984C19.3147 15.3984 19.3067 15.3984 19.2987 15.3984C19.2907 15.3984 19.2828 15.3984 19.2748 15.3984C19.2668 15.3984 19.2589 15.3984 19.2509 15.3984C19.2429 15.3984 19.235 15.3984 19.227 15.3984C19.2191 15.3984 19.2112 15.3984 19.2032 15.3984C19.1953 15.3984 19.1874 15.3984 19.1794 15.3984C19.1715 15.3984 19.1636 15.3984 19.1557 15.3984C19.1478 15.3984 19.1399 15.3984 19.132 15.3984C19.1241 15.3984 19.1162 15.3984 19.1083 15.3984C19.1004 15.3984 19.0926 15.3984 19.0847 15.3984C19.0768 15.3984 19.069 15.3984 19.0611 15.3984C19.0532 15.3984 19.0454 15.3984 19.0375 15.3984C19.0297 15.3984 19.0219 15.3984 19.014 15.3984C19.0062 15.3984 18.9984 15.3984 18.9905 15.3984C18.9827 15.3984 18.9749 15.3984 18.9671 15.3984C18.9593 15.3984 18.9515 15.3984 18.9437 15.3984C18.9359 15.3984 18.9281 15.3984 18.9203 15.3984C18.9125 15.3984 18.9048 15.3984 18.897 15.3984C18.8892 15.3984 18.8814 15.3984 18.8737 15.3984C18.8659 15.3984 18.8582 15.3984 18.8504 15.3984C18.8427 15.3984 18.8349 15.3984 18.8272 15.3984C18.8195 15.3984 18.8117 15.3984 18.804 15.3984C18.7963 15.3984 18.7886 15.3984 18.7809 15.3984C18.7732 15.3984 18.7655 15.3984 18.7578 15.3984C18.7501 15.3984 18.7424 15.3984 18.7347 15.3984C18.727 15.3984 18.7193 15.3984 18.7116 15.3984C18.704 15.3984 18.6963 15.3984 18.6886 15.3984C18.681 15.3984 18.6733 15.3984 18.6657 15.3984C18.658 15.3984 18.6504 15.3984 18.6427 15.3984C18.6351 15.3984 18.6275 15.3984 18.6198 15.3984C18.6122 15.3984 18.6046 15.3984 18.597 15.3984C18.5894 15.3984 18.5818 15.3984 18.5742 15.3984C18.5666 15.3984 18.559 15.3984 18.5514 15.3984C18.5438 15.3984 18.5362 15.3984 18.5286 15.3984C18.5211 15.3984 18.5135 15.3984 18.5059 15.3984C18.4984 15.3984 18.4908 15.3984 18.4832 15.3984C18.4757 15.3984 18.4681 15.3984 18.4606 15.3984C18.4531 15.3984 18.4455 15.3984 18.438 15.3984C18.4305 15.3984 18.423 15.3984 18.4154 15.3984C18.4079 15.3984 18.4004 15.3984 18.3929 15.3984C18.3854 15.3984 18.3779 15.3984 18.3704 15.3984C18.3629 15.3984 18.3554 15.3984 18.348 15.3984C18.3405 15.3984 18.333 15.3984 18.3255 15.3984C18.3181 15.3984 18.3106 15.3984 18.3032 15.3984C18.2957 15.3984 18.2883 15.3984 18.2808 15.3984C18.2734 15.3984 18.2659 15.3984 18.2585 15.3984C18.2511 15.3984 18.2436 15.3984 18.2362 15.3984C18.2288 15.3984 18.2214 15.3984 18.214 15.3984C18.2066 15.3984 18.1992 15.3984 18.1918 15.3984C18.1844 15.3984 18.177 15.3984 18.1696 15.3984C18.1622 15.3984 18.1549 15.3984 18.1475 15.3984C18.1401 15.3984 18.1328 15.3984 18.1254 15.3984C18.118 15.3984 18.1107 15.3984 18.1033 15.3984C18.096 15.3984 18.0887 15.3984 18.0813 15.3984C18.074 15.3984 18.0667 15.3984 18.0593 15.3984C18.052 15.3984 18.0447 15.3984 18.0374 15.3984C18.0301 15.3984 18.0228 15.3984 18.0155 15.3984C18.0082 15.3984 18.0009 15.3984 17.9936 15.3984C17.9863 15.3984 17.979 15.3984 17.9717 15.3984C17.9645 15.3984 17.9572 15.3984 17.9499 15.3984C17.9427 15.3984 17.9354 15.3984 17.9282 15.3984C17.9209 15.3984 17.9137 15.3984 17.9064 15.3984C17.8992 15.3984 17.892 15.3984 17.8847 15.3984C17.8775 15.3984 17.8703 15.3984 17.8631 15.3984C17.8559 15.3984 17.8487 15.3984 17.8414 15.3984C17.8342 15.3984 17.827 15.3984 17.8199 15.3984C17.8127 15.3984 17.8055 15.3984 17.7983 15.3984C17.7911 15.3984 17.7839 15.3984 17.7768 15.3984C17.7696 15.3984 17.7624 15.3984 17.7553 15.3984C17.7481 15.3984 17.741 15.3984 17.7338 15.3984C17.7267 15.3984 17.7196 15.3984 17.7124 15.3984C17.7053 15.3984 17.6982 15.3984 17.6911 15.3984C17.6839 15.3984 17.6768 15.3984 17.6697 15.3984C17.6626 15.3984 17.6555 15.3984 17.6484 15.3984C17.6413 15.3984 17.6342 15.3984 17.6271 15.3984C17.62 15.3984 17.613 15.3984 17.6059 15.3984C17.5988 15.3984 17.5918 15.3984 17.5847 15.3984C17.5776 15.3984 17.5706 15.3984 17.5635 15.3984C17.5565 15.3984 17.5494 15.3984 17.5424 15.3984C17.5354 15.3984 17.5283 15.3984 17.5213 15.3984C17.5143 15.3984 17.5073 15.3984 17.5002 15.3984C17.4932 15.3984 17.4862 15.3984 17.4792 15.3984C17.4722 15.3984 17.4652 15.3984 17.4582 15.3984C17.4512 15.3984 17.4443 15.3984 17.4373 15.3984C17.4303 15.3984 17.4233 15.3984 17.4164 15.3984C17.4094 15.3984 17.4024 15.3984 17.3955 15.3984C17.3885 15.3984 17.3816 15.3984 17.3746 15.3984C17.3677 15.3984 17.3607 15.3984 17.3538 15.3984C17.3469 15.3984 17.34 15.3984 17.333 15.3984C17.3261 15.3984 17.3192 15.3984 17.3123 15.3984C17.3054 15.3984 17.2985 15.3984 17.2916 15.3984C17.2847 15.3984 17.2778 15.3984 17.2709 15.3984C17.264 15.3984 17.2571 15.3984 17.2503 15.3984C17.2434 15.3984 17.2365 15.3984 17.2297 15.3984C17.2228 15.3984 17.216 15.3984 17.2091 15.3984C17.2023 15.3984 17.1954 15.3984 17.1886 15.3984C17.1817 15.3984 17.1749 15.3984 17.1681 15.3984C17.1612 15.3984 17.1544 15.3984 17.1476 15.3984C17.1408 15.3984 17.134 15.3984 17.1272 15.3984C17.1204 15.3984 17.1136 15.3984 17.1068 15.3984C17.1 15.3984 17.0932 15.3984 17.0864 15.3984C17.0796 15.3984 17.0729 15.3984 17.0661 15.3984C17.0593 15.3984 17.0526 15.3984 17.0458 15.3984C17.0391 15.3984 17.0323 15.3984 17.0256 15.3984C17.0188 15.3984 17.0121 15.3984 17.0053 15.3984C16.9986 15.3984 16.9919 15.3984 16.9852 15.3984C16.9784 15.3984 16.9717 15.3984 16.965 15.3984C16.9583 15.3984 16.9516 15.3984 16.9449 15.3984C16.9382 15.3984 16.9315 15.3984 16.9248 15.3984C16.9181 15.3984 16.9114 15.3984 16.9048 15.3984C16.8981 15.3984 16.8914 15.3984 16.8847 15.3984C16.8781 15.3984 16.8714 15.3984 16.8648 15.3984C16.8581 15.3984 16.8515 15.3984 16.8448 15.3984C16.8382 15.3984 16.8315 15.3984 16.8249 15.3984C16.8183 15.3984 16.8117 15.3984 16.805 15.3984C16.7984 15.3984 16.7918 15.3984 16.7852 15.3984C16.7786 15.3984 16.772 15.3984 16.7654 15.3984C16.7588 15.3984 16.7522 15.3984 16.7456 15.3984C16.739 15.3984 16.7325 15.3984 16.7259 15.3984C16.7193 15.3984 16.7127 15.3984 16.7062 15.3984C16.6996 15.3984 16.6931 15.3984 16.6865 15.3984C16.68 15.3984 16.6734 15.3984 16.6669 15.3984C16.6603 15.3984 16.6538 15.3984 16.6473 15.3984C16.6408 15.3984 16.6342 15.3984 16.6277 15.3984C16.6212 15.3984 16.6147 15.3984 16.6082 15.3984C16.6017 15.3984 16.5952 15.3984 16.5887 15.3984C16.5822 15.3984 16.5757 15.3984 16.5692 15.3984C16.5627 15.3984 16.5563 15.3984 16.5498 15.3984C16.5433 15.3984 16.5369 15.3984 16.5304 15.3984C16.5239 15.3984 16.5175 15.3984 16.511 15.3984C16.5046 15.3984 16.4982 15.3984 16.4917 15.3984C16.4853 15.3984 16.4788 15.3984 16.4724 15.3984C16.466 15.3984 16.4596 15.3984 16.4532 15.3984C16.4467 15.3984 16.4403 15.3984 16.4339 15.3984C16.4275 15.3984 16.4211 15.3984 16.4147 15.3984C16.4084 15.3984 16.402 15.3984 16.3956 15.3984C16.3892 15.3984 16.3828 15.3984 16.3765 15.3984C16.3701 15.3984 16.3637 15.3984 16.3574 15.3984C16.351 15.3984 16.3447 15.3984 16.3383 15.3984C16.332 15.3984 16.3256 15.3984 16.3193 15.3984C16.313 15.3984 16.3066 15.3984 16.3003 15.3984C16.294 15.3984 16.2877 15.3984 16.2814 15.3984C16.275 15.3984 16.2687 15.3984 16.2624 15.3984C16.2561 15.3984 16.2498 15.3984 16.2435 15.3984C16.2373 15.3984 16.231 15.3984 16.2247 15.3984C16.2184 15.3984 16.2121 15.3984 16.2059 15.3984C16.1996 15.3984 16.1933 15.3984 16.1871 15.3984C16.1808 15.3984 16.1746 15.3984 16.1683 15.3984C16.1621 15.3984 16.1558 15.3984 16.1496 15.3984C16.1434 15.3984 16.1371 15.3984 16.1309 15.3984C16.1247 15.3984 16.1185 15.3984 16.1123 15.3984C16.1061 15.3984 16.0999 15.3984 16.0937 15.3984C16.0875 15.3984 16.0813 15.3984 16.0751 15.3984C16.0689 15.3984 16.0627 15.3984 16.0565 15.3984C16.0503 15.3984 16.0442 15.3984 16.038 15.3984C16.0318 15.3984 16.0257 15.3984 16.0195 15.3984C16.0134 15.3984 16.0072 15.3984 16.0011 15.3984C15.9949 15.3984 15.9888 15.3984 15.9826 15.3984C15.9765 15.3984 15.9704 15.3984 15.9643 15.3984C15.9581 15.3984 15.952 15.3984 15.9459 15.3984C15.9398 15.3984 15.9337 15.3984 15.9276 15.3984C15.9215 15.3984 15.9154 15.3984 15.9093 15.3984C15.9032 15.3984 15.8971 15.3984 15.891 15.3984C15.885 15.3984 15.8789 15.3984 15.8728 15.3984C15.8668 15.3984 15.8607 15.3984 15.8546 15.3984C15.8486 15.3984 15.8425 15.3984 15.8365 15.3984C15.8304 15.3984 15.8244 15.3984 15.8184 15.3984C15.8123 15.3984 15.8063 15.3984 15.8003 15.3984C15.7943 15.3984 15.7882 15.3984 15.7822 15.3984C15.7762 15.3984 15.7702 15.3984 15.7642 15.3984C15.7582 15.3984 15.7522 15.3984 15.7462 15.3984C15.7402 15.3984 15.7342 15.3984 15.7283 15.3984C15.7223 15.3984 15.7163 15.3984 15.7103 15.3984C15.7044 15.3984 15.6984 15.3984 15.6924 15.3984C15.6865 15.3984 15.6805 15.3984 15.6746 15.3984C15.6686 15.3984 15.6627 15.3984 15.6568 15.3984C15.6508 15.3984 15.6449 15.3984 15.639 15.3984C15.633 15.3984 15.6271 15.3984 15.6212 15.3984C15.6153 15.3984 15.6094 15.3984 15.6035 15.3984C15.5976 15.3984 15.5917 15.3984 15.5858 15.3984C15.5799 15.3984 15.574 15.3984 15.5681 15.3984C15.5623 15.3984 15.5564 15.3984 15.5505 15.3984C15.5446 15.3984 15.5388 15.3984 15.5329 15.3984C15.5271 15.3984 15.5212 15.3984 15.5153 15.3984C15.5095 15.3984 15.5037 15.3984 15.4978 15.3984C15.492 15.3984 15.4861 15.3984 15.4803 15.3984C15.4745 15.3984 15.4687 15.3984 15.4629 15.3984C15.457 15.3984 15.4512 15.3984 15.4454 15.3984C15.4396 15.3984 15.4338 15.3984 15.428 15.3984C15.4222 15.3984 15.4164 15.3984 15.4107 15.3984C15.4049 15.3984 15.3991 15.3984 15.3933 15.3984C15.3876 15.3984 15.3818 15.3984 15.376 15.3984C15.3703 15.3984 15.3645 15.3984 15.3588 15.3984C15.353 15.3984 15.3473 15.3984 15.3415 15.3984C15.3358 15.3984 15.33 15.3984 15.3243 15.3984C15.3186 15.3984 15.3129 15.3984 15.3071 15.3984C15.3014 15.3984 15.2957 15.3984 15.29 15.3984C15.2843 15.3984 15.2786 15.3984 15.2729 15.3984C15.2672 15.3984 15.2615 15.3984 15.2558 15.3984C15.2501 15.3984 15.2444 15.3984 15.2388 15.3984C15.2331 15.3984 15.2274 15.3984 15.2218 15.3984C15.2161 15.3984 15.2104 15.3984 15.2048 15.3984C15.1991 15.3984 15.1935 15.3984 15.1878 15.3984C15.1822 15.3984 15.1765 15.3984 15.1709 15.3984C15.1653 15.3984 15.1597 15.3984 15.154 15.3984C15.1484 15.3984 15.1428 15.3984 15.1372 15.3984C15.1316 15.3984 15.126 15.3984 15.1204 15.3984C15.1148 15.3984 15.1092 15.3984 15.1036 15.3984C15.098 15.3984 15.0924 15.3984 15.0868 15.3984C15.0812 15.3984 15.0757 15.3984 15.0701 15.3984C15.0645 15.3984 15.059 15.3984 15.0534 15.3984C15.0478 15.3984 15.0423 15.3984 15.0367 15.3984C15.0312 15.3984 15.0257 15.3984 15.0201 15.3984C15.0146 15.3984 15.0091 15.3984 15.0035 15.3984C14.998 15.3984 14.9925 15.3984 14.987 15.3984C14.9814 15.3984 14.9759 15.3984 14.9704 15.3984C14.9649 15.3984 14.9594 15.3984 14.9539 15.3984C14.9484 15.3984 14.9429 15.3984 14.9375 15.3984C14.932 15.3984 14.9265 15.3984 14.921 15.3984C14.9156 15.3984 14.9101 15.3984 14.9046 15.3984C14.8992 15.3984 14.8937 15.3984 14.8882 15.3984C14.8828 15.3984 14.8773 15.3984 14.8719 15.3984C14.8665 15.3984 14.861 15.3984 14.8556 15.3984C14.8502 15.3984 14.8447 15.3984 14.8393 15.3984C14.8339 15.3984 14.8285 15.3984 14.8231 15.3984C14.8177 15.3984 14.8123 15.3984 14.8069 15.3984C14.8015 15.3984 14.7961 15.3984 14.7907 15.3984C14.7853 15.3984 14.7799 15.3984 14.7745 15.3984C14.7691 15.3984 14.7638 15.3984 14.7584 15.3984C14.753 15.3984 14.7477 15.3984 14.7423 15.3984C14.7369 15.3984 14.7316 15.3984 14.7262 15.3984C14.7209 15.3984 14.7156 15.3984 14.7102 15.3984C14.7049 15.3984 14.6996 15.3984 14.6942 15.3984C14.6889 15.3984 14.6836 15.3984 14.6783 15.3984C14.6729 15.3984 14.6676 15.3984 14.6623 15.3984C14.657 15.3984 14.6517 15.3984 14.6464 15.3984C14.6411 15.3984 14.6358 15.3984 14.6306 15.3984C14.6253 15.3984 14.62 15.3984 14.6147 15.3984C14.6094 15.3984 14.6042 15.3984 14.5989 15.3984C14.5936 15.3984 14.5884 15.3984 14.5831 15.3984C14.5779 15.3984 14.5726 15.3984 14.5674 15.3984C14.5621 15.3984 14.5569 15.3984 14.5517 15.3984C14.5464 15.3984 14.5412 15.3984 14.536 15.3984C14.5308 15.3984 14.5255 15.3984 14.5203 15.3984C14.5151 15.3984 14.5099 15.3984 14.5047 15.3984C14.4995 15.3984 14.4943 15.3984 14.4891 15.3984C14.4839 15.3984 14.4787 15.3984 14.4736 15.3984C14.4684 15.3984 14.4632 15.3984 14.458 15.3984C14.4529 15.3984 14.4477 15.3984 14.4425 15.3984C14.4374 15.3984 14.4322 15.3984 14.4271 15.3984C14.4219 15.3984 14.4168 15.3984 14.4116 15.3984C14.4065 15.3984 14.4014 15.3984 14.3962 15.3984C14.3911 15.3984 14.386 15.3984 14.3809 15.3984C14.3757 15.3984 14.3706 15.3984 14.3655 15.3984C14.3604 15.3984 14.3553 15.3984 14.3502 15.3984C14.3451 15.3984 14.34 15.3984 14.3349 15.3984C14.3298 15.3984 14.3247 15.3984 14.3197 15.3984C14.3146 15.3984 14.3095 15.3984 14.3045 15.3984C14.2994 15.3984 14.2943 15.3984 14.2893 15.3984C14.2842 15.3984 14.2792 15.3984 14.2741 15.3984C14.2691 15.3984 14.264 15.3984 14.259 15.3984C14.2539 15.3984 14.2489 15.3984 14.2439 15.3984C14.2388 15.3984 14.2338 15.3984 14.2288 15.3984C14.2238 15.3984 14.2188 15.3984 14.2138 15.3984C14.2088 15.3984 14.2038 15.3984 14.1988 15.3984C14.1938 15.3984 14.1888 15.3984 14.1838 15.3984C14.1788 15.3984 14.1738 15.3984 14.1688 15.3984C14.1639 15.3984 14.1589 15.3984 14.1539 15.3984C14.149 15.3984 14.144 15.3984 14.139 15.3984C14.1341 15.3984 14.1291 15.3984 14.1242 15.3984C14.1192 15.3984 14.1143 15.3984 14.1094 15.3984C14.1044 15.3984 14.0995 15.3984 14.0946 15.3984C14.0897 15.3984 14.0847 15.3984 14.0798 15.3984C14.0749 15.3984 14.07 15.3984 14.0651 15.3984C14.0602 15.3984 14.0553 15.3984 14.0504 15.3984C14.0455 15.3984 14.0406 15.3984 14.0357 15.3984C14.0308 15.3984 14.0259 15.3984 14.0211 15.3984C14.0162 15.3984 14.0113 15.3984 14.0065 15.3984C14.0016 15.3984 13.9967 15.3984 13.9919 15.3984C13.987 15.3984 13.9822 15.3984 13.9773 15.3984C13.9725 15.3984 13.9676 15.3984 13.9628 15.3984C13.958 15.3984 13.9531 15.3984 13.9483 15.3984C13.9435 15.3984 13.9387 15.3984 13.9338 15.3984C13.929 15.3984 13.9242 15.3984 13.9194 15.3984C13.9146 15.3984 13.9098 15.3984 13.905 15.3984C13.9002 15.3984 13.8954 15.3984 13.8906 15.3984C13.8859 15.3984 13.8811 15.3984 13.8763 15.3984C13.8715 15.3984 13.8668 15.3984 13.862 15.3984C13.8572 15.3984 13.8525 15.3984 13.8477 15.3984C13.843 15.3984 13.8382 15.3984 13.8335 15.3984C13.8287 15.3984 13.824 15.3984 13.8192 15.3984C13.8145 15.3984 13.8098 15.3984 13.805 15.3984C13.8003 15.3984 13.7956 15.3984 13.7909 15.3984C13.7862 15.3984 13.7815 15.3984 13.7767 15.3984C13.772 15.3984 13.7673 15.3984 13.7626 15.3984C13.7579 15.3984 13.7533 15.3984 13.7486 15.3984C13.7439 15.3984 13.7392 15.3984 13.7345 15.3984C13.7299 15.3984 13.7252 15.3984 13.7205 15.3984C13.7158 15.3984 13.7112 15.3984 13.7065 15.3984C13.7019 15.3984 13.6972 15.3984 13.6926 15.3984C13.6879 15.3984 13.6833 15.3984 13.6787 15.3984C13.674 15.3984 13.6694 15.3984 13.6648 15.3984C13.6601 15.3984 13.6555 15.3984 13.6509 15.3984C13.6463 15.3984 13.6417 15.3984 13.6371 15.3984C13.6324 15.3984 13.6278 15.3984 13.6232 15.3984C13.6186 15.3984 13.6141 15.3984 13.6095 15.3984C13.6049 15.3984 13.6003 15.3984 13.5957 15.3984C13.5911 15.3984 13.5866 15.3984 13.582 15.3984C13.5774 15.3984 13.5729 15.3984 13.5683 15.3984C13.5638 15.3984 13.5592 15.3984 13.5547 15.3984C13.5501 15.3984 13.5456 15.3984 13.541 15.3984C13.5365 15.3984 13.5319 15.3984 13.5274 15.3984C13.5229 15.3984 13.5184 15.3984 13.5138 15.3984C13.5093 15.3984 13.5048 15.3984 13.5003 15.3984C13.4958 15.3984 13.4913 15.3984 13.4868 15.3984C13.4823 15.3984 13.4778 15.3984 13.4733 15.3984C13.4688 15.3984 13.4643 15.3984 13.4599 15.3984C13.4554 15.3984 13.4509 15.3984 13.4464 15.3984C13.442 15.3984 13.4375 15.3984 13.433 15.3984C13.4286 15.3984 13.4241 15.3984 13.4197 15.3984C13.4152 15.3984 13.4108 15.3984 13.4063 15.3984C13.4019 15.3984 13.3974 15.3984 13.393 15.3984C13.3886 15.3984 13.3842 15.3984 13.3797 15.3984C13.3753 15.3984 13.3709 15.3984 13.3665 15.3984C13.3621 15.3984 13.3577 15.3984 13.3533 15.3984C13.3489 15.3984 13.3445 15.3984 13.3401 15.3984C13.3357 15.3984 13.3313 15.3984 13.3269 15.3984C13.3225 15.3984 13.3181 15.3984 13.3138 15.3984C13.3094 15.3984 13.305 15.3984 13.3007 15.3984C13.2963 15.3984 13.2919 15.3984 13.2876 15.3984C13.2832 15.3984 13.2789 15.3984 13.2745 15.3984C13.2702 15.3984 13.2658 15.3984 13.2615 15.3984C13.2572 15.3984 13.2528 15.3984 13.2485 15.3984C13.2442 15.3984 13.2399 15.3984 13.2355 15.3984C13.2312 15.3984 13.2269 15.3984 13.2226 15.3984C13.2183 15.3984 13.214 15.3984 13.2097 15.3984C13.2054 15.3984 13.2011 15.3984 13.1968 15.3984C13.1925 15.3984 13.1883 15.3984 13.184 15.3984C13.1797 15.3984 13.1754 15.3984 13.1712 15.3984C13.1669 15.3984 13.1626 15.3984 13.1584 15.3984C13.1541 15.3984 13.1499 15.3984 13.1456 15.3984C13.1414 15.3984 13.1371 15.3984 13.1329 15.3984C13.1286 15.3984 13.1244 15.3984 13.1202 15.3984C13.1159 15.3984 13.1117 15.3984 13.1075 15.3984C13.1033 15.3984 13.0991 15.3984 13.0948 15.3984C13.0906 15.3984 13.0864 15.3984 13.0822 15.3984C13.078 15.3984 13.0738 15.3984 13.0696 15.3984C13.0654 15.3984 13.0612 15.3984 13.0571 15.3984C13.0529 15.3984 13.0487 15.3984 13.0445 15.3984C13.0404 15.3984 13.0362 15.3984 13.032 15.3984C13.0279 15.3984 13.0237 15.3984 13.0195 15.3984C13.0154 15.3984 13.0112 15.3984 13.0071 15.3984C13.0029 15.3984 12.9988 15.3984 12.9947 15.3984C12.9905 15.3984 12.9864 15.3984 12.9823 15.3984C12.9781 15.3984 12.974 15.3984 12.9699 15.3984C12.9658 15.3984 12.9617 15.3984 12.9576 15.3984C12.9535 15.3984 12.9494 15.3984 12.9453 15.3984C12.9412 15.3984 12.9371 15.3984 12.933 15.3984C12.9289 15.3984 12.9248 15.3984 12.9207 15.3984C12.9166 15.3984 12.9126 15.3984 12.9085 15.3984C12.9044 15.3984 12.9004 15.3984 12.8963 15.3984C12.8922 15.3984 12.8882 15.3984 12.8841 15.3984C12.8801 15.3984 12.876 15.3984 12.872 15.3984C12.8679 15.3984 12.8639 15.3984 12.8599 15.3984C12.8558 15.3984 12.8518 15.3984 12.8478 15.3984C12.8438 15.3984 12.8397 15.3984 12.8357 15.3984C12.8317 15.3984 12.8277 15.3984 12.8237 15.3984C12.8197 15.3984 12.8157 15.3984 12.8117 15.3984C12.8077 15.3984 12.8037 15.3984 12.7997 15.3984C12.7957 15.3984 12.7917 15.3984 12.7878 15.3984C12.7838 15.3984 12.7798 15.3984 12.7758 15.3984C12.7719 15.3984 12.7679 15.3984 12.764 15.3984C12.76 15.3984 12.756 15.3984 12.7521 15.3984C12.7481 15.3984 12.7442 15.3984 12.7403 15.3984C12.7363 15.3984 12.7324 15.3984 12.7284 15.3984C12.7245 15.3984 12.7206 15.3984 12.7167 15.3984C12.7127 15.3984 12.7088 15.3984 12.7049 15.3984C12.701 15.3984 12.6971 15.3984 12.6932 15.3984C12.6893 15.3984 12.6854 15.3984 12.6815 15.3984C12.6776 15.3984 12.6737 15.3984 12.6698 15.3984C12.6659 15.3984 12.6621 15.3984 12.6582 15.3984C12.6543 15.3984 12.6504 15.3984 12.6466 15.3984C12.6427 15.3984 12.6388 15.3984 12.635 15.3984C12.6311 15.3984 12.6273 15.3984 12.6234 15.3984C12.6196 15.3984 12.6157 15.3984 12.6119 15.3984C12.608 15.3984 12.6042 15.3984 12.6004 15.3984C12.5965 15.3984 12.5927 15.3984 12.5889 15.3984C12.5851 15.3984 12.5813 15.3984 12.5774 15.3984C12.5736 15.3984 12.5698 15.3984 12.566 15.3984C12.5622 15.3984 12.5584 15.3984 12.5546 15.3984C12.5508 15.3984 12.547 15.3984 12.5432 15.3984C12.5395 15.3984 12.5357 15.3984 12.5319 15.3984C12.5281 15.3984 12.5244 15.3984 12.5206 15.3984C12.5168 15.3984 12.5131 15.3984 12.5093 15.3984C12.5055 15.3984 12.5018 15.3984 12.498 15.3984C12.4943 15.3984 12.4905 15.3984 12.4868 15.3984C12.4831 15.3984 12.4793 15.3984 12.4756 15.3984C12.4719 15.3984 12.4681 15.3984 12.4644 15.3984C12.4607 15.3984 12.457 15.3984 12.4533 15.3984C12.4496 15.3984 12.4458 15.3984 12.4421 15.3984C12.4384 15.3984 12.4347 15.3984 12.431 15.3984C12.4273 15.3984 12.4237 15.3984 12.42 15.3984C12.4163 15.3984 12.4126 15.3984 12.4089 15.3984C12.4052 15.3984 12.4016 15.3984 12.3979 15.3984C12.3942 15.3984 12.3906 15.3984 12.3869 15.3984C12.3833 15.3984 12.3796 15.3984 12.376 15.3984C12.3723 15.3984 12.3687 15.3984 12.365 15.3984C12.3614 15.3984 12.3577 15.3984 12.3541 15.3984C12.3505 15.3984 12.3468 15.3984 12.3432 15.3984C12.3396 15.3984 12.336 15.3984 12.3324 15.3984C12.3287 15.3984 12.3251 15.3984 12.3215 15.3984C12.3179 15.3984 12.3143 15.3984 12.3107 15.3984C12.3071 15.3984 12.3035 15.3984 12.2999 15.3984C12.2964 15.3984 12.2928 15.3984 12.2892 15.3984C12.2856 15.3984 12.282 15.3984 12.2785 15.3984C12.2749 15.3984 12.2713 15.3984 12.2678 15.3984C12.2642 15.3984 12.2607 15.3984 12.2571 15.3984C12.2536 15.3984 12.25 15.3984 12.2465 15.3984C12.2429 15.3984 12.2394 15.3984 12.2358 15.3984C12.2323 15.3984 12.2288 15.3984 12.2253 15.3984C12.2217 15.3984 12.2182 15.3984 12.2147 15.3984C12.2112 15.3984 12.2077 15.3984 12.2041 15.3984C12.2006 15.3984 12.1971 15.3984 12.1936 15.3984C12.1901 15.3984 12.1866 15.3984 12.1832 15.3984C12.1797 15.3984 12.1762 15.3984 12.1727 15.3984C12.1692 15.3984 12.1657 15.3984 12.1623 15.3984C12.1588 15.3984 12.1553 15.3984 12.1519 15.3984C12.1484 15.3984 12.1449 15.3984 12.1415 15.3984C12.138 15.3984 12.1346 15.3984 12.1311 15.3984C12.1277 15.3984 12.1242 15.3984 12.1208 15.3984C12.1174 15.3984 12.1139 15.3984 12.1105 15.3984C12.1071 15.3984 12.1036 15.3984 12.1002 15.3984C12.0968 15.3984 12.0934 15.3984 12.09 15.3984C12.0865 15.3984 12.0831 15.3984 12.0797 15.3984C12.0763 15.3984 12.0729 15.3984 12.0695 15.3984C12.0661 15.3984 12.0628 15.3984 12.0594 15.3984C12.056 15.3984 12.0526 15.3984 12.0492 15.3984C12.0458 15.3984 12.0425 15.3984 12.0391 15.3984C12.0357 15.3984 12.0324 15.3984 12.029 15.3984C12.0257 15.3984 12.0223 15.3984 12.0189 15.3984C12.0156 15.3984 12.0122 15.3984 12.0089 15.3984C12.0056 15.3984 12.0022 15.3984 11.9989 15.3984V16.3984ZM21.0948 16.3984C26.0706 16.3984 27.6585 16.3984 30.2166 16.3984L30.2166 15.3984C27.6585 15.3984 26.0706 15.3984 21.0948 15.3984V16.3984ZM11.5159 16.8831C11.5069 16.624 11.7195 16.3984 11.9989 16.3984V15.3984C11.1737 15.3984 10.4871 16.0732 10.5165 16.918L11.5159 16.8831ZM31.7 16.9181C31.7296 16.0725 31.041 15.3984 30.2166 15.3984L30.2166 16.3984C30.4968 16.3984 30.7097 16.6247 30.7006 16.883L31.7 16.9181Z" fill="url(#paint2_linear_480_4354)" style="mix-blend-mode:overlay" mask="url(#path-3-inside-1_480_4354)"/>
<g filter="url(#filter2_b_480_4354)">
<path d="M13.6034 28.4024C14.7497 28.3221 16.0794 28.8674 17.3028 29.5892C19.6564 30.9779 22.7345 30.9779 25.0881 29.5892C26.3115 28.8674 27.6412 28.3221 28.7875 28.4024C35.1681 28.8493 38.0667 36.7849 38.0667 41.8133C35.9391 44.0308 27.9869 46.0042 21.1955 46.0042C14.4041 46.0042 6.45179 44.0308 4.32422 41.8133C4.32438 36.7849 7.22283 28.8493 13.6034 28.4024Z" fill="url(#paint3_radial_480_4354)" fill-opacity="0.5"/>
</g>
<mask id="path-6-inside-2_480_4354" fill="white">
<path d="M13.6034 28.4024C14.7497 28.3221 16.0794 28.8674 17.3028 29.5892C19.6564 30.9779 22.7345 30.9779 25.0881 29.5892C26.3115 28.8674 27.6412 28.3221 28.7875 28.4024C35.1681 28.8493 38.0667 36.7849 38.0667 41.8133C35.9391 44.0308 27.9869 46.0042 21.1955 46.0042C14.4041 46.0042 6.45179 44.0308 4.32422 41.8133C4.32438 36.7849 7.22283 28.8493 13.6034 28.4024Z"/>
</mask>
<path d="M13.6034 28.4024L13.5685 27.9036L13.6034 28.4024ZM28.7875 28.4024L28.7526 28.9012L28.7875 28.4024ZM38.0667 41.8133L38.4275 42.1595L38.5667 42.0144V41.8133H38.0667ZM4.32422 41.8133L3.82422 41.8133L3.82421 42.0144L3.96342 42.1595L4.32422 41.8133ZM4.82422 41.8133C4.8243 39.3791 5.52959 36.2246 7.00546 33.6376C8.48008 31.0527 10.675 29.1087 13.6383 28.9012L13.5685 27.9036C10.1512 28.143 7.70664 30.3903 6.13686 33.142C4.56832 35.8916 3.8243 39.2191 3.82422 41.8133L4.82422 41.8133ZM37.7059 41.4672C37.2432 41.9494 36.4201 42.4567 35.2899 42.9446C34.1707 43.4278 32.7923 43.8744 31.2595 44.2551C28.1931 45.0165 24.5477 45.5042 21.1955 45.5042V46.5042C24.6346 46.5042 28.361 46.0052 31.5005 45.2256C33.0707 44.8357 34.5038 44.3732 35.6862 43.8627C36.8576 43.357 37.8264 42.7859 38.4275 42.1595L37.7059 41.4672ZM21.1955 45.5042C17.8432 45.5042 14.1978 45.0165 11.1314 44.2551C9.59861 43.8744 8.22026 43.4278 7.10106 42.9446C5.97082 42.4567 5.14773 41.9494 4.68501 41.4672L3.96342 42.1595C4.56449 42.7859 5.53327 43.357 6.70469 43.8627C7.88715 44.3732 9.32025 44.8357 10.8904 45.2256C14.0299 46.0052 17.7563 46.5042 21.1955 46.5042V45.5042ZM13.6383 28.9012C14.6252 28.832 15.8428 29.3083 17.0487 30.0198L17.5568 29.1586C16.3161 28.4265 14.8742 27.8121 13.5685 27.9036L13.6383 28.9012ZM25.3422 30.0198C26.5481 29.3083 27.7657 28.832 28.7526 28.9012L28.8224 27.9036C27.5167 27.8121 26.0748 28.4265 24.8341 29.1586L25.3422 30.0198ZM28.7526 28.9012C31.7159 29.1087 33.9109 31.0527 35.3855 33.6376C36.8614 36.2246 37.5667 39.3791 37.5667 41.8133H38.5667C38.5667 39.2191 37.8227 35.8916 36.2541 33.142C34.6843 30.3903 32.2397 28.143 28.8224 27.9036L28.7526 28.9012ZM17.0487 30.0198C19.5591 31.501 22.8318 31.501 25.3422 30.0198L24.8341 29.1586C22.6372 30.4548 19.7537 30.4548 17.5568 29.1586L17.0487 30.0198Z" fill="url(#paint4_linear_480_4354)" style="mix-blend-mode:overlay" mask="url(#path-6-inside-2_480_4354)"/>
<g filter="url(#filter3_b_480_4354)">
<path fill-rule="evenodd" clip-rule="evenodd" d="M11 12.9089C11 14.0135 11.8954 14.9089 13 14.9089H29C30.1046 14.9089 31 14.0135 31 12.9089V10.3044C31 9.485 30.5002 8.74848 29.7387 8.44584L22.8467 5.70663C21.6607 5.23524 20.3393 5.23524 19.1533 5.70663L12.2613 8.44584C11.4998 8.74848 11 9.485 11 10.3044V12.9089ZM20.1818 9.12493V7.7752C20.1818 7.32333 20.5481 6.95702 21 6.95702C21.4519 6.95702 21.8182 7.32333 21.8182 7.7752V9.12493H23.187C23.636 9.12493 24 9.4889 24 9.93789C24 10.3869 23.636 10.7509 23.187 10.7509H21.8182V12.1006C21.8182 12.5525 21.4519 12.9188 21 12.9188C20.5481 12.9188 20.1818 12.5525 20.1818 12.1006V10.7509H18.813C18.364 10.7509 18 10.3869 18 9.93789C18 9.4889 18.364 9.12493 18.813 9.12493H20.1818Z" fill="#D9D9D9" fill-opacity="0.5"/>
</g>
<mask id="path-9-inside-3_480_4354" fill="white">
<path fill-rule="evenodd" clip-rule="evenodd" d="M11 12.9089C11 14.0135 11.8954 14.9089 13 14.9089H29C30.1046 14.9089 31 14.0135 31 12.9089V10.3044C31 9.485 30.5002 8.74848 29.7387 8.44584L22.8467 5.70663C21.6607 5.23524 20.3393 5.23524 19.1533 5.70663L12.2613 8.44584C11.4998 8.74848 11 9.485 11 10.3044V12.9089ZM20.1818 9.12493V7.7752C20.1818 7.32333 20.5481 6.95702 21 6.95702C21.4519 6.95702 21.8182 7.32333 21.8182 7.7752V9.12493H23.187C23.636 9.12493 24 9.4889 24 9.93789C24 10.3869 23.636 10.7509 23.187 10.7509H21.8182V12.1006C21.8182 12.5525 21.4519 12.9188 21 12.9188C20.5481 12.9188 20.1818 12.5525 20.1818 12.1006V10.7509H18.813C18.364 10.7509 18 10.3869 18 9.93789C18 9.4889 18.364 9.12493 18.813 9.12493H20.1818Z"/>
</mask>
<path d="M29.7387 8.44584L29.9234 7.98119L29.7387 8.44584ZM22.8467 5.70663L23.0314 5.24198V5.24198L22.8467 5.70663ZM19.1533 5.70663L19.3379 6.17128V6.17128L19.1533 5.70663ZM12.2613 8.44584L12.446 8.91048L12.2613 8.44584ZM20.1818 9.12493V9.62493H20.6818V9.12493H20.1818ZM21.8182 9.12493H21.3182V9.62493H21.8182V9.12493ZM21.8182 10.7509V10.2509H21.3182V10.7509H21.8182ZM20.1818 10.7509H20.6818V10.2509H20.1818V10.7509ZM13 14.4089C12.1716 14.4089 11.5 13.7373 11.5 12.9089H10.5C10.5 14.2896 11.6193 15.4089 13 15.4089V14.4089ZM29 14.4089H13V15.4089H29V14.4089ZM30.5 12.9089C30.5 13.7373 29.8284 14.4089 29 14.4089V15.4089C30.3807 15.4089 31.5 14.2896 31.5 12.9089H30.5ZM30.5 10.3044V12.9089H31.5V10.3044H30.5ZM29.554 8.91048C30.1251 9.13747 30.5 9.68986 30.5 10.3044H31.5C31.5 9.28015 30.8752 8.3595 29.9234 7.98119L29.554 8.91048ZM22.6621 6.17128L29.554 8.91048L29.9234 7.98119L23.0314 5.24198L22.6621 6.17128ZM19.3379 6.17128C20.4054 5.74703 21.5946 5.74703 22.6621 6.17128L23.0314 5.24198C21.7268 4.72346 20.2732 4.72346 18.9686 5.24198L19.3379 6.17128ZM12.446 8.91048L19.3379 6.17128L18.9686 5.24198L12.0766 7.98119L12.446 8.91048ZM11.5 10.3044C11.5 9.68986 11.8749 9.13747 12.446 8.91048L12.0766 7.98119C11.1248 8.3595 10.5 9.28015 10.5 10.3044H11.5ZM11.5 12.9089V10.3044H10.5V12.9089H11.5ZM19.6818 7.7752V9.12493H20.6818V7.7752H19.6818ZM21 6.45702C20.272 6.45702 19.6818 7.04719 19.6818 7.7752H20.6818C20.6818 7.59948 20.8243 7.45702 21 7.45702V6.45702ZM22.3182 7.7752C22.3182 7.04719 21.728 6.45702 21 6.45702V7.45702C21.1757 7.45702 21.3182 7.59948 21.3182 7.7752H22.3182ZM22.3182 9.12493V7.7752H21.3182V9.12493H22.3182ZM23.187 8.62493H21.8182V9.62493H23.187V8.62493ZM24.5 9.93789C24.5 9.21276 23.9122 8.62493 23.187 8.62493V9.62493C23.3599 9.62493 23.5 9.76505 23.5 9.93789H24.5ZM23.187 11.2509C23.9122 11.2509 24.5 10.663 24.5 9.93789H23.5C23.5 10.1107 23.3599 10.2509 23.187 10.2509V11.2509ZM21.8182 11.2509H23.187V10.2509H21.8182V11.2509ZM22.3182 12.1006V10.7509H21.3182V12.1006H22.3182ZM21 13.4188C21.728 13.4188 22.3182 12.8286 22.3182 12.1006H21.3182C21.3182 12.2763 21.1757 12.4188 21 12.4188V13.4188ZM19.6818 12.1006C19.6818 12.8286 20.272 13.4188 21 13.4188V12.4188C20.8243 12.4188 20.6818 12.2763 20.6818 12.1006H19.6818ZM19.6818 10.7509V12.1006H20.6818V10.7509H19.6818ZM18.813 11.2509H20.1818V10.2509H18.813V11.2509ZM17.5 9.93789C17.5 10.663 18.0878 11.2509 18.813 11.2509V10.2509C18.6401 10.2509 18.5 10.1107 18.5 9.93789H17.5ZM18.813 8.62493C18.0878 8.62493 17.5 9.21276 17.5 9.93789H18.5C18.5 9.76505 18.6401 9.62493 18.813 9.62493V8.62493ZM20.1818 8.62493H18.813V9.62493H20.1818V8.62493Z" fill="url(#paint5_linear_480_4354)" style="mix-blend-mode:overlay" mask="url(#path-9-inside-3_480_4354)"/>
</g>
<defs>
<filter id="filter0_d_480_4354" x="0.324219" y="5.35309" width="41.7422" height="48.6511" filterUnits="userSpaceOnUse" color-interpolation-filters="sRGB">
<feFlood flood-opacity="0" result="BackgroundImageFix"/>
<feColorMatrix in="SourceAlpha" type="matrix" values="0 0 0 0 0 0 0 0 0 0 0 0 0 0 0 0 0 0 127 0" result="hardAlpha"/>
<feOffset dy="4"/>
<feGaussianBlur stdDeviation="2"/>
<feComposite in2="hardAlpha" operator="out"/>
<feColorMatrix type="matrix" values="0 0 0 0 0 0 0 0 0 0 0 0 0 0 0 0 0 0 0.3 0"/>
<feBlend mode="normal" in2="BackgroundImageFix" result="effect1_dropShadow_480_4354"/>
<feBlend mode="normal" in="SourceGraphic" in2="effect1_dropShadow_480_4354" result="shape"/>
</filter>
<filter id="filter1_b_480_4354" x="8.01562" y="12.8984" width="26.1855" height="18.5013" filterUnits="userSpaceOnUse" color-interpolation-filters="sRGB">
<feFlood flood-opacity="0" result="BackgroundImageFix"/>
<feGaussianBlur in="BackgroundImage" stdDeviation="1.5"/>
<feComposite in2="SourceAlpha" operator="in" result="effect1_backgroundBlur_480_4354"/>
<feBlend mode="normal" in="SourceGraphic" in2="effect1_backgroundBlur_480_4354" result="shape"/>
</filter>
<filter id="filter2_b_480_4354" x="1.32422" y="25.3945" width="39.7422" height="23.6097" filterUnits="userSpaceOnUse" color-interpolation-filters="sRGB">
<feFlood flood-opacity="0" result="BackgroundImageFix"/>
<feGaussianBlur in="BackgroundImage" stdDeviation="1.5"/>
<feComposite in2="SourceAlpha" operator="in" result="effect1_backgroundBlur_480_4354"/>
<feBlend mode="normal" in="SourceGraphic" in2="effect1_backgroundBlur_480_4354" result="shape"/>
</filter>
<filter id="filter3_b_480_4354" x="8" y="2.35309" width="26" height="15.5558" filterUnits="userSpaceOnUse" color-interpolation-filters="sRGB">
<feFlood flood-opacity="0" result="BackgroundImageFix"/>
<feGaussianBlur in="BackgroundImage" stdDeviation="1.5"/>
<feComposite in2="SourceAlpha" operator="in" result="effect1_backgroundBlur_480_4354"/>
<feBlend mode="normal" in="SourceGraphic" in2="effect1_backgroundBlur_480_4354" result="shape"/>
</filter>
<linearGradient id="paint0_linear_480_4354" x1="10.225" y1="10.5618" x2="40.2004" y2="32.0135" gradientUnits="userSpaceOnUse">
<stop stop-color="#4AC0AF"/>
<stop offset="1" stop-color="#0069A7"/>
</linearGradient>
<radialGradient id="paint1_radial_480_4354" cx="0" cy="0" r="1" gradientUnits="userSpaceOnUse" gradientTransform="translate(15.7332 16.8375) rotate(57.4159) scale(13.1328 15.5263)">
<stop stop-color="white"/>
<stop offset="1" stop-color="#C9C5C5"/>
</radialGradient>
<linearGradient id="paint2_linear_480_4354" x1="21.1083" y1="17.2658" x2="27.4707" y2="27.1721" gradientUnits="userSpaceOnUse">
<stop stop-color="white" stop-opacity="0.51"/>
<stop offset="1" stop-opacity="0.44"/>
</linearGradient>
<radialGradient id="paint3_radial_480_4354" cx="0" cy="0" r="1" gradientUnits="userSpaceOnUse" gradientTransform="translate(12.2102 29.7174) rotate(52.8208) scale(19.5639 24.542)">
<stop stop-color="white"/>
<stop offset="1" stop-color="#C9C5C5"/>
</radialGradient>
<linearGradient id="paint4_linear_480_4354" x1="21.1955" y1="30.3206" x2="29.4463" y2="45.5657" gradientUnits="userSpaceOnUse">
<stop stop-color="white" stop-opacity="0.51"/>
<stop offset="1" stop-opacity="0.44"/>
</linearGradient>
<linearGradient id="paint5_linear_480_4354" x1="21" y1="6.39825" x2="25.255" y2="14.9858" gradientUnits="userSpaceOnUse">
<stop stop-color="white" stop-opacity="0.51"/>
<stop offset="1" stop-opacity="0.44"/>
</linearGradient>
</defs>
</svg>
