<svg width="20" height="17" viewBox="0 0 20 17" fill="none" xmlns="http://www.w3.org/2000/svg">
<path d="M1.41137 0.0542603C1.03692 0.0542603 0.677812 0.203187 0.413037 0.468289C0.148261 0.733391 -0.000488281 1.09296 -0.000488281 1.46787C-0.000488281 1.84279 0.148261 2.20231 0.413037 2.46741C0.677812 2.73251 1.03692 2.88149 1.41137 2.88149H18.352C18.7265 2.88149 19.0856 2.73251 19.3504 2.46741C19.6151 2.20231 19.7639 1.84279 19.7639 1.46787C19.7639 1.09296 19.6151 0.733391 19.3504 0.468289C19.0856 0.203187 18.7265 0.0542603 18.352 0.0542603H1.41137ZM1.41137 6.65051C1.03692 6.65051 0.677812 6.79944 0.413037 7.06454C0.148261 7.32964 -0.000488281 7.68921 -0.000488281 8.06413C-0.000488281 8.43904 0.148261 8.79856 0.413037 9.06366C0.677812 9.32876 1.03692 9.47774 1.41137 9.47774H10.7508C11.1252 9.47774 11.4844 9.32876 11.7491 9.06366C12.0139 8.79856 12.1627 8.43904 12.1627 8.06413C12.1627 7.68921 12.0139 7.32964 11.7491 7.06454C11.4844 6.79944 11.1252 6.65051 10.7508 6.65051H1.41137ZM1.41137 13.2468C1.03692 13.2468 0.677812 13.3957 0.413037 13.6608C0.148261 13.9259 -0.000488281 14.2855 -0.000488281 14.6604C-0.000488281 15.0353 0.148261 15.3948 0.413037 15.6599C0.677812 15.925 1.03692 16.074 1.41137 16.074H18.352C18.7265 16.074 19.0856 15.925 19.3504 15.6599C19.6151 15.3948 19.7639 15.0353 19.7639 14.6604C19.7639 14.2855 19.6151 13.9259 19.3504 13.6608C19.0856 13.3957 18.7265 13.2468 18.352 13.2468H1.41137Z" fill="#055293"/>
</svg>
