<svg width="20" height="19" viewBox="0 0 20 19" fill="none" xmlns="http://www.w3.org/2000/svg">
<path d="M19.7569 11.9808C19.5139 11.6609 19.0278 11.3764 18.6111 11.3764C18.3681 11.3764 17.9861 11.5187 17.8125 11.6609L13.6458 14.7894H9.44444C9.16667 14.7894 8.88889 14.5405 8.88889 14.2206C8.88889 13.9362 9.16667 13.6518 9.44444 13.6518H12.1875C12.7431 13.6518 13.2292 13.2607 13.3333 12.7274C13.3333 12.6563 13.3333 12.5852 13.3333 12.5141C13.3333 11.9097 12.8472 11.3764 12.2222 11.3764H6.66667C5.86806 11.3764 4.72222 11.8031 4.09722 12.3363L2.5 13.6518H0.555556C0.277778 13.6518 0 13.9362 0 14.2206V17.6335C0 17.9535 0.277778 18.2024 0.555556 18.2024H12.6042C13.2639 18.2024 14.2361 17.8824 14.7569 17.4913L19.4444 13.9362C19.7569 13.7229 20 13.1896 20 12.7985C20 12.5497 19.8958 12.1586 19.7569 11.9808Z" fill="#055293"/>
<path d="M7.77778 6.25705H5.55556C5.27778 6.25705 5 6.00819 5 5.68822V3.41294C5 3.09297 5.27778 2.84411 5.55556 2.84411H7.77778V0.568823C7.77778 0.24886 8.05556 0 8.33333 0H10.5556C10.8681 0 11.1111 0.24886 11.1111 0.568823V2.84411H13.3333C13.6458 2.84411 13.8889 3.09297 13.8889 3.41294V5.68822C13.8889 6.00819 13.6458 6.25705 13.3333 6.25705H11.1111V8.53234C11.1111 8.8523 10.8681 9.10116 10.5556 9.10116H8.33333C8.05556 9.10116 7.77778 8.8523 7.77778 8.53234V6.25705Z" fill="#3CA70D"/>
</svg>
