<svg width="20" height="17" viewBox="0 0 20 17" fill="none" xmlns="http://www.w3.org/2000/svg">
<path d="M5.55556 6.375H7.22222V7.96875C7.22222 8.26758 7.46528 8.5 7.77778 8.5H11.1111C11.3889 8.5 11.6667 8.26758 11.6667 7.96875V6.375H13.3333C13.6111 6.375 13.8889 6.14258 13.8889 5.84375V2.65625C13.8889 2.39062 13.6111 2.125 13.3333 2.125H11.6667V0.53125C11.6667 0.265625 11.3889 0 11.1111 0H7.77778C7.46528 0 7.22222 0.265625 7.22222 0.53125V2.125H5.55556C5.24306 2.125 5 2.39062 5 2.65625V5.84375C5 6.14258 5.24306 6.375 5.55556 6.375ZM6.11111 3.1875H8.33333V1.0625H10.5556V3.1875H12.7778V5.3125H10.5556V7.4375H8.33333V5.3125H6.11111V3.1875ZM19.375 11.0898C19.0278 10.8242 18.6111 10.6582 18.1597 10.6582C17.6736 10.6582 17.2569 10.791 16.9444 11.0566L14.7917 12.6836C14.7569 12.75 14.6528 12.75 14.5833 12.75H13.125C13.2639 12.5176 13.2986 12.252 13.2986 11.9531C13.2986 11.8867 13.2986 11.7871 13.2986 11.6875C13.1597 10.7578 12.2569 10.0938 11.2847 10.0938H6.28472C5.52083 10.0938 4.82639 10.3594 4.27083 10.7578L2.95139 11.6875H0.277778C0.104167 11.6875 0 11.8203 0 11.9531V12.4844C0 12.6504 0.104167 12.75 0.277778 12.75H3.33333L4.93056 11.5879C5.3125 11.3223 5.76389 11.1562 6.28472 11.1562H11.3889C11.8403 11.1562 12.2222 11.5215 12.2222 11.9531C12.2222 12.418 11.8403 12.75 11.3889 12.75H8.33333C8.02083 12.75 7.77778 13.0156 7.77778 13.2812C7.77778 13.5801 8.02083 13.8125 8.33333 13.8125H14.5833C14.9306 13.8125 15.2431 13.7129 15.4861 13.5137L17.6389 11.8867C17.7778 11.7871 17.9514 11.7207 18.1597 11.7207C18.3333 11.7207 18.5069 11.7871 18.6111 11.8867C18.7847 12.0195 18.8889 12.1855 18.8889 12.418C18.8889 12.6504 18.75 12.8496 18.6111 12.9492L15.1042 15.6387C14.8264 15.8379 14.5139 15.9375 14.1667 15.9375H0.277778C0.104167 15.9375 0 16.0703 0 16.2031V16.7344C0 16.9004 0.104167 17 0.277778 17H14.1667C14.7917 17 15.3472 16.8008 15.7986 16.4688L19.3056 13.7793C19.7222 13.4805 20 12.9824 20 12.418C20 11.8867 19.7569 11.4219 19.375 11.0898Z" fill="white"/>
</svg>
