<svg width="16" height="16" viewBox="0 0 16 16" fill="none" xmlns="http://www.w3.org/2000/svg">
<path d="M15.9062 8.59375C15.25 7.125 14.375 3.875 13.625 2.78125C12.5312 1.25 10.1562 0 8.3125 0H6C2.6875 0 0 2.6875 0 6V6.03125C0 7.5 0.875 9.5 2 10.4688V16H10V14H12C13.0938 14 14 13.125 14 12V10H15C15.5312 10 15.9688 9.5625 15.9688 9C15.9688 8.90625 15.9375 8.71875 15.9062 8.59375ZM10 6.75C10 6.90625 9.875 7 9.75 7H8V8.75C8 8.90625 7.875 9 7.75 9H6.25C6.09375 9 6 8.90625 6 8.75V7H4.25C4.09375 7 4 6.90625 4 6.75V5.25C4 5.125 4.09375 5 4.25 5H6V3.25C6 3.125 6.09375 3 6.25 3H7.75C7.875 3 8 3.125 8 3.25V5H9.75C9.875 5 10 5.125 10 5.25V6.75Z" fill="#999999"/>
</svg>
