<svg width="17" height="16" viewBox="0 0 17 16" fill="none" xmlns="http://www.w3.org/2000/svg">
<path d="M11.5 6.75V5.25C11.5 5.125 11.375 5 11.25 5H9.5V3.25C9.5 3.125 9.375 3 9.25 3H7.75C7.59375 3 7.5 3.125 7.5 3.25V5H5.75C5.59375 5 5.5 5.125 5.5 5.25V6.75C5.5 6.90625 5.59375 7 5.75 7H7.5V8.75C7.5 8.90625 7.59375 9 7.75 9H9.25C9.375 9 9.5 8.90625 9.5 8.75V7H11.25C11.375 7 11.5 6.90625 11.5 6.75ZM16.9062 8.59375C16.25 7.125 15.375 3.875 14.625 2.78125C13.4375 1.09375 11.5 0 9.3125 0H7.25C3.96875 0 1.125 2.53125 1 5.78125C1 5.875 0.96875 5.9375 0.96875 6.03125C0.96875 7.78125 1.75 9.375 3 10.4688V15.5C3 15.7812 3.21875 16 3.5 16H4C4.25 16 4.5 15.7812 4.5 15.5V9.8125L4 9.375C2.53125 8.03125 2 5.875 2.96875 3.96875C3.78125 2.40625 5.46875 1.5 7.21875 1.5H9.3125C11 1.53125 12.4688 2.34375 13.375 3.625C13.75 4.125 14.25 5.6875 14.6562 6.8125C14.8438 7.4375 15.0625 8 15.25 8.5H13.5V12C13.5 12.2812 13.25 12.5 13 12.5H10.5V15.5C10.5 15.7812 10.7188 16 11 16H11.5C11.75 16 12 15.7812 12 15.5V14H13C14.0938 14 15 13.125 15 12V10H16C16.5312 10 16.9688 9.5625 16.9688 9C16.9688 8.875 16.9375 8.71875 16.9062 8.59375Z" fill="#999999"/>
</svg>
