<svg width="150" height="69" viewBox="0 0 150 69" fill="none" xmlns="http://www.w3.org/2000/svg">
<path d="M53.852 43.1028C51.4253 43.1236 49.031 42.5456 46.8811 41.42L47.5418 37.0627C49.4548 38.1264 51.6033 38.6949 53.792 38.7163C56.2556 38.7163 57.3377 37.8142 57.3377 36.252C57.3377 32.7062 46.9711 34.2091 46.9711 26.6668C46.9711 22.8496 49.4347 19.7553 55.1441 19.7553C57.3018 19.7532 59.4412 20.1506 61.4542 20.9274L60.8228 25.1939C59.0701 24.5968 57.236 24.2725 55.3848 24.2325C52.5891 24.2325 51.8383 25.1939 51.8383 26.3961C51.8383 29.9112 62.205 28.289 62.205 35.9213C62.2057 40.3678 59.1106 43.1028 53.852 43.1028Z" fill="white"/>
<path d="M74.6209 40.9393L74.5309 40.9093C73.9128 41.5964 73.1505 42.1385 72.2984 42.4966C71.4464 42.8547 70.5257 43.02 69.6023 42.9807C66.1465 42.9807 63.9529 41.0278 63.9529 36.9413C63.9529 33.5763 66.2972 31.2619 70.4437 31.2619C71.6245 31.2553 72.7995 31.4275 73.9288 31.7727V30.7212C73.9288 28.8883 72.9673 28.0469 70.4737 28.0469C68.7489 28.0094 67.0367 28.3477 65.4558 29.0383L65.0643 25.3125C67.0443 24.4912 69.171 24.0821 71.3144 24.1104C76.6931 24.1104 78.5567 26.4247 78.5567 31.4127V42.6807H74.981L74.6209 40.9393ZM73.9288 34.8677C73.0975 34.5853 72.2228 34.4528 71.3452 34.4763C69.2737 34.4763 68.3101 35.2884 68.3101 36.8806C68.3101 38.6528 69.3616 39.2842 70.8937 39.2842C72.4866 39.2842 73.9281 38.3228 73.9281 37.1506L73.9288 34.8677Z" fill="white"/>
<path d="M92.504 42.6821V31.0826C92.504 29.0697 91.4818 28.2583 89.5589 28.2583C88.9772 28.2452 88.4 28.3625 87.8696 28.6017C87.3392 28.8409 86.8691 29.1958 86.4939 29.6405V42.6821H81.8066V24.5618L85.1717 24.3511L85.8632 25.914C87.2636 24.7274 89.0457 24.0869 90.8811 24.1104C94.7276 24.1104 97.1619 26.5447 97.1619 31.0819V42.6814L92.504 42.6821Z" fill="white"/>
<path d="M102.756 22.5168C100.952 22.5168 100.081 22.0061 100.081 20.5346C100.081 19.2424 100.953 18.521 102.756 18.521C104.588 18.521 105.399 19.2117 105.399 20.5346C105.399 21.8575 104.589 22.5168 102.756 22.5168ZM100.348 42.6822V24.5925L105.126 24.3818V42.6822H100.348Z" fill="white"/>
<path d="M114.597 27.9576V37.2727C114.597 38.6849 115.318 39.2856 116.76 39.2856C117.249 39.2858 117.735 39.215 118.203 39.0756L118.473 42.4714C117.471 42.8286 116.412 43.0016 115.348 42.9821C111.712 42.9821 109.939 40.8785 109.939 37.4227V27.9576H107.896V24.4725H109.957V20.8067L114.599 20.7031V24.4725H118.657V27.9576H114.597Z" fill="white"/>
<path d="M130.707 40.9393L130.617 40.9093C129.999 41.5964 129.236 42.1385 128.384 42.4966C127.532 42.8547 126.612 43.02 125.688 42.9807C122.232 42.9807 120.039 41.0278 120.039 36.9413C120.039 33.5763 122.383 31.2619 126.53 31.2619C127.71 31.2553 128.885 31.4275 130.015 31.7727V30.7212C130.015 28.8883 129.053 28.0469 126.56 28.0469C124.835 28.0094 123.123 28.3477 121.542 29.0383L121.15 25.3125C123.13 24.4912 125.257 24.0821 127.4 24.1104C132.779 24.1104 134.643 26.4247 134.643 31.4127V42.6807H131.067L130.707 40.9393ZM130.015 34.8677C129.183 34.5853 128.309 34.4528 127.431 34.4763C125.36 34.4763 124.396 35.2884 124.396 36.8806C124.396 38.6528 125.447 39.2842 126.98 39.2842C128.573 39.2842 130.014 38.3228 130.014 37.1506L130.015 34.8677Z" fill="white"/>
<path d="M143.061 43.0422C141.082 43.1003 139.12 42.6669 137.351 41.7807L137.832 37.9342C139.436 38.7764 141.219 39.2196 143.031 39.2264C144.894 39.2264 145.674 38.4749 145.674 37.3928C145.674 34.4777 137.23 36.1606 137.23 29.7905C137.23 26.5154 139.454 24.1718 144.142 24.1718C145.912 24.1667 147.667 24.5033 149.309 25.1633L148.919 28.9797C147.365 28.3818 145.716 28.0673 144.051 28.0512C142.519 28.0512 141.677 28.6526 141.677 29.5833C141.677 32.3484 150 30.6955 150 36.9763C150.002 40.6085 147.989 43.0422 143.061 43.0422Z" fill="white"/>
<path d="M11.7103 64.5661H7.85311L7.09452 66.6805H6.33594L9.37957 58.671H10.216L13.2589 66.6805H12.4689L11.7103 64.5661ZM9.51028 60.0175L8.09025 63.9368H11.4867L10.0874 60.0175L9.821 59.1953H9.78743L9.51028 60.0175Z" fill="white"/>
<path d="M74.0821 59.5789C73.5331 59.3391 72.9404 59.2155 72.3414 59.2161C70.5156 59.2161 69.6613 60.049 69.6613 62.5904C69.6613 65.3048 70.5256 66.1576 72.3757 66.1576C72.978 66.1642 73.5725 66.0209 74.1057 65.7405L74.2228 66.3491C73.6241 66.656 72.9626 66.8205 72.2899 66.8298C69.962 66.8298 68.937 65.5376 68.937 62.5904C68.937 59.7818 69.9835 58.5432 72.3114 58.5432C72.9538 58.5468 73.5891 58.6777 74.1807 58.9282L74.0821 59.5789Z" fill="white"/>
<path d="M77.9252 66.8198C76.0887 66.8198 75.2659 65.9019 75.2659 63.5419C75.2659 61.204 76.0987 60.2747 77.9252 60.2747C79.7724 60.2747 80.5524 61.2033 80.5524 63.5419C80.5524 65.9012 79.7724 66.8198 77.9252 66.8198ZM77.9252 66.2541C79.3352 66.2541 79.8795 65.5069 79.8795 63.5397C79.8795 61.5854 79.3352 60.8482 77.9252 60.8482C76.5152 60.8482 75.9388 61.5854 75.9388 63.5397C75.9388 65.5176 76.5052 66.2541 77.9252 66.2541Z" fill="white"/>
<path d="M89.3818 66.6806V62.3983C89.4046 62.1936 89.3806 61.9864 89.3114 61.7923C89.2422 61.5983 89.1298 61.4225 88.9826 61.2784C88.8355 61.1343 88.6574 61.0255 88.462 60.9604C88.2665 60.8953 88.0589 60.8755 87.8547 60.9026C87.6696 60.8888 87.4836 60.9139 87.3088 60.9762C87.134 61.0386 86.9742 61.1368 86.8397 61.2647C86.7051 61.3925 86.5988 61.5471 86.5275 61.7184C86.4563 61.8898 86.4218 62.0742 86.4261 62.2598V66.6813H85.7832V62.2598C85.7977 62.0716 85.77 61.8826 85.7023 61.7064C85.6346 61.5303 85.5285 61.3714 85.3916 61.2414C85.2548 61.1115 85.0907 61.0136 84.9114 60.955C84.732 60.8964 84.5417 60.8785 84.3546 60.9026C84.0482 60.9041 83.747 60.9821 83.4785 61.1296C83.2099 61.277 82.9824 61.4892 82.8167 61.7469V66.6806H82.1738V60.3912L82.6331 60.3483L82.761 61.1176H82.7931C82.9857 60.8582 83.2371 60.6484 83.5268 60.5053C83.8164 60.3622 84.1359 60.29 84.4589 60.2947C84.8243 60.2494 85.1944 60.328 85.51 60.5178C85.8255 60.7077 86.0684 60.9978 86.1996 61.3419H86.2318C86.3825 61.0047 86.6335 60.7223 86.9507 60.5331C87.2678 60.3439 87.6357 60.2571 88.0039 60.2847C88.2827 60.2599 88.5634 60.298 88.8254 60.3962C89.0875 60.4944 89.3241 60.6502 89.5178 60.8522C89.7115 61.0541 89.8574 61.297 89.9446 61.5629C90.0319 61.8288 90.0583 62.1109 90.0218 62.3883V66.6813L89.3818 66.6806Z" fill="white"/>
<path d="M94.4626 66.809C94.1124 66.8297 93.7623 66.7668 93.4412 66.6256C93.12 66.4844 92.837 66.2689 92.6155 65.9969L92.594 66.0069L92.604 66.8719V68.2176H91.9319V60.4111L92.4119 60.3682L92.5512 61.0946H92.5833C92.8289 60.8228 93.1313 60.6082 93.469 60.4661C93.8067 60.324 94.1716 60.2579 94.5377 60.2725C96.0748 60.2725 96.9506 61.0518 96.9506 63.5182C96.9513 65.9111 96.0005 66.809 94.4626 66.809ZM94.3991 60.8932C94.05 60.8728 93.7016 60.9426 93.3874 61.0959C93.0731 61.2491 92.8036 61.4806 92.6048 61.7682V65.3133C92.7848 65.6069 93.0402 65.847 93.3445 66.0086C93.6487 66.1701 93.9907 66.2472 94.3348 66.2319C95.467 66.2319 96.2784 65.6761 96.2784 63.5175C96.277 61.4589 95.5948 60.8932 94.3991 60.8932V60.8932Z" fill="white"/>
<path d="M102.172 65.7941L102.139 65.7841C101.926 66.1059 101.633 66.3666 101.289 66.5407C100.944 66.7148 100.56 66.7962 100.175 66.777C99.9099 66.8077 99.6414 66.7774 99.3899 66.6883C99.1384 66.5992 98.9106 66.4538 98.7241 66.263C98.5375 66.0723 98.397 65.8414 98.3135 65.588C98.2299 65.3347 98.2055 65.0655 98.2421 64.8012C98.2421 63.6055 98.9792 62.9219 100.516 62.9219C101.052 62.9237 101.584 63.0177 102.088 63.1998V62.4205C102.088 61.224 101.588 60.8397 100.475 60.8397C99.8566 60.8254 99.2439 60.961 98.6892 61.2347L98.6178 60.6683C99.2338 60.3855 99.9051 60.2432 100.583 60.2518C102.121 60.2518 102.74 60.8819 102.74 62.5162V66.6812H102.249L102.172 65.7941ZM102.086 63.7119C101.628 63.4893 101.121 63.3864 100.612 63.4126C99.3978 63.4126 98.8614 63.9126 98.8614 64.7905C98.8392 64.9884 98.8628 65.1887 98.9305 65.376C98.9981 65.5633 99.1079 65.7326 99.2514 65.8707C99.3949 66.0088 99.5682 66.112 99.7579 66.1724C99.9477 66.2328 100.149 66.2488 100.346 66.2191C101.264 66.2191 102.086 65.5762 102.086 64.9698L102.086 63.7119Z" fill="white"/>
<path d="M108.663 66.6813V62.4305C108.663 61.3519 108.065 60.8933 106.997 60.8933C106.663 60.8899 106.333 60.9658 106.034 61.1148C105.735 61.2638 105.476 61.4817 105.278 61.7505V66.6841H104.635V60.3947L105.094 60.3519L105.211 61.1112H105.243C105.482 60.8419 105.777 60.6279 106.107 60.484C106.437 60.3402 106.794 60.27 107.154 60.2783C107.444 60.2431 107.739 60.2743 108.015 60.3695C108.291 60.4647 108.542 60.6214 108.749 60.8278C108.956 61.0342 109.113 61.2849 109.209 61.5609C109.304 61.8369 109.336 62.1311 109.302 62.4212V66.682L108.663 66.6813Z" fill="white"/>
<path d="M113.403 66.884L113.446 66.7448L110.648 60.3803H111.428L113.457 65.3033L113.777 66.1033H113.808L114.064 65.2819L115.752 60.3796H116.466L114.084 66.8512C113.689 67.9405 113.123 68.3355 112.333 68.3355C112.015 68.3379 111.701 68.2686 111.414 68.1326L111.5 67.6098C111.722 67.7351 111.971 67.8012 112.226 67.8019C112.741 67.8019 113.093 67.5883 113.403 66.884Z" fill="white"/>
<path d="M19.7527 62.2761V66.6904H17.8955V56.631H19.7527V62.2739V62.2761ZM20.6749 61.021C20.8641 60.776 23.5556 56.6302 23.5556 56.6302H25.7171C25.7171 56.6302 23.132 60.3853 22.8327 60.8939C22.5335 61.4025 22.5999 61.4889 22.7685 61.8225C22.937 62.1561 25.8878 66.6919 25.8878 66.6919H23.6349C23.6349 66.6919 20.9591 62.6118 20.7213 62.2282C20.6095 62.0483 20.5464 61.8424 20.5383 61.6308C20.5301 61.4191 20.5772 61.209 20.6749 61.021Z" fill="white"/>
<path d="M26.1086 62.5176C26.0395 61.4568 26.3404 60.4049 26.96 59.5411C27.2847 59.178 27.6888 58.8948 28.1409 58.7135C28.593 58.5322 29.0809 58.4578 29.5665 58.4961C30.0257 58.4892 30.4826 58.5637 30.9158 58.7161C31.3075 58.8586 31.6591 59.0933 31.9408 59.4004C32.2424 59.7378 32.4669 60.1368 32.5987 60.5697C32.762 61.1098 32.8393 61.6721 32.828 62.2362C32.828 62.3633 32.828 62.499 32.8216 62.6455C32.8182 62.7824 32.8072 62.919 32.7887 63.0548H27.8765C27.8477 63.695 28.0726 64.3207 28.5022 64.7962C28.9932 65.1669 29.6031 65.3448 30.2165 65.2962C30.9607 65.3018 31.6983 65.156 32.3844 64.8677L32.588 66.2963C32.2197 66.4811 31.8301 66.6197 31.428 66.7091C30.9636 66.8137 30.4888 66.8645 30.0129 66.8605C29.4689 66.9092 28.9209 66.8376 28.4076 66.6508C27.8943 66.464 27.4284 66.1667 27.0429 65.7798C26.3526 64.8413 26.0216 63.6864 26.11 62.5248L26.1086 62.5176ZM27.8393 61.909H31.2579C31.2971 61.3658 31.1298 60.8277 30.7894 60.4026C30.6278 60.252 30.4374 60.1355 30.2298 60.0601C30.0221 59.9848 29.8014 59.9521 29.5808 59.964C29.3469 59.9422 29.111 59.972 28.8899 60.0512C28.6687 60.1305 28.4676 60.2572 28.3007 60.4226C27.9931 60.8566 27.8315 61.3771 27.8393 61.909" fill="white"/>
<path d="M34.1736 66.7026V58.6796L35.5422 58.601L35.69 60.1146H35.7286C35.9362 59.6337 36.2717 59.2189 36.6986 58.9153C37.0952 58.6457 37.5649 58.5041 38.0444 58.5096C38.3296 58.5035 38.6142 58.5386 38.8894 58.6139L38.7844 60.3432C38.6533 60.2983 38.5185 60.2653 38.3815 60.2446C38.2354 60.2226 38.0878 60.2119 37.9401 60.2125C37.6584 60.2093 37.3793 60.2663 37.1215 60.3796C36.8738 60.4897 36.6526 60.6517 36.4729 60.8546C36.279 61.0777 36.1311 61.337 36.0379 61.6175C35.9264 61.9453 35.8718 62.2898 35.8765 62.6361V66.7033L34.1736 66.7026Z" fill="white"/>
<path d="M48.144 66.7026V56.5774L49.8469 56.5553V66.7026H48.144Z" fill="white"/>
<path d="M52.0747 56.6224L53.7583 56.6031V58.6268H55.6512V59.9439H53.7583V64.4476C53.7445 64.5884 53.7619 64.7306 53.8093 64.8639C53.8568 64.9973 53.933 65.1185 54.0326 65.219C54.2583 65.388 54.537 65.4709 54.8184 65.4526C54.9379 65.4517 55.0571 65.4431 55.1755 65.4269C55.2768 65.4151 55.3767 65.3929 55.4734 65.3605L55.5848 66.6269C55.4092 66.6986 55.2254 66.7485 55.0377 66.7755C54.8016 66.8152 54.5627 66.8348 54.3234 66.8341C54.0121 66.8584 53.6992 66.816 53.4055 66.7098C53.1119 66.6037 52.8442 66.4361 52.6205 66.2183C52.2184 65.7302 52.0171 65.1073 52.0576 64.4762L52.0747 56.6224Z" fill="white"/>
<path d="M56.5828 58.6268H58.5407L60.3493 63.9841L60.7157 65.0048H60.755L61.0236 63.9584L62.5893 58.6283H64.4165L61.5593 66.7306C61.358 67.3848 60.9754 67.9686 60.4557 68.4142C59.9843 68.7519 59.4145 68.9244 58.8349 68.9049C58.6054 68.9054 58.3763 68.8843 58.1507 68.842C57.9329 68.8028 57.7207 68.7375 57.5185 68.6477L57.6685 67.387C57.8085 67.4518 57.9544 67.503 58.1042 67.5399C58.247 67.5733 58.3933 67.5898 58.5399 67.5891C58.805 67.5948 59.0669 67.5305 59.2992 67.4027C59.5538 67.2349 59.7488 66.9909 59.8564 66.7056L59.895 66.5877L56.5828 58.6268Z" fill="white"/>
<path d="M45.8746 60.2125C45.7867 59.8464 45.6026 59.5103 45.3412 59.2392C45.0799 58.9681 44.7509 58.7717 44.3882 58.6704C43.9223 58.5355 43.4387 58.4724 42.9539 58.4832C42.0249 58.4634 41.1021 58.6378 40.2445 58.9954L40.3974 60.399C40.7458 60.2502 41.1074 60.1345 41.4774 60.0532C41.8635 59.9764 42.2566 59.9401 42.6503 59.9447C43.1067 59.9036 43.5636 60.0173 43.9474 60.2675C44.0894 60.4098 44.1979 60.5819 44.2652 60.7713C44.3326 60.9606 44.357 61.1626 44.3367 61.3626V64.329C44.3337 64.4787 44.287 64.6241 44.2025 64.7476C44.1086 64.891 43.9872 65.0143 43.8453 65.1105C43.6882 65.2171 43.5164 65.3004 43.3353 65.3576C43.1392 65.4221 42.9339 65.4544 42.7274 65.4533C42.3799 65.469 42.0368 65.3701 41.751 65.1719C41.508 64.9092 41.3736 64.5642 41.3747 64.2063C41.3759 63.8485 41.5127 63.5044 41.7574 63.2433C42.1123 62.9976 42.5416 62.8832 42.9717 62.9197C43.2195 62.9111 43.4673 62.9352 43.7089 62.9912C43.7439 62.999 43.7739 63.0076 43.7803 62.9912V61.8397C43.6874 61.8233 43.6882 61.8104 43.5596 61.7876C43.2638 61.7364 42.9641 61.7111 42.6639 61.7118C41.8774 61.6554 41.0986 61.8971 40.4824 62.389C40.2343 62.6196 40.0394 62.9013 39.9112 63.2147C39.7829 63.5282 39.7243 63.8657 39.7395 64.204C39.6929 64.5509 39.725 64.9038 39.8335 65.2365C39.942 65.5692 40.1241 65.8732 40.3662 66.1259C40.6083 66.3786 40.9043 66.5735 41.2321 66.6961C41.5598 66.8187 41.911 66.8659 42.2596 66.8341C42.7129 66.8407 43.1623 66.7499 43.5774 66.5677C43.9539 66.4027 44.2846 66.1487 44.541 65.8276L44.5817 65.8412L44.7368 66.7034H46.0403V61.6211C46.049 61.1466 45.9938 60.673 45.8761 60.2132" fill="white"/>
<path d="M31.3999 6.76581C30.9729 2.48747 28.6681 0.180664 25.5132 0.180664C23.7788 0.248809 22.0951 0.78454 20.6402 1.73117C17.0789 3.9698 14.2114 7.15588 12.3589 10.9324C11.3612 12.8201 10.7625 14.1152 9.77872 16.3083C10.0761 16.7513 10.3374 17.1404 10.551 17.4417C11.6944 19.0681 16.298 27.1318 16.298 27.1318L8.87476 29.3668C13.8336 27.9121 18.4012 26.619 23.5856 25.0785C24.2288 24.9408 24.8206 24.6256 25.2937 24.1685C29.3565 19.082 32.0624 13.4208 31.3999 6.76581Z" fill="url(#paint0_linear_101_155)"/>
<path d="M10.5526 17.4357C10.3391 17.1344 10.0777 16.7452 9.78034 16.3022L9.61869 16.6634C9.1737 17.6612 4.67188 30.3446 4.67188 30.3446L5.50599 30.3565H5.52594C6.66736 30.0153 7.78084 29.686 8.87437 29.3588L16.2976 27.1238C16.2976 27.1238 11.694 19.062 10.5526 17.4357Z" fill="#457ABC"/>
<path d="M9.61687 16.6634L9.77852 16.3023C8.42516 14.1281 6.88976 12.0727 5.18887 10.1581C3.31909 8.39808 0.880597 8.48789 0.140268 12.3312C0.066398 12.6835 0.0210032 13.0412 0.00455709 13.4008C-0.0866359 18.8816 1.00227 24.3179 3.19737 29.3408C3.38196 29.7725 3.72395 30.1178 4.15389 30.3064C4.58382 30.4951 5.06948 30.513 5.51215 30.3565L4.67803 30.3446C4.67803 30.3446 9.17188 17.6612 9.61687 16.6634Z" fill="#6190CB"/>
<path d="M40.3677 36.6583C37.4822 30.9791 32.3997 27.8302 26.5369 25.8387C26.359 25.7816 26.173 25.754 25.9861 25.7569C25.5488 25.7744 25.1159 25.851 24.699 25.9844C20.726 27.1278 16.5435 28.379 16.5435 28.379C16.5435 28.379 16.8767 36.5725 16.8647 37.8836C16.8647 38.2168 16.8647 38.7696 16.8647 39.4421C18.8882 40.779 21.189 42.1 22.949 43.0958C26.3758 45.1761 30.3146 46.2603 34.3233 46.2267C40.4016 46.0571 43.0876 42.0142 40.3677 36.6583Z" fill="url(#paint1_linear_101_155)"/>
<path d="M16.8647 37.8876C16.8767 36.5786 16.5434 28.3831 16.5434 28.3831L12.7899 29.4507C10.7186 30.0533 8.64594 30.6519 6.57195 31.2466L5.32275 31.8951C5.32275 31.8951 13.8236 37.3947 16.4976 39.1986L16.8667 39.4401C16.8687 38.7736 16.8627 38.2189 16.8647 37.8876Z" fill="#5DA473"/>
<path d="M5.32484 31.897L6.57404 31.2485C8.64936 30.6499 6.13503 31.3423 6.13503 31.3423C5.09537 31.7414 4.49472 32.3021 4.70624 33.4775C5.93553 38.1482 8.04307 42.5421 10.9162 46.4243C11.1242 46.6698 11.3518 46.8981 11.5967 47.1067C14.2208 49.4175 15.9589 49.3696 16.6054 45.9473C16.8509 43.7895 16.9403 41.6167 16.8728 39.446L16.5036 39.2046C13.8277 37.3966 5.32484 31.897 5.32484 31.897Z" fill="#7CBC98"/>
<defs>
<linearGradient id="paint0_linear_101_155" x1="25.866" y1="-9869.58" x2="8.85472" y2="-9897.68" gradientUnits="userSpaceOnUse">
<stop stop-color="#64ABC8"/>
<stop offset="0.391" stop-color="#63A8C6"/>
<stop offset="0.595" stop-color="#61A0C1"/>
<stop offset="0.755" stop-color="#5E93B8"/>
<stop offset="0.891" stop-color="#5A80AB"/>
<stop offset="0.939" stop-color="#5878A6"/>
</linearGradient>
<linearGradient id="paint1_linear_101_155" x1="25.5272" y1="-9910.28" x2="29.7836" y2="-9893.06" gradientUnits="userSpaceOnUse">
<stop stop-color="#9CC34D"/>
<stop offset="0.383" stop-color="#A2C64D"/>
<stop offset="0.678" stop-color="#8FB64C"/>
<stop offset="1" stop-color="#76A14C"/>
</linearGradient>
</defs>
</svg>
