<svg width="18" height="15" viewBox="0 0 18 15" fill="none" xmlns="http://www.w3.org/2000/svg">
<path d="M8.03125 14.4062C8.28125 14.6875 8.625 14.8125 9 14.8125C9.375 14.8125 9.6875 14.6875 9.96875 14.4062L15.125 9.34375C15.75 8.78125 16.25 8.125 16.625 7.375C17.0312 6.59375 17.25 5.8125 17.25 5.03125C17.25 3.59375 16.8125 2.4375 15.9375 1.59375C15.0625 0.75 13.9375 0.3125 12.5 0.3125C11.375 0.3125 10.1875 0.84375 9 1.875C7.78125 0.84375 6.625 0.3125 5.5 0.3125C4 0.3125 2.84375 0.75 2 1.59375C1.15625 2.46875 0.75 3.59375 0.75 5.03125C0.75 6 1.0625 6.96875 1.75 7.96875C2.09375 8.53125 2.46875 9 2.90625 9.375L8.03125 14.4062ZM3.9375 8.28125C3.46875 7.84375 3.09375 7.34375 2.78125 6.78125C2.40625 6.15625 2.25 5.59375 2.25 5.03125C2.25 4 2.53125 3.21875 3.09375 2.65625C3.65625 2.09375 4.4375 1.8125 5.5 1.8125C6.09375 1.8125 6.75 2.09375 7.46875 2.59375C7.84375 2.875 8.3125 3.28125 8.875 3.8125L9 3.9375L9.125 3.8125C9.6875 3.28125 10.1562 2.875 10.5312 2.5625C11.2188 2.0625 11.875 1.8125 12.5 1.8125C13.5312 1.8125 14.3438 2.09375 14.9062 2.65625C15.4688 3.21875 15.75 4 15.75 5.03125C15.75 5.59375 15.5625 6.1875 15.2188 6.8125C14.9062 7.34375 14.5312 7.84375 14.0625 8.3125L9 13.25L3.9375 8.28125Z" fill="#3CA70D"/>
</svg>
