<svg width="18" height="20" viewBox="0 0 18 20" fill="none" xmlns="http://www.w3.org/2000/svg">
<path d="M10.6252 11.875H6.87524C3.04712 11.875 0.000244141 14.9609 0.000244141 18.75C0.000244141 19.4531 0.547119 20 1.25024 20H16.2502C16.9143 20 17.5002 19.4531 17.5002 18.75C17.5002 14.9609 14.4143 11.875 10.6252 11.875ZM1.87524 18.125C2.18774 15.6641 4.29712 13.75 6.87524 13.75H10.6252C13.1643 13.75 15.2737 15.6641 15.5862 18.125H1.87524ZM8.75024 10C11.4846 10 13.7502 7.77344 13.7502 5C13.7502 2.26562 11.4846 0 8.75024 0C5.97681 0 3.75024 2.26562 3.75024 5C3.75024 7.77344 5.97681 10 8.75024 10ZM8.75024 1.875C10.469 1.875 11.8752 3.28125 11.8752 5C11.8752 6.75781 10.469 8.125 8.75024 8.125C6.99243 8.125 5.62524 6.75781 5.62524 5C5.62524 3.28125 6.99243 1.875 8.75024 1.875Z" fill="#757575"/>
</svg>
