<svg width="25" height="23" viewBox="0 0 25 23" fill="none" xmlns="http://www.w3.org/2000/svg">
<path d="M24.707 11.75C24.707 12.5234 24.0625 13.125 23.332 13.125H21.957V21.375C21.957 22.1484 21.3125 22.75 20.625 22.75H16.5C15.7266 22.75 15.125 22.1484 15.125 21.418V17.293C15.125 16.5625 14.5234 15.918 13.75 15.918H11C10.2266 15.918 9.625 16.5625 9.625 17.25V21.375C9.58203 22.1484 8.98047 22.75 8.25 22.75H4.125C3.35156 22.75 2.75 22.1484 2.75 21.375V13.125H1.375C0.601562 13.125 0 12.5234 0 11.75C0 11.3633 0.128906 11.0195 0.429688 10.7188L11.4297 1.13672C11.7305 0.835938 12.0742 0.792969 12.375 0.792969C12.6758 0.792969 13.0195 0.878906 13.2773 1.09375L24.2344 10.7188C24.5781 11.0195 24.75 11.3633 24.707 11.75Z" fill="#002D57"/>
</svg>
