<svg width="23" height="20" viewBox="0 0 23 20" fill="none" xmlns="http://www.w3.org/2000/svg">
<path d="M11.6875 4.64258L3.56055 11.8047C3.48633 11.8789 3.41211 11.8789 3.375 11.9531V18.7812C3.375 19.1152 3.63477 19.375 3.96875 19.375H8.71875C9.01562 19.375 9.3125 19.1152 9.3125 18.7812V14.0312C9.3125 13.7344 9.57227 13.4375 9.90625 13.4375H13.4688C13.7656 13.4375 14.0625 13.7344 14.0625 14.0312V18.7812C14.0625 19.1152 14.3223 19.375 14.6562 19.375H19.4062C19.7031 19.375 20 19.1152 20 18.7812V11.9531C19.9258 11.8789 19.8516 11.8789 19.7773 11.8047L11.6875 4.64258ZM22.1523 9.16992L12.6523 0.783203C12.4297 0.560547 11.9844 0.375 11.6875 0.375C11.3535 0.375 10.9082 0.560547 10.6855 0.783203L1.18555 9.16992C1.07422 9.24414 0.962891 9.4668 0.962891 9.61523C0.962891 9.72656 1.03711 9.91211 1.14844 9.98633L1.92773 10.877C2.03906 10.9883 2.22461 11.0996 2.37305 11.0996C2.48438 11.0996 2.66992 11.0254 2.78125 10.9141L11.2793 3.41797C11.3535 3.34375 11.5391 3.26953 11.6875 3.26953C11.7988 3.26953 11.9844 3.34375 12.0586 3.41797L20.5566 10.9141C20.668 11.0254 20.8535 11.0625 20.9648 11.0625C21.1133 11.0625 21.2988 10.9883 21.4102 10.877L22.1895 9.98633C22.3008 9.91211 22.375 9.72656 22.375 9.61523C22.375 9.4668 22.2637 9.24414 22.1523 9.16992Z" fill="white"/>
</svg>
