<svg width="36" height="36" viewBox="0 0 36 36" fill="none" xmlns="http://www.w3.org/2000/svg">
<circle cx="18" cy="18" r="18" fill="#DBDBDB"/>
<path d="M30.707 16.75C30.707 17.5234 30.0625 18.125 29.332 18.125H27.957V26.375C27.957 27.1484 27.3125 27.75 26.625 27.75H22.5C21.7266 27.75 21.125 27.1484 21.125 26.418V22.293C21.125 21.5625 20.5234 20.918 19.75 20.918H17C16.2266 20.918 15.625 21.5625 15.625 22.25V26.375C15.582 27.1484 14.9805 27.75 14.25 27.75H10.125C9.35156 27.75 8.75 27.1484 8.75 26.375V18.125H7.375C6.60156 18.125 6 17.5234 6 16.75C6 16.3633 6.12891 16.0195 6.42969 15.7188L17.4297 6.13672C17.7305 5.83594 18.0742 5.79297 18.375 5.79297C18.6758 5.79297 19.0195 5.87891 19.2773 6.09375L30.2344 15.7188C30.5781 16.0195 30.75 16.3633 30.707 16.75Z" fill="#002D57"/>
</svg>
