<svg width="48" height="48" viewBox="0 0 48 48" fill="none" xmlns="http://www.w3.org/2000/svg">
<circle cx="24" cy="24" r="24" fill="#3CA70D"/>
<path d="M24 23.5312C23.3438 23.5312 22.9219 24.0469 22.9219 24.6562C22.9688 28.0312 22.5 31.2656 21.6094 34.5469C21.4219 35.0625 21.6562 36 22.6406 36C23.1562 36 23.5781 35.7188 23.7188 35.2031C24.375 32.9531 25.125 29.3438 25.125 24.6562C25.125 24.0469 24.6094 23.5312 24 23.5312ZM23.9531 19.7344C21.0469 19.7344 19.0781 21.9375 19.125 24.4688C19.125 26.7188 18.9375 28.9688 18.4688 31.125C18.3281 31.6875 18.75 32.3438 19.3594 32.4844C19.9219 32.5781 20.5312 32.2031 20.6719 31.5938C21.1875 29.25 21.375 26.8594 21.375 24.4688C21.3281 23.2031 22.2656 21.9844 23.9062 21.9844C25.3594 21.9844 26.5781 23.1562 26.625 24.5625C26.625 26.7656 26.4844 29.1094 26.1094 31.3125C26.0156 31.875 26.4375 32.4844 27.0469 32.5781C27.9844 32.7656 28.3125 31.875 28.3125 31.6875C28.7344 29.3438 28.875 26.9062 28.875 24.5625C28.8281 21.9375 26.625 19.7812 23.9531 19.7344ZM18.75 18.7969C18.2812 18.4219 17.5781 18.4688 17.1562 18.9375C15.9844 20.4375 15.3281 22.3125 15.375 24.1875C15.375 25.9688 15.2344 27.75 14.9531 29.4375C14.8125 30.0469 15.2344 30.6562 15.8438 30.75C16.7812 30.9375 17.1094 30.0469 17.1094 29.8594C17.4375 27.9844 17.5781 26.0625 17.5781 24.1875C17.5781 22.7812 18.0469 21.4688 18.8906 20.3906C19.3125 19.875 19.2188 19.1719 18.75 18.7969ZM23.8594 15.8906C23.1562 15.8438 22.4531 15.9375 21.75 16.125C21.1406 16.2188 20.7656 16.8281 20.9062 17.4844C21.0469 18.0469 21.6094 18.4219 22.2188 18.2812C22.7812 18.1875 23.2969 18.0938 23.8594 18.1406C27.375 18.1875 30.3281 21 30.375 24.4219C30.375 26.2031 30.2812 27.9375 30.0938 29.7656C30.0469 30.375 30.4688 30.8906 31.0781 30.9844C31.875 31.0312 32.2969 30.4219 32.3438 30C32.5312 28.125 32.625 26.25 32.625 24.375C32.5312 19.7812 28.6406 15.9375 23.8594 15.8906ZM35.7188 21.5625C35.5781 21 34.9688 20.5781 34.3594 20.7188C33.7969 20.8594 33.375 21.4219 33.5156 22.0312C33.7031 23.0625 33.75 23.8125 33.7031 24.9375C33.7031 25.5469 34.2188 26.0625 34.8281 26.0625C35.4375 26.0625 35.9531 25.5938 35.9531 24.9375C36 23.9062 36 22.875 35.7188 21.5625ZM33.7969 17.2969C31.5 14.0625 27.75 12.0938 23.7656 12C20.5312 12 17.4844 13.1719 15.2344 15.4219C13.0781 17.625 11.9062 20.4844 11.9531 23.5781V24.6094C11.9531 25.2188 12.4688 25.7344 13.0781 25.7344C13.0781 25.7344 13.0781 25.7344 13.125 25.7344C13.6875 25.7344 14.2031 25.2656 14.2031 24.6562V23.5312C14.2031 21.0938 15.1406 18.75 16.875 17.0156C18.7031 15.2344 21.1406 14.25 23.8125 14.2969C27.0469 14.2969 30.0938 15.9375 31.9688 18.6094C32.3438 19.125 33.0469 19.2188 33.5625 18.8906C34.0312 18.5156 34.1719 17.8125 33.7969 17.2969Z" fill="white"/>
</svg>
