<svg width="48" height="48" viewBox="0 0 48 48" fill="none" xmlns="http://www.w3.org/2000/svg">
<circle cx="24" cy="24" r="24" fill="#3CA70D"/>
<path d="M11.0837 17.5018V14.2926C11.0837 12.4799 12.4801 11.0835 14.2928 11.0835H17.502C17.911 11.0835 18.2425 10.7519 18.2425 10.3429C18.2425 9.93391 17.911 9.60234 17.502 9.60234H14.2928C11.6621 9.60234 9.60254 11.6619 9.60254 14.2926V17.5018C9.60254 17.9108 9.9341 18.2423 10.3431 18.2423C10.7521 18.2423 11.0837 17.9108 11.0837 17.5018Z" fill="white"/>
<path d="M36.9207 17.5018V14.2926C36.9207 12.4799 35.5243 11.0835 33.7116 11.0835H30.5024C30.0934 11.0835 29.7619 10.7519 29.7619 10.3429C29.7619 9.93391 30.0934 9.60234 30.5024 9.60234H33.7116C36.3423 9.60234 38.4019 11.6619 38.4019 14.2926V17.5018C38.4019 17.9108 38.0703 18.2423 37.6613 18.2423C37.2523 18.2423 36.9207 17.9108 36.9207 17.5018Z" fill="white"/>
<path d="M11.0837 30.5021V33.7113C11.0837 35.524 12.4801 36.9204 14.2928 36.9204H17.502C17.911 36.9204 18.2425 37.252 18.2425 37.661C18.2425 38.07 17.911 38.4016 17.502 38.4016H14.2928C11.6621 38.4016 9.60254 36.342 9.60254 33.7113V30.5021C9.60254 30.0931 9.9341 29.7616 10.3431 29.7616C10.7521 29.7616 11.0837 30.0931 11.0837 30.5021Z" fill="white"/>
<path d="M36.9207 30.5021V33.7113C36.9207 35.524 35.5243 36.9204 33.7116 36.9204H30.5024C30.0934 36.9204 29.7619 37.252 29.7619 37.661C29.7619 38.07 30.0934 38.4016 30.5024 38.4016H33.7116C36.3423 38.4016 38.4019 36.342 38.4019 33.7113V30.5021C38.4019 30.0931 38.0703 29.7616 37.6613 29.7616C37.2523 29.7616 36.9207 30.0931 36.9207 30.5021Z" fill="white"/>
<path d="M17.4346 20.4785V22.5368C17.4346 22.9628 17.7569 23.3082 18.1546 23.3082C18.5522 23.3082 18.8746 22.9628 18.8746 22.5368V20.4785C18.8746 20.0524 18.5522 19.707 18.1546 19.707C17.7569 19.707 17.4346 20.0524 17.4346 20.4785Z" fill="white"/>
<path d="M29.3076 20.4785V22.5368C29.3076 22.9628 29.63 23.3082 30.0276 23.3082C30.4253 23.3082 30.7476 22.9628 30.7476 22.5368V20.4785C30.7476 20.0524 30.4253 19.707 30.0276 19.707C29.63 19.707 29.3076 20.0524 29.3076 20.4785Z" fill="white"/>
<path d="M18.938 30.8729C20.3425 32.1837 22.0434 32.8451 24.0025 32.8451C25.9617 32.8451 27.6626 32.1837 29.067 30.8729C29.373 30.5873 29.3896 30.1077 29.104 29.8017C28.8184 29.4957 28.3388 29.4792 28.0328 29.7648C26.9109 30.8119 25.5802 31.3294 24.0025 31.3294C22.4249 31.3294 21.0942 30.8119 19.9723 29.7648C19.6663 29.4792 19.1867 29.4957 18.9011 29.8017C18.6155 30.1077 18.632 30.5873 18.938 30.8729Z" fill="white"/>
<path d="M24.0013 20.4657V25.771C24.0013 26.1105 23.8354 26.2762 23.4942 26.2762H22.9908C22.5722 26.2762 22.2329 26.6156 22.2329 27.0341C22.2329 27.4527 22.5722 27.792 22.9908 27.792H23.4942C24.6721 27.792 25.5171 26.948 25.5171 25.771V20.4657C25.5171 20.0471 25.1778 19.7078 24.7592 19.7078C24.3407 19.7078 24.0013 20.0471 24.0013 20.4657Z" fill="white"/>
</svg>
