<svg width="30" height="30" viewBox="0 0 30 30" fill="none" xmlns="http://www.w3.org/2000/svg">
<circle cx="15" cy="15" r="15" fill="#3CA70D"/>
<path d="M14.7188 6.53125C9.90234 6.53125 6 10.4336 6 15.25C6 20.0664 9.90234 23.9688 14.7188 23.9688C19.5352 23.9688 23.4375 20.0664 23.4375 15.25C23.4375 10.4336 19.5352 6.53125 14.7188 6.53125ZM9.9375 14.125C10.043 12.6484 11.0625 11.5938 11.9062 11.5938C12.7148 11.5938 13.7344 12.6484 13.875 14.125C13.875 14.4062 13.4883 14.5469 13.3477 14.2656L12.9961 13.668C12.7148 13.2109 12.3281 12.9297 11.9062 12.9297C11.4492 12.9297 11.0625 13.2109 10.7812 13.668L10.4648 14.2656C10.2891 14.5469 9.90234 14.4062 9.9375 14.125ZM18.7266 18.4492C17.7422 19.6445 16.2656 20.3125 14.7188 20.3125C13.1367 20.3125 11.6602 19.6445 10.6758 18.4492C10.1836 17.8516 11.0625 17.1484 11.5195 17.7109C12.3281 18.6602 13.4883 19.1875 14.7188 19.1875C15.9492 19.1875 17.0742 18.6602 17.8828 17.7109C18.3398 17.1484 19.2188 17.8516 18.7266 18.4492ZM18.9727 14.2656L18.6211 13.668C18.3398 13.2109 17.9531 12.9297 17.5312 12.9297C17.0742 12.9297 16.6875 13.2109 16.4062 13.668L16.0898 14.2656C15.9141 14.5469 15.5273 14.4062 15.5625 14.125C15.668 12.6484 16.6875 11.5938 17.5312 11.5938C18.3398 11.5938 19.3594 12.6484 19.5 14.125C19.5 14.4062 19.1133 14.5469 18.9727 14.2656Z" fill="white"/>
</svg>
