<svg width="47" height="46" viewBox="0 0 47 46" fill="none" xmlns="http://www.w3.org/2000/svg">
<circle cx="23.5" cy="23" r="23" fill="#3CA70D"/>
<path fill-rule="evenodd" clip-rule="evenodd" d="M14.5847 18.7097C14.5847 13.8995 18.5307 10 23.3983 10H25.6017C30.4693 10 34.4153 13.8995 34.4153 18.7097V19.5806H34.8559C36.3162 19.5806 37.5 20.7505 37.5 22.1935V24.8065C37.5 26.2495 36.3162 27.4194 34.8559 27.4194H34.4153V27.8548C34.4153 32.0556 31.0714 35.4847 26.8706 35.6844C26.6781 36.4403 25.9857 37 25.161 37H23.839C22.8655 37 22.0763 36.2201 22.0763 35.2581V34.3871C22.0763 33.4251 22.8655 32.6452 23.839 32.6452H25.161C25.9782 32.6452 26.6655 33.1946 26.8652 33.9401C30.0945 33.7451 32.6525 31.0952 32.6525 27.8548V25.2419C32.6525 24.7609 33.0471 24.371 33.5339 24.371C34.0207 24.371 34.4153 24.7609 34.4153 25.2419V25.6774H34.8559C35.3427 25.6774 35.7373 25.2875 35.7373 24.8065V22.1935C35.7373 21.7125 35.3427 21.3226 34.8559 21.3226H34.4153V22.1935C34.4153 22.6746 34.0207 23.0645 33.5339 23.0645C33.0471 23.0645 32.6525 22.6746 32.6525 22.1935V18.7097C32.6525 14.8615 29.4958 11.7419 25.6017 11.7419H23.3983C19.5042 11.7419 16.3475 14.8615 16.3475 18.7097V22.1935C16.3475 22.6746 15.9529 23.0645 15.4661 23.0645C14.9793 23.0645 14.5847 22.6746 14.5847 22.1935V21.3226H14.1441C13.6573 21.3226 13.2627 21.7125 13.2627 22.1935V24.8065C13.2627 25.2875 13.6573 25.6774 14.1441 25.6774H14.5847V25.2419C14.5847 24.7609 14.9793 24.371 15.4661 24.371C15.9529 24.371 16.3475 24.7609 16.3475 25.2419V26.5484C16.3475 27.0294 15.9529 27.4194 15.4661 27.4194H14.1441C12.6838 27.4194 11.5 26.2495 11.5 24.8065V22.1935C11.5 20.7505 12.6838 19.5806 14.1441 19.5806H14.5847V18.7097ZM25.161 34.3871H23.839V35.2581H25.161V34.3871ZM20.5055 13.9547C20.9725 13.819 21.4624 14.0831 21.5998 14.5446C21.7454 15.0338 22.0078 15.6724 22.4061 16.3812C23.772 18.8115 26.6255 21.8841 31.468 22.6397L32.2119 22.7558V23.5C32.2119 24.4635 31.9765 26.5757 30.9521 28.4812C29.9014 30.4357 27.9857 32.2097 24.7203 32.2097C21.3965 32.2097 19.3395 31.0187 18.1567 29.3304C17.0151 27.7009 16.7881 25.7471 16.7881 24.371V22.1935C16.7881 20.4104 17.5623 18.9348 18.4937 17.8837C19.0772 17.2254 19.7598 16.6924 20.4131 16.346C20.193 15.8716 20.0255 15.4284 19.9087 15.0361C19.7713 14.5746 20.0386 14.0905 20.5055 13.9547ZM21.2544 17.8769C20.8324 18.0995 20.3068 18.4819 19.8198 19.0314C19.0987 19.8451 18.5508 20.9283 18.5508 22.1935V24.371C18.5508 25.6077 18.7646 27.1379 19.606 28.3389C20.4063 29.4813 21.8747 30.4677 24.7203 30.4677C27.1838 30.4677 28.5732 29.1933 29.3954 27.664C30.0411 26.4628 30.3143 25.1291 30.408 24.2171C25.7679 23.246 22.8416 20.3708 21.2544 17.8769Z" fill="white"/>
</svg>
