<svg width="32" height="32" viewBox="0 0 32 32" fill="none" xmlns="http://www.w3.org/2000/svg">
<path d="M16 0C7.125 0 0 7.1875 0 16C0 24.875 7.125 32 16 32C24.8125 32 32 24.875 32 16C32 7.1875 24.8125 0 16 0ZM14.5 9.5C14.5 8.6875 15.125 8 16 8C16.8125 8 17.5 8.6875 17.5 9.5V17.5C17.5 18.375 16.8125 19 16 19C15.125 19 14.5 18.375 14.5 17.5V9.5ZM16 25C14.875 25 14 24.125 14 23.0625C14 22 14.875 21.125 16 21.125C17.0625 21.125 17.9375 22 17.9375 23.0625C17.9375 24.125 17.0625 25 16 25Z" fill="#055293"/>
</svg>