<svg width="32" height="32" viewBox="0 0 32 32" fill="none" xmlns="http://www.w3.org/2000/svg">
<path d="M16 0C7.125 0 0 7.1875 0 16C0 24.875 7.125 32 16 32C24.8125 32 32 24.875 32 16C32 7.1875 24.8125 0 16 0ZM21 18.9375C21.5625 19.5625 21.5625 20.5 21 21.0625C20.375 21.6875 19.4375 21.6875 18.875 21.0625L16 18.125L13 21.0625C12.4375 21.6875 11.5 21.6875 10.9375 21.0625C10.3125 20.5 10.3125 19.5625 10.9375 18.9375L13.875 16L10.9375 13.0625C10.3125 12.4375 10.3125 11.5 10.9375 10.9375C11.5 10.3125 12.4375 10.3125 13 10.9375L16 13.9375L18.9375 11C19.5 10.375 20.4375 10.375 21 11C21.625 11.5625 21.625 12.5 21 13.125L18.0625 16.0625L21 18.9375Z" fill="#055293"/>
</svg>