<svg width="35" height="35" viewBox="0 0 35 35" fill="none" xmlns="http://www.w3.org/2000/svg">
<ellipse cx="17.2273" cy="17.1409" rx="17.2273" ry="17.1409" fill="#3CA70D"/>
<path d="M26.1562 8H21.375C20.918 8 20.4961 8.29688 20.3203 8.7793C20.1445 9.22461 20.25 9.74414 20.5664 10.0781L22.0078 11.5996L15.2227 18.7617C14.7656 19.207 14.7656 19.9863 15.2227 20.4316C15.4336 20.6543 15.7148 20.7656 16.0312 20.7656C16.3125 20.7656 16.5938 20.6543 16.8047 20.4316L23.5898 13.2695L25.0312 14.791C25.2422 15.0137 25.5234 15.125 25.8398 15.125C25.9805 15.125 26.1211 15.125 26.2617 15.0508C26.7188 14.8652 27 14.4199 27 13.9375V8.89062C27 8.4082 26.6133 8 26.1562 8ZM22.7812 19.875C22.2891 19.875 21.9375 20.2832 21.9375 20.7656V24.9219C21.9375 25.1074 21.7969 25.2188 21.6562 25.2188H10.9688C10.793 25.2188 10.6875 25.1074 10.6875 24.9219V13.6406C10.6875 13.4922 10.793 13.3438 10.9688 13.3438H14.9062C15.3633 13.3438 15.75 12.9727 15.75 12.4531C15.75 11.9707 15.3633 11.5625 14.9062 11.5625H10.9688C9.87891 11.5625 9 12.5273 9 13.6406V24.9219C9 26.0723 9.87891 27 10.9688 27H21.6562C22.7109 27 23.625 26.0723 23.625 24.9219V20.7656C23.625 20.2832 23.2383 19.875 22.7812 19.875Z" fill="white"/>
</svg>
