<svg width="50" height="50" viewBox="0 0 50 50" fill="none" xmlns="http://www.w3.org/2000/svg">
<path d="M25.0013 4.16602C13.4453 4.16602 4.16797 13.5247 4.16797 24.9994C4.16797 36.5553 13.4453 45.8327 25.0013 45.8327C36.4759 45.8327 45.8346 36.5553 45.8346 24.9994C45.8346 13.5247 36.4759 4.16602 25.0013 4.16602ZM25.0013 41.9264C15.6426 41.9264 8.07422 34.3581 8.07422 24.9994C8.07422 15.722 15.6426 8.07227 25.0013 8.07227C34.2786 8.07227 41.9284 15.722 41.9284 24.9994C41.9284 34.3581 34.2786 41.9264 25.0013 41.9264ZM25.0013 28.9056C26.0592 28.9056 26.9544 28.0918 26.9544 26.9525V16.5358C26.9544 15.4779 26.0592 14.5827 25.0013 14.5827C23.862 14.5827 23.0482 15.4779 23.0482 16.5358V26.9525C23.0482 28.0918 23.862 28.9056 25.0013 28.9056ZM25.0013 31.6725C23.5365 31.6725 22.3971 32.8119 22.3971 34.1953C22.3971 35.5788 23.5365 36.7181 25.0013 36.7181C26.3848 36.7181 27.5241 35.5788 27.5241 34.1953C27.5241 32.8119 26.3848 31.6725 25.0013 31.6725Z" fill="#9A0000"/>
</svg>