<svg width="171" height="154" viewBox="0 0 171 154" fill="none" xmlns="http://www.w3.org/2000/svg">
<path d="M85.5 154C132.72 154 171 147.284 171 139C171 130.716 132.72 124 85.5 124C38.2797 124 0 130.716 0 139C0 147.284 38.2797 154 85.5 154Z" fill="#EBEAEA"/>
<path d="M117.773 40.2381L114.237 43.7734L137.111 66.6467L140.646 63.1114L117.773 40.2381Z" fill="#99CFC2"/>
<path d="M102.838 57.6758C118.765 57.6758 131.676 44.7646 131.676 28.8379C131.676 12.9112 118.765 0 102.838 0C86.9112 0 74 12.9112 74 28.8379C74 44.7646 86.9112 57.6758 102.838 57.6758Z" fill="#99CFC2"/>
<path d="M102.838 53.4596C116.436 53.4596 127.46 42.4362 127.46 28.8382C127.46 15.2402 116.436 4.2168 102.838 4.2168C89.2402 4.2168 78.2168 15.2402 78.2168 28.8382C78.2168 42.4362 89.2402 53.4596 102.838 53.4596Z" fill="#EBEAEA"/>
<path d="M163.758 87.852L161.853 89.7573C160.197 91.4132 157.512 91.4132 155.856 89.7573L124.921 58.8191L132.82 50.9199L163.755 81.8549C165.414 83.5108 165.414 86.1961 163.758 87.852Z" fill="#4AC0AF"/>
<path d="M115.3 37.2192L112.436 40.2977L90.3779 20.4522L93.2422 17.377L115.3 37.2192Z" fill="#99CFC2"/>
<path d="M110.961 17L114.125 19.8451L94.1648 41.2825L91 38.4342L110.961 17Z" fill="#99CFC2"/>
<path d="M115 112.875C115 115.102 113.969 116.883 112.643 118.367V130.391C113.969 131.281 115 132.766 115 134.398C115 136.922 112.79 139 110.286 139H63.1429C55.1875 139 49 132.766 49 124.75V77.25C49 69.3828 55.1875 63 63.1429 63H107.929C111.759 63 115 66.2656 115 70.125V112.875ZM70.067 82C68.8884 82 67.8571 83.1875 67.8571 84.375C67.8571 85.7109 68.8884 86.75 70.067 86.75H98.5C99.6786 86.75 100.857 85.7109 100.857 84.375C100.857 83.1875 99.6786 82 98.3527 82H70.067ZM70.067 91.5C68.8884 91.5 67.8571 92.6875 67.8571 93.875C67.8571 95.2109 68.8884 96.25 70.067 96.25H98.5C99.6786 96.25 100.857 95.2109 100.857 93.875C100.857 92.6875 99.6786 91.5 98.3527 91.5H70.067ZM105.571 129.5V120H63.1429C60.4911 120 58.4286 122.227 58.4286 124.75C58.4286 127.422 60.4911 129.5 63.1429 129.5H105.571Z" fill="#B3C1DB"/>
</svg>
