<svg width="18" height="15" viewBox="0 0 18 15" fill="none" xmlns="http://www.w3.org/2000/svg">
<path d="M6.99985 9.9375H6.9725C6.9725 9.5 7.02719 9.71875 4.64828 4.98828C4.42953 4.49609 3.96469 4.25 3.4725 4.25C3.00766 4.25 2.54281 4.49609 2.32406 4.98828C-0.0821853 9.74609 -0.000154066 9.52734 -0.000154066 9.9375C-0.000154066 11.168 1.55844 12.125 3.49985 12.125C5.41391 12.125 6.99985 11.168 6.99985 9.9375ZM2.26938 8.02344C2.57016 7.39453 2.98031 6.60156 3.4725 5.58984V5.5625H3.49985C4.01938 6.65625 4.45688 7.47656 4.75766 8.10547C5.05844 8.73438 5.30453 9.19922 5.4686 9.5H1.50375C1.69516 9.17188 1.94125 8.67969 2.26938 8.02344ZM14.4373 13.4375H9.4061V5.01562C10.1444 4.79688 10.7186 4.16797 10.8827 3.375H14.4373C14.6561 3.375 14.8748 3.18359 14.8748 2.9375V2.5C14.8748 2.28125 14.6561 2.0625 14.4373 2.0625H10.7459C10.3905 1.29688 9.62485 0.75 8.74985 0.75C7.8475 0.75 7.08188 1.29688 6.72641 2.0625H3.06235C2.81625 2.0625 2.62485 2.28125 2.62485 2.5V2.9375C2.62485 3.18359 2.81625 3.375 3.06235 3.375H6.58969C6.75375 4.16797 7.32797 4.79688 8.0936 5.01562V13.4375H3.06235C2.81625 13.4375 2.62485 13.6562 2.62485 13.875V14.3125C2.62485 14.5586 2.81625 14.75 3.06235 14.75H14.4373C14.6561 14.75 14.8748 14.5586 14.8748 14.3125V13.875C14.8748 13.6562 14.6561 13.4375 14.4373 13.4375ZM8.74985 3.8125C8.25766 3.8125 7.87485 3.42969 7.87485 2.9375C7.87485 2.47266 8.25766 2.0625 8.74985 2.0625C9.21469 2.0625 9.62485 2.47266 9.62485 2.9375C9.62485 3.42969 9.21469 3.8125 8.74985 3.8125ZM17.4725 9.9375C17.4725 9.5 17.5272 9.71875 15.1483 4.98828C14.9295 4.49609 14.4647 4.25 13.9725 4.25C13.5077 4.25 13.0428 4.49609 12.8241 4.98828C10.4178 9.74609 10.4998 9.52734 10.4998 9.9375C10.4998 11.168 12.0584 12.125 13.9998 12.125C15.9139 12.125 17.4998 11.168 17.4998 9.9375H17.4725ZM12.0038 9.5C12.1952 9.17188 12.4413 8.67969 12.7694 8.02344C13.0702 7.39453 13.4803 6.60156 13.9725 5.58984V5.5625H13.9998C14.5194 6.65625 14.9569 7.47656 15.2577 8.10547C15.5584 8.73438 15.8045 9.19922 15.9686 9.5H12.0038Z" fill="#5B5C5B"/>
</svg>
