<svg width="44" height="58" viewBox="0 0 44 58" fill="none" xmlns="http://www.w3.org/2000/svg">
<g id="Group 23960">
<path id="Subtract" fill-rule="evenodd" clip-rule="evenodd" d="M3.40723 0.00012207C1.52547 0.00012207 0 1.52563 0 3.40735V40.8867C0 42.7686 1.52547 44.2939 3.40723 44.2939H6.9174L7.71452 40.3083C7.80316 39.865 7.98044 39.5105 8.24634 39.2446L24.8212 22.6699L33.3302 31.1787L20.215 44.2939H31.8008C33.6825 44.2939 35.208 42.7686 35.208 40.8867V28.9792L26.8598 20.6311L30.2279 17.2629C31.584 15.9072 33.6296 15.6431 35.208 16.4707V9.08606L26.122 0.00012207H3.40723Z" fill="url(#paint0_linear_5825_1792)"/>
<g id="Group 23891">
<path id="Vector 158" d="M26 0V5.67871C26 7.56046 27.5255 9.08593 29.4072 9.08593H35.0859L26 0Z" fill="white" fill-opacity="0.5"/>
</g>
<path id="Subtract_2" fill-rule="evenodd" clip-rule="evenodd" d="M7.19048 12C6.53299 12 6 12.533 6 13.1904C6 13.8479 6.53299 14.3809 7.19048 14.3809H28.619C29.2765 14.3809 29.8095 13.8479 29.8095 13.1904C29.8095 12.533 29.2765 12 28.619 12H7.19048ZM7.19048 19.1428C6.53299 19.1428 6 19.6758 6 20.3333C6 20.9907 6.53299 21.5239 7.19048 21.5239H27.7526L26.8598 20.6311L28.3481 19.1428H7.19048ZM6 27.4761C6 26.8186 6.53299 26.2856 7.19048 26.2856H21.2054L18.8243 28.6667H7.19048C6.53299 28.6667 6 28.1338 6 27.4761ZM14.2054 33.2856H7.19048C6.53299 33.2856 6 33.8186 6 34.4761C6 35.1335 6.53299 35.6665 7.19048 35.6665H11.8245L14.2054 33.2856ZM28.8686 35.6404L29.7833 34.7256C29.6858 35.1829 29.3258 35.543 28.8686 35.6404ZM29.7975 27.646L28.437 26.2856H28.619C29.2765 26.2856 29.8095 26.8186 29.8095 27.4761C29.8095 27.5337 29.8054 27.5906 29.7975 27.646Z" fill="white"/>
<g id="Group 23958">
<g id="Mask group">
<mask id="mask0_5825_1792" style="mask-type:alpha" maskUnits="userSpaceOnUse" x="6" y="16" width="34" height="34">
<path id="pen-to-square" d="M38.7369 19.7448L36.2552 17.2631C34.6597 15.579 31.912 15.579 30.2279 17.2631L26.8598 20.6312L35.3688 29.1402L38.7369 25.7721C40.421 24.088 40.421 21.3403 38.7369 19.7448ZM7.71453 40.3083L6.03046 48.7286C5.85319 49.5264 6.47363 50.1468 7.27135 49.9695L15.6917 48.2855C16.1349 48.1968 16.4894 48.0196 16.7553 47.7537L33.3302 31.1788L24.8212 22.6698L8.24634 39.2446C7.98044 39.5106 7.80317 39.8651 7.71453 40.3083Z" fill="black"/>
</mask>
<g mask="url(#mask0_5825_1792)">
<g id="Group 23956" filter="url(#filter0_f_5825_1792)">
<path id="Rectangle 6779" d="M0 3.40734C0 1.52559 1.52547 0.00012207 3.40722 0.00012207H26.122L35.208 9.08605V40.8868C35.208 42.7686 33.6825 44.294 31.8008 44.294H3.40722C1.52547 44.294 0 42.7686 0 40.8868V3.40734Z" fill="url(#paint1_linear_5825_1792)"/>
<g id="Rectangle 6780">
<path d="M6 13.1905C6 12.533 6.53299 12 7.19048 12H28.619C29.2765 12 29.8095 12.533 29.8095 13.1905C29.8095 13.848 29.2765 14.381 28.619 14.381H7.19048C6.53299 14.381 6 13.848 6 13.1905Z" fill="white"/>
<path d="M6 20.3333C6 19.6759 6.53299 19.1429 7.19048 19.1429H28.619C29.2765 19.1429 29.8095 19.6759 29.8095 20.3333C29.8095 20.9908 29.2765 21.5238 28.619 21.5238H7.19048C6.53299 21.5238 6 20.9908 6 20.3333Z" fill="white"/>
<path d="M6 27.4762C6 26.8187 6.53299 26.2857 7.19048 26.2857H28.619C29.2765 26.2857 29.8095 26.8187 29.8095 27.4762C29.8095 28.1337 29.2765 28.6667 28.619 28.6667H7.19048C6.53299 28.6667 6 28.1337 6 27.4762Z" fill="white"/>
<path d="M6 34.4761C6 33.8186 6.53299 33.2856 7.19048 33.2856H28.619C29.2765 33.2856 29.8095 33.8186 29.8095 34.4761C29.8095 35.1336 29.2765 35.6666 28.619 35.6666H7.19048C6.53299 35.6666 6 35.1336 6 34.4761Z" fill="white"/>
</g>
</g>
</g>
</g>
<g id="Group 23957" filter="url(#filter1_dd_5825_1792)">
<path id="pen-to-square_2" d="M38.7369 19.7448L36.2552 17.2631C34.6597 15.579 31.912 15.579 30.2279 17.2631L26.8598 20.6312L35.3688 29.1402L38.7369 25.7721C40.421 24.088 40.421 21.3403 38.7369 19.7448ZM7.71453 40.3083L6.03046 48.7286C5.85319 49.5264 6.47363 50.1468 7.27135 49.9695L15.6917 48.2855C16.1349 48.1968 16.4894 48.0196 16.7553 47.7537L33.3302 31.1788L24.8212 22.6698L8.24634 39.2446C7.98044 39.5106 7.80317 39.8651 7.71453 40.3083Z" fill="#D9D9D9" fill-opacity="0.5"/>
<g id="pen-to-square (Stroke)">
<path fill-rule="evenodd" clip-rule="evenodd" d="M38.1789 20.3182L35.6818 17.8211L35.6744 17.8133C34.4028 16.471 32.174 16.4484 30.7936 17.8287L27.9912 20.6312L35.3688 28.0088L38.1713 25.2064C39.5516 23.826 39.529 21.5972 38.1867 20.3256L38.1789 20.3182ZM35.3688 29.1402L26.8598 20.6312L30.2279 17.2631C31.912 15.579 34.6597 15.579 36.2552 17.2631L38.7369 19.7448C40.421 21.3403 40.421 24.088 38.7369 25.7721L35.3688 29.1402ZM6.81325 48.8939L6.81141 48.9022C6.77752 49.0547 6.8262 49.1243 6.85097 49.149C6.87574 49.1738 6.94531 49.2225 7.09781 49.1886L7.10612 49.1867L15.5348 47.501C15.8548 47.437 16.0563 47.3213 16.1897 47.188L32.1988 31.1788L24.8212 23.8012L8.81203 39.8103C8.67867 39.9437 8.563 40.1452 8.499 40.4652L6.81325 48.8939ZM24.8212 22.6698L33.3302 31.1788L16.7553 47.7537C16.4894 48.0196 16.1349 48.1968 15.6917 48.2855L7.27135 49.9695C6.47363 50.1468 5.85319 49.5264 6.03046 48.7286L7.71453 40.3083C7.80317 39.8651 7.98044 39.5106 8.24634 39.2446L24.8212 22.6698Z" fill="url(#paint2_linear_5825_1792)" style="mix-blend-mode:overlay"/>
</g>
</g>
</g>
</g>
<defs>
<filter id="filter0_f_5825_1792" x="-4" y="-3.99988" width="43.208" height="52.2939" filterUnits="userSpaceOnUse" color-interpolation-filters="sRGB">
<feFlood flood-opacity="0" result="BackgroundImageFix"/>
<feBlend mode="normal" in="SourceGraphic" in2="BackgroundImageFix" result="shape"/>
<feGaussianBlur stdDeviation="2" result="effect1_foregroundBlur_5825_1792"/>
</filter>
<filter id="filter1_dd_5825_1792" x="2" y="14.1" width="42" height="43.9" filterUnits="userSpaceOnUse" color-interpolation-filters="sRGB">
<feFlood flood-opacity="0" result="BackgroundImageFix"/>
<feColorMatrix in="SourceAlpha" type="matrix" values="0 0 0 0 0 0 0 0 0 0 0 0 0 0 0 0 0 0 127 0" result="hardAlpha"/>
<feOffset dy="4"/>
<feGaussianBlur stdDeviation="2"/>
<feComposite in2="hardAlpha" operator="out"/>
<feColorMatrix type="matrix" values="0 0 0 0 0 0 0 0 0 0 0 0 0 0 0 0 0 0 0.2 0"/>
<feBlend mode="normal" in2="BackgroundImageFix" result="effect1_dropShadow_5825_1792"/>
<feColorMatrix in="SourceAlpha" type="matrix" values="0 0 0 0 0 0 0 0 0 0 0 0 0 0 0 0 0 0 127 0" result="hardAlpha"/>
<feOffset dy="0.1"/>
<feGaussianBlur stdDeviation="1"/>
<feComposite in2="hardAlpha" operator="out"/>
<feColorMatrix type="matrix" values="0 0 0 0 0 0 0 0 0 0 0 0 0 0 0 0 0 0 0.15 0"/>
<feBlend mode="normal" in2="effect1_dropShadow_5825_1792" result="effect2_dropShadow_5825_1792"/>
<feBlend mode="normal" in="SourceGraphic" in2="effect2_dropShadow_5825_1792" result="shape"/>
</filter>
<linearGradient id="paint0_linear_5825_1792" x1="5.28119" y1="7.18292" x2="27.5849" y2="34.5968" gradientUnits="userSpaceOnUse">
<stop stop-color="#49C3B1"/>
<stop offset="1" stop-color="#0071A3"/>
</linearGradient>
<linearGradient id="paint1_linear_5825_1792" x1="5.28119" y1="7.18292" x2="27.5849" y2="34.5968" gradientUnits="userSpaceOnUse">
<stop stop-color="#49C3B1"/>
<stop offset="1" stop-color="#0071A3"/>
</linearGradient>
<linearGradient id="paint2_linear_5825_1792" x1="18.9276" y1="25.2727" x2="35.8741" y2="45.4805" gradientUnits="userSpaceOnUse">
<stop stop-color="white"/>
<stop offset="1"/>
</linearGradient>
</defs>
</svg>
