<svg width="50" height="50" viewBox="0 0 50 50" fill="none" xmlns="http://www.w3.org/2000/svg">
<path d="M25.0003 4.16602C13.4443 4.16602 4.16699 13.5247 4.16699 24.9994C4.16699 36.5553 13.4443 45.8327 25.0003 45.8327C36.4749 45.8327 45.8337 36.5553 45.8337 24.9994C45.8337 13.5247 36.4749 4.16602 25.0003 4.16602ZM25.0003 41.9264C15.6416 41.9264 8.07324 34.3581 8.07324 24.9994C8.07324 15.722 15.6416 8.07227 25.0003 8.07227C34.2777 8.07227 41.9274 15.722 41.9274 24.9994C41.9274 34.3581 34.2777 41.9264 25.0003 41.9264ZM25.0003 28.9056C26.0583 28.9056 26.9535 28.0918 26.9535 26.9525V16.5358C26.9535 15.4779 26.0583 14.5827 25.0003 14.5827C23.861 14.5827 23.0472 15.4779 23.0472 16.5358V26.9525C23.0472 28.0918 23.861 28.9056 25.0003 28.9056ZM25.0003 31.6725C23.5355 31.6725 22.3962 32.8119 22.3962 34.1953C22.3962 35.5788 23.5355 36.7181 25.0003 36.7181C26.3838 36.7181 27.5231 35.5788 27.5231 34.1953C27.5231 32.8119 26.3838 31.6725 25.0003 31.6725Z" fill="#E7A304"/>
</svg>