<svg width="17" height="15" viewBox="0 0 17 15" fill="none" xmlns="http://www.w3.org/2000/svg">
<path d="M15 9.5C15 9.5 13.25 12.043 13.25 13C13.25 13.9844 14.0156 14.75 15 14.75C15.957 14.75 16.75 13.9844 16.75 13C16.75 12.043 15 9.5 15 9.5ZM14.7266 6.71094L9.03906 1.02344C8.875 0.859375 8.65625 0.75 8.4375 0.75C8.21875 0.75 7.97266 0.859375 7.80859 1.02344L5.59375 3.23828L3.21484 0.886719C3.05078 0.722656 2.77734 0.722656 2.61328 0.886719L1.98438 1.51562C1.82031 1.67969 1.82031 1.95312 1.98438 2.11719L4.33594 4.49609L1.76562 7.06641C0.726562 8.10547 0.726562 9.77344 1.76562 10.7852L4.96484 13.9844C5.48438 14.5039 6.14062 14.75 6.82422 14.75C7.48047 14.75 8.16406 14.5039 8.68359 13.9844L14.7266 7.94141C15.082 7.58594 15.082 7.03906 14.7266 6.71094ZM11.5547 8.65234H2.77734C2.83203 8.54297 2.88672 8.43359 2.99609 8.32422L5.59375 5.72656L7.17969 7.33984C7.53516 7.66797 8.08203 7.66797 8.41016 7.33984C8.76562 6.98438 8.76562 6.4375 8.41016 6.08203L6.82422 4.49609L8.4375 2.88281L12.8672 7.3125L11.5547 8.65234Z" fill="#5B5C5B"/>
</svg>
