<svg width="42" height="42" viewBox="0 0 42 42" fill="none" xmlns="http://www.w3.org/2000/svg">
<path d="M21.0003 0.167969C9.44434 0.167969 0.166992 9.52669 0.166992 21.0013C0.166992 32.5573 9.44434 41.8346 21.0003 41.8346C32.4749 41.8346 41.8337 32.5573 41.8337 21.0013C41.8337 9.52669 32.4749 0.167969 21.0003 0.167969ZM21.0003 37.9284C11.6416 37.9284 4.07324 30.36 4.07324 21.0013C4.07324 11.724 11.6416 4.07422 21.0003 4.07422C30.2777 4.07422 37.9274 11.724 37.9274 21.0013C37.9274 30.36 30.2777 37.9284 21.0003 37.9284ZM21.0003 24.9076C22.0583 24.9076 22.9535 24.0938 22.9535 22.9544V12.5378C22.9535 11.4798 22.0583 10.5846 21.0003 10.5846C19.861 10.5846 19.0472 11.4798 19.0472 12.5378V22.9544C19.0472 24.0938 19.861 24.9076 21.0003 24.9076ZM21.0003 27.6745C19.5355 27.6745 18.3962 28.8138 18.3962 30.1973C18.3962 31.5807 19.5355 32.7201 21.0003 32.7201C22.3838 32.7201 23.5231 31.5807 23.5231 30.1973C23.5231 28.8138 22.3838 27.6745 21.0003 27.6745Z" fill="#E7A304"/>
</svg>
