<svg width="40" height="40" viewBox="0 0 40 40" fill="none" xmlns="http://www.w3.org/2000/svg">
<path d="M20 19.7969C20.9141 19.7969 21.6875 20.5703 21.6875 21.4844C21.6875 28.5156 20.5625 33.9297 19.5781 37.3047C19.3672 38.0781 18.7344 38.5 17.9609 38.5C16.4844 38.5 16.1328 37.0938 16.4141 36.3203C17.75 31.3984 18.4531 26.5469 18.3828 21.4844C18.3828 20.5703 19.0156 19.7969 20 19.7969ZM19.9297 14.1016C23.9375 14.1719 27.2422 17.4062 27.3125 21.3438C27.3125 24.8594 27.1016 28.5156 26.4688 32.0312C26.4688 32.3125 25.9766 33.6484 24.5703 33.3672C23.6562 33.2266 23.0234 32.3125 23.1641 31.4688C23.7266 28.1641 23.9375 24.6484 23.9375 21.3438C23.8672 19.2344 22.0391 17.4766 19.8594 17.4766C17.3984 17.4766 15.9922 19.3047 16.0625 21.2031C16.0625 24.7891 15.7812 28.375 15.0078 31.8906C14.7969 32.8047 13.8828 33.3672 13.0391 33.2266C12.125 33.0156 11.4922 32.0312 11.7031 31.1875C12.4062 27.9531 12.6875 24.5781 12.6875 21.2031C12.6172 17.4062 15.5703 14.1016 19.9297 14.1016ZM12.125 12.6953C12.8281 13.2578 12.9688 14.3125 12.3359 15.0859C11.0703 16.7031 10.3672 18.6719 10.3672 20.7812C10.3672 23.5938 10.1562 26.4766 9.66406 29.2891C9.66406 29.5703 9.17188 30.9062 7.76562 30.625C6.85156 30.4844 6.21875 29.5703 6.42969 28.6562C6.85156 26.125 7.0625 23.4531 7.0625 20.7812C6.99219 17.9688 7.97656 15.1562 9.73438 12.9062C10.3672 12.2031 11.4219 12.1328 12.125 12.6953ZM19.7891 8.33594C26.9609 8.40625 32.7969 14.1719 32.9375 21.0625C32.9375 23.875 32.7969 26.6875 32.5156 29.5C32.4453 30.1328 31.8125 31.0469 30.6172 30.9766C29.7031 30.8359 29.0703 30.0625 29.1406 29.1484C29.4219 26.4062 29.5625 23.8047 29.5625 21.1328C29.4922 16 25.0625 11.7812 19.7891 11.7109C18.9453 11.6406 18.1719 11.7812 17.3281 11.9219C16.4141 12.1328 15.5703 11.5703 15.3594 10.7266C15.1484 9.74219 15.7109 8.82812 16.625 8.6875C17.6797 8.40625 18.7344 8.26562 19.7891 8.33594ZM37.5781 16.8438C38 18.8125 38 20.3594 37.9297 21.9062C37.9297 22.8906 37.1562 23.5938 36.2422 23.5938C35.3281 23.5938 34.5547 22.8203 34.5547 21.9062C34.625 20.2188 34.5547 19.0938 34.2734 17.5469C34.0625 16.6328 34.6953 15.7891 35.5391 15.5781C36.4531 15.3672 37.3672 16 37.5781 16.8438ZM34.6953 10.4453C35.2578 11.2188 35.0469 12.2734 34.3438 12.8359C33.5703 13.3281 32.5156 13.1875 31.9531 12.4141C29.1406 8.40625 24.5703 5.94531 19.7188 5.94531C15.7109 5.875 12.0547 7.35156 9.3125 10.0234C6.71094 12.625 5.30469 16.1406 5.30469 19.7969V21.4844C5.30469 22.3984 4.53125 23.1016 3.6875 23.1016C3.61719 23.1016 3.61719 23.1016 3.61719 23.1016C2.70312 23.1016 1.92969 22.3281 1.92969 21.4141V19.8672C1.85938 15.2266 3.61719 10.9375 6.85156 7.63281C10.2266 4.25781 14.7969 2.5 19.6484 2.5C25.625 2.64062 31.25 5.59375 34.6953 10.4453Z" fill="#407F06"/>
<path d="M20 19.7969C20.9141 19.7969 21.6875 20.5703 21.6875 21.4844C21.6875 28.5156 20.5625 33.9297 19.5781 37.3047C19.3672 38.0781 18.7344 38.5 17.9609 38.5C16.4844 38.5 16.1328 37.0938 16.4141 36.3203C17.75 31.3984 18.4531 26.5469 18.3828 21.4844C18.3828 20.5703 19.0156 19.7969 20 19.7969ZM19.9297 14.1016C23.9375 14.1719 27.2422 17.4062 27.3125 21.3438C27.3125 24.8594 27.1016 28.5156 26.4688 32.0312C26.4688 32.3125 25.9766 33.6484 24.5703 33.3672C23.6562 33.2266 23.0234 32.3125 23.1641 31.4688C23.7266 28.1641 23.9375 24.6484 23.9375 21.3438C23.8672 19.2344 22.0391 17.4766 19.8594 17.4766C17.3984 17.4766 15.9922 19.3047 16.0625 21.2031C16.0625 24.7891 15.7812 28.375 15.0078 31.8906C14.7969 32.8047 13.8828 33.3672 13.0391 33.2266C12.125 33.0156 11.4922 32.0312 11.7031 31.1875C12.4062 27.9531 12.6875 24.5781 12.6875 21.2031C12.6172 17.4062 15.5703 14.1016 19.9297 14.1016ZM12.125 12.6953C12.8281 13.2578 12.9688 14.3125 12.3359 15.0859C11.0703 16.7031 10.3672 18.6719 10.3672 20.7812C10.3672 23.5938 10.1562 26.4766 9.66406 29.2891C9.66406 29.5703 9.17188 30.9062 7.76562 30.625C6.85156 30.4844 6.21875 29.5703 6.42969 28.6562C6.85156 26.125 7.0625 23.4531 7.0625 20.7812C6.99219 17.9688 7.97656 15.1562 9.73438 12.9062C10.3672 12.2031 11.4219 12.1328 12.125 12.6953ZM19.7891 8.33594C26.9609 8.40625 32.7969 14.1719 32.9375 21.0625C32.9375 23.875 32.7969 26.6875 32.5156 29.5C32.4453 30.1328 31.8125 31.0469 30.6172 30.9766C29.7031 30.8359 29.0703 30.0625 29.1406 29.1484C29.4219 26.4062 29.5625 23.8047 29.5625 21.1328C29.4922 16 25.0625 11.7812 19.7891 11.7109C18.9453 11.6406 18.1719 11.7812 17.3281 11.9219C16.4141 12.1328 15.5703 11.5703 15.3594 10.7266C15.1484 9.74219 15.7109 8.82812 16.625 8.6875C17.6797 8.40625 18.7344 8.26562 19.7891 8.33594ZM37.5781 16.8438C38 18.8125 38 20.3594 37.9297 21.9062C37.9297 22.8906 37.1562 23.5938 36.2422 23.5938C35.3281 23.5938 34.5547 22.8203 34.5547 21.9062C34.625 20.2188 34.5547 19.0938 34.2734 17.5469C34.0625 16.6328 34.6953 15.7891 35.5391 15.5781C36.4531 15.3672 37.3672 16 37.5781 16.8438ZM34.6953 10.4453C35.2578 11.2188 35.0469 12.2734 34.3438 12.8359C33.5703 13.3281 32.5156 13.1875 31.9531 12.4141C29.1406 8.40625 24.5703 5.94531 19.7188 5.94531C15.7109 5.875 12.0547 7.35156 9.3125 10.0234C6.71094 12.625 5.30469 16.1406 5.30469 19.7969V21.4844C5.30469 22.3984 4.53125 23.1016 3.6875 23.1016C3.61719 23.1016 3.61719 23.1016 3.61719 23.1016C2.70312 23.1016 1.92969 22.3281 1.92969 21.4141V19.8672C1.85938 15.2266 3.61719 10.9375 6.85156 7.63281C10.2266 4.25781 14.7969 2.5 19.6484 2.5C25.625 2.64062 31.25 5.59375 34.6953 10.4453Z" fill="#407F06"/>
</svg>
