<svg width="19" height="14" viewBox="0 0 19 14" fill="none" xmlns="http://www.w3.org/2000/svg">
<path d="M16.8143 0H1.81427C0.97052 0 0.31427 0.6875 0.31427 1.5V12.5C0.31427 13.3438 0.97052 14 1.81427 14H16.8143C17.6268 14 18.3143 13.3438 18.3143 12.5V1.5C18.3143 0.6875 17.6268 0 16.8143 0ZM16.8143 12.5H9.78302C9.81427 12.375 9.81427 12.625 9.81427 11.8125C9.81427 10.8125 8.84552 10 7.68927 10C7.37677 10 7.12677 10.25 6.31427 10.25C5.47052 10.25 5.25177 10 4.90802 10C3.75177 10 2.81427 10.8125 2.81427 11.8125C2.81427 12.625 2.78302 12.375 2.81427 12.5H1.81427V3.5H16.8143V12.5ZM11.5643 10H15.0643C15.1893 10 15.3143 9.90625 15.3143 9.75V9.25C15.3143 9.125 15.1893 9 15.0643 9H11.5643C11.408 9 11.3143 9.125 11.3143 9.25V9.75C11.3143 9.90625 11.408 10 11.5643 10ZM11.5643 8H15.0643C15.1893 8 15.3143 7.90625 15.3143 7.75V7.25C15.3143 7.125 15.1893 7 15.0643 7H11.5643C11.408 7 11.3143 7.125 11.3143 7.25V7.75C11.3143 7.90625 11.408 8 11.5643 8ZM11.5643 6H15.0643C15.1893 6 15.3143 5.90625 15.3143 5.75V5.25C15.3143 5.125 15.1893 5 15.0643 5H11.5643C11.408 5 11.3143 5.125 11.3143 5.25V5.75C11.3143 5.90625 11.408 6 11.5643 6ZM6.31427 9C7.40802 9 8.31427 8.125 8.31427 7C8.31427 5.90625 7.40802 5 6.31427 5C5.18927 5 4.31427 5.90625 4.31427 7C4.31427 8.125 5.18927 9 6.31427 9Z" fill="#999999"/>
</svg>
