<svg width="17" height="16" viewBox="0 0 17 16" fill="none" xmlns="http://www.w3.org/2000/svg">
<path d="M14.357 0H1.78557C0.821289 0 0.0712891 0.785714 0.0712891 1.71429V14.2857C0.0712891 15.25 0.821289 16 1.78557 16H14.357C15.2856 16 16.0713 15.25 16.0713 14.2857V1.71429C16.0713 0.785714 15.2856 0 14.357 0ZM8.07129 3.07143C8.89272 3.07143 9.57129 3.75 9.57129 4.57143C9.57129 5.42857 8.89272 6.07143 8.07129 6.07143C7.21415 6.07143 6.57129 5.42857 6.57129 4.57143C6.57129 3.75 7.21415 3.07143 8.07129 3.07143ZM10.0713 12.1429C10.0713 12.3929 9.857 12.5714 9.64272 12.5714H6.49986C6.24986 12.5714 6.07129 12.3929 6.07129 12.1429V11.2857C6.07129 11.0714 6.24986 10.8571 6.49986 10.8571H6.92843V8.57143H6.49986C6.24986 8.57143 6.07129 8.39286 6.07129 8.14286V7.28571C6.07129 7.07143 6.24986 6.85714 6.49986 6.85714H8.78557C8.99986 6.85714 9.21415 7.07143 9.21415 7.28571V10.8571H9.64272C9.857 10.8571 10.0713 11.0714 10.0713 11.2857V12.1429Z" fill="white"/>
</svg>
