<svg width="28" height="28" viewBox="0 0 28 28" fill="none" xmlns="http://www.w3.org/2000/svg">
<path d="M24 0C26.1875 0 28 1.8125 28 4V24C28 26.25 26.1875 28 24 28H4C1.75 28 0 26.25 0 24V4C0 1.8125 1.75 0 4 0H24ZM25 24V4C25 3.5 24.5 3 24 3H4C3.4375 3 3 3.5 3 4V24C3 24.5625 3.4375 25 4 25H24C24.5 25 25 24.5625 25 24ZM16.5 19C17.3125 19 18 19.6875 18 20.5C18 21.375 17.3125 22 16.5 22H11.5C10.625 22 10 21.375 10 20.5C10 19.6875 10.625 19 11.5 19H12.5V15H12C11.125 15 10.5 14.375 10.5 13.5C10.5 12.6875 11.125 12 12 12H14C14.8125 12 15.5 12.6875 15.5 13.5V19H16.5ZM14 10C12.875 10 12 9.125 12 8C12 6.9375 12.875 6 14 6C15.0625 6 16 6.9375 16 8C16 9.125 15.0625 10 14 10Z" fill="#4E9D2D"/>
</svg>
