<svg width="156" height="19" viewBox="0 0 156 19" fill="none" xmlns="http://www.w3.org/2000/svg">
<path d="M8.3951 12.138H2.9951L1.93309 15.098H0.871094L5.1321 3.88498H6.3031L10.5631 15.098H9.45709L8.3951 12.138ZM5.31509 5.76997L3.32709 11.257H8.08209L6.12309 5.76997L5.75009 4.61897H5.70309L5.31509 5.76997Z" fill="#999999"/>
<path d="M95.714 5.15597C94.9455 4.82015 94.1157 4.64718 93.277 4.64797C90.721 4.64797 89.525 5.81397 89.525 9.37197C89.525 13.172 90.735 14.366 93.325 14.366C94.1683 14.3752 95.0006 14.1745 95.747 13.782L95.911 14.634C95.0728 15.0636 94.1468 15.2939 93.205 15.307C89.946 15.307 88.511 13.498 88.511 9.37197C88.511 5.43997 89.976 3.70597 93.235 3.70597C94.1344 3.71101 95.0238 3.89421 95.852 4.24497L95.714 5.15597Z" fill="#999999"/>
<path d="M101.094 15.293C98.5231 15.293 97.3711 14.008 97.3711 10.704C97.3711 7.43098 98.5371 6.12997 101.094 6.12997C103.68 6.12997 104.772 7.42998 104.772 10.704C104.772 14.007 103.68 15.293 101.094 15.293ZM101.094 14.501C103.068 14.501 103.83 13.455 103.83 10.701C103.83 7.96497 103.068 6.93298 101.094 6.93298C99.1201 6.93298 98.3131 7.96497 98.3131 10.701C98.3131 13.47 99.1061 14.501 101.094 14.501Z" fill="#999999"/>
<path d="M117.133 15.098V9.10298C117.165 8.81636 117.131 8.52624 117.034 8.25459C116.938 7.98294 116.78 7.73688 116.574 7.53509C116.368 7.3333 116.119 7.18106 115.845 7.0899C115.572 6.99874 115.281 6.97107 114.995 7.00897C114.736 6.98964 114.476 7.02476 114.231 7.11206C113.986 7.19936 113.762 7.33691 113.574 7.51587C113.386 7.69482 113.237 7.91122 113.137 8.15115C113.037 8.39108 112.989 8.64922 112.995 8.90898V15.099H112.095V8.90898C112.115 8.64555 112.077 8.38091 111.982 8.1343C111.887 7.8877 111.738 7.66532 111.547 7.48335C111.355 7.30138 111.126 7.16437 110.874 7.08232C110.623 7.00026 110.357 6.9752 110.095 7.00897C109.666 7.01108 109.244 7.12031 108.868 7.32673C108.492 7.53315 108.174 7.83023 107.942 8.19097V15.098H107.042V6.29298L107.685 6.23298L107.864 7.30998H107.909C108.179 6.94688 108.531 6.65305 108.936 6.45275C109.342 6.25246 109.789 6.15142 110.241 6.15797C110.753 6.09459 111.271 6.20458 111.713 6.47033C112.154 6.73609 112.494 7.14228 112.678 7.62397H112.723C112.934 7.15195 113.285 6.75652 113.729 6.49165C114.173 6.22678 114.688 6.10536 115.204 6.14398C115.594 6.10919 115.987 6.16251 116.354 6.30001C116.721 6.43752 117.052 6.6557 117.323 6.93841C117.595 7.22113 117.799 7.56116 117.921 7.93339C118.043 8.30563 118.08 8.70054 118.029 9.08897V15.099L117.133 15.098Z" fill="#999999"/>
<path d="M124.246 15.278C123.756 15.3069 123.266 15.2188 122.816 15.0212C122.366 14.8235 121.97 14.5218 121.66 14.141L121.63 14.155L121.644 15.366V17.25H120.703V6.32097L121.375 6.26096L121.57 7.27798H121.615C121.959 6.89736 122.382 6.59696 122.855 6.39806C123.328 6.19916 123.839 6.10662 124.351 6.12697C126.503 6.12697 127.729 7.21797 127.729 10.671C127.73 14.021 126.399 15.278 124.246 15.278ZM124.157 6.99596C123.668 6.96743 123.181 7.06514 122.741 7.27968C122.301 7.49423 121.924 7.81838 121.645 8.22097V13.184C121.897 13.5951 122.255 13.9312 122.681 14.1573C123.107 14.3835 123.585 14.4914 124.067 14.47C125.652 14.47 126.788 13.692 126.788 10.67C126.786 7.78797 125.831 6.99596 124.157 6.99596Z" fill="#999999"/>
<path d="M135.039 13.857L134.993 13.843C134.695 14.2934 134.284 14.6585 133.802 14.9022C133.32 15.1459 132.783 15.2599 132.243 15.233C131.872 15.276 131.496 15.2336 131.144 15.1089C130.792 14.9842 130.473 14.7805 130.212 14.5135C129.951 14.2465 129.754 13.9232 129.637 13.5685C129.52 13.2138 129.486 12.837 129.537 12.467C129.537 10.793 130.569 9.83597 132.721 9.83597C133.471 9.83855 134.215 9.97014 134.921 10.225V9.13397C134.921 7.45897 134.221 6.92097 132.663 6.92097C131.797 6.901 130.94 7.09072 130.163 7.47397L130.063 6.68097C130.925 6.28509 131.865 6.08594 132.814 6.09796C134.967 6.09796 135.834 6.97997 135.834 9.26797V15.099H135.147L135.039 13.857ZM134.919 10.942C134.277 10.6304 133.567 10.4862 132.855 10.523C131.155 10.523 130.404 11.223 130.404 12.452C130.373 12.729 130.406 13.0095 130.501 13.2717C130.595 13.5339 130.749 13.7709 130.95 13.9642C131.151 14.1575 131.394 14.3021 131.659 14.3866C131.925 14.4712 132.206 14.4936 132.482 14.452C133.767 14.452 134.918 13.552 134.918 12.703L134.919 10.942Z" fill="#999999"/>
<path d="M144.126 15.099V9.14798C144.126 7.63798 143.289 6.99597 141.794 6.99597C141.327 6.99115 140.864 7.09743 140.446 7.30605C140.028 7.51467 139.665 7.81969 139.387 8.19599V15.103H138.487V6.29798L139.129 6.23798L139.293 7.30098H139.338C139.673 6.92397 140.085 6.62437 140.548 6.42301C141.01 6.22165 141.51 6.12336 142.014 6.13498C142.42 6.08575 142.832 6.12942 143.219 6.26268C143.605 6.39595 143.957 6.61532 144.246 6.90425C144.536 7.19319 144.756 7.54412 144.89 7.93056C145.024 8.317 145.068 8.72884 145.02 9.13498V15.1L144.126 15.099Z" fill="#999999"/>
<path d="M150.762 15.383L150.822 15.188L146.905 6.27797H147.997L150.837 13.17L151.285 14.29H151.329L151.688 13.14L154.05 6.27698H155.05L151.715 15.337C151.162 16.862 150.37 17.415 149.264 17.415C148.819 17.4184 148.38 17.3213 147.978 17.131L148.098 16.399C148.408 16.5744 148.758 16.667 149.114 16.668C149.835 16.668 150.328 16.369 150.762 15.383Z" fill="#999999"/>
<path d="M19.6542 8.93197V15.112H17.0542V1.02897H19.6542V8.92898V8.93197ZM20.9452 7.17497C21.2102 6.83197 24.9782 1.02798 24.9782 1.02798H28.0042C28.0042 1.02798 24.3852 6.28497 23.9662 6.99697C23.5472 7.70897 23.6402 7.82998 23.8762 8.29698C24.1122 8.76398 28.2432 15.114 28.2432 15.114H25.0892C25.0892 15.114 21.3432 9.40197 21.0102 8.86497C20.8537 8.61312 20.7654 8.32488 20.754 8.02857C20.7426 7.73227 20.8085 7.4381 20.9452 7.17497Z" fill="#999999"/>
<path d="M28.5521 9.26998C28.4554 7.78491 28.8766 6.31225 29.7441 5.10298C30.1986 4.59461 30.7644 4.19808 31.3973 3.94432C32.0303 3.69055 32.7133 3.5864 33.3931 3.63998C34.036 3.63027 34.6756 3.73454 35.2821 3.94798C35.8304 4.14741 36.3227 4.47601 36.7171 4.90597C37.1394 5.37826 37.4536 5.93689 37.6381 6.54298C37.8667 7.29902 37.975 8.08629 37.9591 8.87597C37.9591 9.05397 37.9591 9.24397 37.9501 9.44897C37.9454 9.64067 37.93 9.83198 37.9041 10.022H31.0271C30.9869 10.9183 31.3016 11.7942 31.9031 12.46C32.5906 12.9789 33.4444 13.228 34.3031 13.16C35.345 13.1678 36.3776 12.9637 37.3381 12.56L37.6231 14.56C37.1076 14.8187 36.5621 15.0128 35.9991 15.138C35.3491 15.2844 34.6844 15.3555 34.0181 15.35C33.2565 15.418 32.4892 15.3178 31.7707 15.0563C31.0521 14.7949 30.3999 14.3786 29.8601 13.837C28.8937 12.5231 28.4303 10.9063 28.5541 9.27998L28.5521 9.26998ZM30.9751 8.41798H35.7611C35.816 7.65744 35.5817 6.90421 35.1051 6.30897C34.8788 6.09813 34.6124 5.93508 34.3216 5.82959C34.0309 5.72409 33.7219 5.6783 33.4131 5.69497C33.0856 5.66451 32.7555 5.70621 32.4459 5.81713C32.1362 5.92805 31.8547 6.1055 31.6211 6.33697C31.1904 6.94454 30.9642 7.67335 30.9751 8.41798Z" fill="#999999"/>
<path d="M39.8433 15.129V3.89698L41.7593 3.78698L41.9663 5.90598H42.0203C42.3109 5.23269 42.7806 4.65198 43.3783 4.22698C43.9334 3.84947 44.591 3.65122 45.2623 3.65897C45.6616 3.65043 46.06 3.6996 46.4453 3.80497L46.2983 6.22597C46.1148 6.16306 45.926 6.11687 45.7343 6.08797C45.5297 6.05719 45.3231 6.04214 45.1163 6.04298C44.722 6.03849 44.3312 6.11826 43.9703 6.27697C43.6234 6.43101 43.3138 6.65781 43.0623 6.94198C42.7908 7.25429 42.5838 7.61726 42.4533 8.00997C42.2971 8.46892 42.2207 8.95123 42.2273 9.43598V15.13L39.8433 15.129Z" fill="#999999"/>
<path d="M59.4011 15.129V0.953972L61.7851 0.922966V15.129H59.4011Z" fill="#999999"/>
<path d="M64.9042 1.01698L67.2612 0.989971V3.82298H69.9112V5.66697H67.2612V11.972C67.2418 12.1691 67.2662 12.3682 67.3326 12.5549C67.399 12.7415 67.5057 12.9113 67.6452 13.052C67.9612 13.2886 68.3513 13.4046 68.7452 13.379C68.9125 13.3777 69.0795 13.3657 69.2452 13.343C69.3871 13.3265 69.5268 13.2954 69.6622 13.25L69.8182 15.023C69.5723 15.1234 69.3151 15.1932 69.0522 15.231C68.7218 15.2865 68.3873 15.314 68.0522 15.313C67.6164 15.347 67.1783 15.2877 66.7672 15.1391C66.3562 14.9904 65.9815 14.7558 65.6682 14.451C65.1053 13.7676 64.8235 12.8956 64.8802 12.012L64.9042 1.01698Z" fill="#999999"/>
<path d="M71.2151 3.82298H73.9561L76.4881 11.323L77.0011 12.752H77.0561L77.4321 11.287L79.6241 3.82498H82.1821L78.1821 15.168C77.9003 16.0839 77.3646 16.9012 76.6371 17.525C75.9771 17.9978 75.1795 18.2393 74.3681 18.212C74.0467 18.2126 73.726 18.1832 73.4101 18.124C73.1053 18.069 72.8082 17.9777 72.5251 17.852L72.7351 16.087C72.9311 16.1777 73.1354 16.2494 73.3451 16.301C73.545 16.3478 73.7498 16.371 73.9551 16.37C74.3262 16.3779 74.6928 16.2879 75.0181 16.109C75.3745 15.874 75.6475 15.5324 75.7981 15.133L75.8521 14.968L71.2151 3.82298Z" fill="#999999"/>
<path d="M56.2243 6.04297C56.1012 5.53035 55.8434 5.05992 55.4775 4.68035C55.1116 4.30077 54.651 4.02583 54.1433 3.88397C53.4911 3.69515 52.814 3.6068 52.1353 3.62197C50.8348 3.59418 49.5429 3.83839 48.3423 4.33896L48.5563 6.30397C49.044 6.09572 49.5502 5.93367 50.0683 5.81996C50.6088 5.71246 51.1591 5.66152 51.7103 5.66797C52.3492 5.61041 52.9889 5.76962 53.5263 6.11997C53.7249 6.3192 53.8769 6.56007 53.9712 6.82518C54.0654 7.0903 54.0996 7.37303 54.0713 7.65297V11.806C54.067 12.0154 54.0017 12.2191 53.8833 12.392C53.7518 12.5927 53.5819 12.7653 53.3833 12.9C53.1633 13.0493 52.9228 13.1658 52.6693 13.246C52.3947 13.3363 52.1073 13.3815 51.8183 13.38C51.3317 13.4019 50.8515 13.2635 50.4513 12.986C50.1111 12.6182 49.9229 12.1352 49.9245 11.6342C49.9262 11.1332 50.1176 10.6515 50.4603 10.286C50.9571 9.94201 51.5582 9.78183 52.1603 9.83296C52.5072 9.82095 52.8541 9.85458 53.1923 9.93297C53.2413 9.94397 53.2833 9.95597 53.2923 9.93297V8.32097C53.1623 8.29797 53.1633 8.27997 52.9833 8.24797C52.5691 8.17633 52.1496 8.14086 51.7293 8.14197C50.6283 8.06288 49.5379 8.40135 48.6753 9.08997C48.328 9.41276 48.0552 9.80722 47.8756 10.246C47.696 10.6848 47.614 11.1573 47.6353 11.631C47.57 12.1165 47.615 12.6106 47.7669 13.0764C47.9188 13.5422 48.1736 13.9678 48.5126 14.3216C48.8516 14.6753 49.2659 14.9481 49.7248 15.1198C50.1837 15.2914 50.6754 15.3575 51.1633 15.313C51.7979 15.3223 52.4271 15.1951 53.0083 14.94C53.5352 14.7091 53.9982 14.3535 54.3573 13.904L54.4143 13.923L54.6313 15.13H56.4563V8.01497C56.4684 7.35063 56.3911 6.68766 56.2263 6.04396" fill="#999999"/>
</svg>
