<svg width="15" height="19" viewBox="0 0 15 19" fill="none" xmlns="http://www.w3.org/2000/svg">
<path d="M13.9979 18.0865H13.4478V4.75243C13.4478 4.25928 13.0495 3.86096 12.5564 3.86096H9.71128V4.33515L10.3562 5.07487C11.4563 6.32672 11.7028 8.05274 11.02 9.57013C10.3372 11.0875 8.87671 12.0359 7.20759 12.0359C5.53846 12.0359 4.07798 11.0875 3.39515 9.57013C2.71233 8.05274 2.9589 6.32672 4.05901 5.07487L4.7039 4.33515V3.86096H1.87777C1.38462 3.86096 0.986302 4.25928 0.986302 4.75243V18.0675H0.436249C0.189673 18.0675 0 18.2572 0 18.5037C0 18.7503 0.189673 18.94 0.436249 18.94H13.9979C14.2445 18.94 14.4341 18.7503 14.4341 18.5037C14.4341 18.2572 14.2255 18.0865 13.9979 18.0865ZM9.90095 14.312V18.0865H7.64384V13.8757H9.4647C9.71128 13.8757 9.90095 14.0654 9.90095 14.312ZM4.51423 14.312C4.51423 14.0654 4.7039 13.8757 4.95047 13.8757H6.77134V18.0865H4.51423V14.312Z" fill="#999999"/>
<path d="M5.40623 4.84721L4.70443 5.64384C3.83194 6.63014 3.64226 7.99579 4.17335 9.19073C4.7234 10.3857 5.88041 11.1254 7.18916 11.1254C8.4979 11.1254 9.65491 10.3857 10.205 9.19073C10.755 7.99579 10.5464 6.63014 9.67388 5.64384L8.97208 4.84721C8.87725 4.73341 8.82035 4.58167 8.82035 4.41096V1.81244H9.02899C9.27556 1.81244 9.46524 1.62277 9.46524 1.37619C9.46524 1.12961 9.27556 0.939941 9.02899 0.939941H5.36829C5.12172 0.939941 4.93204 1.12961 4.93204 1.37619C4.93204 1.62277 5.12172 1.81244 5.36829 1.81244H5.57693V4.41096C5.57693 4.58167 5.52003 4.73341 5.40623 4.84721ZM6.07008 5.41623C6.31666 5.13172 6.44943 4.79031 6.44943 4.41096V1.81244H7.96682V2.41939H7.3978C7.15122 2.41939 6.96155 2.60907 6.96155 2.85564C6.96155 3.10222 7.15122 3.29189 7.3978 3.29189H7.96682V3.91781H7.3978C7.15122 3.91781 6.96155 4.10749 6.96155 4.35406C6.96155 4.60064 7.15122 4.79031 7.3978 4.79031H8.02372C8.08062 5.01792 8.19442 5.24553 8.34616 5.41623L9.04795 6.21286C9.10486 6.28873 9.16176 6.3646 9.23763 6.45944C9.19969 6.4784 9.16176 6.49737 9.12382 6.49737C8.36513 6.76291 7.60644 6.59221 6.80981 6.4215C6.35459 6.32666 5.88041 6.21286 5.40623 6.19389L6.07008 5.41623Z" fill="#3CA70D"/>
</svg>
