<svg width="29" height="35" viewBox="0 0 29 35" fill="none" xmlns="http://www.w3.org/2000/svg">
<path d="M27.5833 33.0828H26.522V7.3551C26.522 6.40358 25.7535 5.63504 24.8019 5.63504H19.3124V6.54997L20.5567 7.97725C22.6793 10.3927 23.1551 13.723 21.8376 16.6507C20.5201 19.5785 17.7021 21.4084 14.4816 21.4084C11.261 21.4084 8.44307 19.5785 7.12558 16.6507C5.80808 13.723 6.28384 10.3927 8.40647 7.97725L9.65077 6.54997V5.63504H4.19781C3.24629 5.63504 2.47775 6.40358 2.47775 7.3551V33.0462H1.41644C0.940677 33.0462 0.574707 33.4122 0.574707 33.8879C0.574707 34.3637 0.940677 34.7297 1.41644 34.7297H27.5833C28.0591 34.7297 28.425 34.3637 28.425 33.8879C28.425 33.4122 28.0225 33.0828 27.5833 33.0828ZM19.6784 25.8V33.0828H15.3233V24.9583H18.8366C19.3124 24.9583 19.6784 25.3242 19.6784 25.8ZM9.2848 25.8C9.2848 25.3242 9.65077 24.9583 10.1265 24.9583H13.6398V33.0828H9.2848V25.8Z" fill="#055293"/>
<path d="M11.005 7.53798L9.65087 9.07506C7.96741 10.9781 7.60144 13.6131 8.62616 15.9187C9.68747 18.2243 11.9199 19.6516 14.4451 19.6516C16.9703 19.6516 19.2027 18.2243 20.264 15.9187C21.3253 13.6131 20.9228 10.9781 19.2393 9.07506L17.8852 7.53798C17.7022 7.3184 17.5924 7.02562 17.5924 6.69625V1.68246H17.995C18.4708 1.68246 18.8367 1.31649 18.8367 0.840725C18.8367 0.364963 18.4708 -0.00100708 17.995 -0.00100708H10.9318C10.456 -0.00100708 10.09 0.364963 10.09 0.840725C10.09 1.31649 10.456 1.68246 10.9318 1.68246H11.3343V6.69625C11.3343 7.02562 11.2245 7.3184 11.005 7.53798ZM12.2859 8.63589C12.7616 8.08694 13.0178 7.42819 13.0178 6.69625V1.68246H15.9456V2.85356H14.8477C14.3719 2.85356 14.0059 3.21953 14.0059 3.69529C14.0059 4.17105 14.3719 4.53702 14.8477 4.53702H15.9456V5.74473H14.8477C14.3719 5.74473 14.0059 6.1107 14.0059 6.58646C14.0059 7.06222 14.3719 7.42819 14.8477 7.42819H16.0554C16.1651 7.86735 16.3847 8.30652 16.6775 8.63589L18.0316 10.173C18.1414 10.3194 18.2512 10.4657 18.3976 10.6487C18.3244 10.6853 18.2512 10.7219 18.178 10.7219C16.7141 11.2343 15.2502 10.9049 13.7131 10.5755C12.8348 10.3926 11.9199 10.173 11.005 10.1364L12.2859 8.63589Z" fill="#3CA70D"/>
</svg>
