<svg width="20" height="13" viewBox="0 0 20 13" fill="none" xmlns="http://www.w3.org/2000/svg">
<path d="M17.5 4.12109C17.75 4.12109 18 4.37109 18 4.62109C18 4.90234 17.75 5.12109 17.5 5.12109H17.125C16.875 5.90234 16.375 6.71484 15.7188 7.46484C16.0312 7.74609 16.3438 8.02734 16.6875 8.21484C16.8438 8.33984 16.9062 8.55859 16.8125 8.71484L16.6875 8.93359C16.5625 9.12109 16.3438 9.18359 16.1562 9.08984C15.75 8.80859 15.3438 8.49609 15 8.18359C14.625 8.49609 14.25 8.80859 13.8125 9.08984C13.625 9.18359 13.4062 9.12109 13.2812 8.93359L13.1562 8.74609C13.0625 8.55859 13.125 8.33984 13.2812 8.21484C13.6562 7.99609 14 7.74609 14.3125 7.46484C14 7.12109 13.7188 6.77734 13.5 6.43359C13.375 6.24609 13.4375 6.02734 13.625 5.90234L13.8438 5.77734C14 5.68359 14.2188 5.71484 14.3438 5.90234C14.5312 6.18359 14.7812 6.46484 15 6.74609C15.5 6.24609 15.8438 5.68359 16.0625 5.15234H12.5C12.2188 5.15234 12 4.90234 12 4.62109C12 4.37109 12.2188 4.12109 12.5 4.12109H14.5V3.62109C14.5 3.37109 14.7188 3.12109 15 3.12109C15.25 3.12109 15.5 3.37109 15.5 3.62109V4.15234L17.5 4.12109ZM18 0.121094C19.0938 0.121094 20 1.02734 20 2.12109V10.1211C20 11.2148 19.0938 12.1211 18 12.1211H2C0.875 12.1211 0 11.2148 0 10.1211V2.12109C0 0.996094 0.875 0.121094 2 0.121094H18ZM9.5 11.1211V1.12109H2C1.4375 1.12109 1 1.58984 1 2.12109V10.1211C1 10.6836 1.4375 11.1211 2 11.1211H9.5ZM19 10.1211V2.12109C19 1.58984 18.5312 1.12109 18 1.12109H10.5V11.1211H18C18.5312 11.1211 19 10.6836 19 10.1211ZM2.25 9.08984C2 8.96484 1.90625 8.65234 2.03125 8.40234L4.53125 3.40234C4.71875 3.08984 5.25 3.08984 5.4375 3.40234L7.9375 8.40234C8.0625 8.65234 7.96875 8.96484 7.71875 9.08984C7.625 9.12109 7.5625 9.12109 7.5 9.12109C7.3125 9.12109 7.125 9.02734 7.03125 8.87109L6.4375 7.62109H3.53125L2.9375 8.87109C2.8125 9.12109 2.5 9.21484 2.25 9.08984ZM5 4.74609L4.03125 6.62109H5.9375L5 4.74609Z" fill="#757575"/>
</svg>
