<svg width="50" height="50" viewBox="0 0 34 34" fill="none" xmlns="http://www.w3.org/2000/svg">
<circle cx="17" cy="17" r="17" fill="#3CA70D"/>
<path d="M9.07495 26.4606V25.9606H8.57495H7.17061C7.05491 25.9606 6.94395 25.9147 6.86215 25.8328C6.78034 25.751 6.73438 25.6401 6.73438 25.5244V16.1621C6.73438 16.0464 6.78033 15.9354 6.86214 15.8536C6.94395 15.7718 7.05491 15.7258 7.17061 15.7258H14.1605V17.0983C14.1605 17.7275 14.4104 18.331 14.8553 18.7759C15.3003 19.2208 15.9037 19.4708 16.5329 19.4708H17.9054V25.5244C17.9054 25.6401 17.8594 25.751 17.7776 25.8328L18.1312 26.1864L17.7776 25.8328C17.6958 25.9147 17.5849 25.9606 17.4692 25.9606H11.3837H11.2323L11.1063 26.0446L9.07495 27.3988V26.4606ZM12.8153 23.0532L12.8156 23.054C12.9054 23.295 13.0871 23.4904 13.321 23.5974L13.5289 23.1427L13.321 23.5974C13.5548 23.7043 13.8216 23.714 14.0625 23.6243C14.3035 23.5346 14.499 23.3528 14.6059 23.1189C14.7129 22.8851 14.7226 22.6184 14.6328 22.3774L14.6324 22.3763L13.2288 18.6334C13.1608 18.4477 13.0375 18.2874 12.8755 18.1738C12.7127 18.0597 12.5187 17.9985 12.3199 17.9985C12.1211 17.9985 11.9271 18.0597 11.7642 18.1738C11.6023 18.2874 11.479 18.4478 11.4109 18.6334L10.0073 22.3763L10.0069 22.3774C9.96251 22.4967 9.94201 22.6236 9.94663 22.7508C9.95125 22.8781 9.98088 23.0032 10.0338 23.1189C10.0868 23.2347 10.162 23.339 10.2553 23.4257C10.3485 23.5124 10.4579 23.5799 10.5772 23.6243C10.6965 23.6687 10.8234 23.6892 10.9507 23.6846C11.0779 23.68 11.203 23.6503 11.3188 23.5974L11.1108 23.1427L11.3188 23.5974C11.4346 23.5444 11.5388 23.4692 11.6255 23.376L11.2594 23.0354L11.6255 23.376C11.7122 23.2827 11.7797 23.1733 11.8241 23.054L11.8244 23.0532L11.9376 22.7476H12.7021L12.8153 23.0532Z" stroke="white"/>
<path d="M23.1092 13.175C23.2514 13.2665 23.3975 13.3521 23.547 13.4316L23.5586 13.4378L23.57 13.4446C23.7794 13.5706 23.9335 13.7712 24.0011 14.0061C24.0688 14.241 24.0451 14.4928 23.9348 14.711M23.1092 13.175L23.9348 14.711M23.1092 13.175C23.5308 12.6265 23.7404 12.1507 23.8532 11.779C23.8937 11.6459 23.921 11.5276 23.9405 11.433C24.0513 11.385 24.1532 11.3163 24.2402 11.2293L23.8866 10.8757L24.2402 11.2293C24.4217 11.0477 24.5237 10.8015 24.5237 10.5447C24.5237 10.288 24.4217 10.0417 24.2402 9.86017C24.0586 9.67861 23.8124 9.57662 23.5556 9.57662H22.6508C22.6427 9.33143 22.5418 9.09797 22.3677 8.92394L22.0142 9.27749L22.3677 8.92394C22.1862 8.74238 21.9399 8.64039 21.6832 8.64039C21.4264 8.64039 21.1802 8.74238 20.9986 8.92394C20.8246 9.09797 20.7236 9.33143 20.7156 9.57662H19.8107C19.5539 9.57662 19.3077 9.67861 19.1261 9.86017C18.9446 10.0417 18.8426 10.288 18.8426 10.5447C18.8426 10.8015 18.9446 11.0477 19.1261 11.2293L19.4797 10.8757L19.1261 11.2293C19.3077 11.4109 19.5539 11.5128 19.8107 11.5128H20.6461C20.5526 11.542 20.4633 11.5854 20.3814 11.6422L20.6668 12.0528L20.3814 11.6422C20.1778 11.7838 20.0362 11.9982 19.986 12.2411C19.9357 12.484 19.9806 12.7369 20.1115 12.9477L20.1184 12.9589L20.1259 12.9696C20.1735 13.038 20.2225 13.1054 20.273 13.1716C20.1298 13.2646 19.9826 13.3516 19.8319 13.4324L19.821 13.4382L19.8104 13.4446C19.6009 13.5706 19.4469 13.7712 19.3792 14.0061C19.3116 14.241 19.3353 14.4928 19.4456 14.711C19.5559 14.9291 19.7446 15.0975 19.9739 15.1822C20.2032 15.267 20.456 15.2618 20.6817 15.1679L20.7025 15.1592L20.7224 15.1487C21.0577 14.9722 21.3792 14.771 21.6843 14.5469C21.994 14.7726 22.3206 14.9744 22.6614 15.1505L22.6797 15.1599L22.6987 15.1679C22.9244 15.2618 23.1772 15.267 23.4065 15.1822C23.6358 15.0975 23.8245 14.9291 23.9348 14.711M23.1092 13.175L23.9348 14.711M22.8967 17.6186L22.7708 17.5346H22.6194H16.5339C16.4182 17.5346 16.3072 17.4886 16.2254 17.4068C16.1436 17.325 16.0977 17.2141 16.0977 17.0984V7.73604C16.0977 7.62034 16.1436 7.50938 16.2254 7.42757C16.3072 7.34576 16.4182 7.2998 16.5339 7.2998H26.8324C26.9481 7.2998 27.0591 7.34577 27.1409 7.42757C27.2227 7.50938 27.2687 7.62034 27.2687 7.73604V17.0984C27.2687 17.2141 27.2227 17.325 27.1409 17.4068L27.4945 17.7604L27.1409 17.4068C27.0591 17.4886 26.9481 17.5346 26.8324 17.5346H25.4281H24.9281V18.0346V18.9728L22.8967 17.6186ZM21.8671 11.5128C21.8144 11.6224 21.7548 11.7286 21.6886 11.8307C21.5675 11.68 21.4047 11.5698 21.2219 11.5128H21.8671Z" stroke="white"/>
</svg>
