<svg width="14" height="16" viewBox="0 0 14 16" fill="none" xmlns="http://www.w3.org/2000/svg">
<path d="M7 12.875C7.46875 12.875 7.875 12.5 7.875 12V10C7.875 9.53125 7.46875 9.125 7 9.125C6.5 9.125 6.125 9.53125 6.125 10V12C6.125 12.5 6.5 12.875 7 12.875ZM14 7.5C14 6.6875 13.3125 6 12.5 6H11.5V4.5625C11.5 2.0625 9.5 0.03125 7 0C4.5 0 2.5 2.03125 2.5 4.5V6H1.5C0.65625 6 0 6.6875 0 7.5V14.5C0 15.3438 0.65625 16 1.5 16H12.5C13.3125 16 14 15.3438 14 14.5V7.5ZM4 6V4.5C4 2.875 5.34375 1.5 7 1.5C8.625 1.5 10 2.875 10 4.5V6H4ZM12.5 7.5V14.5H1.5V7.5H12.5Z" fill="#999999"/>
</svg>
