<svg width="135" height="154" viewBox="0 0 135 154" fill="none" xmlns="http://www.w3.org/2000/svg">
<g filter="url(#filter0_d_3_17)">
<path d="M107.054 21.4901C105.884 9.76267 99.5662 3.43945 90.9183 3.43945C86.1641 3.62625 81.5488 5.09475 77.5608 7.68956C67.799 13.8259 59.9387 22.5593 54.8607 32.9112C52.1258 38.0858 50.4848 41.6357 47.7882 47.6471C48.6032 48.8614 49.3197 49.9281 49.905 50.754C53.0392 55.212 65.6583 77.3158 65.6583 77.3158L45.3103 83.4421C58.903 79.4545 71.4235 75.91 85.6343 71.6873C87.3976 71.31 89.0197 70.4458 90.3166 69.193C101.453 55.2503 108.87 39.7322 107.054 21.4901Z" fill="url(#paint0_linear_3_17)"/>
<path d="M49.9104 50.7377C49.3251 49.9117 48.6086 48.8451 47.7936 47.6308L47.3505 48.6208C46.1307 51.3558 33.7906 86.1224 33.7906 86.1224L36.0771 86.1552H36.1317C39.2605 85.2199 42.3127 84.3173 45.3102 83.4203L65.6582 77.294C65.6582 77.294 53.0392 55.1957 49.9104 50.7377Z" fill="#457ABC"/>
<path d="M37.197 85.8598L45.3088 83.4201C42.3113 84.3008 39.2646 85.2033 36.1304 86.1551C36.4804 86.0621 36.8306 85.9692 37.197 85.8598Z" fill="#457ABC"/>
<path d="M47.3444 48.6208L47.7875 47.6308C44.0778 41.6712 39.8691 36.037 35.2068 30.789C30.0815 25.9645 23.3973 26.2107 21.3679 36.7457C21.1655 37.7114 21.041 38.6919 20.9959 39.6775C20.746 54.7011 23.7308 69.6027 29.7478 83.371C30.2538 84.5544 31.1912 85.5007 32.3697 86.0179C33.5483 86.535 34.8795 86.5841 36.0929 86.1552L33.8065 86.1224C33.8065 86.1224 46.1246 51.3558 47.3444 48.6208Z" fill="#6190CB"/>
<path d="M131.635 103.429C123.726 87.8617 109.794 79.2302 93.7233 73.7713C93.2356 73.6148 92.7257 73.539 92.2136 73.547C91.0148 73.595 89.8281 73.8048 88.6855 74.1706C77.7949 77.3048 66.3301 80.7344 66.3301 80.7344C66.3301 80.7344 67.2435 103.194 67.2107 106.788C67.2107 107.701 67.2107 109.216 67.2107 111.06C72.7572 114.724 79.0639 118.345 83.8884 121.075C93.2818 126.777 104.078 129.749 115.067 129.657C131.728 129.192 139.091 118.11 131.635 103.429Z" fill="url(#paint1_linear_3_17)"/>
<path d="M67.2097 106.799C67.2426 103.21 66.3291 80.7454 66.3291 80.7454L56.0403 83.6718C50.3625 85.3237 44.6811 86.9647 38.9961 88.5947L35.5719 90.3724C35.5719 90.3724 58.8737 105.447 66.2033 110.392L67.2153 111.054C67.2207 109.227 67.2043 107.707 67.2097 106.799Z" fill="#5DA473"/>
<path d="M35.5778 90.3781L39.0019 88.6004C44.6906 86.9594 37.7986 88.8574 37.7986 88.8574C34.9487 89.9514 33.3023 91.4884 33.8821 94.7102C37.2517 107.513 43.0287 119.557 50.9044 130.199C51.4744 130.872 52.0982 131.498 52.7697 132.07C59.9626 138.404 64.7268 138.272 66.4991 128.892C67.1722 122.977 67.4171 117.021 67.232 111.071L66.2201 110.409C58.885 105.453 35.5778 90.3781 35.5778 90.3781Z" fill="#7CBC98"/>
</g>
<defs>
<filter id="filter0_d_3_17" x="0.981445" y="0.439453" width="133.562" height="153" filterUnits="userSpaceOnUse" color-interpolation-filters="sRGB">
<feFlood flood-opacity="0" result="BackgroundImageFix"/>
<feColorMatrix in="SourceAlpha" type="matrix" values="0 0 0 0 0 0 0 0 0 0 0 0 0 0 0 0 0 0 127 0" result="hardAlpha"/>
<feOffset dx="-10" dy="7"/>
<feGaussianBlur stdDeviation="5"/>
<feComposite in2="hardAlpha" operator="out"/>
<feColorMatrix type="matrix" values="0 0 0 0 0 0 0 0 0 0 0 0 0 0 0 0 0 0 0.15 0"/>
<feBlend mode="normal" in2="BackgroundImageFix" result="effect1_dropShadow_3_17"/>
<feBlend mode="normal" in="SourceGraphic" in2="effect1_dropShadow_3_17" result="shape"/>
</filter>
<linearGradient id="paint0_linear_3_17" x1="91.8854" y1="-27050.7" x2="45.2554" y2="-27127.7" gradientUnits="userSpaceOnUse">
<stop stop-color="#64ABC8"/>
<stop offset="0.391" stop-color="#63A8C6"/>
<stop offset="0.595" stop-color="#61A0C1"/>
<stop offset="0.755" stop-color="#5E93B8"/>
<stop offset="0.891" stop-color="#5A80AB"/>
<stop offset="0.939" stop-color="#5878A6"/>
</linearGradient>
<linearGradient id="paint1_linear_3_17" x1="90.9557" y1="-27162.3" x2="102.623" y2="-27115.1" gradientUnits="userSpaceOnUse">
<stop stop-color="#9CC34D"/>
<stop offset="0.383" stop-color="#A2C64D"/>
<stop offset="0.678" stop-color="#8FB64C"/>
<stop offset="1" stop-color="#76A14C"/>
</linearGradient>
</defs>
</svg>
