<svg width="114" height="35" viewBox="0 0 114 35" fill="none" xmlns="http://www.w3.org/2000/svg">
<path d="M22.6508 4.75018C22.3428 1.664 20.6802 0 18.4044 0C17.1533 0.0491564 15.9388 0.435604 14.8893 1.11845C12.3204 2.73328 10.2519 5.03155 8.91562 7.75574C8.1959 9.11745 7.76406 10.0517 7.05442 11.6336C7.26889 11.9532 7.45745 12.2339 7.61147 12.4512C8.43628 13.6244 11.7571 19.4412 11.7571 19.4412L6.40234 21.0533C9.97937 20.004 13.2743 19.0712 17.0139 17.96C17.4779 17.8607 17.9048 17.6333 18.2461 17.3036C21.1768 13.6344 23.1287 9.55073 22.6508 4.75018Z" fill="url(#paint0_linear_123_151)"/>
<path d="M7.61313 12.4469C7.45911 12.2296 7.27055 11.9489 7.05607 11.6293L6.93946 11.8898C6.61847 12.6096 3.37109 21.7587 3.37109 21.7587L3.97278 21.7673H3.98717C4.81053 21.5212 5.61373 21.2837 6.40255 21.0476L11.7573 19.4354C11.7573 19.4354 8.43649 13.6201 7.61313 12.4469Z" fill="#457ABC"/>
<path d="M4.26752 21.6896L6.4022 21.0475C5.61338 21.2793 4.81162 21.5168 3.98682 21.7673C4.07894 21.7428 4.17108 21.7184 4.26752 21.6896Z" fill="#457ABC"/>
<path d="M6.93763 11.8898L7.05424 11.6293C6.07799 10.061 4.97044 8.5783 3.74351 7.19724C2.39475 5.92765 0.635744 5.99243 0.10171 8.7648C0.0484243 9.01894 0.0156789 9.27695 0.00381557 9.53634C-0.0619662 13.4899 0.723515 17.4114 2.30694 21.0346C2.4401 21.346 2.68679 21.5951 2.99692 21.7312C3.30706 21.8672 3.65738 21.8802 3.9767 21.7673L3.37501 21.7587C3.37501 21.7587 6.61663 12.6096 6.93763 11.8898Z" fill="#6190CB"/>
<path d="M29.1191 26.3131C27.0377 22.2164 23.3714 19.945 19.1423 18.5084C19.014 18.4672 18.8798 18.4473 18.745 18.4494C18.4296 18.462 18.1173 18.5172 17.8166 18.6135C14.9507 19.4383 11.9336 20.3408 11.9336 20.3408C11.9336 20.3408 12.174 26.2512 12.1653 27.1969C12.1653 27.4373 12.1653 27.836 12.1653 28.3211C13.6249 29.2855 15.2846 30.2384 16.5542 30.9567C19.0262 32.4573 21.8674 33.2394 24.7591 33.2152C29.1436 33.0929 31.0811 30.1765 29.1191 26.3131Z" fill="url(#paint1_linear_123_151)"/>
<path d="M12.1656 27.1998C12.1742 26.2555 11.9339 20.3437 11.9339 20.3437L9.22626 21.1138C7.73211 21.5485 6.23701 21.9803 4.74095 22.4093L3.83984 22.8771C3.83984 22.8771 9.97189 26.8442 11.9008 28.1455L12.167 28.3197C12.1685 27.8389 12.1642 27.4387 12.1656 27.1998Z" fill="#5DA473"/>
<path d="M3.8414 22.8786L4.7425 22.4108C6.23952 21.9789 4.42582 22.4784 4.42582 22.4784C3.67587 22.7663 3.24259 23.1708 3.39517 24.0186C4.28192 27.3878 5.80218 30.5573 7.87473 33.3578C8.02473 33.5349 8.18889 33.6995 8.36558 33.85C10.2585 35.5169 11.5122 35.4824 11.9786 33.0137C12.1557 31.4572 12.2202 29.8899 12.1715 28.324L11.9052 28.1498C9.97488 26.8457 3.8414 22.8786 3.8414 22.8786Z" fill="#7CBC98"/>
<path d="M40.7401 31.9658C38.8976 31.9813 37.0796 31.5423 35.4473 30.6876L35.9496 27.3768C37.4035 28.1851 39.0365 28.6166 40.6998 28.632C42.5711 28.632 43.3916 27.9468 43.3916 26.7607C43.3916 24.069 35.5192 25.209 35.5192 19.4815C35.5192 16.5824 37.3905 14.2333 41.7261 14.2333C43.3646 14.2315 44.9893 14.5331 46.5181 15.1228L46.0387 18.363C44.7076 17.9096 43.3148 17.6635 41.9089 17.6332C39.7858 17.6332 39.2158 18.363 39.2158 19.2756C39.2158 21.9458 47.0881 20.7151 47.0881 26.5089C47.0852 29.8901 44.7346 31.9658 40.7401 31.9658Z" fill="white"/>
<path d="M56.5119 30.3234L56.4428 30.3003C55.9736 30.8225 55.3947 31.2344 54.7477 31.5066C54.1007 31.7789 53.4015 31.9047 52.7002 31.8751C50.0761 31.8751 48.4106 30.3925 48.4106 27.289C48.4106 24.734 50.1912 22.9707 53.3393 22.9707C54.2362 22.9658 55.1288 23.0969 55.9864 23.3593V22.5604C55.9864 21.1685 55.2567 20.5294 53.3623 20.5294C52.0527 20.5009 50.7525 20.7578 49.5521 21.2822L49.2556 18.4523C50.7604 17.8281 52.3768 17.5176 54.0058 17.5397C58.0909 17.5397 59.5059 19.2972 59.5059 23.0844V31.6419H56.7911L56.5119 30.3234ZM55.9864 25.7172C55.3552 25.5029 54.6909 25.4025 54.0245 25.4206C52.4497 25.4206 51.7214 26.0367 51.7214 27.2473C51.7214 28.5931 52.5203 29.0725 53.6833 29.0725C54.8925 29.0725 55.9864 28.3427 55.9864 27.4531V25.7172Z" fill="white"/>
<path d="M70.0915 31.6462V22.8383C70.0915 21.3096 69.3156 20.6935 67.8546 20.6935C67.4129 20.6835 66.9746 20.7725 66.5718 20.9541C66.169 21.1357 65.812 21.4052 65.527 21.7428V31.6462H61.9673V17.8866L64.5223 17.7268L65.0477 18.9143C66.1111 18.0135 67.4643 17.5274 68.8579 17.5454C71.7785 17.5454 73.6268 19.3936 73.6268 22.8397V31.6477L70.0915 31.6462Z" fill="white"/>
<path d="M77.8778 16.3348C76.5088 16.3348 75.8467 15.9462 75.8467 14.8292C75.8467 13.8475 76.5088 13.3005 77.8778 13.3005C79.2697 13.3005 79.8858 13.8244 79.8858 14.8292C79.8858 15.8339 79.2639 16.3348 77.8778 16.3348ZM76.0525 31.6462V17.9096L79.6799 17.7498V31.6462H76.0525Z" fill="white"/>
<path d="M86.8686 20.466V27.5394C86.8686 28.6118 87.4171 29.0682 88.511 29.0682C88.882 29.0681 89.251 29.0143 89.6065 28.9084L89.8109 31.4864C89.0496 31.758 88.2454 31.8897 87.4372 31.8751C86.8732 31.9342 86.3032 31.8646 85.77 31.6716C85.2368 31.4786 84.7543 31.1672 84.3589 30.7608C83.9634 30.3544 83.6653 29.8636 83.4869 29.3253C83.3085 28.787 83.2546 28.2153 83.3291 27.6532V20.466H81.7773V17.8189H83.342V15.035L86.8658 14.9558V17.8174H89.9462V20.4646L86.8686 20.466Z" fill="white"/>
<path d="M99.1027 30.3234L99.0336 30.3003C98.5644 30.8225 97.9855 31.2344 97.3385 31.5066C96.6915 31.7789 95.9923 31.9047 95.291 31.8751C92.6669 31.8751 91.0015 30.3925 91.0015 27.289C91.0015 24.734 92.782 22.9707 95.9301 22.9707C96.827 22.9658 97.7196 23.0969 98.5773 23.3593V22.5604C98.5773 21.1685 97.8475 20.5294 95.9532 20.5294C94.6435 20.5009 93.3434 20.7578 92.1429 21.2822L91.8464 18.4523C93.3513 17.8281 94.9676 17.5176 96.5966 17.5397C100.682 17.5397 102.097 19.2972 102.097 23.0844V31.6419H99.3762L99.1027 30.3234ZM98.5773 25.7172C97.946 25.5029 97.2817 25.4025 96.6153 25.4206C95.0405 25.4206 94.3122 26.0367 94.3122 27.2473C94.3122 28.5931 95.1111 29.0725 96.2741 29.0725C97.4833 29.0725 98.5773 28.3427 98.5773 27.4531V25.7172Z" fill="white"/>
<path d="M108.483 31.9197C106.981 31.9636 105.492 31.6342 104.148 30.961L104.513 28.0404C105.732 28.6802 107.086 29.0169 108.462 29.0221C109.877 29.0221 110.47 28.4463 110.47 27.6302C110.47 25.4163 104.059 26.6945 104.059 21.8565C104.059 19.3692 105.747 17.59 109.307 17.59C110.651 17.5862 111.983 17.8418 113.231 18.3429L112.934 21.2405C111.754 20.7854 110.502 20.5455 109.238 20.5323C108.075 20.5323 107.436 20.9886 107.436 21.6953C107.436 23.7955 113.756 22.5403 113.756 27.3092C113.755 30.0715 112.226 31.9197 108.483 31.9197Z" fill="white"/>
<defs>
<linearGradient id="paint0_linear_123_151" x1="18.6589" y1="-7119.52" x2="6.38789" y2="-7139.79" gradientUnits="userSpaceOnUse">
<stop stop-color="#64ABC8"/>
<stop offset="0.391" stop-color="#63A8C6"/>
<stop offset="0.595" stop-color="#61A0C1"/>
<stop offset="0.755" stop-color="#5E93B8"/>
<stop offset="0.891" stop-color="#5A80AB"/>
<stop offset="0.939" stop-color="#5878A6"/>
</linearGradient>
<linearGradient id="paint1_linear_123_151" x1="18.414" y1="-7148.88" x2="21.4844" y2="-7136.46" gradientUnits="userSpaceOnUse">
<stop stop-color="#9CC34D"/>
<stop offset="0.383" stop-color="#A2C64D"/>
<stop offset="0.678" stop-color="#8FB64C"/>
<stop offset="1" stop-color="#76A14C"/>
</linearGradient>
</defs>
</svg>
