<svg width="12" height="16" viewBox="0 0 12 16" fill="none" xmlns="http://www.w3.org/2000/svg">
<path d="M6 0C9.3125 0 12 2.6875 12 6C12 8.4375 11.1563 9.09375 6.59375 15.6875C6.4375 15.9063 6.21875 16 6 16C5.75 16 5.53125 15.9063 5.375 15.6875C0.8125 9.125 0 8.4375 0 6C0 2.6875 2.65625 0 6 0ZM6 13.9375C6.53125 13.1563 7.03125 12.4375 7.46875 11.8438C10.1875 7.96875 10.5 7.46875 10.5 6C10.5 3.53125 8.46875 1.5 6 1.5C3.5 1.5 1.5 3.53125 1.5 6C1.5 7.46875 1.78125 7.96875 4.5 11.8438C4.9375 12.4375 5.4375 13.1563 6 13.9375ZM6 3.5C7.375 3.5 8.5 4.59375 8.5 6C8.5 7.375 7.375 8.5 6 8.5C4.59375 8.5 3.5 7.375 3.5 6C3.5 4.59375 4.59375 3.5 6 3.5ZM6 7C6.53125 7 7 6.5625 7 6C7 5.46875 6.53125 5 6 5C5.4375 5 5 5.46875 5 6C5 6.5625 5.4375 7 6 7Z" fill="#5B5C5B"/>
</svg>
