<svg width="41" height="37" viewBox="0 0 41 37" fill="none" xmlns="http://www.w3.org/2000/svg">
<path d="M24.3404 9.70923C24.3404 8.79517 23.5669 8.02173 22.6529 8.02173C21.6685 8.02173 20.9654 8.79517 20.9654 9.70923C20.9654 10.6936 21.6685 11.3967 22.6529 11.3967C23.5669 11.3967 24.3404 10.6936 24.3404 9.70923ZM22.6529 25.5999C23.0044 25.5999 23.356 25.4592 23.5669 25.178C26.0279 22.3655 32.4966 14.6311 32.4966 10.4124C32.4966 5.13892 28.0669 0.849854 22.6529 0.849854C17.1685 0.849854 12.7388 5.13892 12.7388 10.4124C12.7388 14.6311 19.2075 22.3655 21.6685 25.178C21.9497 25.4592 22.3013 25.5999 22.6529 25.5999ZM22.6529 4.22485C26.2388 4.22485 29.1216 7.03735 29.1216 10.4124C29.1216 11.8889 26.9419 15.967 22.6529 21.0999C18.3638 15.967 16.1138 11.8889 16.1138 10.4124C16.1138 7.03735 18.9966 4.22485 22.6529 4.22485ZM39.5279 12.0999C39.3872 12.0999 39.2466 12.1702 39.106 12.2405L33.9029 14.1389C33.3404 15.5452 32.4966 17.092 31.5122 18.6389L37.2779 16.4592V30.0295L28.2779 33.1936V23.1389C27.2935 24.3342 26.3091 25.5295 25.2544 26.7249C25.1138 26.7952 24.9732 26.9358 24.9029 27.0764V32.7717L15.9029 29.6077V21.6624C14.5669 19.9749 13.4419 18.217 12.5279 16.5295V29.1858H12.4575L3.52785 32.4905V18.9202L12.1763 15.8967C11.6138 14.842 11.1919 13.7874 10.9107 12.803L1.5591 16.0374C0.715353 16.3889 0.152853 17.2327 0.152853 18.1467V35.7249C0.152853 36.428 0.645041 36.8499 1.27785 36.8499C1.41848 36.8499 1.5591 36.8499 1.69973 36.7795L13.6529 32.3499L25.7466 36.6389C26.6607 36.9202 27.645 36.9905 28.5591 36.6389L39.1763 32.9124C40.0904 32.6311 40.6529 31.7874 40.6529 30.8733V13.2249C40.6529 12.592 40.0904 12.0999 39.5279 12.0999Z" fill="#055293"/>
</svg>
