<svg width="13" height="17" viewBox="0 0 13 17" fill="none" xmlns="http://www.w3.org/2000/svg">
<path d="M5.86328 16.1875C6.14453 16.625 6.80078 16.625 7.08203 16.1875C11.6445 9.625 12.4883 8.9375 12.4883 6.5C12.4883 3.1875 9.80078 0.5 6.48828 0.5C3.14453 0.5 0.488281 3.1875 0.488281 6.5C0.488281 8.9375 1.30078 9.625 5.86328 16.1875ZM6.48828 9C5.08203 9 3.98828 7.90625 3.98828 6.5C3.98828 5.125 5.08203 4 6.48828 4C7.86328 4 8.98828 5.125 8.98828 6.5C8.98828 7.90625 7.86328 9 6.48828 9Z" fill="#5B5C5B"/>
</svg>
