<svg width="18" height="18" viewBox="0 0 18 18" fill="none" xmlns="http://www.w3.org/2000/svg">
<path d="M12.5938 5.74609C14.9688 6.24609 16.75 8.24609 16.9688 10.6523C17.1875 13.0586 15.7812 15.3398 13.5312 16.2461C11.2812 17.1523 8.71875 16.4648 7.1875 14.5898C6.96875 14.6211 6.71875 14.6211 6.46875 14.6211C3.875 14.6211 1.625 12.8086 1.09375 10.2773C0.5625 7.71484 1.90625 5.15234 4.28125 4.08984L2.96875 2.02734L4.71875 0.621094H8.25L9.96875 2.02734L8.6875 4.08984C10.4062 4.83984 11.625 6.43359 11.9062 8.27734C12.2188 10.1211 11.5312 11.9961 10.125 13.2461C9.71875 12.9648 9.375 12.5586 9.15625 12.0898C9.96875 11.3398 10.4688 10.3086 10.4688 9.12109C10.4688 8.52734 10.3438 7.93359 10.0625 7.40234C8.5625 7.96484 7.46875 9.43359 7.46875 11.1211C7.46875 13.3398 9.28125 15.1211 11.4688 15.1211C13.6875 15.1211 15.4688 13.3398 15.4688 11.1211C15.4688 9.58984 14.5938 8.24609 13.3125 7.58984C13.1562 6.96484 12.9375 6.33984 12.5938 5.74609ZM4.96875 2.37109L5.78125 3.68359C6.25 3.62109 6.71875 3.62109 7.1875 3.68359L7.96875 2.37109L7.71875 2.12109H5.25L4.96875 2.37109ZM2.46875 9.12109C2.46875 11.3086 4.21875 13.0586 6.34375 13.0898C6.125 12.4648 5.96875 11.7773 5.96875 11.1211C5.96875 8.90234 7.28125 7.02734 9.15625 6.15234C8.4375 5.49609 7.5 5.12109 6.46875 5.12109C4.28125 5.12109 2.5 6.90234 2.46875 9.12109Z" fill="#757575"/>
</svg>
