<svg width="20" height="16" viewBox="0 0 20 16" fill="none" xmlns="http://www.w3.org/2000/svg">
<path d="M3.25 13.25C3.25 13.6875 3.5625 14 4 14C4.40625 14 4.75 13.6875 4.75 13.25C4.75 12.8438 4.40625 12.5 4 12.5C3.5625 12.5 3.25 12.8438 3.25 13.25ZM7 8C9.1875 8 11 6.21875 11 4C11 1.8125 9.1875 0 7 0C4.78125 0 3 1.8125 3 4C3 6.21875 4.78125 8 7 8ZM10 9.03125V10.5625C11.0938 10.7812 11.9688 11.875 12 13V14.2812C12 14.5 11.8125 14.7188 11.5938 14.75L10.5938 14.9688C10.5625 14.9688 10.5312 14.9688 10.5312 14.9688C10.4062 14.9688 10.3125 14.875 10.2812 14.75L10.1875 14.2812C10.1875 14.25 10.1875 14.25 10.1875 14.2188C10.1875 14.0938 10.2812 14 10.375 13.9688L11 13.8438V13C10.9688 12.1875 10.3125 11.5312 9.46875 11.5312C9.40625 11.5312 9.28125 11.5312 9.1875 11.5312C8.46875 11.6875 8 12.3438 8 13.0625V13.8438L8.59375 13.9688C8.6875 14 8.78125 14.125 8.78125 14.2188C8.78125 14.25 8.78125 14.25 8.78125 14.2812L8.6875 14.75C8.65625 14.875 8.5625 14.9688 8.4375 14.9688H8.40625L7.40625 14.8125C7.1875 14.7812 7 14.5625 7 14.3438V13C7 11.875 7.875 10.7812 9 10.5625V9.125C8.4375 9.34375 7.5625 9.5 6.96875 9.5C6.46875 9.5 5.65625 9.375 5.1875 9.21875C5 9.15625 4.6875 9.0625 4.5 9.03125V11.5938C5.1875 11.8125 5.75 12.5625 5.75 13.2812C5.75 14.25 4.9375 15.0312 4 15.0312C3.03125 15.0312 2.25 14.25 2.25 13.2812C2.25 12.5625 2.78125 11.8125 3.5 11.5938V9.09375C1.5 9.40625 0 11.125 0 13.2188V14.5C0 15.3438 0.65625 16 1.5 16H12.5C13.3125 16 14 15.3438 14 14.5V13.2188C14 10.9688 12.2188 9.15625 10 9.03125ZM16 0C13.7812 0 12 1.59375 12 3.5C12 4.40625 12.375 5.21875 13.0312 5.84375C12.8125 6.34375 12.375 7.125 12.0312 7.5625C12 7.625 11.9688 7.6875 11.9688 7.75C11.9688 7.78125 12 7.84375 12 7.84375C12.0312 7.96875 12.125 8 12.1875 8C13.4375 8 14.4688 7.46875 15.1562 6.9375C15.4062 6.96875 15.75 7 16 7C18.1875 7 20 5.4375 20 3.5C20 1.59375 18.1875 0 16 0Z" fill="#3CA70D"/>
<path d="M3.25 13.25C3.25 13.6875 3.5625 14 4 14C4.40625 14 4.75 13.6875 4.75 13.25C4.75 12.8438 4.40625 12.5 4 12.5C3.5625 12.5 3.25 12.8438 3.25 13.25ZM7 8C9.1875 8 11 6.21875 11 4C11 1.8125 9.1875 0 7 0C4.78125 0 3 1.8125 3 4C3 6.21875 4.78125 8 7 8ZM10 9.03125V10.5625C11.0938 10.7812 11.9688 11.875 12 13V14.2812C12 14.5 11.8125 14.7188 11.5938 14.75L10.5938 14.9688C10.5625 14.9688 10.5312 14.9688 10.5312 14.9688C10.4062 14.9688 10.3125 14.875 10.2812 14.75L10.1875 14.2812C10.1875 14.25 10.1875 14.25 10.1875 14.2188C10.1875 14.0938 10.2812 14 10.375 13.9688L11 13.8438V13C10.9688 12.1875 10.3125 11.5312 9.46875 11.5312C9.40625 11.5312 9.28125 11.5312 9.1875 11.5312C8.46875 11.6875 8 12.3438 8 13.0625V13.8438L8.59375 13.9688C8.6875 14 8.78125 14.125 8.78125 14.2188C8.78125 14.25 8.78125 14.25 8.78125 14.2812L8.6875 14.75C8.65625 14.875 8.5625 14.9688 8.4375 14.9688H8.40625L7.40625 14.8125C7.1875 14.7812 7 14.5625 7 14.3438V13C7 11.875 7.875 10.7812 9 10.5625V9.125C8.4375 9.34375 7.5625 9.5 6.96875 9.5C6.46875 9.5 5.65625 9.375 5.1875 9.21875C5 9.15625 4.6875 9.0625 4.5 9.03125V11.5938C5.1875 11.8125 5.75 12.5625 5.75 13.2812C5.75 14.25 4.9375 15.0312 4 15.0312C3.03125 15.0312 2.25 14.25 2.25 13.2812C2.25 12.5625 2.78125 11.8125 3.5 11.5938V9.09375C1.5 9.40625 0 11.125 0 13.2188V14.5C0 15.3438 0.65625 16 1.5 16H12.5C13.3125 16 14 15.3438 14 14.5V13.2188C14 10.9688 12.2188 9.15625 10 9.03125Z" fill="#055293"/>
</svg>
