<svg width="43" height="36" viewBox="0 0 43 36" fill="none" xmlns="http://www.w3.org/2000/svg">
<path d="M20.7954 10.7441C20.6764 10.6968 20.5744 10.6148 20.5027 10.5087C20.431 10.4026 20.393 10.2774 20.3935 10.1494V7.67749H4.77285V10.149C4.77285 10.4102 4.61161 10.6006 4.36927 10.7833H4.36689C2.09057 11.6968 0.570805 13.9531 0.570805 16.4596V32.432C0.569472 33.1577 0.856484 33.8543 1.3687 34.3684C1.88092 34.8825 2.5764 35.1721 3.30213 35.1734H21.8401C22.5685 35.1726 23.267 34.8837 23.7832 34.3697C24.2994 33.8558 24.5914 33.1586 24.5955 32.4302V16.4598C24.5955 13.9391 23.07 11.642 20.7954 10.7441ZM20.6675 24.851C20.6675 25.0206 20.6001 25.1833 20.4802 25.3032C20.3603 25.4231 20.1977 25.4905 20.0281 25.4905H15.4606V30.0579C15.4606 30.2275 15.3933 30.3902 15.2734 30.5101C15.1534 30.63 14.9908 30.6974 14.8212 30.6974H10.3451C10.1755 30.6974 10.0129 30.63 9.89296 30.5101C9.77304 30.3902 9.70567 30.2275 9.70567 30.0579V25.4905H5.22959C5.06 25.4905 4.89735 25.4231 4.77744 25.3032C4.65752 25.1833 4.59015 25.0206 4.59015 24.851V20.649C4.59015 20.4794 4.65752 20.3168 4.77744 20.1969C4.89735 20.0769 5.06 20.0096 5.22959 20.0096H9.70567V15.4421C9.70567 15.2725 9.77304 15.1099 9.89296 14.99C10.0129 14.8701 10.1755 14.8027 10.3451 14.8027H14.8212C14.9908 14.8027 15.1534 14.8701 15.2734 14.99C15.3933 15.1099 15.4606 15.2725 15.4606 15.4421V20.0096H20.0281C20.1977 20.0096 20.3603 20.0769 20.4802 20.1969C20.6001 20.3168 20.6675 20.4794 20.6675 20.649V24.851Z" fill="#055293"/>
<path d="M21.2153 0.826385H3.95044V6.39866H21.2153V0.826385Z" fill="#055293"/>
<path d="M39.5057 30.1494H35.5574V35.1736H39.5057C40.172 35.1736 40.8109 34.9089 41.2821 34.4378C41.7532 33.9667 42.0178 33.3277 42.0178 32.6615C42.0178 31.9952 41.7532 31.3563 41.2821 30.8852C40.8109 30.414 40.172 30.1494 39.5057 30.1494Z" fill="#3CA70D"/>
<path d="M40.7784 25.9676L37.0879 24.6144L35.5276 28.8705H39.5068C40.4091 28.87 41.2818 29.1926 41.9669 29.7798C42.1901 29.4646 42.3376 29.1021 42.398 28.7206C42.4584 28.339 42.43 27.9487 42.315 27.5799C42.2 27.2112 42.0016 26.8739 41.7351 26.5942C41.4686 26.3146 41.1412 26.1002 40.7784 25.9676Z" fill="#3CA70D"/>
<path d="M29.0465 26.2413C29.1846 26.5414 29.381 26.8112 29.6241 27.035C29.8672 27.2588 30.1523 27.4321 30.4629 27.5449L34.0798 28.8705H34.1632L35.885 24.1742L32.1945 22.8217C31.7274 22.6505 31.22 22.6216 30.7365 22.7388C30.253 22.8559 29.8151 23.1138 29.4781 23.4798C29.1411 23.8458 28.9203 24.3035 28.8434 24.7951C28.7666 25.2866 28.8372 25.7899 29.0464 26.2413H29.0465ZM30.2812 26.1832C30.3101 26.1043 30.3543 26.0319 30.4112 25.9702C30.468 25.9084 30.5365 25.8584 30.6127 25.8231C30.6889 25.7878 30.7713 25.7678 30.8552 25.7644C30.9391 25.7609 31.0229 25.774 31.1017 25.8029L34.0203 26.8729C34.0998 26.9013 34.1729 26.9451 34.2353 27.0019C34.2977 27.0587 34.3483 27.1273 34.3841 27.2038C34.4199 27.2802 34.4402 27.363 34.4438 27.4473C34.4475 27.5316 34.4344 27.6158 34.4054 27.6951C34.3763 27.7743 34.3319 27.847 34.2746 27.909C34.2173 27.971 34.1483 28.021 34.0716 28.0562C33.9948 28.0914 33.9119 28.111 33.8276 28.114C33.7432 28.117 33.6591 28.1032 33.5801 28.0735L30.6615 27.0036C30.5023 26.9452 30.3728 26.826 30.3015 26.6721C30.2302 26.5183 30.2229 26.3424 30.2812 26.1832Z" fill="#3CA70D"/>
<path d="M27.8503 32.6615C27.8512 33.328 28.1167 33.967 28.5883 34.438C29.0599 34.909 29.6993 35.1736 30.3658 35.1736H34.2785V30.1494H30.3658C29.6993 30.1494 29.0599 30.4139 28.5883 30.885C28.1167 31.356 27.8512 31.9949 27.8503 32.6615ZM34.1141 33.986C34.1141 34.1556 34.0468 34.3183 33.9268 34.4382C33.8069 34.5581 33.6443 34.6255 33.4747 34.6255H30.3658C30.1962 34.6255 30.0336 34.5581 29.9137 34.4382C29.7937 34.3183 29.7264 34.1556 29.7264 33.986C29.7264 33.8164 29.7937 33.6538 29.9137 33.5339C30.0336 33.414 30.1962 33.3466 30.3658 33.3466H33.4747C33.6443 33.3466 33.8069 33.414 33.9268 33.5339C34.0468 33.6538 34.1141 33.8164 34.1141 33.986Z" fill="#3CA70D"/>
</svg>
