<svg width="30" height="35" viewBox="0 0 30 35" fill="none" xmlns="http://www.w3.org/2000/svg">
<path d="M21.3643 7.10938V0H10.1478C9.21306 0 8.54541 0.751953 8.54541 1.64062V26.7969C8.54541 27.7539 9.21306 28.4375 10.1478 28.4375H19.2278H28.3078C29.1758 28.4375 29.9102 27.7539 29.9102 26.7969V8.75H22.9666C22.0319 8.75 21.3643 8.06641 21.3643 7.10938ZM25.6372 15.8594V19.1406C25.6372 19.4824 25.3702 19.6875 25.1031 19.6875H21.3643V23.5156C21.3643 23.8574 21.0972 24.0625 20.8302 24.0625H17.6254C17.2916 24.0625 17.0913 23.8574 17.0913 23.5156V19.6875H13.3525C13.0187 19.6875 12.8184 19.4824 12.8184 19.1406V15.8594C12.8184 15.5859 13.0187 15.3125 13.3525 15.3125H17.0913V11.4844C17.0913 11.2109 17.2916 10.9375 17.6254 10.9375H20.8302C21.0972 10.9375 21.3643 11.2109 21.3643 11.4844V15.3125H25.1031C25.3702 15.3125 25.6372 15.5859 25.6372 15.8594ZM29.4429 4.99023L25.0364 0.478516C24.7693 0.273438 24.2352 0 23.9014 0H23.5008V6.5625H29.9102V6.15234C29.9102 5.81055 29.6431 5.26367 29.4429 4.99023Z" fill="#055293"/>
<path d="M6.40944 6.5625V26.7969C6.40944 28.916 8.07856 30.625 10.1483 30.625H21.3648V33.3594C21.3648 34.3164 20.6304 35 19.7624 35H1.60236C0.66765 35 0 34.3164 0 33.3594V8.20312C0 7.31445 0.66765 6.5625 1.60236 6.5625H6.40944Z" fill="#3CA70D"/>
</svg>
