<svg width="14" height="16" viewBox="0 0 14 16" fill="none" xmlns="http://www.w3.org/2000/svg">
<path d="M4 7.625C4 7.84375 4.15625 8 4.375 8H5.625C5.8125 8 6 7.84375 6 7.625V6.375C6 6.1875 5.8125 6 5.625 6H4.375C4.15625 6 4 6.1875 4 6.375V7.625ZM8.375 8H9.625C9.8125 8 10 7.84375 10 7.625V6.375C10 6.1875 9.8125 6 9.625 6H8.375C8.15625 6 8 6.1875 8 6.375V7.625C8 7.84375 8.15625 8 8.375 8ZM6 10.625V9.375C6 9.1875 5.8125 9 5.625 9H4.375C4.15625 9 4 9.1875 4 9.375V10.625C4 10.8438 4.15625 11 4.375 11H5.625C5.8125 11 6 10.8438 6 10.625ZM8.375 11H9.625C9.8125 11 10 10.8438 10 10.625V9.375C10 9.1875 9.8125 9 9.625 9H8.375C8.15625 9 8 9.1875 8 9.375V10.625C8 10.8438 8.15625 11 8.375 11ZM14 14.875C14 14.6875 13.8125 14.5 13.625 14.5H13V2.6875C13 2.3125 12.6562 2 12.25 2H9.5V0.75C9.5 0.34375 9.15625 0 8.75 0H5.25C4.8125 0 4.5 0.34375 4.5 0.75V2H1.71875C1.3125 2 0.96875 2.3125 0.96875 2.6875V14.5H0.375C0.15625 14.5 0 14.6875 0 14.875V16H14V14.875ZM2.46875 14.4688V3.5H4.5V4.25C4.5 4.6875 4.8125 5 5.25 5H8.75C9.15625 5 9.5 4.6875 9.5 4.25V3.5H11.5V14.4688H8V12.375C8 12.1875 7.8125 12 7.625 12H6.375C6.15625 12 6 12.1875 6 12.375V14.4688H2.46875ZM8.3125 2C8.40625 2 8.5 2.09375 8.5 2.1875V2.8125C8.5 2.9375 8.40625 3 8.3125 3H7.5V3.8125C7.5 3.9375 7.40625 4 7.3125 4H6.6875C6.5625 4 6.5 3.9375 6.5 3.8125V3H5.6875C5.5625 3 5.5 2.9375 5.5 2.8125V2.1875C5.5 2.09375 5.5625 2 5.6875 2H6.5V1.1875C6.5 1.09375 6.5625 1 6.6875 1H7.3125C7.40625 1 7.5 1.09375 7.5 1.1875V2H8.3125Z" fill="#5B5C5B"/>
</svg>
