<svg width="25" height="35" viewBox="0 0 25 35" fill="none" xmlns="http://www.w3.org/2000/svg">
<path d="M14.5774 9.6556V0.826385H1.59325C0.684363 0.826385 0.0351562 1.54051 0.0351562 2.38448V32.5077C0.0351562 33.4166 0.684363 34.0658 1.59325 34.0658H23.4066C24.2506 34.0658 24.9647 33.4166 24.9647 32.5077V11.2137H16.1355C15.2266 11.2137 14.5774 10.5645 14.5774 9.6556ZM18.7323 20.0429V23.1591C18.7323 23.4837 18.4726 23.6785 18.213 23.6785H14.5774V27.314C14.5774 27.6386 14.3177 27.8334 14.058 27.8334H10.9418C10.6172 27.8334 10.4225 27.6386 10.4225 27.314V23.6785H6.78691C6.46231 23.6785 6.26754 23.4837 6.26754 23.1591V20.0429C6.26754 19.7832 6.46231 19.5235 6.78691 19.5235H10.4225V15.888C10.4225 15.6283 10.6172 15.3686 10.9418 15.3686H14.058C14.3177 15.3686 14.5774 15.6283 14.5774 15.888V19.5235H18.213C18.4726 19.5235 18.7323 19.7832 18.7323 20.0429Z" fill="#999999"/>
<path d="M18.148 1.28083L24.5102 7.64306C24.7699 7.96766 24.9646 8.35719 24.9646 8.74671V9.13624H16.6548V0.826385H17.0443C17.4338 0.826385 17.8234 1.02115 18.148 1.28083Z" fill="#3CA70D"/>
</svg>
