<svg width="13" height="14" viewBox="0 0 13 14" fill="none" xmlns="http://www.w3.org/2000/svg">
<path d="M10.7695 11.1282C10.2747 11.1282 9.87207 11.5308 9.87207 12.0257V14L12.7439 11.1282H10.7695Z" fill="#055293"/>
<path d="M2.5127 1.79486V12.2051C2.5127 13.1923 3.32039 14 4.30757 14H8.97423V12.0256C8.97423 11.0384 9.78192 10.2308 10.7691 10.2308H12.7435L12.7438 1.79486H2.5127ZM7.89731 9.06409H4.66654V8.16665H7.89731V9.06409ZM10.5896 6.91024H4.66654V6.01281H10.5896V6.91024ZM10.5896 4.7564H4.66654V3.85896H10.5896V4.7564Z" fill="#999999"/>
<path d="M1.61538 0.897435H10.2311V0H0V10.4103C0 11.3368 0.711667 12.1051 1.61538 12.196V0.897435Z" fill="#3CA70D"/>
</svg>
