<svg width="16" height="18" viewBox="0 0 16 18" fill="none" xmlns="http://www.w3.org/2000/svg">
<path d="M10.125 4.78125V0H3.09375C2.60156 0 2.25 0.386719 2.25 0.84375V9H0.28125C0.105469 9 0 9.14062 0 9.28125V9.84375C0 10.0195 0.105469 10.125 0.28125 10.125H5.20312C5.30859 10.125 5.41406 10.1953 5.48438 10.3008L6.1875 11.707L8.15625 7.69922C8.26172 7.48828 8.57812 7.48828 8.68359 7.69922L9.87891 10.125H12.375C12.6562 10.125 12.9375 10.4062 12.9375 10.6875C12.9375 11.0039 12.6562 11.25 12.375 11.25H9.21094L8.4375 9.70312L6.43359 13.7109C6.32812 13.9219 6.01172 13.9219 5.90625 13.7109L4.71094 11.25H2.25V17.1562C2.25 17.6484 2.60156 18 3.09375 18H14.9062C15.3633 18 15.75 17.6484 15.75 17.1562V5.625H10.9688C10.4766 5.625 10.125 5.27344 10.125 4.78125ZM15.5039 3.69141L12.0586 0.246094C11.8828 0.105469 11.6719 0 11.4609 0H11.25V4.5H15.75V4.28906C15.75 4.07812 15.6445 3.86719 15.5039 3.69141Z" fill="#999999"/>
<path d="M12.0586 0.246094L15.5039 3.69141C15.6445 3.86719 15.75 4.07812 15.75 4.28906V4.5H11.25V0H11.4609C11.6719 0 11.8828 0.105469 12.0586 0.246094Z" fill="#3CA70D"/>
</svg>
