<svg width="20" height="18" viewBox="0 0 20 18" fill="none" xmlns="http://www.w3.org/2000/svg">
<path d="M3.75 17.5H16.25V3.75H15V1.875C15 0.859375 14.1406 0 13.125 0H6.875C5.82031 0 5 0.859375 5 1.875V3.75H3.75V17.5ZM7.5 2.5H12.5V3.75H7.5V2.5ZM20 5.625C20 4.60938 19.1406 3.75 18.125 3.75H17.5V17.5H18.125C19.1406 17.5 20 16.6797 20 15.625V5.625ZM2.5 17.5V3.75H1.875C0.820312 3.75 0 4.60938 0 5.625V15.625C0 16.6797 0.820312 17.5 1.875 17.5H2.5ZM13.75 9.375V10.625C13.75 10.9766 13.4375 11.25 13.125 11.25H11.25V13.125C11.25 13.4766 10.9375 13.75 10.625 13.75H9.375C9.02344 13.75 8.75 13.4766 8.75 13.125V11.25H6.875C6.52344 11.25 6.25 10.9766 6.25 10.625V9.375C6.25 9.0625 6.52344 8.75 6.875 8.75H8.75V6.875C8.75 6.5625 9.02344 6.25 9.375 6.25H10.625C10.9375 6.25 11.25 6.5625 11.25 6.875V8.75H13.125C13.4375 8.75 13.75 9.0625 13.75 9.375Z" fill="#055293"/>
</svg>
