<svg width="48" height="48" viewBox="0 0 48 48" fill="none" xmlns="http://www.w3.org/2000/svg">
<g filter="url(#filter0_d_222_2730)">
<path d="M4.56231 16.6667C6.46712 24.7619 18.0544 34.7619 24.0861 37.1429C30.4353 34.6032 42.0117 24.129 43.5238 16.1905C45.4286 6.19048 39.8865 0 33.6099 0C27.3333 0 24.8798 4.12698 24.0861 6.19048C23.4512 4.12698 20.7528 0 15.0385 0C7.89564 0 2.14058 6.3746 4.56231 16.6667Z" fill="url(#paint0_linear_222_2730)"/>
<path d="M22.0026 32.1735L22.0064 32.1823L22.0106 32.1909C22.318 32.82 22.9152 33.1708 23.5217 33.1978C24.1352 33.2251 24.7591 32.9187 25.0773 32.2674L28.3713 25.5252L29.6386 28.0629L29.7779 28.3418L30.0897 28.3395L39.6908 28.2668V34.9999C39.6908 37.4852 37.676 39.4999 35.1908 39.4999H11.8973C9.41201 39.4999 7.39729 37.4852 7.39729 34.9999V28.2672L15.9511 28.3395L16.2904 28.3423L16.4184 28.028L18.2172 23.6098L22.0026 32.1735ZM23.6054 27.4163L19.7027 18.5329L19.7028 18.5329L19.7008 18.5285C19.093 17.1809 17.1654 17.0941 16.6115 18.5509L14.0495 24.8144H7.37296C7.37146 24.7378 7.37008 24.6523 7.36881 24.5583C7.36257 24.0963 7.35922 23.4442 7.35798 22.6776C7.35551 21.1452 7.36151 19.1627 7.36951 17.3468C7.38041 14.8752 9.38906 12.8809 11.8626 12.8809H35.1908C37.676 12.8809 39.6908 14.8956 39.6908 17.3809V24.891H31.8187L29.8623 20.8866L29.8584 20.8786L29.8543 20.8709C29.2175 19.6761 27.4404 19.6761 26.8036 20.8709L26.7995 20.8786L26.7956 20.8866L23.6054 27.4163Z" stroke="white"/>
<g filter="url(#filter1_bd_222_2730)">
<path d="M28.3663 24.3962L24.6281 32.0479C24.1795 32.9661 22.9085 32.8896 22.4599 31.9714L18.1983 22.3303L15.9553 27.8395L6.89729 27.763V35.9999C6.89729 38.209 8.68815 39.9999 10.8973 39.9999H36.1908C38.3999 39.9999 40.1908 38.209 40.1908 35.9999L40.1907 27.763L30.0859 27.8395L28.3663 24.3962ZM40.1907 16.3809C40.1907 14.1717 38.3999 12.3809 36.1907 12.3809H10.8695C8.67125 12.3809 6.88498 14.1532 6.87416 16.3514C6.85551 20.1389 6.8407 25.2759 6.89729 25.3144H14.3852L17.0768 18.734C17.4506 17.7393 18.7964 17.7393 19.245 18.734L23.5814 28.6046L27.2449 21.106C27.6934 20.2644 28.9645 20.2644 29.413 21.106L31.5065 25.391H40.1907V16.3809Z" fill="#D9D9D9" fill-opacity="0.5" shape-rendering="crispEdges"/>
</g>
<path d="M22.2312 32.0724L22.231 32.0725L22.2352 32.0811C22.5011 32.6252 23.0146 32.925 23.5329 32.948C24.0545 32.9712 24.5814 32.7129 24.8527 32.1576L28.3688 24.9607L29.8623 27.9512L29.9319 28.0907L30.0878 28.0895L39.9408 28.0149L39.9408 35.9999C39.9408 38.071 38.2618 39.7499 36.1908 39.7499H10.8973C8.82622 39.7499 7.14729 38.071 7.14729 35.9999V28.0151L15.9532 28.0895L16.1229 28.0909L16.1868 27.9338L18.2077 22.9701L22.2312 32.0724ZM23.5934 28.0105L19.4738 18.6335L19.4739 18.6335L19.4729 18.6313C18.9447 17.4601 17.3079 17.4167 16.8441 18.6426L14.2174 25.0644H7.12912C7.12425 24.9157 7.12029 24.6995 7.11716 24.4274C7.1109 23.8827 7.10803 23.1197 7.10751 22.2386C7.10647 20.4768 7.11483 18.2463 7.12415 16.3527C7.13429 14.2924 8.80842 12.6309 10.8695 12.6309H36.1908C38.2618 12.6309 39.9408 14.3098 39.9408 16.3809V25.141H31.6626L29.6377 20.9963L29.6378 20.9962L29.6337 20.9885C29.091 19.9702 27.5669 19.9702 27.0242 20.9885L27.0241 20.9884L27.0202 20.9963L23.5934 28.0105Z" stroke="url(#paint1_linear_222_2730)" stroke-width="0.5" style="mix-blend-mode:overlay"/>
</g>
<defs>
<filter id="filter0_d_222_2730" x="0" y="0" width="47.9043" height="48" filterUnits="userSpaceOnUse" color-interpolation-filters="sRGB">
<feFlood flood-opacity="0" result="BackgroundImageFix"/>
<feColorMatrix in="SourceAlpha" type="matrix" values="0 0 0 0 0 0 0 0 0 0 0 0 0 0 0 0 0 0 127 0" result="hardAlpha"/>
<feOffset dy="4"/>
<feGaussianBlur stdDeviation="2"/>
<feComposite in2="hardAlpha" operator="out"/>
<feColorMatrix type="matrix" values="0 0 0 0 0 0 0 0 0 0 0 0 0 0 0 0 0 0 0.2 0"/>
<feBlend mode="normal" in2="BackgroundImageFix" result="effect1_dropShadow_222_2730"/>
<feBlend mode="normal" in="SourceGraphic" in2="effect1_dropShadow_222_2730" result="shape"/>
</filter>
<filter id="filter1_bd_222_2730" x="2.85742" y="8.38086" width="41.333" height="35.6191" filterUnits="userSpaceOnUse" color-interpolation-filters="sRGB">
<feFlood flood-opacity="0" result="BackgroundImageFix"/>
<feGaussianBlur in="BackgroundImage" stdDeviation="2"/>
<feComposite in2="SourceAlpha" operator="in" result="effect1_backgroundBlur_222_2730"/>
<feColorMatrix in="SourceAlpha" type="matrix" values="0 0 0 0 0 0 0 0 0 0 0 0 0 0 0 0 0 0 127 0" result="hardAlpha"/>
<feOffset dy="-2"/>
<feGaussianBlur stdDeviation="1"/>
<feComposite in2="hardAlpha" operator="out"/>
<feColorMatrix type="matrix" values="0 0 0 0 0 0 0 0 0 0 0 0 0 0 0 0 0 0 0.2 0"/>
<feBlend mode="normal" in2="effect1_backgroundBlur_222_2730" result="effect2_dropShadow_222_2730"/>
<feBlend mode="normal" in="SourceGraphic" in2="effect2_dropShadow_222_2730" result="shape"/>
</filter>
<linearGradient id="paint0_linear_222_2730" x1="12.9785" y1="9.62963" x2="33.4816" y2="19.973" gradientUnits="userSpaceOnUse">
<stop stop-color="#4AC0AF"/>
<stop offset="1" stop-color="#0069A7"/>
</linearGradient>
<linearGradient id="paint1_linear_222_2730" x1="21.0072" y1="19.9133" x2="34.4193" y2="37.8367" gradientUnits="userSpaceOnUse">
<stop stop-color="white"/>
<stop offset="1"/>
</linearGradient>
</defs>
</svg>
