<svg width="60" height="49" viewBox="0 0 60 49" fill="none" xmlns="http://www.w3.org/2000/svg">
<path d="M2 5V32.7522C2 35.5136 4.23858 37.7522 7 37.7522H39.0531C41.8145 37.7522 44.0531 35.5136 44.0531 32.7522V9.77876C44.0531 7.01734 41.8145 4.77876 39.0531 4.77876H24.6197C23.2937 4.77876 22.0219 4.25198 21.0842 3.3143L19.2344 1.46447C18.2967 0.526784 17.0249 0 15.6988 0H7C4.23858 0 2 2.23858 2 5Z" fill="url(#paint0_linear_204_2688)"/>
<g filter="url(#filter0_d_204_2688)">
<g filter="url(#filter1_bd_204_2688)">
<path d="M42.8023 40.6195H6.61682C5.27216 40.6195 4.31061 39.3192 4.70459 38.0335L11.9085 14.5262C12.5522 12.4255 14.4919 10.9912 16.689 10.9912H53.254C54.6109 10.9912 55.574 12.3138 55.1574 13.6052L47.5608 37.1545C46.8946 39.2198 44.9723 40.6195 42.8023 40.6195Z" fill="#D9D9D9" fill-opacity="0.5" shape-rendering="crispEdges"/>
</g>
<path d="M42.8023 40.3695H6.61682C5.44024 40.3695 4.59888 39.2317 4.94362 38.1068L12.1475 14.5995C12.7591 12.6038 14.6017 11.2412 16.689 11.2412H53.254C54.4413 11.2412 55.284 12.3985 54.9195 13.5285L47.3229 37.0778C46.69 39.0398 44.8638 40.3695 42.8023 40.3695Z" stroke="url(#paint1_linear_204_2688)" stroke-width="0.5" style="mix-blend-mode:overlay"/>
</g>
<defs>
<filter id="filter0_d_204_2688" x="0.615234" y="10.9912" width="58.6406" height="37.6284" filterUnits="userSpaceOnUse" color-interpolation-filters="sRGB">
<feFlood flood-opacity="0" result="BackgroundImageFix"/>
<feColorMatrix in="SourceAlpha" type="matrix" values="0 0 0 0 0 0 0 0 0 0 0 0 0 0 0 0 0 0 127 0" result="hardAlpha"/>
<feOffset dy="4"/>
<feGaussianBlur stdDeviation="2"/>
<feComposite in2="hardAlpha" operator="out"/>
<feColorMatrix type="matrix" values="0 0 0 0 0 0 0 0 0 0 0 0 0 0 0 0 0 0 0.2 0"/>
<feBlend mode="normal" in2="BackgroundImageFix" result="effect1_dropShadow_204_2688"/>
<feBlend mode="normal" in="SourceGraphic" in2="effect1_dropShadow_204_2688" result="shape"/>
</filter>
<filter id="filter1_bd_204_2688" x="0.615234" y="6.99121" width="58.6406" height="37.6284" filterUnits="userSpaceOnUse" color-interpolation-filters="sRGB">
<feFlood flood-opacity="0" result="BackgroundImageFix"/>
<feGaussianBlur in="BackgroundImage" stdDeviation="2"/>
<feComposite in2="SourceAlpha" operator="in" result="effect1_backgroundBlur_204_2688"/>
<feColorMatrix in="SourceAlpha" type="matrix" values="0 0 0 0 0 0 0 0 0 0 0 0 0 0 0 0 0 0 127 0" result="hardAlpha"/>
<feOffset dy="-2"/>
<feGaussianBlur stdDeviation="1"/>
<feComposite in2="hardAlpha" operator="out"/>
<feColorMatrix type="matrix" values="0 0 0 0 0 0 0 0 0 0 0 0 0 0 0 0 0 0 0.2 0"/>
<feBlend mode="normal" in2="effect1_backgroundBlur_204_2688" result="effect2_dropShadow_204_2688"/>
<feBlend mode="normal" in="SourceGraphic" in2="effect2_dropShadow_204_2688" result="shape"/>
</filter>
<linearGradient id="paint0_linear_204_2688" x1="11.4619" y1="9.78761" x2="32.745" y2="20.9199" gradientUnits="userSpaceOnUse">
<stop stop-color="#4AC0AF"/>
<stop offset="1" stop-color="#0069A7"/>
</linearGradient>
<linearGradient id="paint1_linear_204_2688" x1="26.0233" y1="19.0717" x2="38.2141" y2="42.8029" gradientUnits="userSpaceOnUse">
<stop stop-color="white"/>
<stop offset="1"/>
</linearGradient>
</defs>
</svg>
