<svg width="45" height="51" viewBox="0 0 45 51" fill="none" xmlns="http://www.w3.org/2000/svg">
<rect x="9" width="36" height="36" rx="18" fill="url(#paint0_linear_222_2746)"/>
<g filter="url(#filter0_bd_222_2746)">
<path d="M28 12.5V17.75H33.25L28 12.5ZM28 19.5H33.25V32.625C33.25 34.1016 32.0469 35.25 30.625 35.25H16.625C15.1484 35.25 14 34.1016 14 32.625V15.125C14 13.7031 15.1484 12.5 16.625 12.5H26.25V17.75C26.25 18.7344 27.0156 19.5 28 19.5ZM28.1094 24.75H25.375V22.0156C25.375 21.6328 24.9922 21.25 24.6094 21.25H22.5859C22.2031 21.25 21.875 21.6328 21.875 22.0156V24.75H19.0859C18.7031 24.75 18.375 25.1328 18.375 25.5156V27.5391C18.375 27.9219 18.7031 28.25 19.0859 28.25H21.875V31.0391C21.875 31.4219 22.2031 31.75 22.5859 31.75H24.6094C24.9922 31.75 25.375 31.4219 25.375 31.0391V28.25H28.1094C28.4922 28.25 28.875 27.9219 28.875 27.5391V25.5156C28.875 25.1328 28.4922 24.75 28.1094 24.75ZM26.6875 40.5H15.3125C11.6484 40.5 8.75 37.6016 8.75 33.9375V19.0625C8.75 18.3516 9.29688 17.75 10.0625 17.75C10.7734 17.75 11.375 18.3516 11.375 19.0625V33.9375C11.375 36.125 13.125 37.875 15.3125 37.875H26.6875C27.3984 37.875 28 38.4766 28 39.1875C28 39.9531 27.3984 40.5 26.6875 40.5Z" fill="white" fill-opacity="0.4" shape-rendering="crispEdges"/>
<path d="M28 12.5L28.1768 12.3232L27.75 11.8964V12.5H28ZM28 17.75H27.75V18H28V17.75ZM33.25 17.75V18H33.8536L33.4268 17.5732L33.25 17.75ZM33.25 19.5H33.5V19.25H33.25V19.5ZM26.25 12.5H26.5V12.25H26.25V12.5ZM25.375 24.75H25.125V25H25.375V24.75ZM21.875 24.75V25H22.125V24.75H21.875ZM21.875 28.25H22.125V28H21.875V28.25ZM25.375 28.25V28H25.125V28.25H25.375ZM27.75 12.5V17.75H28.25V12.5H27.75ZM28 18H33.25V17.5H28V18ZM33.4268 17.5732L28.1768 12.3232L27.8232 12.6768L33.0732 17.9268L33.4268 17.5732ZM28 19.75H33.25V19.25H28V19.75ZM33 19.5V32.625H33.5V19.5H33ZM33 32.625C33 33.9601 31.9122 35 30.625 35V35.5C32.1815 35.5 33.5 34.243 33.5 32.625H33ZM30.625 35H16.625V35.5H30.625V35ZM16.625 35C15.2865 35 14.25 33.9635 14.25 32.625H13.75C13.75 34.2396 15.0104 35.5 16.625 35.5V35ZM14.25 32.625V15.125H13.75V32.625H14.25ZM14.25 15.125C14.25 13.8378 15.2899 12.75 16.625 12.75V12.25C15.007 12.25 13.75 13.5685 13.75 15.125H14.25ZM16.625 12.75H26.25V12.25H16.625V12.75ZM26 12.5V17.75H26.5V12.5H26ZM26 17.75C26 18.8724 26.8776 19.75 28 19.75V19.25C27.1537 19.25 26.5 18.5963 26.5 17.75H26ZM28.1094 24.5H25.375V25H28.1094V24.5ZM25.625 24.75V22.0156H25.125V24.75H25.625ZM25.625 22.0156C25.625 21.7429 25.4912 21.4911 25.3125 21.3125C25.1339 21.1338 24.8821 21 24.6094 21V21.5C24.7195 21.5 24.8505 21.5576 24.959 21.666C25.0674 21.7745 25.125 21.9055 25.125 22.0156H25.625ZM24.6094 21H22.5859V21.5H24.6094V21ZM22.5859 21C22.3093 21 22.0681 21.1375 21.9015 21.3215C21.7352 21.5053 21.625 21.7549 21.625 22.0156H22.125C22.125 21.8935 22.1788 21.7603 22.2723 21.657C22.3655 21.5539 22.4797 21.5 22.5859 21.5V21ZM21.625 22.0156V24.75H22.125V22.0156H21.625ZM21.875 24.5H19.0859V25H21.875V24.5ZM19.0859 24.5C18.8093 24.5 18.5681 24.6375 18.4015 24.8215C18.2352 25.0053 18.125 25.2549 18.125 25.5156H18.625C18.625 25.3935 18.6788 25.2603 18.7723 25.157C18.8655 25.0539 18.9797 25 19.0859 25V24.5ZM18.125 25.5156V27.5391H18.625V25.5156H18.125ZM18.125 27.5391C18.125 28.0599 18.5651 28.5 19.0859 28.5V28C18.8412 28 18.625 27.7838 18.625 27.5391H18.125ZM19.0859 28.5H21.875V28H19.0859V28.5ZM21.625 28.25V31.0391H22.125V28.25H21.625ZM21.625 31.0391C21.625 31.5599 22.0651 32 22.5859 32V31.5C22.3412 31.5 22.125 31.2838 22.125 31.0391H21.625ZM22.5859 32H24.6094V31.5H22.5859V32ZM24.6094 32C24.8701 32 25.1197 31.8898 25.3035 31.7235C25.4875 31.5569 25.625 31.3157 25.625 31.0391H25.125C25.125 31.1453 25.0711 31.2595 24.968 31.3527C24.8647 31.4462 24.7315 31.5 24.6094 31.5V32ZM25.625 31.0391V28.25H25.125V31.0391H25.625ZM25.375 28.5H28.1094V28H25.375V28.5ZM28.1094 28.5C28.3701 28.5 28.6197 28.3898 28.8035 28.2235C28.9875 28.0569 29.125 27.8157 29.125 27.5391H28.625C28.625 27.6453 28.5711 27.7595 28.468 27.8527C28.3647 27.9462 28.2315 28 28.1094 28V28.5ZM29.125 27.5391V25.5156H28.625V27.5391H29.125ZM29.125 25.5156C29.125 25.2429 28.9912 24.9911 28.8125 24.8125C28.6339 24.6338 28.3821 24.5 28.1094 24.5V25C28.2195 25 28.3505 25.0576 28.459 25.166C28.5674 25.2745 28.625 25.4055 28.625 25.5156H29.125ZM26.6875 40.25H15.3125V40.75H26.6875V40.25ZM15.3125 40.25C11.7865 40.25 9 37.4635 9 33.9375H8.5C8.5 37.7396 11.5104 40.75 15.3125 40.75V40.25ZM9 33.9375V19.0625H8.5V33.9375H9ZM9 19.0625C9 18.4828 9.44173 18 10.0625 18V17.5C9.15202 17.5 8.5 18.2204 8.5 19.0625H9ZM10.0625 18C10.6354 18 11.125 18.4896 11.125 19.0625H11.625C11.625 18.2135 10.9115 17.5 10.0625 17.5V18ZM11.125 19.0625V33.9375H11.625V19.0625H11.125ZM11.125 33.9375C11.125 36.2631 12.9869 38.125 15.3125 38.125V37.625C13.2631 37.625 11.625 35.9869 11.625 33.9375H11.125ZM15.3125 38.125H26.6875V37.625H15.3125V38.125ZM26.6875 38.125C27.2604 38.125 27.75 38.6146 27.75 39.1875H28.25C28.25 38.3385 27.5365 37.625 26.6875 37.625V38.125ZM27.75 39.1875C27.75 39.8083 27.2672 40.25 26.6875 40.25V40.75C27.5296 40.75 28.25 40.098 28.25 39.1875H27.75Z" fill="white"/>
</g>
<defs>
<filter id="filter0_bd_222_2746" x="0.75" y="4.5" width="40.5" height="46" filterUnits="userSpaceOnUse" color-interpolation-filters="sRGB">
<feFlood flood-opacity="0" result="BackgroundImageFix"/>
<feGaussianBlur in="BackgroundImage" stdDeviation="4"/>
<feComposite in2="SourceAlpha" operator="in" result="effect1_backgroundBlur_222_2746"/>
<feColorMatrix in="SourceAlpha" type="matrix" values="0 0 0 0 0 0 0 0 0 0 0 0 0 0 0 0 0 0 127 0" result="hardAlpha"/>
<feOffset dy="2"/>
<feGaussianBlur stdDeviation="4"/>
<feComposite in2="hardAlpha" operator="out"/>
<feColorMatrix type="matrix" values="0 0 0 0 0 0 0 0 0 0.353668 0 0 0 0 0.5625 0 0 0 0.6 0"/>
<feBlend mode="normal" in2="effect1_backgroundBlur_222_2746" result="effect2_dropShadow_222_2746"/>
<feBlend mode="normal" in="SourceGraphic" in2="effect2_dropShadow_222_2746" result="shape"/>
</filter>
<linearGradient id="paint0_linear_222_2746" x1="9" y1="0" x2="45" y2="36" gradientUnits="userSpaceOnUse">
<stop offset="0.235702" stop-color="#4AC0AF"/>
<stop offset="0.764298" stop-color="#0169A7"/>
</linearGradient>
</defs>
</svg>
