<svg width="44" height="54" viewBox="0 0 44 54" fill="none" xmlns="http://www.w3.org/2000/svg">
<rect x="0.389648" y="3" width="27.9991" height="39.1987" rx="5" fill="url(#paint0_linear_285_9245)"/>
<g filter="url(#filter0_d_285_9245)">
<g filter="url(#filter1_bd_285_9245)">
<path fill-rule="evenodd" clip-rule="evenodd" d="M7.91118 7.87814C5.24285 8.5891 3.65609 11.3286 4.36706 13.9969L11.8847 42.2112C12.5957 44.8796 15.3351 46.4663 18.0034 45.7553L35.3957 41.1212C38.0641 40.4103 39.6508 37.6708 38.9398 35.0025L31.4222 6.78813C30.7112 4.1198 27.9718 2.53305 25.3035 3.24402L7.91118 7.87814ZM19.6927 17.1599C18.6969 17.4267 18.106 18.4502 18.3728 19.446L19.4598 23.5027L15.4031 24.5897C14.4073 24.8566 13.8164 25.8801 14.0832 26.8758C14.35 27.8716 15.3735 28.4626 16.3693 28.1957L20.4261 27.1087L21.5131 31.1655C21.7799 32.1613 22.8034 32.7522 23.7992 32.4854C24.7949 32.2186 25.3859 31.195 25.1191 30.1993L24.0321 26.1425L28.0888 25.0555C29.0846 24.7887 29.6755 23.7652 29.4087 22.7694C29.1419 21.7736 28.1184 21.1827 27.1226 21.4495L23.0658 22.5365L21.9788 18.4798C21.712 17.484 20.6885 16.8931 19.6927 17.1599Z" fill="#D9D9D9" fill-opacity="0.5" shape-rendering="crispEdges"/>
</g>
<mask id="path-3-inside-1_285_9245" fill="white">
<path fill-rule="evenodd" clip-rule="evenodd" d="M7.91118 7.87814C5.24285 8.5891 3.65609 11.3286 4.36706 13.9969L11.8847 42.2112C12.5957 44.8796 15.3351 46.4663 18.0034 45.7553L35.3957 41.1212C38.0641 40.4103 39.6508 37.6708 38.9398 35.0025L31.4222 6.78813C30.7112 4.1198 27.9718 2.53305 25.3035 3.24402L7.91118 7.87814ZM19.6927 17.1599C18.6969 17.4267 18.106 18.4502 18.3728 19.446L19.4598 23.5027L15.4031 24.5897C14.4073 24.8566 13.8164 25.8801 14.0832 26.8758C14.35 27.8716 15.3735 28.4626 16.3693 28.1957L20.4261 27.1087L21.5131 31.1655C21.7799 32.1613 22.8034 32.7522 23.7992 32.4854C24.7949 32.2186 25.3859 31.195 25.1191 30.1993L24.0321 26.1425L28.0888 25.0555C29.0846 24.7887 29.6755 23.7652 29.4087 22.7694C29.1419 21.7736 28.1184 21.1827 27.1226 21.4495L23.0658 22.5365L21.9788 18.4798C21.712 17.484 20.6885 16.8931 19.6927 17.1599Z"/>
</mask>
<path d="M4.36706 13.9969L3.88392 14.1256L4.36706 13.9969ZM7.91118 7.87814L7.78245 7.39499L7.91118 7.87814ZM11.8847 42.2112L11.4015 42.34L11.8847 42.2112ZM18.0034 45.7553L18.1322 46.2385H18.1322L18.0034 45.7553ZM35.3957 41.1212L35.267 40.6381L35.3957 41.1212ZM38.9398 35.0025L38.4567 35.1312L38.9398 35.0025ZM31.4222 6.78813L30.9391 6.91687V6.91687L31.4222 6.78813ZM25.3035 3.24402L25.1747 2.76087V2.76087L25.3035 3.24402ZM18.3728 19.446L17.8899 19.5754L18.3728 19.446ZM19.6927 17.1599L19.8221 17.6428L19.8221 17.6428L19.6927 17.1599ZM19.4598 23.5027L19.5892 23.9857L20.0722 23.8563L19.9428 23.3733L19.4598 23.5027ZM15.4031 24.5897L15.5325 25.0727L15.4031 24.5897ZM14.0832 26.8758L14.5662 26.7464L14.0832 26.8758ZM16.3693 28.1957L16.4987 28.6787H16.4987L16.3693 28.1957ZM20.4261 27.1087L20.909 26.9793L20.7796 26.4964L20.2966 26.6258L20.4261 27.1087ZM21.5131 31.1655L21.996 31.0361L21.5131 31.1655ZM23.7992 32.4854L23.9286 32.9683L23.7992 32.4854ZM25.1191 30.1993L24.6361 30.3287L25.1191 30.1993ZM24.0321 26.1425L23.9026 25.6595L23.4197 25.789L23.5491 26.2719L24.0321 26.1425ZM28.0888 25.0555L28.2182 25.5385L28.0888 25.0555ZM29.4087 22.7694L28.9257 22.8988L29.4087 22.7694ZM27.1226 21.4495L26.9932 20.9665L27.1226 21.4495ZM23.0658 22.5365L22.5829 22.6659L22.7123 23.1489L23.1952 23.0195L23.0658 22.5365ZM21.9788 18.4798L21.4959 18.6092L21.9788 18.4798ZM4.85021 13.8682C4.21034 11.4667 5.63842 9.00115 8.03991 8.36128L7.78245 7.39499C4.84729 8.17706 3.10185 11.1905 3.88392 14.1256L4.85021 13.8682ZM12.3678 42.0825L4.85021 13.8682L3.88392 14.1256L11.4015 42.34L12.3678 42.0825ZM17.8747 45.2722C15.4732 45.9121 13.0077 44.484 12.3678 42.0825L11.4015 42.34C12.1836 45.2751 15.197 47.0206 18.1322 46.2385L17.8747 45.2722ZM35.267 40.6381L17.8747 45.2722L18.1322 46.2385L35.5245 41.6044L35.267 40.6381ZM38.4567 35.1312C39.0966 37.5327 37.6685 39.9982 35.267 40.6381L35.5245 41.6044C38.4596 40.8223 40.2051 37.8089 39.423 34.8737L38.4567 35.1312ZM30.9391 6.91687L38.4567 35.1312L39.423 34.8737L31.9054 6.6594L30.9391 6.91687ZM25.4322 3.72716C27.8337 3.08729 30.2992 4.51537 30.9391 6.91687L31.9054 6.6594C31.1233 3.72424 28.1099 1.97881 25.1747 2.76087L25.4322 3.72716ZM8.03991 8.36128L25.4322 3.72716L25.1747 2.76087L7.78245 7.39499L8.03991 8.36128ZM18.8558 19.3166C18.6604 18.5875 19.0931 17.8382 19.8221 17.6428L19.5633 16.6769C18.3008 17.0152 17.5516 18.3129 17.8899 19.5754L18.8558 19.3166ZM19.9428 23.3733L18.8558 19.3166L17.8899 19.5754L18.9769 23.6321L19.9428 23.3733ZM15.5325 25.0727L19.5892 23.9857L19.3304 23.0198L15.2737 24.1068L15.5325 25.0727ZM14.5662 26.7464C14.3708 26.0174 14.8035 25.268 15.5325 25.0727L15.2737 24.1068C14.0112 24.4451 13.2619 25.7428 13.6002 27.0053L14.5662 26.7464ZM16.2399 27.7128C15.5109 27.9081 14.7615 27.4755 14.5662 26.7464L13.6002 27.0053C13.9385 28.2678 15.2362 29.017 16.4987 28.6787L16.2399 27.7128ZM20.2966 26.6258L16.2399 27.7128L16.4987 28.6787L20.5555 27.5917L20.2966 26.6258ZM21.996 31.0361L20.909 26.9793L19.9431 27.2381L21.0301 31.2949L21.996 31.0361ZM23.6698 32.0024C22.9407 32.1978 22.1914 31.7651 21.996 31.0361L21.0301 31.2949C21.3684 32.5574 22.6661 33.3066 23.9286 32.9683L23.6698 32.0024ZM24.6361 30.3287C24.8314 31.0577 24.3988 31.8071 23.6698 32.0024L23.9286 32.9683C25.1911 32.6301 25.9403 31.3324 25.602 30.0699L24.6361 30.3287ZM23.5491 26.2719L24.6361 30.3287L25.602 30.0699L24.515 26.0131L23.5491 26.2719ZM27.9594 24.5725L23.9026 25.6595L24.1615 26.6255L28.2182 25.5385L27.9594 24.5725ZM28.9257 22.8988C29.1211 23.6278 28.6884 24.3772 27.9594 24.5725L28.2182 25.5385C29.4807 25.2002 30.2299 23.9025 29.8917 22.64L28.9257 22.8988ZM27.252 21.9325C27.981 21.7371 28.7304 22.1698 28.9257 22.8988L29.8917 22.64C29.5534 21.3775 28.2557 20.6283 26.9932 20.9665L27.252 21.9325ZM23.1952 23.0195L27.252 21.9325L26.9932 20.9665L22.9364 22.0535L23.1952 23.0195ZM21.4959 18.6092L22.5829 22.6659L23.5488 22.4071L22.4618 18.3503L21.4959 18.6092ZM19.8221 17.6428C20.5512 17.4475 21.3005 17.8801 21.4959 18.6092L22.4618 18.3503C22.1235 17.0878 20.8258 16.3386 19.5633 16.6769L19.8221 17.6428Z" fill="url(#paint1_linear_285_9245)" style="mix-blend-mode:overlay" mask="url(#path-3-inside-1_285_9245)"/>
</g>
<defs>
<filter id="filter0_d_285_9245" x="0.197266" y="3.07422" width="42.9121" height="50.8516" filterUnits="userSpaceOnUse" color-interpolation-filters="sRGB">
<feFlood flood-opacity="0" result="BackgroundImageFix"/>
<feColorMatrix in="SourceAlpha" type="matrix" values="0 0 0 0 0 0 0 0 0 0 0 0 0 0 0 0 0 0 127 0" result="hardAlpha"/>
<feOffset dy="4"/>
<feGaussianBlur stdDeviation="2"/>
<feComposite in2="hardAlpha" operator="out"/>
<feColorMatrix type="matrix" values="0 0 0 0 0 0 0 0 0 0 0 0 0 0 0 0 0 0 0.2 0"/>
<feBlend mode="normal" in2="BackgroundImageFix" result="effect1_dropShadow_285_9245"/>
<feBlend mode="normal" in="SourceGraphic" in2="effect1_dropShadow_285_9245" result="shape"/>
</filter>
<filter id="filter1_bd_285_9245" x="0.197266" y="-0.925781" width="42.9121" height="50.8516" filterUnits="userSpaceOnUse" color-interpolation-filters="sRGB">
<feFlood flood-opacity="0" result="BackgroundImageFix"/>
<feGaussianBlur in="BackgroundImage" stdDeviation="2"/>
<feComposite in2="SourceAlpha" operator="in" result="effect1_backgroundBlur_285_9245"/>
<feColorMatrix in="SourceAlpha" type="matrix" values="0 0 0 0 0 0 0 0 0 0 0 0 0 0 0 0 0 0 127 0" result="hardAlpha"/>
<feOffset dy="-1"/>
<feGaussianBlur stdDeviation="1"/>
<feComposite in2="hardAlpha" operator="out"/>
<feColorMatrix type="matrix" values="0 0 0 0 0 0 0 0 0 0 0 0 0 0 0 0 0 0 0.2 0"/>
<feBlend mode="normal" in2="effect1_backgroundBlur_285_9245" result="effect2_dropShadow_285_9245"/>
<feBlend mode="normal" in="SourceGraphic" in2="effect2_dropShadow_285_9245" result="shape"/>
</filter>
<linearGradient id="paint0_linear_285_9245" x1="6.68944" y1="13.1626" x2="22.9117" y2="18.6036" gradientUnits="userSpaceOnUse">
<stop stop-color="#4AC0AF"/>
<stop offset="1" stop-color="#0069A7"/>
</linearGradient>
<linearGradient id="paint1_linear_285_9245" x1="19.0173" y1="14.7608" x2="40.5925" y2="34.2246" gradientUnits="userSpaceOnUse">
<stop stop-color="white"/>
<stop offset="1"/>
</linearGradient>
</defs>
</svg>
