<svg width="44" height="48" viewBox="0 0 44 48" fill="none" xmlns="http://www.w3.org/2000/svg">
<g filter="url(#filter0_d_222_2735)">
<rect x="4" y="3.55566" width="35.5556" height="16.8889" rx="4" fill="url(#paint0_linear_222_2735)"/>
<rect x="4.5" y="11.167" width="34.5556" height="28.3333" rx="3.5" stroke="white"/>
<rect x="12.8887" width="3.55556" height="7.11111" rx="1.77778" fill="url(#paint1_linear_222_2735)"/>
<rect x="13.1387" y="0.25" width="3.05556" height="6.61111" rx="1.52778" stroke="url(#paint2_linear_222_2735)" stroke-opacity="0.5" stroke-width="0.5" style="mix-blend-mode:overlay"/>
<rect x="27.1113" width="3.55556" height="7.11111" rx="1.77778" fill="url(#paint3_linear_222_2735)"/>
<rect x="27.3613" y="0.25" width="3.05556" height="6.61111" rx="1.52778" stroke="url(#paint4_linear_222_2735)" stroke-opacity="0.5" stroke-width="0.5" style="mix-blend-mode:overlay"/>
<g filter="url(#filter1_bd_222_2735)">
<rect x="4" y="10.667" width="35.5556" height="29.3333" rx="4" fill="url(#paint5_radial_222_2735)" fill-opacity="0.5" shape-rendering="crispEdges"/>
</g>
<rect x="4.25" y="10.917" width="35.0556" height="28.8333" rx="3.75" stroke="white" stroke-width="0.5"/>
<path d="M21.7754 33.9485C23.7665 33.9485 25.587 33.081 25.587 31.3174C25.587 30.1654 24.6768 29.2836 23.539 28.8854C24.5914 28.5156 25.4305 27.833 25.4305 26.6525C25.4305 24.8747 23.5248 24.1494 21.7754 24.1494C20.0119 24.1494 18.1203 24.8747 18.1203 26.6525C18.1203 27.833 18.9452 28.5156 19.9976 28.8854C18.8599 29.2836 17.9639 30.1654 17.9639 31.3174C17.9639 33.0952 19.7843 33.9485 21.7754 33.9485ZM21.7754 28.089C21.1923 28.0036 20.1683 27.6765 20.1683 26.9654C20.1683 26.2827 20.8368 25.8845 21.7754 25.8845C22.6999 25.8845 23.3683 26.2827 23.3683 26.9654C23.3683 27.6765 22.3585 28.0036 21.7754 28.089ZM21.7754 32.2134C20.7799 32.2134 20.0119 31.7583 20.0119 31.0614C20.0119 30.265 21.1781 29.881 21.7754 29.7956C22.3585 29.881 23.539 30.265 23.539 31.0614C23.539 31.7583 22.7425 32.2134 21.7754 32.2134Z" fill="#004A73"/>
<path d="M20.8825 22.2225V18.0723H19.638L18.63 20.5798L17.622 18.0723H16.3838V22.2225H17.2673V19.3167L18.4371 22.2225H18.8229L19.9927 19.3167V22.2225H20.8825Z" fill="#004A73"/>
<path d="M23.0818 22.2972C24.0774 22.2972 24.6747 21.5754 24.6747 20.7167C24.6747 19.8643 24.0774 19.1425 23.0818 19.1425C22.0925 19.1425 21.4952 19.8643 21.4952 20.7167C21.4952 21.5754 22.0925 22.2972 23.0818 22.2972ZM23.0818 21.594C22.5903 21.594 22.3165 21.1896 22.3165 20.7167C22.3165 20.25 22.5903 19.8456 23.0818 19.8456C23.5734 19.8456 23.8534 20.25 23.8534 20.7167C23.8534 21.1896 23.5734 21.594 23.0818 21.594Z" fill="#004A73"/>
<path d="M28.0796 22.2225V20.1007C28.0796 19.5158 27.7623 19.1425 27.1027 19.1425C26.6112 19.1425 26.2441 19.3789 26.0512 19.6092V19.2172H25.261V22.2225H26.0512V20.2003C26.1818 20.0198 26.4245 19.8456 26.7356 19.8456C27.0716 19.8456 27.2894 19.9887 27.2894 20.4056V22.2225H28.0796Z" fill="#004A73"/>
</g>
<defs>
<filter id="filter0_d_222_2735" x="0" y="0" width="43.5557" height="48" filterUnits="userSpaceOnUse" color-interpolation-filters="sRGB">
<feFlood flood-opacity="0" result="BackgroundImageFix"/>
<feColorMatrix in="SourceAlpha" type="matrix" values="0 0 0 0 0 0 0 0 0 0 0 0 0 0 0 0 0 0 127 0" result="hardAlpha"/>
<feOffset dy="4"/>
<feGaussianBlur stdDeviation="2"/>
<feComposite in2="hardAlpha" operator="out"/>
<feColorMatrix type="matrix" values="0 0 0 0 0 0 0 0 0 0 0 0 0 0 0 0 0 0 0.2 0"/>
<feBlend mode="normal" in2="BackgroundImageFix" result="effect1_dropShadow_222_2735"/>
<feBlend mode="normal" in="SourceGraphic" in2="effect1_dropShadow_222_2735" result="shape"/>
</filter>
<filter id="filter1_bd_222_2735" x="0" y="6.66699" width="43.5557" height="37.333" filterUnits="userSpaceOnUse" color-interpolation-filters="sRGB">
<feFlood flood-opacity="0" result="BackgroundImageFix"/>
<feGaussianBlur in="BackgroundImage" stdDeviation="2"/>
<feComposite in2="SourceAlpha" operator="in" result="effect1_backgroundBlur_222_2735"/>
<feColorMatrix in="SourceAlpha" type="matrix" values="0 0 0 0 0 0 0 0 0 0 0 0 0 0 0 0 0 0 127 0" result="hardAlpha"/>
<feOffset dy="-2"/>
<feGaussianBlur stdDeviation="1"/>
<feComposite in2="hardAlpha" operator="out"/>
<feColorMatrix type="matrix" values="0 0 0 0 0 0 0 0 0 0 0 0 0 0 0 0 0 0 0.2 0"/>
<feBlend mode="normal" in2="effect1_backgroundBlur_222_2735" result="effect2_dropShadow_222_2735"/>
<feBlend mode="normal" in="SourceGraphic" in2="effect2_dropShadow_222_2735" result="shape"/>
</filter>
<linearGradient id="paint0_linear_222_2735" x1="12" y1="7.93426" x2="23.5908" y2="19.3924" gradientUnits="userSpaceOnUse">
<stop stop-color="#4AC0AF"/>
<stop offset="1" stop-color="#0069A7"/>
</linearGradient>
<linearGradient id="paint1_linear_222_2735" x1="13.3331" y1="4" x2="15.5553" y2="4" gradientUnits="userSpaceOnUse">
<stop offset="0.364583" stop-color="#D9D9D9"/>
<stop offset="1" stop-color="#B3B3B3"/>
</linearGradient>
<linearGradient id="paint2_linear_222_2735" x1="13.3331" y1="1.77778" x2="15.9998" y2="5.77778" gradientUnits="userSpaceOnUse">
<stop stop-color="white"/>
<stop offset="1"/>
</linearGradient>
<linearGradient id="paint3_linear_222_2735" x1="27.5558" y1="4" x2="29.778" y2="4" gradientUnits="userSpaceOnUse">
<stop offset="0.364583" stop-color="#D9D9D9"/>
<stop offset="1" stop-color="#B3B3B3"/>
</linearGradient>
<linearGradient id="paint4_linear_222_2735" x1="27.5558" y1="1.77778" x2="30.2224" y2="5.77778" gradientUnits="userSpaceOnUse">
<stop stop-color="white"/>
<stop offset="1"/>
</linearGradient>
<radialGradient id="paint5_radial_222_2735" cx="0" cy="0" r="1" gradientUnits="userSpaceOnUse" gradientTransform="translate(13.3333 14.667) rotate(63.4349) scale(24.8452 25.8926)">
<stop stop-color="white"/>
<stop offset="1" stop-color="#C9C5C5"/>
</radialGradient>
</defs>
</svg>
