<svg width="31" height="28" viewBox="0 0 31 28" fill="none" xmlns="http://www.w3.org/2000/svg">
<path d="M27.271 8.99072H23.9289V12.3328C23.9289 15.1005 21.6312 17.346 18.9158 17.346H10.5605V20.6881C10.5605 22.568 12.0227 24.0302 13.9026 24.0302H20.4302L24.7645 27.32C25.0778 27.5289 25.6 27.32 25.6 26.9023V24.0302H27.271C29.0987 24.0302 30.6131 22.568 30.6131 20.6881V12.3328C30.6131 10.5051 29.0987 8.99072 27.271 8.99072Z" fill="#3CA70D"/>
<path d="M22.2578 3.97686V12.3321C22.2578 14.212 20.7434 15.6742 18.9157 15.6742H8.99387L4.65958 18.9119C4.34626 19.173 3.87628 18.9641 3.87628 18.5463V15.6742C1.99635 15.6742 0.53418 14.212 0.53418 12.3321V3.97686C0.53418 2.14915 1.99635 0.634766 3.87628 0.634766H18.9157C20.7434 0.634766 22.2578 2.14915 22.2578 3.97686Z" fill="#055293"/>
</svg>
