<svg width="38" height="38" viewBox="0 0 38 38" fill="none" xmlns="http://www.w3.org/2000/svg">
<path d="M23.1562 10.2287L17.293 17.0976L15.0664 14.8577C14.3984 14.1857 13.2109 14.1857 12.543 14.8577C11.875 15.6043 11.875 16.7243 12.543 17.3962L16.1055 20.98C16.4766 21.3533 16.9219 21.5026 17.3672 21.5026H17.4414C17.9609 21.5026 18.4062 21.2786 18.7031 20.9053L25.8281 12.5432C26.4961 11.7966 26.4219 10.6766 25.6797 10.0047C24.9375 9.40739 23.75 9.48205 23.1562 10.2287ZM33.25 0H4.75C2.07812 0 0 2.16519 0 4.77836V26.2063C0 28.8195 2.07812 30.91 4.75 30.91H11.875V37.1069C11.875 37.8536 12.6914 38.2269 13.2852 37.8535L22.5625 30.8353H33.25C35.8477 30.8353 38 28.6701 38 26.1316V4.77836C38 2.16519 35.9219 0 33.25 0ZM34.5117 26.281C34.5117 26.9529 33.918 27.4756 33.3242 27.4756H21.4492L15.5117 31.9553V27.4756H4.82422C4.15625 27.4756 3.63672 26.9529 3.63672 26.281V4.77836C3.63672 4.18106 4.15625 3.58377 4.82422 3.58377H33.3242C33.918 3.58377 34.5117 4.18106 34.5117 4.77836V26.281Z" fill="#4E9D2D"/>
</svg>
