<svg width="28" height="23" viewBox="0 0 28 23" fill="none" xmlns="http://www.w3.org/2000/svg">
<path d="M17.875 11.75V3.5C17.875 1.99609 16.6289 0.75 15.125 0.75H2.75C1.20312 0.75 0 1.99609 0 3.5V11.75C0 13.2969 1.20312 14.5 2.75 14.5L4.125 14.543V16.7344C4.125 17.0781 4.33984 17.25 4.64062 17.25C4.72656 17.25 4.8125 17.25 4.94141 17.1641L9.625 14.5H15.125C16.6289 14.5 17.875 13.2969 17.875 11.75ZM9.06641 12.4375L6.1875 14.1133V12.4375H2.75C2.36328 12.4375 2.0625 12.1367 2.0625 11.75V3.5C2.0625 3.15625 2.36328 2.8125 2.75 2.8125H15.125C15.4688 2.8125 15.8125 3.15625 15.8125 3.5V11.75C15.8125 12.1367 15.4688 12.4375 15.125 12.4375H9.06641ZM24.75 6.25H19.25V11.75C19.25 14.0273 17.3594 15.875 15.125 15.875H11V17.25C11 18.7969 12.2031 20 13.707 20H19.0781L22.6445 22.6641C22.9453 22.8789 23.375 22.707 23.375 22.3633V20H24.75C26.2539 20 27.5 18.7969 27.5 17.293V9C27.5 7.49609 26.2539 6.25 24.75 6.25Z" fill="white"/>
</svg>
