<svg width="11" height="17" viewBox="0 0 11 17" fill="none" xmlns="http://www.w3.org/2000/svg">
<path d="M8.98828 0.5H1.98828C1.14453 0.5 0.488281 1.1875 0.488281 2V15C0.488281 15.8438 1.14453 16.5 1.98828 16.5H8.98828C9.80078 16.5 10.4883 15.8438 10.4883 15V2C10.4883 1.1875 9.80078 0.5 8.98828 0.5ZM5.48828 15.5C4.92578 15.5 4.48828 15.0625 4.48828 14.5C4.48828 13.9688 4.92578 13.5 5.48828 13.5C6.01953 13.5 6.48828 13.9688 6.48828 14.5C6.48828 15.0625 6.01953 15.5 5.48828 15.5ZM8.98828 12.125C8.98828 12.3438 8.80078 12.5 8.61328 12.5H2.36328C2.14453 12.5 1.98828 12.3438 1.98828 12.125V2.375C1.98828 2.1875 2.14453 2 2.36328 2H8.61328C8.80078 2 8.98828 2.1875 8.98828 2.375V12.125Z" fill="#5B5C5B"/>
</svg>
