<svg width="10" height="17" viewBox="0 0 10 17" fill="none" xmlns="http://www.w3.org/2000/svg">
<path d="M6 13.5527C6 13.0215 5.53125 12.5527 5 12.5527C4.4375 12.5527 4 13.0215 4 13.5527C4 14.1152 4.4375 14.5527 5 14.5527C5.53125 14.5527 6 14.1152 6 13.5527ZM7.5 11.6777V3.42773C7.5 3.24023 7.3125 3.05273 7.125 3.05273H2.875C2.65625 3.05273 2.5 3.24023 2.5 3.42773V11.6777C2.5 11.8965 2.65625 12.0527 2.875 12.0527H7.125C7.3125 12.0527 7.5 11.8965 7.5 11.6777ZM10 2.05273C10 1.24023 9.3125 0.552734 8.5 0.552734H1.5C0.65625 0.552734 0 1.24023 0 2.05273V15.0527C0 15.8965 0.65625 16.5527 1.5 16.5527H8.5C9.3125 16.5527 10 15.8965 10 15.0527V2.05273ZM8.5 14.8652C8.5 14.9902 8.40625 15.0527 8.3125 15.0527H1.6875C1.5625 15.0527 1.5 14.9902 1.5 14.8652V2.24023C1.5 2.14648 1.5625 2.05273 1.6875 2.05273H8.3125C8.40625 2.05273 8.5 2.14648 8.5 2.24023V14.8652Z" fill="#999999"/>
</svg>
