<svg width="16" height="16" viewBox="0 0 16 16" fill="none" xmlns="http://www.w3.org/2000/svg">
<path d="M8 10.5C7.4375 10.5 7 10.9688 7 11.5C7 12.0625 7.4375 12.5 8 12.5C8.53125 12.5 9 12.0625 9 11.5C9 10.9688 8.53125 10.5 8 10.5ZM8 7C7.4375 7 7 7.46875 7 8C7 8.5625 7.4375 9 8 9C8.53125 9 9 8.5625 9 8C9 7.46875 8.53125 7 8 7ZM8 3.5C7.4375 3.5 7 3.96875 7 4.5C7 5.0625 7.4375 5.5 8 5.5C8.53125 5.5 9 5.0625 9 4.5C9 3.96875 8.53125 3.5 8 3.5ZM8 0C3.5625 0 0 3.59375 0 8C0 12.4375 3.5625 16 8 16C12.4062 16 16 12.4062 16 8C16 3.625 12.4062 0 8 0ZM8 14.5C4.40625 14.5 1.5 11.5938 1.5 8C1.5 4.4375 4.40625 1.5 8 1.5C11.5625 1.5 14.5 4.4375 14.5 8C14.5 11.5938 11.5625 14.5 8 14.5Z" fill="#2E7300"/>
</svg>
