<svg width="30" height="24" viewBox="0 0 30 24" fill="none" xmlns="http://www.w3.org/2000/svg">
<path d="M28.2322 3.17591H26.2388V1.10945C26.2388 0.636252 25.893 0.234803 25.4261 0.164763C25.3447 0.152235 23.4025 -0.130202 21.0639 0.296302C18.4568 0.771207 16.3781 1.94253 14.9682 3.71289C13.5584 1.94253 11.4791 0.771207 8.8726 0.296302C6.53398 -0.129633 4.59234 0.152805 4.51044 0.164763C4.04295 0.234803 3.69773 0.636821 3.69773 1.10945V3.17534H1.70433C1.17712 3.17534 0.75 3.60356 0.75 4.13085V22.1345C0.75 22.4437 0.899576 22.7342 1.15152 22.9135C1.40347 23.0929 1.72651 23.139 2.01827 23.0371C2.08993 23.012 9.24057 20.5692 14.5724 23.0041C14.8238 23.1191 15.1127 23.1191 15.3647 23.0041C20.6817 20.576 27.8477 23.0126 27.9188 23.0371C28.0212 23.073 28.127 23.0901 28.2327 23.0901C28.4284 23.0901 28.6217 23.0297 28.7855 22.9135C29.0369 22.7342 29.1865 22.4443 29.1865 22.1345V4.13085C29.1865 3.60356 28.7594 3.17591 28.2322 3.17591ZM2.65866 20.8562V5.08636H3.69773V17.8097C3.69773 18.0876 3.81887 18.3512 4.02873 18.5323C4.23859 18.714 4.51727 18.7954 4.79196 18.7544C4.84485 18.747 8.98976 18.177 12.0188 20.2577C8.28738 19.6194 4.55367 20.3579 2.65866 20.8562ZM14.0139 19.3962C12.6802 18.1895 10.9428 17.3735 8.87203 16.9966C7.87562 16.8149 6.95143 16.762 6.21208 16.762C5.99255 16.762 5.78952 16.7665 5.60582 16.7739V1.98694C7.43997 1.90437 11.9011 2.10026 14.0139 5.68597V19.3962ZM15.9226 5.68597C18.0274 2.11563 22.496 1.91064 24.3307 1.98922V16.7739C23.5282 16.7415 22.3566 16.7608 21.0645 16.9966C18.9943 17.3735 17.2568 18.1895 15.9226 19.3962V5.68597ZM17.9148 20.2588C20.9439 18.177 25.0916 18.7476 25.1434 18.755C25.4181 18.7965 25.6973 18.7151 25.9078 18.534C26.1182 18.3524 26.2393 18.0882 26.2393 17.8103V5.08636H27.2784V20.8562C25.3823 20.3579 21.6468 19.6188 17.9148 20.2588Z" fill="#999999"/>
</svg>
