<svg width="24" height="26" viewBox="0 0 24 26" fill="none" xmlns="http://www.w3.org/2000/svg">
<path d="M3.24998 25.0899H20.7498C22.1285 25.0899 23.2498 23.9673 23.2498 22.5868V11.3231C23.2499 11.1587 23.2177 10.9959 23.1548 10.8441C23.092 10.6922 22.9998 10.5543 22.8835 10.4383L12.8836 0.426032C12.7676 0.309707 12.6299 0.217422 12.4783 0.154457C12.3266 0.0914917 12.1641 0.059082 11.9999 0.059082C11.8357 0.059082 11.6732 0.0914917 11.5215 0.154457C11.3699 0.217422 11.2321 0.309707 11.1161 0.426032L1.11625 10.4383C1 10.5543 0.907803 10.6922 0.844951 10.8441C0.782099 10.9959 0.749831 11.1587 0.750001 11.3231V22.5868C0.750001 23.9673 1.87124 25.0899 3.24998 25.0899ZM9.49991 22.5868V16.3292H14.4999V22.5868H9.49991ZM3.24998 11.8412L11.9999 3.08052L20.7498 11.8412L20.7511 22.5868H16.9998V16.3292C16.9998 14.9488 15.8786 13.8261 14.4999 13.8261H9.49991C8.12118 13.8261 6.99994 14.9488 6.99994 16.3292V22.5868H3.24998V11.8412Z" fill="#999999"/>
</svg>
