<svg width="25" height="26" viewBox="0 0 25 26" fill="none" xmlns="http://www.w3.org/2000/svg">
<path d="M23.4417 20.4862C22.8492 19.0812 21.9894 17.8049 20.9103 16.7285C19.8344 15.649 18.5599 14.7883 17.1571 14.194C17.1446 14.1877 17.132 14.1845 17.1194 14.1782C19.0761 12.7632 20.3481 10.4582 20.3481 7.85763C20.3481 3.54956 16.8619 0.059082 12.5591 0.059082C8.25636 0.059082 4.77018 3.54956 4.77018 7.85763C4.77018 10.4582 6.04217 12.7632 7.99882 14.1814C7.98626 14.1877 7.9737 14.1908 7.96114 14.1971C6.5541 14.7914 5.29154 15.6436 4.20799 16.7316C3.12982 17.8089 2.27019 19.0849 1.67659 20.4894C1.09343 21.8644 0.778916 23.3385 0.750079 24.8321C0.74924 24.8656 0.75512 24.899 0.767371 24.9303C0.779622 24.9615 0.797996 24.99 0.821411 25.014C0.844827 25.038 0.872809 25.0571 0.90371 25.0702C0.93461 25.0832 0.967804 25.0899 1.00133 25.0899H2.88576C3.02395 25.0899 3.13387 24.9799 3.13701 24.8446C3.19983 22.417 4.17345 20.1435 5.89455 18.4203C7.67533 16.6373 10.0403 15.6562 12.5591 15.6562C15.078 15.6562 17.4429 16.6373 19.2237 18.4203C20.9448 20.1435 21.9184 22.417 21.9812 24.8446C21.9844 24.983 22.0943 25.0899 22.2325 25.0899H24.1169C24.1505 25.0899 24.1836 25.0832 24.2145 25.0702C24.2454 25.0571 24.2734 25.038 24.2968 25.014C24.3203 24.99 24.3386 24.9615 24.3509 24.9303C24.3631 24.899 24.369 24.8656 24.3682 24.8321C24.3368 23.3289 24.0258 21.8667 23.4417 20.4862ZM12.5591 13.2663C11.1175 13.2663 9.76076 12.7034 8.74003 11.6814C7.7193 10.6594 7.15712 9.30099 7.15712 7.85763C7.15712 6.41427 7.7193 5.05581 8.74003 4.03383C9.76076 3.01184 11.1175 2.44896 12.5591 2.44896C14.0007 2.44896 15.3575 3.01184 16.3782 4.03383C17.399 5.05581 17.9611 6.41427 17.9611 7.85763C17.9611 9.30099 17.399 10.6594 16.3782 11.6814C15.3575 12.7034 14.0007 13.2663 12.5591 13.2663Z" fill="#999999"/>
</svg>
