<svg width="242" height="218" viewBox="0 0 282 258" fill="none" xmlns="http://www.w3.org/2000/svg">
<g opacity="0.5">
<path d="M54.2486 170.714L115.66 168.551L112.475 78.1227L51.0636 80.2857L54.2486 170.714Z" fill="#E5E4E4"/>
<path d="M71.6328 97.207L74.0132 94.4619L93.6765 110.937L91.2961 113.682L71.6328 97.207Z" fill="#5C5D5C"/>
<path d="M75.7685 114.818L72.9453 112.453L89.5406 93.3262L92.3638 95.691L75.7685 114.818Z" fill="#5C5D5C"/>
<path d="M78.9238 154.145C78.9238 154.077 85.1067 153.806 92.7428 153.54C100.379 153.27 106.567 153.108 106.572 153.171C106.572 153.238 100.389 153.509 92.7532 153.775C85.1223 154.046 78.929 154.212 78.9238 154.145Z" fill="#E5E4E4"/>
<path d="M60.4766 148.269C60.4766 148.201 70.7431 147.789 83.4058 147.341C96.0736 146.893 106.345 146.586 106.345 146.654C106.345 146.722 96.084 147.133 83.411 147.581C70.7484 148.024 60.4766 148.331 60.4766 148.269Z" fill="#E5E4E4"/>
<path d="M60.2344 141.497C60.2344 141.429 70.501 141.018 83.1636 140.57C95.8314 140.122 106.103 139.815 106.103 139.882C106.103 139.95 95.8418 140.362 83.1688 140.81C70.5114 141.258 60.2396 141.565 60.2344 141.497Z" fill="#E5E4E4"/>
<path d="M59.9961 134.732C59.9961 134.664 70.2627 134.252 82.9253 133.804C95.5932 133.356 105.865 133.049 105.865 133.117C105.865 133.184 95.6036 133.596 82.9305 134.044C70.2731 134.487 60.0013 134.794 59.9961 134.732Z" fill="#E5E4E4"/>
<path d="M59.7598 127.96C59.7598 127.892 70.0263 127.481 82.689 127.033C95.3568 126.585 105.629 126.278 105.629 126.345C105.629 126.413 95.3672 126.824 82.6942 127.272C70.0316 127.72 59.7598 128.028 59.7598 127.96Z" fill="#E5E4E4"/>
<path d="M141.049 257.55C218.448 257.55 281.193 246.433 281.193 232.719C281.193 219.006 218.448 207.889 141.049 207.889C63.6505 207.889 0.90625 219.006 0.90625 232.719C0.90625 246.433 63.6505 257.55 141.049 257.55Z" fill="#E5E4E4"/>
<path d="M105.744 125.626L87.3257 220.322L84.9141 232.719L207.873 232.115C213.39 232.089 218.281 227.187 220.057 219.91L241.861 130.506C243.21 124.98 240.251 119.234 236.064 119.234L111.614 119.365C108.864 119.365 106.463 121.927 105.744 125.626Z" fill="#E9505B"/>
<path d="M105.744 125.626L87.3257 220.322L84.9141 232.719L207.873 232.115C213.39 232.089 218.281 227.187 220.057 219.91L241.861 130.506C243.21 124.98 240.251 119.234 236.064 119.234L111.614 119.365C108.864 119.365 106.463 121.927 105.744 125.626Z" fill="#2E72B8"/>
<path d="M196.081 213.905L183.059 108.994C182.528 104.697 179.1 101.488 175.058 101.504L146.509 101.598C144.394 101.603 142.368 102.504 140.868 104.098L127.314 118.506L47.9163 118.922C43.0669 118.948 39.3373 123.537 39.978 128.699L52.0677 225.661C52.6042 229.953 56.0212 233.157 60.058 233.146L198.43 232.876C213.843 233.193 215.312 228.646 215.312 228.646C197.654 232.558 196.081 213.915 196.081 213.905Z" fill="#19AE87"/>
<path d="M182.2 65.5638L176.439 71.3242L213.709 108.594L219.47 102.834L182.2 65.5638Z" fill="#19AE87"/>
<path d="M157.864 93.9775C183.815 93.9775 204.852 72.9399 204.852 46.9887C204.852 21.0376 183.815 0 157.864 0C131.913 0 110.875 21.0376 110.875 46.9887C110.875 72.9399 131.913 93.9775 157.864 93.9775Z" fill="#19AE87"/>
<path d="M157.864 87.1077C180.021 87.1077 197.983 69.1461 197.983 46.9894C197.983 24.8327 180.021 6.87109 157.864 6.87109C135.708 6.87109 117.746 24.8327 117.746 46.9894C117.746 69.1461 135.708 87.1077 157.864 87.1077Z" fill="#E5E4E4"/>
<path d="M257.128 143.149L254.023 146.254C251.325 148.952 246.95 148.952 244.251 146.254L193.846 95.8427L206.717 82.9717L257.122 133.377C259.826 136.076 259.826 140.451 257.128 143.149Z" fill="#54BBAD"/>
<path d="M178.167 60.6456L173.499 65.6617L137.559 33.3253L142.226 28.3145L178.167 60.6456Z" fill="#54BBAD"/>
<path d="M171.545 27.2051L176.702 31.8409L144.178 66.7713L139.021 62.1302L171.545 27.2051Z" fill="#54BBAD"/>
</g>
</svg>
