<svg width="41" height="41" viewBox="0 0 41 41" fill="none" xmlns="http://www.w3.org/2000/svg">
<path d="M26.2559 14.1914C26.959 13.4883 28.1309 13.4883 28.834 14.2695C29.6152 14.9727 29.6152 16.1445 28.834 16.8477L18.834 26.8477C18.5215 27.2383 18.0527 27.3945 17.584 27.3945C17.0371 27.3945 16.5684 27.2383 16.1777 26.8477L11.1777 21.8477C10.3965 21.1445 10.3965 19.9727 11.1777 19.1914C11.8809 18.4883 13.0527 18.4883 13.834 19.1914L17.584 22.9414L26.2559 14.1914ZM20.084 0.519531C31.0996 0.519531 40.084 9.50391 40.084 20.5195C40.084 31.6133 31.0996 40.5195 20.084 40.5195C8.99023 40.5195 0.0839844 31.6133 0.0839844 20.5195C0.0839844 9.50391 8.99023 0.519531 20.084 0.519531ZM20.084 36.7695C28.9902 36.7695 36.334 29.5039 36.334 20.5195C36.334 11.6133 28.9902 4.26953 20.084 4.26953C11.0996 4.26953 3.83398 11.6133 3.83398 20.5195C3.83398 29.5039 11.0996 36.7695 20.084 36.7695Z" fill="#2E7300"/>
</svg>
