<svg width="19" height="17" viewBox="0 0 19 17" fill="none" xmlns="http://www.w3.org/2000/svg">
<path d="M3.48828 4.25C4.58203 4.25 5.48828 3.375 5.48828 2.25C5.48828 1.15625 4.58203 0.25 3.48828 0.25C2.36328 0.25 1.48828 1.15625 1.48828 2.25C1.48828 3.375 2.36328 4.25 3.48828 4.25ZM3.48828 9.78125V9.75C3.48828 9.4375 3.67578 9 3.89453 8.78125L6.14453 6.625C6.20703 6.59375 6.26953 6.5625 6.33203 6.53125C6.05078 5.84375 5.20703 5.28125 4.48828 5.25H2.48828C1.36328 5.25 0.488281 6.15625 0.488281 7.25V10.25C0.488281 10.8125 0.925781 11.25 1.48828 11.25V15.25C1.48828 15.8125 1.92578 16.25 2.48828 16.25H4.48828C5.01953 16.25 5.48828 15.8125 5.48828 15.25V12.25L3.89453 10.7812C3.67578 10.5312 3.48828 10.0938 3.48828 9.78125ZM15.4883 4.25C16.582 4.25 17.4883 3.375 17.4883 2.25C17.4883 1.15625 16.582 0.25 15.4883 0.25C14.3633 0.25 13.4883 1.15625 13.4883 2.25C13.4883 3.375 14.3633 4.25 15.4883 4.25ZM16.4883 5.25H14.4883C13.7383 5.28125 12.8945 5.84375 12.6133 6.53125C12.6758 6.5625 12.7383 6.59375 12.8008 6.65625L15.0508 8.78125C15.2695 9 15.457 9.4375 15.457 9.78125C15.457 10.0938 15.2695 10.5312 15.0508 10.7812L13.4883 12.25V15.25C13.4883 15.8125 13.9258 16.25 14.4883 16.25H16.4883C17.0195 16.25 17.4883 15.8125 17.4883 15.25V11.25C18.0195 11.25 18.4883 10.8125 18.4883 10.25V7.25C18.4883 6.15625 17.582 5.25 16.4883 5.25ZM14.3633 9.5L12.1133 7.375C12.0508 7.3125 11.9258 7.25 11.8633 7.25C11.6445 7.25 11.4883 7.4375 11.4883 7.625V8.75H7.48828V7.625C7.48828 7.4375 7.30078 7.25 7.11328 7.25C7.01953 7.25 6.89453 7.3125 6.83203 7.375L4.58203 9.5C4.51953 9.5625 4.48828 9.6875 4.48828 9.78125C4.48828 9.84375 4.51953 9.96875 4.58203 10.0312L6.83203 12.1562C6.89453 12.2188 7.01953 12.2812 7.11328 12.2812C7.30078 12.2812 7.48828 12.0938 7.48828 11.9062V10.75H11.4883V11.9062C11.4883 12.0938 11.6445 12.2812 11.8633 12.2812C11.9258 12.2812 12.0508 12.2188 12.1133 12.1562L14.3633 10.0312C14.4258 9.96875 14.457 9.84375 14.457 9.78125C14.457 9.6875 14.4258 9.5625 14.3633 9.5Z" fill="#5B5C5B"/>
</svg>
