<svg width="18" height="15" viewBox="0 0 18 15" fill="none" xmlns="http://www.w3.org/2000/svg">
<path d="M16 5.15625H13C12.9688 5.15625 12.9688 5.15625 12.9688 5.15625C12.4688 5.15625 12 5.375 11.625 5.65625C11.875 5.71875 12.125 5.84375 12.3125 6L12.9688 6.59375C12.9688 6.59375 12.9688 6.5625 13 6.5625H16C16.25 6.5625 16.5 6.78125 16.5 7.03125V9.84375H15.5V13.5938H13.5V10.8125L13.4375 10.8438L12.3125 11.8438C12.2188 11.9375 12.0938 12 12 12.0625V14.0625C12 14.5938 12.4375 15 13 15H16C16.5312 15 17 14.5938 17 14.0625V11.25C17.5312 11.25 18 10.8438 18 10.3125V7.03125C18 6 17.0938 5.15625 16 5.15625ZM14.5 4.6875C15.875 4.6875 17 3.65625 17 2.34375C17 1.0625 15.875 0 14.5 0C13.0938 0 12 1.0625 12 2.34375C12 3.65625 13.0938 4.6875 14.5 4.6875ZM14.5 1.40625C15.0312 1.40625 15.5 1.84375 15.5 2.34375C15.5 2.875 15.0312 3.28125 14.5 3.28125C13.9375 3.28125 13.5 2.875 13.5 2.34375C13.5 1.84375 13.9375 1.40625 14.5 1.40625ZM4.53125 10.8438L4.5 10.8125V13.5938H2.5V9.84375H1.5V7.03125C1.5 6.78125 1.71875 6.5625 2 6.5625H5V6.59375L5.65625 6C5.84375 5.84375 6.09375 5.71875 6.34375 5.65625C5.96875 5.375 5.5 5.1875 5 5.1875V5.15625H2C0.875 5.15625 0 6 0 7.03125V10.3125C0 10.8438 0.4375 11.25 1 11.25V14.0625C1 14.5938 1.4375 15 2 15H5C5.53125 15 6 14.5938 6 14.0625V12.0625C5.875 12 5.75 11.9375 5.65625 11.8438L4.53125 10.8438ZM3.5 4.6875C4.875 4.6875 6 3.65625 6 2.34375C6 1.0625 4.875 0 3.5 0C2.09375 0 1 1.0625 1 2.34375C1 3.65625 2.09375 4.6875 3.5 4.6875ZM3.5 1.40625C4.03125 1.40625 4.5 1.84375 4.5 2.34375C4.5 2.875 4.03125 3.28125 3.5 3.28125C2.9375 3.28125 2.5 2.875 2.5 2.34375C2.5 1.84375 2.9375 1.40625 3.5 1.40625ZM13.875 8.65625L11.625 6.6875C11.5625 6.625 11.4688 6.59375 11.375 6.59375C11.3125 6.59375 11.25 6.59375 11.2188 6.59375C11.0938 6.65625 11 6.78125 11 6.9375V7.96875H7V6.9375C6.96875 6.78125 6.875 6.65625 6.75 6.59375C6.71875 6.59375 6.65625 6.59375 6.625 6.59375C6.5 6.59375 6.40625 6.625 6.34375 6.6875L4.09375 8.65625C4.03125 8.71875 3.96875 8.8125 3.96875 8.9375C3.96875 9.03125 4.03125 9.125 4.09375 9.1875L6.34375 11.1875C6.40625 11.2188 6.5 11.2812 6.59375 11.2812C6.65625 11.2812 6.71875 11.25 6.75 11.25C6.875 11.1875 6.96875 11.0625 7 10.9062V9.84375H11V10.9062C11 11.0625 11.0938 11.1875 11.2188 11.25C11.25 11.25 11.3125 11.2812 11.3438 11.2812C11.4688 11.2812 11.5625 11.2188 11.625 11.1875L13.875 9.1875C13.9375 9.125 13.9688 9.03125 13.9688 8.9375C13.9688 8.8125 13.9375 8.71875 13.875 8.65625Z" fill="#5B5C5B"/>
</svg>
