<svg width="17" height="16" viewBox="0 0 17 16" fill="none" xmlns="http://www.w3.org/2000/svg">
<path fill-rule="evenodd" clip-rule="evenodd" d="M8.2907 0C3.98634 0 0.5 3.58 0.5 8C0.5 12.42 3.98634 16 8.2907 16C12.5951 16 16.0814 12.42 16.0814 8C16.0814 3.58 12.5951 0 8.2907 0ZM8.29048 2.39996C9.57984 2.39996 10.6277 3.47596 10.6277 4.79996C10.6277 6.12796 9.57984 7.19996 8.29048 7.19996C7.00112 7.19996 5.95327 6.12796 5.95327 4.79996C5.95327 3.47596 7.00112 2.39996 8.29048 2.39996ZM3.61621 11.184C4.6251 12.736 6.33906 13.76 8.29063 13.76C10.2422 13.76 11.9562 12.736 12.965 11.184C12.9417 9.59597 9.84487 8.71997 8.29063 8.71997C6.73638 8.71997 3.63568 9.59597 3.61621 11.184Z" fill="#5B5C5B"/>
</svg>
