<svg width="39" height="39" viewBox="0 0 39 39" fill="none" xmlns="http://www.w3.org/2000/svg">
<path d="M29.6074 26.3115C28.582 26.0918 27.7031 26.8242 27.7031 27.8496C27.7031 28.6553 28.2891 29.3877 29.0947 29.4609C32.2441 29.9004 34.7344 30.6328 34.7344 31.8047C34.7344 34.1484 25.1396 34.7344 19.5 34.7344C13.7871 34.7344 4.26562 34.1484 4.26562 31.8047C4.26562 30.6328 6.97559 29.9004 9.83203 29.4609C10.6377 29.3877 11.2969 28.6553 11.2969 27.8496C11.2969 26.8242 10.3447 26.0918 9.39258 26.3115C5.29102 27.0439 0.75 28.6553 0.75 31.8047C0.75 36.9316 12.4688 38.25 19.5 38.25C26.458 38.25 38.25 36.9316 38.25 31.8047C38.25 28.875 34.2949 27.1904 29.6074 26.3115ZM14.2266 23.6016L14.7393 29.6807C14.8125 31.2188 16.0576 32.3906 17.5957 32.3906H21.2578C22.7959 32.3906 24.041 31.2188 24.1875 29.6807L24.627 23.6016H24.7734C26.3848 23.6016 27.7031 22.3564 27.7031 20.6719V17.1562C27.7031 14.1533 25.5059 11.5898 22.6494 10.9307C24.1143 9.90527 25.0664 8.2207 25.0664 6.31641C25.0664 3.31348 22.5029 0.75 19.5 0.75C16.4238 0.75 13.9336 3.31348 13.9336 6.31641C13.9336 8.2207 14.8125 9.90527 16.2773 10.9307C13.4209 11.5898 11.2969 14.1533 11.2969 17.1562V20.6719C11.2969 22.3564 12.542 23.6016 14.2266 23.6016ZM19.5 4.26562C20.5986 4.26562 21.5508 5.21777 21.5508 6.31641C21.5508 7.48828 20.5986 8.36719 19.5 8.36719C18.3281 8.36719 17.4492 7.48828 17.4492 6.31641C17.4492 5.21777 18.3281 4.26562 19.5 4.26562ZM14.8125 17.1562C14.8125 15.5449 16.0576 14.2266 17.7422 14.2266H21.2578C22.8691 14.2266 24.1875 15.5449 24.1875 17.1562V20.0859H23.0156C22.0635 20.0859 21.2578 20.8184 21.2578 21.7705L20.7451 28.875H18.1816L17.7422 21.7705C17.6689 20.8184 16.8633 20.0859 15.9844 20.0859H14.8125V17.1562Z" fill="#002F87"/>
</svg>
