<svg width="18" height="17" viewBox="0 0 18 17" fill="none" xmlns="http://www.w3.org/2000/svg">
<path d="M8 6.58594V8.33594H6.25C6.09375 8.33594 6 8.46094 6 8.58594V10.0859C6 10.2422 6.09375 10.3359 6.25 10.3359H8V12.0859C8 12.2422 8.09375 12.3359 8.25 12.3359H9.75C9.875 12.3359 10 12.2422 10 12.0859V10.3359H11.75C11.875 10.3359 12 10.2422 12 10.0859V8.58594C12 8.46094 11.875 8.33594 11.75 8.33594H10V6.58594C10 6.46094 9.875 6.33594 9.75 6.33594H8.25C8.09375 6.33594 8 6.46094 8 6.58594ZM17.8125 7.08594L10.0938 0.742188C9.8125 0.492188 9.40625 0.367188 9 0.367188C8.5625 0.367188 8.15625 0.492188 7.875 0.742188L0.15625 7.08594C0.0625 7.17969 0 7.30469 0 7.46094C0 7.58594 0.03125 7.71094 0.09375 7.77344L0.4375 8.17969C0.5 8.27344 0.65625 8.33594 0.8125 8.33594C0.9375 8.33594 1.03125 8.30469 1.125 8.24219L2 7.52344V9.33594H1.96875V15.8359C1.96875 16.1172 2.1875 16.3359 2.46875 16.3359H15.5C15.75 16.3359 16 16.1172 16 15.8359V7.52344L16.8438 8.24219C16.9375 8.30469 17.0312 8.36719 17.1562 8.36719C17.3125 8.36719 17.4688 8.27344 17.5625 8.17969L17.875 7.77344C17.9375 7.71094 18 7.58594 18 7.46094C18 7.30469 17.9062 7.17969 17.8125 7.08594ZM14.5 7.33594H14.4688V14.8359H3.46875V6.42969H3.5V6.30469L9 1.77344L14.5 6.30469V7.33594Z" fill="#999999"/>
</svg>
