<svg width="16" height="15" viewBox="0 0 16 15" fill="none" xmlns="http://www.w3.org/2000/svg">
<path d="M11.5625 5.27246L14.8438 11.0225C14.9375 11.1787 15 11.335 15 11.5225V13.2412C15 13.8037 14.5312 14.2412 14 14.2412H2C1.4375 14.2412 1 13.8037 1 13.2412V11.5225C1 11.335 1.03125 11.1787 1.125 11.0225L4.40625 5.27246C4.75 4.64746 5.4375 4.24121 6.15625 4.24121H9.8125C10.5312 4.24121 11.1875 4.64746 11.5625 5.27246ZM13.5 12.7412V11.6475L10.25 5.99121C10.1562 5.86621 10 5.74121 9.8125 5.74121H6.15625C5.96875 5.74121 5.8125 5.86621 5.71875 5.99121L2.5 11.6475V12.7412H13.5ZM8 7.24121C9.09375 7.24121 10 8.14746 10 9.24121C10 10.3662 9.09375 11.2412 8 11.2412C6.875 11.2412 6 10.3662 6 9.24121C6 8.14746 6.875 7.24121 8 7.24121ZM15.8125 3.08496C15.9062 3.20996 16 3.33496 16 3.49121V5.24121C16 5.52246 15.75 5.74121 15.5 5.74121H13.2812C13.0938 5.74121 12.9375 5.64746 12.8438 5.49121L12 3.24121C10.75 2.70996 9.375 2.49121 8 2.49121C6.59375 2.49121 5.21875 2.70996 4 3.24121L3.125 5.49121C3.03125 5.64746 2.875 5.74121 2.6875 5.74121H0.5C0.21875 5.74121 0 5.52246 0 5.24121V3.49121C0 3.33496 0.0625 3.20996 0.15625 3.08496C2.34375 1.27246 5.125 0.241211 8 0.241211C10.8438 0.241211 13.625 1.27246 15.8125 3.08496Z" fill="#757575"/>
</svg>
