<svg width="21" height="21" viewBox="0 0 21 21" fill="none" xmlns="http://www.w3.org/2000/svg">
<path d="M18.75 13.0391L14.9219 11.3984C14.0625 11.0078 13.0859 11.2812 12.5 11.9844L11.4453 13.2734C9.6875 12.2578 8.24219 10.8125 7.22656 9.09375L8.55469 8.03906C9.21875 7.45312 9.49219 6.47656 9.14062 5.65625L7.46094 1.75C7.07031 0.851562 6.09375 0.34375 5.11719 0.578125L1.5625 1.39844C0.625 1.59375 0 2.41406 0 3.39062C0 12.8438 7.65625 20.5 17.1094 20.5C18.0859 20.5 18.9062 19.875 19.0625 18.9375L19.8828 15.3828C20.1562 14.4062 19.6484 13.4297 18.75 13.0391ZM18.0859 14.9531L17.2656 18.5078C17.2656 18.5469 17.1875 18.625 17.1094 18.625C8.71094 18.625 1.83594 11.7891 1.83594 3.39062C1.83594 3.3125 1.91406 3.23438 1.99219 3.23438L5.54688 2.41406L5.58594 2.375C5.66406 2.375 5.70312 2.45312 5.74219 2.49219L7.38281 6.32031C7.42188 6.39844 7.42188 6.47656 7.34375 6.51562L5.42969 8.07812C5.11719 8.35156 5 8.82031 5.19531 9.21094C6.48438 11.8281 8.63281 13.9766 11.25 15.2656C11.6406 15.4609 12.1484 15.3828 12.4219 15.0312L13.9844 13.1172C14.0234 13.0781 14.1016 13.0391 14.1797 13.0781L18.0078 14.7188C18.0859 14.7969 18.125 14.875 18.0859 14.9531Z" fill="black"/>
</svg>
