<svg width="17" height="15" viewBox="0 0 17 15" fill="none" xmlns="http://www.w3.org/2000/svg">
<path d="M12.0493 5.53125C11.7368 4.96875 10.9556 4.5 10.2993 4.5H6.64307C5.98682 4.5 5.20557 4.96875 4.89307 5.53125L1.61182 11.2812C1.51807 11.4062 1.48682 11.625 1.48682 11.7812V13.5C1.48682 14.0625 1.92432 14.5 2.48682 14.5H14.4868C15.0181 14.5 15.4868 14.0625 15.4868 13.5V11.7812C15.4868 11.625 15.4243 11.4062 15.3306 11.2812L12.0493 5.53125ZM8.48682 11.5C7.23682 11.5 6.23682 10.5 6.23682 9.25C6.23682 8.03125 7.23682 7 8.48682 7C9.70557 7 10.7368 8.03125 10.7368 9.25C10.7368 10.5 9.70557 11.5 8.48682 11.5ZM16.2993 3.34375C14.1118 1.53125 11.3306 0.5 8.48682 0.5C5.61182 0.5 2.83057 1.53125 0.643066 3.34375C0.549316 3.4375 0.486816 3.625 0.486816 3.75V5.5C0.486816 5.78125 0.705566 6 0.986816 6H3.17432C3.33057 6 3.51807 5.90625 3.61182 5.75L4.48682 3.5C5.70557 2.96875 7.08057 2.75 8.48682 2.75C9.86182 2.75 11.2368 2.96875 12.4868 3.5L13.3306 5.75C13.4243 5.90625 13.6118 6 13.7681 6H15.9868C16.2368 6 16.4868 5.78125 16.4868 5.5V3.75C16.4868 3.625 16.3931 3.4375 16.2993 3.34375Z" fill="#5B5C5B"/>
</svg>
