<svg width="17" height="17" viewBox="0 0 17 17" fill="none" xmlns="http://www.w3.org/2000/svg">
<path d="M15.4197 1.27796L12.1697 0.527957C11.826 0.434207 11.451 0.621707 11.2947 0.965457L9.79473 4.46546C9.66973 4.77796 9.76348 5.12171 10.0135 5.34046L11.9197 6.90296C10.7947 9.27796 8.82598 11.278 6.38849 12.4342L4.82599 10.528C4.60724 10.278 4.26349 10.1842 3.95099 10.3092L0.450985 11.8092C0.107235 11.9655 -0.0490146 12.3405 0.0134854 12.6842L0.763485 15.9342C0.857235 16.278 1.13849 16.4967 1.51349 16.4967C9.51348 16.4967 16.0135 10.028 16.0135 1.99671C16.0135 1.65296 15.7635 1.37171 15.4197 1.27796Z" fill="#065394"/>
</svg>
