<svg width="17" height="15" viewBox="0 0 17 15" fill="none" xmlns="http://www.w3.org/2000/svg">
<path d="M12.5625 5.68359C12.2188 5.05859 11.5625 4.65234 10.8125 4.65234H7.15625C6.40625 4.65234 5.75 5.05859 5.40625 5.68359L2.125 11.4336C2.03125 11.5898 2 11.7461 2 11.9336V13.6523C2 14.2148 2.4375 14.6523 3 14.6523H15C15.5312 14.6523 16 14.2148 16 13.6523V11.9336C15.9688 11.7461 15.9375 11.5898 15.8438 11.4336L12.5625 5.68359ZM14.5 13.1523H3.5V12.0586L6.71875 6.43359C6.8125 6.27734 6.96875 6.15234 7.15625 6.15234H10.8125C11 6.15234 11.1562 6.27734 11.25 6.43359L14.5 12.0586V13.1523ZM9 7.65234C7.875 7.65234 7 8.55859 7 9.65234C7 10.7773 7.875 11.6523 9 11.6523C10.0938 11.6523 11 10.7773 11 9.65234C11 8.55859 10.0938 7.65234 9 7.65234ZM16.8125 3.49609C14.625 1.68359 11.8438 0.652344 9 0.652344C6.125 0.652344 3.34375 1.68359 1.15625 3.49609C1.0625 3.62109 0.96875 3.74609 0.96875 3.90234H1V5.65234C1 5.93359 1.21875 6.15234 1.5 6.15234H3.6875C3.875 6.15234 4.03125 6.05859 4.125 5.90234L5 3.65234C6.21875 3.12109 7.59375 2.90234 9 2.90234C10.375 2.90234 11.75 3.12109 13 3.65234L13.8438 5.90234C13.9375 6.05859 14.0938 6.15234 14.2812 6.15234H16.5C16.75 6.15234 17 5.93359 17 5.65234V3.90234C17 3.74609 16.9062 3.62109 16.8125 3.49609Z" fill="#999999"/>
</svg>
