<svg width="26" height="26" viewBox="0 0 26 26" fill="none" xmlns="http://www.w3.org/2000/svg">
<path d="M25.4688 11.6562H14.8438V1.03125C14.8438 0.765625 14.5781 0.5 14.3125 0.5H12.1875C11.8555 0.5 11.6562 0.765625 11.6562 1.03125V11.6562H1.03125C0.699219 11.6562 0.5 11.9219 0.5 12.1875V14.3125C0.5 14.6445 0.699219 14.8438 1.03125 14.8438H11.6562V25.4688C11.6562 25.8008 11.8555 26 12.1875 26H14.3125C14.5781 26 14.8438 25.8008 14.8438 25.4688V14.8438H25.4688C25.7344 14.8438 26 14.6445 26 14.3125V12.1875C26 11.9219 25.7344 11.6562 25.4688 11.6562Z" fill="white"/>
</svg>
