<svg width="26" height="22" viewBox="0 0 26 22" fill="none" xmlns="http://www.w3.org/2000/svg">
<path d="M3.10645 17.875V17.0625C3.10645 16.6375 3.30644 16.2375 3.61894 16.05C5.73144 14.7875 8.14394 14.125 10.6064 14.125C10.6439 14.125 10.6689 14.125 10.7064 14.1375C10.8314 13.2625 11.0814 12.425 11.4439 11.6625C11.1689 11.6375 10.8939 11.625 10.6064 11.625C7.58144 11.625 4.75644 12.4625 2.34395 13.9C1.24395 14.55 0.606445 15.775 0.606445 17.0625V20.375H12.1814C11.6564 19.625 11.2439 18.775 10.9689 17.875H3.10645Z" fill="white"/>
<path d="M10.6064 10.375C13.3689 10.375 15.6064 8.1375 15.6064 5.375C15.6064 2.6125 13.3689 0.375 10.6064 0.375C7.84394 0.375 5.60644 2.6125 5.60644 5.375C5.60644 8.1375 7.84394 10.375 10.6064 10.375ZM10.6064 2.875C11.9814 2.875 13.1064 4 13.1064 5.375C13.1064 6.75 11.9814 7.875 10.6064 7.875C9.23144 7.875 8.10644 6.75 8.10644 5.375C8.10644 4 9.23144 2.875 10.6064 2.875Z" fill="white"/>
<path d="M24.0439 15.375C24.0439 15.1 24.0064 14.85 23.9689 14.5875L25.3939 13.325L24.1439 11.1625L22.3314 11.775C21.9314 11.4375 21.4814 11.175 20.9814 10.9875L20.6064 9.125H18.1064L17.7314 10.9875C17.2314 11.175 16.7814 11.4375 16.3814 11.775L14.5689 11.1625L13.3189 13.325L14.7439 14.5875C14.7064 14.85 14.6689 15.1 14.6689 15.375C14.6689 15.65 14.7064 15.9 14.7439 16.1625L13.3189 17.425L14.5689 19.5875L16.3814 18.975C16.7814 19.3125 17.2314 19.575 17.7314 19.7625L18.1064 21.625H20.6064L20.9814 19.7625C21.4814 19.575 21.9314 19.3125 22.3314 18.975L24.1439 19.5875L25.3939 17.425L23.9689 16.1625C24.0064 15.9 24.0439 15.65 24.0439 15.375ZM19.3564 17.875C17.9814 17.875 16.8564 16.75 16.8564 15.375C16.8564 14 17.9814 12.875 19.3564 12.875C20.7314 12.875 21.8564 14 21.8564 15.375C21.8564 16.75 20.7314 17.875 19.3564 17.875Z" fill="white"/>
</svg>
