<svg width="12" height="13" viewBox="0 0 12 13" fill="none" xmlns="http://www.w3.org/2000/svg">
<path d="M11.8125 6.5C11.8125 3.3125 9.1875 0.6875 6 0.6875C2.78906 0.6875 0.1875 3.3125 0.1875 6.5C0.1875 9.71094 2.78906 12.3125 6 12.3125C9.1875 12.3125 11.8125 9.71094 11.8125 6.5ZM6.14062 2.60938C7.47656 2.60938 8.88281 3.64062 8.88281 5C8.88281 6.82812 6.9375 6.85156 6.9375 7.50781V7.53125C6.9375 7.69531 6.79688 7.8125 6.65625 7.8125H5.34375C5.17969 7.8125 5.0625 7.69531 5.0625 7.53125V7.4375C5.0625 6.47656 5.78906 6.10156 6.32812 5.79688C6.79688 5.53906 7.10156 5.35156 7.10156 5C7.10156 4.53125 6.49219 4.22656 6.02344 4.22656C5.39062 4.22656 5.10938 4.53125 4.6875 5.07031C4.59375 5.1875 4.40625 5.21094 4.28906 5.11719L3.46875 4.50781C3.35156 4.41406 3.32812 4.25 3.42188 4.10938C4.05469 3.14844 4.875 2.60938 6.14062 2.60938ZM6 8.42188C6.58594 8.42188 7.07812 8.91406 7.07812 9.5C7.07812 10.1094 6.58594 10.5781 6 10.5781C5.39062 10.5781 4.92188 10.1094 4.92188 9.5C4.92188 8.91406 5.39062 8.42188 6 8.42188Z" fill="#055293"/>
</svg>
