<svg width="17" height="16" viewBox="0 0 17 16" fill="none" xmlns="http://www.w3.org/2000/svg">
<path d="M16.0977 8C16.0977 3.75 12.5977 0.25 8.34766 0.25C4.06641 0.25 0.597656 3.75 0.597656 8C0.597656 12.2812 4.06641 15.75 8.34766 15.75C12.5977 15.75 16.0977 12.2812 16.0977 8ZM8.53516 2.8125C10.3164 2.8125 12.1914 4.1875 12.1914 6C12.1914 8.4375 9.59766 8.46875 9.59766 9.34375V9.375C9.59766 9.59375 9.41016 9.75 9.22266 9.75H7.47266C7.25391 9.75 7.09766 9.59375 7.09766 9.375V9.25C7.09766 7.96875 8.06641 7.46875 8.78516 7.0625C9.41016 6.71875 9.81641 6.46875 9.81641 6C9.81641 5.375 9.00391 4.96875 8.37891 4.96875C7.53516 4.96875 7.16016 5.375 6.59766 6.09375C6.47266 6.25 6.22266 6.28125 6.06641 6.15625L4.97266 5.34375C4.81641 5.21875 4.78516 5 4.91016 4.8125C5.75391 3.53125 6.84766 2.8125 8.53516 2.8125ZM8.34766 10.5625C9.12891 10.5625 9.78516 11.2188 9.78516 12C9.78516 12.8125 9.12891 13.4375 8.34766 13.4375C7.53516 13.4375 6.91016 12.8125 6.91016 12C6.91016 11.2188 7.53516 10.5625 8.34766 10.5625Z" fill="#5B5C5B"/>
</svg>
