<svg width="17" height="17" viewBox="0 0 17 17" fill="none" xmlns="http://www.w3.org/2000/svg">
<path d="M11.4688 5.03125C11.8125 5.625 12.2188 6.625 12.3438 7.28125C13.5312 7.8125 14.5 9.25 14.5 10.5312C14.5 12.4375 12.9062 14.0312 11 14.0312C9.0625 14.0312 7.5 12.4375 7.5 10.5312V10.5C7.5 9.1875 8.21875 8.0625 9.3125 7.46875C9.40625 7.8125 9.5 8.15625 9.5 8.5C9.46875 9.28125 9.0625 10.3438 8.53125 10.9062C8.625 11.5312 9.125 12.2812 9.65625 12.625C10.6562 11.7188 11.5 9.875 11.5 8.53125V8.5C11.5 5.96875 9.75 3.8125 7.40625 3.1875L8.5 1L7.5 0H4.5L3.5 1L4.59375 3.1875C2.21875 3.8125 0.5 5.96875 0.5 8.5C0.5 11.5625 2.9375 14 6 14C6.1875 14 6.5 14 6.6875 13.9688C7.625 15.0938 9.53125 16.0312 11 16.0312C14.0312 16.0312 16.5 13.5625 16.5 10.5312V10.5C16.5 7.625 14.2812 5.28125 11.4688 5.03125ZM2.5 8.5C2.5 6.59375 4.0625 5.03125 6 5C6.8125 5 7.59375 5.3125 8.1875 5.8125C6.5625 6.78125 5.5 8.5 5.5 10.5C5.5 10.9375 5.5625 11.5938 5.6875 11.9688C3.90625 11.8438 2.5 10.3438 2.5 8.5Z" fill="#5B5C5B"/>
</svg>
