<svg width="20" height="20" viewBox="0 0 20 20" fill="none" xmlns="http://www.w3.org/2000/svg">
<path d="M10.6354 1.05671L10.6354 1.0566L10.6304 1.05303C10.4596 0.933097 10.2423 0.85 10.0185 0.85C9.76017 0.85 9.54266 0.931121 9.36907 1.05303L9.36893 1.05283L9.36228 1.05808C8.19075 1.9836 6.53513 2.5375 4.72427 2.5375C3.98686 2.5375 3.2486 2.43386 2.58427 2.26108L2.58431 2.2609L2.57707 2.2594C2.18817 2.17848 1.90551 2.3009 1.71819 2.47098C1.54117 2.6317 1.45302 2.83061 1.42659 2.9255C0.723447 5.06361 0.516109 8.21702 1.65492 11.287C2.79663 14.3648 5.28815 17.3495 9.96485 19.1401L10.0186 19.1607L10.0723 19.14C14.7303 17.3494 17.2124 14.3645 18.3493 11.2868C19.4833 8.21688 19.276 5.0635 18.5728 2.9254C18.5453 2.82746 18.4468 2.62109 18.2672 2.45784C18.077 2.28496 17.7911 2.15794 17.4142 2.26133C16.7501 2.43397 16.0122 2.5375 15.2751 2.5375C13.4656 2.5375 11.8462 1.98427 10.6354 1.05671ZM2.7285 3.74126C3.36931 3.86892 4.04544 3.9625 4.72427 3.9625C6.6663 3.9625 8.53878 3.41399 10.0174 2.41315C11.4614 3.41453 13.3342 3.9625 15.2751 3.9625C15.9198 3.9625 16.6274 3.86868 17.2736 3.74064C17.441 4.32182 17.6255 5.28322 17.6399 6.475H2.35954C2.37196 5.50449 2.50435 4.56737 2.7285 3.74126ZM10.0185 17.6419C4.82804 15.444 2.78912 11.4863 2.41161 7.9H17.5904C17.5085 8.82201 17.3239 9.77611 16.974 10.7924C15.7952 13.8603 13.4818 16.1782 10.0185 17.6419Z" fill="#757575" stroke="#757575" stroke-width="0.3"/>
</svg>
