<svg width="78" height="25" viewBox="0 0 78 25" fill="none" xmlns="http://www.w3.org/2000/svg">
<path d="M28.0239 22.3586C26.7751 22.3545 25.5437 22.0648 24.424 21.5116L24.7059 19.2526C25.7128 19.7704 26.8215 20.0596 27.9529 20.0996C29.2939 20.0996 29.8589 19.6056 29.8589 18.8286C29.8589 16.9226 24.424 17.7696 24.424 13.8166C24.424 11.8406 25.6949 10.2166 28.6589 10.2166C29.7971 10.1953 30.9271 10.4116 31.9769 10.8516L31.6239 13.0416C30.712 12.7406 29.761 12.5742 28.8009 12.5476C27.3889 12.5476 26.966 13.0416 26.966 13.6766C26.966 15.5116 32.3309 14.6646 32.3309 18.6176C32.3299 20.9476 30.7769 22.3586 28.0239 22.3586Z" fill="white"/>
<path d="M38.823 21.2286H38.752C38.435 21.5844 38.042 21.8644 37.6022 22.0477C37.1623 22.231 36.6868 22.313 36.211 22.2876C34.376 22.2876 33.246 21.2996 33.246 19.1816C33.246 17.0636 34.517 16.2166 36.634 16.2166C37.2582 16.1903 37.8815 16.2861 38.469 16.4986V15.9336C38.469 14.9456 37.975 14.5216 36.634 14.5216C35.7382 14.5002 34.8481 14.6686 34.022 15.0156L33.81 13.1096C34.8374 12.6757 35.9438 12.4602 37.059 12.4766C39.882 12.4766 40.871 13.6766 40.871 16.2886V22.1466H38.965L38.823 21.2286ZM38.47 18.0526L37.129 17.9116C36 17.9116 35.505 18.2646 35.505 19.1116C35.4934 19.2876 35.5208 19.4641 35.5852 19.6283C35.6496 19.7926 35.7494 19.9406 35.8776 20.0619C36.0057 20.1832 36.159 20.2747 36.3266 20.33C36.4941 20.3852 36.6718 20.4028 36.847 20.3816C37.694 20.3816 38.47 19.8876 38.47 19.2526V18.0526Z" fill="white"/>
<path d="M48.1409 22.1466V16.1466C48.1409 15.0876 47.5759 14.6646 46.5879 14.6646C46.2812 14.648 45.9747 14.7031 45.693 14.8257C45.4112 14.9482 45.162 15.1348 44.9649 15.3706V22.1466H42.5649V12.6886H44.3299L44.6829 13.4646C45.4137 12.8447 46.3359 12.4957 47.2939 12.4766C49.2699 12.4766 50.5409 13.7476 50.5409 16.1476V22.1476L48.1409 22.1466Z" fill="white"/>
<path d="M53.435 11.6296C52.517 11.6296 52.0229 11.4176 52.0229 10.6416C52.0229 9.86558 52.517 9.58258 53.435 9.58258C54.353 9.58258 54.7759 9.93558 54.7759 10.6416C54.7759 11.3476 54.352 11.6296 53.435 11.6296ZM52.1639 22.1466V12.7586L54.6349 12.6176V22.1466H52.1639Z" fill="white"/>
<path d="M59.577 14.5236V19.3236C59.577 20.0296 59.93 20.3826 60.706 20.3826L61.482 20.2416L61.623 22.0066C61.102 22.1935 60.5525 22.2889 59.999 22.2886C59.6112 22.3331 59.2184 22.2883 58.8507 22.1575C58.483 22.0267 58.1501 21.8135 57.8776 21.5341C57.605 21.2547 57.4001 20.9166 57.2785 20.5458C57.1569 20.1749 57.1218 19.7811 57.176 19.3946V14.5246H56.118V12.6886H57.177V10.7826H59.577V12.7586H61.695V14.5936L59.577 14.5236Z" fill="white"/>
<path d="M67.9759 21.2286H67.9049C67.588 21.5844 67.195 21.8644 66.7551 22.0477C66.3153 22.231 65.8398 22.313 65.3639 22.2876C63.5289 22.2876 62.3989 21.2996 62.3989 19.1816C62.3989 17.0636 63.6699 16.2166 65.7869 16.2166C66.4111 16.1903 67.0344 16.2861 67.6219 16.4986V15.9336C67.6219 14.9456 67.1279 14.5216 65.7869 14.5216C64.8912 14.5002 64.001 14.6686 63.1749 15.0156L62.9629 13.1096C63.9904 12.6757 65.0968 12.4602 66.2119 12.4766C69.0349 12.4766 70.0239 13.6766 70.0239 16.2886V22.1466H68.1179L67.9759 21.2286ZM67.6229 18.0526L66.2819 17.9116C65.1529 17.9116 64.6589 18.2646 64.6589 19.1116C64.6474 19.2875 64.6747 19.4639 64.7391 19.6281C64.8034 19.7922 64.9032 19.9402 65.0312 20.0615C65.1592 20.1827 65.3124 20.2743 65.4799 20.3296C65.6473 20.3849 65.8249 20.4027 65.9999 20.3816C66.8469 20.3816 67.6229 19.8876 67.6229 19.2526V18.0526Z" fill="white"/>
<path d="M74.3989 22.3586C73.368 22.3673 72.3504 22.125 71.434 21.6526L71.646 19.6766C72.5035 20.0945 73.445 20.3117 74.3989 20.3116C75.3169 20.3116 75.74 19.9586 75.74 19.3936C75.74 18.8286 71.364 18.7586 71.364 15.4406C71.364 13.7466 72.493 12.5466 74.964 12.5466C75.8823 12.5258 76.7952 12.6939 77.646 13.0406L77.434 15.0166C76.6266 14.6901 75.7638 14.5224 74.893 14.5226C74.117 14.5226 73.6929 14.8756 73.6929 15.2986C73.6929 16.7806 77.999 15.9336 77.999 19.1806C77.999 21.0876 76.9399 22.3586 74.3989 22.3586Z" fill="white"/>
<path d="M16.0299 3.85753C16.0136 6.53756 15.1228 9.13907 13.4929 11.2666C13.0342 11.9352 12.3454 12.4115 11.5579 12.6046C8.83392 13.3686 6.12292 14.1776 3.40692 14.9696C3.31892 14.9956 3.22993 15.0186 3.14093 15.0386C2.70093 15.1386 2.6179 15.0605 2.7709 14.6535C3.7649 12.0095 4.55391 9.28755 5.78091 6.73155C6.51425 4.99417 7.57407 3.41361 8.90292 2.07554C9.88708 1.05666 11.1502 0.351191 12.5339 0.0475892C13.1409 -0.0673369 13.7689 0.0273281 14.315 0.316022C14.8612 0.604716 15.293 1.07031 15.5399 1.63658C15.8609 2.33311 16.028 3.09059 16.0299 3.85753Z" fill="white"/>
<path d="M17.278 23.2246C15.2499 23.1429 13.28 22.5238 11.5699 21.4306C8.79495 19.8416 6.20095 17.9706 3.49295 16.2766C3.21595 16.1036 3.27796 16.0006 3.52396 15.8856C4.06117 15.6653 4.61445 15.4864 5.17896 15.3505C7.74496 14.5992 10.3116 13.8522 12.879 13.1096C13.2288 12.9926 13.6072 12.9926 13.957 13.1096C15.709 13.6723 17.3244 14.5943 18.7 15.8166C19.6617 16.6771 20.4142 17.746 20.9 18.9416C21.769 21.1916 20.694 22.9186 18.287 23.1746C17.951 23.2066 17.614 23.2076 17.278 23.2246Z" fill="white"/>
<path d="M1.78498 14.9776C1.60242 14.7567 1.47338 14.4966 1.40797 14.2176C0.436275 11.8671 -0.0403089 9.34159 0.00797257 6.79864C0.0278437 6.29364 0.157892 5.79912 0.388985 5.34967C0.454132 5.18856 0.554566 5.04408 0.68293 4.92694C0.811294 4.80979 0.964305 4.72297 1.13068 4.67279C1.29706 4.6226 1.4726 4.61039 1.64433 4.63702C1.81605 4.66365 1.9796 4.72838 2.12296 4.8266C2.84696 5.2266 3.21096 5.96661 3.75196 6.53961C4.07971 6.85428 4.28863 7.27264 4.3433 7.72369C4.39797 8.17474 4.29505 8.63072 4.05198 9.01458C3.26298 10.7966 2.68597 12.6726 2.01997 14.5146C1.9904 14.6892 1.90846 14.8507 1.78498 14.9776Z" fill="white"/>
<path d="M8.56991 20.8646C8.46991 21.6206 8.58493 22.3917 8.44693 23.1477C8.34693 23.7067 8.28291 24.3246 7.67791 24.5676C7.07291 24.8106 6.62291 24.4046 6.18991 24.0676C5.2846 23.2638 4.56262 22.2748 4.0729 21.1676C3.45409 19.9051 2.94166 18.5932 2.54092 17.2456C2.51095 17.159 2.49015 17.0695 2.47891 16.9786C2.46591 16.8586 2.42891 16.7046 2.52691 16.6286C2.64591 16.5376 2.75293 16.6747 2.84793 16.7367C4.66493 17.9227 6.47792 19.1166 8.29892 20.2956C8.40072 20.3471 8.48257 20.4308 8.53161 20.5338C8.58066 20.6368 8.59413 20.7531 8.56991 20.8646Z" fill="white"/>
</svg>
