<svg width="210" height="65" viewBox="0 0 210 65" fill="none" xmlns="http://www.w3.org/2000/svg">
<path d="M41.7751 8.91497C41.2081 3.22597 38.1421 0.146973 33.9461 0.146973C31.64 0.237654 29.4014 0.950121 27.4671 2.20897C22.7314 5.18633 18.9183 9.42359 16.4551 14.446C15.1261 16.956 14.3271 18.678 13.0231 21.596C13.4231 22.184 13.7671 22.702 14.0501 23.103C15.5701 25.265 21.6921 35.99 21.6921 35.99L11.8191 38.961C18.4131 37.025 24.4891 35.307 31.3821 33.261C32.2373 33.0779 33.0241 32.6587 33.6531 32.051C39.0461 25.292 42.6551 17.766 41.7751 8.91497Z" fill="url(#paint0_linear_430_6569)"/>
<path d="M14.05 23.105C13.767 22.705 13.418 22.186 13.023 21.598C12.953 21.757 12.882 21.914 12.808 22.078C12.216 23.407 6.23096 40.273 6.23096 40.273L7.33997 40.288L7.36696 40.283C8.88596 39.829 10.367 39.392 11.819 38.964L21.692 35.993C21.692 35.993 15.569 25.265 14.05 23.105Z" fill="#457ABC"/>
<path d="M7.88391 40.146L11.8199 38.962C10.3659 39.39 8.88692 39.827 7.36792 40.281C7.53592 40.244 7.70791 40.2 7.88391 40.146Z" fill="#457ABC"/>
<path d="M12.808 22.076C12.882 21.912 12.952 21.755 13.023 21.596C11.295 19.025 8.68602 15.096 6.91302 13.426C4.42502 11.084 1.18302 11.205 0.19902 16.316C0.101308 16.7844 0.0414477 17.2599 0.0200192 17.738C-0.186981 25.321 1.29802 31.304 4.26102 38.938C4.50676 39.5119 4.96182 39.9709 5.53372 40.2214C6.10562 40.472 6.75147 40.4954 7.34003 40.287L6.23102 40.272C6.23102 40.272 12.216 23.405 12.808 22.076Z" fill="#6190CB"/>
<path d="M53.702 48.667C49.864 41.114 43.102 36.928 35.309 34.279C35.0725 34.2033 34.8253 34.1668 34.577 34.171C33.9958 34.1935 33.4202 34.2944 32.866 34.471C27.582 35.992 22.021 37.661 22.021 37.661C22.021 37.661 22.463 48.561 22.448 50.3C22.448 50.742 22.448 51.478 22.457 52.373C25.148 54.151 28.208 55.907 30.549 57.232C35.1039 59.9968 40.3388 61.4383 45.667 61.395C53.739 61.168 57.319 55.791 53.702 48.667Z" fill="url(#paint1_linear_430_6569)"/>
<path d="M22.4469 50.301C22.4619 48.559 22.0199 37.662 22.0199 37.662L17.0279 39.083C14.2739 39.883 11.5176 40.6803 8.75891 41.475L7.0979 42.338C7.0979 42.338 18.4039 49.652 21.9639 52.052C22.1249 52.159 22.2919 52.267 22.4549 52.374C22.4509 51.479 22.4429 50.743 22.4469 50.301Z" fill="#5DA473"/>
<path d="M7.09892 42.338L8.75992 41.475C11.5189 40.686 8.17693 41.6 8.17693 41.6C6.79393 42.133 5.99692 42.877 6.27692 44.439C8.26092 50.475 10.2419 56.409 14.5359 61.656C14.8128 61.9824 15.1158 62.2857 15.4419 62.563C18.9309 65.637 21.2419 65.573 22.1029 61.021C22.429 58.1509 22.5473 55.2611 22.4569 52.374C22.2949 52.267 22.1279 52.159 21.9659 52.052C18.4039 49.652 7.09892 42.338 7.09892 42.338Z" fill="#7CBC98"/>
<path d="M75.3921 59.09C71.9948 59.119 68.6429 58.3098 65.6331 56.734L66.5581 50.634C69.2361 52.1231 72.244 52.9189 75.3081 52.949C78.7571 52.949 80.2721 51.686 80.2721 49.499C80.2721 44.535 65.7591 46.639 65.7591 36.08C65.7591 30.736 69.2081 26.404 77.2011 26.404C80.2218 26.4011 83.2169 26.9575 86.0351 28.045L85.1511 34.018C82.6973 33.1819 80.1297 32.728 77.5381 32.672C73.6241 32.672 72.5731 34.018 72.5731 35.701C72.5731 40.622 87.0861 38.351 87.0861 49.036C87.0871 55.261 82.7541 59.09 75.3921 59.09Z" fill="#999999"/>
<path d="M104.468 56.061L104.342 56.019C103.477 56.981 102.409 57.7398 101.216 58.2411C100.024 58.7425 98.7347 58.9739 97.442 58.919C92.604 58.919 89.533 56.185 89.533 50.464C89.533 45.753 92.815 42.513 98.62 42.513C100.273 42.5037 101.918 42.7447 103.499 43.228V41.756C103.499 39.19 102.153 38.012 98.662 38.012C96.2473 37.9595 93.8502 38.4331 91.637 39.4L91.089 34.184C93.8609 33.0341 96.8382 32.4614 99.839 32.501C107.369 32.501 109.978 35.741 109.978 42.724V58.499H104.972L104.468 56.061ZM103.499 47.561C102.335 47.1656 101.111 46.98 99.882 47.013C96.982 47.013 95.633 48.15 95.633 50.379C95.633 52.86 97.105 53.744 99.25 53.744C101.48 53.744 103.498 52.398 103.498 50.757L103.499 47.561Z" fill="#999999"/>
<path d="M129.504 58.501V42.262C129.504 39.444 128.073 38.308 125.381 38.308C124.567 38.2896 123.759 38.4539 123.016 38.7887C122.274 39.1236 121.615 39.6205 121.09 40.243V58.501H114.528V33.133L119.239 32.838L120.207 35.026C122.168 33.3648 124.663 32.4681 127.232 32.501C132.617 32.501 136.025 35.909 136.025 42.261V58.5L129.504 58.501Z" fill="#999999"/>
<path d="M143.856 30.27C141.331 30.27 140.112 29.555 140.112 27.495C140.112 25.686 141.332 24.676 143.856 24.676C146.421 24.676 147.556 25.643 147.556 27.495C147.556 29.347 146.422 30.27 143.856 30.27ZM140.486 58.501V33.176L147.174 32.881V58.501H140.486Z" fill="#999999"/>
<path d="M160.433 37.887V50.928C160.433 52.905 161.443 53.746 163.462 53.746C164.146 53.7462 164.826 53.6471 165.482 53.452L165.86 58.206C164.457 58.7061 162.974 58.9483 161.485 58.921C156.395 58.921 153.913 55.976 153.913 51.138V37.887H151.053V33.008H153.937V27.876L160.437 27.731V33.008H166.117V37.887H160.433Z" fill="#999999"/>
<path d="M182.987 56.061L182.861 56.019C181.996 56.981 180.928 57.7398 179.736 58.2411C178.543 58.7425 177.254 58.9739 175.961 58.919C171.123 58.919 168.052 56.185 168.052 50.464C168.052 45.753 171.334 42.513 177.139 42.513C178.792 42.5037 180.437 42.7447 182.018 43.228V41.756C182.018 39.19 180.672 38.012 177.181 38.012C174.766 37.9595 172.369 38.4331 170.156 39.4L169.608 34.184C172.38 33.0341 175.357 32.4614 178.358 32.501C185.888 32.501 188.497 35.741 188.497 42.724V58.499H183.491L182.987 56.061ZM182.018 47.561C180.854 47.1656 179.63 46.98 178.401 47.013C175.501 47.013 174.152 48.15 174.152 50.379C174.152 52.86 175.624 53.744 177.769 53.744C179.999 53.744 182.017 52.398 182.017 50.757L182.018 47.561Z" fill="#999999"/>
<path d="M200.282 59.005C197.512 59.0864 194.766 58.4796 192.288 57.239L192.962 51.854C195.208 53.033 197.704 53.6535 200.24 53.663C202.848 53.663 203.94 52.611 203.94 51.096C203.94 47.015 192.119 49.371 192.119 40.453C192.119 35.868 195.232 32.587 201.795 32.587C204.274 32.5798 206.73 33.0511 209.03 33.975L208.483 39.318C206.307 38.4809 203.999 38.0406 201.668 38.018C199.523 38.018 198.345 38.86 198.345 40.163C198.345 44.034 209.997 41.72 209.997 50.513C210 55.598 207.181 59.005 200.282 59.005Z" fill="#999999"/>
<defs>
<linearGradient id="paint0_linear_430_6569" x1="34.4152" y1="-13125.4" x2="11.7921" y2="-13162.8" gradientUnits="userSpaceOnUse">
<stop stop-color="#64ABC8"/>
<stop offset="0.391" stop-color="#63A8C6"/>
<stop offset="0.595" stop-color="#61A0C1"/>
<stop offset="0.755" stop-color="#5E93B8"/>
<stop offset="0.891" stop-color="#5A80AB"/>
<stop offset="0.939" stop-color="#5878A6"/>
</linearGradient>
<linearGradient id="paint1_linear_430_6569" x1="33.9671" y1="-13180.3" x2="39.6287" y2="-13157.4" gradientUnits="userSpaceOnUse">
<stop stop-color="#9CC34D"/>
<stop offset="0.383" stop-color="#A2C64D"/>
<stop offset="0.678" stop-color="#8FB64C"/>
<stop offset="1" stop-color="#76A14C"/>
</linearGradient>
</defs>
</svg>
