<svg width="16" height="13" viewBox="0 0 16 13" fill="none" xmlns="http://www.w3.org/2000/svg">
<path d="M8.75 3.0625V2H9.25C9.65625 2 10 1.6875 10 1.25C10 0.84375 9.65625 0.5 9.25 0.5H6.71875C6.3125 0.5 6 0.84375 6 1.25C6 1.625 6.3125 2 6.71875 2H7.25V3.0625C3.71875 3.4375 1 6.40625 1 10H15C15 6.40625 12.25 3.4375 8.75 3.0625ZM15.25 11H0.75C0.3125 11 0 11.3438 0 11.75C0 12.1875 0.3125 12.5 0.71875 12.5H15.2188C15.625 12.5 15.9688 12.1875 15.9688 11.7812C16 11.3438 15.6562 11 15.25 11Z" fill="#065394"/>
</svg>
