<svg width="20" height="17" viewBox="0 0 20 17" fill="none" xmlns="http://www.w3.org/2000/svg">
<path d="M7.75 12.3701C8.15625 12.3701 8.5 12.7139 8.5 13.1201C8.5 13.5576 8.15625 13.8701 7.75 13.8701H6.25V15.3701C6.25 15.8076 5.90625 16.1201 5.5 16.1201C5.0625 16.1201 4.75 15.8076 4.75 15.3701V13.8701H3.25C2.8125 13.8701 2.5 13.5576 2.5 13.1201C2.5 12.7139 2.8125 12.3701 3.25 12.3701H4.75V11.0889C2.0625 10.7139 0 8.43262 0 5.62012C0 2.58887 2.4375 0.120117 5.5 0.120117C8.53125 0.120117 11 2.58887 11 5.62012C11 8.40137 8.90625 10.7139 6.25 11.0889V12.3701H7.75ZM5.5 9.62012C7.6875 9.62012 9.5 7.83887 9.5 5.62012C9.5 3.43262 7.6875 1.62012 5.5 1.62012C3.28125 1.62012 1.5 3.43262 1.5 5.62012C1.5 7.83887 3.28125 9.62012 5.5 9.62012ZM19.25 0.120117C19.6562 0.120117 20 0.463867 20 0.870117V4.37012C20 4.80762 19.6562 5.12012 19.25 5.12012C18.8125 5.12012 18.5 4.80762 18.5 4.37012V2.68262L16.8438 4.33887C18.5 6.49512 18.3438 9.55762 16.375 11.5264C15.3125 12.5889 13.9062 13.1201 12.5 13.1201C11.0625 13.1201 9.65625 12.5889 8.59375 11.5264C8.5625 11.4951 8.53125 11.4326 8.5 11.4014C8.9375 11.1514 9.375 10.8701 9.75 10.5264C10.5 11.2451 11.4688 11.6201 12.5 11.6201C13.5625 11.6201 14.5625 11.2139 15.3125 10.4639C16.875 8.90137 16.875 6.37012 15.3125 4.80762C14.5625 4.05762 13.5625 3.62012 12.5 3.62012C12.2188 3.62012 11.9375 3.65137 11.6875 3.71387C11.5312 3.21387 11.3438 2.77637 11.0938 2.33887C11.5312 2.21387 12 2.15137 12.4688 2.15137C13.6562 2.15137 14.8125 2.52637 15.7812 3.27637L17.4375 1.62012H15.75C15.3125 1.62012 15 1.30762 15 0.870117C15 0.463867 15.3125 0.120117 15.75 0.120117H19.25Z" fill="#757575"/>
</svg>
