<svg width="18" height="19" viewBox="0 0 18 19" fill="none" xmlns="http://www.w3.org/2000/svg">
<path d="M16.3828 3.20312L9.63281 0.390625C9.45703 0.320312 9.17578 0.285156 9 0.285156C8.78906 0.285156 8.50781 0.320312 8.33203 0.390625L1.58203 3.20312C0.949219 3.48438 0.5625 4.08203 0.5625 4.75C0.5625 11.7461 4.57031 16.5625 8.33203 18.1445C8.75391 18.3203 9.21094 18.3203 9.63281 18.1445C12.6562 16.8789 17.4375 12.5547 17.4375 4.75C17.4375 4.08203 17.0156 3.48438 16.3828 3.20312ZM14.7305 7.21094L8.26172 13.6797C8.05078 13.9258 7.66406 13.9258 7.45312 13.6797L3.79688 10.0234C3.58594 9.8125 3.58594 9.46094 3.79688 9.25L4.60547 8.44141C4.81641 8.23047 5.16797 8.23047 5.37891 8.44141L7.875 10.9023L13.1484 5.62891C13.3594 5.41797 13.7109 5.41797 13.9219 5.62891L14.7305 6.4375C14.9414 6.64844 14.9414 7 14.7305 7.21094Z" fill="#3CA70D"/>
</svg>
