<svg width="20" height="16" viewBox="0 0 20 16" fill="none" xmlns="http://www.w3.org/2000/svg">
<path d="M7.03812 15.0147C7.27273 15.0147 7.50733 14.8192 7.50733 14.5455V12.9814C7.50733 12.7468 7.27273 12.5122 7.03812 12.5122H3.75367C3.04985 12.5122 2.50244 11.9648 2.50244 11.261V3.75367C2.50244 3.08895 3.04985 2.50244 3.75367 2.50244H7.03812C7.27273 2.50244 7.50733 2.30694 7.50733 2.03324V0.469208C7.50733 0.234604 7.27273 0 7.03812 0H3.75367C1.68133 0 0 1.68133 0 3.75367V11.261C0 13.3333 1.68133 15.0147 3.75367 15.0147H7.03812Z" fill="#3CA70D"/>
<path d="M11.3568 3.16716L14.4066 5.94331H6.93842C6.39101 5.94331 6 6.37341 6 6.88172V8.13295C6 8.68036 6.39101 9.07136 6.93842 9.07136H14.4066L11.3568 11.8866C10.9658 12.2385 10.9658 12.8641 11.3568 13.216L12.217 14.0762C12.5689 14.4282 13.1554 14.4673 13.5073 14.0762L19.4506 8.17205C19.8416 7.82014 19.8416 7.23363 19.4506 6.84262L13.5464 0.97752C13.1554 0.586513 12.5689 0.586513 12.217 0.97752L11.3568 1.83774C10.9658 2.18964 10.9658 2.81525 11.3568 3.16716Z" fill="#055293"/>
</svg>
