<svg width="15" height="17" viewBox="0 0 15 17" fill="none" xmlns="http://www.w3.org/2000/svg">
<path d="M14.5059 2.25C14.4121 1.875 14.0684 1.625 13.6934 1.75C13.1309 1.90625 12.5059 2 11.8809 2C10.3496 2 8.97462 1.5 7.94337 0.65625C7.81837 0.5625 7.66212 0.5 7.50587 0.5C7.31837 0.5 7.16212 0.5625 7.03712 0.65625C6.03712 1.5 4.63087 2 3.09962 2C2.47462 2 1.84962 1.90625 1.28712 1.75C0.943375 1.625 0.568374 1.875 0.474624 2.25C-0.681626 6 -0.212875 13.3438 7.50587 16.5C15.1934 13.3438 15.6621 6 14.5059 2.25ZM7.50587 14.3125C3.59962 12.4062 2.25587 9.25 2.00587 6.5H12.9746C12.7246 9.25 11.3809 12.4062 7.50587 14.3125Z" fill="#065394"/>
</svg>
