<svg width="42" height="42" viewBox="0 0 42 42" fill="none" xmlns="http://www.w3.org/2000/svg">
<path d="M27.4294 14.4095L18.3962 23.5241L14.4899 19.6178C13.6761 18.8854 12.4554 18.8854 11.723 19.6178C10.9092 20.4316 10.9092 21.6523 11.723 22.3848L16.9313 27.5931C17.3382 28 17.8265 28.1628 18.3962 28.1628C18.8844 28.1628 19.3727 28 19.6982 27.5931L30.1149 17.1764C30.9287 16.444 30.9287 15.2233 30.1149 14.4909C29.3825 13.6771 28.1618 13.6771 27.4294 14.4095ZM21.0003 0.167969C9.44434 0.167969 0.166992 9.52669 0.166992 21.0013C0.166992 32.5573 9.44434 41.8346 21.0003 41.8346C32.4749 41.8346 41.8337 32.5573 41.8337 21.0013C41.8337 9.52669 32.4749 0.167969 21.0003 0.167969ZM21.0003 37.9284C11.6416 37.9284 4.07324 30.36 4.07324 21.0013C4.07324 11.724 11.6416 4.07422 21.0003 4.07422C30.2777 4.07422 37.9274 11.724 37.9274 21.0013C37.9274 30.36 30.2777 37.9284 21.0003 37.9284Z" fill="#407F06"/>
</svg>
