<svg width="21" height="22" viewBox="0 0 21 22" fill="none" xmlns="http://www.w3.org/2000/svg">
<path fill-rule="evenodd" clip-rule="evenodd" d="M2.49153 7.09677C2.49153 3.17733 5.67865 0 9.61017 0H11.3898C15.3214 0 18.5085 3.17733 18.5085 7.09677V7.80645H18.8644C20.0439 7.80645 21 8.75965 21 9.93548V12.0645C21 13.2403 20.0439 14.1935 18.8644 14.1935H18.5085V14.5484C18.5085 17.9713 15.8077 20.7653 12.4147 20.928C12.2593 21.544 11.7 22 11.0339 22H9.9661C9.1798 22 8.54237 21.3645 8.54237 20.5806V19.871C8.54237 19.0871 9.1798 18.4516 9.9661 18.4516H11.0339C11.6939 18.4516 12.249 18.8993 12.4103 19.5068C15.0186 19.3479 17.0847 17.1887 17.0847 14.5484V12.4194C17.0847 12.0274 17.4035 11.7097 17.7966 11.7097C18.1898 11.7097 18.5085 12.0274 18.5085 12.4194V12.7742H18.8644C19.2576 12.7742 19.5763 12.4565 19.5763 12.0645V9.93548C19.5763 9.54354 19.2576 9.22581 18.8644 9.22581H18.5085V9.93548C18.5085 10.3274 18.1898 10.6452 17.7966 10.6452C17.4035 10.6452 17.0847 10.3274 17.0847 9.93548V7.09677C17.0847 3.96122 14.535 1.41935 11.3898 1.41935H9.61017C6.46495 1.41935 3.91525 3.96122 3.91525 7.09677V9.93548C3.91525 10.3274 3.59654 10.6452 3.20339 10.6452C2.81024 10.6452 2.49153 10.3274 2.49153 9.93548V9.22581H2.13559C1.74244 9.22581 1.42373 9.54354 1.42373 9.93548V12.0645C1.42373 12.4565 1.74244 12.7742 2.13559 12.7742H2.49153V12.4194C2.49153 12.0274 2.81024 11.7097 3.20339 11.7097C3.59654 11.7097 3.91525 12.0274 3.91525 12.4194V13.4839C3.91525 13.8758 3.59654 14.1935 3.20339 14.1935H2.13559C0.956138 14.1935 0 13.2403 0 12.0645V9.93548C0 8.75965 0.956138 7.80645 2.13559 7.80645H2.49153V7.09677ZM11.0339 19.871H9.9661V20.5806H11.0339V19.871ZM7.27371 3.22239C7.65089 3.11179 8.04658 3.32696 8.15751 3.70298C8.27511 4.10158 8.48704 4.62193 8.80877 5.19946C9.91197 7.17975 12.2167 9.68334 16.128 10.299L16.7288 10.3936V11C16.7288 11.785 16.5387 13.5061 15.7113 15.0588C14.8626 16.6513 13.3154 18.0968 10.678 18.0968C7.99333 18.0968 6.33188 17.1264 5.37657 15.7507C4.45449 14.4229 4.27119 12.831 4.27119 11.7097V9.93548C4.27119 8.48256 4.89647 7.28019 5.64879 6.42378C6.12004 5.88735 6.67135 5.45308 7.19907 5.17083C7.02129 4.78428 6.88596 4.42317 6.79164 4.10347C6.6807 3.72746 6.89654 3.33298 7.27371 3.22239ZM7.87854 6.41819C7.53768 6.59961 7.11317 6.91116 6.71985 7.3589C6.13743 8.0219 5.69492 8.90454 5.69492 9.93548V11.7097C5.69492 12.7174 5.86755 13.9642 6.54715 14.9428C7.19354 15.8736 8.37955 16.6774 10.678 16.6774C12.6677 16.6774 13.7899 15.639 14.454 14.3929C14.9755 13.4141 15.1962 12.3274 15.2719 11.5843C11.5241 10.793 9.16056 8.45031 7.87854 6.41819Z" fill="#212121"/>
</svg>
