<svg width="26" height="27" viewBox="0 0 26 27" fill="none" xmlns="http://www.w3.org/2000/svg">
<path fill-rule="evenodd" clip-rule="evenodd" d="M3.08475 8.70968C3.08475 3.89946 7.03071 0 11.8983 0H14.1017C18.9693 0 22.9153 3.89946 22.9153 8.70968V9.58065H23.3559C24.8162 9.58065 26 10.7505 26 12.1935V14.8065C26 16.2495 24.8162 17.4194 23.3559 17.4194H22.9153V17.8548C22.9153 22.0556 19.5714 25.4847 15.3706 25.6844C15.1781 26.4403 14.4857 27 13.661 27H12.339C11.3655 27 10.5763 26.2201 10.5763 25.2581V24.3871C10.5763 23.4251 11.3655 22.6452 12.339 22.6452H13.661C14.4782 22.6452 15.1655 23.1946 15.3652 23.9401C18.5945 23.7451 21.1525 21.0952 21.1525 17.8548V15.2419C21.1525 14.7609 21.5471 14.371 22.0339 14.371C22.5207 14.371 22.9153 14.7609 22.9153 15.2419V15.6774H23.3559C23.8427 15.6774 24.2373 15.2875 24.2373 14.8065V12.1935C24.2373 11.7125 23.8427 11.3226 23.3559 11.3226H22.9153V12.1935C22.9153 12.6746 22.5207 13.0645 22.0339 13.0645C21.5471 13.0645 21.1525 12.6746 21.1525 12.1935V8.70968C21.1525 4.8615 17.9958 1.74194 14.1017 1.74194H11.8983C8.00423 1.74194 4.84746 4.8615 4.84746 8.70968V12.1935C4.84746 12.6746 4.45286 13.0645 3.9661 13.0645C3.47934 13.0645 3.08475 12.6746 3.08475 12.1935V11.3226H2.64407C2.15731 11.3226 1.76271 11.7125 1.76271 12.1935V14.8065C1.76271 15.2875 2.15731 15.6774 2.64407 15.6774H3.08475V15.2419C3.08475 14.7609 3.47934 14.371 3.9661 14.371C4.45286 14.371 4.84746 14.7609 4.84746 15.2419V16.5484C4.84746 17.0294 4.45286 17.4194 3.9661 17.4194H2.64407C1.18379 17.4194 0 16.2495 0 14.8065V12.1935C0 10.7505 1.18379 9.58065 2.64407 9.58065H3.08475V8.70968ZM13.661 24.3871H12.339V25.2581H13.661V24.3871ZM9.00555 3.95475C9.47253 3.81902 9.96243 4.08309 10.0998 4.54456C10.2454 5.03376 10.5078 5.67237 10.9061 6.38115C12.272 8.81151 15.1255 11.8841 19.968 12.6397L20.7119 12.7558V13.5C20.7119 14.4635 20.4765 16.5757 19.4521 18.4812C18.4014 20.4357 16.4857 22.2097 13.2203 22.2097C9.89651 22.2097 7.83947 21.0187 6.65671 19.3304C5.51508 17.7008 5.28814 15.7471 5.28814 14.371V12.1935C5.28814 10.4104 6.06229 8.93478 6.99374 7.88374C7.57719 7.22538 8.25976 6.69241 8.91314 6.34602C8.69302 5.87162 8.52547 5.42844 8.40869 5.03608C8.27135 4.5746 8.53857 4.09047 9.00555 3.95475ZM9.75439 7.87688C9.33236 8.09952 8.80679 8.48188 8.31981 9.03138C7.59872 9.84506 7.05085 10.9283 7.05085 12.1935V14.371C7.05085 15.6077 7.26458 17.1379 8.106 18.3389C8.90629 19.4813 10.3747 20.4677 13.2203 20.4677C15.6838 20.4677 17.0732 19.1933 17.8954 17.664C18.5411 16.4628 18.8143 15.1291 18.908 14.2171C14.2679 13.246 11.3416 10.3708 9.75439 7.87688Z" fill="white"/>
</svg>
