<svg width="18" height="20" viewBox="0 0 18 20" fill="none" xmlns="http://www.w3.org/2000/svg">
<path d="M10.074 20C9.80836 19.9492 9.54269 19.9068 9.28588 19.839C8.38561 19.621 7.56092 19.1807 6.89424 18.5621C6.22757 17.9436 5.74225 17.1684 5.48682 16.3141C5.33398 15.8076 5.25939 15.2823 5.26543 14.7551V10.7896C5.02633 10.7387 4.79608 10.6964 4.58355 10.6371C3.4763 10.3715 2.471 9.80972 1.68529 9.01742C0.899585 8.22512 0.365968 7.23509 0.14689 6.16319C0.0536419 5.74266 0.00909521 5.31359 0.0140555 4.88373C-0.00365572 3.80763 0.0140555 2.74 0.0051999 1.66389C-0.00867454 1.54568 0.00530154 1.42599 0.0461017 1.31362C0.086902 1.20125 0.15349 1.09906 0.240976 1.01454C0.328461 0.930015 0.434623 0.865318 0.551663 0.825195C0.668703 0.785073 0.79365 0.770545 0.917327 0.782677C1.39553 0.808097 1.86488 0.782677 2.35194 0.782677L2.39621 0.587792C2.4319 0.410946 2.53509 0.253132 2.68568 0.145064C2.83627 0.0369954 3.0235 -0.0135949 3.21093 0.00313851C3.39277 0.0157889 3.56346 0.0917462 3.69074 0.21665C3.81801 0.341553 3.89305 0.506747 3.90167 0.680998C3.91938 1.23176 3.91938 1.78252 3.90167 2.34175C3.89285 2.51512 3.8175 2.67929 3.69005 2.8028C3.56259 2.92631 3.39199 3.0005 3.21093 3.01114C3.02316 3.02966 2.83499 2.97976 2.68398 2.87139C2.53296 2.76302 2.43021 2.60415 2.39621 2.42649C2.38466 2.36648 2.36988 2.30709 2.35194 2.24855H1.55493C1.55493 2.33328 1.54608 2.40107 1.54608 2.46885C1.54608 3.28228 1.53722 4.09572 1.54608 4.90915C1.52602 5.69069 1.72791 6.46281 2.13026 7.14323C2.53261 7.82365 3.12034 8.38689 3.83082 8.77295C4.71416 9.25974 5.74225 9.44993 6.75157 9.31329C7.7609 9.17664 8.69348 8.721 9.401 8.01883C10.2393 7.17765 10.6974 6.05432 10.6762 4.8922V2.25702H9.89691C9.86149 2.25702 9.7995 2.33328 9.79065 2.38412C9.76551 2.57047 9.66604 2.74029 9.51303 2.85807C9.36003 2.97584 9.16535 3.03244 8.96973 3.01602C8.77411 2.9996 8.59271 2.91144 8.46347 2.76998C8.33424 2.62851 8.26718 2.44471 8.27634 2.25702V0.757257C8.26823 0.567759 8.33792 0.382743 8.47052 0.241772C8.60312 0.1008 8.7881 0.0150606 8.98591 0.00288553C9.18371 -0.00928951 9.37865 0.0530663 9.52903 0.17662C9.67942 0.300174 9.77331 0.47512 9.79065 0.664052C9.79625 0.707782 9.80817 0.750556 9.82607 0.79115C10.3308 0.79115 10.8356 0.808097 11.3315 0.79115C11.4516 0.779426 11.5729 0.793577 11.6865 0.832566C11.8002 0.871555 11.9032 0.934392 11.9881 1.01647C12.0731 1.09854 12.1377 1.19777 12.1773 1.30687C12.2169 1.41597 12.2305 1.53217 12.2171 1.64695C12.2082 2.73152 12.2171 3.8161 12.2171 4.90067C12.2326 6.3492 11.6877 7.75204 10.6871 8.83922C9.68658 9.92639 8.30115 10.6211 6.79745 10.7896V14.8737C6.79614 15.7665 7.13819 16.6286 7.75843 17.2956C8.37867 17.9626 9.23372 18.388 10.1606 18.4906C11.0876 18.5932 12.0215 18.3659 12.7846 17.852C13.5476 17.3381 14.0864 16.5736 14.2981 15.7041C14.3694 15.3924 14.4051 15.0741 14.4044 14.7551C14.4221 13.9077 14.4044 13.0519 14.4044 12.2046C14.4134 12.1465 14.3993 12.0873 14.3648 12.0387C14.3304 11.99 14.2782 11.9555 14.2184 11.9419C13.5922 11.7275 13.0649 11.3087 12.7293 10.7592C12.3938 10.2096 12.2714 9.56453 12.3836 8.93719C12.4958 8.30986 12.8355 7.74045 13.3431 7.32901C13.8506 6.91758 14.4934 6.69044 15.1585 6.68753C15.8237 6.68461 16.4687 6.90609 16.9801 7.31305C17.4915 7.72001 17.8367 8.28642 17.9549 8.91274C18.0732 9.53906 17.957 10.1852 17.6267 10.7377C17.2964 11.2901 16.7732 11.7135 16.149 11.9335C16.0792 11.9461 16.0173 11.984 15.9761 12.0392C15.9348 12.0945 15.9174 12.1628 15.9276 12.23C15.9364 13.1367 15.9364 14.0518 15.9276 14.9584C15.9063 16.0727 15.5043 17.1497 14.7832 18.0249C14.062 18.9001 13.0612 19.5253 11.9337 19.8051C11.668 19.8729 11.3935 19.9153 11.119 19.9661H10.0563L10.074 20ZM15.1129 8.20524C14.9379 8.21183 14.7662 8.25293 14.6086 8.32597C14.451 8.399 14.3108 8.5024 14.1969 8.62968C14.083 8.75696 13.9978 8.90537 13.9467 9.06562C13.8955 9.22588 13.8795 9.39451 13.8996 9.56096C13.9268 9.80048 14.0267 10.0271 14.1871 10.2129C14.3474 10.3987 14.5611 10.5354 14.8017 10.6063C15.0424 10.6771 15.2995 10.6789 15.5412 10.6115C15.7829 10.5441 15.9987 10.4104 16.1619 10.2269C16.3251 10.0434 16.4285 9.81819 16.4594 9.57909C16.4903 9.33998 16.4472 9.09746 16.3356 8.8815C16.224 8.66553 16.0487 8.48558 15.8314 8.36389C15.6141 8.2422 15.3643 8.1841 15.1129 8.19677V8.20524Z" fill="#212121"/>
</svg>
