<svg width="18" height="18" viewBox="0 0 18 18" fill="none" xmlns="http://www.w3.org/2000/svg">
<path d="M15.9918 2.91346C16.0611 2.80959 16.165 2.77496 16.2688 2.77496C16.3727 2.77496 16.4766 2.80959 16.5458 2.91346C16.7882 3.22507 18 4.81775 18 5.64871C18 6.13344 17.7923 6.61816 17.4114 6.92977C17.0998 7.24138 16.6843 7.37988 16.2688 7.37988C15.2994 7.37988 14.5377 6.61816 14.5377 5.64871C14.5377 5.26785 14.78 4.67925 15.2994 3.88291C15.6456 3.36356 15.9918 2.91346 15.9918 2.91346Z" fill="#3CA70D"/>
<path d="M0.10027 13.7852C0.238764 13.6467 0.446505 13.6467 0.584998 13.7852L1.0351 14.2353L2.69703 12.5734L1.6237 11.5001C1.48521 11.3616 1.48521 11.1539 1.6237 11.0154C1.76219 10.8769 1.96993 10.8769 2.10843 11.0154L2.6624 11.5693L5.50152 8.73022L8.58301 11.8117L5.74389 14.6508L6.29786 15.2048C6.43636 15.3433 6.43636 15.551 6.29786 15.6895C6.22862 15.7588 6.12475 15.7934 6.0555 15.7934C5.98625 15.7934 5.88238 15.7588 5.81313 15.6895L4.73981 14.6162L3.07788 16.2781L3.52799 16.7282C3.66648 16.8667 3.66648 17.0745 3.52799 17.213C3.45874 17.2822 3.35487 17.3168 3.28562 17.3168C3.21638 17.3168 3.11251 17.2822 3.04326 17.213L0.134894 14.3046C-0.0382233 14.1315 -0.0382242 13.9237 0.10027 13.7852ZM3.18175 13.0928L1.51983 14.7547L2.55853 15.7934L4.22046 14.1315L3.18175 13.0928Z" fill="#999999"/>
<path d="M10.1755 4.02143C10.3139 3.88293 10.5217 3.88293 10.6602 4.02143L10.8333 4.19454L11.5604 3.46745C11.6989 3.32896 11.9066 3.32896 12.0451 3.46745L12.6683 4.09067L15.7844 1.04381C15.9229 0.905318 16.1307 0.905318 16.2692 1.04381C16.4077 1.18231 16.4077 1.39005 16.2692 1.52854L13.1877 4.61002L13.8109 5.23325C13.9494 5.37174 13.9494 5.57948 13.8109 5.71797L13.0838 6.44507L13.2569 6.61818C13.3262 6.68743 13.3608 6.75668 13.3608 6.86055C13.3608 6.96442 13.3262 7.03366 13.2569 7.10291L9.03288 11.327L5.9514 8.24548L10.1755 4.02143Z" fill="#999999"/>
</svg>
