<svg width="19" height="19" viewBox="0 0 19 19" fill="none" xmlns="http://www.w3.org/2000/svg">
<path d="M17.6992 4.32812C17.8047 4.43359 17.9805 4.43359 18.1211 4.32812L18.8945 3.51953C19 3.41406 19 3.23828 18.8945 3.13281L16.1172 0.355469C16.0117 0.25 15.8359 0.25 15.7305 0.355469L14.9219 1.12891C14.8164 1.26953 14.8164 1.44531 14.9219 1.55078L15.7305 2.32422L14.5352 3.51953L12.1445 1.12891C12.0391 1.02344 11.8633 1.02344 11.7578 1.12891L10.9492 1.9375C10.8438 2.04297 10.8438 2.21875 10.9492 2.32422L11.3359 2.74609L3.74219 10.3398C3.07422 11.0078 2.75781 11.9219 2.86328 12.8711L3.14453 15.2969L1.07031 17.3711C0.964844 17.5117 0.964844 17.6875 1.07031 17.793L1.45703 18.1797C1.5625 18.2852 1.73828 18.2852 1.84375 18.1797L3.95312 16.1055C6.55469 16.3867 6.51953 16.3867 6.73047 16.3867C7.57422 16.3867 8.34766 16.0703 8.91016 15.5078L16.5039 7.91406L16.9258 8.30078C17.0312 8.40625 17.207 8.40625 17.3125 8.30078L18.1211 7.49219C18.2266 7.38672 18.2266 7.21094 18.1211 7.10547L15.7305 4.71484L16.9258 3.51953L17.6992 4.32812ZM7.75 14.3125C7.43359 14.5938 7.01172 14.7695 6.58984 14.6992L4.76172 14.4883L4.55078 12.6602C4.51562 12.2383 4.65625 11.8164 4.9375 11.5352L5.39453 11.0781L6.37891 12.0977C6.58984 12.3086 6.94141 12.3086 7.15234 12.0977L7.57422 11.6758C7.78516 11.4648 7.78516 11.1133 7.57422 10.9023L6.55469 9.88281L7.75 8.72266L8.76953 9.70703C8.98047 9.91797 9.33203 9.91797 9.54297 9.70703L9.96484 9.32031C10.1758 9.07422 10.1758 8.72266 9.96484 8.51172L8.94531 7.49219L10.1406 6.33203L11.1602 7.31641C11.3711 7.52734 11.7227 7.52734 11.9336 7.31641L12.3555 6.89453C12.5664 6.68359 12.5664 6.33203 12.3555 6.12109L11.3359 5.13672L12.5312 3.94141L15.3086 6.71875L7.75 14.3125Z" fill="#3CA70D"/>
</svg>
