<svg width="305" height="83" viewBox="0 0 305 83" fill="none" xmlns="http://www.w3.org/2000/svg">
<path d="M3.02321 6.612C3.02321 7.424 2.33721 8.11 1.51121 8.11C0.685211 8.11 -0.000789002 7.424 -0.000789002 6.612C-0.000789002 5.786 0.685211 5.1 1.51121 5.1C2.33721 5.1 3.02321 5.786 3.02321 6.612ZM19.21 10H13.092V0.661999H19.21V1.698H14.254V4.708H19.112V5.744H14.254V8.964H19.21V10ZM22.0707 10H21.0207V0.661999H22.0707V10ZM24.6972 2.272C24.3052 2.272 23.9832 1.964 23.9832 1.572C23.9832 1.18 24.3052 0.857999 24.6972 0.857999C25.0892 0.857999 25.3972 1.18 25.3972 1.572C25.3972 1.964 25.0892 2.272 24.6972 2.272ZM25.2152 10H24.1652V3.238H25.2152V10ZM30.0258 12.744C28.8918 12.744 28.1078 12.52 27.2958 11.722L27.8278 10.966C28.3878 11.624 29.0598 11.876 30.0258 11.876C31.1458 11.876 32.2098 11.33 32.2098 9.902V8.88C31.7058 9.566 30.8798 10.084 29.9278 10.084C28.1638 10.084 26.9178 8.768 26.9178 6.584C26.9178 4.414 28.1498 3.07 29.9278 3.07C30.8378 3.07 31.6638 3.518 32.2098 4.26V3.238H33.2598V9.902C33.2598 12.044 31.6778 12.744 30.0258 12.744ZM30.1938 9.146C31.0198 9.146 31.8318 8.642 32.2098 8.054V5.086C31.8318 4.512 31.0198 4.008 30.1938 4.008C28.8218 4.008 28.0098 5.086 28.0098 6.584C28.0098 8.068 28.8218 9.146 30.1938 9.146ZM38.4285 10.168C36.4125 10.168 34.9705 8.726 34.9705 6.612C34.9705 4.652 36.3705 3.07 38.3025 3.07C40.3465 3.07 41.5505 4.666 41.5505 6.696V6.962H36.0905C36.1745 8.236 37.0565 9.3 38.5125 9.3C39.2965 9.3 40.0665 8.992 40.6125 8.432L41.1165 9.118C40.4305 9.79 39.5205 10.168 38.4285 10.168ZM40.5145 6.178C40.5005 5.184 39.8285 3.938 38.2885 3.938C36.8465 3.938 36.1325 5.156 36.0765 6.178H40.5145ZM52.4882 10H51.4382V9.048C50.9202 9.636 50.0382 10.168 49.0302 10.168C47.6162 10.168 46.8742 9.468 46.8742 8.012V3.238H47.9242V7.69C47.9242 8.88 48.5262 9.23 49.4502 9.23C50.2622 9.23 51.0462 8.754 51.4382 8.208V3.238H52.4882V10ZM60.1992 10H59.1632V5.576C59.1632 4.372 58.5472 4.008 57.6372 4.008C56.8112 4.008 56.0412 4.512 55.6352 5.058V10H54.5852V3.238H55.6352V4.218C56.1112 3.644 57.0352 3.07 58.0572 3.07C59.4572 3.07 60.1992 3.784 60.1992 5.254V10ZM67.5878 10H66.5378V9.23C65.9918 9.846 65.2078 10.168 64.2978 10.168C63.1638 10.168 61.9458 9.398 61.9458 7.928C61.9458 6.402 63.1498 5.702 64.2978 5.702C65.2218 5.702 65.9918 5.996 66.5378 6.612V5.394C66.5378 4.498 65.8098 3.98 64.8298 3.98C64.0178 3.98 63.3598 4.26 62.7578 4.918L62.2678 4.19C62.9958 3.434 63.8638 3.07 64.9698 3.07C66.4118 3.07 67.5878 3.714 67.5878 5.352V10ZM64.6898 9.412C65.4178 9.412 66.1318 9.132 66.5378 8.572V7.284C66.1318 6.738 65.4178 6.458 64.6898 6.458C63.6958 6.458 63.0098 7.074 63.0098 7.928C63.0098 8.796 63.6958 9.412 64.6898 9.412ZM78.1593 10H73.0073V9.174L76.7313 4.162H73.0073V3.238H78.1033V4.036L74.3513 9.076H78.1593V10ZM82.8868 10.168C80.8288 10.168 79.5408 8.572 79.5408 6.612C79.5408 4.652 80.8288 3.07 82.8868 3.07C84.9448 3.07 86.2328 4.652 86.2328 6.612C86.2328 8.572 84.9448 10.168 82.8868 10.168ZM82.8868 9.23C84.3288 9.23 85.1268 7.998 85.1268 6.612C85.1268 5.24 84.3288 4.008 82.8868 4.008C81.4448 4.008 80.6468 5.24 80.6468 6.612C80.6468 7.998 81.4448 9.23 82.8868 9.23ZM93.5585 10H92.5225V5.576C92.5225 4.372 91.9065 4.008 90.9965 4.008C90.1705 4.008 89.4005 4.512 88.9945 5.058V10H87.9445V3.238H88.9945V4.218C89.4705 3.644 90.3945 3.07 91.4165 3.07C92.8165 3.07 93.5585 3.784 93.5585 5.254V10ZM100.947 10H99.8971V9.23C99.3511 9.846 98.5671 10.168 97.6571 10.168C96.5231 10.168 95.3051 9.398 95.3051 7.928C95.3051 6.402 96.5091 5.702 97.6571 5.702C98.5811 5.702 99.3511 5.996 99.8971 6.612V5.394C99.8971 4.498 99.1691 3.98 98.1891 3.98C97.3771 3.98 96.7191 4.26 96.1171 4.918L95.6271 4.19C96.3551 3.434 97.2231 3.07 98.3291 3.07C99.7711 3.07 100.947 3.714 100.947 5.352V10ZM98.0491 9.412C98.7771 9.412 99.4911 9.132 99.8971 8.572V7.284C99.4911 6.738 98.7771 6.458 98.0491 6.458C97.0551 6.458 96.3691 7.074 96.3691 7.928C96.3691 8.796 97.0551 9.412 98.0491 9.412ZM107.739 8.166C108.103 8.754 108.929 9.23 109.769 9.23C111.127 9.23 111.939 8.124 111.939 6.626C111.939 5.128 111.127 4.008 109.769 4.008C108.929 4.008 108.103 4.512 107.739 5.1V8.166ZM107.739 10H106.689V0.661999H107.739V4.26C108.285 3.518 109.111 3.07 110.021 3.07C111.799 3.07 113.031 4.456 113.031 6.626C113.031 8.824 111.785 10.168 110.021 10.168C109.069 10.168 108.243 9.678 107.739 8.992V10ZM115.273 2.272C114.881 2.272 114.559 1.964 114.559 1.572C114.559 1.18 114.881 0.857999 115.273 0.857999C115.665 0.857999 115.973 1.18 115.973 1.572C115.973 1.964 115.665 2.272 115.273 2.272ZM115.791 10H114.741V3.238H115.791V10ZM120.952 10.168C118.936 10.168 117.494 8.726 117.494 6.612C117.494 4.652 118.894 3.07 120.826 3.07C122.87 3.07 124.074 4.666 124.074 6.696V6.962H118.614C118.698 8.236 119.58 9.3 121.036 9.3C121.82 9.3 122.59 8.992 123.136 8.432L123.64 9.118C122.954 9.79 122.044 10.168 120.952 10.168ZM123.038 6.178C123.024 5.184 122.352 3.938 120.812 3.938C119.37 3.938 118.656 5.156 118.6 6.178H123.038ZM131.389 10H130.353V5.576C130.353 4.372 129.737 4.008 128.827 4.008C128.001 4.008 127.231 4.512 126.825 5.058V10H125.775V3.238H126.825V4.218C127.301 3.644 128.225 3.07 129.247 3.07C130.647 3.07 131.389 3.784 131.389 5.254V10ZM137.654 2.272C137.262 2.272 136.94 1.964 136.94 1.572C136.94 1.18 137.262 0.857999 137.654 0.857999C138.046 0.857999 138.354 1.18 138.354 1.572C138.354 1.964 138.046 2.272 137.654 2.272ZM138.172 10H137.122V3.238H138.172V10ZM141.317 10H140.267V0.661999H141.317V10ZM149.025 10H147.975V9.048C147.457 9.636 146.575 10.168 145.567 10.168C144.153 10.168 143.411 9.468 143.411 8.012V3.238H144.461V7.69C144.461 8.88 145.063 9.23 145.987 9.23C146.799 9.23 147.583 8.754 147.975 8.208V3.238H149.025V10ZM160.334 10H159.284V5.408C159.284 4.554 158.92 4.008 158.038 4.008C157.338 4.008 156.596 4.498 156.246 5.044V10H155.196V5.408C155.196 4.554 154.846 4.008 153.95 4.008C153.264 4.008 152.536 4.512 152.172 5.058V10H151.122V3.238H152.172V4.218C152.466 3.784 153.362 3.07 154.37 3.07C155.392 3.07 155.98 3.63 156.176 4.33C156.554 3.714 157.464 3.07 158.444 3.07C159.676 3.07 160.334 3.756 160.334 5.114V10ZM162.961 2.272C162.569 2.272 162.247 1.964 162.247 1.572C162.247 1.18 162.569 0.857999 162.961 0.857999C163.353 0.857999 163.661 1.18 163.661 1.572C163.661 1.964 163.353 2.272 162.961 2.272ZM163.479 10H162.429V3.238H163.479V10ZM171.187 10H170.151V5.576C170.151 4.372 169.535 4.008 168.625 4.008C167.799 4.008 167.029 4.512 166.623 5.058V10H165.573V3.238H166.623V4.218C167.099 3.644 168.023 3.07 169.045 3.07C170.445 3.07 171.187 3.784 171.187 5.254V10ZM178.576 10H177.526V9.23C176.98 9.846 176.196 10.168 175.286 10.168C174.152 10.168 172.934 9.398 172.934 7.928C172.934 6.402 174.138 5.702 175.286 5.702C176.21 5.702 176.98 5.996 177.526 6.612V5.394C177.526 4.498 176.798 3.98 175.818 3.98C175.006 3.98 174.348 4.26 173.746 4.918L173.256 4.19C173.984 3.434 174.852 3.07 175.958 3.07C177.4 3.07 178.576 3.714 178.576 5.352V10ZM175.678 9.412C176.406 9.412 177.12 9.132 177.526 8.572V7.284C177.12 6.738 176.406 6.458 175.678 6.458C174.684 6.458 173.998 7.074 173.998 7.928C173.998 8.796 174.684 9.412 175.678 9.412ZM186.645 10H185.595V8.992C185.091 9.678 184.265 10.168 183.313 10.168C181.549 10.168 180.303 8.824 180.303 6.626C180.303 4.456 181.549 3.07 183.313 3.07C184.223 3.07 185.049 3.518 185.595 4.26V0.661999H186.645V10ZM183.579 9.23C184.405 9.23 185.231 8.74 185.595 8.152V5.1C185.231 4.512 184.405 4.008 183.579 4.008C182.207 4.008 181.395 5.128 181.395 6.626C181.395 8.124 182.207 9.23 183.579 9.23ZM194.025 10H192.975V9.23C192.429 9.846 191.645 10.168 190.735 10.168C189.601 10.168 188.383 9.398 188.383 7.928C188.383 6.402 189.587 5.702 190.735 5.702C191.659 5.702 192.429 5.996 192.975 6.612V5.394C192.975 4.498 192.247 3.98 191.267 3.98C190.455 3.98 189.797 4.26 189.195 4.918L188.705 4.19C189.433 3.434 190.301 3.07 191.407 3.07C192.849 3.07 194.025 3.714 194.025 5.352V10ZM191.127 9.412C191.855 9.412 192.569 9.132 192.975 8.572V7.284C192.569 6.738 191.855 6.458 191.127 6.458C190.133 6.458 189.447 7.074 189.447 7.928C189.447 8.796 190.133 9.412 191.127 9.412ZM197.558 9.664C197.558 10.518 197.068 11.316 196.424 11.778L195.892 11.344C196.34 11.05 196.746 10.504 196.802 10.042C196.774 10.056 196.676 10.07 196.606 10.07C196.228 10.07 195.934 9.762 195.934 9.356C195.934 8.95 196.256 8.6 196.676 8.6C197.152 8.6 197.558 8.992 197.558 9.664ZM206.325 10.168C205.401 10.168 204.603 9.72 204.043 8.978V12.576H202.993V3.238H204.043V4.246C204.533 3.56 205.373 3.07 206.325 3.07C208.103 3.07 209.335 4.414 209.335 6.612C209.335 8.796 208.103 10.168 206.325 10.168ZM206.059 9.23C207.417 9.23 208.229 8.11 208.229 6.612C208.229 5.114 207.417 4.008 206.059 4.008C205.233 4.008 204.407 4.498 204.043 5.086V8.138C204.407 8.726 205.233 9.23 206.059 9.23ZM212.055 10H211.005V3.238H212.055V4.316C212.601 3.616 213.385 3.084 214.309 3.084V4.162C214.183 4.148 214.057 4.134 213.903 4.134C213.245 4.134 212.363 4.666 212.055 5.212V10ZM218.692 10.168C216.676 10.168 215.234 8.726 215.234 6.612C215.234 4.652 216.634 3.07 218.566 3.07C220.61 3.07 221.814 4.666 221.814 6.696V6.962H216.354C216.438 8.236 217.32 9.3 218.776 9.3C219.56 9.3 220.33 8.992 220.876 8.432L221.38 9.118C220.694 9.79 219.784 10.168 218.692 10.168ZM220.778 6.178C220.764 5.184 220.092 3.938 218.552 3.938C217.11 3.938 216.396 5.156 216.34 6.178H220.778ZM224.859 10H223.809V4.162H222.689V3.238H223.809V2.72C223.809 1.334 224.579 0.521999 225.769 0.521999C226.315 0.521999 226.777 0.647999 227.197 1.04L226.763 1.712C226.539 1.516 226.273 1.39 225.937 1.39C225.237 1.39 224.859 1.852 224.859 2.72V3.238H226.231V4.162H224.859V10ZM230.559 10.168C228.543 10.168 227.101 8.726 227.101 6.612C227.101 4.652 228.501 3.07 230.433 3.07C232.477 3.07 233.681 4.666 233.681 6.696V6.962H228.221C228.305 8.236 229.187 9.3 230.643 9.3C231.427 9.3 232.197 8.992 232.743 8.432L233.247 9.118C232.561 9.79 231.651 10.168 230.559 10.168ZM232.645 6.178C232.631 5.184 231.959 3.938 230.419 3.938C228.977 3.938 228.263 5.156 228.207 6.178H232.645ZM236.432 10H235.382V3.238H236.432V4.316C236.978 3.616 237.762 3.084 238.686 3.084V4.162C238.56 4.148 238.434 4.134 238.28 4.134C237.622 4.134 236.74 4.666 236.432 5.212V10ZM240.535 2.272C240.143 2.272 239.821 1.964 239.821 1.572C239.821 1.18 240.143 0.857999 240.535 0.857999C240.927 0.857999 241.235 1.18 241.235 1.572C241.235 1.964 240.927 2.272 240.535 2.272ZM241.053 10H240.003V3.238H241.053V10ZM244.198 8.166C244.562 8.754 245.388 9.23 246.228 9.23C247.586 9.23 248.398 8.124 248.398 6.626C248.398 5.128 247.586 4.008 246.228 4.008C245.388 4.008 244.562 4.512 244.198 5.1V8.166ZM244.198 10H243.148V0.661999H244.198V4.26C244.744 3.518 245.57 3.07 246.48 3.07C248.258 3.07 249.49 4.456 249.49 6.626C249.49 8.824 248.244 10.168 246.48 10.168C245.528 10.168 244.702 9.678 244.198 8.992V10ZM252.25 10H251.2V0.661999H252.25V10ZM257.411 10.168C255.395 10.168 253.953 8.726 253.953 6.612C253.953 4.652 255.353 3.07 257.285 3.07C259.329 3.07 260.533 4.666 260.533 6.696V6.962H255.073C255.157 8.236 256.039 9.3 257.495 9.3C258.279 9.3 259.049 8.992 259.595 8.432L260.099 9.118C259.413 9.79 258.503 10.168 257.411 10.168ZM259.497 6.178C259.483 5.184 258.811 3.938 257.271 3.938C255.829 3.938 255.115 5.156 255.059 6.178H259.497ZM271.446 10H270.396V5.408C270.396 4.554 270.032 4.008 269.15 4.008C268.45 4.008 267.708 4.498 267.358 5.044V10H266.308V5.408C266.308 4.554 265.958 4.008 265.062 4.008C264.376 4.008 263.648 4.512 263.284 5.058V10H262.234V3.238H263.284V4.218C263.578 3.784 264.474 3.07 265.482 3.07C266.504 3.07 267.092 3.63 267.288 4.33C267.666 3.714 268.576 3.07 269.556 3.07C270.788 3.07 271.446 3.756 271.446 5.114V10ZM276.606 10.168C274.59 10.168 273.148 8.726 273.148 6.612C273.148 4.652 274.548 3.07 276.48 3.07C278.524 3.07 279.728 4.666 279.728 6.696V6.962H274.268C274.352 8.236 275.234 9.3 276.69 9.3C277.474 9.3 278.244 8.992 278.79 8.432L279.294 9.118C278.608 9.79 277.698 10.168 276.606 10.168ZM278.692 6.178C278.678 5.184 278.006 3.938 276.466 3.938C275.024 3.938 274.31 5.156 274.254 6.178H278.692ZM287.043 10H286.007V5.576C286.007 4.372 285.391 4.008 284.481 4.008C283.655 4.008 282.885 4.512 282.479 5.058V10H281.429V3.238H282.479V4.218C282.955 3.644 283.879 3.07 284.901 3.07C286.301 3.07 287.043 3.784 287.043 5.254V10ZM290.876 10.168C289.868 10.168 289.364 9.594 289.364 8.586V4.162H288.244V3.238H289.364V1.39H290.428V3.238H291.8V4.162H290.428V8.362C290.428 8.866 290.652 9.23 291.1 9.23C291.408 9.23 291.674 9.09 291.814 8.936L292.122 9.734C291.856 9.986 291.478 10.168 290.876 10.168ZM296.335 10.168C294.319 10.168 292.877 8.726 292.877 6.612C292.877 4.652 294.277 3.07 296.209 3.07C298.253 3.07 299.457 4.666 299.457 6.696V6.962H293.997C294.081 8.236 294.963 9.3 296.419 9.3C297.203 9.3 297.973 8.992 298.519 8.432L299.023 9.118C298.337 9.79 297.427 10.168 296.335 10.168ZM298.421 6.178C298.407 5.184 297.735 3.938 296.195 3.938C294.753 3.938 294.039 5.156 293.983 6.178H298.421ZM16.032 24.168C14.016 24.168 12.658 22.614 12.658 20.612C12.658 18.61 14.016 17.07 16.032 17.07C17.264 17.07 17.992 17.574 18.51 18.246L17.81 18.876C17.362 18.26 16.788 18.008 16.088 18.008C14.66 18.008 13.75 19.114 13.75 20.612C13.75 22.11 14.66 23.23 16.088 23.23C16.788 23.23 17.362 22.95 17.81 22.348L18.51 22.992C17.992 23.664 17.264 24.168 16.032 24.168ZM22.9493 24.168C20.8913 24.168 19.6033 22.572 19.6033 20.612C19.6033 18.652 20.8913 17.07 22.9493 17.07C25.0073 17.07 26.2953 18.652 26.2953 20.612C26.2953 22.572 25.0073 24.168 22.9493 24.168ZM22.9493 23.23C24.3913 23.23 25.1893 21.998 25.1893 20.612C25.1893 19.24 24.3913 18.008 22.9493 18.008C21.5073 18.008 20.7093 19.24 20.7093 20.612C20.7093 21.998 21.5073 23.23 22.9493 23.23ZM33.621 24H32.585V19.576C32.585 18.372 31.969 18.008 31.059 18.008C30.233 18.008 29.463 18.512 29.057 19.058V24H28.007V17.238H29.057V18.218C29.533 17.644 30.457 17.07 31.479 17.07C32.879 17.07 33.621 17.784 33.621 19.254V24ZM40.4047 24H39.3547V14.662H40.4047V24ZM48.1132 24H47.0632V23.048C46.5452 23.636 45.6632 24.168 44.6552 24.168C43.2412 24.168 42.4992 23.468 42.4992 22.012V17.238H43.5492V21.69C43.5492 22.88 44.1512 23.23 45.0752 23.23C45.8872 23.23 46.6712 22.754 47.0632 22.208V17.238H48.1132V24ZM55.0402 24H49.8882V23.174L53.6122 18.162H49.8882V17.238H54.9842V18.036L51.2322 23.076H55.0402V24ZM66.0507 24H65.0147V19.576C65.0147 18.372 64.3987 18.008 63.4887 18.008C62.6627 18.008 61.8927 18.512 61.4867 19.058V24H60.4367V17.238H61.4867V18.218C61.9627 17.644 62.8867 17.07 63.9087 17.07C65.3087 17.07 66.0507 17.784 66.0507 19.254V24ZM73.4393 24H72.3893V23.23C71.8433 23.846 71.0593 24.168 70.1493 24.168C69.0153 24.168 67.7973 23.398 67.7973 21.928C67.7973 20.402 69.0013 19.702 70.1493 19.702C71.0733 19.702 71.8433 19.996 72.3893 20.612V19.394C72.3893 18.498 71.6613 17.98 70.6813 17.98C69.8693 17.98 69.2113 18.26 68.6093 18.918L68.1193 18.19C68.8473 17.434 69.7153 17.07 70.8213 17.07C72.2633 17.07 73.4393 17.714 73.4393 19.352V24ZM70.5413 23.412C71.2693 23.412 71.9833 23.132 72.3893 22.572V21.284C71.9833 20.738 71.2693 20.458 70.5413 20.458C69.5473 20.458 68.8613 21.074 68.8613 21.928C68.8613 22.796 69.5473 23.412 70.5413 23.412ZM77.2798 24.168C76.2718 24.168 75.7678 23.594 75.7678 22.586V18.162H74.6478V17.238H75.7678V15.39H76.8318V17.238H78.2038V18.162H76.8318V22.362C76.8318 22.866 77.0558 23.23 77.5038 23.23C77.8118 23.23 78.0778 23.09 78.2178 22.936L78.5258 23.734C78.2598 23.986 77.8818 24.168 77.2798 24.168ZM85.287 24H84.237V23.048C83.719 23.636 82.837 24.168 81.829 24.168C80.415 24.168 79.673 23.468 79.673 22.012V17.238H80.723V21.69C80.723 22.88 81.325 23.23 82.249 23.23C83.061 23.23 83.845 22.754 84.237 22.208V17.238H85.287V24ZM88.434 24H87.384V17.238H88.434V18.316C88.98 17.616 89.764 17.084 90.688 17.084V18.162C90.562 18.148 90.436 18.134 90.282 18.134C89.624 18.134 88.742 18.666 88.434 19.212V24ZM97.2831 24H96.2331V23.23C95.6871 23.846 94.9031 24.168 93.9931 24.168C92.8591 24.168 91.6411 23.398 91.6411 21.928C91.6411 20.402 92.8451 19.702 93.9931 19.702C94.9171 19.702 95.6871 19.996 96.2331 20.612V19.394C96.2331 18.498 95.5051 17.98 94.5251 17.98C93.7131 17.98 93.0551 18.26 92.4531 18.918L91.9631 18.19C92.6911 17.434 93.5591 17.07 94.6651 17.07C96.1071 17.07 97.2831 17.714 97.2831 19.352V24ZM94.3851 23.412C95.1131 23.412 95.8271 23.132 96.2331 22.572V21.284C95.8271 20.738 95.1131 20.458 94.3851 20.458C93.3911 20.458 92.7051 21.074 92.7051 21.928C92.7051 22.796 93.3911 23.412 94.3851 23.412ZM100.452 24H99.4016V14.662H100.452V24ZM103.106 24.14C102.686 24.14 102.336 23.79 102.336 23.37C102.336 22.95 102.686 22.6 103.106 22.6C103.526 22.6 103.876 22.95 103.876 23.37C103.876 23.79 103.526 24.14 103.106 24.14ZM3.02321 34.612C3.02321 35.424 2.33721 36.11 1.51121 36.11C0.685211 36.11 -0.000789002 35.424 -0.000789002 34.612C-0.000789002 33.786 0.685211 33.1 1.51121 33.1C2.33721 33.1 3.02321 33.786 3.02321 34.612ZM17.516 38.168C14.828 38.168 12.714 36.208 12.714 33.338C12.714 30.468 14.828 28.508 17.516 28.508C19.168 28.508 20.316 29.292 21.058 30.356L20.092 30.902C19.56 30.104 18.58 29.544 17.516 29.544C15.472 29.544 13.918 31.098 13.918 33.338C13.918 35.55 15.472 37.132 17.516 37.132C18.58 37.132 19.56 36.558 20.092 35.774L21.072 36.306C20.288 37.384 19.168 38.168 17.516 38.168ZM25.4649 38.168C23.4069 38.168 22.1189 36.572 22.1189 34.612C22.1189 32.652 23.4069 31.07 25.4649 31.07C27.5229 31.07 28.8109 32.652 28.8109 34.612C28.8109 36.572 27.5229 38.168 25.4649 38.168ZM25.4649 37.23C26.9069 37.23 27.7049 35.998 27.7049 34.612C27.7049 33.24 26.9069 32.008 25.4649 32.008C24.0229 32.008 23.2249 33.24 23.2249 34.612C23.2249 35.998 24.0229 37.23 25.4649 37.23ZM31.5727 38H30.5227V28.662H31.5727V38ZM36.6212 38.168C34.5632 38.168 33.2752 36.572 33.2752 34.612C33.2752 32.652 34.5632 31.07 36.6212 31.07C38.6792 31.07 39.9672 32.652 39.9672 34.612C39.9672 36.572 38.6792 38.168 36.6212 38.168ZM36.6212 37.23C38.0632 37.23 38.8612 35.998 38.8612 34.612C38.8612 33.24 38.0632 32.008 36.6212 32.008C35.1792 32.008 34.3812 33.24 34.3812 34.612C34.3812 35.998 35.1792 37.23 36.6212 37.23ZM44.6609 38.168C42.6449 38.168 41.2869 36.614 41.2869 34.612C41.2869 32.61 42.6449 31.07 44.6609 31.07C45.8929 31.07 46.6209 31.574 47.1389 32.246L46.4389 32.876C45.9909 32.26 45.4169 32.008 44.7169 32.008C43.2889 32.008 42.3789 33.114 42.3789 34.612C42.3789 36.11 43.2889 37.23 44.7169 37.23C45.4169 37.23 45.9909 36.95 46.4389 36.348L47.1389 36.992C46.6209 37.664 45.8929 38.168 44.6609 38.168ZM53.9022 38H52.8522V37.23C52.3062 37.846 51.5222 38.168 50.6122 38.168C49.4782 38.168 48.2602 37.398 48.2602 35.928C48.2602 34.402 49.4642 33.702 50.6122 33.702C51.5362 33.702 52.3062 33.996 52.8522 34.612V33.394C52.8522 32.498 52.1242 31.98 51.1442 31.98C50.3322 31.98 49.6742 32.26 49.0722 32.918L48.5822 32.19C49.3102 31.434 50.1782 31.07 51.2842 31.07C52.7262 31.07 53.9022 31.714 53.9022 33.352V38ZM51.0042 37.412C51.7322 37.412 52.4462 37.132 52.8522 36.572V35.284C52.4462 34.738 51.7322 34.458 51.0042 34.458C50.0102 34.458 49.3242 35.074 49.3242 35.928C49.3242 36.796 50.0102 37.412 51.0042 37.412ZM62.7097 38.168C60.6938 38.168 59.2518 36.726 59.2518 34.612C59.2518 32.652 60.6517 31.07 62.5838 31.07C64.6278 31.07 65.8318 32.666 65.8318 34.696V34.962H60.3718C60.4558 36.236 61.3378 37.3 62.7938 37.3C63.5778 37.3 64.3478 36.992 64.8938 36.432L65.3978 37.118C64.7118 37.79 63.8018 38.168 62.7097 38.168ZM64.7958 34.178C64.7818 33.184 64.1098 31.938 62.5698 31.938C61.1278 31.938 60.4138 33.156 60.3578 34.178H64.7958ZM68.5824 38H67.5324V28.662H68.5824V38ZM76.022 38.168C75.014 38.168 74.51 37.594 74.51 36.586V32.162H73.39V31.238H74.51V29.39H75.574V31.238H76.946V32.162H75.574V36.362C75.574 36.866 75.798 37.23 76.246 37.23C76.554 37.23 76.82 37.09 76.96 36.936L77.268 37.734C77.002 37.986 76.624 38.168 76.022 38.168ZM81.4812 38.168C79.4652 38.168 78.0232 36.726 78.0232 34.612C78.0232 32.652 79.4232 31.07 81.3552 31.07C83.3992 31.07 84.6032 32.666 84.6032 34.696V34.962H79.1432C79.2272 36.236 80.1092 37.3 81.5652 37.3C82.3492 37.3 83.1192 36.992 83.6652 36.432L84.1692 37.118C83.4832 37.79 82.5732 38.168 81.4812 38.168ZM83.5672 34.178C83.5532 33.184 82.8812 31.938 81.3412 31.938C79.8992 31.938 79.1852 33.156 79.1292 34.178H83.5672ZM87.3539 38H86.3039V28.662H87.3539V38ZM92.5144 38.168C90.4984 38.168 89.0564 36.726 89.0564 34.612C89.0564 32.652 90.4564 31.07 92.3884 31.07C94.4324 31.07 95.6364 32.666 95.6364 34.696V34.962H90.1764C90.2604 36.236 91.1424 37.3 92.5984 37.3C93.3824 37.3 94.1524 36.992 94.6984 36.432L95.2024 37.118C94.5164 37.79 93.6064 38.168 92.5144 38.168ZM94.6004 34.178C94.5864 33.184 93.9144 31.938 92.3744 31.938C90.9324 31.938 90.2184 33.156 90.1624 34.178H94.6004ZM94.6424 28.2L92.2764 30.216H91.4784L93.5504 28.2H94.6424ZM98.6811 38H97.6311V32.162H96.5111V31.238H97.6311V30.72C97.6311 29.334 98.4011 28.522 99.5911 28.522C100.137 28.522 100.599 28.648 101.019 29.04L100.585 29.712C100.361 29.516 100.095 29.39 99.7591 29.39C99.0591 29.39 98.6811 29.852 98.6811 30.72V31.238H100.053V32.162H98.6811V38ZM104.27 38.168C102.212 38.168 100.924 36.572 100.924 34.612C100.924 32.652 102.212 31.07 104.27 31.07C106.328 31.07 107.616 32.652 107.616 34.612C107.616 36.572 106.328 38.168 104.27 38.168ZM104.27 37.23C105.712 37.23 106.51 35.998 106.51 34.612C106.51 33.24 105.712 32.008 104.27 32.008C102.828 32.008 102.03 33.24 102.03 34.612C102.03 35.998 102.828 37.23 104.27 37.23ZM114.941 38H113.905V33.576C113.905 32.372 113.289 32.008 112.379 32.008C111.553 32.008 110.783 32.512 110.377 33.058V38H109.327V31.238H110.377V32.218C110.853 31.644 111.777 31.07 112.799 31.07C114.199 31.07 114.941 31.784 114.941 33.254V38ZM120.006 38.168C117.948 38.168 116.66 36.572 116.66 34.612C116.66 32.652 117.948 31.07 120.006 31.07C122.064 31.07 123.352 32.652 123.352 34.612C123.352 36.572 122.064 38.168 120.006 38.168ZM120.006 37.23C121.448 37.23 122.246 35.998 122.246 34.612C122.246 33.24 121.448 32.008 120.006 32.008C118.564 32.008 117.766 33.24 117.766 34.612C117.766 35.998 118.564 37.23 120.006 37.23ZM131.753 38.168C129.737 38.168 128.295 36.726 128.295 34.612C128.295 32.652 129.695 31.07 131.627 31.07C133.671 31.07 134.875 32.666 134.875 34.696V34.962H129.415C129.499 36.236 130.381 37.3 131.837 37.3C132.621 37.3 133.391 36.992 133.937 36.432L134.441 37.118C133.755 37.79 132.845 38.168 131.753 38.168ZM133.839 34.178C133.825 33.184 133.153 31.938 131.613 31.938C130.171 31.938 129.457 33.156 129.401 34.178H133.839ZM142.189 38H141.153V33.576C141.153 32.372 140.537 32.008 139.627 32.008C138.801 32.008 138.031 32.512 137.625 33.058V38H136.575V31.238H137.625V32.218C138.101 31.644 139.025 31.07 140.047 31.07C141.447 31.07 142.189 31.784 142.189 33.254V38ZM153.537 38H152.487V37.048C151.969 37.636 151.087 38.168 150.079 38.168C148.665 38.168 147.923 37.468 147.923 36.012V31.238H148.973V35.69C148.973 36.88 149.575 37.23 150.499 37.23C151.311 37.23 152.095 36.754 152.487 36.208V31.238H153.537V38ZM161.248 38H160.212V33.576C160.212 32.372 159.596 32.008 158.686 32.008C157.86 32.008 157.09 32.512 156.684 33.058V38H155.634V31.238H156.684V32.218C157.16 31.644 158.084 31.07 159.106 31.07C160.506 31.07 161.248 31.784 161.248 33.254V38ZM168.637 38H167.587V37.23C167.041 37.846 166.257 38.168 165.347 38.168C164.213 38.168 162.995 37.398 162.995 35.928C162.995 34.402 164.199 33.702 165.347 33.702C166.271 33.702 167.041 33.996 167.587 34.612V33.394C167.587 32.498 166.859 31.98 165.879 31.98C165.067 31.98 164.409 32.26 163.807 32.918L163.317 32.19C164.045 31.434 164.913 31.07 166.019 31.07C167.461 31.07 168.637 31.714 168.637 33.352V38ZM165.739 37.412C166.467 37.412 167.181 37.132 167.587 36.572V35.284C167.181 34.738 166.467 34.458 165.739 34.458C164.745 34.458 164.059 35.074 164.059 35.928C164.059 36.796 164.745 37.412 165.739 37.412ZM183.59 38H182.54V33.408C182.54 32.554 182.176 32.008 181.294 32.008C180.594 32.008 179.852 32.498 179.502 33.044V38H178.452V33.408C178.452 32.554 178.102 32.008 177.206 32.008C176.52 32.008 175.792 32.512 175.428 33.058V38H174.378V31.238H175.428V32.218C175.722 31.784 176.618 31.07 177.626 31.07C178.648 31.07 179.236 31.63 179.432 32.33C179.81 31.714 180.72 31.07 181.7 31.07C182.932 31.07 183.59 31.756 183.59 33.114V38ZM188.751 38.168C186.735 38.168 185.293 36.726 185.293 34.612C185.293 32.652 186.693 31.07 188.625 31.07C190.669 31.07 191.873 32.666 191.873 34.696V34.962H186.413C186.497 36.236 187.379 37.3 188.835 37.3C189.619 37.3 190.389 36.992 190.935 36.432L191.439 37.118C190.753 37.79 189.843 38.168 188.751 38.168ZM190.837 34.178C190.823 33.184 190.151 31.938 188.611 31.938C187.169 31.938 186.455 33.156 186.399 34.178H190.837ZM195.729 38.168C194.609 38.168 193.685 37.818 192.999 37.104L193.531 36.348C193.979 36.866 194.833 37.314 195.757 37.314C196.793 37.314 197.367 36.824 197.367 36.152C197.367 34.514 193.181 35.522 193.181 33.016C193.181 31.952 194.077 31.07 195.687 31.07C196.849 31.07 197.661 31.504 198.193 32.05L197.703 32.778C197.297 32.288 196.569 31.924 195.687 31.924C194.763 31.924 194.189 32.386 194.189 32.988C194.189 34.458 198.375 33.492 198.375 36.124C198.375 37.258 197.465 38.168 195.729 38.168ZM205.359 38H204.309V37.23C203.763 37.846 202.979 38.168 202.069 38.168C200.935 38.168 199.717 37.398 199.717 35.928C199.717 34.402 200.921 33.702 202.069 33.702C202.993 33.702 203.763 33.996 204.309 34.612V33.394C204.309 32.498 203.581 31.98 202.601 31.98C201.789 31.98 201.131 32.26 200.529 32.918L200.039 32.19C200.767 31.434 201.635 31.07 202.741 31.07C204.183 31.07 205.359 31.714 205.359 33.352V38ZM202.461 37.412C203.189 37.412 203.903 37.132 204.309 36.572V35.284C203.903 34.738 203.189 34.458 202.461 34.458C201.467 34.458 200.781 35.074 200.781 35.928C200.781 36.796 201.467 37.412 202.461 37.412ZM214.055 38.168C211.997 38.168 210.709 36.572 210.709 34.612C210.709 32.652 211.997 31.07 214.055 31.07C216.113 31.07 217.401 32.652 217.401 34.612C217.401 36.572 216.113 38.168 214.055 38.168ZM214.055 37.23C215.497 37.23 216.295 35.998 216.295 34.612C216.295 33.24 215.497 32.008 214.055 32.008C212.613 32.008 211.815 33.24 211.815 34.612C211.815 35.998 212.613 37.23 214.055 37.23ZM224.892 38.168C223.772 38.168 222.848 37.818 222.162 37.104L222.694 36.348C223.142 36.866 223.996 37.314 224.92 37.314C225.956 37.314 226.53 36.824 226.53 36.152C226.53 34.514 222.344 35.522 222.344 33.016C222.344 31.952 223.24 31.07 224.85 31.07C226.012 31.07 226.824 31.504 227.356 32.05L226.866 32.778C226.46 32.288 225.732 31.924 224.85 31.924C223.926 31.924 223.352 32.386 223.352 32.988C223.352 34.458 227.538 33.492 227.538 36.124C227.538 37.258 226.628 38.168 224.892 38.168ZM234.857 38H233.807V37.048C233.289 37.636 232.407 38.168 231.399 38.168C229.985 38.168 229.243 37.468 229.243 36.012V31.238H230.293V35.69C230.293 36.88 230.895 37.23 231.819 37.23C232.631 37.23 233.415 36.754 233.807 36.208V31.238H234.857V38ZM240.286 38.168C239.362 38.168 238.564 37.72 238.004 36.978V40.576H236.954V31.238H238.004V32.246C238.494 31.56 239.334 31.07 240.286 31.07C242.064 31.07 243.296 32.414 243.296 34.612C243.296 36.796 242.064 38.168 240.286 38.168ZM240.02 37.23C241.378 37.23 242.19 36.11 242.19 34.612C242.19 33.114 241.378 32.008 240.02 32.008C239.194 32.008 238.368 32.498 238.004 33.086V36.138C238.368 36.726 239.194 37.23 240.02 37.23ZM248.032 38.168C246.016 38.168 244.574 36.726 244.574 34.612C244.574 32.652 245.974 31.07 247.906 31.07C249.95 31.07 251.154 32.666 251.154 34.696V34.962H245.694C245.778 36.236 246.66 37.3 248.116 37.3C248.9 37.3 249.67 36.992 250.216 36.432L250.72 37.118C250.034 37.79 249.124 38.168 248.032 38.168ZM250.118 34.178C250.104 33.184 249.432 31.938 247.892 31.938C246.45 31.938 245.736 33.156 245.68 34.178H250.118ZM253.905 38H252.855V31.238H253.905V32.316C254.451 31.616 255.235 31.084 256.159 31.084V32.162C256.033 32.148 255.907 32.134 255.753 32.134C255.095 32.134 254.213 32.666 253.905 33.212V38ZM258.82 38H257.77V32.162H256.65V31.238H257.77V30.72C257.77 29.32 258.568 28.522 259.73 28.522C260.136 28.522 260.486 28.592 260.766 28.746L260.5 29.544C260.332 29.446 260.15 29.39 259.898 29.39C259.198 29.39 258.82 29.852 258.82 30.72V31.238H260.192V32.162H258.82V38ZM261.984 30.272C261.592 30.272 261.27 29.964 261.27 29.572C261.27 29.18 261.592 28.858 261.984 28.858C262.376 28.858 262.684 29.18 262.684 29.572C262.684 29.964 262.376 30.272 261.984 30.272ZM262.502 38H261.452V31.238H262.502V38ZM267.581 38.168C265.565 38.168 264.207 36.614 264.207 34.612C264.207 32.61 265.565 31.07 267.581 31.07C268.813 31.07 269.541 31.574 270.059 32.246L269.359 32.876C268.911 32.26 268.337 32.008 267.637 32.008C266.209 32.008 265.299 33.114 265.299 34.612C265.299 36.11 266.209 37.23 267.637 37.23C268.337 37.23 268.911 36.95 269.359 36.348L270.059 36.992C269.541 37.664 268.813 38.168 267.581 38.168ZM272.076 30.272C271.684 30.272 271.362 29.964 271.362 29.572C271.362 29.18 271.684 28.858 272.076 28.858C272.468 28.858 272.776 29.18 272.776 29.572C272.776 29.964 272.468 30.272 272.076 30.272ZM272.594 38H271.544V31.238H272.594V38ZM277.755 38.168C275.739 38.168 274.297 36.726 274.297 34.612C274.297 32.652 275.697 31.07 277.629 31.07C279.673 31.07 280.877 32.666 280.877 34.696V34.962H275.417C275.501 36.236 276.383 37.3 277.839 37.3C278.623 37.3 279.393 36.992 279.939 36.432L280.443 37.118C279.757 37.79 278.847 38.168 277.755 38.168ZM279.841 34.178C279.827 33.184 279.155 31.938 277.615 31.938C276.173 31.938 275.459 33.156 275.403 34.178H279.841ZM283.042 38.14C282.622 38.14 282.272 37.79 282.272 37.37C282.272 36.95 282.622 36.6 283.042 36.6C283.462 36.6 283.812 36.95 283.812 37.37C283.812 37.79 283.462 38.14 283.042 38.14ZM3.02321 48.612C3.02321 49.424 2.33721 50.11 1.51121 50.11C0.685211 50.11 -0.000789002 49.424 -0.000789002 48.612C-0.000789002 47.786 0.685211 47.1 1.51121 47.1C2.33721 47.1 3.02321 47.786 3.02321 48.612ZM17.516 52.168C14.828 52.168 12.714 50.208 12.714 47.338C12.714 44.468 14.828 42.508 17.516 42.508C19.168 42.508 20.316 43.292 21.058 44.356L20.092 44.902C19.56 44.104 18.58 43.544 17.516 43.544C15.472 43.544 13.918 45.098 13.918 47.338C13.918 49.55 15.472 51.132 17.516 51.132C18.58 51.132 19.56 50.558 20.092 49.774L21.072 50.306C20.288 51.384 19.168 52.168 17.516 52.168ZM25.5769 52.168C23.5609 52.168 22.1189 50.726 22.1189 48.612C22.1189 46.652 23.5189 45.07 25.4509 45.07C27.4949 45.07 28.6989 46.666 28.6989 48.696V48.962H23.2389C23.3229 50.236 24.2049 51.3 25.6609 51.3C26.4449 51.3 27.2149 50.992 27.7609 50.432L28.2649 51.118C27.5789 51.79 26.6689 52.168 25.5769 52.168ZM27.6629 48.178C27.6489 47.184 26.9769 45.938 25.4369 45.938C23.9949 45.938 23.2809 47.156 23.2249 48.178H27.6629ZM36.0136 52H34.9776V47.576C34.9776 46.372 34.3616 46.008 33.4516 46.008C32.6256 46.008 31.8556 46.512 31.4496 47.058V52H30.3996V45.238H31.4496V46.218C31.9256 45.644 32.8496 45.07 33.8716 45.07C35.2716 45.07 36.0136 45.784 36.0136 47.254V52ZM39.8462 52.168C38.8382 52.168 38.3342 51.594 38.3342 50.586V46.162H37.2142V45.238H38.3342V43.39H39.3982V45.238H40.7702V46.162H39.3982V50.362C39.3982 50.866 39.6222 51.23 40.0702 51.23C40.3782 51.23 40.6442 51.09 40.7842 50.936L41.0922 51.734C40.8262 51.986 40.4482 52.168 39.8462 52.168ZM43.2895 52H42.2395V45.238H43.2895V46.316C43.8355 45.616 44.6195 45.084 45.5435 45.084V46.162C45.4175 46.148 45.2915 46.134 45.1375 46.134C44.4795 46.134 43.5975 46.666 43.2895 47.212V52ZM52.1385 52H51.0885V51.23C50.5425 51.846 49.7585 52.168 48.8485 52.168C47.7145 52.168 46.4965 51.398 46.4965 49.928C46.4965 48.402 47.7005 47.702 48.8485 47.702C49.7725 47.702 50.5425 47.996 51.0885 48.612V47.394C51.0885 46.498 50.3605 45.98 49.3805 45.98C48.5685 45.98 47.9105 46.26 47.3085 46.918L46.8185 46.19C47.5465 45.434 48.4145 45.07 49.5205 45.07C50.9625 45.07 52.1385 45.714 52.1385 47.352V52ZM49.2405 51.412C49.9685 51.412 50.6825 51.132 51.0885 50.572V49.284C50.6825 48.738 49.9685 48.458 49.2405 48.458C48.2465 48.458 47.5605 49.074 47.5605 49.928C47.5605 50.796 48.2465 51.412 49.2405 51.412ZM59.6021 52.168C58.5941 52.168 58.0901 51.594 58.0901 50.586V46.162H56.9701V45.238H58.0901V43.39H59.1541V45.238H60.5261V46.162H59.1541V50.362C59.1541 50.866 59.3781 51.23 59.8261 51.23C60.1341 51.23 60.4001 51.09 60.5401 50.936L60.8481 51.734C60.5821 51.986 60.2041 52.168 59.6021 52.168ZM67.6093 52H66.5593V51.048C66.0413 51.636 65.1593 52.168 64.1513 52.168C62.7373 52.168 61.9953 51.468 61.9953 50.012V45.238H63.0453V49.69C63.0453 50.88 63.6473 51.23 64.5713 51.23C65.3833 51.23 66.1673 50.754 66.5593 50.208V45.238H67.6093V52ZM76.3113 52.168C74.2953 52.168 72.9373 50.614 72.9373 48.612C72.9373 46.61 74.2953 45.07 76.3113 45.07C77.5433 45.07 78.2713 45.574 78.7893 46.246L78.0893 46.876C77.6413 46.26 77.0673 46.008 76.3673 46.008C74.9393 46.008 74.0293 47.114 74.0293 48.612C74.0293 50.11 74.9393 51.23 76.3673 51.23C77.0673 51.23 77.6413 50.95 78.0893 50.348L78.7893 50.992C78.2713 51.664 77.5433 52.168 76.3113 52.168ZM85.5526 52H84.5026V51.23C83.9566 51.846 83.1726 52.168 82.2626 52.168C81.1286 52.168 79.9106 51.398 79.9106 49.928C79.9106 48.402 81.1146 47.702 82.2626 47.702C83.1866 47.702 83.9566 47.996 84.5026 48.612V47.394C84.5026 46.498 83.7746 45.98 82.7946 45.98C81.9826 45.98 81.3246 46.26 80.7226 46.918L80.2326 46.19C80.9606 45.434 81.8286 45.07 82.9346 45.07C84.3766 45.07 85.5526 45.714 85.5526 47.352V52ZM82.6546 51.412C83.3826 51.412 84.0966 51.132 84.5026 50.572V49.284C84.0966 48.738 83.3826 48.458 82.6546 48.458C81.6606 48.458 80.9746 49.074 80.9746 49.928C80.9746 50.796 81.6606 51.412 82.6546 51.412ZM88.7211 52H87.6711V45.238H88.7211V46.316C89.2671 45.616 90.0511 45.084 90.9751 45.084V46.162C90.8491 46.148 90.7231 46.134 90.5691 46.134C89.9111 46.134 89.0291 46.666 88.7211 47.212V52ZM97.5702 52H96.5202V51.23C95.9742 51.846 95.1902 52.168 94.2802 52.168C93.1462 52.168 91.9282 51.398 91.9282 49.928C91.9282 48.402 93.1322 47.702 94.2802 47.702C95.2042 47.702 95.9742 47.996 96.5202 48.612V47.394C96.5202 46.498 95.7922 45.98 94.8122 45.98C94.0002 45.98 93.3422 46.26 92.7402 46.918L92.2502 46.19C92.9782 45.434 93.8462 45.07 94.9522 45.07C96.3942 45.07 97.5702 45.714 97.5702 47.352V52ZM94.6722 51.412C95.4002 51.412 96.1142 51.132 96.5202 50.572V49.284C96.1142 48.738 95.4002 48.458 94.6722 48.458C93.6782 48.458 92.9922 49.074 92.9922 49.928C92.9922 50.796 93.6782 51.412 94.6722 51.412ZM106.378 52.168C104.362 52.168 102.92 50.726 102.92 48.612C102.92 46.652 104.32 45.07 106.252 45.07C108.296 45.07 109.5 46.666 109.5 48.696V48.962H104.04C104.124 50.236 105.006 51.3 106.462 51.3C107.246 51.3 108.016 50.992 108.562 50.432L109.066 51.118C108.38 51.79 107.47 52.168 106.378 52.168ZM108.464 48.178C108.45 47.184 107.778 45.938 106.238 45.938C104.796 45.938 104.082 47.156 104.026 48.178H108.464ZM116.814 52H115.778V47.576C115.778 46.372 115.162 46.008 114.252 46.008C113.426 46.008 112.656 46.512 112.25 47.058V52H111.2V45.238H112.25V46.218C112.726 45.644 113.65 45.07 114.672 45.07C116.072 45.07 116.814 45.784 116.814 47.254V52ZM125.614 52.168C123.598 52.168 122.156 50.726 122.156 48.612C122.156 46.652 123.556 45.07 125.488 45.07C127.532 45.07 128.736 46.666 128.736 48.696V48.962H123.276C123.36 50.236 124.242 51.3 125.698 51.3C126.482 51.3 127.252 50.992 127.798 50.432L128.302 51.118C127.616 51.79 126.706 52.168 125.614 52.168ZM127.7 48.178C127.686 47.184 127.014 45.938 125.474 45.938C124.032 45.938 123.318 47.156 123.262 48.178H127.7ZM131.487 52H130.437V42.662H131.487V52ZM140.186 52.168C138.17 52.168 136.812 50.614 136.812 48.612C136.812 46.61 138.17 45.07 140.186 45.07C141.418 45.07 142.146 45.574 142.664 46.246L141.964 46.876C141.516 46.26 140.942 46.008 140.242 46.008C138.814 46.008 137.904 47.114 137.904 48.612C137.904 50.11 138.814 51.23 140.242 51.23C140.942 51.23 141.516 50.95 141.964 50.348L142.664 50.992C142.146 51.664 141.418 52.168 140.186 52.168ZM146.922 42.2L144.556 44.216H143.758L145.83 42.2H146.922ZM145.2 52H144.15V45.238H145.2V52ZM148.344 52H147.294V45.238H148.344V46.316C148.89 45.616 149.674 45.084 150.598 45.084V46.162C150.472 46.148 150.346 46.134 150.192 46.134C149.534 46.134 148.652 46.666 148.344 47.212V52ZM154.897 52.168C152.881 52.168 151.523 50.614 151.523 48.612C151.523 46.61 152.881 45.07 154.897 45.07C156.129 45.07 156.857 45.574 157.375 46.246L156.675 46.876C156.227 46.26 155.653 46.008 154.953 46.008C153.525 46.008 152.615 47.114 152.615 48.612C152.615 50.11 153.525 51.23 154.953 51.23C155.653 51.23 156.227 50.95 156.675 50.348L157.375 50.992C156.857 51.664 156.129 52.168 154.897 52.168ZM164.475 52H163.425V51.048C162.907 51.636 162.025 52.168 161.017 52.168C159.603 52.168 158.861 51.468 158.861 50.012V45.238H159.911V49.69C159.911 50.88 160.513 51.23 161.437 51.23C162.249 51.23 163.033 50.754 163.425 50.208V45.238H164.475V52ZM167.621 52H166.571V42.662H167.621V52ZM172.67 52.168C170.612 52.168 169.324 50.572 169.324 48.612C169.324 46.652 170.612 45.07 172.67 45.07C174.728 45.07 176.016 46.652 176.016 48.612C176.016 50.572 174.728 52.168 172.67 52.168ZM172.67 51.23C174.112 51.23 174.91 49.998 174.91 48.612C174.91 47.24 174.112 46.008 172.67 46.008C171.228 46.008 170.43 47.24 170.43 48.612C170.43 49.998 171.228 51.23 172.67 51.23ZM187.301 52H186.251V50.992C185.747 51.678 184.921 52.168 183.969 52.168C182.205 52.168 180.959 50.824 180.959 48.626C180.959 46.456 182.205 45.07 183.969 45.07C184.879 45.07 185.705 45.518 186.251 46.26V42.662H187.301V52ZM184.235 51.23C185.061 51.23 185.887 50.74 186.251 50.152V47.1C185.887 46.512 185.061 46.008 184.235 46.008C182.863 46.008 182.051 47.128 182.051 48.626C182.051 50.124 182.863 51.23 184.235 51.23ZM195.018 52H193.968V51.048C193.45 51.636 192.568 52.168 191.56 52.168C190.146 52.168 189.404 51.468 189.404 50.012V45.238H190.454V49.69C190.454 50.88 191.056 51.23 191.98 51.23C192.792 51.23 193.576 50.754 193.968 50.208V45.238H195.018V52ZM198.164 52H197.114V45.238H198.164V46.316C198.71 45.616 199.494 45.084 200.418 45.084V46.162C200.292 46.148 200.166 46.134 200.012 46.134C199.354 46.134 198.472 46.666 198.164 47.212V52ZM207.014 52H205.964V51.23C205.418 51.846 204.634 52.168 203.724 52.168C202.59 52.168 201.372 51.398 201.372 49.928C201.372 48.402 202.576 47.702 203.724 47.702C204.648 47.702 205.418 47.996 205.964 48.612V47.394C205.964 46.498 205.236 45.98 204.256 45.98C203.444 45.98 202.786 46.26 202.184 46.918L201.694 46.19C202.422 45.434 203.29 45.07 204.396 45.07C205.838 45.07 207.014 45.714 207.014 47.352V52ZM204.116 51.412C204.844 51.412 205.558 51.132 205.964 50.572V49.284C205.558 48.738 204.844 48.458 204.116 48.458C203.122 48.458 202.436 49.074 202.436 49.928C202.436 50.796 203.122 51.412 204.116 51.412ZM214.746 52H213.71V47.576C213.71 46.372 213.094 46.008 212.184 46.008C211.358 46.008 210.588 46.512 210.182 47.058V52H209.132V45.238H210.182V46.218C210.658 45.644 211.582 45.07 212.604 45.07C214.004 45.07 214.746 45.784 214.746 47.254V52ZM218.579 52.168C217.571 52.168 217.067 51.594 217.067 50.586V46.162H215.947V45.238H217.067V43.39H218.131V45.238H219.503V46.162H218.131V50.362C218.131 50.866 218.355 51.23 218.803 51.23C219.111 51.23 219.377 51.09 219.517 50.936L219.825 51.734C219.559 51.986 219.181 52.168 218.579 52.168ZM224.038 52.168C222.022 52.168 220.58 50.726 220.58 48.612C220.58 46.652 221.98 45.07 223.912 45.07C225.956 45.07 227.16 46.666 227.16 48.696V48.962H221.7C221.784 50.236 222.666 51.3 224.122 51.3C224.906 51.3 225.676 50.992 226.222 50.432L226.726 51.118C226.04 51.79 225.13 52.168 224.038 52.168ZM226.124 48.178C226.11 47.184 225.438 45.938 223.898 45.938C222.456 45.938 221.742 47.156 221.686 48.178H226.124ZM233.534 52H232.484V42.662H233.534V52ZM240.906 52H239.856V51.23C239.31 51.846 238.526 52.168 237.616 52.168C236.482 52.168 235.264 51.398 235.264 49.928C235.264 48.402 236.468 47.702 237.616 47.702C238.54 47.702 239.31 47.996 239.856 48.612V47.394C239.856 46.498 239.128 45.98 238.148 45.98C237.336 45.98 236.678 46.26 236.076 46.918L235.586 46.19C236.314 45.434 237.182 45.07 238.288 45.07C239.73 45.07 240.906 45.714 240.906 47.352V52ZM238.008 51.412C238.736 51.412 239.45 51.132 239.856 50.572V49.284C239.45 48.738 238.736 48.458 238.008 48.458C237.014 48.458 236.328 49.074 236.328 49.928C236.328 50.796 237.014 51.412 238.008 51.412ZM255.86 52H254.81V47.408C254.81 46.554 254.446 46.008 253.564 46.008C252.864 46.008 252.122 46.498 251.772 47.044V52H250.722V47.408C250.722 46.554 250.372 46.008 249.476 46.008C248.79 46.008 248.062 46.512 247.698 47.058V52H246.648V45.238H247.698V46.218C247.992 45.784 248.888 45.07 249.896 45.07C250.918 45.07 251.506 45.63 251.702 46.33C252.08 45.714 252.99 45.07 253.97 45.07C255.202 45.07 255.86 45.756 255.86 47.114V52ZM261.02 52.168C259.004 52.168 257.562 50.726 257.562 48.612C257.562 46.652 258.962 45.07 260.894 45.07C262.938 45.07 264.142 46.666 264.142 48.696V48.962H258.682C258.766 50.236 259.648 51.3 261.104 51.3C261.888 51.3 262.658 50.992 263.204 50.432L263.708 51.118C263.022 51.79 262.112 52.168 261.02 52.168ZM263.106 48.178C263.092 47.184 262.42 45.938 260.88 45.938C259.438 45.938 258.724 47.156 258.668 48.178H263.106ZM271.793 52H270.743V50.992C270.239 51.678 269.413 52.168 268.461 52.168C266.697 52.168 265.451 50.824 265.451 48.626C265.451 46.456 266.697 45.07 268.461 45.07C269.371 45.07 270.197 45.518 270.743 46.26V42.662H271.793V52ZM268.727 51.23C269.553 51.23 270.379 50.74 270.743 50.152V47.1C270.379 46.512 269.553 46.008 268.727 46.008C267.355 46.008 266.543 47.128 266.543 48.626C266.543 50.124 267.355 51.23 268.727 51.23ZM274.428 44.272C274.036 44.272 273.714 43.964 273.714 43.572C273.714 43.18 274.036 42.858 274.428 42.858C274.82 42.858 275.128 43.18 275.128 43.572C275.128 43.964 274.82 44.272 274.428 44.272ZM274.946 52H273.896V45.238H274.946V52ZM280.022 52.168C278.006 52.168 276.648 50.614 276.648 48.612C276.648 46.61 278.006 45.07 280.022 45.07C281.254 45.07 281.982 45.574 282.5 46.246L281.8 46.876C281.352 46.26 280.778 46.008 280.078 46.008C278.65 46.008 277.74 47.114 277.74 48.612C277.74 50.11 278.65 51.23 280.078 51.23C280.778 51.23 281.352 50.95 281.8 50.348L282.5 50.992C281.982 51.664 281.254 52.168 280.022 52.168ZM284.518 44.272C284.126 44.272 283.804 43.964 283.804 43.572C283.804 43.18 284.126 42.858 284.518 42.858C284.91 42.858 285.218 43.18 285.218 43.572C285.218 43.964 284.91 44.272 284.518 44.272ZM285.036 52H283.986V45.238H285.036V52ZM290.084 52.168C288.026 52.168 286.738 50.572 286.738 48.612C286.738 46.652 288.026 45.07 290.084 45.07C292.142 45.07 293.43 46.652 293.43 48.612C293.43 50.572 292.142 52.168 290.084 52.168ZM290.084 51.23C291.526 51.23 292.324 49.998 292.324 48.612C292.324 47.24 291.526 46.008 290.084 46.008C288.642 46.008 287.844 47.24 287.844 48.612C287.844 49.998 288.642 51.23 290.084 51.23ZM292.324 42.2L289.958 44.216H289.16L291.232 42.2H292.324ZM300.756 52H299.72V47.576C299.72 46.372 299.104 46.008 298.194 46.008C297.368 46.008 296.598 46.512 296.192 47.058V52H295.142V45.238H296.192V46.218C296.668 45.644 297.592 45.07 298.614 45.07C300.014 45.07 300.756 45.784 300.756 47.254V52ZM303.426 52.14C303.006 52.14 302.656 51.79 302.656 51.37C302.656 50.95 303.006 50.6 303.426 50.6C303.846 50.6 304.196 50.95 304.196 51.37C304.196 51.79 303.846 52.14 303.426 52.14ZM3.02321 62.612C3.02321 63.424 2.33721 64.11 1.51121 64.11C0.685211 64.11 -0.000789002 63.424 -0.000789002 62.612C-0.000789002 61.786 0.685211 61.1 1.51121 61.1C2.33721 61.1 3.02321 61.786 3.02321 62.612ZM14.254 66H13.092V56.662H16.844C18.72 56.662 19.77 57.95 19.77 59.476C19.77 61.002 18.706 62.29 16.844 62.29H14.254V66ZM16.704 61.254C17.81 61.254 18.566 60.526 18.566 59.476C18.566 58.426 17.81 57.698 16.704 57.698H14.254V61.254H16.704ZM22.3168 66H21.2668V59.238H22.3168V60.316C22.8628 59.616 23.6468 59.084 24.5708 59.084V60.162C24.4448 60.148 24.3188 60.134 24.1648 60.134C23.5068 60.134 22.6248 60.666 22.3168 61.212V66ZM28.8419 66.168C26.7839 66.168 25.4959 64.572 25.4959 62.612C25.4959 60.652 26.7839 59.07 28.8419 59.07C30.8999 59.07 32.1879 60.652 32.1879 62.612C32.1879 64.572 30.8999 66.168 28.8419 66.168ZM28.8419 65.23C30.2839 65.23 31.0819 63.998 31.0819 62.612C31.0819 61.24 30.2839 60.008 28.8419 60.008C27.3999 60.008 26.6019 61.24 26.6019 62.612C26.6019 63.998 27.3999 65.23 28.8419 65.23ZM36.8816 66.168C34.8656 66.168 33.5076 64.614 33.5076 62.612C33.5076 60.61 34.8656 59.07 36.8816 59.07C38.1136 59.07 38.8416 59.574 39.3596 60.246L38.6596 60.876C38.2116 60.26 37.6376 60.008 36.9376 60.008C35.5096 60.008 34.5996 61.114 34.5996 62.612C34.5996 64.11 35.5096 65.23 36.9376 65.23C37.6376 65.23 38.2116 64.95 38.6596 64.348L39.3596 64.992C38.8416 65.664 38.1136 66.168 36.8816 66.168ZM46.4589 66H45.4089V65.048C44.8909 65.636 44.0089 66.168 43.0009 66.168C41.5869 66.168 40.8449 65.468 40.8449 64.012V59.238H41.8949V63.69C41.8949 64.88 42.4969 65.23 43.4209 65.23C44.2329 65.23 45.0169 64.754 45.4089 64.208V59.238H46.4589V66ZM49.6059 66H48.5559V59.238H49.6059V60.316C50.1519 59.616 50.9359 59.084 51.8599 59.084V60.162C51.7339 60.148 51.6079 60.134 51.4539 60.134C50.7959 60.134 49.9139 60.666 49.6059 61.212V66ZM58.455 66H57.405V65.23C56.859 65.846 56.075 66.168 55.165 66.168C54.031 66.168 52.813 65.398 52.813 63.928C52.813 62.402 54.017 61.702 55.165 61.702C56.089 61.702 56.859 61.996 57.405 62.612V61.394C57.405 60.498 56.677 59.98 55.697 59.98C54.885 59.98 54.227 60.26 53.625 60.918L53.135 60.19C53.863 59.434 54.731 59.07 55.837 59.07C57.279 59.07 58.455 59.714 58.455 61.352V66ZM55.557 65.412C56.285 65.412 56.999 65.132 57.405 64.572V63.284C56.999 62.738 56.285 62.458 55.557 62.458C54.563 62.458 53.877 63.074 53.877 63.928C53.877 64.796 54.563 65.412 55.557 65.412ZM69.8105 66H68.7745V61.576C68.7745 60.372 68.1585 60.008 67.2485 60.008C66.4225 60.008 65.6525 60.512 65.2465 61.058V66H64.1965V59.238H65.2465V60.218C65.7225 59.644 66.6465 59.07 67.6685 59.07C69.0685 59.07 69.8105 59.784 69.8105 61.254V66ZM74.8751 66.168C72.8171 66.168 71.5291 64.572 71.5291 62.612C71.5291 60.652 72.8171 59.07 74.8751 59.07C76.9331 59.07 78.2211 60.652 78.2211 62.612C78.2211 64.572 76.9331 66.168 74.8751 66.168ZM74.8751 65.23C76.3171 65.23 77.1151 63.998 77.1151 62.612C77.1151 61.24 76.3171 60.008 74.8751 60.008C73.4331 60.008 72.6351 61.24 72.6351 62.612C72.6351 63.998 73.4331 65.23 74.8751 65.23ZM89.1839 66H88.1339V61.548C88.1339 60.344 87.5319 60.008 86.6079 60.008C85.7959 60.008 85.0119 60.512 84.6199 61.058V66H83.5699V56.662H84.6199V60.218C85.0819 59.644 86.0059 59.07 87.0279 59.07C88.4419 59.07 89.1839 59.756 89.1839 61.226V66ZM96.5585 66H95.5085V65.23C94.9625 65.846 94.1785 66.168 93.2685 66.168C92.1345 66.168 90.9165 65.398 90.9165 63.928C90.9165 62.402 92.1205 61.702 93.2685 61.702C94.1925 61.702 94.9625 61.996 95.5085 62.612V61.394C95.5085 60.498 94.7805 59.98 93.8005 59.98C92.9885 59.98 92.3305 60.26 91.7285 60.918L91.2385 60.19C91.9665 59.434 92.8345 59.07 93.9405 59.07C95.3825 59.07 96.5585 59.714 96.5585 61.352V66ZM93.6605 65.412C94.3885 65.412 95.1025 65.132 95.5085 64.572V63.284C95.1025 62.738 94.3885 62.458 93.6605 62.458C92.6665 62.458 91.9805 63.074 91.9805 63.928C91.9805 64.796 92.6665 65.412 93.6605 65.412ZM101.659 66.168C99.643 66.168 98.285 64.614 98.285 62.612C98.285 60.61 99.643 59.07 101.659 59.07C102.891 59.07 103.619 59.574 104.137 60.246L103.437 60.876C102.989 60.26 102.415 60.008 101.715 60.008C100.287 60.008 99.377 61.114 99.377 62.612C99.377 64.11 100.287 65.23 101.715 65.23C102.415 65.23 102.989 64.95 103.437 64.348L104.137 64.992C103.619 65.664 102.891 66.168 101.659 66.168ZM108.688 66.168C106.672 66.168 105.23 64.726 105.23 62.612C105.23 60.652 106.63 59.07 108.562 59.07C110.606 59.07 111.81 60.666 111.81 62.696V62.962H106.35C106.434 64.236 107.316 65.3 108.772 65.3C109.556 65.3 110.326 64.992 110.872 64.432L111.376 65.118C110.69 65.79 109.78 66.168 108.688 66.168ZM110.774 62.178C110.76 61.184 110.088 59.938 108.548 59.938C107.106 59.938 106.392 61.156 106.336 62.178H110.774ZM114.561 66H113.511V59.238H114.561V60.316C115.107 59.616 115.891 59.084 116.815 59.084V60.162C116.689 60.148 116.563 60.134 116.409 60.134C115.751 60.134 114.869 60.666 114.561 61.212V66ZM130.967 66H129.917V61.408C129.917 60.554 129.553 60.008 128.671 60.008C127.971 60.008 127.229 60.498 126.879 61.044V66H125.829V61.408C125.829 60.554 125.479 60.008 124.583 60.008C123.897 60.008 123.169 60.512 122.805 61.058V66H121.755V59.238H122.805V60.218C123.099 59.784 123.995 59.07 125.003 59.07C126.025 59.07 126.613 59.63 126.809 60.33C127.187 59.714 128.097 59.07 129.077 59.07C130.309 59.07 130.967 59.756 130.967 61.114V66ZM136.016 66.168C133.958 66.168 132.67 64.572 132.67 62.612C132.67 60.652 133.958 59.07 136.016 59.07C138.074 59.07 139.362 60.652 139.362 62.612C139.362 64.572 138.074 66.168 136.016 66.168ZM136.016 65.23C137.458 65.23 138.256 63.998 138.256 62.612C138.256 61.24 137.458 60.008 136.016 60.008C134.574 60.008 133.776 61.24 133.776 62.612C133.776 63.998 134.574 65.23 136.016 65.23ZM144.027 66H142.879L140.065 59.238H141.213L143.453 64.782L145.707 59.238H146.841L144.027 66ZM148.469 58.272C148.077 58.272 147.755 57.964 147.755 57.572C147.755 57.18 148.077 56.858 148.469 56.858C148.861 56.858 149.169 57.18 149.169 57.572C149.169 57.964 148.861 58.272 148.469 58.272ZM148.987 66H147.937V59.238H148.987V66ZM160.293 66H159.243V61.408C159.243 60.554 158.879 60.008 157.997 60.008C157.297 60.008 156.555 60.498 156.205 61.044V66H155.155V61.408C155.155 60.554 154.805 60.008 153.909 60.008C153.223 60.008 152.495 60.512 152.131 61.058V66H151.081V59.238H152.131V60.218C152.425 59.784 153.321 59.07 154.329 59.07C155.351 59.07 155.939 59.63 156.135 60.33C156.513 59.714 157.423 59.07 158.403 59.07C159.635 59.07 160.293 59.756 160.293 61.114V66ZM162.92 58.272C162.528 58.272 162.206 57.964 162.206 57.572C162.206 57.18 162.528 56.858 162.92 56.858C163.312 56.858 163.62 57.18 163.62 57.572C163.62 57.964 163.312 58.272 162.92 58.272ZM163.438 66H162.388V59.238H163.438V66ZM168.598 66.168C166.582 66.168 165.14 64.726 165.14 62.612C165.14 60.652 166.54 59.07 168.472 59.07C170.516 59.07 171.72 60.666 171.72 62.696V62.962H166.26C166.344 64.236 167.226 65.3 168.682 65.3C169.466 65.3 170.236 64.992 170.782 64.432L171.286 65.118C170.6 65.79 169.69 66.168 168.598 66.168ZM170.684 62.178C170.67 61.184 169.998 59.938 168.458 59.938C167.016 59.938 166.302 61.156 166.246 62.178H170.684ZM179.035 66H177.999V61.576C177.999 60.372 177.383 60.008 176.473 60.008C175.647 60.008 174.877 60.512 174.471 61.058V66H173.421V59.238H174.471V60.218C174.947 59.644 175.871 59.07 176.893 59.07C178.293 59.07 179.035 59.784 179.035 61.254V66ZM182.868 66.168C181.86 66.168 181.356 65.594 181.356 64.586V60.162H180.236V59.238H181.356V57.39H182.42V59.238H183.792V60.162H182.42V64.362C182.42 64.866 182.644 65.23 183.092 65.23C183.4 65.23 183.666 65.09 183.806 64.936L184.114 65.734C183.848 65.986 183.47 66.168 182.868 66.168ZM188.215 66.168C186.157 66.168 184.869 64.572 184.869 62.612C184.869 60.652 186.157 59.07 188.215 59.07C190.273 59.07 191.561 60.652 191.561 62.612C191.561 64.572 190.273 66.168 188.215 66.168ZM188.215 65.23C189.657 65.23 190.455 63.998 190.455 62.612C190.455 61.24 189.657 60.008 188.215 60.008C186.773 60.008 185.975 61.24 185.975 62.612C185.975 63.998 186.773 65.23 188.215 65.23ZM195.429 66.168C194.309 66.168 193.385 65.818 192.699 65.104L193.231 64.348C193.679 64.866 194.533 65.314 195.457 65.314C196.493 65.314 197.067 64.824 197.067 64.152C197.067 62.514 192.881 63.522 192.881 61.016C192.881 59.952 193.777 59.07 195.387 59.07C196.549 59.07 197.361 59.504 197.893 60.05L197.403 60.778C196.997 60.288 196.269 59.924 195.387 59.924C194.463 59.924 193.889 60.386 193.889 60.988C193.889 62.458 198.075 61.492 198.075 64.124C198.075 65.258 197.165 66.168 195.429 66.168ZM209.354 66H208.304V64.992C207.8 65.678 206.974 66.168 206.022 66.168C204.258 66.168 203.012 64.824 203.012 62.626C203.012 60.456 204.258 59.07 206.022 59.07C206.932 59.07 207.758 59.518 208.304 60.26V56.662H209.354V66ZM206.288 65.23C207.114 65.23 207.94 64.74 208.304 64.152V61.1C207.94 60.512 207.114 60.008 206.288 60.008C204.916 60.008 204.104 61.128 204.104 62.626C204.104 64.124 204.916 65.23 206.288 65.23ZM217.07 66H216.02V65.048C215.502 65.636 214.62 66.168 213.612 66.168C212.198 66.168 211.456 65.468 211.456 64.012V59.238H212.506V63.69C212.506 64.88 213.108 65.23 214.032 65.23C214.844 65.23 215.628 64.754 216.02 64.208V59.238H217.07V66ZM220.217 66H219.167V59.238H220.217V60.316C220.763 59.616 221.547 59.084 222.471 59.084V60.162C222.345 60.148 222.219 60.134 222.065 60.134C221.407 60.134 220.525 60.666 220.217 61.212V66ZM229.066 66H228.016V65.23C227.47 65.846 226.686 66.168 225.776 66.168C224.642 66.168 223.424 65.398 223.424 63.928C223.424 62.402 224.628 61.702 225.776 61.702C226.7 61.702 227.47 61.996 228.016 62.612V61.394C228.016 60.498 227.288 59.98 226.308 59.98C225.496 59.98 224.838 60.26 224.236 60.918L223.746 60.19C224.474 59.434 225.342 59.07 226.448 59.07C227.89 59.07 229.066 59.714 229.066 61.352V66ZM226.168 65.412C226.896 65.412 227.61 65.132 228.016 64.572V63.284C227.61 62.738 226.896 62.458 226.168 62.458C225.174 62.458 224.488 63.074 224.488 63.928C224.488 64.796 225.174 65.412 226.168 65.412ZM236.799 66H235.763V61.576C235.763 60.372 235.147 60.008 234.237 60.008C233.411 60.008 232.641 60.512 232.235 61.058V66H231.185V59.238H232.235V60.218C232.711 59.644 233.635 59.07 234.657 59.07C236.057 59.07 236.799 59.784 236.799 61.254V66ZM240.631 66.168C239.623 66.168 239.119 65.594 239.119 64.586V60.162H237.999V59.238H239.119V57.39H240.183V59.238H241.555V60.162H240.183V64.362C240.183 64.866 240.407 65.23 240.855 65.23C241.163 65.23 241.429 65.09 241.569 64.936L241.877 65.734C241.611 65.986 241.233 66.168 240.631 66.168ZM246.091 66.168C244.075 66.168 242.633 64.726 242.633 62.612C242.633 60.652 244.033 59.07 245.965 59.07C248.009 59.07 249.213 60.666 249.213 62.696V62.962H243.753C243.837 64.236 244.719 65.3 246.175 65.3C246.959 65.3 247.729 64.992 248.275 64.432L248.779 65.118C248.093 65.79 247.183 66.168 246.091 66.168ZM248.177 62.178C248.163 61.184 247.491 59.938 245.951 59.938C244.509 59.938 243.795 61.156 243.739 62.178H248.177ZM257.21 66.168C255.628 66.168 254.466 65.468 253.892 64.628L254.578 63.9C255.124 64.628 256.076 65.132 257.182 65.132C258.54 65.132 259.366 64.446 259.366 63.382C259.366 62.22 258.414 61.73 257.042 61.73C256.65 61.73 256.216 61.73 256.076 61.744V60.68C256.23 60.694 256.664 60.694 257.042 60.694C258.218 60.694 259.212 60.232 259.212 59.154C259.212 58.118 258.26 57.558 257.126 57.558C256.104 57.558 255.348 57.95 254.662 58.692L254.018 57.964C254.69 57.138 255.768 56.522 257.224 56.522C259.016 56.522 260.374 57.432 260.374 59C260.374 60.358 259.24 61.03 258.372 61.17C259.212 61.254 260.528 61.968 260.528 63.48C260.528 65.034 259.268 66.168 257.21 66.168ZM265.563 66.168C263.001 66.168 261.993 63.606 261.993 61.338C261.993 59.056 263.001 56.522 265.563 56.522C268.111 56.522 269.133 59.056 269.133 61.338C269.133 63.606 268.111 66.168 265.563 66.168ZM265.563 65.132C267.341 65.132 267.943 63.2 267.943 61.338C267.943 59.476 267.341 57.558 265.563 57.558C263.785 57.558 263.183 59.476 263.183 61.338C263.183 63.2 263.785 65.132 265.563 65.132ZM15.206 80.168C14.086 80.168 13.162 79.818 12.476 79.104L13.008 78.348C13.456 78.866 14.31 79.314 15.234 79.314C16.27 79.314 16.844 78.824 16.844 78.152C16.844 76.514 12.658 77.522 12.658 75.016C12.658 73.952 13.554 73.07 15.164 73.07C16.326 73.07 17.138 73.504 17.67 74.05L17.18 74.778C16.774 74.288 16.046 73.924 15.164 73.924C14.24 73.924 13.666 74.386 13.666 74.988C13.666 76.458 17.852 75.492 17.852 78.124C17.852 79.258 16.942 80.168 15.206 80.168ZM22.6238 80.168C20.6078 80.168 19.1658 78.726 19.1658 76.612C19.1658 74.652 20.5658 73.07 22.4978 73.07C24.5418 73.07 25.7458 74.666 25.7458 76.696V76.962H20.2858C20.3698 78.236 21.2518 79.3 22.7078 79.3C23.4918 79.3 24.2618 78.992 24.8078 78.432L25.3118 79.118C24.6258 79.79 23.7158 80.168 22.6238 80.168ZM24.7098 76.178C24.6958 75.184 24.0238 73.938 22.4838 73.938C21.0418 73.938 20.3278 75.156 20.2718 76.178H24.7098ZM30.1625 82.744C29.0285 82.744 28.2445 82.52 27.4325 81.722L27.9645 80.966C28.5245 81.624 29.1965 81.876 30.1625 81.876C31.2825 81.876 32.3465 81.33 32.3465 79.902V78.88C31.8425 79.566 31.0165 80.084 30.0645 80.084C28.3005 80.084 27.0545 78.768 27.0545 76.584C27.0545 74.414 28.2865 73.07 30.0645 73.07C30.9745 73.07 31.8005 73.518 32.3465 74.26V73.238H33.3965V79.902C33.3965 82.044 31.8145 82.744 30.1625 82.744ZM30.3305 79.146C31.1565 79.146 31.9685 78.642 32.3465 78.054V75.086C31.9685 74.512 31.1565 74.008 30.3305 74.008C28.9585 74.008 28.1465 75.086 28.1465 76.584C28.1465 78.068 28.9585 79.146 30.3305 79.146ZM41.1132 80H40.0632V79.048C39.5452 79.636 38.6632 80.168 37.6552 80.168C36.2412 80.168 35.4992 79.468 35.4992 78.012V73.238H36.5492V77.69C36.5492 78.88 37.1512 79.23 38.0752 79.23C38.8872 79.23 39.6712 78.754 40.0632 78.208V73.238H41.1132V80ZM48.8242 80H47.7882V75.576C47.7882 74.372 47.1722 74.008 46.2622 74.008C45.4362 74.008 44.6662 74.512 44.2602 75.058V80H43.2102V73.238H44.2602V74.218C44.7362 73.644 45.6602 73.07 46.6822 73.07C48.0822 73.07 48.8242 73.784 48.8242 75.254V80ZM56.8848 80H55.8348V78.992C55.3308 79.678 54.5048 80.168 53.5528 80.168C51.7888 80.168 50.5428 78.824 50.5428 76.626C50.5428 74.456 51.7888 73.07 53.5528 73.07C54.4628 73.07 55.2888 73.518 55.8348 74.26V70.662H56.8848V80ZM53.8188 79.23C54.6448 79.23 55.4708 78.74 55.8348 78.152V75.1C55.4708 74.512 54.6448 74.008 53.8188 74.008C52.4468 74.008 51.6348 75.128 51.6348 76.626C51.6348 78.124 52.4468 79.23 53.8188 79.23ZM61.9415 80.168C59.8835 80.168 58.5955 78.572 58.5955 76.612C58.5955 74.652 59.8835 73.07 61.9415 73.07C63.9995 73.07 65.2875 74.652 65.2875 76.612C65.2875 78.572 63.9995 80.168 61.9415 80.168ZM61.9415 79.23C63.3835 79.23 64.1815 77.998 64.1815 76.612C64.1815 75.24 63.3835 74.008 61.9415 74.008C60.4995 74.008 59.7015 75.24 59.7015 76.612C59.7015 77.998 60.4995 79.23 61.9415 79.23ZM69.1552 80.168C68.0352 80.168 67.1112 79.818 66.4252 79.104L66.9572 78.348C67.4052 78.866 68.2592 79.314 69.1832 79.314C70.2192 79.314 70.7932 78.824 70.7932 78.152C70.7932 76.514 66.6072 77.522 66.6072 75.016C66.6072 73.952 67.5032 73.07 69.1132 73.07C70.2752 73.07 71.0872 73.504 71.6192 74.05L71.1292 74.778C70.7232 74.288 69.9952 73.924 69.1132 73.924C68.1892 73.924 67.6152 74.386 67.6152 74.988C67.6152 76.458 71.8012 75.492 71.8012 78.124C71.8012 79.258 70.8912 80.168 69.1552 80.168ZM82.7581 80H81.7081V75.548C81.7081 74.344 81.1061 74.008 80.1821 74.008C79.3701 74.008 78.5861 74.512 78.1941 75.058V80H77.1441V70.662H78.1941V74.218C78.6561 73.644 79.5801 73.07 80.6021 73.07C82.0161 73.07 82.7581 73.756 82.7581 75.226V80ZM90.1327 80H89.0827V79.23C88.5367 79.846 87.7527 80.168 86.8427 80.168C85.7087 80.168 84.4907 79.398 84.4907 77.928C84.4907 76.402 85.6947 75.702 86.8427 75.702C87.7667 75.702 88.5367 75.996 89.0827 76.612V75.394C89.0827 74.498 88.3547 73.98 87.3747 73.98C86.5627 73.98 85.9047 74.26 85.3027 74.918L84.8127 74.19C85.5407 73.434 86.4087 73.07 87.5147 73.07C88.9567 73.07 90.1327 73.714 90.1327 75.352V80ZM87.2347 79.412C87.9627 79.412 88.6767 79.132 89.0827 78.572V77.284C88.6767 76.738 87.9627 76.458 87.2347 76.458C86.2407 76.458 85.5547 77.074 85.5547 77.928C85.5547 78.796 86.2407 79.412 87.2347 79.412ZM94.4072 80.168C93.2872 80.168 92.3632 79.818 91.6772 79.104L92.2092 78.348C92.6572 78.866 93.5112 79.314 94.4352 79.314C95.4712 79.314 96.0452 78.824 96.0452 78.152C96.0452 76.514 91.8592 77.522 91.8592 75.016C91.8592 73.952 92.7552 73.07 94.3652 73.07C95.5272 73.07 96.3392 73.504 96.8712 74.05L96.3812 74.778C95.9752 74.288 95.2472 73.924 94.3652 73.924C93.4412 73.924 92.8672 74.386 92.8672 74.988C92.8672 76.458 97.0532 75.492 97.0532 78.124C97.0532 79.258 96.1432 80.168 94.4072 80.168ZM100.481 80.168C99.473 80.168 98.969 79.594 98.969 78.586V74.162H97.849V73.238H98.969V71.39H100.033V73.238H101.405V74.162H100.033V78.362C100.033 78.866 100.257 79.23 100.705 79.23C101.013 79.23 101.279 79.09 101.419 78.936L101.727 79.734C101.461 79.986 101.083 80.168 100.481 80.168ZM108.152 80H107.102V79.23C106.556 79.846 105.772 80.168 104.862 80.168C103.728 80.168 102.51 79.398 102.51 77.928C102.51 76.402 103.714 75.702 104.862 75.702C105.786 75.702 106.556 75.996 107.102 76.612V75.394C107.102 74.498 106.374 73.98 105.394 73.98C104.582 73.98 103.924 74.26 103.322 74.918L102.832 74.19C103.56 73.434 104.428 73.07 105.534 73.07C106.976 73.07 108.152 73.714 108.152 75.352V80ZM105.254 79.412C105.982 79.412 106.696 79.132 107.102 78.572V77.284C106.696 76.738 105.982 76.458 105.254 76.458C104.26 76.458 103.574 77.074 103.574 77.928C103.574 78.796 104.26 79.412 105.254 79.412ZM116.876 80.168C114.86 80.168 113.502 78.614 113.502 76.612C113.502 74.61 114.86 73.07 116.876 73.07C118.108 73.07 118.836 73.574 119.354 74.246L118.654 74.876C118.206 74.26 117.632 74.008 116.932 74.008C115.504 74.008 114.594 75.114 114.594 76.612C114.594 78.11 115.504 79.23 116.932 79.23C117.632 79.23 118.206 78.95 118.654 78.348L119.354 78.992C118.836 79.664 118.108 80.168 116.876 80.168ZM123.793 80.168C121.735 80.168 120.447 78.572 120.447 76.612C120.447 74.652 121.735 73.07 123.793 73.07C125.851 73.07 127.139 74.652 127.139 76.612C127.139 78.572 125.851 80.168 123.793 80.168ZM123.793 79.23C125.235 79.23 126.033 77.998 126.033 76.612C126.033 75.24 125.235 74.008 123.793 74.008C122.351 74.008 121.553 75.24 121.553 76.612C121.553 77.998 122.351 79.23 123.793 79.23ZM138.063 80H137.013V75.408C137.013 74.554 136.649 74.008 135.767 74.008C135.067 74.008 134.325 74.498 133.975 75.044V80H132.925V75.408C132.925 74.554 132.575 74.008 131.679 74.008C130.993 74.008 130.265 74.512 129.901 75.058V80H128.851V73.238H129.901V74.218C130.195 73.784 131.091 73.07 132.099 73.07C133.121 73.07 133.709 73.63 133.905 74.33C134.283 73.714 135.193 73.07 136.173 73.07C137.405 73.07 138.063 73.756 138.063 75.114V80ZM143.489 80.168C142.565 80.168 141.767 79.72 141.207 78.978V82.576H140.157V73.238H141.207V74.246C141.697 73.56 142.537 73.07 143.489 73.07C145.267 73.07 146.499 74.414 146.499 76.612C146.499 78.796 145.267 80.168 143.489 80.168ZM143.223 79.23C144.581 79.23 145.393 78.11 145.393 76.612C145.393 75.114 144.581 74.008 143.223 74.008C142.397 74.008 141.571 74.498 141.207 75.086V78.138C141.571 78.726 142.397 79.23 143.223 79.23ZM149.219 80H148.169V70.662H149.219V80ZM154.38 80.168C152.364 80.168 150.922 78.726 150.922 76.612C150.922 74.652 152.322 73.07 154.254 73.07C156.298 73.07 157.502 74.666 157.502 76.696V76.962H152.042C152.126 78.236 153.008 79.3 154.464 79.3C155.248 79.3 156.018 78.992 156.564 78.432L157.068 79.118C156.382 79.79 155.472 80.168 154.38 80.168ZM156.466 76.178C156.452 75.184 155.78 73.938 154.24 73.938C152.798 73.938 152.084 75.156 152.028 76.178H156.466ZM160.924 80.168C159.916 80.168 159.412 79.594 159.412 78.586V74.162H158.292V73.238H159.412V71.39H160.476V73.238H161.848V74.162H160.476V78.362C160.476 78.866 160.7 79.23 161.148 79.23C161.456 79.23 161.722 79.09 161.862 78.936L162.17 79.734C161.904 79.986 161.526 80.168 160.924 80.168ZM168.596 80H167.546V79.23C167 79.846 166.216 80.168 165.306 80.168C164.172 80.168 162.954 79.398 162.954 77.928C162.954 76.402 164.158 75.702 165.306 75.702C166.23 75.702 167 75.996 167.546 76.612V75.394C167.546 74.498 166.818 73.98 165.838 73.98C165.026 73.98 164.368 74.26 163.766 74.918L163.276 74.19C164.004 73.434 164.872 73.07 165.978 73.07C167.42 73.07 168.596 73.714 168.596 75.352V80ZM165.698 79.412C166.426 79.412 167.14 79.132 167.546 78.572V77.284C167.14 76.738 166.426 76.458 165.698 76.458C164.704 76.458 164.018 77.074 164.018 77.928C164.018 78.796 164.704 79.412 165.698 79.412ZM171.764 80H170.714V73.238H171.764V74.316C172.31 73.616 173.094 73.084 174.018 73.084V74.162C173.892 74.148 173.766 74.134 173.612 74.134C172.954 74.134 172.072 74.666 171.764 75.212V80ZM180.008 80H178.958V70.662H180.008V80ZM187.381 80H186.331V79.23C185.785 79.846 185.001 80.168 184.091 80.168C182.957 80.168 181.739 79.398 181.739 77.928C181.739 76.402 182.943 75.702 184.091 75.702C185.015 75.702 185.785 75.996 186.331 76.612V75.394C186.331 74.498 185.603 73.98 184.623 73.98C183.811 73.98 183.153 74.26 182.551 74.918L182.061 74.19C182.789 73.434 183.657 73.07 184.763 73.07C186.205 73.07 187.381 73.714 187.381 75.352V80ZM184.483 79.412C185.211 79.412 185.925 79.132 186.331 78.572V77.284C185.925 76.738 185.211 76.458 184.483 76.458C183.489 76.458 182.803 77.074 182.803 77.928C182.803 78.796 183.489 79.412 184.483 79.412ZM202.334 80H201.284V75.408C201.284 74.554 200.92 74.008 200.038 74.008C199.338 74.008 198.596 74.498 198.246 75.044V80H197.196V75.408C197.196 74.554 196.846 74.008 195.95 74.008C195.264 74.008 194.536 74.512 194.172 75.058V80H193.122V73.238H194.172V74.218C194.466 73.784 195.362 73.07 196.37 73.07C197.392 73.07 197.98 73.63 198.176 74.33C198.554 73.714 199.464 73.07 200.444 73.07C201.676 73.07 202.334 73.756 202.334 75.114V80ZM207.495 80.168C205.479 80.168 204.037 78.726 204.037 76.612C204.037 74.652 205.437 73.07 207.369 73.07C209.413 73.07 210.617 74.666 210.617 76.696V76.962H205.157C205.241 78.236 206.123 79.3 207.579 79.3C208.363 79.3 209.133 78.992 209.679 78.432L210.183 79.118C209.497 79.79 208.587 80.168 207.495 80.168ZM209.581 76.178C209.567 75.184 208.895 73.938 207.355 73.938C205.913 73.938 205.199 75.156 205.143 76.178H209.581ZM218.268 80H217.218V78.992C216.714 79.678 215.888 80.168 214.936 80.168C213.172 80.168 211.926 78.824 211.926 76.626C211.926 74.456 213.172 73.07 214.936 73.07C215.846 73.07 216.672 73.518 217.218 74.26V70.662H218.268V80ZM215.202 79.23C216.028 79.23 216.854 78.74 217.218 78.152V75.1C216.854 74.512 216.028 74.008 215.202 74.008C213.83 74.008 213.018 75.128 213.018 76.626C213.018 78.124 213.83 79.23 215.202 79.23ZM220.902 72.272C220.51 72.272 220.188 71.964 220.188 71.572C220.188 71.18 220.51 70.858 220.902 70.858C221.294 70.858 221.602 71.18 221.602 71.572C221.602 71.964 221.294 72.272 220.902 72.272ZM221.42 80H220.37V73.238H221.42V80ZM226.497 80.168C224.481 80.168 223.123 78.614 223.123 76.612C223.123 74.61 224.481 73.07 226.497 73.07C227.729 73.07 228.457 73.574 228.975 74.246L228.275 74.876C227.827 74.26 227.253 74.008 226.553 74.008C225.125 74.008 224.215 75.114 224.215 76.612C224.215 78.11 225.125 79.23 226.553 79.23C227.253 79.23 227.827 78.95 228.275 78.348L228.975 78.992C228.457 79.664 227.729 80.168 226.497 80.168ZM230.992 72.272C230.6 72.272 230.278 71.964 230.278 71.572C230.278 71.18 230.6 70.858 230.992 70.858C231.384 70.858 231.692 71.18 231.692 71.572C231.692 71.964 231.384 72.272 230.992 72.272ZM231.51 80H230.46V73.238H231.51V80ZM236.559 80.168C234.501 80.168 233.213 78.572 233.213 76.612C233.213 74.652 234.501 73.07 236.559 73.07C238.617 73.07 239.905 74.652 239.905 76.612C239.905 78.572 238.617 80.168 236.559 80.168ZM236.559 79.23C238.001 79.23 238.799 77.998 238.799 76.612C238.799 75.24 238.001 74.008 236.559 74.008C235.117 74.008 234.319 75.24 234.319 76.612C234.319 77.998 235.117 79.23 236.559 79.23ZM238.799 70.2L236.433 72.216H235.635L237.707 70.2H238.799ZM247.23 80H246.194V75.576C246.194 74.372 245.578 74.008 244.668 74.008C243.842 74.008 243.072 74.512 242.666 75.058V80H241.616V73.238H242.666V74.218C243.142 73.644 244.066 73.07 245.088 73.07C246.488 73.07 247.23 73.784 247.23 75.254V80ZM249.901 80.14C249.481 80.14 249.131 79.79 249.131 79.37C249.131 78.95 249.481 78.6 249.901 78.6C250.321 78.6 250.671 78.95 250.671 79.37C250.671 79.79 250.321 80.14 249.901 80.14Z" fill="#212121"/>
</svg>
