<svg width="299" height="41" viewBox="0 0 299 41" fill="none" xmlns="http://www.w3.org/2000/svg">
<path d="M6.44 10H0.938V0.661999H2.1V8.964H6.44V10ZM13.0409 10H11.9909V9.23C11.4449 9.846 10.6609 10.168 9.75089 10.168C8.61689 10.168 7.39889 9.398 7.39889 7.928C7.39889 6.402 8.60289 5.702 9.75089 5.702C10.6749 5.702 11.4449 5.996 11.9909 6.612V5.394C11.9909 4.498 11.2629 3.98 10.2829 3.98C9.47089 3.98 8.81289 4.26 8.21089 4.918L7.72089 4.19C8.44889 3.434 9.31689 3.07 10.4229 3.07C11.8649 3.07 13.0409 3.714 13.0409 5.352V10ZM10.1429 9.412C10.8709 9.412 11.5849 9.132 11.9909 8.572V7.284C11.5849 6.738 10.8709 6.458 10.1429 6.458C9.14889 6.458 8.46289 7.074 8.46289 7.928C8.46289 8.796 9.14889 9.412 10.1429 9.412ZM27.9944 10H26.9444V5.408C26.9444 4.554 26.5804 4.008 25.6984 4.008C24.9984 4.008 24.2564 4.498 23.9064 5.044V10H22.8564V5.408C22.8564 4.554 22.5064 4.008 21.6104 4.008C20.9244 4.008 20.1964 4.512 19.8324 5.058V10H18.7824V3.238H19.8324V4.218C20.1264 3.784 21.0224 3.07 22.0304 3.07C23.0524 3.07 23.6404 3.63 23.8364 4.33C24.2144 3.714 25.1244 3.07 26.1044 3.07C27.3364 3.07 27.9944 3.756 27.9944 5.114V10ZM33.1551 10.168C31.1391 10.168 29.6971 8.726 29.6971 6.612C29.6971 4.652 31.0971 3.07 33.0291 3.07C35.0731 3.07 36.2771 4.666 36.2771 6.696V6.962H30.8171C30.9011 8.236 31.7831 9.3 33.2391 9.3C34.0231 9.3 34.7931 8.992 35.3391 8.432L35.8431 9.118C35.1571 9.79 34.2471 10.168 33.1551 10.168ZM35.2411 6.178C35.2271 5.184 34.5551 3.938 33.0151 3.938C31.5731 3.938 30.8591 5.156 30.8031 6.178H35.2411ZM43.9277 10H42.8777V8.992C42.3737 9.678 41.5477 10.168 40.5957 10.168C38.8317 10.168 37.5857 8.824 37.5857 6.626C37.5857 4.456 38.8317 3.07 40.5957 3.07C41.5057 3.07 42.3317 3.518 42.8777 4.26V0.661999H43.9277V10ZM40.8617 9.23C41.6877 9.23 42.5137 8.74 42.8777 8.152V5.1C42.5137 4.512 41.6877 4.008 40.8617 4.008C39.4897 4.008 38.6777 5.128 38.6777 6.626C38.6777 8.124 39.4897 9.23 40.8617 9.23ZM46.5625 2.272C46.1705 2.272 45.8485 1.964 45.8485 1.572C45.8485 1.18 46.1705 0.857999 46.5625 0.857999C46.9545 0.857999 47.2625 1.18 47.2625 1.572C47.2625 1.964 46.9545 2.272 46.5625 2.272ZM47.0805 10H46.0305V3.238H47.0805V10ZM52.157 10.168C50.141 10.168 48.783 8.614 48.783 6.612C48.783 4.61 50.141 3.07 52.157 3.07C53.389 3.07 54.117 3.574 54.635 4.246L53.935 4.876C53.487 4.26 52.913 4.008 52.213 4.008C50.785 4.008 49.875 5.114 49.875 6.612C49.875 8.11 50.785 9.23 52.213 9.23C52.913 9.23 53.487 8.95 53.935 8.348L54.635 8.992C54.117 9.664 53.389 10.168 52.157 10.168ZM56.6523 2.272C56.2603 2.272 55.9383 1.964 55.9383 1.572C55.9383 1.18 56.2603 0.857999 56.6523 0.857999C57.0443 0.857999 57.3523 1.18 57.3523 1.572C57.3523 1.964 57.0443 2.272 56.6523 2.272ZM57.1703 10H56.1203V3.238H57.1703V10ZM62.2188 10.168C60.1608 10.168 58.8728 8.572 58.8728 6.612C58.8728 4.652 60.1608 3.07 62.2188 3.07C64.2768 3.07 65.5648 4.652 65.5648 6.612C65.5648 8.572 64.2768 10.168 62.2188 10.168ZM62.2188 9.23C63.6608 9.23 64.4588 7.998 64.4588 6.612C64.4588 5.24 63.6608 4.008 62.2188 4.008C60.7768 4.008 59.9788 5.24 59.9788 6.612C59.9788 7.998 60.7768 9.23 62.2188 9.23ZM64.4588 0.199999L62.0928 2.216H61.2948L63.3668 0.199999H64.4588ZM72.8906 10H71.8546V5.576C71.8546 4.372 71.2386 4.008 70.3286 4.008C69.5026 4.008 68.7326 4.512 68.3266 5.058V10H67.2766V3.238H68.3266V4.218C68.8026 3.644 69.7266 3.07 70.7486 3.07C72.1486 3.07 72.8906 3.784 72.8906 5.254V10ZM84.2382 10H83.2022V5.576C83.2022 4.372 82.5862 4.008 81.6762 4.008C80.8502 4.008 80.0802 4.512 79.6742 5.058V10H78.6242V3.238H79.6742V4.218C80.1502 3.644 81.0742 3.07 82.0962 3.07C83.4962 3.07 84.2382 3.784 84.2382 5.254V10ZM89.3028 10.168C87.2448 10.168 85.9568 8.572 85.9568 6.612C85.9568 4.652 87.2448 3.07 89.3028 3.07C91.3608 3.07 92.6488 4.652 92.6488 6.612C92.6488 8.572 91.3608 10.168 89.3028 10.168ZM89.3028 9.23C90.7448 9.23 91.5428 7.998 91.5428 6.612C91.5428 5.24 90.7448 4.008 89.3028 4.008C87.8608 4.008 87.0628 5.24 87.0628 6.612C87.0628 7.998 87.8608 9.23 89.3028 9.23ZM99.3276 10H98.2776V4.162H97.1576V3.238H98.2776V2.72C98.2776 1.334 99.0476 0.521999 100.238 0.521999C100.784 0.521999 101.246 0.647999 101.666 1.04L101.232 1.712C101.008 1.516 100.742 1.39 100.406 1.39C99.7056 1.39 99.3276 1.852 99.3276 2.72V3.238H100.7V4.162H99.3276V10ZM107.576 10H106.526V9.048C106.008 9.636 105.126 10.168 104.118 10.168C102.704 10.168 101.962 9.468 101.962 8.012V3.238H103.012V7.69C103.012 8.88 103.614 9.23 104.538 9.23C105.35 9.23 106.134 8.754 106.526 8.208V3.238H107.576V10ZM115.287 10H114.251V5.576C114.251 4.372 113.635 4.008 112.725 4.008C111.899 4.008 111.129 4.512 110.723 5.058V10H109.673V3.238H110.723V4.218C111.199 3.644 112.123 3.07 113.145 3.07C114.545 3.07 115.287 3.784 115.287 5.254V10ZM120.38 10.168C118.364 10.168 117.006 8.614 117.006 6.612C117.006 4.61 118.364 3.07 120.38 3.07C121.612 3.07 122.34 3.574 122.858 4.246L122.158 4.876C121.71 4.26 121.136 4.008 120.436 4.008C119.008 4.008 118.098 5.114 118.098 6.612C118.098 8.11 119.008 9.23 120.436 9.23C121.136 9.23 121.71 8.95 122.158 8.348L122.858 8.992C122.34 9.664 121.612 10.168 120.38 10.168ZM124.875 2.272C124.483 2.272 124.161 1.964 124.161 1.572C124.161 1.18 124.483 0.857999 124.875 0.857999C125.267 0.857999 125.575 1.18 125.575 1.572C125.575 1.964 125.267 2.272 124.875 2.272ZM125.393 10H124.343V3.238H125.393V10ZM130.442 10.168C128.384 10.168 127.096 8.572 127.096 6.612C127.096 4.652 128.384 3.07 130.442 3.07C132.5 3.07 133.788 4.652 133.788 6.612C133.788 8.572 132.5 10.168 130.442 10.168ZM130.442 9.23C131.884 9.23 132.682 7.998 132.682 6.612C132.682 5.24 131.884 4.008 130.442 4.008C129 4.008 128.202 5.24 128.202 6.612C128.202 7.998 129 9.23 130.442 9.23ZM141.113 10H140.077V5.576C140.077 4.372 139.461 4.008 138.551 4.008C137.725 4.008 136.955 4.512 136.549 5.058V10H135.499V3.238H136.549V4.218C137.025 3.644 137.949 3.07 138.971 3.07C140.371 3.07 141.113 3.784 141.113 5.254V10ZM148.502 10H147.452V9.23C146.906 9.846 146.122 10.168 145.212 10.168C144.078 10.168 142.86 9.398 142.86 7.928C142.86 6.402 144.064 5.702 145.212 5.702C146.136 5.702 146.906 5.996 147.452 6.612V5.394C147.452 4.498 146.724 3.98 145.744 3.98C144.932 3.98 144.274 4.26 143.672 4.918L143.182 4.19C143.91 3.434 144.778 3.07 145.884 3.07C147.326 3.07 148.502 3.714 148.502 5.352V10ZM145.604 9.412C146.332 9.412 147.046 9.132 147.452 8.572V7.284C147.046 6.738 146.332 6.458 145.604 6.458C144.61 6.458 143.924 7.074 143.924 7.928C143.924 8.796 144.61 9.412 145.604 9.412ZM151.67 10H150.62V3.238H151.67V4.316C152.216 3.616 153 3.084 153.924 3.084V4.162C153.798 4.148 153.672 4.134 153.518 4.134C152.86 4.134 151.978 4.666 151.67 5.212V10ZM160.519 10H159.469V9.23C158.923 9.846 158.139 10.168 157.229 10.168C156.095 10.168 154.877 9.398 154.877 7.928C154.877 6.402 156.081 5.702 157.229 5.702C158.153 5.702 158.923 5.996 159.469 6.612V5.394C159.469 4.498 158.741 3.98 157.761 3.98C156.949 3.98 156.291 4.26 155.689 4.918L155.199 4.19C155.927 3.434 156.795 3.07 157.901 3.07C159.343 3.07 160.519 3.714 160.519 5.352V10ZM157.621 9.412C158.349 9.412 159.063 9.132 159.469 8.572V7.284C159.063 6.738 158.349 6.458 157.621 6.458C156.627 6.458 155.941 7.074 155.941 7.928C155.941 8.796 156.627 9.412 157.621 9.412ZM160.169 0.199999L157.803 2.216H157.005L159.077 0.199999H160.169ZM167.311 8.166C167.675 8.754 168.501 9.23 169.341 9.23C170.699 9.23 171.511 8.124 171.511 6.626C171.511 5.128 170.699 4.008 169.341 4.008C168.501 4.008 167.675 4.512 167.311 5.1V8.166ZM167.311 10H166.261V0.661999H167.311V4.26C167.857 3.518 168.683 3.07 169.593 3.07C171.371 3.07 172.603 4.456 172.603 6.626C172.603 8.824 171.357 10.168 169.593 10.168C168.641 10.168 167.815 9.678 167.311 8.992V10ZM174.846 2.272C174.454 2.272 174.132 1.964 174.132 1.572C174.132 1.18 174.454 0.857999 174.846 0.857999C175.238 0.857999 175.546 1.18 175.546 1.572C175.546 1.964 175.238 2.272 174.846 2.272ZM175.364 10H174.314V3.238H175.364V10ZM180.524 10.168C178.508 10.168 177.066 8.726 177.066 6.612C177.066 4.652 178.466 3.07 180.398 3.07C182.442 3.07 183.646 4.666 183.646 6.696V6.962H178.186C178.27 8.236 179.152 9.3 180.608 9.3C181.392 9.3 182.162 8.992 182.708 8.432L183.212 9.118C182.526 9.79 181.616 10.168 180.524 10.168ZM182.61 6.178C182.596 5.184 181.924 3.938 180.384 3.938C178.942 3.938 178.228 5.156 178.172 6.178H182.61ZM190.961 10H189.925V5.576C189.925 4.372 189.309 4.008 188.399 4.008C187.573 4.008 186.803 4.512 186.397 5.058V10H185.347V3.238H186.397V4.218C186.873 3.644 187.797 3.07 188.819 3.07C190.219 3.07 190.961 3.784 190.961 5.254V10ZM198.851 10.168C197.731 10.168 196.807 9.818 196.121 9.104L196.653 8.348C197.101 8.866 197.955 9.314 198.879 9.314C199.915 9.314 200.489 8.824 200.489 8.152C200.489 6.514 196.303 7.522 196.303 5.016C196.303 3.952 197.199 3.07 198.809 3.07C199.971 3.07 200.783 3.504 201.315 4.05L200.825 4.778C200.419 4.288 199.691 3.924 198.809 3.924C197.885 3.924 197.311 4.386 197.311 4.988C197.311 6.458 201.497 5.492 201.497 8.124C201.497 9.258 200.587 10.168 198.851 10.168ZM203.734 2.272C203.342 2.272 203.02 1.964 203.02 1.572C203.02 1.18 203.342 0.857999 203.734 0.857999C204.126 0.857999 204.434 1.18 204.434 1.572C204.434 1.964 204.126 2.272 203.734 2.272ZM204.252 10H203.202V3.238H204.252V10ZM211.692 10.168C210.684 10.168 210.18 9.594 210.18 8.586V4.162H209.06V3.238H210.18V1.39H211.244V3.238H212.616V4.162H211.244V8.362C211.244 8.866 211.468 9.23 211.916 9.23C212.224 9.23 212.49 9.09 212.63 8.936L212.938 9.734C212.672 9.986 212.294 10.168 211.692 10.168ZM219.699 10H218.649V9.048C218.131 9.636 217.249 10.168 216.241 10.168C214.827 10.168 214.085 9.468 214.085 8.012V3.238H215.135V7.69C215.135 8.88 215.737 9.23 216.661 9.23C217.473 9.23 218.257 8.754 218.649 8.208V3.238H219.699V10ZM228.401 10.168C226.385 10.168 225.027 8.614 225.027 6.612C225.027 4.61 226.385 3.07 228.401 3.07C229.633 3.07 230.361 3.574 230.879 4.246L230.179 4.876C229.731 4.26 229.157 4.008 228.457 4.008C227.029 4.008 226.119 5.114 226.119 6.612C226.119 8.11 227.029 9.23 228.457 9.23C229.157 9.23 229.731 8.95 230.179 8.348L230.879 8.992C230.361 9.664 229.633 10.168 228.401 10.168ZM237.642 10H236.592V9.23C236.046 9.846 235.262 10.168 234.352 10.168C233.218 10.168 232 9.398 232 7.928C232 6.402 233.204 5.702 234.352 5.702C235.276 5.702 236.046 5.996 236.592 6.612V5.394C236.592 4.498 235.864 3.98 234.884 3.98C234.072 3.98 233.414 4.26 232.812 4.918L232.322 4.19C233.05 3.434 233.918 3.07 235.024 3.07C236.466 3.07 237.642 3.714 237.642 5.352V10ZM234.744 9.412C235.472 9.412 236.186 9.132 236.592 8.572V7.284C236.186 6.738 235.472 6.458 234.744 6.458C233.75 6.458 233.064 7.074 233.064 7.928C233.064 8.796 233.75 9.412 234.744 9.412ZM240.811 10H239.761V3.238H240.811V4.316C241.357 3.616 242.141 3.084 243.065 3.084V4.162C242.939 4.148 242.813 4.134 242.659 4.134C242.001 4.134 241.119 4.666 240.811 5.212V10ZM249.66 10H248.61V9.23C248.064 9.846 247.28 10.168 246.37 10.168C245.236 10.168 244.018 9.398 244.018 7.928C244.018 6.402 245.222 5.702 246.37 5.702C247.294 5.702 248.064 5.996 248.61 6.612V5.394C248.61 4.498 247.882 3.98 246.902 3.98C246.09 3.98 245.432 4.26 244.83 4.918L244.34 4.19C245.068 3.434 245.936 3.07 247.042 3.07C248.484 3.07 249.66 3.714 249.66 5.352V10ZM246.762 9.412C247.49 9.412 248.204 9.132 248.61 8.572V7.284C248.204 6.738 247.49 6.458 246.762 6.458C245.768 6.458 245.082 7.074 245.082 7.928C245.082 8.796 245.768 9.412 246.762 9.412ZM261.016 10H259.98V5.576C259.98 4.372 259.364 4.008 258.454 4.008C257.628 4.008 256.858 4.512 256.452 5.058V10H255.402V3.238H256.452V4.218C256.928 3.644 257.852 3.07 258.874 3.07C260.274 3.07 261.016 3.784 261.016 5.254V10ZM266.08 10.168C264.022 10.168 262.734 8.572 262.734 6.612C262.734 4.652 264.022 3.07 266.08 3.07C268.138 3.07 269.426 4.652 269.426 6.612C269.426 8.572 268.138 10.168 266.08 10.168ZM266.08 9.23C267.522 9.23 268.32 7.998 268.32 6.612C268.32 5.24 267.522 4.008 266.08 4.008C264.638 4.008 263.84 5.24 263.84 6.612C263.84 7.998 264.638 9.23 266.08 9.23ZM277.827 10.168C275.811 10.168 274.369 8.726 274.369 6.612C274.369 4.652 275.769 3.07 277.701 3.07C279.745 3.07 280.949 4.666 280.949 6.696V6.962H275.489C275.573 8.236 276.455 9.3 277.911 9.3C278.695 9.3 279.465 8.992 280.011 8.432L280.515 9.118C279.829 9.79 278.919 10.168 277.827 10.168ZM279.913 6.178C279.899 5.184 279.227 3.938 277.687 3.938C276.245 3.938 275.531 5.156 275.475 6.178H279.913ZM284.806 10.168C283.686 10.168 282.762 9.818 282.076 9.104L282.608 8.348C283.056 8.866 283.91 9.314 284.834 9.314C285.87 9.314 286.444 8.824 286.444 8.152C286.444 6.514 282.258 7.522 282.258 5.016C282.258 3.952 283.154 3.07 284.764 3.07C285.926 3.07 286.738 3.504 287.27 4.05L286.78 4.778C286.374 4.288 285.646 3.924 284.764 3.924C283.84 3.924 283.266 4.386 283.266 4.988C283.266 6.458 287.452 5.492 287.452 8.124C287.452 9.258 286.542 10.168 284.806 10.168ZM290.879 10.168C289.871 10.168 289.367 9.594 289.367 8.586V4.162H288.247V3.238H289.367V1.39H290.431V3.238H291.803V4.162H290.431V8.362C290.431 8.866 290.655 9.23 291.103 9.23C291.411 9.23 291.677 9.09 291.817 8.936L292.125 9.734C291.859 9.986 291.481 10.168 290.879 10.168ZM298.551 10H297.501V9.23C296.955 9.846 296.171 10.168 295.261 10.168C294.127 10.168 292.909 9.398 292.909 7.928C292.909 6.402 294.113 5.702 295.261 5.702C296.185 5.702 296.955 5.996 297.501 6.612V5.394C297.501 4.498 296.773 3.98 295.793 3.98C294.981 3.98 294.323 4.26 293.721 4.918L293.231 4.19C293.959 3.434 294.827 3.07 295.933 3.07C297.375 3.07 298.551 3.714 298.551 5.352V10ZM295.653 9.412C296.381 9.412 297.095 9.132 297.501 8.572V7.284C297.095 6.738 296.381 6.458 295.653 6.458C294.659 6.458 293.973 7.074 293.973 7.928C293.973 8.796 294.659 9.412 295.653 9.412ZM298.201 0.199999L295.835 2.216H295.037L297.109 0.199999H298.201ZM7 24H5.95V22.992C5.446 23.678 4.62 24.168 3.668 24.168C1.904 24.168 0.658 22.824 0.658 20.626C0.658 18.456 1.904 17.07 3.668 17.07C4.578 17.07 5.404 17.518 5.95 18.26V14.662H7V24ZM3.934 23.23C4.76 23.23 5.586 22.74 5.95 22.152V19.1C5.586 18.512 4.76 18.008 3.934 18.008C2.562 18.008 1.75 19.128 1.75 20.626C1.75 22.124 2.562 23.23 3.934 23.23ZM9.63473 16.272C9.24273 16.272 8.92073 15.964 8.92073 15.572C8.92073 15.18 9.24273 14.858 9.63473 14.858C10.0267 14.858 10.3347 15.18 10.3347 15.572C10.3347 15.964 10.0267 16.272 9.63473 16.272ZM10.1527 24H9.10273V17.238H10.1527V24ZM13.2973 24H12.2473V17.238H13.2973V18.316C13.8433 17.616 14.6273 17.084 15.5513 17.084V18.162C15.4253 18.148 15.2993 18.134 15.1453 18.134C14.4873 18.134 13.6053 18.666 13.2973 19.212V24ZM17.4004 16.272C17.0084 16.272 16.6864 15.964 16.6864 15.572C16.6864 15.18 17.0084 14.858 17.4004 14.858C17.7924 14.858 18.1004 15.18 18.1004 15.572C18.1004 15.964 17.7924 16.272 17.4004 16.272ZM17.9184 24H16.8684V17.238H17.9184V24ZM22.7289 26.744C21.5949 26.744 20.8109 26.52 19.9989 25.722L20.5309 24.966C21.0909 25.624 21.7629 25.876 22.7289 25.876C23.8489 25.876 24.9129 25.33 24.9129 23.902V22.88C24.4089 23.566 23.5829 24.084 22.6309 24.084C20.8669 24.084 19.6209 22.768 19.6209 20.584C19.6209 18.414 20.8529 17.07 22.6309 17.07C23.5409 17.07 24.3669 17.518 24.9129 18.26V17.238H25.9629V23.902C25.9629 26.044 24.3809 26.744 22.7289 26.744ZM22.8969 23.146C23.7229 23.146 24.5349 22.642 24.9129 22.054V19.086C24.5349 18.512 23.7229 18.008 22.8969 18.008C21.5249 18.008 20.7129 19.086 20.7129 20.584C20.7129 22.068 21.5249 23.146 22.8969 23.146ZM28.5976 16.272C28.2056 16.272 27.8836 15.964 27.8836 15.572C27.8836 15.18 28.2056 14.858 28.5976 14.858C28.9896 14.858 29.2976 15.18 29.2976 15.572C29.2976 15.964 28.9896 16.272 28.5976 16.272ZM29.1156 24H28.0656V17.238H29.1156V24ZM37.1602 24H36.1102V22.992C35.6062 23.678 34.7802 24.168 33.8282 24.168C32.0642 24.168 30.8182 22.824 30.8182 20.626C30.8182 18.456 32.0642 17.07 33.8282 17.07C34.7382 17.07 35.5642 17.518 36.1102 18.26V14.662H37.1602V24ZM34.0942 23.23C34.9202 23.23 35.7462 22.74 36.1102 22.152V19.1C35.7462 18.512 34.9202 18.008 34.0942 18.008C32.7222 18.008 31.9102 19.128 31.9102 20.626C31.9102 22.124 32.7222 23.23 34.0942 23.23ZM44.5409 24H43.4909V23.23C42.9449 23.846 42.1609 24.168 41.2509 24.168C40.1169 24.168 38.8989 23.398 38.8989 21.928C38.8989 20.402 40.1029 19.702 41.2509 19.702C42.1749 19.702 42.9449 19.996 43.4909 20.612V19.394C43.4909 18.498 42.7629 17.98 41.7829 17.98C40.9709 17.98 40.3129 18.26 39.7109 18.918L39.2209 18.19C39.9489 17.434 40.8169 17.07 41.9229 17.07C43.3649 17.07 44.5409 17.714 44.5409 19.352V24ZM41.6429 23.412C42.3709 23.412 43.0849 23.132 43.4909 22.572V21.284C43.0849 20.738 42.3709 20.458 41.6429 20.458C40.6489 20.458 39.9629 21.074 39.9629 21.928C39.9629 22.796 40.6489 23.412 41.6429 23.412ZM55.9104 24H54.8604V19.548C54.8604 18.344 54.2584 18.008 53.3344 18.008C52.5224 18.008 51.7384 18.512 51.3464 19.058V24H50.2964V14.662H51.3464V18.218C51.8084 17.644 52.7324 17.07 53.7544 17.07C55.1684 17.07 55.9104 17.756 55.9104 19.226V24ZM63.285 24H62.235V23.23C61.689 23.846 60.905 24.168 59.995 24.168C58.861 24.168 57.643 23.398 57.643 21.928C57.643 20.402 58.847 19.702 59.995 19.702C60.919 19.702 61.689 19.996 62.235 20.612V19.394C62.235 18.498 61.507 17.98 60.527 17.98C59.715 17.98 59.057 18.26 58.455 18.918L57.965 18.19C58.693 17.434 59.561 17.07 60.667 17.07C62.109 17.07 63.285 17.714 63.285 19.352V24ZM60.387 23.412C61.115 23.412 61.829 23.132 62.235 22.572V21.284C61.829 20.738 61.115 20.458 60.387 20.458C59.393 20.458 58.707 21.074 58.707 21.928C58.707 22.796 59.393 23.412 60.387 23.412ZM68.3855 24.168C66.3695 24.168 65.0115 22.614 65.0115 20.612C65.0115 18.61 66.3695 17.07 68.3855 17.07C69.6175 17.07 70.3455 17.574 70.8635 18.246L70.1635 18.876C69.7155 18.26 69.1415 18.008 68.4415 18.008C67.0135 18.008 66.1035 19.114 66.1035 20.612C66.1035 22.11 67.0135 23.23 68.4415 23.23C69.1415 23.23 69.7155 22.95 70.1635 22.348L70.8635 22.992C70.3455 23.664 69.6175 24.168 68.3855 24.168ZM72.8808 16.272C72.4888 16.272 72.1668 15.964 72.1668 15.572C72.1668 15.18 72.4888 14.858 72.8808 14.858C73.2728 14.858 73.5808 15.18 73.5808 15.572C73.5808 15.964 73.2728 16.272 72.8808 16.272ZM73.3988 24H72.3488V17.238H73.3988V24ZM80.7714 24H79.7214V23.23C79.1754 23.846 78.3914 24.168 77.4814 24.168C76.3474 24.168 75.1294 23.398 75.1294 21.928C75.1294 20.402 76.3334 19.702 77.4814 19.702C78.4054 19.702 79.1754 19.996 79.7214 20.612V19.394C79.7214 18.498 78.9934 17.98 78.0134 17.98C77.2014 17.98 76.5434 18.26 75.9414 18.918L75.4514 18.19C76.1794 17.434 77.0474 17.07 78.1534 17.07C79.5954 17.07 80.7714 17.714 80.7714 19.352V24ZM77.8734 23.412C78.6014 23.412 79.3154 23.132 79.7214 22.572V21.284C79.3154 20.738 78.6014 20.458 77.8734 20.458C76.8794 20.458 76.1934 21.074 76.1934 21.928C76.1934 22.796 76.8794 23.412 77.8734 23.412ZM87.5629 24H86.5129V14.662H87.5629V24ZM94.9354 24H93.8854V23.23C93.3394 23.846 92.5554 24.168 91.6454 24.168C90.5114 24.168 89.2934 23.398 89.2934 21.928C89.2934 20.402 90.4974 19.702 91.6454 19.702C92.5694 19.702 93.3394 19.996 93.8854 20.612V19.394C93.8854 18.498 93.1574 17.98 92.1774 17.98C91.3654 17.98 90.7074 18.26 90.1054 18.918L89.6154 18.19C90.3434 17.434 91.2114 17.07 92.3174 17.07C93.7594 17.07 94.9354 17.714 94.9354 19.352V24ZM92.0374 23.412C92.7654 23.412 93.4794 23.132 93.8854 22.572V21.284C93.4794 20.738 92.7654 20.458 92.0374 20.458C91.0434 20.458 90.3574 21.074 90.3574 21.928C90.3574 22.796 91.0434 23.412 92.0374 23.412ZM104.009 24.168C103.085 24.168 102.287 23.72 101.727 22.978V26.576H100.677V17.238H101.727V18.246C102.217 17.56 103.057 17.07 104.009 17.07C105.787 17.07 107.019 18.414 107.019 20.612C107.019 22.796 105.787 24.168 104.009 24.168ZM103.743 23.23C105.101 23.23 105.913 22.11 105.913 20.612C105.913 19.114 105.101 18.008 103.743 18.008C102.917 18.008 102.091 18.498 101.727 19.086V22.138C102.091 22.726 102.917 23.23 103.743 23.23ZM113.967 24H112.917V23.23C112.371 23.846 111.587 24.168 110.677 24.168C109.543 24.168 108.325 23.398 108.325 21.928C108.325 20.402 109.529 19.702 110.677 19.702C111.601 19.702 112.371 19.996 112.917 20.612V19.394C112.917 18.498 112.189 17.98 111.209 17.98C110.397 17.98 109.739 18.26 109.137 18.918L108.647 18.19C109.375 17.434 110.243 17.07 111.349 17.07C112.791 17.07 113.967 17.714 113.967 19.352V24ZM111.069 23.412C111.797 23.412 112.511 23.132 112.917 22.572V21.284C112.511 20.738 111.797 20.458 111.069 20.458C110.075 20.458 109.389 21.074 109.389 21.928C109.389 22.796 110.075 23.412 111.069 23.412ZM121.699 24H120.663V19.576C120.663 18.372 120.047 18.008 119.137 18.008C118.311 18.008 117.541 18.512 117.135 19.058V24H116.085V17.238H117.135V18.218C117.611 17.644 118.535 17.07 119.557 17.07C120.957 17.07 121.699 17.784 121.699 19.254V24ZM125.532 24.168C124.524 24.168 124.02 23.594 124.02 22.586V18.162H122.9V17.238H124.02V15.39H125.084V17.238H126.456V18.162H125.084V22.362C125.084 22.866 125.308 23.23 125.756 23.23C126.064 23.23 126.33 23.09 126.47 22.936L126.778 23.734C126.512 23.986 126.134 24.168 125.532 24.168ZM133.203 24H132.153V23.23C131.607 23.846 130.823 24.168 129.913 24.168C128.779 24.168 127.561 23.398 127.561 21.928C127.561 20.402 128.765 19.702 129.913 19.702C130.837 19.702 131.607 19.996 132.153 20.612V19.394C132.153 18.498 131.425 17.98 130.445 17.98C129.633 17.98 128.975 18.26 128.373 18.918L127.883 18.19C128.611 17.434 129.479 17.07 130.585 17.07C132.027 17.07 133.203 17.714 133.203 19.352V24ZM130.305 23.412C131.033 23.412 131.747 23.132 132.153 22.572V21.284C131.747 20.738 131.033 20.458 130.305 20.458C129.311 20.458 128.625 21.074 128.625 21.928C128.625 22.796 129.311 23.412 130.305 23.412ZM136.371 24H135.321V14.662H136.371V24ZM139.516 24H138.466V14.662H139.516V24ZM146.889 24H145.839V23.23C145.293 23.846 144.509 24.168 143.599 24.168C142.465 24.168 141.247 23.398 141.247 21.928C141.247 20.402 142.451 19.702 143.599 19.702C144.523 19.702 145.293 19.996 145.839 20.612V19.394C145.839 18.498 145.111 17.98 144.131 17.98C143.319 17.98 142.661 18.26 142.059 18.918L141.569 18.19C142.297 17.434 143.165 17.07 144.271 17.07C145.713 17.07 146.889 17.714 146.889 19.352V24ZM143.991 23.412C144.719 23.412 145.433 23.132 145.839 22.572V21.284C145.433 20.738 144.719 20.458 143.991 20.458C142.997 20.458 142.311 21.074 142.311 21.928C142.311 22.796 142.997 23.412 143.991 23.412ZM150.421 23.664C150.421 24.518 149.931 25.316 149.287 25.778L148.755 25.344C149.203 25.05 149.609 24.504 149.665 24.042C149.637 24.056 149.539 24.07 149.469 24.07C149.091 24.07 148.797 23.762 148.797 23.356C148.797 22.95 149.119 22.6 149.539 22.6C150.015 22.6 150.421 22.992 150.421 23.664ZM158.811 24.168C156.753 24.168 155.465 22.572 155.465 20.612C155.465 18.652 156.753 17.07 158.811 17.07C160.869 17.07 162.157 18.652 162.157 20.612C162.157 22.572 160.869 24.168 158.811 24.168ZM158.811 23.23C160.253 23.23 161.051 21.998 161.051 20.612C161.051 19.24 160.253 18.008 158.811 18.008C157.369 18.008 156.571 19.24 156.571 20.612C156.571 21.998 157.369 23.23 158.811 23.23ZM169.647 24.168C168.527 24.168 167.603 23.818 166.917 23.104L167.449 22.348C167.897 22.866 168.751 23.314 169.675 23.314C170.711 23.314 171.285 22.824 171.285 22.152C171.285 20.514 167.099 21.522 167.099 19.016C167.099 17.952 167.995 17.07 169.605 17.07C170.767 17.07 171.579 17.504 172.111 18.05L171.621 18.778C171.215 18.288 170.487 17.924 169.605 17.924C168.681 17.924 168.107 18.386 168.107 18.988C168.107 20.458 172.293 19.492 172.293 22.124C172.293 23.258 171.383 24.168 169.647 24.168ZM174.531 16.272C174.139 16.272 173.817 15.964 173.817 15.572C173.817 15.18 174.139 14.858 174.531 14.858C174.923 14.858 175.231 15.18 175.231 15.572C175.231 15.964 174.923 16.272 174.531 16.272ZM175.049 24H173.999V17.238H175.049V24ZM182.923 24.168C181.803 24.168 180.879 23.818 180.193 23.104L180.725 22.348C181.173 22.866 182.027 23.314 182.951 23.314C183.987 23.314 184.561 22.824 184.561 22.152C184.561 20.514 180.375 21.522 180.375 19.016C180.375 17.952 181.271 17.07 182.881 17.07C184.043 17.07 184.855 17.504 185.387 18.05L184.897 18.778C184.491 18.288 183.763 17.924 182.881 17.924C181.957 17.924 181.383 18.386 181.383 18.988C181.383 20.458 185.569 19.492 185.569 22.124C185.569 23.258 184.659 24.168 182.923 24.168ZM190.341 24.168C188.325 24.168 186.883 22.726 186.883 20.612C186.883 18.652 188.283 17.07 190.215 17.07C192.259 17.07 193.463 18.666 193.463 20.696V20.962H188.003C188.087 22.236 188.969 23.3 190.425 23.3C191.209 23.3 191.979 22.992 192.525 22.432L193.029 23.118C192.343 23.79 191.433 24.168 190.341 24.168ZM192.427 20.178C192.413 19.184 191.741 17.938 190.201 17.938C188.759 17.938 188.045 19.156 187.989 20.178H192.427ZM200.942 24.168C199.822 24.168 198.898 23.818 198.212 23.104L198.744 22.348C199.192 22.866 200.046 23.314 200.97 23.314C202.006 23.314 202.58 22.824 202.58 22.152C202.58 20.514 198.394 21.522 198.394 19.016C198.394 17.952 199.29 17.07 200.9 17.07C202.062 17.07 202.874 17.504 203.406 18.05L202.916 18.778C202.51 18.288 201.782 17.924 200.9 17.924C199.976 17.924 199.402 18.386 199.402 18.988C199.402 20.458 203.588 19.492 203.588 22.124C203.588 23.258 202.678 24.168 200.942 24.168ZM205.826 16.272C205.434 16.272 205.112 15.964 205.112 15.572C205.112 15.18 205.434 14.858 205.826 14.858C206.218 14.858 206.526 15.18 206.526 15.572C206.526 15.964 206.218 16.272 205.826 16.272ZM206.344 24H205.294V17.238H206.344V24ZM210.161 24.168C209.153 24.168 208.649 23.594 208.649 22.586V18.162H207.529V17.238H208.649V15.39H209.713V17.238H211.085V18.162H209.713V22.362C209.713 22.866 209.937 23.23 210.385 23.23C210.693 23.23 210.959 23.09 211.099 22.936L211.407 23.734C211.141 23.986 210.763 24.168 210.161 24.168ZM218.168 24H217.118V23.048C216.6 23.636 215.718 24.168 214.71 24.168C213.296 24.168 212.554 23.468 212.554 22.012V17.238H213.604V21.69C213.604 22.88 214.206 23.23 215.13 23.23C215.942 23.23 216.726 22.754 217.118 22.208V17.238H218.168V24ZM217.622 14.2L215.256 16.216H214.458L216.53 14.2H217.622ZM225.543 24H224.493V23.23C223.947 23.846 223.163 24.168 222.253 24.168C221.119 24.168 219.901 23.398 219.901 21.928C219.901 20.402 221.105 19.702 222.253 19.702C223.177 19.702 223.947 19.996 224.493 20.612V19.394C224.493 18.498 223.765 17.98 222.785 17.98C221.973 17.98 221.315 18.26 220.713 18.918L220.223 18.19C220.951 17.434 221.819 17.07 222.925 17.07C224.367 17.07 225.543 17.714 225.543 19.352V24ZM222.645 23.412C223.373 23.412 224.087 23.132 224.493 22.572V21.284C224.087 20.738 223.373 20.458 222.645 20.458C221.651 20.458 220.965 21.074 220.965 21.928C220.965 22.796 221.651 23.412 222.645 23.412ZM237.234 24H236.184V22.992C235.68 23.678 234.854 24.168 233.902 24.168C232.138 24.168 230.892 22.824 230.892 20.626C230.892 18.456 232.138 17.07 233.902 17.07C234.812 17.07 235.638 17.518 236.184 18.26V14.662H237.234V24ZM234.168 23.23C234.994 23.23 235.82 22.74 236.184 22.152V19.1C235.82 18.512 234.994 18.008 234.168 18.008C232.796 18.008 231.984 19.128 231.984 20.626C231.984 22.124 232.796 23.23 234.168 23.23ZM242.403 24.168C240.387 24.168 238.945 22.726 238.945 20.612C238.945 18.652 240.345 17.07 242.277 17.07C244.321 17.07 245.525 18.666 245.525 20.696V20.962H240.065C240.149 22.236 241.031 23.3 242.487 23.3C243.271 23.3 244.041 22.992 244.587 22.432L245.091 23.118C244.405 23.79 243.495 24.168 242.403 24.168ZM244.489 20.178C244.475 19.184 243.803 17.938 242.263 17.938C240.821 17.938 240.107 19.156 240.051 20.178H244.489ZM256.438 24H255.388V19.408C255.388 18.554 255.024 18.008 254.142 18.008C253.442 18.008 252.7 18.498 252.35 19.044V24H251.3V19.408C251.3 18.554 250.95 18.008 250.054 18.008C249.368 18.008 248.64 18.512 248.276 19.058V24H247.226V17.238H248.276V18.218C248.57 17.784 249.466 17.07 250.474 17.07C251.496 17.07 252.084 17.63 252.28 18.33C252.658 17.714 253.568 17.07 254.548 17.07C255.78 17.07 256.438 17.756 256.438 19.114V24ZM263.81 24H262.76V23.23C262.214 23.846 261.43 24.168 260.52 24.168C259.386 24.168 258.168 23.398 258.168 21.928C258.168 20.402 259.372 19.702 260.52 19.702C261.444 19.702 262.214 19.996 262.76 20.612V19.394C262.76 18.498 262.032 17.98 261.052 17.98C260.24 17.98 259.582 18.26 258.98 18.918L258.49 18.19C259.218 17.434 260.086 17.07 261.192 17.07C262.634 17.07 263.81 17.714 263.81 19.352V24ZM260.912 23.412C261.64 23.412 262.354 23.132 262.76 22.572V21.284C262.354 20.738 261.64 20.458 260.912 20.458C259.918 20.458 259.232 21.074 259.232 21.928C259.232 22.796 259.918 23.412 260.912 23.412ZM268.085 24.168C266.965 24.168 266.041 23.818 265.355 23.104L265.887 22.348C266.335 22.866 267.189 23.314 268.113 23.314C269.149 23.314 269.723 22.824 269.723 22.152C269.723 20.514 265.537 21.522 265.537 19.016C265.537 17.952 266.433 17.07 268.043 17.07C269.205 17.07 270.017 17.504 270.549 18.05L270.059 18.778C269.653 18.288 268.925 17.924 268.043 17.924C267.119 17.924 266.545 18.386 266.545 18.988C266.545 20.458 270.731 19.492 270.731 22.124C270.731 23.258 269.821 24.168 268.085 24.168ZM272.969 16.272C272.577 16.272 272.255 15.964 272.255 15.572C272.255 15.18 272.577 14.858 272.969 14.858C273.361 14.858 273.669 15.18 273.669 15.572C273.669 15.964 273.361 16.272 272.969 16.272ZM273.487 24H272.437V17.238H273.487V24ZM280.859 24H279.809V23.23C279.263 23.846 278.479 24.168 277.569 24.168C276.435 24.168 275.217 23.398 275.217 21.928C275.217 20.402 276.421 19.702 277.569 19.702C278.493 19.702 279.263 19.996 279.809 20.612V19.394C279.809 18.498 279.081 17.98 278.101 17.98C277.289 17.98 276.631 18.26 276.029 18.918L275.539 18.19C276.267 17.434 277.135 17.07 278.241 17.07C279.683 17.07 280.859 17.714 280.859 19.352V24ZM277.961 23.412C278.689 23.412 279.403 23.132 279.809 22.572V21.284C279.403 20.738 278.689 20.458 277.961 20.458C276.967 20.458 276.281 21.074 276.281 21.928C276.281 22.796 276.967 23.412 277.961 23.412ZM288.928 24H287.878V22.992C287.374 23.678 286.548 24.168 285.596 24.168C283.832 24.168 282.586 22.824 282.586 20.626C282.586 18.456 283.832 17.07 285.596 17.07C286.506 17.07 287.332 17.518 287.878 18.26V14.662H288.928V24ZM285.862 23.23C286.688 23.23 287.514 22.74 287.878 22.152V19.1C287.514 18.512 286.688 18.008 285.862 18.008C284.49 18.008 283.678 19.128 283.678 20.626C283.678 22.124 284.49 23.23 285.862 23.23ZM293.984 24.168C291.926 24.168 290.638 22.572 290.638 20.612C290.638 18.652 291.926 17.07 293.984 17.07C296.042 17.07 297.33 18.652 297.33 20.612C297.33 22.572 296.042 24.168 293.984 24.168ZM293.984 23.23C295.426 23.23 296.224 21.998 296.224 20.612C296.224 19.24 295.426 18.008 293.984 18.008C292.542 18.008 291.744 19.24 291.744 20.612C291.744 21.998 292.542 23.23 293.984 23.23ZM2.1 38H1.05V28.662H2.1V38ZM7.26053 38.168C5.24453 38.168 3.80253 36.726 3.80253 34.612C3.80253 32.652 5.20253 31.07 7.13453 31.07C9.17853 31.07 10.3825 32.666 10.3825 34.696V34.962H4.92253C5.00653 36.236 5.88853 37.3 7.34453 37.3C8.12853 37.3 8.89853 36.992 9.44453 36.432L9.94853 37.118C9.26253 37.79 8.35253 38.168 7.26053 38.168ZM9.34653 34.178C9.33253 33.184 8.66053 31.938 7.12053 31.938C5.67853 31.938 4.96453 33.156 4.90853 34.178H9.34653ZM12.6152 30.272C12.2232 30.272 11.9012 29.964 11.9012 29.572C11.9012 29.18 12.2232 28.858 12.6152 28.858C13.0072 28.858 13.3152 29.18 13.3152 29.572C13.3152 29.964 13.0072 30.272 12.6152 30.272ZM11.1312 40.744C10.4452 40.744 10.0812 40.576 9.6612 40.24L10.0252 39.456C10.2632 39.694 10.5712 39.876 10.9912 39.876C11.6212 39.876 12.0832 39.512 12.0832 38.658V31.238H13.1332V38.658C13.1332 39.988 12.4332 40.744 11.1312 40.744ZM18.1817 38.168C16.1237 38.168 14.8357 36.572 14.8357 34.612C14.8357 32.652 16.1237 31.07 18.1817 31.07C20.2397 31.07 21.5277 32.652 21.5277 34.612C21.5277 36.572 20.2397 38.168 18.1817 38.168ZM18.1817 37.23C19.6237 37.23 20.4217 35.998 20.4217 34.612C20.4217 33.24 19.6237 32.008 18.1817 32.008C16.7397 32.008 15.9417 33.24 15.9417 34.612C15.9417 35.998 16.7397 37.23 18.1817 37.23ZM25.3955 38.168C24.2755 38.168 23.3515 37.818 22.6655 37.104L23.1975 36.348C23.6455 36.866 24.4995 37.314 25.4235 37.314C26.4595 37.314 27.0335 36.824 27.0335 36.152C27.0335 34.514 22.8475 35.522 22.8475 33.016C22.8475 31.952 23.7435 31.07 25.3535 31.07C26.5155 31.07 27.3275 31.504 27.8595 32.05L27.3695 32.778C26.9635 32.288 26.2355 31.924 25.3535 31.924C24.4295 31.924 23.8555 32.386 23.8555 32.988C23.8555 34.458 28.0415 33.492 28.0415 36.124C28.0415 37.258 27.1315 38.168 25.3955 38.168ZM36.3243 38.168C34.2663 38.168 32.9783 36.572 32.9783 34.612C32.9783 32.652 34.2663 31.07 36.3243 31.07C38.3823 31.07 39.6703 32.652 39.6703 34.612C39.6703 36.572 38.3823 38.168 36.3243 38.168ZM36.3243 37.23C37.7663 37.23 38.5643 35.998 38.5643 34.612C38.5643 33.24 37.7663 32.008 36.3243 32.008C34.8823 32.008 34.0843 33.24 34.0843 34.612C34.0843 35.998 34.8823 37.23 36.3243 37.23ZM50.9551 38H49.9051V36.992C49.4011 37.678 48.5751 38.168 47.6231 38.168C45.8591 38.168 44.6131 36.824 44.6131 34.626C44.6131 32.456 45.8591 31.07 47.6231 31.07C48.5331 31.07 49.3591 31.518 49.9051 32.26V28.662H50.9551V38ZM47.8891 37.23C48.7151 37.23 49.5411 36.74 49.9051 36.152V33.1C49.5411 32.512 48.7151 32.008 47.8891 32.008C46.5171 32.008 45.7051 33.128 45.7051 34.626C45.7051 36.124 46.5171 37.23 47.8891 37.23ZM56.1238 38.168C54.1078 38.168 52.6658 36.726 52.6658 34.612C52.6658 32.652 54.0658 31.07 55.9978 31.07C58.0418 31.07 59.2458 32.666 59.2458 34.696V34.962H53.7858C53.8698 36.236 54.7518 37.3 56.2078 37.3C56.9918 37.3 57.7618 36.992 58.3078 36.432L58.8118 37.118C58.1258 37.79 57.2158 38.168 56.1238 38.168ZM58.2098 34.178C58.1958 33.184 57.5238 31.938 55.9838 31.938C54.5418 31.938 53.8278 33.156 53.7718 34.178H58.2098ZM70.1585 38H69.1085V33.408C69.1085 32.554 68.7445 32.008 67.8625 32.008C67.1625 32.008 66.4205 32.498 66.0705 33.044V38H65.0205V33.408C65.0205 32.554 64.6705 32.008 63.7745 32.008C63.0885 32.008 62.3605 32.512 61.9965 33.058V38H60.9465V31.238H61.9965V32.218C62.2905 31.784 63.1865 31.07 64.1945 31.07C65.2165 31.07 65.8045 31.63 66.0005 32.33C66.3785 31.714 67.2885 31.07 68.2685 31.07C69.5005 31.07 70.1585 31.756 70.1585 33.114V38ZM77.5311 38H76.4811V37.23C75.9351 37.846 75.1511 38.168 74.2411 38.168C73.1071 38.168 71.8891 37.398 71.8891 35.928C71.8891 34.402 73.0931 33.702 74.2411 33.702C75.1651 33.702 75.9351 33.996 76.4811 34.612V33.394C76.4811 32.498 75.7531 31.98 74.7731 31.98C73.9611 31.98 73.3031 32.26 72.7011 32.918L72.2111 32.19C72.9391 31.434 73.8071 31.07 74.9131 31.07C76.3551 31.07 77.5311 31.714 77.5311 33.352V38ZM74.6331 37.412C75.3611 37.412 76.0751 37.132 76.4811 36.572V35.284C76.0751 34.738 75.3611 34.458 74.6331 34.458C73.6391 34.458 72.9531 35.074 72.9531 35.928C72.9531 36.796 73.6391 37.412 74.6331 37.412ZM81.8056 38.168C80.6856 38.168 79.7616 37.818 79.0756 37.104L79.6076 36.348C80.0556 36.866 80.9096 37.314 81.8336 37.314C82.8696 37.314 83.4436 36.824 83.4436 36.152C83.4436 34.514 79.2576 35.522 79.2576 33.016C79.2576 31.952 80.1536 31.07 81.7636 31.07C82.9256 31.07 83.7376 31.504 84.2696 32.05L83.7796 32.778C83.3736 32.288 82.6456 31.924 81.7636 31.924C80.8396 31.924 80.2656 32.386 80.2656 32.988C80.2656 34.458 84.4516 33.492 84.4516 36.124C84.4516 37.258 83.5416 38.168 81.8056 38.168ZM86.6894 30.272C86.2974 30.272 85.9754 29.964 85.9754 29.572C85.9754 29.18 86.2974 28.858 86.6894 28.858C87.0814 28.858 87.3894 29.18 87.3894 29.572C87.3894 29.964 87.0814 30.272 86.6894 30.272ZM87.2074 38H86.1574V31.238H87.2074V38ZM94.58 38H93.53V37.23C92.984 37.846 92.2 38.168 91.29 38.168C90.156 38.168 88.938 37.398 88.938 35.928C88.938 34.402 90.142 33.702 91.29 33.702C92.214 33.702 92.984 33.996 93.53 34.612V33.394C93.53 32.498 92.802 31.98 91.822 31.98C91.01 31.98 90.352 32.26 89.75 32.918L89.26 32.19C89.988 31.434 90.856 31.07 91.962 31.07C93.404 31.07 94.58 31.714 94.58 33.352V38ZM91.682 37.412C92.41 37.412 93.124 37.132 93.53 36.572V35.284C93.124 34.738 92.41 34.458 91.682 34.458C90.688 34.458 90.002 35.074 90.002 35.928C90.002 36.796 90.688 37.412 91.682 37.412ZM102.648 38H101.598V36.992C101.094 37.678 100.268 38.168 99.3164 38.168C97.5524 38.168 96.3064 36.824 96.3064 34.626C96.3064 32.456 97.5524 31.07 99.3164 31.07C100.226 31.07 101.052 31.518 101.598 32.26V28.662H102.648V38ZM99.5824 37.23C100.408 37.23 101.234 36.74 101.598 36.152V33.1C101.234 32.512 100.408 32.008 99.5824 32.008C98.2104 32.008 97.3984 33.128 97.3984 34.626C97.3984 36.124 98.2104 37.23 99.5824 37.23ZM107.705 38.168C105.647 38.168 104.359 36.572 104.359 34.612C104.359 32.652 105.647 31.07 107.705 31.07C109.763 31.07 111.051 32.652 111.051 34.612C111.051 36.572 109.763 38.168 107.705 38.168ZM107.705 37.23C109.147 37.23 109.945 35.998 109.945 34.612C109.945 33.24 109.147 32.008 107.705 32.008C106.263 32.008 105.465 33.24 105.465 34.612C105.465 35.998 106.263 37.23 107.705 37.23ZM119.368 38.168C117.352 38.168 115.994 36.614 115.994 34.612C115.994 32.61 117.352 31.07 119.368 31.07C120.6 31.07 121.328 31.574 121.846 32.246L121.146 32.876C120.698 32.26 120.124 32.008 119.424 32.008C117.996 32.008 117.086 33.114 117.086 34.612C117.086 36.11 117.996 37.23 119.424 37.23C120.124 37.23 120.698 36.95 121.146 36.348L121.846 36.992C121.328 37.664 120.6 38.168 119.368 38.168ZM126.397 38.168C124.381 38.168 122.939 36.726 122.939 34.612C122.939 32.652 124.339 31.07 126.271 31.07C128.315 31.07 129.519 32.666 129.519 34.696V34.962H124.059C124.143 36.236 125.025 37.3 126.481 37.3C127.265 37.3 128.035 36.992 128.581 36.432L129.085 37.118C128.399 37.79 127.489 38.168 126.397 38.168ZM128.483 34.178C128.469 33.184 127.797 31.938 126.257 31.938C124.815 31.938 124.101 33.156 124.045 34.178H128.483ZM132.27 38H131.22V31.238H132.27V32.316C132.816 31.616 133.6 31.084 134.524 31.084V32.162C134.398 32.148 134.272 32.134 134.118 32.134C133.46 32.134 132.578 32.666 132.27 33.212V38ZM138.823 38.168C136.807 38.168 135.449 36.614 135.449 34.612C135.449 32.61 136.807 31.07 138.823 31.07C140.055 31.07 140.783 31.574 141.301 32.246L140.601 32.876C140.153 32.26 139.579 32.008 138.879 32.008C137.451 32.008 136.541 33.114 136.541 34.612C136.541 36.11 137.451 37.23 138.879 37.23C139.579 37.23 140.153 36.95 140.601 36.348L141.301 36.992C140.783 37.664 140.055 38.168 138.823 38.168ZM148.064 38H147.014V37.23C146.468 37.846 145.684 38.168 144.774 38.168C143.64 38.168 142.422 37.398 142.422 35.928C142.422 34.402 143.626 33.702 144.774 33.702C145.698 33.702 146.468 33.996 147.014 34.612V33.394C147.014 32.498 146.286 31.98 145.306 31.98C144.494 31.98 143.836 32.26 143.234 32.918L142.744 32.19C143.472 31.434 144.34 31.07 145.446 31.07C146.888 31.07 148.064 31.714 148.064 33.352V38ZM145.166 37.412C145.894 37.412 146.608 37.132 147.014 36.572V35.284C146.608 34.738 145.894 34.458 145.166 34.458C144.172 34.458 143.486 35.074 143.486 35.928C143.486 36.796 144.172 37.412 145.166 37.412ZM159.756 38H158.706V36.992C158.202 37.678 157.376 38.168 156.424 38.168C154.66 38.168 153.414 36.824 153.414 34.626C153.414 32.456 154.66 31.07 156.424 31.07C157.334 31.07 158.16 31.518 158.706 32.26V28.662H159.756V38ZM156.69 37.23C157.516 37.23 158.342 36.74 158.706 36.152V33.1C158.342 32.512 157.516 32.008 156.69 32.008C155.318 32.008 154.506 33.128 154.506 34.626C154.506 36.124 155.318 37.23 156.69 37.23ZM164.925 38.168C162.909 38.168 161.467 36.726 161.467 34.612C161.467 32.652 162.867 31.07 164.799 31.07C166.843 31.07 168.047 32.666 168.047 34.696V34.962H162.587C162.671 36.236 163.553 37.3 165.009 37.3C165.793 37.3 166.563 36.992 167.109 36.432L167.613 37.118C166.927 37.79 166.017 38.168 164.925 38.168ZM167.011 34.178C166.997 33.184 166.325 31.938 164.785 31.938C163.343 31.938 162.629 33.156 162.573 34.178H167.011ZM174.42 38H173.37V28.662H174.42V38ZM181.793 38H180.743V37.23C180.197 37.846 179.413 38.168 178.503 38.168C177.369 38.168 176.151 37.398 176.151 35.928C176.151 34.402 177.355 33.702 178.503 33.702C179.427 33.702 180.197 33.996 180.743 34.612V33.394C180.743 32.498 180.015 31.98 179.035 31.98C178.223 31.98 177.565 32.26 176.963 32.918L176.473 32.19C177.201 31.434 178.069 31.07 179.175 31.07C180.617 31.07 181.793 31.714 181.793 33.352V38ZM178.895 37.412C179.623 37.412 180.337 37.132 180.743 36.572V35.284C180.337 34.738 179.623 34.458 178.895 34.458C177.901 34.458 177.215 35.074 177.215 35.928C177.215 36.796 177.901 37.412 178.895 37.412ZM190.516 38.168C188.5 38.168 187.142 36.614 187.142 34.612C187.142 32.61 188.5 31.07 190.516 31.07C191.748 31.07 192.476 31.574 192.994 32.246L192.294 32.876C191.846 32.26 191.272 32.008 190.572 32.008C189.144 32.008 188.234 33.114 188.234 34.612C188.234 36.11 189.144 37.23 190.572 37.23C191.272 37.23 191.846 36.95 192.294 36.348L192.994 36.992C192.476 37.664 191.748 38.168 190.516 38.168ZM199.758 38H198.708V37.23C198.162 37.846 197.378 38.168 196.468 38.168C195.334 38.168 194.116 37.398 194.116 35.928C194.116 34.402 195.32 33.702 196.468 33.702C197.392 33.702 198.162 33.996 198.708 34.612V33.394C198.708 32.498 197.98 31.98 197 31.98C196.188 31.98 195.53 32.26 194.928 32.918L194.438 32.19C195.166 31.434 196.034 31.07 197.14 31.07C198.582 31.07 199.758 31.714 199.758 33.352V38ZM196.86 37.412C197.588 37.412 198.302 37.132 198.708 36.572V35.284C198.302 34.738 197.588 34.458 196.86 34.458C195.866 34.458 195.18 35.074 195.18 35.928C195.18 36.796 195.866 37.412 196.86 37.412ZM199.408 28.2L197.042 30.216H196.244L198.316 28.2H199.408ZM211.088 38H210.038V33.408C210.038 32.554 209.674 32.008 208.792 32.008C208.092 32.008 207.35 32.498 207 33.044V38H205.95V33.408C205.95 32.554 205.6 32.008 204.704 32.008C204.018 32.008 203.29 32.512 202.926 33.058V38H201.876V31.238H202.926V32.218C203.22 31.784 204.116 31.07 205.124 31.07C206.146 31.07 206.734 31.63 206.93 32.33C207.308 31.714 208.218 31.07 209.198 31.07C210.43 31.07 211.088 31.756 211.088 33.114V38ZM218.461 38H217.411V37.23C216.865 37.846 216.081 38.168 215.171 38.168C214.037 38.168 212.819 37.398 212.819 35.928C212.819 34.402 214.023 33.702 215.171 33.702C216.095 33.702 216.865 33.996 217.411 34.612V33.394C217.411 32.498 216.683 31.98 215.703 31.98C214.891 31.98 214.233 32.26 213.631 32.918L213.141 32.19C213.869 31.434 214.737 31.07 215.843 31.07C217.285 31.07 218.461 31.714 218.461 33.352V38ZM215.563 37.412C216.291 37.412 217.005 37.132 217.411 36.572V35.284C217.005 34.738 216.291 34.458 215.563 34.458C214.569 34.458 213.883 35.074 213.883 35.928C213.883 36.796 214.569 37.412 215.563 37.412ZM221.629 38H220.579V31.238H221.629V32.316C222.175 31.616 222.959 31.084 223.883 31.084V32.162C223.757 32.148 223.631 32.134 223.477 32.134C222.819 32.134 221.937 32.666 221.629 33.212V38ZM230.478 38H229.428V37.23C228.882 37.846 228.098 38.168 227.188 38.168C226.054 38.168 224.836 37.398 224.836 35.928C224.836 34.402 226.04 33.702 227.188 33.702C228.112 33.702 228.882 33.996 229.428 34.612V33.394C229.428 32.498 228.7 31.98 227.72 31.98C226.908 31.98 226.25 32.26 225.648 32.918L225.158 32.19C225.886 31.434 226.754 31.07 227.86 31.07C229.302 31.07 230.478 31.714 230.478 33.352V38ZM227.58 37.412C228.308 37.412 229.022 37.132 229.428 36.572V35.284C229.022 34.738 228.308 34.458 227.58 34.458C226.586 34.458 225.9 35.074 225.9 35.928C225.9 36.796 226.586 37.412 227.58 37.412ZM233.157 38.14C232.737 38.14 232.387 37.79 232.387 37.37C232.387 36.95 232.737 36.6 233.157 36.6C233.577 36.6 233.927 36.95 233.927 37.37C233.927 37.79 233.577 38.14 233.157 38.14Z" fill="#212121"/>
</svg>
