<svg width="306" height="47" viewBox="0 0 306 47" fill="none" xmlns="http://www.w3.org/2000/svg">
<path d="M2.254 10H1.092V0.661999H7.21V1.698H2.254V4.708H7.112V5.744H2.254V10ZM11.7013 10.168C9.64327 10.168 8.35527 8.572 8.35527 6.612C8.35527 4.652 9.64327 3.07 11.7013 3.07C13.7593 3.07 15.0473 4.652 15.0473 6.612C15.0473 8.572 13.7593 10.168 11.7013 10.168ZM11.7013 9.23C13.1433 9.23 13.9413 7.998 13.9413 6.612C13.9413 5.24 13.1433 4.008 11.7013 4.008C10.2593 4.008 9.44727 5.24 9.44727 6.612C9.44727 7.998 10.2593 9.23 11.7013 9.23ZM17.809 10H16.759V3.238H17.809V4.33C18.355 3.616 19.139 3.098 20.063 3.098V4.176C19.937 4.148 19.811 4.134 19.643 4.134C18.999 4.134 18.117 4.666 17.809 5.212V10ZM26.6975 10.168C25.7035 10.168 25.1995 9.594 25.1995 8.586V4.162H24.0795V3.238H25.1995V1.39H26.2495V3.238H27.6215V4.162H26.2495V8.362C26.2495 8.866 26.4735 9.23 26.9355 9.23C27.2295 9.23 27.5095 9.104 27.6495 8.95L27.9575 9.734C27.6915 9.986 27.3135 10.168 26.6975 10.168ZM34.7327 10H33.6827V5.548C33.6827 4.358 33.0667 4.008 32.1567 4.008C31.3447 4.008 30.5607 4.512 30.1547 5.058V10H29.1047V0.661999H30.1547V4.218C30.6307 3.658 31.5547 3.07 32.5767 3.07C33.9907 3.07 34.7327 3.756 34.7327 5.226V10ZM39.8813 10.168C37.8793 10.168 36.4373 8.726 36.4373 6.612C36.4373 4.652 37.8373 3.07 39.7693 3.07C41.8133 3.07 43.0173 4.666 43.0173 6.696V6.962H37.5433C37.6273 8.236 38.5233 9.3 39.9793 9.3C40.7493 9.3 41.5333 8.992 42.0653 8.446L42.5693 9.132C41.8973 9.804 40.9873 10.168 39.8813 10.168ZM41.9813 6.192C41.9673 5.184 41.2953 3.938 39.7553 3.938C38.3133 3.938 37.5993 5.156 37.5433 6.192H41.9813ZM57.5393 10H56.4893V5.408C56.4893 4.554 56.1113 4.008 55.2433 4.008C54.5433 4.008 53.8013 4.512 53.4513 5.044V10H52.4013V5.408C52.4013 4.554 52.0373 4.008 51.1553 4.008C50.4693 4.008 49.7413 4.512 49.3773 5.058V10H48.3273V3.238H49.3773V4.218C49.6573 3.784 50.5673 3.07 51.5613 3.07C52.5973 3.07 53.1853 3.63 53.3813 4.33C53.7593 3.714 54.6693 3.07 55.6493 3.07C56.8813 3.07 57.5393 3.756 57.5393 5.114V10ZM62.686 10.168C60.684 10.168 59.242 8.726 59.242 6.612C59.242 4.652 60.642 3.07 62.574 3.07C64.618 3.07 65.822 4.666 65.822 6.696V6.962H60.348C60.432 8.236 61.328 9.3 62.784 9.3C63.554 9.3 64.338 8.992 64.87 8.446L65.374 9.132C64.702 9.804 63.792 10.168 62.686 10.168ZM64.786 6.192C64.772 5.184 64.1 3.938 62.56 3.938C61.118 3.938 60.404 5.156 60.348 6.192H64.786ZM72.8007 10H71.7507V9.23C71.1907 9.846 70.4207 10.168 69.5107 10.168C68.3627 10.168 67.1447 9.398 67.1447 7.928C67.1447 6.416 68.3627 5.702 69.5107 5.702C70.4347 5.702 71.2047 5.996 71.7507 6.626V5.408C71.7507 4.498 71.0227 3.98 70.0427 3.98C69.2307 3.98 68.5727 4.274 67.9707 4.918L67.4807 4.19C68.2087 3.434 69.0767 3.07 70.1827 3.07C71.6107 3.07 72.8007 3.714 72.8007 5.352V10ZM69.8887 9.412C70.6307 9.412 71.3447 9.132 71.7507 8.572V7.298C71.3447 6.738 70.6307 6.458 69.8887 6.458C68.9087 6.458 68.2227 7.074 68.2227 7.942C68.2227 8.796 68.9087 9.412 69.8887 9.412ZM77.0475 10.168C75.9415 10.168 75.0035 9.832 74.3175 9.104L74.8635 8.348C75.3115 8.866 76.1655 9.314 77.0895 9.314C78.1255 9.314 78.6855 8.824 78.6855 8.152C78.6855 6.514 74.4995 7.522 74.4995 5.016C74.4995 3.966 75.4095 3.07 77.0195 3.07C78.1675 3.07 78.9795 3.504 79.5255 4.05L79.0355 4.778C78.6295 4.288 77.8875 3.924 77.0195 3.924C76.0955 3.924 75.5215 4.386 75.5215 4.988C75.5215 6.472 79.7075 5.492 79.7075 8.124C79.7075 9.258 78.7975 10.168 77.0475 10.168ZM87.0273 10H85.9773V9.048C85.4593 9.636 84.5773 10.168 83.5693 10.168C82.1553 10.168 81.4133 9.482 81.4133 8.012V3.238H82.4633V7.69C82.4633 8.88 83.0653 9.23 83.9753 9.23C84.8013 9.23 85.5853 8.754 85.9773 8.208V3.238H87.0273V10ZM90.1742 10H89.1242V3.238H90.1742V4.33C90.7202 3.616 91.5042 3.098 92.4282 3.098V4.176C92.3022 4.148 92.1762 4.134 92.0082 4.134C91.3642 4.134 90.4822 4.666 90.1742 5.212V10ZM96.7973 10.168C94.7953 10.168 93.3533 8.726 93.3533 6.612C93.3533 4.652 94.7533 3.07 96.6853 3.07C98.7293 3.07 99.9333 4.666 99.9333 6.696V6.962H94.4593C94.5433 8.236 95.4393 9.3 96.8953 9.3C97.6653 9.3 98.4493 8.992 98.9813 8.446L99.4853 9.132C98.8133 9.804 97.9033 10.168 96.7973 10.168ZM98.8973 6.192C98.8833 5.184 98.2113 3.938 96.6713 3.938C95.2293 3.938 94.5153 5.156 94.4593 6.192H98.8973ZM110.846 10H109.796V5.408C109.796 4.554 109.418 4.008 108.55 4.008C107.85 4.008 107.108 4.512 106.758 5.044V10H105.708V5.408C105.708 4.554 105.344 4.008 104.462 4.008C103.776 4.008 103.048 4.512 102.684 5.058V10H101.634V3.238H102.684V4.218C102.964 3.784 103.874 3.07 104.868 3.07C105.904 3.07 106.492 3.63 106.688 4.33C107.066 3.714 107.976 3.07 108.956 3.07C110.188 3.07 110.846 3.756 110.846 5.114V10ZM115.993 10.168C113.991 10.168 112.549 8.726 112.549 6.612C112.549 4.652 113.949 3.07 115.881 3.07C117.925 3.07 119.129 4.666 119.129 6.696V6.962H113.655C113.739 8.236 114.635 9.3 116.091 9.3C116.861 9.3 117.645 8.992 118.177 8.446L118.681 9.132C118.009 9.804 117.099 10.168 115.993 10.168ZM118.093 6.192C118.079 5.184 117.407 3.938 115.867 3.938C114.425 3.938 113.711 5.156 113.655 6.192H118.093ZM126.443 10H125.393V5.576C125.393 4.386 124.791 4.008 123.881 4.008C123.055 4.008 122.271 4.512 121.879 5.058V10H120.829V3.238H121.879V4.218C122.355 3.658 123.279 3.07 124.287 3.07C125.701 3.07 126.443 3.784 126.443 5.254V10ZM130.248 10.168C129.254 10.168 128.75 9.594 128.75 8.586V4.162H127.63V3.238H128.75V1.39H129.8V3.238H131.172V4.162H129.8V8.362C129.8 8.866 130.024 9.23 130.486 9.23C130.78 9.23 131.06 9.104 131.2 8.95L131.508 9.734C131.242 9.986 130.864 10.168 130.248 10.168ZM137.973 10.168C136.979 10.168 136.475 9.594 136.475 8.586V4.162H135.355V3.238H136.475V1.39H137.525V3.238H138.897V4.162H137.525V8.362C137.525 8.866 137.749 9.23 138.211 9.23C138.505 9.23 138.785 9.104 138.925 8.95L139.233 9.734C138.967 9.986 138.589 10.168 137.973 10.168ZM143.334 10.168C141.276 10.168 139.988 8.572 139.988 6.612C139.988 4.652 141.276 3.07 143.334 3.07C145.392 3.07 146.68 4.652 146.68 6.612C146.68 8.572 145.392 10.168 143.334 10.168ZM143.334 9.23C144.776 9.23 145.574 7.998 145.574 6.612C145.574 5.24 144.776 4.008 143.334 4.008C141.892 4.008 141.08 5.24 141.08 6.612C141.08 7.998 141.892 9.23 143.334 9.23ZM158.903 10H157.853L156.089 4.568L154.325 10H153.275L151.119 3.238H152.211L153.863 8.628L155.641 3.238H156.537L158.315 8.628L159.967 3.238H161.059L158.903 10ZM165.236 10.168C163.178 10.168 161.89 8.572 161.89 6.612C161.89 4.652 163.178 3.07 165.236 3.07C167.294 3.07 168.582 4.652 168.582 6.612C168.582 8.572 167.294 10.168 165.236 10.168ZM165.236 9.23C166.678 9.23 167.476 7.998 167.476 6.612C167.476 5.24 166.678 4.008 165.236 4.008C163.794 4.008 162.982 5.24 162.982 6.612C162.982 7.998 163.794 9.23 165.236 9.23ZM171.344 10H170.294V3.238H171.344V4.33C171.89 3.616 172.674 3.098 173.598 3.098V4.176C173.472 4.148 173.346 4.134 173.178 4.134C172.534 4.134 171.652 4.666 171.344 5.212V10ZM180.865 10H179.521L177.085 6.962L175.965 8.068V10H174.915V0.661999H175.965V6.836L179.521 3.238H180.851L177.855 6.304L180.865 10ZM188.698 10.168C186.682 10.168 185.324 8.628 185.324 6.612C185.324 4.61 186.682 3.07 188.698 3.07C189.93 3.07 190.658 3.574 191.176 4.246L190.476 4.89C190.028 4.274 189.454 4.008 188.754 4.008C187.312 4.008 186.416 5.114 186.416 6.612C186.416 8.11 187.312 9.23 188.754 9.23C189.454 9.23 190.028 8.95 190.476 8.348L191.176 8.992C190.658 9.664 189.93 10.168 188.698 10.168ZM195.602 10.168C193.544 10.168 192.256 8.572 192.256 6.612C192.256 4.652 193.544 3.07 195.602 3.07C197.66 3.07 198.948 4.652 198.948 6.612C198.948 8.572 197.66 10.168 195.602 10.168ZM195.602 9.23C197.044 9.23 197.842 7.998 197.842 6.612C197.842 5.24 197.044 4.008 195.602 4.008C194.16 4.008 193.348 5.24 193.348 6.612C193.348 7.998 194.16 9.23 195.602 9.23ZM201.709 10H200.659V3.238H201.709V4.33C202.255 3.616 203.039 3.098 203.963 3.098V4.176C203.837 4.148 203.711 4.134 203.543 4.134C202.899 4.134 202.017 4.666 201.709 5.212V10ZM206.33 10H205.28V3.238H206.33V4.33C206.876 3.616 207.66 3.098 208.584 3.098V4.176C208.458 4.148 208.332 4.134 208.164 4.134C207.52 4.134 206.638 4.666 206.33 5.212V10ZM212.954 10.168C210.952 10.168 209.51 8.726 209.51 6.612C209.51 4.652 210.91 3.07 212.842 3.07C214.886 3.07 216.09 4.666 216.09 6.696V6.962H210.616C210.7 8.236 211.596 9.3 213.052 9.3C213.822 9.3 214.606 8.992 215.138 8.446L215.642 9.132C214.97 9.804 214.06 10.168 212.954 10.168ZM215.054 6.192C215.04 5.184 214.368 3.938 212.828 3.938C211.386 3.938 210.672 5.156 210.616 6.192H215.054ZM220.772 10.168C218.756 10.168 217.398 8.628 217.398 6.612C217.398 4.61 218.756 3.07 220.772 3.07C222.004 3.07 222.732 3.574 223.25 4.246L222.55 4.89C222.102 4.274 221.528 4.008 220.828 4.008C219.386 4.008 218.49 5.114 218.49 6.612C218.49 8.11 219.386 9.23 220.828 9.23C221.528 9.23 222.102 8.95 222.55 8.348L223.25 8.992C222.732 9.664 222.004 10.168 220.772 10.168ZM226.43 10.168C225.436 10.168 224.932 9.594 224.932 8.586V4.162H223.812V3.238H224.932V1.39H225.982V3.238H227.354V4.162H225.982V8.362C225.982 8.866 226.206 9.23 226.668 9.23C226.962 9.23 227.242 9.104 227.382 8.95L227.69 9.734C227.424 9.986 227.046 10.168 226.43 10.168ZM229.887 10H228.837V0.661999H229.887V10ZM231.604 12.646L231.772 11.694C231.926 11.764 232.178 11.806 232.346 11.806C232.808 11.806 233.116 11.652 233.354 11.092L233.802 10.07L230.974 3.238H232.108L234.362 8.782L236.602 3.238H237.75L234.362 11.372C233.956 12.352 233.27 12.73 232.374 12.744C232.15 12.744 231.8 12.702 231.604 12.646ZM239.466 9.664C239.466 10.518 238.962 11.316 238.318 11.778L237.8 11.344C238.248 11.05 238.654 10.504 238.71 10.042C238.682 10.056 238.584 10.07 238.514 10.07C238.122 10.07 237.842 9.776 237.842 9.356C237.842 8.95 238.164 8.6 238.584 8.6C239.046 8.6 239.466 8.992 239.466 9.664ZM246.596 10.168C245.602 10.168 245.098 9.594 245.098 8.586V4.162H243.978V3.238H245.098V1.39H246.148V3.238H247.52V4.162H246.148V8.362C246.148 8.866 246.372 9.23 246.834 9.23C247.128 9.23 247.408 9.104 247.548 8.95L247.856 9.734C247.59 9.986 247.212 10.168 246.596 10.168ZM254.631 10H253.581V5.548C253.581 4.358 252.965 4.008 252.055 4.008C251.243 4.008 250.459 4.512 250.053 5.058V10H249.003V0.661999H250.053V4.218C250.529 3.658 251.453 3.07 252.475 3.07C253.889 3.07 254.631 3.756 254.631 5.226V10ZM259.78 10.168C257.778 10.168 256.336 8.726 256.336 6.612C256.336 4.652 257.736 3.07 259.668 3.07C261.712 3.07 262.916 4.666 262.916 6.696V6.962H257.442C257.526 8.236 258.422 9.3 259.878 9.3C260.648 9.3 261.432 8.992 261.964 8.446L262.468 9.132C261.796 9.804 260.886 10.168 259.78 10.168ZM261.88 6.192C261.866 5.184 261.194 3.938 259.654 3.938C258.212 3.938 257.498 5.156 257.442 6.192H261.88ZM269.276 10H268.226V0.661999H269.276V10ZM271.888 2.272C271.51 2.272 271.188 1.964 271.188 1.572C271.188 1.18 271.51 0.857999 271.888 0.857999C272.28 0.857999 272.602 1.18 272.602 1.572C272.602 1.964 272.28 2.272 271.888 2.272ZM272.42 10H271.37V3.238H272.42V10ZM277.231 12.744C276.083 12.744 275.299 12.52 274.501 11.736L275.033 10.952C275.593 11.624 276.265 11.876 277.231 11.876C278.351 11.876 279.401 11.33 279.401 9.846V8.88C278.911 9.566 278.085 10.084 277.133 10.084C275.369 10.084 274.123 8.768 274.123 6.584C274.123 4.414 275.355 3.07 277.133 3.07C278.043 3.07 278.855 3.518 279.401 4.26V3.238H280.451V9.804C280.451 12.044 278.883 12.744 277.231 12.744ZM277.385 9.16C278.225 9.16 279.037 8.642 279.401 8.054V5.1C279.037 4.512 278.225 4.008 277.385 4.008C276.027 4.008 275.215 5.086 275.215 6.584C275.215 8.068 276.027 9.16 277.385 9.16ZM288.182 10H287.132V5.548C287.132 4.358 286.516 4.008 285.606 4.008C284.794 4.008 284.01 4.512 283.604 5.058V10H282.554V0.661999H283.604V4.218C284.08 3.658 285.004 3.07 286.026 3.07C287.44 3.07 288.182 3.756 288.182 5.226V10ZM291.987 10.168C290.993 10.168 290.489 9.594 290.489 8.586V4.162H289.369V3.238H290.489V1.39H291.539V3.238H292.911V4.162H291.539V8.362C291.539 8.866 291.763 9.23 292.225 9.23C292.519 9.23 292.799 9.104 292.939 8.95L293.247 9.734C292.981 9.986 292.603 10.168 291.987 10.168ZM3.192 27.168C2.086 27.168 1.148 26.832 0.462 26.104L1.008 25.348C1.456 25.866 2.31 26.314 3.234 26.314C4.27 26.314 4.83 25.824 4.83 25.152C4.83 23.514 0.644 24.522 0.644 22.016C0.644 20.966 1.554 20.07 3.164 20.07C4.312 20.07 5.124 20.504 5.67 21.05L5.18 21.778C4.774 21.288 4.032 20.924 3.164 20.924C2.24 20.924 1.666 21.386 1.666 21.988C1.666 23.472 5.852 22.492 5.852 25.124C5.852 26.258 4.942 27.168 3.192 27.168ZM13.1858 27H12.1358V22.548C12.1358 21.358 11.5198 21.008 10.6098 21.008C9.79781 21.008 9.01381 21.512 8.60781 22.058V27H7.55781V17.662H8.60781V21.218C9.08381 20.658 10.0078 20.07 11.0298 20.07C12.4438 20.07 13.1858 20.756 13.1858 22.226V27ZM18.2364 27.168C16.1784 27.168 14.8904 25.572 14.8904 23.612C14.8904 21.652 16.1784 20.07 18.2364 20.07C20.2944 20.07 21.5824 21.652 21.5824 23.612C21.5824 25.572 20.2944 27.168 18.2364 27.168ZM18.2364 26.23C19.6784 26.23 20.4764 24.998 20.4764 23.612C20.4764 22.24 19.6784 21.008 18.2364 21.008C16.7944 21.008 15.9824 22.24 15.9824 23.612C15.9824 24.998 16.7944 26.23 18.2364 26.23ZM28.9081 27H27.8581V26.048C27.3401 26.636 26.4581 27.168 25.4501 27.168C24.0361 27.168 23.2941 26.482 23.2941 25.012V20.238H24.3441V24.69C24.3441 25.88 24.9461 26.23 25.8561 26.23C26.6821 26.23 27.4661 25.754 27.8581 25.208V20.238H28.9081V27ZM32.0551 27H31.0051V17.662H32.0551V27ZM40.0996 27H39.0496V25.992C38.5456 26.678 37.7196 27.168 36.7676 27.168C35.0036 27.168 33.7576 25.824 33.7576 23.626C33.7576 21.47 34.9896 20.07 36.7676 20.07C37.6776 20.07 38.5036 20.518 39.0496 21.26V17.662H40.0996V27ZM37.0196 26.23C37.8596 26.23 38.6716 25.754 39.0496 25.166V22.1C38.6716 21.512 37.8596 21.008 37.0196 21.008C35.6616 21.008 34.8496 22.128 34.8496 23.626C34.8496 25.124 35.6616 26.23 37.0196 26.23ZM51.4257 27H50.3757V22.576C50.3757 21.386 49.7737 21.008 48.8637 21.008C48.0377 21.008 47.2537 21.512 46.8617 22.058V27H45.8117V20.238H46.8617V21.218C47.3377 20.658 48.2617 20.07 49.2697 20.07C50.6837 20.07 51.4257 20.784 51.4257 22.254V27ZM56.4767 27.168C54.4187 27.168 53.1307 25.572 53.1307 23.612C53.1307 21.652 54.4187 20.07 56.4767 20.07C58.5347 20.07 59.8227 21.652 59.8227 23.612C59.8227 25.572 58.5347 27.168 56.4767 27.168ZM56.4767 26.23C57.9187 26.23 58.7167 24.998 58.7167 23.612C58.7167 22.24 57.9187 21.008 56.4767 21.008C55.0347 21.008 54.2227 22.24 54.2227 23.612C54.2227 24.998 55.0347 26.23 56.4767 26.23ZM63.2424 27.168C62.2484 27.168 61.7444 26.594 61.7444 25.586V21.162H60.6244V20.238H61.7444V18.39H62.7944V20.238H64.1664V21.162H62.7944V25.362C62.7944 25.866 63.0184 26.23 63.4804 26.23C63.7744 26.23 64.0544 26.104 64.1944 25.95L64.5024 26.734C64.2364 26.986 63.8584 27.168 63.2424 27.168ZM70.309 25.166C70.673 25.754 71.499 26.23 72.325 26.23C73.697 26.23 74.509 25.124 74.509 23.626C74.509 22.128 73.697 21.008 72.325 21.008C71.499 21.008 70.673 21.512 70.309 22.1V25.166ZM70.309 27H69.259V17.662H70.309V21.26C70.855 20.518 71.667 20.07 72.591 20.07C74.355 20.07 75.601 21.47 75.601 23.626C75.601 25.824 74.355 27.168 72.591 27.168C71.639 27.168 70.813 26.678 70.309 25.992V27ZM80.3637 27.168C78.3617 27.168 76.9197 25.726 76.9197 23.612C76.9197 21.652 78.3197 20.07 80.2517 20.07C82.2957 20.07 83.4997 21.666 83.4997 23.696V23.962H78.0257C78.1097 25.236 79.0057 26.3 80.4617 26.3C81.2317 26.3 82.0157 25.992 82.5477 25.446L83.0517 26.132C82.3797 26.804 81.4697 27.168 80.3637 27.168ZM82.4637 23.192C82.4497 22.184 81.7777 20.938 80.2377 20.938C78.7957 20.938 78.0817 22.156 78.0257 23.192H82.4637ZM90.5178 27.168C89.5238 27.168 89.0198 26.594 89.0198 25.586V21.162H87.8998V20.238H89.0198V18.39H90.0698V20.238H91.4418V21.162H90.0698V25.362C90.0698 25.866 90.2938 26.23 90.7558 26.23C91.0498 26.23 91.3298 26.104 91.4698 25.95L91.7778 26.734C91.5118 26.986 91.1338 27.168 90.5178 27.168ZM95.879 27.168C93.821 27.168 92.533 25.572 92.533 23.612C92.533 21.652 93.821 20.07 95.879 20.07C97.937 20.07 99.225 21.652 99.225 23.612C99.225 25.572 97.937 27.168 95.879 27.168ZM95.879 26.23C97.321 26.23 98.119 24.998 98.119 23.612C98.119 22.24 97.321 21.008 95.879 21.008C94.437 21.008 93.625 22.24 93.625 23.612C93.625 24.998 94.437 26.23 95.879 26.23ZM103.891 27.168C101.833 27.168 100.545 25.572 100.545 23.612C100.545 21.652 101.833 20.07 103.891 20.07C105.949 20.07 107.237 21.652 107.237 23.612C107.237 25.572 105.949 27.168 103.891 27.168ZM103.891 26.23C105.333 26.23 106.131 24.998 106.131 23.612C106.131 22.24 105.333 21.008 103.891 21.008C102.449 21.008 101.637 22.24 101.637 23.612C101.637 24.998 102.449 26.23 103.891 26.23ZM113.608 25.166C113.972 25.754 114.798 26.23 115.624 26.23C116.996 26.23 117.808 25.124 117.808 23.626C117.808 22.128 116.996 21.008 115.624 21.008C114.798 21.008 113.972 21.512 113.608 22.1V25.166ZM113.608 27H112.558V17.662H113.608V21.26C114.154 20.518 114.966 20.07 115.89 20.07C117.654 20.07 118.9 21.47 118.9 23.626C118.9 25.824 117.654 27.168 115.89 27.168C114.938 27.168 114.112 26.678 113.608 25.992V27ZM121.661 27H120.611V20.238H121.661V21.33C122.207 20.616 122.991 20.098 123.915 20.098V21.176C123.789 21.148 123.663 21.134 123.495 21.134C122.851 21.134 121.969 21.666 121.661 22.212V27ZM125.75 19.272C125.372 19.272 125.05 18.964 125.05 18.572C125.05 18.18 125.372 17.858 125.75 17.858C126.142 17.858 126.464 18.18 126.464 18.572C126.464 18.964 126.142 19.272 125.75 19.272ZM126.282 27H125.232V20.238H126.282V27ZM131.092 29.744C129.944 29.744 129.16 29.52 128.362 28.736L128.894 27.952C129.454 28.624 130.126 28.876 131.092 28.876C132.212 28.876 133.262 28.33 133.262 26.846V25.88C132.772 26.566 131.946 27.084 130.994 27.084C129.23 27.084 127.984 25.768 127.984 23.584C127.984 21.414 129.216 20.07 130.994 20.07C131.904 20.07 132.716 20.518 133.262 21.26V20.238H134.312V26.804C134.312 29.044 132.744 29.744 131.092 29.744ZM131.246 26.16C132.086 26.16 132.898 25.642 133.262 25.054V22.1C132.898 21.512 132.086 21.008 131.246 21.008C129.888 21.008 129.076 22.086 129.076 23.584C129.076 25.068 129.888 26.16 131.246 26.16ZM142.043 27H140.993V22.548C140.993 21.358 140.377 21.008 139.467 21.008C138.655 21.008 137.871 21.512 137.465 22.058V27H136.415V17.662H137.465V21.218C137.941 20.658 138.865 20.07 139.887 20.07C141.301 20.07 142.043 20.756 142.043 22.226V27ZM145.848 27.168C144.854 27.168 144.35 26.594 144.35 25.586V21.162H143.23V20.238H144.35V18.39H145.4V20.238H146.772V21.162H145.4V25.362C145.4 25.866 145.624 26.23 146.086 26.23C146.38 26.23 146.66 26.104 146.8 25.95L147.108 26.734C146.842 26.986 146.464 27.168 145.848 27.168ZM154.818 27.168C152.76 27.168 151.472 25.572 151.472 23.612C151.472 21.652 152.76 20.07 154.818 20.07C156.876 20.07 158.164 21.652 158.164 23.612C158.164 25.572 156.876 27.168 154.818 27.168ZM154.818 26.23C156.26 26.23 157.058 24.998 157.058 23.612C157.058 22.24 156.26 21.008 154.818 21.008C153.376 21.008 152.564 22.24 152.564 23.612C152.564 24.998 153.376 26.23 154.818 26.23ZM160.926 27H159.876V20.238H160.926V21.33C161.472 20.616 162.256 20.098 163.18 20.098V21.176C163.054 21.148 162.928 21.134 162.76 21.134C162.116 21.134 161.234 21.666 160.926 22.212V27ZM169.815 27.168C168.821 27.168 168.317 26.594 168.317 25.586V21.162H167.197V20.238H168.317V18.39H169.367V20.238H170.739V21.162H169.367V25.362C169.367 25.866 169.591 26.23 170.053 26.23C170.347 26.23 170.627 26.104 170.767 25.95L171.075 26.734C170.809 26.986 170.431 27.168 169.815 27.168ZM175.176 27.168C173.118 27.168 171.83 25.572 171.83 23.612C171.83 21.652 173.118 20.07 175.176 20.07C177.234 20.07 178.522 21.652 178.522 23.612C178.522 25.572 177.234 27.168 175.176 27.168ZM175.176 26.23C176.618 26.23 177.416 24.998 177.416 23.612C177.416 22.24 176.618 21.008 175.176 21.008C173.734 21.008 172.922 22.24 172.922 23.612C172.922 24.998 173.734 26.23 175.176 26.23ZM183.188 27.168C181.13 27.168 179.842 25.572 179.842 23.612C179.842 21.652 181.13 20.07 183.188 20.07C185.246 20.07 186.534 21.652 186.534 23.612C186.534 25.572 185.246 27.168 183.188 27.168ZM183.188 26.23C184.63 26.23 185.428 24.998 185.428 23.612C185.428 22.24 184.63 21.008 183.188 21.008C181.746 21.008 180.934 22.24 180.934 23.612C180.934 24.998 181.746 26.23 183.188 26.23ZM197.805 27H196.755V25.992C196.251 26.678 195.425 27.168 194.473 27.168C192.709 27.168 191.463 25.824 191.463 23.626C191.463 21.47 192.695 20.07 194.473 20.07C195.383 20.07 196.209 20.518 196.755 21.26V17.662H197.805V27ZM194.725 26.23C195.565 26.23 196.377 25.754 196.755 25.166V22.1C196.377 21.512 195.565 21.008 194.725 21.008C193.367 21.008 192.555 22.128 192.555 23.626C192.555 25.124 193.367 26.23 194.725 26.23ZM205.185 27H204.135V26.23C203.575 26.846 202.805 27.168 201.895 27.168C200.747 27.168 199.529 26.398 199.529 24.928C199.529 23.416 200.747 22.702 201.895 22.702C202.819 22.702 203.589 22.996 204.135 23.626V22.408C204.135 21.498 203.407 20.98 202.427 20.98C201.615 20.98 200.957 21.274 200.355 21.918L199.865 21.19C200.593 20.434 201.461 20.07 202.567 20.07C203.995 20.07 205.185 20.714 205.185 22.352V27ZM202.273 26.412C203.015 26.412 203.729 26.132 204.135 25.572V24.298C203.729 23.738 203.015 23.458 202.273 23.458C201.293 23.458 200.607 24.074 200.607 24.942C200.607 25.796 201.293 26.412 202.273 26.412ZM208.34 27H207.29V20.238H208.34V21.33C208.886 20.616 209.67 20.098 210.594 20.098V21.176C210.468 21.148 210.342 21.134 210.174 21.134C209.53 21.134 208.648 21.666 208.34 22.212V27ZM217.861 27H216.517L214.081 23.962L212.961 25.068V27H211.911V17.662H212.961V23.836L216.517 20.238H217.847L214.851 23.304L217.861 27ZM220.517 26.664C220.517 27.518 220.013 28.316 219.369 28.778L218.851 28.344C219.299 28.05 219.705 27.504 219.761 27.042C219.733 27.056 219.635 27.07 219.565 27.07C219.173 27.07 218.893 26.776 218.893 26.356C218.893 25.95 219.215 25.6 219.635 25.6C220.097 25.6 220.517 25.992 220.517 26.664ZM228.893 27.168C226.835 27.168 225.547 25.572 225.547 23.612C225.547 21.652 226.835 20.07 228.893 20.07C230.951 20.07 232.239 21.652 232.239 23.612C232.239 25.572 230.951 27.168 228.893 27.168ZM228.893 26.23C230.335 26.23 231.133 24.998 231.133 23.612C231.133 22.24 230.335 21.008 228.893 21.008C227.451 21.008 226.639 22.24 226.639 23.612C226.639 24.998 227.451 26.23 228.893 26.23ZM235 27H233.95V20.238H235V21.33C235.546 20.616 236.33 20.098 237.254 20.098V21.176C237.128 21.148 237.002 21.134 236.834 21.134C236.19 21.134 235.308 21.666 235 22.212V27ZM247.795 27H246.745V26.048C246.227 26.636 245.345 27.168 244.337 27.168C242.923 27.168 242.181 26.482 242.181 25.012V20.238H243.231V24.69C243.231 25.88 243.833 26.23 244.743 26.23C245.569 26.23 246.353 25.754 246.745 25.208V20.238H247.795V27ZM255.506 27H254.456V22.576C254.456 21.386 253.854 21.008 252.944 21.008C252.118 21.008 251.334 21.512 250.942 22.058V27H249.892V20.238H250.942V21.218C251.418 20.658 252.342 20.07 253.35 20.07C254.764 20.07 255.506 20.784 255.506 22.254V27ZM260.655 27.168C258.653 27.168 257.211 25.726 257.211 23.612C257.211 21.652 258.611 20.07 260.543 20.07C262.587 20.07 263.791 21.666 263.791 23.696V23.962H258.317C258.401 25.236 259.297 26.3 260.753 26.3C261.523 26.3 262.307 25.992 262.839 25.446L263.343 26.132C262.671 26.804 261.761 27.168 260.655 27.168ZM262.755 23.192C262.741 22.184 262.069 20.938 260.529 20.938C259.087 20.938 258.373 22.156 258.317 23.192H262.755ZM268.445 27H267.297L264.483 20.238H265.617L267.871 25.782L270.111 20.238H271.259L268.445 27ZM275.407 27.168C273.405 27.168 271.963 25.726 271.963 23.612C271.963 21.652 273.363 20.07 275.295 20.07C277.339 20.07 278.543 21.666 278.543 23.696V23.962H273.069C273.153 25.236 274.049 26.3 275.505 26.3C276.275 26.3 277.059 25.992 277.591 25.446L278.095 26.132C277.423 26.804 276.513 27.168 275.407 27.168ZM277.507 23.192C277.493 22.184 276.821 20.938 275.281 20.938C273.839 20.938 273.125 22.156 273.069 23.192H277.507ZM285.857 27H284.807V22.576C284.807 21.386 284.205 21.008 283.295 21.008C282.469 21.008 281.685 21.512 281.293 22.058V27H280.243V20.238H281.293V21.218C281.769 20.658 282.693 20.07 283.701 20.07C285.115 20.07 285.857 20.784 285.857 22.254V27ZM294.518 27.168C292.46 27.168 291.172 25.572 291.172 23.612C291.172 21.652 292.46 20.07 294.518 20.07C296.576 20.07 297.864 21.652 297.864 23.612C297.864 25.572 296.576 27.168 294.518 27.168ZM294.518 26.23C295.96 26.23 296.758 24.998 296.758 23.612C296.758 22.24 295.96 21.008 294.518 21.008C293.076 21.008 292.264 22.24 292.264 23.612C292.264 24.998 293.076 26.23 294.518 26.23ZM305.189 27H304.139V22.576C304.139 21.386 303.537 21.008 302.627 21.008C301.801 21.008 301.017 21.512 300.625 22.058V27H299.575V20.238H300.625V21.218C301.101 20.658 302.025 20.07 303.033 20.07C304.447 20.07 305.189 20.784 305.189 22.254V27ZM0.672 46.646L0.84 45.694C0.994 45.764 1.246 45.806 1.414 45.806C1.876 45.806 2.184 45.652 2.422 45.092L2.87 44.07L0.042 37.238H1.176L3.43 42.782L5.67 37.238H6.818L3.43 45.372C3.024 46.352 2.338 46.73 1.442 46.744C1.218 46.744 0.868 46.702 0.672 46.646ZM10.8673 44.168C8.80928 44.168 7.52128 42.572 7.52128 40.612C7.52128 38.652 8.80928 37.07 10.8673 37.07C12.9253 37.07 14.2133 38.652 14.2133 40.612C14.2133 42.572 12.9253 44.168 10.8673 44.168ZM10.8673 43.23C12.3093 43.23 13.1073 41.998 13.1073 40.612C13.1073 39.24 12.3093 38.008 10.8673 38.008C9.42528 38.008 8.61328 39.24 8.61328 40.612C8.61328 41.998 9.42528 43.23 10.8673 43.23ZM21.539 44H20.489V43.048C19.971 43.636 19.089 44.168 18.081 44.168C16.667 44.168 15.925 43.482 15.925 42.012V37.238H16.975V41.69C16.975 42.88 17.577 43.23 18.487 43.23C19.313 43.23 20.097 42.754 20.489 42.208V37.238H21.539V44ZM24.6859 44H23.6359V37.238H24.6859V38.33C25.2319 37.616 26.0159 37.098 26.9399 37.098V38.176C26.8139 38.148 26.6879 38.134 26.5199 38.134C25.8759 38.134 24.9939 38.666 24.6859 39.212V44ZM33.2104 44H32.1604V38.162H31.0404V37.238H32.1604V36.72C32.1604 35.334 32.9164 34.522 34.1204 34.522C34.6524 34.522 35.1284 34.648 35.5484 35.04L35.1144 35.726C34.8904 35.53 34.6244 35.39 34.2744 35.39C33.5884 35.39 33.2104 35.866 33.2104 36.72V37.238H34.5824V38.162H33.2104V44ZM41.1093 44H40.0593V43.23C39.4993 43.846 38.7293 44.168 37.8193 44.168C36.6713 44.168 35.4533 43.398 35.4533 41.928C35.4533 40.416 36.6713 39.702 37.8193 39.702C38.7433 39.702 39.5133 39.996 40.0593 40.626V39.408C40.0593 38.498 39.3313 37.98 38.3513 37.98C37.5393 37.98 36.8813 38.274 36.2793 38.918L35.7893 38.19C36.5173 37.434 37.3853 37.07 38.4913 37.07C39.9193 37.07 41.1093 37.714 41.1093 39.352V44ZM38.1973 43.412C38.9393 43.412 39.6533 43.132 40.0593 42.572V41.298C39.6533 40.738 38.9393 40.458 38.1973 40.458C37.2173 40.458 36.5312 41.074 36.5312 41.942C36.5312 42.796 37.2173 43.412 38.1973 43.412ZM46.1961 44.168C44.1801 44.168 42.8221 42.628 42.8221 40.612C42.8221 38.61 44.1801 37.07 46.1961 37.07C47.4281 37.07 48.1561 37.574 48.6741 38.246L47.9741 38.89C47.5261 38.274 46.9521 38.008 46.2521 38.008C44.8101 38.008 43.9141 39.114 43.9141 40.612C43.9141 42.11 44.8101 43.23 46.2521 43.23C46.9521 43.23 47.5261 42.95 47.9741 42.348L48.6741 42.992C48.1561 43.664 47.4281 44.168 46.1961 44.168ZM53.1977 44.168C51.1957 44.168 49.7537 42.726 49.7537 40.612C49.7537 38.652 51.1537 37.07 53.0857 37.07C55.1297 37.07 56.3337 38.666 56.3337 40.696V40.962H50.8597C50.9437 42.236 51.8397 43.3 53.2957 43.3C54.0657 43.3 54.8497 42.992 55.3817 42.446L55.8857 43.132C55.2137 43.804 54.3037 44.168 53.1977 44.168ZM55.2977 40.192C55.2837 39.184 54.6117 37.938 53.0717 37.938C51.6297 37.938 50.9157 39.156 50.8597 40.192H55.2977ZM58.4987 44.14C58.0787 44.14 57.7287 43.79 57.7287 43.37C57.7287 42.95 58.0787 42.6 58.4987 42.6C58.9187 42.6 59.2687 42.95 59.2687 43.37C59.2687 43.79 58.9187 44.14 58.4987 44.14ZM68.2886 44H67.1266V35.698H64.1726V34.662H71.2566V35.698H68.2886V44ZM72.6195 44H71.5695V37.238H72.6195V38.33C73.1655 37.616 73.9495 37.098 74.8735 37.098V38.176C74.7475 38.148 74.6215 38.134 74.4535 38.134C73.8095 38.134 72.9275 38.666 72.6195 39.212V44ZM75.8126 46.646L75.9806 45.694C76.1346 45.764 76.3866 45.806 76.5546 45.806C77.0166 45.806 77.3246 45.652 77.5626 45.092L78.0106 44.07L75.1826 37.238H76.3166L78.5706 42.782L80.8106 37.238H81.9586L78.5706 45.372C78.1646 46.352 77.4786 46.73 76.5826 46.744C76.3586 46.744 76.0086 46.702 75.8126 46.646ZM88.3713 44.168C87.3773 44.168 86.8733 43.594 86.8733 42.586V38.162H85.7533V37.238H86.8733V35.39H87.9233V37.238H89.2953V38.162H87.9233V42.362C87.9233 42.866 88.1473 43.23 88.6093 43.23C88.9033 43.23 89.1833 43.104 89.3233 42.95L89.6313 43.734C89.3653 43.986 88.9873 44.168 88.3713 44.168ZM93.7325 44.168C91.6745 44.168 90.3865 42.572 90.3865 40.612C90.3865 38.652 91.6745 37.07 93.7325 37.07C95.7905 37.07 97.0785 38.652 97.0785 40.612C97.0785 42.572 95.7905 44.168 93.7325 44.168ZM93.7325 43.23C95.1745 43.23 95.9725 41.998 95.9725 40.612C95.9725 39.24 95.1745 38.008 93.7325 38.008C92.2905 38.008 91.4785 39.24 91.4785 40.612C91.4785 41.998 92.2905 43.23 93.7325 43.23ZM107.678 44H106.628V43.23C106.068 43.846 105.298 44.168 104.388 44.168C103.24 44.168 102.022 43.398 102.022 41.928C102.022 40.416 103.24 39.702 104.388 39.702C105.312 39.702 106.082 39.996 106.628 40.626V39.408C106.628 38.498 105.9 37.98 104.92 37.98C104.108 37.98 103.45 38.274 102.848 38.918L102.358 38.19C103.086 37.434 103.954 37.07 105.06 37.07C106.488 37.07 107.678 37.714 107.678 39.352V44ZM104.766 43.412C105.508 43.412 106.222 43.132 106.628 42.572V41.298C106.222 40.738 105.508 40.458 104.766 40.458C103.786 40.458 103.1 41.074 103.1 41.942C103.1 42.796 103.786 43.412 104.766 43.412ZM112.736 44H111.588L108.774 37.238H109.908L112.162 42.782L114.402 37.238H115.55L112.736 44ZM119.6 44.168C117.542 44.168 116.254 42.572 116.254 40.612C116.254 38.652 117.542 37.07 119.6 37.07C121.658 37.07 122.946 38.652 122.946 40.612C122.946 42.572 121.658 44.168 119.6 44.168ZM119.6 43.23C121.042 43.23 121.84 41.998 121.84 40.612C121.84 39.24 121.042 38.008 119.6 38.008C118.158 38.008 117.346 39.24 117.346 40.612C117.346 41.998 118.158 43.23 119.6 43.23ZM125.175 36.272C124.797 36.272 124.475 35.964 124.475 35.572C124.475 35.18 124.797 34.858 125.175 34.858C125.567 34.858 125.889 35.18 125.889 35.572C125.889 35.964 125.567 36.272 125.175 36.272ZM125.707 44H124.657V37.238H125.707V44ZM133.752 44H132.702V42.992C132.198 43.678 131.372 44.168 130.42 44.168C128.656 44.168 127.41 42.824 127.41 40.626C127.41 38.47 128.642 37.07 130.42 37.07C131.33 37.07 132.156 37.518 132.702 38.26V34.662H133.752V44ZM130.672 43.23C131.512 43.23 132.324 42.754 132.702 42.166V39.1C132.324 38.512 131.512 38.008 130.672 38.008C129.314 38.008 128.502 39.128 128.502 40.626C128.502 42.124 129.314 43.23 130.672 43.23ZM140.514 42.166C140.878 42.754 141.704 43.23 142.53 43.23C143.902 43.23 144.714 42.124 144.714 40.626C144.714 39.128 143.902 38.008 142.53 38.008C141.704 38.008 140.878 38.512 140.514 39.1V42.166ZM140.514 44H139.464V34.662H140.514V38.26C141.06 37.518 141.872 37.07 142.796 37.07C144.56 37.07 145.806 38.47 145.806 40.626C145.806 42.824 144.56 44.168 142.796 44.168C141.844 44.168 141.018 43.678 140.514 42.992V44ZM152.795 44H151.745V43.23C151.185 43.846 150.415 44.168 149.505 44.168C148.357 44.168 147.139 43.398 147.139 41.928C147.139 40.416 148.357 39.702 149.505 39.702C150.429 39.702 151.199 39.996 151.745 40.626V39.408C151.745 38.498 151.017 37.98 150.037 37.98C149.225 37.98 148.567 38.274 147.965 38.918L147.475 38.19C148.203 37.434 149.071 37.07 150.177 37.07C151.605 37.07 152.795 37.714 152.795 39.352V44ZM149.883 43.412C150.625 43.412 151.339 43.132 151.745 42.572V41.298C151.339 40.738 150.625 40.458 149.883 40.458C148.903 40.458 148.217 41.074 148.217 41.942C148.217 42.796 148.903 43.412 149.883 43.412ZM157.882 44.168C155.866 44.168 154.508 42.628 154.508 40.612C154.508 38.61 155.866 37.07 157.882 37.07C159.114 37.07 159.842 37.574 160.36 38.246L159.66 38.89C159.212 38.274 158.638 38.008 157.938 38.008C156.496 38.008 155.6 39.114 155.6 40.612C155.6 42.11 156.496 43.23 157.938 43.23C158.638 43.23 159.212 42.95 159.66 42.348L160.36 42.992C159.842 43.664 159.114 44.168 157.882 44.168ZM167.781 44H166.437L164.001 40.962L162.881 42.068V44H161.831V34.662H162.881V40.836L166.437 37.238H167.767L164.771 40.304L167.781 44ZM170.073 44H169.023V34.662H170.073V44ZM172.685 36.272C172.307 36.272 171.985 35.964 171.985 35.572C171.985 35.18 172.307 34.858 172.685 34.858C173.077 34.858 173.399 35.18 173.399 35.572C173.399 35.964 173.077 36.272 172.685 36.272ZM173.217 44H172.167V37.238H173.217V44ZM178.028 46.744C176.88 46.744 176.096 46.52 175.298 45.736L175.83 44.952C176.39 45.624 177.062 45.876 178.028 45.876C179.148 45.876 180.198 45.33 180.198 43.846V42.88C179.708 43.566 178.882 44.084 177.93 44.084C176.166 44.084 174.92 42.768 174.92 40.584C174.92 38.414 176.152 37.07 177.93 37.07C178.84 37.07 179.652 37.518 180.198 38.26V37.238H181.248V43.804C181.248 46.044 179.68 46.744 178.028 46.744ZM178.182 43.16C179.022 43.16 179.834 42.642 180.198 42.054V39.1C179.834 38.512 179.022 38.008 178.182 38.008C176.824 38.008 176.012 39.086 176.012 40.584C176.012 42.068 176.824 43.16 178.182 43.16ZM188.979 44H187.929V39.548C187.929 38.358 187.313 38.008 186.403 38.008C185.591 38.008 184.807 38.512 184.401 39.058V44H183.351V34.662H184.401V38.218C184.877 37.658 185.801 37.07 186.823 37.07C188.237 37.07 188.979 37.756 188.979 39.226V44ZM192.783 44.168C191.789 44.168 191.285 43.594 191.285 42.586V38.162H190.165V37.238H191.285V35.39H192.335V37.238H193.707V38.162H192.335V42.362C192.335 42.866 192.559 43.23 193.021 43.23C193.315 43.23 193.595 43.104 193.735 42.95L194.043 43.734C193.777 43.986 193.399 44.168 192.783 44.168ZM195.709 36.272C195.331 36.272 195.009 35.964 195.009 35.572C195.009 35.18 195.331 34.858 195.709 34.858C196.101 34.858 196.423 35.18 196.423 35.572C196.423 35.964 196.101 36.272 195.709 36.272ZM196.241 44H195.191V37.238H196.241V44ZM203.949 44H202.899V39.576C202.899 38.386 202.297 38.008 201.387 38.008C200.561 38.008 199.777 38.512 199.385 39.058V44H198.335V37.238H199.385V38.218C199.861 37.658 200.785 37.07 201.793 37.07C203.207 37.07 203.949 37.784 203.949 39.254V44ZM208.762 46.744C207.614 46.744 206.83 46.52 206.032 45.736L206.564 44.952C207.124 45.624 207.796 45.876 208.762 45.876C209.882 45.876 210.932 45.33 210.932 43.846V42.88C210.442 43.566 209.616 44.084 208.664 44.084C206.9 44.084 205.654 42.768 205.654 40.584C205.654 38.414 206.886 37.07 208.664 37.07C209.574 37.07 210.386 37.518 210.932 38.26V37.238H211.982V43.804C211.982 46.044 210.414 46.744 208.762 46.744ZM208.916 43.16C209.756 43.16 210.568 42.642 210.932 42.054V39.1C210.568 38.512 209.756 38.008 208.916 38.008C207.558 38.008 206.746 39.086 206.746 40.584C206.746 42.068 207.558 43.16 208.916 43.16ZM214.645 44.14C214.225 44.14 213.875 43.79 213.875 43.37C213.875 42.95 214.225 42.6 214.645 42.6C215.065 42.6 215.415 42.95 215.415 43.37C215.415 43.79 215.065 44.14 214.645 44.14Z" fill="#212121"/>
</svg>
