<svg width="318" height="47" viewBox="0 0 318 47" fill="none" xmlns="http://www.w3.org/2000/svg">
<path d="M4.564 10H3.402V1.698H0.448V0.661999H7.532V1.698H4.564V10ZM14.6624 10H13.6124V5.548C13.6124 4.358 12.9964 4.008 12.0864 4.008C11.2744 4.008 10.4904 4.512 10.0844 5.058V10H9.03438V0.661999H10.0844V4.218C10.5604 3.658 11.4844 3.07 12.5064 3.07C13.9204 3.07 14.6624 3.756 14.6624 5.226V10ZM19.811 10.168C17.809 10.168 16.367 8.726 16.367 6.612C16.367 4.652 17.767 3.07 19.699 3.07C21.743 3.07 22.947 4.666 22.947 6.696V6.962H17.473C17.557 8.236 18.453 9.3 19.909 9.3C20.679 9.3 21.463 8.992 21.995 8.446L22.499 9.132C21.827 9.804 20.917 10.168 19.811 10.168ZM21.911 6.192C21.897 5.184 21.225 3.938 19.685 3.938C18.243 3.938 17.529 5.156 17.473 6.192H21.911ZM37.469 10H36.419V5.408C36.419 4.554 36.041 4.008 35.173 4.008C34.473 4.008 33.731 4.512 33.381 5.044V10H32.331V5.408C32.331 4.554 31.967 4.008 31.085 4.008C30.399 4.008 29.671 4.512 29.307 5.058V10H28.257V3.238H29.307V4.218C29.587 3.784 30.497 3.07 31.491 3.07C32.527 3.07 33.115 3.63 33.311 4.33C33.689 3.714 34.599 3.07 35.579 3.07C36.811 3.07 37.469 3.756 37.469 5.114V10ZM42.6157 10.168C40.6137 10.168 39.1717 8.726 39.1717 6.612C39.1717 4.652 40.5717 3.07 42.5037 3.07C44.5477 3.07 45.7517 4.666 45.7517 6.696V6.962H40.2777C40.3617 8.236 41.2577 9.3 42.7137 9.3C43.4837 9.3 44.2677 8.992 44.7997 8.446L45.3037 9.132C44.6317 9.804 43.7217 10.168 42.6157 10.168ZM44.7157 6.192C44.7017 5.184 44.0297 3.938 42.4897 3.938C41.0477 3.938 40.3337 5.156 40.2777 6.192H44.7157ZM52.7303 10H51.6803V9.23C51.1203 9.846 50.3503 10.168 49.4403 10.168C48.2923 10.168 47.0743 9.398 47.0743 7.928C47.0743 6.416 48.2923 5.702 49.4403 5.702C50.3643 5.702 51.1343 5.996 51.6803 6.626V5.408C51.6803 4.498 50.9523 3.98 49.9723 3.98C49.1603 3.98 48.5023 4.274 47.9003 4.918L47.4103 4.19C48.1383 3.434 49.0063 3.07 50.1123 3.07C51.5403 3.07 52.7303 3.714 52.7303 5.352V10ZM49.8183 9.412C50.5603 9.412 51.2743 9.132 51.6803 8.572V7.298C51.2743 6.738 50.5603 6.458 49.8183 6.458C48.8383 6.458 48.1523 7.074 48.1523 7.942C48.1523 8.796 48.8383 9.412 49.8183 9.412ZM56.9772 10.168C55.8712 10.168 54.9332 9.832 54.2472 9.104L54.7932 8.348C55.2412 8.866 56.0952 9.314 57.0192 9.314C58.0552 9.314 58.6152 8.824 58.6152 8.152C58.6152 6.514 54.4292 7.522 54.4292 5.016C54.4292 3.966 55.3392 3.07 56.9492 3.07C58.0972 3.07 58.9092 3.504 59.4552 4.05L58.9652 4.778C58.5592 4.288 57.8172 3.924 56.9492 3.924C56.0252 3.924 55.4512 4.386 55.4512 4.988C55.4512 6.472 59.6372 5.492 59.6372 8.124C59.6372 9.258 58.7272 10.168 56.9772 10.168ZM66.957 10H65.907V9.048C65.389 9.636 64.507 10.168 63.499 10.168C62.085 10.168 61.343 9.482 61.343 8.012V3.238H62.393V7.69C62.393 8.88 62.995 9.23 63.905 9.23C64.731 9.23 65.515 8.754 65.907 8.208V3.238H66.957V10ZM70.1039 10H69.0539V3.238H70.1039V4.33C70.6499 3.616 71.4339 3.098 72.3579 3.098V4.176C72.2319 4.148 72.1059 4.134 71.9379 4.134C71.2939 4.134 70.4119 4.666 70.1039 5.212V10ZM76.727 10.168C74.725 10.168 73.283 8.726 73.283 6.612C73.283 4.652 74.683 3.07 76.615 3.07C78.659 3.07 79.863 4.666 79.863 6.696V6.962H74.389C74.473 8.236 75.369 9.3 76.825 9.3C77.595 9.3 78.379 8.992 78.911 8.446L79.415 9.132C78.743 9.804 77.833 10.168 76.727 10.168ZM78.827 6.192C78.813 5.184 78.141 3.938 76.601 3.938C75.159 3.938 74.445 5.156 74.389 6.192H78.827ZM90.7757 10H89.7257V5.408C89.7257 4.554 89.3477 4.008 88.4797 4.008C87.7797 4.008 87.0377 4.512 86.6877 5.044V10H85.6377V5.408C85.6377 4.554 85.2737 4.008 84.3917 4.008C83.7057 4.008 82.9777 4.512 82.6137 5.058V10H81.5637V3.238H82.6137V4.218C82.8937 3.784 83.8037 3.07 84.7977 3.07C85.8337 3.07 86.4217 3.63 86.6177 4.33C86.9957 3.714 87.9057 3.07 88.8857 3.07C90.1177 3.07 90.7757 3.756 90.7757 5.114V10ZM95.9223 10.168C93.9203 10.168 92.4783 8.726 92.4783 6.612C92.4783 4.652 93.8783 3.07 95.8103 3.07C97.8543 3.07 99.0583 4.666 99.0583 6.696V6.962H93.5843C93.6683 8.236 94.5643 9.3 96.0203 9.3C96.7903 9.3 97.5743 8.992 98.1063 8.446L98.6103 9.132C97.9383 9.804 97.0283 10.168 95.9223 10.168ZM98.0223 6.192C98.0083 5.184 97.3363 3.938 95.7963 3.938C94.3543 3.938 93.6403 5.156 93.5843 6.192H98.0223ZM106.373 10H105.323V5.576C105.323 4.386 104.721 4.008 103.811 4.008C102.985 4.008 102.201 4.512 101.809 5.058V10H100.759V3.238H101.809V4.218C102.285 3.658 103.209 3.07 104.217 3.07C105.631 3.07 106.373 3.784 106.373 5.254V10ZM110.178 10.168C109.184 10.168 108.68 9.594 108.68 8.586V4.162H107.56V3.238H108.68V1.39H109.73V3.238H111.102V4.162H109.73V8.362C109.73 8.866 109.954 9.23 110.416 9.23C110.71 9.23 110.99 9.104 111.13 8.95L111.438 9.734C111.172 9.986 110.794 10.168 110.178 10.168ZM123.097 10H122.047L120.283 4.568L118.519 10H117.469L115.313 3.238H116.405L118.057 8.628L119.835 3.238H120.731L122.509 8.628L124.161 3.238H125.253L123.097 10ZM126.994 2.272C126.616 2.272 126.294 1.964 126.294 1.572C126.294 1.18 126.616 0.857999 126.994 0.857999C127.386 0.857999 127.708 1.18 127.708 1.572C127.708 1.964 127.386 2.272 126.994 2.272ZM127.526 10H126.476V3.238H127.526V10ZM130.67 10H129.62V0.661999H130.67V10ZM133.815 10H132.765V0.661999H133.815V10ZM145.133 10H144.083V5.576C144.083 4.386 143.481 4.008 142.571 4.008C141.745 4.008 140.961 4.512 140.569 5.058V10H139.519V3.238H140.569V4.218C141.045 3.658 141.969 3.07 142.977 3.07C144.391 3.07 145.133 3.784 145.133 5.254V10ZM150.184 10.168C148.126 10.168 146.838 8.572 146.838 6.612C146.838 4.652 148.126 3.07 150.184 3.07C152.242 3.07 153.53 4.652 153.53 6.612C153.53 8.572 152.242 10.168 150.184 10.168ZM150.184 9.23C151.626 9.23 152.424 7.998 152.424 6.612C152.424 5.24 151.626 4.008 150.184 4.008C148.742 4.008 147.93 5.24 147.93 6.612C147.93 7.998 148.742 9.23 150.184 9.23ZM156.949 10.168C155.955 10.168 155.451 9.594 155.451 8.586V4.162H154.331V3.238H155.451V1.39H156.501V3.238H157.873V4.162H156.501V8.362C156.501 8.866 156.725 9.23 157.187 9.23C157.481 9.23 157.761 9.104 157.901 8.95L158.209 9.734C157.943 9.986 157.565 10.168 156.949 10.168ZM169.868 10H168.818L167.054 4.568L165.29 10H164.24L162.084 3.238H163.176L164.828 8.628L166.606 3.238H167.502L169.28 8.628L170.932 3.238H172.024L169.868 10ZM176.201 10.168C174.143 10.168 172.855 8.572 172.855 6.612C172.855 4.652 174.143 3.07 176.201 3.07C178.259 3.07 179.547 4.652 179.547 6.612C179.547 8.572 178.259 10.168 176.201 10.168ZM176.201 9.23C177.643 9.23 178.441 7.998 178.441 6.612C178.441 5.24 177.643 4.008 176.201 4.008C174.759 4.008 173.947 5.24 173.947 6.612C173.947 7.998 174.759 9.23 176.201 9.23ZM182.309 10H181.259V3.238H182.309V4.33C182.855 3.616 183.639 3.098 184.563 3.098V4.176C184.437 4.148 184.311 4.134 184.143 4.134C183.499 4.134 182.617 4.666 182.309 5.212V10ZM191.83 10H190.486L188.05 6.962L186.93 8.068V10H185.88V0.661999H186.93V6.836L190.486 3.238H191.816L188.82 6.304L191.83 10ZM200.013 10.168C199.089 10.168 198.277 9.734 197.731 8.978V12.576H196.681V3.238H197.731V4.246C198.221 3.56 199.061 3.07 200.013 3.07C201.791 3.07 203.023 4.414 203.023 6.612C203.023 8.796 201.791 10.168 200.013 10.168ZM199.747 9.23C201.105 9.23 201.917 8.11 201.917 6.612C201.917 5.114 201.105 4.008 199.747 4.008C198.921 4.008 198.095 4.498 197.731 5.086V8.138C198.095 8.726 198.921 9.23 199.747 9.23ZM205.743 10H204.693V3.238H205.743V4.33C206.289 3.616 207.073 3.098 207.997 3.098V4.176C207.871 4.148 207.745 4.134 207.577 4.134C206.933 4.134 206.051 4.666 205.743 5.212V10ZM212.268 10.168C210.21 10.168 208.922 8.572 208.922 6.612C208.922 4.652 210.21 3.07 212.268 3.07C214.326 3.07 215.614 4.652 215.614 6.612C215.614 8.572 214.326 10.168 212.268 10.168ZM212.268 9.23C213.71 9.23 214.508 7.998 214.508 6.612C214.508 5.24 213.71 4.008 212.268 4.008C210.826 4.008 210.014 5.24 210.014 6.612C210.014 7.998 210.826 9.23 212.268 9.23ZM220.657 10.168C219.733 10.168 218.921 9.734 218.375 8.978V12.576H217.325V3.238H218.375V4.246C218.865 3.56 219.705 3.07 220.657 3.07C222.435 3.07 223.667 4.414 223.667 6.612C223.667 8.796 222.435 10.168 220.657 10.168ZM220.391 9.23C221.749 9.23 222.561 8.11 222.561 6.612C222.561 5.114 221.749 4.008 220.391 4.008C219.565 4.008 218.739 4.498 218.375 5.086V8.138C218.739 8.726 219.565 9.23 220.391 9.23ZM228.389 10.168C226.387 10.168 224.945 8.726 224.945 6.612C224.945 4.652 226.345 3.07 228.277 3.07C230.321 3.07 231.525 4.666 231.525 6.696V6.962H226.051C226.135 8.236 227.031 9.3 228.487 9.3C229.257 9.3 230.041 8.992 230.573 8.446L231.077 9.132C230.405 9.804 229.495 10.168 228.389 10.168ZM230.489 6.192C230.475 5.184 229.803 3.938 228.263 3.938C226.821 3.938 226.107 5.156 226.051 6.192H230.489ZM234.276 10H233.226V3.238H234.276V4.33C234.822 3.616 235.606 3.098 236.53 3.098V4.176C236.404 4.148 236.278 4.134 236.11 4.134C235.466 4.134 234.584 4.666 234.276 5.212V10ZM238.897 10H237.847V0.661999H238.897V10ZM240.613 12.646L240.781 11.694C240.935 11.764 241.187 11.806 241.355 11.806C241.817 11.806 242.125 11.652 242.363 11.092L242.811 10.07L239.983 3.238H241.117L243.371 8.782L245.611 3.238H246.759L243.371 11.372C242.965 12.352 242.279 12.73 241.383 12.744C241.159 12.744 240.809 12.702 240.613 12.646ZM251.982 2.272C251.604 2.272 251.282 1.964 251.282 1.572C251.282 1.18 251.604 0.857999 251.982 0.857999C252.374 0.857999 252.696 1.18 252.696 1.572C252.696 1.964 252.374 2.272 251.982 2.272ZM252.514 10H251.464V3.238H252.514V10ZM255.953 10H254.903V4.162H253.783V3.238H254.903V2.72C254.903 1.334 255.659 0.521999 256.863 0.521999C257.395 0.521999 257.871 0.647999 258.291 1.04L257.857 1.726C257.633 1.53 257.367 1.39 257.017 1.39C256.331 1.39 255.953 1.866 255.953 2.72V3.238H257.325V4.162H255.953V10ZM261.805 12.646L261.973 11.694C262.127 11.764 262.379 11.806 262.547 11.806C263.009 11.806 263.317 11.652 263.555 11.092L264.003 10.07L261.175 3.238H262.309L264.563 8.782L266.803 3.238H267.951L264.563 11.372C264.157 12.352 263.471 12.73 262.575 12.744C262.351 12.744 262.001 12.702 261.805 12.646ZM272 10.168C269.942 10.168 268.654 8.572 268.654 6.612C268.654 4.652 269.942 3.07 272 3.07C274.058 3.07 275.346 4.652 275.346 6.612C275.346 8.572 274.058 10.168 272 10.168ZM272 9.23C273.442 9.23 274.24 7.998 274.24 6.612C274.24 5.24 273.442 4.008 272 4.008C270.558 4.008 269.746 5.24 269.746 6.612C269.746 7.998 270.558 9.23 272 9.23ZM282.672 10H281.622V9.048C281.104 9.636 280.222 10.168 279.214 10.168C277.8 10.168 277.058 9.482 277.058 8.012V3.238H278.108V7.69C278.108 8.88 278.71 9.23 279.62 9.23C280.446 9.23 281.23 8.754 281.622 8.208V3.238H282.672V10ZM285.819 10H284.769V3.238H285.819V4.33C286.365 3.616 287.149 3.098 288.073 3.098V4.176C287.947 4.148 287.821 4.134 287.653 4.134C287.009 4.134 286.127 4.666 285.819 5.212V10ZM294.343 10H293.293V4.162H292.173V3.238H293.293V2.72C293.293 1.334 294.049 0.521999 295.253 0.521999C295.785 0.521999 296.261 0.647999 296.681 1.04L296.247 1.726C296.023 1.53 295.757 1.39 295.407 1.39C294.721 1.39 294.343 1.866 294.343 2.72V3.238H295.715V4.162H294.343V10ZM302.242 10H301.192V9.23C300.632 9.846 299.862 10.168 298.952 10.168C297.804 10.168 296.586 9.398 296.586 7.928C296.586 6.416 297.804 5.702 298.952 5.702C299.876 5.702 300.646 5.996 301.192 6.626V5.408C301.192 4.498 300.464 3.98 299.484 3.98C298.672 3.98 298.014 4.274 297.412 4.918L296.922 4.19C297.65 3.434 298.518 3.07 299.624 3.07C301.052 3.07 302.242 3.714 302.242 5.352V10ZM299.33 9.412C300.072 9.412 300.786 9.132 301.192 8.572V7.298C300.786 6.738 300.072 6.458 299.33 6.458C298.35 6.458 297.664 7.074 297.664 7.942C297.664 8.796 298.35 9.412 299.33 9.412ZM307.329 10.168C305.313 10.168 303.955 8.628 303.955 6.612C303.955 4.61 305.313 3.07 307.329 3.07C308.561 3.07 309.289 3.574 309.807 4.246L309.107 4.89C308.659 4.274 308.085 4.008 307.385 4.008C305.943 4.008 305.047 5.114 305.047 6.612C305.047 8.11 305.943 9.23 307.385 9.23C308.085 9.23 308.659 8.95 309.107 8.348L309.807 8.992C309.289 9.664 308.561 10.168 307.329 10.168ZM314.331 10.168C312.329 10.168 310.887 8.726 310.887 6.612C310.887 4.652 312.287 3.07 314.219 3.07C316.263 3.07 317.467 4.666 317.467 6.696V6.962H311.993C312.077 8.236 312.973 9.3 314.429 9.3C315.199 9.3 315.983 8.992 316.515 8.446L317.019 9.132C316.347 9.804 315.437 10.168 314.331 10.168ZM316.431 6.192C316.417 5.184 315.745 3.938 314.205 3.938C312.763 3.938 312.049 5.156 311.993 6.192H316.431ZM1.568 19.272C1.19 19.272 0.868 18.964 0.868 18.572C0.868 18.18 1.19 17.858 1.568 17.858C1.96 17.858 2.282 18.18 2.282 18.572C2.282 18.964 1.96 19.272 1.568 19.272ZM2.1 27H1.05V20.238H2.1V27ZM6.33653 27.168C5.23053 27.168 4.29253 26.832 3.60653 26.104L4.15253 25.348C4.60053 25.866 5.45453 26.314 6.37853 26.314C7.41453 26.314 7.97453 25.824 7.97453 25.152C7.97453 23.514 3.78853 24.522 3.78853 22.016C3.78853 20.966 4.69853 20.07 6.30853 20.07C7.45653 20.07 8.26853 20.504 8.81453 21.05L8.32453 21.778C7.91853 21.288 7.17653 20.924 6.30853 20.924C5.38453 20.924 4.81053 21.386 4.81053 21.988C4.81053 23.472 8.99653 22.492 8.99653 25.124C8.99653 26.258 8.08653 27.168 6.33653 27.168ZM19.9257 27H18.8757V22.576C18.8757 21.386 18.2737 21.008 17.3637 21.008C16.5377 21.008 15.7537 21.512 15.3617 22.058V27H14.3117V20.238H15.3617V21.218C15.8377 20.658 16.7617 20.07 17.7697 20.07C19.1837 20.07 19.9257 20.784 19.9257 22.254V27ZM24.9767 27.168C22.9187 27.168 21.6307 25.572 21.6307 23.612C21.6307 21.652 22.9187 20.07 24.9767 20.07C27.0347 20.07 28.3227 21.652 28.3227 23.612C28.3227 25.572 27.0347 27.168 24.9767 27.168ZM24.9767 26.23C26.4187 26.23 27.2167 24.998 27.2167 23.612C27.2167 22.24 26.4187 21.008 24.9767 21.008C23.5347 21.008 22.7227 22.24 22.7227 23.612C22.7227 24.998 23.5347 26.23 24.9767 26.23ZM31.7424 27.168C30.7484 27.168 30.2444 26.594 30.2444 25.586V21.162H29.1244V20.238H30.2444V18.39H31.2944V20.238H32.6664V21.162H31.2944V25.362C31.2944 25.866 31.5184 26.23 31.9804 26.23C32.2744 26.23 32.5544 26.104 32.6944 25.95L33.0024 26.734C32.7364 26.986 32.3584 27.168 31.7424 27.168ZM43.709 27H42.659V25.992C42.155 26.678 41.329 27.168 40.377 27.168C38.613 27.168 37.367 25.824 37.367 23.626C37.367 21.47 38.599 20.07 40.377 20.07C41.287 20.07 42.113 20.518 42.659 21.26V17.662H43.709V27ZM40.629 26.23C41.469 26.23 42.281 25.754 42.659 25.166V22.1C42.281 21.512 41.469 21.008 40.629 21.008C39.271 21.008 38.459 22.128 38.459 23.626C38.459 25.124 39.271 26.23 40.629 26.23ZM46.3297 19.272C45.9517 19.272 45.6297 18.964 45.6297 18.572C45.6297 18.18 45.9517 17.858 46.3297 17.858C46.7217 17.858 47.0437 18.18 47.0437 18.572C47.0437 18.964 46.7217 19.272 46.3297 19.272ZM46.8617 27H45.8117V20.238H46.8617V27ZM50.0063 27H48.9563V20.238H50.0063V21.33C50.5523 20.616 51.3363 20.098 52.2603 20.098V21.176C52.1343 21.148 52.0083 21.134 51.8403 21.134C51.1963 21.134 50.3143 21.666 50.0063 22.212V27ZM56.6293 27.168C54.6273 27.168 53.1853 25.726 53.1853 23.612C53.1853 21.652 54.5853 20.07 56.5173 20.07C58.5613 20.07 59.7653 21.666 59.7653 23.696V23.962H54.2913C54.3753 25.236 55.2713 26.3 56.7273 26.3C57.4973 26.3 58.2813 25.992 58.8133 25.446L59.3173 26.132C58.6453 26.804 57.7353 27.168 56.6293 27.168ZM58.7293 23.192C58.7153 22.184 58.0433 20.938 56.5033 20.938C55.0613 20.938 54.3473 22.156 54.2913 23.192H58.7293ZM64.448 27.168C62.432 27.168 61.074 25.628 61.074 23.612C61.074 21.61 62.432 20.07 64.448 20.07C65.68 20.07 66.408 20.574 66.926 21.246L66.226 21.89C65.778 21.274 65.204 21.008 64.504 21.008C63.062 21.008 62.166 22.114 62.166 23.612C62.166 25.11 63.062 26.23 64.504 26.23C65.204 26.23 65.778 25.95 66.226 25.348L66.926 25.992C66.408 26.664 65.68 27.168 64.448 27.168ZM70.1057 27.168C69.1117 27.168 68.6077 26.594 68.6077 25.586V21.162H67.4877V20.238H68.6077V18.39H69.6577V20.238H71.0297V21.162H69.6577V25.362C69.6577 25.866 69.8817 26.23 70.3437 26.23C70.6377 26.23 70.9177 26.104 71.0577 25.95L71.3657 26.734C71.0997 26.986 70.7217 27.168 70.1057 27.168ZM75.5649 27.168C73.5629 27.168 72.1209 25.726 72.1209 23.612C72.1209 21.652 73.5209 20.07 75.4529 20.07C77.4969 20.07 78.7009 21.666 78.7009 23.696V23.962H73.2269C73.3109 25.236 74.2069 26.3 75.6629 26.3C76.4329 26.3 77.2169 25.992 77.7489 25.446L78.2529 26.132C77.5809 26.804 76.6709 27.168 75.5649 27.168ZM77.6649 23.192C77.6509 22.184 76.9789 20.938 75.4389 20.938C73.9969 20.938 73.2829 22.156 73.2269 23.192H77.6649ZM86.3516 27H85.3016V25.992C84.7976 26.678 83.9716 27.168 83.0196 27.168C81.2556 27.168 80.0096 25.824 80.0096 23.626C80.0096 21.47 81.2416 20.07 83.0196 20.07C83.9296 20.07 84.7556 20.518 85.3016 21.26V17.662H86.3516V27ZM83.2716 26.23C84.1116 26.23 84.9236 25.754 85.3016 25.166V22.1C84.9236 21.512 84.1116 21.008 83.2716 21.008C81.9136 21.008 81.1016 22.128 81.1016 23.626C81.1016 25.124 81.9136 26.23 83.2716 26.23ZM93.7717 27.168C92.7777 27.168 92.2737 26.594 92.2737 25.586V21.162H91.1537V20.238H92.2737V18.39H93.3237V20.238H94.6957V21.162H93.3237V25.362C93.3237 25.866 93.5477 26.23 94.0097 26.23C94.3037 26.23 94.5837 26.104 94.7237 25.95L95.0317 26.734C94.7657 26.986 94.3877 27.168 93.7717 27.168ZM99.1329 27.168C97.0749 27.168 95.7869 25.572 95.7869 23.612C95.7869 21.652 97.0749 20.07 99.1329 20.07C101.191 20.07 102.479 21.652 102.479 23.612C102.479 25.572 101.191 27.168 99.1329 27.168ZM99.1329 26.23C100.575 26.23 101.373 24.998 101.373 23.612C101.373 22.24 100.575 21.008 99.1329 21.008C97.6909 21.008 96.8789 22.24 96.8789 23.612C96.8789 24.998 97.6909 26.23 99.1329 26.23ZM111.093 27H110.043L108.279 21.568L106.515 27H105.465L103.309 20.238H104.401L106.053 25.628L107.831 20.238H108.727L110.505 25.628L112.157 20.238H113.249L111.093 27ZM119.75 27H118.7V26.23C118.14 26.846 117.37 27.168 116.46 27.168C115.312 27.168 114.094 26.398 114.094 24.928C114.094 23.416 115.312 22.702 116.46 22.702C117.384 22.702 118.154 22.996 118.7 23.626V22.408C118.7 21.498 117.972 20.98 116.992 20.98C116.18 20.98 115.522 21.274 114.92 21.918L114.43 21.19C115.158 20.434 116.026 20.07 117.132 20.07C118.56 20.07 119.75 20.714 119.75 22.352V27ZM116.838 26.412C117.58 26.412 118.294 26.132 118.7 25.572V24.298C118.294 23.738 117.58 23.458 116.838 23.458C115.858 23.458 115.172 24.074 115.172 24.942C115.172 25.796 115.858 26.412 116.838 26.412ZM122.905 27H121.855V20.238H122.905V21.33C123.451 20.616 124.235 20.098 125.159 20.098V21.176C125.033 21.148 124.907 21.134 124.739 21.134C124.095 21.134 123.213 21.666 122.905 22.212V27ZM132.426 27H131.376V25.992C130.872 26.678 130.046 27.168 129.094 27.168C127.33 27.168 126.084 25.824 126.084 23.626C126.084 21.47 127.316 20.07 129.094 20.07C130.004 20.07 130.83 20.518 131.376 21.26V17.662H132.426V27ZM129.346 26.23C130.186 26.23 130.998 25.754 131.376 25.166V22.1C130.998 21.512 130.186 21.008 129.346 21.008C127.988 21.008 127.176 22.128 127.176 23.626C127.176 25.124 127.988 26.23 129.346 26.23ZM136.671 27.168C135.565 27.168 134.627 26.832 133.941 26.104L134.487 25.348C134.935 25.866 135.789 26.314 136.713 26.314C137.749 26.314 138.309 25.824 138.309 25.152C138.309 23.514 134.123 24.522 134.123 22.016C134.123 20.966 135.033 20.07 136.643 20.07C137.791 20.07 138.603 20.504 139.149 21.05L138.659 21.778C138.253 21.288 137.511 20.924 136.643 20.924C135.719 20.924 135.145 21.386 135.145 21.988C135.145 23.472 139.331 22.492 139.331 25.124C139.331 26.258 138.421 27.168 136.671 27.168ZM146.354 27.168C145.36 27.168 144.856 26.594 144.856 25.586V21.162H143.736V20.238H144.856V18.39H145.906V20.238H147.278V21.162H145.906V25.362C145.906 25.866 146.13 26.23 146.592 26.23C146.886 26.23 147.166 26.104 147.306 25.95L147.614 26.734C147.348 26.986 146.97 27.168 146.354 27.168ZM154.389 27H153.339V22.548C153.339 21.358 152.723 21.008 151.813 21.008C151.001 21.008 150.217 21.512 149.811 22.058V27H148.761V17.662H149.811V21.218C150.287 20.658 151.211 20.07 152.233 20.07C153.647 20.07 154.389 20.756 154.389 22.226V27ZM159.538 27.168C157.536 27.168 156.094 25.726 156.094 23.612C156.094 21.652 157.494 20.07 159.426 20.07C161.47 20.07 162.674 21.666 162.674 23.696V23.962H157.2C157.284 25.236 158.18 26.3 159.636 26.3C160.406 26.3 161.19 25.992 161.722 25.446L162.226 26.132C161.554 26.804 160.644 27.168 159.538 27.168ZM161.638 23.192C161.624 22.184 160.952 20.938 159.412 20.938C157.97 20.938 157.256 22.156 157.2 23.192H161.638ZM170.126 27.168C169.02 27.168 168.082 26.832 167.396 26.104L167.942 25.348C168.39 25.866 169.244 26.314 170.168 26.314C171.204 26.314 171.764 25.824 171.764 25.152C171.764 23.514 167.578 24.522 167.578 22.016C167.578 20.966 168.488 20.07 170.098 20.07C171.246 20.07 172.058 20.504 172.604 21.05L172.114 21.778C171.708 21.288 170.966 20.924 170.098 20.924C169.174 20.924 168.6 21.386 168.6 21.988C168.6 23.472 172.786 22.492 172.786 25.124C172.786 26.258 171.876 27.168 170.126 27.168ZM177.473 27.168C175.457 27.168 174.099 25.628 174.099 23.612C174.099 21.61 175.457 20.07 177.473 20.07C178.705 20.07 179.433 20.574 179.951 21.246L179.251 21.89C178.803 21.274 178.229 21.008 177.529 21.008C176.087 21.008 175.191 22.114 175.191 23.612C175.191 25.11 176.087 26.23 177.529 26.23C178.229 26.23 178.803 25.95 179.251 25.348L179.951 25.992C179.433 26.664 178.705 27.168 177.473 27.168ZM182.473 27H181.423V20.238H182.473V21.33C183.019 20.616 183.803 20.098 184.727 20.098V21.176C184.601 21.148 184.475 21.134 184.307 21.134C183.663 21.134 182.781 21.666 182.473 22.212V27ZM189.096 27.168C187.094 27.168 185.652 25.726 185.652 23.612C185.652 21.652 187.052 20.07 188.984 20.07C191.028 20.07 192.232 21.666 192.232 23.696V23.962H186.758C186.842 25.236 187.738 26.3 189.194 26.3C189.964 26.3 190.748 25.992 191.28 25.446L191.784 26.132C191.112 26.804 190.202 27.168 189.096 27.168ZM191.196 23.192C191.182 22.184 190.51 20.938 188.97 20.938C187.528 20.938 186.814 22.156 186.758 23.192H191.196ZM196.985 27.168C194.983 27.168 193.541 25.726 193.541 23.612C193.541 21.652 194.941 20.07 196.873 20.07C198.917 20.07 200.121 21.666 200.121 23.696V23.962H194.647C194.731 25.236 195.627 26.3 197.083 26.3C197.853 26.3 198.637 25.992 199.169 25.446L199.673 26.132C199.001 26.804 198.091 27.168 196.985 27.168ZM199.085 23.192C199.071 22.184 198.399 20.938 196.859 20.938C195.417 20.938 194.703 22.156 194.647 23.192H199.085ZM207.435 27H206.385V22.576C206.385 21.386 205.783 21.008 204.873 21.008C204.047 21.008 203.263 21.512 202.871 22.058V27H201.821V20.238H202.871V21.218C203.347 20.658 204.271 20.07 205.279 20.07C206.693 20.07 207.435 20.784 207.435 22.254V27ZM210.946 26.664C210.946 27.518 210.442 28.316 209.798 28.778L209.28 28.344C209.728 28.05 210.134 27.504 210.19 27.042C210.162 27.056 210.064 27.07 209.994 27.07C209.602 27.07 209.322 26.776 209.322 26.356C209.322 25.95 209.644 25.6 210.064 25.6C210.526 25.6 210.946 25.992 210.946 26.664ZM219.322 27.168C217.264 27.168 215.976 25.572 215.976 23.612C215.976 21.652 217.264 20.07 219.322 20.07C221.38 20.07 222.668 21.652 222.668 23.612C222.668 25.572 221.38 27.168 219.322 27.168ZM219.322 26.23C220.764 26.23 221.562 24.998 221.562 23.612C221.562 22.24 220.764 21.008 219.322 21.008C217.88 21.008 217.068 22.24 217.068 23.612C217.068 24.998 217.88 26.23 219.322 26.23ZM225.43 27H224.38V20.238H225.43V21.33C225.976 20.616 226.76 20.098 227.684 20.098V21.176C227.558 21.148 227.432 21.134 227.264 21.134C226.62 21.134 225.738 21.666 225.43 22.212V27ZM233.129 19.272C232.751 19.272 232.429 18.964 232.429 18.572C232.429 18.18 232.751 17.858 233.129 17.858C233.521 17.858 233.843 18.18 233.843 18.572C233.843 18.964 233.521 19.272 233.129 19.272ZM233.661 27H232.611V20.238H233.661V27ZM237.099 27H236.049V21.162H234.929V20.238H236.049V19.72C236.049 18.334 236.805 17.522 238.009 17.522C238.541 17.522 239.017 17.648 239.437 18.04L239.003 18.726C238.779 18.53 238.513 18.39 238.163 18.39C237.477 18.39 237.099 18.866 237.099 19.72V20.238H238.471V21.162H237.099V27ZM243.847 19.272C243.469 19.272 243.147 18.964 243.147 18.572C243.147 18.18 243.469 17.858 243.847 17.858C244.239 17.858 244.561 18.18 244.561 18.572C244.561 18.964 244.239 19.272 243.847 19.272ZM244.379 27H243.329V20.238H244.379V27ZM248.182 27.168C247.188 27.168 246.684 26.594 246.684 25.586V21.162H245.564V20.238H246.684V18.39H247.734V20.238H249.106V21.162H247.734V25.362C247.734 25.866 247.958 26.23 248.42 26.23C248.714 26.23 248.994 26.104 249.134 25.95L249.442 26.734C249.176 26.986 248.798 27.168 248.182 27.168ZM254.716 19.272C254.338 19.272 254.016 18.964 254.016 18.572C254.016 18.18 254.338 17.858 254.716 17.858C255.108 17.858 255.43 18.18 255.43 18.572C255.43 18.964 255.108 19.272 254.716 19.272ZM255.248 27H254.198V20.238H255.248V27ZM259.485 27.168C258.379 27.168 257.441 26.832 256.755 26.104L257.301 25.348C257.749 25.866 258.603 26.314 259.527 26.314C260.563 26.314 261.123 25.824 261.123 25.152C261.123 23.514 256.937 24.522 256.937 22.016C256.937 20.966 257.847 20.07 259.457 20.07C260.605 20.07 261.417 20.504 261.963 21.05L261.473 21.778C261.067 21.288 260.325 20.924 259.457 20.924C258.533 20.924 257.959 21.386 257.959 21.988C257.959 23.472 262.145 22.492 262.145 25.124C262.145 26.258 261.235 27.168 259.485 27.168ZM4.382 44.168C3.458 44.168 2.646 43.734 2.1 42.978V46.576H1.05V37.238H2.1V38.246C2.59 37.56 3.43 37.07 4.382 37.07C6.16 37.07 7.392 38.414 7.392 40.612C7.392 42.796 6.16 44.168 4.382 44.168ZM4.116 43.23C5.474 43.23 6.286 42.11 6.286 40.612C6.286 39.114 5.474 38.008 4.116 38.008C3.29 38.008 2.464 38.498 2.1 39.086V42.138C2.464 42.726 3.29 43.23 4.116 43.23ZM12.0157 44.168C9.95772 44.168 8.66972 42.572 8.66972 40.612C8.66972 38.652 9.95772 37.07 12.0157 37.07C14.0737 37.07 15.3617 38.652 15.3617 40.612C15.3617 42.572 14.0737 44.168 12.0157 44.168ZM12.0157 43.23C13.4577 43.23 14.2557 41.998 14.2557 40.612C14.2557 39.24 13.4577 38.008 12.0157 38.008C10.5737 38.008 9.76172 39.24 9.76172 40.612C9.76172 41.998 10.5737 43.23 12.0157 43.23ZM19.2154 44.168C18.1094 44.168 17.1714 43.832 16.4854 43.104L17.0314 42.348C17.4794 42.866 18.3334 43.314 19.2574 43.314C20.2934 43.314 20.8534 42.824 20.8534 42.152C20.8534 40.514 16.6674 41.522 16.6674 39.016C16.6674 37.966 17.5774 37.07 19.1874 37.07C20.3354 37.07 21.1474 37.504 21.6934 38.05L21.2034 38.778C20.7974 38.288 20.0554 37.924 19.1874 37.924C18.2634 37.924 17.6894 38.386 17.6894 38.988C17.6894 40.472 21.8754 39.492 21.8754 42.124C21.8754 43.258 20.9654 44.168 19.2154 44.168ZM24.0993 36.272C23.7213 36.272 23.3993 35.964 23.3993 35.572C23.3993 35.18 23.7213 34.858 24.0993 34.858C24.4913 34.858 24.8133 35.18 24.8133 35.572C24.8133 35.964 24.4913 36.272 24.0993 36.272ZM24.6313 44H23.5813V37.238H24.6313V44ZM28.4338 44.168C27.4398 44.168 26.9358 43.594 26.9358 42.586V38.162H25.8158V37.238H26.9358V35.39H27.9858V37.238H29.3578V38.162H27.9858V42.362C27.9858 42.866 28.2098 43.23 28.6718 43.23C28.9658 43.23 29.2458 43.104 29.3858 42.95L29.6938 43.734C29.4278 43.986 29.0498 44.168 28.4338 44.168ZM31.359 36.272C30.981 36.272 30.659 35.964 30.659 35.572C30.659 35.18 30.981 34.858 31.359 34.858C31.751 34.858 32.073 35.18 32.073 35.572C32.073 35.964 31.751 36.272 31.359 36.272ZM31.891 44H30.841V37.238H31.891V44ZM36.9395 44.168C34.8815 44.168 33.5935 42.572 33.5935 40.612C33.5935 38.652 34.8815 37.07 36.9395 37.07C38.9975 37.07 40.2855 38.652 40.2855 40.612C40.2855 42.572 38.9975 44.168 36.9395 44.168ZM36.9395 43.23C38.3815 43.23 39.1795 41.998 39.1795 40.612C39.1795 39.24 38.3815 38.008 36.9395 38.008C35.4975 38.008 34.6855 39.24 34.6855 40.612C34.6855 41.998 35.4975 43.23 36.9395 43.23ZM47.6113 44H46.5613V39.576C46.5613 38.386 45.9593 38.008 45.0493 38.008C44.2233 38.008 43.4393 38.512 43.0473 39.058V44H41.9973V37.238H43.0473V38.218C43.5233 37.658 44.4473 37.07 45.4553 37.07C46.8693 37.07 47.6113 37.784 47.6113 39.254V44ZM52.7602 44.168C50.7582 44.168 49.3162 42.726 49.3162 40.612C49.3162 38.652 50.7162 37.07 52.6482 37.07C54.6922 37.07 55.8962 38.666 55.8962 40.696V40.962H50.4222C50.5062 42.236 51.4022 43.3 52.8582 43.3C53.6282 43.3 54.4122 42.992 54.9442 42.446L55.4482 43.132C54.7762 43.804 53.8662 44.168 52.7602 44.168ZM54.8602 40.192C54.8462 39.184 54.1742 37.938 52.6342 37.938C51.1922 37.938 50.4782 39.156 50.4222 40.192H54.8602ZM63.5469 44H62.4969V42.992C61.9929 43.678 61.1669 44.168 60.2149 44.168C58.4509 44.168 57.2049 42.824 57.2049 40.626C57.2049 38.47 58.4369 37.07 60.2149 37.07C61.1249 37.07 61.9509 37.518 62.4969 38.26V34.662H63.5469V44ZM60.4669 43.23C61.3069 43.23 62.1189 42.754 62.4969 42.166V39.1C62.1189 38.512 61.3069 38.008 60.4669 38.008C59.1089 38.008 58.2969 39.128 58.2969 40.626C58.2969 42.124 59.1089 43.23 60.4669 43.23ZM70.967 44.168C69.973 44.168 69.469 43.594 69.469 42.586V38.162H68.349V37.238H69.469V35.39H70.519V37.238H71.891V38.162H70.519V42.362C70.519 42.866 70.743 43.23 71.205 43.23C71.499 43.23 71.779 43.104 71.919 42.95L72.227 43.734C71.961 43.986 71.583 44.168 70.967 44.168ZM76.3282 44.168C74.2702 44.168 72.9822 42.572 72.9822 40.612C72.9822 38.652 74.2702 37.07 76.3282 37.07C78.3862 37.07 79.6742 38.652 79.6742 40.612C79.6742 42.572 78.3862 44.168 76.3282 44.168ZM76.3282 43.23C77.7702 43.23 78.5682 41.998 78.5682 40.612C78.5682 39.24 77.7702 38.008 76.3282 38.008C74.8862 38.008 74.0742 39.24 74.0742 40.612C74.0742 41.998 74.8862 43.23 76.3282 43.23ZM84.3399 44.168C82.2819 44.168 80.9939 42.572 80.9939 40.612C80.9939 38.652 82.2819 37.07 84.3399 37.07C86.3979 37.07 87.6859 38.652 87.6859 40.612C87.6859 42.572 86.3979 44.168 84.3399 44.168ZM84.3399 43.23C85.7819 43.23 86.5799 41.998 86.5799 40.612C86.5799 39.24 85.7819 38.008 84.3399 38.008C82.8979 38.008 82.0859 39.24 82.0859 40.612C82.0859 41.998 82.8979 43.23 84.3399 43.23ZM94.351 44H93.301V38.162H92.181V37.238H93.301V36.72C93.301 35.334 94.057 34.522 95.261 34.522C95.793 34.522 96.269 34.648 96.689 35.04L96.255 35.726C96.031 35.53 95.765 35.39 95.415 35.39C94.729 35.39 94.351 35.866 94.351 36.72V37.238H95.723V38.162H94.351V44ZM102.25 44H101.2V43.23C100.64 43.846 99.8699 44.168 98.9599 44.168C97.8119 44.168 96.5939 43.398 96.5939 41.928C96.5939 40.416 97.8119 39.702 98.9599 39.702C99.8839 39.702 100.654 39.996 101.2 40.626V39.408C101.2 38.498 100.472 37.98 99.4919 37.98C98.6799 37.98 98.0219 38.274 97.4199 38.918L96.9299 38.19C97.6579 37.434 98.5259 37.07 99.6319 37.07C101.06 37.07 102.25 37.714 102.25 39.352V44ZM99.3379 43.412C100.08 43.412 100.794 43.132 101.2 42.572V41.298C100.794 40.738 100.08 40.458 99.3379 40.458C98.3579 40.458 97.6719 41.074 97.6719 41.942C97.6719 42.796 98.3579 43.412 99.3379 43.412ZM105.405 44H104.355V37.238H105.405V38.33C105.951 37.616 106.735 37.098 107.659 37.098V38.176C107.533 38.148 107.407 38.134 107.239 38.134C106.595 38.134 105.713 38.666 105.405 39.212V44ZM115.539 44.168C113.481 44.168 112.193 42.572 112.193 40.612C112.193 38.652 113.481 37.07 115.539 37.07C117.597 37.07 118.885 38.652 118.885 40.612C118.885 42.572 117.597 44.168 115.539 44.168ZM115.539 43.23C116.981 43.23 117.779 41.998 117.779 40.612C117.779 39.24 116.981 38.008 115.539 38.008C114.097 38.008 113.285 39.24 113.285 40.612C113.285 41.998 114.097 43.23 115.539 43.23ZM121.647 44H120.597V37.238H121.647V38.33C122.193 37.616 122.977 37.098 123.901 37.098V38.176C123.775 38.148 123.649 38.134 123.481 38.134C122.837 38.134 121.955 38.666 121.647 39.212V44ZM130.535 44.168C129.541 44.168 129.037 43.594 129.037 42.586V38.162H127.917V37.238H129.037V35.39H130.087V37.238H131.459V38.162H130.087V42.362C130.087 42.866 130.311 43.23 130.773 43.23C131.067 43.23 131.347 43.104 131.487 42.95L131.795 43.734C131.529 43.986 131.151 44.168 130.535 44.168ZM135.897 44.168C133.839 44.168 132.551 42.572 132.551 40.612C132.551 38.652 133.839 37.07 135.897 37.07C137.955 37.07 139.243 38.652 139.243 40.612C139.243 42.572 137.955 44.168 135.897 44.168ZM135.897 43.23C137.339 43.23 138.137 41.998 138.137 40.612C138.137 39.24 137.339 38.008 135.897 38.008C134.455 38.008 133.643 39.24 133.643 40.612C133.643 41.998 134.455 43.23 135.897 43.23ZM143.908 44.168C141.85 44.168 140.562 42.572 140.562 40.612C140.562 38.652 141.85 37.07 143.908 37.07C145.966 37.07 147.254 38.652 147.254 40.612C147.254 42.572 145.966 44.168 143.908 44.168ZM143.908 43.23C145.35 43.23 146.148 41.998 146.148 40.612C146.148 39.24 145.35 38.008 143.908 38.008C142.466 38.008 141.654 39.24 141.654 40.612C141.654 41.998 142.466 43.23 143.908 43.23ZM155.557 44.168C153.541 44.168 152.183 42.628 152.183 40.612C152.183 38.61 153.541 37.07 155.557 37.07C156.789 37.07 157.517 37.574 158.035 38.246L157.335 38.89C156.887 38.274 156.313 38.008 155.613 38.008C154.171 38.008 153.275 39.114 153.275 40.612C153.275 42.11 154.171 43.23 155.613 43.23C156.313 43.23 156.887 42.95 157.335 42.348L158.035 42.992C157.517 43.664 156.789 44.168 155.557 44.168ZM160.557 44H159.507V34.662H160.557V44ZM165.606 44.168C163.548 44.168 162.26 42.572 162.26 40.612C162.26 38.652 163.548 37.07 165.606 37.07C167.664 37.07 168.952 38.652 168.952 40.612C168.952 42.572 167.664 44.168 165.606 44.168ZM165.606 43.23C167.048 43.23 167.846 41.998 167.846 40.612C167.846 39.24 167.048 38.008 165.606 38.008C164.164 38.008 163.352 39.24 163.352 40.612C163.352 41.998 164.164 43.23 165.606 43.23ZM172.805 44.168C171.699 44.168 170.761 43.832 170.075 43.104L170.621 42.348C171.069 42.866 171.923 43.314 172.847 43.314C173.883 43.314 174.443 42.824 174.443 42.152C174.443 40.514 170.257 41.522 170.257 39.016C170.257 37.966 171.167 37.07 172.777 37.07C173.925 37.07 174.737 37.504 175.283 38.05L174.793 38.778C174.387 38.288 173.645 37.924 172.777 37.924C171.853 37.924 171.279 38.386 171.279 38.988C171.279 40.472 175.465 39.492 175.465 42.124C175.465 43.258 174.555 44.168 172.805 44.168ZM180.223 44.168C178.221 44.168 176.779 42.726 176.779 40.612C176.779 38.652 178.179 37.07 180.111 37.07C182.155 37.07 183.359 38.666 183.359 40.696V40.962H177.885C177.969 42.236 178.865 43.3 180.321 43.3C181.091 43.3 181.875 42.992 182.407 42.446L182.911 43.132C182.239 43.804 181.329 44.168 180.223 44.168ZM182.323 40.192C182.309 39.184 181.637 37.938 180.097 37.938C178.655 37.938 177.941 39.156 177.885 40.192H182.323ZM190.377 44.168C189.383 44.168 188.879 43.594 188.879 42.586V38.162H187.759V37.238H188.879V35.39H189.929V37.238H191.301V38.162H189.929V42.362C189.929 42.866 190.153 43.23 190.615 43.23C190.909 43.23 191.189 43.104 191.329 42.95L191.637 43.734C191.371 43.986 190.993 44.168 190.377 44.168ZM195.738 44.168C193.68 44.168 192.392 42.572 192.392 40.612C192.392 38.652 193.68 37.07 195.738 37.07C197.796 37.07 199.084 38.652 199.084 40.612C199.084 42.572 197.796 44.168 195.738 44.168ZM195.738 43.23C197.18 43.23 197.978 41.998 197.978 40.612C197.978 39.24 197.18 38.008 195.738 38.008C194.296 38.008 193.484 39.24 193.484 40.612C193.484 41.998 194.296 43.23 195.738 43.23ZM206.113 44.168C205.119 44.168 204.615 43.594 204.615 42.586V38.162H203.495V37.238H204.615V35.39H205.665V37.238H207.037V38.162H205.665V42.362C205.665 42.866 205.889 43.23 206.351 43.23C206.645 43.23 206.925 43.104 207.065 42.95L207.373 43.734C207.107 43.986 206.729 44.168 206.113 44.168ZM214.149 44H213.099V39.548C213.099 38.358 212.483 38.008 211.573 38.008C210.761 38.008 209.977 38.512 209.571 39.058V44H208.521V34.662H209.571V38.218C210.047 37.658 210.971 37.07 211.993 37.07C213.407 37.07 214.149 37.756 214.149 39.226V44ZM219.297 44.168C217.295 44.168 215.853 42.726 215.853 40.612C215.853 38.652 217.253 37.07 219.185 37.07C221.229 37.07 222.433 38.666 222.433 40.696V40.962H216.959C217.043 42.236 217.939 43.3 219.395 43.3C220.165 43.3 220.949 42.992 221.481 42.446L221.985 43.132C221.313 43.804 220.403 44.168 219.297 44.168ZM221.397 40.192C221.383 39.184 220.711 37.938 219.171 37.938C217.729 37.938 217.015 39.156 216.959 40.192H221.397ZM230.725 44.168C228.709 44.168 227.351 42.628 227.351 40.612C227.351 38.61 228.709 37.07 230.725 37.07C231.957 37.07 232.685 37.574 233.203 38.246L232.503 38.89C232.055 38.274 231.481 38.008 230.781 38.008C229.339 38.008 228.443 39.114 228.443 40.612C228.443 42.11 229.339 43.23 230.781 43.23C231.481 43.23 232.055 42.95 232.503 42.348L233.203 42.992C232.685 43.664 231.957 44.168 230.725 44.168ZM239.953 44H238.903V43.23C238.343 43.846 237.573 44.168 236.663 44.168C235.515 44.168 234.297 43.398 234.297 41.928C234.297 40.416 235.515 39.702 236.663 39.702C237.587 39.702 238.357 39.996 238.903 40.626V39.408C238.903 38.498 238.175 37.98 237.195 37.98C236.383 37.98 235.725 38.274 235.123 38.918L234.633 38.19C235.361 37.434 236.229 37.07 237.335 37.07C238.763 37.07 239.953 37.714 239.953 39.352V44ZM237.041 43.412C237.783 43.412 238.497 43.132 238.903 42.572V41.298C238.497 40.738 237.783 40.458 237.041 40.458C236.061 40.458 235.375 41.074 235.375 41.942C235.375 42.796 236.061 43.412 237.041 43.412ZM251.27 44H250.22V39.408C250.22 38.554 249.842 38.008 248.974 38.008C248.274 38.008 247.532 38.512 247.182 39.044V44H246.132V39.408C246.132 38.554 245.768 38.008 244.886 38.008C244.2 38.008 243.472 38.512 243.108 39.058V44H242.058V37.238H243.108V38.218C243.388 37.784 244.298 37.07 245.292 37.07C246.328 37.07 246.916 37.63 247.112 38.33C247.49 37.714 248.4 37.07 249.38 37.07C250.612 37.07 251.27 37.756 251.27 39.114V44ZM256.416 44.168C254.414 44.168 252.972 42.726 252.972 40.612C252.972 38.652 254.372 37.07 256.304 37.07C258.348 37.07 259.552 38.666 259.552 40.696V40.962H254.078C254.162 42.236 255.058 43.3 256.514 43.3C257.284 43.3 258.068 42.992 258.6 42.446L259.104 43.132C258.432 43.804 257.522 44.168 256.416 44.168ZM258.516 40.192C258.502 39.184 257.83 37.938 256.29 37.938C254.848 37.938 254.134 39.156 254.078 40.192H258.516ZM262.303 44H261.253V37.238H262.303V38.33C262.849 37.616 263.633 37.098 264.557 37.098V38.176C264.431 38.148 264.305 38.134 264.137 38.134C263.493 38.134 262.611 38.666 262.303 39.212V44ZM271.152 44H270.102V43.23C269.542 43.846 268.772 44.168 267.862 44.168C266.714 44.168 265.496 43.398 265.496 41.928C265.496 40.416 266.714 39.702 267.862 39.702C268.786 39.702 269.556 39.996 270.102 40.626V39.408C270.102 38.498 269.374 37.98 268.394 37.98C267.582 37.98 266.924 38.274 266.322 38.918L265.832 38.19C266.56 37.434 267.428 37.07 268.534 37.07C269.962 37.07 271.152 37.714 271.152 39.352V44ZM268.24 43.412C268.982 43.412 269.696 43.132 270.102 42.572V41.298C269.696 40.738 268.982 40.458 268.24 40.458C267.26 40.458 266.574 41.074 266.574 41.942C266.574 42.796 267.26 43.412 268.24 43.412ZM273.817 44.14C273.397 44.14 273.047 43.79 273.047 43.37C273.047 42.95 273.397 42.6 273.817 42.6C274.237 42.6 274.587 42.95 274.587 43.37C274.587 43.79 274.237 44.14 273.817 44.14Z" fill="#212121"/>
</svg>
