<svg width="315" height="62" viewBox="0 0 315 62" fill="none" xmlns="http://www.w3.org/2000/svg">
<path d="M2.254 10H1.092V0.661999H4.844C6.72 0.661999 7.77 1.95 7.77 3.476C7.77 5.002 6.692 6.29 4.844 6.29H2.254V10ZM4.704 5.254C5.81 5.254 6.566 4.526 6.566 3.476C6.566 2.426 5.81 1.698 4.704 1.698H2.254V5.254H4.704ZM14.2714 10H13.2214V9.23C12.6614 9.846 11.8914 10.168 10.9814 10.168C9.83336 10.168 8.61536 9.398 8.61536 7.928C8.61536 6.416 9.83336 5.702 10.9814 5.702C11.9054 5.702 12.6754 5.996 13.2214 6.626V5.408C13.2214 4.498 12.4934 3.98 11.5134 3.98C10.7014 3.98 10.0434 4.274 9.44136 4.918L8.95136 4.19C9.67936 3.434 10.5474 3.07 11.6534 3.07C13.0814 3.07 14.2714 3.714 14.2714 5.352V10ZM11.3594 9.412C12.1014 9.412 12.8154 9.132 13.2214 8.572V7.298C12.8154 6.738 12.1014 6.458 11.3594 6.458C10.3794 6.458 9.69336 7.074 9.69336 7.942C9.69336 8.796 10.3794 9.412 11.3594 9.412ZM17.4262 10H16.3762V3.238H17.4262V4.33C17.9722 3.616 18.7562 3.098 19.6802 3.098V4.176C19.5542 4.148 19.4282 4.134 19.2602 4.134C18.6162 4.134 17.7342 4.666 17.4262 5.212V10ZM26.2753 10H25.2253V9.23C24.6653 9.846 23.8953 10.168 22.9853 10.168C21.8373 10.168 20.6193 9.398 20.6193 7.928C20.6193 6.416 21.8373 5.702 22.9853 5.702C23.9093 5.702 24.6793 5.996 25.2253 6.626V5.408C25.2253 4.498 24.4973 3.98 23.5173 3.98C22.7053 3.98 22.0473 4.274 21.4453 4.918L20.9553 4.19C21.6833 3.434 22.5513 3.07 23.6573 3.07C25.0853 3.07 26.2753 3.714 26.2753 5.352V10ZM23.3633 9.412C24.1053 9.412 24.8193 9.132 25.2253 8.572V7.298C24.8193 6.738 24.1053 6.458 23.3633 6.458C22.3833 6.458 21.6973 7.074 21.6973 7.942C21.6973 8.796 22.3833 9.412 23.3633 9.412ZM34.8175 9.23C35.6575 9.23 36.4835 8.726 36.8335 8.138V5.086C36.4835 4.498 35.6575 4.008 34.8175 4.008C33.4595 4.008 32.6615 5.114 32.6615 6.612C32.6615 8.11 33.4595 9.23 34.8175 9.23ZM34.5655 10.168C32.7875 10.168 31.5555 8.796 31.5555 6.612C31.5555 4.414 32.7875 3.07 34.5655 3.07C35.5175 3.07 36.3575 3.56 36.8335 4.246V3.238H37.8835V12.576H36.8335V8.978C36.2875 9.734 35.4755 10.168 34.5655 10.168ZM45.6152 10H44.5652V9.048C44.0472 9.636 43.1652 10.168 42.1572 10.168C40.7432 10.168 40.0012 9.482 40.0012 8.012V3.238H41.0512V7.69C41.0512 8.88 41.6532 9.23 42.5632 9.23C43.3892 9.23 44.1732 8.754 44.5652 8.208V3.238H45.6152V10ZM50.7641 10.168C48.7621 10.168 47.3201 8.726 47.3201 6.612C47.3201 4.652 48.7201 3.07 50.6521 3.07C52.6961 3.07 53.9001 4.666 53.9001 6.696V6.962H48.4261C48.5101 8.236 49.4061 9.3 50.8621 9.3C51.6321 9.3 52.4161 8.992 52.9481 8.446L53.4521 9.132C52.7801 9.804 51.8701 10.168 50.7641 10.168ZM52.8641 6.192C52.8501 5.184 52.1781 3.938 50.6381 3.938C49.1961 3.938 48.4821 5.156 48.4261 6.192H52.8641ZM60.2602 10H59.2102V0.661999H60.2602V10ZM67.6327 10H66.5827V9.23C66.0227 9.846 65.2527 10.168 64.3427 10.168C63.1947 10.168 61.9767 9.398 61.9767 7.928C61.9767 6.416 63.1947 5.702 64.3427 5.702C65.2667 5.702 66.0367 5.996 66.5827 6.626V5.408C66.5827 4.498 65.8547 3.98 64.8747 3.98C64.0627 3.98 63.4047 4.274 62.8027 4.918L62.3127 4.19C63.0407 3.434 63.9087 3.07 65.0147 3.07C66.4427 3.07 67.6327 3.714 67.6327 5.352V10ZM64.7207 9.412C65.4627 9.412 66.1767 9.132 66.5827 8.572V7.298C66.1767 6.738 65.4627 6.458 64.7207 6.458C63.7407 6.458 63.0547 7.074 63.0547 7.942C63.0547 8.796 63.7407 9.412 64.7207 9.412ZM82.5589 10H81.5089V5.408C81.5089 4.554 81.1309 4.008 80.2629 4.008C79.5629 4.008 78.8209 4.512 78.4709 5.044V10H77.4209V5.408C77.4209 4.554 77.0569 4.008 76.1749 4.008C75.4889 4.008 74.7609 4.512 74.3969 5.058V10H73.3469V3.238H74.3969V4.218C74.6769 3.784 75.5869 3.07 76.5809 3.07C77.6169 3.07 78.2049 3.63 78.4009 4.33C78.7789 3.714 79.6889 3.07 80.6689 3.07C81.9009 3.07 82.5589 3.756 82.5589 5.114V10ZM87.7055 10.168C85.7035 10.168 84.2615 8.726 84.2615 6.612C84.2615 4.652 85.6615 3.07 87.5935 3.07C89.6375 3.07 90.8415 4.666 90.8415 6.696V6.962H85.3675C85.4515 8.236 86.3475 9.3 87.8035 9.3C88.5735 9.3 89.3575 8.992 89.8895 8.446L90.3935 9.132C89.7215 9.804 88.8115 10.168 87.7055 10.168ZM89.8055 6.192C89.7915 5.184 89.1195 3.938 87.5795 3.938C86.1375 3.938 85.4235 5.156 85.3675 6.192H89.8055ZM98.4922 10H97.4422V8.992C96.9382 9.678 96.1122 10.168 95.1602 10.168C93.3962 10.168 92.1502 8.824 92.1502 6.626C92.1502 4.47 93.3822 3.07 95.1602 3.07C96.0702 3.07 96.8962 3.518 97.4422 4.26V0.661999H98.4922V10ZM95.4122 9.23C96.2522 9.23 97.0642 8.754 97.4422 8.166V5.1C97.0642 4.512 96.2522 4.008 95.4122 4.008C94.0542 4.008 93.2422 5.128 93.2422 6.626C93.2422 8.124 94.0542 9.23 95.4122 9.23ZM101.113 2.272C100.735 2.272 100.413 1.964 100.413 1.572C100.413 1.18 100.735 0.857999 101.113 0.857999C101.505 0.857999 101.827 1.18 101.827 1.572C101.827 1.964 101.505 2.272 101.113 2.272ZM101.645 10H100.595V3.238H101.645V10ZM106.721 10.168C104.705 10.168 103.347 8.628 103.347 6.612C103.347 4.61 104.705 3.07 106.721 3.07C107.953 3.07 108.681 3.574 109.199 4.246L108.499 4.89C108.051 4.274 107.477 4.008 106.777 4.008C105.335 4.008 104.439 5.114 104.439 6.612C104.439 8.11 105.335 9.23 106.777 9.23C107.477 9.23 108.051 8.95 108.499 8.348L109.199 8.992C108.681 9.664 107.953 10.168 106.721 10.168ZM111.189 2.272C110.811 2.272 110.489 1.964 110.489 1.572C110.489 1.18 110.811 0.857999 111.189 0.857999C111.581 0.857999 111.903 1.18 111.903 1.572C111.903 1.964 111.581 2.272 111.189 2.272ZM111.721 10H110.671V3.238H111.721V10ZM119.136 0.199999L116.77 2.216H115.972L118.044 0.199999H119.136ZM116.77 10.168C114.712 10.168 113.424 8.572 113.424 6.612C113.424 4.652 114.712 3.07 116.77 3.07C118.828 3.07 120.116 4.652 120.116 6.612C120.116 8.572 118.828 10.168 116.77 10.168ZM116.77 9.23C118.212 9.23 119.01 7.998 119.01 6.612C119.01 5.24 118.212 4.008 116.77 4.008C115.328 4.008 114.516 5.24 114.516 6.612C114.516 7.998 115.328 9.23 116.77 9.23ZM127.441 10H126.391V5.576C126.391 4.386 125.789 4.008 124.879 4.008C124.053 4.008 123.269 4.512 122.877 5.058V10H121.827V3.238H122.877V4.218C123.353 3.658 124.277 3.07 125.285 3.07C126.699 3.07 127.441 3.784 127.441 5.254V10ZM134.492 10H133.442V4.162H132.322V3.238H133.442V2.72C133.442 1.334 134.198 0.521999 135.402 0.521999C135.934 0.521999 136.41 0.647999 136.83 1.04L136.396 1.726C136.172 1.53 135.906 1.39 135.556 1.39C134.87 1.39 134.492 1.866 134.492 2.72V3.238H135.864V4.162H134.492V10ZM142.727 10H141.677V9.048C141.159 9.636 140.277 10.168 139.269 10.168C137.855 10.168 137.113 9.482 137.113 8.012V3.238H138.163V7.69C138.163 8.88 138.765 9.23 139.675 9.23C140.501 9.23 141.285 8.754 141.677 8.208V3.238H142.727V10ZM150.437 10H149.387V5.576C149.387 4.386 148.785 4.008 147.875 4.008C147.049 4.008 146.265 4.512 145.873 5.058V10H144.823V3.238H145.873V4.218C146.349 3.658 147.273 3.07 148.281 3.07C149.695 3.07 150.437 3.784 150.437 5.254V10ZM155.516 10.168C153.5 10.168 152.142 8.628 152.142 6.612C152.142 4.61 153.5 3.07 155.516 3.07C156.748 3.07 157.476 3.574 157.994 4.246L157.294 4.89C156.846 4.274 156.272 4.008 155.572 4.008C154.13 4.008 153.234 5.114 153.234 6.612C153.234 8.11 154.13 9.23 155.572 9.23C156.272 9.23 156.846 8.95 157.294 8.348L157.994 8.992C157.476 9.664 156.748 10.168 155.516 10.168ZM159.984 2.272C159.606 2.272 159.284 1.964 159.284 1.572C159.284 1.18 159.606 0.857999 159.984 0.857999C160.376 0.857999 160.698 1.18 160.698 1.572C160.698 1.964 160.376 2.272 159.984 2.272ZM160.516 10H159.466V3.238H160.516V10ZM165.565 10.168C163.507 10.168 162.219 8.572 162.219 6.612C162.219 4.652 163.507 3.07 165.565 3.07C167.623 3.07 168.911 4.652 168.911 6.612C168.911 8.572 167.623 10.168 165.565 10.168ZM165.565 9.23C167.007 9.23 167.805 7.998 167.805 6.612C167.805 5.24 167.007 4.008 165.565 4.008C164.123 4.008 163.311 5.24 163.311 6.612C163.311 7.998 164.123 9.23 165.565 9.23ZM176.236 10H175.186V5.576C175.186 4.386 174.584 4.008 173.674 4.008C172.848 4.008 172.064 4.512 171.672 5.058V10H170.622V3.238H171.672V4.218C172.148 3.658 173.072 3.07 174.08 3.07C175.494 3.07 176.236 3.784 176.236 5.254V10ZM181.385 10.168C179.383 10.168 177.941 8.726 177.941 6.612C177.941 4.652 179.341 3.07 181.273 3.07C183.317 3.07 184.521 4.666 184.521 6.696V6.962H179.047C179.131 8.236 180.027 9.3 181.483 9.3C182.253 9.3 183.037 8.992 183.569 8.446L184.073 9.132C183.401 9.804 182.491 10.168 181.385 10.168ZM183.485 6.192C183.471 5.184 182.799 3.938 181.259 3.938C179.817 3.938 179.103 5.156 179.047 6.192H183.485ZM192.813 10.168C190.797 10.168 189.439 8.628 189.439 6.612C189.439 4.61 190.797 3.07 192.813 3.07C194.045 3.07 194.773 3.574 195.291 4.246L194.591 4.89C194.143 4.274 193.569 4.008 192.869 4.008C191.427 4.008 190.531 5.114 190.531 6.612C190.531 8.11 191.427 9.23 192.869 9.23C193.569 9.23 194.143 8.95 194.591 8.348L195.291 8.992C194.773 9.664 194.045 10.168 192.813 10.168ZM199.717 10.168C197.659 10.168 196.371 8.572 196.371 6.612C196.371 4.652 197.659 3.07 199.717 3.07C201.775 3.07 203.063 4.652 203.063 6.612C203.063 8.572 201.775 10.168 199.717 10.168ZM199.717 9.23C201.159 9.23 201.957 7.998 201.957 6.612C201.957 5.24 201.159 4.008 199.717 4.008C198.275 4.008 197.463 5.24 197.463 6.612C197.463 7.998 198.275 9.23 199.717 9.23ZM205.825 10H204.775V3.238H205.825V4.33C206.371 3.616 207.155 3.098 208.079 3.098V4.176C207.953 4.148 207.827 4.134 207.659 4.134C207.015 4.134 206.133 4.666 205.825 5.212V10ZM210.446 10H209.396V3.238H210.446V4.33C210.992 3.616 211.776 3.098 212.7 3.098V4.176C212.574 4.148 212.448 4.134 212.28 4.134C211.636 4.134 210.754 4.666 210.446 5.212V10ZM217.069 10.168C215.067 10.168 213.625 8.726 213.625 6.612C213.625 4.652 215.025 3.07 216.957 3.07C219.001 3.07 220.205 4.666 220.205 6.696V6.962H214.731C214.815 8.236 215.711 9.3 217.167 9.3C217.937 9.3 218.721 8.992 219.253 8.446L219.757 9.132C219.085 9.804 218.175 10.168 217.069 10.168ZM219.169 6.192C219.155 5.184 218.483 3.938 216.943 3.938C215.501 3.938 214.787 5.156 214.731 6.192H219.169ZM224.887 10.168C222.871 10.168 221.513 8.628 221.513 6.612C221.513 4.61 222.871 3.07 224.887 3.07C226.119 3.07 226.847 3.574 227.365 4.246L226.665 4.89C226.217 4.274 225.643 4.008 224.943 4.008C223.501 4.008 222.605 5.114 222.605 6.612C222.605 8.11 223.501 9.23 224.943 9.23C225.643 9.23 226.217 8.95 226.665 8.348L227.365 8.992C226.847 9.664 226.119 10.168 224.887 10.168ZM230.545 10.168C229.551 10.168 229.047 9.594 229.047 8.586V4.162H227.927V3.238H229.047V1.39H230.097V3.238H231.469V4.162H230.097V8.362C230.097 8.866 230.321 9.23 230.783 9.23C231.077 9.23 231.357 9.104 231.497 8.95L231.805 9.734C231.539 9.986 231.161 10.168 230.545 10.168ZM238.23 10H237.18V9.23C236.62 9.846 235.85 10.168 234.94 10.168C233.792 10.168 232.574 9.398 232.574 7.928C232.574 6.416 233.792 5.702 234.94 5.702C235.864 5.702 236.634 5.996 237.18 6.626V5.408C237.18 4.498 236.452 3.98 235.472 3.98C234.66 3.98 234.002 4.274 233.4 4.918L232.91 4.19C233.638 3.434 234.506 3.07 235.612 3.07C237.04 3.07 238.23 3.714 238.23 5.352V10ZM235.318 9.412C236.06 9.412 236.774 9.132 237.18 8.572V7.298C236.774 6.738 236.06 6.458 235.318 6.458C234.338 6.458 233.652 7.074 233.652 7.942C233.652 8.796 234.338 9.412 235.318 9.412ZM249.547 10H248.497V5.408C248.497 4.554 248.119 4.008 247.251 4.008C246.551 4.008 245.809 4.512 245.459 5.044V10H244.409V5.408C244.409 4.554 244.045 4.008 243.163 4.008C242.477 4.008 241.749 4.512 241.385 5.058V10H240.335V3.238H241.385V4.218C241.665 3.784 242.575 3.07 243.569 3.07C244.605 3.07 245.193 3.63 245.389 4.33C245.767 3.714 246.677 3.07 247.657 3.07C248.889 3.07 249.547 3.756 249.547 5.114V10ZM254.694 10.168C252.692 10.168 251.25 8.726 251.25 6.612C251.25 4.652 252.65 3.07 254.582 3.07C256.626 3.07 257.83 4.666 257.83 6.696V6.962H252.356C252.44 8.236 253.336 9.3 254.792 9.3C255.562 9.3 256.346 8.992 256.878 8.446L257.382 9.132C256.71 9.804 255.8 10.168 254.694 10.168ZM256.794 6.192C256.78 5.184 256.108 3.938 254.568 3.938C253.126 3.938 252.412 5.156 252.356 6.192H256.794ZM265.144 10H264.094V5.576C264.094 4.386 263.492 4.008 262.582 4.008C261.756 4.008 260.972 4.512 260.58 5.058V10H259.53V3.238H260.58V4.218C261.056 3.658 261.98 3.07 262.988 3.07C264.402 3.07 265.144 3.784 265.144 5.254V10ZM268.949 10.168C267.955 10.168 267.451 9.594 267.451 8.586V4.162H266.331V3.238H267.451V1.39H268.501V3.238H269.873V4.162H268.501V8.362C268.501 8.866 268.725 9.23 269.187 9.23C269.481 9.23 269.761 9.104 269.901 8.95L270.209 9.734C269.943 9.986 269.565 10.168 268.949 10.168ZM274.409 10.168C272.407 10.168 270.965 8.726 270.965 6.612C270.965 4.652 272.365 3.07 274.297 3.07C276.341 3.07 277.545 4.666 277.545 6.696V6.962H272.071C272.155 8.236 273.051 9.3 274.507 9.3C275.277 9.3 276.061 8.992 276.593 8.446L277.097 9.132C276.425 9.804 275.515 10.168 274.409 10.168ZM276.509 6.192C276.495 5.184 275.823 3.938 274.283 3.938C272.841 3.938 272.127 5.156 272.071 6.192H276.509ZM283.905 10H282.855V0.661999H283.905V10ZM291.277 10H290.227V9.23C289.667 9.846 288.897 10.168 287.987 10.168C286.839 10.168 285.621 9.398 285.621 7.928C285.621 6.416 286.839 5.702 287.987 5.702C288.911 5.702 289.681 5.996 290.227 6.626V5.408C290.227 4.498 289.499 3.98 288.519 3.98C287.707 3.98 287.049 4.274 286.447 4.918L285.957 4.19C286.685 3.434 287.553 3.07 288.659 3.07C290.087 3.07 291.277 3.714 291.277 5.352V10ZM288.365 9.412C289.107 9.412 289.821 9.132 290.227 8.572V7.298C289.821 6.738 289.107 6.458 288.365 6.458C287.385 6.458 286.699 7.074 286.699 7.942C286.699 8.796 287.385 9.412 288.365 9.412ZM298.041 10H296.991V0.661999H298.041V10ZM305.75 10H304.7V9.048C304.182 9.636 303.3 10.168 302.292 10.168C300.878 10.168 300.136 9.482 300.136 8.012V3.238H301.186V7.69C301.186 8.88 301.788 9.23 302.698 9.23C303.524 9.23 304.308 8.754 304.7 8.208V3.238H305.75V10ZM312.677 10H307.525V9.188L311.249 4.162H307.525V3.238H312.621V4.036L308.869 9.09H312.677V10ZM6.664 27H5.614V22.576C5.614 21.386 5.012 21.008 4.102 21.008C3.276 21.008 2.492 21.512 2.1 22.058V27H1.05V20.238H2.1V21.218C2.576 20.658 3.5 20.07 4.508 20.07C5.922 20.07 6.664 20.784 6.664 22.254V27ZM11.7149 27.168C9.65694 27.168 8.36894 25.572 8.36894 23.612C8.36894 21.652 9.65694 20.07 11.7149 20.07C13.7729 20.07 15.0609 21.652 15.0609 23.612C15.0609 25.572 13.7729 27.168 11.7149 27.168ZM11.7149 26.23C13.1569 26.23 13.9549 24.998 13.9549 23.612C13.9549 22.24 13.1569 21.008 11.7149 21.008C10.2729 21.008 9.46094 22.24 9.46094 23.612C9.46094 24.998 10.2729 26.23 11.7149 26.23ZM26.332 27H25.282V25.992C24.778 26.678 23.952 27.168 23 27.168C21.236 27.168 19.99 25.824 19.99 23.626C19.99 21.47 21.222 20.07 23 20.07C23.91 20.07 24.736 20.518 25.282 21.26V17.662H26.332V27ZM23.252 26.23C24.092 26.23 24.904 25.754 25.282 25.166V22.1C24.904 21.512 24.092 21.008 23.252 21.008C21.894 21.008 21.082 22.128 21.082 23.626C21.082 25.124 21.894 26.23 23.252 26.23ZM31.4868 27.168C29.4848 27.168 28.0428 25.726 28.0428 23.612C28.0428 21.652 29.4428 20.07 31.3748 20.07C33.4188 20.07 34.6228 21.666 34.6228 23.696V23.962H29.1488C29.2328 25.236 30.1288 26.3 31.5848 26.3C32.3548 26.3 33.1388 25.992 33.6708 25.446L34.1748 26.132C33.5028 26.804 32.5928 27.168 31.4868 27.168ZM33.5868 23.192C33.5728 22.184 32.9008 20.938 31.3608 20.938C29.9188 20.938 29.2048 22.156 29.1488 23.192H33.5868ZM37.3734 25.166C37.7374 25.754 38.5634 26.23 39.3894 26.23C40.7614 26.23 41.5734 25.124 41.5734 23.626C41.5734 22.128 40.7614 21.008 39.3894 21.008C38.5634 21.008 37.7374 21.512 37.3734 22.1V25.166ZM37.3734 27H36.3234V17.662H37.3734V21.26C37.9194 20.518 38.7314 20.07 39.6554 20.07C41.4194 20.07 42.6654 21.47 42.6654 23.626C42.6654 25.824 41.4194 27.168 39.6554 27.168C38.7034 27.168 37.8774 26.678 37.3734 25.992V27ZM47.4282 27.168C45.4262 27.168 43.9842 25.726 43.9842 23.612C43.9842 21.652 45.3842 20.07 47.3162 20.07C49.3602 20.07 50.5642 21.666 50.5642 23.696V23.962H45.0902C45.1742 25.236 46.0702 26.3 47.5262 26.3C48.2962 26.3 49.0802 25.992 49.6122 25.446L50.1162 26.132C49.4442 26.804 48.5342 27.168 47.4282 27.168ZM49.5282 23.192C49.5142 22.184 48.8422 20.938 47.3022 20.938C45.8602 20.938 45.1462 22.156 45.0902 23.192H49.5282ZM58.0162 27.168C56.9102 27.168 55.9722 26.832 55.2862 26.104L55.8322 25.348C56.2802 25.866 57.1342 26.314 58.0582 26.314C59.0942 26.314 59.6542 25.824 59.6542 25.152C59.6542 23.514 55.4682 24.522 55.4682 22.016C55.4682 20.966 56.3782 20.07 57.9882 20.07C59.1362 20.07 59.9482 20.504 60.4942 21.05L60.0042 21.778C59.5982 21.288 58.8562 20.924 57.9882 20.924C57.0642 20.924 56.4902 21.386 56.4902 21.988C56.4902 23.472 60.6762 22.492 60.6762 25.124C60.6762 26.258 59.7662 27.168 58.0162 27.168ZM65.434 27.168C63.432 27.168 61.99 25.726 61.99 23.612C61.99 21.652 63.39 20.07 65.322 20.07C67.366 20.07 68.57 21.666 68.57 23.696V23.962H63.096C63.18 25.236 64.076 26.3 65.532 26.3C66.302 26.3 67.086 25.992 67.618 25.446L68.122 26.132C67.45 26.804 66.54 27.168 65.434 27.168ZM67.534 23.192C67.52 22.184 66.848 20.938 65.308 20.938C63.866 20.938 63.152 22.156 63.096 23.192H67.534ZM71.3207 27H70.2707V20.238H71.3207V21.33C71.8667 20.616 72.6507 20.098 73.5747 20.098V21.176C73.4487 21.148 73.3227 21.134 73.1547 21.134C72.5107 21.134 71.6287 21.666 71.3207 22.212V27ZM84.4512 27H83.4012V25.992C82.8972 26.678 82.0712 27.168 81.1192 27.168C79.3552 27.168 78.1092 25.824 78.1092 23.626C78.1092 21.47 79.3412 20.07 81.1192 20.07C82.0292 20.07 82.8552 20.518 83.4012 21.26V17.662H84.4512V27ZM81.3712 26.23C82.2112 26.23 83.0232 25.754 83.4012 25.166V22.1C83.0232 21.512 82.2112 21.008 81.3712 21.008C80.0132 21.008 79.2012 22.128 79.2012 23.626C79.2012 25.124 80.0132 26.23 81.3712 26.23ZM89.6059 27.168C87.6039 27.168 86.1619 25.726 86.1619 23.612C86.1619 21.652 87.5619 20.07 89.4939 20.07C91.5379 20.07 92.7419 21.666 92.7419 23.696V23.962H87.2679C87.3519 25.236 88.2479 26.3 89.7039 26.3C90.4739 26.3 91.2579 25.992 91.7899 25.446L92.2939 26.132C91.6219 26.804 90.7119 27.168 89.6059 27.168ZM91.7059 23.192C91.6919 22.184 91.0199 20.938 89.4799 20.938C88.0379 20.938 87.3239 22.156 87.2679 23.192H91.7059ZM103.655 27H102.605V22.408C102.605 21.554 102.227 21.008 101.359 21.008C100.659 21.008 99.9166 21.512 99.5666 22.044V27H98.5166V22.408C98.5166 21.554 98.1526 21.008 97.2706 21.008C96.5846 21.008 95.8566 21.512 95.4926 22.058V27H94.4426V20.238H95.4926V21.218C95.7726 20.784 96.6826 20.07 97.6766 20.07C98.7126 20.07 99.3006 20.63 99.4966 21.33C99.8746 20.714 100.785 20.07 101.765 20.07C102.997 20.07 103.655 20.756 103.655 22.114V27ZM111.027 27H109.977V26.23C109.417 26.846 108.647 27.168 107.737 27.168C106.589 27.168 105.371 26.398 105.371 24.928C105.371 23.416 106.589 22.702 107.737 22.702C108.661 22.702 109.431 22.996 109.977 23.626V22.408C109.977 21.498 109.249 20.98 108.269 20.98C107.457 20.98 106.799 21.274 106.197 21.918L105.707 21.19C106.435 20.434 107.303 20.07 108.409 20.07C109.837 20.07 111.027 20.714 111.027 22.352V27ZM108.115 26.412C108.857 26.412 109.571 26.132 109.977 25.572V24.298C109.571 23.738 108.857 23.458 108.115 23.458C107.135 23.458 106.449 24.074 106.449 24.942C106.449 25.796 107.135 26.412 108.115 26.412ZM115.274 27.168C114.168 27.168 113.23 26.832 112.544 26.104L113.09 25.348C113.538 25.866 114.392 26.314 115.316 26.314C116.352 26.314 116.912 25.824 116.912 25.152C116.912 23.514 112.726 24.522 112.726 22.016C112.726 20.966 113.636 20.07 115.246 20.07C116.394 20.07 117.206 20.504 117.752 21.05L117.262 21.778C116.856 21.288 116.114 20.924 115.246 20.924C114.322 20.924 113.748 21.386 113.748 21.988C113.748 23.472 117.934 22.492 117.934 25.124C117.934 26.258 117.024 27.168 115.274 27.168ZM120.158 19.272C119.78 19.272 119.458 18.964 119.458 18.572C119.458 18.18 119.78 17.858 120.158 17.858C120.55 17.858 120.872 18.18 120.872 18.572C120.872 18.964 120.55 19.272 120.158 19.272ZM120.69 27H119.64V20.238H120.69V27ZM128.062 27H127.012V26.23C126.452 26.846 125.682 27.168 124.772 27.168C123.624 27.168 122.406 26.398 122.406 24.928C122.406 23.416 123.624 22.702 124.772 22.702C125.696 22.702 126.466 22.996 127.012 23.626V22.408C127.012 21.498 126.284 20.98 125.304 20.98C124.492 20.98 123.834 21.274 123.232 21.918L122.742 21.19C123.47 20.434 124.338 20.07 125.444 20.07C126.872 20.07 128.062 20.714 128.062 22.352V27ZM125.15 26.412C125.892 26.412 126.606 26.132 127.012 25.572V24.298C126.606 23.738 125.892 23.458 125.15 23.458C124.17 23.458 123.484 24.074 123.484 24.942C123.484 25.796 124.17 26.412 125.15 26.412ZM136.117 27H135.067V25.992C134.563 26.678 133.737 27.168 132.785 27.168C131.021 27.168 129.775 25.824 129.775 23.626C129.775 21.47 131.007 20.07 132.785 20.07C133.695 20.07 134.521 20.518 135.067 21.26V17.662H136.117V27ZM133.037 26.23C133.877 26.23 134.689 25.754 135.067 25.166V22.1C134.689 21.512 133.877 21.008 133.037 21.008C131.679 21.008 130.867 22.128 130.867 23.626C130.867 25.124 131.679 26.23 133.037 26.23ZM141.174 27.168C139.116 27.168 137.828 25.572 137.828 23.612C137.828 21.652 139.116 20.07 141.174 20.07C143.232 20.07 144.52 21.652 144.52 23.612C144.52 25.572 143.232 27.168 141.174 27.168ZM141.174 26.23C142.616 26.23 143.414 24.998 143.414 23.612C143.414 22.24 142.616 21.008 141.174 21.008C139.732 21.008 138.92 22.24 138.92 23.612C138.92 24.998 139.732 26.23 141.174 26.23ZM150.891 25.166C151.255 25.754 152.081 26.23 152.907 26.23C154.279 26.23 155.091 25.124 155.091 23.626C155.091 22.128 154.279 21.008 152.907 21.008C152.081 21.008 151.255 21.512 150.891 22.1V25.166ZM150.891 27H149.841V17.662H150.891V21.26C151.437 20.518 152.249 20.07 153.173 20.07C154.937 20.07 156.183 21.47 156.183 23.626C156.183 25.824 154.937 27.168 153.173 27.168C152.221 27.168 151.395 26.678 150.891 25.992V27ZM158.944 27H157.894V20.238H158.944V21.33C159.49 20.616 160.274 20.098 161.198 20.098V21.176C161.072 21.148 160.946 21.134 160.778 21.134C160.134 21.134 159.252 21.666 158.944 22.212V27ZM163.033 19.272C162.655 19.272 162.333 18.964 162.333 18.572C162.333 18.18 162.655 17.858 163.033 17.858C163.425 17.858 163.747 18.18 163.747 18.572C163.747 18.964 163.425 19.272 163.033 19.272ZM163.565 27H162.515V20.238H163.565V27ZM166.709 27H165.659V17.662H166.709V27ZM169.854 27H168.804V17.662H169.854V27ZM177.226 27H176.176V26.23C175.616 26.846 174.846 27.168 173.936 27.168C172.788 27.168 171.57 26.398 171.57 24.928C171.57 23.416 172.788 22.702 173.936 22.702C174.86 22.702 175.63 22.996 176.176 23.626V22.408C176.176 21.498 175.448 20.98 174.468 20.98C173.656 20.98 172.998 21.274 172.396 21.918L171.906 21.19C172.634 20.434 173.502 20.07 174.608 20.07C176.036 20.07 177.226 20.714 177.226 22.352V27ZM174.314 26.412C175.056 26.412 175.77 26.132 176.176 25.572V24.298C175.77 23.738 175.056 23.458 174.314 23.458C173.334 23.458 172.648 24.074 172.648 24.942C172.648 25.796 173.334 26.412 174.314 26.412ZM184.945 27H183.895V22.576C183.895 21.386 183.293 21.008 182.383 21.008C181.557 21.008 180.773 21.512 180.381 22.058V27H179.331V20.238H180.381V21.218C180.857 20.658 181.781 20.07 182.789 20.07C184.203 20.07 184.945 20.784 184.945 22.254V27ZM188.75 27.168C187.756 27.168 187.252 26.594 187.252 25.586V21.162H186.132V20.238H187.252V18.39H188.302V20.238H189.674V21.162H188.302V25.362C188.302 25.866 188.526 26.23 188.988 26.23C189.282 26.23 189.562 26.104 189.702 25.95L190.01 26.734C189.744 26.986 189.366 27.168 188.75 27.168ZM194.209 27.168C192.207 27.168 190.765 25.726 190.765 23.612C190.765 21.652 192.165 20.07 194.097 20.07C196.141 20.07 197.345 21.666 197.345 23.696V23.962H191.871C191.955 25.236 192.851 26.3 194.307 26.3C195.077 26.3 195.861 25.992 196.393 25.446L196.897 26.132C196.225 26.804 195.315 27.168 194.209 27.168ZM196.309 23.192C196.295 22.184 195.623 20.938 194.083 20.938C192.641 20.938 191.927 22.156 191.871 23.192H196.309ZM205.609 27.168C203.551 27.168 202.263 25.572 202.263 23.612C202.263 21.652 203.551 20.07 205.609 20.07C207.667 20.07 208.955 21.652 208.955 23.612C208.955 25.572 207.667 27.168 205.609 27.168ZM205.609 26.23C207.051 26.23 207.849 24.998 207.849 23.612C207.849 22.24 207.051 21.008 205.609 21.008C204.167 21.008 203.355 22.24 203.355 23.612C203.355 24.998 204.167 26.23 205.609 26.23ZM220.227 27H219.177V25.992C218.673 26.678 217.847 27.168 216.895 27.168C215.131 27.168 213.885 25.824 213.885 23.626C213.885 21.47 215.117 20.07 216.895 20.07C217.805 20.07 218.631 20.518 219.177 21.26V17.662H220.227V27ZM217.147 26.23C217.987 26.23 218.799 25.754 219.177 25.166V22.1C218.799 21.512 217.987 21.008 217.147 21.008C215.789 21.008 214.977 22.128 214.977 23.626C214.977 25.124 215.789 26.23 217.147 26.23ZM225.381 27.168C223.379 27.168 221.937 25.726 221.937 23.612C221.937 21.652 223.337 20.07 225.269 20.07C227.313 20.07 228.517 21.666 228.517 23.696V23.962H223.043C223.127 25.236 224.023 26.3 225.479 26.3C226.249 26.3 227.033 25.992 227.565 25.446L228.069 26.132C227.397 26.804 226.487 27.168 225.381 27.168ZM227.481 23.192C227.467 22.184 226.795 20.938 225.255 20.938C223.813 20.938 223.099 22.156 223.043 23.192H227.481ZM239.43 27H238.38V22.408C238.38 21.554 238.002 21.008 237.134 21.008C236.434 21.008 235.692 21.512 235.342 22.044V27H234.292V22.408C234.292 21.554 233.928 21.008 233.046 21.008C232.36 21.008 231.632 21.512 231.268 22.058V27H230.218V20.238H231.268V21.218C231.548 20.784 232.458 20.07 233.452 20.07C234.488 20.07 235.076 20.63 235.272 21.33C235.65 20.714 236.56 20.07 237.54 20.07C238.772 20.07 239.43 20.756 239.43 22.114V27ZM246.803 27H245.753V26.23C245.193 26.846 244.423 27.168 243.513 27.168C242.365 27.168 241.147 26.398 241.147 24.928C241.147 23.416 242.365 22.702 243.513 22.702C244.437 22.702 245.207 22.996 245.753 23.626V22.408C245.753 21.498 245.025 20.98 244.045 20.98C243.233 20.98 242.575 21.274 241.973 21.918L241.483 21.19C242.211 20.434 243.079 20.07 244.185 20.07C245.613 20.07 246.803 20.714 246.803 22.352V27ZM243.891 26.412C244.633 26.412 245.347 26.132 245.753 25.572V24.298C245.347 23.738 244.633 23.458 243.891 23.458C242.911 23.458 242.225 24.074 242.225 24.942C242.225 25.796 242.911 26.412 243.891 26.412ZM251.049 27.168C249.943 27.168 249.005 26.832 248.319 26.104L248.865 25.348C249.313 25.866 250.167 26.314 251.091 26.314C252.127 26.314 252.687 25.824 252.687 25.152C252.687 23.514 248.501 24.522 248.501 22.016C248.501 20.966 249.411 20.07 251.021 20.07C252.169 20.07 252.981 20.504 253.527 21.05L253.037 21.778C252.631 21.288 251.889 20.924 251.021 20.924C250.097 20.924 249.523 21.386 249.523 21.988C249.523 23.472 253.709 22.492 253.709 25.124C253.709 26.258 252.799 27.168 251.049 27.168ZM255.933 19.272C255.555 19.272 255.233 18.964 255.233 18.572C255.233 18.18 255.555 17.858 255.933 17.858C256.325 17.858 256.647 18.18 256.647 18.572C256.647 18.964 256.325 19.272 255.933 19.272ZM256.465 27H255.415V20.238H256.465V27ZM263.838 27H262.788V26.23C262.228 26.846 261.458 27.168 260.548 27.168C259.4 27.168 258.182 26.398 258.182 24.928C258.182 23.416 259.4 22.702 260.548 22.702C261.472 22.702 262.242 22.996 262.788 23.626V22.408C262.788 21.498 262.06 20.98 261.08 20.98C260.268 20.98 259.61 21.274 259.008 21.918L258.518 21.19C259.246 20.434 260.114 20.07 261.22 20.07C262.648 20.07 263.838 20.714 263.838 22.352V27ZM260.926 26.412C261.668 26.412 262.382 26.132 262.788 25.572V24.298C262.382 23.738 261.668 23.458 260.926 23.458C259.946 23.458 259.26 24.074 259.26 24.942C259.26 25.796 259.946 26.412 260.926 26.412ZM271.893 27H270.843V25.992C270.339 26.678 269.513 27.168 268.561 27.168C266.797 27.168 265.551 25.824 265.551 23.626C265.551 21.47 266.783 20.07 268.561 20.07C269.471 20.07 270.297 20.518 270.843 21.26V17.662H271.893V27ZM268.813 26.23C269.653 26.23 270.465 25.754 270.843 25.166V22.1C270.465 21.512 269.653 21.008 268.813 21.008C267.455 21.008 266.643 22.128 266.643 23.626C266.643 25.124 267.455 26.23 268.813 26.23ZM276.949 27.168C274.891 27.168 273.603 25.572 273.603 23.612C273.603 21.652 274.891 20.07 276.949 20.07C279.007 20.07 280.295 21.652 280.295 23.612C280.295 25.572 279.007 27.168 276.949 27.168ZM276.949 26.23C278.391 26.23 279.189 24.998 279.189 23.612C279.189 22.24 278.391 21.008 276.949 21.008C275.507 21.008 274.695 22.24 274.695 23.612C274.695 24.998 275.507 26.23 276.949 26.23ZM4.004 44.168C1.946 44.168 0.658 42.572 0.658 40.612C0.658 38.652 1.946 37.07 4.004 37.07C6.062 37.07 7.35 38.652 7.35 40.612C7.35 42.572 6.062 44.168 4.004 44.168ZM4.004 43.23C5.446 43.23 6.244 41.998 6.244 40.612C6.244 39.24 5.446 38.008 4.004 38.008C2.562 38.008 1.75 39.24 1.75 40.612C1.75 41.998 2.562 43.23 4.004 43.23ZM11.2037 44.168C10.0977 44.168 9.15972 43.832 8.47372 43.104L9.01972 42.348C9.46772 42.866 10.3217 43.314 11.2457 43.314C12.2817 43.314 12.8417 42.824 12.8417 42.152C12.8417 40.514 8.65572 41.522 8.65572 39.016C8.65572 37.966 9.56572 37.07 11.1757 37.07C12.3237 37.07 13.1357 37.504 13.6817 38.05L13.1917 38.778C12.7857 38.288 12.0437 37.924 11.1757 37.924C10.2517 37.924 9.67772 38.386 9.67772 38.988C9.67772 40.472 13.8637 39.492 13.8637 42.124C13.8637 43.258 12.9537 44.168 11.2037 44.168ZM18.5515 44.168C16.5355 44.168 15.1775 42.628 15.1775 40.612C15.1775 38.61 16.5355 37.07 18.5515 37.07C19.7835 37.07 20.5115 37.574 21.0295 38.246L20.3295 38.89C19.8815 38.274 19.3075 38.008 18.6075 38.008C17.1655 38.008 16.2695 39.114 16.2695 40.612C16.2695 42.11 17.1655 43.23 18.6075 43.23C19.3075 43.23 19.8815 42.95 20.3295 42.348L21.0295 42.992C20.5115 43.664 19.7835 44.168 18.5515 44.168ZM28.1152 44H27.0652V43.048C26.5472 43.636 25.6652 44.168 24.6572 44.168C23.2432 44.168 22.5012 43.482 22.5012 42.012V37.238H23.5512V41.69C23.5512 42.88 24.1532 43.23 25.0632 43.23C25.8892 43.23 26.6732 42.754 27.0652 42.208V37.238H28.1152V44ZM31.2621 44H30.2121V37.238H31.2621V38.33C31.8081 37.616 32.5921 37.098 33.5161 37.098V38.176C33.3901 38.148 33.2641 38.134 33.0961 38.134C32.4521 38.134 31.5701 38.666 31.2621 39.212V44ZM40.1112 44H39.0612V43.23C38.5012 43.846 37.7312 44.168 36.8212 44.168C35.6732 44.168 34.4552 43.398 34.4552 41.928C34.4552 40.416 35.6732 39.702 36.8212 39.702C37.7452 39.702 38.5152 39.996 39.0612 40.626V39.408C39.0612 38.498 38.3332 37.98 37.3532 37.98C36.5412 37.98 35.8832 38.274 35.2812 38.918L34.7912 38.19C35.5192 37.434 36.3872 37.07 37.4932 37.07C38.9212 37.07 40.1112 37.714 40.1112 39.352V44ZM37.1992 43.412C37.9412 43.412 38.6552 43.132 39.0612 42.572V41.298C38.6552 40.738 37.9412 40.458 37.1992 40.458C36.2192 40.458 35.5332 41.074 35.5332 41.942C35.5332 42.796 36.2192 43.412 37.1992 43.412ZM43.63 43.664C43.63 44.518 43.126 45.316 42.482 45.778L41.964 45.344C42.412 45.05 42.818 44.504 42.874 44.042C42.846 44.056 42.748 44.07 42.678 44.07C42.286 44.07 42.006 43.776 42.006 43.356C42.006 42.95 42.328 42.6 42.748 42.6C43.21 42.6 43.63 42.992 43.63 43.664ZM52.006 44.168C49.948 44.168 48.66 42.572 48.66 40.612C48.66 38.652 49.948 37.07 52.006 37.07C54.064 37.07 55.352 38.652 55.352 40.612C55.352 42.572 54.064 44.168 52.006 44.168ZM52.006 43.23C53.448 43.23 54.246 41.998 54.246 40.612C54.246 39.24 53.448 38.008 52.006 38.008C50.564 38.008 49.752 39.24 49.752 40.612C49.752 41.998 50.564 43.23 52.006 43.23ZM62.815 44.168C61.709 44.168 60.771 43.832 60.085 43.104L60.631 42.348C61.079 42.866 61.933 43.314 62.857 43.314C63.893 43.314 64.453 42.824 64.453 42.152C64.453 40.514 60.267 41.522 60.267 39.016C60.267 37.966 61.177 37.07 62.787 37.07C63.935 37.07 64.747 37.504 65.293 38.05L64.803 38.778C64.397 38.288 63.655 37.924 62.787 37.924C61.863 37.924 61.289 38.386 61.289 38.988C61.289 40.472 65.475 39.492 65.475 42.124C65.475 43.258 64.565 44.168 62.815 44.168ZM67.6989 36.272C67.3209 36.272 66.9989 35.964 66.9989 35.572C66.9989 35.18 67.3209 34.858 67.6989 34.858C68.0909 34.858 68.4129 35.18 68.4129 35.572C68.4129 35.964 68.0909 36.272 67.6989 36.272ZM68.2309 44H67.1809V37.238H68.2309V44ZM79.5488 44H78.4988V39.576C78.4988 38.386 77.8968 38.008 76.9868 38.008C76.1608 38.008 75.3768 38.512 74.9848 39.058V44H73.9348V37.238H74.9848V38.218C75.4608 37.658 76.3848 37.07 77.3928 37.07C78.8068 37.07 79.5488 37.784 79.5488 39.254V44ZM84.5997 44.168C82.5417 44.168 81.2537 42.572 81.2537 40.612C81.2537 38.652 82.5417 37.07 84.5997 37.07C86.6577 37.07 87.9457 38.652 87.9457 40.612C87.9457 42.572 86.6577 44.168 84.5997 44.168ZM84.5997 43.23C86.0417 43.23 86.8397 41.998 86.8397 40.612C86.8397 39.24 86.0417 38.008 84.5997 38.008C83.1577 38.008 82.3457 39.24 82.3457 40.612C82.3457 41.998 83.1577 43.23 84.5997 43.23ZM96.3188 44.168C94.3168 44.168 92.8748 42.726 92.8748 40.612C92.8748 38.652 94.2748 37.07 96.2068 37.07C98.2508 37.07 99.4548 38.666 99.4548 40.696V40.962H93.9808C94.0648 42.236 94.9608 43.3 96.4168 43.3C97.1868 43.3 97.9708 42.992 98.5028 42.446L99.0068 43.132C98.3348 43.804 97.4248 44.168 96.3188 44.168ZM98.4188 40.192C98.4048 39.184 97.7328 37.938 96.1928 37.938C94.7508 37.938 94.0368 39.156 93.9808 40.192H98.4188ZM103.297 44.168C102.191 44.168 101.253 43.832 100.567 43.104L101.113 42.348C101.561 42.866 102.415 43.314 103.339 43.314C104.375 43.314 104.935 42.824 104.935 42.152C104.935 40.514 100.749 41.522 100.749 39.016C100.749 37.966 101.659 37.07 103.269 37.07C104.417 37.07 105.229 37.504 105.775 38.05L105.285 38.778C104.879 38.288 104.137 37.924 103.269 37.924C102.345 37.924 101.771 38.386 101.771 38.988C101.771 40.472 105.957 39.492 105.957 42.124C105.957 43.258 105.047 44.168 103.297 44.168ZM116.887 44H115.837V43.048C115.319 43.636 114.437 44.168 113.429 44.168C112.015 44.168 111.273 43.482 111.273 42.012V37.238H112.323V41.69C112.323 42.88 112.925 43.23 113.835 43.23C114.661 43.23 115.445 42.754 115.837 42.208V37.238H116.887V44ZM124.598 44H123.548V39.576C123.548 38.386 122.946 38.008 122.036 38.008C121.21 38.008 120.426 38.512 120.034 39.058V44H118.984V37.238H120.034V38.218C120.51 37.658 121.434 37.07 122.442 37.07C123.856 37.07 124.598 37.784 124.598 39.254V44ZM127.213 36.272C126.835 36.272 126.513 35.964 126.513 35.572C126.513 35.18 126.835 34.858 127.213 34.858C127.605 34.858 127.927 35.18 127.927 35.572C127.927 35.964 127.605 36.272 127.213 36.272ZM127.745 44H126.695V37.238H127.745V44ZM131.183 44H130.133V38.162H129.013V37.238H130.133V36.72C130.133 35.334 130.889 34.522 132.093 34.522C132.625 34.522 133.101 34.648 133.521 35.04L133.087 35.726C132.863 35.53 132.597 35.39 132.247 35.39C131.561 35.39 131.183 35.866 131.183 36.72V37.238H132.555V38.162H131.183V44ZM136.758 44.168C134.7 44.168 133.412 42.572 133.412 40.612C133.412 38.652 134.7 37.07 136.758 37.07C138.816 37.07 140.104 38.652 140.104 40.612C140.104 42.572 138.816 44.168 136.758 44.168ZM136.758 43.23C138.2 43.23 138.998 41.998 138.998 40.612C138.998 39.24 138.2 38.008 136.758 38.008C135.316 38.008 134.504 39.24 134.504 40.612C134.504 41.998 135.316 43.23 136.758 43.23ZM142.866 44H141.816V37.238H142.866V38.33C143.412 37.616 144.196 37.098 145.12 37.098V38.176C144.994 38.148 144.868 38.134 144.7 38.134C144.056 38.134 143.174 38.666 142.866 39.212V44ZM155.649 44H154.599V39.408C154.599 38.554 154.221 38.008 153.353 38.008C152.653 38.008 151.911 38.512 151.561 39.044V44H150.511V39.408C150.511 38.554 150.147 38.008 149.265 38.008C148.579 38.008 147.851 38.512 147.487 39.058V44H146.437V37.238H147.487V38.218C147.767 37.784 148.677 37.07 149.671 37.07C150.707 37.07 151.295 37.63 151.491 38.33C151.869 37.714 152.779 37.07 153.759 37.07C154.991 37.07 155.649 37.756 155.649 39.114V44ZM160.795 44.168C158.793 44.168 157.351 42.726 157.351 40.612C157.351 38.652 158.751 37.07 160.683 37.07C162.727 37.07 163.931 38.666 163.931 40.696V40.962H158.457C158.541 42.236 159.437 43.3 160.893 43.3C161.663 43.3 162.447 42.992 162.979 42.446L163.483 43.132C162.811 43.804 161.901 44.168 160.795 44.168ZM162.895 40.192C162.881 39.184 162.209 37.938 160.669 37.938C159.227 37.938 158.513 39.156 158.457 40.192H162.895ZM172.293 44.168C170.291 44.168 168.849 42.726 168.849 40.612C168.849 38.652 170.249 37.07 172.181 37.07C174.225 37.07 175.429 38.666 175.429 40.696V40.962H169.955C170.039 42.236 170.935 43.3 172.391 43.3C173.161 43.3 173.945 42.992 174.477 42.446L174.981 43.132C174.309 43.804 173.399 44.168 172.293 44.168ZM174.393 40.192C174.379 39.184 173.707 37.938 172.167 37.938C170.725 37.938 170.011 39.156 169.955 40.192H174.393ZM182.744 44H181.694V39.576C181.694 38.386 181.092 38.008 180.182 38.008C179.356 38.008 178.572 38.512 178.18 39.058V44H177.13V37.238H178.18V38.218C178.656 37.658 179.58 37.07 180.588 37.07C182.002 37.07 182.744 37.784 182.744 39.254V44ZM189.5 44H188.45V34.662H189.5V44ZM196.873 44H195.823V43.23C195.263 43.846 194.493 44.168 193.583 44.168C192.435 44.168 191.217 43.398 191.217 41.928C191.217 40.416 192.435 39.702 193.583 39.702C194.507 39.702 195.277 39.996 195.823 40.626V39.408C195.823 38.498 195.095 37.98 194.115 37.98C193.303 37.98 192.645 38.274 192.043 38.918L191.553 38.19C192.281 37.434 193.149 37.07 194.255 37.07C195.683 37.07 196.873 37.714 196.873 39.352V44ZM193.961 43.412C194.703 43.412 195.417 43.132 195.823 42.572V41.298C195.417 40.738 194.703 40.458 193.961 40.458C192.981 40.458 192.295 41.074 192.295 41.942C192.295 42.796 192.981 43.412 193.961 43.412ZM205.569 44.168C203.553 44.168 202.195 42.628 202.195 40.612C202.195 38.61 203.553 37.07 205.569 37.07C206.801 37.07 207.529 37.574 208.047 38.246L207.347 38.89C206.899 38.274 206.325 38.008 205.625 38.008C204.183 38.008 203.287 39.114 203.287 40.612C203.287 42.11 204.183 43.23 205.625 43.23C206.325 43.23 206.899 42.95 207.347 42.348L208.047 42.992C207.529 43.664 206.801 44.168 205.569 44.168ZM214.797 44H213.747V43.23C213.187 43.846 212.417 44.168 211.507 44.168C210.359 44.168 209.141 43.398 209.141 41.928C209.141 40.416 210.359 39.702 211.507 39.702C212.431 39.702 213.201 39.996 213.747 40.626V39.408C213.747 38.498 213.019 37.98 212.039 37.98C211.227 37.98 210.569 38.274 209.967 38.918L209.477 38.19C210.205 37.434 211.073 37.07 212.179 37.07C213.607 37.07 214.797 37.714 214.797 39.352V44ZM211.885 43.412C212.627 43.412 213.341 43.132 213.747 42.572V41.298C213.341 40.738 212.627 40.458 211.885 40.458C210.905 40.458 210.219 41.074 210.219 41.942C210.219 42.796 210.905 43.412 211.885 43.412ZM217.952 44H216.902V37.238H217.952V38.33C218.498 37.616 219.282 37.098 220.206 37.098V38.176C220.08 38.148 219.954 38.134 219.786 38.134C219.142 38.134 218.26 38.666 217.952 39.212V44ZM226.801 44H225.751V43.23C225.191 43.846 224.421 44.168 223.511 44.168C222.363 44.168 221.145 43.398 221.145 41.928C221.145 40.416 222.363 39.702 223.511 39.702C224.435 39.702 225.205 39.996 225.751 40.626V39.408C225.751 38.498 225.023 37.98 224.043 37.98C223.231 37.98 222.573 38.274 221.971 38.918L221.481 38.19C222.209 37.434 223.077 37.07 224.183 37.07C225.611 37.07 226.801 37.714 226.801 39.352V44ZM223.889 43.412C224.631 43.412 225.345 43.132 225.751 42.572V41.298C225.345 40.738 224.631 40.458 223.889 40.458C222.909 40.458 222.223 41.074 222.223 41.942C222.223 42.796 222.909 43.412 223.889 43.412ZM229.465 44.14C229.045 44.14 228.695 43.79 228.695 43.37C228.695 42.95 229.045 42.6 229.465 42.6C229.885 42.6 230.235 42.95 230.235 43.37C230.235 43.79 229.885 44.14 229.465 44.14ZM236.945 44H235.783V34.662H236.945V44ZM244.705 44H243.655V39.576C243.655 38.386 243.053 38.008 242.143 38.008C241.317 38.008 240.533 38.512 240.141 39.058V44H239.091V37.238H240.141V38.218C240.617 37.658 241.541 37.07 242.549 37.07C243.963 37.07 244.705 37.784 244.705 39.254V44ZM248.51 44.168C247.516 44.168 247.012 43.594 247.012 42.586V38.162H245.892V37.238H247.012V35.39H248.062V37.238H249.434V38.162H248.062V42.362C248.062 42.866 248.286 43.23 248.748 43.23C249.042 43.23 249.322 43.104 249.462 42.95L249.77 43.734C249.504 43.986 249.126 44.168 248.51 44.168ZM253.969 44.168C251.967 44.168 250.525 42.726 250.525 40.612C250.525 38.652 251.925 37.07 253.857 37.07C255.901 37.07 257.105 38.666 257.105 40.696V40.962H251.631C251.715 42.236 252.611 43.3 254.067 43.3C254.837 43.3 255.621 42.992 256.153 42.446L256.657 43.132C255.985 43.804 255.075 44.168 253.969 44.168ZM256.069 40.192C256.055 39.184 255.383 37.938 253.843 37.938C252.401 37.938 251.687 39.156 251.631 40.192H256.069ZM264.42 44H263.37V39.576C263.37 38.386 262.768 38.008 261.858 38.008C261.032 38.008 260.248 38.512 259.856 39.058V44H258.806V37.238H259.856V38.218C260.332 37.658 261.256 37.07 262.264 37.07C263.678 37.07 264.42 37.784 264.42 39.254V44ZM268.225 44.168C267.231 44.168 266.727 43.594 266.727 42.586V38.162H265.607V37.238H266.727V35.39H267.777V37.238H269.149V38.162H267.777V42.362C267.777 42.866 268.001 43.23 268.463 43.23C268.757 43.23 269.037 43.104 269.177 42.95L269.485 43.734C269.219 43.986 268.841 44.168 268.225 44.168ZM275.91 44H274.86V43.23C274.3 43.846 273.53 44.168 272.62 44.168C271.472 44.168 270.254 43.398 270.254 41.928C270.254 40.416 271.472 39.702 272.62 39.702C273.544 39.702 274.314 39.996 274.86 40.626V39.408C274.86 38.498 274.132 37.98 273.152 37.98C272.34 37.98 271.682 38.274 271.08 38.918L270.59 38.19C271.318 37.434 272.186 37.07 273.292 37.07C274.72 37.07 275.91 37.714 275.91 39.352V44ZM272.998 43.412C273.74 43.412 274.454 43.132 274.86 42.572V41.298C274.454 40.738 273.74 40.458 272.998 40.458C272.018 40.458 271.332 41.074 271.332 41.942C271.332 42.796 272.018 43.412 272.998 43.412ZM284.676 44.168C282.674 44.168 281.232 42.726 281.232 40.612C281.232 38.652 282.632 37.07 284.564 37.07C286.608 37.07 287.812 38.666 287.812 40.696V40.962H282.338C282.422 42.236 283.318 43.3 284.774 43.3C285.544 43.3 286.328 42.992 286.86 42.446L287.364 43.132C286.692 43.804 285.782 44.168 284.676 44.168ZM286.776 40.192C286.762 39.184 286.09 37.938 284.55 37.938C283.108 37.938 282.394 39.156 282.338 40.192H286.776ZM292.467 44H291.319L288.505 37.238H289.639L291.893 42.782L294.133 37.238H295.281L292.467 44ZM296.894 36.272C296.516 36.272 296.194 35.964 296.194 35.572C296.194 35.18 296.516 34.858 296.894 34.858C297.286 34.858 297.608 35.18 297.608 35.572C297.608 35.964 297.286 36.272 296.894 36.272ZM297.426 44H296.376V37.238H297.426V44ZM301.229 44.168C300.235 44.168 299.731 43.594 299.731 42.586V38.162H298.611V37.238H299.731V35.39H300.781V37.238H302.153V38.162H300.781V42.362C300.781 42.866 301.005 43.23 301.467 43.23C301.761 43.23 302.041 43.104 302.181 42.95L302.489 43.734C302.223 43.986 301.845 44.168 301.229 44.168ZM308.914 44H307.864V43.23C307.304 43.846 306.534 44.168 305.624 44.168C304.476 44.168 303.258 43.398 303.258 41.928C303.258 40.416 304.476 39.702 305.624 39.702C306.548 39.702 307.318 39.996 307.864 40.626V39.408C307.864 38.498 307.136 37.98 306.156 37.98C305.344 37.98 304.686 38.274 304.084 38.918L303.594 38.19C304.322 37.434 305.19 37.07 306.296 37.07C307.724 37.07 308.914 37.714 308.914 39.352V44ZM306.002 43.412C306.744 43.412 307.458 43.132 307.864 42.572V41.298C307.458 40.738 306.744 40.458 306.002 40.458C305.022 40.458 304.336 41.074 304.336 41.942C304.336 42.796 305.022 43.412 306.002 43.412ZM312.069 44H311.019V37.238H312.069V38.33C312.615 37.616 313.399 37.098 314.323 37.098V38.176C314.197 38.148 314.071 38.134 313.903 38.134C313.259 38.134 312.377 38.666 312.069 39.212V44ZM2.1 61H1.05V51.662H2.1V61ZM9.47253 61H8.42253V60.23C7.86253 60.846 7.09253 61.168 6.18253 61.168C5.03453 61.168 3.81653 60.398 3.81653 58.928C3.81653 57.416 5.03453 56.702 6.18253 56.702C7.10653 56.702 7.87653 56.996 8.42253 57.626V56.408C8.42253 55.498 7.69453 54.98 6.71453 54.98C5.90253 54.98 5.24453 55.274 4.64253 55.918L4.15253 55.19C4.88053 54.434 5.74853 54.07 6.85453 54.07C8.28253 54.07 9.47253 54.714 9.47253 56.352V61ZM6.56053 60.412C7.30253 60.412 8.01653 60.132 8.42253 59.572V58.298C8.01653 57.738 7.30253 57.458 6.56053 57.458C5.58053 57.458 4.89453 58.074 4.89453 58.942C4.89453 59.796 5.58053 60.412 6.56053 60.412ZM16.2367 61H15.1867V51.662H16.2367V61ZM23.9453 61H22.8953V60.048C22.3773 60.636 21.4953 61.168 20.4873 61.168C19.0733 61.168 18.3313 60.482 18.3313 59.012V54.238H19.3813V58.69C19.3813 59.88 19.9833 60.23 20.8933 60.23C21.7193 60.23 22.5033 59.754 22.8953 59.208V54.238H23.9453V61ZM30.8722 61H25.7202V60.188L29.4442 55.162H25.7202V54.238H30.8162V55.036L27.0642 60.09H30.8722V61ZM42.2051 61H41.1551V59.992C40.6511 60.678 39.8251 61.168 38.8731 61.168C37.1091 61.168 35.8631 59.824 35.8631 57.626C35.8631 55.47 37.0951 54.07 38.8731 54.07C39.7831 54.07 40.6091 54.518 41.1551 55.26V51.662H42.2051V61ZM39.1251 60.23C39.9651 60.23 40.7771 59.754 41.1551 59.166V56.1C40.7771 55.512 39.9651 55.008 39.1251 55.008C37.7671 55.008 36.9551 56.128 36.9551 57.626C36.9551 59.124 37.7671 60.23 39.1251 60.23ZM47.3598 61.168C45.3578 61.168 43.9158 59.726 43.9158 57.612C43.9158 55.652 45.3158 54.07 47.2478 54.07C49.2918 54.07 50.4958 55.666 50.4958 57.696V57.962H45.0218C45.1058 59.236 46.0018 60.3 47.4578 60.3C48.2278 60.3 49.0118 59.992 49.5438 59.446L50.0478 60.132C49.3758 60.804 48.4658 61.168 47.3598 61.168ZM49.4598 57.192C49.4458 56.184 48.7738 54.938 47.2338 54.938C45.7918 54.938 45.0778 56.156 45.0218 57.192H49.4598ZM57.1499 61H56.0999V55.162H54.9799V54.238H56.0999V53.72C56.0999 52.334 56.8559 51.522 58.0599 51.522C58.5919 51.522 59.0679 51.648 59.4879 52.04L59.0539 52.726C58.8299 52.53 58.5639 52.39 58.2139 52.39C57.5279 52.39 57.1499 52.866 57.1499 53.72V54.238H58.5219V55.162H57.1499V61ZM62.7247 61.168C60.6667 61.168 59.3787 59.572 59.3787 57.612C59.3787 55.652 60.6667 54.07 62.7247 54.07C64.7827 54.07 66.0707 55.652 66.0707 57.612C66.0707 59.572 64.7827 61.168 62.7247 61.168ZM62.7247 60.23C64.1667 60.23 64.9647 58.998 64.9647 57.612C64.9647 56.24 64.1667 55.008 62.7247 55.008C61.2827 55.008 60.4707 56.24 60.4707 57.612C60.4707 58.998 61.2827 60.23 62.7247 60.23ZM73.3964 61H72.3464V56.576C72.3464 55.386 71.7444 55.008 70.8344 55.008C70.0084 55.008 69.2244 55.512 68.8324 56.058V61H67.7824V54.238H68.8324V55.218C69.3084 54.658 70.2324 54.07 71.2404 54.07C72.6544 54.07 73.3964 54.784 73.3964 56.254V61ZM81.4434 61H80.3934V59.992C79.8894 60.678 79.0634 61.168 78.1114 61.168C76.3474 61.168 75.1014 59.824 75.1014 57.626C75.1014 55.47 76.3334 54.07 78.1114 54.07C79.0214 54.07 79.8474 54.518 80.3934 55.26V51.662H81.4434V61ZM78.3634 60.23C79.2034 60.23 80.0154 59.754 80.3934 59.166V56.1C80.0154 55.512 79.2034 55.008 78.3634 55.008C77.0054 55.008 76.1934 56.128 76.1934 57.626C76.1934 59.124 77.0054 60.23 78.3634 60.23ZM86.5001 61.168C84.4421 61.168 83.1541 59.572 83.1541 57.612C83.1541 55.652 84.4421 54.07 86.5001 54.07C88.5581 54.07 89.8461 55.652 89.8461 57.612C89.8461 59.572 88.5581 61.168 86.5001 61.168ZM86.5001 60.23C87.9421 60.23 88.7401 58.998 88.7401 57.612C88.7401 56.24 87.9421 55.008 86.5001 55.008C85.0581 55.008 84.2461 56.24 84.2461 57.612C84.2461 58.998 85.0581 60.23 86.5001 60.23ZM92.0221 61.14C91.6021 61.14 91.2521 60.79 91.2521 60.37C91.2521 59.95 91.6021 59.6 92.0221 59.6C92.4421 59.6 92.7921 59.95 92.7921 60.37C92.7921 60.79 92.4421 61.14 92.0221 61.14Z" fill="#212121"/>
</svg>
