<svg width="314" height="79" viewBox="0 0 314 79" fill="none" xmlns="http://www.w3.org/2000/svg">
<path d="M6.594 10H1.092V0.661999H2.254V8.964H6.594V10ZM13.2733 10H12.2233V9.23C11.6633 9.846 10.8933 10.168 9.98331 10.168C8.83531 10.168 7.61731 9.398 7.61731 7.928C7.61731 6.416 8.83531 5.702 9.98331 5.702C10.9073 5.702 11.6773 5.996 12.2233 6.626V5.408C12.2233 4.498 11.4953 3.98 10.5153 3.98C9.70331 3.98 9.04531 4.274 8.44331 4.918L7.95331 4.19C8.68131 3.434 9.54931 3.07 10.6553 3.07C12.0833 3.07 13.2733 3.714 13.2733 5.352V10ZM10.3613 9.412C11.1033 9.412 11.8173 9.132 12.2233 8.572V7.298C11.8173 6.738 11.1033 6.458 10.3613 6.458C9.38131 6.458 8.69531 7.074 8.69531 7.942C8.69531 8.796 9.38131 9.412 10.3613 9.412ZM28.1995 10H27.1495V5.408C27.1495 4.554 26.7715 4.008 25.9035 4.008C25.2035 4.008 24.4615 4.512 24.1115 5.044V10H23.0615V5.408C23.0615 4.554 22.6975 4.008 21.8155 4.008C21.1295 4.008 20.4015 4.512 20.0375 5.058V10H18.9875V3.238H20.0375V4.218C20.3175 3.784 21.2275 3.07 22.2215 3.07C23.2575 3.07 23.8455 3.63 24.0415 4.33C24.4195 3.714 25.3295 3.07 26.3095 3.07C27.5415 3.07 28.1995 3.756 28.1995 5.114V10ZM33.3461 10.168C31.3441 10.168 29.9021 8.726 29.9021 6.612C29.9021 4.652 31.3021 3.07 33.2341 3.07C35.2781 3.07 36.4821 4.666 36.4821 6.696V6.962H31.0081C31.0921 8.236 31.9881 9.3 33.4441 9.3C34.2141 9.3 34.9981 8.992 35.5301 8.446L36.0341 9.132C35.3621 9.804 34.4521 10.168 33.3461 10.168ZM35.4461 6.192C35.4321 5.184 34.7601 3.938 33.2201 3.938C31.7781 3.938 31.0641 5.156 31.0081 6.192H35.4461ZM44.1328 10H43.0828V8.992C42.5788 9.678 41.7528 10.168 40.8008 10.168C39.0368 10.168 37.7908 8.824 37.7908 6.626C37.7908 4.47 39.0228 3.07 40.8008 3.07C41.7108 3.07 42.5368 3.518 43.0828 4.26V0.661999H44.1328V10ZM41.0528 9.23C41.8928 9.23 42.7048 8.754 43.0828 8.166V5.1C42.7048 4.512 41.8928 4.008 41.0528 4.008C39.6948 4.008 38.8828 5.128 38.8828 6.626C38.8828 8.124 39.6948 9.23 41.0528 9.23ZM46.7535 2.272C46.3755 2.272 46.0535 1.964 46.0535 1.572C46.0535 1.18 46.3755 0.857999 46.7535 0.857999C47.1455 0.857999 47.4675 1.18 47.4675 1.572C47.4675 1.964 47.1455 2.272 46.7535 2.272ZM47.2855 10H46.2355V3.238H47.2855V10ZM52.3621 10.168C50.3461 10.168 48.9881 8.628 48.9881 6.612C48.9881 4.61 50.3461 3.07 52.3621 3.07C53.5941 3.07 54.3221 3.574 54.8401 4.246L54.1401 4.89C53.6921 4.274 53.1181 4.008 52.4181 4.008C50.9761 4.008 50.0801 5.114 50.0801 6.612C50.0801 8.11 50.9761 9.23 52.4181 9.23C53.1181 9.23 53.6921 8.95 54.1401 8.348L54.8401 8.992C54.3221 9.664 53.5941 10.168 52.3621 10.168ZM56.8297 2.272C56.4517 2.272 56.1297 1.964 56.1297 1.572C56.1297 1.18 56.4517 0.857999 56.8297 0.857999C57.2217 0.857999 57.5437 1.18 57.5437 1.572C57.5437 1.964 57.2217 2.272 56.8297 2.272ZM57.3617 10H56.3117V3.238H57.3617V10ZM64.7763 0.199999L62.4103 2.216H61.6123L63.6843 0.199999H64.7763ZM62.4103 10.168C60.3523 10.168 59.0643 8.572 59.0643 6.612C59.0643 4.652 60.3523 3.07 62.4103 3.07C64.4683 3.07 65.7563 4.652 65.7563 6.612C65.7563 8.572 64.4683 10.168 62.4103 10.168ZM62.4103 9.23C63.8523 9.23 64.6503 7.998 64.6503 6.612C64.6503 5.24 63.8523 4.008 62.4103 4.008C60.9683 4.008 60.1562 5.24 60.1562 6.612C60.1562 7.998 60.9683 9.23 62.4103 9.23ZM73.082 10H72.032V5.576C72.032 4.386 71.43 4.008 70.52 4.008C69.694 4.008 68.91 4.512 68.518 5.058V10H67.468V3.238H68.518V4.218C68.994 3.658 69.918 3.07 70.926 3.07C72.34 3.07 73.082 3.784 73.082 5.254V10ZM84.4023 10H83.3523V5.576C83.3523 4.386 82.7503 4.008 81.8403 4.008C81.0143 4.008 80.2303 4.512 79.8383 5.058V10H78.7883V3.238H79.8383V4.218C80.3143 3.658 81.2383 3.07 82.2463 3.07C83.6603 3.07 84.4023 3.784 84.4023 5.254V10ZM89.4532 10.168C87.3952 10.168 86.1072 8.572 86.1072 6.612C86.1072 4.652 87.3952 3.07 89.4532 3.07C91.5112 3.07 92.7992 4.652 92.7992 6.612C92.7992 8.572 91.5112 10.168 89.4532 10.168ZM89.4532 9.23C90.8952 9.23 91.6932 7.998 91.6932 6.612C91.6932 5.24 90.8952 4.008 89.4532 4.008C88.0112 4.008 87.1992 5.24 87.1992 6.612C87.1992 7.998 88.0112 9.23 89.4532 9.23ZM99.4643 10H98.4143V4.162H97.2943V3.238H98.4143V2.72C98.4143 1.334 99.1703 0.521999 100.374 0.521999C100.906 0.521999 101.382 0.647999 101.802 1.04L101.368 1.726C101.144 1.53 100.878 1.39 100.528 1.39C99.8423 1.39 99.4643 1.866 99.4643 2.72V3.238H100.836V4.162H99.4643V10ZM107.699 10H106.649V9.048C106.131 9.636 105.249 10.168 104.241 10.168C102.827 10.168 102.085 9.482 102.085 8.012V3.238H103.135V7.69C103.135 8.88 103.737 9.23 104.647 9.23C105.473 9.23 106.257 8.754 106.649 8.208V3.238H107.699V10ZM115.41 10H114.36V5.576C114.36 4.386 113.758 4.008 112.848 4.008C112.022 4.008 111.238 4.512 110.846 5.058V10H109.796V3.238H110.846V4.218C111.322 3.658 112.246 3.07 113.254 3.07C114.668 3.07 115.41 3.784 115.41 5.254V10ZM120.489 10.168C118.473 10.168 117.115 8.628 117.115 6.612C117.115 4.61 118.473 3.07 120.489 3.07C121.721 3.07 122.449 3.574 122.967 4.246L122.267 4.89C121.819 4.274 121.245 4.008 120.545 4.008C119.103 4.008 118.207 5.114 118.207 6.612C118.207 8.11 119.103 9.23 120.545 9.23C121.245 9.23 121.819 8.95 122.267 8.348L122.967 8.992C122.449 9.664 121.721 10.168 120.489 10.168ZM124.957 2.272C124.579 2.272 124.257 1.964 124.257 1.572C124.257 1.18 124.579 0.857999 124.957 0.857999C125.349 0.857999 125.671 1.18 125.671 1.572C125.671 1.964 125.349 2.272 124.957 2.272ZM125.489 10H124.439V3.238H125.489V10ZM130.537 10.168C128.479 10.168 127.191 8.572 127.191 6.612C127.191 4.652 128.479 3.07 130.537 3.07C132.595 3.07 133.883 4.652 133.883 6.612C133.883 8.572 132.595 10.168 130.537 10.168ZM130.537 9.23C131.979 9.23 132.777 7.998 132.777 6.612C132.777 5.24 131.979 4.008 130.537 4.008C129.095 4.008 128.283 5.24 128.283 6.612C128.283 7.998 129.095 9.23 130.537 9.23ZM141.209 10H140.159V5.576C140.159 4.386 139.557 4.008 138.647 4.008C137.821 4.008 137.037 4.512 136.645 5.058V10H135.595V3.238H136.645V4.218C137.121 3.658 138.045 3.07 139.053 3.07C140.467 3.07 141.209 3.784 141.209 5.254V10ZM148.584 10H147.534V9.23C146.974 9.846 146.204 10.168 145.294 10.168C144.146 10.168 142.928 9.398 142.928 7.928C142.928 6.416 144.146 5.702 145.294 5.702C146.218 5.702 146.988 5.996 147.534 6.626V5.408C147.534 4.498 146.806 3.98 145.826 3.98C145.014 3.98 144.356 4.274 143.754 4.918L143.264 4.19C143.992 3.434 144.86 3.07 145.966 3.07C147.394 3.07 148.584 3.714 148.584 5.352V10ZM145.672 9.412C146.414 9.412 147.128 9.132 147.534 8.572V7.298C147.128 6.738 146.414 6.458 145.672 6.458C144.692 6.458 144.006 7.074 144.006 7.942C144.006 8.796 144.692 9.412 145.672 9.412ZM151.739 10H150.689V3.238H151.739V4.33C152.285 3.616 153.069 3.098 153.993 3.098V4.176C153.867 4.148 153.741 4.134 153.573 4.134C152.929 4.134 152.047 4.666 151.739 5.212V10ZM160.588 10H159.538V9.23C158.978 9.846 158.208 10.168 157.298 10.168C156.15 10.168 154.932 9.398 154.932 7.928C154.932 6.416 156.15 5.702 157.298 5.702C158.222 5.702 158.992 5.996 159.538 6.626V5.408C159.538 4.498 158.81 3.98 157.83 3.98C157.018 3.98 156.36 4.274 155.758 4.918L155.268 4.19C155.996 3.434 156.864 3.07 157.97 3.07C159.398 3.07 160.588 3.714 160.588 5.352V10ZM157.676 9.412C158.418 9.412 159.132 9.132 159.538 8.572V7.298C159.132 6.738 158.418 6.458 157.676 6.458C156.696 6.458 156.01 7.074 156.01 7.942C156.01 8.796 156.696 9.412 157.676 9.412ZM160.336 0.199999L157.97 2.216H157.172L159.244 0.199999H160.336ZM167.352 8.166C167.716 8.754 168.542 9.23 169.368 9.23C170.74 9.23 171.552 8.124 171.552 6.626C171.552 5.128 170.74 4.008 169.368 4.008C168.542 4.008 167.716 4.512 167.352 5.1V8.166ZM167.352 10H166.302V0.661999H167.352V4.26C167.898 3.518 168.71 3.07 169.634 3.07C171.398 3.07 172.644 4.47 172.644 6.626C172.644 8.824 171.398 10.168 169.634 10.168C168.682 10.168 167.856 9.678 167.352 8.992V10ZM174.873 2.272C174.495 2.272 174.173 1.964 174.173 1.572C174.173 1.18 174.495 0.857999 174.873 0.857999C175.265 0.857999 175.587 1.18 175.587 1.572C175.587 1.964 175.265 2.272 174.873 2.272ZM175.405 10H174.355V3.238H175.405V10ZM180.551 10.168C178.549 10.168 177.107 8.726 177.107 6.612C177.107 4.652 178.507 3.07 180.439 3.07C182.483 3.07 183.687 4.666 183.687 6.696V6.962H178.213C178.297 8.236 179.193 9.3 180.649 9.3C181.419 9.3 182.203 8.992 182.735 8.446L183.239 9.132C182.567 9.804 181.657 10.168 180.551 10.168ZM182.651 6.192C182.637 5.184 181.965 3.938 180.425 3.938C178.983 3.938 178.269 5.156 178.213 6.192H182.651ZM191.002 10H189.952V5.576C189.952 4.386 189.35 4.008 188.44 4.008C187.614 4.008 186.83 4.512 186.438 5.058V10H185.388V3.238H186.438V4.218C186.914 3.658 187.838 3.07 188.846 3.07C190.26 3.07 191.002 3.784 191.002 5.254V10ZM198.85 10.168C197.744 10.168 196.806 9.832 196.12 9.104L196.666 8.348C197.114 8.866 197.968 9.314 198.892 9.314C199.928 9.314 200.488 8.824 200.488 8.152C200.488 6.514 196.302 7.522 196.302 5.016C196.302 3.966 197.212 3.07 198.822 3.07C199.97 3.07 200.782 3.504 201.328 4.05L200.838 4.778C200.432 4.288 199.69 3.924 198.822 3.924C197.898 3.924 197.324 4.386 197.324 4.988C197.324 6.472 201.51 5.492 201.51 8.124C201.51 9.258 200.6 10.168 198.85 10.168ZM203.734 2.272C203.356 2.272 203.034 1.964 203.034 1.572C203.034 1.18 203.356 0.857999 203.734 0.857999C204.126 0.857999 204.448 1.18 204.448 1.572C204.448 1.964 204.126 2.272 203.734 2.272ZM204.266 10H203.216V3.238H204.266V10ZM211.678 10.168C210.684 10.168 210.18 9.594 210.18 8.586V4.162H209.06V3.238H210.18V1.39H211.23V3.238H212.602V4.162H211.23V8.362C211.23 8.866 211.454 9.23 211.916 9.23C212.21 9.23 212.49 9.104 212.63 8.95L212.938 9.734C212.672 9.986 212.294 10.168 211.678 10.168ZM214.603 2.272C214.225 2.272 213.903 1.964 213.903 1.572C213.903 1.18 214.225 0.857999 214.603 0.857999C214.995 0.857999 215.317 1.18 215.317 1.572C215.317 1.964 214.995 2.272 214.603 2.272ZM215.135 10H214.085V3.238H215.135V10ZM220.282 10.168C218.28 10.168 216.838 8.726 216.838 6.612C216.838 4.652 218.238 3.07 220.17 3.07C222.214 3.07 223.418 4.666 223.418 6.696V6.962H217.944C218.028 8.236 218.924 9.3 220.38 9.3C221.15 9.3 221.934 8.992 222.466 8.446L222.97 9.132C222.298 9.804 221.388 10.168 220.282 10.168ZM222.382 6.192C222.368 5.184 221.696 3.938 220.156 3.938C218.714 3.938 218 5.156 217.944 6.192H222.382ZM230.732 10H229.682V5.576C229.682 4.386 229.08 4.008 228.17 4.008C227.344 4.008 226.56 4.512 226.168 5.058V10H225.118V3.238H226.168V4.218C226.644 3.658 227.568 3.07 228.576 3.07C229.99 3.07 230.732 3.784 230.732 5.254V10ZM235.881 10.168C233.879 10.168 232.437 8.726 232.437 6.612C232.437 4.652 233.837 3.07 235.769 3.07C237.813 3.07 239.017 4.666 239.017 6.696V6.962H233.543C233.627 8.236 234.523 9.3 235.979 9.3C236.749 9.3 237.533 8.992 238.065 8.446L238.569 9.132C237.897 9.804 236.987 10.168 235.881 10.168ZM237.981 6.192C237.967 5.184 237.295 3.938 235.755 3.938C234.313 3.938 233.599 5.156 233.543 6.192H237.981ZM242.86 10.168C241.754 10.168 240.816 9.832 240.13 9.104L240.676 8.348C241.124 8.866 241.978 9.314 242.902 9.314C243.938 9.314 244.498 8.824 244.498 8.152C244.498 6.514 240.312 7.522 240.312 5.016C240.312 3.966 241.222 3.07 242.832 3.07C243.98 3.07 244.792 3.504 245.338 4.05L244.848 4.778C244.442 4.288 243.7 3.924 242.832 3.924C241.908 3.924 241.334 4.386 241.334 4.988C241.334 6.472 245.52 5.492 245.52 8.124C245.52 9.258 244.61 10.168 242.86 10.168ZM253.789 10.168C251.731 10.168 250.443 8.572 250.443 6.612C250.443 4.652 251.731 3.07 253.789 3.07C255.847 3.07 257.135 4.652 257.135 6.612C257.135 8.572 255.847 10.168 253.789 10.168ZM253.789 9.23C255.231 9.23 256.029 7.998 256.029 6.612C256.029 5.24 255.231 4.008 253.789 4.008C252.347 4.008 251.535 5.24 251.535 6.612C251.535 7.998 252.347 9.23 253.789 9.23ZM259.897 8.166C260.261 8.754 261.087 9.23 261.913 9.23C263.285 9.23 264.097 8.124 264.097 6.626C264.097 5.128 263.285 4.008 261.913 4.008C261.087 4.008 260.261 4.512 259.897 5.1V8.166ZM259.897 10H258.847V0.661999H259.897V4.26C260.443 3.518 261.255 3.07 262.179 3.07C263.943 3.07 265.189 4.47 265.189 6.626C265.189 8.824 263.943 10.168 262.179 10.168C261.227 10.168 260.401 9.678 259.897 8.992V10ZM267.418 2.272C267.04 2.272 266.718 1.964 266.718 1.572C266.718 1.18 267.04 0.857999 267.418 0.857999C267.81 0.857999 268.132 1.18 268.132 1.572C268.132 1.964 267.81 2.272 267.418 2.272ZM265.948 12.744C265.262 12.744 264.898 12.576 264.464 12.24L264.842 11.442C265.08 11.68 265.388 11.876 265.808 11.876C266.438 11.876 266.9 11.512 266.9 10.658V3.238H267.95V10.658C267.95 11.988 267.236 12.744 265.948 12.744ZM273.096 10.168C271.094 10.168 269.652 8.726 269.652 6.612C269.652 4.652 271.052 3.07 272.984 3.07C275.028 3.07 276.232 4.666 276.232 6.696V6.962H270.758C270.842 8.236 271.738 9.3 273.194 9.3C273.964 9.3 274.748 8.992 275.28 8.446L275.784 9.132C275.112 9.804 274.202 10.168 273.096 10.168ZM275.196 6.192C275.182 5.184 274.51 3.938 272.97 3.938C271.528 3.938 270.814 5.156 270.758 6.192H275.196ZM279.641 10.168C278.647 10.168 278.143 9.594 278.143 8.586V4.162H277.023V3.238H278.143V1.39H279.193V3.238H280.565V4.162H279.193V8.362C279.193 8.866 279.417 9.23 279.879 9.23C280.173 9.23 280.453 9.104 280.593 8.95L280.901 9.734C280.635 9.986 280.257 10.168 279.641 10.168ZM285.002 10.168C282.944 10.168 281.656 8.572 281.656 6.612C281.656 4.652 282.944 3.07 285.002 3.07C287.06 3.07 288.348 4.652 288.348 6.612C288.348 8.572 287.06 10.168 285.002 10.168ZM285.002 9.23C286.444 9.23 287.242 7.998 287.242 6.612C287.242 5.24 286.444 4.008 285.002 4.008C283.56 4.008 282.748 5.24 282.748 6.612C282.748 7.998 283.56 9.23 285.002 9.23ZM292.202 10.168C291.096 10.168 290.158 9.832 289.472 9.104L290.018 8.348C290.466 8.866 291.32 9.314 292.244 9.314C293.28 9.314 293.84 8.824 293.84 8.152C293.84 6.514 289.654 7.522 289.654 5.016C289.654 3.966 290.564 3.07 292.174 3.07C293.322 3.07 294.134 3.504 294.68 4.05L294.19 4.778C293.784 4.288 293.042 3.924 292.174 3.924C291.25 3.924 290.676 4.386 290.676 4.988C290.676 6.472 294.862 5.492 294.862 8.124C294.862 9.258 293.952 10.168 292.202 10.168ZM4.004 27.168C1.946 27.168 0.658 25.572 0.658 23.612C0.658 21.652 1.946 20.07 4.004 20.07C6.062 20.07 7.35 21.652 7.35 23.612C7.35 25.572 6.062 27.168 4.004 27.168ZM4.004 26.23C5.446 26.23 6.244 24.998 6.244 23.612C6.244 22.24 5.446 21.008 4.004 21.008C2.562 21.008 1.75 22.24 1.75 23.612C1.75 24.998 2.562 26.23 4.004 26.23ZM12.0437 27.168C10.0277 27.168 8.66972 25.628 8.66972 23.612C8.66972 21.61 10.0277 20.07 12.0437 20.07C13.2757 20.07 14.0037 20.574 14.5217 21.246L13.8217 21.89C13.3737 21.274 12.7997 21.008 12.0997 21.008C10.6577 21.008 9.76172 22.114 9.76172 23.612C9.76172 25.11 10.6577 26.23 12.0997 26.23C12.7997 26.23 13.3737 25.95 13.8217 25.348L14.5217 25.992C14.0037 26.664 13.2757 27.168 12.0437 27.168ZM21.6074 27H20.5574V26.048C20.0394 26.636 19.1574 27.168 18.1494 27.168C16.7354 27.168 15.9934 26.482 15.9934 25.012V20.238H17.0434V24.69C17.0434 25.88 17.6454 26.23 18.5554 26.23C19.3814 26.23 20.1654 25.754 20.5574 25.208V20.238H21.6074V27ZM27.0363 27.168C26.1123 27.168 25.3003 26.734 24.7543 25.978V29.576H23.7043V20.238H24.7543V21.246C25.2443 20.56 26.0843 20.07 27.0363 20.07C28.8143 20.07 30.0463 21.414 30.0463 23.612C30.0463 25.796 28.8143 27.168 27.0363 27.168ZM26.7703 26.23C28.1283 26.23 28.9403 25.11 28.9403 23.612C28.9403 22.114 28.1283 21.008 26.7703 21.008C25.9443 21.008 25.1183 21.498 24.7543 22.086V25.138C25.1183 25.726 25.9443 26.23 26.7703 26.23ZM36.994 27H35.944V26.23C35.384 26.846 34.614 27.168 33.704 27.168C32.556 27.168 31.338 26.398 31.338 24.928C31.338 23.416 32.556 22.702 33.704 22.702C34.628 22.702 35.398 22.996 35.944 23.626V22.408C35.944 21.498 35.216 20.98 34.236 20.98C33.424 20.98 32.766 21.274 32.164 21.918L31.674 21.19C32.402 20.434 33.27 20.07 34.376 20.07C35.804 20.07 36.994 20.714 36.994 22.352V27ZM34.082 26.412C34.824 26.412 35.538 26.132 35.944 25.572V24.298C35.538 23.738 34.824 23.458 34.082 23.458C33.102 23.458 32.416 24.074 32.416 24.942C32.416 25.796 33.102 26.412 34.082 26.412ZM44.7128 27H43.6628V22.576C43.6628 21.386 43.0608 21.008 42.1508 21.008C41.3248 21.008 40.5408 21.512 40.1488 22.058V27H39.0988V20.238H40.1488V21.218C40.6248 20.658 41.5488 20.07 42.5568 20.07C43.9708 20.07 44.7128 20.784 44.7128 22.254V27ZM52.7598 27H51.7098V25.992C51.2058 26.678 50.3798 27.168 49.4278 27.168C47.6638 27.168 46.4178 25.824 46.4178 23.626C46.4178 21.47 47.6498 20.07 49.4278 20.07C50.3378 20.07 51.1638 20.518 51.7098 21.26V17.662H52.7598V27ZM49.6798 26.23C50.5198 26.23 51.3318 25.754 51.7098 25.166V22.1C51.3318 21.512 50.5198 21.008 49.6798 21.008C48.3218 21.008 47.5098 22.128 47.5098 23.626C47.5098 25.124 48.3218 26.23 49.6798 26.23ZM57.8165 27.168C55.7585 27.168 54.4705 25.572 54.4705 23.612C54.4705 21.652 55.7585 20.07 57.8165 20.07C59.8745 20.07 61.1625 21.652 61.1625 23.612C61.1625 25.572 59.8745 27.168 57.8165 27.168ZM57.8165 26.23C59.2585 26.23 60.0565 24.998 60.0565 23.612C60.0565 22.24 59.2585 21.008 57.8165 21.008C56.3745 21.008 55.5625 22.24 55.5625 23.612C55.5625 24.998 56.3745 26.23 57.8165 26.23ZM67.5336 27H66.4836V17.662H67.5336V27ZM74.9061 27H73.8561V26.23C73.2961 26.846 72.5261 27.168 71.6161 27.168C70.4681 27.168 69.2501 26.398 69.2501 24.928C69.2501 23.416 70.4681 22.702 71.6161 22.702C72.5401 22.702 73.3101 22.996 73.8561 23.626V22.408C73.8561 21.498 73.1281 20.98 72.1481 20.98C71.3361 20.98 70.6781 21.274 70.0761 21.918L69.5861 21.19C70.3141 20.434 71.1821 20.07 72.2881 20.07C73.7161 20.07 74.9061 20.714 74.9061 22.352V27ZM71.9941 26.412C72.7361 26.412 73.4501 26.132 73.8561 25.572V24.298C73.4501 23.738 72.7361 23.458 71.9941 23.458C71.0141 23.458 70.3281 24.074 70.3281 24.942C70.3281 25.796 71.0141 26.412 71.9941 26.412ZM89.8323 27H88.7823V22.408C88.7823 21.554 88.4043 21.008 87.5363 21.008C86.8363 21.008 86.0943 21.512 85.7443 22.044V27H84.6943V22.408C84.6943 21.554 84.3303 21.008 83.4483 21.008C82.7623 21.008 82.0343 21.512 81.6703 22.058V27H80.6203V20.238H81.6703V21.218C81.9503 20.784 82.8603 20.07 83.8543 20.07C84.8903 20.07 85.4783 20.63 85.6743 21.33C86.0523 20.714 86.9623 20.07 87.9423 20.07C89.1743 20.07 89.8323 20.756 89.8323 22.114V27ZM97.205 27H96.155V26.23C95.595 26.846 94.825 27.168 93.915 27.168C92.767 27.168 91.549 26.398 91.549 24.928C91.549 23.416 92.767 22.702 93.915 22.702C94.839 22.702 95.609 22.996 96.155 23.626V22.408C96.155 21.498 95.427 20.98 94.447 20.98C93.635 20.98 92.977 21.274 92.375 21.918L91.885 21.19C92.613 20.434 93.481 20.07 94.587 20.07C96.015 20.07 97.205 20.714 97.205 22.352V27ZM94.293 26.412C95.035 26.412 95.749 26.132 96.155 25.572V24.298C95.749 23.738 95.035 23.458 94.293 23.458C93.313 23.458 92.627 24.074 92.627 24.942C92.627 25.796 93.313 26.412 94.293 26.412ZM98.9318 29.646L99.0998 28.694C99.2538 28.764 99.5058 28.806 99.6738 28.806C100.136 28.806 100.444 28.652 100.682 28.092L101.13 27.07L98.3018 20.238H99.4358L101.69 25.782L103.93 20.238H105.078L101.69 28.372C101.284 29.352 100.598 29.73 99.7018 29.744C99.4778 29.744 99.1278 29.702 98.9318 29.646ZM109.127 27.168C107.069 27.168 105.781 25.572 105.781 23.612C105.781 21.652 107.069 20.07 109.127 20.07C111.185 20.07 112.473 21.652 112.473 23.612C112.473 25.572 111.185 27.168 109.127 27.168ZM109.127 26.23C110.569 26.23 111.367 24.998 111.367 23.612C111.367 22.24 110.569 21.008 109.127 21.008C107.685 21.008 106.873 22.24 106.873 23.612C106.873 24.998 107.685 26.23 109.127 26.23ZM115.235 27H114.185V20.238H115.235V21.33C115.781 20.616 116.565 20.098 117.489 20.098V21.176C117.363 21.148 117.237 21.134 117.069 21.134C116.425 21.134 115.543 21.666 115.235 22.212V27ZM125.747 27.168C124.823 27.168 124.011 26.734 123.465 25.978V29.576H122.415V20.238H123.465V21.246C123.955 20.56 124.795 20.07 125.747 20.07C127.525 20.07 128.757 21.414 128.757 23.612C128.757 25.796 127.525 27.168 125.747 27.168ZM125.481 26.23C126.839 26.23 127.651 25.11 127.651 23.612C127.651 22.114 126.839 21.008 125.481 21.008C124.655 21.008 123.829 21.498 123.465 22.086V25.138C123.829 25.726 124.655 26.23 125.481 26.23ZM135.705 27H134.655V26.23C134.095 26.846 133.325 27.168 132.415 27.168C131.267 27.168 130.049 26.398 130.049 24.928C130.049 23.416 131.267 22.702 132.415 22.702C133.339 22.702 134.109 22.996 134.655 23.626V22.408C134.655 21.498 133.927 20.98 132.947 20.98C132.135 20.98 131.477 21.274 130.875 21.918L130.385 21.19C131.113 20.434 131.981 20.07 133.087 20.07C134.515 20.07 135.705 20.714 135.705 22.352V27ZM132.793 26.412C133.535 26.412 134.249 26.132 134.655 25.572V24.298C134.249 23.738 133.535 23.458 132.793 23.458C131.813 23.458 131.127 24.074 131.127 24.942C131.127 25.796 131.813 26.412 132.793 26.412ZM138.86 27H137.81V20.238H138.86V21.33C139.406 20.616 140.19 20.098 141.114 20.098V21.176C140.988 21.148 140.862 21.134 140.694 21.134C140.05 21.134 139.168 21.666 138.86 22.212V27ZM144.139 27.168C143.145 27.168 142.641 26.594 142.641 25.586V21.162H141.521V20.238H142.641V18.39H143.691V20.238H145.063V21.162H143.691V25.362C143.691 25.866 143.915 26.23 144.377 26.23C144.671 26.23 144.951 26.104 145.091 25.95L145.399 26.734C145.133 26.986 144.755 27.168 144.139 27.168ZM149.598 27.168C147.596 27.168 146.154 25.726 146.154 23.612C146.154 21.652 147.554 20.07 149.486 20.07C151.53 20.07 152.734 21.666 152.734 23.696V23.962H147.26C147.344 25.236 148.24 26.3 149.696 26.3C150.466 26.3 151.25 25.992 151.782 25.446L152.286 26.132C151.614 26.804 150.704 27.168 149.598 27.168ZM151.698 23.192C151.684 22.184 151.012 20.938 149.472 20.938C148.03 20.938 147.316 22.156 147.26 23.192H151.698ZM163.994 27H162.944V25.992C162.44 26.678 161.614 27.168 160.662 27.168C158.898 27.168 157.652 25.824 157.652 23.626C157.652 21.47 158.884 20.07 160.662 20.07C161.572 20.07 162.398 20.518 162.944 21.26V17.662H163.994V27ZM160.914 26.23C161.754 26.23 162.566 25.754 162.944 25.166V22.1C162.566 21.512 161.754 21.008 160.914 21.008C159.556 21.008 158.744 22.128 158.744 23.626C158.744 25.124 159.556 26.23 160.914 26.23ZM169.149 27.168C167.147 27.168 165.705 25.726 165.705 23.612C165.705 21.652 167.105 20.07 169.037 20.07C171.081 20.07 172.285 21.666 172.285 23.696V23.962H166.811C166.895 25.236 167.791 26.3 169.247 26.3C170.017 26.3 170.801 25.992 171.333 25.446L171.837 26.132C171.165 26.804 170.255 27.168 169.149 27.168ZM171.249 23.192C171.235 22.184 170.563 20.938 169.023 20.938C167.581 20.938 166.867 22.156 166.811 23.192H171.249ZM179.303 27.168C178.309 27.168 177.805 26.594 177.805 25.586V21.162H176.685V20.238H177.805V18.39H178.855V20.238H180.227V21.162H178.855V25.362C178.855 25.866 179.079 26.23 179.541 26.23C179.835 26.23 180.115 26.104 180.255 25.95L180.563 26.734C180.297 26.986 179.919 27.168 179.303 27.168ZM187.324 27H186.274V26.048C185.756 26.636 184.874 27.168 183.866 27.168C182.452 27.168 181.71 26.482 181.71 25.012V20.238H182.76V24.69C182.76 25.88 183.362 26.23 184.272 26.23C185.098 26.23 185.882 25.754 186.274 25.208V20.238H187.324V27ZM196.012 27.168C193.996 27.168 192.638 25.628 192.638 23.612C192.638 21.61 193.996 20.07 196.012 20.07C197.244 20.07 197.972 20.574 198.49 21.246L197.79 21.89C197.342 21.274 196.768 21.008 196.068 21.008C194.626 21.008 193.73 22.114 193.73 23.612C193.73 25.11 194.626 26.23 196.068 26.23C196.768 26.23 197.342 25.95 197.79 25.348L198.49 25.992C197.972 26.664 197.244 27.168 196.012 27.168ZM205.24 27H204.19V26.23C203.63 26.846 202.86 27.168 201.95 27.168C200.802 27.168 199.584 26.398 199.584 24.928C199.584 23.416 200.802 22.702 201.95 22.702C202.874 22.702 203.644 22.996 204.19 23.626V22.408C204.19 21.498 203.462 20.98 202.482 20.98C201.67 20.98 201.012 21.274 200.41 21.918L199.92 21.19C200.648 20.434 201.516 20.07 202.622 20.07C204.05 20.07 205.24 20.714 205.24 22.352V27ZM202.328 26.412C203.07 26.412 203.784 26.132 204.19 25.572V24.298C203.784 23.738 203.07 23.458 202.328 23.458C201.348 23.458 200.662 24.074 200.662 24.942C200.662 25.796 201.348 26.412 202.328 26.412ZM208.395 27H207.345V20.238H208.395V21.33C208.941 20.616 209.725 20.098 210.649 20.098V21.176C210.523 21.148 210.397 21.134 210.229 21.134C209.585 21.134 208.703 21.666 208.395 22.212V27ZM217.244 27H216.194V26.23C215.634 26.846 214.864 27.168 213.954 27.168C212.806 27.168 211.588 26.398 211.588 24.928C211.588 23.416 212.806 22.702 213.954 22.702C214.878 22.702 215.648 22.996 216.194 23.626V22.408C216.194 21.498 215.466 20.98 214.486 20.98C213.674 20.98 213.016 21.274 212.414 21.918L211.924 21.19C212.652 20.434 213.52 20.07 214.626 20.07C216.054 20.07 217.244 20.714 217.244 22.352V27ZM214.332 26.412C215.074 26.412 215.788 26.132 216.194 25.572V24.298C215.788 23.738 215.074 23.458 214.332 23.458C213.352 23.458 212.666 24.074 212.666 24.942C212.666 25.796 213.352 26.412 214.332 26.412ZM220.763 26.664C220.763 27.518 220.259 28.316 219.615 28.778L219.097 28.344C219.545 28.05 219.951 27.504 220.007 27.042C219.979 27.056 219.881 27.07 219.811 27.07C219.419 27.07 219.139 26.776 219.139 26.356C219.139 25.95 219.461 25.6 219.881 25.6C220.343 25.6 220.763 25.992 220.763 26.664ZM229.167 27.168C227.151 27.168 225.793 25.628 225.793 23.612C225.793 21.61 227.151 20.07 229.167 20.07C230.399 20.07 231.127 20.574 231.645 21.246L230.945 21.89C230.497 21.274 229.923 21.008 229.223 21.008C227.781 21.008 226.885 22.114 226.885 23.612C226.885 25.11 227.781 26.23 229.223 26.23C229.923 26.23 230.497 25.95 230.945 25.348L231.645 25.992C231.127 26.664 230.399 27.168 229.167 27.168ZM236.07 27.168C234.012 27.168 232.724 25.572 232.724 23.612C232.724 21.652 234.012 20.07 236.07 20.07C238.128 20.07 239.416 21.652 239.416 23.612C239.416 25.572 238.128 27.168 236.07 27.168ZM236.07 26.23C237.512 26.23 238.31 24.998 238.31 23.612C238.31 22.24 237.512 21.008 236.07 21.008C234.628 21.008 233.816 22.24 233.816 23.612C233.816 24.998 234.628 26.23 236.07 26.23ZM250.34 27H249.29V22.408C249.29 21.554 248.912 21.008 248.044 21.008C247.344 21.008 246.602 21.512 246.252 22.044V27H245.202V22.408C245.202 21.554 244.838 21.008 243.956 21.008C243.27 21.008 242.542 21.512 242.178 22.058V27H241.128V20.238H242.178V21.218C242.458 20.784 243.368 20.07 244.362 20.07C245.398 20.07 245.986 20.63 246.182 21.33C246.56 20.714 247.47 20.07 248.45 20.07C249.682 20.07 250.34 20.756 250.34 22.114V27ZM255.389 27.168C253.331 27.168 252.043 25.572 252.043 23.612C252.043 21.652 253.331 20.07 255.389 20.07C257.447 20.07 258.735 21.652 258.735 23.612C258.735 25.572 257.447 27.168 255.389 27.168ZM255.389 26.23C256.831 26.23 257.629 24.998 257.629 23.612C257.629 22.24 256.831 21.008 255.389 21.008C253.947 21.008 253.135 22.24 253.135 23.612C253.135 24.998 253.947 26.23 255.389 26.23ZM266.772 29.744C265.624 29.744 264.84 29.52 264.042 28.736L264.574 27.952C265.134 28.624 265.806 28.876 266.772 28.876C267.892 28.876 268.942 28.33 268.942 26.846V25.88C268.452 26.566 267.626 27.084 266.674 27.084C264.91 27.084 263.664 25.768 263.664 23.584C263.664 21.414 264.896 20.07 266.674 20.07C267.584 20.07 268.396 20.518 268.942 21.26V20.238H269.992V26.804C269.992 29.044 268.424 29.744 266.772 29.744ZM266.926 26.16C267.766 26.16 268.578 25.642 268.942 25.054V22.1C268.578 21.512 267.766 21.008 266.926 21.008C265.568 21.008 264.756 22.086 264.756 23.584C264.756 25.068 265.568 26.16 266.926 26.16ZM277.373 27H276.323V26.23C275.763 26.846 274.993 27.168 274.083 27.168C272.935 27.168 271.717 26.398 271.717 24.928C271.717 23.416 272.935 22.702 274.083 22.702C275.007 22.702 275.777 22.996 276.323 23.626V22.408C276.323 21.498 275.595 20.98 274.615 20.98C273.803 20.98 273.145 21.274 272.543 21.918L272.053 21.19C272.781 20.434 273.649 20.07 274.755 20.07C276.183 20.07 277.373 20.714 277.373 22.352V27ZM274.461 26.412C275.203 26.412 275.917 26.132 276.323 25.572V24.298C275.917 23.738 275.203 23.458 274.461 23.458C273.481 23.458 272.795 24.074 272.795 24.942C272.795 25.796 273.481 26.412 274.461 26.412ZM280.822 27H279.772V21.162H278.652V20.238H279.772V19.72C279.772 18.334 280.528 17.522 281.732 17.522C282.264 17.522 282.74 17.648 283.16 18.04L282.726 18.726C282.502 18.53 282.236 18.39 281.886 18.39C281.2 18.39 280.822 18.866 280.822 19.72V20.238H282.194V21.162H280.822V27ZM288.721 27H287.671V26.23C287.111 26.846 286.341 27.168 285.431 27.168C284.283 27.168 283.065 26.398 283.065 24.928C283.065 23.416 284.283 22.702 285.431 22.702C286.355 22.702 287.125 22.996 287.671 23.626V22.408C287.671 21.498 286.943 20.98 285.963 20.98C285.151 20.98 284.493 21.274 283.891 21.918L283.401 21.19C284.129 20.434 284.997 20.07 286.103 20.07C287.531 20.07 288.721 20.714 288.721 22.352V27ZM285.809 26.412C286.551 26.412 287.265 26.132 287.671 25.572V24.298C287.265 23.738 286.551 23.458 285.809 23.458C284.829 23.458 284.143 24.074 284.143 24.942C284.143 25.796 284.829 26.412 285.809 26.412ZM292.967 27.168C291.861 27.168 290.923 26.832 290.237 26.104L290.783 25.348C291.231 25.866 292.085 26.314 293.009 26.314C294.045 26.314 294.605 25.824 294.605 25.152C294.605 23.514 290.419 24.522 290.419 22.016C290.419 20.966 291.329 20.07 292.939 20.07C294.087 20.07 294.899 20.504 295.445 21.05L294.955 21.778C294.549 21.288 293.807 20.924 292.939 20.924C292.015 20.924 291.441 21.386 291.441 21.988C291.441 23.472 295.627 22.492 295.627 25.124C295.627 26.258 294.717 27.168 292.967 27.168ZM303.897 27.168C301.839 27.168 300.551 25.572 300.551 23.612C300.551 21.652 301.839 20.07 303.897 20.07C305.955 20.07 307.243 21.652 307.243 23.612C307.243 25.572 305.955 27.168 303.897 27.168ZM303.897 26.23C305.339 26.23 306.137 24.998 306.137 23.612C306.137 22.24 305.339 21.008 303.897 21.008C302.455 21.008 301.643 22.24 301.643 23.612C301.643 24.998 302.455 26.23 303.897 26.23ZM3.192 44.168C2.086 44.168 1.148 43.832 0.462 43.104L1.008 42.348C1.456 42.866 2.31 43.314 3.234 43.314C4.27 43.314 4.83 42.824 4.83 42.152C4.83 40.514 0.644 41.522 0.644 39.016C0.644 37.966 1.554 37.07 3.164 37.07C4.312 37.07 5.124 37.504 5.67 38.05L5.18 38.778C4.774 38.288 4.032 37.924 3.164 37.924C2.24 37.924 1.666 38.386 1.666 38.988C1.666 40.472 5.852 39.492 5.852 42.124C5.852 43.258 4.942 44.168 3.192 44.168ZM10.5118 44.168C8.45381 44.168 7.16581 42.572 7.16581 40.612C7.16581 38.652 8.45381 37.07 10.5118 37.07C12.5698 37.07 13.8578 38.652 13.8578 40.612C13.8578 42.572 12.5698 44.168 10.5118 44.168ZM10.5118 43.23C11.9538 43.23 12.7518 41.998 12.7518 40.612C12.7518 39.24 11.9538 38.008 10.5118 38.008C9.06981 38.008 8.25781 39.24 8.25781 40.612C8.25781 41.998 9.06981 43.23 10.5118 43.23ZM24.7815 44H23.7315V39.408C23.7315 38.554 23.3535 38.008 22.4855 38.008C21.7855 38.008 21.0435 38.512 20.6935 39.044V44H19.6435V39.408C19.6435 38.554 19.2795 38.008 18.3975 38.008C17.7115 38.008 16.9835 38.512 16.6195 39.058V44H15.5695V37.238H16.6195V38.218C16.8995 37.784 17.8095 37.07 18.8035 37.07C19.8395 37.07 20.4275 37.63 20.6235 38.33C21.0015 37.714 21.9115 37.07 22.8915 37.07C24.1235 37.07 24.7815 37.756 24.7815 39.114V44ZM27.9262 42.166C28.2902 42.754 29.1162 43.23 29.9422 43.23C31.3142 43.23 32.1262 42.124 32.1262 40.626C32.1262 39.128 31.3142 38.008 29.9422 38.008C29.1162 38.008 28.2902 38.512 27.9262 39.1V42.166ZM27.9262 44H26.8762V34.662H27.9262V38.26C28.4722 37.518 29.2842 37.07 30.2082 37.07C31.9722 37.07 33.2182 38.47 33.2182 40.626C33.2182 42.824 31.9722 44.168 30.2082 44.168C29.2562 44.168 28.4302 43.678 27.9262 42.992V44ZM35.9789 44H34.9289V37.238H35.9789V38.33C36.5249 37.616 37.3089 37.098 38.2329 37.098V38.176C38.1069 38.148 37.9809 38.134 37.8129 38.134C37.1689 38.134 36.2869 38.666 35.9789 39.212V44ZM42.602 44.168C40.6 44.168 39.158 42.726 39.158 40.612C39.158 38.652 40.558 37.07 42.49 37.07C44.534 37.07 45.738 38.666 45.738 40.696V40.962H40.264C40.348 42.236 41.244 43.3 42.7 43.3C43.47 43.3 44.254 42.992 44.786 42.446L45.29 43.132C44.618 43.804 43.708 44.168 42.602 44.168ZM44.702 40.192C44.688 39.184 44.016 37.938 42.476 37.938C41.034 37.938 40.32 39.156 40.264 40.192H44.702ZM48.4887 44H47.4387V37.238H48.4887V38.33C49.0347 37.616 49.8187 37.098 50.7427 37.098V38.176C50.6167 38.148 50.4907 38.134 50.3227 38.134C49.6787 38.134 48.7967 38.666 48.4887 39.212V44ZM55.0138 44.168C52.9558 44.168 51.6678 42.572 51.6678 40.612C51.6678 38.652 52.9558 37.07 55.0138 37.07C57.0718 37.07 58.3598 38.652 58.3598 40.612C58.3598 42.572 57.0718 44.168 55.0138 44.168ZM55.0138 43.23C56.4558 43.23 57.2538 41.998 57.2538 40.612C57.2538 39.24 56.4558 38.008 55.0138 38.008C53.5718 38.008 52.7598 39.24 52.7598 40.612C52.7598 41.998 53.5718 43.23 55.0138 43.23ZM60.5358 44.14C60.1158 44.14 59.7658 43.79 59.7658 43.37C59.7658 42.95 60.1158 42.6 60.5358 42.6C60.9558 42.6 61.3058 42.95 61.3058 43.37C61.3058 43.79 60.9558 44.14 60.5358 44.14ZM68.0157 44H66.8537V34.662H70.6057C72.4817 34.662 73.5317 35.95 73.5317 37.476C73.5317 39.002 72.4537 40.29 70.6057 40.29H68.0157V44ZM70.4657 39.254C71.5717 39.254 72.3277 38.526 72.3277 37.476C72.3277 36.426 71.5717 35.698 70.4657 35.698H68.0157V39.254H70.4657ZM80.0331 44H78.9831V43.23C78.4231 43.846 77.6531 44.168 76.7431 44.168C75.5951 44.168 74.3771 43.398 74.3771 41.928C74.3771 40.416 75.5951 39.702 76.7431 39.702C77.6671 39.702 78.4371 39.996 78.9831 40.626V39.408C78.9831 38.498 78.2551 37.98 77.2751 37.98C76.4631 37.98 75.8051 38.274 75.2031 38.918L74.7131 38.19C75.4411 37.434 76.3091 37.07 77.4151 37.07C78.8431 37.07 80.0331 37.714 80.0331 39.352V44ZM77.1211 43.412C77.8631 43.412 78.5771 43.132 78.9831 42.572V41.298C78.5771 40.738 77.8631 40.458 77.1211 40.458C76.1411 40.458 75.4551 41.074 75.4551 41.942C75.4551 42.796 76.1411 43.412 77.1211 43.412ZM83.1879 44H82.1379V37.238H83.1879V38.33C83.7339 37.616 84.5179 37.098 85.4419 37.098V38.176C85.3159 38.148 85.1899 38.134 85.0219 38.134C84.3779 38.134 83.4959 38.666 83.1879 39.212V44ZM92.037 44H90.987V43.23C90.427 43.846 89.657 44.168 88.747 44.168C87.599 44.168 86.381 43.398 86.381 41.928C86.381 40.416 87.599 39.702 88.747 39.702C89.671 39.702 90.441 39.996 90.987 40.626V39.408C90.987 38.498 90.259 37.98 89.279 37.98C88.467 37.98 87.809 38.274 87.207 38.918L86.717 38.19C87.445 37.434 88.313 37.07 89.419 37.07C90.847 37.07 92.037 37.714 92.037 39.352V44ZM89.125 43.412C89.867 43.412 90.581 43.132 90.987 42.572V41.298C90.581 40.738 89.867 40.458 89.125 40.458C88.145 40.458 87.459 41.074 87.459 41.942C87.459 42.796 88.145 43.412 89.125 43.412ZM106.963 44H105.913V39.408C105.913 38.554 105.535 38.008 104.667 38.008C103.967 38.008 103.225 38.512 102.875 39.044V44H101.825V39.408C101.825 38.554 101.461 38.008 100.579 38.008C99.8932 38.008 99.1652 38.512 98.8012 39.058V44H97.7512V37.238H98.8012V38.218C99.0812 37.784 99.9912 37.07 100.985 37.07C102.021 37.07 102.609 37.63 102.805 38.33C103.183 37.714 104.093 37.07 105.073 37.07C106.305 37.07 106.963 37.756 106.963 39.114V44ZM112.11 44.168C110.108 44.168 108.666 42.726 108.666 40.612C108.666 38.652 110.066 37.07 111.998 37.07C114.042 37.07 115.246 38.666 115.246 40.696V40.962H109.772C109.856 42.236 110.752 43.3 112.208 43.3C112.978 43.3 113.762 42.992 114.294 42.446L114.798 43.132C114.126 43.804 113.216 44.168 112.11 44.168ZM114.21 40.192C114.196 39.184 113.524 37.938 111.984 37.938C110.542 37.938 109.828 39.156 109.772 40.192H114.21ZM117.464 36.272C117.086 36.272 116.764 35.964 116.764 35.572C116.764 35.18 117.086 34.858 117.464 34.858C117.856 34.858 118.178 35.18 118.178 35.572C118.178 35.964 117.856 36.272 117.464 36.272ZM115.994 46.744C115.308 46.744 114.944 46.576 114.51 46.24L114.888 45.442C115.126 45.68 115.434 45.876 115.854 45.876C116.484 45.876 116.946 45.512 116.946 44.658V37.238H117.996V44.658C117.996 45.988 117.282 46.744 115.994 46.744ZM123.045 44.168C120.987 44.168 119.699 42.572 119.699 40.612C119.699 38.652 120.987 37.07 123.045 37.07C125.103 37.07 126.391 38.652 126.391 40.612C126.391 42.572 125.103 44.168 123.045 44.168ZM123.045 43.23C124.487 43.23 125.285 41.998 125.285 40.612C125.285 39.24 124.487 38.008 123.045 38.008C121.603 38.008 120.791 39.24 120.791 40.612C120.791 41.998 121.603 43.23 123.045 43.23ZM129.153 44H128.103V37.238H129.153V38.33C129.699 37.616 130.483 37.098 131.407 37.098V38.176C131.281 38.148 131.155 38.134 130.987 38.134C130.343 38.134 129.461 38.666 129.153 39.212V44ZM135.776 44.168C133.774 44.168 132.332 42.726 132.332 40.612C132.332 38.652 133.732 37.07 135.664 37.07C137.708 37.07 138.912 38.666 138.912 40.696V40.962H133.438C133.522 42.236 134.418 43.3 135.874 43.3C136.644 43.3 137.428 42.992 137.96 42.446L138.464 43.132C137.792 43.804 136.882 44.168 135.776 44.168ZM137.876 40.192C137.862 39.184 137.19 37.938 135.65 37.938C134.208 37.938 133.494 39.156 133.438 40.192H137.876ZM142.755 44.168C141.649 44.168 140.711 43.832 140.024 43.104L140.571 42.348C141.019 42.866 141.873 43.314 142.797 43.314C143.833 43.314 144.393 42.824 144.393 42.152C144.393 40.514 140.207 41.522 140.207 39.016C140.207 37.966 141.117 37.07 142.727 37.07C143.875 37.07 144.687 37.504 145.233 38.05L144.743 38.778C144.337 38.288 143.595 37.924 142.727 37.924C141.803 37.924 141.229 38.386 141.229 38.988C141.229 40.472 145.415 39.492 145.415 42.124C145.415 43.258 144.505 44.168 142.755 44.168ZM151.78 44H150.73V37.238H151.78V38.33C152.326 37.616 153.11 37.098 154.034 37.098V38.176C153.908 38.148 153.782 38.134 153.614 38.134C152.97 38.134 152.088 38.666 151.78 39.212V44ZM158.403 44.168C156.401 44.168 154.959 42.726 154.959 40.612C154.959 38.652 156.359 37.07 158.291 37.07C160.335 37.07 161.539 38.666 161.539 40.696V40.962H156.065C156.149 42.236 157.045 43.3 158.501 43.3C159.271 43.3 160.055 42.992 160.587 42.446L161.091 43.132C160.419 43.804 159.509 44.168 158.403 44.168ZM160.503 40.192C160.489 39.184 159.817 37.938 158.277 37.938C156.835 37.938 156.121 39.156 156.065 40.192H160.503ZM165.381 44.168C164.275 44.168 163.337 43.832 162.651 43.104L163.197 42.348C163.645 42.866 164.499 43.314 165.423 43.314C166.459 43.314 167.019 42.824 167.019 42.152C167.019 40.514 162.833 41.522 162.833 39.016C162.833 37.966 163.743 37.07 165.353 37.07C166.501 37.07 167.313 37.504 167.859 38.05L167.369 38.778C166.963 38.288 166.221 37.924 165.353 37.924C164.429 37.924 163.855 38.386 163.855 38.988C163.855 40.472 168.041 39.492 168.041 42.124C168.041 43.258 167.131 44.168 165.381 44.168ZM175.361 44H174.311V43.048C173.793 43.636 172.911 44.168 171.903 44.168C170.489 44.168 169.747 43.482 169.747 42.012V37.238H170.797V41.69C170.797 42.88 171.399 43.23 172.309 43.23C173.135 43.23 173.919 42.754 174.311 42.208V37.238H175.361V44ZM178.508 44H177.458V34.662H178.508V44ZM182.311 44.168C181.317 44.168 180.813 43.594 180.813 42.586V38.162H179.693V37.238H180.813V35.39H181.863V37.238H183.235V38.162H181.863V42.362C181.863 42.866 182.087 43.23 182.549 43.23C182.843 43.23 183.123 43.104 183.263 42.95L183.571 43.734C183.305 43.986 182.927 44.168 182.311 44.168ZM189.996 44H188.946V43.23C188.386 43.846 187.616 44.168 186.706 44.168C185.558 44.168 184.34 43.398 184.34 41.928C184.34 40.416 185.558 39.702 186.706 39.702C187.63 39.702 188.4 39.996 188.946 40.626V39.408C188.946 38.498 188.218 37.98 187.238 37.98C186.426 37.98 185.768 38.274 185.166 38.918L184.676 38.19C185.404 37.434 186.272 37.07 187.378 37.07C188.806 37.07 189.996 37.714 189.996 39.352V44ZM187.084 43.412C187.826 43.412 188.54 43.132 188.946 42.572V41.298C188.54 40.738 187.826 40.458 187.084 40.458C186.104 40.458 185.418 41.074 185.418 41.942C185.418 42.796 186.104 43.412 187.084 43.412ZM198.051 44H197.001V42.992C196.497 43.678 195.671 44.168 194.719 44.168C192.955 44.168 191.709 42.824 191.709 40.626C191.709 38.47 192.941 37.07 194.719 37.07C195.629 37.07 196.455 37.518 197.001 38.26V34.662H198.051V44ZM194.971 43.23C195.811 43.23 196.623 42.754 197.001 42.166V39.1C196.623 38.512 195.811 38.008 194.971 38.008C193.613 38.008 192.801 39.128 192.801 40.626C192.801 42.124 193.613 43.23 194.971 43.23ZM203.108 44.168C201.05 44.168 199.762 42.572 199.762 40.612C199.762 38.652 201.05 37.07 203.108 37.07C205.166 37.07 206.454 38.652 206.454 40.612C206.454 42.572 205.166 44.168 203.108 44.168ZM203.108 43.23C204.55 43.23 205.348 41.998 205.348 40.612C205.348 39.24 204.55 38.008 203.108 38.008C201.666 38.008 200.854 39.24 200.854 40.612C200.854 41.998 201.666 43.23 203.108 43.23ZM210.307 44.168C209.201 44.168 208.263 43.832 207.577 43.104L208.123 42.348C208.571 42.866 209.425 43.314 210.349 43.314C211.385 43.314 211.945 42.824 211.945 42.152C211.945 40.514 207.759 41.522 207.759 39.016C207.759 37.966 208.669 37.07 210.279 37.07C211.427 37.07 212.239 37.504 212.785 38.05L212.295 38.778C211.889 38.288 211.147 37.924 210.279 37.924C209.355 37.924 208.781 38.386 208.781 38.988C208.781 40.472 212.967 39.492 212.967 42.124C212.967 43.258 212.057 44.168 210.307 44.168ZM219.332 44H218.282V34.662H219.332V44ZM221.945 36.272C221.567 36.272 221.245 35.964 221.245 35.572C221.245 35.18 221.567 34.858 221.945 34.858C222.337 34.858 222.659 35.18 222.659 35.572C222.659 35.964 222.337 36.272 221.945 36.272ZM222.477 44H221.427V37.238H222.477V44ZM233.783 44H232.733V39.408C232.733 38.554 232.355 38.008 231.487 38.008C230.787 38.008 230.045 38.512 229.695 39.044V44H228.645V39.408C228.645 38.554 228.281 38.008 227.399 38.008C226.713 38.008 225.985 38.512 225.621 39.058V44H224.571V37.238H225.621V38.218C225.901 37.784 226.811 37.07 227.805 37.07C228.841 37.07 229.429 37.63 229.625 38.33C230.003 37.714 230.913 37.07 231.893 37.07C233.125 37.07 233.783 37.756 233.783 39.114V44ZM239.21 44.168C238.286 44.168 237.474 43.734 236.928 42.978V46.576H235.878V37.238H236.928V38.246C237.418 37.56 238.258 37.07 239.21 37.07C240.988 37.07 242.22 38.414 242.22 40.612C242.22 42.796 240.988 44.168 239.21 44.168ZM238.944 43.23C240.302 43.23 241.114 42.11 241.114 40.612C241.114 39.114 240.302 38.008 238.944 38.008C238.118 38.008 237.292 38.498 236.928 39.086V42.138C237.292 42.726 238.118 43.23 238.944 43.23ZM244.408 36.272C244.03 36.272 243.708 35.964 243.708 35.572C243.708 35.18 244.03 34.858 244.408 34.858C244.8 34.858 245.122 35.18 245.122 35.572C245.122 35.964 244.8 36.272 244.408 36.272ZM244.94 44H243.89V37.238H244.94V44ZM252.312 44H251.262V43.23C250.702 43.846 249.932 44.168 249.022 44.168C247.874 44.168 246.656 43.398 246.656 41.928C246.656 40.416 247.874 39.702 249.022 39.702C249.946 39.702 250.716 39.996 251.262 40.626V39.408C251.262 38.498 250.534 37.98 249.554 37.98C248.742 37.98 248.084 38.274 247.482 38.918L246.992 38.19C247.72 37.434 248.588 37.07 249.694 37.07C251.122 37.07 252.312 37.714 252.312 39.352V44ZM249.4 43.412C250.142 43.412 250.856 43.132 251.262 42.572V41.298C250.856 40.738 250.142 40.458 249.4 40.458C248.42 40.458 247.734 41.074 247.734 41.942C247.734 42.796 248.42 43.412 249.4 43.412ZM261.009 44.168C258.993 44.168 257.635 42.628 257.635 40.612C257.635 38.61 258.993 37.07 261.009 37.07C262.241 37.07 262.969 37.574 263.487 38.246L262.787 38.89C262.339 38.274 261.765 38.008 261.065 38.008C259.623 38.008 258.727 39.114 258.727 40.612C258.727 42.11 259.623 43.23 261.065 43.23C261.765 43.23 262.339 42.95 262.787 42.348L263.487 42.992C262.969 43.664 262.241 44.168 261.009 44.168ZM270.572 44H269.522V43.048C269.004 43.636 268.122 44.168 267.114 44.168C265.7 44.168 264.958 43.482 264.958 42.012V37.238H266.008V41.69C266.008 42.88 266.61 43.23 267.52 43.23C268.346 43.23 269.13 42.754 269.522 42.208V37.238H270.572V44ZM277.947 44H276.897V43.23C276.337 43.846 275.567 44.168 274.657 44.168C273.509 44.168 272.291 43.398 272.291 41.928C272.291 40.416 273.509 39.702 274.657 39.702C275.581 39.702 276.351 39.996 276.897 40.626V39.408C276.897 38.498 276.169 37.98 275.189 37.98C274.377 37.98 273.719 38.274 273.117 38.918L272.627 38.19C273.355 37.434 274.223 37.07 275.329 37.07C276.757 37.07 277.947 37.714 277.947 39.352V44ZM275.035 43.412C275.777 43.412 276.491 43.132 276.897 42.572V41.298C276.491 40.738 275.777 40.458 275.035 40.458C274.055 40.458 273.369 41.074 273.369 41.942C273.369 42.796 274.055 43.412 275.035 43.412ZM281.102 44H280.052V34.662H281.102V44ZM286.024 43.23C286.864 43.23 287.69 42.726 288.04 42.138V39.086C287.69 38.498 286.864 38.008 286.024 38.008C284.666 38.008 283.868 39.114 283.868 40.612C283.868 42.11 284.666 43.23 286.024 43.23ZM285.772 44.168C283.994 44.168 282.762 42.796 282.762 40.612C282.762 38.414 283.994 37.07 285.772 37.07C286.724 37.07 287.564 37.56 288.04 38.246V37.238H289.09V46.576H288.04V42.978C287.494 43.734 286.682 44.168 285.772 44.168ZM296.822 44H295.772V43.048C295.254 43.636 294.372 44.168 293.364 44.168C291.95 44.168 291.208 43.482 291.208 42.012V37.238H292.258V41.69C292.258 42.88 292.86 43.23 293.77 43.23C294.596 43.23 295.38 42.754 295.772 42.208V37.238H296.822V44ZM299.437 36.272C299.059 36.272 298.737 35.964 298.737 35.572C298.737 35.18 299.059 34.858 299.437 34.858C299.829 34.858 300.151 35.18 300.151 35.572C300.151 35.964 299.829 36.272 299.437 36.272ZM299.969 44H298.919V37.238H299.969V44ZM305.116 44.168C303.114 44.168 301.672 42.726 301.672 40.612C301.672 38.652 303.072 37.07 305.004 37.07C307.048 37.07 308.252 38.666 308.252 40.696V40.962H302.778C302.862 42.236 303.758 43.3 305.214 43.3C305.984 43.3 306.768 42.992 307.3 42.446L307.804 43.132C307.132 43.804 306.222 44.168 305.116 44.168ZM307.216 40.192C307.202 39.184 306.53 37.938 304.99 37.938C303.548 37.938 302.834 39.156 302.778 40.192H307.216ZM311.002 44H309.952V37.238H311.002V38.33C311.548 37.616 312.332 37.098 313.256 37.098V38.176C313.13 38.148 313.004 38.134 312.836 38.134C312.192 38.134 311.31 38.666 311.002 39.212V44ZM4.382 61.168C3.458 61.168 2.646 60.734 2.1 59.978V63.576H1.05V54.238H2.1V55.246C2.59 54.56 3.43 54.07 4.382 54.07C6.16 54.07 7.392 55.414 7.392 57.612C7.392 59.796 6.16 61.168 4.382 61.168ZM4.116 60.23C5.474 60.23 6.286 59.11 6.286 57.612C6.286 56.114 5.474 55.008 4.116 55.008C3.29 55.008 2.464 55.498 2.1 56.086V59.138C2.464 59.726 3.29 60.23 4.116 60.23ZM10.1117 61H9.06172V54.238H10.1117V55.33C10.6577 54.616 11.4417 54.098 12.3657 54.098V55.176C12.2397 55.148 12.1137 55.134 11.9457 55.134C11.3017 55.134 10.4197 55.666 10.1117 56.212V61ZM16.6368 61.168C14.5788 61.168 13.2908 59.572 13.2908 57.612C13.2908 55.652 14.5788 54.07 16.6368 54.07C18.6948 54.07 19.9828 55.652 19.9828 57.612C19.9828 59.572 18.6948 61.168 16.6368 61.168ZM16.6368 60.23C18.0788 60.23 18.8768 58.998 18.8768 57.612C18.8768 56.24 18.0788 55.008 16.6368 55.008C15.1948 55.008 14.3828 56.24 14.3828 57.612C14.3828 58.998 15.1948 60.23 16.6368 60.23ZM27.6445 61H26.5945V59.992C26.0905 60.678 25.2645 61.168 24.3125 61.168C22.5485 61.168 21.3025 59.824 21.3025 57.626C21.3025 55.47 22.5345 54.07 24.3125 54.07C25.2225 54.07 26.0485 54.518 26.5945 55.26V51.662H27.6445V61ZM24.5645 60.23C25.4045 60.23 26.2165 59.754 26.5945 59.166V56.1C26.2165 55.512 25.4045 55.008 24.5645 55.008C23.2065 55.008 22.3945 56.128 22.3945 57.626C22.3945 59.124 23.2065 60.23 24.5645 60.23ZM35.3613 61H34.3113V60.048C33.7933 60.636 32.9113 61.168 31.9033 61.168C30.4893 61.168 29.7473 60.482 29.7473 59.012V54.238H30.7973V58.69C30.7973 59.88 31.3993 60.23 32.3093 60.23C33.1353 60.23 33.9193 59.754 34.3113 59.208V54.238H35.3613V61ZM40.4402 61.168C38.4242 61.168 37.0662 59.628 37.0662 57.612C37.0662 55.61 38.4242 54.07 40.4402 54.07C41.6722 54.07 42.4002 54.574 42.9182 55.246L42.2182 55.89C41.7702 55.274 41.1962 55.008 40.4962 55.008C39.0542 55.008 38.1582 56.114 38.1582 57.612C38.1582 59.11 39.0542 60.23 40.4962 60.23C41.1962 60.23 41.7702 59.95 42.2182 59.348L42.9182 59.992C42.4002 60.664 41.6722 61.168 40.4402 61.168ZM46.0978 61.168C45.1038 61.168 44.5998 60.594 44.5998 59.586V55.162H43.4798V54.238H44.5998V52.39H45.6498V54.238H47.0218V55.162H45.6498V59.362C45.6498 59.866 45.8738 60.23 46.3358 60.23C46.6298 60.23 46.9098 60.104 47.0498 59.95L47.3578 60.734C47.0918 60.986 46.7138 61.168 46.0978 61.168ZM51.4591 61.168C49.4011 61.168 48.1131 59.572 48.1131 57.612C48.1131 55.652 49.4011 54.07 51.4591 54.07C53.5171 54.07 54.8051 55.652 54.8051 57.612C54.8051 59.572 53.5171 61.168 51.4591 61.168ZM51.4591 60.23C52.9011 60.23 53.6991 58.998 53.6991 57.612C53.6991 56.24 52.9011 55.008 51.4591 55.008C50.0171 55.008 49.2051 56.24 49.2051 57.612C49.2051 58.998 50.0171 60.23 51.4591 60.23ZM66.0762 61H65.0262V59.992C64.5222 60.678 63.6962 61.168 62.7442 61.168C60.9802 61.168 59.7342 59.824 59.7342 57.626C59.7342 55.47 60.9662 54.07 62.7442 54.07C63.6542 54.07 64.4802 54.518 65.0262 55.26V51.662H66.0762V61ZM62.9962 60.23C63.8362 60.23 64.6482 59.754 65.0262 59.166V56.1C64.6482 55.512 63.8362 55.008 62.9962 55.008C61.6382 55.008 60.8262 56.128 60.8262 57.626C60.8262 59.124 61.6382 60.23 62.9962 60.23ZM71.2309 61.168C69.2289 61.168 67.7869 59.726 67.7869 57.612C67.7869 55.652 69.1869 54.07 71.1189 54.07C73.1629 54.07 74.3669 55.666 74.3669 57.696V57.962H68.8929C68.9769 59.236 69.8729 60.3 71.3289 60.3C72.0989 60.3 72.8829 59.992 73.4149 59.446L73.9189 60.132C73.2469 60.804 72.3369 61.168 71.2309 61.168ZM73.3309 57.192C73.3169 56.184 72.6449 54.938 71.1049 54.938C69.6629 54.938 68.9489 56.156 68.8929 57.192H73.3309ZM88.889 61H87.839V56.408C87.839 55.554 87.461 55.008 86.593 55.008C85.893 55.008 85.151 55.512 84.801 56.044V61H83.751V56.408C83.751 55.554 83.387 55.008 82.505 55.008C81.819 55.008 81.091 55.512 80.727 56.058V61H79.677V54.238H80.727V55.218C81.007 54.784 81.917 54.07 82.911 54.07C83.947 54.07 84.535 54.63 84.731 55.33C85.109 54.714 86.019 54.07 86.999 54.07C88.231 54.07 88.889 54.756 88.889 56.114V61ZM96.2616 61H95.2116V60.23C94.6516 60.846 93.8816 61.168 92.9716 61.168C91.8236 61.168 90.6056 60.398 90.6056 58.928C90.6056 57.416 91.8236 56.702 92.9716 56.702C93.8956 56.702 94.6656 56.996 95.2116 57.626V56.408C95.2116 55.498 94.4836 54.98 93.5036 54.98C92.6916 54.98 92.0336 55.274 91.4316 55.918L90.9416 55.19C91.6696 54.434 92.5376 54.07 93.6436 54.07C95.0716 54.07 96.2616 54.714 96.2616 56.352V61ZM93.3496 60.412C94.0916 60.412 94.8056 60.132 95.2116 59.572V58.298C94.8056 57.738 94.0916 57.458 93.3496 57.458C92.3696 57.458 91.6836 58.074 91.6836 58.942C91.6836 59.796 92.3696 60.412 93.3496 60.412ZM101.194 60.23C102.034 60.23 102.86 59.726 103.21 59.138V56.086C102.86 55.498 102.034 55.008 101.194 55.008C99.8364 55.008 99.0384 56.114 99.0384 57.612C99.0384 59.11 99.8364 60.23 101.194 60.23ZM100.942 61.168C99.1644 61.168 97.9324 59.796 97.9324 57.612C97.9324 55.414 99.1644 54.07 100.942 54.07C101.894 54.07 102.734 54.56 103.21 55.246V54.238H104.26V63.576H103.21V59.978C102.664 60.734 101.852 61.168 100.942 61.168ZM111.992 61H110.942V60.048C110.424 60.636 109.542 61.168 108.534 61.168C107.12 61.168 106.378 60.482 106.378 59.012V54.238H107.428V58.69C107.428 59.88 108.03 60.23 108.94 60.23C109.766 60.23 110.55 59.754 110.942 59.208V54.238H111.992V61ZM114.607 53.272C114.229 53.272 113.907 52.964 113.907 52.572C113.907 52.18 114.229 51.858 114.607 51.858C114.999 51.858 115.321 52.18 115.321 52.572C115.321 52.964 114.999 53.272 114.607 53.272ZM115.139 61H114.089V54.238H115.139V61ZM118.284 61H117.234V51.662H118.284V61ZM121.428 61H120.378V51.662H121.428V61ZM128.801 61H127.751V60.23C127.191 60.846 126.421 61.168 125.511 61.168C124.363 61.168 123.145 60.398 123.145 58.928C123.145 57.416 124.363 56.702 125.511 56.702C126.435 56.702 127.205 56.996 127.751 57.626V56.408C127.751 55.498 127.023 54.98 126.043 54.98C125.231 54.98 124.573 55.274 123.971 55.918L123.481 55.19C124.209 54.434 125.077 54.07 126.183 54.07C127.611 54.07 128.801 54.714 128.801 56.352V61ZM125.889 60.412C126.631 60.412 127.345 60.132 127.751 59.572V58.298C127.345 57.738 126.631 57.458 125.889 57.458C124.909 57.458 124.223 58.074 124.223 58.942C124.223 59.796 124.909 60.412 125.889 60.412ZM131.423 53.272C131.045 53.272 130.723 52.964 130.723 52.572C130.723 52.18 131.045 51.858 131.423 51.858C131.815 51.858 132.137 52.18 132.137 52.572C132.137 52.964 131.815 53.272 131.423 53.272ZM129.953 63.744C129.267 63.744 128.903 63.576 128.469 63.24L128.847 62.442C129.085 62.68 129.393 62.876 129.813 62.876C130.443 62.876 130.905 62.512 130.905 61.658V54.238H131.955V61.658C131.955 62.988 131.241 63.744 129.953 63.744ZM137.102 61.168C135.1 61.168 133.658 59.726 133.658 57.612C133.658 55.652 135.058 54.07 136.99 54.07C139.034 54.07 140.238 55.666 140.238 57.696V57.962H134.764C134.848 59.236 135.744 60.3 137.2 60.3C137.97 60.3 138.754 59.992 139.286 59.446L139.79 60.132C139.118 60.804 138.208 61.168 137.102 61.168ZM139.202 57.192C139.188 56.184 138.516 54.938 136.976 54.938C135.534 54.938 134.82 56.156 134.764 57.192H139.202ZM151.498 61H150.448V59.992C149.944 60.678 149.118 61.168 148.166 61.168C146.402 61.168 145.156 59.824 145.156 57.626C145.156 55.47 146.388 54.07 148.166 54.07C149.076 54.07 149.902 54.518 150.448 55.26V51.662H151.498V61ZM148.418 60.23C149.258 60.23 150.07 59.754 150.448 59.166V56.1C150.07 55.512 149.258 55.008 148.418 55.008C147.06 55.008 146.248 56.128 146.248 57.626C146.248 59.124 147.06 60.23 148.418 60.23ZM156.653 61.168C154.651 61.168 153.209 59.726 153.209 57.612C153.209 55.652 154.609 54.07 156.541 54.07C158.585 54.07 159.789 55.666 159.789 57.696V57.962H154.315C154.399 59.236 155.295 60.3 156.751 60.3C157.521 60.3 158.305 59.992 158.837 59.446L159.341 60.132C158.669 60.804 157.759 61.168 156.653 61.168ZM158.753 57.192C158.739 56.184 158.067 54.938 156.527 54.938C155.085 54.938 154.371 56.156 154.315 57.192H158.753ZM166.807 61.168C165.813 61.168 165.309 60.594 165.309 59.586V55.162H164.189V54.238H165.309V52.39H166.359V54.238H167.731V55.162H166.359V59.362C166.359 59.866 166.583 60.23 167.045 60.23C167.339 60.23 167.619 60.104 167.759 59.95L168.067 60.734C167.801 60.986 167.423 61.168 166.807 61.168ZM174.828 61H173.778V60.048C173.26 60.636 172.378 61.168 171.37 61.168C169.956 61.168 169.214 60.482 169.214 59.012V54.238H170.264V58.69C170.264 59.88 170.866 60.23 171.776 60.23C172.602 60.23 173.386 59.754 173.778 59.208V54.238H174.828V61ZM183.516 61.168C181.5 61.168 180.142 59.628 180.142 57.612C180.142 55.61 181.5 54.07 183.516 54.07C184.748 54.07 185.476 54.574 185.994 55.246L185.294 55.89C184.846 55.274 184.272 55.008 183.572 55.008C182.13 55.008 181.234 56.114 181.234 57.612C181.234 59.11 182.13 60.23 183.572 60.23C184.272 60.23 184.846 59.95 185.294 59.348L185.994 59.992C185.476 60.664 184.748 61.168 183.516 61.168ZM192.744 61H191.694V60.23C191.134 60.846 190.364 61.168 189.454 61.168C188.306 61.168 187.088 60.398 187.088 58.928C187.088 57.416 188.306 56.702 189.454 56.702C190.378 56.702 191.148 56.996 191.694 57.626V56.408C191.694 55.498 190.966 54.98 189.986 54.98C189.174 54.98 188.516 55.274 187.914 55.918L187.424 55.19C188.152 54.434 189.02 54.07 190.126 54.07C191.554 54.07 192.744 54.714 192.744 56.352V61ZM189.832 60.412C190.574 60.412 191.288 60.132 191.694 59.572V58.298C191.288 57.738 190.574 57.458 189.832 57.458C188.852 57.458 188.166 58.074 188.166 58.942C188.166 59.796 188.852 60.412 189.832 60.412ZM195.899 61H194.849V54.238H195.899V55.33C196.445 54.616 197.229 54.098 198.153 54.098V55.176C198.027 55.148 197.901 55.134 197.733 55.134C197.089 55.134 196.207 55.666 195.899 56.212V61ZM204.748 61H203.698V60.23C203.138 60.846 202.368 61.168 201.458 61.168C200.31 61.168 199.092 60.398 199.092 58.928C199.092 57.416 200.31 56.702 201.458 56.702C202.382 56.702 203.152 56.996 203.698 57.626V56.408C203.698 55.498 202.97 54.98 201.99 54.98C201.178 54.98 200.52 55.274 199.918 55.918L199.428 55.19C200.156 54.434 201.024 54.07 202.13 54.07C203.558 54.07 204.748 54.714 204.748 56.352V61ZM201.836 60.412C202.578 60.412 203.292 60.132 203.698 59.572V58.298C203.292 57.738 202.578 57.458 201.836 57.458C200.856 57.458 200.17 58.074 200.17 58.942C200.17 59.796 200.856 60.412 201.836 60.412ZM215.74 61H214.69V60.23C214.13 60.846 213.36 61.168 212.45 61.168C211.302 61.168 210.084 60.398 210.084 58.928C210.084 57.416 211.302 56.702 212.45 56.702C213.374 56.702 214.144 56.996 214.69 57.626V56.408C214.69 55.498 213.962 54.98 212.982 54.98C212.17 54.98 211.512 55.274 210.91 55.918L210.42 55.19C211.148 54.434 212.016 54.07 213.122 54.07C214.55 54.07 215.74 54.714 215.74 56.352V61ZM212.828 60.412C213.57 60.412 214.284 60.132 214.69 59.572V58.298C214.284 57.738 213.57 57.458 212.828 57.458C211.848 57.458 211.162 58.074 211.162 58.942C211.162 59.796 211.848 60.412 212.828 60.412ZM223.459 61H222.409V56.576C222.409 55.386 221.807 55.008 220.897 55.008C220.071 55.008 219.287 55.512 218.895 56.058V61H217.845V54.238H218.895V55.218C219.371 54.658 220.295 54.07 221.303 54.07C222.717 54.07 223.459 54.784 223.459 56.254V61ZM227.264 61.168C226.27 61.168 225.766 60.594 225.766 59.586V55.162H224.646V54.238H225.766V52.39H226.816V54.238H228.188V55.162H226.816V59.362C226.816 59.866 227.04 60.23 227.502 60.23C227.796 60.23 228.076 60.104 228.216 59.95L228.524 60.734C228.258 60.986 227.88 61.168 227.264 61.168ZM232.723 61.168C230.721 61.168 229.279 59.726 229.279 57.612C229.279 55.652 230.679 54.07 232.611 54.07C234.655 54.07 235.859 55.666 235.859 57.696V57.962H230.385C230.469 59.236 231.365 60.3 232.821 60.3C233.591 60.3 234.375 59.992 234.907 59.446L235.411 60.132C234.739 60.804 233.829 61.168 232.723 61.168ZM234.823 57.192C234.809 56.184 234.137 54.938 232.597 54.938C231.155 54.938 230.441 56.156 230.385 57.192H234.823ZM239.702 61.168C238.596 61.168 237.658 60.832 236.972 60.104L237.518 59.348C237.966 59.866 238.82 60.314 239.744 60.314C240.78 60.314 241.34 59.824 241.34 59.152C241.34 57.514 237.154 58.522 237.154 56.016C237.154 54.966 238.064 54.07 239.674 54.07C240.822 54.07 241.634 54.504 242.18 55.05L241.69 55.778C241.284 55.288 240.542 54.924 239.674 54.924C238.75 54.924 238.176 55.386 238.176 55.988C238.176 57.472 242.362 56.492 242.362 59.124C242.362 60.258 241.452 61.168 239.702 61.168ZM253.627 61H252.577V59.992C252.073 60.678 251.247 61.168 250.295 61.168C248.531 61.168 247.285 59.824 247.285 57.626C247.285 55.47 248.517 54.07 250.295 54.07C251.205 54.07 252.031 54.518 252.577 55.26V51.662H253.627V61ZM250.547 60.23C251.387 60.23 252.199 59.754 252.577 59.166V56.1C252.199 55.512 251.387 55.008 250.547 55.008C249.189 55.008 248.377 56.128 248.377 57.626C248.377 59.124 249.189 60.23 250.547 60.23ZM258.782 61.168C256.78 61.168 255.338 59.726 255.338 57.612C255.338 55.652 256.738 54.07 258.67 54.07C260.714 54.07 261.918 55.666 261.918 57.696V57.962H256.444C256.528 59.236 257.424 60.3 258.88 60.3C259.65 60.3 260.434 59.992 260.966 59.446L261.47 60.132C260.798 60.804 259.888 61.168 258.782 61.168ZM260.882 57.192C260.868 56.184 260.196 54.938 258.656 54.938C257.214 54.938 256.5 56.156 256.444 57.192H260.882ZM268.278 61H267.228V51.662H268.278V61ZM275.65 61H274.6V60.23C274.04 60.846 273.27 61.168 272.36 61.168C271.212 61.168 269.994 60.398 269.994 58.928C269.994 57.416 271.212 56.702 272.36 56.702C273.284 56.702 274.054 56.996 274.6 57.626V56.408C274.6 55.498 273.872 54.98 272.892 54.98C272.08 54.98 271.422 55.274 270.82 55.918L270.33 55.19C271.058 54.434 271.926 54.07 273.032 54.07C274.46 54.07 275.65 54.714 275.65 56.352V61ZM272.738 60.412C273.48 60.412 274.194 60.132 274.6 59.572V58.298C274.194 57.738 273.48 57.458 272.738 57.458C271.758 57.458 271.072 58.074 271.072 58.942C271.072 59.796 271.758 60.412 272.738 60.412ZM10.262 78H9.212V73.408C9.212 72.554 8.834 72.008 7.966 72.008C7.266 72.008 6.524 72.512 6.174 73.044V78H5.124V73.408C5.124 72.554 4.76 72.008 3.878 72.008C3.192 72.008 2.464 72.512 2.1 73.058V78H1.05V71.238H2.1V72.218C2.38 71.784 3.29 71.07 4.284 71.07C5.32 71.07 5.908 71.63 6.104 72.33C6.482 71.714 7.392 71.07 8.372 71.07C9.604 71.07 10.262 71.756 10.262 73.114V78ZM15.4086 78.168C13.4066 78.168 11.9646 76.726 11.9646 74.612C11.9646 72.652 13.3646 71.07 15.2966 71.07C17.3406 71.07 18.5446 72.666 18.5446 74.696V74.962H13.0706C13.1546 76.236 14.0506 77.3 15.5066 77.3C16.2766 77.3 17.0606 76.992 17.5926 76.446L18.0966 77.132C17.4246 77.804 16.5146 78.168 15.4086 78.168ZM17.5086 74.192C17.4946 73.184 16.8226 71.938 15.2826 71.938C13.8406 71.938 13.1266 73.156 13.0706 74.192H17.5086ZM26.1953 78H25.1453V76.992C24.6413 77.678 23.8153 78.168 22.8633 78.168C21.0993 78.168 19.8533 76.824 19.8533 74.626C19.8533 72.47 21.0853 71.07 22.8633 71.07C23.7733 71.07 24.5993 71.518 25.1453 72.26V68.662H26.1953V78ZM23.1153 77.23C23.9553 77.23 24.7673 76.754 25.1453 76.166V73.1C24.7673 72.512 23.9553 72.008 23.1153 72.008C21.7573 72.008 20.9453 73.128 20.9453 74.626C20.9453 76.124 21.7573 77.23 23.1153 77.23ZM28.816 70.272C28.438 70.272 28.116 69.964 28.116 69.572C28.116 69.18 28.438 68.858 28.816 68.858C29.208 68.858 29.53 69.18 29.53 69.572C29.53 69.964 29.208 70.272 28.816 70.272ZM29.348 78H28.298V71.238H29.348V78ZM34.4246 78.168C32.4086 78.168 31.0506 76.628 31.0506 74.612C31.0506 72.61 32.4086 71.07 34.4246 71.07C35.6566 71.07 36.3846 71.574 36.9026 72.246L36.2026 72.89C35.7546 72.274 35.1806 72.008 34.4806 72.008C33.0386 72.008 32.1426 73.114 32.1426 74.612C32.1426 76.11 33.0386 77.23 34.4806 77.23C35.1806 77.23 35.7546 76.95 36.2026 76.348L36.9026 76.992C36.3846 77.664 35.6566 78.168 34.4246 78.168ZM38.8922 70.272C38.5142 70.272 38.1922 69.964 38.1922 69.572C38.1922 69.18 38.5142 68.858 38.8922 68.858C39.2842 68.858 39.6062 69.18 39.6062 69.572C39.6062 69.964 39.2842 70.272 38.8922 70.272ZM39.4242 78H38.3742V71.238H39.4242V78ZM46.8388 68.2L44.4728 70.216H43.6748L45.7468 68.2H46.8388ZM44.4728 78.168C42.4148 78.168 41.1268 76.572 41.1268 74.612C41.1268 72.652 42.4148 71.07 44.4728 71.07C46.5308 71.07 47.8188 72.652 47.8188 74.612C47.8188 76.572 46.5308 78.168 44.4728 78.168ZM44.4728 77.23C45.9148 77.23 46.7128 75.998 46.7128 74.612C46.7128 73.24 45.9148 72.008 44.4728 72.008C43.0308 72.008 42.2188 73.24 42.2188 74.612C42.2188 75.998 43.0308 77.23 44.4728 77.23ZM55.1445 78H54.0945V73.576C54.0945 72.386 53.4925 72.008 52.5825 72.008C51.7565 72.008 50.9725 72.512 50.5805 73.058V78H49.5305V71.238H50.5805V72.218C51.0565 71.658 51.9805 71.07 52.9885 71.07C54.4025 71.07 55.1445 71.784 55.1445 73.254V78ZM57.8014 78.14C57.3814 78.14 57.0314 77.79 57.0314 77.37C57.0314 76.95 57.3814 76.6 57.8014 76.6C58.2214 76.6 58.5714 76.95 58.5714 77.37C58.5714 77.79 58.2214 78.14 57.8014 78.14Z" fill="#212121"/>
</svg>
