<svg width="310" height="83" viewBox="0 0 310 83" fill="none" xmlns="http://www.w3.org/2000/svg">
<path d="M1.25424 10H0.0922442V0.661999H6.21024V1.698H1.25424V4.708H6.11224V5.744H1.25424V10ZM10.8272 10.168C8.81118 10.168 7.36918 8.726 7.36918 6.612C7.36918 4.652 8.76918 3.07 10.7012 3.07C12.7452 3.07 13.9492 4.666 13.9492 6.696V6.962H8.48918C8.57318 8.236 9.45518 9.3 10.9112 9.3C11.6952 9.3 12.4652 8.992 13.0112 8.432L13.5152 9.118C12.8292 9.79 11.9192 10.168 10.8272 10.168ZM12.9132 6.178C12.8992 5.184 12.2272 3.938 10.6872 3.938C9.24518 3.938 8.53118 5.156 8.47518 6.178H12.9132ZM20.9279 10H19.8779V9.23C19.3319 9.846 18.5479 10.168 17.6379 10.168C16.5039 10.168 15.2859 9.398 15.2859 7.928C15.2859 6.402 16.4899 5.702 17.6379 5.702C18.5619 5.702 19.3319 5.996 19.8779 6.612V5.394C19.8779 4.498 19.1499 3.98 18.1699 3.98C17.3579 3.98 16.6999 4.26 16.0979 4.918L15.6079 4.19C16.3359 3.434 17.2039 3.07 18.3099 3.07C19.7519 3.07 20.9279 3.714 20.9279 5.352V10ZM18.0299 9.412C18.7579 9.412 19.4719 9.132 19.8779 8.572V7.284C19.4719 6.738 18.7579 6.458 18.0299 6.458C17.0359 6.458 16.3499 7.074 16.3499 7.928C16.3499 8.796 17.0359 9.412 18.0299 9.412ZM24.7683 10.168C23.7603 10.168 23.2563 9.594 23.2563 8.586V4.162H22.1363V3.238H23.2563V1.39H24.3203V3.238H25.6923V4.162H24.3203V8.362C24.3203 8.866 24.5443 9.23 24.9923 9.23C25.3003 9.23 25.5663 9.09 25.7063 8.936L26.0143 9.734C25.7483 9.986 25.3703 10.168 24.7683 10.168ZM32.7756 10H31.7256V9.048C31.2076 9.636 30.3256 10.168 29.3176 10.168C27.9036 10.168 27.1616 9.468 27.1616 8.012V3.238H28.2116V7.69C28.2116 8.88 28.8136 9.23 29.7376 9.23C30.5496 9.23 31.3336 8.754 31.7256 8.208V3.238H32.7756V10ZM35.9225 10H34.8725V3.238H35.9225V4.316C36.4685 3.616 37.2525 3.084 38.1765 3.084V4.162C38.0505 4.148 37.9245 4.134 37.7705 4.134C37.1125 4.134 36.2305 4.666 35.9225 5.212V10ZM42.5596 10.168C40.5436 10.168 39.1016 8.726 39.1016 6.612C39.1016 4.652 40.5016 3.07 42.4336 3.07C44.4776 3.07 45.6816 4.666 45.6816 6.696V6.962H40.2216C40.3056 8.236 41.1876 9.3 42.6436 9.3C43.4276 9.3 44.1976 8.992 44.7436 8.432L45.2476 9.118C44.5616 9.79 43.6516 10.168 42.5596 10.168ZM44.6456 6.178C44.6316 5.184 43.9596 3.938 42.4196 3.938C40.9776 3.938 40.2636 5.156 40.2076 6.178H44.6456ZM49.5383 10.168C48.4183 10.168 47.4943 9.818 46.8083 9.104L47.3403 8.348C47.7883 8.866 48.6423 9.314 49.5663 9.314C50.6023 9.314 51.1763 8.824 51.1763 8.152C51.1763 6.514 46.9903 7.522 46.9903 5.016C46.9903 3.952 47.8863 3.07 49.4963 3.07C50.6583 3.07 51.4703 3.504 52.0023 4.05L51.5123 4.778C51.1063 4.288 50.3783 3.924 49.4963 3.924C48.5723 3.924 47.9983 4.386 47.9983 4.988C47.9983 6.458 52.1843 5.492 52.1843 8.124C52.1843 9.258 51.2743 10.168 49.5383 10.168ZM57.1491 12.646L57.3031 11.694C57.4571 11.764 57.7091 11.806 57.8771 11.806C58.3391 11.806 58.6471 11.652 58.8851 11.092L59.3331 10.07L56.5051 3.238H57.6531L59.8931 8.782L62.1471 3.238H63.2811L59.8931 11.372C59.4871 12.352 58.8011 12.73 57.9051 12.744C57.6811 12.744 57.3311 12.702 57.1491 12.646ZM67.3304 10.168C65.2724 10.168 63.9844 8.572 63.9844 6.612C63.9844 4.652 65.2724 3.07 67.3304 3.07C69.3884 3.07 70.6764 4.652 70.6764 6.612C70.6764 8.572 69.3884 10.168 67.3304 10.168ZM67.3304 9.23C68.7724 9.23 69.5704 7.998 69.5704 6.612C69.5704 5.24 68.7724 4.008 67.3304 4.008C65.8884 4.008 65.0904 5.24 65.0904 6.612C65.0904 7.998 65.8884 9.23 67.3304 9.23ZM78.0021 10H76.9521V9.048C76.4341 9.636 75.5521 10.168 74.5441 10.168C73.1301 10.168 72.3881 9.468 72.3881 8.012V3.238H73.4381V7.69C73.4381 8.88 74.0401 9.23 74.9641 9.23C75.7761 9.23 76.5601 8.754 76.9521 8.208V3.238H78.0021V10ZM81.1491 10H80.0991V3.238H81.1491V4.316C81.6951 3.616 82.4791 3.084 83.4031 3.084V4.162C83.2771 4.148 83.1511 4.134 82.9971 4.134C82.3391 4.134 81.4571 4.666 81.1491 5.212V10ZM97.5552 10H96.5052V5.408C96.5052 4.554 96.1412 4.008 95.2592 4.008C94.5592 4.008 93.8172 4.498 93.4672 5.044V10H92.4172V5.408C92.4172 4.554 92.0672 4.008 91.1712 4.008C90.4852 4.008 89.7572 4.512 89.3932 5.058V10H88.3432V3.238H89.3932V4.218C89.6872 3.784 90.5832 3.07 91.5912 3.07C92.6132 3.07 93.2012 3.63 93.3972 4.33C93.7752 3.714 94.6852 3.07 95.6652 3.07C96.8972 3.07 97.5552 3.756 97.5552 5.114V10ZM102.604 10.168C100.546 10.168 99.2579 8.572 99.2579 6.612C99.2579 4.652 100.546 3.07 102.604 3.07C104.662 3.07 105.95 4.652 105.95 6.612C105.95 8.572 104.662 10.168 102.604 10.168ZM102.604 9.23C104.046 9.23 104.844 7.998 104.844 6.612C104.844 5.24 104.046 4.008 102.604 4.008C101.162 4.008 100.364 5.24 100.364 6.612C100.364 7.998 101.162 9.23 102.604 9.23ZM108.712 8.166C109.076 8.754 109.902 9.23 110.742 9.23C112.1 9.23 112.912 8.124 112.912 6.626C112.912 5.128 112.1 4.008 110.742 4.008C109.902 4.008 109.076 4.512 108.712 5.1V8.166ZM108.712 10H107.662V0.661999H108.712V4.26C109.258 3.518 110.084 3.07 110.994 3.07C112.772 3.07 114.004 4.456 114.004 6.626C114.004 8.824 112.758 10.168 110.994 10.168C110.042 10.168 109.216 9.678 108.712 8.992V10ZM116.246 2.272C115.854 2.272 115.532 1.964 115.532 1.572C115.532 1.18 115.854 0.857999 116.246 0.857999C116.638 0.857999 116.946 1.18 116.946 1.572C116.946 1.964 116.638 2.272 116.246 2.272ZM116.764 10H115.714V3.238H116.764V10ZM119.909 10H118.859V0.661999H119.909V10ZM125.069 10.168C123.053 10.168 121.611 8.726 121.611 6.612C121.611 4.652 123.011 3.07 124.943 3.07C126.987 3.07 128.191 4.666 128.191 6.696V6.962H122.731C122.815 8.236 123.697 9.3 125.153 9.3C125.937 9.3 126.707 8.992 127.253 8.432L127.757 9.118C127.071 9.79 126.161 10.168 125.069 10.168ZM127.155 6.178C127.141 5.184 126.469 3.938 124.929 3.938C123.487 3.938 122.773 5.156 122.717 6.178H127.155ZM139.465 10H138.415V8.992C137.911 9.678 137.085 10.168 136.133 10.168C134.369 10.168 133.123 8.824 133.123 6.626C133.123 4.456 134.369 3.07 136.133 3.07C137.043 3.07 137.869 3.518 138.415 4.26V0.661999H139.465V10ZM136.399 9.23C137.225 9.23 138.051 8.74 138.415 8.152V5.1C138.051 4.512 137.225 4.008 136.399 4.008C135.027 4.008 134.215 5.128 134.215 6.626C134.215 8.124 135.027 9.23 136.399 9.23ZM144.634 10.168C142.618 10.168 141.176 8.726 141.176 6.612C141.176 4.652 142.576 3.07 144.508 3.07C146.552 3.07 147.756 4.666 147.756 6.696V6.962H142.296C142.38 8.236 143.262 9.3 144.718 9.3C145.502 9.3 146.272 8.992 146.818 8.432L147.322 9.118C146.636 9.79 145.726 10.168 144.634 10.168ZM146.72 6.178C146.706 5.184 146.034 3.938 144.494 3.938C143.052 3.938 142.338 5.156 142.282 6.178H146.72ZM152.41 10H151.262L148.448 3.238H149.596L151.836 8.782L154.09 3.238H155.224L152.41 10ZM156.852 2.272C156.46 2.272 156.138 1.964 156.138 1.572C156.138 1.18 156.46 0.857999 156.852 0.857999C157.244 0.857999 157.552 1.18 157.552 1.572C157.552 1.964 157.244 2.272 156.852 2.272ZM157.37 10H156.32V3.238H157.37V10ZM162.446 10.168C160.43 10.168 159.072 8.614 159.072 6.612C159.072 4.61 160.43 3.07 162.446 3.07C163.678 3.07 164.406 3.574 164.924 4.246L164.224 4.876C163.776 4.26 163.202 4.008 162.502 4.008C161.074 4.008 160.164 5.114 160.164 6.612C160.164 8.11 161.074 9.23 162.502 9.23C163.202 9.23 163.776 8.95 164.224 8.348L164.924 8.992C164.406 9.664 163.678 10.168 162.446 10.168ZM169.476 10.168C167.46 10.168 166.018 8.726 166.018 6.612C166.018 4.652 167.418 3.07 169.35 3.07C171.394 3.07 172.598 4.666 172.598 6.696V6.962H167.138C167.222 8.236 168.104 9.3 169.56 9.3C170.344 9.3 171.114 8.992 171.66 8.432L172.164 9.118C171.478 9.79 170.568 10.168 169.476 10.168ZM171.562 6.178C171.548 5.184 170.876 3.938 169.336 3.938C167.894 3.938 167.18 5.156 167.124 6.178H171.562ZM180.077 10.168C178.957 10.168 178.033 9.818 177.347 9.104L177.879 8.348C178.327 8.866 179.181 9.314 180.105 9.314C181.141 9.314 181.715 8.824 181.715 8.152C181.715 6.514 177.529 7.522 177.529 5.016C177.529 3.952 178.425 3.07 180.035 3.07C181.197 3.07 182.009 3.504 182.541 4.05L182.051 4.778C181.645 4.288 180.917 3.924 180.035 3.924C179.111 3.924 178.537 4.386 178.537 4.988C178.537 6.458 182.723 5.492 182.723 8.124C182.723 9.258 181.813 10.168 180.077 10.168ZM190.057 10H189.007V5.548C189.007 4.344 188.405 4.008 187.481 4.008C186.669 4.008 185.885 4.512 185.493 5.058V10H184.443V0.661999H185.493V4.218C185.955 3.644 186.879 3.07 187.901 3.07C189.315 3.07 190.057 3.756 190.057 5.226V10ZM195.108 10.168C193.05 10.168 191.762 8.572 191.762 6.612C191.762 4.652 193.05 3.07 195.108 3.07C197.166 3.07 198.454 4.652 198.454 6.612C198.454 8.572 197.166 10.168 195.108 10.168ZM195.108 9.23C196.55 9.23 197.348 7.998 197.348 6.612C197.348 5.24 196.55 4.008 195.108 4.008C193.666 4.008 192.868 5.24 192.868 6.612C192.868 7.998 193.666 9.23 195.108 9.23ZM205.779 10H204.729V9.048C204.211 9.636 203.329 10.168 202.321 10.168C200.907 10.168 200.165 9.468 200.165 8.012V3.238H201.215V7.69C201.215 8.88 201.817 9.23 202.741 9.23C203.553 9.23 204.337 8.754 204.729 8.208V3.238H205.779V10ZM208.926 10H207.876V0.661999H208.926V10ZM216.971 10H215.921V8.992C215.417 9.678 214.591 10.168 213.639 10.168C211.875 10.168 210.629 8.824 210.629 6.626C210.629 4.456 211.875 3.07 213.639 3.07C214.549 3.07 215.375 3.518 215.921 4.26V0.661999H216.971V10ZM213.905 9.23C214.731 9.23 215.557 8.74 215.921 8.152V5.1C215.557 4.512 214.731 4.008 213.905 4.008C212.533 4.008 211.721 5.128 211.721 6.626C211.721 8.124 212.533 9.23 213.905 9.23ZM228.325 10H227.275V5.548C227.275 4.344 226.673 4.008 225.749 4.008C224.937 4.008 224.153 4.512 223.761 5.058V10H222.711V0.661999H223.761V4.218C224.223 3.644 225.147 3.07 226.169 3.07C227.583 3.07 228.325 3.756 228.325 5.226V10ZM235.699 10H234.649V9.23C234.103 9.846 233.319 10.168 232.409 10.168C231.275 10.168 230.057 9.398 230.057 7.928C230.057 6.402 231.261 5.702 232.409 5.702C233.333 5.702 234.103 5.996 234.649 6.612V5.394C234.649 4.498 233.921 3.98 232.941 3.98C232.129 3.98 231.471 4.26 230.869 4.918L230.379 4.19C231.107 3.434 231.975 3.07 233.081 3.07C234.523 3.07 235.699 3.714 235.699 5.352V10ZM232.801 9.412C233.529 9.412 234.243 9.132 234.649 8.572V7.284C234.243 6.738 233.529 6.458 232.801 6.458C231.807 6.458 231.121 7.074 231.121 7.928C231.121 8.796 231.807 9.412 232.801 9.412ZM240.772 10H239.624L236.81 3.238H237.958L240.198 8.782L242.452 3.238H243.586L240.772 10ZM247.747 10.168C245.731 10.168 244.289 8.726 244.289 6.612C244.289 4.652 245.689 3.07 247.621 3.07C249.665 3.07 250.869 4.666 250.869 6.696V6.962H245.409C245.493 8.236 246.375 9.3 247.831 9.3C248.615 9.3 249.385 8.992 249.931 8.432L250.435 9.118C249.749 9.79 248.839 10.168 247.747 10.168ZM249.833 6.178C249.819 5.184 249.147 3.938 247.607 3.938C246.165 3.938 245.451 5.156 245.395 6.178H249.833ZM253.13 4.68C252.71 4.68 252.36 4.316 252.36 3.91C252.36 3.49 252.71 3.14 253.13 3.14C253.55 3.14 253.9 3.49 253.9 3.91C253.9 4.316 253.55 4.68 253.13 4.68ZM253.13 10.14C252.71 10.14 252.36 9.79 252.36 9.37C252.36 8.95 252.71 8.6 253.13 8.6C253.55 8.6 253.9 8.95 253.9 9.37C253.9 9.79 253.55 10.14 253.13 10.14ZM11.0235 20.612C11.0235 21.424 10.3375 22.11 9.51146 22.11C8.68546 22.11 7.99946 21.424 7.99946 20.612C7.99946 19.786 8.68546 19.1 9.51146 19.1C10.3375 19.1 11.0235 19.786 11.0235 20.612ZM22.2542 24H21.0922V14.662H22.2542V24ZM30.0139 24H28.9779V19.576C28.9779 18.372 28.3619 18.008 27.4519 18.008C26.6259 18.008 25.8559 18.512 25.4499 19.058V24H24.3999V17.238H25.4499V18.218C25.9259 17.644 26.8499 17.07 27.8719 17.07C29.2719 17.07 30.0139 17.784 30.0139 19.254V24ZM33.8465 24.168C32.8385 24.168 32.3345 23.594 32.3345 22.586V18.162H31.2145V17.238H32.3345V15.39H33.3985V17.238H34.7705V18.162H33.3985V22.362C33.3985 22.866 33.6225 23.23 34.0705 23.23C34.3785 23.23 34.6445 23.09 34.7845 22.936L35.0925 23.734C34.8265 23.986 34.4485 24.168 33.8465 24.168ZM39.3057 24.168C37.2897 24.168 35.8477 22.726 35.8477 20.612C35.8477 18.652 37.2477 17.07 39.1797 17.07C41.2237 17.07 42.4277 18.666 42.4277 20.696V20.962H36.9677C37.0517 22.236 37.9337 23.3 39.3897 23.3C40.1737 23.3 40.9437 22.992 41.4897 22.432L41.9937 23.118C41.3077 23.79 40.3977 24.168 39.3057 24.168ZM41.3917 20.178C41.3777 19.184 40.7057 17.938 39.1657 17.938C37.7237 17.938 37.0097 19.156 36.9537 20.178H41.3917ZM45.1784 24H44.1284V17.238H45.1784V18.316C45.7244 17.616 46.5084 17.084 47.4324 17.084V18.162C47.3064 18.148 47.1804 18.134 47.0264 18.134C46.3684 18.134 45.4864 18.666 45.1784 19.212V24ZM54.3635 24H53.3275V19.576C53.3275 18.372 52.7115 18.008 51.8015 18.008C50.9755 18.008 50.2055 18.512 49.7995 19.058V24H48.7495V17.238H49.7995V18.218C50.2755 17.644 51.1995 17.07 52.2215 17.07C53.6215 17.07 54.3635 17.784 54.3635 19.254V24ZM59.5401 24.168C57.5241 24.168 56.0821 22.726 56.0821 20.612C56.0821 18.652 57.4821 17.07 59.4141 17.07C61.4581 17.07 62.6621 18.666 62.6621 20.696V20.962H57.2021C57.2861 22.236 58.1681 23.3 59.6241 23.3C60.4081 23.3 61.1781 22.992 61.7241 22.432L62.2281 23.118C61.5421 23.79 60.6321 24.168 59.5401 24.168ZM61.6261 20.178C61.6121 19.184 60.9401 17.938 59.4001 17.938C57.9581 17.938 57.2441 19.156 57.1881 20.178H61.6261ZM66.0847 24.168C65.0767 24.168 64.5727 23.594 64.5727 22.586V18.162H63.4527V17.238H64.5727V15.39H65.6367V17.238H67.0087V18.162H65.6367V22.362C65.6367 22.866 65.8607 23.23 66.3087 23.23C66.6167 23.23 66.8827 23.09 67.0227 22.936L67.3307 23.734C67.0647 23.986 66.6867 24.168 66.0847 24.168ZM75.083 24.168C73.067 24.168 71.709 22.614 71.709 20.612C71.709 18.61 73.067 17.07 75.083 17.07C76.315 17.07 77.043 17.574 77.561 18.246L76.861 18.876C76.413 18.26 75.839 18.008 75.139 18.008C73.711 18.008 72.801 19.114 72.801 20.612C72.801 22.11 73.711 23.23 75.139 23.23C75.839 23.23 76.413 22.95 76.861 22.348L77.561 22.992C77.043 23.664 76.315 24.168 75.083 24.168ZM82.0003 24.168C79.9423 24.168 78.6543 22.572 78.6543 20.612C78.6543 18.652 79.9423 17.07 82.0003 17.07C84.0583 17.07 85.3463 18.652 85.3463 20.612C85.3463 22.572 84.0583 24.168 82.0003 24.168ZM82.0003 23.23C83.4423 23.23 84.2403 21.998 84.2403 20.612C84.2403 19.24 83.4423 18.008 82.0003 18.008C80.5583 18.008 79.7603 19.24 79.7603 20.612C79.7603 21.998 80.5583 23.23 82.0003 23.23ZM92.6721 24H91.6361V19.576C91.6361 18.372 91.0201 18.008 90.1101 18.008C89.2841 18.008 88.5141 18.512 88.1081 19.058V24H87.0581V17.238H88.1081V18.218C88.5841 17.644 89.5081 17.07 90.5301 17.07C91.9301 17.07 92.6721 17.784 92.6721 19.254V24ZM100.397 24H99.3607V19.576C99.3607 18.372 98.7447 18.008 97.8347 18.008C97.0087 18.008 96.2387 18.512 95.8327 19.058V24H94.7827V17.238H95.8327V18.218C96.3087 17.644 97.2327 17.07 98.2547 17.07C99.6547 17.07 100.397 17.784 100.397 19.254V24ZM105.573 24.168C103.557 24.168 102.115 22.726 102.115 20.612C102.115 18.652 103.515 17.07 105.447 17.07C107.491 17.07 108.695 18.666 108.695 20.696V20.962H103.235C103.319 22.236 104.201 23.3 105.657 23.3C106.441 23.3 107.211 22.992 107.757 22.432L108.261 23.118C107.575 23.79 106.665 24.168 105.573 24.168ZM107.659 20.178C107.645 19.184 106.973 17.938 105.433 17.938C103.991 17.938 103.277 19.156 103.221 20.178H107.659ZM113.378 24.168C111.362 24.168 110.004 22.614 110.004 20.612C110.004 18.61 111.362 17.07 113.378 17.07C114.61 17.07 115.338 17.574 115.856 18.246L115.156 18.876C114.708 18.26 114.134 18.008 113.434 18.008C112.006 18.008 111.096 19.114 111.096 20.612C111.096 22.11 112.006 23.23 113.434 23.23C114.134 23.23 114.708 22.95 115.156 22.348L115.856 22.992C115.338 23.664 114.61 24.168 113.378 24.168ZM119.063 24.168C118.055 24.168 117.551 23.594 117.551 22.586V18.162H116.431V17.238H117.551V15.39H118.615V17.238H119.987V18.162H118.615V22.362C118.615 22.866 118.839 23.23 119.287 23.23C119.595 23.23 119.861 23.09 120.001 22.936L120.309 23.734C120.043 23.986 119.665 24.168 119.063 24.168ZM121.988 16.272C121.596 16.272 121.274 15.964 121.274 15.572C121.274 15.18 121.596 14.858 121.988 14.858C122.38 14.858 122.688 15.18 122.688 15.572C122.688 15.964 122.38 16.272 121.988 16.272ZM122.506 24H121.456V17.238H122.506V24ZM127.555 24.168C125.497 24.168 124.209 22.572 124.209 20.612C124.209 18.652 125.497 17.07 127.555 17.07C129.613 17.07 130.901 18.652 130.901 20.612C130.901 22.572 129.613 24.168 127.555 24.168ZM127.555 23.23C128.997 23.23 129.795 21.998 129.795 20.612C129.795 19.24 128.997 18.008 127.555 18.008C126.113 18.008 125.315 19.24 125.315 20.612C125.315 21.998 126.113 23.23 127.555 23.23ZM138.227 24H137.191V19.576C137.191 18.372 136.575 18.008 135.665 18.008C134.839 18.008 134.069 18.512 133.663 19.058V24H132.613V17.238H133.663V18.218C134.139 17.644 135.063 17.07 136.085 17.07C137.485 17.07 138.227 17.784 138.227 19.254V24ZM146.914 24.168C144.856 24.168 143.568 22.572 143.568 20.612C143.568 18.652 144.856 17.07 146.914 17.07C148.972 17.07 150.26 18.652 150.26 20.612C150.26 22.572 148.972 24.168 146.914 24.168ZM146.914 23.23C148.356 23.23 149.154 21.998 149.154 20.612C149.154 19.24 148.356 18.008 146.914 18.008C145.472 18.008 144.674 19.24 144.674 20.612C144.674 21.998 145.472 23.23 146.914 23.23ZM153.022 24H151.972V17.238H153.022V18.316C153.568 17.616 154.352 17.084 155.276 17.084V18.162C155.15 18.148 155.024 18.134 154.87 18.134C154.212 18.134 153.33 18.666 153.022 19.212V24ZM166.166 24H165.116V22.992C164.612 23.678 163.786 24.168 162.834 24.168C161.07 24.168 159.824 22.824 159.824 20.626C159.824 18.456 161.07 17.07 162.834 17.07C163.744 17.07 164.57 17.518 165.116 18.26V14.662H166.166V24ZM163.1 23.23C163.926 23.23 164.752 22.74 165.116 22.152V19.1C164.752 18.512 163.926 18.008 163.1 18.008C161.728 18.008 160.916 19.128 160.916 20.626C160.916 22.124 161.728 23.23 163.1 23.23ZM173.547 24H172.497V23.23C171.951 23.846 171.167 24.168 170.257 24.168C169.123 24.168 167.905 23.398 167.905 21.928C167.905 20.402 169.109 19.702 170.257 19.702C171.181 19.702 171.951 19.996 172.497 20.612V19.394C172.497 18.498 171.769 17.98 170.789 17.98C169.977 17.98 169.319 18.26 168.717 18.918L168.227 18.19C168.955 17.434 169.823 17.07 170.929 17.07C172.371 17.07 173.547 17.714 173.547 19.352V24ZM170.649 23.412C171.377 23.412 172.091 23.132 172.497 22.572V21.284C172.091 20.738 171.377 20.458 170.649 20.458C169.655 20.458 168.969 21.074 168.969 21.928C168.969 22.796 169.655 23.412 170.649 23.412ZM177.387 24.168C176.379 24.168 175.875 23.594 175.875 22.586V18.162H174.755V17.238H175.875V15.39H176.939V17.238H178.311V18.162H176.939V22.362C176.939 22.866 177.163 23.23 177.611 23.23C177.919 23.23 178.185 23.09 178.325 22.936L178.633 23.734C178.367 23.986 177.989 24.168 177.387 24.168ZM185.059 24H184.009V23.23C183.463 23.846 182.679 24.168 181.769 24.168C180.635 24.168 179.417 23.398 179.417 21.928C179.417 20.402 180.621 19.702 181.769 19.702C182.693 19.702 183.463 19.996 184.009 20.612V19.394C184.009 18.498 183.281 17.98 182.301 17.98C181.489 17.98 180.831 18.26 180.229 18.918L179.739 18.19C180.467 17.434 181.335 17.07 182.441 17.07C183.883 17.07 185.059 17.714 185.059 19.352V24ZM182.161 23.412C182.889 23.412 183.603 23.132 184.009 22.572V21.284C183.603 20.738 182.889 20.458 182.161 20.458C181.167 20.458 180.481 21.074 180.481 21.928C180.481 22.796 181.167 23.412 182.161 23.412ZM196.414 24H195.364V23.048C194.846 23.636 193.964 24.168 192.956 24.168C191.542 24.168 190.8 23.468 190.8 22.012V17.238H191.85V21.69C191.85 22.88 192.452 23.23 193.376 23.23C194.188 23.23 194.972 22.754 195.364 22.208V17.238H196.414V24ZM200.667 24.168C199.547 24.168 198.623 23.818 197.937 23.104L198.469 22.348C198.917 22.866 199.771 23.314 200.695 23.314C201.731 23.314 202.305 22.824 202.305 22.152C202.305 20.514 198.119 21.522 198.119 19.016C198.119 17.952 199.015 17.07 200.625 17.07C201.787 17.07 202.599 17.504 203.131 18.05L202.641 18.778C202.235 18.288 201.507 17.924 200.625 17.924C199.701 17.924 199.127 18.386 199.127 18.988C199.127 20.458 203.313 19.492 203.313 22.124C203.313 23.258 202.403 24.168 200.667 24.168ZM210.297 24H209.247V23.23C208.701 23.846 207.917 24.168 207.007 24.168C205.873 24.168 204.655 23.398 204.655 21.928C204.655 20.402 205.859 19.702 207.007 19.702C207.931 19.702 208.701 19.996 209.247 20.612V19.394C209.247 18.498 208.519 17.98 207.539 17.98C206.727 17.98 206.069 18.26 205.467 18.918L204.977 18.19C205.705 17.434 206.573 17.07 207.679 17.07C209.121 17.07 210.297 17.714 210.297 19.352V24ZM207.399 23.412C208.127 23.412 208.841 23.132 209.247 22.572V21.284C208.841 20.738 208.127 20.458 207.399 20.458C206.405 20.458 205.719 21.074 205.719 21.928C205.719 22.796 206.405 23.412 207.399 23.412ZM215.131 26.744C213.997 26.744 213.213 26.52 212.401 25.722L212.933 24.966C213.493 25.624 214.165 25.876 215.131 25.876C216.251 25.876 217.315 25.33 217.315 23.902V22.88C216.811 23.566 215.985 24.084 215.033 24.084C213.269 24.084 212.023 22.768 212.023 20.584C212.023 18.414 213.255 17.07 215.033 17.07C215.943 17.07 216.769 17.518 217.315 18.26V17.238H218.365V23.902C218.365 26.044 216.783 26.744 215.131 26.744ZM215.299 23.146C216.125 23.146 216.937 22.642 217.315 22.054V19.086C216.937 18.512 216.125 18.008 215.299 18.008C213.927 18.008 213.115 19.086 213.115 20.584C213.115 22.068 213.927 23.146 215.299 23.146ZM223.534 24.168C221.518 24.168 220.076 22.726 220.076 20.612C220.076 18.652 221.476 17.07 223.408 17.07C225.452 17.07 226.656 18.666 226.656 20.696V20.962H221.196C221.28 22.236 222.162 23.3 223.618 23.3C224.402 23.3 225.172 22.992 225.718 22.432L226.222 23.118C225.536 23.79 224.626 24.168 223.534 24.168ZM225.62 20.178C225.606 19.184 224.934 17.938 223.394 17.938C221.952 17.938 221.238 19.156 221.182 20.178H225.62ZM228.821 24.14C228.401 24.14 228.051 23.79 228.051 23.37C228.051 22.95 228.401 22.6 228.821 22.6C229.241 22.6 229.591 22.95 229.591 23.37C229.591 23.79 229.241 24.14 228.821 24.14ZM11.0235 34.612C11.0235 35.424 10.3375 36.11 9.51146 36.11C8.68546 36.11 7.99946 35.424 7.99946 34.612C7.99946 33.786 8.68546 33.1 9.51146 33.1C10.3375 33.1 11.0235 33.786 11.0235 34.612ZM29.0862 38H27.7562L26.9302 35.914H22.2822L21.4562 38H20.1262L23.8922 28.662H25.3342L29.0862 38ZM26.5942 34.892L24.6062 29.852L22.6322 34.892H26.5942ZM35.8791 38H34.8431V33.576C34.8431 32.372 34.2271 32.008 33.3171 32.008C32.4911 32.008 31.7211 32.512 31.3151 33.058V38H30.2651V31.238H31.3151V32.218C31.7911 31.644 32.7151 31.07 33.7371 31.07C35.1371 31.07 35.8791 31.784 35.8791 33.254V38ZM43.9397 38H42.8897V36.992C42.3857 37.678 41.5597 38.168 40.6077 38.168C38.8437 38.168 37.5977 36.824 37.5977 34.626C37.5977 32.456 38.8437 31.07 40.6077 31.07C41.5177 31.07 42.3437 31.518 42.8897 32.26V28.662H43.9397V38ZM40.8737 37.23C41.6997 37.23 42.5257 36.74 42.8897 36.152V33.1C42.5257 32.512 41.6997 32.008 40.8737 32.008C39.5017 32.008 38.6897 33.128 38.6897 34.626C38.6897 36.124 39.5017 37.23 40.8737 37.23ZM47.0924 38H46.0424V31.238H47.0924V32.316C47.6384 31.616 48.4224 31.084 49.3464 31.084V32.162C49.2204 32.148 49.0944 32.134 48.9404 32.134C48.2824 32.134 47.4004 32.666 47.0924 33.212V38ZM53.6175 38.168C51.5595 38.168 50.2715 36.572 50.2715 34.612C50.2715 32.652 51.5595 31.07 53.6175 31.07C55.6755 31.07 56.9635 32.652 56.9635 34.612C56.9635 36.572 55.6755 38.168 53.6175 38.168ZM53.6175 37.23C55.0595 37.23 55.8575 35.998 55.8575 34.612C55.8575 33.24 55.0595 32.008 53.6175 32.008C52.1755 32.008 51.3775 33.24 51.3775 34.612C51.3775 35.998 52.1755 37.23 53.6175 37.23ZM59.2072 30.272C58.8152 30.272 58.4932 29.964 58.4932 29.572C58.4932 29.18 58.8152 28.858 59.2072 28.858C59.5992 28.858 59.9072 29.18 59.9072 29.572C59.9072 29.964 59.5992 30.272 59.2072 30.272ZM59.7252 38H58.6752V31.238H59.7252V38ZM67.7698 38H66.7198V36.992C66.2158 37.678 65.3898 38.168 64.4378 38.168C62.6738 38.168 61.4278 36.824 61.4278 34.626C61.4278 32.456 62.6738 31.07 64.4378 31.07C65.3478 31.07 66.1738 31.518 66.7198 32.26V28.662H67.7698V38ZM64.7038 37.23C65.5298 37.23 66.3558 36.74 66.7198 36.152V33.1C66.3558 32.512 65.5298 32.008 64.7038 32.008C63.3318 32.008 62.5198 33.128 62.5198 34.626C62.5198 36.124 63.3318 37.23 64.7038 37.23ZM75.4276 38H74.1396L77.9056 29.698H72.8796V28.662H79.2496V29.46L75.4276 38ZM79.9071 38.14C79.4871 38.14 79.1371 37.79 79.1371 37.37C79.1371 36.95 79.4871 36.6 79.9071 36.6C80.3271 36.6 80.6771 36.95 80.6771 37.37C80.6771 37.79 80.3271 38.14 79.9071 38.14ZM84.0976 38H82.9356V30.188L81.4376 31.784L80.7376 31.07L83.0756 28.662H84.0976V38ZM92.8148 38.168C90.7568 38.168 89.4688 36.572 89.4688 34.612C89.4688 32.652 90.7568 31.07 92.8148 31.07C94.8728 31.07 96.1608 32.652 96.1608 34.612C96.1608 36.572 94.8728 38.168 92.8148 38.168ZM92.8148 37.23C94.2568 37.23 95.0548 35.998 95.0548 34.612C95.0548 33.24 94.2568 32.008 92.8148 32.008C91.3728 32.008 90.5748 33.24 90.5748 34.612C90.5748 35.998 91.3728 37.23 92.8148 37.23ZM98.9225 38H97.8725V31.238H98.9225V32.316C99.4685 31.616 100.253 31.084 101.177 31.084V32.162C101.051 32.148 100.925 32.134 100.771 32.134C100.113 32.134 99.2305 32.666 98.9225 33.212V38ZM111.745 38H110.695V33.548C110.695 32.344 110.093 32.008 109.169 32.008C108.357 32.008 107.573 32.512 107.181 33.058V38H106.131V28.662H107.181V32.218C107.643 31.644 108.567 31.07 109.589 31.07C111.003 31.07 111.745 31.756 111.745 33.226V38ZM114.373 30.272C113.981 30.272 113.659 29.964 113.659 29.572C113.659 29.18 113.981 28.858 114.373 28.858C114.765 28.858 115.073 29.18 115.073 29.572C115.073 29.964 114.765 30.272 114.373 30.272ZM114.891 38H113.841V31.238H114.891V38ZM119.702 40.744C118.568 40.744 117.784 40.52 116.972 39.722L117.504 38.966C118.064 39.624 118.736 39.876 119.702 39.876C120.822 39.876 121.886 39.33 121.886 37.902V36.88C121.382 37.566 120.556 38.084 119.604 38.084C117.84 38.084 116.594 36.768 116.594 34.584C116.594 32.414 117.826 31.07 119.604 31.07C120.514 31.07 121.34 31.518 121.886 32.26V31.238H122.936V37.902C122.936 40.044 121.354 40.744 119.702 40.744ZM119.87 37.146C120.696 37.146 121.508 36.642 121.886 36.054V33.086C121.508 32.512 120.696 32.008 119.87 32.008C118.498 32.008 117.686 33.086 117.686 34.584C117.686 36.068 118.498 37.146 119.87 37.146ZM130.667 38H129.617V33.548C129.617 32.344 129.015 32.008 128.091 32.008C127.279 32.008 126.495 32.512 126.103 33.058V38H125.053V28.662H126.103V32.218C126.565 31.644 127.489 31.07 128.511 31.07C129.925 31.07 130.667 31.756 130.667 33.226V38ZM135.829 38.168C133.813 38.168 132.371 36.726 132.371 34.612C132.371 32.652 133.771 31.07 135.703 31.07C137.747 31.07 138.951 32.666 138.951 34.696V34.962H133.491C133.575 36.236 134.457 37.3 135.913 37.3C136.697 37.3 137.467 36.992 138.013 36.432L138.517 37.118C137.831 37.79 136.921 38.168 135.829 38.168ZM137.915 34.178C137.901 33.184 137.229 31.938 135.689 31.938C134.247 31.938 133.533 33.156 133.477 34.178H137.915ZM141.702 38H140.652V31.238H141.702V32.316C142.248 31.616 143.032 31.084 143.956 31.084V32.162C143.83 32.148 143.704 32.134 143.55 32.134C142.892 32.134 142.01 32.666 141.702 33.212V38ZM144.671 38.14C144.251 38.14 143.901 37.79 143.901 37.37C143.901 36.95 144.251 36.6 144.671 36.6C145.091 36.6 145.441 36.95 145.441 37.37C145.441 37.79 145.091 38.14 144.671 38.14ZM11.0235 48.612C11.0235 49.424 10.3375 50.11 9.51146 50.11C8.68546 50.11 7.99946 49.424 7.99946 48.612C7.99946 47.786 8.68546 47.1 9.51146 47.1C10.3375 47.1 11.0235 47.786 11.0235 48.612ZM29.0862 52H27.7562L26.9302 49.914H22.2822L21.4562 52H20.1262L23.8922 42.662H25.3342L29.0862 52ZM26.5942 48.892L24.6062 43.852L22.6322 48.892H26.5942ZM33.5971 52.168C32.6731 52.168 31.8751 51.72 31.3151 50.978V54.576H30.2651V45.238H31.3151V46.246C31.8051 45.56 32.6451 45.07 33.5971 45.07C35.3751 45.07 36.6071 46.414 36.6071 48.612C36.6071 50.796 35.3751 52.168 33.5971 52.168ZM33.3311 51.23C34.6891 51.23 35.5011 50.11 35.5011 48.612C35.5011 47.114 34.6891 46.008 33.3311 46.008C32.5051 46.008 31.6791 46.498 31.3151 47.086V50.138C31.6791 50.726 32.5051 51.23 33.3311 51.23ZM41.6088 52.168C40.6848 52.168 39.8868 51.72 39.3268 50.978V54.576H38.2768V45.238H39.3268V46.246C39.8168 45.56 40.6568 45.07 41.6088 45.07C43.3868 45.07 44.6188 46.414 44.6188 48.612C44.6188 50.796 43.3868 52.168 41.6088 52.168ZM41.3428 51.23C42.7008 51.23 43.5128 50.11 43.5128 48.612C43.5128 47.114 42.7008 46.008 41.3428 46.008C40.5168 46.008 39.6908 46.498 39.3268 47.086V50.138C39.6908 50.726 40.5168 51.23 41.3428 51.23ZM47.3385 52H46.2885V42.662H47.3385V52ZM52.4991 52.168C50.4831 52.168 49.0411 50.726 49.0411 48.612C49.0411 46.652 50.4411 45.07 52.3731 45.07C54.4171 45.07 55.6211 46.666 55.6211 48.696V48.962H50.1611C50.2451 50.236 51.1271 51.3 52.5831 51.3C53.3671 51.3 54.1371 50.992 54.6831 50.432L55.1871 51.118C54.5011 51.79 53.5911 52.168 52.4991 52.168ZM54.5851 48.178C54.5711 47.184 53.8991 45.938 52.3591 45.938C50.9171 45.938 50.2031 47.156 50.1471 48.178H54.5851ZM61.4768 44.272C61.0848 44.272 60.7628 43.964 60.7628 43.572C60.7628 43.18 61.0848 42.858 61.4768 42.858C61.8688 42.858 62.1768 43.18 62.1768 43.572C62.1768 43.964 61.8688 44.272 61.4768 44.272ZM61.9948 52H60.9448V45.238H61.9948V52ZM68.3873 52.168C65.6293 52.168 63.7533 50.096 63.7533 47.338C63.7533 44.58 65.6293 42.508 68.3873 42.508C71.1453 42.508 73.0353 44.58 73.0353 47.338C73.0353 50.096 71.1453 52.168 68.3873 52.168ZM68.3873 51.132C70.4733 51.132 71.8313 49.508 71.8313 47.338C71.8313 45.154 70.4733 43.544 68.3873 43.544C66.2873 43.544 64.9573 45.154 64.9573 47.338C64.9573 49.508 66.2873 51.132 68.3873 51.132ZM77.8604 52.168C76.2504 52.168 75.0464 51.552 74.2764 50.684L74.9764 49.788C75.5784 50.488 76.5864 51.132 77.9024 51.132C79.5684 51.132 80.1004 50.236 80.1004 49.508C80.1004 47.1 74.5704 48.444 74.5704 45.112C74.5704 43.572 75.9424 42.508 77.7904 42.508C79.2044 42.508 80.3104 42.998 81.0944 43.824L80.3944 44.678C79.6944 43.894 78.7144 43.558 77.6924 43.558C76.5864 43.558 75.7744 44.16 75.7744 45.042C75.7744 47.142 81.3044 45.938 81.3044 49.424C81.3044 50.768 80.3804 52.168 77.8604 52.168ZM89.2246 52H88.0626V44.188L86.5646 45.784L85.8646 45.07L88.2026 42.662H89.2246V52ZM97.4827 52H91.0707V51.062C94.4307 48.43 96.2647 46.876 96.2647 45.266C96.2647 44.062 95.2707 43.558 94.3047 43.558C93.1847 43.558 92.3167 44.034 91.7707 44.734L91.0567 43.992C91.7707 43.04 92.9887 42.522 94.3047 42.522C95.8587 42.522 97.4407 43.404 97.4407 45.266C97.4407 47.17 95.5087 48.906 92.9047 50.964H97.4827V52ZM100.155 52.14C99.7352 52.14 99.3852 51.79 99.3852 51.37C99.3852 50.95 99.7352 50.6 100.155 50.6C100.575 50.6 100.925 50.95 100.925 51.37C100.925 51.79 100.575 52.14 100.155 52.14ZM107.833 52H106.671V49.634H102.233V48.668L106.237 42.662H107.833V48.612H109.149V49.634H107.833V52ZM106.671 48.612V43.74L103.395 48.612H106.671ZM117.219 52.168C115.161 52.168 113.873 50.572 113.873 48.612C113.873 46.652 115.161 45.07 117.219 45.07C119.277 45.07 120.565 46.652 120.565 48.612C120.565 50.572 119.277 52.168 117.219 52.168ZM117.219 51.23C118.661 51.23 119.459 49.998 119.459 48.612C119.459 47.24 118.661 46.008 117.219 46.008C115.777 46.008 114.979 47.24 114.979 48.612C114.979 49.998 115.777 51.23 117.219 51.23ZM123.327 52H122.277V45.238H123.327V46.316C123.873 45.616 124.657 45.084 125.581 45.084V46.162C125.455 46.148 125.329 46.134 125.175 46.134C124.517 46.134 123.635 46.666 123.327 47.212V52ZM136.149 52H135.099V47.548C135.099 46.344 134.497 46.008 133.573 46.008C132.761 46.008 131.977 46.512 131.585 47.058V52H130.535V42.662H131.585V46.218C132.047 45.644 132.971 45.07 133.993 45.07C135.407 45.07 136.149 45.756 136.149 47.226V52ZM138.778 44.272C138.386 44.272 138.064 43.964 138.064 43.572C138.064 43.18 138.386 42.858 138.778 42.858C139.17 42.858 139.478 43.18 139.478 43.572C139.478 43.964 139.17 44.272 138.778 44.272ZM139.296 52H138.246V45.238H139.296V52ZM144.106 54.744C142.972 54.744 142.188 54.52 141.376 53.722L141.908 52.966C142.468 53.624 143.14 53.876 144.106 53.876C145.226 53.876 146.29 53.33 146.29 51.902V50.88C145.786 51.566 144.96 52.084 144.008 52.084C142.244 52.084 140.998 50.768 140.998 48.584C140.998 46.414 142.23 45.07 144.008 45.07C144.918 45.07 145.744 45.518 146.29 46.26V45.238H147.34V51.902C147.34 54.044 145.758 54.744 144.106 54.744ZM144.274 51.146C145.1 51.146 145.912 50.642 146.29 50.054V47.086C145.912 46.512 145.1 46.008 144.274 46.008C142.902 46.008 142.09 47.086 142.09 48.584C142.09 50.068 142.902 51.146 144.274 51.146ZM155.071 52H154.021V47.548C154.021 46.344 153.419 46.008 152.495 46.008C151.683 46.008 150.899 46.512 150.507 47.058V52H149.457V42.662H150.507V46.218C150.969 45.644 151.893 45.07 152.915 45.07C154.329 45.07 155.071 45.756 155.071 47.226V52ZM160.233 52.168C158.217 52.168 156.775 50.726 156.775 48.612C156.775 46.652 158.175 45.07 160.107 45.07C162.151 45.07 163.355 46.666 163.355 48.696V48.962H157.895C157.979 50.236 158.861 51.3 160.317 51.3C161.101 51.3 161.871 50.992 162.417 50.432L162.921 51.118C162.235 51.79 161.325 52.168 160.233 52.168ZM162.319 48.178C162.305 47.184 161.633 45.938 160.093 45.938C158.651 45.938 157.937 47.156 157.881 48.178H162.319ZM166.106 52H165.056V45.238H166.106V46.316C166.652 45.616 167.436 45.084 168.36 45.084V46.162C168.234 46.148 168.108 46.134 167.954 46.134C167.296 46.134 166.414 46.666 166.106 47.212V52ZM169.075 52.14C168.655 52.14 168.305 51.79 168.305 51.37C168.305 50.95 168.655 50.6 169.075 50.6C169.495 50.6 169.845 50.95 169.845 51.37C169.845 51.79 169.495 52.14 169.075 52.14ZM11.0235 62.612C11.0235 63.424 10.3375 64.11 9.51146 64.11C8.68546 64.11 7.99946 63.424 7.99946 62.612C7.99946 61.786 8.68546 61.1 9.51146 61.1C10.3375 61.1 11.0235 61.786 11.0235 62.612ZM22.2542 66H21.0922V56.662H24.8442C26.7202 56.662 27.7702 57.95 27.7702 59.476C27.7702 61.002 26.7062 62.29 24.8442 62.29H22.2542V66ZM24.7042 61.254C25.8102 61.254 26.5662 60.526 26.5662 59.476C26.5662 58.426 25.8102 57.698 24.7042 57.698H22.2542V61.254H24.7042ZM32.1553 66.168C30.1393 66.168 28.6973 64.726 28.6973 62.612C28.6973 60.652 30.0973 59.07 32.0293 59.07C34.0733 59.07 35.2773 60.666 35.2773 62.696V62.962H29.8173C29.9013 64.236 30.7833 65.3 32.2393 65.3C33.0233 65.3 33.7933 64.992 34.3393 64.432L34.8433 65.118C34.1573 65.79 33.2473 66.168 32.1553 66.168ZM34.2413 62.178C34.2273 61.184 33.5553 59.938 32.0153 59.938C30.5733 59.938 29.8593 61.156 29.8033 62.178H34.2413ZM38.028 66H36.978V59.238H38.028V60.316C38.574 59.616 39.358 59.084 40.282 59.084V60.162C40.156 60.148 40.03 60.134 39.876 60.134C39.218 60.134 38.336 60.666 38.028 61.212V66ZM42.9431 66H41.8931V60.162H40.7731V59.238H41.8931V58.72C41.8931 57.334 42.6631 56.522 43.8531 56.522C44.3991 56.522 44.8611 56.648 45.2811 57.04L44.8471 57.712C44.6231 57.516 44.3571 57.39 44.0211 57.39C43.3211 57.39 42.9431 57.852 42.9431 58.72V59.238H44.3151V60.162H42.9431V66ZM48.5316 66.168C46.4736 66.168 45.1856 64.572 45.1856 62.612C45.1856 60.652 46.4736 59.07 48.5316 59.07C50.5896 59.07 51.8776 60.652 51.8776 62.612C51.8776 64.572 50.5896 66.168 48.5316 66.168ZM48.5316 65.23C49.9736 65.23 50.7716 63.998 50.7716 62.612C50.7716 61.24 49.9736 60.008 48.5316 60.008C47.0896 60.008 46.2916 61.24 46.2916 62.612C46.2916 63.998 47.0896 65.23 48.5316 65.23ZM54.6393 66H53.5893V59.238H54.6393V60.316C55.1853 59.616 55.9693 59.084 56.8933 59.084V60.162C56.7673 60.148 56.6413 60.134 56.4873 60.134C55.8293 60.134 54.9473 60.666 54.6393 61.212V66ZM67.4224 66H66.3724V61.408C66.3724 60.554 66.0084 60.008 65.1264 60.008C64.4264 60.008 63.6844 60.498 63.3344 61.044V66H62.2844V61.408C62.2844 60.554 61.9344 60.008 61.0384 60.008C60.3524 60.008 59.6244 60.512 59.2604 61.058V66H58.2104V59.238H59.2604V60.218C59.5544 59.784 60.4504 59.07 61.4584 59.07C62.4804 59.07 63.0684 59.63 63.2644 60.33C63.6424 59.714 64.5524 59.07 65.5324 59.07C66.7644 59.07 67.4224 59.756 67.4224 61.114V66ZM74.795 66H73.745V65.23C73.199 65.846 72.415 66.168 71.505 66.168C70.371 66.168 69.153 65.398 69.153 63.928C69.153 62.402 70.357 61.702 71.505 61.702C72.429 61.702 73.199 61.996 73.745 62.612V61.394C73.745 60.498 73.017 59.98 72.037 59.98C71.225 59.98 70.567 60.26 69.965 60.918L69.475 60.19C70.203 59.434 71.071 59.07 72.177 59.07C73.619 59.07 74.795 59.714 74.795 61.352V66ZM71.897 65.412C72.625 65.412 73.339 65.132 73.745 64.572V63.284C73.339 62.738 72.625 62.458 71.897 62.458C70.903 62.458 70.217 63.074 70.217 63.928C70.217 64.796 70.903 65.412 71.897 65.412ZM82.5275 66H81.4915V61.576C81.4915 60.372 80.8755 60.008 79.9655 60.008C79.1395 60.008 78.3695 60.512 77.9635 61.058V66H76.9135V59.238H77.9635V60.218C78.4395 59.644 79.3635 59.07 80.3855 59.07C81.7855 59.07 82.5275 59.784 82.5275 61.254V66ZM87.6201 66.168C85.6041 66.168 84.2461 64.614 84.2461 62.612C84.2461 60.61 85.6041 59.07 87.6201 59.07C88.8521 59.07 89.5801 59.574 90.0981 60.246L89.3981 60.876C88.9501 60.26 88.3761 60.008 87.6761 60.008C86.2481 60.008 85.3381 61.114 85.3381 62.612C85.3381 64.11 86.2481 65.23 87.6761 65.23C88.3761 65.23 88.9501 64.95 89.3981 64.348L90.0981 64.992C89.5801 65.664 88.8521 66.168 87.6201 66.168ZM94.6494 66.168C92.6334 66.168 91.1914 64.726 91.1914 62.612C91.1914 60.652 92.5914 59.07 94.5234 59.07C96.5674 59.07 97.7714 60.666 97.7714 62.696V62.962H92.3114C92.3954 64.236 93.2774 65.3 94.7334 65.3C95.5174 65.3 96.2874 64.992 96.8334 64.432L97.3374 65.118C96.6514 65.79 95.7414 66.168 94.6494 66.168ZM96.7354 62.178C96.7214 61.184 96.0494 59.938 94.5094 59.938C93.0674 59.938 92.3534 61.156 92.2974 62.178H96.7354ZM105.251 66.168C104.131 66.168 103.207 65.818 102.521 65.104L103.053 64.348C103.501 64.866 104.355 65.314 105.279 65.314C106.315 65.314 106.889 64.824 106.889 64.152C106.889 62.514 102.703 63.522 102.703 61.016C102.703 59.952 103.599 59.07 105.209 59.07C106.371 59.07 107.183 59.504 107.715 60.05L107.225 60.778C106.819 60.288 106.091 59.924 105.209 59.924C104.285 59.924 103.711 60.386 103.711 60.988C103.711 62.458 107.897 61.492 107.897 64.124C107.897 65.258 106.987 66.168 105.251 66.168ZM112.585 66.168C110.569 66.168 109.211 64.614 109.211 62.612C109.211 60.61 110.569 59.07 112.585 59.07C113.817 59.07 114.545 59.574 115.063 60.246L114.363 60.876C113.915 60.26 113.341 60.008 112.641 60.008C111.213 60.008 110.303 61.114 110.303 62.612C110.303 64.11 111.213 65.23 112.641 65.23C113.341 65.23 113.915 64.95 114.363 64.348L115.063 64.992C114.545 65.664 113.817 66.168 112.585 66.168ZM119.502 66.168C117.444 66.168 116.156 64.572 116.156 62.612C116.156 60.652 117.444 59.07 119.502 59.07C121.56 59.07 122.848 60.652 122.848 62.612C122.848 64.572 121.56 66.168 119.502 66.168ZM119.502 65.23C120.944 65.23 121.742 63.998 121.742 62.612C121.742 61.24 120.944 60.008 119.502 60.008C118.06 60.008 117.262 61.24 117.262 62.612C117.262 63.998 118.06 65.23 119.502 65.23ZM125.61 66H124.56V59.238H125.61V60.316C126.156 59.616 126.94 59.084 127.864 59.084V60.162C127.738 60.148 127.612 60.134 127.458 60.134C126.8 60.134 125.918 60.666 125.61 61.212V66ZM132.247 66.168C130.231 66.168 128.789 64.726 128.789 62.612C128.789 60.652 130.189 59.07 132.121 59.07C134.165 59.07 135.369 60.666 135.369 62.696V62.962H129.909C129.993 64.236 130.875 65.3 132.331 65.3C133.115 65.3 133.885 64.992 134.431 64.432L134.935 65.118C134.249 65.79 133.339 66.168 132.247 66.168ZM134.333 62.178C134.319 61.184 133.647 59.938 132.107 59.938C130.665 59.938 129.951 61.156 129.895 62.178H134.333ZM143.409 68.744C142.275 68.744 141.491 68.52 140.679 67.722L141.211 66.966C141.771 67.624 142.443 67.876 143.409 67.876C144.529 67.876 145.593 67.33 145.593 65.902V64.88C145.089 65.566 144.263 66.084 143.311 66.084C141.547 66.084 140.301 64.768 140.301 62.584C140.301 60.414 141.533 59.07 143.311 59.07C144.221 59.07 145.047 59.518 145.593 60.26V59.238H146.643V65.902C146.643 68.044 145.061 68.744 143.409 68.744ZM143.577 65.146C144.403 65.146 145.215 64.642 145.593 64.054V61.086C145.215 60.512 144.403 60.008 143.577 60.008C142.205 60.008 141.393 61.086 141.393 62.584C141.393 64.068 142.205 65.146 143.577 65.146ZM149.796 66H148.746V59.238H149.796V60.316C150.342 59.616 151.126 59.084 152.05 59.084V60.162C151.924 60.148 151.798 60.134 151.644 60.134C150.986 60.134 150.104 60.666 149.796 61.212V66ZM156.433 66.168C154.417 66.168 152.975 64.726 152.975 62.612C152.975 60.652 154.375 59.07 156.307 59.07C158.351 59.07 159.555 60.666 159.555 62.696V62.962H154.095C154.179 64.236 155.061 65.3 156.517 65.3C157.301 65.3 158.071 64.992 158.617 64.432L159.121 65.118C158.435 65.79 157.525 66.168 156.433 66.168ZM158.519 62.178C158.505 61.184 157.833 59.938 156.293 59.938C154.851 59.938 154.137 61.156 154.081 62.178H158.519ZM166.533 66H165.483V65.23C164.937 65.846 164.153 66.168 163.243 66.168C162.109 66.168 160.891 65.398 160.891 63.928C160.891 62.402 162.095 61.702 163.243 61.702C164.167 61.702 164.937 61.996 165.483 62.612V61.394C165.483 60.498 164.755 59.98 163.775 59.98C162.963 59.98 162.305 60.26 161.703 60.918L161.213 60.19C161.941 59.434 162.809 59.07 163.915 59.07C165.357 59.07 166.533 59.714 166.533 61.352V66ZM163.635 65.412C164.363 65.412 165.077 65.132 165.483 64.572V63.284C165.077 62.738 164.363 62.458 163.635 62.458C162.641 62.458 161.955 63.074 161.955 63.928C161.955 64.796 162.641 65.412 163.635 65.412ZM170.374 66.168C169.366 66.168 168.862 65.594 168.862 64.586V60.162H167.742V59.238H168.862V57.39H169.926V59.238H171.298V60.162H169.926V64.362C169.926 64.866 170.15 65.23 170.598 65.23C170.906 65.23 171.172 65.09 171.312 64.936L171.62 65.734C171.354 65.986 170.976 66.168 170.374 66.168ZM175.833 66.168C173.817 66.168 172.375 64.726 172.375 62.612C172.375 60.652 173.775 59.07 175.707 59.07C177.751 59.07 178.955 60.666 178.955 62.696V62.962H173.495C173.579 64.236 174.461 65.3 175.917 65.3C176.701 65.3 177.471 64.992 178.017 64.432L178.521 65.118C177.835 65.79 176.925 66.168 175.833 66.168ZM177.919 62.178C177.905 61.184 177.233 59.938 175.693 59.938C174.251 59.938 173.537 61.156 173.481 62.178H177.919ZM181.706 66H180.656V59.238H181.706V60.316C182.252 59.616 183.036 59.084 183.96 59.084V60.162C183.834 60.148 183.708 60.134 183.554 60.134C182.896 60.134 182.014 60.666 181.706 61.212V66ZM190.622 66.168C189.614 66.168 189.11 65.594 189.11 64.586V60.162H187.99V59.238H189.11V57.39H190.174V59.238H191.546V60.162H190.174V64.362C190.174 64.866 190.398 65.23 190.846 65.23C191.154 65.23 191.42 65.09 191.56 64.936L191.868 65.734C191.602 65.986 191.224 66.168 190.622 66.168ZM198.643 66H197.593V61.548C197.593 60.344 196.991 60.008 196.067 60.008C195.255 60.008 194.471 60.512 194.079 61.058V66H193.029V56.662H194.079V60.218C194.541 59.644 195.465 59.07 196.487 59.07C197.901 59.07 198.643 59.756 198.643 61.226V66ZM206.018 66H204.968V65.23C204.422 65.846 203.638 66.168 202.728 66.168C201.594 66.168 200.376 65.398 200.376 63.928C200.376 62.402 201.58 61.702 202.728 61.702C203.652 61.702 204.422 61.996 204.968 62.612V61.394C204.968 60.498 204.24 59.98 203.26 59.98C202.448 59.98 201.79 60.26 201.188 60.918L200.698 60.19C201.426 59.434 202.294 59.07 203.4 59.07C204.842 59.07 206.018 59.714 206.018 61.352V66ZM203.12 65.412C203.848 65.412 204.562 65.132 204.968 64.572V63.284C204.562 62.738 203.848 62.458 203.12 62.458C202.126 62.458 201.44 63.074 201.44 63.928C201.44 64.796 202.126 65.412 203.12 65.412ZM213.75 66H212.714V61.576C212.714 60.372 212.098 60.008 211.188 60.008C210.362 60.008 209.592 60.512 209.186 61.058V66H208.136V59.238H209.186V60.218C209.662 59.644 210.586 59.07 211.608 59.07C213.008 59.07 213.75 59.784 213.75 61.254V66ZM224.482 66H223.32V63.634H218.882V62.668L222.886 56.662H224.482V62.612H225.798V63.634H224.482V66ZM223.32 62.612V57.74L220.044 62.612H223.32ZM230.524 66.168C227.962 66.168 226.954 63.606 226.954 61.338C226.954 59.056 227.962 56.522 230.524 56.522C233.072 56.522 234.094 59.056 234.094 61.338C234.094 63.606 233.072 66.168 230.524 66.168ZM230.524 65.132C232.302 65.132 232.904 63.2 232.904 61.338C232.904 59.476 232.302 57.558 230.524 57.558C228.746 57.558 228.144 59.476 228.144 61.338C228.144 63.2 228.746 65.132 230.524 65.132ZM239.097 66.168C236.535 66.168 235.527 63.606 235.527 61.338C235.527 59.056 236.535 56.522 239.097 56.522C241.645 56.522 242.667 59.056 242.667 61.338C242.667 63.606 241.645 66.168 239.097 66.168ZM239.097 65.132C240.875 65.132 241.477 63.2 241.477 61.338C241.477 59.476 240.875 57.558 239.097 57.558C237.319 57.558 236.717 59.476 236.717 61.338C236.717 63.2 237.319 65.132 239.097 65.132ZM250.214 66.168C249.094 66.168 248.17 65.818 247.484 65.104L248.016 64.348C248.464 64.866 249.318 65.314 250.242 65.314C251.278 65.314 251.852 64.824 251.852 64.152C251.852 62.514 247.666 63.522 247.666 61.016C247.666 59.952 248.562 59.07 250.172 59.07C251.334 59.07 252.146 59.504 252.678 60.05L252.188 60.778C251.782 60.288 251.054 59.924 250.172 59.924C249.248 59.924 248.674 60.386 248.674 60.988C248.674 62.458 252.86 61.492 252.86 64.124C252.86 65.258 251.95 66.168 250.214 66.168ZM255.098 58.272C254.706 58.272 254.384 57.964 254.384 57.572C254.384 57.18 254.706 56.858 255.098 56.858C255.49 56.858 255.798 57.18 255.798 57.572C255.798 57.964 255.49 58.272 255.098 58.272ZM255.616 66H254.566V59.238H255.616V66ZM263.324 66H262.288V61.576C262.288 60.372 261.672 60.008 260.762 60.008C259.936 60.008 259.166 60.512 258.76 61.058V66H257.71V59.238H258.76V60.218C259.236 59.644 260.16 59.07 261.182 59.07C262.582 59.07 263.324 59.784 263.324 61.254V66ZM268.151 68.744C267.017 68.744 266.233 68.52 265.421 67.722L265.953 66.966C266.513 67.624 267.185 67.876 268.151 67.876C269.271 67.876 270.335 67.33 270.335 65.902V64.88C269.831 65.566 269.005 66.084 268.053 66.084C266.289 66.084 265.043 64.768 265.043 62.584C265.043 60.414 266.275 59.07 268.053 59.07C268.963 59.07 269.789 59.518 270.335 60.26V59.238H271.385V65.902C271.385 68.044 269.803 68.744 268.151 68.744ZM268.319 65.146C269.145 65.146 269.957 64.642 270.335 64.054V61.086C269.957 60.512 269.145 60.008 268.319 60.008C266.947 60.008 266.135 61.086 266.135 62.584C266.135 64.068 266.947 65.146 268.319 65.146ZM274.538 66H273.488V56.662H274.538V66ZM279.698 66.168C277.682 66.168 276.24 64.726 276.24 62.612C276.24 60.652 277.64 59.07 279.572 59.07C281.616 59.07 282.82 60.666 282.82 62.696V62.962H277.36C277.444 64.236 278.326 65.3 279.782 65.3C280.566 65.3 281.336 64.992 281.882 64.432L282.386 65.118C281.7 65.79 280.79 66.168 279.698 66.168ZM281.784 62.178C281.77 61.184 281.098 59.938 279.558 59.938C278.116 59.938 277.402 61.156 277.346 62.178H281.784ZM293.422 66H292.372V65.23C291.826 65.846 291.042 66.168 290.132 66.168C288.998 66.168 287.78 65.398 287.78 63.928C287.78 62.402 288.984 61.702 290.132 61.702C291.056 61.702 291.826 61.996 292.372 62.612V61.394C292.372 60.498 291.644 59.98 290.664 59.98C289.852 59.98 289.194 60.26 288.592 60.918L288.102 60.19C288.83 59.434 289.698 59.07 290.804 59.07C292.246 59.07 293.422 59.714 293.422 61.352V66ZM290.524 65.412C291.252 65.412 291.966 65.132 292.372 64.572V63.284C291.966 62.738 291.252 62.458 290.524 62.458C289.53 62.458 288.844 63.074 288.844 63.928C288.844 64.796 289.53 65.412 290.524 65.412ZM301.154 66H300.118V61.576C300.118 60.372 299.502 60.008 298.592 60.008C297.766 60.008 296.996 60.512 296.59 61.058V66H295.54V59.238H296.59V60.218C297.066 59.644 297.99 59.07 299.012 59.07C300.412 59.07 301.154 59.784 301.154 61.254V66ZM309.215 66H308.165V64.992C307.661 65.678 306.835 66.168 305.883 66.168C304.119 66.168 302.873 64.824 302.873 62.626C302.873 60.456 304.119 59.07 305.883 59.07C306.793 59.07 307.619 59.518 308.165 60.26V56.662H309.215V66ZM306.149 65.23C306.975 65.23 307.801 64.74 308.165 64.152V61.1C307.801 60.512 306.975 60.008 306.149 60.008C304.777 60.008 303.965 61.128 303.965 62.626C303.965 64.124 304.777 65.23 306.149 65.23ZM23.6542 80H22.4922V72.188L20.9942 73.784L20.2942 73.07L22.6322 70.662H23.6542V80ZM28.9584 80.168C27.3904 80.168 26.3684 79.594 25.6684 78.67L26.3824 77.886C26.9984 78.684 27.8244 79.132 28.9584 79.132C30.2324 79.132 31.1144 78.264 31.1144 77.13C31.1144 75.898 30.2324 75.114 28.9724 75.114C28.1604 75.114 27.4464 75.38 26.8164 75.982L25.9624 75.688V70.662H31.6744V71.698H27.1244V74.946C27.5864 74.498 28.3704 74.106 29.3084 74.106C30.8764 74.106 32.2904 75.156 32.2904 77.088C32.2904 78.978 30.8344 80.168 28.9584 80.168ZM37.2862 80.168C34.7242 80.168 33.7162 77.606 33.7162 75.338C33.7162 73.056 34.7242 70.522 37.2862 70.522C39.8342 70.522 40.8562 73.056 40.8562 75.338C40.8562 77.606 39.8342 80.168 37.2862 80.168ZM37.2862 79.132C39.0642 79.132 39.6662 77.2 39.6662 75.338C39.6662 73.476 39.0642 71.558 37.2862 71.558C35.5082 71.558 34.9062 73.476 34.9062 75.338C34.9062 77.2 35.5082 79.132 37.2862 79.132ZM45.8585 80.168C43.2965 80.168 42.2885 77.606 42.2885 75.338C42.2885 73.056 43.2965 70.522 45.8585 70.522C48.4065 70.522 49.4285 73.056 49.4285 75.338C49.4285 77.606 48.4065 80.168 45.8585 80.168ZM45.8585 79.132C47.6365 79.132 48.2385 77.2 48.2385 75.338C48.2385 73.476 47.6365 71.558 45.8585 71.558C44.0805 71.558 43.4785 73.476 43.4785 75.338C43.4785 77.2 44.0805 79.132 45.8585 79.132ZM64.0318 80H62.9818V75.408C62.9818 74.554 62.6178 74.008 61.7358 74.008C61.0358 74.008 60.2938 74.498 59.9438 75.044V80H58.8938V75.408C58.8938 74.554 58.5438 74.008 57.6478 74.008C56.9618 74.008 56.2338 74.512 55.8698 75.058V80H54.8198V73.238H55.8698V74.218C56.1638 73.784 57.0598 73.07 58.0678 73.07C59.0898 73.07 59.6778 73.63 59.8738 74.33C60.2518 73.714 61.1618 73.07 62.1418 73.07C63.3738 73.07 64.0318 73.756 64.0318 75.114V80ZM71.7404 80H70.6904V79.048C70.1724 79.636 69.2904 80.168 68.2824 80.168C66.8684 80.168 66.1264 79.468 66.1264 78.012V73.238H67.1764V77.69C67.1764 78.88 67.7784 79.23 68.7024 79.23C69.5144 79.23 70.2984 78.754 70.6904 78.208V73.238H71.7404V80ZM74.8874 80H73.8374V70.662H74.8874V80ZM78.7039 80.168C77.6959 80.168 77.1919 79.594 77.1919 78.586V74.162H76.0719V73.238H77.1919V71.39H78.2559V73.238H79.6279V74.162H78.2559V78.362C78.2559 78.866 78.4799 79.23 78.9279 79.23C79.2359 79.23 79.5019 79.09 79.6419 78.936L79.9499 79.734C79.6839 79.986 79.3059 80.168 78.7039 80.168ZM81.6291 72.272C81.2371 72.272 80.9151 71.964 80.9151 71.572C80.9151 71.18 81.2371 70.858 81.6291 70.858C82.0211 70.858 82.3291 71.18 82.3291 71.572C82.3291 71.964 82.0211 72.272 81.6291 72.272ZM82.1471 80H81.0971V73.238H82.1471V80ZM87.5737 80.168C86.6497 80.168 85.8517 79.72 85.2917 78.978V82.576H84.2417V73.238H85.2917V74.246C85.7817 73.56 86.6217 73.07 87.5737 73.07C89.3517 73.07 90.5837 74.414 90.5837 76.612C90.5837 78.796 89.3517 80.168 87.5737 80.168ZM87.3077 79.23C88.6657 79.23 89.4777 78.11 89.4777 76.612C89.4777 75.114 88.6657 74.008 87.3077 74.008C86.4817 74.008 85.6557 74.498 85.2917 75.086V78.138C85.6557 78.726 86.4817 79.23 87.3077 79.23ZM93.3034 80H92.2534V70.662H93.3034V80ZM98.4639 80.168C96.4479 80.168 95.0059 78.726 95.0059 76.612C95.0059 74.652 96.4059 73.07 98.3379 73.07C100.382 73.07 101.586 74.666 101.586 76.696V76.962H96.1259C96.2099 78.236 97.0919 79.3 98.5479 79.3C99.3319 79.3 100.102 78.992 100.648 78.432L101.152 79.118C100.466 79.79 99.5559 80.168 98.4639 80.168ZM100.55 76.178C100.536 75.184 99.8639 73.938 98.3239 73.938C96.8819 73.938 96.1679 75.156 96.1119 76.178H100.55ZM107.442 72.272C107.05 72.272 106.728 71.964 106.728 71.572C106.728 71.18 107.05 70.858 107.442 70.858C107.834 70.858 108.142 71.18 108.142 71.572C108.142 71.964 107.834 72.272 107.442 72.272ZM107.96 80H106.91V73.238H107.96V80ZM115.668 80H114.632V75.576C114.632 74.372 114.016 74.008 113.106 74.008C112.28 74.008 111.51 74.512 111.104 75.058V80H110.054V73.238H111.104V74.218C111.58 73.644 112.504 73.07 113.526 73.07C114.926 73.07 115.668 73.784 115.668 75.254V80ZM126.68 80H125.63V79.23C125.084 79.846 124.3 80.168 123.39 80.168C122.256 80.168 121.038 79.398 121.038 77.928C121.038 76.402 122.242 75.702 123.39 75.702C124.314 75.702 125.084 75.996 125.63 76.612V75.394C125.63 74.498 124.902 73.98 123.922 73.98C123.11 73.98 122.452 74.26 121.85 74.918L121.36 74.19C122.088 73.434 122.956 73.07 124.062 73.07C125.504 73.07 126.68 73.714 126.68 75.352V80ZM123.782 79.412C124.51 79.412 125.224 79.132 125.63 78.572V77.284C125.224 76.738 124.51 76.458 123.782 76.458C122.788 76.458 122.102 77.074 122.102 77.928C122.102 78.796 122.788 79.412 123.782 79.412ZM132.13 80.168C131.206 80.168 130.408 79.72 129.848 78.978V82.576H128.798V73.238H129.848V74.246C130.338 73.56 131.178 73.07 132.13 73.07C133.908 73.07 135.14 74.414 135.14 76.612C135.14 78.796 133.908 80.168 132.13 80.168ZM131.864 79.23C133.222 79.23 134.034 78.11 134.034 76.612C134.034 75.114 133.222 74.008 131.864 74.008C131.038 74.008 130.212 74.498 129.848 75.086V78.138C130.212 78.726 131.038 79.23 131.864 79.23ZM140.142 80.168C139.218 80.168 138.42 79.72 137.86 78.978V82.576H136.81V73.238H137.86V74.246C138.35 73.56 139.19 73.07 140.142 73.07C141.92 73.07 143.152 74.414 143.152 76.612C143.152 78.796 141.92 80.168 140.142 80.168ZM139.876 79.23C141.234 79.23 142.046 78.11 142.046 76.612C142.046 75.114 141.234 74.008 139.876 74.008C139.05 74.008 138.224 74.498 137.86 75.086V78.138C138.224 78.726 139.05 79.23 139.876 79.23ZM145.872 80H144.822V70.662H145.872V80ZM148.498 72.272C148.106 72.272 147.784 71.964 147.784 71.572C147.784 71.18 148.106 70.858 148.498 70.858C148.89 70.858 149.198 71.18 149.198 71.572C149.198 71.964 148.89 72.272 148.498 72.272ZM149.016 80H147.966V73.238H149.016V80ZM154.093 80.168C152.077 80.168 150.719 78.614 150.719 76.612C150.719 74.61 152.077 73.07 154.093 73.07C155.325 73.07 156.053 73.574 156.571 74.246L155.871 74.876C155.423 74.26 154.849 74.008 154.149 74.008C152.721 74.008 151.811 75.114 151.811 76.612C151.811 78.11 152.721 79.23 154.149 79.23C154.849 79.23 155.423 78.95 155.871 78.348L156.571 78.992C156.053 79.664 155.325 80.168 154.093 80.168ZM163.334 80H162.284V79.23C161.738 79.846 160.954 80.168 160.044 80.168C158.91 80.168 157.692 79.398 157.692 77.928C157.692 76.402 158.896 75.702 160.044 75.702C160.968 75.702 161.738 75.996 162.284 76.612V75.394C162.284 74.498 161.556 73.98 160.576 73.98C159.764 73.98 159.106 74.26 158.504 74.918L158.014 74.19C158.742 73.434 159.61 73.07 160.716 73.07C162.158 73.07 163.334 73.714 163.334 75.352V80ZM160.436 79.412C161.164 79.412 161.878 79.132 162.284 78.572V77.284C161.878 76.738 161.164 76.458 160.436 76.458C159.442 76.458 158.756 77.074 158.756 77.928C158.756 78.796 159.442 79.412 160.436 79.412ZM167.175 80.168C166.167 80.168 165.663 79.594 165.663 78.586V74.162H164.543V73.238H165.663V71.39H166.727V73.238H168.099V74.162H166.727V78.362C166.727 78.866 166.951 79.23 167.399 79.23C167.707 79.23 167.973 79.09 168.113 78.936L168.421 79.734C168.155 79.986 167.777 80.168 167.175 80.168ZM170.1 72.272C169.708 72.272 169.386 71.964 169.386 71.572C169.386 71.18 169.708 70.858 170.1 70.858C170.492 70.858 170.8 71.18 170.8 71.572C170.8 71.964 170.492 72.272 170.1 72.272ZM170.618 80H169.568V73.238H170.618V80ZM175.666 80.168C173.608 80.168 172.32 78.572 172.32 76.612C172.32 74.652 173.608 73.07 175.666 73.07C177.724 73.07 179.012 74.652 179.012 76.612C179.012 78.572 177.724 80.168 175.666 80.168ZM175.666 79.23C177.108 79.23 177.906 77.998 177.906 76.612C177.906 75.24 177.108 74.008 175.666 74.008C174.224 74.008 173.426 75.24 173.426 76.612C173.426 77.998 174.224 79.23 175.666 79.23ZM186.338 80H185.302V75.576C185.302 74.372 184.686 74.008 183.776 74.008C182.95 74.008 182.18 74.512 181.774 75.058V80H180.724V73.238H181.774V74.218C182.25 73.644 183.174 73.07 184.196 73.07C185.596 73.07 186.338 73.784 186.338 75.254V80ZM190.605 80.168C189.485 80.168 188.561 79.818 187.875 79.104L188.407 78.348C188.855 78.866 189.709 79.314 190.633 79.314C191.669 79.314 192.243 78.824 192.243 78.152C192.243 76.514 188.057 77.522 188.057 75.016C188.057 73.952 188.953 73.07 190.563 73.07C191.725 73.07 192.537 73.504 193.069 74.05L192.579 74.778C192.173 74.288 191.445 73.924 190.563 73.924C189.639 73.924 189.065 74.386 189.065 74.988C189.065 76.458 193.251 75.492 193.251 78.124C193.251 79.258 192.341 80.168 190.605 80.168ZM199.63 80H198.58V70.662H199.63V80ZM202.256 72.272C201.864 72.272 201.542 71.964 201.542 71.572C201.542 71.18 201.864 70.858 202.256 70.858C202.648 70.858 202.956 71.18 202.956 71.572C202.956 71.964 202.648 72.272 202.256 72.272ZM202.774 80H201.724V73.238H202.774V80ZM210.819 80H209.475L207.053 76.962L205.919 78.068V80H204.869V70.662H205.919V76.836L209.475 73.238H210.805L207.809 76.304L210.819 80ZM215.085 80.168C213.069 80.168 211.627 78.726 211.627 76.612C211.627 74.652 213.027 73.07 214.959 73.07C217.003 73.07 218.207 74.666 218.207 76.696V76.962H212.747C212.831 78.236 213.713 79.3 215.169 79.3C215.953 79.3 216.723 78.992 217.269 78.432L217.773 79.118C217.087 79.79 216.177 80.168 215.085 80.168ZM217.171 76.178C217.157 75.184 216.485 73.938 214.945 73.938C213.503 73.938 212.789 75.156 212.733 76.178H217.171ZM227.997 80.182C225.337 80.182 223.195 78.236 223.195 75.338C223.195 72.426 225.337 70.508 227.997 70.508C229.663 70.508 230.811 71.236 231.623 72.244L230.699 72.832C230.111 72.076 229.117 71.544 227.997 71.544C225.953 71.544 224.399 73.098 224.399 75.338C224.399 77.55 225.953 79.132 227.997 79.132C229.117 79.132 230.041 78.6 230.517 78.124V76.234H227.297V75.198H231.665V78.558C230.797 79.538 229.523 80.182 227.997 80.182ZM236.577 80.168C234.561 80.168 233.119 78.726 233.119 76.612C233.119 74.652 234.519 73.07 236.451 73.07C238.495 73.07 239.699 74.666 239.699 76.696V76.962H234.239C234.323 78.236 235.205 79.3 236.661 79.3C237.445 79.3 238.215 78.992 238.761 78.432L239.265 79.118C238.579 79.79 237.669 80.168 236.577 80.168ZM238.663 76.178C238.649 75.184 237.977 73.938 236.437 73.938C234.995 73.938 234.281 75.156 234.225 76.178H238.663ZM244.466 80.168C242.45 80.168 241.008 78.726 241.008 76.612C241.008 74.652 242.408 73.07 244.34 73.07C246.384 73.07 247.588 74.666 247.588 76.696V76.962H242.128C242.212 78.236 243.094 79.3 244.55 79.3C245.334 79.3 246.104 78.992 246.65 78.432L247.154 79.118C246.468 79.79 245.558 80.168 244.466 80.168ZM246.552 76.178C246.538 75.184 245.866 73.938 244.326 73.938C242.884 73.938 242.17 75.156 242.114 76.178H246.552ZM255.239 80H253.895L251.473 76.962L250.339 78.068V80H249.289V70.662H250.339V76.836L253.895 73.238H255.225L252.229 76.304L255.239 80ZM260.778 80H256.522V70.662H260.68C262.304 70.662 263.298 71.642 263.298 73.042C263.298 74.218 262.514 75.002 261.66 75.184C262.654 75.338 263.48 76.36 263.48 77.48C263.48 78.978 262.486 80 260.778 80ZM260.484 74.708C261.534 74.708 262.094 74.064 262.094 73.21C262.094 72.37 261.534 71.698 260.484 71.698H257.684V74.708H260.484ZM260.554 78.964C261.632 78.964 262.276 78.348 262.276 77.354C262.276 76.5 261.688 75.744 260.554 75.744H257.684V78.964H260.554ZM268.351 80.168C266.335 80.168 264.893 78.726 264.893 76.612C264.893 74.652 266.293 73.07 268.225 73.07C270.269 73.07 271.473 74.666 271.473 76.696V76.962H266.013C266.097 78.236 266.979 79.3 268.435 79.3C269.219 79.3 269.989 78.992 270.535 78.432L271.039 79.118C270.353 79.79 269.443 80.168 268.351 80.168ZM270.437 76.178C270.423 75.184 269.751 73.938 268.211 73.938C266.769 73.938 266.055 75.156 265.999 76.178H270.437ZM278.787 80H277.751V75.576C277.751 74.372 277.135 74.008 276.225 74.008C275.399 74.008 274.629 74.512 274.223 75.058V80H273.173V73.238H274.223V74.218C274.699 73.644 275.623 73.07 276.645 73.07C278.045 73.07 278.787 73.784 278.787 75.254V80ZM283.88 80.168C281.864 80.168 280.506 78.614 280.506 76.612C280.506 74.61 281.864 73.07 283.88 73.07C285.112 73.07 285.84 73.574 286.358 74.246L285.658 74.876C285.21 74.26 284.636 74.008 283.936 74.008C282.508 74.008 281.598 75.114 281.598 76.612C281.598 78.11 282.508 79.23 283.936 79.23C284.636 79.23 285.21 78.95 285.658 78.348L286.358 78.992C285.84 79.664 285.112 80.168 283.88 80.168ZM293.471 80H292.421V75.548C292.421 74.344 291.819 74.008 290.895 74.008C290.083 74.008 289.299 74.512 288.907 75.058V80H287.857V70.662H288.907V74.218C289.369 73.644 290.293 73.07 291.315 73.07C292.729 73.07 293.471 73.756 293.471 75.226V80ZM296.128 80.14C295.708 80.14 295.358 79.79 295.358 79.37C295.358 78.95 295.708 78.6 296.128 78.6C296.548 78.6 296.898 78.95 296.898 79.37C296.898 79.79 296.548 80.14 296.128 80.14Z" fill="#212121"/>
</svg>
