<svg width="319" height="83" viewBox="0 0 319 83" fill="none" xmlns="http://www.w3.org/2000/svg">
<path d="M5.516 10.168C2.828 10.168 0.714 8.208 0.714 5.338C0.714 2.468 2.828 0.508 5.516 0.508C7.168 0.508 8.316 1.292 9.058 2.356L8.092 2.902C7.56 2.104 6.58 1.544 5.516 1.544C3.472 1.544 1.918 3.098 1.918 5.338C1.918 7.55 3.472 9.132 5.516 9.132C6.58 9.132 7.56 8.558 8.092 7.774L9.072 8.306C8.288 9.384 7.168 10.168 5.516 10.168ZM15.7889 10H14.7389V9.23C14.1929 9.846 13.4089 10.168 12.4989 10.168C11.3649 10.168 10.1469 9.398 10.1469 7.928C10.1469 6.402 11.3509 5.702 12.4989 5.702C13.4229 5.702 14.1929 5.996 14.7389 6.612V5.394C14.7389 4.498 14.0109 3.98 13.0309 3.98C12.2189 3.98 11.5609 4.26 10.9589 4.918L10.4689 4.19C11.1969 3.434 12.0649 3.07 13.1709 3.07C14.6129 3.07 15.7889 3.714 15.7889 5.352V10ZM12.8909 9.412C13.6189 9.412 14.3329 9.132 14.7389 8.572V7.284C14.3329 6.738 13.6189 6.458 12.8909 6.458C11.8969 6.458 11.2109 7.074 11.2109 7.928C11.2109 8.796 11.8969 9.412 12.8909 9.412ZM18.9574 10H17.9074V3.238H18.9574V4.316C19.5034 3.616 20.2874 3.084 21.2114 3.084V4.162C21.0854 4.148 20.9594 4.134 20.8054 4.134C20.1474 4.134 19.2654 4.666 18.9574 5.212V10ZM27.8065 10H26.7565V9.23C26.2105 9.846 25.4265 10.168 24.5165 10.168C23.3825 10.168 22.1645 9.398 22.1645 7.928C22.1645 6.402 23.3685 5.702 24.5165 5.702C25.4405 5.702 26.2105 5.996 26.7565 6.612V5.394C26.7565 4.498 26.0285 3.98 25.0485 3.98C24.2365 3.98 23.5785 4.26 22.9765 4.918L22.4865 4.19C23.2145 3.434 24.0825 3.07 25.1885 3.07C26.6305 3.07 27.8065 3.714 27.8065 5.352V10ZM24.9085 9.412C25.6365 9.412 26.3505 9.132 26.7565 8.572V7.284C26.3505 6.738 25.6365 6.458 24.9085 6.458C23.9145 6.458 23.2285 7.074 23.2285 7.928C23.2285 8.796 23.9145 9.412 24.9085 9.412ZM32.907 10.168C30.891 10.168 29.533 8.614 29.533 6.612C29.533 4.61 30.891 3.07 32.907 3.07C34.139 3.07 34.867 3.574 35.385 4.246L34.685 4.876C34.237 4.26 33.663 4.008 32.963 4.008C31.535 4.008 30.625 5.114 30.625 6.612C30.625 8.11 31.535 9.23 32.963 9.23C33.663 9.23 34.237 8.95 34.685 8.348L35.385 8.992C34.867 9.664 34.139 10.168 32.907 10.168ZM38.5923 10.168C37.5843 10.168 37.0803 9.594 37.0803 8.586V4.162H35.9603V3.238H37.0803V1.39H38.1443V3.238H39.5163V4.162H38.1443V8.362C38.1443 8.866 38.3683 9.23 38.8163 9.23C39.1243 9.23 39.3903 9.09 39.5303 8.936L39.8383 9.734C39.5723 9.986 39.1943 10.168 38.5923 10.168ZM44.0515 10.168C42.0355 10.168 40.5935 8.726 40.5935 6.612C40.5935 4.652 41.9935 3.07 43.9255 3.07C45.9695 3.07 47.1735 4.666 47.1735 6.696V6.962H41.7135C41.7975 8.236 42.6795 9.3 44.1355 9.3C44.9195 9.3 45.6895 8.992 46.2355 8.432L46.7395 9.118C46.0535 9.79 45.1435 10.168 44.0515 10.168ZM46.1375 6.178C46.1235 5.184 45.4515 3.938 43.9115 3.938C42.4695 3.938 41.7555 5.156 41.6995 6.178H46.1375ZM49.9242 10H48.8742V3.238H49.9242V4.316C50.4702 3.616 51.2542 3.084 52.1782 3.084V4.162C52.0522 4.148 51.9262 4.134 51.7722 4.134C51.1142 4.134 50.2322 4.666 49.9242 5.212V10ZM56.2673 0.199999L53.9013 2.216H53.1033L55.1753 0.199999H56.2673ZM54.5453 10H53.4953V3.238H54.5453V10ZM58.7958 10.168C57.6758 10.168 56.7518 9.818 56.0658 9.104L56.5978 8.348C57.0458 8.866 57.8998 9.314 58.8238 9.314C59.8598 9.314 60.4338 8.824 60.4338 8.152C60.4338 6.514 56.2478 7.522 56.2478 5.016C56.2478 3.952 57.1438 3.07 58.7538 3.07C59.9158 3.07 60.7278 3.504 61.2598 4.05L60.7698 4.778C60.3638 4.288 59.6358 3.924 58.7538 3.924C57.8298 3.924 57.2558 4.386 57.2558 4.988C57.2558 6.458 61.4418 5.492 61.4418 8.124C61.4418 9.258 60.5318 10.168 58.7958 10.168ZM64.8697 10.168C63.8617 10.168 63.3577 9.594 63.3577 8.586V4.162H62.2377V3.238H63.3577V1.39H64.4217V3.238H65.7937V4.162H64.4217V8.362C64.4217 8.866 64.6457 9.23 65.0937 9.23C65.4017 9.23 65.6677 9.09 65.8077 8.936L66.1157 9.734C65.8497 9.986 65.4717 10.168 64.8697 10.168ZM67.7949 2.272C67.4029 2.272 67.0809 1.964 67.0809 1.572C67.0809 1.18 67.4029 0.857999 67.7949 0.857999C68.1869 0.857999 68.4949 1.18 68.4949 1.572C68.4949 1.964 68.1869 2.272 67.7949 2.272ZM68.3129 10H67.2629V3.238H68.3129V10ZM73.3894 10.168C71.3734 10.168 70.0154 8.614 70.0154 6.612C70.0154 4.61 71.3734 3.07 73.3894 3.07C74.6214 3.07 75.3494 3.574 75.8674 4.246L75.1674 4.876C74.7194 4.26 74.1454 4.008 73.4454 4.008C72.0174 4.008 71.1074 5.114 71.1074 6.612C71.1074 8.11 72.0174 9.23 73.4454 9.23C74.1454 9.23 74.7194 8.95 75.1674 8.348L75.8674 8.992C75.3494 9.664 74.6214 10.168 73.3894 10.168ZM82.6307 10H81.5807V9.23C81.0347 9.846 80.2507 10.168 79.3407 10.168C78.2067 10.168 76.9887 9.398 76.9887 7.928C76.9887 6.402 78.1927 5.702 79.3407 5.702C80.2647 5.702 81.0347 5.996 81.5807 6.612V5.394C81.5807 4.498 80.8527 3.98 79.8727 3.98C79.0607 3.98 78.4027 4.26 77.8007 4.918L77.3107 4.19C78.0387 3.434 78.9067 3.07 80.0127 3.07C81.4547 3.07 82.6307 3.714 82.6307 5.352V10ZM79.7327 9.412C80.4607 9.412 81.1747 9.132 81.5807 8.572V7.284C81.1747 6.738 80.4607 6.458 79.7327 6.458C78.7387 6.458 78.0527 7.074 78.0527 7.928C78.0527 8.796 78.7387 9.412 79.7327 9.412ZM86.9052 10.168C85.7852 10.168 84.8612 9.818 84.1752 9.104L84.7072 8.348C85.1552 8.866 86.0092 9.314 86.9332 9.314C87.9692 9.314 88.5432 8.824 88.5432 8.152C88.5432 6.514 84.3572 7.522 84.3572 5.016C84.3572 3.952 85.2532 3.07 86.8632 3.07C88.0252 3.07 88.8372 3.504 89.3692 4.05L88.8792 4.778C88.4732 4.288 87.7452 3.924 86.8632 3.924C85.9392 3.924 85.3652 4.386 85.3652 4.988C85.3652 6.458 89.5512 5.492 89.5512 8.124C89.5512 9.258 88.6412 10.168 86.9052 10.168ZM97.7221 9.23C98.5481 9.23 99.3741 8.726 99.7381 8.138V5.086C99.3741 4.498 98.5481 4.008 97.7221 4.008C96.3641 4.008 95.5521 5.114 95.5521 6.612C95.5521 8.11 96.3641 9.23 97.7221 9.23ZM97.4561 10.168C95.6781 10.168 94.4461 8.796 94.4461 6.612C94.4461 4.414 95.6781 3.07 97.4561 3.07C98.4081 3.07 99.2481 3.56 99.7381 4.246V3.238H100.788V12.576H99.7381V8.978C99.1781 9.72 98.3801 10.168 97.4561 10.168ZM108.506 10H107.456V9.048C106.938 9.636 106.056 10.168 105.048 10.168C103.634 10.168 102.892 9.468 102.892 8.012V3.238H103.942V7.69C103.942 8.88 104.544 9.23 105.468 9.23C106.28 9.23 107.064 8.754 107.456 8.208V3.238H108.506V10ZM113.669 10.168C111.653 10.168 110.211 8.726 110.211 6.612C110.211 4.652 111.611 3.07 113.543 3.07C115.587 3.07 116.791 4.666 116.791 6.696V6.962H111.331C111.415 8.236 112.297 9.3 113.753 9.3C114.537 9.3 115.307 8.992 115.853 8.432L116.357 9.118C115.671 9.79 114.761 10.168 113.669 10.168ZM115.755 6.178C115.741 5.184 115.069 3.938 113.529 3.938C112.087 3.938 111.373 5.156 111.317 6.178H115.755ZM123.836 10.168C122.828 10.168 122.324 9.594 122.324 8.586V4.162H121.204V3.238H122.324V1.39H123.388V3.238H124.76V4.162H123.388V8.362C123.388 8.866 123.612 9.23 124.06 9.23C124.368 9.23 124.634 9.09 124.774 8.936L125.082 9.734C124.816 9.986 124.438 10.168 123.836 10.168ZM131.844 10H130.794V9.048C130.276 9.636 129.394 10.168 128.386 10.168C126.972 10.168 126.23 9.468 126.23 8.012V3.238H127.28V7.69C127.28 8.88 127.882 9.23 128.806 9.23C129.618 9.23 130.402 8.754 130.794 8.208V3.238H131.844V10ZM143.514 10H142.464V8.992C141.96 9.678 141.134 10.168 140.182 10.168C138.418 10.168 137.172 8.824 137.172 6.626C137.172 4.456 138.418 3.07 140.182 3.07C141.092 3.07 141.918 3.518 142.464 4.26V0.661999H143.514V10ZM140.448 9.23C141.274 9.23 142.1 8.74 142.464 8.152V5.1C142.1 4.512 141.274 4.008 140.448 4.008C139.076 4.008 138.264 5.128 138.264 6.626C138.264 8.124 139.076 9.23 140.448 9.23ZM146.148 2.272C145.756 2.272 145.434 1.964 145.434 1.572C145.434 1.18 145.756 0.857999 146.148 0.857999C146.54 0.857999 146.848 1.18 146.848 1.572C146.848 1.964 146.54 2.272 146.148 2.272ZM146.666 10H145.616V3.238H146.666V10ZM150.917 10.168C149.797 10.168 148.873 9.818 148.187 9.104L148.719 8.348C149.167 8.866 150.021 9.314 150.945 9.314C151.981 9.314 152.555 8.824 152.555 8.152C152.555 6.514 148.369 7.522 148.369 5.016C148.369 3.952 149.265 3.07 150.875 3.07C152.037 3.07 152.849 3.504 153.381 4.05L152.891 4.778C152.485 4.288 151.757 3.924 150.875 3.924C149.951 3.924 149.377 4.386 149.377 4.988C149.377 6.458 153.563 5.492 153.563 8.124C153.563 9.258 152.653 10.168 150.917 10.168ZM158.601 10.168C157.677 10.168 156.879 9.72 156.319 8.978V12.576H155.269V3.238H156.319V4.246C156.809 3.56 157.649 3.07 158.601 3.07C160.379 3.07 161.611 4.414 161.611 6.612C161.611 8.796 160.379 10.168 158.601 10.168ZM158.335 9.23C159.693 9.23 160.505 8.11 160.505 6.612C160.505 5.114 159.693 4.008 158.335 4.008C157.509 4.008 156.683 4.498 156.319 5.086V8.138C156.683 8.726 157.509 9.23 158.335 9.23ZM166.234 10.168C164.176 10.168 162.888 8.572 162.888 6.612C162.888 4.652 164.176 3.07 166.234 3.07C168.292 3.07 169.58 4.652 169.58 6.612C169.58 8.572 168.292 10.168 166.234 10.168ZM166.234 9.23C167.676 9.23 168.474 7.998 168.474 6.612C168.474 5.24 167.676 4.008 166.234 4.008C164.792 4.008 163.994 5.24 163.994 6.612C163.994 7.998 164.792 9.23 166.234 9.23ZM173.448 10.168C172.328 10.168 171.404 9.818 170.718 9.104L171.25 8.348C171.698 8.866 172.552 9.314 173.476 9.314C174.512 9.314 175.086 8.824 175.086 8.152C175.086 6.514 170.9 7.522 170.9 5.016C170.9 3.952 171.796 3.07 173.406 3.07C174.568 3.07 175.38 3.504 175.912 4.05L175.422 4.778C175.016 4.288 174.288 3.924 173.406 3.924C172.482 3.924 171.908 4.386 171.908 4.988C171.908 6.458 176.094 5.492 176.094 8.124C176.094 9.258 175.184 10.168 173.448 10.168ZM178.332 2.272C177.94 2.272 177.618 1.964 177.618 1.572C177.618 1.18 177.94 0.857999 178.332 0.857999C178.724 0.857999 179.032 1.18 179.032 1.572C179.032 1.964 178.724 2.272 178.332 2.272ZM178.85 10H177.8V3.238H178.85V10ZM182.667 10.168C181.659 10.168 181.155 9.594 181.155 8.586V4.162H180.035V3.238H181.155V1.39H182.219V3.238H183.591V4.162H182.219V8.362C182.219 8.866 182.443 9.23 182.891 9.23C183.199 9.23 183.465 9.09 183.605 8.936L183.913 9.734C183.647 9.986 183.269 10.168 182.667 10.168ZM185.592 2.272C185.2 2.272 184.878 1.964 184.878 1.572C184.878 1.18 185.2 0.857999 185.592 0.857999C185.984 0.857999 186.292 1.18 186.292 1.572C186.292 1.964 185.984 2.272 185.592 2.272ZM186.11 10H185.06V3.238H186.11V10ZM191.158 10H190.01L187.196 3.238H188.344L190.584 8.782L192.838 3.238H193.972L191.158 10ZM198.022 10.168C195.964 10.168 194.676 8.572 194.676 6.612C194.676 4.652 195.964 3.07 198.022 3.07C200.08 3.07 201.368 4.652 201.368 6.612C201.368 8.572 200.08 10.168 198.022 10.168ZM198.022 9.23C199.464 9.23 200.262 7.998 200.262 6.612C200.262 5.24 199.464 4.008 198.022 4.008C196.58 4.008 195.782 5.24 195.782 6.612C195.782 7.998 196.58 9.23 198.022 9.23ZM215.914 10H214.864V5.408C214.864 4.554 214.5 4.008 213.618 4.008C212.918 4.008 212.176 4.498 211.826 5.044V10H210.776V5.408C210.776 4.554 210.426 4.008 209.53 4.008C208.844 4.008 208.116 4.512 207.752 5.058V10H206.702V3.238H207.752V4.218C208.046 3.784 208.942 3.07 209.95 3.07C210.972 3.07 211.56 3.63 211.756 4.33C212.134 3.714 213.044 3.07 214.024 3.07C215.256 3.07 215.914 3.756 215.914 5.114V10ZM220.963 10.168C218.905 10.168 217.617 8.572 217.617 6.612C217.617 4.652 218.905 3.07 220.963 3.07C223.021 3.07 224.309 4.652 224.309 6.612C224.309 8.572 223.021 10.168 220.963 10.168ZM220.963 9.23C222.405 9.23 223.203 7.998 223.203 6.612C223.203 5.24 222.405 4.008 220.963 4.008C219.521 4.008 218.723 5.24 218.723 6.612C218.723 7.998 219.521 9.23 220.963 9.23ZM223.203 0.199999L220.837 2.216H220.039L222.111 0.199999H223.203ZM228.975 10H227.827L225.013 3.238H226.161L228.401 8.782L230.655 3.238H231.789L228.975 10ZM233.416 2.272C233.024 2.272 232.702 1.964 232.702 1.572C232.702 1.18 233.024 0.857999 233.416 0.857999C233.808 0.857999 234.116 1.18 234.116 1.572C234.116 1.964 233.808 2.272 233.416 2.272ZM233.934 10H232.884V3.238H233.934V10ZM237.079 10H236.029V0.661999H237.079V10ZM248.746 10H247.696V8.992C247.192 9.678 246.366 10.168 245.414 10.168C243.65 10.168 242.404 8.824 242.404 6.626C242.404 4.456 243.65 3.07 245.414 3.07C246.324 3.07 247.15 3.518 247.696 4.26V0.661999H248.746V10ZM245.68 9.23C246.506 9.23 247.332 8.74 247.696 8.152V5.1C247.332 4.512 246.506 4.008 245.68 4.008C244.308 4.008 243.496 5.128 243.496 6.626C243.496 8.124 244.308 9.23 245.68 9.23ZM253.915 10.168C251.899 10.168 250.457 8.726 250.457 6.612C250.457 4.652 251.857 3.07 253.789 3.07C255.833 3.07 257.037 4.666 257.037 6.696V6.962H251.577C251.661 8.236 252.543 9.3 253.999 9.3C254.783 9.3 255.553 8.992 256.099 8.432L256.603 9.118C255.917 9.79 255.007 10.168 253.915 10.168ZM256.001 6.178C255.987 5.184 255.315 3.938 253.775 3.938C252.333 3.938 251.619 5.156 251.563 6.178H256.001ZM259.788 8.166C260.152 8.754 260.978 9.23 261.818 9.23C263.176 9.23 263.988 8.124 263.988 6.626C263.988 5.128 263.176 4.008 261.818 4.008C260.978 4.008 260.152 4.512 259.788 5.1V8.166ZM259.788 10H258.738V0.661999H259.788V4.26C260.334 3.518 261.16 3.07 262.07 3.07C263.848 3.07 265.079 4.456 265.079 6.626C265.079 8.824 263.834 10.168 262.07 10.168C261.118 10.168 260.292 9.678 259.788 8.992V10ZM269.856 10.168C267.84 10.168 266.398 8.726 266.398 6.612C266.398 4.652 267.798 3.07 269.73 3.07C271.774 3.07 272.978 4.666 272.978 6.696V6.962H267.518C267.602 8.236 268.484 9.3 269.94 9.3C270.724 9.3 271.494 8.992 272.04 8.432L272.544 9.118C271.858 9.79 270.948 10.168 269.856 10.168ZM271.942 6.178C271.928 5.184 271.256 3.938 269.716 3.938C268.274 3.938 267.56 5.156 267.504 6.178H271.942ZM280.024 10.168C279.016 10.168 278.512 9.594 278.512 8.586V4.162H277.392V3.238H278.512V1.39H279.576V3.238H280.948V4.162H279.576V8.362C279.576 8.866 279.8 9.23 280.248 9.23C280.556 9.23 280.822 9.09 280.962 8.936L281.27 9.734C281.004 9.986 280.626 10.168 280.024 10.168ZM285.483 10.168C283.467 10.168 282.025 8.726 282.025 6.612C282.025 4.652 283.425 3.07 285.357 3.07C287.401 3.07 288.605 4.666 288.605 6.696V6.962H283.145C283.229 8.236 284.111 9.3 285.567 9.3C286.351 9.3 287.121 8.992 287.667 8.432L288.171 9.118C287.485 9.79 286.575 10.168 285.483 10.168ZM287.569 6.178C287.555 5.184 286.883 3.938 285.343 3.938C283.901 3.938 283.187 5.156 283.131 6.178H287.569ZM295.92 10H294.884V5.576C294.884 4.372 294.268 4.008 293.358 4.008C292.532 4.008 291.762 4.512 291.356 5.058V10H290.306V3.238H291.356V4.218C291.832 3.644 292.756 3.07 293.778 3.07C295.178 3.07 295.92 3.784 295.92 5.254V10ZM301.096 10.168C299.08 10.168 297.638 8.726 297.638 6.612C297.638 4.652 299.038 3.07 300.97 3.07C303.014 3.07 304.218 4.666 304.218 6.696V6.962H298.758C298.842 8.236 299.724 9.3 301.18 9.3C301.964 9.3 302.734 8.992 303.28 8.432L303.784 9.118C303.098 9.79 302.188 10.168 301.096 10.168ZM303.182 6.178C303.168 5.184 302.496 3.938 300.956 3.938C299.514 3.938 298.8 5.156 298.744 6.178H303.182ZM306.969 10H305.919V3.238H306.969V4.316C307.515 3.616 308.299 3.084 309.223 3.084V4.162C309.097 4.148 308.971 4.134 308.817 4.134C308.159 4.134 307.277 4.666 306.969 5.212V10ZM311.1 4.68C310.68 4.68 310.33 4.316 310.33 3.91C310.33 3.49 310.68 3.14 311.1 3.14C311.52 3.14 311.87 3.49 311.87 3.91C311.87 4.316 311.52 4.68 311.1 4.68ZM311.1 10.14C310.68 10.14 310.33 9.79 310.33 9.37C310.33 8.95 310.68 8.6 311.1 8.6C311.52 8.6 311.87 8.95 311.87 9.37C311.87 9.79 311.52 10.14 311.1 10.14ZM12.0232 20.612C12.0232 21.424 11.3372 22.11 10.5112 22.11C9.68521 22.11 8.99921 21.424 8.99921 20.612C8.99921 19.786 9.68521 19.1 10.5112 19.1C11.3372 19.1 12.0232 19.786 12.0232 20.612ZM26.516 24.168C23.828 24.168 21.714 22.208 21.714 19.338C21.714 16.468 23.828 14.508 26.516 14.508C28.168 14.508 29.316 15.292 30.058 16.356L29.092 16.902C28.56 16.104 27.58 15.544 26.516 15.544C24.472 15.544 22.918 17.098 22.918 19.338C22.918 21.55 24.472 23.132 26.516 23.132C27.58 23.132 28.56 22.558 29.092 21.774L30.072 22.306C29.288 23.384 28.168 24.168 26.516 24.168ZM34.4649 24.168C32.4069 24.168 31.1189 22.572 31.1189 20.612C31.1189 18.652 32.4069 17.07 34.4649 17.07C36.5229 17.07 37.8109 18.652 37.8109 20.612C37.8109 22.572 36.5229 24.168 34.4649 24.168ZM34.4649 23.23C35.9069 23.23 36.7049 21.998 36.7049 20.612C36.7049 19.24 35.9069 18.008 34.4649 18.008C33.0229 18.008 32.2249 19.24 32.2249 20.612C32.2249 21.998 33.0229 23.23 34.4649 23.23ZM45.1367 24H44.1007V19.576C44.1007 18.372 43.4847 18.008 42.5747 18.008C41.7487 18.008 40.9787 18.512 40.5727 19.058V24H39.5227V17.238H40.5727V18.218C41.0487 17.644 41.9727 17.07 42.9947 17.07C44.3947 17.07 45.1367 17.784 45.1367 19.254V24ZM50.3133 24.168C48.2973 24.168 46.8553 22.726 46.8553 20.612C46.8553 18.652 48.2553 17.07 50.1873 17.07C52.2313 17.07 53.4353 18.666 53.4353 20.696V20.962H47.9753C48.0593 22.236 48.9413 23.3 50.3973 23.3C51.1813 23.3 51.9513 22.992 52.4973 22.432L53.0013 23.118C52.3153 23.79 51.4053 24.168 50.3133 24.168ZM52.3993 20.178C52.3853 19.184 51.7133 17.938 50.1733 17.938C48.7313 17.938 48.0173 19.156 47.9613 20.178H52.3993ZM60.7359 24H59.5319L57.4879 21.228L55.4579 24H54.2539L56.8439 20.528L54.3939 17.238H55.6119L57.4879 19.814L59.3779 17.238H60.5819L58.1319 20.528L60.7359 24ZM62.4902 16.272C62.0982 16.272 61.7762 15.964 61.7762 15.572C61.7762 15.18 62.0982 14.858 62.4902 14.858C62.8822 14.858 63.1902 15.18 63.1902 15.572C63.1902 15.964 62.8822 16.272 62.4902 16.272ZM63.0082 24H61.9582V17.238H63.0082V24ZM68.0567 24.168C65.9987 24.168 64.7107 22.572 64.7107 20.612C64.7107 18.652 65.9987 17.07 68.0567 17.07C70.1147 17.07 71.4027 18.652 71.4027 20.612C71.4027 22.572 70.1147 24.168 68.0567 24.168ZM68.0567 23.23C69.4987 23.23 70.2967 21.998 70.2967 20.612C70.2967 19.24 69.4987 18.008 68.0567 18.008C66.6147 18.008 65.8167 19.24 65.8167 20.612C65.8167 21.998 66.6147 23.23 68.0567 23.23ZM70.2967 14.2L67.9307 16.216H67.1327L69.2047 14.2H70.2967ZM78.7285 24H77.6925V19.576C77.6925 18.372 77.0765 18.008 76.1665 18.008C75.3405 18.008 74.5705 18.512 74.1645 19.058V24H73.1145V17.238H74.1645V18.218C74.6405 17.644 75.5645 17.07 76.5865 17.07C77.9865 17.07 78.7285 17.784 78.7285 19.254V24ZM89.7401 24H88.6901V23.23C88.1441 23.846 87.3601 24.168 86.4501 24.168C85.3161 24.168 84.0981 23.398 84.0981 21.928C84.0981 20.402 85.3021 19.702 86.4501 19.702C87.3741 19.702 88.1441 19.996 88.6901 20.612V19.394C88.6901 18.498 87.9621 17.98 86.9821 17.98C86.1701 17.98 85.5121 18.26 84.9101 18.918L84.4201 18.19C85.1481 17.434 86.0161 17.07 87.1221 17.07C88.5641 17.07 89.7401 17.714 89.7401 19.352V24ZM86.8421 23.412C87.5701 23.412 88.2841 23.132 88.6901 22.572V21.284C88.2841 20.738 87.5701 20.458 86.8421 20.458C85.8481 20.458 85.1621 21.074 85.1621 21.928C85.1621 22.796 85.8481 23.412 86.8421 23.412ZM96.0136 16.272C95.6216 16.272 95.2996 15.964 95.2996 15.572C95.2996 15.18 95.6216 14.858 96.0136 14.858C96.4056 14.858 96.7136 15.18 96.7136 15.572C96.7136 15.964 96.4056 16.272 96.0136 16.272ZM96.5316 24H95.4816V17.238H96.5316V24ZM104.24 24H103.204V19.576C103.204 18.372 102.588 18.008 101.678 18.008C100.852 18.008 100.082 18.512 99.6762 19.058V24H98.6262V17.238H99.6762V18.218C100.152 17.644 101.076 17.07 102.098 17.07C103.498 17.07 104.24 17.784 104.24 19.254V24ZM108.073 24.168C107.065 24.168 106.561 23.594 106.561 22.586V18.162H105.441V17.238H106.561V15.39H107.625V17.238H108.997V18.162H107.625V22.362C107.625 22.866 107.849 23.23 108.297 23.23C108.605 23.23 108.871 23.09 109.011 22.936L109.319 23.734C109.053 23.986 108.675 24.168 108.073 24.168ZM113.532 24.168C111.516 24.168 110.074 22.726 110.074 20.612C110.074 18.652 111.474 17.07 113.406 17.07C115.45 17.07 116.654 18.666 116.654 20.696V20.962H111.194C111.278 22.236 112.16 23.3 113.616 23.3C114.4 23.3 115.17 22.992 115.716 22.432L116.22 23.118C115.534 23.79 114.624 24.168 113.532 24.168ZM115.618 20.178C115.604 19.184 114.932 17.938 113.392 17.938C111.95 17.938 111.236 19.156 111.18 20.178H115.618ZM119.405 24H118.355V17.238H119.405V18.316C119.951 17.616 120.735 17.084 121.659 17.084V18.162C121.533 18.148 121.407 18.134 121.253 18.134C120.595 18.134 119.713 18.666 119.405 19.212V24ZM128.59 24H127.554V19.576C127.554 18.372 126.938 18.008 126.028 18.008C125.202 18.008 124.432 18.512 124.026 19.058V24H122.976V17.238H124.026V18.218C124.502 17.644 125.426 17.07 126.448 17.07C127.848 17.07 128.59 17.784 128.59 19.254V24ZM133.766 24.168C131.75 24.168 130.308 22.726 130.308 20.612C130.308 18.652 131.708 17.07 133.64 17.07C135.684 17.07 136.888 18.666 136.888 20.696V20.962H131.428C131.512 22.236 132.394 23.3 133.85 23.3C134.634 23.3 135.404 22.992 135.95 22.432L136.454 23.118C135.768 23.79 134.858 24.168 133.766 24.168ZM135.852 20.178C135.838 19.184 135.166 17.938 133.626 17.938C132.184 17.938 131.47 19.156 131.414 20.178H135.852ZM140.311 24.168C139.303 24.168 138.799 23.594 138.799 22.586V18.162H137.679V17.238H138.799V15.39H139.863V17.238H141.235V18.162H139.863V22.362C139.863 22.866 140.087 23.23 140.535 23.23C140.843 23.23 141.109 23.09 141.249 22.936L141.557 23.734C141.291 23.986 140.913 24.168 140.311 24.168ZM149.281 24.168C147.223 24.168 145.935 22.572 145.935 20.612C145.935 18.652 147.223 17.07 149.281 17.07C151.339 17.07 152.627 18.652 152.627 20.612C152.627 22.572 151.339 24.168 149.281 24.168ZM149.281 23.23C150.723 23.23 151.521 21.998 151.521 20.612C151.521 19.24 150.723 18.008 149.281 18.008C147.839 18.008 147.041 19.24 147.041 20.612C147.041 21.998 147.839 23.23 149.281 23.23ZM163.576 24H162.526V23.048C162.008 23.636 161.126 24.168 160.118 24.168C158.704 24.168 157.962 23.468 157.962 22.012V17.238H159.012V21.69C159.012 22.88 159.614 23.23 160.538 23.23C161.35 23.23 162.134 22.754 162.526 22.208V17.238H163.576V24ZM167.829 24.168C166.709 24.168 165.785 23.818 165.099 23.104L165.631 22.348C166.079 22.866 166.933 23.314 167.857 23.314C168.893 23.314 169.467 22.824 169.467 22.152C169.467 20.514 165.281 21.522 165.281 19.016C165.281 17.952 166.177 17.07 167.787 17.07C168.949 17.07 169.761 17.504 170.293 18.05L169.803 18.778C169.397 18.288 168.669 17.924 167.787 17.924C166.863 17.924 166.289 18.386 166.289 18.988C166.289 20.458 170.475 19.492 170.475 22.124C170.475 23.258 169.565 24.168 167.829 24.168ZM175.135 24.168C173.077 24.168 171.789 22.572 171.789 20.612C171.789 18.652 173.077 17.07 175.135 17.07C177.193 17.07 178.481 18.652 178.481 20.612C178.481 22.572 177.193 24.168 175.135 24.168ZM175.135 23.23C176.577 23.23 177.375 21.998 177.375 20.612C177.375 19.24 176.577 18.008 175.135 18.008C173.693 18.008 172.895 19.24 172.895 20.612C172.895 21.998 173.693 23.23 175.135 23.23ZM189.766 24H188.716V22.992C188.212 23.678 187.386 24.168 186.434 24.168C184.67 24.168 183.424 22.824 183.424 20.626C183.424 18.456 184.67 17.07 186.434 17.07C187.344 17.07 188.17 17.518 188.716 18.26V14.662H189.766V24ZM186.7 23.23C187.526 23.23 188.352 22.74 188.716 22.152V19.1C188.352 18.512 187.526 18.008 186.7 18.008C185.328 18.008 184.516 19.128 184.516 20.626C184.516 22.124 185.328 23.23 186.7 23.23ZM194.934 24.168C192.918 24.168 191.476 22.726 191.476 20.612C191.476 18.652 192.876 17.07 194.808 17.07C196.852 17.07 198.056 18.666 198.056 20.696V20.962H192.596C192.68 22.236 193.562 23.3 195.018 23.3C195.802 23.3 196.572 22.992 197.118 22.432L197.622 23.118C196.936 23.79 196.026 24.168 194.934 24.168ZM197.02 20.178C197.006 19.184 196.334 17.938 194.794 17.938C193.352 17.938 192.638 19.156 192.582 20.178H197.02ZM209.33 24H208.28V22.992C207.776 23.678 206.95 24.168 205.998 24.168C204.234 24.168 202.988 22.824 202.988 20.626C202.988 18.456 204.234 17.07 205.998 17.07C206.908 17.07 207.734 17.518 208.28 18.26V14.662H209.33V24ZM206.264 23.23C207.09 23.23 207.916 22.74 208.28 22.152V19.1C207.916 18.512 207.09 18.008 206.264 18.008C204.892 18.008 204.08 19.128 204.08 20.626C204.08 22.124 204.892 23.23 206.264 23.23ZM216.711 24H215.661V23.23C215.115 23.846 214.331 24.168 213.421 24.168C212.287 24.168 211.069 23.398 211.069 21.928C211.069 20.402 212.273 19.702 213.421 19.702C214.345 19.702 215.115 19.996 215.661 20.612V19.394C215.661 18.498 214.933 17.98 213.953 17.98C213.141 17.98 212.483 18.26 211.881 18.918L211.391 18.19C212.119 17.434 212.987 17.07 214.093 17.07C215.535 17.07 216.711 17.714 216.711 19.352V24ZM213.813 23.412C214.541 23.412 215.255 23.132 215.661 22.572V21.284C215.255 20.738 214.541 20.458 213.813 20.458C212.819 20.458 212.133 21.074 212.133 21.928C212.133 22.796 212.819 23.412 213.813 23.412ZM220.551 24.168C219.543 24.168 219.039 23.594 219.039 22.586V18.162H217.919V17.238H219.039V15.39H220.103V17.238H221.475V18.162H220.103V22.362C220.103 22.866 220.327 23.23 220.775 23.23C221.083 23.23 221.349 23.09 221.489 22.936L221.797 23.734C221.531 23.986 221.153 24.168 220.551 24.168ZM225.899 24.168C223.841 24.168 222.553 22.572 222.553 20.612C222.553 18.652 223.841 17.07 225.899 17.07C227.957 17.07 229.245 18.652 229.245 20.612C229.245 22.572 227.957 24.168 225.899 24.168ZM225.899 23.23C227.341 23.23 228.139 21.998 228.139 20.612C228.139 19.24 227.341 18.008 225.899 18.008C224.457 18.008 223.659 19.24 223.659 20.612C223.659 21.998 224.457 23.23 225.899 23.23ZM233.112 24.168C231.992 24.168 231.068 23.818 230.382 23.104L230.914 22.348C231.362 22.866 232.216 23.314 233.14 23.314C234.176 23.314 234.75 22.824 234.75 22.152C234.75 20.514 230.564 21.522 230.564 19.016C230.564 17.952 231.46 17.07 233.07 17.07C234.232 17.07 235.044 17.504 235.576 18.05L235.086 18.778C234.68 18.288 233.952 17.924 233.07 17.924C232.146 17.924 231.572 18.386 231.572 18.988C231.572 20.458 235.758 19.492 235.758 22.124C235.758 23.258 234.848 24.168 233.112 24.168ZM238.024 24.14C237.604 24.14 237.254 23.79 237.254 23.37C237.254 22.95 237.604 22.6 238.024 22.6C238.444 22.6 238.794 22.95 238.794 23.37C238.794 23.79 238.444 24.14 238.024 24.14ZM12.0232 34.612C12.0232 35.424 11.3372 36.11 10.5112 36.11C9.68521 36.11 8.99921 35.424 8.99921 34.612C8.99921 33.786 9.68521 33.1 10.5112 33.1C11.3372 33.1 12.0232 33.786 12.0232 34.612ZM30.086 38H28.756L27.93 35.914H23.282L22.456 38H21.126L24.892 28.662H26.334L30.086 38ZM27.594 34.892L25.606 29.852L23.632 34.892H27.594ZM36.8788 38H35.8428V33.576C35.8428 32.372 35.2268 32.008 34.3168 32.008C33.4908 32.008 32.7208 32.512 32.3148 33.058V38H31.2648V31.238H32.3148V32.218C32.7908 31.644 33.7148 31.07 34.7368 31.07C36.1368 31.07 36.8788 31.784 36.8788 33.254V38ZM44.9395 38H43.8895V36.992C43.3855 37.678 42.5595 38.168 41.6075 38.168C39.8435 38.168 38.5975 36.824 38.5975 34.626C38.5975 32.456 39.8435 31.07 41.6075 31.07C42.5175 31.07 43.3435 31.518 43.8895 32.26V28.662H44.9395V38ZM41.8735 37.23C42.6995 37.23 43.5255 36.74 43.8895 36.152V33.1C43.5255 32.512 42.6995 32.008 41.8735 32.008C40.5015 32.008 39.6895 33.128 39.6895 34.626C39.6895 36.124 40.5015 37.23 41.8735 37.23ZM48.0922 38H47.0422V31.238H48.0922V32.316C48.6382 31.616 49.4222 31.084 50.3462 31.084V32.162C50.2202 32.148 50.0942 32.134 49.9402 32.134C49.2822 32.134 48.4002 32.666 48.0922 33.212V38ZM54.6173 38.168C52.5593 38.168 51.2713 36.572 51.2713 34.612C51.2713 32.652 52.5593 31.07 54.6173 31.07C56.6753 31.07 57.9633 32.652 57.9633 34.612C57.9633 36.572 56.6753 38.168 54.6173 38.168ZM54.6173 37.23C56.0593 37.23 56.8573 35.998 56.8573 34.612C56.8573 33.24 56.0593 32.008 54.6173 32.008C53.1753 32.008 52.3773 33.24 52.3773 34.612C52.3773 35.998 53.1753 37.23 54.6173 37.23ZM60.207 30.272C59.815 30.272 59.493 29.964 59.493 29.572C59.493 29.18 59.815 28.858 60.207 28.858C60.599 28.858 60.907 29.18 60.907 29.572C60.907 29.964 60.599 30.272 60.207 30.272ZM60.725 38H59.675V31.238H60.725V38ZM68.7695 38H67.7195V36.992C67.2155 37.678 66.3895 38.168 65.4375 38.168C63.6735 38.168 62.4275 36.824 62.4275 34.626C62.4275 32.456 63.6735 31.07 65.4375 31.07C66.3475 31.07 67.1735 31.518 67.7195 32.26V28.662H68.7695V38ZM65.7035 37.23C66.5295 37.23 67.3555 36.74 67.7195 36.152V33.1C67.3555 32.512 66.5295 32.008 65.7035 32.008C64.3315 32.008 63.5195 33.128 63.5195 34.626C63.5195 36.124 64.3315 37.23 65.7035 37.23ZM76.4273 38H75.1393L78.9053 29.698H73.8793V28.662H80.2493V29.46L76.4273 38ZM80.9069 38.14C80.4869 38.14 80.1369 37.79 80.1369 37.37C80.1369 36.95 80.4869 36.6 80.9069 36.6C81.3269 36.6 81.6769 36.95 81.6769 37.37C81.6769 37.79 81.3269 38.14 80.9069 38.14ZM85.0974 38H83.9354V30.188L82.4374 31.784L81.7374 31.07L84.0754 28.662H85.0974V38ZM93.8145 38.168C91.7565 38.168 90.4685 36.572 90.4685 34.612C90.4685 32.652 91.7565 31.07 93.8145 31.07C95.8725 31.07 97.1605 32.652 97.1605 34.612C97.1605 36.572 95.8725 38.168 93.8145 38.168ZM93.8145 37.23C95.2565 37.23 96.0545 35.998 96.0545 34.612C96.0545 33.24 95.2565 32.008 93.8145 32.008C92.3725 32.008 91.5745 33.24 91.5745 34.612C91.5745 35.998 92.3725 37.23 93.8145 37.23ZM104.651 38.168C103.531 38.168 102.607 37.818 101.921 37.104L102.453 36.348C102.901 36.866 103.755 37.314 104.679 37.314C105.715 37.314 106.289 36.824 106.289 36.152C106.289 34.514 102.103 35.522 102.103 33.016C102.103 31.952 102.999 31.07 104.609 31.07C105.771 31.07 106.583 31.504 107.115 32.05L106.625 32.778C106.219 32.288 105.491 31.924 104.609 31.924C103.685 31.924 103.111 32.386 103.111 32.988C103.111 34.458 107.297 33.492 107.297 36.124C107.297 37.258 106.387 38.168 104.651 38.168ZM114.617 38H113.567V37.048C113.049 37.636 112.167 38.168 111.159 38.168C109.745 38.168 109.003 37.468 109.003 36.012V31.238H110.053V35.69C110.053 36.88 110.655 37.23 111.579 37.23C112.391 37.23 113.175 36.754 113.567 36.208V31.238H114.617V38ZM120.046 38.168C119.122 38.168 118.324 37.72 117.764 36.978V40.576H116.714V31.238H117.764V32.246C118.254 31.56 119.094 31.07 120.046 31.07C121.824 31.07 123.056 32.414 123.056 34.612C123.056 36.796 121.824 38.168 120.046 38.168ZM119.78 37.23C121.138 37.23 121.95 36.11 121.95 34.612C121.95 33.114 121.138 32.008 119.78 32.008C118.954 32.008 118.128 32.498 117.764 33.086V36.138C118.128 36.726 118.954 37.23 119.78 37.23ZM127.792 38.168C125.776 38.168 124.334 36.726 124.334 34.612C124.334 32.652 125.734 31.07 127.666 31.07C129.71 31.07 130.914 32.666 130.914 34.696V34.962H125.454C125.538 36.236 126.42 37.3 127.876 37.3C128.66 37.3 129.43 36.992 129.976 36.432L130.48 37.118C129.794 37.79 128.884 38.168 127.792 38.168ZM129.878 34.178C129.864 33.184 129.192 31.938 127.652 31.938C126.21 31.938 125.496 33.156 125.44 34.178H129.878ZM133.664 38H132.614V31.238H133.664V32.316C134.21 31.616 134.994 31.084 135.918 31.084V32.162C135.792 32.148 135.666 32.134 135.512 32.134C134.854 32.134 133.972 32.666 133.664 33.212V38ZM137.768 30.272C137.376 30.272 137.054 29.964 137.054 29.572C137.054 29.18 137.376 28.858 137.768 28.858C138.16 28.858 138.468 29.18 138.468 29.572C138.468 29.964 138.16 30.272 137.768 30.272ZM138.286 38H137.236V31.238H138.286V38ZM143.334 38.168C141.276 38.168 139.988 36.572 139.988 34.612C139.988 32.652 141.276 31.07 143.334 31.07C145.392 31.07 146.68 32.652 146.68 34.612C146.68 36.572 145.392 38.168 143.334 38.168ZM143.334 37.23C144.776 37.23 145.574 35.998 145.574 34.612C145.574 33.24 144.776 32.008 143.334 32.008C141.892 32.008 141.094 33.24 141.094 34.612C141.094 35.998 141.892 37.23 143.334 37.23ZM149.442 38H148.392V31.238H149.442V32.316C149.988 31.616 150.772 31.084 151.696 31.084V32.162C151.57 32.148 151.444 32.134 151.29 32.134C150.632 32.134 149.75 32.666 149.442 33.212V38ZM157.21 38.14C156.79 38.14 156.44 37.79 156.44 37.37C156.44 36.95 156.79 36.6 157.21 36.6C157.63 36.6 157.98 36.95 157.98 37.37C157.98 37.79 157.63 38.14 157.21 38.14ZM12.0232 48.612C12.0232 49.424 11.3372 50.11 10.5112 50.11C9.68521 50.11 8.99921 49.424 8.99921 48.612C8.99921 47.786 9.68521 47.1 10.5112 47.1C11.3372 47.1 12.0232 47.786 12.0232 48.612ZM30.086 52H28.756L27.93 49.914H23.282L22.456 52H21.126L24.892 42.662H26.334L30.086 52ZM27.594 48.892L25.606 43.852L23.632 48.892H27.594ZM34.5968 52.168C33.6728 52.168 32.8748 51.72 32.3148 50.978V54.576H31.2648V45.238H32.3148V46.246C32.8048 45.56 33.6448 45.07 34.5968 45.07C36.3748 45.07 37.6068 46.414 37.6068 48.612C37.6068 50.796 36.3748 52.168 34.5968 52.168ZM34.3308 51.23C35.6888 51.23 36.5008 50.11 36.5008 48.612C36.5008 47.114 35.6888 46.008 34.3308 46.008C33.5048 46.008 32.6788 46.498 32.3148 47.086V50.138C32.6788 50.726 33.5048 51.23 34.3308 51.23ZM42.6086 52.168C41.6846 52.168 40.8866 51.72 40.3266 50.978V54.576H39.2766V45.238H40.3266V46.246C40.8166 45.56 41.6566 45.07 42.6086 45.07C44.3866 45.07 45.6186 46.414 45.6186 48.612C45.6186 50.796 44.3866 52.168 42.6086 52.168ZM42.3426 51.23C43.7006 51.23 44.5126 50.11 44.5126 48.612C44.5126 47.114 43.7006 46.008 42.3426 46.008C41.5166 46.008 40.6906 46.498 40.3266 47.086V50.138C40.6906 50.726 41.5166 51.23 42.3426 51.23ZM48.3383 52H47.2883V42.662H48.3383V52ZM53.4988 52.168C51.4828 52.168 50.0408 50.726 50.0408 48.612C50.0408 46.652 51.4408 45.07 53.3728 45.07C55.4168 45.07 56.6208 46.666 56.6208 48.696V48.962H51.1608C51.2448 50.236 52.1268 51.3 53.5828 51.3C54.3668 51.3 55.1368 50.992 55.6828 50.432L56.1868 51.118C55.5008 51.79 54.5908 52.168 53.4988 52.168ZM55.5848 48.178C55.5708 47.184 54.8988 45.938 53.3588 45.938C51.9168 45.938 51.2028 47.156 51.1468 48.178H55.5848ZM62.4765 44.272C62.0845 44.272 61.7625 43.964 61.7625 43.572C61.7625 43.18 62.0845 42.858 62.4765 42.858C62.8685 42.858 63.1765 43.18 63.1765 43.572C63.1765 43.964 62.8685 44.272 62.4765 44.272ZM62.9945 52H61.9445V45.238H62.9945V52ZM69.3871 52.168C66.6291 52.168 64.7531 50.096 64.7531 47.338C64.7531 44.58 66.6291 42.508 69.3871 42.508C72.1451 42.508 74.0351 44.58 74.0351 47.338C74.0351 50.096 72.1451 52.168 69.3871 52.168ZM69.3871 51.132C71.4731 51.132 72.8311 49.508 72.8311 47.338C72.8311 45.154 71.4731 43.544 69.3871 43.544C67.2871 43.544 65.9571 45.154 65.9571 47.338C65.9571 49.508 67.2871 51.132 69.3871 51.132ZM78.8601 52.168C77.2501 52.168 76.0461 51.552 75.2761 50.684L75.9761 49.788C76.5781 50.488 77.5861 51.132 78.9021 51.132C80.5681 51.132 81.1001 50.236 81.1001 49.508C81.1001 47.1 75.5701 48.444 75.5701 45.112C75.5701 43.572 76.9421 42.508 78.7901 42.508C80.2041 42.508 81.3101 42.998 82.0941 43.824L81.3941 44.678C80.6941 43.894 79.7141 43.558 78.6921 43.558C77.5861 43.558 76.7741 44.16 76.7741 45.042C76.7741 47.142 82.3041 45.938 82.3041 49.424C82.3041 50.768 81.3801 52.168 78.8601 52.168ZM90.2243 52H89.0623V44.188L87.5643 45.784L86.8643 45.07L89.2023 42.662H90.2243V52ZM98.4825 52H92.0705V51.062C95.4305 48.43 97.2645 46.876 97.2645 45.266C97.2645 44.062 96.2705 43.558 95.3045 43.558C94.1845 43.558 93.3165 44.034 92.7705 44.734L92.0565 43.992C92.7705 43.04 93.9885 42.522 95.3045 42.522C96.8585 42.522 98.4405 43.404 98.4405 45.266C98.4405 47.17 96.5085 48.906 93.9045 50.964H98.4825V52ZM101.155 52.14C100.735 52.14 100.385 51.79 100.385 51.37C100.385 50.95 100.735 50.6 101.155 50.6C101.575 50.6 101.925 50.95 101.925 51.37C101.925 51.79 101.575 52.14 101.155 52.14ZM108.833 52H107.671V49.634H103.233V48.668L107.237 42.662H108.833V48.612H110.149V49.634H108.833V52ZM107.671 48.612V43.74L104.395 48.612H107.671ZM121.856 52.168C119.798 52.168 118.51 50.572 118.51 48.612C118.51 46.652 119.798 45.07 121.856 45.07C123.914 45.07 125.202 46.652 125.202 48.612C125.202 50.572 123.914 52.168 121.856 52.168ZM121.856 51.23C123.298 51.23 124.096 49.998 124.096 48.612C124.096 47.24 123.298 46.008 121.856 46.008C120.414 46.008 119.616 47.24 119.616 48.612C119.616 49.998 120.414 51.23 121.856 51.23ZM132.692 52.168C131.572 52.168 130.648 51.818 129.962 51.104L130.494 50.348C130.942 50.866 131.796 51.314 132.72 51.314C133.756 51.314 134.33 50.824 134.33 50.152C134.33 48.514 130.144 49.522 130.144 47.016C130.144 45.952 131.04 45.07 132.65 45.07C133.812 45.07 134.624 45.504 135.156 46.05L134.666 46.778C134.26 46.288 133.532 45.924 132.65 45.924C131.726 45.924 131.152 46.386 131.152 46.988C131.152 48.458 135.338 47.492 135.338 50.124C135.338 51.258 134.428 52.168 132.692 52.168ZM142.658 52H141.608V51.048C141.09 51.636 140.208 52.168 139.2 52.168C137.786 52.168 137.044 51.468 137.044 50.012V45.238H138.094V49.69C138.094 50.88 138.696 51.23 139.62 51.23C140.432 51.23 141.216 50.754 141.608 50.208V45.238H142.658V52ZM148.087 52.168C147.163 52.168 146.365 51.72 145.805 50.978V54.576H144.755V45.238H145.805V46.246C146.295 45.56 147.135 45.07 148.087 45.07C149.865 45.07 151.097 46.414 151.097 48.612C151.097 50.796 149.865 52.168 148.087 52.168ZM147.821 51.23C149.179 51.23 149.991 50.11 149.991 48.612C149.991 47.114 149.179 46.008 147.821 46.008C146.995 46.008 146.169 46.498 145.805 47.086V50.138C146.169 50.726 146.995 51.23 147.821 51.23ZM155.833 52.168C153.817 52.168 152.375 50.726 152.375 48.612C152.375 46.652 153.775 45.07 155.707 45.07C157.751 45.07 158.955 46.666 158.955 48.696V48.962H153.495C153.579 50.236 154.461 51.3 155.917 51.3C156.701 51.3 157.471 50.992 158.017 50.432L158.521 51.118C157.835 51.79 156.925 52.168 155.833 52.168ZM157.919 48.178C157.905 47.184 157.233 45.938 155.693 45.938C154.251 45.938 153.537 47.156 153.481 48.178H157.919ZM161.705 52H160.655V45.238H161.705V46.316C162.251 45.616 163.035 45.084 163.959 45.084V46.162C163.833 46.148 163.707 46.134 163.553 46.134C162.895 46.134 162.013 46.666 161.705 47.212V52ZM165.809 44.272C165.417 44.272 165.095 43.964 165.095 43.572C165.095 43.18 165.417 42.858 165.809 42.858C166.201 42.858 166.509 43.18 166.509 43.572C166.509 43.964 166.201 44.272 165.809 44.272ZM166.327 52H165.277V45.238H166.327V52ZM171.375 52.168C169.317 52.168 168.029 50.572 168.029 48.612C168.029 46.652 169.317 45.07 171.375 45.07C173.433 45.07 174.721 46.652 174.721 48.612C174.721 50.572 173.433 52.168 171.375 52.168ZM171.375 51.23C172.817 51.23 173.615 49.998 173.615 48.612C173.615 47.24 172.817 46.008 171.375 46.008C169.933 46.008 169.135 47.24 169.135 48.612C169.135 49.998 169.933 51.23 171.375 51.23ZM177.483 52H176.433V45.238H177.483V46.316C178.029 45.616 178.813 45.084 179.737 45.084V46.162C179.611 46.148 179.485 46.134 179.331 46.134C178.673 46.134 177.791 46.666 177.483 47.212V52ZM180.452 52.14C180.032 52.14 179.682 51.79 179.682 51.37C179.682 50.95 180.032 50.6 180.452 50.6C180.872 50.6 181.222 50.95 181.222 51.37C181.222 51.79 180.872 52.14 180.452 52.14ZM12.0232 62.612C12.0232 63.424 11.3372 64.11 10.5112 64.11C9.68521 64.11 8.99921 63.424 8.99921 62.612C8.99921 61.786 9.68521 61.1 10.5112 61.1C11.3372 61.1 12.0232 61.786 12.0232 62.612ZM23.254 66H22.092V56.662H25.844C27.72 56.662 28.77 57.95 28.77 59.476C28.77 61.002 27.706 62.29 25.844 62.29H23.254V66ZM25.704 61.254C26.81 61.254 27.566 60.526 27.566 59.476C27.566 58.426 26.81 57.698 25.704 57.698H23.254V61.254H25.704ZM35.8808 66H34.8308V65.048C34.3128 65.636 33.4308 66.168 32.4228 66.168C31.0088 66.168 30.2668 65.468 30.2668 64.012V59.238H31.3168V63.69C31.3168 64.88 31.9188 65.23 32.8428 65.23C33.6548 65.23 34.4388 64.754 34.8308 64.208V59.238H35.8808V66ZM43.5917 66H42.5557V61.576C42.5557 60.372 41.9397 60.008 41.0297 60.008C40.2037 60.008 39.4337 60.512 39.0277 61.058V66H37.9777V59.238H39.0277V60.218C39.5037 59.644 40.4277 59.07 41.4497 59.07C42.8497 59.07 43.5917 59.784 43.5917 61.254V66ZM47.4243 66.168C46.4163 66.168 45.9123 65.594 45.9123 64.586V60.162H44.7923V59.238H45.9123V57.39H46.9763V59.238H48.3483V60.162H46.9763V64.362C46.9763 64.866 47.2003 65.23 47.6483 65.23C47.9563 65.23 48.2223 65.09 48.3623 64.936L48.6703 65.734C48.4043 65.986 48.0263 66.168 47.4243 66.168ZM55.0956 66H54.0456V65.23C53.4996 65.846 52.7156 66.168 51.8056 66.168C50.6716 66.168 49.4536 65.398 49.4536 63.928C49.4536 62.402 50.6576 61.702 51.8056 61.702C52.7296 61.702 53.4996 61.996 54.0456 62.612V61.394C54.0456 60.498 53.3176 59.98 52.3376 59.98C51.5256 59.98 50.8676 60.26 50.2656 60.918L49.7756 60.19C50.5036 59.434 51.3716 59.07 52.4776 59.07C53.9196 59.07 55.0956 59.714 55.0956 61.352V66ZM52.1976 65.412C52.9256 65.412 53.6396 65.132 54.0456 64.572V63.284C53.6396 62.738 52.9256 62.458 52.1976 62.458C51.2036 62.458 50.5176 63.074 50.5176 63.928C50.5176 64.796 51.2036 65.412 52.1976 65.412ZM57.7461 58.272C57.3541 58.272 57.0321 57.964 57.0321 57.572C57.0321 57.18 57.3541 56.858 57.7461 56.858C58.1381 56.858 58.4461 57.18 58.4461 57.572C58.4461 57.964 58.1381 58.272 57.7461 58.272ZM56.2621 68.744C55.5761 68.744 55.2121 68.576 54.7921 68.24L55.1561 67.456C55.3941 67.694 55.7021 67.876 56.1221 67.876C56.7521 67.876 57.2141 67.512 57.2141 66.658V59.238H58.2641V66.658C58.2641 67.988 57.5641 68.744 56.2621 68.744ZM63.4246 66.168C61.4086 66.168 59.9666 64.726 59.9666 62.612C59.9666 60.652 61.3666 59.07 63.2986 59.07C65.3426 59.07 66.5466 60.666 66.5466 62.696V62.962H61.0866C61.1706 64.236 62.0526 65.3 63.5086 65.3C64.2926 65.3 65.0626 64.992 65.6086 64.432L66.1126 65.118C65.4266 65.79 64.5166 66.168 63.4246 66.168ZM65.5106 62.178C65.4966 61.184 64.8246 59.938 63.2846 59.938C61.8426 59.938 61.1286 61.156 61.0726 62.178H65.5106ZM77.8203 66H76.7703V64.992C76.2663 65.678 75.4403 66.168 74.4883 66.168C72.7243 66.168 71.4783 64.824 71.4783 62.626C71.4783 60.456 72.7243 59.07 74.4883 59.07C75.3983 59.07 76.2243 59.518 76.7703 60.26V56.662H77.8203V66ZM74.7543 65.23C75.5803 65.23 76.4063 64.74 76.7703 64.152V61.1C76.4063 60.512 75.5803 60.008 74.7543 60.008C73.3823 60.008 72.5703 61.128 72.5703 62.626C72.5703 64.124 73.3823 65.23 74.7543 65.23ZM82.989 66.168C80.973 66.168 79.531 64.726 79.531 62.612C79.531 60.652 80.931 59.07 82.863 59.07C84.907 59.07 86.111 60.666 86.111 62.696V62.962H80.651C80.735 64.236 81.617 65.3 83.073 65.3C83.857 65.3 84.627 64.992 85.173 64.432L85.677 65.118C84.991 65.79 84.081 66.168 82.989 66.168ZM85.075 62.178C85.061 61.184 84.389 59.938 82.849 59.938C81.407 59.938 80.693 61.156 80.637 62.178H85.075ZM92.4848 66H91.4348V59.238H92.4848V60.316C93.0308 59.616 93.8148 59.084 94.7388 59.084V60.162C94.6128 60.148 94.4868 60.134 94.3328 60.134C93.6748 60.134 92.7928 60.666 92.4848 61.212V66ZM99.1219 66.168C97.1059 66.168 95.6639 64.726 95.6639 62.612C95.6639 60.652 97.0639 59.07 98.9959 59.07C101.04 59.07 102.244 60.666 102.244 62.696V62.962H96.7839C96.8679 64.236 97.7499 65.3 99.2059 65.3C99.9899 65.3 100.76 64.992 101.306 64.432L101.81 65.118C101.124 65.79 100.214 66.168 99.1219 66.168ZM101.208 62.178C101.194 61.184 100.522 59.938 98.9819 59.938C97.5399 59.938 96.8259 61.156 96.7699 62.178H101.208ZM109.559 66H108.523V61.576C108.523 60.372 107.907 60.008 106.997 60.008C106.171 60.008 105.401 60.512 104.995 61.058V66H103.945V59.238H104.995V60.218C105.471 59.644 106.395 59.07 107.417 59.07C108.817 59.07 109.559 59.784 109.559 61.254V66ZM117.619 66H116.569V64.992C116.065 65.678 115.239 66.168 114.287 66.168C112.523 66.168 111.277 64.824 111.277 62.626C111.277 60.456 112.523 59.07 114.287 59.07C115.197 59.07 116.023 59.518 116.569 60.26V56.662H117.619V66ZM114.553 65.23C115.379 65.23 116.205 64.74 116.569 64.152V61.1C116.205 60.512 115.379 60.008 114.553 60.008C113.181 60.008 112.369 61.128 112.369 62.626C112.369 64.124 113.181 65.23 114.553 65.23ZM120.254 58.272C119.862 58.272 119.54 57.964 119.54 57.572C119.54 57.18 119.862 56.858 120.254 56.858C120.646 56.858 120.954 57.18 120.954 57.572C120.954 57.964 120.646 58.272 120.254 58.272ZM120.772 66H119.722V59.238H120.772V66ZM132.078 66H131.028V61.408C131.028 60.554 130.664 60.008 129.782 60.008C129.082 60.008 128.34 60.498 127.99 61.044V66H126.94V61.408C126.94 60.554 126.59 60.008 125.694 60.008C125.008 60.008 124.28 60.512 123.916 61.058V66H122.866V59.238H123.916V60.218C124.21 59.784 125.106 59.07 126.114 59.07C127.136 59.07 127.724 59.63 127.92 60.33C128.298 59.714 129.208 59.07 130.188 59.07C131.42 59.07 132.078 59.756 132.078 61.114V66ZM134.705 58.272C134.313 58.272 133.991 57.964 133.991 57.572C133.991 57.18 134.313 56.858 134.705 56.858C135.097 56.858 135.405 57.18 135.405 57.572C135.405 57.964 135.097 58.272 134.705 58.272ZM135.223 66H134.173V59.238H135.223V66ZM140.384 66.168C138.368 66.168 136.926 64.726 136.926 62.612C136.926 60.652 138.326 59.07 140.258 59.07C142.302 59.07 143.506 60.666 143.506 62.696V62.962H138.046C138.13 64.236 139.012 65.3 140.468 65.3C141.252 65.3 142.022 64.992 142.568 64.432L143.072 65.118C142.386 65.79 141.476 66.168 140.384 66.168ZM142.47 62.178C142.456 61.184 141.784 59.938 140.244 59.938C138.802 59.938 138.088 61.156 138.032 62.178H142.47ZM150.82 66H149.784V61.576C149.784 60.372 149.168 60.008 148.258 60.008C147.432 60.008 146.662 60.512 146.256 61.058V66H145.206V59.238H146.256V60.218C146.732 59.644 147.656 59.07 148.678 59.07C150.078 59.07 150.82 59.784 150.82 61.254V66ZM154.653 66.168C153.645 66.168 153.141 65.594 153.141 64.586V60.162H152.021V59.238H153.141V57.39H154.205V59.238H155.577V60.162H154.205V64.362C154.205 64.866 154.429 65.23 154.877 65.23C155.185 65.23 155.451 65.09 155.591 64.936L155.899 65.734C155.633 65.986 155.255 66.168 154.653 66.168ZM160 66.168C157.942 66.168 156.654 64.572 156.654 62.612C156.654 60.652 157.942 59.07 160 59.07C162.058 59.07 163.346 60.652 163.346 62.612C163.346 64.572 162.058 66.168 160 66.168ZM160 65.23C161.442 65.23 162.24 63.998 162.24 62.612C162.24 61.24 161.442 60.008 160 60.008C158.558 60.008 157.76 61.24 157.76 62.612C157.76 63.998 158.558 65.23 160 65.23ZM177.893 66H176.843V61.408C176.843 60.554 176.479 60.008 175.597 60.008C174.897 60.008 174.155 60.498 173.805 61.044V66H172.755V61.408C172.755 60.554 172.405 60.008 171.509 60.008C170.823 60.008 170.095 60.512 169.731 61.058V66H168.681V59.238H169.731V60.218C170.025 59.784 170.921 59.07 171.929 59.07C172.951 59.07 173.539 59.63 173.735 60.33C174.113 59.714 175.023 59.07 176.003 59.07C177.235 59.07 177.893 59.756 177.893 61.114V66ZM185.266 66H184.216V65.23C183.67 65.846 182.886 66.168 181.976 66.168C180.842 66.168 179.624 65.398 179.624 63.928C179.624 62.402 180.828 61.702 181.976 61.702C182.9 61.702 183.67 61.996 184.216 62.612V61.394C184.216 60.498 183.488 59.98 182.508 59.98C181.696 59.98 181.038 60.26 180.436 60.918L179.946 60.19C180.674 59.434 181.542 59.07 182.648 59.07C184.09 59.07 185.266 59.714 185.266 61.352V66ZM182.368 65.412C183.096 65.412 183.81 65.132 184.216 64.572V63.284C183.81 62.738 183.096 62.458 182.368 62.458C181.374 62.458 180.688 63.074 180.688 63.928C180.688 64.796 181.374 65.412 182.368 65.412ZM187.02 68.646L187.174 67.694C187.328 67.764 187.58 67.806 187.748 67.806C188.21 67.806 188.518 67.652 188.756 67.092L189.204 66.07L186.376 59.238H187.524L189.764 64.782L192.018 59.238H193.152L189.764 67.372C189.358 68.352 188.672 68.73 187.776 68.744C187.552 68.744 187.202 68.702 187.02 68.646ZM197.201 66.168C195.143 66.168 193.855 64.572 193.855 62.612C193.855 60.652 195.143 59.07 197.201 59.07C199.259 59.07 200.547 60.652 200.547 62.612C200.547 64.572 199.259 66.168 197.201 66.168ZM197.201 65.23C198.643 65.23 199.441 63.998 199.441 62.612C199.441 61.24 198.643 60.008 197.201 60.008C195.759 60.008 194.961 61.24 194.961 62.612C194.961 63.998 195.759 65.23 197.201 65.23ZM203.309 66H202.259V59.238H203.309V60.316C203.855 59.616 204.639 59.084 205.563 59.084V60.162C205.437 60.148 205.311 60.134 205.157 60.134C204.499 60.134 203.617 60.666 203.309 61.212V66ZM215.781 66H214.731V65.23C214.185 65.846 213.401 66.168 212.491 66.168C211.357 66.168 210.139 65.398 210.139 63.928C210.139 62.402 211.343 61.702 212.491 61.702C213.415 61.702 214.185 61.996 214.731 62.612V61.394C214.731 60.498 214.003 59.98 213.023 59.98C212.211 59.98 211.553 60.26 210.951 60.918L210.461 60.19C211.189 59.434 212.057 59.07 213.163 59.07C214.605 59.07 215.781 59.714 215.781 61.352V66ZM212.883 65.412C213.611 65.412 214.325 65.132 214.731 64.572V63.284C214.325 62.738 213.611 62.458 212.883 62.458C211.889 62.458 211.203 63.074 211.203 63.928C211.203 64.796 211.889 65.412 212.883 65.412ZM226.521 66H225.359V63.634H220.921V62.668L224.925 56.662H226.521V62.612H227.837V63.634H226.521V66ZM225.359 62.612V57.74L222.083 62.612H225.359ZM232.563 66.168C230.001 66.168 228.993 63.606 228.993 61.338C228.993 59.056 230.001 56.522 232.563 56.522C235.111 56.522 236.133 59.056 236.133 61.338C236.133 63.606 235.111 66.168 232.563 66.168ZM232.563 65.132C234.341 65.132 234.943 63.2 234.943 61.338C234.943 59.476 234.341 57.558 232.563 57.558C230.785 57.558 230.183 59.476 230.183 61.338C230.183 63.2 230.785 65.132 232.563 65.132ZM241.136 66.168C238.574 66.168 237.566 63.606 237.566 61.338C237.566 59.056 238.574 56.522 241.136 56.522C243.684 56.522 244.706 59.056 244.706 61.338C244.706 63.606 243.684 66.168 241.136 66.168ZM241.136 65.132C242.914 65.132 243.516 63.2 243.516 61.338C243.516 59.476 242.914 57.558 241.136 57.558C239.358 57.558 238.756 59.476 238.756 61.338C238.756 63.2 239.358 65.132 241.136 65.132ZM252.253 66.168C251.133 66.168 250.209 65.818 249.523 65.104L250.055 64.348C250.503 64.866 251.357 65.314 252.281 65.314C253.317 65.314 253.891 64.824 253.891 64.152C253.891 62.514 249.705 63.522 249.705 61.016C249.705 59.952 250.601 59.07 252.211 59.07C253.373 59.07 254.185 59.504 254.717 60.05L254.227 60.778C253.821 60.288 253.093 59.924 252.211 59.924C251.287 59.924 250.713 60.386 250.713 60.988C250.713 62.458 254.899 61.492 254.899 64.124C254.899 65.258 253.989 66.168 252.253 66.168ZM257.137 58.272C256.745 58.272 256.423 57.964 256.423 57.572C256.423 57.18 256.745 56.858 257.137 56.858C257.529 56.858 257.837 57.18 257.837 57.572C257.837 57.964 257.529 58.272 257.137 58.272ZM257.655 66H256.605V59.238H257.655V66ZM265.363 66H264.327V61.576C264.327 60.372 263.711 60.008 262.801 60.008C261.975 60.008 261.205 60.512 260.799 61.058V66H259.749V59.238H260.799V60.218C261.275 59.644 262.199 59.07 263.221 59.07C264.621 59.07 265.363 59.784 265.363 61.254V66ZM270.19 68.744C269.056 68.744 268.272 68.52 267.46 67.722L267.992 66.966C268.552 67.624 269.224 67.876 270.19 67.876C271.31 67.876 272.374 67.33 272.374 65.902V64.88C271.87 65.566 271.044 66.084 270.092 66.084C268.328 66.084 267.082 64.768 267.082 62.584C267.082 60.414 268.314 59.07 270.092 59.07C271.002 59.07 271.828 59.518 272.374 60.26V59.238H273.424V65.902C273.424 68.044 271.842 68.744 270.19 68.744ZM270.358 65.146C271.184 65.146 271.996 64.642 272.374 64.054V61.086C271.996 60.512 271.184 60.008 270.358 60.008C268.986 60.008 268.174 61.086 268.174 62.584C268.174 64.068 268.986 65.146 270.358 65.146ZM276.577 66H275.527V56.662H276.577V66ZM281.737 66.168C279.721 66.168 278.279 64.726 278.279 62.612C278.279 60.652 279.679 59.07 281.611 59.07C283.655 59.07 284.859 60.666 284.859 62.696V62.962H279.399C279.483 64.236 280.365 65.3 281.821 65.3C282.605 65.3 283.375 64.992 283.921 64.432L284.425 65.118C283.739 65.79 282.829 66.168 281.737 66.168ZM283.823 62.178C283.809 61.184 283.137 59.938 281.597 59.938C280.155 59.938 279.441 61.156 279.385 62.178H283.823ZM289.819 68.646L289.973 67.694C290.127 67.764 290.379 67.806 290.547 67.806C291.009 67.806 291.317 67.652 291.555 67.092L292.003 66.07L289.175 59.238H290.323L292.563 64.782L294.817 59.238H295.951L292.563 67.372C292.157 68.352 291.471 68.73 290.575 68.744C290.351 68.744 290.001 68.702 289.819 68.646ZM24.654 80H23.492V72.188L21.994 73.784L21.294 73.07L23.632 70.662H24.654V80ZM29.9581 80.168C28.3901 80.168 27.3681 79.594 26.6681 78.67L27.3821 77.886C27.9981 78.684 28.8241 79.132 29.9581 79.132C31.2321 79.132 32.1141 78.264 32.1141 77.13C32.1141 75.898 31.2321 75.114 29.9721 75.114C29.1601 75.114 28.4461 75.38 27.8161 75.982L26.9621 75.688V70.662H32.6741V71.698H28.1241V74.946C28.5861 74.498 29.3701 74.106 30.3081 74.106C31.8761 74.106 33.2901 75.156 33.2901 77.088C33.2901 78.978 31.8341 80.168 29.9581 80.168ZM38.286 80.168C35.724 80.168 34.716 77.606 34.716 75.338C34.716 73.056 35.724 70.522 38.286 70.522C40.834 70.522 41.856 73.056 41.856 75.338C41.856 77.606 40.834 80.168 38.286 80.168ZM38.286 79.132C40.064 79.132 40.666 77.2 40.666 75.338C40.666 73.476 40.064 71.558 38.286 71.558C36.508 71.558 35.906 73.476 35.906 75.338C35.906 77.2 36.508 79.132 38.286 79.132ZM46.8582 80.168C44.2962 80.168 43.2882 77.606 43.2882 75.338C43.2882 73.056 44.2962 70.522 46.8582 70.522C49.4062 70.522 50.4282 73.056 50.4282 75.338C50.4282 77.606 49.4062 80.168 46.8582 80.168ZM46.8582 79.132C48.6362 79.132 49.2382 77.2 49.2382 75.338C49.2382 73.476 48.6362 71.558 46.8582 71.558C45.0802 71.558 44.4782 73.476 44.4782 75.338C44.4782 77.2 45.0802 79.132 46.8582 79.132ZM65.0315 80H63.9815V75.408C63.9815 74.554 63.6175 74.008 62.7355 74.008C62.0355 74.008 61.2935 74.498 60.9435 75.044V80H59.8935V75.408C59.8935 74.554 59.5435 74.008 58.6475 74.008C57.9615 74.008 57.2335 74.512 56.8695 75.058V80H55.8195V73.238H56.8695V74.218C57.1635 73.784 58.0595 73.07 59.0675 73.07C60.0895 73.07 60.6775 73.63 60.8735 74.33C61.2515 73.714 62.1615 73.07 63.1415 73.07C64.3735 73.07 65.0315 73.756 65.0315 75.114V80ZM72.7402 80H71.6902V79.048C71.1722 79.636 70.2902 80.168 69.2822 80.168C67.8682 80.168 67.1262 79.468 67.1262 78.012V73.238H68.1762V77.69C68.1762 78.88 68.7782 79.23 69.7022 79.23C70.5142 79.23 71.2982 78.754 71.6902 78.208V73.238H72.7402V80ZM72.1942 70.2L69.8282 72.216H69.0302L71.1022 70.2H72.1942ZM75.8871 80H74.8371V70.662H75.8871V80ZM79.7036 80.168C78.6956 80.168 78.1916 79.594 78.1916 78.586V74.162H77.0716V73.238H78.1916V71.39H79.2556V73.238H80.6276V74.162H79.2556V78.362C79.2556 78.866 79.4796 79.23 79.9276 79.23C80.2356 79.23 80.5016 79.09 80.6416 78.936L80.9496 79.734C80.6836 79.986 80.3056 80.168 79.7036 80.168ZM82.6289 72.272C82.2369 72.272 81.9149 71.964 81.9149 71.572C81.9149 71.18 82.2369 70.858 82.6289 70.858C83.0209 70.858 83.3289 71.18 83.3289 71.572C83.3289 71.964 83.0209 72.272 82.6289 72.272ZM83.1469 80H82.0969V73.238H83.1469V80ZM88.5734 80.168C87.6494 80.168 86.8514 79.72 86.2914 78.978V82.576H85.2414V73.238H86.2914V74.246C86.7814 73.56 87.6214 73.07 88.5734 73.07C90.3514 73.07 91.5834 74.414 91.5834 76.612C91.5834 78.796 90.3514 80.168 88.5734 80.168ZM88.3074 79.23C89.6654 79.23 90.4774 78.11 90.4774 76.612C90.4774 75.114 89.6654 74.008 88.3074 74.008C87.4814 74.008 86.6554 74.498 86.2914 75.086V78.138C86.6554 78.726 87.4814 79.23 88.3074 79.23ZM94.3031 80H93.2531V70.662H94.3031V80ZM99.4637 80.168C97.4477 80.168 96.0057 78.726 96.0057 76.612C96.0057 74.652 97.4057 73.07 99.3377 73.07C101.382 73.07 102.586 74.666 102.586 76.696V76.962H97.1257C97.2097 78.236 98.0917 79.3 99.5477 79.3C100.332 79.3 101.102 78.992 101.648 78.432L102.152 79.118C101.466 79.79 100.556 80.168 99.4637 80.168ZM101.55 76.178C101.536 75.184 100.864 73.938 99.3237 73.938C97.8817 73.938 97.1677 75.156 97.1117 76.178H101.55ZM110.975 80.168C108.959 80.168 107.517 78.726 107.517 76.612C107.517 74.652 108.917 73.07 110.849 73.07C112.893 73.07 114.097 74.666 114.097 76.696V76.962H108.637C108.721 78.236 109.603 79.3 111.059 79.3C111.843 79.3 112.613 78.992 113.159 78.432L113.663 79.118C112.977 79.79 112.067 80.168 110.975 80.168ZM113.061 76.178C113.047 75.184 112.375 73.938 110.835 73.938C109.393 73.938 108.679 75.156 108.623 76.178H113.061ZM121.412 80H120.376V75.576C120.376 74.372 119.76 74.008 118.85 74.008C118.024 74.008 117.254 74.512 116.848 75.058V80H115.798V73.238H116.848V74.218C117.324 73.644 118.248 73.07 119.27 73.07C120.67 73.07 121.412 73.784 121.412 75.254V80ZM132.424 80H131.374V79.23C130.828 79.846 130.044 80.168 129.134 80.168C128 80.168 126.782 79.398 126.782 77.928C126.782 76.402 127.986 75.702 129.134 75.702C130.058 75.702 130.828 75.996 131.374 76.612V75.394C131.374 74.498 130.646 73.98 129.666 73.98C128.854 73.98 128.196 74.26 127.594 74.918L127.104 74.19C127.832 73.434 128.7 73.07 129.806 73.07C131.248 73.07 132.424 73.714 132.424 75.352V80ZM129.526 79.412C130.254 79.412 130.968 79.132 131.374 78.572V77.284C130.968 76.738 130.254 76.458 129.526 76.458C128.532 76.458 127.846 77.074 127.846 77.928C127.846 78.796 128.532 79.412 129.526 79.412ZM137.874 80.168C136.95 80.168 136.152 79.72 135.592 78.978V82.576H134.542V73.238H135.592V74.246C136.082 73.56 136.922 73.07 137.874 73.07C139.652 73.07 140.884 74.414 140.884 76.612C140.884 78.796 139.652 80.168 137.874 80.168ZM137.608 79.23C138.966 79.23 139.778 78.11 139.778 76.612C139.778 75.114 138.966 74.008 137.608 74.008C136.782 74.008 135.956 74.498 135.592 75.086V78.138C135.956 78.726 136.782 79.23 137.608 79.23ZM143.604 80H142.554V70.662H143.604V80ZM146.23 72.272C145.838 72.272 145.516 71.964 145.516 71.572C145.516 71.18 145.838 70.858 146.23 70.858C146.622 70.858 146.93 71.18 146.93 71.572C146.93 71.964 146.622 72.272 146.23 72.272ZM146.748 80H145.698V73.238H146.748V80ZM151.825 80.168C149.809 80.168 148.451 78.614 148.451 76.612C148.451 74.61 149.809 73.07 151.825 73.07C153.057 73.07 153.785 73.574 154.303 74.246L153.603 74.876C153.155 74.26 152.581 74.008 151.881 74.008C150.453 74.008 149.543 75.114 149.543 76.612C149.543 78.11 150.453 79.23 151.881 79.23C152.581 79.23 153.155 78.95 153.603 78.348L154.303 78.992C153.785 79.664 153.057 80.168 151.825 80.168ZM161.066 80H160.016V79.23C159.47 79.846 158.686 80.168 157.776 80.168C156.642 80.168 155.424 79.398 155.424 77.928C155.424 76.402 156.628 75.702 157.776 75.702C158.7 75.702 159.47 75.996 160.016 76.612V75.394C160.016 74.498 159.288 73.98 158.308 73.98C157.496 73.98 156.838 74.26 156.236 74.918L155.746 74.19C156.474 73.434 157.342 73.07 158.448 73.07C159.89 73.07 161.066 73.714 161.066 75.352V80ZM158.168 79.412C158.896 79.412 159.61 79.132 160.016 78.572V77.284C159.61 76.738 158.896 76.458 158.168 76.458C157.174 76.458 156.488 77.074 156.488 77.928C156.488 78.796 157.174 79.412 158.168 79.412ZM166.167 80.168C164.151 80.168 162.793 78.614 162.793 76.612C162.793 74.61 164.151 73.07 166.167 73.07C167.399 73.07 168.127 73.574 168.645 74.246L167.945 74.876C167.497 74.26 166.923 74.008 166.223 74.008C164.795 74.008 163.885 75.114 163.885 76.612C163.885 78.11 164.795 79.23 166.223 79.23C166.923 79.23 167.497 78.95 167.945 78.348L168.645 78.992C168.127 79.664 167.399 80.168 166.167 80.168ZM170.662 72.272C170.27 72.272 169.948 71.964 169.948 71.572C169.948 71.18 170.27 70.858 170.662 70.858C171.054 70.858 171.362 71.18 171.362 71.572C171.362 71.964 171.054 72.272 170.662 72.272ZM171.18 80H170.13V73.238H171.18V80ZM176.229 80.168C174.171 80.168 172.883 78.572 172.883 76.612C172.883 74.652 174.171 73.07 176.229 73.07C178.287 73.07 179.575 74.652 179.575 76.612C179.575 78.572 178.287 80.168 176.229 80.168ZM176.229 79.23C177.671 79.23 178.469 77.998 178.469 76.612C178.469 75.24 177.671 74.008 176.229 74.008C174.787 74.008 173.989 75.24 173.989 76.612C173.989 77.998 174.787 79.23 176.229 79.23ZM186.9 80H185.864V75.576C185.864 74.372 185.248 74.008 184.338 74.008C183.512 74.008 182.742 74.512 182.336 75.058V80H181.286V73.238H182.336V74.218C182.812 73.644 183.736 73.07 184.758 73.07C186.158 73.07 186.9 73.784 186.9 75.254V80ZM192.077 80.168C190.061 80.168 188.619 78.726 188.619 76.612C188.619 74.652 190.019 73.07 191.951 73.07C193.995 73.07 195.199 74.666 195.199 76.696V76.962H189.739C189.823 78.236 190.705 79.3 192.161 79.3C192.945 79.3 193.715 78.992 194.261 78.432L194.765 79.118C194.079 79.79 193.169 80.168 192.077 80.168ZM194.163 76.178C194.149 75.184 193.477 73.938 191.937 73.938C190.495 73.938 189.781 75.156 189.725 76.178H194.163ZM199.056 80.168C197.936 80.168 197.012 79.818 196.326 79.104L196.858 78.348C197.306 78.866 198.16 79.314 199.084 79.314C200.12 79.314 200.694 78.824 200.694 78.152C200.694 76.514 196.508 77.522 196.508 75.016C196.508 73.952 197.404 73.07 199.014 73.07C200.176 73.07 200.988 73.504 201.52 74.05L201.03 74.778C200.624 74.288 199.896 73.924 199.014 73.924C198.09 73.924 197.516 74.386 197.516 74.988C197.516 76.458 201.702 75.492 201.702 78.124C201.702 79.258 200.792 80.168 199.056 80.168ZM210.012 80.168C207.996 80.168 206.638 78.614 206.638 76.612C206.638 74.61 207.996 73.07 210.012 73.07C211.244 73.07 211.972 73.574 212.49 74.246L211.79 74.876C211.342 74.26 210.768 74.008 210.068 74.008C208.64 74.008 207.73 75.114 207.73 76.612C207.73 78.11 208.64 79.23 210.068 79.23C210.768 79.23 211.342 78.95 211.79 78.348L212.49 78.992C211.972 79.664 211.244 80.168 210.012 80.168ZM216.93 80.168C214.872 80.168 213.584 78.572 213.584 76.612C213.584 74.652 214.872 73.07 216.93 73.07C218.988 73.07 220.276 74.652 220.276 76.612C220.276 78.572 218.988 80.168 216.93 80.168ZM216.93 79.23C218.372 79.23 219.17 77.998 219.17 76.612C219.17 75.24 218.372 74.008 216.93 74.008C215.488 74.008 214.69 75.24 214.69 76.612C214.69 77.998 215.488 79.23 216.93 79.23ZM231.2 80H230.15V75.408C230.15 74.554 229.786 74.008 228.904 74.008C228.204 74.008 227.462 74.498 227.112 75.044V80H226.062V75.408C226.062 74.554 225.712 74.008 224.816 74.008C224.13 74.008 223.402 74.512 223.038 75.058V80H221.988V73.238H223.038V74.218C223.332 73.784 224.228 73.07 225.236 73.07C226.258 73.07 226.846 73.63 227.042 74.33C227.42 73.714 228.329 73.07 229.31 73.07C230.542 73.07 231.2 73.756 231.2 75.114V80ZM236.248 80.168C234.19 80.168 232.902 78.572 232.902 76.612C232.902 74.652 234.19 73.07 236.248 73.07C238.306 73.07 239.594 74.652 239.594 76.612C239.594 78.572 238.306 80.168 236.248 80.168ZM236.248 79.23C237.69 79.23 238.488 77.998 238.488 76.612C238.488 75.24 237.69 74.008 236.248 74.008C234.806 74.008 234.008 75.24 234.008 76.612C234.008 77.998 234.806 79.23 236.248 79.23ZM249.395 80.182C246.735 80.182 244.593 78.236 244.593 75.338C244.593 72.426 246.735 70.508 249.395 70.508C251.061 70.508 252.209 71.236 253.021 72.244L252.097 72.832C251.509 72.076 250.515 71.544 249.395 71.544C247.351 71.544 245.797 73.098 245.797 75.338C245.797 77.55 247.351 79.132 249.395 79.132C250.515 79.132 251.439 78.6 251.915 78.124V76.234H248.695V75.198H253.063V78.558C252.195 79.538 250.921 80.182 249.395 80.182ZM257.975 80.168C255.959 80.168 254.517 78.726 254.517 76.612C254.517 74.652 255.917 73.07 257.849 73.07C259.893 73.07 261.097 74.666 261.097 76.696V76.962H255.637C255.721 78.236 256.603 79.3 258.059 79.3C258.843 79.3 259.613 78.992 260.159 78.432L260.663 79.118C259.977 79.79 259.067 80.168 257.975 80.168ZM260.061 76.178C260.047 75.184 259.375 73.938 257.835 73.938C256.393 73.938 255.679 75.156 255.623 76.178H260.061ZM265.864 80.168C263.848 80.168 262.406 78.726 262.406 76.612C262.406 74.652 263.806 73.07 265.738 73.07C267.782 73.07 268.986 74.666 268.986 76.696V76.962H263.526C263.61 78.236 264.492 79.3 265.948 79.3C266.732 79.3 267.502 78.992 268.048 78.432L268.552 79.118C267.866 79.79 266.956 80.168 265.864 80.168ZM267.95 76.178C267.936 75.184 267.264 73.938 265.724 73.938C264.282 73.938 263.568 75.156 263.512 76.178H267.95ZM276.637 80H275.293L272.871 76.962L271.737 78.068V80H270.687V70.662H271.737V76.836L275.293 73.238H276.623L273.627 76.304L276.637 80ZM282.176 80H277.92V70.662H282.078C283.702 70.662 284.696 71.642 284.696 73.042C284.696 74.218 283.912 75.002 283.058 75.184C284.052 75.338 284.878 76.36 284.878 77.48C284.878 78.978 283.884 80 282.176 80ZM281.882 74.708C282.932 74.708 283.492 74.064 283.492 73.21C283.492 72.37 282.932 71.698 281.882 71.698H279.082V74.708H281.882ZM281.952 78.964C283.03 78.964 283.674 78.348 283.674 77.354C283.674 76.5 283.086 75.744 281.952 75.744H279.082V78.964H281.952ZM289.749 80.168C287.733 80.168 286.291 78.726 286.291 76.612C286.291 74.652 287.691 73.07 289.623 73.07C291.667 73.07 292.871 74.666 292.871 76.696V76.962H287.411C287.495 78.236 288.377 79.3 289.833 79.3C290.617 79.3 291.387 78.992 291.933 78.432L292.437 79.118C291.751 79.79 290.841 80.168 289.749 80.168ZM291.835 76.178C291.821 75.184 291.149 73.938 289.609 73.938C288.167 73.938 287.453 75.156 287.397 76.178H291.835ZM300.185 80H299.149V75.576C299.149 74.372 298.533 74.008 297.623 74.008C296.797 74.008 296.027 74.512 295.621 75.058V80H294.571V73.238H295.621V74.218C296.097 73.644 297.021 73.07 298.043 73.07C299.443 73.07 300.185 73.784 300.185 75.254V80ZM305.278 80.168C303.262 80.168 301.904 78.614 301.904 76.612C301.904 74.61 303.262 73.07 305.278 73.07C306.51 73.07 307.238 73.574 307.756 74.246L307.056 74.876C306.608 74.26 306.034 74.008 305.334 74.008C303.906 74.008 302.996 75.114 302.996 76.612C302.996 78.11 303.906 79.23 305.334 79.23C306.034 79.23 306.608 78.95 307.056 78.348L307.756 78.992C307.238 79.664 306.51 80.168 305.278 80.168ZM314.869 80H313.819V75.548C313.819 74.344 313.217 74.008 312.293 74.008C311.481 74.008 310.697 74.512 310.305 75.058V80H309.255V70.662H310.305V74.218C310.767 73.644 311.691 73.07 312.713 73.07C314.127 73.07 314.869 73.756 314.869 75.226V80ZM317.526 80.14C317.106 80.14 316.756 79.79 316.756 79.37C316.756 78.95 317.106 78.6 317.526 78.6C317.946 78.6 318.296 78.95 318.296 79.37C318.296 79.79 317.946 80.14 317.526 80.14Z" fill="#212121"/>
</svg>
