<svg width="303" height="97" viewBox="0 0 303 97" fill="none" xmlns="http://www.w3.org/2000/svg">
<path d="M3.02321 6.612C3.02321 7.424 2.33721 8.11 1.51121 8.11C0.685211 8.11 -0.000789002 7.424 -0.000789002 6.612C-0.000789002 5.786 0.685211 5.1 1.51121 5.1C2.33721 5.1 3.02321 5.786 3.02321 6.612ZM17.516 10.168C14.828 10.168 12.714 8.208 12.714 5.338C12.714 2.468 14.828 0.508 17.516 0.508C19.168 0.508 20.316 1.292 21.058 2.356L20.092 2.902C19.56 2.104 18.58 1.544 17.516 1.544C15.472 1.544 13.918 3.098 13.918 5.338C13.918 7.55 15.472 9.132 17.516 9.132C18.58 9.132 19.56 8.558 20.092 7.774L21.072 8.306C20.288 9.384 19.168 10.168 17.516 10.168ZM28.1389 10H27.0889V5.548C27.0889 4.344 26.4869 4.008 25.5629 4.008C24.7509 4.008 23.9669 4.512 23.5749 5.058V10H22.5249V0.661999H23.5749V4.218C24.0369 3.644 24.9609 3.07 25.9829 3.07C27.3969 3.07 28.1389 3.756 28.1389 5.226V10ZM33.1895 10.168C31.1315 10.168 29.8435 8.572 29.8435 6.612C29.8435 4.652 31.1315 3.07 33.1895 3.07C35.2475 3.07 36.5355 4.652 36.5355 6.612C36.5355 8.572 35.2475 10.168 33.1895 10.168ZM33.1895 9.23C34.6315 9.23 35.4295 7.998 35.4295 6.612C35.4295 5.24 34.6315 4.008 33.1895 4.008C31.7475 4.008 30.9495 5.24 30.9495 6.612C30.9495 7.998 31.7475 9.23 33.1895 9.23ZM41.2013 10.168C39.1433 10.168 37.8553 8.572 37.8553 6.612C37.8553 4.652 39.1433 3.07 41.2013 3.07C43.2593 3.07 44.5473 4.652 44.5473 6.612C44.5473 8.572 43.2593 10.168 41.2013 10.168ZM41.2013 9.23C42.6433 9.23 43.4413 7.998 43.4413 6.612C43.4413 5.24 42.6433 4.008 41.2013 4.008C39.7593 4.008 38.9613 5.24 38.9613 6.612C38.9613 7.998 39.7593 9.23 41.2013 9.23ZM48.415 10.168C47.295 10.168 46.371 9.818 45.685 9.104L46.217 8.348C46.665 8.866 47.519 9.314 48.443 9.314C49.479 9.314 50.053 8.824 50.053 8.152C50.053 6.514 45.867 7.522 45.867 5.016C45.867 3.952 46.763 3.07 48.373 3.07C49.535 3.07 50.347 3.504 50.879 4.05L50.389 4.778C49.983 4.288 49.255 3.924 48.373 3.924C47.449 3.924 46.875 4.386 46.875 4.988C46.875 6.458 51.061 5.492 51.061 8.124C51.061 9.258 50.151 10.168 48.415 10.168ZM55.8328 10.168C53.8168 10.168 52.3748 8.726 52.3748 6.612C52.3748 4.652 53.7748 3.07 55.7068 3.07C57.7508 3.07 58.9548 4.666 58.9548 6.696V6.962H53.4948C53.5788 8.236 54.4608 9.3 55.9168 9.3C56.7008 9.3 57.4708 8.992 58.0168 8.432L58.5208 9.118C57.8348 9.79 56.9248 10.168 55.8328 10.168ZM57.9188 6.178C57.9048 5.184 57.2328 3.938 55.6928 3.938C54.2508 3.938 53.5368 5.156 53.4808 6.178H57.9188ZM69.5565 10H68.5065V9.23C67.9605 9.846 67.1765 10.168 66.2665 10.168C65.1325 10.168 63.9145 9.398 63.9145 7.928C63.9145 6.402 65.1185 5.702 66.2665 5.702C67.1905 5.702 67.9605 5.996 68.5065 6.612V5.394C68.5065 4.498 67.7785 3.98 66.7985 3.98C65.9865 3.98 65.3285 4.26 64.7265 4.918L64.2365 4.19C64.9645 3.434 65.8325 3.07 66.9385 3.07C68.3805 3.07 69.5565 3.714 69.5565 5.352V10ZM66.6585 9.412C67.3865 9.412 68.1005 9.132 68.5065 8.572V7.284C68.1005 6.738 67.3865 6.458 66.6585 6.458C65.6645 6.458 64.9785 7.074 64.9785 7.928C64.9785 8.796 65.6645 9.412 66.6585 9.412ZM82.214 10H81.15L79.386 4.568L77.622 10H76.572L74.416 3.238H75.508L77.16 8.628L78.938 3.238H79.848L81.612 8.628L83.264 3.238H84.37L82.214 10ZM88.6453 10.168C86.6293 10.168 85.1873 8.726 85.1873 6.612C85.1873 4.652 86.5873 3.07 88.5193 3.07C90.5633 3.07 91.7673 4.666 91.7673 6.696V6.962H86.3073C86.3913 8.236 87.2733 9.3 88.7293 9.3C89.5133 9.3 90.2833 8.992 90.8293 8.432L91.3333 9.118C90.6473 9.79 89.7373 10.168 88.6453 10.168ZM90.7313 6.178C90.7173 5.184 90.0453 3.938 88.5053 3.938C87.0633 3.938 86.3493 5.156 86.2933 6.178H90.7313ZM94.518 10H93.468V0.661999H94.518V10ZM97.6625 10H96.6125V0.661999H97.6625V10ZM102.487 7.074H99.127V6.15H102.487V7.074ZM105.004 10H103.954V0.661999H105.004V10ZM107.631 2.272C107.239 2.272 106.917 1.964 106.917 1.572C106.917 1.18 107.239 0.857999 107.631 0.857999C108.023 0.857999 108.331 1.18 108.331 1.572C108.331 1.964 108.023 2.272 107.631 2.272ZM108.149 10H107.099V3.238H108.149V10ZM111.965 10.168C110.957 10.168 110.453 9.594 110.453 8.586V4.162H109.333V3.238H110.453V1.39H111.517V3.238H112.889V4.162H111.517V8.362C111.517 8.866 111.741 9.23 112.189 9.23C112.497 9.23 112.763 9.09 112.903 8.936L113.211 9.734C112.945 9.986 112.567 10.168 111.965 10.168ZM123.26 10H122.21V9.23C121.664 9.846 120.88 10.168 119.97 10.168C118.836 10.168 117.618 9.398 117.618 7.928C117.618 6.402 118.822 5.702 119.97 5.702C120.894 5.702 121.664 5.996 122.21 6.612V5.394C122.21 4.498 121.482 3.98 120.502 3.98C119.69 3.98 119.032 4.26 118.43 4.918L117.94 4.19C118.668 3.434 119.536 3.07 120.642 3.07C122.084 3.07 123.26 3.714 123.26 5.352V10ZM120.362 9.412C121.09 9.412 121.804 9.132 122.21 8.572V7.284C121.804 6.738 121.09 6.458 120.362 6.458C119.368 6.458 118.682 7.074 118.682 7.928C118.682 8.796 119.368 9.412 120.362 9.412ZM126.428 10H125.378V3.238H126.428V4.316C126.974 3.616 127.758 3.084 128.682 3.084V4.162C128.556 4.148 128.43 4.134 128.276 4.134C127.618 4.134 126.736 4.666 126.428 5.212V10ZM133.065 10.168C131.049 10.168 129.607 8.726 129.607 6.612C129.607 4.652 131.007 3.07 132.939 3.07C134.983 3.07 136.187 4.666 136.187 6.696V6.962H130.727C130.811 8.236 131.693 9.3 133.149 9.3C133.933 9.3 134.703 8.992 135.249 8.432L135.753 9.118C135.067 9.79 134.157 10.168 133.065 10.168ZM135.151 6.178C135.137 5.184 134.465 3.938 132.925 3.938C131.483 3.938 130.769 5.156 130.713 6.178H135.151ZM143.166 10H142.116V9.23C141.57 9.846 140.786 10.168 139.876 10.168C138.742 10.168 137.524 9.398 137.524 7.928C137.524 6.402 138.728 5.702 139.876 5.702C140.8 5.702 141.57 5.996 142.116 6.612V5.394C142.116 4.498 141.388 3.98 140.408 3.98C139.596 3.98 138.938 4.26 138.336 4.918L137.846 4.19C138.574 3.434 139.442 3.07 140.548 3.07C141.99 3.07 143.166 3.714 143.166 5.352V10ZM140.268 9.412C140.996 9.412 141.71 9.132 142.116 8.572V7.284C141.71 6.738 140.996 6.458 140.268 6.458C139.274 6.458 138.588 7.074 138.588 7.928C138.588 8.796 139.274 9.412 140.268 9.412ZM146.698 9.664C146.698 10.518 146.208 11.316 145.564 11.778L145.032 11.344C145.48 11.05 145.886 10.504 145.942 10.042C145.914 10.056 145.816 10.07 145.746 10.07C145.368 10.07 145.074 9.762 145.074 9.356C145.074 8.95 145.396 8.6 145.816 8.6C146.292 8.6 146.698 8.992 146.698 9.664ZM155.466 10.168C154.542 10.168 153.744 9.72 153.184 8.978V12.576H152.134V3.238H153.184V4.246C153.674 3.56 154.514 3.07 155.466 3.07C157.244 3.07 158.476 4.414 158.476 6.612C158.476 8.796 157.244 10.168 155.466 10.168ZM155.2 9.23C156.558 9.23 157.37 8.11 157.37 6.612C157.37 5.114 156.558 4.008 155.2 4.008C154.374 4.008 153.548 4.498 153.184 5.086V8.138C153.548 8.726 154.374 9.23 155.2 9.23ZM161.196 10H160.146V3.238H161.196V4.316C161.742 3.616 162.526 3.084 163.45 3.084V4.162C163.324 4.148 163.198 4.134 163.044 4.134C162.386 4.134 161.504 4.666 161.196 5.212V10ZM167.833 10.168C165.817 10.168 164.375 8.726 164.375 6.612C164.375 4.652 165.775 3.07 167.707 3.07C169.751 3.07 170.955 4.666 170.955 6.696V6.962H165.495C165.579 8.236 166.461 9.3 167.917 9.3C168.701 9.3 169.471 8.992 170.017 8.432L170.521 9.118C169.835 9.79 168.925 10.168 167.833 10.168ZM169.919 6.178C169.905 5.184 169.233 3.938 167.693 3.938C166.251 3.938 165.537 5.156 165.481 6.178H169.919ZM173.999 10H172.949V4.162H171.829V3.238H172.949V2.72C172.949 1.334 173.719 0.521999 174.909 0.521999C175.455 0.521999 175.917 0.647999 176.337 1.04L175.903 1.712C175.679 1.516 175.413 1.39 175.077 1.39C174.377 1.39 173.999 1.852 173.999 2.72V3.238H175.371V4.162H173.999V10ZM179.7 10.168C177.684 10.168 176.242 8.726 176.242 6.612C176.242 4.652 177.642 3.07 179.574 3.07C181.618 3.07 182.822 4.666 182.822 6.696V6.962H177.362C177.446 8.236 178.328 9.3 179.784 9.3C180.568 9.3 181.338 8.992 181.884 8.432L182.388 9.118C181.702 9.79 180.792 10.168 179.7 10.168ZM181.786 6.178C181.772 5.184 181.1 3.938 179.56 3.938C178.118 3.938 177.404 5.156 177.348 6.178H181.786ZM185.573 10H184.523V3.238H185.573V4.316C186.119 3.616 186.903 3.084 187.827 3.084V4.162C187.701 4.148 187.575 4.134 187.421 4.134C186.763 4.134 185.881 4.666 185.573 5.212V10ZM194.422 10H193.372V9.23C192.826 9.846 192.042 10.168 191.132 10.168C189.998 10.168 188.78 9.398 188.78 7.928C188.78 6.402 189.984 5.702 191.132 5.702C192.056 5.702 192.826 5.996 193.372 6.612V5.394C193.372 4.498 192.644 3.98 191.664 3.98C190.852 3.98 190.194 4.26 189.592 4.918L189.102 4.19C189.83 3.434 190.698 3.07 191.804 3.07C193.246 3.07 194.422 3.714 194.422 5.352V10ZM191.524 9.412C192.252 9.412 192.966 9.132 193.372 8.572V7.284C192.966 6.738 192.252 6.458 191.524 6.458C190.53 6.458 189.844 7.074 189.844 7.928C189.844 8.796 190.53 9.412 191.524 9.412ZM197.59 8.166C197.954 8.754 198.78 9.23 199.62 9.23C200.978 9.23 201.79 8.124 201.79 6.626C201.79 5.128 200.978 4.008 199.62 4.008C198.78 4.008 197.954 4.512 197.59 5.1V8.166ZM197.59 10H196.54V0.661999H197.59V4.26C198.136 3.518 198.962 3.07 199.872 3.07C201.65 3.07 202.882 4.456 202.882 6.626C202.882 8.824 201.636 10.168 199.872 10.168C198.92 10.168 198.094 9.678 197.59 8.992V10ZM205.643 10H204.593V0.661999H205.643V10ZM207.374 12.646L207.528 11.694C207.682 11.764 207.934 11.806 208.102 11.806C208.564 11.806 208.872 11.652 209.11 11.092L209.558 10.07L206.73 3.238H207.878L210.118 8.782L212.372 3.238H213.506L210.118 11.372C209.712 12.352 209.026 12.73 208.13 12.744C207.906 12.744 207.556 12.702 207.374 12.646ZM225.14 10H224.076L222.312 4.568L220.548 10H219.498L217.342 3.238H218.434L220.086 8.628L221.864 3.238H222.774L224.538 8.628L226.19 3.238H227.296L225.14 10ZM229.037 2.272C228.645 2.272 228.323 1.964 228.323 1.572C228.323 1.18 228.645 0.857999 229.037 0.857999C229.429 0.857999 229.737 1.18 229.737 1.572C229.737 1.964 229.429 2.272 229.037 2.272ZM229.555 10H228.505V3.238H229.555V10ZM233.372 10.168C232.364 10.168 231.86 9.594 231.86 8.586V4.162H230.74V3.238H231.86V1.39H232.924V3.238H234.296V4.162H232.924V8.362C232.924 8.866 233.148 9.23 233.596 9.23C233.904 9.23 234.17 9.09 234.31 8.936L234.618 9.734C234.352 9.986 233.974 10.168 233.372 10.168ZM241.393 10H240.343V5.548C240.343 4.344 239.741 4.008 238.817 4.008C238.005 4.008 237.221 4.512 236.829 5.058V10H235.779V0.661999H236.829V4.218C237.291 3.644 238.215 3.07 239.237 3.07C240.651 3.07 241.393 3.756 241.393 5.226V10ZM252.727 10H251.691V5.576C251.691 4.372 251.075 4.008 250.165 4.008C249.339 4.008 248.569 4.512 248.163 5.058V10H247.113V3.238H248.163V4.218C248.639 3.644 249.562 3.07 250.585 3.07C251.985 3.07 252.727 3.784 252.727 5.254V10ZM260.115 10H259.065V9.23C258.519 9.846 257.735 10.168 256.825 10.168C255.691 10.168 254.473 9.398 254.473 7.928C254.473 6.402 255.677 5.702 256.825 5.702C257.749 5.702 258.519 5.996 259.065 6.612V5.394C259.065 4.498 258.337 3.98 257.357 3.98C256.545 3.98 255.887 4.26 255.285 4.918L254.795 4.19C255.523 3.434 256.391 3.07 257.497 3.07C258.939 3.07 260.115 3.714 260.115 5.352V10ZM257.217 9.412C257.945 9.412 258.659 9.132 259.065 8.572V7.284C258.659 6.738 257.945 6.458 257.217 6.458C256.223 6.458 255.537 7.074 255.537 7.928C255.537 8.796 256.223 9.412 257.217 9.412ZM263.956 10.168C262.948 10.168 262.444 9.594 262.444 8.586V4.162H261.324V3.238H262.444V1.39H263.508V3.238H264.88V4.162H263.508V8.362C263.508 8.866 263.732 9.23 264.18 9.23C264.488 9.23 264.754 9.09 264.894 8.936L265.202 9.734C264.936 9.986 264.558 10.168 263.956 10.168ZM271.963 10H270.913V9.048C270.395 9.636 269.513 10.168 268.505 10.168C267.091 10.168 266.349 9.468 266.349 8.012V3.238H267.399V7.69C267.399 8.88 268.001 9.23 268.925 9.23C269.737 9.23 270.521 8.754 270.913 8.208V3.238H271.963V10ZM275.11 10H274.06V3.238H275.11V4.316C275.656 3.616 276.44 3.084 277.364 3.084V4.162C277.238 4.148 277.112 4.134 276.958 4.134C276.3 4.134 275.418 4.666 275.11 5.212V10ZM283.959 10H282.909V9.23C282.363 9.846 281.579 10.168 280.669 10.168C279.535 10.168 278.317 9.398 278.317 7.928C278.317 6.402 279.521 5.702 280.669 5.702C281.593 5.702 282.363 5.996 282.909 6.612V5.394C282.909 4.498 282.181 3.98 281.201 3.98C280.389 3.98 279.731 4.26 279.129 4.918L278.639 4.19C279.367 3.434 280.235 3.07 281.341 3.07C282.783 3.07 283.959 3.714 283.959 5.352V10ZM281.061 9.412C281.789 9.412 282.503 9.132 282.909 8.572V7.284C282.503 6.738 281.789 6.458 281.061 6.458C280.067 6.458 279.381 7.074 279.381 7.928C279.381 8.796 280.067 9.412 281.061 9.412ZM287.127 10H286.077V0.661999H287.127V10ZM14.1 24H13.05V14.662H14.1V24ZM16.7265 16.272C16.3345 16.272 16.0125 15.964 16.0125 15.572C16.0125 15.18 16.3345 14.858 16.7265 14.858C17.1185 14.858 17.4265 15.18 17.4265 15.572C17.4265 15.964 17.1185 16.272 16.7265 16.272ZM17.2445 24H16.1945V17.238H17.2445V24ZM22.0551 26.744C20.9211 26.744 20.1371 26.52 19.3251 25.722L19.8571 24.966C20.4171 25.624 21.0891 25.876 22.0551 25.876C23.1751 25.876 24.2391 25.33 24.2391 23.902V22.88C23.7351 23.566 22.9091 24.084 21.9571 24.084C20.1931 24.084 18.9471 22.768 18.9471 20.584C18.9471 18.414 20.1791 17.07 21.9571 17.07C22.8671 17.07 23.6931 17.518 24.2391 18.26V17.238H25.2891V23.902C25.2891 26.044 23.7071 26.744 22.0551 26.744ZM22.2231 23.146C23.0491 23.146 23.8611 22.642 24.2391 22.054V19.086C23.8611 18.512 23.0491 18.008 22.2231 18.008C20.8511 18.008 20.0391 19.086 20.0391 20.584C20.0391 22.068 20.8511 23.146 22.2231 23.146ZM33.0198 24H31.9698V19.548C31.9698 18.344 31.3678 18.008 30.4438 18.008C29.6318 18.008 28.8478 18.512 28.4558 19.058V24H27.4058V14.662H28.4558V18.218C28.9178 17.644 29.8418 17.07 30.8638 17.07C32.2778 17.07 33.0198 17.756 33.0198 19.226V24ZM36.8384 24.168C35.8304 24.168 35.3264 23.594 35.3264 22.586V18.162H34.2064V17.238H35.3264V15.39H36.3904V17.238H37.7624V18.162H36.3904V22.362C36.3904 22.866 36.6144 23.23 37.0624 23.23C37.3704 23.23 37.6364 23.09 37.7764 22.936L38.0844 23.734C37.8184 23.986 37.4404 24.168 36.8384 24.168ZM39.7916 24.14C39.3716 24.14 39.0216 23.79 39.0216 23.37C39.0216 22.95 39.3716 22.6 39.7916 22.6C40.2116 22.6 40.5616 22.95 40.5616 23.37C40.5616 23.79 40.2116 24.14 39.7916 24.14ZM3.02321 34.612C3.02321 35.424 2.33721 36.11 1.51121 36.11C0.685211 36.11 -0.000789002 35.424 -0.000789002 34.612C-0.000789002 33.786 0.685211 33.1 1.51121 33.1C2.33721 33.1 3.02321 33.786 3.02321 34.612ZM14.254 38H13.092V28.662H16.844C18.72 28.662 19.77 29.95 19.77 31.476C19.77 33.002 18.706 34.29 16.844 34.29H14.254V38ZM16.704 33.254C17.81 33.254 18.566 32.526 18.566 31.476C18.566 30.426 17.81 29.698 16.704 29.698H14.254V33.254H16.704ZM22.3168 38H21.2668V28.662H22.3168V38ZM29.6893 38H28.6393V37.23C28.0933 37.846 27.3093 38.168 26.3993 38.168C25.2653 38.168 24.0473 37.398 24.0473 35.928C24.0473 34.402 25.2513 33.702 26.3993 33.702C27.3233 33.702 28.0933 33.996 28.6393 34.612V33.394C28.6393 32.498 27.9113 31.98 26.9313 31.98C26.1193 31.98 25.4613 32.26 24.8593 32.918L24.3693 32.19C25.0973 31.434 25.9653 31.07 27.0713 31.07C28.5133 31.07 29.6893 31.714 29.6893 33.352V38ZM26.7913 37.412C27.5193 37.412 28.2333 37.132 28.6393 36.572V35.284C28.2333 34.738 27.5193 34.458 26.7913 34.458C25.7973 34.458 25.1113 35.074 25.1113 35.928C25.1113 36.796 25.7973 37.412 26.7913 37.412ZM34.7898 38.168C32.7738 38.168 31.4158 36.614 31.4158 34.612C31.4158 32.61 32.7738 31.07 34.7898 31.07C36.0218 31.07 36.7498 31.574 37.2678 32.246L36.5678 32.876C36.1198 32.26 35.5458 32.008 34.8458 32.008C33.4178 32.008 32.5078 33.114 32.5078 34.612C32.5078 36.11 33.4178 37.23 34.8458 37.23C35.5458 37.23 36.1198 36.95 36.5678 36.348L37.2678 36.992C36.7498 37.664 36.0218 38.168 34.7898 38.168ZM41.8191 38.168C39.8031 38.168 38.3611 36.726 38.3611 34.612C38.3611 32.652 39.7611 31.07 41.6931 31.07C43.7371 31.07 44.9411 32.666 44.9411 34.696V34.962H39.4811C39.5651 36.236 40.4471 37.3 41.9031 37.3C42.6871 37.3 43.4571 36.992 44.0031 36.432L44.5071 37.118C43.8211 37.79 42.9111 38.168 41.8191 38.168ZM43.9051 34.178C43.8911 33.184 43.2191 31.938 41.6791 31.938C40.2371 31.938 39.5231 33.156 39.4671 34.178H43.9051ZM51.9868 38.168C50.9788 38.168 50.4748 37.594 50.4748 36.586V32.162H49.3548V31.238H50.4748V29.39H51.5388V31.238H52.9108V32.162H51.5388V36.362C51.5388 36.866 51.7628 37.23 52.2108 37.23C52.5188 37.23 52.7848 37.09 52.9248 36.936L53.2328 37.734C52.9668 37.986 52.5888 38.168 51.9868 38.168ZM60.0081 38H58.9581V33.548C58.9581 32.344 58.3561 32.008 57.4321 32.008C56.6201 32.008 55.8361 32.512 55.4441 33.058V38H54.3941V28.662H55.4441V32.218C55.9061 31.644 56.8301 31.07 57.8521 31.07C59.2661 31.07 60.0081 31.756 60.0081 33.226V38ZM65.1707 38.168C63.1547 38.168 61.7127 36.726 61.7127 34.612C61.7127 32.652 63.1127 31.07 65.0447 31.07C67.0887 31.07 68.2927 32.666 68.2927 34.696V34.962H62.8327C62.9167 36.236 63.7987 37.3 65.2547 37.3C66.0387 37.3 66.8087 36.992 67.3547 36.432L67.8587 37.118C67.1727 37.79 66.2627 38.168 65.1707 38.168ZM67.2567 34.178C67.2427 33.184 66.5707 31.938 65.0307 31.938C63.5887 31.938 62.8747 33.156 62.8187 34.178H67.2567ZM76.9484 38.168C76.0244 38.168 75.2264 37.72 74.6664 36.978V40.576H73.6164V31.238H74.6664V32.246C75.1564 31.56 75.9964 31.07 76.9484 31.07C78.7264 31.07 79.9584 32.414 79.9584 34.612C79.9584 36.796 78.7264 38.168 76.9484 38.168ZM76.6824 37.23C78.0404 37.23 78.8524 36.11 78.8524 34.612C78.8524 33.114 78.0404 32.008 76.6824 32.008C75.8564 32.008 75.0304 32.498 74.6664 33.086V36.138C75.0304 36.726 75.8564 37.23 76.6824 37.23ZM87.2561 38H86.2061V33.548C86.2061 32.344 85.6041 32.008 84.6801 32.008C83.8681 32.008 83.0841 32.512 82.6921 33.058V38H81.6421V28.662H82.6921V32.218C83.1541 31.644 84.0781 31.07 85.1001 31.07C86.5141 31.07 87.2561 31.756 87.2561 33.226V38ZM92.3067 38.168C90.2487 38.168 88.9607 36.572 88.9607 34.612C88.9607 32.652 90.2487 31.07 92.3067 31.07C94.3647 31.07 95.6527 32.652 95.6527 34.612C95.6527 36.572 94.3647 38.168 92.3067 38.168ZM92.3067 37.23C93.7487 37.23 94.5467 35.998 94.5467 34.612C94.5467 33.24 93.7487 32.008 92.3067 32.008C90.8647 32.008 90.0667 33.24 90.0667 34.612C90.0667 35.998 90.8647 37.23 92.3067 37.23ZM102.978 38H101.942V33.576C101.942 32.372 101.326 32.008 100.416 32.008C99.5905 32.008 98.8205 32.512 98.4145 33.058V38H97.3645V31.238H98.4145V32.218C98.8905 31.644 99.8145 31.07 100.836 31.07C102.236 31.07 102.978 31.784 102.978 33.254V38ZM108.155 38.168C106.139 38.168 104.697 36.726 104.697 34.612C104.697 32.652 106.097 31.07 108.029 31.07C110.073 31.07 111.277 32.666 111.277 34.696V34.962H105.817C105.901 36.236 106.783 37.3 108.239 37.3C109.023 37.3 109.793 36.992 110.339 36.432L110.843 37.118C110.157 37.79 109.247 38.168 108.155 38.168ZM110.241 34.178C110.227 33.184 109.555 31.938 108.015 31.938C106.573 31.938 105.859 33.156 105.803 34.178H110.241ZM119.555 38.168C117.497 38.168 116.209 36.572 116.209 34.612C116.209 32.652 117.497 31.07 119.555 31.07C121.613 31.07 122.901 32.652 122.901 34.612C122.901 36.572 121.613 38.168 119.555 38.168ZM119.555 37.23C120.997 37.23 121.795 35.998 121.795 34.612C121.795 33.24 120.997 32.008 119.555 32.008C118.113 32.008 117.315 33.24 117.315 34.612C117.315 35.998 118.113 37.23 119.555 37.23ZM130.227 38H129.191V33.576C129.191 32.372 128.575 32.008 127.665 32.008C126.839 32.008 126.069 32.512 125.663 33.058V38H124.613V31.238H125.663V32.218C126.139 31.644 127.062 31.07 128.085 31.07C129.485 31.07 130.227 31.784 130.227 33.254V38ZM141.238 38H140.188V37.23C139.642 37.846 138.858 38.168 137.948 38.168C136.814 38.168 135.596 37.398 135.596 35.928C135.596 34.402 136.8 33.702 137.948 33.702C138.872 33.702 139.642 33.996 140.188 34.612V33.394C140.188 32.498 139.46 31.98 138.48 31.98C137.668 31.98 137.01 32.26 136.408 32.918L135.918 32.19C136.646 31.434 137.514 31.07 138.62 31.07C140.062 31.07 141.238 31.714 141.238 33.352V38ZM138.34 37.412C139.068 37.412 139.782 37.132 140.188 36.572V35.284C139.782 34.738 139.068 34.458 138.34 34.458C137.346 34.458 136.66 35.074 136.66 35.928C136.66 36.796 137.346 37.412 138.34 37.412ZM148.702 38.168C147.694 38.168 147.19 37.594 147.19 36.586V32.162H146.07V31.238H147.19V29.39H148.254V31.238H149.626V32.162H148.254V36.362C148.254 36.866 148.478 37.23 148.926 37.23C149.234 37.23 149.5 37.09 149.64 36.936L149.948 37.734C149.682 37.986 149.304 38.168 148.702 38.168ZM156.373 38H155.323V37.23C154.777 37.846 153.993 38.168 153.083 38.168C151.949 38.168 150.731 37.398 150.731 35.928C150.731 34.402 151.935 33.702 153.083 33.702C154.007 33.702 154.777 33.996 155.323 34.612V33.394C155.323 32.498 154.595 31.98 153.615 31.98C152.803 31.98 152.145 32.26 151.543 32.918L151.053 32.19C151.781 31.434 152.649 31.07 153.755 31.07C155.197 31.07 156.373 31.714 156.373 33.352V38ZM153.475 37.412C154.203 37.412 154.917 37.132 155.323 36.572V35.284C154.917 34.738 154.203 34.458 153.475 34.458C152.481 34.458 151.795 35.074 151.795 35.928C151.795 36.796 152.481 37.412 153.475 37.412ZM159.541 36.166C159.905 36.754 160.731 37.23 161.571 37.23C162.929 37.23 163.741 36.124 163.741 34.626C163.741 33.128 162.929 32.008 161.571 32.008C160.731 32.008 159.905 32.512 159.541 33.1V36.166ZM159.541 38H158.491V28.662H159.541V32.26C160.087 31.518 160.913 31.07 161.823 31.07C163.601 31.07 164.833 32.456 164.833 34.626C164.833 36.824 163.587 38.168 161.823 38.168C160.871 38.168 160.045 37.678 159.541 36.992V38ZM167.594 38H166.544V28.662H167.594V38ZM172.755 38.168C170.739 38.168 169.297 36.726 169.297 34.612C169.297 32.652 170.697 31.07 172.629 31.07C174.673 31.07 175.877 32.666 175.877 34.696V34.962H170.417C170.501 36.236 171.383 37.3 172.839 37.3C173.623 37.3 174.393 36.992 174.939 36.432L175.443 37.118C174.757 37.79 173.847 38.168 172.755 38.168ZM174.841 34.178C174.827 33.184 174.155 31.938 172.615 31.938C171.173 31.938 170.459 33.156 170.403 34.178H174.841ZM184.154 38.168C182.096 38.168 180.808 36.572 180.808 34.612C180.808 32.652 182.096 31.07 184.154 31.07C186.212 31.07 187.5 32.652 187.5 34.612C187.5 36.572 186.212 38.168 184.154 38.168ZM184.154 37.23C185.596 37.23 186.394 35.998 186.394 34.612C186.394 33.24 185.596 32.008 184.154 32.008C182.712 32.008 181.914 33.24 181.914 34.612C181.914 35.998 182.712 37.23 184.154 37.23ZM190.262 38H189.212V31.238H190.262V32.316C190.808 31.616 191.592 31.084 192.516 31.084V32.162C192.39 32.148 192.264 32.134 192.11 32.134C191.452 32.134 190.57 32.666 190.262 33.212V38ZM199.612 38.168C198.492 38.168 197.568 37.818 196.882 37.104L197.414 36.348C197.862 36.866 198.716 37.314 199.64 37.314C200.676 37.314 201.25 36.824 201.25 36.152C201.25 34.514 197.064 35.522 197.064 33.016C197.064 31.952 197.96 31.07 199.57 31.07C200.732 31.07 201.544 31.504 202.076 32.05L201.586 32.778C201.18 32.288 200.452 31.924 199.57 31.924C198.646 31.924 198.072 32.386 198.072 32.988C198.072 34.458 202.258 33.492 202.258 36.124C202.258 37.258 201.348 38.168 199.612 38.168ZM209.578 38H208.528V37.048C208.01 37.636 207.128 38.168 206.12 38.168C204.706 38.168 203.964 37.468 203.964 36.012V31.238H205.014V35.69C205.014 36.88 205.616 37.23 206.54 37.23C207.352 37.23 208.136 36.754 208.528 36.208V31.238H209.578V38ZM212.725 38H211.675V31.238H212.725V32.316C213.271 31.616 214.055 31.084 214.979 31.084V32.162C214.853 32.148 214.727 32.134 214.573 32.134C213.915 32.134 213.033 32.666 212.725 33.212V38ZM217.64 38H216.59V32.162H215.47V31.238H216.59V30.72C216.59 29.334 217.36 28.522 218.55 28.522C219.096 28.522 219.558 28.648 219.978 29.04L219.544 29.712C219.32 29.516 219.054 29.39 218.718 29.39C218.018 29.39 217.64 29.852 217.64 30.72V31.238H219.012V32.162H217.64V38ZM225.553 38H224.503V37.23C223.957 37.846 223.173 38.168 222.263 38.168C221.129 38.168 219.911 37.398 219.911 35.928C219.911 34.402 221.115 33.702 222.263 33.702C223.187 33.702 223.957 33.996 224.503 34.612V33.394C224.503 32.498 223.775 31.98 222.795 31.98C221.983 31.98 221.325 32.26 220.723 32.918L220.233 32.19C220.961 31.434 221.829 31.07 222.935 31.07C224.377 31.07 225.553 31.714 225.553 33.352V38ZM222.655 37.412C223.383 37.412 224.097 37.132 224.503 36.572V35.284C224.097 34.738 223.383 34.458 222.655 34.458C221.661 34.458 220.975 35.074 220.975 35.928C220.975 36.796 221.661 37.412 222.655 37.412ZM230.653 38.168C228.637 38.168 227.279 36.614 227.279 34.612C227.279 32.61 228.637 31.07 230.653 31.07C231.885 31.07 232.613 31.574 233.131 32.246L232.431 32.876C231.983 32.26 231.409 32.008 230.709 32.008C229.281 32.008 228.371 33.114 228.371 34.612C228.371 36.11 229.281 37.23 230.709 37.23C231.409 37.23 231.983 36.95 232.431 36.348L233.131 36.992C232.613 37.664 231.885 38.168 230.653 38.168ZM237.682 38.168C235.666 38.168 234.224 36.726 234.224 34.612C234.224 32.652 235.624 31.07 237.556 31.07C239.6 31.07 240.804 32.666 240.804 34.696V34.962H235.344C235.428 36.236 236.31 37.3 237.766 37.3C238.55 37.3 239.32 36.992 239.866 36.432L240.37 37.118C239.684 37.79 238.774 38.168 237.682 38.168ZM239.768 34.178C239.754 33.184 239.082 31.938 237.542 31.938C236.1 31.938 235.386 33.156 235.33 34.178H239.768ZM242.969 38.14C242.549 38.14 242.199 37.79 242.199 37.37C242.199 36.95 242.549 36.6 242.969 36.6C243.389 36.6 243.739 36.95 243.739 37.37C243.739 37.79 243.389 38.14 242.969 38.14ZM3.02321 48.612C3.02321 49.424 2.33721 50.11 1.51121 50.11C0.685211 50.11 -0.000789002 49.424 -0.000789002 48.612C-0.000789002 47.786 0.685211 47.1 1.51121 47.1C2.33721 47.1 3.02321 47.786 3.02321 48.612ZM17.516 52.168C14.828 52.168 12.714 50.208 12.714 47.338C12.714 44.468 14.828 42.508 17.516 42.508C19.168 42.508 20.316 43.292 21.058 44.356L20.092 44.902C19.56 44.104 18.58 43.544 17.516 43.544C15.472 43.544 13.918 45.098 13.918 47.338C13.918 49.55 15.472 51.132 17.516 51.132C18.58 51.132 19.56 50.558 20.092 49.774L21.072 50.306C20.288 51.384 19.168 52.168 17.516 52.168ZM25.5769 52.168C23.5609 52.168 22.1189 50.726 22.1189 48.612C22.1189 46.652 23.5189 45.07 25.4509 45.07C27.4949 45.07 28.6989 46.666 28.6989 48.696V48.962H23.2389C23.3229 50.236 24.2049 51.3 25.6609 51.3C26.4449 51.3 27.2149 50.992 27.7609 50.432L28.2649 51.118C27.5789 51.79 26.6689 52.168 25.5769 52.168ZM27.6629 48.178C27.6489 47.184 26.9769 45.938 25.4369 45.938C23.9949 45.938 23.2809 47.156 23.2249 48.178H27.6629ZM36.0136 52H34.9776V47.576C34.9776 46.372 34.3616 46.008 33.4516 46.008C32.6256 46.008 31.8556 46.512 31.4496 47.058V52H30.3996V45.238H31.4496V46.218C31.9256 45.644 32.8496 45.07 33.8716 45.07C35.2716 45.07 36.0136 45.784 36.0136 47.254V52ZM39.8462 52.168C38.8382 52.168 38.3342 51.594 38.3342 50.586V46.162H37.2142V45.238H38.3342V43.39H39.3982V45.238H40.7702V46.162H39.3982V50.362C39.3982 50.866 39.6222 51.23 40.0702 51.23C40.3782 51.23 40.6442 51.09 40.7842 50.936L41.0922 51.734C40.8262 51.986 40.4482 52.168 39.8462 52.168ZM45.3055 52.168C43.2895 52.168 41.8475 50.726 41.8475 48.612C41.8475 46.652 43.2475 45.07 45.1795 45.07C47.2235 45.07 48.4275 46.666 48.4275 48.696V48.962H42.9675C43.0515 50.236 43.9335 51.3 45.3895 51.3C46.1735 51.3 46.9435 50.992 47.4895 50.432L47.9935 51.118C47.3075 51.79 46.3975 52.168 45.3055 52.168ZM47.3915 48.178C47.3775 47.184 46.7055 45.938 45.1655 45.938C43.7235 45.938 43.0095 47.156 42.9535 48.178H47.3915ZM51.1781 52H50.1281V45.238H51.1781V46.316C51.7241 45.616 52.5081 45.084 53.4321 45.084V46.162C53.3061 46.148 53.1801 46.134 53.0261 46.134C52.3681 46.134 51.4861 46.666 51.1781 47.212V52ZM58.0083 54.646L58.1623 53.694C58.3163 53.764 58.5683 53.806 58.7363 53.806C59.1983 53.806 59.5063 53.652 59.7443 53.092L60.1923 52.07L57.3643 45.238H58.5123L60.7523 50.782L63.0063 45.238H64.1403L60.7523 53.372C60.3463 54.352 59.6603 54.73 58.7643 54.744C58.5403 54.744 58.1903 54.702 58.0083 54.646ZM68.1895 52.168C66.1315 52.168 64.8435 50.572 64.8435 48.612C64.8435 46.652 66.1315 45.07 68.1895 45.07C70.2475 45.07 71.5355 46.652 71.5355 48.612C71.5355 50.572 70.2475 52.168 68.1895 52.168ZM68.1895 51.23C69.6315 51.23 70.4295 49.998 70.4295 48.612C70.4295 47.24 69.6315 46.008 68.1895 46.008C66.7475 46.008 65.9495 47.24 65.9495 48.612C65.9495 49.998 66.7475 51.23 68.1895 51.23ZM78.8613 52H77.8113V51.048C77.2933 51.636 76.4113 52.168 75.4033 52.168C73.9893 52.168 73.2473 51.468 73.2473 50.012V45.238H74.2973V49.69C74.2973 50.88 74.8993 51.23 75.8233 51.23C76.6353 51.23 77.4193 50.754 77.8113 50.208V45.238H78.8613V52ZM82.0082 52H80.9582V45.238H82.0082V46.316C82.5542 45.616 83.3382 45.084 84.2622 45.084V46.162C84.1362 46.148 84.0102 46.134 83.8562 46.134C83.1982 46.134 82.3162 46.666 82.0082 47.212V52ZM90.5463 52H89.4963V46.162H88.3763V45.238H89.4963V44.72C89.4963 43.334 90.2663 42.522 91.4563 42.522C92.0023 42.522 92.4643 42.648 92.8843 43.04L92.4503 43.712C92.2263 43.516 91.9603 43.39 91.6243 43.39C90.9243 43.39 90.5463 43.852 90.5463 44.72V45.238H91.9183V46.162H90.5463V52ZM98.4589 52H97.4089V51.23C96.8629 51.846 96.0789 52.168 95.1689 52.168C94.0349 52.168 92.8169 51.398 92.8169 49.928C92.8169 48.402 94.0209 47.702 95.1689 47.702C96.0929 47.702 96.8629 47.996 97.4089 48.612V47.394C97.4089 46.498 96.6809 45.98 95.7009 45.98C94.8889 45.98 94.2309 46.26 93.6289 46.918L93.1389 46.19C93.8669 45.434 94.7349 45.07 95.8409 45.07C97.2829 45.07 98.4589 45.714 98.4589 47.352V52ZM95.5609 51.412C96.2889 51.412 97.0029 51.132 97.4089 50.572V49.284C97.0029 48.738 96.2889 48.458 95.5609 48.458C94.5669 48.458 93.8809 49.074 93.8809 49.928C93.8809 50.796 94.5669 51.412 95.5609 51.412ZM103.559 52.168C101.543 52.168 100.185 50.614 100.185 48.612C100.185 46.61 101.543 45.07 103.559 45.07C104.791 45.07 105.519 45.574 106.037 46.246L105.337 46.876C104.889 46.26 104.315 46.008 103.615 46.008C102.187 46.008 101.277 47.114 101.277 48.612C101.277 50.11 102.187 51.23 103.615 51.23C104.315 51.23 104.889 50.95 105.337 50.348L106.037 50.992C105.519 51.664 104.791 52.168 103.559 52.168ZM110.589 52.168C108.573 52.168 107.131 50.726 107.131 48.612C107.131 46.652 108.531 45.07 110.463 45.07C112.507 45.07 113.711 46.666 113.711 48.696V48.962H108.251C108.335 50.236 109.217 51.3 110.673 51.3C111.457 51.3 112.227 50.992 112.773 50.432L113.277 51.118C112.591 51.79 111.681 52.168 110.589 52.168ZM112.675 48.178C112.661 47.184 111.989 45.938 110.449 45.938C109.007 45.938 108.293 47.156 108.237 48.178H112.675ZM119.566 44.272C119.174 44.272 118.852 43.964 118.852 43.572C118.852 43.18 119.174 42.858 119.566 42.858C119.958 42.858 120.266 43.18 120.266 43.572C120.266 43.964 119.958 44.272 119.566 44.272ZM120.084 52H119.034V45.238H120.084V52ZM127.793 52H126.757V47.576C126.757 46.372 126.141 46.008 125.231 46.008C124.405 46.008 123.635 46.512 123.229 47.058V52H122.179V45.238H123.229V46.218C123.705 45.644 124.629 45.07 125.651 45.07C127.051 45.07 127.793 45.784 127.793 47.254V52ZM135.249 52.168C134.241 52.168 133.737 51.594 133.737 50.586V46.162H132.617V45.238H133.737V43.39H134.801V45.238H136.173V46.162H134.801V50.362C134.801 50.866 135.025 51.23 135.473 51.23C135.781 51.23 136.047 51.09 136.187 50.936L136.495 51.734C136.229 51.986 135.851 52.168 135.249 52.168ZM143.27 52H142.22V47.548C142.22 46.344 141.618 46.008 140.694 46.008C139.882 46.008 139.098 46.512 138.706 47.058V52H137.656V42.662H138.706V46.218C139.168 45.644 140.092 45.07 141.114 45.07C142.528 45.07 143.27 45.756 143.27 47.226V52ZM148.432 52.168C146.416 52.168 144.974 50.726 144.974 48.612C144.974 46.652 146.374 45.07 148.306 45.07C150.35 45.07 151.554 46.666 151.554 48.696V48.962H146.094C146.178 50.236 147.06 51.3 148.516 51.3C149.3 51.3 150.07 50.992 150.616 50.432L151.12 51.118C150.434 51.79 149.524 52.168 148.432 52.168ZM150.518 48.178C150.504 47.184 149.832 45.938 148.292 45.938C146.85 45.938 146.136 47.156 146.08 48.178H150.518ZM159.86 52.168C157.844 52.168 156.486 50.614 156.486 48.612C156.486 46.61 157.844 45.07 159.86 45.07C161.092 45.07 161.82 45.574 162.338 46.246L161.638 46.876C161.19 46.26 160.616 46.008 159.916 46.008C158.488 46.008 157.578 47.114 157.578 48.612C157.578 50.11 158.488 51.23 159.916 51.23C160.616 51.23 161.19 50.95 161.638 50.348L162.338 50.992C161.82 51.664 161.092 52.168 159.86 52.168ZM164.355 44.272C163.963 44.272 163.641 43.964 163.641 43.572C163.641 43.18 163.963 42.858 164.355 42.858C164.747 42.858 165.055 43.18 165.055 43.572C165.055 43.964 164.747 44.272 164.355 44.272ZM164.873 52H163.823V45.238H164.873V52ZM168.018 52H166.968V45.238H168.018V46.316C168.564 45.616 169.348 45.084 170.272 45.084V46.162C170.146 46.148 170.02 46.134 169.866 46.134C169.208 46.134 168.326 46.666 168.018 47.212V52ZM174.571 52.168C172.555 52.168 171.197 50.614 171.197 48.612C171.197 46.61 172.555 45.07 174.571 45.07C175.803 45.07 176.531 45.574 177.049 46.246L176.349 46.876C175.901 46.26 175.327 46.008 174.627 46.008C173.199 46.008 172.289 47.114 172.289 48.612C172.289 50.11 173.199 51.23 174.627 51.23C175.327 51.23 175.901 50.95 176.349 50.348L177.049 50.992C176.531 51.664 175.803 52.168 174.571 52.168ZM179.584 52H178.534V42.662H179.584V52ZM184.745 52.168C182.729 52.168 181.287 50.726 181.287 48.612C181.287 46.652 182.687 45.07 184.619 45.07C186.663 45.07 187.867 46.666 187.867 48.696V48.962H182.407C182.491 50.236 183.373 51.3 184.829 51.3C185.613 51.3 186.383 50.992 186.929 50.432L187.433 51.118C186.747 51.79 185.837 52.168 184.745 52.168ZM186.831 48.178C186.817 47.184 186.145 45.938 184.605 45.938C183.163 45.938 182.449 47.156 182.393 48.178H186.831ZM199.141 52H198.091V50.992C197.587 51.678 196.761 52.168 195.809 52.168C194.045 52.168 192.799 50.824 192.799 48.626C192.799 46.456 194.045 45.07 195.809 45.07C196.719 45.07 197.545 45.518 198.091 46.26V42.662H199.141V52ZM196.075 51.23C196.901 51.23 197.727 50.74 198.091 50.152V47.1C197.727 46.512 196.901 46.008 196.075 46.008C194.703 46.008 193.891 47.128 193.891 48.626C193.891 50.124 194.703 51.23 196.075 51.23ZM206.857 52H205.807V51.048C205.289 51.636 204.407 52.168 203.399 52.168C201.985 52.168 201.243 51.468 201.243 50.012V45.238H202.293V49.69C202.293 50.88 202.895 51.23 203.819 51.23C204.631 51.23 205.415 50.754 205.807 50.208V45.238H206.857V52ZM210.004 52H208.954V45.238H210.004V46.316C210.55 45.616 211.334 45.084 212.258 45.084V46.162C212.132 46.148 212.006 46.134 211.852 46.134C211.194 46.134 210.312 46.666 210.004 47.212V52ZM214.107 44.272C213.715 44.272 213.393 43.964 213.393 43.572C213.393 43.18 213.715 42.858 214.107 42.858C214.499 42.858 214.807 43.18 214.807 43.572C214.807 43.964 214.499 44.272 214.107 44.272ZM214.625 52H213.575V45.238H214.625V52ZM222.334 52H221.298V47.576C221.298 46.372 220.682 46.008 219.772 46.008C218.946 46.008 218.176 46.512 217.77 47.058V52H216.72V45.238H217.77V46.218C218.246 45.644 219.17 45.07 220.192 45.07C221.592 45.07 222.334 45.784 222.334 47.254V52ZM227.161 54.744C226.027 54.744 225.243 54.52 224.431 53.722L224.963 52.966C225.523 53.624 226.195 53.876 227.161 53.876C228.281 53.876 229.345 53.33 229.345 51.902V50.88C228.841 51.566 228.015 52.084 227.063 52.084C225.299 52.084 224.053 50.768 224.053 48.584C224.053 46.414 225.285 45.07 227.063 45.07C227.973 45.07 228.799 45.518 229.345 46.26V45.238H230.395V51.902C230.395 54.044 228.813 54.744 227.161 54.744ZM227.329 51.146C228.155 51.146 228.967 50.642 229.345 50.054V47.086C228.967 46.512 228.155 46.008 227.329 46.008C225.957 46.008 225.145 47.086 225.145 48.584C225.145 50.068 225.957 51.146 227.329 51.146ZM237.842 52.168C236.834 52.168 236.33 51.594 236.33 50.586V46.162H235.21V45.238H236.33V43.39H237.394V45.238H238.766V46.162H237.394V50.362C237.394 50.866 237.618 51.23 238.066 51.23C238.374 51.23 238.64 51.09 238.78 50.936L239.088 51.734C238.822 51.986 238.444 52.168 237.842 52.168ZM245.864 52H244.814V47.548C244.814 46.344 244.212 46.008 243.288 46.008C242.476 46.008 241.692 46.512 241.3 47.058V52H240.25V42.662H241.3V46.218C241.762 45.644 242.686 45.07 243.708 45.07C245.122 45.07 245.864 45.756 245.864 47.226V52ZM251.026 52.168C249.01 52.168 247.568 50.726 247.568 48.612C247.568 46.652 248.968 45.07 250.9 45.07C252.944 45.07 254.148 46.666 254.148 48.696V48.962H248.688C248.772 50.236 249.654 51.3 251.11 51.3C251.894 51.3 252.664 50.992 253.21 50.432L253.714 51.118C253.028 51.79 252.118 52.168 251.026 52.168ZM253.112 48.178C253.098 47.184 252.426 45.938 250.886 45.938C249.444 45.938 248.73 47.156 248.674 48.178H253.112ZM22.262 66H21.212V61.408C21.212 60.554 20.848 60.008 19.966 60.008C19.266 60.008 18.524 60.498 18.174 61.044V66H17.124V61.408C17.124 60.554 16.774 60.008 15.878 60.008C15.192 60.008 14.464 60.512 14.1 61.058V66H13.05V59.238H14.1V60.218C14.394 59.784 15.29 59.07 16.298 59.07C17.32 59.07 17.908 59.63 18.104 60.33C18.482 59.714 19.392 59.07 20.372 59.07C21.604 59.07 22.262 59.756 22.262 61.114V66ZM27.4226 66.168C25.4066 66.168 23.9646 64.726 23.9646 62.612C23.9646 60.652 25.3646 59.07 27.2966 59.07C29.3406 59.07 30.5446 60.666 30.5446 62.696V62.962H25.0846C25.1686 64.236 26.0506 65.3 27.5066 65.3C28.2906 65.3 29.0606 64.992 29.6066 64.432L30.1106 65.118C29.4246 65.79 28.5146 66.168 27.4226 66.168ZM29.5086 62.178C29.4946 61.184 28.8226 59.938 27.2826 59.938C25.8406 59.938 25.1266 61.156 25.0706 62.178H29.5086ZM37.5233 66H36.4733V65.23C35.9273 65.846 35.1433 66.168 34.2333 66.168C33.0993 66.168 31.8813 65.398 31.8813 63.928C31.8813 62.402 33.0853 61.702 34.2333 61.702C35.1573 61.702 35.9273 61.996 36.4733 62.612V61.394C36.4733 60.498 35.7453 59.98 34.7653 59.98C33.9533 59.98 33.2953 60.26 32.6933 60.918L32.2033 60.19C32.9313 59.434 33.7993 59.07 34.9053 59.07C36.3473 59.07 37.5233 59.714 37.5233 61.352V66ZM34.6253 65.412C35.3533 65.412 36.0673 65.132 36.4733 64.572V63.284C36.0673 62.738 35.3533 62.458 34.6253 62.458C33.6313 62.458 32.9453 63.074 32.9453 63.928C32.9453 64.796 33.6313 65.412 34.6253 65.412ZM41.7978 66.168C40.6778 66.168 39.7538 65.818 39.0678 65.104L39.5998 64.348C40.0478 64.866 40.9018 65.314 41.8258 65.314C42.8618 65.314 43.4358 64.824 43.4358 64.152C43.4358 62.514 39.2498 63.522 39.2498 61.016C39.2498 59.952 40.1458 59.07 41.7558 59.07C42.9178 59.07 43.7298 59.504 44.2618 60.05L43.7718 60.778C43.3658 60.288 42.6378 59.924 41.7558 59.924C40.8318 59.924 40.2578 60.386 40.2578 60.988C40.2578 62.458 44.4438 61.492 44.4438 64.124C44.4438 65.258 43.5338 66.168 41.7978 66.168ZM51.7636 66H50.7136V65.048C50.1956 65.636 49.3136 66.168 48.3056 66.168C46.8916 66.168 46.1496 65.468 46.1496 64.012V59.238H47.1996V63.69C47.1996 64.88 47.8016 65.23 48.7256 65.23C49.5376 65.23 50.3216 64.754 50.7136 64.208V59.238H51.7636V66ZM54.9105 66H53.8605V59.238H54.9105V60.316C55.4565 59.616 56.2405 59.084 57.1645 59.084V60.162C57.0385 60.148 56.9125 60.134 56.7585 60.134C56.1005 60.134 55.2185 60.666 54.9105 61.212V66ZM61.5476 66.168C59.5316 66.168 58.0896 64.726 58.0896 62.612C58.0896 60.652 59.4896 59.07 61.4216 59.07C63.4656 59.07 64.6696 60.666 64.6696 62.696V62.962H59.2096C59.2936 64.236 60.1756 65.3 61.6316 65.3C62.4156 65.3 63.1856 64.992 63.7316 64.432L64.2356 65.118C63.5496 65.79 62.6396 66.168 61.5476 66.168ZM63.6336 62.178C63.6196 61.184 62.9476 59.938 61.4076 59.938C59.9656 59.938 59.2516 61.156 59.1956 62.178H63.6336ZM75.5823 66H74.5323V61.408C74.5323 60.554 74.1683 60.008 73.2863 60.008C72.5863 60.008 71.8443 60.498 71.4943 61.044V66H70.4443V61.408C70.4443 60.554 70.0943 60.008 69.1983 60.008C68.5123 60.008 67.7843 60.512 67.4203 61.058V66H66.3703V59.238H67.4203V60.218C67.7143 59.784 68.6103 59.07 69.6183 59.07C70.6403 59.07 71.2283 59.63 71.4243 60.33C71.8023 59.714 72.7123 59.07 73.6923 59.07C74.9243 59.07 75.5823 59.756 75.5823 61.114V66ZM80.743 66.168C78.727 66.168 77.285 64.726 77.285 62.612C77.285 60.652 78.685 59.07 80.617 59.07C82.661 59.07 83.865 60.666 83.865 62.696V62.962H78.405C78.489 64.236 79.371 65.3 80.827 65.3C81.611 65.3 82.381 64.992 82.927 64.432L83.431 65.118C82.745 65.79 81.835 66.168 80.743 66.168ZM82.829 62.178C82.815 61.184 82.143 59.938 80.603 59.938C79.161 59.938 78.447 61.156 78.391 62.178H82.829ZM91.1796 66H90.1436V61.576C90.1436 60.372 89.5276 60.008 88.6176 60.008C87.7916 60.008 87.0216 60.512 86.6156 61.058V66H85.5656V59.238H86.6156V60.218C87.0916 59.644 88.0156 59.07 89.0376 59.07C90.4376 59.07 91.1796 59.784 91.1796 61.254V66ZM95.0122 66.168C94.0042 66.168 93.5002 65.594 93.5002 64.586V60.162H92.3802V59.238H93.5002V57.39H94.5642V59.238H95.9362V60.162H94.5642V64.362C94.5642 64.866 94.7882 65.23 95.2362 65.23C95.5442 65.23 95.8102 65.09 95.9502 64.936L96.2582 65.734C95.9922 65.986 95.6142 66.168 95.0122 66.168ZM97.9655 66.14C97.5455 66.14 97.1955 65.79 97.1955 65.37C97.1955 64.95 97.5455 64.6 97.9655 64.6C98.3855 64.6 98.7355 64.95 98.7355 65.37C98.7355 65.79 98.3855 66.14 97.9655 66.14ZM3.02321 76.612C3.02321 77.424 2.33721 78.11 1.51121 78.11C0.685211 78.11 -0.000789002 77.424 -0.000789002 76.612C-0.000789002 75.786 0.685211 75.1 1.51121 75.1C2.33721 75.1 3.02321 75.786 3.02321 76.612ZM16.564 80H15.402V71.698H12.448V70.662H19.532V71.698H16.564V80ZM20.8949 80H19.8449V73.238H20.8949V74.316C21.4409 73.616 22.2249 73.084 23.1489 73.084V74.162C23.0229 74.148 22.8969 74.134 22.7429 74.134C22.0849 74.134 21.2029 74.666 20.8949 75.212V80ZM24.102 82.646L24.256 81.694C24.41 81.764 24.662 81.806 24.83 81.806C25.292 81.806 25.6 81.652 25.838 81.092L26.286 80.07L23.458 73.238H24.606L26.846 78.782L29.1 73.238H30.234L26.846 81.372C26.44 82.352 25.754 82.73 24.858 82.744C24.634 82.744 24.284 82.702 24.102 82.646ZM40.5663 80H39.5303V75.576C39.5303 74.372 38.9143 74.008 38.0043 74.008C37.1783 74.008 36.4083 74.512 36.0023 75.058V80H34.9523V73.238H36.0023V74.218C36.4783 73.644 37.4023 73.07 38.4243 73.07C39.8243 73.07 40.5663 73.784 40.5663 75.254V80ZM45.631 80.168C43.573 80.168 42.285 78.572 42.285 76.612C42.285 74.652 43.573 73.07 45.631 73.07C47.689 73.07 48.977 74.652 48.977 76.612C48.977 78.572 47.689 80.168 45.631 80.168ZM45.631 79.23C47.073 79.23 47.871 77.998 47.871 76.612C47.871 75.24 47.073 74.008 45.631 74.008C44.189 74.008 43.391 75.24 43.391 76.612C43.391 77.998 44.189 79.23 45.631 79.23ZM52.4107 80.168C51.4027 80.168 50.8987 79.594 50.8987 78.586V74.162H49.7787V73.238H50.8987V71.39H51.9627V73.238H53.3347V74.162H51.9627V78.362C51.9627 78.866 52.1867 79.23 52.6347 79.23C52.9427 79.23 53.2087 79.09 53.3487 78.936L53.6567 79.734C53.3907 79.986 53.0127 80.168 52.4107 80.168ZM60.149 80.168C59.141 80.168 58.637 79.594 58.637 78.586V74.162H57.517V73.238H58.637V71.39H59.701V73.238H61.073V74.162H59.701V78.362C59.701 78.866 59.925 79.23 60.373 79.23C60.681 79.23 60.947 79.09 61.087 78.936L61.395 79.734C61.129 79.986 60.751 80.168 60.149 80.168ZM65.4962 80.168C63.4382 80.168 62.1502 78.572 62.1502 76.612C62.1502 74.652 63.4382 73.07 65.4962 73.07C67.5542 73.07 68.8422 74.652 68.8422 76.612C68.8422 78.572 67.5542 80.168 65.4962 80.168ZM65.4962 79.23C66.9382 79.23 67.7362 77.998 67.7362 76.612C67.7362 75.24 66.9382 74.008 65.4962 74.008C64.0542 74.008 63.2562 75.24 63.2562 76.612C63.2562 77.998 64.0542 79.23 65.4962 79.23ZM83.389 80H82.339V75.408C82.339 74.554 81.975 74.008 81.093 74.008C80.393 74.008 79.651 74.498 79.301 75.044V80H78.251V75.408C78.251 74.554 77.901 74.008 77.005 74.008C76.319 74.008 75.591 74.512 75.227 75.058V80H74.177V73.238H75.227V74.218C75.521 73.784 76.417 73.07 77.425 73.07C78.447 73.07 79.035 73.63 79.231 74.33C79.609 73.714 80.519 73.07 81.499 73.07C82.731 73.07 83.389 73.756 83.389 75.114V80ZM90.7616 80H89.7116V79.23C89.1656 79.846 88.3816 80.168 87.4716 80.168C86.3376 80.168 85.1196 79.398 85.1196 77.928C85.1196 76.402 86.3236 75.702 87.4716 75.702C88.3956 75.702 89.1656 75.996 89.7116 76.612V75.394C89.7116 74.498 88.9836 73.98 88.0036 73.98C87.1916 73.98 86.5336 74.26 85.9316 74.918L85.4416 74.19C86.1696 73.434 87.0376 73.07 88.1436 73.07C89.5856 73.07 90.7616 73.714 90.7616 75.352V80ZM87.8636 79.412C88.5916 79.412 89.3056 79.132 89.7116 78.572V77.284C89.3056 76.738 88.5916 76.458 87.8636 76.458C86.8696 76.458 86.1836 77.074 86.1836 77.928C86.1836 78.796 86.8696 79.412 87.8636 79.412ZM98.8301 80H97.4861L95.0641 76.962L93.9301 78.068V80H92.8801V70.662H93.9301V76.836L97.4861 73.238H98.8161L95.8201 76.304L98.8301 80ZM103.096 80.168C101.08 80.168 99.6385 78.726 99.6385 76.612C99.6385 74.652 101.038 73.07 102.97 73.07C105.014 73.07 106.218 74.666 106.218 76.696V76.962H100.758C100.842 78.236 101.724 79.3 103.18 79.3C103.964 79.3 104.734 78.992 105.28 78.432L105.784 79.118C105.098 79.79 104.188 80.168 103.096 80.168ZM105.182 76.178C105.168 75.184 104.496 73.938 102.956 73.938C101.514 73.938 100.8 75.156 100.744 76.178H105.182ZM116.82 80H115.77V79.23C115.224 79.846 114.44 80.168 113.53 80.168C112.396 80.168 111.178 79.398 111.178 77.928C111.178 76.402 112.382 75.702 113.53 75.702C114.454 75.702 115.224 75.996 115.77 76.612V75.394C115.77 74.498 115.042 73.98 114.062 73.98C113.25 73.98 112.592 74.26 111.99 74.918L111.5 74.19C112.228 73.434 113.096 73.07 114.202 73.07C115.644 73.07 116.82 73.714 116.82 75.352V80ZM113.922 79.412C114.65 79.412 115.364 79.132 115.77 78.572V77.284C115.364 76.738 114.65 76.458 113.922 76.458C112.928 76.458 112.242 77.074 112.242 77.928C112.242 78.796 112.928 79.412 113.922 79.412ZM124.553 80H123.517V75.576C123.517 74.372 122.901 74.008 121.991 74.008C121.165 74.008 120.395 74.512 119.989 75.058V80H118.939V73.238H119.989V74.218C120.465 73.644 121.389 73.07 122.411 73.07C123.811 73.07 124.553 73.784 124.553 75.254V80ZM126.299 82.646L126.453 81.694C126.607 81.764 126.859 81.806 127.027 81.806C127.489 81.806 127.797 81.652 128.035 81.092L128.483 80.07L125.655 73.238H126.803L129.043 78.782L131.297 73.238H132.431L129.043 81.372C128.637 82.352 127.951 82.73 127.055 82.744C126.831 82.744 126.481 82.702 126.299 82.646ZM146.362 80H145.312V75.408C145.312 74.554 144.948 74.008 144.066 74.008C143.366 74.008 142.624 74.498 142.274 75.044V80H141.224V75.408C141.224 74.554 140.874 74.008 139.978 74.008C139.292 74.008 138.564 74.512 138.2 75.058V80H137.15V73.238H138.2V74.218C138.494 73.784 139.39 73.07 140.398 73.07C141.42 73.07 142.008 73.63 142.204 74.33C142.582 73.714 143.492 73.07 144.472 73.07C145.704 73.07 146.362 73.756 146.362 75.114V80ZM151.41 80.168C149.352 80.168 148.064 78.572 148.064 76.612C148.064 74.652 149.352 73.07 151.41 73.07C153.468 73.07 154.756 74.652 154.756 76.612C154.756 78.572 153.468 80.168 151.41 80.168ZM151.41 79.23C152.852 79.23 153.65 77.998 153.65 76.612C153.65 75.24 152.852 74.008 151.41 74.008C149.968 74.008 149.17 75.24 149.17 76.612C149.17 77.998 149.968 79.23 151.41 79.23ZM159.422 80H158.274L155.46 73.238H156.608L158.848 78.782L161.102 73.238H162.236L159.422 80ZM166.397 80.168C164.381 80.168 162.939 78.726 162.939 76.612C162.939 74.652 164.339 73.07 166.271 73.07C168.315 73.07 169.519 74.666 169.519 76.696V76.962H164.059C164.143 78.236 165.025 79.3 166.481 79.3C167.265 79.3 168.035 78.992 168.581 78.432L169.085 79.118C168.399 79.79 167.489 80.168 166.397 80.168ZM168.483 76.178C168.469 75.184 167.797 73.938 166.257 73.938C164.815 73.938 164.101 75.156 164.045 76.178H168.483ZM180.432 80H179.382V75.408C179.382 74.554 179.018 74.008 178.136 74.008C177.436 74.008 176.694 74.498 176.344 75.044V80H175.294V75.408C175.294 74.554 174.944 74.008 174.048 74.008C173.362 74.008 172.634 74.512 172.27 75.058V80H171.22V73.238H172.27V74.218C172.564 73.784 173.46 73.07 174.468 73.07C175.49 73.07 176.078 73.63 176.274 74.33C176.652 73.714 177.562 73.07 178.542 73.07C179.774 73.07 180.432 73.756 180.432 75.114V80ZM185.593 80.168C183.577 80.168 182.135 78.726 182.135 76.612C182.135 74.652 183.535 73.07 185.467 73.07C187.511 73.07 188.715 74.666 188.715 76.696V76.962H183.255C183.339 78.236 184.221 79.3 185.677 79.3C186.461 79.3 187.231 78.992 187.777 78.432L188.281 79.118C187.595 79.79 186.685 80.168 185.593 80.168ZM187.679 76.178C187.665 75.184 186.993 73.938 185.453 73.938C184.011 73.938 183.297 75.156 183.241 76.178H187.679ZM196.029 80H194.993V75.576C194.993 74.372 194.377 74.008 193.467 74.008C192.641 74.008 191.871 74.512 191.465 75.058V80H190.415V73.238H191.465V74.218C191.941 73.644 192.865 73.07 193.887 73.07C195.287 73.07 196.029 73.784 196.029 75.254V80ZM199.862 80.168C198.854 80.168 198.35 79.594 198.35 78.586V74.162H197.23V73.238H198.35V71.39H199.414V73.238H200.786V74.162H199.414V78.362C199.414 78.866 199.638 79.23 200.086 79.23C200.394 79.23 200.66 79.09 200.8 78.936L201.108 79.734C200.842 79.986 200.464 80.168 199.862 80.168ZM204.411 80.168C203.291 80.168 202.367 79.818 201.681 79.104L202.213 78.348C202.661 78.866 203.515 79.314 204.439 79.314C205.475 79.314 206.049 78.824 206.049 78.152C206.049 76.514 201.863 77.522 201.863 75.016C201.863 73.952 202.759 73.07 204.369 73.07C205.531 73.07 206.343 73.504 206.875 74.05L206.385 74.778C205.979 74.288 205.251 73.924 204.369 73.924C203.445 73.924 202.871 74.386 202.871 74.988C202.871 76.458 207.057 75.492 207.057 78.124C207.057 79.258 206.147 80.168 204.411 80.168ZM213.73 80H212.68V74.162H211.56V73.238H212.68V72.72C212.68 71.334 213.45 70.522 214.64 70.522C215.186 70.522 215.648 70.648 216.068 71.04L215.634 71.712C215.41 71.516 215.144 71.39 214.808 71.39C214.108 71.39 213.73 71.852 213.73 72.72V73.238H215.102V74.162H213.73V80ZM219.318 80.168C217.26 80.168 215.972 78.572 215.972 76.612C215.972 74.652 217.26 73.07 219.318 73.07C221.376 73.07 222.664 74.652 222.664 76.612C222.664 78.572 221.376 80.168 219.318 80.168ZM219.318 79.23C220.76 79.23 221.558 77.998 221.558 76.612C221.558 75.24 220.76 74.008 219.318 74.008C217.876 74.008 217.078 75.24 217.078 76.612C217.078 77.998 217.876 79.23 219.318 79.23ZM225.426 80H224.376V73.238H225.426V74.316C225.972 73.616 226.756 73.084 227.68 73.084V74.162C227.554 74.148 227.428 74.134 227.274 74.134C226.616 74.134 225.734 74.666 225.426 75.212V80ZM235.294 80.168C233.712 80.168 232.55 79.468 231.976 78.628L232.662 77.9C233.208 78.628 234.16 79.132 235.266 79.132C236.624 79.132 237.45 78.446 237.45 77.382C237.45 76.22 236.498 75.73 235.126 75.73C234.734 75.73 234.3 75.73 234.16 75.744V74.68C234.314 74.694 234.748 74.694 235.126 74.694C236.302 74.694 237.296 74.232 237.296 73.154C237.296 72.118 236.344 71.558 235.21 71.558C234.188 71.558 233.432 71.95 232.746 72.692L232.102 71.964C232.774 71.138 233.852 70.522 235.308 70.522C237.1 70.522 238.458 71.432 238.458 73C238.458 74.358 237.324 75.03 236.456 75.17C237.296 75.254 238.612 75.968 238.612 77.48C238.612 79.034 237.352 80.168 235.294 80.168ZM243.647 80.168C241.085 80.168 240.077 77.606 240.077 75.338C240.077 73.056 241.085 70.522 243.647 70.522C246.195 70.522 247.217 73.056 247.217 75.338C247.217 77.606 246.195 80.168 243.647 80.168ZM243.647 79.132C245.425 79.132 246.027 77.2 246.027 75.338C246.027 73.476 245.425 71.558 243.647 71.558C241.869 71.558 241.267 73.476 241.267 75.338C241.267 77.2 241.869 79.132 243.647 79.132ZM254.765 80.168C253.645 80.168 252.721 79.818 252.035 79.104L252.567 78.348C253.015 78.866 253.869 79.314 254.793 79.314C255.829 79.314 256.403 78.824 256.403 78.152C256.403 76.514 252.217 77.522 252.217 75.016C252.217 73.952 253.113 73.07 254.723 73.07C255.885 73.07 256.697 73.504 257.229 74.05L256.739 74.778C256.333 74.288 255.605 73.924 254.723 73.924C253.799 73.924 253.225 74.386 253.225 74.988C253.225 76.458 257.411 75.492 257.411 78.124C257.411 79.258 256.501 80.168 254.765 80.168ZM262.182 80.168C260.166 80.168 258.724 78.726 258.724 76.612C258.724 74.652 260.124 73.07 262.056 73.07C264.1 73.07 265.304 74.666 265.304 76.696V76.962H259.844C259.928 78.236 260.81 79.3 262.266 79.3C263.05 79.3 263.82 78.992 264.366 78.432L264.87 79.118C264.184 79.79 263.274 80.168 262.182 80.168ZM264.268 76.178C264.254 75.184 263.582 73.938 262.042 73.938C260.6 73.938 259.886 75.156 259.83 76.178H264.268ZM269.987 80.168C267.971 80.168 266.613 78.614 266.613 76.612C266.613 74.61 267.971 73.07 269.987 73.07C271.219 73.07 271.947 73.574 272.465 74.246L271.765 74.876C271.317 74.26 270.743 74.008 270.043 74.008C268.615 74.008 267.705 75.114 267.705 76.612C267.705 78.11 268.615 79.23 270.043 79.23C270.743 79.23 271.317 78.95 271.765 78.348L272.465 78.992C271.947 79.664 271.219 80.168 269.987 80.168ZM276.904 80.168C274.846 80.168 273.558 78.572 273.558 76.612C273.558 74.652 274.846 73.07 276.904 73.07C278.962 73.07 280.25 74.652 280.25 76.612C280.25 78.572 278.962 80.168 276.904 80.168ZM276.904 79.23C278.346 79.23 279.144 77.998 279.144 76.612C279.144 75.24 278.346 74.008 276.904 74.008C275.462 74.008 274.664 75.24 274.664 76.612C274.664 77.998 275.462 79.23 276.904 79.23ZM287.576 80H286.54V75.576C286.54 74.372 285.924 74.008 285.014 74.008C284.188 74.008 283.418 74.512 283.012 75.058V80H281.962V73.238H283.012V74.218C283.488 73.644 284.412 73.07 285.434 73.07C286.834 73.07 287.576 73.784 287.576 75.254V80ZM295.637 80H294.587V78.992C294.083 79.678 293.257 80.168 292.305 80.168C290.541 80.168 289.295 78.824 289.295 76.626C289.295 74.456 290.541 73.07 292.305 73.07C293.215 73.07 294.041 73.518 294.587 74.26V70.662H295.637V80ZM292.571 79.23C293.397 79.23 294.223 78.74 294.587 78.152V75.1C294.223 74.512 293.397 74.008 292.571 74.008C291.199 74.008 290.387 75.128 290.387 76.626C290.387 78.124 291.199 79.23 292.571 79.23ZM299.895 80.168C298.775 80.168 297.851 79.818 297.165 79.104L297.697 78.348C298.145 78.866 298.999 79.314 299.923 79.314C300.959 79.314 301.533 78.824 301.533 78.152C301.533 76.514 297.347 77.522 297.347 75.016C297.347 73.952 298.243 73.07 299.853 73.07C301.015 73.07 301.827 73.504 302.359 74.05L301.869 74.778C301.463 74.288 300.735 73.924 299.853 73.924C298.929 73.924 298.355 74.386 298.355 74.988C298.355 76.458 302.541 75.492 302.541 78.124C302.541 79.258 301.631 80.168 299.895 80.168ZM18.664 94H17.614V93.048C17.096 93.636 16.214 94.168 15.206 94.168C13.792 94.168 13.05 93.468 13.05 92.012V87.238H14.1V91.69C14.1 92.88 14.702 93.23 15.626 93.23C16.438 93.23 17.222 92.754 17.614 92.208V87.238H18.664V94ZM26.3749 94H25.3389V89.576C25.3389 88.372 24.7229 88.008 23.8129 88.008C22.9869 88.008 22.2169 88.512 21.8109 89.058V94H20.7609V87.238H21.8109V88.218C22.2869 87.644 23.2109 87.07 24.2329 87.07C25.6329 87.07 26.3749 87.784 26.3749 89.254V94ZM30.2075 94.168C29.1995 94.168 28.6955 93.594 28.6955 92.586V88.162H27.5755V87.238H28.6955V85.39H29.7595V87.238H31.1315V88.162H29.7595V92.362C29.7595 92.866 29.9835 93.23 30.4315 93.23C30.7395 93.23 31.0055 93.09 31.1455 92.936L31.4535 93.734C31.1875 93.986 30.8095 94.168 30.2075 94.168ZM33.1328 86.272C32.7408 86.272 32.4188 85.964 32.4188 85.572C32.4188 85.18 32.7408 84.858 33.1328 84.858C33.5248 84.858 33.8328 85.18 33.8328 85.572C33.8328 85.964 33.5248 86.272 33.1328 86.272ZM33.6508 94H32.6008V87.238H33.6508V94ZM36.7953 94H35.7453V84.662H36.7953V94ZM44.2349 94.168C43.2269 94.168 42.7229 93.594 42.7229 92.586V88.162H41.6029V87.238H42.7229V85.39H43.7869V87.238H45.1589V88.162H43.7869V92.362C43.7869 92.866 44.0109 93.23 44.4589 93.23C44.7669 93.23 45.0329 93.09 45.1729 92.936L45.4809 93.734C45.2149 93.986 44.8369 94.168 44.2349 94.168ZM52.2561 94H51.2061V89.548C51.2061 88.344 50.6041 88.008 49.6801 88.008C48.8681 88.008 48.0841 88.512 47.6921 89.058V94H46.6421V84.662H47.6921V88.218C48.1541 87.644 49.0781 87.07 50.1001 87.07C51.5141 87.07 52.2561 87.756 52.2561 89.226V94ZM57.4187 94.168C55.4027 94.168 53.9607 92.726 53.9607 90.612C53.9607 88.652 55.3607 87.07 57.2927 87.07C59.3367 87.07 60.5407 88.666 60.5407 90.696V90.962H55.0807C55.1647 92.236 56.0467 93.3 57.5027 93.3C58.2867 93.3 59.0567 92.992 59.6027 92.432L60.1067 93.118C59.4207 93.79 58.5107 94.168 57.4187 94.168ZM59.5047 90.178C59.4907 89.184 58.8187 87.938 57.2787 87.938C55.8367 87.938 55.1227 89.156 55.0667 90.178H59.5047ZM75.0765 94H74.0265V89.408C74.0265 88.554 73.6625 88.008 72.7805 88.008C72.0805 88.008 71.3385 88.498 70.9885 89.044V94H69.9385V89.408C69.9385 88.554 69.5885 88.008 68.6925 88.008C68.0065 88.008 67.2785 88.512 66.9145 89.058V94H65.8645V87.238H66.9145V88.218C67.2085 87.784 68.1045 87.07 69.1125 87.07C70.1345 87.07 70.7225 87.63 70.9185 88.33C71.2965 87.714 72.2065 87.07 73.1865 87.07C74.4185 87.07 75.0765 87.756 75.0765 89.114V94ZM80.2371 94.168C78.2211 94.168 76.7791 92.726 76.7791 90.612C76.7791 88.652 78.1791 87.07 80.1111 87.07C82.1551 87.07 83.3591 88.666 83.3591 90.696V90.962H77.8991C77.9831 92.236 78.8651 93.3 80.3211 93.3C81.1051 93.3 81.8751 92.992 82.4211 92.432L82.9251 93.118C82.2391 93.79 81.3291 94.168 80.2371 94.168ZM82.3231 90.178C82.3091 89.184 81.6371 87.938 80.0971 87.938C78.6551 87.938 77.9411 89.156 77.8851 90.178H82.3231ZM90.3378 94H89.2878V93.23C88.7418 93.846 87.9578 94.168 87.0478 94.168C85.9138 94.168 84.6958 93.398 84.6958 91.928C84.6958 90.402 85.8998 89.702 87.0478 89.702C87.9718 89.702 88.7418 89.996 89.2878 90.612V89.394C89.2878 88.498 88.5598 87.98 87.5798 87.98C86.7678 87.98 86.1098 88.26 85.5078 88.918L85.0178 88.19C85.7458 87.434 86.6138 87.07 87.7198 87.07C89.1618 87.07 90.3378 87.714 90.3378 89.352V94ZM87.4398 93.412C88.1678 93.412 88.8818 93.132 89.2878 92.572V91.284C88.8818 90.738 88.1678 90.458 87.4398 90.458C86.4458 90.458 85.7598 91.074 85.7598 91.928C85.7598 92.796 86.4458 93.412 87.4398 93.412ZM94.6123 94.168C93.4923 94.168 92.5683 93.818 91.8823 93.104L92.4143 92.348C92.8623 92.866 93.7163 93.314 94.6403 93.314C95.6763 93.314 96.2503 92.824 96.2503 92.152C96.2503 90.514 92.0643 91.522 92.0643 89.016C92.0643 87.952 92.9603 87.07 94.5703 87.07C95.7323 87.07 96.5443 87.504 97.0763 88.05L96.5863 88.778C96.1803 88.288 95.4523 87.924 94.5703 87.924C93.6463 87.924 93.0723 88.386 93.0723 88.988C93.0723 90.458 97.2583 89.492 97.2583 92.124C97.2583 93.258 96.3483 94.168 94.6123 94.168ZM104.578 94H103.528V93.048C103.01 93.636 102.128 94.168 101.12 94.168C99.7061 94.168 98.9641 93.468 98.9641 92.012V87.238H100.014V91.69C100.014 92.88 100.616 93.23 101.54 93.23C102.352 93.23 103.136 92.754 103.528 92.208V87.238H104.578V94ZM107.725 94H106.675V87.238H107.725V88.316C108.271 87.616 109.055 87.084 109.979 87.084V88.162C109.853 88.148 109.727 88.134 109.573 88.134C108.915 88.134 108.033 88.666 107.725 89.212V94ZM114.362 94.168C112.346 94.168 110.904 92.726 110.904 90.612C110.904 88.652 112.304 87.07 114.236 87.07C116.28 87.07 117.484 88.666 117.484 90.696V90.962H112.024C112.108 92.236 112.99 93.3 114.446 93.3C115.23 93.3 116 92.992 116.546 92.432L117.05 93.118C116.364 93.79 115.454 94.168 114.362 94.168ZM116.448 90.178C116.434 89.184 115.762 87.938 114.222 87.938C112.78 87.938 112.066 89.156 112.01 90.178H116.448ZM128.397 94H127.347V89.408C127.347 88.554 126.983 88.008 126.101 88.008C125.401 88.008 124.659 88.498 124.309 89.044V94H123.259V89.408C123.259 88.554 122.909 88.008 122.013 88.008C121.327 88.008 120.599 88.512 120.235 89.058V94H119.185V87.238H120.235V88.218C120.529 87.784 121.425 87.07 122.433 87.07C123.455 87.07 124.043 87.63 124.239 88.33C124.617 87.714 125.527 87.07 126.507 87.07C127.739 87.07 128.397 87.756 128.397 89.114V94ZM133.557 94.168C131.541 94.168 130.099 92.726 130.099 90.612C130.099 88.652 131.499 87.07 133.431 87.07C135.475 87.07 136.679 88.666 136.679 90.696V90.962H131.219C131.303 92.236 132.185 93.3 133.641 93.3C134.425 93.3 135.195 92.992 135.741 92.432L136.245 93.118C135.559 93.79 134.649 94.168 133.557 94.168ZM135.643 90.178C135.629 89.184 134.957 87.938 133.417 87.938C131.975 87.938 131.261 89.156 131.205 90.178H135.643ZM143.994 94H142.958V89.576C142.958 88.372 142.342 88.008 141.432 88.008C140.606 88.008 139.836 88.512 139.43 89.058V94H138.38V87.238H139.43V88.218C139.906 87.644 140.83 87.07 141.852 87.07C143.252 87.07 143.994 87.784 143.994 89.254V94ZM147.827 94.168C146.819 94.168 146.315 93.594 146.315 92.586V88.162H145.195V87.238H146.315V85.39H147.379V87.238H148.751V88.162H147.379V92.362C147.379 92.866 147.603 93.23 148.051 93.23C148.359 93.23 148.625 93.09 148.765 92.936L149.073 93.734C148.807 93.986 148.429 94.168 147.827 94.168ZM154.375 86.272C153.983 86.272 153.661 85.964 153.661 85.572C153.661 85.18 153.983 84.858 154.375 84.858C154.767 84.858 155.075 85.18 155.075 85.572C155.075 85.964 154.767 86.272 154.375 86.272ZM154.893 94H153.843V87.238H154.893V94ZM159.144 94.168C158.024 94.168 157.1 93.818 156.414 93.104L156.946 92.348C157.394 92.866 158.248 93.314 159.172 93.314C160.208 93.314 160.782 92.824 160.782 92.152C160.782 90.514 156.596 91.522 156.596 89.016C156.596 87.952 157.492 87.07 159.102 87.07C160.264 87.07 161.076 87.504 161.608 88.05L161.118 88.778C160.712 88.288 159.984 87.924 159.102 87.924C158.178 87.924 157.604 88.386 157.604 88.988C157.604 90.458 161.79 89.492 161.79 92.124C161.79 93.258 160.88 94.168 159.144 94.168ZM170.1 94.168C168.084 94.168 166.726 92.614 166.726 90.612C166.726 88.61 168.084 87.07 170.1 87.07C171.332 87.07 172.06 87.574 172.578 88.246L171.878 88.876C171.43 88.26 170.856 88.008 170.156 88.008C168.728 88.008 167.818 89.114 167.818 90.612C167.818 92.11 168.728 93.23 170.156 93.23C170.856 93.23 171.43 92.95 171.878 92.348L172.578 92.992C172.06 93.664 171.332 94.168 170.1 94.168ZM177.018 94.168C174.96 94.168 173.672 92.572 173.672 90.612C173.672 88.652 174.96 87.07 177.018 87.07C179.076 87.07 180.364 88.652 180.364 90.612C180.364 92.572 179.076 94.168 177.018 94.168ZM177.018 93.23C178.46 93.23 179.258 91.998 179.258 90.612C179.258 89.24 178.46 88.008 177.018 88.008C175.576 88.008 174.778 89.24 174.778 90.612C174.778 91.998 175.576 93.23 177.018 93.23ZM191.287 94H190.237V89.408C190.237 88.554 189.873 88.008 188.991 88.008C188.291 88.008 187.549 88.498 187.199 89.044V94H186.149V89.408C186.149 88.554 185.799 88.008 184.903 88.008C184.217 88.008 183.489 88.512 183.125 89.058V94H182.075V87.238H183.125V88.218C183.419 87.784 184.315 87.07 185.323 87.07C186.345 87.07 186.933 87.63 187.129 88.33C187.507 87.714 188.417 87.07 189.397 87.07C190.629 87.07 191.287 87.756 191.287 89.114V94ZM196.714 94.168C195.79 94.168 194.992 93.72 194.432 92.978V96.576H193.382V87.238H194.432V88.246C194.922 87.56 195.762 87.07 196.714 87.07C198.492 87.07 199.724 88.414 199.724 90.612C199.724 92.796 198.492 94.168 196.714 94.168ZM196.448 93.23C197.806 93.23 198.618 92.11 198.618 90.612C198.618 89.114 197.806 88.008 196.448 88.008C195.622 88.008 194.796 88.498 194.432 89.086V92.138C194.796 92.726 195.622 93.23 196.448 93.23ZM202.444 94H201.394V84.662H202.444V94ZM207.604 94.168C205.588 94.168 204.146 92.726 204.146 90.612C204.146 88.652 205.546 87.07 207.478 87.07C209.522 87.07 210.726 88.666 210.726 90.696V90.962H205.266C205.35 92.236 206.232 93.3 207.688 93.3C208.472 93.3 209.242 92.992 209.788 92.432L210.292 93.118C209.606 93.79 208.696 94.168 207.604 94.168ZM209.69 90.178C209.676 89.184 209.004 87.938 207.464 87.938C206.022 87.938 205.308 89.156 205.252 90.178H209.69ZM214.149 94.168C213.141 94.168 212.637 93.594 212.637 92.586V88.162H211.517V87.238H212.637V85.39H213.701V87.238H215.073V88.162H213.701V92.362C213.701 92.866 213.925 93.23 214.373 93.23C214.681 93.23 214.947 93.09 215.087 92.936L215.395 93.734C215.129 93.986 214.751 94.168 214.149 94.168ZM219.608 94.168C217.592 94.168 216.15 92.726 216.15 90.612C216.15 88.652 217.55 87.07 219.482 87.07C221.526 87.07 222.73 88.666 222.73 90.696V90.962H217.27C217.354 92.236 218.236 93.3 219.692 93.3C220.476 93.3 221.246 92.992 221.792 92.432L222.296 93.118C221.61 93.79 220.7 94.168 219.608 94.168ZM221.694 90.178C221.68 89.184 221.008 87.938 219.468 87.938C218.026 87.938 217.312 89.156 217.256 90.178H221.694ZM224.895 94.14C224.475 94.14 224.125 93.79 224.125 93.37C224.125 92.95 224.475 92.6 224.895 92.6C225.315 92.6 225.665 92.95 225.665 93.37C225.665 93.79 225.315 94.14 224.895 94.14Z" fill="#212121"/>
</svg>
