<svg width="314" height="64" viewBox="0 0 314 64" fill="none" xmlns="http://www.w3.org/2000/svg">
<path d="M4.564 10H3.402V1.698H0.448V0.661999H7.532V1.698H4.564V10ZM14.6624 10H13.6124V5.548C13.6124 4.358 12.9964 4.008 12.0864 4.008C11.2744 4.008 10.4904 4.512 10.0844 5.058V10H9.03438V0.661999H10.0844V4.218C10.5604 3.658 11.4844 3.07 12.5064 3.07C13.9204 3.07 14.6624 3.756 14.6624 5.226V10ZM19.811 10.168C17.809 10.168 16.367 8.726 16.367 6.612C16.367 4.652 17.767 3.07 19.699 3.07C21.743 3.07 22.947 4.666 22.947 6.696V6.962H17.473C17.557 8.236 18.453 9.3 19.909 9.3C20.679 9.3 21.463 8.992 21.995 8.446L22.499 9.132C21.827 9.804 20.917 10.168 19.811 10.168ZM21.911 6.192C21.897 5.184 21.225 3.938 19.685 3.938C18.243 3.938 17.529 5.156 17.473 6.192H21.911ZM37.469 10H36.419V5.408C36.419 4.554 36.041 4.008 35.173 4.008C34.473 4.008 33.731 4.512 33.381 5.044V10H32.331V5.408C32.331 4.554 31.967 4.008 31.085 4.008C30.399 4.008 29.671 4.512 29.307 5.058V10H28.257V3.238H29.307V4.218C29.587 3.784 30.497 3.07 31.491 3.07C32.527 3.07 33.115 3.63 33.311 4.33C33.689 3.714 34.599 3.07 35.579 3.07C36.811 3.07 37.469 3.756 37.469 5.114V10ZM42.6157 10.168C40.6137 10.168 39.1717 8.726 39.1717 6.612C39.1717 4.652 40.5717 3.07 42.5037 3.07C44.5477 3.07 45.7517 4.666 45.7517 6.696V6.962H40.2777C40.3617 8.236 41.2577 9.3 42.7137 9.3C43.4837 9.3 44.2677 8.992 44.7997 8.446L45.3037 9.132C44.6317 9.804 43.7217 10.168 42.6157 10.168ZM44.7157 6.192C44.7017 5.184 44.0297 3.938 42.4897 3.938C41.0477 3.938 40.3337 5.156 40.2777 6.192H44.7157ZM52.7303 10H51.6803V9.23C51.1203 9.846 50.3503 10.168 49.4403 10.168C48.2923 10.168 47.0743 9.398 47.0743 7.928C47.0743 6.416 48.2923 5.702 49.4403 5.702C50.3643 5.702 51.1343 5.996 51.6803 6.626V5.408C51.6803 4.498 50.9523 3.98 49.9723 3.98C49.1603 3.98 48.5023 4.274 47.9003 4.918L47.4103 4.19C48.1383 3.434 49.0063 3.07 50.1123 3.07C51.5403 3.07 52.7303 3.714 52.7303 5.352V10ZM49.8183 9.412C50.5603 9.412 51.2743 9.132 51.6803 8.572V7.298C51.2743 6.738 50.5603 6.458 49.8183 6.458C48.8383 6.458 48.1523 7.074 48.1523 7.942C48.1523 8.796 48.8383 9.412 49.8183 9.412ZM56.9772 10.168C55.8712 10.168 54.9332 9.832 54.2472 9.104L54.7932 8.348C55.2412 8.866 56.0952 9.314 57.0192 9.314C58.0552 9.314 58.6152 8.824 58.6152 8.152C58.6152 6.514 54.4292 7.522 54.4292 5.016C54.4292 3.966 55.3392 3.07 56.9492 3.07C58.0972 3.07 58.9092 3.504 59.4552 4.05L58.9652 4.778C58.5592 4.288 57.8172 3.924 56.9492 3.924C56.0252 3.924 55.4512 4.386 55.4512 4.988C55.4512 6.472 59.6372 5.492 59.6372 8.124C59.6372 9.258 58.7272 10.168 56.9772 10.168ZM66.957 10H65.907V9.048C65.389 9.636 64.507 10.168 63.499 10.168C62.085 10.168 61.343 9.482 61.343 8.012V3.238H62.393V7.69C62.393 8.88 62.995 9.23 63.905 9.23C64.731 9.23 65.515 8.754 65.907 8.208V3.238H66.957V10ZM70.1039 10H69.0539V3.238H70.1039V4.33C70.6499 3.616 71.4339 3.098 72.3579 3.098V4.176C72.2319 4.148 72.1059 4.134 71.9379 4.134C71.2939 4.134 70.4119 4.666 70.1039 5.212V10ZM76.727 10.168C74.725 10.168 73.283 8.726 73.283 6.612C73.283 4.652 74.683 3.07 76.615 3.07C78.659 3.07 79.863 4.666 79.863 6.696V6.962H74.389C74.473 8.236 75.369 9.3 76.825 9.3C77.595 9.3 78.379 8.992 78.911 8.446L79.415 9.132C78.743 9.804 77.833 10.168 76.727 10.168ZM78.827 6.192C78.813 5.184 78.141 3.938 76.601 3.938C75.159 3.938 74.445 5.156 74.389 6.192H78.827ZM90.7757 10H89.7257V5.408C89.7257 4.554 89.3477 4.008 88.4797 4.008C87.7797 4.008 87.0377 4.512 86.6877 5.044V10H85.6377V5.408C85.6377 4.554 85.2737 4.008 84.3917 4.008C83.7057 4.008 82.9777 4.512 82.6137 5.058V10H81.5637V3.238H82.6137V4.218C82.8937 3.784 83.8037 3.07 84.7977 3.07C85.8337 3.07 86.4217 3.63 86.6177 4.33C86.9957 3.714 87.9057 3.07 88.8857 3.07C90.1177 3.07 90.7757 3.756 90.7757 5.114V10ZM95.9223 10.168C93.9203 10.168 92.4783 8.726 92.4783 6.612C92.4783 4.652 93.8783 3.07 95.8103 3.07C97.8543 3.07 99.0583 4.666 99.0583 6.696V6.962H93.5843C93.6683 8.236 94.5643 9.3 96.0203 9.3C96.7903 9.3 97.5743 8.992 98.1063 8.446L98.6103 9.132C97.9383 9.804 97.0283 10.168 95.9223 10.168ZM98.0223 6.192C98.0083 5.184 97.3363 3.938 95.7963 3.938C94.3543 3.938 93.6403 5.156 93.5843 6.192H98.0223ZM106.373 10H105.323V5.576C105.323 4.386 104.721 4.008 103.811 4.008C102.985 4.008 102.201 4.512 101.809 5.058V10H100.759V3.238H101.809V4.218C102.285 3.658 103.209 3.07 104.217 3.07C105.631 3.07 106.373 3.784 106.373 5.254V10ZM110.178 10.168C109.184 10.168 108.68 9.594 108.68 8.586V4.162H107.56V3.238H108.68V1.39H109.73V3.238H111.102V4.162H109.73V8.362C109.73 8.866 109.954 9.23 110.416 9.23C110.71 9.23 110.99 9.104 111.13 8.95L111.438 9.734C111.172 9.986 110.794 10.168 110.178 10.168ZM123.097 10H122.047L120.283 4.568L118.519 10H117.469L115.313 3.238H116.405L118.057 8.628L119.835 3.238H120.731L122.509 8.628L124.161 3.238H125.253L123.097 10ZM126.994 2.272C126.616 2.272 126.294 1.964 126.294 1.572C126.294 1.18 126.616 0.857999 126.994 0.857999C127.386 0.857999 127.708 1.18 127.708 1.572C127.708 1.964 127.386 2.272 126.994 2.272ZM127.526 10H126.476V3.238H127.526V10ZM130.67 10H129.62V0.661999H130.67V10ZM133.815 10H132.765V0.661999H133.815V10ZM145.133 10H144.083V5.576C144.083 4.386 143.481 4.008 142.571 4.008C141.745 4.008 140.961 4.512 140.569 5.058V10H139.519V3.238H140.569V4.218C141.045 3.658 141.969 3.07 142.977 3.07C144.391 3.07 145.133 3.784 145.133 5.254V10ZM150.184 10.168C148.126 10.168 146.838 8.572 146.838 6.612C146.838 4.652 148.126 3.07 150.184 3.07C152.242 3.07 153.53 4.652 153.53 6.612C153.53 8.572 152.242 10.168 150.184 10.168ZM150.184 9.23C151.626 9.23 152.424 7.998 152.424 6.612C152.424 5.24 151.626 4.008 150.184 4.008C148.742 4.008 147.93 5.24 147.93 6.612C147.93 7.998 148.742 9.23 150.184 9.23ZM156.949 10.168C155.955 10.168 155.451 9.594 155.451 8.586V4.162H154.331V3.238H155.451V1.39H156.501V3.238H157.873V4.162H156.501V8.362C156.501 8.866 156.725 9.23 157.187 9.23C157.481 9.23 157.761 9.104 157.901 8.95L158.209 9.734C157.943 9.986 157.565 10.168 156.949 10.168ZM169.868 10H168.818L167.054 4.568L165.29 10H164.24L162.084 3.238H163.176L164.828 8.628L166.606 3.238H167.502L169.28 8.628L170.932 3.238H172.024L169.868 10ZM176.201 10.168C174.143 10.168 172.855 8.572 172.855 6.612C172.855 4.652 174.143 3.07 176.201 3.07C178.259 3.07 179.547 4.652 179.547 6.612C179.547 8.572 178.259 10.168 176.201 10.168ZM176.201 9.23C177.643 9.23 178.441 7.998 178.441 6.612C178.441 5.24 177.643 4.008 176.201 4.008C174.759 4.008 173.947 5.24 173.947 6.612C173.947 7.998 174.759 9.23 176.201 9.23ZM182.309 10H181.259V3.238H182.309V4.33C182.855 3.616 183.639 3.098 184.563 3.098V4.176C184.437 4.148 184.311 4.134 184.143 4.134C183.499 4.134 182.617 4.666 182.309 5.212V10ZM191.83 10H190.486L188.05 6.962L186.93 8.068V10H185.88V0.661999H186.93V6.836L190.486 3.238H191.816L188.82 6.304L191.83 10ZM203.583 10H202.533L200.769 4.568L199.005 10H197.955L195.799 3.238H196.891L198.543 8.628L200.321 3.238H201.217L202.995 8.628L204.647 3.238H205.739L203.583 10ZM210.014 10.168C208.012 10.168 206.57 8.726 206.57 6.612C206.57 4.652 207.97 3.07 209.902 3.07C211.946 3.07 213.15 4.666 213.15 6.696V6.962H207.676C207.76 8.236 208.656 9.3 210.112 9.3C210.882 9.3 211.666 8.992 212.198 8.446L212.702 9.132C212.03 9.804 211.12 10.168 210.014 10.168ZM212.114 6.192C212.1 5.184 211.428 3.938 209.888 3.938C208.446 3.938 207.732 5.156 207.676 6.192H212.114ZM215.901 10H214.851V0.661999H215.901V10ZM219.045 10H217.995V0.661999H219.045V10ZM225.267 2.272C224.889 2.272 224.567 1.964 224.567 1.572C224.567 1.18 224.889 0.857999 225.267 0.857999C225.659 0.857999 225.981 1.18 225.981 1.572C225.981 1.964 225.659 2.272 225.267 2.272ZM225.799 10H224.749V3.238H225.799V10ZM229.238 10H228.188V4.162H227.068V3.238H228.188V2.72C228.188 1.334 228.944 0.521999 230.148 0.521999C230.68 0.521999 231.156 0.647999 231.576 1.04L231.142 1.726C230.918 1.53 230.652 1.39 230.302 1.39C229.616 1.39 229.238 1.866 229.238 2.72V3.238H230.61V4.162H229.238V10ZM235.09 12.646L235.258 11.694C235.412 11.764 235.664 11.806 235.832 11.806C236.294 11.806 236.602 11.652 236.84 11.092L237.288 10.07L234.46 3.238H235.594L237.848 8.782L240.088 3.238H241.236L237.848 11.372C237.442 12.352 236.756 12.73 235.86 12.744C235.636 12.744 235.286 12.702 235.09 12.646ZM245.285 10.168C243.227 10.168 241.939 8.572 241.939 6.612C241.939 4.652 243.227 3.07 245.285 3.07C247.343 3.07 248.631 4.652 248.631 6.612C248.631 8.572 247.343 10.168 245.285 10.168ZM245.285 9.23C246.727 9.23 247.525 7.998 247.525 6.612C247.525 5.24 246.727 4.008 245.285 4.008C243.843 4.008 243.031 5.24 243.031 6.612C243.031 7.998 243.843 9.23 245.285 9.23ZM255.957 10H254.907V9.048C254.389 9.636 253.507 10.168 252.499 10.168C251.085 10.168 250.343 9.482 250.343 8.012V3.238H251.393V7.69C251.393 8.88 251.995 9.23 252.905 9.23C253.731 9.23 254.515 8.754 254.907 8.208V3.238H255.957V10ZM267.291 10H266.241V5.548C266.241 4.358 265.625 4.008 264.715 4.008C263.903 4.008 263.119 4.512 262.713 5.058V10H261.663V0.661999H262.713V4.218C263.189 3.658 264.113 3.07 265.135 3.07C266.549 3.07 267.291 3.756 267.291 5.226V10ZM274.666 10H273.616V9.23C273.056 9.846 272.286 10.168 271.376 10.168C270.228 10.168 269.01 9.398 269.01 7.928C269.01 6.416 270.228 5.702 271.376 5.702C272.3 5.702 273.07 5.996 273.616 6.626V5.408C273.616 4.498 272.888 3.98 271.908 3.98C271.096 3.98 270.438 4.274 269.836 4.918L269.346 4.19C270.074 3.434 270.942 3.07 272.048 3.07C273.476 3.07 274.666 3.714 274.666 5.352V10ZM271.754 9.412C272.496 9.412 273.21 9.132 273.616 8.572V7.298C273.21 6.738 272.496 6.458 271.754 6.458C270.774 6.458 270.088 7.074 270.088 7.942C270.088 8.796 270.774 9.412 271.754 9.412ZM279.725 10H278.577L275.763 3.238H276.897L279.151 8.782L281.391 3.238H282.539L279.725 10ZM286.686 10.168C284.684 10.168 283.242 8.726 283.242 6.612C283.242 4.652 284.642 3.07 286.574 3.07C288.618 3.07 289.822 4.666 289.822 6.696V6.962H284.348C284.432 8.236 285.328 9.3 286.784 9.3C287.554 9.3 288.338 8.992 288.87 8.446L289.374 9.132C288.702 9.804 287.792 10.168 286.686 10.168ZM288.786 6.192C288.772 5.184 288.1 3.938 286.56 3.938C285.118 3.938 284.404 5.156 284.348 6.192H288.786ZM4.004 27.168C1.946 27.168 0.658 25.572 0.658 23.612C0.658 21.652 1.946 20.07 4.004 20.07C6.062 20.07 7.35 21.652 7.35 23.612C7.35 25.572 6.062 27.168 4.004 27.168ZM4.004 26.23C5.446 26.23 6.244 24.998 6.244 23.612C6.244 22.24 5.446 21.008 4.004 21.008C2.562 21.008 1.75 22.24 1.75 23.612C1.75 24.998 2.562 26.23 4.004 26.23ZM10.1117 25.166C10.4757 25.754 11.3017 26.23 12.1277 26.23C13.4997 26.23 14.3117 25.124 14.3117 23.626C14.3117 22.128 13.4997 21.008 12.1277 21.008C11.3017 21.008 10.4757 21.512 10.1117 22.1V25.166ZM10.1117 27H9.06172V17.662H10.1117V21.26C10.6577 20.518 11.4697 20.07 12.3937 20.07C14.1577 20.07 15.4037 21.47 15.4037 23.626C15.4037 25.824 14.1577 27.168 12.3937 27.168C11.4417 27.168 10.6157 26.678 10.1117 25.992V27ZM17.6325 19.272C17.2545 19.272 16.9325 18.964 16.9325 18.572C16.9325 18.18 17.2545 17.858 17.6325 17.858C18.0245 17.858 18.3465 18.18 18.3465 18.572C18.3465 18.964 18.0245 19.272 17.6325 19.272ZM16.1625 29.744C15.4765 29.744 15.1125 29.576 14.6785 29.24L15.0565 28.442C15.2945 28.68 15.6025 28.876 16.0225 28.876C16.6525 28.876 17.1145 28.512 17.1145 27.658V20.238H18.1645V27.658C18.1645 28.988 17.4505 29.744 16.1625 29.744ZM23.311 27.168C21.309 27.168 19.867 25.726 19.867 23.612C19.867 21.652 21.267 20.07 23.199 20.07C25.243 20.07 26.447 21.666 26.447 23.696V23.962H20.973C21.057 25.236 21.953 26.3 23.409 26.3C24.179 26.3 24.963 25.992 25.495 25.446L25.999 26.132C25.327 26.804 24.417 27.168 23.311 27.168ZM25.411 23.192C25.397 22.184 24.725 20.938 23.185 20.938C21.743 20.938 21.029 22.156 20.973 23.192H25.411ZM31.1297 27.168C29.1137 27.168 27.7557 25.628 27.7557 23.612C27.7557 21.61 29.1137 20.07 31.1297 20.07C32.3617 20.07 33.0897 20.574 33.6077 21.246L32.9077 21.89C32.4597 21.274 31.8857 21.008 31.1857 21.008C29.7437 21.008 28.8477 22.114 28.8477 23.612C28.8477 25.11 29.7437 26.23 31.1857 26.23C31.8857 26.23 32.4597 25.95 32.9077 25.348L33.6077 25.992C33.0897 26.664 32.3617 27.168 31.1297 27.168ZM36.7873 27.168C35.7933 27.168 35.2893 26.594 35.2893 25.586V21.162H34.1693V20.238H35.2893V18.39H36.3393V20.238H37.7113V21.162H36.3393V25.362C36.3393 25.866 36.5633 26.23 37.0253 26.23C37.3193 26.23 37.5993 26.104 37.7393 25.95L38.0473 26.734C37.7813 26.986 37.4033 27.168 36.7873 27.168ZM41.3365 27.168C40.2305 27.168 39.2925 26.832 38.6065 26.104L39.1525 25.348C39.6005 25.866 40.4545 26.314 41.3785 26.314C42.4145 26.314 42.9745 25.824 42.9745 25.152C42.9745 23.514 38.7885 24.522 38.7885 22.016C38.7885 20.966 39.6985 20.07 41.3085 20.07C42.4565 20.07 43.2685 20.504 43.8145 21.05L43.3245 21.778C42.9185 21.288 42.1765 20.924 41.3085 20.924C40.3845 20.924 39.8105 21.386 39.8105 21.988C39.8105 23.472 43.9965 22.492 43.9965 25.124C43.9965 26.258 43.0865 27.168 41.3365 27.168ZM52.2937 27.168C50.2777 27.168 48.9197 25.628 48.9197 23.612C48.9197 21.61 50.2777 20.07 52.2937 20.07C53.5257 20.07 54.2537 20.574 54.7717 21.246L54.0717 21.89C53.6237 21.274 53.0497 21.008 52.3497 21.008C50.9077 21.008 50.0117 22.114 50.0117 23.612C50.0117 25.11 50.9077 26.23 52.3497 26.23C53.0497 26.23 53.6237 25.95 54.0717 25.348L54.7717 25.992C54.2537 26.664 53.5257 27.168 52.2937 27.168ZM59.1974 27.168C57.1394 27.168 55.8514 25.572 55.8514 23.612C55.8514 21.652 57.1394 20.07 59.1974 20.07C61.2554 20.07 62.5434 21.652 62.5434 23.612C62.5434 25.572 61.2554 27.168 59.1974 27.168ZM59.1974 26.23C60.6394 26.23 61.4374 24.998 61.4374 23.612C61.4374 22.24 60.6394 21.008 59.1974 21.008C57.7554 21.008 56.9434 22.24 56.9434 23.612C56.9434 24.998 57.7554 26.23 59.1974 26.23ZM67.2091 27H66.0611L63.2471 20.238H64.3811L66.6351 25.782L68.8751 20.238H70.0231L67.2091 27ZM74.1704 27.168C72.1684 27.168 70.7264 25.726 70.7264 23.612C70.7264 21.652 72.1264 20.07 74.0584 20.07C76.1024 20.07 77.3064 21.666 77.3064 23.696V23.962H71.8324C71.9164 25.236 72.8124 26.3 74.2684 26.3C75.0384 26.3 75.8224 25.992 76.3544 25.446L76.8584 26.132C76.1864 26.804 75.2764 27.168 74.1704 27.168ZM76.2704 23.192C76.2564 22.184 75.5844 20.938 74.0444 20.938C72.6024 20.938 71.8884 22.156 71.8324 23.192H76.2704ZM80.057 27H79.007V20.238H80.057V21.33C80.603 20.616 81.387 20.098 82.311 20.098V21.176C82.185 21.148 82.059 21.134 81.891 21.134C81.247 21.134 80.365 21.666 80.057 22.212V27ZM84.1461 19.272C83.7681 19.272 83.4461 18.964 83.4461 18.572C83.4461 18.18 83.7681 17.858 84.1461 17.858C84.5381 17.858 84.8601 18.18 84.8601 18.572C84.8601 18.964 84.5381 19.272 84.1461 19.272ZM84.6781 27H83.6281V20.238H84.6781V27ZM92.3867 27H91.3367V22.576C91.3367 21.386 90.7347 21.008 89.8247 21.008C88.9987 21.008 88.2147 21.512 87.8227 22.058V27H86.7727V20.238H87.8227V21.218C88.2987 20.658 89.2227 20.07 90.2307 20.07C91.6447 20.07 92.3867 20.784 92.3867 22.254V27ZM97.1996 29.744C96.0516 29.744 95.2676 29.52 94.4696 28.736L95.0016 27.952C95.5616 28.624 96.2336 28.876 97.1996 28.876C98.3196 28.876 99.3696 28.33 99.3696 26.846V25.88C98.8796 26.566 98.0536 27.084 97.1016 27.084C95.3376 27.084 94.0916 25.768 94.0916 23.584C94.0916 21.414 95.3236 20.07 97.1016 20.07C98.0116 20.07 98.8236 20.518 99.3696 21.26V20.238H100.42V26.804C100.42 29.044 98.8516 29.744 97.1996 29.744ZM97.3536 26.16C98.1936 26.16 99.0056 25.642 99.3696 25.054V22.1C99.0056 21.512 98.1936 21.008 97.3536 21.008C95.9956 21.008 95.1836 22.086 95.1836 23.584C95.1836 25.068 95.9956 26.16 97.3536 26.16ZM115.344 27H114.294V22.408C114.294 21.554 113.916 21.008 113.048 21.008C112.348 21.008 111.606 21.512 111.256 22.044V27H110.206V22.408C110.206 21.554 109.842 21.008 108.96 21.008C108.274 21.008 107.546 21.512 107.182 22.058V27H106.132V20.238H107.182V21.218C107.462 20.784 108.372 20.07 109.366 20.07C110.402 20.07 110.99 20.63 111.186 21.33C111.564 20.714 112.474 20.07 113.454 20.07C114.686 20.07 115.344 20.756 115.344 22.114V27ZM120.393 27.168C118.335 27.168 117.047 25.572 117.047 23.612C117.047 21.652 118.335 20.07 120.393 20.07C122.451 20.07 123.739 21.652 123.739 23.612C123.739 25.572 122.451 27.168 120.393 27.168ZM120.393 26.23C121.835 26.23 122.633 24.998 122.633 23.612C122.633 22.24 121.835 21.008 120.393 21.008C118.951 21.008 118.139 22.24 118.139 23.612C118.139 24.998 118.951 26.23 120.393 26.23ZM127.592 27.168C126.486 27.168 125.548 26.832 124.862 26.104L125.408 25.348C125.856 25.866 126.71 26.314 127.634 26.314C128.67 26.314 129.23 25.824 129.23 25.152C129.23 23.514 125.044 24.522 125.044 22.016C125.044 20.966 125.954 20.07 127.564 20.07C128.712 20.07 129.524 20.504 130.07 21.05L129.58 21.778C129.174 21.288 128.432 20.924 127.564 20.924C126.64 20.924 126.066 21.386 126.066 21.988C126.066 23.472 130.252 22.492 130.252 25.124C130.252 26.258 129.342 27.168 127.592 27.168ZM133.666 27.168C132.672 27.168 132.168 26.594 132.168 25.586V21.162H131.048V20.238H132.168V18.39H133.218V20.238H134.59V21.162H133.218V25.362C133.218 25.866 133.442 26.23 133.904 26.23C134.198 26.23 134.478 26.104 134.618 25.95L134.926 26.734C134.66 26.986 134.282 27.168 133.666 27.168ZM142.637 27.168C140.579 27.168 139.291 25.572 139.291 23.612C139.291 21.652 140.579 20.07 142.637 20.07C144.695 20.07 145.983 21.652 145.983 23.612C145.983 25.572 144.695 27.168 142.637 27.168ZM142.637 26.23C144.079 26.23 144.877 24.998 144.877 23.612C144.877 22.24 144.079 21.008 142.637 21.008C141.195 21.008 140.383 22.24 140.383 23.612C140.383 24.998 141.195 26.23 142.637 26.23ZM149.039 27H147.989V21.162H146.869V20.238H147.989V19.72C147.989 18.334 148.745 17.522 149.949 17.522C150.481 17.522 150.957 17.648 151.377 18.04L150.943 18.726C150.719 18.53 150.453 18.39 150.103 18.39C149.417 18.39 149.039 18.866 149.039 19.72V20.238H150.411V21.162H149.039V27ZM154.891 29.646L155.059 28.694C155.213 28.764 155.465 28.806 155.633 28.806C156.095 28.806 156.403 28.652 156.641 28.092L157.089 27.07L154.261 20.238H155.395L157.649 25.782L159.889 20.238H161.037L157.649 28.372C157.243 29.352 156.557 29.73 155.661 29.744C155.437 29.744 155.087 29.702 154.891 29.646ZM165.086 27.168C163.028 27.168 161.74 25.572 161.74 23.612C161.74 21.652 163.028 20.07 165.086 20.07C167.144 20.07 168.432 21.652 168.432 23.612C168.432 25.572 167.144 27.168 165.086 27.168ZM165.086 26.23C166.528 26.23 167.326 24.998 167.326 23.612C167.326 22.24 166.528 21.008 165.086 21.008C163.644 21.008 162.832 22.24 162.832 23.612C162.832 24.998 163.644 26.23 165.086 26.23ZM175.758 27H174.708V26.048C174.19 26.636 173.308 27.168 172.3 27.168C170.886 27.168 170.144 26.482 170.144 25.012V20.238H171.194V24.69C171.194 25.88 171.796 26.23 172.706 26.23C173.532 26.23 174.316 25.754 174.708 25.208V20.238H175.758V27ZM178.905 27H177.855V20.238H178.905V21.33C179.451 20.616 180.235 20.098 181.159 20.098V21.176C181.033 21.148 180.907 21.134 180.739 21.134C180.095 21.134 179.213 21.666 178.905 22.212V27ZM187.429 27H186.379V21.162H185.259V20.238H186.379V19.72C186.379 18.334 187.135 17.522 188.339 17.522C188.871 17.522 189.347 17.648 189.767 18.04L189.333 18.726C189.109 18.53 188.843 18.39 188.493 18.39C187.807 18.39 187.429 18.866 187.429 19.72V20.238H188.801V21.162H187.429V27ZM195.328 27H194.278V26.23C193.718 26.846 192.948 27.168 192.038 27.168C190.89 27.168 189.672 26.398 189.672 24.928C189.672 23.416 190.89 22.702 192.038 22.702C192.962 22.702 193.732 22.996 194.278 23.626V22.408C194.278 21.498 193.55 20.98 192.57 20.98C191.758 20.98 191.1 21.274 190.498 21.918L190.008 21.19C190.736 20.434 191.604 20.07 192.71 20.07C194.138 20.07 195.328 20.714 195.328 22.352V27ZM192.416 26.412C193.158 26.412 193.872 26.132 194.278 25.572V24.298C193.872 23.738 193.158 23.458 192.416 23.458C191.436 23.458 190.75 24.074 190.75 24.942C190.75 25.796 191.436 26.412 192.416 26.412ZM200.415 27.168C198.399 27.168 197.041 25.628 197.041 23.612C197.041 21.61 198.399 20.07 200.415 20.07C201.647 20.07 202.375 20.574 202.893 21.246L202.193 21.89C201.745 21.274 201.171 21.008 200.471 21.008C199.029 21.008 198.133 22.114 198.133 23.612C198.133 25.11 199.029 26.23 200.471 26.23C201.171 26.23 201.745 25.95 202.193 25.348L202.893 25.992C202.375 26.664 201.647 27.168 200.415 27.168ZM207.416 27.168C205.414 27.168 203.972 25.726 203.972 23.612C203.972 21.652 205.372 20.07 207.304 20.07C209.348 20.07 210.552 21.666 210.552 23.696V23.962H205.078C205.162 25.236 206.058 26.3 207.514 26.3C208.284 26.3 209.068 25.992 209.6 25.446L210.104 26.132C209.432 26.804 208.522 27.168 207.416 27.168ZM209.516 23.192C209.502 22.184 208.83 20.938 207.29 20.938C205.848 20.938 205.134 22.156 205.078 23.192H209.516ZM213.571 26.664C213.571 27.518 213.067 28.316 212.423 28.778L211.905 28.344C212.353 28.05 212.759 27.504 212.815 27.042C212.787 27.056 212.689 27.07 212.619 27.07C212.227 27.07 211.947 26.776 211.947 26.356C211.947 25.95 212.269 25.6 212.689 25.6C213.151 25.6 213.571 25.992 213.571 26.664ZM221.135 27.168C220.029 27.168 219.091 26.832 218.405 26.104L218.951 25.348C219.399 25.866 220.253 26.314 221.177 26.314C222.213 26.314 222.773 25.824 222.773 25.152C222.773 23.514 218.587 24.522 218.587 22.016C218.587 20.966 219.497 20.07 221.107 20.07C222.255 20.07 223.067 20.504 223.613 21.05L223.123 21.778C222.717 21.288 221.975 20.924 221.107 20.924C220.183 20.924 219.609 21.386 219.609 21.988C219.609 23.472 223.795 22.492 223.795 25.124C223.795 26.258 222.885 27.168 221.135 27.168ZM231.115 27H230.065V26.048C229.547 26.636 228.665 27.168 227.657 27.168C226.243 27.168 225.501 26.482 225.501 25.012V20.238H226.551V24.69C226.551 25.88 227.153 26.23 228.063 26.23C228.889 26.23 229.673 25.754 230.065 25.208V20.238H231.115V27ZM236.194 27.168C234.178 27.168 232.82 25.628 232.82 23.612C232.82 21.61 234.178 20.07 236.194 20.07C237.426 20.07 238.154 20.574 238.672 21.246L237.972 21.89C237.524 21.274 236.95 21.008 236.25 21.008C234.808 21.008 233.912 22.114 233.912 23.612C233.912 25.11 234.808 26.23 236.25 26.23C236.95 26.23 237.524 25.95 237.972 25.348L238.672 25.992C238.154 26.664 237.426 27.168 236.194 27.168ZM245.772 27H244.722V22.548C244.722 21.358 244.106 21.008 243.196 21.008C242.384 21.008 241.6 21.512 241.194 22.058V27H240.144V17.662H241.194V21.218C241.67 20.658 242.594 20.07 243.616 20.07C245.03 20.07 245.772 20.756 245.772 22.226V27ZM256.756 27H255.706V26.23C255.146 26.846 254.376 27.168 253.466 27.168C252.318 27.168 251.1 26.398 251.1 24.928C251.1 23.416 252.318 22.702 253.466 22.702C254.39 22.702 255.16 22.996 255.706 23.626V22.408C255.706 21.498 254.978 20.98 253.998 20.98C253.186 20.98 252.528 21.274 251.926 21.918L251.436 21.19C252.164 20.434 253.032 20.07 254.138 20.07C255.566 20.07 256.756 20.714 256.756 22.352V27ZM253.844 26.412C254.586 26.412 255.3 26.132 255.706 25.572V24.298C255.3 23.738 254.586 23.458 253.844 23.458C252.864 23.458 252.178 24.074 252.178 24.942C252.178 25.796 252.864 26.412 253.844 26.412ZM261.003 27.168C259.897 27.168 258.959 26.832 258.273 26.104L258.819 25.348C259.267 25.866 260.121 26.314 261.045 26.314C262.081 26.314 262.641 25.824 262.641 25.152C262.641 23.514 258.455 24.522 258.455 22.016C258.455 20.966 259.365 20.07 260.975 20.07C262.123 20.07 262.935 20.504 263.481 21.05L262.991 21.778C262.585 21.288 261.843 20.924 260.975 20.924C260.051 20.924 259.477 21.386 259.477 21.988C259.477 23.472 263.663 22.492 263.663 25.124C263.663 26.258 262.753 27.168 261.003 27.168ZM271.694 29.744C270.546 29.744 269.762 29.52 268.964 28.736L269.496 27.952C270.056 28.624 270.728 28.876 271.694 28.876C272.814 28.876 273.864 28.33 273.864 26.846V25.88C273.374 26.566 272.548 27.084 271.596 27.084C269.832 27.084 268.586 25.768 268.586 23.584C268.586 21.414 269.818 20.07 271.596 20.07C272.506 20.07 273.318 20.518 273.864 21.26V20.238H274.914V26.804C274.914 29.044 273.346 29.744 271.694 29.744ZM271.848 26.16C272.688 26.16 273.5 25.642 273.864 25.054V22.1C273.5 21.512 272.688 21.008 271.848 21.008C270.49 21.008 269.678 22.086 269.678 23.584C269.678 25.068 270.49 26.16 271.848 26.16ZM278.067 27H277.017V17.662H278.067V27ZM285.439 27H284.389V26.23C283.829 26.846 283.059 27.168 282.149 27.168C281.001 27.168 279.783 26.398 279.783 24.928C279.783 23.416 281.001 22.702 282.149 22.702C283.073 22.702 283.843 22.996 284.389 23.626V22.408C284.389 21.498 283.661 20.98 282.681 20.98C281.869 20.98 281.211 21.274 280.609 21.918L280.119 21.19C280.847 20.434 281.715 20.07 282.821 20.07C284.249 20.07 285.439 20.714 285.439 22.352V27ZM282.527 26.412C283.269 26.412 283.983 26.132 284.389 25.572V24.298C283.983 23.738 283.269 23.458 282.527 23.458C281.547 23.458 280.861 24.074 280.861 24.942C280.861 25.796 281.547 26.412 282.527 26.412ZM289.686 27.168C288.58 27.168 287.642 26.832 286.956 26.104L287.502 25.348C287.95 25.866 288.804 26.314 289.728 26.314C290.764 26.314 291.324 25.824 291.324 25.152C291.324 23.514 287.138 24.522 287.138 22.016C287.138 20.966 288.048 20.07 289.658 20.07C290.806 20.07 291.618 20.504 292.164 21.05L291.674 21.778C291.268 21.288 290.526 20.924 289.658 20.924C288.734 20.924 288.16 21.386 288.16 21.988C288.16 23.472 292.346 22.492 292.346 25.124C292.346 26.258 291.436 27.168 289.686 27.168ZM296.194 27.168C295.088 27.168 294.15 26.832 293.464 26.104L294.01 25.348C294.458 25.866 295.312 26.314 296.236 26.314C297.272 26.314 297.832 25.824 297.832 25.152C297.832 23.514 293.646 24.522 293.646 22.016C293.646 20.966 294.556 20.07 296.166 20.07C297.314 20.07 298.126 20.504 298.672 21.05L298.182 21.778C297.776 21.288 297.034 20.924 296.166 20.924C295.242 20.924 294.668 21.386 294.668 21.988C294.668 23.472 298.854 22.492 298.854 25.124C298.854 26.258 297.944 27.168 296.194 27.168ZM303.612 27.168C301.61 27.168 300.168 25.726 300.168 23.612C300.168 21.652 301.568 20.07 303.5 20.07C305.544 20.07 306.748 21.666 306.748 23.696V23.962H301.274C301.358 25.236 302.254 26.3 303.71 26.3C304.48 26.3 305.264 25.992 305.796 25.446L306.3 26.132C305.628 26.804 304.718 27.168 303.612 27.168ZM305.712 23.192C305.698 22.184 305.026 20.938 303.486 20.938C302.044 20.938 301.33 22.156 301.274 23.192H305.712ZM310.59 27.168C309.484 27.168 308.546 26.832 307.86 26.104L308.406 25.348C308.854 25.866 309.708 26.314 310.632 26.314C311.668 26.314 312.228 25.824 312.228 25.152C312.228 23.514 308.042 24.522 308.042 22.016C308.042 20.966 308.952 20.07 310.562 20.07C311.71 20.07 312.522 20.504 313.068 21.05L312.578 21.778C312.172 21.288 311.43 20.924 310.562 20.924C309.638 20.924 309.064 21.386 309.064 21.988C309.064 23.472 313.25 22.492 313.25 25.124C313.25 26.258 312.34 27.168 310.59 27.168ZM4.004 44.168C1.946 44.168 0.658 42.572 0.658 40.612C0.658 38.652 1.946 37.07 4.004 37.07C6.062 37.07 7.35 38.652 7.35 40.612C7.35 42.572 6.062 44.168 4.004 44.168ZM4.004 43.23C5.446 43.23 6.244 41.998 6.244 40.612C6.244 39.24 5.446 38.008 4.004 38.008C2.562 38.008 1.75 39.24 1.75 40.612C1.75 41.998 2.562 43.23 4.004 43.23ZM10.1117 44H9.06172V37.238H10.1117V38.33C10.6577 37.616 11.4417 37.098 12.3657 37.098V38.176C12.2397 38.148 12.1137 38.134 11.9457 38.134C11.3017 38.134 10.4197 38.666 10.1117 39.212V44ZM22.5702 44H21.5202V43.23C20.9602 43.846 20.1902 44.168 19.2802 44.168C18.1322 44.168 16.9142 43.398 16.9142 41.928C16.9142 40.416 18.1322 39.702 19.2802 39.702C20.2042 39.702 20.9742 39.996 21.5202 40.626V39.408C21.5202 38.498 20.7922 37.98 19.8122 37.98C19.0002 37.98 18.3422 38.274 17.7402 38.918L17.2502 38.19C17.9782 37.434 18.8462 37.07 19.9522 37.07C21.3802 37.07 22.5702 37.714 22.5702 39.352V44ZM19.6582 43.412C20.4002 43.412 21.1142 43.132 21.5202 42.572V41.298C21.1142 40.738 20.4002 40.458 19.6582 40.458C18.6782 40.458 17.9922 41.074 17.9922 41.942C17.9922 42.796 18.6782 43.412 19.6582 43.412ZM33.9124 44H32.8624V39.548C32.8624 38.358 32.2464 38.008 31.3364 38.008C30.5244 38.008 29.7404 38.512 29.3344 39.058V44H28.2844V34.662H29.3344V38.218C29.8104 37.658 30.7344 37.07 31.7564 37.07C33.1704 37.07 33.9124 37.756 33.9124 39.226V44ZM41.287 44H40.237V43.23C39.677 43.846 38.907 44.168 37.997 44.168C36.849 44.168 35.631 43.398 35.631 41.928C35.631 40.416 36.849 39.702 37.997 39.702C38.921 39.702 39.691 39.996 40.237 40.626V39.408C40.237 38.498 39.509 37.98 38.529 37.98C37.717 37.98 37.059 38.274 36.457 38.918L35.967 38.19C36.695 37.434 37.563 37.07 38.669 37.07C40.097 37.07 41.287 37.714 41.287 39.352V44ZM38.375 43.412C39.117 43.412 39.831 43.132 40.237 42.572V41.298C39.831 40.738 39.117 40.458 38.375 40.458C37.395 40.458 36.709 41.074 36.709 41.942C36.709 42.796 37.395 43.412 38.375 43.412ZM45.0998 44.168C44.1058 44.168 43.6018 43.594 43.6018 42.586V38.162H42.4818V37.238H43.6018V35.39H44.6518V37.238H46.0238V38.162H44.6518V42.362C44.6518 42.866 44.8758 43.23 45.3378 43.23C45.6318 43.23 45.9118 43.104 46.0518 42.95L46.3598 43.734C46.0938 43.986 45.7158 44.168 45.0998 44.168ZM48.067 44.14C47.647 44.14 47.297 43.79 47.297 43.37C47.297 42.95 47.647 42.6 48.067 42.6C48.487 42.6 48.837 42.95 48.837 43.37C48.837 43.79 48.487 44.14 48.067 44.14ZM55.547 44H54.385V34.662H60.503V35.698H55.547V38.708H60.405V39.744H55.547V44ZM64.9942 44.168C62.9362 44.168 61.6482 42.572 61.6482 40.612C61.6482 38.652 62.9362 37.07 64.9942 37.07C67.0522 37.07 68.3402 38.652 68.3402 40.612C68.3402 42.572 67.0522 44.168 64.9942 44.168ZM64.9942 43.23C66.4362 43.23 67.2342 41.998 67.2342 40.612C67.2342 39.24 66.4362 38.008 64.9942 38.008C63.5522 38.008 62.7402 39.24 62.7402 40.612C62.7402 41.998 63.5522 43.23 64.9942 43.23ZM71.102 44H70.052V37.238H71.102V38.33C71.648 37.616 72.432 37.098 73.356 37.098V38.176C73.23 38.148 73.104 38.134 72.936 38.134C72.292 38.134 71.41 38.666 71.102 39.212V44ZM79.3324 42.166C79.6964 42.754 80.5224 43.23 81.3484 43.23C82.7204 43.23 83.5324 42.124 83.5324 40.626C83.5324 39.128 82.7204 38.008 81.3484 38.008C80.5224 38.008 79.6964 38.512 79.3324 39.1V42.166ZM79.3324 44H78.2824V34.662H79.3324V38.26C79.8784 37.518 80.6904 37.07 81.6144 37.07C83.3784 37.07 84.6244 38.47 84.6244 40.626C84.6244 42.824 83.3784 44.168 81.6144 44.168C80.6624 44.168 79.8364 43.678 79.3324 42.992V44ZM89.3872 44.168C87.3852 44.168 85.9432 42.726 85.9432 40.612C85.9432 38.652 87.3432 37.07 89.2752 37.07C91.3192 37.07 92.5232 38.666 92.5232 40.696V40.962H87.0492C87.1332 42.236 88.0292 43.3 89.4852 43.3C90.2552 43.3 91.0392 42.992 91.5712 42.446L92.0752 43.132C91.4032 43.804 90.4932 44.168 89.3872 44.168ZM91.4872 40.192C91.4732 39.184 90.8012 37.938 89.2612 37.938C87.8192 37.938 87.1052 39.156 87.0492 40.192H91.4872ZM95.9318 44.168C94.9378 44.168 94.4338 43.594 94.4338 42.586V38.162H93.3138V37.238H94.4338V35.39H95.4838V37.238H96.8558V38.162H95.4838V42.362C95.4838 42.866 95.7078 43.23 96.1698 43.23C96.4638 43.23 96.7438 43.104 96.8838 42.95L97.1918 43.734C96.9258 43.986 96.5478 44.168 95.9318 44.168ZM100.047 44.168C99.0531 44.168 98.5491 43.594 98.5491 42.586V38.162H97.4291V37.238H98.5491V35.39H99.5991V37.238H100.971V38.162H99.5991V42.362C99.5991 42.866 99.8231 43.23 100.285 43.23C100.579 43.23 100.859 43.104 100.999 42.95L101.307 43.734C101.041 43.986 100.663 44.168 100.047 44.168ZM105.506 44.168C103.504 44.168 102.062 42.726 102.062 40.612C102.062 38.652 103.462 37.07 105.394 37.07C107.438 37.07 108.642 38.666 108.642 40.696V40.962H103.168C103.252 42.236 104.148 43.3 105.604 43.3C106.374 43.3 107.158 42.992 107.69 42.446L108.194 43.132C107.522 43.804 106.612 44.168 105.506 44.168ZM107.606 40.192C107.592 39.184 106.92 37.938 105.38 37.938C103.938 37.938 103.224 39.156 103.168 40.192H107.606ZM111.393 44H110.343V37.238H111.393V38.33C111.939 37.616 112.723 37.098 113.647 37.098V38.176C113.521 38.148 113.395 38.134 113.227 38.134C112.583 38.134 111.701 38.666 111.393 39.212V44ZM119.623 44H118.573V37.238H119.623V38.33C120.169 37.616 120.953 37.098 121.877 37.098V38.176C121.751 38.148 121.625 38.134 121.457 38.134C120.813 38.134 119.931 38.666 119.623 39.212V44ZM126.247 44.168C124.245 44.168 122.803 42.726 122.803 40.612C122.803 38.652 124.203 37.07 126.135 37.07C128.179 37.07 129.383 38.666 129.383 40.696V40.962H123.909C123.993 42.236 124.889 43.3 126.345 43.3C127.115 43.3 127.899 42.992 128.431 42.446L128.935 43.132C128.263 43.804 127.353 44.168 126.247 44.168ZM128.347 40.192C128.333 39.184 127.661 37.938 126.121 37.938C124.679 37.938 123.965 39.156 123.909 40.192H128.347ZM133.225 44.168C132.119 44.168 131.181 43.832 130.495 43.104L131.041 42.348C131.489 42.866 132.343 43.314 133.267 43.314C134.303 43.314 134.863 42.824 134.863 42.152C134.863 40.514 130.677 41.522 130.677 39.016C130.677 37.966 131.587 37.07 133.197 37.07C134.345 37.07 135.157 37.504 135.703 38.05L135.213 38.778C134.807 38.288 134.065 37.924 133.197 37.924C132.273 37.924 131.699 38.386 131.699 38.988C131.699 40.472 135.885 39.492 135.885 42.124C135.885 43.258 134.975 44.168 133.225 44.168ZM143.205 44H142.155V43.048C141.637 43.636 140.755 44.168 139.747 44.168C138.333 44.168 137.591 43.482 137.591 42.012V37.238H138.641V41.69C138.641 42.88 139.243 43.23 140.153 43.23C140.979 43.23 141.763 42.754 142.155 42.208V37.238H143.205V44ZM146.352 44H145.302V34.662H146.352V44ZM150.154 44.168C149.16 44.168 148.656 43.594 148.656 42.586V38.162H147.536V37.238H148.656V35.39H149.706V37.238H151.078V38.162H149.706V42.362C149.706 42.866 149.93 43.23 150.392 43.23C150.686 43.23 150.966 43.104 151.106 42.95L151.414 43.734C151.148 43.986 150.77 44.168 150.154 44.168ZM154.704 44.168C153.598 44.168 152.66 43.832 151.974 43.104L152.52 42.348C152.968 42.866 153.822 43.314 154.746 43.314C155.782 43.314 156.342 42.824 156.342 42.152C156.342 40.514 152.156 41.522 152.156 39.016C152.156 37.966 153.066 37.07 154.676 37.07C155.824 37.07 156.636 37.504 157.182 38.05L156.692 38.778C156.286 38.288 155.544 37.924 154.676 37.924C153.752 37.924 153.178 38.386 153.178 38.988C153.178 40.472 157.364 39.492 157.364 42.124C157.364 43.258 156.454 44.168 154.704 44.168ZM160.484 43.664C160.484 44.518 159.98 45.316 159.336 45.778L158.818 45.344C159.266 45.05 159.672 44.504 159.728 44.042C159.7 44.056 159.602 44.07 159.532 44.07C159.14 44.07 158.86 43.776 158.86 43.356C158.86 42.95 159.182 42.6 159.602 42.6C160.064 42.6 160.484 42.992 160.484 43.664ZM168.887 44.168C166.871 44.168 165.513 42.628 165.513 40.612C165.513 38.61 166.871 37.07 168.887 37.07C170.119 37.07 170.847 37.574 171.365 38.246L170.665 38.89C170.217 38.274 169.643 38.008 168.943 38.008C167.501 38.008 166.605 39.114 166.605 40.612C166.605 42.11 167.501 43.23 168.943 43.23C169.643 43.23 170.217 42.95 170.665 42.348L171.365 42.992C170.847 43.664 170.119 44.168 168.887 44.168ZM173.887 44H172.837V34.662H173.887V44ZM179.034 44.168C177.032 44.168 175.59 42.726 175.59 40.612C175.59 38.652 176.99 37.07 178.922 37.07C180.966 37.07 182.17 38.666 182.17 40.696V40.962H176.696C176.78 42.236 177.676 43.3 179.132 43.3C179.902 43.3 180.686 42.992 181.218 42.446L181.722 43.132C181.05 43.804 180.14 44.168 179.034 44.168ZM181.134 40.192C181.12 39.184 180.448 37.938 178.908 37.938C177.466 37.938 176.752 39.156 176.696 40.192H181.134ZM189.148 44H188.098V43.23C187.538 43.846 186.768 44.168 185.858 44.168C184.71 44.168 183.492 43.398 183.492 41.928C183.492 40.416 184.71 39.702 185.858 39.702C186.782 39.702 187.552 39.996 188.098 40.626V39.408C188.098 38.498 187.37 37.98 186.39 37.98C185.578 37.98 184.92 38.274 184.318 38.918L183.828 38.19C184.556 37.434 185.424 37.07 186.53 37.07C187.958 37.07 189.148 37.714 189.148 39.352V44ZM186.236 43.412C186.978 43.412 187.692 43.132 188.098 42.572V41.298C187.692 40.738 186.978 40.458 186.236 40.458C185.256 40.458 184.57 41.074 184.57 41.942C184.57 42.796 185.256 43.412 186.236 43.412ZM196.867 44H195.817V39.576C195.817 38.386 195.215 38.008 194.305 38.008C193.479 38.008 192.695 38.512 192.303 39.058V44H191.253V37.238H192.303V38.218C192.779 37.658 193.703 37.07 194.711 37.07C196.125 37.07 196.867 37.784 196.867 39.254V44ZM207.851 44H206.801V43.23C206.241 43.846 205.471 44.168 204.561 44.168C203.413 44.168 202.195 43.398 202.195 41.928C202.195 40.416 203.413 39.702 204.561 39.702C205.485 39.702 206.255 39.996 206.801 40.626V39.408C206.801 38.498 206.073 37.98 205.093 37.98C204.281 37.98 203.623 38.274 203.021 38.918L202.531 38.19C203.259 37.434 204.127 37.07 205.233 37.07C206.661 37.07 207.851 37.714 207.851 39.352V44ZM204.939 43.412C205.681 43.412 206.395 43.132 206.801 42.572V41.298C206.395 40.738 205.681 40.458 204.939 40.458C203.959 40.458 203.273 41.074 203.273 41.942C203.273 42.796 203.959 43.412 204.939 43.412ZM215.57 44H214.52V39.576C214.52 38.386 213.918 38.008 213.008 38.008C212.182 38.008 211.398 38.512 211.006 39.058V44H209.956V37.238H211.006V38.218C211.482 37.658 212.406 37.07 213.414 37.07C214.828 37.07 215.57 37.784 215.57 39.254V44ZM217.289 46.646L217.457 45.694C217.611 45.764 217.863 45.806 218.031 45.806C218.493 45.806 218.801 45.652 219.039 45.092L219.487 44.07L216.659 37.238H217.793L220.047 42.782L222.287 37.238H223.435L220.047 45.372C219.641 46.352 218.955 46.73 218.059 46.744C217.835 46.744 217.485 46.702 217.289 46.646ZM237.352 44H236.302V39.408C236.302 38.554 235.924 38.008 235.056 38.008C234.356 38.008 233.614 38.512 233.264 39.044V44H232.214V39.408C232.214 38.554 231.85 38.008 230.968 38.008C230.282 38.008 229.554 38.512 229.19 39.058V44H228.14V37.238H229.19V38.218C229.47 37.784 230.38 37.07 231.374 37.07C232.41 37.07 232.998 37.63 233.194 38.33C233.572 37.714 234.482 37.07 235.462 37.07C236.694 37.07 237.352 37.756 237.352 39.114V44ZM244.724 44H243.674V43.23C243.114 43.846 242.344 44.168 241.434 44.168C240.286 44.168 239.068 43.398 239.068 41.928C239.068 40.416 240.286 39.702 241.434 39.702C242.358 39.702 243.128 39.996 243.674 40.626V39.408C243.674 38.498 242.946 37.98 241.966 37.98C241.154 37.98 240.496 38.274 239.894 38.918L239.404 38.19C240.132 37.434 241 37.07 242.106 37.07C243.534 37.07 244.724 37.714 244.724 39.352V44ZM241.812 43.412C242.554 43.412 243.268 43.132 243.674 42.572V41.298C243.268 40.738 242.554 40.458 241.812 40.458C240.832 40.458 240.146 41.074 240.146 41.942C240.146 42.796 240.832 43.412 241.812 43.412ZM252.779 44H251.435L248.999 40.962L247.879 42.068V44H246.829V34.662H247.879V40.836L251.435 37.238H252.765L249.769 40.304L252.779 44ZM257.032 44.168C255.03 44.168 253.588 42.726 253.588 40.612C253.588 38.652 254.988 37.07 256.92 37.07C258.964 37.07 260.168 38.666 260.168 40.696V40.962H254.694C254.778 42.236 255.674 43.3 257.13 43.3C257.9 43.3 258.684 42.992 259.216 42.446L259.72 43.132C259.048 43.804 258.138 44.168 257.032 44.168ZM259.132 40.192C259.118 39.184 258.446 37.938 256.906 37.938C255.464 37.938 254.75 39.156 254.694 40.192H259.132ZM267.482 44H266.432V43.048C265.914 43.636 265.032 44.168 264.024 44.168C262.61 44.168 261.868 43.482 261.868 42.012V37.238H262.918V41.69C262.918 42.88 263.52 43.23 264.43 43.23C265.256 43.23 266.04 42.754 266.432 42.208V37.238H267.482V44ZM272.911 44.168C271.987 44.168 271.175 43.734 270.629 42.978V46.576H269.579V37.238H270.629V38.246C271.119 37.56 271.959 37.07 272.911 37.07C274.689 37.07 275.921 38.414 275.921 40.612C275.921 42.796 274.689 44.168 272.911 44.168ZM272.645 43.23C274.003 43.23 274.815 42.11 274.815 40.612C274.815 39.114 274.003 38.008 272.645 38.008C271.819 38.008 270.993 38.498 270.629 39.086V42.138C270.993 42.726 271.819 43.23 272.645 43.23ZM4.382 61.168C3.458 61.168 2.646 60.734 2.1 59.978V63.576H1.05V54.238H2.1V55.246C2.59 54.56 3.43 54.07 4.382 54.07C6.16 54.07 7.392 55.414 7.392 57.612C7.392 59.796 6.16 61.168 4.382 61.168ZM4.116 60.23C5.474 60.23 6.286 59.11 6.286 57.612C6.286 56.114 5.474 55.008 4.116 55.008C3.29 55.008 2.464 55.498 2.1 56.086V59.138C2.464 59.726 3.29 60.23 4.116 60.23ZM10.1117 61H9.06172V54.238H10.1117V55.33C10.6577 54.616 11.4417 54.098 12.3657 54.098V55.176C12.2397 55.148 12.1137 55.134 11.9457 55.134C11.3017 55.134 10.4197 55.666 10.1117 56.212V61ZM16.6368 61.168C14.5788 61.168 13.2908 59.572 13.2908 57.612C13.2908 55.652 14.5788 54.07 16.6368 54.07C18.6948 54.07 19.9828 55.652 19.9828 57.612C19.9828 59.572 18.6948 61.168 16.6368 61.168ZM16.6368 60.23C18.0788 60.23 18.8768 58.998 18.8768 57.612C18.8768 56.24 18.0788 55.008 16.6368 55.008C15.1948 55.008 14.3828 56.24 14.3828 57.612C14.3828 58.998 15.1948 60.23 16.6368 60.23ZM27.6445 61H26.5945V59.992C26.0905 60.678 25.2645 61.168 24.3125 61.168C22.5485 61.168 21.3025 59.824 21.3025 57.626C21.3025 55.47 22.5345 54.07 24.3125 54.07C25.2225 54.07 26.0485 54.518 26.5945 55.26V51.662H27.6445V61ZM24.5645 60.23C25.4045 60.23 26.2165 59.754 26.5945 59.166V56.1C26.2165 55.512 25.4045 55.008 24.5645 55.008C23.2065 55.008 22.3945 56.128 22.3945 57.626C22.3945 59.124 23.2065 60.23 24.5645 60.23ZM35.3613 61H34.3113V60.048C33.7933 60.636 32.9113 61.168 31.9033 61.168C30.4893 61.168 29.7473 60.482 29.7473 59.012V54.238H30.7973V58.69C30.7973 59.88 31.3993 60.23 32.3093 60.23C33.1353 60.23 33.9193 59.754 34.3113 59.208V54.238H35.3613V61ZM40.4402 61.168C38.4242 61.168 37.0662 59.628 37.0662 57.612C37.0662 55.61 38.4242 54.07 40.4402 54.07C41.6722 54.07 42.4002 54.574 42.9182 55.246L42.2182 55.89C41.7702 55.274 41.1962 55.008 40.4962 55.008C39.0542 55.008 38.1582 56.114 38.1582 57.612C38.1582 59.11 39.0542 60.23 40.4962 60.23C41.1962 60.23 41.7702 59.95 42.2182 59.348L42.9182 59.992C42.4002 60.664 41.6722 61.168 40.4402 61.168ZM46.0978 61.168C45.1038 61.168 44.5998 60.594 44.5998 59.586V55.162H43.4798V54.238H44.5998V52.39H45.6498V54.238H47.0218V55.162H45.6498V59.362C45.6498 59.866 45.8738 60.23 46.3358 60.23C46.6298 60.23 46.9098 60.104 47.0498 59.95L47.3578 60.734C47.0918 60.986 46.7138 61.168 46.0978 61.168ZM50.6471 61.168C49.5411 61.168 48.6031 60.832 47.9171 60.104L48.4631 59.348C48.9111 59.866 49.7651 60.314 50.6891 60.314C51.7251 60.314 52.2851 59.824 52.2851 59.152C52.2851 57.514 48.0991 58.522 48.0991 56.016C48.0991 54.966 49.0091 54.07 50.6191 54.07C51.7671 54.07 52.5791 54.504 53.1251 55.05L52.6351 55.778C52.2291 55.288 51.4871 54.924 50.6191 54.924C49.6951 54.924 49.1211 55.386 49.1211 55.988C49.1211 57.472 53.3071 56.492 53.3071 59.124C53.3071 60.258 52.3971 61.168 50.6471 61.168ZM59.9663 61H58.9163V55.162H57.7963V54.238H58.9163V53.72C58.9163 52.334 59.6723 51.522 60.8763 51.522C61.4083 51.522 61.8843 51.648 62.3043 52.04L61.8703 52.726C61.6463 52.53 61.3803 52.39 61.0303 52.39C60.3443 52.39 59.9663 52.866 59.9663 53.72V54.238H61.3383V55.162H59.9663V61ZM63.6371 61H62.5871V54.238H63.6371V55.33C64.1831 54.616 64.9671 54.098 65.8911 54.098V55.176C65.7651 55.148 65.6391 55.134 65.4711 55.134C64.8271 55.134 63.9451 55.666 63.6371 56.212V61ZM70.1622 61.168C68.1042 61.168 66.8162 59.572 66.8162 57.612C66.8162 55.652 68.1042 54.07 70.1622 54.07C72.2202 54.07 73.5082 55.652 73.5082 57.612C73.5082 59.572 72.2202 61.168 70.1622 61.168ZM70.1622 60.23C71.6042 60.23 72.4022 58.998 72.4022 57.612C72.4022 56.24 71.6042 55.008 70.1622 55.008C68.7202 55.008 67.9082 56.24 67.9082 57.612C67.9082 58.998 68.7202 60.23 70.1622 60.23ZM84.4319 61H83.3819V56.408C83.3819 55.554 83.0039 55.008 82.1359 55.008C81.4359 55.008 80.6939 55.512 80.3439 56.044V61H79.2939V56.408C79.2939 55.554 78.9299 55.008 78.0479 55.008C77.3619 55.008 76.6339 55.512 76.2699 56.058V61H75.2199V54.238H76.2699V55.218C76.5499 54.784 77.4599 54.07 78.4539 54.07C79.4899 54.07 80.0779 54.63 80.2739 55.33C80.6519 54.714 81.5619 54.07 82.5419 54.07C83.7739 54.07 84.4319 54.756 84.4319 56.114V61ZM89.7579 63.646L89.9259 62.694C90.0799 62.764 90.3319 62.806 90.4999 62.806C90.9619 62.806 91.2699 62.652 91.5079 62.092L91.9559 61.07L89.1279 54.238H90.2619L92.5159 59.782L94.7559 54.238H95.9039L92.5159 62.372C92.1099 63.352 91.4239 63.73 90.5279 63.744C90.3039 63.744 89.9539 63.702 89.7579 63.646ZM99.9532 61.168C97.8952 61.168 96.6072 59.572 96.6072 57.612C96.6072 55.652 97.8952 54.07 99.9532 54.07C102.011 54.07 103.299 55.652 103.299 57.612C103.299 59.572 102.011 61.168 99.9532 61.168ZM99.9532 60.23C101.395 60.23 102.193 58.998 102.193 57.612C102.193 56.24 101.395 55.008 99.9532 55.008C98.5112 55.008 97.6992 56.24 97.6992 57.612C97.6992 58.998 98.5112 60.23 99.9532 60.23ZM110.625 61H109.575V60.048C109.057 60.636 108.175 61.168 107.167 61.168C105.753 61.168 105.011 60.482 105.011 59.012V54.238H106.061V58.69C106.061 59.88 106.663 60.23 107.573 60.23C108.399 60.23 109.183 59.754 109.575 59.208V54.238H110.625V61ZM113.772 61H112.722V54.238H113.772V55.33C114.318 54.616 115.102 54.098 116.026 54.098V55.176C115.9 55.148 115.774 55.134 115.606 55.134C114.962 55.134 114.08 55.666 113.772 56.212V61ZM122.296 61H121.246V55.162H120.126V54.238H121.246V53.72C121.246 52.334 122.002 51.522 123.206 51.522C123.738 51.522 124.214 51.648 124.634 52.04L124.2 52.726C123.976 52.53 123.71 52.39 123.36 52.39C122.674 52.39 122.296 52.866 122.296 53.72V54.238H123.668V55.162H122.296V61ZM130.195 61H129.145V60.23C128.585 60.846 127.815 61.168 126.905 61.168C125.757 61.168 124.539 60.398 124.539 58.928C124.539 57.416 125.757 56.702 126.905 56.702C127.829 56.702 128.599 56.996 129.145 57.626V56.408C129.145 55.498 128.417 54.98 127.437 54.98C126.625 54.98 125.967 55.274 125.365 55.918L124.875 55.19C125.603 54.434 126.471 54.07 127.577 54.07C129.005 54.07 130.195 54.714 130.195 56.352V61ZM127.283 60.412C128.025 60.412 128.739 60.132 129.145 59.572V58.298C128.739 57.738 128.025 57.458 127.283 57.458C126.303 57.458 125.617 58.074 125.617 58.942C125.617 59.796 126.303 60.412 127.283 60.412ZM135.282 61.168C133.266 61.168 131.908 59.628 131.908 57.612C131.908 55.61 133.266 54.07 135.282 54.07C136.514 54.07 137.242 54.574 137.76 55.246L137.06 55.89C136.612 55.274 136.038 55.008 135.338 55.008C133.896 55.008 133 56.114 133 57.612C133 59.11 133.896 60.23 135.338 60.23C136.038 60.23 136.612 59.95 137.06 59.348L137.76 59.992C137.242 60.664 136.514 61.168 135.282 61.168ZM142.284 61.168C140.282 61.168 138.84 59.726 138.84 57.612C138.84 55.652 140.24 54.07 142.172 54.07C144.216 54.07 145.42 55.666 145.42 57.696V57.962H139.946C140.03 59.236 140.926 60.3 142.382 60.3C143.152 60.3 143.936 59.992 144.468 59.446L144.972 60.132C144.3 60.804 143.39 61.168 142.284 61.168ZM144.384 57.192C144.37 56.184 143.698 54.938 142.158 54.938C140.716 54.938 140.002 56.156 139.946 57.192H144.384ZM151.78 59.166C152.144 59.754 152.97 60.23 153.796 60.23C155.168 60.23 155.98 59.124 155.98 57.626C155.98 56.128 155.168 55.008 153.796 55.008C152.97 55.008 152.144 55.512 151.78 56.1V59.166ZM151.78 61H150.73V51.662H151.78V55.26C152.326 54.518 153.138 54.07 154.062 54.07C155.826 54.07 157.072 55.47 157.072 57.626C157.072 59.824 155.826 61.168 154.062 61.168C153.11 61.168 152.284 60.678 151.78 59.992V61ZM161.834 61.168C159.832 61.168 158.39 59.726 158.39 57.612C158.39 55.652 159.79 54.07 161.722 54.07C163.766 54.07 164.97 55.666 164.97 57.696V57.962H159.496C159.58 59.236 160.476 60.3 161.932 60.3C162.702 60.3 163.486 59.992 164.018 59.446L164.522 60.132C163.85 60.804 162.94 61.168 161.834 61.168ZM163.934 57.192C163.92 56.184 163.248 54.938 161.708 54.938C160.266 54.938 159.552 56.156 159.496 57.192H163.934ZM168.015 61H166.965V55.162H165.845V54.238H166.965V53.72C166.965 52.334 167.721 51.522 168.925 51.522C169.457 51.522 169.933 51.648 170.353 52.04L169.919 52.726C169.695 52.53 169.429 52.39 169.079 52.39C168.393 52.39 168.015 52.866 168.015 53.72V54.238H169.387V55.162H168.015V61ZM173.59 61.168C171.532 61.168 170.244 59.572 170.244 57.612C170.244 55.652 171.532 54.07 173.59 54.07C175.648 54.07 176.936 55.652 176.936 57.612C176.936 59.572 175.648 61.168 173.59 61.168ZM173.59 60.23C175.032 60.23 175.83 58.998 175.83 57.612C175.83 56.24 175.032 55.008 173.59 55.008C172.148 55.008 171.336 56.24 171.336 57.612C171.336 58.998 172.148 60.23 173.59 60.23ZM179.698 61H178.648V54.238H179.698V55.33C180.244 54.616 181.028 54.098 181.952 54.098V55.176C181.826 55.148 181.7 55.134 181.532 55.134C180.888 55.134 180.006 55.666 179.698 56.212V61ZM186.321 61.168C184.319 61.168 182.877 59.726 182.877 57.612C182.877 55.652 184.277 54.07 186.209 54.07C188.253 54.07 189.457 55.666 189.457 57.696V57.962H183.983C184.067 59.236 184.963 60.3 186.419 60.3C187.189 60.3 187.973 59.992 188.505 59.446L189.009 60.132C188.337 60.804 187.427 61.168 186.321 61.168ZM188.421 57.192C188.407 56.184 187.735 54.938 186.195 54.938C184.753 54.938 184.039 56.156 183.983 57.192H188.421ZM196.475 61.168C195.481 61.168 194.977 60.594 194.977 59.586V55.162H193.857V54.238H194.977V52.39H196.027V54.238H197.399V55.162H196.027V59.362C196.027 59.866 196.251 60.23 196.713 60.23C197.007 60.23 197.287 60.104 197.427 59.95L197.735 60.734C197.469 60.986 197.091 61.168 196.475 61.168ZM204.51 61H203.46V56.548C203.46 55.358 202.844 55.008 201.934 55.008C201.122 55.008 200.338 55.512 199.932 56.058V61H198.882V51.662H199.932V55.218C200.408 54.658 201.332 54.07 202.354 54.07C203.768 54.07 204.51 54.756 204.51 56.226V61ZM209.659 61.168C207.657 61.168 206.215 59.726 206.215 57.612C206.215 55.652 207.615 54.07 209.547 54.07C211.591 54.07 212.795 55.666 212.795 57.696V57.962H207.321C207.405 59.236 208.301 60.3 209.757 60.3C210.527 60.3 211.311 59.992 211.843 59.446L212.347 60.132C211.675 60.804 210.765 61.168 209.659 61.168ZM211.759 57.192C211.745 56.184 211.073 54.938 209.533 54.938C208.091 54.938 207.377 56.156 207.321 57.192H211.759ZM227.317 61H226.267V56.408C226.267 55.554 225.889 55.008 225.021 55.008C224.321 55.008 223.579 55.512 223.229 56.044V61H222.179V56.408C222.179 55.554 221.815 55.008 220.933 55.008C220.247 55.008 219.519 55.512 219.155 56.058V61H218.105V54.238H219.155V55.218C219.435 54.784 220.345 54.07 221.339 54.07C222.375 54.07 222.963 54.63 223.159 55.33C223.537 54.714 224.447 54.07 225.427 54.07C226.659 54.07 227.317 54.756 227.317 56.114V61ZM232.463 61.168C230.461 61.168 229.019 59.726 229.019 57.612C229.019 55.652 230.419 54.07 232.351 54.07C234.395 54.07 235.599 55.666 235.599 57.696V57.962H230.125C230.209 59.236 231.105 60.3 232.561 60.3C233.331 60.3 234.115 59.992 234.647 59.446L235.151 60.132C234.479 60.804 233.569 61.168 232.463 61.168ZM234.563 57.192C234.549 56.184 233.877 54.938 232.337 54.938C230.895 54.938 230.181 56.156 230.125 57.192H234.563ZM242.578 61H241.528V60.23C240.968 60.846 240.198 61.168 239.288 61.168C238.14 61.168 236.922 60.398 236.922 58.928C236.922 57.416 238.14 56.702 239.288 56.702C240.212 56.702 240.982 56.996 241.528 57.626V56.408C241.528 55.498 240.8 54.98 239.82 54.98C239.008 54.98 238.35 55.274 237.748 55.918L237.258 55.19C237.986 54.434 238.854 54.07 239.96 54.07C241.388 54.07 242.578 54.714 242.578 56.352V61ZM239.666 60.412C240.408 60.412 241.122 60.132 241.528 59.572V58.298C241.122 57.738 240.408 57.458 239.666 57.458C238.686 57.458 238 58.074 238 58.942C238 59.796 238.686 60.412 239.666 60.412ZM246.825 61.168C245.719 61.168 244.781 60.832 244.095 60.104L244.641 59.348C245.089 59.866 245.943 60.314 246.867 60.314C247.903 60.314 248.463 59.824 248.463 59.152C248.463 57.514 244.277 58.522 244.277 56.016C244.277 54.966 245.187 54.07 246.797 54.07C247.945 54.07 248.757 54.504 249.303 55.05L248.813 55.778C248.407 55.288 247.665 54.924 246.797 54.924C245.873 54.924 245.299 55.386 245.299 55.988C245.299 57.472 249.485 56.492 249.485 59.124C249.485 60.258 248.575 61.168 246.825 61.168ZM256.805 61H255.755V60.048C255.237 60.636 254.355 61.168 253.347 61.168C251.933 61.168 251.191 60.482 251.191 59.012V54.238H252.241V58.69C252.241 59.88 252.843 60.23 253.753 60.23C254.579 60.23 255.363 59.754 255.755 59.208V54.238H256.805V61ZM259.952 61H258.902V54.238H259.952V55.33C260.498 54.616 261.282 54.098 262.206 54.098V55.176C262.08 55.148 261.954 55.134 261.786 55.134C261.142 55.134 260.26 55.666 259.952 56.212V61ZM266.575 61.168C264.573 61.168 263.131 59.726 263.131 57.612C263.131 55.652 264.531 54.07 266.463 54.07C268.507 54.07 269.711 55.666 269.711 57.696V57.962H264.237C264.321 59.236 265.217 60.3 266.673 60.3C267.443 60.3 268.227 59.992 268.759 59.446L269.263 60.132C268.591 60.804 267.681 61.168 266.575 61.168ZM268.675 57.192C268.661 56.184 267.989 54.938 266.449 54.938C265.007 54.938 264.293 56.156 264.237 57.192H268.675ZM280.623 61H279.573V56.408C279.573 55.554 279.195 55.008 278.327 55.008C277.627 55.008 276.885 55.512 276.535 56.044V61H275.485V56.408C275.485 55.554 275.121 55.008 274.239 55.008C273.553 55.008 272.825 55.512 272.461 56.058V61H271.411V54.238H272.461V55.218C272.741 54.784 273.651 54.07 274.645 54.07C275.681 54.07 276.269 54.63 276.465 55.33C276.843 54.714 277.753 54.07 278.733 54.07C279.965 54.07 280.623 54.756 280.623 56.114V61ZM285.77 61.168C283.768 61.168 282.326 59.726 282.326 57.612C282.326 55.652 283.726 54.07 285.658 54.07C287.702 54.07 288.906 55.666 288.906 57.696V57.962H283.432C283.516 59.236 284.412 60.3 285.868 60.3C286.638 60.3 287.422 59.992 287.954 59.446L288.458 60.132C287.786 60.804 286.876 61.168 285.77 61.168ZM287.87 57.192C287.856 56.184 287.184 54.938 285.644 54.938C284.202 54.938 283.488 56.156 283.432 57.192H287.87ZM296.221 61H295.171V56.576C295.171 55.386 294.569 55.008 293.659 55.008C292.833 55.008 292.049 55.512 291.657 56.058V61H290.607V54.238H291.657V55.218C292.133 54.658 293.057 54.07 294.065 54.07C295.479 54.07 296.221 54.784 296.221 56.254V61ZM300.026 61.168C299.032 61.168 298.528 60.594 298.528 59.586V55.162H297.408V54.238H298.528V52.39H299.578V54.238H300.95V55.162H299.578V59.362C299.578 59.866 299.802 60.23 300.264 60.23C300.558 60.23 300.838 60.104 300.978 59.95L301.286 60.734C301.02 60.986 300.642 61.168 300.026 61.168ZM302.993 61.14C302.573 61.14 302.223 60.79 302.223 60.37C302.223 59.95 302.573 59.6 302.993 59.6C303.413 59.6 303.763 59.95 303.763 60.37C303.763 60.79 303.413 61.14 302.993 61.14Z" fill="#212121"/>
</svg>
