<svg width="289" height="111" viewBox="0 0 289 111" fill="none" xmlns="http://www.w3.org/2000/svg">
<path d="M3.02321 6.612C3.02321 7.424 2.33721 8.11 1.51121 8.11C0.685211 8.11 -0.000789002 7.424 -0.000789002 6.612C-0.000789002 5.786 0.685211 5.1 1.51121 5.1C2.33721 5.1 3.02321 5.786 3.02321 6.612ZM16.97 10H15.808V6.052L12.126 0.661999H13.484L16.382 5.002L19.28 0.661999H20.638L16.97 6.052V10ZM22.9903 10.168C20.9323 10.168 19.6443 8.572 19.6443 6.612C19.6443 4.652 20.9323 3.07 22.9903 3.07C25.0483 3.07 26.3363 4.652 26.3363 6.612C26.3363 8.572 25.0483 10.168 22.9903 10.168ZM22.9903 9.23C24.4323 9.23 25.2303 7.998 25.2303 6.612C25.2303 5.24 24.4323 4.008 22.9903 4.008C21.5483 4.008 20.7503 5.24 20.7503 6.612C20.7503 7.998 21.5483 9.23 22.9903 9.23ZM33.662 10H32.612V9.048C32.094 9.636 31.212 10.168 30.204 10.168C28.79 10.168 28.048 9.468 28.048 8.012V3.238H29.098V7.69C29.098 8.88 29.7 9.23 30.624 9.23C31.436 9.23 32.22 8.754 32.612 8.208V3.238H33.662V10ZM48.594 10H47.544V5.408C47.544 4.554 47.18 4.008 46.298 4.008C45.598 4.008 44.856 4.498 44.506 5.044V10H43.456V5.408C43.456 4.554 43.106 4.008 42.21 4.008C41.524 4.008 40.796 4.512 40.432 5.058V10H39.382V3.238H40.432V4.218C40.726 3.784 41.622 3.07 42.63 3.07C43.652 3.07 44.24 3.63 44.436 4.33C44.814 3.714 45.724 3.07 46.704 3.07C47.936 3.07 48.594 3.756 48.594 5.114V10ZM56.3027 10H55.2527V9.048C54.7347 9.636 53.8527 10.168 52.8447 10.168C51.4307 10.168 50.6887 9.468 50.6887 8.012V3.238H51.7387V7.69C51.7387 8.88 52.3407 9.23 53.2647 9.23C54.0767 9.23 54.8607 8.754 55.2527 8.208V3.238H56.3027V10ZM60.5556 10.168C59.4356 10.168 58.5116 9.818 57.8256 9.104L58.3576 8.348C58.8056 8.866 59.6596 9.314 60.5836 9.314C61.6196 9.314 62.1936 8.824 62.1936 8.152C62.1936 6.514 58.0076 7.522 58.0076 5.016C58.0076 3.952 58.9036 3.07 60.5136 3.07C61.6756 3.07 62.4876 3.504 63.0196 4.05L62.5296 4.778C62.1236 4.288 61.3956 3.924 60.5136 3.924C59.5896 3.924 59.0156 4.386 59.0156 4.988C59.0156 6.458 63.2016 5.492 63.2016 8.124C63.2016 9.258 62.2916 10.168 60.5556 10.168ZM66.6294 10.168C65.6214 10.168 65.1174 9.594 65.1174 8.586V4.162H63.9974V3.238H65.1174V1.39H66.1814V3.238H67.5534V4.162H66.1814V8.362C66.1814 8.866 66.4054 9.23 66.8534 9.23C67.1614 9.23 67.4274 9.09 67.5674 8.936L67.8754 9.734C67.6094 9.986 67.2314 10.168 66.6294 10.168ZM73.6957 8.166C74.0597 8.754 74.8857 9.23 75.7257 9.23C77.0837 9.23 77.8957 8.124 77.8957 6.626C77.8957 5.128 77.0837 4.008 75.7257 4.008C74.8857 4.008 74.0597 4.512 73.6957 5.1V8.166ZM73.6957 10H72.6457V0.661999H73.6957V4.26C74.2417 3.518 75.0677 3.07 75.9777 3.07C77.7557 3.07 78.9877 4.456 78.9877 6.626C78.9877 8.824 77.7417 10.168 75.9777 10.168C75.0257 10.168 74.1997 9.678 73.6957 8.992V10ZM83.7644 10.168C81.7484 10.168 80.3064 8.726 80.3064 6.612C80.3064 4.652 81.7064 3.07 83.6384 3.07C85.6824 3.07 86.8864 4.666 86.8864 6.696V6.962H81.4264C81.5104 8.236 82.3924 9.3 83.8484 9.3C84.6324 9.3 85.4024 8.992 85.9484 8.432L86.4524 9.118C85.7664 9.79 84.8564 10.168 83.7644 10.168ZM85.8504 6.178C85.8364 5.184 85.1644 3.938 83.6244 3.938C82.1824 3.938 81.4684 5.156 81.4124 6.178H85.8504ZM95.1642 10.168C93.1062 10.168 91.8182 8.572 91.8182 6.612C91.8182 4.652 93.1062 3.07 95.1642 3.07C97.2222 3.07 98.5102 4.652 98.5102 6.612C98.5102 8.572 97.2222 10.168 95.1642 10.168ZM95.1642 9.23C96.6062 9.23 97.4042 7.998 97.4042 6.612C97.4042 5.24 96.6062 4.008 95.1642 4.008C93.7222 4.008 92.9242 5.24 92.9242 6.612C92.9242 7.998 93.7222 9.23 95.1642 9.23ZM103.176 10H102.028L99.2139 3.238H100.362L102.602 8.782L104.856 3.238H105.99L103.176 10ZM110.151 10.168C108.135 10.168 106.693 8.726 106.693 6.612C106.693 4.652 108.093 3.07 110.025 3.07C112.069 3.07 113.273 4.666 113.273 6.696V6.962H107.813C107.897 8.236 108.779 9.3 110.235 9.3C111.019 9.3 111.789 8.992 112.335 8.432L112.839 9.118C112.153 9.79 111.243 10.168 110.151 10.168ZM112.237 6.178C112.223 5.184 111.551 3.938 110.011 3.938C108.569 3.938 107.855 5.156 107.799 6.178H112.237ZM116.024 10H114.974V3.238H116.024V4.316C116.57 3.616 117.354 3.084 118.278 3.084V4.162C118.152 4.148 118.026 4.134 117.872 4.134C117.214 4.134 116.332 4.666 116.024 5.212V10ZM125.822 10H124.66V2.188L123.162 3.784L122.462 3.07L124.8 0.661999H125.822V10ZM130.986 10.168C129.138 10.168 127.64 9.23 127.64 7.634C127.64 6.388 128.704 5.534 129.866 5.184C128.788 4.876 127.794 4.162 127.794 2.944C127.794 1.264 129.432 0.521999 130.986 0.521999C132.526 0.521999 134.192 1.264 134.192 2.944C134.192 4.162 133.184 4.876 132.106 5.184C133.268 5.534 134.332 6.388 134.332 7.634C134.332 9.216 132.82 10.168 130.986 10.168ZM130.986 4.708C131.56 4.61 133.016 4.232 133.016 3.098C133.016 2.132 132.106 1.558 130.986 1.558C129.852 1.558 128.97 2.132 128.97 3.098C128.97 4.232 130.426 4.61 130.986 4.708ZM130.986 9.132C132.134 9.132 133.156 8.516 133.156 7.508C133.156 6.29 131.56 5.772 130.986 5.702C130.412 5.772 128.816 6.29 128.816 7.508C128.816 8.516 129.824 9.132 130.986 9.132ZM139.37 12.646L139.524 11.694C139.678 11.764 139.93 11.806 140.098 11.806C140.56 11.806 140.868 11.652 141.106 11.092L141.554 10.07L138.726 3.238H139.874L142.114 8.782L144.368 3.238H145.502L142.114 11.372C141.708 12.352 141.022 12.73 140.126 12.744C139.902 12.744 139.552 12.702 139.37 12.646ZM149.663 10.168C147.647 10.168 146.205 8.726 146.205 6.612C146.205 4.652 147.605 3.07 149.537 3.07C151.581 3.07 152.785 4.666 152.785 6.696V6.962H147.325C147.409 8.236 148.291 9.3 149.747 9.3C150.531 9.3 151.301 8.992 151.847 8.432L152.351 9.118C151.665 9.79 150.755 10.168 149.663 10.168ZM151.749 6.178C151.735 5.184 151.063 3.938 149.523 3.938C148.081 3.938 147.367 5.156 147.311 6.178H151.749ZM159.764 10H158.714V9.23C158.168 9.846 157.384 10.168 156.474 10.168C155.34 10.168 154.122 9.398 154.122 7.928C154.122 6.402 155.326 5.702 156.474 5.702C157.398 5.702 158.168 5.996 158.714 6.612V5.394C158.714 4.498 157.986 3.98 157.006 3.98C156.194 3.98 155.536 4.26 154.934 4.918L154.444 4.19C155.172 3.434 156.04 3.07 157.146 3.07C158.588 3.07 159.764 3.714 159.764 5.352V10ZM156.866 9.412C157.594 9.412 158.308 9.132 158.714 8.572V7.284C158.308 6.738 157.594 6.458 156.866 6.458C155.872 6.458 155.186 7.074 155.186 7.928C155.186 8.796 155.872 9.412 156.866 9.412ZM162.932 10H161.882V3.238H162.932V4.316C163.478 3.616 164.262 3.084 165.186 3.084V4.162C165.06 4.148 164.934 4.134 164.78 4.134C164.122 4.134 163.24 4.666 162.932 5.212V10ZM168.659 10.168C167.539 10.168 166.615 9.818 165.929 9.104L166.461 8.348C166.909 8.866 167.763 9.314 168.687 9.314C169.723 9.314 170.297 8.824 170.297 8.152C170.297 6.514 166.111 7.522 166.111 5.016C166.111 3.952 167.007 3.07 168.617 3.07C169.779 3.07 170.591 3.504 171.123 4.05L170.633 4.778C170.227 4.288 169.499 3.924 168.617 3.924C167.693 3.924 167.119 4.386 167.119 4.988C167.119 6.458 171.305 5.492 171.305 8.124C171.305 9.258 170.395 10.168 168.659 10.168ZM179.588 10.168C177.53 10.168 176.242 8.572 176.242 6.612C176.242 4.652 177.53 3.07 179.588 3.07C181.646 3.07 182.934 4.652 182.934 6.612C182.934 8.572 181.646 10.168 179.588 10.168ZM179.588 9.23C181.03 9.23 181.828 7.998 181.828 6.612C181.828 5.24 181.03 4.008 179.588 4.008C178.146 4.008 177.348 5.24 177.348 6.612C177.348 7.998 178.146 9.23 179.588 9.23ZM185.696 10H184.646V0.661999H185.696V10ZM193.74 10H192.69V8.992C192.186 9.678 191.36 10.168 190.408 10.168C188.644 10.168 187.398 8.824 187.398 6.626C187.398 4.456 188.644 3.07 190.408 3.07C191.318 3.07 192.144 3.518 192.69 4.26V0.661999H193.74V10ZM190.674 9.23C191.5 9.23 192.326 8.74 192.69 8.152V5.1C192.326 4.512 191.5 4.008 190.674 4.008C189.302 4.008 188.49 5.128 188.49 6.626C188.49 8.124 189.302 9.23 190.674 9.23ZM204.744 10H203.694V9.23C203.148 9.846 202.364 10.168 201.454 10.168C200.32 10.168 199.102 9.398 199.102 7.928C199.102 6.402 200.306 5.702 201.454 5.702C202.378 5.702 203.148 5.996 203.694 6.612V5.394C203.694 4.498 202.966 3.98 201.986 3.98C201.174 3.98 200.516 4.26 199.914 4.918L199.424 4.19C200.152 3.434 201.02 3.07 202.126 3.07C203.568 3.07 204.744 3.714 204.744 5.352V10ZM201.846 9.412C202.574 9.412 203.288 9.132 203.694 8.572V7.284C203.288 6.738 202.574 6.458 201.846 6.458C200.852 6.458 200.166 7.074 200.166 7.928C200.166 8.796 200.852 9.412 201.846 9.412ZM212.477 10H211.441V5.576C211.441 4.372 210.825 4.008 209.915 4.008C209.089 4.008 208.319 4.512 207.913 5.058V10H206.863V3.238H207.913V4.218C208.389 3.644 209.312 3.07 210.335 3.07C211.735 3.07 212.477 3.784 212.477 5.254V10ZM220.537 10H219.487V8.992C218.983 9.678 218.157 10.168 217.205 10.168C215.441 10.168 214.195 8.824 214.195 6.626C214.195 4.456 215.441 3.07 217.205 3.07C218.115 3.07 218.941 3.518 219.487 4.26V0.661999H220.537V10ZM217.471 9.23C218.297 9.23 219.123 8.74 219.487 8.152V5.1C219.123 4.512 218.297 4.008 217.471 4.008C216.099 4.008 215.287 5.128 215.287 6.626C215.287 8.124 216.099 9.23 217.471 9.23ZM227.313 10H226.263V3.238H227.313V4.316C227.859 3.616 228.643 3.084 229.567 3.084V4.162C229.441 4.148 229.315 4.134 229.161 4.134C228.503 4.134 227.621 4.666 227.313 5.212V10ZM233.95 10.168C231.934 10.168 230.492 8.726 230.492 6.612C230.492 4.652 231.892 3.07 233.824 3.07C235.868 3.07 237.072 4.666 237.072 6.696V6.962H231.612C231.696 8.236 232.578 9.3 234.034 9.3C234.818 9.3 235.588 8.992 236.134 8.432L236.638 9.118C235.952 9.79 235.042 10.168 233.95 10.168ZM236.036 6.178C236.022 5.184 235.35 3.938 233.81 3.938C232.368 3.938 231.654 5.156 231.598 6.178H236.036ZM247.985 10H246.935V5.408C246.935 4.554 246.571 4.008 245.689 4.008C244.989 4.008 244.247 4.498 243.897 5.044V10H242.847V5.408C242.847 4.554 242.497 4.008 241.601 4.008C240.915 4.008 240.187 4.512 239.823 5.058V10H238.773V3.238H239.823V4.218C240.117 3.784 241.013 3.07 242.021 3.07C243.043 3.07 243.631 3.63 243.827 4.33C244.205 3.714 245.115 3.07 246.095 3.07C247.327 3.07 247.985 3.756 247.985 5.114V10ZM253.145 10.168C251.129 10.168 249.687 8.726 249.687 6.612C249.687 4.652 251.087 3.07 253.019 3.07C255.063 3.07 256.267 4.666 256.267 6.696V6.962H250.807C250.891 8.236 251.773 9.3 253.229 9.3C254.013 9.3 254.783 8.992 255.329 8.432L255.833 9.118C255.147 9.79 254.237 10.168 253.145 10.168ZM255.231 6.178C255.217 5.184 254.545 3.938 253.005 3.938C251.563 3.938 250.849 5.156 250.793 6.178H255.231ZM267.18 10H266.13V5.408C266.13 4.554 265.766 4.008 264.884 4.008C264.184 4.008 263.442 4.498 263.092 5.044V10H262.042V5.408C262.042 4.554 261.692 4.008 260.796 4.008C260.11 4.008 259.382 4.512 259.018 5.058V10H257.968V3.238H259.018V4.218C259.312 3.784 260.208 3.07 261.216 3.07C262.238 3.07 262.826 3.63 263.022 4.33C263.4 3.714 264.31 3.07 265.29 3.07C266.522 3.07 267.18 3.756 267.18 5.114V10ZM270.325 8.166C270.689 8.754 271.515 9.23 272.355 9.23C273.713 9.23 274.525 8.124 274.525 6.626C274.525 5.128 273.713 4.008 272.355 4.008C271.515 4.008 270.689 4.512 270.325 5.1V8.166ZM270.325 10H269.275V0.661999H270.325V4.26C270.871 3.518 271.697 3.07 272.607 3.07C274.385 3.07 275.617 4.456 275.617 6.626C275.617 8.824 274.371 10.168 272.607 10.168C271.655 10.168 270.829 9.678 270.325 8.992V10ZM280.393 10.168C278.377 10.168 276.935 8.726 276.935 6.612C276.935 4.652 278.335 3.07 280.267 3.07C282.311 3.07 283.515 4.666 283.515 6.696V6.962H278.055C278.139 8.236 279.021 9.3 280.477 9.3C281.261 9.3 282.031 8.992 282.577 8.432L283.081 9.118C282.395 9.79 281.485 10.168 280.393 10.168ZM282.479 6.178C282.465 5.184 281.793 3.938 280.253 3.938C278.811 3.938 278.097 5.156 278.041 6.178H282.479ZM286.266 10H285.216V3.238H286.266V4.316C286.812 3.616 287.596 3.084 288.52 3.084V4.162C288.394 4.148 288.268 4.134 288.114 4.134C287.456 4.134 286.574 4.666 286.266 5.212V10ZM14.772 24.168C13.764 24.168 13.26 23.594 13.26 22.586V18.162H12.14V17.238H13.26V15.39H14.324V17.238H15.696V18.162H14.324V22.362C14.324 22.866 14.548 23.23 14.996 23.23C15.304 23.23 15.57 23.09 15.71 22.936L16.018 23.734C15.752 23.986 15.374 24.168 14.772 24.168ZM22.7932 24H21.7432V19.548C21.7432 18.344 21.1412 18.008 20.2172 18.008C19.4052 18.008 18.6212 18.512 18.2292 19.058V24H17.1792V14.662H18.2292V18.218C18.6912 17.644 19.6152 17.07 20.6372 17.07C22.0512 17.07 22.7932 17.756 22.7932 19.226V24ZM30.1678 24H29.1178V23.23C28.5718 23.846 27.7878 24.168 26.8778 24.168C25.7438 24.168 24.5258 23.398 24.5258 21.928C24.5258 20.402 25.7298 19.702 26.8778 19.702C27.8018 19.702 28.5718 19.996 29.1178 20.612V19.394C29.1178 18.498 28.3898 17.98 27.4098 17.98C26.5978 17.98 25.9398 18.26 25.3378 18.918L24.8478 18.19C25.5758 17.434 26.4438 17.07 27.5498 17.07C28.9918 17.07 30.1678 17.714 30.1678 19.352V24ZM27.2698 23.412C27.9978 23.412 28.7118 23.132 29.1178 22.572V21.284C28.7118 20.738 27.9978 20.458 27.2698 20.458C26.2758 20.458 25.5898 21.074 25.5898 21.928C25.5898 22.796 26.2758 23.412 27.2698 23.412ZM34.0083 24.168C33.0003 24.168 32.4963 23.594 32.4963 22.586V18.162H31.3763V17.238H32.4963V15.39H33.5603V17.238H34.9323V18.162H33.5603V22.362C33.5603 22.866 33.7843 23.23 34.2323 23.23C34.5403 23.23 34.8063 23.09 34.9463 22.936L35.2543 23.734C34.9883 23.986 34.6103 24.168 34.0083 24.168ZM41.7466 24.168C40.7386 24.168 40.2346 23.594 40.2346 22.586V18.162H39.1146V17.238H40.2346V15.39H41.2986V17.238H42.6706V18.162H41.2986V22.362C41.2986 22.866 41.5226 23.23 41.9706 23.23C42.2786 23.23 42.5446 23.09 42.6846 22.936L42.9926 23.734C42.7266 23.986 42.3486 24.168 41.7466 24.168ZM49.7678 24H48.7178V19.548C48.7178 18.344 48.1158 18.008 47.1918 18.008C46.3798 18.008 45.5958 18.512 45.2038 19.058V24H44.1538V14.662H45.2038V18.218C45.6658 17.644 46.5898 17.07 47.6118 17.07C49.0258 17.07 49.7678 17.756 49.7678 19.226V24ZM54.9305 24.168C52.9145 24.168 51.4725 22.726 51.4725 20.612C51.4725 18.652 52.8725 17.07 54.8045 17.07C56.8485 17.07 58.0525 18.666 58.0525 20.696V20.962H52.5925C52.6765 22.236 53.5585 23.3 55.0145 23.3C55.7985 23.3 56.5685 22.992 57.1145 22.432L57.6185 23.118C56.9325 23.79 56.0225 24.168 54.9305 24.168ZM57.0165 20.178C57.0025 19.184 56.3305 17.938 54.7905 17.938C53.3485 17.938 52.6345 19.156 52.5785 20.178H57.0165ZM72.5882 24H71.5382V19.408C71.5382 18.554 71.1742 18.008 70.2922 18.008C69.5922 18.008 68.8502 18.498 68.5002 19.044V24H67.4502V19.408C67.4502 18.554 67.1002 18.008 66.2042 18.008C65.5182 18.008 64.7902 18.512 64.4262 19.058V24H63.3762V17.238H64.4262V18.218C64.7202 17.784 65.6162 17.07 66.6242 17.07C67.6462 17.07 68.2342 17.63 68.4302 18.33C68.8082 17.714 69.7182 17.07 70.6982 17.07C71.9302 17.07 72.5882 17.756 72.5882 19.114V24ZM77.7488 24.168C75.7328 24.168 74.2908 22.726 74.2908 20.612C74.2908 18.652 75.6908 17.07 77.6228 17.07C79.6668 17.07 80.8708 18.666 80.8708 20.696V20.962H75.4108C75.4948 22.236 76.3768 23.3 77.8328 23.3C78.6168 23.3 79.3868 22.992 79.9328 22.432L80.4368 23.118C79.7508 23.79 78.8408 24.168 77.7488 24.168ZM79.8348 20.178C79.8208 19.184 79.1488 17.938 77.6088 17.938C76.1668 17.938 75.4528 19.156 75.3968 20.178H79.8348ZM87.8495 24H86.7995V23.23C86.2535 23.846 85.4695 24.168 84.5595 24.168C83.4255 24.168 82.2075 23.398 82.2075 21.928C82.2075 20.402 83.4115 19.702 84.5595 19.702C85.4835 19.702 86.2535 19.996 86.7995 20.612V19.394C86.7995 18.498 86.0715 17.98 85.0915 17.98C84.2795 17.98 83.6215 18.26 83.0195 18.918L82.5295 18.19C83.2575 17.434 84.1255 17.07 85.2315 17.07C86.6735 17.07 87.8495 17.714 87.8495 19.352V24ZM84.9515 23.412C85.6795 23.412 86.3935 23.132 86.7995 22.572V21.284C86.3935 20.738 85.6795 20.458 84.9515 20.458C83.9575 20.458 83.2715 21.074 83.2715 21.928C83.2715 22.796 83.9575 23.412 84.9515 23.412ZM92.124 24.168C91.004 24.168 90.08 23.818 89.394 23.104L89.926 22.348C90.374 22.866 91.228 23.314 92.152 23.314C93.188 23.314 93.762 22.824 93.762 22.152C93.762 20.514 89.576 21.522 89.576 19.016C89.576 17.952 90.472 17.07 92.082 17.07C93.244 17.07 94.056 17.504 94.588 18.05L94.098 18.778C93.692 18.288 92.964 17.924 92.082 17.924C91.158 17.924 90.584 18.386 90.584 18.988C90.584 20.458 94.77 19.492 94.77 22.124C94.77 23.258 93.86 24.168 92.124 24.168ZM102.09 24H101.04V23.048C100.522 23.636 99.6398 24.168 98.6318 24.168C97.2178 24.168 96.4758 23.468 96.4758 22.012V17.238H97.5258V21.69C97.5258 22.88 98.1278 23.23 99.0518 23.23C99.8638 23.23 100.648 22.754 101.04 22.208V17.238H102.09V24ZM105.237 24H104.187V17.238H105.237V18.316C105.783 17.616 106.567 17.084 107.491 17.084V18.162C107.365 18.148 107.239 18.134 107.085 18.134C106.427 18.134 105.545 18.666 105.237 19.212V24ZM111.874 24.168C109.858 24.168 108.416 22.726 108.416 20.612C108.416 18.652 109.816 17.07 111.748 17.07C113.792 17.07 114.996 18.666 114.996 20.696V20.962H109.536C109.62 22.236 110.502 23.3 111.958 23.3C112.742 23.3 113.512 22.992 114.058 22.432L114.562 23.118C113.876 23.79 112.966 24.168 111.874 24.168ZM113.96 20.178C113.946 19.184 113.274 17.938 111.734 17.938C110.292 17.938 109.578 19.156 109.522 20.178H113.96ZM125.908 24H124.858V19.408C124.858 18.554 124.494 18.008 123.612 18.008C122.912 18.008 122.17 18.498 121.82 19.044V24H120.77V19.408C120.77 18.554 120.42 18.008 119.524 18.008C118.838 18.008 118.11 18.512 117.746 19.058V24H116.696V17.238H117.746V18.218C118.04 17.784 118.936 17.07 119.944 17.07C120.966 17.07 121.554 17.63 121.75 18.33C122.128 17.714 123.038 17.07 124.018 17.07C125.25 17.07 125.908 17.756 125.908 19.114V24ZM131.069 24.168C129.053 24.168 127.611 22.726 127.611 20.612C127.611 18.652 129.011 17.07 130.943 17.07C132.987 17.07 134.191 18.666 134.191 20.696V20.962H128.731C128.815 22.236 129.697 23.3 131.153 23.3C131.937 23.3 132.707 22.992 133.253 22.432L133.757 23.118C133.071 23.79 132.161 24.168 131.069 24.168ZM133.155 20.178C133.141 19.184 132.469 17.938 130.929 17.938C129.487 17.938 128.773 19.156 128.717 20.178H133.155ZM141.506 24H140.47V19.576C140.47 18.372 139.854 18.008 138.944 18.008C138.118 18.008 137.348 18.512 136.942 19.058V24H135.892V17.238H136.942V18.218C137.418 17.644 138.342 17.07 139.364 17.07C140.764 17.07 141.506 17.784 141.506 19.254V24ZM145.338 24.168C144.33 24.168 143.826 23.594 143.826 22.586V18.162H142.706V17.238H143.826V15.39H144.89V17.238H146.262V18.162H144.89V22.362C144.89 22.866 145.114 23.23 145.562 23.23C145.87 23.23 146.136 23.09 146.276 22.936L146.584 23.734C146.318 23.986 145.94 24.168 145.338 24.168ZM149.888 24.168C148.768 24.168 147.844 23.818 147.158 23.104L147.69 22.348C148.138 22.866 148.992 23.314 149.916 23.314C150.952 23.314 151.526 22.824 151.526 22.152C151.526 20.514 147.34 21.522 147.34 19.016C147.34 17.952 148.236 17.07 149.846 17.07C151.008 17.07 151.82 17.504 152.352 18.05L151.862 18.778C151.456 18.288 150.728 17.924 149.846 17.924C148.922 17.924 148.348 18.386 148.348 18.988C148.348 20.458 152.534 19.492 152.534 22.124C152.534 23.258 151.624 24.168 149.888 24.168ZM163.141 24H162.091V23.23C161.545 23.846 160.761 24.168 159.851 24.168C158.717 24.168 157.499 23.398 157.499 21.928C157.499 20.402 158.703 19.702 159.851 19.702C160.775 19.702 161.545 19.996 162.091 20.612V19.394C162.091 18.498 161.363 17.98 160.383 17.98C159.571 17.98 158.913 18.26 158.311 18.918L157.821 18.19C158.549 17.434 159.417 17.07 160.523 17.07C161.965 17.07 163.141 17.714 163.141 19.352V24ZM160.243 23.412C160.971 23.412 161.685 23.132 162.091 22.572V21.284C161.685 20.738 160.971 20.458 160.243 20.458C159.249 20.458 158.562 21.074 158.562 21.928C158.562 22.796 159.249 23.412 160.243 23.412ZM166.309 24H165.259V17.238H166.309V18.316C166.855 17.616 167.639 17.084 168.563 17.084V18.162C168.437 18.148 168.311 18.134 168.157 18.134C167.499 18.134 166.617 18.666 166.309 19.212V24ZM172.946 24.168C170.93 24.168 169.488 22.726 169.488 20.612C169.488 18.652 170.888 17.07 172.82 17.07C174.864 17.07 176.068 18.666 176.068 20.696V20.962H170.608C170.692 22.236 171.574 23.3 173.03 23.3C173.814 23.3 174.584 22.992 175.13 22.432L175.634 23.118C174.948 23.79 174.038 24.168 172.946 24.168ZM175.032 20.178C175.018 19.184 174.346 17.938 172.806 17.938C171.364 17.938 170.65 19.156 170.594 20.178H175.032ZM182.736 24H181.686V18.162H180.566V17.238H181.686V16.72C181.686 15.334 182.456 14.522 183.646 14.522C184.192 14.522 184.654 14.648 185.074 15.04L184.64 15.712C184.416 15.516 184.15 15.39 183.814 15.39C183.114 15.39 182.736 15.852 182.736 16.72V17.238H184.108V18.162H182.736V24ZM188.324 24.168C186.266 24.168 184.978 22.572 184.978 20.612C184.978 18.652 186.266 17.07 188.324 17.07C190.382 17.07 191.67 18.652 191.67 20.612C191.67 22.572 190.382 24.168 188.324 24.168ZM188.324 23.23C189.766 23.23 190.564 21.998 190.564 20.612C190.564 19.24 189.766 18.008 188.324 18.008C186.882 18.008 186.084 19.24 186.084 20.612C186.084 21.998 186.882 23.23 188.324 23.23ZM194.432 24H193.382V17.238H194.432V18.316C194.978 17.616 195.762 17.084 196.686 17.084V18.162C196.56 18.148 196.434 18.134 196.28 18.134C195.622 18.134 194.74 18.666 194.432 19.212V24ZM204.958 24.168C204.034 24.168 203.236 23.72 202.676 22.978V26.576H201.626V17.238H202.676V18.246C203.166 17.56 204.006 17.07 204.958 17.07C206.736 17.07 207.968 18.414 207.968 20.612C207.968 22.796 206.736 24.168 204.958 24.168ZM204.692 23.23C206.05 23.23 206.862 22.11 206.862 20.612C206.862 19.114 206.05 18.008 204.692 18.008C203.866 18.008 203.04 18.498 202.676 19.086V22.138C203.04 22.726 203.866 23.23 204.692 23.23ZM212.704 24.168C210.688 24.168 209.246 22.726 209.246 20.612C209.246 18.652 210.646 17.07 212.578 17.07C214.622 17.07 215.826 18.666 215.826 20.696V20.962H210.366C210.45 22.236 211.332 23.3 212.788 23.3C213.572 23.3 214.342 22.992 214.888 22.432L215.392 23.118C214.706 23.79 213.796 24.168 212.704 24.168ZM214.79 20.178C214.776 19.184 214.104 17.938 212.564 17.938C211.122 17.938 210.408 19.156 210.352 20.178H214.79ZM218.577 24H217.527V17.238H218.577V18.316C219.123 17.616 219.907 17.084 220.831 17.084V18.162C220.705 18.148 220.579 18.134 220.425 18.134C219.767 18.134 218.885 18.666 218.577 19.212V24ZM224.304 24.168C223.184 24.168 222.26 23.818 221.574 23.104L222.106 22.348C222.554 22.866 223.408 23.314 224.332 23.314C225.368 23.314 225.942 22.824 225.942 22.152C225.942 20.514 221.756 21.522 221.756 19.016C221.756 17.952 222.652 17.07 224.262 17.07C225.424 17.07 226.236 17.504 226.768 18.05L226.278 18.778C225.872 18.288 225.144 17.924 224.262 17.924C223.338 17.924 222.764 18.386 222.764 18.988C222.764 20.458 226.95 19.492 226.95 22.124C226.95 23.258 226.04 24.168 224.304 24.168ZM231.609 24.168C229.551 24.168 228.263 22.572 228.263 20.612C228.263 18.652 229.551 17.07 231.609 17.07C233.667 17.07 234.955 18.652 234.955 20.612C234.955 22.572 233.667 24.168 231.609 24.168ZM231.609 23.23C233.051 23.23 233.849 21.998 233.849 20.612C233.849 19.24 233.051 18.008 231.609 18.008C230.167 18.008 229.369 19.24 229.369 20.612C229.369 21.998 230.167 23.23 231.609 23.23ZM242.281 24H241.245V19.576C241.245 18.372 240.629 18.008 239.719 18.008C238.893 18.008 238.123 18.512 237.717 19.058V24H236.667V17.238H237.717V18.218C238.193 17.644 239.117 17.07 240.139 17.07C241.539 17.07 242.281 17.784 242.281 19.254V24ZM249.67 24H248.62V23.23C248.074 23.846 247.29 24.168 246.38 24.168C245.246 24.168 244.028 23.398 244.028 21.928C244.028 20.402 245.232 19.702 246.38 19.702C247.304 19.702 248.074 19.996 248.62 20.612V19.394C248.62 18.498 247.892 17.98 246.912 17.98C246.1 17.98 245.442 18.26 244.84 18.918L244.35 18.19C245.078 17.434 245.946 17.07 247.052 17.07C248.494 17.07 249.67 17.714 249.67 19.352V24ZM246.772 23.412C247.5 23.412 248.214 23.132 248.62 22.572V21.284C248.214 20.738 247.5 20.458 246.772 20.458C245.778 20.458 245.092 21.074 245.092 21.928C245.092 22.796 245.778 23.412 246.772 23.412ZM252.838 24H251.788V14.662H252.838V24ZM264.17 24H263.12V23.048C262.602 23.636 261.72 24.168 260.712 24.168C259.298 24.168 258.556 23.468 258.556 22.012V17.238H259.606V21.69C259.606 22.88 260.208 23.23 261.132 23.23C261.944 23.23 262.728 22.754 263.12 22.208V17.238H264.17V24ZM268.423 24.168C267.303 24.168 266.379 23.818 265.693 23.104L266.225 22.348C266.673 22.866 267.527 23.314 268.451 23.314C269.487 23.314 270.061 22.824 270.061 22.152C270.061 20.514 265.875 21.522 265.875 19.016C265.875 17.952 266.771 17.07 268.381 17.07C269.543 17.07 270.355 17.504 270.887 18.05L270.397 18.778C269.991 18.288 269.263 17.924 268.381 17.924C267.457 17.924 266.883 18.386 266.883 18.988C266.883 20.458 271.069 19.492 271.069 22.124C271.069 23.258 270.159 24.168 268.423 24.168ZM275.841 24.168C273.825 24.168 272.383 22.726 272.383 20.612C272.383 18.652 273.783 17.07 275.715 17.07C277.759 17.07 278.963 18.666 278.963 20.696V20.962H273.503C273.587 22.236 274.469 23.3 275.925 23.3C276.709 23.3 277.479 22.992 278.025 22.432L278.529 23.118C277.843 23.79 276.933 24.168 275.841 24.168ZM277.927 20.178C277.913 19.184 277.241 17.938 275.701 17.938C274.259 17.938 273.545 19.156 273.489 20.178H277.927ZM16.004 38.168C13.946 38.168 12.658 36.572 12.658 34.612C12.658 32.652 13.946 31.07 16.004 31.07C18.062 31.07 19.35 32.652 19.35 34.612C19.35 36.572 18.062 38.168 16.004 38.168ZM16.004 37.23C17.446 37.23 18.244 35.998 18.244 34.612C18.244 33.24 17.446 32.008 16.004 32.008C14.562 32.008 13.764 33.24 13.764 34.612C13.764 35.998 14.562 37.23 16.004 37.23ZM26.6757 38H25.6397V33.576C25.6397 32.372 25.0237 32.008 24.1137 32.008C23.2877 32.008 22.5177 32.512 22.1117 33.058V38H21.0617V31.238H22.1117V32.218C22.5877 31.644 23.5117 31.07 24.5337 31.07C25.9337 31.07 26.6757 31.784 26.6757 33.254V38ZM29.8363 38H28.7863V28.662H29.8363V38ZM31.5669 40.646L31.7209 39.694C31.8749 39.764 32.1269 39.806 32.2949 39.806C32.7569 39.806 33.0649 39.652 33.3029 39.092L33.7509 38.07L30.9229 31.238H32.0709L34.3109 36.782L36.5649 31.238H37.6989L34.3109 39.372C33.9049 40.352 33.2189 40.73 32.3229 40.744C32.0989 40.744 31.7489 40.702 31.5669 40.646ZM38.5612 38.14C38.1412 38.14 37.7912 37.79 37.7912 37.37C37.7912 36.95 38.1412 36.6 38.5612 36.6C38.9812 36.6 39.3312 36.95 39.3312 37.37C39.3312 37.79 38.9812 38.14 38.5612 38.14ZM3.02321 48.612C3.02321 49.424 2.33721 50.11 1.51121 50.11C0.685211 50.11 -0.000789002 49.424 -0.000789002 48.612C-0.000789002 47.786 0.685211 47.1 1.51121 47.1C2.33721 47.1 3.02321 47.786 3.02321 48.612ZM16.116 52.168C14.506 52.168 13.302 51.552 12.532 50.684L13.232 49.788C13.834 50.488 14.842 51.132 16.158 51.132C17.824 51.132 18.356 50.236 18.356 49.508C18.356 47.1 12.826 48.444 12.826 45.112C12.826 43.572 14.198 42.508 16.046 42.508C17.46 42.508 18.566 42.998 19.35 43.824L18.65 44.678C17.95 43.894 16.97 43.558 15.948 43.558C14.842 43.558 14.03 44.16 14.03 45.042C14.03 47.142 19.56 45.938 19.56 49.424C19.56 50.768 18.636 52.168 16.116 52.168ZM22.7427 52.168C21.7347 52.168 21.2307 51.594 21.2307 50.586V46.162H20.1107V45.238H21.2307V43.39H22.2947V45.238H23.6667V46.162H22.2947V50.362C22.2947 50.866 22.5187 51.23 22.9667 51.23C23.2747 51.23 23.5407 51.09 23.6807 50.936L23.9887 51.734C23.7227 51.986 23.3447 52.168 22.7427 52.168ZM30.4139 52H29.3639V51.23C28.8179 51.846 28.0339 52.168 27.1239 52.168C25.9899 52.168 24.7719 51.398 24.7719 49.928C24.7719 48.402 25.9759 47.702 27.1239 47.702C28.0479 47.702 28.8179 47.996 29.3639 48.612V47.394C29.3639 46.498 28.6359 45.98 27.6559 45.98C26.8439 45.98 26.1859 46.26 25.5839 46.918L25.0939 46.19C25.8219 45.434 26.6899 45.07 27.7959 45.07C29.2379 45.07 30.4139 45.714 30.4139 47.352V52ZM27.5159 51.412C28.2439 51.412 28.9579 51.132 29.3639 50.572V49.284C28.9579 48.738 28.2439 48.458 27.5159 48.458C26.5219 48.458 25.8359 49.074 25.8359 49.928C25.8359 50.796 26.5219 51.412 27.5159 51.412ZM32.1684 54.646L32.3224 53.694C32.4764 53.764 32.7284 53.806 32.8964 53.806C33.3584 53.806 33.6664 53.652 33.9044 53.092L34.3524 52.07L31.5244 45.238H32.6724L34.9124 50.782L37.1664 45.238H38.3004L34.9124 53.372C34.5064 54.352 33.8204 54.73 32.9244 54.744C32.7004 54.744 32.3504 54.702 32.1684 54.646ZM48.2968 52H47.2468V51.23C46.7008 51.846 45.9168 52.168 45.0068 52.168C43.8728 52.168 42.6548 51.398 42.6548 49.928C42.6548 48.402 43.8588 47.702 45.0068 47.702C45.9308 47.702 46.7008 47.996 47.2468 48.612V47.394C47.2468 46.498 46.5188 45.98 45.5388 45.98C44.7268 45.98 44.0688 46.26 43.4668 46.918L42.9768 46.19C43.7048 45.434 44.5728 45.07 45.6788 45.07C47.1208 45.07 48.2968 45.714 48.2968 47.352V52ZM45.3988 51.412C46.1268 51.412 46.8408 51.132 47.2468 50.572V49.284C46.8408 48.738 46.1268 48.458 45.3988 48.458C44.4048 48.458 43.7188 49.074 43.7188 49.928C43.7188 50.796 44.4048 51.412 45.3988 51.412ZM52.1372 52.168C51.1292 52.168 50.6252 51.594 50.6252 50.586V46.162H49.5052V45.238H50.6252V43.39H51.6892V45.238H53.0612V46.162H51.6892V50.362C51.6892 50.866 51.9132 51.23 52.3612 51.23C52.6692 51.23 52.9352 51.09 53.0752 50.936L53.3832 51.734C53.1172 51.986 52.7392 52.168 52.1372 52.168ZM59.2035 52H58.1535V45.238H59.2035V46.316C59.7495 45.616 60.5335 45.084 61.4575 45.084V46.162C61.3315 46.148 61.2055 46.134 61.0515 46.134C60.3935 46.134 59.5115 46.666 59.2035 47.212V52ZM65.8406 52.168C63.8246 52.168 62.3826 50.726 62.3826 48.612C62.3826 46.652 63.7826 45.07 65.7146 45.07C67.7586 45.07 68.9626 46.666 68.9626 48.696V48.962H63.5026C63.5866 50.236 64.4686 51.3 65.9246 51.3C66.7086 51.3 67.4786 50.992 68.0246 50.432L68.5286 51.118C67.8426 51.79 66.9326 52.168 65.8406 52.168ZM67.9266 48.178C67.9126 47.184 67.2406 45.938 65.7006 45.938C64.2586 45.938 63.5446 47.156 63.4886 48.178H67.9266ZM72.8193 52.168C71.6993 52.168 70.7753 51.818 70.0893 51.104L70.6213 50.348C71.0693 50.866 71.9233 51.314 72.8473 51.314C73.8833 51.314 74.4573 50.824 74.4573 50.152C74.4573 48.514 70.2713 49.522 70.2713 47.016C70.2713 45.952 71.1673 45.07 72.7773 45.07C73.9393 45.07 74.7513 45.504 75.2833 46.05L74.7933 46.778C74.3873 46.288 73.6593 45.924 72.7773 45.924C71.8533 45.924 71.2793 46.386 71.2793 46.988C71.2793 48.458 75.4653 47.492 75.4653 50.124C75.4653 51.258 74.5553 52.168 72.8193 52.168ZM78.8931 52.168C77.8851 52.168 77.3811 51.594 77.3811 50.586V46.162H76.2611V45.238H77.3811V43.39H78.4451V45.238H79.8171V46.162H78.4451V50.362C78.4451 50.866 78.6691 51.23 79.1171 51.23C79.4251 51.23 79.6911 51.09 79.8311 50.936L80.1391 51.734C79.8731 51.986 79.4951 52.168 78.8931 52.168ZM85.9594 50.166C86.3234 50.754 87.1494 51.23 87.9894 51.23C89.3474 51.23 90.1594 50.124 90.1594 48.626C90.1594 47.128 89.3474 46.008 87.9894 46.008C87.1494 46.008 86.3234 46.512 85.9594 47.1V50.166ZM85.9594 52H84.9094V42.662H85.9594V46.26C86.5054 45.518 87.3314 45.07 88.2414 45.07C90.0194 45.07 91.2514 46.456 91.2514 48.626C91.2514 50.824 90.0054 52.168 88.2414 52.168C87.2894 52.168 86.4634 51.678 85.9594 50.992V52ZM96.0281 52.168C94.0121 52.168 92.5701 50.726 92.5701 48.612C92.5701 46.652 93.9701 45.07 95.9021 45.07C97.9461 45.07 99.1501 46.666 99.1501 48.696V48.962H93.6901C93.7741 50.236 94.6561 51.3 96.1121 51.3C96.8961 51.3 97.6661 50.992 98.2121 50.432L98.7161 51.118C98.0301 51.79 97.1201 52.168 96.0281 52.168ZM98.1141 48.178C98.1001 47.184 97.4281 45.938 95.8881 45.938C94.4461 45.938 93.7321 47.156 93.6761 48.178H98.1141ZM102.195 52H101.145V46.162H100.025V45.238H101.145V44.72C101.145 43.334 101.915 42.522 103.105 42.522C103.651 42.522 104.113 42.648 104.533 43.04L104.099 43.712C103.875 43.516 103.609 43.39 103.273 43.39C102.573 43.39 102.195 43.852 102.195 44.72V45.238H103.567V46.162H102.195V52ZM107.783 52.168C105.725 52.168 104.437 50.572 104.437 48.612C104.437 46.652 105.725 45.07 107.783 45.07C109.841 45.07 111.129 46.652 111.129 48.612C111.129 50.572 109.841 52.168 107.783 52.168ZM107.783 51.23C109.225 51.23 110.023 49.998 110.023 48.612C110.023 47.24 109.225 46.008 107.783 46.008C106.341 46.008 105.543 47.24 105.543 48.612C105.543 49.998 106.341 51.23 107.783 51.23ZM113.891 52H112.841V45.238H113.891V46.316C114.437 45.616 115.221 45.084 116.145 45.084V46.162C116.019 46.148 115.893 46.134 115.739 46.134C115.081 46.134 114.199 46.666 113.891 47.212V52ZM120.528 52.168C118.512 52.168 117.07 50.726 117.07 48.612C117.07 46.652 118.47 45.07 120.402 45.07C122.446 45.07 123.65 46.666 123.65 48.696V48.962H118.19C118.274 50.236 119.156 51.3 120.612 51.3C121.396 51.3 122.166 50.992 122.712 50.432L123.216 51.118C122.53 51.79 121.62 52.168 120.528 52.168ZM122.614 48.178C122.6 47.184 121.928 45.938 120.388 45.938C118.946 45.938 118.232 47.156 118.176 48.178H122.614ZM130.696 52.168C129.688 52.168 129.184 51.594 129.184 50.586V46.162H128.064V45.238H129.184V43.39H130.248V45.238H131.62V46.162H130.248V50.362C130.248 50.866 130.472 51.23 130.92 51.23C131.228 51.23 131.494 51.09 131.634 50.936L131.942 51.734C131.676 51.986 131.298 52.168 130.696 52.168ZM138.717 52H137.667V47.548C137.667 46.344 137.065 46.008 136.141 46.008C135.329 46.008 134.545 46.512 134.153 47.058V52H133.103V42.662H134.153V46.218C134.615 45.644 135.539 45.07 136.561 45.07C137.975 45.07 138.717 45.756 138.717 47.226V52ZM143.88 52.168C141.864 52.168 140.422 50.726 140.422 48.612C140.422 46.652 141.822 45.07 143.754 45.07C145.798 45.07 147.002 46.666 147.002 48.696V48.962H141.542C141.626 50.236 142.508 51.3 143.964 51.3C144.748 51.3 145.518 50.992 146.064 50.432L146.568 51.118C145.882 51.79 144.972 52.168 143.88 52.168ZM145.966 48.178C145.952 47.184 145.28 45.938 143.74 45.938C142.298 45.938 141.584 47.156 141.528 48.178H145.966ZM161.537 52H160.487V47.408C160.487 46.554 160.123 46.008 159.241 46.008C158.541 46.008 157.799 46.498 157.449 47.044V52H156.399V47.408C156.399 46.554 156.049 46.008 155.153 46.008C154.467 46.008 153.739 46.512 153.375 47.058V52H152.325V45.238H153.375V46.218C153.669 45.784 154.565 45.07 155.573 45.07C156.595 45.07 157.183 45.63 157.379 46.33C157.757 45.714 158.667 45.07 159.647 45.07C160.879 45.07 161.537 45.756 161.537 47.114V52ZM166.698 52.168C164.682 52.168 163.24 50.726 163.24 48.612C163.24 46.652 164.64 45.07 166.572 45.07C168.616 45.07 169.82 46.666 169.82 48.696V48.962H164.36C164.444 50.236 165.326 51.3 166.782 51.3C167.566 51.3 168.336 50.992 168.882 50.432L169.386 51.118C168.7 51.79 167.79 52.168 166.698 52.168ZM168.784 48.178C168.77 47.184 168.098 45.938 166.558 45.938C165.116 45.938 164.402 47.156 164.346 48.178H168.784ZM176.799 52H175.749V51.23C175.203 51.846 174.419 52.168 173.509 52.168C172.375 52.168 171.157 51.398 171.157 49.928C171.157 48.402 172.361 47.702 173.509 47.702C174.433 47.702 175.203 47.996 175.749 48.612V47.394C175.749 46.498 175.021 45.98 174.041 45.98C173.229 45.98 172.571 46.26 171.969 46.918L171.479 46.19C172.207 45.434 173.075 45.07 174.181 45.07C175.623 45.07 176.799 45.714 176.799 47.352V52ZM173.901 51.412C174.629 51.412 175.343 51.132 175.749 50.572V49.284C175.343 48.738 174.629 48.458 173.901 48.458C172.907 48.458 172.221 49.074 172.221 49.928C172.221 50.796 172.907 51.412 173.901 51.412ZM181.073 52.168C179.953 52.168 179.029 51.818 178.343 51.104L178.875 50.348C179.323 50.866 180.177 51.314 181.101 51.314C182.137 51.314 182.711 50.824 182.711 50.152C182.711 48.514 178.525 49.522 178.525 47.016C178.525 45.952 179.421 45.07 181.031 45.07C182.193 45.07 183.005 45.504 183.537 46.05L183.047 46.778C182.641 46.288 181.913 45.924 181.031 45.924C180.107 45.924 179.533 46.386 179.533 46.988C179.533 48.458 183.719 47.492 183.719 50.124C183.719 51.258 182.809 52.168 181.073 52.168ZM191.039 52H189.989V51.048C189.471 51.636 188.589 52.168 187.581 52.168C186.167 52.168 185.425 51.468 185.425 50.012V45.238H186.475V49.69C186.475 50.88 187.077 51.23 188.001 51.23C188.813 51.23 189.597 50.754 189.989 50.208V45.238H191.039V52ZM194.186 52H193.136V45.238H194.186V46.316C194.732 45.616 195.516 45.084 196.44 45.084V46.162C196.314 46.148 196.188 46.134 196.034 46.134C195.376 46.134 194.494 46.666 194.186 47.212V52ZM200.823 52.168C198.807 52.168 197.365 50.726 197.365 48.612C197.365 46.652 198.765 45.07 200.697 45.07C202.741 45.07 203.945 46.666 203.945 48.696V48.962H198.485C198.569 50.236 199.451 51.3 200.907 51.3C201.691 51.3 202.461 50.992 203.007 50.432L203.511 51.118C202.825 51.79 201.915 52.168 200.823 52.168ZM202.909 48.178C202.895 47.184 202.223 45.938 200.683 45.938C199.241 45.938 198.527 47.156 198.471 48.178H202.909ZM214.858 52H213.808V47.408C213.808 46.554 213.444 46.008 212.562 46.008C211.862 46.008 211.12 46.498 210.77 47.044V52H209.72V47.408C209.72 46.554 209.37 46.008 208.474 46.008C207.788 46.008 207.06 46.512 206.696 47.058V52H205.646V45.238H206.696V46.218C206.99 45.784 207.886 45.07 208.894 45.07C209.916 45.07 210.504 45.63 210.7 46.33C211.078 45.714 211.988 45.07 212.968 45.07C214.2 45.07 214.858 45.756 214.858 47.114V52ZM220.018 52.168C218.002 52.168 216.56 50.726 216.56 48.612C216.56 46.652 217.96 45.07 219.892 45.07C221.936 45.07 223.14 46.666 223.14 48.696V48.962H217.68C217.764 50.236 218.646 51.3 220.102 51.3C220.886 51.3 221.656 50.992 222.202 50.432L222.706 51.118C222.02 51.79 221.11 52.168 220.018 52.168ZM222.104 48.178C222.09 47.184 221.418 45.938 219.878 45.938C218.436 45.938 217.722 47.156 217.666 48.178H222.104ZM230.455 52H229.419V47.576C229.419 46.372 228.803 46.008 227.893 46.008C227.067 46.008 226.297 46.512 225.891 47.058V52H224.841V45.238H225.891V46.218C226.367 45.644 227.291 45.07 228.313 45.07C229.713 45.07 230.455 45.784 230.455 47.254V52ZM234.288 52.168C233.28 52.168 232.776 51.594 232.776 50.586V46.162H231.656V45.238H232.776V43.39H233.84V45.238H235.212V46.162H233.84V50.362C233.84 50.866 234.064 51.23 234.512 51.23C234.82 51.23 235.086 51.09 235.226 50.936L235.534 51.734C235.268 51.986 234.89 52.168 234.288 52.168ZM237.241 52.14C236.821 52.14 236.471 51.79 236.471 51.37C236.471 50.95 236.821 50.6 237.241 50.6C237.661 50.6 238.011 50.95 238.011 51.37C238.011 51.79 237.661 52.14 237.241 52.14ZM3.02321 62.612C3.02321 63.424 2.33721 64.11 1.51121 64.11C0.685211 64.11 -0.000789002 63.424 -0.000789002 62.612C-0.000789002 61.786 0.685211 61.1 1.51121 61.1C2.33721 61.1 3.02321 61.786 3.02321 62.612ZM21.086 66H19.756L18.93 63.914H14.282L13.456 66H12.126L15.892 56.662H17.334L21.086 66ZM18.594 62.892L16.606 57.852L14.632 62.892H18.594ZM24.9454 66H23.7974L20.9834 59.238H22.1314L24.3714 64.782L26.6254 59.238H27.7594L24.9454 66ZM31.8087 66.168C29.7507 66.168 28.4627 64.572 28.4627 62.612C28.4627 60.652 29.7507 59.07 31.8087 59.07C33.8667 59.07 35.1547 60.652 35.1547 62.612C35.1547 64.572 33.8667 66.168 31.8087 66.168ZM31.8087 65.23C33.2507 65.23 34.0487 63.998 34.0487 62.612C34.0487 61.24 33.2507 60.008 31.8087 60.008C30.3667 60.008 29.5687 61.24 29.5687 62.612C29.5687 63.998 30.3667 65.23 31.8087 65.23ZM37.3984 58.272C37.0064 58.272 36.6844 57.964 36.6844 57.572C36.6844 57.18 37.0064 56.858 37.3984 56.858C37.7904 56.858 38.0984 57.18 38.0984 57.572C38.0984 57.964 37.7904 58.272 37.3984 58.272ZM37.9164 66H36.8664V59.238H37.9164V66ZM45.9609 66H44.9109V64.992C44.4069 65.678 43.5809 66.168 42.6289 66.168C40.8649 66.168 39.6189 64.824 39.6189 62.626C39.6189 60.456 40.8649 59.07 42.6289 59.07C43.5389 59.07 44.3649 59.518 44.9109 60.26V56.662H45.9609V66ZM42.8949 65.23C43.7209 65.23 44.5469 64.74 44.9109 64.152V61.1C44.5469 60.512 43.7209 60.008 42.8949 60.008C41.5229 60.008 40.7109 61.128 40.7109 62.626C40.7109 64.124 41.5229 65.23 42.8949 65.23ZM54.6687 66.168C52.6527 66.168 51.2947 64.614 51.2947 62.612C51.2947 60.61 52.6527 59.07 54.6687 59.07C55.9007 59.07 56.6287 59.574 57.1467 60.246L56.4467 60.876C55.9987 60.26 55.4247 60.008 54.7247 60.008C53.2967 60.008 52.3867 61.114 52.3867 62.612C52.3867 64.11 53.2967 65.23 54.7247 65.23C55.4247 65.23 55.9987 64.95 56.4467 64.348L57.1467 64.992C56.6287 65.664 55.9007 66.168 54.6687 66.168ZM61.586 66.168C59.528 66.168 58.24 64.572 58.24 62.612C58.24 60.652 59.528 59.07 61.586 59.07C63.644 59.07 64.932 60.652 64.932 62.612C64.932 64.572 63.644 66.168 61.586 66.168ZM61.586 65.23C63.028 65.23 63.826 63.998 63.826 62.612C63.826 61.24 63.028 60.008 61.586 60.008C60.144 60.008 59.346 61.24 59.346 62.612C59.346 63.998 60.144 65.23 61.586 65.23ZM72.2578 66H71.2218V61.576C71.2218 60.372 70.6058 60.008 69.6958 60.008C68.8698 60.008 68.0998 60.512 67.6938 61.058V66H66.6438V59.238H67.6938V60.218C68.1698 59.644 69.0938 59.07 70.1158 59.07C71.5158 59.07 72.2578 59.784 72.2578 61.254V66ZM76.5244 66.168C75.4044 66.168 74.4804 65.818 73.7944 65.104L74.3264 64.348C74.7744 64.866 75.6284 65.314 76.5524 65.314C77.5884 65.314 78.1624 64.824 78.1624 64.152C78.1624 62.514 73.9764 63.522 73.9764 61.016C73.9764 59.952 74.8724 59.07 76.4824 59.07C77.6444 59.07 78.4564 59.504 78.9884 60.05L78.4984 60.778C78.0924 60.288 77.3644 59.924 76.4824 59.924C75.5584 59.924 74.9844 60.386 74.9844 60.988C74.9844 62.458 79.1704 61.492 79.1704 64.124C79.1704 65.258 78.2604 66.168 76.5244 66.168ZM86.4902 66H85.4402V65.048C84.9222 65.636 84.0402 66.168 83.0322 66.168C81.6182 66.168 80.8762 65.468 80.8762 64.012V59.238H81.9262V63.69C81.9262 64.88 82.5282 65.23 83.4522 65.23C84.2642 65.23 85.0482 64.754 85.4402 64.208V59.238H86.4902V66ZM97.7991 66H96.7491V61.408C96.7491 60.554 96.3851 60.008 95.5031 60.008C94.8031 60.008 94.0611 60.498 93.7111 61.044V66H92.6611V61.408C92.6611 60.554 92.3111 60.008 91.4151 60.008C90.7291 60.008 90.0011 60.512 89.6371 61.058V66H88.5871V59.238H89.6371V60.218C89.9311 59.784 90.8271 59.07 91.8351 59.07C92.8571 59.07 93.4451 59.63 93.6411 60.33C94.0191 59.714 94.9291 59.07 95.9091 59.07C97.1411 59.07 97.7991 59.756 97.7991 61.114V66ZM100.426 58.272C100.034 58.272 99.7118 57.964 99.7118 57.572C99.7118 57.18 100.034 56.858 100.426 56.858C100.818 56.858 101.126 57.18 101.126 57.572C101.126 57.964 100.818 58.272 100.426 58.272ZM100.944 66H99.8938V59.238H100.944V66ZM108.652 66H107.616V61.576C107.616 60.372 107 60.008 106.09 60.008C105.264 60.008 104.494 60.512 104.088 61.058V66H103.038V59.238H104.088V60.218C104.564 59.644 105.488 59.07 106.51 59.07C107.91 59.07 108.652 59.784 108.652 61.254V66ZM113.479 68.744C112.345 68.744 111.561 68.52 110.749 67.722L111.281 66.966C111.841 67.624 112.513 67.876 113.479 67.876C114.599 67.876 115.663 67.33 115.663 65.902V64.88C115.159 65.566 114.333 66.084 113.381 66.084C111.617 66.084 110.371 64.768 110.371 62.584C110.371 60.414 111.603 59.07 113.381 59.07C114.291 59.07 115.117 59.518 115.663 60.26V59.238H116.713V65.902C116.713 68.044 115.131 68.744 113.479 68.744ZM113.647 65.146C114.473 65.146 115.285 64.642 115.663 64.054V61.086C115.285 60.512 114.473 60.008 113.647 60.008C112.275 60.008 111.463 61.086 111.463 62.584C111.463 64.068 112.275 65.146 113.647 65.146ZM125.421 66.168C123.405 66.168 122.047 64.614 122.047 62.612C122.047 60.61 123.405 59.07 125.421 59.07C126.653 59.07 127.381 59.574 127.899 60.246L127.199 60.876C126.751 60.26 126.177 60.008 125.477 60.008C124.049 60.008 123.139 61.114 123.139 62.612C123.139 64.11 124.049 65.23 125.477 65.23C126.177 65.23 126.751 64.95 127.199 64.348L127.899 64.992C127.381 65.664 126.653 66.168 125.421 66.168ZM134.662 66H133.612V65.23C133.066 65.846 132.282 66.168 131.372 66.168C130.238 66.168 129.02 65.398 129.02 63.928C129.02 62.402 130.224 61.702 131.372 61.702C132.296 61.702 133.066 61.996 133.612 62.612V61.394C133.612 60.498 132.884 59.98 131.904 59.98C131.092 59.98 130.434 60.26 129.832 60.918L129.342 60.19C130.07 59.434 130.938 59.07 132.044 59.07C133.486 59.07 134.662 59.714 134.662 61.352V66ZM131.764 65.412C132.492 65.412 133.206 65.132 133.612 64.572V63.284C133.206 62.738 132.492 62.458 131.764 62.458C130.77 62.458 130.084 63.074 130.084 63.928C130.084 64.796 130.77 65.412 131.764 65.412ZM138.124 66H137.074V60.162H135.954V59.238H137.074V58.72C137.074 57.334 137.844 56.522 139.034 56.522C139.58 56.522 140.042 56.648 140.462 57.04L140.028 57.712C139.804 57.516 139.538 57.39 139.202 57.39C138.502 57.39 138.124 57.852 138.124 58.72V59.238H139.496V60.162H138.124V66ZM142.1 66H141.05V60.162H139.93V59.238H141.05V58.72C141.05 57.334 141.82 56.522 143.01 56.522C143.556 56.522 144.018 56.648 144.438 57.04L144.004 57.712C143.78 57.516 143.514 57.39 143.178 57.39C142.478 57.39 142.1 57.852 142.1 58.72V59.238H143.472V60.162H142.1V66ZM147.79 66.168C145.774 66.168 144.332 64.726 144.332 62.612C144.332 60.652 145.732 59.07 147.664 59.07C149.708 59.07 150.912 60.666 150.912 62.696V62.962H145.452C145.536 64.236 146.418 65.3 147.874 65.3C148.658 65.3 149.428 64.992 149.974 64.432L150.478 65.118C149.792 65.79 148.882 66.168 147.79 66.168ZM149.876 62.178C149.862 61.184 149.19 59.938 147.65 59.938C146.208 59.938 145.494 61.156 145.438 62.178H149.876ZM153.145 58.272C152.753 58.272 152.431 57.964 152.431 57.572C152.431 57.18 152.753 56.858 153.145 56.858C153.537 56.858 153.845 57.18 153.845 57.572C153.845 57.964 153.537 58.272 153.145 58.272ZM153.663 66H152.613V59.238H153.663V66ZM161.371 66H160.335V61.576C160.335 60.372 159.719 60.008 158.809 60.008C157.983 60.008 157.213 60.512 156.807 61.058V66H155.757V59.238H156.807V60.218C157.283 59.644 158.207 59.07 159.229 59.07C160.629 59.07 161.371 59.784 161.371 61.254V66ZM166.548 66.168C164.532 66.168 163.09 64.726 163.09 62.612C163.09 60.652 164.49 59.07 166.422 59.07C168.466 59.07 169.67 60.666 169.67 62.696V62.962H164.21C164.294 64.236 165.176 65.3 166.632 65.3C167.416 65.3 168.186 64.992 168.732 64.432L169.236 65.118C168.55 65.79 167.64 66.168 166.548 66.168ZM168.634 62.178C168.62 61.184 167.948 59.938 166.408 59.938C164.966 59.938 164.252 61.156 164.196 62.178H168.634ZM180.271 66H179.221V65.23C178.675 65.846 177.891 66.168 176.981 66.168C175.847 66.168 174.629 65.398 174.629 63.928C174.629 62.402 175.833 61.702 176.981 61.702C177.905 61.702 178.675 61.996 179.221 62.612V61.394C179.221 60.498 178.493 59.98 177.513 59.98C176.701 59.98 176.043 60.26 175.441 60.918L174.951 60.19C175.679 59.434 176.547 59.07 177.653 59.07C179.095 59.07 180.271 59.714 180.271 61.352V66ZM177.373 65.412C178.101 65.412 178.815 65.132 179.221 64.572V63.284C178.815 62.738 178.101 62.458 177.373 62.458C176.379 62.458 175.693 63.074 175.693 63.928C175.693 64.796 176.379 65.412 177.373 65.412ZM188.004 66H186.968V61.576C186.968 60.372 186.352 60.008 185.442 60.008C184.616 60.008 183.846 60.512 183.44 61.058V66H182.39V59.238H183.44V60.218C183.916 59.644 184.84 59.07 185.862 59.07C187.262 59.07 188.004 59.784 188.004 61.254V66ZM196.064 66H195.014V64.992C194.51 65.678 193.684 66.168 192.732 66.168C190.968 66.168 189.722 64.824 189.722 62.626C189.722 60.456 190.968 59.07 192.732 59.07C193.642 59.07 194.468 59.518 195.014 60.26V56.662H196.064V66ZM192.998 65.23C193.824 65.23 194.65 64.74 195.014 64.152V61.1C194.65 60.512 193.824 60.008 192.998 60.008C191.626 60.008 190.814 61.128 190.814 62.626C190.814 64.124 191.626 65.23 192.998 65.23ZM197.943 66.28H197.117L200.435 56.382H201.261L197.943 66.28ZM205.264 66.168C203.206 66.168 201.918 64.572 201.918 62.612C201.918 60.652 203.206 59.07 205.264 59.07C207.322 59.07 208.61 60.652 208.61 62.612C208.61 64.572 207.322 66.168 205.264 66.168ZM205.264 65.23C206.706 65.23 207.504 63.998 207.504 62.612C207.504 61.24 206.706 60.008 205.264 60.008C203.822 60.008 203.024 61.24 203.024 62.612C203.024 63.998 203.822 65.23 205.264 65.23ZM211.371 66H210.321V59.238H211.371V60.316C211.917 59.616 212.701 59.084 213.625 59.084V60.162C213.499 60.148 213.373 60.134 213.219 60.134C212.561 60.134 211.679 60.666 211.371 61.212V66ZM220.288 66.168C219.28 66.168 218.776 65.594 218.776 64.586V60.162H217.656V59.238H218.776V57.39H219.84V59.238H221.212V60.162H219.84V64.362C219.84 64.866 220.064 65.23 220.512 65.23C220.82 65.23 221.086 65.09 221.226 64.936L221.534 65.734C221.268 65.986 220.89 66.168 220.288 66.168ZM225.635 66.168C223.577 66.168 222.289 64.572 222.289 62.612C222.289 60.652 223.577 59.07 225.635 59.07C227.693 59.07 228.981 60.652 228.981 62.612C228.981 64.572 227.693 66.168 225.635 66.168ZM225.635 65.23C227.077 65.23 227.875 63.998 227.875 62.612C227.875 61.24 227.077 60.008 225.635 60.008C224.193 60.008 223.395 61.24 223.395 62.612C223.395 63.998 224.193 65.23 225.635 65.23ZM231.743 64.166C232.107 64.754 232.933 65.23 233.773 65.23C235.131 65.23 235.943 64.124 235.943 62.626C235.943 61.128 235.131 60.008 233.773 60.008C232.933 60.008 232.107 60.512 231.743 61.1V64.166ZM231.743 66H230.693V56.662H231.743V60.26C232.289 59.518 233.115 59.07 234.025 59.07C235.803 59.07 237.035 60.456 237.035 62.626C237.035 64.824 235.789 66.168 234.025 66.168C233.073 66.168 232.247 65.678 231.743 64.992V66ZM244.023 66H242.973V65.23C242.427 65.846 241.643 66.168 240.733 66.168C239.599 66.168 238.381 65.398 238.381 63.928C238.381 62.402 239.585 61.702 240.733 61.702C241.657 61.702 242.427 61.996 242.973 62.612V61.394C242.973 60.498 242.245 59.98 241.265 59.98C240.453 59.98 239.795 60.26 239.193 60.918L238.703 60.19C239.431 59.434 240.299 59.07 241.405 59.07C242.847 59.07 244.023 59.714 244.023 61.352V66ZM241.125 65.412C241.853 65.412 242.567 65.132 242.973 64.572V63.284C242.567 62.738 241.853 62.458 241.125 62.458C240.131 62.458 239.445 63.074 239.445 63.928C239.445 64.796 240.131 65.412 241.125 65.412ZM249.124 66.168C247.108 66.168 245.75 64.614 245.75 62.612C245.75 60.61 247.108 59.07 249.124 59.07C250.356 59.07 251.084 59.574 251.602 60.246L250.902 60.876C250.454 60.26 249.88 60.008 249.18 60.008C247.752 60.008 246.842 61.114 246.842 62.612C246.842 64.11 247.752 65.23 249.18 65.23C249.88 65.23 250.454 64.95 250.902 64.348L251.602 64.992C251.084 65.664 250.356 66.168 249.124 66.168ZM256.069 66.168C254.053 66.168 252.695 64.614 252.695 62.612C252.695 60.61 254.053 59.07 256.069 59.07C257.301 59.07 258.029 59.574 258.547 60.246L257.847 60.876C257.399 60.26 256.825 60.008 256.125 60.008C254.697 60.008 253.787 61.114 253.787 62.612C253.787 64.11 254.697 65.23 256.125 65.23C256.825 65.23 257.399 64.95 257.847 64.348L258.547 64.992C258.029 65.664 257.301 66.168 256.069 66.168ZM262.986 66.168C260.928 66.168 259.64 64.572 259.64 62.612C259.64 60.652 260.928 59.07 262.986 59.07C265.044 59.07 266.332 60.652 266.332 62.612C266.332 64.572 265.044 66.168 262.986 66.168ZM262.986 65.23C264.428 65.23 265.226 63.998 265.226 62.612C265.226 61.24 264.428 60.008 262.986 60.008C261.544 60.008 260.746 61.24 260.746 62.612C260.746 63.998 261.544 65.23 262.986 65.23ZM274.621 66.168C272.563 66.168 271.275 64.572 271.275 62.612C271.275 60.652 272.563 59.07 274.621 59.07C276.679 59.07 277.967 60.652 277.967 62.612C277.967 64.572 276.679 66.168 274.621 66.168ZM274.621 65.23C276.063 65.23 276.861 63.998 276.861 62.612C276.861 61.24 276.063 60.008 274.621 60.008C273.179 60.008 272.381 61.24 272.381 62.612C272.381 63.998 273.179 65.23 274.621 65.23ZM280.729 66H279.679V59.238H280.729V60.316C281.275 59.616 282.059 59.084 282.983 59.084V60.162C282.857 60.148 282.731 60.134 282.577 60.134C281.919 60.134 281.037 60.666 280.729 61.212V66ZM16.116 80.168C14.1 80.168 12.658 78.726 12.658 76.612C12.658 74.652 14.058 73.07 15.99 73.07C18.034 73.07 19.238 74.666 19.238 76.696V76.962H13.778C13.862 78.236 14.744 79.3 16.2 79.3C16.984 79.3 17.754 78.992 18.3 78.432L18.804 79.118C18.118 79.79 17.208 80.168 16.116 80.168ZM18.202 76.178C18.188 75.184 17.516 73.938 15.976 73.938C14.534 73.938 13.82 75.156 13.764 76.178H18.202ZM26.5527 80H25.5167V75.576C25.5167 74.372 24.9007 74.008 23.9907 74.008C23.1647 74.008 22.3947 74.512 21.9887 75.058V80H20.9387V73.238H21.9887V74.218C22.4647 73.644 23.3887 73.07 24.4107 73.07C25.8107 73.07 26.5527 73.784 26.5527 75.254V80ZM31.3793 82.744C30.2453 82.744 29.4613 82.52 28.6493 81.722L29.1813 80.966C29.7413 81.624 30.4133 81.876 31.3793 81.876C32.4993 81.876 33.5633 81.33 33.5633 79.902V78.88C33.0593 79.566 32.2333 80.084 31.2813 80.084C29.5173 80.084 28.2713 78.768 28.2713 76.584C28.2713 74.414 29.5033 73.07 31.2813 73.07C32.1913 73.07 33.0173 73.518 33.5633 74.26V73.238H34.6133V79.902C34.6133 82.044 33.0313 82.744 31.3793 82.744ZM31.5473 79.146C32.3733 79.146 33.1853 78.642 33.5633 78.054V75.086C33.1853 74.512 32.3733 74.008 31.5473 74.008C30.1753 74.008 29.3633 75.086 29.3633 76.584C29.3633 78.068 30.1753 79.146 31.5473 79.146ZM41.994 80H40.944V79.23C40.398 79.846 39.614 80.168 38.704 80.168C37.57 80.168 36.352 79.398 36.352 77.928C36.352 76.402 37.556 75.702 38.704 75.702C39.628 75.702 40.398 75.996 40.944 76.612V75.394C40.944 74.498 40.216 73.98 39.236 73.98C38.424 73.98 37.766 74.26 37.164 74.918L36.674 74.19C37.402 73.434 38.27 73.07 39.376 73.07C40.818 73.07 41.994 73.714 41.994 75.352V80ZM39.096 79.412C39.824 79.412 40.538 79.132 40.944 78.572V77.284C40.538 76.738 39.824 76.458 39.096 76.458C38.102 76.458 37.416 77.074 37.416 77.928C37.416 78.796 38.102 79.412 39.096 79.412ZM46.8285 82.744C45.6945 82.744 44.9105 82.52 44.0985 81.722L44.6305 80.966C45.1905 81.624 45.8625 81.876 46.8285 81.876C47.9485 81.876 49.0125 81.33 49.0125 79.902V78.88C48.5085 79.566 47.6825 80.084 46.7305 80.084C44.9665 80.084 43.7205 78.768 43.7205 76.584C43.7205 74.414 44.9525 73.07 46.7305 73.07C47.6405 73.07 48.4665 73.518 49.0125 74.26V73.238H50.0625V79.902C50.0625 82.044 48.4805 82.744 46.8285 82.744ZM46.9965 79.146C47.8225 79.146 48.6345 78.642 49.0125 78.054V75.086C48.6345 74.512 47.8225 74.008 46.9965 74.008C45.6245 74.008 44.8125 75.086 44.8125 76.584C44.8125 78.068 45.6245 79.146 46.9965 79.146ZM52.6972 72.272C52.3052 72.272 51.9832 71.964 51.9832 71.572C51.9832 71.18 52.3052 70.858 52.6972 70.858C53.0892 70.858 53.3972 71.18 53.3972 71.572C53.3972 71.964 53.0892 72.272 52.6972 72.272ZM53.2152 80H52.1652V73.238H53.2152V80ZM60.9238 80H59.8878V75.576C59.8878 74.372 59.2718 74.008 58.3618 74.008C57.5358 74.008 56.7658 74.512 56.3598 75.058V80H55.3098V73.238H56.3598V74.218C56.8358 73.644 57.7598 73.07 58.7818 73.07C60.1818 73.07 60.9238 73.784 60.9238 75.254V80ZM65.7504 82.744C64.6164 82.744 63.8324 82.52 63.0204 81.722L63.5524 80.966C64.1124 81.624 64.7844 81.876 65.7504 81.876C66.8704 81.876 67.9344 81.33 67.9344 79.902V78.88C67.4304 79.566 66.6044 80.084 65.6524 80.084C63.8884 80.084 62.6424 78.768 62.6424 76.584C62.6424 74.414 63.8744 73.07 65.6524 73.07C66.5624 73.07 67.3884 73.518 67.9344 74.26V73.238H68.9844V79.902C68.9844 82.044 67.4024 82.744 65.7504 82.744ZM65.9184 79.146C66.7444 79.146 67.5564 78.642 67.9344 78.054V75.086C67.5564 74.512 66.7444 74.008 65.9184 74.008C64.5464 74.008 63.7344 75.086 63.7344 76.584C63.7344 78.068 64.5464 79.146 65.9184 79.146ZM75.2422 72.272C74.8502 72.272 74.5282 71.964 74.5282 71.572C74.5282 71.18 74.8502 70.858 75.2422 70.858C75.6342 70.858 75.9422 71.18 75.9422 71.572C75.9422 71.964 75.6342 72.272 75.2422 72.272ZM75.7602 80H74.7102V73.238H75.7602V80ZM83.4687 80H82.4327V75.576C82.4327 74.372 81.8167 74.008 80.9067 74.008C80.0807 74.008 79.3107 74.512 78.9047 75.058V80H77.8547V73.238H78.9047V74.218C79.3807 73.644 80.3047 73.07 81.3267 73.07C82.7267 73.07 83.4687 73.784 83.4687 75.254V80ZM92.5343 80.168C91.6103 80.168 90.8123 79.72 90.2523 78.978V82.576H89.2023V73.238H90.2523V74.246C90.7423 73.56 91.5823 73.07 92.5343 73.07C94.3123 73.07 95.5443 74.414 95.5443 76.612C95.5443 78.796 94.3123 80.168 92.5343 80.168ZM92.2683 79.23C93.6263 79.23 94.4383 78.11 94.4383 76.612C94.4383 75.114 93.6263 74.008 92.2683 74.008C91.4423 74.008 90.6163 74.498 90.2523 75.086V78.138C90.6163 78.726 91.4423 79.23 92.2683 79.23ZM102.842 80H101.792V75.548C101.792 74.344 101.19 74.008 100.266 74.008C99.4541 74.008 98.6701 74.512 98.2781 75.058V80H97.2281V70.662H98.2781V74.218C98.7401 73.644 99.6641 73.07 100.686 73.07C102.1 73.07 102.842 73.756 102.842 75.226V80ZM104.575 82.646L104.729 81.694C104.883 81.764 105.135 81.806 105.303 81.806C105.765 81.806 106.073 81.652 106.311 81.092L106.759 80.07L103.931 73.238H105.079L107.319 78.782L109.573 73.238H110.707L107.319 81.372C106.913 82.352 106.227 82.73 105.331 82.744C105.107 82.744 104.757 82.702 104.575 82.646ZM113.958 80.168C112.838 80.168 111.914 79.818 111.228 79.104L111.76 78.348C112.208 78.866 113.062 79.314 113.986 79.314C115.022 79.314 115.596 78.824 115.596 78.152C115.596 76.514 111.41 77.522 111.41 75.016C111.41 73.952 112.306 73.07 113.916 73.07C115.078 73.07 115.89 73.504 116.422 74.05L115.932 74.778C115.526 74.288 114.798 73.924 113.916 73.924C112.992 73.924 112.418 74.386 112.418 74.988C112.418 76.458 116.604 75.492 116.604 78.124C116.604 79.258 115.694 80.168 113.958 80.168ZM118.842 72.272C118.45 72.272 118.128 71.964 118.128 71.572C118.128 71.18 118.45 70.858 118.842 70.858C119.234 70.858 119.542 71.18 119.542 71.572C119.542 71.964 119.234 72.272 118.842 72.272ZM119.36 80H118.31V73.238H119.36V80ZM124.436 80.168C122.42 80.168 121.062 78.614 121.062 76.612C121.062 74.61 122.42 73.07 124.436 73.07C125.668 73.07 126.396 73.574 126.914 74.246L126.214 74.876C125.766 74.26 125.192 74.008 124.492 74.008C123.064 74.008 122.154 75.114 122.154 76.612C122.154 78.11 123.064 79.23 124.492 79.23C125.192 79.23 125.766 78.95 126.214 78.348L126.914 78.992C126.396 79.664 125.668 80.168 124.436 80.168ZM133.678 80H132.628V79.23C132.082 79.846 131.298 80.168 130.388 80.168C129.254 80.168 128.036 79.398 128.036 77.928C128.036 76.402 129.24 75.702 130.388 75.702C131.312 75.702 132.082 75.996 132.628 76.612V75.394C132.628 74.498 131.9 73.98 130.92 73.98C130.108 73.98 129.45 74.26 128.848 74.918L128.358 74.19C129.086 73.434 129.954 73.07 131.06 73.07C132.502 73.07 133.678 73.714 133.678 75.352V80ZM130.78 79.412C131.508 79.412 132.222 79.132 132.628 78.572V77.284C132.222 76.738 131.508 76.458 130.78 76.458C129.786 76.458 129.1 77.074 129.1 77.928C129.1 78.796 129.786 79.412 130.78 79.412ZM136.846 80H135.796V70.662H136.846V80ZM147.842 80H146.792V79.23C146.246 79.846 145.462 80.168 144.552 80.168C143.418 80.168 142.2 79.398 142.2 77.928C142.2 76.402 143.404 75.702 144.552 75.702C145.476 75.702 146.246 75.996 146.792 76.612V75.394C146.792 74.498 146.064 73.98 145.084 73.98C144.272 73.98 143.614 74.26 143.012 74.918L142.522 74.19C143.25 73.434 144.118 73.07 145.224 73.07C146.666 73.07 147.842 73.714 147.842 75.352V80ZM144.944 79.412C145.672 79.412 146.386 79.132 146.792 78.572V77.284C146.386 76.738 145.672 76.458 144.944 76.458C143.95 76.458 143.264 77.074 143.264 77.928C143.264 78.796 143.95 79.412 144.944 79.412ZM152.942 80.168C150.926 80.168 149.568 78.614 149.568 76.612C149.568 74.61 150.926 73.07 152.942 73.07C154.174 73.07 154.902 73.574 155.42 74.246L154.72 74.876C154.272 74.26 153.698 74.008 152.998 74.008C151.57 74.008 150.66 75.114 150.66 76.612C150.66 78.11 151.57 79.23 152.998 79.23C153.698 79.23 154.272 78.95 154.72 78.348L155.42 78.992C154.902 79.664 154.174 80.168 152.942 80.168ZM158.627 80.168C157.619 80.168 157.115 79.594 157.115 78.586V74.162H155.995V73.238H157.115V71.39H158.179V73.238H159.551V74.162H158.179V78.362C158.179 78.866 158.403 79.23 158.851 79.23C159.159 79.23 159.425 79.09 159.565 78.936L159.873 79.734C159.607 79.986 159.229 80.168 158.627 80.168ZM161.553 72.272C161.161 72.272 160.839 71.964 160.839 71.572C160.839 71.18 161.161 70.858 161.553 70.858C161.945 70.858 162.253 71.18 162.253 71.572C162.253 71.964 161.945 72.272 161.553 72.272ZM162.071 80H161.021V73.238H162.071V80ZM167.119 80H165.971L163.157 73.238H164.305L166.545 78.782L168.799 73.238H169.933L167.119 80ZM171.561 72.272C171.169 72.272 170.847 71.964 170.847 71.572C170.847 71.18 171.169 70.858 171.561 70.858C171.953 70.858 172.261 71.18 172.261 71.572C172.261 71.964 171.953 72.272 171.561 72.272ZM172.079 80H171.029V73.238H172.079V80ZM175.895 80.168C174.887 80.168 174.383 79.594 174.383 78.586V74.162H173.263V73.238H174.383V71.39H175.447V73.238H176.819V74.162H175.447V78.362C175.447 78.866 175.671 79.23 176.119 79.23C176.427 79.23 176.693 79.09 176.833 78.936L177.141 79.734C176.875 79.986 176.497 80.168 175.895 80.168ZM177.924 82.646L178.078 81.694C178.232 81.764 178.484 81.806 178.652 81.806C179.114 81.806 179.422 81.652 179.66 81.092L180.108 80.07L177.28 73.238H178.428L180.668 78.782L182.922 73.238H184.056L180.668 81.372C180.262 82.352 179.576 82.73 178.68 82.744C178.456 82.744 178.106 82.702 177.924 82.646ZM189.825 78.166C190.189 78.754 191.015 79.23 191.855 79.23C193.213 79.23 194.025 78.124 194.025 76.626C194.025 75.128 193.213 74.008 191.855 74.008C191.015 74.008 190.189 74.512 189.825 75.1V78.166ZM189.825 80H188.775V70.662H189.825V74.26C190.371 73.518 191.197 73.07 192.107 73.07C193.885 73.07 195.117 74.456 195.117 76.626C195.117 78.824 193.871 80.168 192.107 80.168C191.155 80.168 190.329 79.678 189.825 78.992V80ZM199.893 80.168C197.877 80.168 196.435 78.726 196.435 76.612C196.435 74.652 197.835 73.07 199.767 73.07C201.811 73.07 203.015 74.666 203.015 76.696V76.962H197.555C197.639 78.236 198.521 79.3 199.977 79.3C200.761 79.3 201.531 78.992 202.077 78.432L202.581 79.118C201.895 79.79 200.985 80.168 199.893 80.168ZM201.979 76.178C201.965 75.184 201.293 73.938 199.753 73.938C198.311 73.938 197.597 75.156 197.541 76.178H201.979ZM206.06 80H205.01V74.162H203.89V73.238H205.01V72.72C205.01 71.334 205.78 70.522 206.97 70.522C207.516 70.522 207.978 70.648 208.398 71.04L207.964 71.712C207.74 71.516 207.474 71.39 207.138 71.39C206.438 71.39 206.06 71.852 206.06 72.72V73.238H207.432V74.162H206.06V80ZM211.649 80.168C209.591 80.168 208.303 78.572 208.303 76.612C208.303 74.652 209.591 73.07 211.649 73.07C213.707 73.07 214.995 74.652 214.995 76.612C214.995 78.572 213.707 80.168 211.649 80.168ZM211.649 79.23C213.091 79.23 213.889 77.998 213.889 76.612C213.889 75.24 213.091 74.008 211.649 74.008C210.207 74.008 209.409 75.24 209.409 76.612C209.409 77.998 210.207 79.23 211.649 79.23ZM217.756 80H216.706V73.238H217.756V74.316C218.302 73.616 219.086 73.084 220.01 73.084V74.162C219.884 74.148 219.758 74.134 219.604 74.134C218.946 74.134 218.064 74.666 217.756 75.212V80ZM224.393 80.168C222.377 80.168 220.935 78.726 220.935 76.612C220.935 74.652 222.335 73.07 224.267 73.07C226.311 73.07 227.515 74.666 227.515 76.696V76.962H222.055C222.139 78.236 223.021 79.3 224.477 79.3C225.261 79.3 226.031 78.992 226.577 78.432L227.081 79.118C226.395 79.79 225.485 80.168 224.393 80.168ZM226.479 76.178C226.465 75.184 225.793 73.938 224.253 73.938C222.811 73.938 222.097 75.156 222.041 76.178H226.479ZM238.453 80H237.403V79.048C236.885 79.636 236.003 80.168 234.995 80.168C233.581 80.168 232.839 79.468 232.839 78.012V73.238H233.889V77.69C233.889 78.88 234.491 79.23 235.415 79.23C236.227 79.23 237.011 78.754 237.403 78.208V73.238H238.453V80ZM242.706 80.168C241.586 80.168 240.662 79.818 239.976 79.104L240.508 78.348C240.956 78.866 241.81 79.314 242.734 79.314C243.77 79.314 244.344 78.824 244.344 78.152C244.344 76.514 240.158 77.522 240.158 75.016C240.158 73.952 241.054 73.07 242.664 73.07C243.826 73.07 244.638 73.504 245.17 74.05L244.68 74.778C244.274 74.288 243.546 73.924 242.664 73.924C241.74 73.924 241.166 74.386 241.166 74.988C241.166 76.458 245.352 75.492 245.352 78.124C245.352 79.258 244.442 80.168 242.706 80.168ZM247.59 72.272C247.198 72.272 246.876 71.964 246.876 71.572C246.876 71.18 247.198 70.858 247.59 70.858C247.982 70.858 248.29 71.18 248.29 71.572C248.29 71.964 247.982 72.272 247.59 72.272ZM248.108 80H247.058V73.238H248.108V80ZM255.816 80H254.78V75.576C254.78 74.372 254.164 74.008 253.254 74.008C252.428 74.008 251.658 74.512 251.252 75.058V80H250.202V73.238H251.252V74.218C251.728 73.644 252.652 73.07 253.674 73.07C255.074 73.07 255.816 73.784 255.816 75.254V80ZM260.643 82.744C259.509 82.744 258.725 82.52 257.913 81.722L258.445 80.966C259.005 81.624 259.677 81.876 260.643 81.876C261.763 81.876 262.827 81.33 262.827 79.902V78.88C262.323 79.566 261.497 80.084 260.545 80.084C258.781 80.084 257.535 78.768 257.535 76.584C257.535 74.414 258.767 73.07 260.545 73.07C261.455 73.07 262.281 73.518 262.827 74.26V73.238H263.877V79.902C263.877 82.044 262.295 82.744 260.643 82.744ZM260.811 79.146C261.637 79.146 262.449 78.642 262.827 78.054V75.086C262.449 74.512 261.637 74.008 260.811 74.008C259.439 74.008 258.627 75.086 258.627 76.584C258.627 78.068 259.439 79.146 260.811 79.146ZM271.325 80.168C270.317 80.168 269.813 79.594 269.813 78.586V74.162H268.693V73.238H269.813V71.39H270.877V73.238H272.249V74.162H270.877V78.362C270.877 78.866 271.101 79.23 271.549 79.23C271.857 79.23 272.123 79.09 272.263 78.936L272.571 79.734C272.305 79.986 271.927 80.168 271.325 80.168ZM279.346 80H278.296V75.548C278.296 74.344 277.694 74.008 276.77 74.008C275.958 74.008 275.174 74.512 274.782 75.058V80H273.732V70.662H274.782V74.218C275.244 73.644 276.168 73.07 277.19 73.07C278.604 73.07 279.346 73.756 279.346 75.226V80ZM284.509 80.168C282.493 80.168 281.051 78.726 281.051 76.612C281.051 74.652 282.451 73.07 284.383 73.07C286.427 73.07 287.631 74.666 287.631 76.696V76.962H282.171C282.255 78.236 283.137 79.3 284.593 79.3C285.377 79.3 286.147 78.992 286.693 78.432L287.197 79.118C286.511 79.79 285.601 80.168 284.509 80.168ZM286.595 76.178C286.581 75.184 285.909 73.938 284.369 73.938C282.927 73.938 282.213 75.156 282.157 76.178H286.595ZM14.394 94H13.344V88.162H12.224V87.238H13.344V86.72C13.344 85.334 14.114 84.522 15.304 84.522C15.85 84.522 16.312 84.648 16.732 85.04L16.298 85.712C16.074 85.516 15.808 85.39 15.472 85.39C14.772 85.39 14.394 85.852 14.394 86.72V87.238H15.766V88.162H14.394V94ZM20.0945 94.168C18.0785 94.168 16.6365 92.726 16.6365 90.612C16.6365 88.652 18.0365 87.07 19.9685 87.07C22.0125 87.07 23.2165 88.666 23.2165 90.696V90.962H17.7565C17.8405 92.236 18.7225 93.3 20.1785 93.3C20.9625 93.3 21.7325 92.992 22.2785 92.432L22.7825 93.118C22.0965 93.79 21.1865 94.168 20.0945 94.168ZM22.1805 90.178C22.1665 89.184 21.4945 87.938 19.9545 87.938C18.5125 87.938 17.7985 89.156 17.7425 90.178H22.1805ZM30.1952 94H29.1452V93.23C28.5992 93.846 27.8152 94.168 26.9052 94.168C25.7712 94.168 24.5532 93.398 24.5532 91.928C24.5532 90.402 25.7572 89.702 26.9052 89.702C27.8292 89.702 28.5992 89.996 29.1452 90.612V89.394C29.1452 88.498 28.4172 87.98 27.4372 87.98C26.6252 87.98 25.9672 88.26 25.3652 88.918L24.8752 88.19C25.6032 87.434 26.4712 87.07 27.5772 87.07C29.0192 87.07 30.1952 87.714 30.1952 89.352V94ZM27.2972 93.412C28.0252 93.412 28.7392 93.132 29.1452 92.572V91.284C28.7392 90.738 28.0252 90.458 27.2972 90.458C26.3032 90.458 25.6172 91.074 25.6172 91.928C25.6172 92.796 26.3032 93.412 27.2972 93.412ZM34.0357 94.168C33.0277 94.168 32.5237 93.594 32.5237 92.586V88.162H31.4037V87.238H32.5237V85.39H33.5877V87.238H34.9597V88.162H33.5877V92.362C33.5877 92.866 33.8117 93.23 34.2597 93.23C34.5677 93.23 34.8337 93.09 34.9737 92.936L35.2817 93.734C35.0157 93.986 34.6377 94.168 34.0357 94.168ZM42.0429 94H40.9929V93.048C40.4749 93.636 39.5929 94.168 38.5849 94.168C37.1709 94.168 36.4289 93.468 36.4289 92.012V87.238H37.4789V91.69C37.4789 92.88 38.0809 93.23 39.0049 93.23C39.8169 93.23 40.6009 92.754 40.9929 92.208V87.238H42.0429V94ZM45.1898 94H44.1398V87.238H45.1898V88.316C45.7358 87.616 46.5198 87.084 47.4438 87.084V88.162C47.3178 88.148 47.1918 88.134 47.0378 88.134C46.3798 88.134 45.4978 88.666 45.1898 89.212V94ZM51.8269 94.168C49.8109 94.168 48.3689 92.726 48.3689 90.612C48.3689 88.652 49.7689 87.07 51.7009 87.07C53.7449 87.07 54.9489 88.666 54.9489 90.696V90.962H49.4889C49.5729 92.236 50.4549 93.3 51.9109 93.3C52.6949 93.3 53.4649 92.992 54.0109 92.432L54.5149 93.118C53.8289 93.79 52.9189 94.168 51.8269 94.168ZM53.9129 90.178C53.8989 89.184 53.2269 87.938 51.6869 87.938C50.2449 87.938 49.5309 89.156 49.4749 90.178H53.9129ZM57.1139 94.14C56.6939 94.14 56.3439 93.79 56.3439 93.37C56.3439 92.95 56.6939 92.6 57.1139 92.6C57.5339 92.6 57.8839 92.95 57.8839 93.37C57.8839 93.79 57.5339 94.14 57.1139 94.14ZM3.02321 104.612C3.02321 105.424 2.33721 106.11 1.51121 106.11C0.685211 106.11 -0.000789002 105.424 -0.000789002 104.612C-0.000789002 103.786 0.685211 103.1 1.51121 103.1C2.33721 103.1 3.02321 103.786 3.02321 104.612ZM17.348 108H13.092V98.662H17.25C18.874 98.662 19.868 99.642 19.868 101.042C19.868 102.218 19.084 103.002 18.23 103.184C19.224 103.338 20.05 104.36 20.05 105.48C20.05 106.978 19.056 108 17.348 108ZM17.054 102.708C18.104 102.708 18.664 102.064 18.664 101.21C18.664 100.37 18.104 99.698 17.054 99.698H14.254V102.708H17.054ZM17.124 106.964C18.202 106.964 18.846 106.348 18.846 105.354C18.846 104.5 18.258 103.744 17.124 103.744H14.254V106.964H17.124ZM24.9207 108.168C22.9047 108.168 21.4627 106.726 21.4627 104.612C21.4627 102.652 22.8627 101.07 24.7947 101.07C26.8387 101.07 28.0427 102.666 28.0427 104.696V104.962H22.5827C22.6667 106.236 23.5487 107.3 25.0047 107.3C25.7887 107.3 26.5587 106.992 27.1047 106.432L27.6087 107.118C26.9227 107.79 26.0127 108.168 24.9207 108.168ZM27.0067 104.178C26.9927 103.184 26.3207 101.938 24.7807 101.938C23.3387 101.938 22.6247 103.156 22.5687 104.178H27.0067ZM33.8984 100.272C33.5064 100.272 33.1844 99.964 33.1844 99.572C33.1844 99.18 33.5064 98.858 33.8984 98.858C34.2904 98.858 34.5984 99.18 34.5984 99.572C34.5984 99.964 34.2904 100.272 33.8984 100.272ZM34.4164 108H33.3664V101.238H34.4164V108ZM42.1249 108H41.0889V103.576C41.0889 102.372 40.4729 102.008 39.5629 102.008C38.7369 102.008 37.9669 102.512 37.5609 103.058V108H36.5109V101.238H37.5609V102.218C38.0369 101.644 38.9609 101.07 39.9829 101.07C41.3829 101.07 42.1249 101.784 42.1249 103.254V108ZM53.1366 108H52.0866V107.23C51.5406 107.846 50.7566 108.168 49.8466 108.168C48.7126 108.168 47.4946 107.398 47.4946 105.928C47.4946 104.402 48.6986 103.702 49.8466 103.702C50.7706 103.702 51.5406 103.996 52.0866 104.612V103.394C52.0866 102.498 51.3586 101.98 50.3786 101.98C49.5666 101.98 48.9086 102.26 48.3066 102.918L47.8166 102.19C48.5446 101.434 49.4126 101.07 50.5186 101.07C51.9606 101.07 53.1366 101.714 53.1366 103.352V108ZM50.2386 107.412C50.9666 107.412 51.6806 107.132 52.0866 106.572V105.284C51.6806 104.738 50.9666 104.458 50.2386 104.458C49.2446 104.458 48.5586 105.074 48.5586 105.928C48.5586 106.796 49.2446 107.412 50.2386 107.412ZM59.9281 108H58.8781V101.238H59.9281V102.316C60.4741 101.616 61.2581 101.084 62.1821 101.084V102.162C62.0561 102.148 61.9301 102.134 61.7761 102.134C61.1181 102.134 60.2361 102.666 59.9281 103.212V108ZM66.5652 108.168C64.5492 108.168 63.1072 106.726 63.1072 104.612C63.1072 102.652 64.5072 101.07 66.4392 101.07C68.4832 101.07 69.6872 102.666 69.6872 104.696V104.962H64.2272C64.3112 106.236 65.1932 107.3 66.6492 107.3C67.4332 107.3 68.2032 106.992 68.7492 106.432L69.2532 107.118C68.5672 107.79 67.6572 108.168 66.5652 108.168ZM68.6512 104.178C68.6372 103.184 67.9652 101.938 66.4252 101.938C64.9832 101.938 64.2692 103.156 64.2132 104.178H68.6512ZM72.4379 108H71.3879V98.662H72.4379V108ZM79.8104 108H78.7604V107.23C78.2144 107.846 77.4304 108.168 76.5204 108.168C75.3864 108.168 74.1684 107.398 74.1684 105.928C74.1684 104.402 75.3724 103.702 76.5204 103.702C77.4444 103.702 78.2144 103.996 78.7604 104.612V103.394C78.7604 102.498 78.0324 101.98 77.0524 101.98C76.2404 101.98 75.5824 102.26 74.9804 102.918L74.4904 102.19C75.2184 101.434 76.0864 101.07 77.1924 101.07C78.6344 101.07 79.8104 101.714 79.8104 103.352V108ZM76.9124 107.412C77.6404 107.412 78.3544 107.132 78.7604 106.572V105.284C78.3544 104.738 77.6404 104.458 76.9124 104.458C75.9184 104.458 75.2324 105.074 75.2324 105.928C75.2324 106.796 75.9184 107.412 76.9124 107.412ZM87.5289 108H86.3249L84.2809 105.228L82.2509 108H81.0469L83.6369 104.528L81.1869 101.238H82.4049L84.2809 103.814L86.1709 101.238H87.3749L84.9249 104.528L87.5289 108ZM91.2976 108.168C89.2816 108.168 87.8396 106.726 87.8396 104.612C87.8396 102.652 89.2396 101.07 91.1716 101.07C93.2156 101.07 94.4196 102.666 94.4196 104.696V104.962H88.9596C89.0436 106.236 89.9256 107.3 91.3816 107.3C92.1656 107.3 92.9356 106.992 93.4816 106.432L93.9856 107.118C93.2996 107.79 92.3896 108.168 91.2976 108.168ZM93.3836 104.178C93.3696 103.184 92.6976 101.938 91.1576 101.938C89.7156 101.938 89.0016 103.156 88.9456 104.178H93.3836ZM102.07 108H101.02V106.992C100.516 107.678 99.6903 108.168 98.7383 108.168C96.9743 108.168 95.7283 106.824 95.7283 104.626C95.7283 102.456 96.9743 101.07 98.7383 101.07C99.6483 101.07 100.474 101.518 101.02 102.26V98.662H102.07V108ZM99.0043 107.23C99.8303 107.23 100.656 106.74 101.02 106.152V103.1C100.656 102.512 99.8303 102.008 99.0043 102.008C97.6323 102.008 96.8203 103.128 96.8203 104.626C96.8203 106.124 97.6323 107.23 99.0043 107.23ZM113.074 108H112.024V107.23C111.478 107.846 110.694 108.168 109.784 108.168C108.65 108.168 107.432 107.398 107.432 105.928C107.432 104.402 108.636 103.702 109.784 103.702C110.708 103.702 111.478 103.996 112.024 104.612V103.394C112.024 102.498 111.296 101.98 110.316 101.98C109.504 101.98 108.846 102.26 108.244 102.918L107.754 102.19C108.482 101.434 109.35 101.07 110.456 101.07C111.898 101.07 113.074 101.714 113.074 103.352V108ZM110.176 107.412C110.904 107.412 111.618 107.132 112.024 106.572V105.284C111.618 104.738 110.904 104.458 110.176 104.458C109.182 104.458 108.496 105.074 108.496 105.928C108.496 106.796 109.182 107.412 110.176 107.412ZM120.807 108H119.771V103.576C119.771 102.372 119.155 102.008 118.245 102.008C117.419 102.008 116.649 102.512 116.243 103.058V108H115.193V101.238H116.243V102.218C116.719 101.644 117.643 101.07 118.665 101.07C120.065 101.07 120.807 101.784 120.807 103.254V108ZM128.867 108H127.817V106.992C127.313 107.678 126.487 108.168 125.535 108.168C123.771 108.168 122.525 106.824 122.525 104.626C122.525 102.456 123.771 101.07 125.535 101.07C126.445 101.07 127.271 101.518 127.817 102.26V98.662H128.867V108ZM125.801 107.23C126.627 107.23 127.453 106.74 127.817 106.152V103.1C127.453 102.512 126.627 102.008 125.801 102.008C124.429 102.008 123.617 103.128 123.617 104.626C123.617 106.124 124.429 107.23 125.801 107.23ZM137.435 107.23C138.261 107.23 139.087 106.726 139.451 106.138V103.086C139.087 102.498 138.261 102.008 137.435 102.008C136.077 102.008 135.265 103.114 135.265 104.612C135.265 106.11 136.077 107.23 137.435 107.23ZM137.169 108.168C135.391 108.168 134.159 106.796 134.159 104.612C134.159 102.414 135.391 101.07 137.169 101.07C138.121 101.07 138.961 101.56 139.451 102.246V101.238H140.501V110.576H139.451V106.978C138.891 107.72 138.093 108.168 137.169 108.168ZM148.219 108H147.169V107.048C146.651 107.636 145.769 108.168 144.761 108.168C143.347 108.168 142.605 107.468 142.605 106.012V101.238H143.655V105.69C143.655 106.88 144.257 107.23 145.181 107.23C145.993 107.23 146.777 106.754 147.169 106.208V101.238H148.219V108ZM150.848 100.272C150.456 100.272 150.134 99.964 150.134 99.572C150.134 99.18 150.456 98.858 150.848 98.858C151.24 98.858 151.548 99.18 151.548 99.572C151.548 99.964 151.24 100.272 150.848 100.272ZM151.366 108H150.316V101.238H151.366V108ZM156.526 108.168C154.51 108.168 153.068 106.726 153.068 104.612C153.068 102.652 154.468 101.07 156.4 101.07C158.444 101.07 159.648 102.666 159.648 104.696V104.962H154.188C154.272 106.236 155.154 107.3 156.61 107.3C157.394 107.3 158.164 106.992 158.71 106.432L159.214 107.118C158.528 107.79 157.618 108.168 156.526 108.168ZM158.612 104.178C158.598 103.184 157.926 101.938 156.386 101.938C154.944 101.938 154.23 103.156 154.174 104.178H158.612ZM163.071 108.168C162.063 108.168 161.559 107.594 161.559 106.586V102.162H160.439V101.238H161.559V99.39H162.623V101.238H163.995V102.162H162.623V106.362C162.623 106.866 162.847 107.23 163.295 107.23C163.603 107.23 163.869 107.09 164.009 106.936L164.317 107.734C164.051 107.986 163.673 108.168 163.071 108.168ZM172.153 108.168C170.137 108.168 168.695 106.726 168.695 104.612C168.695 102.652 170.095 101.07 172.027 101.07C174.071 101.07 175.275 102.666 175.275 104.696V104.962H169.815C169.899 106.236 170.781 107.3 172.237 107.3C173.021 107.3 173.791 106.992 174.337 106.432L174.841 107.118C174.155 107.79 173.245 108.168 172.153 108.168ZM174.239 104.178C174.225 103.184 173.553 101.938 172.013 101.938C170.571 101.938 169.857 103.156 169.801 104.178H174.239ZM182.59 108H181.554V103.576C181.554 102.372 180.938 102.008 180.028 102.008C179.202 102.008 178.432 102.512 178.026 103.058V108H176.976V101.238H178.026V102.218C178.502 101.644 179.426 101.07 180.448 101.07C181.848 101.07 182.59 101.784 182.59 103.254V108ZM187.654 108H186.506L183.692 101.238H184.84L187.08 106.782L189.334 101.238H190.468L187.654 108ZM192.096 100.272C191.704 100.272 191.382 99.964 191.382 99.572C191.382 99.18 191.704 98.858 192.096 98.858C192.488 98.858 192.796 99.18 192.796 99.572C192.796 99.964 192.488 100.272 192.096 100.272ZM192.614 108H191.564V101.238H192.614V108ZM195.758 108H194.708V101.238H195.758V102.316C196.304 101.616 197.088 101.084 198.012 101.084V102.162C197.886 102.148 197.76 102.134 197.606 102.134C196.948 102.134 196.066 102.666 195.758 103.212V108ZM202.283 108.168C200.225 108.168 198.937 106.572 198.937 104.612C198.937 102.652 200.225 101.07 202.283 101.07C204.341 101.07 205.629 102.652 205.629 104.612C205.629 106.572 204.341 108.168 202.283 108.168ZM202.283 107.23C203.725 107.23 204.523 105.998 204.523 104.612C204.523 103.24 203.725 102.008 202.283 102.008C200.841 102.008 200.043 103.24 200.043 104.612C200.043 105.998 200.841 107.23 202.283 107.23ZM212.955 108H211.919V103.576C211.919 102.372 211.303 102.008 210.393 102.008C209.567 102.008 208.797 102.512 208.391 103.058V108H207.341V101.238H208.391V102.218C208.867 101.644 209.791 101.07 210.813 101.07C212.213 101.07 212.955 101.784 212.955 103.254V108ZM224.278 108H223.228V103.408C223.228 102.554 222.864 102.008 221.982 102.008C221.282 102.008 220.54 102.498 220.19 103.044V108H219.14V103.408C219.14 102.554 218.79 102.008 217.894 102.008C217.208 102.008 216.48 102.512 216.116 103.058V108H215.066V101.238H216.116V102.218C216.41 101.784 217.306 101.07 218.314 101.07C219.336 101.07 219.924 101.63 220.12 102.33C220.498 101.714 221.408 101.07 222.388 101.07C223.62 101.07 224.278 101.756 224.278 103.114V108ZM229.438 108.168C227.422 108.168 225.98 106.726 225.98 104.612C225.98 102.652 227.38 101.07 229.312 101.07C231.356 101.07 232.56 102.666 232.56 104.696V104.962H227.1C227.184 106.236 228.066 107.3 229.522 107.3C230.306 107.3 231.076 106.992 231.622 106.432L232.126 107.118C231.44 107.79 230.53 108.168 229.438 108.168ZM231.524 104.178C231.51 103.184 230.838 101.938 229.298 101.938C227.856 101.938 227.142 103.156 227.086 104.178H231.524ZM239.875 108H238.839V103.576C238.839 102.372 238.223 102.008 237.313 102.008C236.487 102.008 235.717 102.512 235.311 103.058V108H234.261V101.238H235.311V102.218C235.787 101.644 236.711 101.07 237.733 101.07C239.133 101.07 239.875 101.784 239.875 103.254V108ZM243.708 108.168C242.7 108.168 242.196 107.594 242.196 106.586V102.162H241.076V101.238H242.196V99.39H243.26V101.238H244.632V102.162H243.26V106.362C243.26 106.866 243.484 107.23 243.932 107.23C244.24 107.23 244.506 107.09 244.646 106.936L244.954 107.734C244.688 107.986 244.31 108.168 243.708 108.168ZM246.661 108.14C246.241 108.14 245.891 107.79 245.891 107.37C245.891 106.95 246.241 106.6 246.661 106.6C247.081 106.6 247.431 106.95 247.431 107.37C247.431 107.79 247.081 108.14 246.661 108.14Z" fill="#212121"/>
</svg>
