<svg width="304" height="83" viewBox="0 0 304 83" fill="none" xmlns="http://www.w3.org/2000/svg">
<path d="M3.02321 6.612C3.02321 7.424 2.33721 8.11 1.51121 8.11C0.685211 8.11 -0.000789002 7.424 -0.000789002 6.612C-0.000789002 5.786 0.685211 5.1 1.51121 5.1C2.33721 5.1 3.02321 5.786 3.02321 6.612ZM16.284 10H13.092V0.661999H16.284C19.196 0.661999 21.072 2.692 21.072 5.338C21.072 7.998 19.196 10 16.284 10ZM16.284 8.964C18.552 8.964 19.868 7.34 19.868 5.338C19.868 3.322 18.594 1.698 16.284 1.698H14.254V8.964H16.284ZM25.9187 10.168C23.9027 10.168 22.4607 8.726 22.4607 6.612C22.4607 4.652 23.8607 3.07 25.7927 3.07C27.8367 3.07 29.0407 4.666 29.0407 6.696V6.962H23.5807C23.6647 8.236 24.5467 9.3 26.0027 9.3C26.7867 9.3 27.5567 8.992 28.1027 8.432L28.6067 9.118C27.9207 9.79 27.0107 10.168 25.9187 10.168ZM28.0047 6.178C27.9907 5.184 27.3187 3.938 25.7787 3.938C24.3367 3.938 23.6227 5.156 23.5667 6.178H28.0047ZM31.7914 8.166C32.1554 8.754 32.9814 9.23 33.8214 9.23C35.1794 9.23 35.9914 8.124 35.9914 6.626C35.9914 5.128 35.1794 4.008 33.8214 4.008C32.9814 4.008 32.1554 4.512 31.7914 5.1V8.166ZM31.7914 10H30.7414V0.661999H31.7914V4.26C32.3374 3.518 33.1634 3.07 34.0734 3.07C35.8514 3.07 37.0834 4.456 37.0834 6.626C37.0834 8.824 35.8374 10.168 34.0734 10.168C33.1214 10.168 32.2954 9.678 31.7914 8.992V10ZM41.8601 10.168C39.8441 10.168 38.4021 8.726 38.4021 6.612C38.4021 4.652 39.8021 3.07 41.7341 3.07C43.7781 3.07 44.9821 4.666 44.9821 6.696V6.962H39.5221C39.6061 8.236 40.4881 9.3 41.9441 9.3C42.7281 9.3 43.4981 8.992 44.0441 8.432L44.5481 9.118C43.8621 9.79 42.9521 10.168 41.8601 10.168ZM43.9461 6.178C43.9321 5.184 43.2601 3.938 41.7201 3.938C40.2781 3.938 39.5641 5.156 39.5081 6.178H43.9461ZM48.8388 10.168C47.7188 10.168 46.7948 9.818 46.1088 9.104L46.6408 8.348C47.0888 8.866 47.9428 9.314 48.8668 9.314C49.9028 9.314 50.4768 8.824 50.4768 8.152C50.4768 6.514 46.2908 7.522 46.2908 5.016C46.2908 3.952 47.1868 3.07 48.7968 3.07C49.9588 3.07 50.7708 3.504 51.3028 4.05L50.8128 4.778C50.4068 4.288 49.6788 3.924 48.7968 3.924C47.8728 3.924 47.2988 4.386 47.2988 4.988C47.2988 6.458 51.4848 5.492 51.4848 8.124C51.4848 9.258 50.5748 10.168 48.8388 10.168ZM58.9697 10.168C57.8497 10.168 56.9257 9.818 56.2397 9.104L56.7717 8.348C57.2197 8.866 58.0737 9.314 58.9977 9.314C60.0337 9.314 60.6077 8.824 60.6077 8.152C60.6077 6.514 56.4217 7.522 56.4217 5.016C56.4217 3.952 57.3177 3.07 58.9277 3.07C60.0897 3.07 60.9017 3.504 61.4337 4.05L60.9437 4.778C60.5377 4.288 59.8097 3.924 58.9277 3.924C58.0037 3.924 57.4297 4.386 57.4297 4.988C57.4297 6.458 61.6157 5.492 61.6157 8.124C61.6157 9.258 60.7057 10.168 58.9697 10.168ZM66.3875 10.168C64.3715 10.168 62.9295 8.726 62.9295 6.612C62.9295 4.652 64.3295 3.07 66.2615 3.07C68.3055 3.07 69.5095 4.666 69.5095 6.696V6.962H64.0495C64.1335 8.236 65.0155 9.3 66.4715 9.3C67.2555 9.3 68.0255 8.992 68.5715 8.432L69.0755 9.118C68.3895 9.79 67.4795 10.168 66.3875 10.168ZM68.4735 6.178C68.4595 5.184 67.7875 3.938 66.2475 3.938C64.8055 3.938 64.0915 5.156 64.0355 6.178H68.4735ZM72.2602 10H71.2102V3.238H72.2602V4.316C72.8062 3.616 73.5902 3.084 74.5142 3.084V4.162C74.3882 4.148 74.2622 4.134 74.1082 4.134C73.4502 4.134 72.5682 4.666 72.2602 5.212V10ZM88.6663 10H87.6163V5.408C87.6163 4.554 87.2523 4.008 86.3703 4.008C85.6703 4.008 84.9283 4.498 84.5783 5.044V10H83.5283V5.408C83.5283 4.554 83.1783 4.008 82.2823 4.008C81.5963 4.008 80.8683 4.512 80.5043 5.058V10H79.4543V3.238H80.5043V4.218C80.7983 3.784 81.6943 3.07 82.7023 3.07C83.7243 3.07 84.3123 3.63 84.5083 4.33C84.8863 3.714 85.7963 3.07 86.7763 3.07C88.0083 3.07 88.6663 3.756 88.6663 5.114V10ZM96.0389 10H94.9889V9.23C94.4429 9.846 93.6589 10.168 92.7489 10.168C91.6149 10.168 90.3969 9.398 90.3969 7.928C90.3969 6.402 91.6009 5.702 92.7489 5.702C93.6729 5.702 94.4429 5.996 94.9889 6.612V5.394C94.9889 4.498 94.2609 3.98 93.2809 3.98C92.4689 3.98 91.8109 4.26 91.2089 4.918L90.7189 4.19C91.4469 3.434 92.3149 3.07 93.4209 3.07C94.8629 3.07 96.0389 3.714 96.0389 5.352V10ZM93.1409 9.412C93.8689 9.412 94.5829 9.132 94.9889 8.572V7.284C94.5829 6.738 93.8689 6.458 93.1409 6.458C92.1469 6.458 91.4609 7.074 91.4609 7.928C91.4609 8.796 92.1469 9.412 93.1409 9.412ZM97.7934 12.646L97.9474 11.694C98.1014 11.764 98.3534 11.806 98.5214 11.806C98.9834 11.806 99.2914 11.652 99.5294 11.092L99.9774 10.07L97.1494 3.238H98.2974L100.537 8.782L102.791 3.238H103.925L100.537 11.372C100.131 12.352 99.4454 12.73 98.5494 12.744C98.3254 12.744 97.9754 12.702 97.7934 12.646ZM107.975 10.168C105.917 10.168 104.629 8.572 104.629 6.612C104.629 4.652 105.917 3.07 107.975 3.07C110.033 3.07 111.321 4.652 111.321 6.612C111.321 8.572 110.033 10.168 107.975 10.168ZM107.975 9.23C109.417 9.23 110.215 7.998 110.215 6.612C110.215 5.24 109.417 4.008 107.975 4.008C106.533 4.008 105.735 5.24 105.735 6.612C105.735 7.998 106.533 9.23 107.975 9.23ZM114.082 10H113.032V3.238H114.082V4.316C114.628 3.616 115.412 3.084 116.336 3.084V4.162C116.21 4.148 116.084 4.134 115.93 4.134C115.272 4.134 114.39 4.666 114.082 5.212V10ZM127.227 10H126.177V8.992C125.673 9.678 124.847 10.168 123.895 10.168C122.131 10.168 120.885 8.824 120.885 6.626C120.885 4.456 122.131 3.07 123.895 3.07C124.805 3.07 125.631 3.518 126.177 4.26V0.661999H127.227V10ZM124.161 9.23C124.987 9.23 125.813 8.74 126.177 8.152V5.1C125.813 4.512 124.987 4.008 124.161 4.008C122.789 4.008 121.977 5.128 121.977 6.626C121.977 8.124 122.789 9.23 124.161 9.23ZM132.395 10.168C130.379 10.168 128.937 8.726 128.937 6.612C128.937 4.652 130.337 3.07 132.269 3.07C134.313 3.07 135.517 4.666 135.517 6.696V6.962H130.057C130.141 8.236 131.023 9.3 132.479 9.3C133.263 9.3 134.033 8.992 134.579 8.432L135.083 9.118C134.397 9.79 133.487 10.168 132.395 10.168ZM134.481 6.178C134.467 5.184 133.795 3.938 132.255 3.938C130.813 3.938 130.099 5.156 130.043 6.178H134.481ZM143.445 10H142.283V2.188L140.785 3.784L140.085 3.07L142.423 0.661999H143.445V10ZM148.609 10.168C146.761 10.168 145.263 9.23 145.263 7.634C145.263 6.388 146.327 5.534 147.489 5.184C146.411 4.876 145.417 4.162 145.417 2.944C145.417 1.264 147.055 0.521999 148.609 0.521999C150.149 0.521999 151.815 1.264 151.815 2.944C151.815 4.162 150.807 4.876 149.729 5.184C150.891 5.534 151.955 6.388 151.955 7.634C151.955 9.216 150.443 10.168 148.609 10.168ZM148.609 4.708C149.183 4.61 150.639 4.232 150.639 3.098C150.639 2.132 149.729 1.558 148.609 1.558C147.475 1.558 146.593 2.132 146.593 3.098C146.593 4.232 148.049 4.61 148.609 4.708ZM148.609 9.132C149.757 9.132 150.779 8.516 150.779 7.508C150.779 6.29 149.183 5.772 148.609 5.702C148.035 5.772 146.439 6.29 146.439 7.508C146.439 8.516 147.447 9.132 148.609 9.132ZM162.635 10H161.585V9.23C161.039 9.846 160.255 10.168 159.345 10.168C158.211 10.168 156.993 9.398 156.993 7.928C156.993 6.402 158.197 5.702 159.345 5.702C160.269 5.702 161.039 5.996 161.585 6.612V5.394C161.585 4.498 160.857 3.98 159.877 3.98C159.065 3.98 158.407 4.26 157.805 4.918L157.315 4.19C158.043 3.434 158.911 3.07 160.017 3.07C161.459 3.07 162.635 3.714 162.635 5.352V10ZM159.737 9.412C160.465 9.412 161.179 9.132 161.585 8.572V7.284C161.179 6.738 160.465 6.458 159.737 6.458C158.743 6.458 158.057 7.074 158.057 7.928C158.057 8.796 158.743 9.412 159.737 9.412ZM170.409 10H169.373V5.576C169.373 4.372 168.757 4.008 167.847 4.008C167.021 4.008 166.251 4.512 165.845 5.058V10H164.795V3.238H165.845V4.218C166.321 3.644 167.245 3.07 168.267 3.07C169.667 3.07 170.409 3.784 170.409 5.254V10ZM168.407 2.244C167.399 2.244 167.357 0.956 166.685 0.956C166.307 0.956 166.013 1.32 166.013 2.16H165.383C165.383 1.068 165.859 0.284 166.741 0.284C167.749 0.284 167.791 1.572 168.463 1.572C168.841 1.572 169.135 1.208 169.135 0.368H169.765C169.765 1.46 169.289 2.244 168.407 2.244ZM175.432 10.168C173.374 10.168 172.086 8.572 172.086 6.612C172.086 4.652 173.374 3.07 175.432 3.07C177.49 3.07 178.778 4.652 178.778 6.612C178.778 8.572 177.49 10.168 175.432 10.168ZM175.432 9.23C176.874 9.23 177.672 7.998 177.672 6.612C177.672 5.24 176.874 4.008 175.432 4.008C173.99 4.008 173.192 5.24 173.192 6.612C173.192 7.998 173.99 9.23 175.432 9.23ZM182.645 10.168C181.525 10.168 180.601 9.818 179.915 9.104L180.447 8.348C180.895 8.866 181.749 9.314 182.673 9.314C183.709 9.314 184.283 8.824 184.283 8.152C184.283 6.514 180.097 7.522 180.097 5.016C180.097 3.952 180.993 3.07 182.603 3.07C183.765 3.07 184.577 3.504 185.109 4.05L184.619 4.778C184.213 4.288 183.485 3.924 182.603 3.924C181.679 3.924 181.105 4.386 181.105 4.988C181.105 6.458 185.291 5.492 185.291 8.124C185.291 9.258 184.381 10.168 182.645 10.168ZM190.256 12.646L190.41 11.694C190.564 11.764 190.816 11.806 190.984 11.806C191.446 11.806 191.754 11.652 191.992 11.092L192.44 10.07L189.612 3.238H190.76L193 8.782L195.254 3.238H196.388L193 11.372C192.594 12.352 191.908 12.73 191.012 12.744C190.788 12.744 190.438 12.702 190.256 12.646ZM202.157 10H201.107V3.238H202.157V4.316C202.703 3.616 203.487 3.084 204.411 3.084V4.162C204.285 4.148 204.159 4.134 204.005 4.134C203.347 4.134 202.465 4.666 202.157 5.212V10ZM208.794 10.168C206.778 10.168 205.336 8.726 205.336 6.612C205.336 4.652 206.736 3.07 208.668 3.07C210.712 3.07 211.916 4.666 211.916 6.696V6.962H206.456C206.54 8.236 207.422 9.3 208.878 9.3C209.662 9.3 210.432 8.992 210.978 8.432L211.482 9.118C210.796 9.79 209.886 10.168 208.794 10.168ZM210.88 6.178C210.866 5.184 210.194 3.938 208.654 3.938C207.212 3.938 206.498 5.156 206.442 6.178H210.88ZM216.598 10.168C214.582 10.168 213.224 8.614 213.224 6.612C213.224 4.61 214.582 3.07 216.598 3.07C217.83 3.07 218.558 3.574 219.076 4.246L218.376 4.876C217.928 4.26 217.354 4.008 216.654 4.008C215.226 4.008 214.316 5.114 214.316 6.612C214.316 8.11 215.226 9.23 216.654 9.23C217.354 9.23 217.928 8.95 218.376 8.348L219.076 8.992C218.558 9.664 217.83 10.168 216.598 10.168ZM223.516 10.168C221.458 10.168 220.17 8.572 220.17 6.612C220.17 4.652 221.458 3.07 223.516 3.07C225.574 3.07 226.862 4.652 226.862 6.612C226.862 8.572 225.574 10.168 223.516 10.168ZM223.516 9.23C224.958 9.23 225.756 7.998 225.756 6.612C225.756 5.24 224.958 4.008 223.516 4.008C222.074 4.008 221.276 5.24 221.276 6.612C221.276 7.998 222.074 9.23 223.516 9.23ZM229.623 10H228.573V3.238H229.623V4.316C230.169 3.616 230.953 3.084 231.877 3.084V4.162C231.751 4.148 231.625 4.134 231.471 4.134C230.813 4.134 229.931 4.666 229.623 5.212V10ZM239.145 10H238.095V8.992C237.591 9.678 236.765 10.168 235.813 10.168C234.049 10.168 232.803 8.824 232.803 6.626C232.803 4.456 234.049 3.07 235.813 3.07C236.723 3.07 237.549 3.518 238.095 4.26V0.661999H239.145V10ZM236.079 9.23C236.905 9.23 237.731 8.74 238.095 8.152V5.1C237.731 4.512 236.905 4.008 236.079 4.008C234.707 4.008 233.895 5.128 233.895 6.626C233.895 8.124 234.707 9.23 236.079 9.23ZM246.525 10H245.475V9.23C244.929 9.846 244.145 10.168 243.235 10.168C242.101 10.168 240.883 9.398 240.883 7.928C240.883 6.402 242.087 5.702 243.235 5.702C244.159 5.702 244.929 5.996 245.475 6.612V5.394C245.475 4.498 244.747 3.98 243.767 3.98C242.955 3.98 242.297 4.26 241.695 4.918L241.205 4.19C241.933 3.434 242.801 3.07 243.907 3.07C245.349 3.07 246.525 3.714 246.525 5.352V10ZM243.627 9.412C244.355 9.412 245.069 9.132 245.475 8.572V7.284C245.069 6.738 244.355 6.458 243.627 6.458C242.633 6.458 241.947 7.074 241.947 7.928C241.947 8.796 242.633 9.412 243.627 9.412ZM249.694 10H248.644V3.238H249.694V4.316C250.24 3.616 251.024 3.084 251.948 3.084V4.162C251.822 4.148 251.696 4.134 251.542 4.134C250.884 4.134 250.002 4.666 249.694 5.212V10ZM259.73 9.23C260.556 9.23 261.382 8.726 261.746 8.138V5.086C261.382 4.498 260.556 4.008 259.73 4.008C258.372 4.008 257.56 5.114 257.56 6.612C257.56 8.11 258.372 9.23 259.73 9.23ZM259.464 10.168C257.686 10.168 256.454 8.796 256.454 6.612C256.454 4.414 257.686 3.07 259.464 3.07C260.416 3.07 261.256 3.56 261.746 4.246V3.238H262.796V12.576H261.746V8.978C261.186 9.72 260.388 10.168 259.464 10.168ZM270.514 10H269.464V9.048C268.946 9.636 268.064 10.168 267.056 10.168C265.642 10.168 264.9 9.468 264.9 8.012V3.238H265.95V7.69C265.95 8.88 266.552 9.23 267.476 9.23C268.288 9.23 269.072 8.754 269.464 8.208V3.238H270.514V10ZM275.677 10.168C273.661 10.168 272.219 8.726 272.219 6.612C272.219 4.652 273.619 3.07 275.551 3.07C277.595 3.07 278.799 4.666 278.799 6.696V6.962H273.339C273.423 8.236 274.305 9.3 275.761 9.3C276.545 9.3 277.315 8.992 277.861 8.432L278.365 9.118C277.679 9.79 276.769 10.168 275.677 10.168ZM277.763 6.178C277.749 5.184 277.077 3.938 275.537 3.938C274.095 3.938 273.381 5.156 273.325 6.178H277.763ZM285.172 10H284.122V0.661999H285.172V10ZM292.545 10H291.495V9.23C290.949 9.846 290.165 10.168 289.255 10.168C288.121 10.168 286.903 9.398 286.903 7.928C286.903 6.402 288.107 5.702 289.255 5.702C290.179 5.702 290.949 5.996 291.495 6.612V5.394C291.495 4.498 290.767 3.98 289.787 3.98C288.975 3.98 288.317 4.26 287.715 4.918L287.225 4.19C287.953 3.434 288.821 3.07 289.927 3.07C291.369 3.07 292.545 3.714 292.545 5.352V10ZM289.647 9.412C290.375 9.412 291.089 9.132 291.495 8.572V7.284C291.089 6.738 290.375 6.458 289.647 6.458C288.653 6.458 287.967 7.074 287.967 7.928C287.967 8.796 288.653 9.412 289.647 9.412ZM296.819 10.168C295.699 10.168 294.775 9.818 294.089 9.104L294.621 8.348C295.069 8.866 295.923 9.314 296.847 9.314C297.883 9.314 298.457 8.824 298.457 8.152C298.457 6.514 294.271 7.522 294.271 5.016C294.271 3.952 295.167 3.07 296.777 3.07C297.939 3.07 298.751 3.504 299.283 4.05L298.793 4.778C298.387 4.288 297.659 3.924 296.777 3.924C295.853 3.924 295.279 4.386 295.279 4.988C295.279 6.458 299.465 5.492 299.465 8.124C299.465 9.258 298.555 10.168 296.819 10.168ZM22.262 24H21.212V19.408C21.212 18.554 20.848 18.008 19.966 18.008C19.266 18.008 18.524 18.498 18.174 19.044V24H17.124V19.408C17.124 18.554 16.774 18.008 15.878 18.008C15.192 18.008 14.464 18.512 14.1 19.058V24H13.05V17.238H14.1V18.218C14.394 17.784 15.29 17.07 16.298 17.07C17.32 17.07 17.908 17.63 18.104 18.33C18.482 17.714 19.392 17.07 20.372 17.07C21.604 17.07 22.262 17.756 22.262 19.114V24ZM27.4226 24.168C25.4066 24.168 23.9646 22.726 23.9646 20.612C23.9646 18.652 25.3646 17.07 27.2966 17.07C29.3406 17.07 30.5446 18.666 30.5446 20.696V20.962H25.0846C25.1686 22.236 26.0506 23.3 27.5066 23.3C28.2906 23.3 29.0606 22.992 29.6066 22.432L30.1106 23.118C29.4246 23.79 28.5146 24.168 27.4226 24.168ZM29.5086 20.178C29.4946 19.184 28.8226 17.938 27.2826 17.938C25.8406 17.938 25.1266 19.156 25.0706 20.178H29.5086ZM38.1953 24H37.1453V22.992C36.6413 23.678 35.8153 24.168 34.8633 24.168C33.0993 24.168 31.8533 22.824 31.8533 20.626C31.8533 18.456 33.0993 17.07 34.8633 17.07C35.7733 17.07 36.5993 17.518 37.1453 18.26V14.662H38.1953V24ZM35.1293 23.23C35.9553 23.23 36.7813 22.74 37.1453 22.152V19.1C36.7813 18.512 35.9553 18.008 35.1293 18.008C33.7573 18.008 32.9453 19.128 32.9453 20.626C32.9453 22.124 33.7573 23.23 35.1293 23.23ZM40.83 16.272C40.438 16.272 40.116 15.964 40.116 15.572C40.116 15.18 40.438 14.858 40.83 14.858C41.222 14.858 41.53 15.18 41.53 15.572C41.53 15.964 41.222 16.272 40.83 16.272ZM41.348 24H40.298V17.238H41.348V24ZM46.4246 24.168C44.4086 24.168 43.0506 22.614 43.0506 20.612C43.0506 18.61 44.4086 17.07 46.4246 17.07C47.6566 17.07 48.3846 17.574 48.9026 18.246L48.2026 18.876C47.7546 18.26 47.1806 18.008 46.4806 18.008C45.0526 18.008 44.1426 19.114 44.1426 20.612C44.1426 22.11 45.0526 23.23 46.4806 23.23C47.1806 23.23 47.7546 22.95 48.2026 22.348L48.9026 22.992C48.3846 23.664 47.6566 24.168 46.4246 24.168ZM50.9199 16.272C50.5279 16.272 50.2059 15.964 50.2059 15.572C50.2059 15.18 50.5279 14.858 50.9199 14.858C51.3119 14.858 51.6199 15.18 51.6199 15.572C51.6199 15.964 51.3119 16.272 50.9199 16.272ZM51.4379 24H50.3879V17.238H51.4379V24ZM56.4864 24.168C54.4284 24.168 53.1404 22.572 53.1404 20.612C53.1404 18.652 54.4284 17.07 56.4864 17.07C58.5444 17.07 59.8324 18.652 59.8324 20.612C59.8324 22.572 58.5444 24.168 56.4864 24.168ZM56.4864 23.23C57.9284 23.23 58.7264 21.998 58.7264 20.612C58.7264 19.24 57.9284 18.008 56.4864 18.008C55.0444 18.008 54.2464 19.24 54.2464 20.612C54.2464 21.998 55.0444 23.23 56.4864 23.23ZM67.1581 24H66.1221V19.576C66.1221 18.372 65.5061 18.008 64.5961 18.008C63.7701 18.008 63.0001 18.512 62.5941 19.058V24H61.5441V17.238H62.5941V18.218C63.0701 17.644 63.9941 17.07 65.0161 17.07C66.4161 17.07 67.1581 17.784 67.1581 19.254V24ZM72.3347 24.168C70.3188 24.168 68.8768 22.726 68.8768 20.612C68.8768 18.652 70.2767 17.07 72.2088 17.07C74.2528 17.07 75.4568 18.666 75.4568 20.696V20.962H69.9968C70.0808 22.236 70.9628 23.3 72.4188 23.3C73.2028 23.3 73.9728 22.992 74.5188 22.432L75.0228 23.118C74.3368 23.79 73.4268 24.168 72.3347 24.168ZM74.4208 20.178C74.4068 19.184 73.7348 17.938 72.1948 17.938C70.7528 17.938 70.0388 19.156 69.9828 20.178H74.4208ZM79.3134 24.168C78.1934 24.168 77.2694 23.818 76.5834 23.104L77.1154 22.348C77.5634 22.866 78.4174 23.314 79.3414 23.314C80.3774 23.314 80.9514 22.824 80.9514 22.152C80.9514 20.514 76.7654 21.522 76.7654 19.016C76.7654 17.952 77.6614 17.07 79.2714 17.07C80.4334 17.07 81.2454 17.504 81.7774 18.05L81.2874 18.778C80.8814 18.288 80.1534 17.924 79.2714 17.924C78.3474 17.924 77.7734 18.386 77.7734 18.988C77.7734 20.458 81.9594 19.492 81.9594 22.124C81.9594 23.258 81.0494 24.168 79.3134 24.168ZM89.4443 24.168C88.3243 24.168 87.4003 23.818 86.7143 23.104L87.2463 22.348C87.6943 22.866 88.5483 23.314 89.4723 23.314C90.5083 23.314 91.0823 22.824 91.0823 22.152C91.0823 20.514 86.8963 21.522 86.8963 19.016C86.8963 17.952 87.7923 17.07 89.4023 17.07C90.5643 17.07 91.3763 17.504 91.9083 18.05L91.4183 18.778C91.0123 18.288 90.2843 17.924 89.4023 17.924C88.4783 17.924 87.9043 18.386 87.9043 18.988C87.9043 20.458 92.0903 19.492 92.0903 22.124C92.0903 23.258 91.1803 24.168 89.4443 24.168ZM96.7501 24.168C94.6921 24.168 93.4041 22.572 93.4041 20.612C93.4041 18.652 94.6921 17.07 96.7501 17.07C98.8081 17.07 100.096 18.652 100.096 20.612C100.096 22.572 98.8081 24.168 96.7501 24.168ZM96.7501 23.23C98.1921 23.23 98.9901 21.998 98.9901 20.612C98.9901 19.24 98.1921 18.008 96.7501 18.008C95.3081 18.008 94.5101 19.24 94.5101 20.612C94.5101 21.998 95.3081 23.23 96.7501 23.23ZM107.422 24H106.386V19.576C106.386 18.372 105.77 18.008 104.86 18.008C104.034 18.008 103.264 18.512 102.858 19.058V24H101.808V17.238H102.858V18.218C103.334 17.644 104.258 17.07 105.28 17.07C106.68 17.07 107.422 17.784 107.422 19.254V24ZM119.105 24H118.055V22.992C117.551 23.678 116.725 24.168 115.773 24.168C114.009 24.168 112.763 22.824 112.763 20.626C112.763 18.456 114.009 17.07 115.773 17.07C116.683 17.07 117.509 17.518 118.055 18.26V14.662H119.105V24ZM116.039 23.23C116.865 23.23 117.691 22.74 118.055 22.152V19.1C117.691 18.512 116.865 18.008 116.039 18.008C114.667 18.008 113.855 19.128 113.855 20.626C113.855 22.124 114.667 23.23 116.039 23.23ZM124.274 24.168C122.258 24.168 120.816 22.726 120.816 20.612C120.816 18.652 122.216 17.07 124.148 17.07C126.192 17.07 127.396 18.666 127.396 20.696V20.962H121.936C122.02 22.236 122.902 23.3 124.358 23.3C125.142 23.3 125.912 22.992 126.458 22.432L126.962 23.118C126.276 23.79 125.366 24.168 124.274 24.168ZM126.36 20.178C126.346 19.184 125.674 17.938 124.134 17.938C122.692 17.938 121.978 19.156 121.922 20.178H126.36ZM138.334 24H137.284V23.048C136.766 23.636 135.884 24.168 134.876 24.168C133.462 24.168 132.72 23.468 132.72 22.012V17.238H133.77V21.69C133.77 22.88 134.372 23.23 135.296 23.23C136.108 23.23 136.892 22.754 137.284 22.208V17.238H138.334V24ZM142.587 24.168C141.467 24.168 140.543 23.818 139.857 23.104L140.389 22.348C140.837 22.866 141.691 23.314 142.615 23.314C143.651 23.314 144.225 22.824 144.225 22.152C144.225 20.514 140.039 21.522 140.039 19.016C140.039 17.952 140.935 17.07 142.545 17.07C143.707 17.07 144.519 17.504 145.051 18.05L144.561 18.778C144.155 18.288 143.427 17.924 142.545 17.924C141.621 17.924 141.047 18.386 141.047 18.988C141.047 20.458 145.233 19.492 145.233 22.124C145.233 23.258 144.323 24.168 142.587 24.168ZM149.893 24.168C147.835 24.168 146.547 22.572 146.547 20.612C146.547 18.652 147.835 17.07 149.893 17.07C151.951 17.07 153.239 18.652 153.239 20.612C153.239 22.572 151.951 24.168 149.893 24.168ZM149.893 23.23C151.335 23.23 152.133 21.998 152.133 20.612C152.133 19.24 151.335 18.008 149.893 18.008C148.451 18.008 147.653 19.24 147.653 20.612C147.653 21.998 148.451 23.23 149.893 23.23ZM161.905 24.168C160.981 24.168 160.183 23.72 159.623 22.978V26.576H158.573V17.238H159.623V18.246C160.113 17.56 160.953 17.07 161.905 17.07C163.683 17.07 164.915 18.414 164.915 20.612C164.915 22.796 163.683 24.168 161.905 24.168ZM161.639 23.23C162.997 23.23 163.809 22.11 163.809 20.612C163.809 19.114 162.997 18.008 161.639 18.008C160.813 18.008 159.987 18.498 159.623 19.086V22.138C159.987 22.726 160.813 23.23 161.639 23.23ZM169.651 24.168C167.635 24.168 166.193 22.726 166.193 20.612C166.193 18.652 167.593 17.07 169.525 17.07C171.569 17.07 172.773 18.666 172.773 20.696V20.962H167.313C167.397 22.236 168.279 23.3 169.735 23.3C170.519 23.3 171.289 22.992 171.835 22.432L172.339 23.118C171.653 23.79 170.743 24.168 169.651 24.168ZM171.737 20.178C171.723 19.184 171.051 17.938 169.511 17.938C168.069 17.938 167.355 19.156 167.299 20.178H171.737ZM175.524 24H174.474V17.238H175.524V18.316C176.07 17.616 176.854 17.084 177.778 17.084V18.162C177.652 18.148 177.526 18.134 177.372 18.134C176.714 18.134 175.832 18.666 175.524 19.212V24ZM181.251 24.168C180.131 24.168 179.207 23.818 178.521 23.104L179.053 22.348C179.501 22.866 180.355 23.314 181.279 23.314C182.315 23.314 182.889 22.824 182.889 22.152C182.889 20.514 178.703 21.522 178.703 19.016C178.703 17.952 179.599 17.07 181.209 17.07C182.371 17.07 183.183 17.504 183.715 18.05L183.225 18.778C182.819 18.288 182.091 17.924 181.209 17.924C180.285 17.924 179.711 18.386 179.711 18.988C179.711 20.458 183.897 19.492 183.897 22.124C183.897 23.258 182.987 24.168 181.251 24.168ZM188.557 24.168C186.499 24.168 185.211 22.572 185.211 20.612C185.211 18.652 186.499 17.07 188.557 17.07C190.615 17.07 191.903 18.652 191.903 20.612C191.903 22.572 190.615 24.168 188.557 24.168ZM188.557 23.23C189.999 23.23 190.797 21.998 190.797 20.612C190.797 19.24 189.999 18.008 188.557 18.008C187.115 18.008 186.317 19.24 186.317 20.612C186.317 21.998 187.115 23.23 188.557 23.23ZM199.228 24H198.192V19.576C198.192 18.372 197.576 18.008 196.666 18.008C195.84 18.008 195.07 18.512 194.664 19.058V24H193.614V17.238H194.664V18.218C195.14 17.644 196.064 17.07 197.086 17.07C198.486 17.07 199.228 17.784 199.228 19.254V24ZM206.617 24H205.567V23.23C205.021 23.846 204.237 24.168 203.327 24.168C202.193 24.168 200.975 23.398 200.975 21.928C200.975 20.402 202.179 19.702 203.327 19.702C204.251 19.702 205.021 19.996 205.567 20.612V19.394C205.567 18.498 204.839 17.98 203.859 17.98C203.047 17.98 202.389 18.26 201.787 18.918L201.297 18.19C202.025 17.434 202.893 17.07 203.999 17.07C205.441 17.07 206.617 17.714 206.617 19.352V24ZM203.719 23.412C204.447 23.412 205.161 23.132 205.567 22.572V21.284C205.161 20.738 204.447 20.458 203.719 20.458C202.725 20.458 202.039 21.074 202.039 21.928C202.039 22.796 202.725 23.412 203.719 23.412ZM209.786 24H208.736V14.662H209.786V24ZM212.44 24.14C212.02 24.14 211.67 23.79 211.67 23.37C211.67 22.95 212.02 22.6 212.44 22.6C212.86 22.6 213.21 22.95 213.21 23.37C213.21 23.79 212.86 24.14 212.44 24.14ZM3.02321 34.612C3.02321 35.424 2.33721 36.11 1.51121 36.11C0.685211 36.11 -0.000789002 35.424 -0.000789002 34.612C-0.000789002 33.786 0.685211 33.1 1.51121 33.1C2.33721 33.1 3.02321 33.786 3.02321 34.612ZM14.254 38H13.092V28.662H16.844C18.72 28.662 19.77 29.95 19.77 31.476C19.77 33.002 18.706 34.29 16.844 34.29H14.254V38ZM16.704 33.254C17.81 33.254 18.566 32.526 18.566 31.476C18.566 30.426 17.81 29.698 16.704 29.698H14.254V33.254H16.704ZM24.1551 38.168C22.1391 38.168 20.6971 36.726 20.6971 34.612C20.6971 32.652 22.0971 31.07 24.0291 31.07C26.0731 31.07 27.2771 32.666 27.2771 34.696V34.962H21.8171C21.9011 36.236 22.7831 37.3 24.2391 37.3C25.0231 37.3 25.7931 36.992 26.3391 36.432L26.8431 37.118C26.1571 37.79 25.2471 38.168 24.1551 38.168ZM26.2411 34.178C26.2271 33.184 25.5551 31.938 24.0151 31.938C22.5731 31.938 21.8591 33.156 21.8031 34.178H26.2411ZM30.0277 38H28.9777V31.238H30.0277V32.316C30.5737 31.616 31.3577 31.084 32.2817 31.084V32.162C32.1557 32.148 32.0297 32.134 31.8757 32.134C31.2177 32.134 30.3357 32.666 30.0277 33.212V38ZM42.8108 38H41.7608V33.408C41.7608 32.554 41.3968 32.008 40.5148 32.008C39.8148 32.008 39.0728 32.498 38.7228 33.044V38H37.6728V33.408C37.6728 32.554 37.3228 32.008 36.4268 32.008C35.7408 32.008 35.0128 32.512 34.6488 33.058V38H33.5988V31.238H34.6488V32.218C34.9428 31.784 35.8388 31.07 36.8468 31.07C37.8688 31.07 38.4568 31.63 38.6528 32.33C39.0308 31.714 39.9408 31.07 40.9208 31.07C42.1528 31.07 42.8108 31.756 42.8108 33.114V38ZM50.1835 38H49.1335V37.23C48.5875 37.846 47.8035 38.168 46.8935 38.168C45.7595 38.168 44.5415 37.398 44.5415 35.928C44.5415 34.402 45.7455 33.702 46.8935 33.702C47.8175 33.702 48.5875 33.996 49.1335 34.612V33.394C49.1335 32.498 48.4055 31.98 47.4255 31.98C46.6135 31.98 45.9555 32.26 45.3535 32.918L44.8635 32.19C45.5915 31.434 46.4595 31.07 47.5655 31.07C49.0075 31.07 50.1835 31.714 50.1835 33.352V38ZM47.2855 37.412C48.0135 37.412 48.7275 37.132 49.1335 36.572V35.284C48.7275 34.738 48.0135 34.458 47.2855 34.458C46.2915 34.458 45.6055 35.074 45.6055 35.928C45.6055 36.796 46.2915 37.412 47.2855 37.412ZM57.916 38H56.88V33.576C56.88 32.372 56.264 32.008 55.354 32.008C54.528 32.008 53.758 32.512 53.352 33.058V38H52.302V31.238H53.352V32.218C53.828 31.644 54.752 31.07 55.774 31.07C57.174 31.07 57.916 31.784 57.916 33.254V38ZM63.0926 38.168C61.0766 38.168 59.6346 36.726 59.6346 34.612C59.6346 32.652 61.0346 31.07 62.9666 31.07C65.0106 31.07 66.2146 32.666 66.2146 34.696V34.962H60.7546C60.8386 36.236 61.7206 37.3 63.1766 37.3C63.9606 37.3 64.7306 36.992 65.2766 36.432L65.7806 37.118C65.0946 37.79 64.1846 38.168 63.0926 38.168ZM65.1786 34.178C65.1646 33.184 64.4926 31.938 62.9526 31.938C61.5106 31.938 60.7966 33.156 60.7406 34.178H65.1786ZM70.8972 38.168C68.8812 38.168 67.5232 36.614 67.5232 34.612C67.5232 32.61 68.8812 31.07 70.8972 31.07C72.1292 31.07 72.8572 31.574 73.3752 32.246L72.6752 32.876C72.2272 32.26 71.6532 32.008 70.9532 32.008C69.5252 32.008 68.6152 33.114 68.6152 34.612C68.6152 36.11 69.5252 37.23 70.9532 37.23C71.6532 37.23 72.2272 36.95 72.6752 36.348L73.3752 36.992C72.8572 37.664 72.1292 38.168 70.8972 38.168ZM77.9265 38.168C75.9105 38.168 74.4685 36.726 74.4685 34.612C74.4685 32.652 75.8685 31.07 77.8005 31.07C79.8445 31.07 81.0485 32.666 81.0485 34.696V34.962H75.5885C75.6725 36.236 76.5545 37.3 78.0105 37.3C78.7945 37.3 79.5645 36.992 80.1105 36.432L80.6145 37.118C79.9285 37.79 79.0185 38.168 77.9265 38.168ZM80.0125 34.178C79.9985 33.184 79.3265 31.938 77.7865 31.938C76.3445 31.938 75.6305 33.156 75.5745 34.178H80.0125ZM83.7992 38H82.7492V31.238H83.7992V32.316C84.3452 31.616 85.1292 31.084 86.0532 31.084V32.162C85.9272 32.148 85.8012 32.134 85.6472 32.134C84.9892 32.134 84.1072 32.666 83.7992 33.212V38ZM94.0594 38.168C92.0434 38.168 90.6014 36.726 90.6014 34.612C90.6014 32.652 92.0014 31.07 93.9334 31.07C95.9774 31.07 97.1814 32.666 97.1814 34.696V34.962H91.7214C91.8054 36.236 92.6874 37.3 94.1434 37.3C94.9274 37.3 95.6974 36.992 96.2434 36.432L96.7474 37.118C96.0614 37.79 95.1514 38.168 94.0594 38.168ZM96.1454 34.178C96.1314 33.184 95.4594 31.938 93.9194 31.938C92.4774 31.938 91.7634 33.156 91.7074 34.178H96.1454ZM104.496 38H103.46V33.576C103.46 32.372 102.844 32.008 101.934 32.008C101.108 32.008 100.338 32.512 99.932 33.058V38H98.882V31.238H99.932V32.218C100.408 31.644 101.332 31.07 102.354 31.07C103.754 31.07 104.496 31.784 104.496 33.254V38ZM111.28 38H110.23V31.238H111.28V32.316C111.826 31.616 112.61 31.084 113.534 31.084V32.162C113.408 32.148 113.282 32.134 113.128 32.134C112.47 32.134 111.588 32.666 111.28 33.212V38ZM117.917 38.168C115.901 38.168 114.459 36.726 114.459 34.612C114.459 32.652 115.859 31.07 117.791 31.07C119.835 31.07 121.039 32.666 121.039 34.696V34.962H115.579C115.663 36.236 116.545 37.3 118.001 37.3C118.785 37.3 119.555 36.992 120.101 36.432L120.605 37.118C119.919 37.79 119.009 38.168 117.917 38.168ZM120.003 34.178C119.989 33.184 119.317 31.938 117.777 31.938C116.335 31.938 115.621 33.156 115.565 34.178H120.003ZM126.071 38.168C125.147 38.168 124.349 37.72 123.789 36.978V40.576H122.739V31.238H123.789V32.246C124.279 31.56 125.119 31.07 126.071 31.07C127.849 31.07 129.081 32.414 129.081 34.612C129.081 36.796 127.849 38.168 126.071 38.168ZM125.805 37.23C127.163 37.23 127.975 36.11 127.975 34.612C127.975 33.114 127.163 32.008 125.805 32.008C124.979 32.008 124.153 32.498 123.789 33.086V36.138C124.153 36.726 124.979 37.23 125.805 37.23ZM133.705 38.168C131.647 38.168 130.359 36.572 130.359 34.612C130.359 32.652 131.647 31.07 133.705 31.07C135.763 31.07 137.051 32.652 137.051 34.612C137.051 36.572 135.763 38.168 133.705 38.168ZM133.705 37.23C135.147 37.23 135.945 35.998 135.945 34.612C135.945 33.24 135.147 32.008 133.705 32.008C132.263 32.008 131.465 33.24 131.465 34.612C131.465 35.998 132.263 37.23 133.705 37.23ZM140.919 38.168C139.799 38.168 138.875 37.818 138.189 37.104L138.721 36.348C139.169 36.866 140.023 37.314 140.947 37.314C141.983 37.314 142.557 36.824 142.557 36.152C142.557 34.514 138.371 35.522 138.371 33.016C138.371 31.952 139.267 31.07 140.877 31.07C142.039 31.07 142.851 31.504 143.383 32.05L142.893 32.778C142.487 32.288 141.759 31.924 140.877 31.924C139.953 31.924 139.379 32.386 139.379 32.988C139.379 34.458 143.565 33.492 143.565 36.124C143.565 37.258 142.655 38.168 140.919 38.168ZM148.225 38.168C146.167 38.168 144.879 36.572 144.879 34.612C144.879 32.652 146.167 31.07 148.225 31.07C150.283 31.07 151.571 32.652 151.571 34.612C151.571 36.572 150.283 38.168 148.225 38.168ZM148.225 37.23C149.667 37.23 150.465 35.998 150.465 34.612C150.465 33.24 149.667 32.008 148.225 32.008C146.783 32.008 145.985 33.24 145.985 34.612C145.985 35.998 146.783 37.23 148.225 37.23ZM162.183 38H161.133V37.23C160.587 37.846 159.803 38.168 158.893 38.168C157.759 38.168 156.541 37.398 156.541 35.928C156.541 34.402 157.745 33.702 158.893 33.702C159.817 33.702 160.587 33.996 161.133 34.612V33.394C161.133 32.498 160.405 31.98 159.425 31.98C158.613 31.98 157.955 32.26 157.353 32.918L156.863 32.19C157.591 31.434 158.459 31.07 159.565 31.07C161.007 31.07 162.183 31.714 162.183 33.352V38ZM159.285 37.412C160.013 37.412 160.727 37.132 161.133 36.572V35.284C160.727 34.738 160.013 34.458 159.285 34.458C158.291 34.458 157.605 35.074 157.605 35.928C157.605 36.796 158.291 37.412 159.285 37.412ZM169.916 38H168.88V33.576C168.88 32.372 168.264 32.008 167.354 32.008C166.528 32.008 165.758 32.512 165.352 33.058V38H164.302V31.238H165.352V32.218C165.828 31.644 166.752 31.07 167.774 31.07C169.174 31.07 169.916 31.784 169.916 33.254V38ZM173.749 38.168C172.741 38.168 172.237 37.594 172.237 36.586V32.162H171.117V31.238H172.237V29.39H173.301V31.238H174.673V32.162H173.301V36.362C173.301 36.866 173.525 37.23 173.973 37.23C174.281 37.23 174.547 37.09 174.687 36.936L174.995 37.734C174.729 37.986 174.351 38.168 173.749 38.168ZM179.208 38.168C177.192 38.168 175.75 36.726 175.75 34.612C175.75 32.652 177.15 31.07 179.082 31.07C181.126 31.07 182.33 32.666 182.33 34.696V34.962H176.87C176.954 36.236 177.836 37.3 179.292 37.3C180.076 37.3 180.846 36.992 181.392 36.432L181.896 37.118C181.21 37.79 180.3 38.168 179.208 38.168ZM181.294 34.178C181.28 33.184 180.608 31.938 179.068 31.938C177.626 31.938 176.912 33.156 176.856 34.178H181.294ZM186.186 38.168C185.066 38.168 184.142 37.818 183.456 37.104L183.988 36.348C184.436 36.866 185.29 37.314 186.214 37.314C187.25 37.314 187.824 36.824 187.824 36.152C187.824 34.514 183.638 35.522 183.638 33.016C183.638 31.952 184.534 31.07 186.144 31.07C187.306 31.07 188.118 31.504 188.65 32.05L188.16 32.778C187.754 32.288 187.026 31.924 186.144 31.924C185.22 31.924 184.646 32.386 184.646 32.988C184.646 34.458 188.832 33.492 188.832 36.124C188.832 37.258 187.922 38.168 186.186 38.168ZM200.111 38H199.061V36.992C198.557 37.678 197.731 38.168 196.779 38.168C195.015 38.168 193.769 36.824 193.769 34.626C193.769 32.456 195.015 31.07 196.779 31.07C197.689 31.07 198.515 31.518 199.061 32.26V28.662H200.111V38ZM197.045 37.23C197.871 37.23 198.697 36.74 199.061 36.152V33.1C198.697 32.512 197.871 32.008 197.045 32.008C195.673 32.008 194.861 33.128 194.861 34.626C194.861 36.124 195.673 37.23 197.045 37.23ZM205.28 38.168C203.264 38.168 201.822 36.726 201.822 34.612C201.822 32.652 203.222 31.07 205.154 31.07C207.198 31.07 208.402 32.666 208.402 34.696V34.962H202.942C203.026 36.236 203.908 37.3 205.364 37.3C206.148 37.3 206.918 36.992 207.464 36.432L207.968 37.118C207.282 37.79 206.372 38.168 205.28 38.168ZM207.366 34.178C207.352 33.184 206.68 31.938 205.14 31.938C203.698 31.938 202.984 33.156 202.928 34.178H207.366ZM214.776 38H213.726V28.662H214.776V38ZM222.148 38H221.098V37.23C220.552 37.846 219.768 38.168 218.858 38.168C217.724 38.168 216.506 37.398 216.506 35.928C216.506 34.402 217.71 33.702 218.858 33.702C219.782 33.702 220.552 33.996 221.098 34.612V33.394C221.098 32.498 220.37 31.98 219.39 31.98C218.578 31.98 217.92 32.26 217.318 32.918L216.828 32.19C217.556 31.434 218.424 31.07 219.53 31.07C220.972 31.07 222.148 31.714 222.148 33.352V38ZM219.25 37.412C219.978 37.412 220.692 37.132 221.098 36.572V35.284C220.692 34.738 219.978 34.458 219.25 34.458C218.256 34.458 217.57 35.074 217.57 35.928C217.57 36.796 218.256 37.412 219.25 37.412ZM237.102 38H236.052V33.408C236.052 32.554 235.688 32.008 234.806 32.008C234.106 32.008 233.364 32.498 233.014 33.044V38H231.964V33.408C231.964 32.554 231.614 32.008 230.718 32.008C230.032 32.008 229.304 32.512 228.94 33.058V38H227.89V31.238H228.94V32.218C229.234 31.784 230.13 31.07 231.138 31.07C232.16 31.07 232.748 31.63 232.944 32.33C233.322 31.714 234.232 31.07 235.212 31.07C236.444 31.07 237.102 31.756 237.102 33.114V38ZM242.262 38.168C240.246 38.168 238.804 36.726 238.804 34.612C238.804 32.652 240.204 31.07 242.136 31.07C244.18 31.07 245.384 32.666 245.384 34.696V34.962H239.924C240.008 36.236 240.89 37.3 242.346 37.3C243.13 37.3 243.9 36.992 244.446 36.432L244.95 37.118C244.264 37.79 243.354 38.168 242.262 38.168ZM244.348 34.178C244.334 33.184 243.662 31.938 242.122 31.938C240.68 31.938 239.966 33.156 239.91 34.178H244.348ZM253.035 38H251.985V36.992C251.481 37.678 250.655 38.168 249.703 38.168C247.939 38.168 246.693 36.824 246.693 34.626C246.693 32.456 247.939 31.07 249.703 31.07C250.613 31.07 251.439 31.518 251.985 32.26V28.662H253.035V38ZM249.969 37.23C250.795 37.23 251.621 36.74 251.985 36.152V33.1C251.621 32.512 250.795 32.008 249.969 32.008C248.597 32.008 247.785 33.128 247.785 34.626C247.785 36.124 248.597 37.23 249.969 37.23ZM255.67 30.272C255.278 30.272 254.956 29.964 254.956 29.572C254.956 29.18 255.278 28.858 255.67 28.858C256.062 28.858 256.37 29.18 256.37 29.572C256.37 29.964 256.062 30.272 255.67 30.272ZM256.188 38H255.138V31.238H256.188V38ZM261.264 38.168C259.248 38.168 257.89 36.614 257.89 34.612C257.89 32.61 259.248 31.07 261.264 31.07C262.496 31.07 263.224 31.574 263.742 32.246L263.042 32.876C262.594 32.26 262.02 32.008 261.32 32.008C259.892 32.008 258.982 33.114 258.982 34.612C258.982 36.11 259.892 37.23 261.32 37.23C262.02 37.23 262.594 36.95 263.042 36.348L263.742 36.992C263.224 37.664 262.496 38.168 261.264 38.168ZM265.76 30.272C265.368 30.272 265.046 29.964 265.046 29.572C265.046 29.18 265.368 28.858 265.76 28.858C266.152 28.858 266.46 29.18 266.46 29.572C266.46 29.964 266.152 30.272 265.76 30.272ZM266.278 38H265.228V31.238H266.278V38ZM271.326 38.168C269.268 38.168 267.98 36.572 267.98 34.612C267.98 32.652 269.268 31.07 271.326 31.07C273.384 31.07 274.672 32.652 274.672 34.612C274.672 36.572 273.384 38.168 271.326 38.168ZM271.326 37.23C272.768 37.23 273.566 35.998 273.566 34.612C273.566 33.24 272.768 32.008 271.326 32.008C269.884 32.008 269.086 33.24 269.086 34.612C269.086 35.998 269.884 37.23 271.326 37.23ZM273.566 28.2L271.2 30.216H270.402L272.474 28.2H273.566ZM281.998 38H280.962V33.576C280.962 32.372 280.346 32.008 279.436 32.008C278.61 32.008 277.84 32.512 277.434 33.058V38H276.384V31.238H277.434V32.218C277.91 31.644 278.834 31.07 279.856 31.07C281.256 31.07 281.998 31.784 281.998 33.254V38ZM284.669 38.14C284.249 38.14 283.899 37.79 283.899 37.37C283.899 36.95 284.249 36.6 284.669 36.6C285.089 36.6 285.439 36.95 285.439 37.37C285.439 37.79 285.089 38.14 284.669 38.14ZM3.02321 48.612C3.02321 49.424 2.33721 50.11 1.51121 50.11C0.685211 50.11 -0.000789002 49.424 -0.000789002 48.612C-0.000789002 47.786 0.685211 47.1 1.51121 47.1C2.33721 47.1 3.02321 47.786 3.02321 48.612ZM19.21 52H13.092V42.662H19.21V43.698H14.254V46.708H19.112V47.744H14.254V50.964H19.21V52ZM23.9747 52H22.8267L20.0127 45.238H21.1607L23.4007 50.782L25.6547 45.238H26.7887L23.9747 52ZM28.416 44.272C28.024 44.272 27.702 43.964 27.702 43.572C27.702 43.18 28.024 42.858 28.416 42.858C28.808 42.858 29.116 43.18 29.116 43.572C29.116 43.964 28.808 44.272 28.416 44.272ZM28.934 52H27.884V45.238H28.934V52ZM32.7505 52.168C31.7425 52.168 31.2385 51.594 31.2385 50.586V46.162H30.1185V45.238H31.2385V43.39H32.3025V45.238H33.6745V46.162H32.3025V50.362C32.3025 50.866 32.5265 51.23 32.9745 51.23C33.2825 51.23 33.5485 51.09 33.6885 50.936L33.9965 51.734C33.7305 51.986 33.3525 52.168 32.7505 52.168ZM40.4218 52H39.3718V51.23C38.8258 51.846 38.0418 52.168 37.1318 52.168C35.9978 52.168 34.7798 51.398 34.7798 49.928C34.7798 48.402 35.9838 47.702 37.1318 47.702C38.0558 47.702 38.8258 47.996 39.3718 48.612V47.394C39.3718 46.498 38.6438 45.98 37.6638 45.98C36.8518 45.98 36.1938 46.26 35.5918 46.918L35.1018 46.19C35.8298 45.434 36.6978 45.07 37.8038 45.07C39.2458 45.07 40.4218 45.714 40.4218 47.352V52ZM37.5238 51.412C38.2518 51.412 38.9658 51.132 39.3718 50.572V49.284C38.9658 48.738 38.2518 48.458 37.5238 48.458C36.5298 48.458 35.8438 49.074 35.8438 49.928C35.8438 50.796 36.5298 51.412 37.5238 51.412ZM49.1453 52.168C47.1293 52.168 45.7713 50.614 45.7713 48.612C45.7713 46.61 47.1293 45.07 49.1453 45.07C50.3773 45.07 51.1053 45.574 51.6233 46.246L50.9233 46.876C50.4753 46.26 49.9013 46.008 49.2013 46.008C47.7733 46.008 46.8633 47.114 46.8633 48.612C46.8633 50.11 47.7733 51.23 49.2013 51.23C49.9013 51.23 50.4753 50.95 50.9233 50.348L51.6233 50.992C51.1053 51.664 50.3773 52.168 49.1453 52.168ZM56.0626 52.168C54.0046 52.168 52.7166 50.572 52.7166 48.612C52.7166 46.652 54.0046 45.07 56.0626 45.07C58.1206 45.07 59.4086 46.652 59.4086 48.612C59.4086 50.572 58.1206 52.168 56.0626 52.168ZM56.0626 51.23C57.5046 51.23 58.3026 49.998 58.3026 48.612C58.3026 47.24 57.5046 46.008 56.0626 46.008C54.6206 46.008 53.8226 47.24 53.8226 48.612C53.8226 49.998 54.6206 51.23 56.0626 51.23ZM66.7343 52H65.6983V47.576C65.6983 46.372 65.0823 46.008 64.1723 46.008C63.3463 46.008 62.5763 46.512 62.1703 47.058V52H61.1203V45.238H62.1703V46.218C62.6463 45.644 63.5703 45.07 64.5923 45.07C65.9923 45.07 66.7343 45.784 66.7343 47.254V52ZM71.0009 52.168C69.8809 52.168 68.9569 51.818 68.2709 51.104L68.8029 50.348C69.2509 50.866 70.1049 51.314 71.0289 51.314C72.0649 51.314 72.6389 50.824 72.6389 50.152C72.6389 48.514 68.4529 49.522 68.4529 47.016C68.4529 45.952 69.3489 45.07 70.9589 45.07C72.1209 45.07 72.9329 45.504 73.4649 46.05L72.9749 46.778C72.5689 46.288 71.8409 45.924 70.9589 45.924C70.0349 45.924 69.4609 46.386 69.4609 46.988C69.4609 48.458 73.6469 47.492 73.6469 50.124C73.6469 51.258 72.7369 52.168 71.0009 52.168ZM80.9667 52H79.9167V51.048C79.3987 51.636 78.5167 52.168 77.5087 52.168C76.0947 52.168 75.3527 51.468 75.3527 50.012V45.238H76.4027V49.69C76.4027 50.88 77.0047 51.23 77.9287 51.23C78.7407 51.23 79.5247 50.754 79.9167 50.208V45.238H80.9667V52ZM92.2757 52H91.2257V47.408C91.2257 46.554 90.8617 46.008 89.9797 46.008C89.2797 46.008 88.5377 46.498 88.1877 47.044V52H87.1377V47.408C87.1377 46.554 86.7877 46.008 85.8917 46.008C85.2057 46.008 84.4777 46.512 84.1137 47.058V52H83.0637V45.238H84.1137V46.218C84.4077 45.784 85.3037 45.07 86.3117 45.07C87.3337 45.07 87.9217 45.63 88.1177 46.33C88.4957 45.714 89.4057 45.07 90.3857 45.07C91.6177 45.07 92.2757 45.756 92.2757 47.114V52ZM94.9023 44.272C94.5103 44.272 94.1883 43.964 94.1883 43.572C94.1883 43.18 94.5103 42.858 94.9023 42.858C95.2943 42.858 95.6023 43.18 95.6023 43.572C95.6023 43.964 95.2943 44.272 94.9023 44.272ZM95.4203 52H94.3703V45.238H95.4203V52ZM98.5648 52H97.5148V45.238H98.5648V46.316C99.1108 45.616 99.8948 45.084 100.819 45.084V46.162C100.693 46.148 100.567 46.134 100.413 46.134C99.7548 46.134 98.8728 46.666 98.5648 47.212V52ZM108.741 52.168C106.725 52.168 105.367 50.614 105.367 48.612C105.367 46.61 106.725 45.07 108.741 45.07C109.973 45.07 110.701 45.574 111.219 46.246L110.519 46.876C110.071 46.26 109.497 46.008 108.797 46.008C107.369 46.008 106.459 47.114 106.459 48.612C106.459 50.11 107.369 51.23 108.797 51.23C109.497 51.23 110.071 50.95 110.519 50.348L111.219 50.992C110.701 51.664 109.973 52.168 108.741 52.168ZM117.982 52H116.932V51.23C116.386 51.846 115.602 52.168 114.692 52.168C113.558 52.168 112.34 51.398 112.34 49.928C112.34 48.402 113.544 47.702 114.692 47.702C115.616 47.702 116.386 47.996 116.932 48.612V47.394C116.932 46.498 116.204 45.98 115.224 45.98C114.412 45.98 113.754 46.26 113.152 46.918L112.662 46.19C113.39 45.434 114.258 45.07 115.364 45.07C116.806 45.07 117.982 45.714 117.982 47.352V52ZM115.084 51.412C115.812 51.412 116.526 51.132 116.932 50.572V49.284C116.526 48.738 115.812 48.458 115.084 48.458C114.09 48.458 113.404 49.074 113.404 49.928C113.404 50.796 114.09 51.412 115.084 51.412ZM121.445 52H120.395V46.162H119.275V45.238H120.395V44.72C120.395 43.334 121.165 42.522 122.355 42.522C122.901 42.522 123.363 42.648 123.783 43.04L123.349 43.712C123.125 43.516 122.859 43.39 122.523 43.39C121.823 43.39 121.445 43.852 121.445 44.72V45.238H122.817V46.162H121.445V52ZM127.145 52.168C125.129 52.168 123.687 50.726 123.687 48.612C123.687 46.652 125.087 45.07 127.019 45.07C129.063 45.07 130.267 46.666 130.267 48.696V48.962H124.807C124.891 50.236 125.773 51.3 127.229 51.3C128.013 51.3 128.783 50.992 129.329 50.432L129.833 51.118C129.147 51.79 128.237 52.168 127.145 52.168ZM129.231 48.178C129.217 47.184 128.545 45.938 127.005 45.938C125.563 45.938 124.849 47.156 124.793 48.178H129.231ZM134.74 42.2L132.374 44.216H131.576L133.648 42.2H134.74ZM133.018 52H131.968V45.238H133.018V52ZM140.727 52H139.691V47.576C139.691 46.372 139.075 46.008 138.165 46.008C137.339 46.008 136.569 46.512 136.163 47.058V52H135.113V45.238H136.163V46.218C136.639 45.644 137.562 45.07 138.585 45.07C139.985 45.07 140.727 45.784 140.727 47.254V52ZM148.115 52H147.065V51.23C146.519 51.846 145.735 52.168 144.825 52.168C143.691 52.168 142.473 51.398 142.473 49.928C142.473 48.402 143.677 47.702 144.825 47.702C145.749 47.702 146.519 47.996 147.065 48.612V47.394C147.065 46.498 146.337 45.98 145.357 45.98C144.545 45.98 143.887 46.26 143.285 46.918L142.795 46.19C143.523 45.434 144.391 45.07 145.497 45.07C146.939 45.07 148.115 45.714 148.115 47.352V52ZM145.217 51.412C145.945 51.412 146.659 51.132 147.065 50.572V49.284C146.659 48.738 145.945 48.458 145.217 48.458C144.223 48.458 143.537 49.074 143.537 49.928C143.537 50.796 144.223 51.412 145.217 51.412ZM153.493 54.646L153.647 53.694C153.801 53.764 154.053 53.806 154.221 53.806C154.683 53.806 154.991 53.652 155.229 53.092L155.677 52.07L152.849 45.238H153.997L156.237 50.782L158.491 45.238H159.625L156.237 53.372C155.831 54.352 155.145 54.73 154.249 54.744C154.025 54.744 153.675 54.702 153.493 54.646ZM160.496 52.28H159.67L162.988 42.382H163.814L160.496 52.28ZM167.817 52.168C165.759 52.168 164.471 50.572 164.471 48.612C164.471 46.652 165.759 45.07 167.817 45.07C169.875 45.07 171.163 46.652 171.163 48.612C171.163 50.572 169.875 52.168 167.817 52.168ZM167.817 51.23C169.259 51.23 170.057 49.998 170.057 48.612C170.057 47.24 169.259 46.008 167.817 46.008C166.375 46.008 165.577 47.24 165.577 48.612C165.577 49.998 166.375 51.23 167.817 51.23ZM178.219 52.168C177.211 52.168 176.707 51.594 176.707 50.586V46.162H175.587V45.238H176.707V43.39H177.771V45.238H179.143V46.162H177.771V50.362C177.771 50.866 177.995 51.23 178.443 51.23C178.751 51.23 179.017 51.09 179.157 50.936L179.465 51.734C179.199 51.986 178.821 52.168 178.219 52.168ZM185.891 52H184.841V51.23C184.295 51.846 183.511 52.168 182.601 52.168C181.467 52.168 180.249 51.398 180.249 49.928C180.249 48.402 181.453 47.702 182.601 47.702C183.525 47.702 184.295 47.996 184.841 48.612V47.394C184.841 46.498 184.113 45.98 183.133 45.98C182.321 45.98 181.663 46.26 181.061 46.918L180.571 46.19C181.299 45.434 182.167 45.07 183.273 45.07C184.715 45.07 185.891 45.714 185.891 47.352V52ZM182.993 51.412C183.721 51.412 184.435 51.132 184.841 50.572V49.284C184.435 48.738 183.721 48.458 182.993 48.458C181.999 48.458 181.312 49.074 181.312 49.928C181.312 50.796 181.999 51.412 182.993 51.412ZM189.059 50.166C189.423 50.754 190.249 51.23 191.089 51.23C192.447 51.23 193.259 50.124 193.259 48.626C193.259 47.128 192.447 46.008 191.089 46.008C190.249 46.008 189.423 46.512 189.059 47.1V50.166ZM189.059 52H188.009V42.662H189.059V46.26C189.605 45.518 190.431 45.07 191.341 45.07C193.119 45.07 194.351 46.456 194.351 48.626C194.351 50.824 193.105 52.168 191.341 52.168C190.389 52.168 189.563 51.678 189.059 50.992V52ZM201.34 52H200.29V51.23C199.744 51.846 198.96 52.168 198.05 52.168C196.916 52.168 195.698 51.398 195.698 49.928C195.698 48.402 196.902 47.702 198.05 47.702C198.974 47.702 199.744 47.996 200.29 48.612V47.394C200.29 46.498 199.562 45.98 198.582 45.98C197.77 45.98 197.112 46.26 196.51 46.918L196.02 46.19C196.748 45.434 197.616 45.07 198.722 45.07C200.164 45.07 201.34 45.714 201.34 47.352V52ZM198.442 51.412C199.17 51.412 199.884 51.132 200.29 50.572V49.284C199.884 48.738 199.17 48.458 198.442 48.458C197.448 48.458 196.762 49.074 196.762 49.928C196.762 50.796 197.448 51.412 198.442 51.412ZM206.44 52.168C204.424 52.168 203.066 50.614 203.066 48.612C203.066 46.61 204.424 45.07 206.44 45.07C207.672 45.07 208.4 45.574 208.918 46.246L208.218 46.876C207.77 46.26 207.196 46.008 206.496 46.008C205.068 46.008 204.158 47.114 204.158 48.612C204.158 50.11 205.068 51.23 206.496 51.23C207.196 51.23 207.77 50.95 208.218 50.348L208.918 50.992C208.4 51.664 207.672 52.168 206.44 52.168ZM213.358 52.168C211.3 52.168 210.012 50.572 210.012 48.612C210.012 46.652 211.3 45.07 213.358 45.07C215.416 45.07 216.704 46.652 216.704 48.612C216.704 50.572 215.416 52.168 213.358 52.168ZM213.358 51.23C214.8 51.23 215.598 49.998 215.598 48.612C215.598 47.24 214.8 46.008 213.358 46.008C211.916 46.008 211.118 47.24 211.118 48.612C211.118 49.998 211.916 51.23 213.358 51.23ZM224.992 52.168C222.934 52.168 221.646 50.572 221.646 48.612C221.646 46.652 222.934 45.07 224.992 45.07C227.05 45.07 228.338 46.652 228.338 48.612C228.338 50.572 227.05 52.168 224.992 52.168ZM224.992 51.23C226.434 51.23 227.232 49.998 227.232 48.612C227.232 47.24 226.434 46.008 224.992 46.008C223.55 46.008 222.752 47.24 222.752 48.612C222.752 49.998 223.55 51.23 224.992 51.23ZM234.723 52H233.673V45.238H234.723V46.316C235.269 45.616 236.053 45.084 236.977 45.084V46.162C236.851 46.148 236.725 46.134 236.571 46.134C235.913 46.134 235.031 46.666 234.723 47.212V52ZM241.36 52.168C239.344 52.168 237.902 50.726 237.902 48.612C237.902 46.652 239.302 45.07 241.234 45.07C243.278 45.07 244.482 46.666 244.482 48.696V48.962H239.022C239.106 50.236 239.988 51.3 241.444 51.3C242.228 51.3 242.998 50.992 243.544 50.432L244.048 51.118C243.362 51.79 242.452 52.168 241.36 52.168ZM243.446 48.178C243.432 47.184 242.76 45.938 241.22 45.938C239.778 45.938 239.064 47.156 239.008 48.178H243.446ZM251.461 52H250.411V51.23C249.865 51.846 249.081 52.168 248.171 52.168C247.037 52.168 245.819 51.398 245.819 49.928C245.819 48.402 247.023 47.702 248.171 47.702C249.095 47.702 249.865 47.996 250.411 48.612V47.394C250.411 46.498 249.683 45.98 248.703 45.98C247.891 45.98 247.233 46.26 246.631 46.918L246.141 46.19C246.869 45.434 247.737 45.07 248.843 45.07C250.285 45.07 251.461 45.714 251.461 47.352V52ZM248.563 51.412C249.291 51.412 250.005 51.132 250.411 50.572V49.284C250.005 48.738 249.291 48.458 248.563 48.458C247.569 48.458 246.883 49.074 246.883 49.928C246.883 50.796 247.569 51.412 248.563 51.412ZM254.629 52H253.579V42.662H254.629V52ZM257.256 44.272C256.864 44.272 256.542 43.964 256.542 43.572C256.542 43.18 256.864 42.858 257.256 42.858C257.648 42.858 257.956 43.18 257.956 43.572C257.956 43.964 257.648 44.272 257.256 44.272ZM257.774 52H256.724V45.238H257.774V52ZM264.698 52H259.546V51.174L263.27 46.162H259.546V45.238H264.642V46.036L260.89 51.076H264.698V52ZM271.75 52H270.7V51.23C270.154 51.846 269.37 52.168 268.46 52.168C267.326 52.168 266.108 51.398 266.108 49.928C266.108 48.402 267.312 47.702 268.46 47.702C269.384 47.702 270.154 47.996 270.7 48.612V47.394C270.7 46.498 269.972 45.98 268.992 45.98C268.18 45.98 267.522 46.26 266.92 46.918L266.43 46.19C267.158 45.434 268.026 45.07 269.132 45.07C270.574 45.07 271.75 45.714 271.75 47.352V52ZM268.852 51.412C269.58 51.412 270.294 51.132 270.7 50.572V49.284C270.294 48.738 269.58 48.458 268.852 48.458C267.858 48.458 267.172 49.074 267.172 49.928C267.172 50.796 267.858 51.412 268.852 51.412ZM274.918 52H273.868V45.238H274.918V46.316C275.464 45.616 276.248 45.084 277.172 45.084V46.162C277.046 46.148 276.92 46.134 276.766 46.134C276.108 46.134 275.226 46.666 274.918 47.212V52ZM16.116 66.168C14.1 66.168 12.658 64.726 12.658 62.612C12.658 60.652 14.058 59.07 15.99 59.07C18.034 59.07 19.238 60.666 19.238 62.696V62.962H13.778C13.862 64.236 14.744 65.3 16.2 65.3C16.984 65.3 17.754 64.992 18.3 64.432L18.804 65.118C18.118 65.79 17.208 66.168 16.116 66.168ZM18.202 62.178C18.188 61.184 17.516 59.938 15.976 59.938C14.534 59.938 13.82 61.156 13.764 62.178H18.202ZM21.4707 58.272C21.0787 58.272 20.7567 57.964 20.7567 57.572C20.7567 57.18 21.0787 56.858 21.4707 56.858C21.8627 56.858 22.1707 57.18 22.1707 57.572C22.1707 57.964 21.8627 58.272 21.4707 58.272ZM19.9867 68.744C19.3007 68.744 18.9367 68.576 18.5167 68.24L18.8807 67.456C19.1187 67.694 19.4267 67.876 19.8467 67.876C20.4767 67.876 20.9387 67.512 20.9387 66.658V59.238H21.9887V66.658C21.9887 67.988 21.2887 68.744 19.9867 68.744ZM27.1492 66.168C25.1332 66.168 23.6912 64.726 23.6912 62.612C23.6912 60.652 25.0912 59.07 27.0232 59.07C29.0672 59.07 30.2712 60.666 30.2712 62.696V62.962H24.8112C24.8952 64.236 25.7772 65.3 27.2332 65.3C28.0172 65.3 28.7872 64.992 29.3332 64.432L29.8372 65.118C29.1512 65.79 28.2412 66.168 27.1492 66.168ZM29.2352 62.178C29.2212 61.184 28.5492 59.938 27.0092 59.938C25.5672 59.938 24.8532 61.156 24.7972 62.178H29.2352ZM33.0219 66H31.9719V59.238H33.0219V60.316C33.5679 59.616 34.3519 59.084 35.2759 59.084V60.162C35.1499 60.148 35.0239 60.134 34.8699 60.134C34.2119 60.134 33.3299 60.666 33.0219 61.212V66ZM39.575 66.168C37.559 66.168 36.201 64.614 36.201 62.612C36.201 60.61 37.559 59.07 39.575 59.07C40.807 59.07 41.535 59.574 42.053 60.246L41.353 60.876C40.905 60.26 40.331 60.008 39.631 60.008C38.203 60.008 37.293 61.114 37.293 62.612C37.293 64.11 38.203 65.23 39.631 65.23C40.331 65.23 40.905 64.95 41.353 64.348L42.053 64.992C41.535 65.664 40.807 66.168 39.575 66.168ZM44.0703 58.272C43.6783 58.272 43.3563 57.964 43.3563 57.572C43.3563 57.18 43.6783 56.858 44.0703 56.858C44.4623 56.858 44.7703 57.18 44.7703 57.572C44.7703 57.964 44.4623 58.272 44.0703 58.272ZM44.5883 66H43.5383V59.238H44.5883V66ZM49.6648 66.168C47.6488 66.168 46.2908 64.614 46.2908 62.612C46.2908 60.61 47.6488 59.07 49.6648 59.07C50.8968 59.07 51.6248 59.574 52.1428 60.246L51.4428 60.876C50.9948 60.26 50.4208 60.008 49.7208 60.008C48.2928 60.008 47.3828 61.114 47.3828 62.612C47.3828 64.11 48.2928 65.23 49.7208 65.23C50.4208 65.23 50.9948 64.95 51.4428 64.348L52.1428 64.992C51.6248 65.664 50.8968 66.168 49.6648 66.168ZM54.1601 58.272C53.7681 58.272 53.4461 57.964 53.4461 57.572C53.4461 57.18 53.7681 56.858 54.1601 56.858C54.5521 56.858 54.8601 57.18 54.8601 57.572C54.8601 57.964 54.5521 58.272 54.1601 58.272ZM54.6781 66H53.6281V59.238H54.6781V66ZM59.7267 66.168C57.6687 66.168 56.3807 64.572 56.3807 62.612C56.3807 60.652 57.6687 59.07 59.7267 59.07C61.7847 59.07 63.0727 60.652 63.0727 62.612C63.0727 64.572 61.7847 66.168 59.7267 66.168ZM59.7267 65.23C61.1687 65.23 61.9667 63.998 61.9667 62.612C61.9667 61.24 61.1687 60.008 59.7267 60.008C58.2847 60.008 57.4867 61.24 57.4867 62.612C57.4867 63.998 58.2847 65.23 59.7267 65.23ZM69.7514 66H68.7014V60.162H67.5814V59.238H68.7014V58.72C68.7014 57.334 69.4714 56.522 70.6614 56.522C71.2074 56.522 71.6694 56.648 72.0894 57.04L71.6554 57.712C71.4314 57.516 71.1654 57.39 70.8294 57.39C70.1294 57.39 69.7514 57.852 69.7514 58.72V59.238H71.1234V60.162H69.7514V66ZM75.1579 56.2L72.7919 58.216H71.9939L74.0659 56.2H75.1579ZM73.4359 66H72.3859V59.238H73.4359V66ZM77.6865 66.168C76.5665 66.168 75.6425 65.818 74.9565 65.104L75.4885 64.348C75.9365 64.866 76.7905 65.314 77.7145 65.314C78.7505 65.314 79.3245 64.824 79.3245 64.152C79.3245 62.514 75.1385 63.522 75.1385 61.016C75.1385 59.952 76.0345 59.07 77.6445 59.07C78.8065 59.07 79.6185 59.504 80.1505 60.05L79.6605 60.778C79.2545 60.288 78.5265 59.924 77.6445 59.924C76.7205 59.924 76.1465 60.386 76.1465 60.988C76.1465 62.458 80.3325 61.492 80.3325 64.124C80.3325 65.258 79.4225 66.168 77.6865 66.168ZM82.5703 58.272C82.1783 58.272 81.8563 57.964 81.8563 57.572C81.8563 57.18 82.1783 56.858 82.5703 56.858C82.9623 56.858 83.2703 57.18 83.2703 57.572C83.2703 57.964 82.9623 58.272 82.5703 58.272ZM83.0883 66H82.0383V59.238H83.0883V66ZM88.1648 66.168C86.1488 66.168 84.7908 64.614 84.7908 62.612C84.7908 60.61 86.1488 59.07 88.1648 59.07C89.3968 59.07 90.1248 59.574 90.6428 60.246L89.9428 60.876C89.4948 60.26 88.9208 60.008 88.2208 60.008C86.7928 60.008 85.8828 61.114 85.8828 62.612C85.8828 64.11 86.7928 65.23 88.2208 65.23C88.9208 65.23 89.4948 64.95 89.9428 64.348L90.6428 64.992C90.1248 65.664 89.3968 66.168 88.1648 66.168ZM95.0821 66.168C93.0241 66.168 91.7361 64.572 91.7361 62.612C91.7361 60.652 93.0241 59.07 95.0821 59.07C97.1401 59.07 98.4281 60.652 98.4281 62.612C98.4281 64.572 97.1401 66.168 95.0821 66.168ZM95.0821 65.23C96.5241 65.23 97.3221 63.998 97.3221 62.612C97.3221 61.24 96.5241 60.008 95.0821 60.008C93.6401 60.008 92.8421 61.24 92.8421 62.612C92.8421 63.998 93.6401 65.23 95.0821 65.23ZM107.095 66.168C106.171 66.168 105.373 65.72 104.813 64.978V68.576H103.763V59.238H104.813V60.246C105.303 59.56 106.143 59.07 107.095 59.07C108.873 59.07 110.105 60.414 110.105 62.612C110.105 64.796 108.873 66.168 107.095 66.168ZM106.829 65.23C108.187 65.23 108.999 64.11 108.999 62.612C108.999 61.114 108.187 60.008 106.829 60.008C106.003 60.008 105.177 60.498 104.813 61.086V64.138C105.177 64.726 106.003 65.23 106.829 65.23ZM112.825 66H111.775V59.238H112.825V60.316C113.371 59.616 114.155 59.084 115.079 59.084V60.162C114.953 60.148 114.827 60.134 114.673 60.134C114.015 60.134 113.133 60.666 112.825 61.212V66ZM119.462 66.168C117.446 66.168 116.004 64.726 116.004 62.612C116.004 60.652 117.404 59.07 119.336 59.07C121.38 59.07 122.584 60.666 122.584 62.696V62.962H117.124C117.208 64.236 118.09 65.3 119.546 65.3C120.33 65.3 121.1 64.992 121.646 64.432L122.15 65.118C121.464 65.79 120.554 66.168 119.462 66.168ZM121.548 62.178C121.534 61.184 120.862 59.938 119.322 59.938C117.88 59.938 117.166 61.156 117.11 62.178H121.548ZM127.238 66H126.09L123.276 59.238H124.424L126.664 64.782L128.918 59.238H130.052L127.238 66ZM131.68 58.272C131.288 58.272 130.966 57.964 130.966 57.572C130.966 57.18 131.288 56.858 131.68 56.858C132.072 56.858 132.38 57.18 132.38 57.572C132.38 57.964 132.072 58.272 131.68 58.272ZM132.198 66H131.148V59.238H132.198V66ZM137.246 66.168C135.188 66.168 133.9 64.572 133.9 62.612C133.9 60.652 135.188 59.07 137.246 59.07C139.304 59.07 140.592 60.652 140.592 62.612C140.592 64.572 139.304 66.168 137.246 66.168ZM137.246 65.23C138.688 65.23 139.486 63.998 139.486 62.612C139.486 61.24 138.688 60.008 137.246 60.008C135.804 60.008 135.006 61.24 135.006 62.612C135.006 63.998 135.804 65.23 137.246 65.23ZM151.205 66H150.155V65.23C149.609 65.846 148.825 66.168 147.915 66.168C146.781 66.168 145.563 65.398 145.563 63.928C145.563 62.402 146.767 61.702 147.915 61.702C148.839 61.702 149.609 61.996 150.155 62.612V61.394C150.155 60.498 149.427 59.98 148.447 59.98C147.635 59.98 146.977 60.26 146.375 60.918L145.885 60.19C146.613 59.434 147.481 59.07 148.587 59.07C150.029 59.07 151.205 59.714 151.205 61.352V66ZM148.307 65.412C149.035 65.412 149.749 65.132 150.155 64.572V63.284C149.749 62.738 149.035 62.458 148.307 62.458C147.313 62.458 146.627 63.074 146.627 63.928C146.627 64.796 147.313 65.412 148.307 65.412ZM154.373 66H153.323V56.662H154.373V66ZM165.705 66H164.655V65.048C164.137 65.636 163.255 66.168 162.247 66.168C160.833 66.168 160.091 65.468 160.091 64.012V59.238H161.141V63.69C161.141 64.88 161.743 65.23 162.667 65.23C163.479 65.23 164.263 64.754 164.655 64.208V59.238H165.705V66ZM169.958 66.168C168.838 66.168 167.914 65.818 167.228 65.104L167.76 64.348C168.208 64.866 169.062 65.314 169.986 65.314C171.022 65.314 171.596 64.824 171.596 64.152C171.596 62.514 167.41 63.522 167.41 61.016C167.41 59.952 168.306 59.07 169.916 59.07C171.078 59.07 171.89 59.504 172.422 60.05L171.932 60.778C171.526 60.288 170.798 59.924 169.916 59.924C168.992 59.924 168.418 60.386 168.418 60.988C168.418 62.458 172.604 61.492 172.604 64.124C172.604 65.258 171.694 66.168 169.958 66.168ZM177.264 66.168C175.206 66.168 173.918 64.572 173.918 62.612C173.918 60.652 175.206 59.07 177.264 59.07C179.322 59.07 180.61 60.652 180.61 62.612C180.61 64.572 179.322 66.168 177.264 66.168ZM177.264 65.23C178.706 65.23 179.504 63.998 179.504 62.612C179.504 61.24 178.706 60.008 177.264 60.008C175.822 60.008 175.024 61.24 175.024 62.612C175.024 63.998 175.822 65.23 177.264 65.23ZM191.895 66H190.845V64.992C190.341 65.678 189.515 66.168 188.563 66.168C186.799 66.168 185.553 64.824 185.553 62.626C185.553 60.456 186.799 59.07 188.563 59.07C189.473 59.07 190.299 59.518 190.845 60.26V56.662H191.895V66ZM188.829 65.23C189.655 65.23 190.481 64.74 190.845 64.152V61.1C190.481 60.512 189.655 60.008 188.829 60.008C187.457 60.008 186.645 61.128 186.645 62.626C186.645 64.124 187.457 65.23 188.829 65.23ZM197.063 66.168C195.047 66.168 193.605 64.726 193.605 62.612C193.605 60.652 195.005 59.07 196.937 59.07C198.981 59.07 200.185 60.666 200.185 62.696V62.962H194.725C194.809 64.236 195.691 65.3 197.147 65.3C197.931 65.3 198.701 64.992 199.247 64.432L199.751 65.118C199.065 65.79 198.155 66.168 197.063 66.168ZM199.149 62.178C199.135 61.184 198.463 59.938 196.923 59.938C195.481 59.938 194.767 61.156 194.711 62.178H199.149ZM206.559 66H205.509V56.662H206.559V66ZM213.932 66H212.882V65.23C212.336 65.846 211.552 66.168 210.642 66.168C209.508 66.168 208.29 65.398 208.29 63.928C208.29 62.402 209.494 61.702 210.642 61.702C211.566 61.702 212.336 61.996 212.882 62.612V61.394C212.882 60.498 212.154 59.98 211.174 59.98C210.362 59.98 209.704 60.26 209.102 60.918L208.612 60.19C209.34 59.434 210.208 59.07 211.314 59.07C212.756 59.07 213.932 59.714 213.932 61.352V66ZM211.034 65.412C211.762 65.412 212.476 65.132 212.882 64.572V63.284C212.476 62.738 211.762 62.458 211.034 62.458C210.04 62.458 209.354 63.074 209.354 63.928C209.354 64.796 210.04 65.412 211.034 65.412ZM221.017 66H219.967V60.162H218.847V59.238H219.967V58.72C219.967 57.334 220.737 56.522 221.927 56.522C222.473 56.522 222.935 56.648 223.355 57.04L222.921 57.712C222.697 57.516 222.431 57.39 222.095 57.39C221.395 57.39 221.017 57.852 221.017 58.72V59.238H222.389V60.162H221.017V66ZM229.266 66H228.216V65.048C227.698 65.636 226.816 66.168 225.808 66.168C224.394 66.168 223.652 65.468 223.652 64.012V59.238H224.702V63.69C224.702 64.88 225.304 65.23 226.228 65.23C227.04 65.23 227.824 64.754 228.216 64.208V59.238H229.266V66ZM236.977 66H235.941V61.576C235.941 60.372 235.325 60.008 234.415 60.008C233.589 60.008 232.819 60.512 232.413 61.058V66H231.363V59.238H232.413V60.218C232.889 59.644 233.812 59.07 234.835 59.07C236.235 59.07 236.977 59.784 236.977 61.254V66ZM242.069 66.168C240.053 66.168 238.695 64.614 238.695 62.612C238.695 60.61 240.053 59.07 242.069 59.07C243.301 59.07 244.029 59.574 244.547 60.246L243.847 60.876C243.399 60.26 242.825 60.008 242.125 60.008C240.697 60.008 239.787 61.114 239.787 62.612C239.787 64.11 240.697 65.23 242.125 65.23C242.825 65.23 243.399 64.95 243.847 64.348L244.547 64.992C244.029 65.664 243.301 66.168 242.069 66.168ZM246.564 58.272C246.172 58.272 245.85 57.964 245.85 57.572C245.85 57.18 246.172 56.858 246.564 56.858C246.956 56.858 247.264 57.18 247.264 57.572C247.264 57.964 246.956 58.272 246.564 58.272ZM247.082 66H246.032V59.238H247.082V66ZM252.131 66.168C250.073 66.168 248.785 64.572 248.785 62.612C248.785 60.652 250.073 59.07 252.131 59.07C254.189 59.07 255.477 60.652 255.477 62.612C255.477 64.572 254.189 66.168 252.131 66.168ZM252.131 65.23C253.573 65.23 254.371 63.998 254.371 62.612C254.371 61.24 253.573 60.008 252.131 60.008C250.689 60.008 249.891 61.24 249.891 62.612C249.891 63.998 250.689 65.23 252.131 65.23ZM262.803 66H261.767V61.576C261.767 60.372 261.151 60.008 260.241 60.008C259.415 60.008 258.645 60.512 258.239 61.058V66H257.189V59.238H258.239V60.218C258.715 59.644 259.639 59.07 260.661 59.07C262.061 59.07 262.803 59.784 262.803 61.254V66ZM270.191 66H269.141V65.23C268.595 65.846 267.811 66.168 266.901 66.168C265.767 66.168 264.549 65.398 264.549 63.928C264.549 62.402 265.753 61.702 266.901 61.702C267.825 61.702 268.595 61.996 269.141 62.612V61.394C269.141 60.498 268.413 59.98 267.433 59.98C266.621 59.98 265.963 60.26 265.361 60.918L264.871 60.19C265.599 59.434 266.467 59.07 267.573 59.07C269.015 59.07 270.191 59.714 270.191 61.352V66ZM267.293 65.412C268.021 65.412 268.735 65.132 269.141 64.572V63.284C268.735 62.738 268.021 62.458 267.293 62.458C266.299 62.458 265.613 63.074 265.613 63.928C265.613 64.796 266.299 65.412 267.293 65.412ZM273.36 66H272.31V56.662H273.36V66ZM275.986 58.272C275.594 58.272 275.272 57.964 275.272 57.572C275.272 57.18 275.594 56.858 275.986 56.858C276.378 56.858 276.686 57.18 276.686 57.572C276.686 57.964 276.378 58.272 275.986 58.272ZM276.504 66H275.454V59.238H276.504V66ZM284.549 66H283.499V64.992C282.995 65.678 282.169 66.168 281.217 66.168C279.453 66.168 278.207 64.824 278.207 62.626C278.207 60.456 279.453 59.07 281.217 59.07C282.127 59.07 282.953 59.518 283.499 60.26V56.662H284.549V66ZM281.483 65.23C282.309 65.23 283.135 64.74 283.499 64.152V61.1C283.135 60.512 282.309 60.008 281.483 60.008C280.111 60.008 279.299 61.128 279.299 62.626C279.299 64.124 280.111 65.23 281.483 65.23ZM291.93 66H290.88V65.23C290.334 65.846 289.55 66.168 288.64 66.168C287.506 66.168 286.288 65.398 286.288 63.928C286.288 62.402 287.492 61.702 288.64 61.702C289.564 61.702 290.334 61.996 290.88 62.612V61.394C290.88 60.498 290.152 59.98 289.172 59.98C288.36 59.98 287.702 60.26 287.1 60.918L286.61 60.19C287.338 59.434 288.206 59.07 289.312 59.07C290.754 59.07 291.93 59.714 291.93 61.352V66ZM289.032 65.412C289.76 65.412 290.474 65.132 290.88 64.572V63.284C290.474 62.738 289.76 62.458 289.032 62.458C288.038 62.458 287.352 63.074 287.352 63.928C287.352 64.796 288.038 65.412 289.032 65.412ZM299.998 66H298.948V64.992C298.444 65.678 297.618 66.168 296.666 66.168C294.902 66.168 293.656 64.824 293.656 62.626C293.656 60.456 294.902 59.07 296.666 59.07C297.576 59.07 298.402 59.518 298.948 60.26V56.662H299.998V66ZM296.932 65.23C297.758 65.23 298.584 64.74 298.948 64.152V61.1C298.584 60.512 297.758 60.008 296.932 60.008C295.56 60.008 294.748 61.128 294.748 62.626C294.748 64.124 295.56 65.23 296.932 65.23ZM302.661 66.14C302.241 66.14 301.891 65.79 301.891 65.37C301.891 64.95 302.241 64.6 302.661 64.6C303.081 64.6 303.431 64.95 303.431 65.37C303.431 65.79 303.081 66.14 302.661 66.14ZM3.02321 76.612C3.02321 77.424 2.33721 78.11 1.51121 78.11C0.685211 78.11 -0.000789002 77.424 -0.000789002 76.612C-0.000789002 75.786 0.685211 75.1 1.51121 75.1C2.33721 75.1 3.02321 75.786 3.02321 76.612ZM19.21 80H13.092V70.662H19.21V71.698H14.254V74.708H19.112V75.744H14.254V78.964H19.21V80ZM23.1767 80.168C22.0567 80.168 21.1327 79.818 20.4467 79.104L20.9787 78.348C21.4267 78.866 22.2807 79.314 23.2047 79.314C24.2407 79.314 24.8147 78.824 24.8147 78.152C24.8147 76.514 20.6287 77.522 20.6287 75.016C20.6287 73.952 21.5247 73.07 23.1347 73.07C24.2967 73.07 25.1087 73.504 25.6407 74.05L25.1507 74.778C24.7447 74.288 24.0167 73.924 23.1347 73.924C22.2107 73.924 21.6367 74.386 21.6367 74.988C21.6367 76.458 25.8227 75.492 25.8227 78.124C25.8227 79.258 24.9127 80.168 23.1767 80.168ZM29.2505 80.168C28.2425 80.168 27.7385 79.594 27.7385 78.586V74.162H26.6185V73.238H27.7385V71.39H28.8025V73.238H30.1745V74.162H28.8025V78.362C28.8025 78.866 29.0265 79.23 29.4745 79.23C29.7825 79.23 30.0485 79.09 30.1885 78.936L30.4965 79.734C30.2305 79.986 29.8525 80.168 29.2505 80.168ZM36.9218 80H35.8718V79.23C35.3258 79.846 34.5418 80.168 33.6318 80.168C32.4978 80.168 31.2798 79.398 31.2798 77.928C31.2798 76.402 32.4838 75.702 33.6318 75.702C34.5558 75.702 35.3258 75.996 35.8718 76.612V75.394C35.8718 74.498 35.1438 73.98 34.1638 73.98C33.3518 73.98 32.6938 74.26 32.0918 74.918L31.6018 74.19C32.3298 73.434 33.1978 73.07 34.3038 73.07C35.7458 73.07 36.9218 73.714 36.9218 75.352V80ZM34.0238 79.412C34.7518 79.412 35.4658 79.132 35.8718 78.572V77.284C35.4658 76.738 34.7518 76.458 34.0238 76.458C33.0298 76.458 32.3438 77.074 32.3438 77.928C32.3438 78.796 33.0298 79.412 34.0238 79.412ZM40.0902 80H39.0402V73.238H40.0902V74.316C40.6362 73.616 41.4202 73.084 42.3442 73.084V74.162C42.2182 74.148 42.0922 74.134 41.9382 74.134C41.2802 74.134 40.3982 74.666 40.0902 75.212V80ZM50.3504 80.168C48.3344 80.168 46.8924 78.726 46.8924 76.612C46.8924 74.652 48.2924 73.07 50.2244 73.07C52.2684 73.07 53.4724 74.666 53.4724 76.696V76.962H48.0124C48.0964 78.236 48.9784 79.3 50.4344 79.3C51.2184 79.3 51.9884 78.992 52.5344 78.432L53.0384 79.118C52.3524 79.79 51.4424 80.168 50.3504 80.168ZM52.4364 76.178C52.4224 75.184 51.7504 73.938 50.2104 73.938C48.7684 73.938 48.0544 75.156 47.9984 76.178H52.4364ZM60.787 80H59.751V75.576C59.751 74.372 59.135 74.008 58.225 74.008C57.399 74.008 56.629 74.512 56.223 75.058V80H55.173V73.238H56.223V74.218C56.699 73.644 57.623 73.07 58.645 73.07C60.045 73.07 60.787 73.784 60.787 75.254V80ZM72.1347 80H71.0847V79.048C70.5667 79.636 69.6847 80.168 68.6767 80.168C67.2627 80.168 66.5207 79.468 66.5207 78.012V73.238H67.5707V77.69C67.5707 78.88 68.1727 79.23 69.0967 79.23C69.9087 79.23 70.6927 78.754 71.0847 78.208V73.238H72.1347V80ZM79.8456 80H78.8096V75.576C78.8096 74.372 78.1936 74.008 77.2836 74.008C76.4576 74.008 75.6876 74.512 75.2816 75.058V80H74.2316V73.238H75.2816V74.218C75.7576 73.644 76.6816 73.07 77.7036 73.07C79.1036 73.07 79.8456 73.784 79.8456 75.254V80ZM90.8573 80H89.8073V79.23C89.2613 79.846 88.4773 80.168 87.5673 80.168C86.4333 80.168 85.2153 79.398 85.2153 77.928C85.2153 76.402 86.4193 75.702 87.5673 75.702C88.4913 75.702 89.2613 75.996 89.8073 76.612V75.394C89.8073 74.498 89.0793 73.98 88.0993 73.98C87.2873 73.98 86.6293 74.26 86.0273 74.918L85.5373 74.19C86.2653 73.434 87.1333 73.07 88.2393 73.07C89.6813 73.07 90.8573 73.714 90.8573 75.352V80ZM87.9593 79.412C88.6873 79.412 89.4013 79.132 89.8073 78.572V77.284C89.4013 76.738 88.6873 76.458 87.9593 76.458C86.9653 76.458 86.2793 77.074 86.2793 77.928C86.2793 78.796 86.9653 79.412 87.9593 79.412ZM102.188 80H101.138V75.408C101.138 74.554 100.774 74.008 99.8918 74.008C99.1918 74.008 98.4498 74.498 98.0998 75.044V80H97.0498V75.408C97.0498 74.554 96.6998 74.008 95.8038 74.008C95.1178 74.008 94.3898 74.512 94.0258 75.058V80H92.9758V73.238H94.0258V74.218C94.3198 73.784 95.2158 73.07 96.2238 73.07C97.2458 73.07 97.8338 73.63 98.0298 74.33C98.4078 73.714 99.3178 73.07 100.298 73.07C101.53 73.07 102.188 73.756 102.188 75.114V80ZM105.332 78.166C105.696 78.754 106.522 79.23 107.362 79.23C108.72 79.23 109.532 78.124 109.532 76.626C109.532 75.128 108.72 74.008 107.362 74.008C106.522 74.008 105.696 74.512 105.332 75.1V78.166ZM105.332 80H104.282V70.662H105.332V74.26C105.878 73.518 106.704 73.07 107.614 73.07C109.392 73.07 110.624 74.456 110.624 76.626C110.624 78.824 109.378 80.168 107.614 80.168C106.662 80.168 105.836 79.678 105.332 78.992V80ZM112.867 72.272C112.475 72.272 112.153 71.964 112.153 71.572C112.153 71.18 112.475 70.858 112.867 70.858C113.259 70.858 113.567 71.18 113.567 71.572C113.567 71.964 113.259 72.272 112.867 72.272ZM113.385 80H112.335V73.238H113.385V80ZM118.546 80.168C116.53 80.168 115.088 78.726 115.088 76.612C115.088 74.652 116.488 73.07 118.42 73.07C120.464 73.07 121.668 74.666 121.668 76.696V76.962H116.208C116.292 78.236 117.174 79.3 118.63 79.3C119.414 79.3 120.184 78.992 120.73 78.432L121.234 79.118C120.548 79.79 119.638 80.168 118.546 80.168ZM120.632 76.178C120.618 75.184 119.946 73.938 118.406 73.938C116.964 73.938 116.25 75.156 116.194 76.178H120.632ZM128.982 80H127.946V75.576C127.946 74.372 127.33 74.008 126.42 74.008C125.594 74.008 124.824 74.512 124.418 75.058V80H123.368V73.238H124.418V74.218C124.894 73.644 125.818 73.07 126.84 73.07C128.24 73.07 128.982 73.784 128.982 75.254V80ZM132.815 80.168C131.807 80.168 131.303 79.594 131.303 78.586V74.162H130.183V73.238H131.303V71.39H132.367V73.238H133.739V74.162H132.367V78.362C132.367 78.866 132.591 79.23 133.039 79.23C133.347 79.23 133.613 79.09 133.753 78.936L134.061 79.734C133.795 79.986 133.417 80.168 132.815 80.168ZM138.274 80.168C136.258 80.168 134.816 78.726 134.816 76.612C134.816 74.652 136.216 73.07 138.148 73.07C140.192 73.07 141.396 74.666 141.396 76.696V76.962H135.936C136.02 78.236 136.902 79.3 138.358 79.3C139.142 79.3 139.912 78.992 140.458 78.432L140.962 79.118C140.276 79.79 139.366 80.168 138.274 80.168ZM140.36 76.178C140.346 75.184 139.674 73.938 138.134 73.938C136.692 73.938 135.978 75.156 135.922 76.178H140.36ZM147.77 80H146.72V73.238H147.77V74.316C148.316 73.616 149.1 73.084 150.024 73.084V74.162C149.898 74.148 149.772 74.134 149.618 74.134C148.96 74.134 148.078 74.666 147.77 75.212V80ZM154.407 80.168C152.391 80.168 150.949 78.726 150.949 76.612C150.949 74.652 152.349 73.07 154.281 73.07C156.325 73.07 157.529 74.666 157.529 76.696V76.962H152.069C152.153 78.236 153.035 79.3 154.491 79.3C155.275 79.3 156.045 78.992 156.591 78.432L157.095 79.118C156.409 79.79 155.499 80.168 154.407 80.168ZM156.493 76.178C156.479 75.184 155.807 73.938 154.267 73.938C152.825 73.938 152.111 75.156 152.055 76.178H156.493ZM160.28 80H159.23V70.662H160.28V80ZM167.652 80H166.602V79.23C166.056 79.846 165.272 80.168 164.362 80.168C163.228 80.168 162.01 79.398 162.01 77.928C162.01 76.402 163.214 75.702 164.362 75.702C165.286 75.702 166.056 75.996 166.602 76.612V75.394C166.602 74.498 165.874 73.98 164.894 73.98C164.082 73.98 163.424 74.26 162.822 74.918L162.332 74.19C163.06 73.434 163.928 73.07 165.034 73.07C166.476 73.07 167.652 73.714 167.652 75.352V80ZM164.754 79.412C165.482 79.412 166.196 79.132 166.602 78.572V77.284C166.196 76.738 165.482 76.458 164.754 76.458C163.76 76.458 163.074 77.074 163.074 77.928C163.074 78.796 163.76 79.412 164.754 79.412ZM170.303 72.272C169.911 72.272 169.589 71.964 169.589 71.572C169.589 71.18 169.911 70.858 170.303 70.858C170.695 70.858 171.003 71.18 171.003 71.572C171.003 71.964 170.695 72.272 170.303 72.272ZM168.819 82.744C168.133 82.744 167.769 82.576 167.349 82.24L167.713 81.456C167.951 81.694 168.259 81.876 168.679 81.876C169.309 81.876 169.771 81.512 169.771 80.658V73.238H170.821V80.658C170.821 81.988 170.121 82.744 168.819 82.744ZM178.193 80H177.143V79.23C176.597 79.846 175.813 80.168 174.903 80.168C173.769 80.168 172.551 79.398 172.551 77.928C172.551 76.402 173.755 75.702 174.903 75.702C175.827 75.702 176.597 75.996 177.143 76.612V75.394C177.143 74.498 176.415 73.98 175.435 73.98C174.623 73.98 173.965 74.26 173.363 74.918L172.873 74.19C173.601 73.434 174.469 73.07 175.575 73.07C177.017 73.07 178.193 73.714 178.193 75.352V80ZM175.295 79.412C176.023 79.412 176.737 79.132 177.143 78.572V77.284C176.737 76.738 176.023 76.458 175.295 76.458C174.301 76.458 173.615 77.074 173.615 77.928C173.615 78.796 174.301 79.412 175.295 79.412ZM186.262 80H185.212V78.992C184.708 79.678 183.882 80.168 182.93 80.168C181.166 80.168 179.92 78.824 179.92 76.626C179.92 74.456 181.166 73.07 182.93 73.07C183.84 73.07 184.666 73.518 185.212 74.26V70.662H186.262V80ZM183.196 79.23C184.022 79.23 184.848 78.74 185.212 78.152V75.1C184.848 74.512 184.022 74.008 183.196 74.008C181.824 74.008 181.012 75.128 181.012 76.626C181.012 78.124 181.824 79.23 183.196 79.23ZM191.318 80.168C189.26 80.168 187.972 78.572 187.972 76.612C187.972 74.652 189.26 73.07 191.318 73.07C193.376 73.07 194.664 74.652 194.664 76.612C194.664 78.572 193.376 80.168 191.318 80.168ZM191.318 79.23C192.76 79.23 193.558 77.998 193.558 76.612C193.558 75.24 192.76 74.008 191.318 74.008C189.876 74.008 189.078 75.24 189.078 76.612C189.078 77.998 189.876 79.23 191.318 79.23ZM199.635 82.646L199.789 81.694C199.943 81.764 200.195 81.806 200.363 81.806C200.825 81.806 201.133 81.652 201.371 81.092L201.819 80.07L198.991 73.238H200.139L202.379 78.782L204.633 73.238H205.767L202.379 81.372C201.973 82.352 201.287 82.73 200.391 82.744C200.167 82.744 199.817 82.702 199.635 82.646ZM212.208 80.168C211.2 80.168 210.696 79.594 210.696 78.586V74.162H209.576V73.238H210.696V71.39H211.76V73.238H213.132V74.162H211.76V78.362C211.76 78.866 211.984 79.23 212.432 79.23C212.74 79.23 213.006 79.09 213.146 78.936L213.454 79.734C213.188 79.986 212.81 80.168 212.208 80.168ZM215.651 80H214.601V73.238H215.651V74.316C216.197 73.616 216.981 73.084 217.905 73.084V74.162C217.779 74.148 217.653 74.134 217.499 74.134C216.841 74.134 215.959 74.666 215.651 75.212V80ZM224.5 80H223.45V79.23C222.904 79.846 222.12 80.168 221.21 80.168C220.076 80.168 218.858 79.398 218.858 77.928C218.858 76.402 220.062 75.702 221.21 75.702C222.134 75.702 222.904 75.996 223.45 76.612V75.394C223.45 74.498 222.722 73.98 221.742 73.98C220.93 73.98 220.272 74.26 219.67 74.918L219.18 74.19C219.908 73.434 220.776 73.07 221.882 73.07C223.324 73.07 224.5 73.714 224.5 75.352V80ZM221.602 79.412C222.33 79.412 223.044 79.132 223.45 78.572V77.284C223.044 76.738 222.33 76.458 221.602 76.458C220.608 76.458 219.922 77.074 219.922 77.928C219.922 78.796 220.608 79.412 221.602 79.412ZM232.232 80H231.196V75.576C231.196 74.372 230.58 74.008 229.67 74.008C228.844 74.008 228.074 74.512 227.668 75.058V80H226.618V73.238H227.668V74.218C228.144 73.644 229.068 73.07 230.09 73.07C231.49 73.07 232.232 73.784 232.232 75.254V80ZM237.185 79.23C238.011 79.23 238.837 78.726 239.201 78.138V75.086C238.837 74.498 238.011 74.008 237.185 74.008C235.827 74.008 235.015 75.114 235.015 76.612C235.015 78.11 235.827 79.23 237.185 79.23ZM236.919 80.168C235.141 80.168 233.909 78.796 233.909 76.612C233.909 74.414 235.141 73.07 236.919 73.07C237.871 73.07 238.711 73.56 239.201 74.246V73.238H240.251V82.576H239.201V78.978C238.641 79.72 237.843 80.168 236.919 80.168ZM247.969 80H246.919V79.048C246.401 79.636 245.519 80.168 244.511 80.168C243.097 80.168 242.355 79.468 242.355 78.012V73.238H243.405V77.69C243.405 78.88 244.007 79.23 244.931 79.23C245.743 79.23 246.527 78.754 246.919 78.208V73.238H247.969V80ZM250.598 72.272C250.206 72.272 249.884 71.964 249.884 71.572C249.884 71.18 250.206 70.858 250.598 70.858C250.99 70.858 251.298 71.18 251.298 71.572C251.298 71.964 250.99 72.272 250.598 72.272ZM251.116 80H250.066V73.238H251.116V80ZM254.26 80H253.21V70.662H254.26V80ZM259.309 80.168C257.251 80.168 255.963 78.572 255.963 76.612C255.963 74.652 257.251 73.07 259.309 73.07C261.367 73.07 262.655 74.652 262.655 76.612C262.655 78.572 261.367 80.168 259.309 80.168ZM259.309 79.23C260.751 79.23 261.549 77.998 261.549 76.612C261.549 75.24 260.751 74.008 259.309 74.008C257.867 74.008 257.069 75.24 257.069 76.612C257.069 77.998 257.867 79.23 259.309 79.23ZM264.831 80.14C264.411 80.14 264.061 79.79 264.061 79.37C264.061 78.95 264.411 78.6 264.831 78.6C265.251 78.6 265.601 78.95 265.601 79.37C265.601 79.79 265.251 80.14 264.831 80.14Z" fill="#212121"/>
</svg>
