<svg width="16" height="32" viewBox="0 0 16 32" fill="none" xmlns="http://www.w3.org/2000/svg">
<path d="M14.0296 18.8245V6.64724C14.0296 3.48353 11.4629 0.916748 8.29915 0.916748C5.07574 0.916748 2.56865 3.48353 2.56865 6.64724V18.8245C1.3748 20.1378 0.658488 21.9286 0.658488 23.8387C0.598796 28.0172 4.00128 31.4794 8.23945 31.4794C8.23945 31.4794 8.23945 31.4794 8.29915 31.4794C12.4776 31.4794 15.9398 28.0769 15.9398 23.8387C15.9398 21.9286 15.1638 20.1378 14.0296 18.8245ZM13.0746 23.8387C13.0746 26.5249 10.9256 28.6141 8.29915 28.6141H8.23945C5.61298 28.6141 3.46404 26.4652 3.52373 23.8387C3.52373 21.8092 4.6579 20.7347 5.4339 19.899V6.64724C5.4339 5.09523 6.68744 3.78199 8.29915 3.78199C9.85115 3.78199 11.1644 5.09523 11.1644 6.64724V19.899C11.8807 20.7347 13.0746 21.8092 13.0746 23.8387Z" fill="#055293"/>
<path d="M10.2095 20.5558C11.3437 21.2124 12.1197 22.466 12.1197 23.8389C12.1197 25.9878 10.3886 27.6592 8.29933 27.6592C6.1504 27.6592 4.479 25.9878 4.479 23.8389C4.479 22.466 5.19532 21.2124 6.38917 20.5558V14.2881C6.38917 13.2733 7.22486 12.3779 8.29933 12.3779C9.31411 12.3779 10.2095 13.2733 10.2095 14.2881V20.5558Z" fill="#3CA70D"/>
</svg>
