<svg width="11" height="11" viewBox="0 0 20 20" fill="none" xmlns="http://www.w3.org/2000/svg">
<g clip-path="url(#clip0_218_2645)">
<path d="M19.722 18.2564C20.1391 18.7035 20.0869 19.374 19.5656 19.7764C19.3049 19.9553 19.0444 20 18.7836 20C18.4187 20 18.0539 19.9105 17.7932 19.6424L10.0261 11.6841L2.20678 19.6424C1.94613 19.9105 1.58123 20 1.21633 20C0.955691 20 0.695047 19.9553 0.434405 19.7764C-0.0868811 19.374 -0.13901 18.7035 0.27802 18.2564L8.35795 9.98509L0.27802 1.75857C-0.13901 1.31147 -0.0868811 0.640834 0.434405 0.238451C0.955691 -0.119225 1.73762 -0.0745158 2.20678 0.372578L10.0261 8.33086L17.7932 0.372578C18.2624 -0.0745158 19.0444 -0.119225 19.5656 0.238451C20.0869 0.640834 20.1391 1.31147 19.722 1.75857L11.6421 9.98509L19.722 18.2564Z" fill="white"/>
</g>
<defs>
<clipPath id="clip0_218_2645">
<rect width="20" height="20" fill="white"/>
</clipPath>
</defs>
</svg>
