<svg width="19" height="20" viewBox="0 0 19 20" fill="none" xmlns="http://www.w3.org/2000/svg">
<path d="M9.5 0.671875C4.41602 0.671875 0.296875 4.79102 0.296875 9.875C0.296875 14.959 4.41602 19.0781 9.5 19.0781C14.584 19.0781 18.7031 14.959 18.7031 9.875C18.7031 4.79102 14.584 0.671875 9.5 0.671875ZM13.9902 12.3242C14.1758 12.4727 14.1758 12.7695 13.9902 12.9551L12.543 14.4023C12.3574 14.5879 12.0605 14.5879 11.9121 14.4023L9.5 11.9531L7.05078 14.4023C6.90234 14.5879 6.60547 14.5879 6.41992 14.4023L4.97266 12.918C4.78711 12.7695 4.78711 12.4727 4.97266 12.2871L7.42188 9.875L4.97266 7.46289C4.78711 7.31445 4.78711 7.01758 4.97266 6.83203L6.45703 5.38477C6.60547 5.19922 6.90234 5.19922 7.08789 5.38477L9.5 7.79688L11.9121 5.38477C12.0605 5.19922 12.3574 5.19922 12.543 5.38477L13.9902 6.83203C14.1758 7.01758 14.1758 7.31445 13.9902 7.46289L11.5781 9.875L13.9902 12.3242Z" fill="white"/>
</svg>
