<svg width="19" height="19" viewBox="0 0 19 19" fill="none" xmlns="http://www.w3.org/2000/svg">
<path d="M9.20312 0C4.11914 0 0 4.11914 0 9.20312C0 14.2871 4.11914 18.4062 9.20312 18.4062C14.2871 18.4062 18.4062 14.2871 18.4062 9.20312C18.4062 4.11914 14.2871 0 9.20312 0ZM13.6934 11.6523C13.8789 11.8008 13.8789 12.0977 13.6934 12.2832L12.2461 13.7305C12.0605 13.916 11.7637 13.916 11.6152 13.7305L9.20312 11.2812L6.75391 13.7305C6.60547 13.916 6.30859 13.916 6.12305 13.7305L4.67578 12.2461C4.49023 12.0977 4.49023 11.8008 4.67578 11.6152L7.125 9.20312L4.67578 6.79102C4.49023 6.64258 4.49023 6.3457 4.67578 6.16016L6.16016 4.71289C6.30859 4.52734 6.60547 4.52734 6.79102 4.71289L9.20312 7.125L11.6152 4.71289C11.7637 4.52734 12.0605 4.52734 12.2461 4.71289L13.6934 6.16016C13.8789 6.3457 13.8789 6.64258 13.6934 6.79102L11.2812 9.20312L13.6934 11.6523Z" fill="white"/>
</svg>
