<svg width="102" height="102" viewBox="0 0 102 102" fill="none" xmlns="http://www.w3.org/2000/svg">
<rect x="1" y="1" width="100" height="100" rx="10" fill="white"/>
<path d="M54 38.2188C52.9062 38.2188 52.2031 39.0781 52.2031 40.0938C52.2812 45.7188 51.5 51.1094 50.0156 56.5781C49.7031 57.4375 50.0938 59 51.7344 59C52.5938 59 53.2969 58.5312 53.5312 57.6719C54.625 53.9219 55.875 47.9062 55.875 40.0938C55.875 39.0781 55.0156 38.2188 54 38.2188ZM53.9219 31.8906C49.0781 31.8906 45.7969 35.5625 45.875 39.7812C45.875 43.5312 45.5625 47.2812 44.7812 50.875C44.5469 51.8125 45.25 52.9062 46.2656 53.1406C47.2031 53.2969 48.2188 52.6719 48.4531 51.6562C49.3125 47.75 49.625 43.7656 49.625 39.7812C49.5469 37.6719 51.1094 35.6406 53.8438 35.6406C56.2656 35.6406 58.2969 37.5938 58.375 39.9375C58.375 43.6094 58.1406 47.5156 57.5156 51.1875C57.3594 52.125 58.0625 53.1406 59.0781 53.2969C60.6406 53.6094 61.1875 52.125 61.1875 51.8125C61.8906 47.9062 62.125 43.8438 62.125 39.9375C62.0469 35.5625 58.375 31.9688 53.9219 31.8906ZM45.25 30.3281C44.4688 29.7031 43.2969 29.7812 42.5938 30.5625C40.6406 33.0625 39.5469 36.1875 39.625 39.3125C39.625 42.2812 39.3906 45.25 38.9219 48.0625C38.6875 49.0781 39.3906 50.0938 40.4062 50.25C41.9688 50.5625 42.5156 49.0781 42.5156 48.7656C43.0625 45.6406 43.2969 42.4375 43.2969 39.3125C43.2969 36.9688 44.0781 34.7812 45.4844 32.9844C46.1875 32.125 46.0312 30.9531 45.25 30.3281ZM53.7656 25.4844C52.5938 25.4062 51.4219 25.5625 50.25 25.875C49.2344 26.0312 48.6094 27.0469 48.8438 28.1406C49.0781 29.0781 50.0156 29.7031 51.0312 29.4688C51.9688 29.3125 52.8281 29.1562 53.7656 29.2344C59.625 29.3125 64.5469 34 64.625 39.7031C64.625 42.6719 64.4688 45.5625 64.1562 48.6094C64.0781 49.625 64.7812 50.4844 65.7969 50.6406C67.125 50.7188 67.8281 49.7031 67.9062 49C68.2188 45.875 68.375 42.75 68.375 39.625C68.2188 31.9688 61.7344 25.5625 53.7656 25.4844ZM73.5312 34.9375C73.2969 34 72.2812 33.2969 71.2656 33.5312C70.3281 33.7656 69.625 34.7031 69.8594 35.7188C70.1719 37.4375 70.25 38.6875 70.1719 40.5625C70.1719 41.5781 71.0312 42.4375 72.0469 42.4375C73.0625 42.4375 73.9219 41.6562 73.9219 40.5625C74 38.8438 74 37.125 73.5312 34.9375ZM70.3281 27.8281C66.5 22.4375 60.25 19.1562 53.6094 19C48.2188 19 43.1406 20.9531 39.3906 24.7031C35.7969 28.375 33.8438 33.1406 33.9219 38.2969V40.0156C33.9219 41.0312 34.7812 41.8906 35.7969 41.8906C35.7969 41.8906 35.7969 41.8906 35.875 41.8906C36.8125 41.8906 37.6719 41.1094 37.6719 40.0938V38.2188C37.6719 34.1562 39.2344 30.25 42.125 27.3594C45.1719 24.3906 49.2344 22.75 53.6875 22.8281C59.0781 22.8281 64.1562 25.5625 67.2812 30.0156C67.9062 30.875 69.0781 31.0312 69.9375 30.4844C70.7188 29.8594 70.9531 28.6875 70.3281 27.8281Z" fill="url(#paint0_linear_8_20)"/>
<path d="M15.7125 82.168C18.2465 82.168 19.5345 80.684 19.5345 78.36V72.662H18.3585V78.346C18.3585 80.054 17.4345 81.132 15.7125 81.132C13.9905 81.132 13.0805 80.054 13.0805 78.346V72.662H11.9045V78.374C11.9045 80.67 13.1925 82.168 15.7125 82.168ZM23.8349 82.168C25.5709 82.168 26.4809 81.258 26.4809 80.124C26.4809 77.492 22.2949 78.458 22.2949 76.988C22.2949 76.386 22.8689 75.924 23.7929 75.924C24.6749 75.924 25.4029 76.288 25.8089 76.778L26.2989 76.05C25.7669 75.504 24.9549 75.07 23.7929 75.07C22.1829 75.07 21.2869 75.952 21.2869 77.016C21.2869 79.522 25.4729 78.514 25.4729 80.152C25.4729 80.824 24.8989 81.314 23.8629 81.314C22.9389 81.314 22.0849 80.866 21.6369 80.348L21.1049 81.104C21.7909 81.818 22.7149 82.168 23.8349 82.168ZM31.2527 82.168C32.3447 82.168 33.2547 81.79 33.9407 81.118L33.4367 80.432C32.8907 80.992 32.1207 81.3 31.3367 81.3C29.8807 81.3 28.9987 80.236 28.9147 78.962H34.3747V78.696C34.3747 76.666 33.1707 75.07 31.1267 75.07C29.1947 75.07 27.7947 76.652 27.7947 78.612C27.7947 80.726 29.2367 82.168 31.2527 82.168ZM33.3387 78.178H28.9007C28.9567 77.156 29.6707 75.938 31.1127 75.938C32.6527 75.938 33.3247 77.184 33.3387 78.178ZM43.2124 82V73.698H46.1804V72.662H39.0964V73.698H42.0504V82H43.2124ZM49.0235 82.168C51.0815 82.168 52.3695 80.572 52.3695 78.612C52.3695 76.652 51.0815 75.07 49.0235 75.07C46.9655 75.07 45.6775 76.652 45.6775 78.612C45.6775 80.572 46.9655 82.168 49.0235 82.168ZM49.0235 81.23C47.5815 81.23 46.7835 79.998 46.7835 78.612C46.7835 77.24 47.5815 76.008 49.0235 76.008C50.4655 76.008 51.2635 77.24 51.2635 78.612C51.2635 79.998 50.4655 81.23 49.0235 81.23ZM59.6953 82V75.238H58.6453V80.208C58.2533 80.754 57.4693 81.23 56.6573 81.23C55.7333 81.23 55.1313 80.88 55.1313 79.69V75.238H54.0813V80.012C54.0813 81.468 54.8233 82.168 56.2373 82.168C57.2453 82.168 58.1273 81.636 58.6453 81.048V82H59.6953ZM64.7742 82.168C66.0062 82.168 66.7342 81.664 67.2522 80.992L66.5522 80.348C66.1042 80.95 65.5302 81.23 64.8302 81.23C63.4022 81.23 62.4922 80.11 62.4922 78.612C62.4922 77.114 63.4022 76.008 64.8302 76.008C65.5302 76.008 66.1042 76.26 66.5522 76.876L67.2522 76.246C66.7342 75.574 66.0062 75.07 64.7742 75.07C62.7582 75.07 61.4002 76.61 61.4002 78.612C61.4002 80.614 62.7582 82.168 64.7742 82.168ZM74.3655 82V77.226C74.3655 75.756 73.6235 75.07 72.2095 75.07C71.1875 75.07 70.2635 75.644 69.8015 76.218V72.662H68.7515V82H69.8015V77.058C70.1935 76.512 70.9775 76.008 71.7895 76.008C72.7135 76.008 73.3155 76.344 73.3155 77.548V82H74.3655ZM81.2892 82V72.662H80.1272V82H81.2892ZM86.6688 82C89.5808 82 91.4568 79.998 91.4568 77.338C91.4568 74.692 89.5808 72.662 86.6688 72.662H83.4768V82H86.6688ZM86.6688 80.964H84.6388V73.698H86.6688C88.9788 73.698 90.2528 75.322 90.2528 77.338C90.2528 79.34 88.9368 80.964 86.6688 80.964Z" fill="#0069A7"/>
<path d="M1 20.8864V11C1 5.47716 5.47715 1 11 1H20.8864" stroke="#0069A7" stroke-width="2" stroke-linecap="round"/>
<path d="M1 81V90.8864C1 96.4092 5.47715 100.886 11 100.886H20.8864" stroke="#0069A7" stroke-width="2" stroke-linecap="round"/>
<path d="M100.886 20.8864V11C100.886 5.47716 96.4092 1 90.8864 1H81" stroke="#0069A7" stroke-width="2" stroke-linecap="round"/>
<path d="M100.886 81V90.8864C100.886 96.4092 96.4092 100.886 90.8864 100.886H81" stroke="#0069A7" stroke-width="2" stroke-linecap="round"/>
<rect x="1" y="1" width="100" height="100" rx="10" fill="white"/>
<path d="M42 35.2616V38.9241M61 35.2616V38.9241M52.4366 35V42.9875C52.4366 44.6443 51.0935 45.9875 49.4366 45.9875H49.2254M44.1408 50.958C48.6901 54.8821 54.0423 55.1437 58.5915 50.958" stroke="url(#paint1_linear_8_20)" stroke-width="3" stroke-linecap="round"/>
<circle cx="51" cy="41" r="22" stroke="url(#paint2_linear_8_20)" stroke-width="2"/>
<path d="M18.6236 82.168C21.1576 82.168 22.4456 80.684 22.4456 78.36V72.662H21.2696V78.346C21.2696 80.054 20.3456 81.132 18.6236 81.132C16.9016 81.132 15.9916 80.054 15.9916 78.346V72.662H14.8156V78.374C14.8156 80.67 16.1036 82.168 18.6236 82.168ZM26.746 82.168C28.482 82.168 29.392 81.258 29.392 80.124C29.392 77.492 25.206 78.458 25.206 76.988C25.206 76.386 25.78 75.924 26.704 75.924C27.586 75.924 28.314 76.288 28.72 76.778L29.21 76.05C28.678 75.504 27.866 75.07 26.704 75.07C25.094 75.07 24.198 75.952 24.198 77.016C24.198 79.522 28.384 78.514 28.384 80.152C28.384 80.824 27.81 81.314 26.774 81.314C25.85 81.314 24.996 80.866 24.548 80.348L24.016 81.104C24.702 81.818 25.626 82.168 26.746 82.168ZM34.1639 82.168C35.2559 82.168 36.1659 81.79 36.8519 81.118L36.3479 80.432C35.8019 80.992 35.0319 81.3 34.2479 81.3C32.7919 81.3 31.9099 80.236 31.8259 78.962H37.2859V78.696C37.2859 76.666 36.0819 75.07 34.0379 75.07C32.1059 75.07 30.7059 76.652 30.7059 78.612C30.7059 80.726 32.1479 82.168 34.1639 82.168ZM36.2499 78.178H31.8119C31.8679 77.156 32.5819 75.938 34.0239 75.938C35.5639 75.938 36.2359 77.184 36.2499 78.178ZM43.8136 82V77.744H48.6716V76.708H43.8136V73.698H48.7696V72.662H42.6516V82H43.8136ZM55.5985 82V77.352C55.5985 75.714 54.4225 75.07 52.9805 75.07C51.8745 75.07 51.0065 75.434 50.2785 76.19L50.7685 76.918C51.3705 76.26 52.0285 75.98 52.8405 75.98C53.8205 75.98 54.5485 76.498 54.5485 77.394V78.612C54.0025 77.996 53.2325 77.702 52.3085 77.702C51.1605 77.702 49.9565 78.402 49.9565 79.928C49.9565 81.398 51.1745 82.168 52.3085 82.168C53.2185 82.168 54.0025 81.846 54.5485 81.23V82H55.5985ZM52.7005 81.412C51.7065 81.412 51.0205 80.796 51.0205 79.928C51.0205 79.074 51.7065 78.458 52.7005 78.458C53.4285 78.458 54.1425 78.738 54.5485 79.284V80.572C54.1425 81.132 53.4285 81.412 52.7005 81.412ZM60.699 82.168C61.931 82.168 62.659 81.664 63.177 80.992L62.477 80.348C62.029 80.95 61.455 81.23 60.755 81.23C59.327 81.23 58.417 80.11 58.417 78.612C58.417 77.114 59.327 76.008 60.755 76.008C61.455 76.008 62.029 76.26 62.477 76.876L63.177 76.246C62.659 75.574 61.931 75.07 60.699 75.07C58.683 75.07 57.325 76.61 57.325 78.612C57.325 80.614 58.683 82.168 60.699 82.168ZM67.7283 82.168C68.8203 82.168 69.7303 81.79 70.4163 81.118L69.9123 80.432C69.3663 80.992 68.5963 81.3 67.8123 81.3C66.3563 81.3 65.4743 80.236 65.3903 78.962H70.8503V78.696C70.8503 76.666 69.6463 75.07 67.6023 75.07C65.6703 75.07 64.2703 76.652 64.2703 78.612C64.2703 80.726 65.7123 82.168 67.7283 82.168ZM69.8143 78.178H65.3763C65.4323 77.156 66.1463 75.938 67.5883 75.938C69.1283 75.938 69.8003 77.184 69.8143 78.178ZM77.378 82V72.662H76.216V82H77.378ZM82.7576 82C85.6696 82 87.5456 79.998 87.5456 77.338C87.5456 74.692 85.6696 72.662 82.7576 72.662H79.5656V82H82.7576ZM82.7576 80.964H80.7276V73.698H82.7576C85.0676 73.698 86.3416 75.322 86.3416 77.338C86.3416 79.34 85.0256 80.964 82.7576 80.964Z" fill="#0069A7"/>
<path d="M1 20.8864V11C1 5.47716 5.47715 1 11 1H20.8864" stroke="#0069A7" stroke-width="2" stroke-linecap="round"/>
<path d="M1 81V90.8864C1 96.4092 5.47715 100.886 11 100.886H20.8864" stroke="#0069A7" stroke-width="2" stroke-linecap="round"/>
<path d="M100.886 20.8864V11C100.886 5.47716 96.4092 1 90.8864 1H81" stroke="#0069A7" stroke-width="2" stroke-linecap="round"/>
<path d="M100.886 81V90.8864C100.886 96.4092 96.4092 100.886 90.8864 100.886H81" stroke="#0069A7" stroke-width="2" stroke-linecap="round"/>
<defs>
<linearGradient id="paint0_linear_8_20" x1="54" y1="24" x2="53" y2="60" gradientUnits="userSpaceOnUse">
<stop stop-color="#0069A7"/>
<stop offset="1" stop-color="#3CA70D" stop-opacity="0.4"/>
</linearGradient>
<linearGradient id="paint1_linear_8_20" x1="51.5" y1="35" x2="51.5" y2="54" gradientUnits="userSpaceOnUse">
<stop stop-color="#61B73A"/>
<stop offset="1" stop-color="#00B4E3"/>
</linearGradient>
<linearGradient id="paint2_linear_8_20" x1="51" y1="18" x2="51" y2="64" gradientUnits="userSpaceOnUse">
<stop stop-color="#61B73A"/>
<stop offset="0.830192" stop-color="#00B4E3"/>
</linearGradient>
</defs>
</svg>
