<svg width="102" height="102" viewBox="0 0 102 102" fill="none" xmlns="http://www.w3.org/2000/svg">
<rect x="1" y="1" width="100" height="100" rx="10" fill="white"/>
<path d="M42 35.2616V38.9241M61 35.2616V38.9241M52.4366 35V42.9875C52.4366 44.6443 51.0935 45.9875 49.4366 45.9875H49.2254M44.1408 50.958C48.6901 54.8821 54.0423 55.1437 58.5915 50.958" stroke="url(#paint0_linear_346_13734)" stroke-width="3" stroke-linecap="round"/>
<circle cx="51" cy="41" r="22" stroke="url(#paint1_linear_346_13734)" stroke-width="2"/>
<path d="M16.5592 82.168C19.0932 82.168 20.3812 80.684 20.3812 78.36V72.662H19.2052V78.346C19.2052 80.054 18.2812 81.132 16.5592 81.132C14.8372 81.132 13.9272 80.054 13.9272 78.346V72.662H12.7512V78.374C12.7512 80.67 14.0392 82.168 16.5592 82.168ZM24.6816 82.168C26.4176 82.168 27.3276 81.258 27.3276 80.124C27.3276 77.492 23.1416 78.458 23.1416 76.988C23.1416 76.386 23.7156 75.924 24.6396 75.924C25.5216 75.924 26.2496 76.288 26.6556 76.778L27.1456 76.05C26.6136 75.504 25.8016 75.07 24.6396 75.07C23.0296 75.07 22.1336 75.952 22.1336 77.016C22.1336 79.522 26.3196 78.514 26.3196 80.152C26.3196 80.824 25.7456 81.314 24.7096 81.314C23.7856 81.314 22.9316 80.866 22.4836 80.348L21.9516 81.104C22.6376 81.818 23.5616 82.168 24.6816 82.168ZM34.3114 82V77.352C34.3114 75.714 33.1354 75.07 31.6934 75.07C30.5874 75.07 29.7194 75.434 28.9914 76.19L29.4814 76.918C30.0834 76.26 30.7414 75.98 31.5534 75.98C32.5334 75.98 33.2614 76.498 33.2614 77.394V78.612C32.7154 77.996 31.9454 77.702 31.0214 77.702C29.8734 77.702 28.6694 78.402 28.6694 79.928C28.6694 81.398 29.8874 82.168 31.0214 82.168C31.9314 82.168 32.7154 81.846 33.2614 81.23V82H34.3114ZM31.4134 81.412C30.4194 81.412 29.7334 80.796 29.7334 79.928C29.7334 79.074 30.4194 78.458 31.4134 78.458C32.1414 78.458 32.8554 78.738 33.2614 79.284V80.572C32.8554 81.132 32.1414 81.412 31.4134 81.412ZM37.4799 82V77.212C37.7879 76.666 38.6699 76.134 39.3279 76.134C39.4819 76.134 39.6079 76.148 39.7339 76.162V75.084C38.8099 75.084 38.0259 75.616 37.4799 76.316V75.238H36.4299V82H37.4799ZM45.878 82V77.744H50.736V76.708H45.878V73.698H50.834V72.662H44.716V82H45.878ZM57.663 82V77.352C57.663 75.714 56.487 75.07 55.045 75.07C53.939 75.07 53.071 75.434 52.343 76.19L52.833 76.918C53.435 76.26 54.093 75.98 54.905 75.98C55.885 75.98 56.613 76.498 56.613 77.394V78.612C56.067 77.996 55.297 77.702 54.373 77.702C53.225 77.702 52.021 78.402 52.021 79.928C52.021 81.398 53.239 82.168 54.373 82.168C55.283 82.168 56.067 81.846 56.613 81.23V82H57.663ZM54.765 81.412C53.771 81.412 53.085 80.796 53.085 79.928C53.085 79.074 53.771 78.458 54.765 78.458C55.493 78.458 56.207 78.738 56.613 79.284V80.572C56.207 81.132 55.493 81.412 54.765 81.412ZM62.7634 82.168C63.9954 82.168 64.7234 81.664 65.2414 80.992L64.5414 80.348C64.0934 80.95 63.5194 81.23 62.8194 81.23C61.3914 81.23 60.4814 80.11 60.4814 78.612C60.4814 77.114 61.3914 76.008 62.8194 76.008C63.5194 76.008 64.0934 76.26 64.5414 76.876L65.2414 76.246C64.7234 75.574 63.9954 75.07 62.7634 75.07C60.7474 75.07 59.3894 76.61 59.3894 78.612C59.3894 80.614 60.7474 82.168 62.7634 82.168ZM69.7928 82.168C70.8848 82.168 71.7948 81.79 72.4808 81.118L71.9768 80.432C71.4308 80.992 70.6608 81.3 69.8768 81.3C68.4208 81.3 67.5388 80.236 67.4548 78.962H72.9148V78.696C72.9148 76.666 71.7108 75.07 69.6668 75.07C67.7348 75.07 66.3348 76.652 66.3348 78.612C66.3348 80.726 67.7768 82.168 69.7928 82.168ZM71.8788 78.178H67.4408C67.4968 77.156 68.2108 75.938 69.6528 75.938C71.1928 75.938 71.8648 77.184 71.8788 78.178ZM79.4425 82V72.662H78.2805V82H79.4425ZM84.8221 82C87.7341 82 89.6101 79.998 89.6101 77.338C89.6101 74.692 87.7341 72.662 84.8221 72.662H81.6301V82H84.8221ZM84.8221 80.964H82.7921V73.698H84.8221C87.1321 73.698 88.4061 75.322 88.4061 77.338C88.4061 79.34 87.0901 80.964 84.8221 80.964Z" fill="#0069A7"/>
<path d="M1 20.8864V11C1 5.47716 5.47715 1 11 1H20.8864" stroke="#0069A7" stroke-width="2" stroke-linecap="round"/>
<path d="M1 81.0004V90.8867C1 96.4096 5.47715 100.887 11 100.887H20.8864" stroke="#0069A7" stroke-width="2" stroke-linecap="round"/>
<path d="M100.886 20.8864V11C100.886 5.47716 96.4091 1 90.8862 1H80.9999" stroke="#0069A7" stroke-width="2" stroke-linecap="round"/>
<path d="M100.886 81.0004V90.8867C100.886 96.4096 96.4091 100.887 90.8862 100.887H80.9999" stroke="#0069A7" stroke-width="2" stroke-linecap="round"/>
<defs>
<linearGradient id="paint0_linear_346_13734" x1="51.5" y1="35" x2="51.5" y2="54" gradientUnits="userSpaceOnUse">
<stop stop-color="#61B73A"/>
<stop offset="1" stop-color="#00B4E3"/>
</linearGradient>
<linearGradient id="paint1_linear_346_13734" x1="51" y1="18" x2="51" y2="64" gradientUnits="userSpaceOnUse">
<stop stop-color="#61B73A"/>
<stop offset="0.830192" stop-color="#00B4E3"/>
</linearGradient>
</defs>
</svg>
