<svg width="15" height="17" viewBox="0 0 15 17" fill="none" xmlns="http://www.w3.org/2000/svg">
<path d="M10.0957 10.1641C12.4082 10.1641 14.3145 12.0703 14.3145 14.3828V15.1641C14.3145 16.0078 13.627 16.6641 12.8145 16.6641H1.81445C0.970703 16.6641 0.314453 16.0078 0.314453 15.1641V14.3828C0.314453 12.0703 2.18945 10.1641 4.50195 10.1641C5.4082 10.1641 5.81445 10.6641 7.31445 10.6641C8.7832 10.6641 9.18945 10.1641 10.0957 10.1641ZM12.8145 15.1641V14.3828C12.8145 12.8828 11.5957 11.6641 10.0957 11.6641C9.62695 11.6641 8.9082 12.1641 7.31445 12.1641C5.68945 12.1641 4.9707 11.6641 4.50195 11.6641C3.00195 11.6641 1.81445 12.8828 1.81445 14.3828V15.1641H12.8145ZM7.31445 9.66406C4.81445 9.66406 2.81445 7.66406 2.81445 5.16406C2.81445 2.69531 4.81445 0.664062 7.31445 0.664062C9.7832 0.664062 11.8145 2.69531 11.8145 5.16406C11.8145 7.66406 9.7832 9.66406 7.31445 9.66406ZM7.31445 2.16406C5.6582 2.16406 4.31445 3.53906 4.31445 5.16406C4.31445 6.82031 5.6582 8.16406 7.31445 8.16406C8.93945 8.16406 10.3145 6.82031 10.3145 5.16406C10.3145 3.53906 8.93945 2.16406 7.31445 2.16406Z" fill="#757575"/>
</svg>
