<svg width="21" height="17" viewBox="0 0 21 17" fill="none" xmlns="http://www.w3.org/2000/svg">
<path d="M1.5 14.5C1.71875 12.5625 3.375 11 5.40625 11H8.5625C9.5 11 10.3438 11.3438 11.0312 11.9062C11 11.75 10.9688 11.625 10.9688 11.5V10.125C10.25 9.71875 9.4375 9.5 8.5625 9.5H5.40625C2.40625 9.5 0 11.9375 0 14.9375C0 15.5312 0.46875 16 1.0625 16H12.9062C13.2812 16 13.5938 15.8125 13.7812 15.5312L12.75 14.5H1.5ZM7 8C9.1875 8 11 6.21875 11 4C11 1.8125 9.1875 0 7 0C4.78125 0 3 1.8125 3 4C3 6.21875 4.78125 8 7 8ZM7 1.5C8.375 1.5 9.5 2.625 9.5 4C9.5 5.40625 8.375 6.5 7 6.5C5.59375 6.5 4.5 5.40625 4.5 4C4.5 2.625 5.59375 1.5 7 1.5ZM19.6875 11.4062L16.875 8.59375C16.5 8.21875 16 8 15.4688 8H12.9688C12.4375 8 11.9688 8.46875 11.9688 9V11.5C11.9688 12.0312 12.1875 12.5312 12.5625 12.9062L15.375 15.7188C15.7812 16.125 16.4062 16.125 16.7812 15.7188L19.6875 12.8438C20.0938 12.4375 20.0938 11.8125 19.6875 11.4062ZM13.9688 10.75C13.5625 10.75 13.2188 10.4375 13.2188 10C13.2188 9.59375 13.5625 9.25 13.9688 9.25C14.4062 9.25 14.7188 9.59375 14.7188 10C14.7188 10.4375 14.4062 10.75 13.9688 10.75Z" fill="#5B5C5B"/>
</svg>
