<svg width="21" height="14" viewBox="0 0 21 14" fill="none" xmlns="http://www.w3.org/2000/svg">
<path d="M6 7C7.90625 7 9.5 5.4375 9.5 3.5C9.5 1.59375 7.90625 0 6 0C4.0625 0 2.5 1.59375 2.5 3.5C2.5 5.4375 4.0625 7 6 7ZM8.375 8H8.125C7.46875 8.3125 6.75 8.5 6 8.5C5.21875 8.5 4.5 8.3125 3.84375 8H3.59375C1.59375 8 0 9.625 0 11.625V12.5C0 13.3438 0.65625 14 1.5 14H10.5C11.3125 14 12 13.3438 12 12.5V11.625C12 9.625 10.375 8 8.375 8Z" fill="#055293"/>
<path d="M15.25 7C16.9062 7 18.25 5.65625 18.25 4C18.25 2.34375 16.9062 1 15.25 1C13.5938 1 12.25 2.34375 12.25 4C12.25 5.65625 13.5938 7 15.25 7ZM16.75 8H16.625C16.1875 8.15625 15.7188 8.25 15.25 8.25C14.75 8.25 14.2812 8.15625 13.8438 8H13.75C13.0938 8 12.5 8.1875 12 8.5C12.75 9.3125 13.25 10.4062 13.25 11.625V12.8125C13.25 12.875 13.2188 12.9375 13.2188 13H18.75C19.5625 13 20.25 12.3438 20.25 11.5C20.25 9.59375 18.6562 8 16.75 8Z" fill="#3CA70D"/>
</svg>
