<svg width="14" height="17" viewBox="0 0 14 17" fill="none" xmlns="http://www.w3.org/2000/svg">
<path d="M9.78125 10.1758C8.875 10.1758 8.46875 10.6758 7 10.6758C5.5 10.6758 5.09375 10.1758 4.1875 10.1758C1.875 10.1758 0 12.082 0 14.3945V15.1758C0 16.0195 0.65625 16.6758 1.5 16.6758H12.5C13.3125 16.6758 14 16.0195 14 15.1758V14.3945C14 12.082 12.0938 10.1758 9.78125 10.1758ZM12.5 15.1758H1.5V14.3945C1.5 12.8945 2.6875 11.6758 4.1875 11.6758C4.65625 11.6758 5.375 12.1758 7 12.1758C8.59375 12.1758 9.3125 11.6758 9.78125 11.6758C11.2812 11.6758 12.5 12.8945 12.5 14.3945V15.1758ZM7 9.67578C9.46875 9.67578 11.5 7.67578 11.5 5.17578C11.5 2.70703 9.46875 0.675781 7 0.675781C4.5 0.675781 2.5 2.70703 2.5 5.17578C2.5 7.67578 4.5 9.67578 7 9.67578ZM7 2.17578C8.625 2.17578 10 3.55078 10 5.17578C10 6.83203 8.625 8.17578 7 8.17578C5.34375 8.17578 4 6.83203 4 5.17578C4 3.55078 5.34375 2.17578 7 2.17578Z" fill="#999999"/>
</svg>
