<svg width="18" height="20" viewBox="0 0 18 20" fill="none" xmlns="http://www.w3.org/2000/svg">
<path d="M15.3648 13.5158C16.1873 14.3362 16.8425 15.3089 17.2941 16.3797C17.7393 17.4318 17.9762 18.5462 18.0002 19.6918C18.0008 19.7174 17.9963 19.7428 17.987 19.7667C17.9777 19.7905 17.9637 19.8122 17.9458 19.8305C17.928 19.8488 17.9066 19.8634 17.8831 19.8733C17.8595 19.8832 17.8342 19.8883 17.8087 19.8883H16.3725H1.62773H0.191551C0.165996 19.8883 0.140698 19.8832 0.117147 19.8733C0.0935969 19.8634 0.0722706 19.8488 0.054425 19.8305C0.0365795 19.8122 0.0225757 19.7905 0.0132388 19.7667C0.00390193 19.7428 -0.000579018 19.7174 5.98552e-05 19.6918C0.022038 18.5535 0.261737 17.43 0.706182 16.3821C1.15859 15.3117 1.81374 14.3392 2.63545 13.5182C3.46125 12.689 4.42349 12.0395 5.49584 11.5866C5.50542 11.5818 5.51499 11.5794 5.52457 11.5746C4.03333 10.4937 3.06391 8.73703 3.06391 6.75505C3.06391 3.47173 5.72084 0.811523 9.00012 0.811523C12.2794 0.811523 14.9363 3.47173 14.9363 6.75505C14.9363 8.73703 13.9669 10.4937 12.4757 11.5722C12.4853 11.577 12.4948 11.5794 12.5044 11.5842C13.5735 12.0371 14.5448 12.6931 15.3648 13.5158Z" fill="#E5E5E5"/>
</svg>
