<svg width="15" height="16" viewBox="0 0 15 16" fill="none" xmlns="http://www.w3.org/2000/svg">
<path d="M7.48828 8C9.67578 8 11.4883 6.21875 11.4883 4C11.4883 1.8125 9.67578 0 7.48828 0C5.26953 0 3.48828 1.8125 3.48828 4C3.48828 6.21875 5.26953 8 7.48828 8ZM10.2695 9H9.73828C9.05078 9.34375 8.30078 9.5 7.48828 9.5C6.67578 9.5 5.89453 9.34375 5.20703 9H4.67578C2.36328 9 0.488281 10.9062 0.488281 13.2188V14.5C0.488281 15.3438 1.14453 16 1.98828 16H12.9883C13.8008 16 14.4883 15.3438 14.4883 14.5V13.2188C14.4883 10.9062 12.582 9 10.2695 9Z" fill="#5B5C5B"/>
</svg>
