<svg width="102" height="102" viewBox="0 0 102 102" fill="none" xmlns="http://www.w3.org/2000/svg">
<rect x="1" y="1" width="100" height="100" rx="10" fill="white"/>
<path d="M20.8189 82.168C23.3529 82.168 24.6269 80.684 24.6269 78.36V72.662H23.4649V78.346C23.4649 80.054 22.5409 81.132 20.8189 81.132C19.0969 81.132 18.1729 80.054 18.1729 78.346V72.662H17.0109V78.374C17.0109 80.67 18.2849 82.168 20.8189 82.168ZM28.9137 82.168C30.6637 82.168 31.5737 81.258 31.5737 80.124C31.5737 77.492 27.3877 78.472 27.3877 76.988C27.3877 76.386 27.9617 75.924 28.8857 75.924C29.7537 75.924 30.4957 76.288 30.9017 76.778L31.3917 76.05C30.8457 75.504 30.0337 75.07 28.8857 75.07C27.2757 75.07 26.3657 75.966 26.3657 77.016C26.3657 79.522 30.5517 78.514 30.5517 80.152C30.5517 80.824 29.9917 81.314 28.9557 81.314C28.0317 81.314 27.1777 80.866 26.7297 80.348L26.1837 81.104C26.8697 81.832 27.8077 82.168 28.9137 82.168ZM38.5575 82V77.352C38.5575 75.714 37.3675 75.07 35.9395 75.07C34.8335 75.07 33.9655 75.434 33.2375 76.19L33.7275 76.918C34.3295 76.274 34.9875 75.98 35.7995 75.98C36.7795 75.98 37.5075 76.498 37.5075 77.408V78.626C36.9615 77.996 36.1915 77.702 35.2675 77.702C34.1195 77.702 32.9015 78.416 32.9015 79.928C32.9015 81.398 34.1195 82.168 35.2675 82.168C36.1775 82.168 36.9475 81.846 37.5075 81.23V82H38.5575ZM35.6455 81.412C34.6655 81.412 33.9795 80.796 33.9795 79.942C33.9795 79.074 34.6655 78.458 35.6455 78.458C36.3875 78.458 37.1015 78.738 37.5075 79.298V80.572C37.1015 81.132 36.3875 81.412 35.6455 81.412ZM41.7123 82V77.212C42.0203 76.666 42.9023 76.134 43.5463 76.134C43.7143 76.134 43.8403 76.148 43.9663 76.176V75.098C43.0423 75.098 42.2583 75.616 41.7123 76.33V75.238H40.6623V82H41.7123ZM56.7188 82V72.662H55.5568V76.68H50.0968V72.662H48.9348V82H50.0968V77.716H55.5568V82H56.7188ZM64.4736 82V75.238H63.4236V80.208C63.0316 80.754 62.2476 81.23 61.4216 81.23C60.5116 81.23 59.9096 80.88 59.9096 79.69V75.238H58.8596V80.012C58.8596 81.482 59.6016 82.168 61.0156 82.168C62.0236 82.168 62.9056 81.636 63.4236 81.048V82H64.4736ZM69.6225 82.168C70.7285 82.168 71.6385 81.804 72.3105 81.132L71.8065 80.446C71.2745 80.992 70.4905 81.3 69.7205 81.3C68.2645 81.3 67.3685 80.236 67.2845 78.962H72.7585V78.696C72.7585 76.666 71.5545 75.07 69.5105 75.07C67.5785 75.07 66.1785 76.652 66.1785 78.612C66.1785 80.726 67.6205 82.168 69.6225 82.168ZM71.7225 78.192H67.2845C67.3405 77.156 68.0545 75.938 69.4965 75.938C71.0365 75.938 71.7085 77.184 71.7225 78.192ZM75.5092 82V72.662H74.4592V82H75.5092ZM78.6537 82V72.662H77.6037V82H78.6537ZM86.0262 82V77.352C86.0262 75.714 84.8362 75.07 83.4082 75.07C82.3022 75.07 81.4342 75.434 80.7062 76.19L81.1962 76.918C81.7982 76.274 82.4562 75.98 83.2682 75.98C84.2482 75.98 84.9762 76.498 84.9762 77.408V78.626C84.4302 77.996 83.6602 77.702 82.7362 77.702C81.5882 77.702 80.3702 78.416 80.3702 79.928C80.3702 81.398 81.5882 82.168 82.7362 82.168C83.6462 82.168 84.4162 81.846 84.9762 81.23V82H86.0262ZM83.1142 81.412C82.1342 81.412 81.4482 80.796 81.4482 79.942C81.4482 79.074 82.1342 78.458 83.1142 78.458C83.8562 78.458 84.5702 78.738 84.9762 79.298V80.572C84.5702 81.132 83.8562 81.412 83.1142 81.412Z" fill="#0069A7"/>
<path d="M1 20.8864V11C1 5.47716 5.47715 1 11 1H20.8864" stroke="#0069A7" stroke-width="2" stroke-linecap="round"/>
<path d="M1 81.0004V90.8867C1 96.4096 5.47715 100.887 11 100.887H20.8864" stroke="#0069A7" stroke-width="2" stroke-linecap="round"/>
<path d="M100.887 20.8864V11C100.887 5.47716 96.4096 1 90.8867 1H81.0004" stroke="#0069A7" stroke-width="2" stroke-linecap="round"/>
<path d="M100.887 81.0004V90.8867C100.887 96.4096 96.4096 100.887 90.8867 100.887H81.0004" stroke="#0069A7" stroke-width="2" stroke-linecap="round"/>
<path d="M52 40.2188C50.9062 40.2188 50.2031 41.0781 50.2031 42.0938C50.2812 47.7188 49.5 53.1094 48.0156 58.5781C47.7031 59.4375 48.0938 61 49.7344 61C50.5938 61 51.2969 60.5312 51.5312 59.6719C52.625 55.9219 53.875 49.9062 53.875 42.0938C53.875 41.0781 53.0156 40.2188 52 40.2188ZM51.9219 33.8906C47.0781 33.8906 43.7969 37.5625 43.875 41.7812C43.875 45.5312 43.5625 49.2812 42.7812 52.875C42.5469 53.8125 43.25 54.9062 44.2656 55.1406C45.2031 55.2969 46.2188 54.6719 46.4531 53.6562C47.3125 49.75 47.625 45.7656 47.625 41.7812C47.5469 39.6719 49.1094 37.6406 51.8438 37.6406C54.2656 37.6406 56.2969 39.5938 56.375 41.9375C56.375 45.6094 56.1406 49.5156 55.5156 53.1875C55.3594 54.125 56.0625 55.1406 57.0781 55.2969C58.6406 55.6094 59.1875 54.125 59.1875 53.8125C59.8906 49.9062 60.125 45.8438 60.125 41.9375C60.0469 37.5625 56.375 33.9688 51.9219 33.8906ZM43.25 32.3281C42.4688 31.7031 41.2969 31.7812 40.5938 32.5625C38.6406 35.0625 37.5469 38.1875 37.625 41.3125C37.625 44.2812 37.3906 47.25 36.9219 50.0625C36.6875 51.0781 37.3906 52.0938 38.4062 52.25C39.9688 52.5625 40.5156 51.0781 40.5156 50.7656C41.0625 47.6406 41.2969 44.4375 41.2969 41.3125C41.2969 38.9688 42.0781 36.7812 43.4844 34.9844C44.1875 34.125 44.0312 32.9531 43.25 32.3281ZM51.7656 27.4844C50.5938 27.4062 49.4219 27.5625 48.25 27.875C47.2344 28.0312 46.6094 29.0469 46.8438 30.1406C47.0781 31.0781 48.0156 31.7031 49.0312 31.4688C49.9688 31.3125 50.8281 31.1562 51.7656 31.2344C57.625 31.3125 62.5469 36 62.625 41.7031C62.625 44.6719 62.4688 47.5625 62.1562 50.6094C62.0781 51.625 62.7812 52.4844 63.7969 52.6406C65.125 52.7188 65.8281 51.7031 65.9062 51C66.2188 47.875 66.375 44.75 66.375 41.625C66.2188 33.9688 59.7344 27.5625 51.7656 27.4844ZM71.5312 36.9375C71.2969 36 70.2812 35.2969 69.2656 35.5312C68.3281 35.7656 67.625 36.7031 67.8594 37.7188C68.1719 39.4375 68.25 40.6875 68.1719 42.5625C68.1719 43.5781 69.0312 44.4375 70.0469 44.4375C71.0625 44.4375 71.9219 43.6562 71.9219 42.5625C72 40.8438 72 39.125 71.5312 36.9375ZM68.3281 29.8281C64.5 24.4375 58.25 21.1562 51.6094 21C46.2188 21 41.1406 22.9531 37.3906 26.7031C33.7969 30.375 31.8438 35.1406 31.9219 40.2969V42.0156C31.9219 43.0312 32.7812 43.8906 33.7969 43.8906C33.7969 43.8906 33.7969 43.8906 33.875 43.8906C34.8125 43.8906 35.6719 43.1094 35.6719 42.0938V40.2188C35.6719 36.1562 37.2344 32.25 40.125 29.3594C43.1719 26.3906 47.2344 24.75 51.6875 24.8281C57.0781 24.8281 62.1562 27.5625 65.2812 32.0156C65.9062 32.875 67.0781 33.0312 67.9375 32.4844C68.7188 31.8594 68.9531 30.6875 68.3281 29.8281Z" fill="url(#paint0_linear_22510_9588)"/>
<defs>
<linearGradient id="paint0_linear_22510_9588" x1="52" y1="26" x2="51" y2="62" gradientUnits="userSpaceOnUse">
<stop stop-color="#0069A7"/>
<stop offset="1" stop-color="#3CA70D" stop-opacity="0.4"/>
</linearGradient>
</defs>
</svg>
