<svg width="102" height="102" viewBox="0 0 102 102" fill="none" xmlns="http://www.w3.org/2000/svg">
<rect x="1" y="1" width="100" height="100" rx="10" fill="white"/>
<path d="M15.159 81.144C17.331 81.144 18.435 79.872 18.435 77.88V72.996H17.427V77.868C17.427 79.332 16.635 80.256 15.159 80.256C13.683 80.256 12.903 79.332 12.903 77.868V72.996H11.895V77.892C11.895 79.86 12.999 81.144 15.159 81.144ZM22.121 81.144C23.609 81.144 24.389 80.364 24.389 79.392C24.389 77.136 20.801 77.964 20.801 76.704C20.801 76.188 21.293 75.792 22.085 75.792C22.841 75.792 23.465 76.104 23.813 76.524L24.233 75.9C23.777 75.432 23.081 75.06 22.085 75.06C20.705 75.06 19.937 75.816 19.937 76.728C19.937 78.876 23.525 78.012 23.525 79.416C23.525 79.992 23.033 80.412 22.145 80.412C21.353 80.412 20.621 80.028 20.237 79.584L19.781 80.232C20.369 80.844 21.161 81.144 22.121 81.144ZM28.4792 81.144C29.4152 81.144 30.1952 80.82 30.7832 80.244L30.3512 79.656C29.8832 80.136 29.2232 80.4 28.5512 80.4C27.3032 80.4 26.5472 79.488 26.4752 78.396H31.1552V78.168C31.1552 76.428 30.1232 75.06 28.3712 75.06C26.7152 75.06 25.5152 76.416 25.5152 78.096C25.5152 79.908 26.7512 81.144 28.4792 81.144ZM30.2672 77.724H26.4632C26.5112 76.848 27.1232 75.804 28.3592 75.804C29.6792 75.804 30.2552 76.872 30.2672 77.724ZM36.7504 81V77.352H40.9144V76.464H36.7504V73.884H40.9984V72.996H35.7544V81H36.7504ZM42.7837 74.376C43.1197 74.376 43.3837 74.112 43.3837 73.776C43.3837 73.44 43.1197 73.164 42.7837 73.164C42.4477 73.164 42.1717 73.44 42.1717 73.776C42.1717 74.112 42.4477 74.376 42.7837 74.376ZM43.2277 81V75.204H42.3277V81H43.2277ZM49.835 81V76.932C49.835 75.672 49.199 75.06 47.999 75.06C47.123 75.06 46.331 75.552 45.923 76.044V75.204H45.023V81H45.923V76.764C46.271 76.296 46.931 75.864 47.639 75.864C48.419 75.864 48.947 76.176 48.947 77.208V81H49.835ZM53.9721 83.352C55.3881 83.352 56.7441 82.752 56.7441 80.916V75.204H55.8441V76.08C55.3761 75.444 54.6681 75.06 53.8881 75.06C52.3641 75.06 51.3081 76.212 51.3081 78.072C51.3081 79.944 52.3761 81.072 53.8881 81.072C54.7041 81.072 55.4121 80.628 55.8441 80.04V80.916C55.8441 82.14 54.9321 82.608 53.9721 82.608C53.1441 82.608 52.5681 82.392 52.0881 81.828L51.6321 82.476C52.3281 83.16 53.0001 83.352 53.9721 83.352ZM54.1161 80.268C52.9401 80.268 52.2441 79.344 52.2441 78.072C52.2441 76.788 52.9401 75.864 54.1161 75.864C54.8241 75.864 55.5201 76.296 55.8441 76.788V79.332C55.5201 79.836 54.8241 80.268 54.1161 80.268ZM61.1745 81.144C62.1105 81.144 62.8905 80.82 63.4785 80.244L63.0465 79.656C62.5785 80.136 61.9185 80.4 61.2465 80.4C59.9985 80.4 59.2425 79.488 59.1705 78.396H63.8505V78.168C63.8505 76.428 62.8185 75.06 61.0665 75.06C59.4105 75.06 58.2105 76.416 58.2105 78.096C58.2105 79.908 59.4465 81.144 61.1745 81.144ZM62.9625 77.724H59.1585C59.2065 76.848 59.8185 75.804 61.0545 75.804C62.3745 75.804 62.9505 76.872 62.9625 77.724ZM66.2082 81V76.896C66.4722 76.428 67.2282 75.972 67.7922 75.972C67.9242 75.972 68.0322 75.984 68.1402 75.996V75.072C67.3482 75.072 66.6762 75.528 66.2082 76.128V75.204H65.3082V81H66.2082ZM72.1251 81.144C73.6491 81.144 74.7051 79.968 74.7051 78.096C74.7051 76.212 73.6491 75.06 72.1251 75.06C71.3091 75.06 70.5891 75.48 70.1691 76.068V75.204H69.2691V83.208H70.1691V80.124C70.6491 80.76 71.3331 81.144 72.1251 81.144ZM71.8971 80.34C71.1891 80.34 70.4811 79.908 70.1691 79.404V76.788C70.4811 76.284 71.1891 75.864 71.8971 75.864C73.0611 75.864 73.7571 76.812 73.7571 78.096C73.7571 79.38 73.0611 80.34 71.8971 80.34ZM77.0363 81V76.896C77.3003 76.428 78.0563 75.972 78.6203 75.972C78.7523 75.972 78.8603 75.984 78.9683 75.996V75.072C78.1763 75.072 77.5043 75.528 77.0363 76.128V75.204H76.1363V81H77.0363ZM80.5533 74.376C80.8893 74.376 81.1533 74.112 81.1533 73.776C81.1533 73.44 80.8893 73.164 80.5533 73.164C80.2173 73.164 79.9413 73.44 79.9413 73.776C79.9413 74.112 80.2173 74.376 80.5533 74.376ZM80.9973 81V75.204H80.0973V81H80.9973ZM87.6046 81V76.932C87.6046 75.672 86.9686 75.06 85.7686 75.06C84.8926 75.06 84.1006 75.552 83.6926 76.044V75.204H82.7926V81H83.6926V76.764C84.0406 76.296 84.7006 75.864 85.4086 75.864C86.1886 75.864 86.7166 76.176 86.7166 77.208V81H87.6046ZM90.8897 81.144C91.4057 81.144 91.7297 80.988 91.9577 80.772L91.6937 80.088C91.5737 80.22 91.3457 80.34 91.0817 80.34C90.6977 80.34 90.5057 80.028 90.5057 79.596V75.996H91.6817V75.204H90.5057V73.62H89.5937V75.204H88.6337V75.996H89.5937V79.788C89.5937 80.652 90.0257 81.144 90.8897 81.144Z" fill="#0069A7"/>
<path d="M1 20.8864V11C1 5.47716 5.47715 1 11 1H20.8864" stroke="#0069A7" stroke-width="2" stroke-linecap="round"/>
<path d="M1 81.0004V90.8867C1 96.4096 5.47715 100.887 11 100.887H20.8864" stroke="#0069A7" stroke-width="2" stroke-linecap="round"/>
<path d="M100.887 20.8864V11C100.887 5.47716 96.4096 1 90.8867 1H81.0004" stroke="#0069A7" stroke-width="2" stroke-linecap="round"/>
<path d="M100.887 81.0004V90.8867C100.887 96.4096 96.4096 100.887 90.8867 100.887H81.0004" stroke="#0069A7" stroke-width="2" stroke-linecap="round"/>
<path d="M52 40.2188C50.9062 40.2188 50.2031 41.0781 50.2031 42.0938C50.2812 47.7188 49.5 53.1094 48.0156 58.5781C47.7031 59.4375 48.0938 61 49.7344 61C50.5938 61 51.2969 60.5312 51.5312 59.6719C52.625 55.9219 53.875 49.9062 53.875 42.0938C53.875 41.0781 53.0156 40.2188 52 40.2188ZM51.9219 33.8906C47.0781 33.8906 43.7969 37.5625 43.875 41.7812C43.875 45.5312 43.5625 49.2812 42.7812 52.875C42.5469 53.8125 43.25 54.9062 44.2656 55.1406C45.2031 55.2969 46.2188 54.6719 46.4531 53.6562C47.3125 49.75 47.625 45.7656 47.625 41.7812C47.5469 39.6719 49.1094 37.6406 51.8438 37.6406C54.2656 37.6406 56.2969 39.5938 56.375 41.9375C56.375 45.6094 56.1406 49.5156 55.5156 53.1875C55.3594 54.125 56.0625 55.1406 57.0781 55.2969C58.6406 55.6094 59.1875 54.125 59.1875 53.8125C59.8906 49.9062 60.125 45.8438 60.125 41.9375C60.0469 37.5625 56.375 33.9688 51.9219 33.8906ZM43.25 32.3281C42.4688 31.7031 41.2969 31.7812 40.5938 32.5625C38.6406 35.0625 37.5469 38.1875 37.625 41.3125C37.625 44.2812 37.3906 47.25 36.9219 50.0625C36.6875 51.0781 37.3906 52.0938 38.4062 52.25C39.9688 52.5625 40.5156 51.0781 40.5156 50.7656C41.0625 47.6406 41.2969 44.4375 41.2969 41.3125C41.2969 38.9688 42.0781 36.7812 43.4844 34.9844C44.1875 34.125 44.0312 32.9531 43.25 32.3281ZM51.7656 27.4844C50.5938 27.4062 49.4219 27.5625 48.25 27.875C47.2344 28.0312 46.6094 29.0469 46.8438 30.1406C47.0781 31.0781 48.0156 31.7031 49.0312 31.4688C49.9688 31.3125 50.8281 31.1562 51.7656 31.2344C57.625 31.3125 62.5469 36 62.625 41.7031C62.625 44.6719 62.4688 47.5625 62.1562 50.6094C62.0781 51.625 62.7812 52.4844 63.7969 52.6406C65.125 52.7188 65.8281 51.7031 65.9062 51C66.2188 47.875 66.375 44.75 66.375 41.625C66.2188 33.9688 59.7344 27.5625 51.7656 27.4844ZM71.5312 36.9375C71.2969 36 70.2812 35.2969 69.2656 35.5312C68.3281 35.7656 67.625 36.7031 67.8594 37.7188C68.1719 39.4375 68.25 40.6875 68.1719 42.5625C68.1719 43.5781 69.0312 44.4375 70.0469 44.4375C71.0625 44.4375 71.9219 43.6562 71.9219 42.5625C72 40.8438 72 39.125 71.5312 36.9375ZM68.3281 29.8281C64.5 24.4375 58.25 21.1562 51.6094 21C46.2188 21 41.1406 22.9531 37.3906 26.7031C33.7969 30.375 31.8438 35.1406 31.9219 40.2969V42.0156C31.9219 43.0312 32.7812 43.8906 33.7969 43.8906C33.7969 43.8906 33.7969 43.8906 33.875 43.8906C34.8125 43.8906 35.6719 43.1094 35.6719 42.0938V40.2188C35.6719 36.1562 37.2344 32.25 40.125 29.3594C43.1719 26.3906 47.2344 24.75 51.6875 24.8281C57.0781 24.8281 62.1562 27.5625 65.2812 32.0156C65.9062 32.875 67.0781 33.0312 67.9375 32.4844C68.7188 31.8594 68.9531 30.6875 68.3281 29.8281Z" fill="url(#paint0_linear_285_10833)"/>
<defs>
<linearGradient id="paint0_linear_285_10833" x1="52" y1="26" x2="51" y2="62" gradientUnits="userSpaceOnUse">
<stop stop-color="#0069A7"/>
<stop offset="1" stop-color="#3CA70D" stop-opacity="0.4"/>
</linearGradient>
</defs>
</svg>
