<svg width="16" height="16" viewBox="0 0 16 16" fill="none" xmlns="http://www.w3.org/2000/svg">
<path d="M15.9062 5.84375L10.6562 0.59375C10.625 0.53125 10.5625 0.5 10.5 0.5C10.4375 0.5 10.375 0.53125 10.3125 0.59375L9.625 1.28125C9.53125 1.375 9.53125 1.53125 9.625 1.625L9.96875 1.96875L1.9375 10.0312C0.6875 11.2812 0.6875 13.3125 1.9375 14.5625C3.1875 15.8125 5.21875 15.8125 6.46875 14.5625L14.5312 6.53125L14.875 6.875C14.9062 6.9375 14.9688 6.9375 15.0312 6.9375C15.0938 6.9375 15.1562 6.9375 15.2188 6.875L15.9062 6.1875C16 6.09375 16 5.9375 15.9062 5.84375ZM5.40625 13.5C4.75 14.1875 3.65625 14.1875 3 13.5C2.3125 12.8438 2.3125 11.75 3 11.0938L4.5625 9.5H9.40625L5.40625 13.5ZM10.9062 8H6.0625L11.0312 3.0625L13.4375 5.46875L10.9062 8Z" fill="#5B5C5B"/>
</svg>
