<svg width="50" height="44" viewBox="0 0 50 44" fill="none" xmlns="http://www.w3.org/2000/svg">
<path d="M27.9624 11.1714C28.5147 11.1714 28.9653 11.6207 28.9472 12.1727C28.641 21.5115 24.0037 24.3898 18.3281 24.3898C12.6524 24.3898 8.04179 21.5115 7.73734 12.1727C7.71934 11.6207 8.16796 11.1714 8.72024 11.1714C10.508 11.1714 13.5005 11.1714 18.3281 11.1714C23.5886 11.1714 25.2449 11.1714 27.9624 11.1714Z" fill="url(#paint0_linear_188_1777)"/>
<mask id="path-2-inside-1_188_1777" fill="white">
<path d="M27.9624 11.1714C28.5147 11.1714 28.9653 11.6207 28.9472 12.1727C28.6409 21.5115 24.0037 24.3898 18.3281 24.3898C12.6524 24.3898 8.04179 21.5115 7.73734 12.1727C7.71934 11.6207 8.16796 11.1714 8.72024 11.1714C10.508 11.1714 13.5005 11.1714 18.3281 11.1714C23.5886 11.1714 25.2449 11.1714 27.9624 11.1714Z"/>
</mask>
<path d="M28.9472 12.1727L29.4469 12.1891L28.9472 12.1727ZM27.9624 11.1714L27.9624 11.6714L27.9624 11.1714ZM28.4475 12.1563C28.2968 16.7509 27.0839 19.6623 25.2995 21.4279C23.5171 23.1915 21.0855 23.8898 18.3281 23.8898V24.8898C21.2463 24.8898 23.9711 24.149 26.0028 22.1387C28.0325 20.1305 29.2913 16.9333 29.4469 12.1891L28.4475 12.1563ZM18.3281 23.8898C15.5707 23.8898 13.1462 23.1915 11.3708 21.4285C9.59307 19.6631 8.38688 16.7517 8.23707 12.1564L7.23761 12.189C7.39224 16.9325 8.64361 20.1296 10.6662 22.1381C12.6912 24.149 15.4098 24.8898 18.3281 24.8898V23.8898ZM8.72024 11.6714C8.72373 11.6714 8.72723 11.6714 8.73073 11.6714C8.73423 11.6714 8.73774 11.6714 8.74125 11.6714C8.74476 11.6714 8.74827 11.6714 8.75179 11.6714C8.75531 11.6714 8.75883 11.6714 8.76236 11.6714C8.76589 11.6714 8.76942 11.6714 8.77296 11.6714C8.7765 11.6714 8.78004 11.6714 8.78359 11.6714C8.78714 11.6714 8.79069 11.6714 8.79424 11.6714C8.7978 11.6714 8.80136 11.6714 8.80493 11.6714C8.80849 11.6714 8.81206 11.6714 8.81564 11.6714C8.81921 11.6714 8.82279 11.6714 8.82638 11.6714C8.82996 11.6714 8.83355 11.6714 8.83714 11.6714C8.84074 11.6714 8.84433 11.6714 8.84794 11.6714C8.85154 11.6714 8.85515 11.6714 8.85876 11.6714C8.86237 11.6714 8.86599 11.6714 8.86961 11.6714C8.87323 11.6714 8.87686 11.6714 8.88049 11.6714C8.88412 11.6714 8.88775 11.6714 8.89139 11.6714C8.89503 11.6714 8.89868 11.6714 8.90233 11.6714C8.90598 11.6714 8.90963 11.6714 8.91329 11.6714C8.91695 11.6714 8.92061 11.6714 8.92428 11.6714C8.92795 11.6714 8.93162 11.6714 8.9353 11.6714C8.93898 11.6714 8.94266 11.6714 8.94634 11.6714C8.95003 11.6714 8.95372 11.6714 8.95742 11.6714C8.96112 11.6714 8.96482 11.6714 8.96852 11.6714C8.97223 11.6714 8.97594 11.6714 8.97965 11.6714C8.98337 11.6714 8.98709 11.6714 8.99081 11.6714C8.99454 11.6714 8.99827 11.6714 9.002 11.6714C9.00573 11.6714 9.00947 11.6714 9.01322 11.6714C9.01696 11.6714 9.02071 11.6714 9.02446 11.6714C9.02821 11.6714 9.03197 11.6714 9.03573 11.6714C9.03949 11.6714 9.04326 11.6714 9.04703 11.6714C9.0508 11.6714 9.05458 11.6714 9.05836 11.6714C9.06214 11.6714 9.06593 11.6714 9.06972 11.6714C9.07351 11.6714 9.07731 11.6714 9.08111 11.6714C9.08491 11.6714 9.08871 11.6714 9.09252 11.6714C9.09633 11.6714 9.10015 11.6714 9.10396 11.6714C9.10778 11.6714 9.11161 11.6714 9.11544 11.6714C9.11927 11.6714 9.1231 11.6714 9.12694 11.6714C9.13078 11.6714 9.13462 11.6714 9.13847 11.6714C9.14231 11.6714 9.14617 11.6714 9.15002 11.6714C9.15388 11.6714 9.15774 11.6714 9.16161 11.6714C9.16548 11.6714 9.16935 11.6714 9.17323 11.6714C9.1771 11.6714 9.18098 11.6714 9.18487 11.6714C9.18876 11.6714 9.19265 11.6714 9.19654 11.6714C9.20044 11.6714 9.20434 11.6714 9.20824 11.6714C9.21215 11.6714 9.21606 11.6714 9.21997 11.6714C9.22389 11.6714 9.22781 11.6714 9.23173 11.6714C9.23566 11.6714 9.23959 11.6714 9.24352 11.6714C9.24745 11.6714 9.25139 11.6714 9.25534 11.6714C9.25928 11.6714 9.26323 11.6714 9.26718 11.6714C9.27114 11.6714 9.27509 11.6714 9.27906 11.6714C9.28302 11.6714 9.28699 11.6714 9.29096 11.6714C9.29493 11.6714 9.29891 11.6714 9.30289 11.6714C9.30688 11.6714 9.31086 11.6714 9.31486 11.6714C9.31885 11.6714 9.32284 11.6714 9.32685 11.6714C9.33085 11.6714 9.33485 11.6714 9.33887 11.6714C9.34288 11.6714 9.34689 11.6714 9.35091 11.6714C9.35494 11.6714 9.35896 11.6714 9.36299 11.6714C9.36702 11.6714 9.37106 11.6714 9.3751 11.6714C9.37914 11.6714 9.38319 11.6714 9.38724 11.6714C9.39129 11.6714 9.39534 11.6714 9.3994 11.6714C9.40346 11.6714 9.40753 11.6714 9.4116 11.6714C9.41567 11.6714 9.41974 11.6714 9.42382 11.6714C9.4279 11.6714 9.43199 11.6714 9.43608 11.6714C9.44017 11.6714 9.44426 11.6714 9.44836 11.6714C9.45246 11.6714 9.45656 11.6714 9.46067 11.6714C9.46478 11.6714 9.46889 11.6714 9.47301 11.6714C9.47713 11.6714 9.48126 11.6714 9.48538 11.6714C9.48951 11.6714 9.49365 11.6714 9.49778 11.6714C9.50192 11.6714 9.50607 11.6714 9.51021 11.6714C9.51436 11.6714 9.51852 11.6714 9.52267 11.6714C9.52683 11.6714 9.531 11.6714 9.53516 11.6714C9.53933 11.6714 9.5435 11.6714 9.54768 11.6714C9.55186 11.6714 9.55604 11.6714 9.56023 11.6714C9.56442 11.6714 9.56861 11.6714 9.57281 11.6714C9.57701 11.6714 9.58121 11.6714 9.58542 11.6714C9.58962 11.6714 9.59384 11.6714 9.59805 11.6714C9.60227 11.6714 9.60649 11.6714 9.61072 11.6714C9.61495 11.6714 9.61918 11.6714 9.62342 11.6714C9.62766 11.6714 9.6319 11.6714 9.63614 11.6714C9.64039 11.6714 9.64464 11.6714 9.6489 11.6714C9.65316 11.6714 9.65742 11.6714 9.66169 11.6714C9.66595 11.6714 9.67023 11.6714 9.6745 11.6714C9.67878 11.6714 9.68306 11.6714 9.68735 11.6714C9.69164 11.6714 9.69593 11.6714 9.70023 11.6714C9.70452 11.6714 9.70882 11.6714 9.71313 11.6714C9.71744 11.6714 9.72175 11.6714 9.72607 11.6714C9.73038 11.6714 9.73471 11.6714 9.73903 11.6714C9.74336 11.6714 9.74769 11.6714 9.75203 11.6714C9.75637 11.6714 9.76071 11.6714 9.76505 11.6714C9.7694 11.6714 9.77375 11.6714 9.77811 11.6714C9.78247 11.6714 9.78683 11.6714 9.7912 11.6714C9.79556 11.6714 9.79994 11.6714 9.80431 11.6714C9.80869 11.6714 9.81307 11.6714 9.81746 11.6714C9.82185 11.6714 9.82624 11.6714 9.83064 11.6714C9.83503 11.6714 9.83944 11.6714 9.84384 11.6714C9.84825 11.6714 9.85266 11.6714 9.85708 11.6714C9.8615 11.6714 9.86592 11.6714 9.87035 11.6714C9.87477 11.6714 9.87921 11.6714 9.88364 11.6714C9.88808 11.6714 9.89252 11.6714 9.89697 11.6714C9.90142 11.6714 9.90587 11.6714 9.91033 11.6714C9.91479 11.6714 9.91925 11.6714 9.92372 11.6714C9.92819 11.6714 9.93266 11.6714 9.93714 11.6714C9.94162 11.6714 9.9461 11.6714 9.95059 11.6714C9.95508 11.6714 9.95957 11.6714 9.96407 11.6714C9.96857 11.6714 9.97307 11.6714 9.97758 11.6714C9.98209 11.6714 9.9866 11.6714 9.99112 11.6714C9.99564 11.6714 10.0002 11.6714 10.0047 11.6714C10.0092 11.6714 10.0138 11.6714 10.0183 11.6714C10.0228 11.6714 10.0274 11.6714 10.0319 11.6714C10.0365 11.6714 10.041 11.6714 10.0456 11.6714C10.0501 11.6714 10.0547 11.6714 10.0593 11.6714C10.0639 11.6714 10.0684 11.6714 10.073 11.6714C10.0776 11.6714 10.0822 11.6714 10.0868 11.6714C10.0914 11.6714 10.096 11.6714 10.1006 11.6714C10.1052 11.6714 10.1098 11.6714 10.1144 11.6714C10.119 11.6714 10.1236 11.6714 10.1282 11.6714C10.1328 11.6714 10.1375 11.6714 10.1421 11.6714C10.1467 11.6714 10.1514 11.6714 10.156 11.6714C10.1606 11.6714 10.1653 11.6714 10.1699 11.6714C10.1746 11.6714 10.1793 11.6714 10.1839 11.6714C10.1886 11.6714 10.1932 11.6714 10.1979 11.6714C10.2026 11.6714 10.2073 11.6714 10.212 11.6714C10.2166 11.6714 10.2213 11.6714 10.226 11.6714C10.2307 11.6714 10.2354 11.6714 10.2401 11.6714C10.2448 11.6714 10.2495 11.6714 10.2542 11.6714C10.259 11.6714 10.2637 11.6714 10.2684 11.6714C10.2731 11.6714 10.2779 11.6714 10.2826 11.6714C10.2873 11.6714 10.2921 11.6714 10.2968 11.6714C10.3016 11.6714 10.3063 11.6714 10.3111 11.6714C10.3158 11.6714 10.3206 11.6714 10.3253 11.6714C10.3301 11.6714 10.3349 11.6714 10.3397 11.6714C10.3444 11.6714 10.3492 11.6714 10.354 11.6714C10.3588 11.6714 10.3636 11.6714 10.3684 11.6714C10.3732 11.6714 10.378 11.6714 10.3828 11.6714C10.3876 11.6714 10.3924 11.6714 10.3972 11.6714C10.402 11.6714 10.4069 11.6714 10.4117 11.6714C10.4165 11.6714 10.4214 11.6714 10.4262 11.6714C10.431 11.6714 10.4359 11.6714 10.4407 11.6714C10.4456 11.6714 10.4504 11.6714 10.4553 11.6714C10.4602 11.6714 10.465 11.6714 10.4699 11.6714C10.4748 11.6714 10.4796 11.6714 10.4845 11.6714C10.4894 11.6714 10.4943 11.6714 10.4992 11.6714C10.5041 11.6714 10.509 11.6714 10.5139 11.6714C10.5188 11.6714 10.5237 11.6714 10.5286 11.6714C10.5335 11.6714 10.5384 11.6714 10.5433 11.6714C10.5483 11.6714 10.5532 11.6714 10.5581 11.6714C10.5631 11.6714 10.568 11.6714 10.5729 11.6714C10.5779 11.6714 10.5828 11.6714 10.5878 11.6714C10.5927 11.6714 10.5977 11.6714 10.6027 11.6714C10.6076 11.6714 10.6126 11.6714 10.6176 11.6714C10.6226 11.6714 10.6275 11.6714 10.6325 11.6714C10.6375 11.6714 10.6425 11.6714 10.6475 11.6714C10.6525 11.6714 10.6575 11.6714 10.6625 11.6714C10.6675 11.6714 10.6725 11.6714 10.6776 11.6714C10.6826 11.6714 10.6876 11.6714 10.6926 11.6714C10.6977 11.6714 10.7027 11.6714 10.7077 11.6714C10.7128 11.6714 10.7178 11.6714 10.7229 11.6714C10.7279 11.6714 10.733 11.6714 10.738 11.6714C10.7431 11.6714 10.7482 11.6714 10.7532 11.6714C10.7583 11.6714 10.7634 11.6714 10.7685 11.6714C10.7735 11.6714 10.7786 11.6714 10.7837 11.6714C10.7888 11.6714 10.7939 11.6714 10.799 11.6714C10.8041 11.6714 10.8092 11.6714 10.8143 11.6714C10.8195 11.6714 10.8246 11.6714 10.8297 11.6714C10.8348 11.6714 10.84 11.6714 10.8451 11.6714C10.8502 11.6714 10.8554 11.6714 10.8605 11.6714C10.8657 11.6714 10.8708 11.6714 10.876 11.6714C10.8811 11.6714 10.8863 11.6714 10.8915 11.6714C10.8966 11.6714 10.9018 11.6714 10.907 11.6714C10.9122 11.6714 10.9174 11.6714 10.9225 11.6714C10.9277 11.6714 10.9329 11.6714 10.9381 11.6714C10.9433 11.6714 10.9485 11.6714 10.9538 11.6714C10.959 11.6714 10.9642 11.6714 10.9694 11.6714C10.9746 11.6714 10.9799 11.6714 10.9851 11.6714C10.9903 11.6714 10.9956 11.6714 11.0008 11.6714C11.006 11.6714 11.0113 11.6714 11.0166 11.6714C11.0218 11.6714 11.0271 11.6714 11.0323 11.6714C11.0376 11.6714 11.0429 11.6714 11.0481 11.6714C11.0534 11.6714 11.0587 11.6714 11.064 11.6714C11.0693 11.6714 11.0746 11.6714 11.0799 11.6714C11.0852 11.6714 11.0905 11.6714 11.0958 11.6714C11.1011 11.6714 11.1064 11.6714 11.1117 11.6714C11.117 11.6714 11.1224 11.6714 11.1277 11.6714C11.133 11.6714 11.1384 11.6714 11.1437 11.6714C11.1491 11.6714 11.1544 11.6714 11.1598 11.6714C11.1651 11.6714 11.1705 11.6714 11.1758 11.6714C11.1812 11.6714 11.1866 11.6714 11.1919 11.6714C11.1973 11.6714 11.2027 11.6714 11.2081 11.6714C11.2135 11.6714 11.2189 11.6714 11.2243 11.6714C11.2296 11.6714 11.2351 11.6714 11.2405 11.6714C11.2459 11.6714 11.2513 11.6714 11.2567 11.6714C11.2621 11.6714 11.2675 11.6714 11.273 11.6714C11.2784 11.6714 11.2838 11.6714 11.2893 11.6714C11.2947 11.6714 11.3002 11.6714 11.3056 11.6714C11.3111 11.6714 11.3165 11.6714 11.322 11.6714C11.3274 11.6714 11.3329 11.6714 11.3384 11.6714C11.3439 11.6714 11.3493 11.6714 11.3548 11.6714C11.3603 11.6714 11.3658 11.6714 11.3713 11.6714C11.3768 11.6714 11.3823 11.6714 11.3878 11.6714C11.3933 11.6714 11.3988 11.6714 11.4043 11.6714C11.4099 11.6714 11.4154 11.6714 11.4209 11.6714C11.4264 11.6714 11.432 11.6714 11.4375 11.6714C11.4431 11.6714 11.4486 11.6714 11.4541 11.6714C11.4597 11.6714 11.4653 11.6714 11.4708 11.6714C11.4764 11.6714 11.4819 11.6714 11.4875 11.6714C11.4931 11.6714 11.4987 11.6714 11.5043 11.6714C11.5098 11.6714 11.5154 11.6714 11.521 11.6714C11.5266 11.6714 11.5322 11.6714 11.5378 11.6714C11.5434 11.6714 11.5491 11.6714 11.5547 11.6714C11.5603 11.6714 11.5659 11.6714 11.5715 11.6714C11.5772 11.6714 11.5828 11.6714 11.5884 11.6714C11.5941 11.6714 11.5997 11.6714 11.6054 11.6714C11.611 11.6714 11.6167 11.6714 11.6224 11.6714C11.628 11.6714 11.6337 11.6714 11.6394 11.6714C11.645 11.6714 11.6507 11.6714 11.6564 11.6714C11.6621 11.6714 11.6678 11.6714 11.6735 11.6714C11.6792 11.6714 11.6849 11.6714 11.6906 11.6714C11.6963 11.6714 11.702 11.6714 11.7077 11.6714C11.7134 11.6714 11.7192 11.6714 11.7249 11.6714C11.7306 11.6714 11.7363 11.6714 11.7421 11.6714C11.7478 11.6714 11.7536 11.6714 11.7593 11.6714C11.7651 11.6714 11.7708 11.6714 11.7766 11.6714C11.7824 11.6714 11.7881 11.6714 11.7939 11.6714C11.7997 11.6714 11.8055 11.6714 11.8113 11.6714C11.817 11.6714 11.8228 11.6714 11.8286 11.6714C11.8344 11.6714 11.8402 11.6714 11.846 11.6714C11.8518 11.6714 11.8577 11.6714 11.8635 11.6714C11.8693 11.6714 11.8751 11.6714 11.881 11.6714C11.8868 11.6714 11.8926 11.6714 11.8985 11.6714C11.9043 11.6714 11.9102 11.6714 11.916 11.6714C11.9219 11.6714 11.9277 11.6714 11.9336 11.6714C11.9395 11.6714 11.9453 11.6714 11.9512 11.6714C11.9571 11.6714 11.963 11.6714 11.9689 11.6714C11.9747 11.6714 11.9806 11.6714 11.9865 11.6714C11.9924 11.6714 11.9983 11.6714 12.0043 11.6714C12.0102 11.6714 12.0161 11.6714 12.022 11.6714C12.0279 11.6714 12.0339 11.6714 12.0398 11.6714C12.0457 11.6714 12.0517 11.6714 12.0576 11.6714C12.0636 11.6714 12.0695 11.6714 12.0755 11.6714C12.0814 11.6714 12.0874 11.6714 12.0934 11.6714C12.0993 11.6714 12.1053 11.6714 12.1113 11.6714C12.1173 11.6714 12.1232 11.6714 12.1292 11.6714C12.1352 11.6714 12.1412 11.6714 12.1472 11.6714C12.1532 11.6714 12.1592 11.6714 12.1652 11.6714C12.1713 11.6714 12.1773 11.6714 12.1833 11.6714C12.1893 11.6714 12.1954 11.6714 12.2014 11.6714C12.2074 11.6714 12.2135 11.6714 12.2195 11.6714C12.2256 11.6714 12.2316 11.6714 12.2377 11.6714C12.2437 11.6714 12.2498 11.6714 12.2559 11.6714C12.262 11.6714 12.268 11.6714 12.2741 11.6714C12.2802 11.6714 12.2863 11.6714 12.2924 11.6714C12.2985 11.6714 12.3046 11.6714 12.3107 11.6714C12.3168 11.6714 12.3229 11.6714 12.329 11.6714C12.3351 11.6714 12.3413 11.6714 12.3474 11.6714C12.3535 11.6714 12.3597 11.6714 12.3658 11.6714C12.3719 11.6714 12.3781 11.6714 12.3842 11.6714C12.3904 11.6714 12.3965 11.6714 12.4027 11.6714C12.4089 11.6714 12.415 11.6714 12.4212 11.6714C12.4274 11.6714 12.4336 11.6714 12.4398 11.6714C12.446 11.6714 12.4521 11.6714 12.4583 11.6714C12.4645 11.6714 12.4707 11.6714 12.477 11.6714C12.4832 11.6714 12.4894 11.6714 12.4956 11.6714C12.5018 11.6714 12.5081 11.6714 12.5143 11.6714C12.5205 11.6714 12.5268 11.6714 12.533 11.6714C12.5393 11.6714 12.5455 11.6714 12.5518 11.6714C12.558 11.6714 12.5643 11.6714 12.5706 11.6714C12.5768 11.6714 12.5831 11.6714 12.5894 11.6714C12.5957 11.6714 12.6019 11.6714 12.6082 11.6714C12.6145 11.6714 12.6208 11.6714 12.6271 11.6714C12.6334 11.6714 12.6397 11.6714 12.6461 11.6714C12.6524 11.6714 12.6587 11.6714 12.665 11.6714C12.6714 11.6714 12.6777 11.6714 12.684 11.6714C12.6904 11.6714 12.6967 11.6714 12.7031 11.6714C12.7094 11.6714 12.7158 11.6714 12.7221 11.6714C12.7285 11.6714 12.7349 11.6714 12.7412 11.6714C12.7476 11.6714 12.754 11.6714 12.7604 11.6714C12.7668 11.6714 12.7732 11.6714 12.7796 11.6714C12.786 11.6714 12.7924 11.6714 12.7988 11.6714C12.8052 11.6714 12.8116 11.6714 12.818 11.6714C12.8244 11.6714 12.8309 11.6714 12.8373 11.6714C12.8437 11.6714 12.8502 11.6714 12.8566 11.6714C12.8631 11.6714 12.8695 11.6714 12.876 11.6714C12.8824 11.6714 12.8889 11.6714 12.8954 11.6714C12.9018 11.6714 12.9083 11.6714 12.9148 11.6714C12.9213 11.6714 12.9278 11.6714 12.9342 11.6714C12.9407 11.6714 12.9472 11.6714 12.9537 11.6714C12.9602 11.6714 12.9668 11.6714 12.9733 11.6714C12.9798 11.6714 12.9863 11.6714 12.9928 11.6714C12.9994 11.6714 13.0059 11.6714 13.0124 11.6714C13.019 11.6714 13.0255 11.6714 13.0321 11.6714C13.0386 11.6714 13.0452 11.6714 13.0518 11.6714C13.0583 11.6714 13.0649 11.6714 13.0715 11.6714C13.078 11.6714 13.0846 11.6714 13.0912 11.6714C13.0978 11.6714 13.1044 11.6714 13.111 11.6714C13.1176 11.6714 13.1242 11.6714 13.1308 11.6714C13.1374 11.6714 13.144 11.6714 13.1507 11.6714C13.1573 11.6714 13.1639 11.6714 13.1706 11.6714C13.1772 11.6714 13.1838 11.6714 13.1905 11.6714C13.1971 11.6714 13.2038 11.6714 13.2104 11.6714C13.2171 11.6714 13.2238 11.6714 13.2304 11.6714C13.2371 11.6714 13.2438 11.6714 13.2505 11.6714C13.2572 11.6714 13.2638 11.6714 13.2705 11.6714C13.2772 11.6714 13.2839 11.6714 13.2907 11.6714C13.2974 11.6714 13.3041 11.6714 13.3108 11.6714C13.3175 11.6714 13.3242 11.6714 13.331 11.6714C13.3377 11.6714 13.3444 11.6714 13.3512 11.6714C13.3579 11.6714 13.3647 11.6714 13.3714 11.6714C13.3782 11.6714 13.385 11.6714 13.3917 11.6714C13.3985 11.6714 13.4053 11.6714 13.412 11.6714C13.4188 11.6714 13.4256 11.6714 13.4324 11.6714C13.4392 11.6714 13.446 11.6714 13.4528 11.6714C13.4596 11.6714 13.4664 11.6714 13.4732 11.6714C13.48 11.6714 13.4869 11.6714 13.4937 11.6714C13.5005 11.6714 13.5074 11.6714 13.5142 11.6714C13.521 11.6714 13.5279 11.6714 13.5347 11.6714C13.5416 11.6714 13.5485 11.6714 13.5553 11.6714C13.5622 11.6714 13.5691 11.6714 13.5759 11.6714C13.5828 11.6714 13.5897 11.6714 13.5966 11.6714C13.6035 11.6714 13.6104 11.6714 13.6173 11.6714C13.6242 11.6714 13.6311 11.6714 13.638 11.6714C13.6449 11.6714 13.6518 11.6714 13.6588 11.6714C13.6657 11.6714 13.6726 11.6714 13.6796 11.6714C13.6865 11.6714 13.6934 11.6714 13.7004 11.6714C13.7073 11.6714 13.7143 11.6714 13.7213 11.6714C13.7282 11.6714 13.7352 11.6714 13.7422 11.6714C13.7491 11.6714 13.7561 11.6714 13.7631 11.6714C13.7701 11.6714 13.7771 11.6714 13.7841 11.6714C13.7911 11.6714 13.7981 11.6714 13.8051 11.6714C13.8121 11.6714 13.8191 11.6714 13.8262 11.6714C13.8332 11.6714 13.8402 11.6714 13.8472 11.6714C13.8543 11.6714 13.8613 11.6714 13.8684 11.6714C13.8754 11.6714 13.8825 11.6714 13.8895 11.6714C13.8966 11.6714 13.9037 11.6714 13.9107 11.6714C13.9178 11.6714 13.9249 11.6714 13.932 11.6714C13.9391 11.6714 13.9462 11.6714 13.9533 11.6714C13.9603 11.6714 13.9675 11.6714 13.9746 11.6714C13.9817 11.6714 13.9888 11.6714 13.9959 11.6714C14.003 11.6714 14.0102 11.6714 14.0173 11.6714C14.0244 11.6714 14.0316 11.6714 14.0387 11.6714C14.0459 11.6714 14.053 11.6714 14.0602 11.6714C14.0673 11.6714 14.0745 11.6714 14.0817 11.6714C14.0889 11.6714 14.096 11.6714 14.1032 11.6714C14.1104 11.6714 14.1176 11.6714 14.1248 11.6714C14.132 11.6714 14.1392 11.6714 14.1464 11.6714C14.1536 11.6714 14.1608 11.6714 14.168 11.6714C14.1753 11.6714 14.1825 11.6714 14.1897 11.6714C14.197 11.6714 14.2042 11.6714 14.2114 11.6714C14.2187 11.6714 14.2259 11.6714 14.2332 11.6714C14.2405 11.6714 14.2477 11.6714 14.255 11.6714C14.2623 11.6714 14.2696 11.6714 14.2768 11.6714C14.2841 11.6714 14.2914 11.6714 14.2987 11.6714C14.306 11.6714 14.3133 11.6714 14.3206 11.6714C14.3279 11.6714 14.3352 11.6714 14.3426 11.6714C14.3499 11.6714 14.3572 11.6714 14.3645 11.6714C14.3719 11.6714 14.3792 11.6714 14.3866 11.6714C14.3939 11.6714 14.4013 11.6714 14.4086 11.6714C14.416 11.6714 14.4233 11.6714 14.4307 11.6714C14.4381 11.6714 14.4455 11.6714 14.4529 11.6714C14.4602 11.6714 14.4676 11.6714 14.475 11.6714C14.4824 11.6714 14.4898 11.6714 14.4972 11.6714C14.5046 11.6714 14.5121 11.6714 14.5195 11.6714C14.5269 11.6714 14.5343 11.6714 14.5418 11.6714C14.5492 11.6714 14.5566 11.6714 14.5641 11.6714C14.5715 11.6714 14.579 11.6714 14.5864 11.6714C14.5939 11.6714 14.6014 11.6714 14.6088 11.6714C14.6163 11.6714 14.6238 11.6714 14.6313 11.6714C14.6388 11.6714 14.6463 11.6714 14.6538 11.6714C14.6613 11.6714 14.6688 11.6714 14.6763 11.6714C14.6838 11.6714 14.6913 11.6714 14.6988 11.6714C14.7063 11.6714 14.7139 11.6714 14.7214 11.6714C14.7289 11.6714 14.7365 11.6714 14.744 11.6714C14.7516 11.6714 14.7591 11.6714 14.7667 11.6714C14.7743 11.6714 14.7818 11.6714 14.7894 11.6714C14.797 11.6714 14.8045 11.6714 14.8121 11.6714C14.8197 11.6714 14.8273 11.6714 14.8349 11.6714C14.8425 11.6714 14.8501 11.6714 14.8577 11.6714C14.8653 11.6714 14.873 11.6714 14.8806 11.6714C14.8882 11.6714 14.8958 11.6714 14.9035 11.6714C14.9111 11.6714 14.9188 11.6714 14.9264 11.6714C14.9341 11.6714 14.9417 11.6714 14.9494 11.6714C14.957 11.6714 14.9647 11.6714 14.9724 11.6714C14.9801 11.6714 14.9877 11.6714 14.9954 11.6714C15.0031 11.6714 15.0108 11.6714 15.0185 11.6714C15.0262 11.6714 15.0339 11.6714 15.0416 11.6714C15.0493 11.6714 15.0571 11.6714 15.0648 11.6714C15.0725 11.6714 15.0802 11.6714 15.088 11.6714C15.0957 11.6714 15.1035 11.6714 15.1112 11.6714C15.119 11.6714 15.1267 11.6714 15.1345 11.6714C15.1423 11.6714 15.15 11.6714 15.1578 11.6714C15.1656 11.6714 15.1734 11.6714 15.1812 11.6714C15.189 11.6714 15.1968 11.6714 15.2046 11.6714C15.2124 11.6714 15.2202 11.6714 15.228 11.6714C15.2358 11.6714 15.2436 11.6714 15.2515 11.6714C15.2593 11.6714 15.2671 11.6714 15.275 11.6714C15.2828 11.6714 15.2907 11.6714 15.2985 11.6714C15.3064 11.6714 15.3142 11.6714 15.3221 11.6714C15.33 11.6714 15.3378 11.6714 15.3457 11.6714C15.3536 11.6714 15.3615 11.6714 15.3694 11.6714C15.3773 11.6714 15.3852 11.6714 15.3931 11.6714C15.401 11.6714 15.4089 11.6714 15.4168 11.6714C15.4247 11.6714 15.4327 11.6714 15.4406 11.6714C15.4485 11.6714 15.4565 11.6714 15.4644 11.6714C15.4724 11.6714 15.4803 11.6714 15.4883 11.6714C15.4962 11.6714 15.5042 11.6714 15.5122 11.6714C15.5201 11.6714 15.5281 11.6714 15.5361 11.6714C15.5441 11.6714 15.5521 11.6714 15.5601 11.6714C15.5681 11.6714 15.5761 11.6714 15.5841 11.6714C15.5921 11.6714 15.6001 11.6714 15.6081 11.6714C15.6162 11.6714 15.6242 11.6714 15.6322 11.6714C15.6403 11.6714 15.6483 11.6714 15.6564 11.6714C15.6644 11.6714 15.6725 11.6714 15.6805 11.6714C15.6886 11.6714 15.6967 11.6714 15.7047 11.6714C15.7128 11.6714 15.7209 11.6714 15.729 11.6714C15.7371 11.6714 15.7452 11.6714 15.7533 11.6714C15.7614 11.6714 15.7695 11.6714 15.7776 11.6714C15.7857 11.6714 15.7938 11.6714 15.802 11.6714C15.8101 11.6714 15.8182 11.6714 15.8264 11.6714C15.8345 11.6714 15.8427 11.6714 15.8508 11.6714C15.859 11.6714 15.8671 11.6714 15.8753 11.6714C15.8835 11.6714 15.8916 11.6714 15.8998 11.6714C15.908 11.6714 15.9162 11.6714 15.9244 11.6714C15.9326 11.6714 15.9408 11.6714 15.949 11.6714C15.9572 11.6714 15.9654 11.6714 15.9736 11.6714C15.9818 11.6714 15.9901 11.6714 15.9983 11.6714C16.0065 11.6714 16.0148 11.6714 16.023 11.6714C16.0313 11.6714 16.0395 11.6714 16.0478 11.6714C16.056 11.6714 16.0643 11.6714 16.0726 11.6714C16.0808 11.6714 16.0891 11.6714 16.0974 11.6714C16.1057 11.6714 16.114 11.6714 16.1223 11.6714C16.1306 11.6714 16.1389 11.6714 16.1472 11.6714C16.1555 11.6714 16.1638 11.6714 16.1722 11.6714C16.1805 11.6714 16.1888 11.6714 16.1972 11.6714C16.2055 11.6714 16.2138 11.6714 16.2222 11.6714C16.2305 11.6714 16.2389 11.6714 16.2473 11.6714C16.2556 11.6714 16.264 11.6714 16.2724 11.6714C16.2808 11.6714 16.2891 11.6714 16.2975 11.6714C16.3059 11.6714 16.3143 11.6714 16.3227 11.6714C16.3311 11.6714 16.3396 11.6714 16.348 11.6714C16.3564 11.6714 16.3648 11.6714 16.3732 11.6714C16.3817 11.6714 16.3901 11.6714 16.3986 11.6714C16.407 11.6714 16.4155 11.6714 16.4239 11.6714C16.4324 11.6714 16.4408 11.6714 16.4493 11.6714C16.4578 11.6714 16.4663 11.6714 16.4747 11.6714C16.4832 11.6714 16.4917 11.6714 16.5002 11.6714C16.5087 11.6714 16.5172 11.6714 16.5257 11.6714C16.5343 11.6714 16.5428 11.6714 16.5513 11.6714C16.5598 11.6714 16.5684 11.6714 16.5769 11.6714C16.5854 11.6714 16.594 11.6714 16.6025 11.6714C16.6111 11.6714 16.6196 11.6714 16.6282 11.6714C16.6368 11.6714 16.6453 11.6714 16.6539 11.6714C16.6625 11.6714 16.6711 11.6714 16.6797 11.6714C16.6883 11.6714 16.6969 11.6714 16.7055 11.6714C16.7141 11.6714 16.7227 11.6714 16.7313 11.6714C16.7399 11.6714 16.7486 11.6714 16.7572 11.6714C16.7658 11.6714 16.7745 11.6714 16.7831 11.6714C16.7918 11.6714 16.8004 11.6714 16.8091 11.6714C16.8177 11.6714 16.8264 11.6714 16.8351 11.6714C16.8437 11.6714 16.8524 11.6714 16.8611 11.6714C16.8698 11.6714 16.8785 11.6714 16.8872 11.6714C16.8959 11.6714 16.9046 11.6714 16.9133 11.6714C16.922 11.6714 16.9307 11.6714 16.9395 11.6714C16.9482 11.6714 16.9569 11.6714 16.9657 11.6714C16.9744 11.6714 16.9832 11.6714 16.9919 11.6714C17.0007 11.6714 17.0094 11.6714 17.0182 11.6714C17.027 11.6714 17.0357 11.6714 17.0445 11.6714C17.0533 11.6714 17.0621 11.6714 17.0709 11.6714C17.0797 11.6714 17.0885 11.6714 17.0973 11.6714C17.1061 11.6714 17.1149 11.6714 17.1237 11.6714C17.1325 11.6714 17.1414 11.6714 17.1502 11.6714C17.159 11.6714 17.1679 11.6714 17.1767 11.6714C17.1856 11.6714 17.1944 11.6714 17.2033 11.6714C17.2122 11.6714 17.221 11.6714 17.2299 11.6714C17.2388 11.6714 17.2477 11.6714 17.2566 11.6714C17.2655 11.6714 17.2744 11.6714 17.2833 11.6714C17.2922 11.6714 17.3011 11.6714 17.31 11.6714C17.3189 11.6714 17.3278 11.6714 17.3368 11.6714C17.3457 11.6714 17.3546 11.6714 17.3636 11.6714C17.3725 11.6714 17.3815 11.6714 17.3904 11.6714C17.3994 11.6714 17.4083 11.6714 17.4173 11.6714C17.4263 11.6714 17.4353 11.6714 17.4443 11.6714C17.4532 11.6714 17.4622 11.6714 17.4712 11.6714C17.4802 11.6714 17.4892 11.6714 17.4983 11.6714C17.5073 11.6714 17.5163 11.6714 17.5253 11.6714C17.5343 11.6714 17.5434 11.6714 17.5524 11.6714C17.5615 11.6714 17.5705 11.6714 17.5796 11.6714C17.5886 11.6714 17.5977 11.6714 17.6067 11.6714C17.6158 11.6714 17.6249 11.6714 17.634 11.6714C17.643 11.6714 17.6521 11.6714 17.6612 11.6714C17.6703 11.6714 17.6794 11.6714 17.6885 11.6714C17.6976 11.6714 17.7068 11.6714 17.7159 11.6714C17.725 11.6714 17.7341 11.6714 17.7433 11.6714C17.7524 11.6714 17.7616 11.6714 17.7707 11.6714C17.7799 11.6714 17.789 11.6714 17.7982 11.6714C17.8073 11.6714 17.8165 11.6714 17.8257 11.6714C17.8349 11.6714 17.8441 11.6714 17.8533 11.6714C17.8624 11.6714 17.8716 11.6714 17.8808 11.6714C17.8901 11.6714 17.8993 11.6714 17.9085 11.6714C17.9177 11.6714 17.9269 11.6714 17.9362 11.6714C17.9454 11.6714 17.9546 11.6714 17.9639 11.6714C17.9731 11.6714 17.9824 11.6714 17.9917 11.6714C18.0009 11.6714 18.0102 11.6714 18.0195 11.6714C18.0287 11.6714 18.038 11.6714 18.0473 11.6714C18.0566 11.6714 18.0659 11.6714 18.0752 11.6714C18.0845 11.6714 18.0938 11.6714 18.1031 11.6714C18.1124 11.6714 18.1218 11.6714 18.1311 11.6714C18.1404 11.6714 18.1498 11.6714 18.1591 11.6714C18.1685 11.6714 18.1778 11.6714 18.1872 11.6714C18.1965 11.6714 18.2059 11.6714 18.2153 11.6714C18.2246 11.6714 18.234 11.6714 18.2434 11.6714C18.2528 11.6714 18.2622 11.6714 18.2716 11.6714C18.281 11.6714 18.2904 11.6714 18.2998 11.6714C18.3092 11.6714 18.3186 11.6714 18.3281 11.6714V10.6714C18.3186 10.6714 18.3092 10.6714 18.2998 10.6714C18.2904 10.6714 18.281 10.6714 18.2716 10.6714C18.2622 10.6714 18.2528 10.6714 18.2434 10.6714C18.234 10.6714 18.2246 10.6714 18.2153 10.6714C18.2059 10.6714 18.1965 10.6714 18.1872 10.6714C18.1778 10.6714 18.1685 10.6714 18.1591 10.6714C18.1498 10.6714 18.1404 10.6714 18.1311 10.6714C18.1218 10.6714 18.1124 10.6714 18.1031 10.6714C18.0938 10.6714 18.0845 10.6714 18.0752 10.6714C18.0659 10.6714 18.0566 10.6714 18.0473 10.6714C18.038 10.6714 18.0287 10.6714 18.0195 10.6714C18.0102 10.6714 18.0009 10.6714 17.9917 10.6714C17.9824 10.6714 17.9731 10.6714 17.9639 10.6714C17.9546 10.6714 17.9454 10.6714 17.9362 10.6714C17.9269 10.6714 17.9177 10.6714 17.9085 10.6714C17.8993 10.6714 17.8901 10.6714 17.8808 10.6714C17.8716 10.6714 17.8624 10.6714 17.8533 10.6714C17.8441 10.6714 17.8349 10.6714 17.8257 10.6714C17.8165 10.6714 17.8073 10.6714 17.7982 10.6714C17.789 10.6714 17.7799 10.6714 17.7707 10.6714C17.7616 10.6714 17.7524 10.6714 17.7433 10.6714C17.7341 10.6714 17.725 10.6714 17.7159 10.6714C17.7068 10.6714 17.6976 10.6714 17.6885 10.6714C17.6794 10.6714 17.6703 10.6714 17.6612 10.6714C17.6521 10.6714 17.643 10.6714 17.634 10.6714C17.6249 10.6714 17.6158 10.6714 17.6067 10.6714C17.5977 10.6714 17.5886 10.6714 17.5796 10.6714C17.5705 10.6714 17.5615 10.6714 17.5524 10.6714C17.5434 10.6714 17.5343 10.6714 17.5253 10.6714C17.5163 10.6714 17.5073 10.6714 17.4983 10.6714C17.4892 10.6714 17.4802 10.6714 17.4712 10.6714C17.4622 10.6714 17.4532 10.6714 17.4443 10.6714C17.4353 10.6714 17.4263 10.6714 17.4173 10.6714C17.4083 10.6714 17.3994 10.6714 17.3904 10.6714C17.3815 10.6714 17.3725 10.6714 17.3636 10.6714C17.3546 10.6714 17.3457 10.6714 17.3368 10.6714C17.3278 10.6714 17.3189 10.6714 17.31 10.6714C17.3011 10.6714 17.2922 10.6714 17.2833 10.6714C17.2744 10.6714 17.2655 10.6714 17.2566 10.6714C17.2477 10.6714 17.2388 10.6714 17.2299 10.6714C17.221 10.6714 17.2122 10.6714 17.2033 10.6714C17.1944 10.6714 17.1856 10.6714 17.1767 10.6714C17.1679 10.6714 17.159 10.6714 17.1502 10.6714C17.1414 10.6714 17.1325 10.6714 17.1237 10.6714C17.1149 10.6714 17.1061 10.6714 17.0973 10.6714C17.0885 10.6714 17.0797 10.6714 17.0709 10.6714C17.0621 10.6714 17.0533 10.6714 17.0445 10.6714C17.0357 10.6714 17.027 10.6714 17.0182 10.6714C17.0094 10.6714 17.0007 10.6714 16.9919 10.6714C16.9832 10.6714 16.9744 10.6714 16.9657 10.6714C16.9569 10.6714 16.9482 10.6714 16.9395 10.6714C16.9307 10.6714 16.922 10.6714 16.9133 10.6714C16.9046 10.6714 16.8959 10.6714 16.8872 10.6714C16.8785 10.6714 16.8698 10.6714 16.8611 10.6714C16.8524 10.6714 16.8437 10.6714 16.8351 10.6714C16.8264 10.6714 16.8177 10.6714 16.8091 10.6714C16.8004 10.6714 16.7918 10.6714 16.7831 10.6714C16.7745 10.6714 16.7658 10.6714 16.7572 10.6714C16.7486 10.6714 16.7399 10.6714 16.7313 10.6714C16.7227 10.6714 16.7141 10.6714 16.7055 10.6714C16.6969 10.6714 16.6883 10.6714 16.6797 10.6714C16.6711 10.6714 16.6625 10.6714 16.6539 10.6714C16.6453 10.6714 16.6368 10.6714 16.6282 10.6714C16.6196 10.6714 16.6111 10.6714 16.6025 10.6714C16.594 10.6714 16.5854 10.6714 16.5769 10.6714C16.5684 10.6714 16.5598 10.6714 16.5513 10.6714C16.5428 10.6714 16.5343 10.6714 16.5257 10.6714C16.5172 10.6714 16.5087 10.6714 16.5002 10.6714C16.4917 10.6714 16.4832 10.6714 16.4747 10.6714C16.4663 10.6714 16.4578 10.6714 16.4493 10.6714C16.4408 10.6714 16.4324 10.6714 16.4239 10.6714C16.4155 10.6714 16.407 10.6714 16.3986 10.6714C16.3901 10.6714 16.3817 10.6714 16.3732 10.6714C16.3648 10.6714 16.3564 10.6714 16.348 10.6714C16.3396 10.6714 16.3311 10.6714 16.3227 10.6714C16.3143 10.6714 16.3059 10.6714 16.2975 10.6714C16.2891 10.6714 16.2808 10.6714 16.2724 10.6714C16.264 10.6714 16.2556 10.6714 16.2473 10.6714C16.2389 10.6714 16.2305 10.6714 16.2222 10.6714C16.2138 10.6714 16.2055 10.6714 16.1972 10.6714C16.1888 10.6714 16.1805 10.6714 16.1722 10.6714C16.1638 10.6714 16.1555 10.6714 16.1472 10.6714C16.1389 10.6714 16.1306 10.6714 16.1223 10.6714C16.114 10.6714 16.1057 10.6714 16.0974 10.6714C16.0891 10.6714 16.0808 10.6714 16.0726 10.6714C16.0643 10.6714 16.056 10.6714 16.0478 10.6714C16.0395 10.6714 16.0313 10.6714 16.023 10.6714C16.0148 10.6714 16.0065 10.6714 15.9983 10.6714C15.9901 10.6714 15.9818 10.6714 15.9736 10.6714C15.9654 10.6714 15.9572 10.6714 15.949 10.6714C15.9408 10.6714 15.9326 10.6714 15.9244 10.6714C15.9162 10.6714 15.908 10.6714 15.8998 10.6714C15.8916 10.6714 15.8835 10.6714 15.8753 10.6714C15.8671 10.6714 15.859 10.6714 15.8508 10.6714C15.8427 10.6714 15.8345 10.6714 15.8264 10.6714C15.8182 10.6714 15.8101 10.6714 15.802 10.6714C15.7938 10.6714 15.7857 10.6714 15.7776 10.6714C15.7695 10.6714 15.7614 10.6714 15.7533 10.6714C15.7452 10.6714 15.7371 10.6714 15.729 10.6714C15.7209 10.6714 15.7128 10.6714 15.7047 10.6714C15.6967 10.6714 15.6886 10.6714 15.6805 10.6714C15.6725 10.6714 15.6644 10.6714 15.6564 10.6714C15.6483 10.6714 15.6403 10.6714 15.6322 10.6714C15.6242 10.6714 15.6162 10.6714 15.6081 10.6714C15.6001 10.6714 15.5921 10.6714 15.5841 10.6714C15.5761 10.6714 15.5681 10.6714 15.5601 10.6714C15.5521 10.6714 15.5441 10.6714 15.5361 10.6714C15.5281 10.6714 15.5201 10.6714 15.5122 10.6714C15.5042 10.6714 15.4962 10.6714 15.4883 10.6714C15.4803 10.6714 15.4724 10.6714 15.4644 10.6714C15.4565 10.6714 15.4485 10.6714 15.4406 10.6714C15.4327 10.6714 15.4247 10.6714 15.4168 10.6714C15.4089 10.6714 15.401 10.6714 15.3931 10.6714C15.3852 10.6714 15.3773 10.6714 15.3694 10.6714C15.3615 10.6714 15.3536 10.6714 15.3457 10.6714C15.3378 10.6714 15.33 10.6714 15.3221 10.6714C15.3142 10.6714 15.3064 10.6714 15.2985 10.6714C15.2907 10.6714 15.2828 10.6714 15.275 10.6714C15.2671 10.6714 15.2593 10.6714 15.2515 10.6714C15.2436 10.6714 15.2358 10.6714 15.228 10.6714C15.2202 10.6714 15.2124 10.6714 15.2046 10.6714C15.1968 10.6714 15.189 10.6714 15.1812 10.6714C15.1734 10.6714 15.1656 10.6714 15.1578 10.6714C15.15 10.6714 15.1423 10.6714 15.1345 10.6714C15.1267 10.6714 15.119 10.6714 15.1112 10.6714C15.1035 10.6714 15.0957 10.6714 15.088 10.6714C15.0802 10.6714 15.0725 10.6714 15.0648 10.6714C15.0571 10.6714 15.0493 10.6714 15.0416 10.6714C15.0339 10.6714 15.0262 10.6714 15.0185 10.6714C15.0108 10.6714 15.0031 10.6714 14.9954 10.6714C14.9877 10.6714 14.9801 10.6714 14.9724 10.6714C14.9647 10.6714 14.957 10.6714 14.9494 10.6714C14.9417 10.6714 14.9341 10.6714 14.9264 10.6714C14.9188 10.6714 14.9111 10.6714 14.9035 10.6714C14.8958 10.6714 14.8882 10.6714 14.8806 10.6714C14.873 10.6714 14.8653 10.6714 14.8577 10.6714C14.8501 10.6714 14.8425 10.6714 14.8349 10.6714C14.8273 10.6714 14.8197 10.6714 14.8121 10.6714C14.8045 10.6714 14.797 10.6714 14.7894 10.6714C14.7818 10.6714 14.7743 10.6714 14.7667 10.6714C14.7591 10.6714 14.7516 10.6714 14.744 10.6714C14.7365 10.6714 14.7289 10.6714 14.7214 10.6714C14.7139 10.6714 14.7063 10.6714 14.6988 10.6714C14.6913 10.6714 14.6838 10.6714 14.6763 10.6714C14.6688 10.6714 14.6613 10.6714 14.6538 10.6714C14.6463 10.6714 14.6388 10.6714 14.6313 10.6714C14.6238 10.6714 14.6163 10.6714 14.6088 10.6714C14.6014 10.6714 14.5939 10.6714 14.5864 10.6714C14.579 10.6714 14.5715 10.6714 14.5641 10.6714C14.5566 10.6714 14.5492 10.6714 14.5418 10.6714C14.5343 10.6714 14.5269 10.6714 14.5195 10.6714C14.5121 10.6714 14.5046 10.6714 14.4972 10.6714C14.4898 10.6714 14.4824 10.6714 14.475 10.6714C14.4676 10.6714 14.4602 10.6714 14.4529 10.6714C14.4455 10.6714 14.4381 10.6714 14.4307 10.6714C14.4233 10.6714 14.416 10.6714 14.4086 10.6714C14.4013 10.6714 14.3939 10.6714 14.3866 10.6714C14.3792 10.6714 14.3719 10.6714 14.3645 10.6714C14.3572 10.6714 14.3499 10.6714 14.3426 10.6714C14.3352 10.6714 14.3279 10.6714 14.3206 10.6714C14.3133 10.6714 14.306 10.6714 14.2987 10.6714C14.2914 10.6714 14.2841 10.6714 14.2768 10.6714C14.2696 10.6714 14.2623 10.6714 14.255 10.6714C14.2477 10.6714 14.2405 10.6714 14.2332 10.6714C14.2259 10.6714 14.2187 10.6714 14.2114 10.6714C14.2042 10.6714 14.197 10.6714 14.1897 10.6714C14.1825 10.6714 14.1753 10.6714 14.168 10.6714C14.1608 10.6714 14.1536 10.6714 14.1464 10.6714C14.1392 10.6714 14.132 10.6714 14.1248 10.6714C14.1176 10.6714 14.1104 10.6714 14.1032 10.6714C14.096 10.6714 14.0889 10.6714 14.0817 10.6714C14.0745 10.6714 14.0673 10.6714 14.0602 10.6714C14.053 10.6714 14.0459 10.6714 14.0387 10.6714C14.0316 10.6714 14.0244 10.6714 14.0173 10.6714C14.0102 10.6714 14.003 10.6714 13.9959 10.6714C13.9888 10.6714 13.9817 10.6714 13.9746 10.6714C13.9675 10.6714 13.9603 10.6714 13.9533 10.6714C13.9462 10.6714 13.9391 10.6714 13.932 10.6714C13.9249 10.6714 13.9178 10.6714 13.9107 10.6714C13.9037 10.6714 13.8966 10.6714 13.8895 10.6714C13.8825 10.6714 13.8754 10.6714 13.8684 10.6714C13.8613 10.6714 13.8543 10.6714 13.8472 10.6714C13.8402 10.6714 13.8332 10.6714 13.8262 10.6714C13.8191 10.6714 13.8121 10.6714 13.8051 10.6714C13.7981 10.6714 13.7911 10.6714 13.7841 10.6714C13.7771 10.6714 13.7701 10.6714 13.7631 10.6714C13.7561 10.6714 13.7491 10.6714 13.7422 10.6714C13.7352 10.6714 13.7282 10.6714 13.7213 10.6714C13.7143 10.6714 13.7073 10.6714 13.7004 10.6714C13.6934 10.6714 13.6865 10.6714 13.6796 10.6714C13.6726 10.6714 13.6657 10.6714 13.6588 10.6714C13.6518 10.6714 13.6449 10.6714 13.638 10.6714C13.6311 10.6714 13.6242 10.6714 13.6173 10.6714C13.6104 10.6714 13.6035 10.6714 13.5966 10.6714C13.5897 10.6714 13.5828 10.6714 13.5759 10.6714C13.5691 10.6714 13.5622 10.6714 13.5553 10.6714C13.5485 10.6714 13.5416 10.6714 13.5347 10.6714C13.5279 10.6714 13.521 10.6714 13.5142 10.6714C13.5074 10.6714 13.5005 10.6714 13.4937 10.6714C13.4869 10.6714 13.48 10.6714 13.4732 10.6714C13.4664 10.6714 13.4596 10.6714 13.4528 10.6714C13.446 10.6714 13.4392 10.6714 13.4324 10.6714C13.4256 10.6714 13.4188 10.6714 13.412 10.6714C13.4053 10.6714 13.3985 10.6714 13.3917 10.6714C13.385 10.6714 13.3782 10.6714 13.3714 10.6714C13.3647 10.6714 13.3579 10.6714 13.3512 10.6714C13.3444 10.6714 13.3377 10.6714 13.331 10.6714C13.3242 10.6714 13.3175 10.6714 13.3108 10.6714C13.3041 10.6714 13.2974 10.6714 13.2907 10.6714C13.2839 10.6714 13.2772 10.6714 13.2705 10.6714C13.2638 10.6714 13.2572 10.6714 13.2505 10.6714C13.2438 10.6714 13.2371 10.6714 13.2304 10.6714C13.2238 10.6714 13.2171 10.6714 13.2104 10.6714C13.2038 10.6714 13.1971 10.6714 13.1905 10.6714C13.1838 10.6714 13.1772 10.6714 13.1706 10.6714C13.1639 10.6714 13.1573 10.6714 13.1507 10.6714C13.144 10.6714 13.1374 10.6714 13.1308 10.6714C13.1242 10.6714 13.1176 10.6714 13.111 10.6714C13.1044 10.6714 13.0978 10.6714 13.0912 10.6714C13.0846 10.6714 13.078 10.6714 13.0715 10.6714C13.0649 10.6714 13.0583 10.6714 13.0518 10.6714C13.0452 10.6714 13.0386 10.6714 13.0321 10.6714C13.0255 10.6714 13.019 10.6714 13.0124 10.6714C13.0059 10.6714 12.9994 10.6714 12.9928 10.6714C12.9863 10.6714 12.9798 10.6714 12.9733 10.6714C12.9668 10.6714 12.9602 10.6714 12.9537 10.6714C12.9472 10.6714 12.9407 10.6714 12.9342 10.6714C12.9278 10.6714 12.9213 10.6714 12.9148 10.6714C12.9083 10.6714 12.9018 10.6714 12.8954 10.6714C12.8889 10.6714 12.8824 10.6714 12.876 10.6714C12.8695 10.6714 12.8631 10.6714 12.8566 10.6714C12.8502 10.6714 12.8437 10.6714 12.8373 10.6714C12.8309 10.6714 12.8244 10.6714 12.818 10.6714C12.8116 10.6714 12.8052 10.6714 12.7988 10.6714C12.7924 10.6714 12.786 10.6714 12.7796 10.6714C12.7732 10.6714 12.7668 10.6714 12.7604 10.6714C12.754 10.6714 12.7476 10.6714 12.7412 10.6714C12.7349 10.6714 12.7285 10.6714 12.7221 10.6714C12.7158 10.6714 12.7094 10.6714 12.7031 10.6714C12.6967 10.6714 12.6904 10.6714 12.684 10.6714C12.6777 10.6714 12.6714 10.6714 12.665 10.6714C12.6587 10.6714 12.6524 10.6714 12.6461 10.6714C12.6397 10.6714 12.6334 10.6714 12.6271 10.6714C12.6208 10.6714 12.6145 10.6714 12.6082 10.6714C12.6019 10.6714 12.5957 10.6714 12.5894 10.6714C12.5831 10.6714 12.5768 10.6714 12.5706 10.6714C12.5643 10.6714 12.558 10.6714 12.5518 10.6714C12.5455 10.6714 12.5393 10.6714 12.533 10.6714C12.5268 10.6714 12.5205 10.6714 12.5143 10.6714C12.5081 10.6714 12.5018 10.6714 12.4956 10.6714C12.4894 10.6714 12.4832 10.6714 12.477 10.6714C12.4707 10.6714 12.4645 10.6714 12.4583 10.6714C12.4521 10.6714 12.446 10.6714 12.4398 10.6714C12.4336 10.6714 12.4274 10.6714 12.4212 10.6714C12.415 10.6714 12.4089 10.6714 12.4027 10.6714C12.3965 10.6714 12.3904 10.6714 12.3842 10.6714C12.3781 10.6714 12.3719 10.6714 12.3658 10.6714C12.3597 10.6714 12.3535 10.6714 12.3474 10.6714C12.3413 10.6714 12.3351 10.6714 12.329 10.6714C12.3229 10.6714 12.3168 10.6714 12.3107 10.6714C12.3046 10.6714 12.2985 10.6714 12.2924 10.6714C12.2863 10.6714 12.2802 10.6714 12.2741 10.6714C12.268 10.6714 12.262 10.6714 12.2559 10.6714C12.2498 10.6714 12.2437 10.6714 12.2377 10.6714C12.2316 10.6714 12.2256 10.6714 12.2195 10.6714C12.2135 10.6714 12.2074 10.6714 12.2014 10.6714C12.1954 10.6714 12.1893 10.6714 12.1833 10.6714C12.1773 10.6714 12.1713 10.6714 12.1652 10.6714C12.1592 10.6714 12.1532 10.6714 12.1472 10.6714C12.1412 10.6714 12.1352 10.6714 12.1292 10.6714C12.1232 10.6714 12.1173 10.6714 12.1113 10.6714C12.1053 10.6714 12.0993 10.6714 12.0934 10.6714C12.0874 10.6714 12.0814 10.6714 12.0755 10.6714C12.0695 10.6714 12.0636 10.6714 12.0576 10.6714C12.0517 10.6714 12.0457 10.6714 12.0398 10.6714C12.0339 10.6714 12.0279 10.6714 12.022 10.6714C12.0161 10.6714 12.0102 10.6714 12.0043 10.6714C11.9983 10.6714 11.9924 10.6714 11.9865 10.6714C11.9806 10.6714 11.9747 10.6714 11.9689 10.6714C11.963 10.6714 11.9571 10.6714 11.9512 10.6714C11.9453 10.6714 11.9395 10.6714 11.9336 10.6714C11.9277 10.6714 11.9219 10.6714 11.916 10.6714C11.9102 10.6714 11.9043 10.6714 11.8985 10.6714C11.8926 10.6714 11.8868 10.6714 11.881 10.6714C11.8751 10.6714 11.8693 10.6714 11.8635 10.6714C11.8577 10.6714 11.8518 10.6714 11.846 10.6714C11.8402 10.6714 11.8344 10.6714 11.8286 10.6714C11.8228 10.6714 11.817 10.6714 11.8113 10.6714C11.8055 10.6714 11.7997 10.6714 11.7939 10.6714C11.7881 10.6714 11.7824 10.6714 11.7766 10.6714C11.7708 10.6714 11.7651 10.6714 11.7593 10.6714C11.7536 10.6714 11.7478 10.6714 11.7421 10.6714C11.7363 10.6714 11.7306 10.6714 11.7249 10.6714C11.7192 10.6714 11.7134 10.6714 11.7077 10.6714C11.702 10.6714 11.6963 10.6714 11.6906 10.6714C11.6849 10.6714 11.6792 10.6714 11.6735 10.6714C11.6678 10.6714 11.6621 10.6714 11.6564 10.6714C11.6507 10.6714 11.645 10.6714 11.6394 10.6714C11.6337 10.6714 11.628 10.6714 11.6224 10.6714C11.6167 10.6714 11.611 10.6714 11.6054 10.6714C11.5997 10.6714 11.5941 10.6714 11.5884 10.6714C11.5828 10.6714 11.5772 10.6714 11.5715 10.6714C11.5659 10.6714 11.5603 10.6714 11.5547 10.6714C11.5491 10.6714 11.5434 10.6714 11.5378 10.6714C11.5322 10.6714 11.5266 10.6714 11.521 10.6714C11.5154 10.6714 11.5098 10.6714 11.5043 10.6714C11.4987 10.6714 11.4931 10.6714 11.4875 10.6714C11.4819 10.6714 11.4764 10.6714 11.4708 10.6714C11.4653 10.6714 11.4597 10.6714 11.4541 10.6714C11.4486 10.6714 11.4431 10.6714 11.4375 10.6714C11.432 10.6714 11.4264 10.6714 11.4209 10.6714C11.4154 10.6714 11.4099 10.6714 11.4043 10.6714C11.3988 10.6714 11.3933 10.6714 11.3878 10.6714C11.3823 10.6714 11.3768 10.6714 11.3713 10.6714C11.3658 10.6714 11.3603 10.6714 11.3548 10.6714C11.3493 10.6714 11.3439 10.6714 11.3384 10.6714C11.3329 10.6714 11.3274 10.6714 11.322 10.6714C11.3165 10.6714 11.3111 10.6714 11.3056 10.6714C11.3002 10.6714 11.2947 10.6714 11.2893 10.6714C11.2838 10.6714 11.2784 10.6714 11.273 10.6714C11.2675 10.6714 11.2621 10.6714 11.2567 10.6714C11.2513 10.6714 11.2459 10.6714 11.2405 10.6714C11.2351 10.6714 11.2296 10.6714 11.2243 10.6714C11.2189 10.6714 11.2135 10.6714 11.2081 10.6714C11.2027 10.6714 11.1973 10.6714 11.1919 10.6714C11.1866 10.6714 11.1812 10.6714 11.1758 10.6714C11.1705 10.6714 11.1651 10.6714 11.1598 10.6714C11.1544 10.6714 11.1491 10.6714 11.1437 10.6714C11.1384 10.6714 11.133 10.6714 11.1277 10.6714C11.1224 10.6714 11.117 10.6714 11.1117 10.6714C11.1064 10.6714 11.1011 10.6714 11.0958 10.6714C11.0905 10.6714 11.0852 10.6714 11.0799 10.6714C11.0746 10.6714 11.0693 10.6714 11.064 10.6714C11.0587 10.6714 11.0534 10.6714 11.0481 10.6714C11.0429 10.6714 11.0376 10.6714 11.0323 10.6714C11.0271 10.6714 11.0218 10.6714 11.0166 10.6714C11.0113 10.6714 11.006 10.6714 11.0008 10.6714C10.9956 10.6714 10.9903 10.6714 10.9851 10.6714C10.9799 10.6714 10.9746 10.6714 10.9694 10.6714C10.9642 10.6714 10.959 10.6714 10.9538 10.6714C10.9485 10.6714 10.9433 10.6714 10.9381 10.6714C10.9329 10.6714 10.9277 10.6714 10.9225 10.6714C10.9174 10.6714 10.9122 10.6714 10.907 10.6714C10.9018 10.6714 10.8966 10.6714 10.8915 10.6714C10.8863 10.6714 10.8811 10.6714 10.876 10.6714C10.8708 10.6714 10.8657 10.6714 10.8605 10.6714C10.8554 10.6714 10.8502 10.6714 10.8451 10.6714C10.84 10.6714 10.8348 10.6714 10.8297 10.6714C10.8246 10.6714 10.8195 10.6714 10.8143 10.6714C10.8092 10.6714 10.8041 10.6714 10.799 10.6714C10.7939 10.6714 10.7888 10.6714 10.7837 10.6714C10.7786 10.6714 10.7735 10.6714 10.7685 10.6714C10.7634 10.6714 10.7583 10.6714 10.7532 10.6714C10.7482 10.6714 10.7431 10.6714 10.738 10.6714C10.733 10.6714 10.7279 10.6714 10.7229 10.6714C10.7178 10.6714 10.7128 10.6714 10.7077 10.6714C10.7027 10.6714 10.6977 10.6714 10.6926 10.6714C10.6876 10.6714 10.6826 10.6714 10.6776 10.6714C10.6725 10.6714 10.6675 10.6714 10.6625 10.6714C10.6575 10.6714 10.6525 10.6714 10.6475 10.6714C10.6425 10.6714 10.6375 10.6714 10.6325 10.6714C10.6275 10.6714 10.6226 10.6714 10.6176 10.6714C10.6126 10.6714 10.6076 10.6714 10.6027 10.6714C10.5977 10.6714 10.5927 10.6714 10.5878 10.6714C10.5828 10.6714 10.5779 10.6714 10.5729 10.6714C10.568 10.6714 10.5631 10.6714 10.5581 10.6714C10.5532 10.6714 10.5483 10.6714 10.5433 10.6714C10.5384 10.6714 10.5335 10.6714 10.5286 10.6714C10.5237 10.6714 10.5188 10.6714 10.5139 10.6714C10.509 10.6714 10.5041 10.6714 10.4992 10.6714C10.4943 10.6714 10.4894 10.6714 10.4845 10.6714C10.4796 10.6714 10.4748 10.6714 10.4699 10.6714C10.465 10.6714 10.4602 10.6714 10.4553 10.6714C10.4504 10.6714 10.4456 10.6714 10.4407 10.6714C10.4359 10.6714 10.431 10.6714 10.4262 10.6714C10.4214 10.6714 10.4165 10.6714 10.4117 10.6714C10.4069 10.6714 10.402 10.6714 10.3972 10.6714C10.3924 10.6714 10.3876 10.6714 10.3828 10.6714C10.378 10.6714 10.3732 10.6714 10.3684 10.6714C10.3636 10.6714 10.3588 10.6714 10.354 10.6714C10.3492 10.6714 10.3444 10.6714 10.3397 10.6714C10.3349 10.6714 10.3301 10.6714 10.3253 10.6714C10.3206 10.6714 10.3158 10.6714 10.3111 10.6714C10.3063 10.6714 10.3016 10.6714 10.2968 10.6714C10.2921 10.6714 10.2873 10.6714 10.2826 10.6714C10.2779 10.6714 10.2731 10.6714 10.2684 10.6714C10.2637 10.6714 10.259 10.6714 10.2542 10.6714C10.2495 10.6714 10.2448 10.6714 10.2401 10.6714C10.2354 10.6714 10.2307 10.6714 10.226 10.6714C10.2213 10.6714 10.2166 10.6714 10.212 10.6714C10.2073 10.6714 10.2026 10.6714 10.1979 10.6714C10.1932 10.6714 10.1886 10.6714 10.1839 10.6714C10.1793 10.6714 10.1746 10.6714 10.1699 10.6714C10.1653 10.6714 10.1606 10.6714 10.156 10.6714C10.1514 10.6714 10.1467 10.6714 10.1421 10.6714C10.1375 10.6714 10.1328 10.6714 10.1282 10.6714C10.1236 10.6714 10.119 10.6714 10.1144 10.6714C10.1098 10.6714 10.1052 10.6714 10.1006 10.6714C10.096 10.6714 10.0914 10.6714 10.0868 10.6714C10.0822 10.6714 10.0776 10.6714 10.073 10.6714C10.0684 10.6714 10.0639 10.6714 10.0593 10.6714C10.0547 10.6714 10.0501 10.6714 10.0456 10.6714C10.041 10.6714 10.0365 10.6714 10.0319 10.6714C10.0274 10.6714 10.0228 10.6714 10.0183 10.6714C10.0138 10.6714 10.0092 10.6714 10.0047 10.6714C10.0002 10.6714 9.99564 10.6714 9.99112 10.6714C9.9866 10.6714 9.98209 10.6714 9.97758 10.6714C9.97307 10.6714 9.96857 10.6714 9.96407 10.6714C9.95957 10.6714 9.95508 10.6714 9.95059 10.6714C9.9461 10.6714 9.94162 10.6714 9.93714 10.6714C9.93266 10.6714 9.92819 10.6714 9.92372 10.6714C9.91925 10.6714 9.91479 10.6714 9.91033 10.6714C9.90587 10.6714 9.90142 10.6714 9.89697 10.6714C9.89252 10.6714 9.88808 10.6714 9.88364 10.6714C9.87921 10.6714 9.87477 10.6714 9.87035 10.6714C9.86592 10.6714 9.8615 10.6714 9.85708 10.6714C9.85266 10.6714 9.84825 10.6714 9.84384 10.6714C9.83944 10.6714 9.83503 10.6714 9.83064 10.6714C9.82624 10.6714 9.82185 10.6714 9.81746 10.6714C9.81307 10.6714 9.80869 10.6714 9.80431 10.6714C9.79994 10.6714 9.79556 10.6714 9.7912 10.6714C9.78683 10.6714 9.78247 10.6714 9.77811 10.6714C9.77375 10.6714 9.7694 10.6714 9.76505 10.6714C9.76071 10.6714 9.75637 10.6714 9.75203 10.6714C9.74769 10.6714 9.74336 10.6714 9.73903 10.6714C9.73471 10.6714 9.73038 10.6714 9.72607 10.6714C9.72175 10.6714 9.71744 10.6714 9.71313 10.6714C9.70882 10.6714 9.70452 10.6714 9.70023 10.6714C9.69593 10.6714 9.69164 10.6714 9.68735 10.6714C9.68306 10.6714 9.67878 10.6714 9.6745 10.6714C9.67023 10.6714 9.66595 10.6714 9.66169 10.6714C9.65742 10.6714 9.65316 10.6714 9.6489 10.6714C9.64464 10.6714 9.64039 10.6714 9.63614 10.6714C9.6319 10.6714 9.62766 10.6714 9.62342 10.6714C9.61918 10.6714 9.61495 10.6714 9.61072 10.6714C9.60649 10.6714 9.60227 10.6714 9.59805 10.6714C9.59384 10.6714 9.58962 10.6714 9.58542 10.6714C9.58121 10.6714 9.57701 10.6714 9.57281 10.6714C9.56861 10.6714 9.56442 10.6714 9.56023 10.6714C9.55604 10.6714 9.55186 10.6714 9.54768 10.6714C9.5435 10.6714 9.53933 10.6714 9.53516 10.6714C9.531 10.6714 9.52683 10.6714 9.52267 10.6714C9.51852 10.6714 9.51436 10.6714 9.51021 10.6714C9.50607 10.6714 9.50192 10.6714 9.49778 10.6714C9.49365 10.6714 9.48951 10.6714 9.48538 10.6714C9.48126 10.6714 9.47713 10.6714 9.47301 10.6714C9.46889 10.6714 9.46478 10.6714 9.46067 10.6714C9.45656 10.6714 9.45246 10.6714 9.44836 10.6714C9.44426 10.6714 9.44017 10.6714 9.43608 10.6714C9.43199 10.6714 9.4279 10.6714 9.42382 10.6714C9.41974 10.6714 9.41567 10.6714 9.4116 10.6714C9.40753 10.6714 9.40346 10.6714 9.3994 10.6714C9.39534 10.6714 9.39129 10.6714 9.38724 10.6714C9.38319 10.6714 9.37914 10.6714 9.3751 10.6714C9.37106 10.6714 9.36702 10.6714 9.36299 10.6714C9.35896 10.6714 9.35494 10.6714 9.35091 10.6714C9.34689 10.6714 9.34288 10.6714 9.33887 10.6714C9.33485 10.6714 9.33085 10.6714 9.32685 10.6714C9.32284 10.6714 9.31885 10.6714 9.31486 10.6714C9.31086 10.6714 9.30688 10.6714 9.30289 10.6714C9.29891 10.6714 9.29493 10.6714 9.29096 10.6714C9.28699 10.6714 9.28302 10.6714 9.27906 10.6714C9.27509 10.6714 9.27114 10.6714 9.26718 10.6714C9.26323 10.6714 9.25928 10.6714 9.25534 10.6714C9.25139 10.6714 9.24745 10.6714 9.24352 10.6714C9.23959 10.6714 9.23566 10.6714 9.23173 10.6714C9.22781 10.6714 9.22389 10.6714 9.21997 10.6714C9.21606 10.6714 9.21215 10.6714 9.20824 10.6714C9.20434 10.6714 9.20044 10.6714 9.19654 10.6714C9.19265 10.6714 9.18876 10.6714 9.18487 10.6714C9.18098 10.6714 9.1771 10.6714 9.17323 10.6714C9.16935 10.6714 9.16548 10.6714 9.16161 10.6714C9.15774 10.6714 9.15388 10.6714 9.15002 10.6714C9.14617 10.6714 9.14231 10.6714 9.13847 10.6714C9.13462 10.6714 9.13078 10.6714 9.12694 10.6714C9.1231 10.6714 9.11927 10.6714 9.11544 10.6714C9.11161 10.6714 9.10778 10.6714 9.10396 10.6714C9.10015 10.6714 9.09633 10.6714 9.09252 10.6714C9.08871 10.6714 9.08491 10.6714 9.08111 10.6714C9.07731 10.6714 9.07351 10.6714 9.06972 10.6714C9.06593 10.6714 9.06214 10.6714 9.05836 10.6714C9.05458 10.6714 9.0508 10.6714 9.04703 10.6714C9.04326 10.6714 9.03949 10.6714 9.03573 10.6714C9.03197 10.6714 9.02821 10.6714 9.02446 10.6714C9.02071 10.6714 9.01696 10.6714 9.01322 10.6714C9.00947 10.6714 9.00573 10.6714 9.002 10.6714C8.99827 10.6714 8.99454 10.6714 8.99081 10.6714C8.98709 10.6714 8.98337 10.6714 8.97965 10.6714C8.97594 10.6714 8.97223 10.6714 8.96852 10.6714C8.96482 10.6714 8.96112 10.6714 8.95742 10.6714C8.95372 10.6714 8.95003 10.6714 8.94634 10.6714C8.94266 10.6714 8.93898 10.6714 8.9353 10.6714C8.93162 10.6714 8.92795 10.6714 8.92428 10.6714C8.92061 10.6714 8.91695 10.6714 8.91329 10.6714C8.90963 10.6714 8.90598 10.6714 8.90233 10.6714C8.89868 10.6714 8.89503 10.6714 8.89139 10.6714C8.88775 10.6714 8.88412 10.6714 8.88049 10.6714C8.87686 10.6714 8.87323 10.6714 8.86961 10.6714C8.86599 10.6714 8.86237 10.6714 8.85876 10.6714C8.85515 10.6714 8.85154 10.6714 8.84794 10.6714C8.84433 10.6714 8.84074 10.6714 8.83714 10.6714C8.83355 10.6714 8.82996 10.6714 8.82638 10.6714C8.82279 10.6714 8.81921 10.6714 8.81564 10.6714C8.81206 10.6714 8.80849 10.6714 8.80493 10.6714C8.80136 10.6714 8.7978 10.6714 8.79424 10.6714C8.79069 10.6714 8.78714 10.6714 8.78359 10.6714C8.78004 10.6714 8.7765 10.6714 8.77296 10.6714C8.76942 10.6714 8.76589 10.6714 8.76236 10.6714C8.75883 10.6714 8.75531 10.6714 8.75179 10.6714C8.74827 10.6714 8.74476 10.6714 8.74125 10.6714C8.73774 10.6714 8.73423 10.6714 8.73073 10.6714C8.72723 10.6714 8.72373 10.6714 8.72024 10.6714V11.6714ZM18.3281 11.6714C23.5886 11.6714 25.2449 11.6714 27.9624 11.6714L27.9624 10.6714C25.2449 10.6714 23.5886 10.6714 18.3281 10.6714V11.6714ZM8.23707 12.1564C8.22859 11.896 8.44117 11.6714 8.72024 11.6714V10.6714C7.89475 10.6714 7.2101 11.3454 7.23761 12.189L8.23707 12.1564ZM29.4469 12.1891C29.4746 11.3441 28.7866 10.6714 27.9624 10.6714L27.9624 11.6714C28.2429 11.6714 28.4559 11.8973 28.4475 12.1563L29.4469 12.1891Z" fill="url(#paint1_linear_188_1777)" style="mix-blend-mode:overlay" mask="url(#path-2-inside-1_188_1777)"/>
<path d="M10.4566 24.3892C11.7228 24.2999 13.2021 24.9419 14.5405 25.7632C16.8804 27.1989 19.9856 27.1989 22.3255 25.7632C23.6639 24.9419 25.1432 24.2999 26.4094 24.3892C33.113 24.8618 36.1584 33.2526 36.1584 38.5694C33.9231 40.9142 25.5682 43.0008 18.433 43.0008C11.2978 43.0008 2.94292 40.9142 0.707642 38.5694C0.707811 33.2526 3.753 24.8618 10.4566 24.3892Z" fill="url(#paint2_linear_188_1777)"/>
<mask id="path-5-inside-2_188_1777" fill="white">
<path d="M10.4566 24.3892C11.7228 24.2999 13.2021 24.9419 14.5405 25.7632C16.8804 27.1989 19.9856 27.1989 22.3255 25.7632C23.6639 24.9419 25.1432 24.2999 26.4094 24.3892C33.113 24.8618 36.1584 33.2526 36.1584 38.5694C33.9231 40.9142 25.5682 43.0008 18.433 43.0008C11.2978 43.0008 2.94292 40.9142 0.707642 38.5694C0.707811 33.2526 3.753 24.8618 10.4566 24.3892Z"/>
</mask>
<path d="M10.4566 24.3892L10.4214 23.8904L10.4566 24.3892ZM26.4094 24.3892L26.3742 24.8879L26.4094 24.3892ZM36.1584 38.5694L36.5202 38.9145L36.6584 38.7696V38.5694H36.1584ZM0.707642 38.5694L0.207642 38.5694L0.207635 38.7696L0.345743 38.9145L0.707642 38.5694ZM14.5405 25.7632L14.279 26.1893L14.5405 25.7632ZM22.3255 25.7632L22.064 25.337L22.3255 25.7632ZM1.20764 38.5695C1.20772 35.9905 1.94997 32.6496 3.50331 29.9093C5.05568 27.1706 7.36828 25.1081 10.4917 24.8879L10.4214 23.8904C6.8413 24.1428 4.27952 26.512 2.63335 29.4161C0.988158 32.3185 0.207729 35.8315 0.207642 38.5694L1.20764 38.5695ZM35.7965 38.2244C35.3067 38.7382 34.4382 39.2761 33.2499 39.7924C32.0725 40.304 30.6231 40.7766 29.0119 41.1793C25.7886 41.9849 21.9569 42.5008 18.433 42.5008V43.5008C22.0443 43.5008 25.9576 42.9734 29.2544 42.1495C30.9032 41.7374 32.4076 41.2487 33.6484 40.7096C34.8783 40.1752 35.8924 39.573 36.5202 38.9145L35.7965 38.2244ZM18.433 42.5008C14.9091 42.5008 11.0773 41.9849 7.85407 41.1793C6.24284 40.7766 4.79345 40.304 3.6161 39.7924C2.42779 39.2761 1.55933 38.7382 1.06954 38.2244L0.345743 38.9145C0.973589 39.573 1.98772 40.1752 3.21759 40.7096C4.45843 41.2487 5.96281 41.7374 7.61161 42.1495C10.9084 42.9734 14.8216 43.5008 18.433 43.5008V42.5008ZM10.4917 24.8879C11.5915 24.8104 12.9546 25.3767 14.279 26.1893L14.802 25.337C13.4496 24.5072 11.8541 23.7894 10.4214 23.8904L10.4917 24.8879ZM22.587 26.1893C23.9114 25.3767 25.2745 24.8104 26.3742 24.8879L26.4446 23.8904C25.0119 23.7894 23.4164 24.5072 22.064 25.337L22.587 26.1893ZM26.3742 24.8879C29.4977 25.1081 31.8103 27.1706 33.3627 29.9093C34.9161 32.6496 35.6584 35.9905 35.6584 38.5694H36.6584C36.6584 35.8315 35.8779 32.3185 34.2327 29.4161C32.5865 26.512 30.0247 24.1428 26.4446 23.8904L26.3742 24.8879ZM14.279 26.1893C16.7793 27.7235 20.0867 27.7235 22.587 26.1893L22.064 25.337C19.8845 26.6743 16.9814 26.6743 14.802 25.337L14.279 26.1893Z" fill="url(#paint3_linear_188_1777)" style="mix-blend-mode:overlay" mask="url(#path-5-inside-2_188_1777)"/>
<path fill-rule="evenodd" clip-rule="evenodd" d="M9.72156 10.1211H26.7341C27.8386 10.1211 28.7341 9.22566 28.7341 8.12109V5.1714C28.7341 4.35359 28.2362 3.61818 27.4768 3.31445L20.0848 0.357617C18.8927 -0.119205 17.5629 -0.119206 16.3709 0.357617L8.97878 3.31445C8.21946 3.61818 7.72156 4.35359 7.72156 5.1714V8.12109C7.72156 9.22566 8.61699 10.1211 9.72156 10.1211ZM17.3683 4.00824V2.57557C17.3683 2.10082 17.7531 1.71597 18.2279 1.71597C18.7026 1.71597 19.0875 2.10082 19.0875 2.57557V4.00824H20.5202C20.9949 4.00824 21.3798 4.3931 21.3798 4.86784C21.3798 5.34259 20.9949 5.72745 20.5202 5.72745H19.0875V7.16012C19.0875 7.63486 18.7026 8.01972 18.2279 8.01972C17.7531 8.01972 17.3683 7.63486 17.3683 7.16012V5.72745H15.9356C15.4609 5.72745 15.076 5.34259 15.076 4.86784C15.076 4.3931 15.4609 4.00824 15.9356 4.00824H17.3683Z" fill="url(#paint4_linear_188_1777)"/>
<mask id="path-8-inside-3_188_1777" fill="white">
<path fill-rule="evenodd" clip-rule="evenodd" d="M9.72156 10.1211H26.7341C27.8386 10.1211 28.7341 9.22566 28.7341 8.12109V5.1714C28.7341 4.35359 28.2362 3.61818 27.4768 3.31445L20.0848 0.357617C18.8927 -0.119205 17.5629 -0.119206 16.3709 0.357617L8.97878 3.31445C8.21946 3.61818 7.72156 4.35359 7.72156 5.1714V8.12109C7.72156 9.22566 8.61699 10.1211 9.72156 10.1211ZM17.3683 4.00824V2.57557C17.3683 2.10082 17.7531 1.71597 18.2279 1.71597C18.7026 1.71597 19.0875 2.10082 19.0875 2.57557V4.00824H20.5202C20.9949 4.00824 21.3798 4.3931 21.3798 4.86784C21.3798 5.34259 20.9949 5.72745 20.5202 5.72745H19.0875V7.16012C19.0875 7.63486 18.7026 8.01972 18.2279 8.01972C17.7531 8.01972 17.3683 7.63486 17.3683 7.16012V5.72745H15.9356C15.4609 5.72745 15.076 5.34259 15.076 4.86784C15.076 4.3931 15.4609 4.00824 15.9356 4.00824H17.3683Z"/>
</mask>
<path d="M27.4768 3.31445L27.6625 2.85021V2.85021L27.4768 3.31445ZM20.0848 0.357617L19.8991 0.821855V0.821855L20.0848 0.357617ZM16.3709 0.357617L16.1852 -0.106622V-0.106622L16.3709 0.357617ZM8.97878 3.31445L8.79308 2.85021H8.79308L8.97878 3.31445ZM17.3683 4.00824V4.50824H17.8683V4.00824H17.3683ZM19.0875 4.00824H18.5875V4.50824H19.0875V4.00824ZM19.0875 5.72745V5.22745H18.5875V5.72745H19.0875ZM17.3683 5.72745H17.8683V5.22745H17.3683V5.72745ZM26.7341 9.62109H9.72156V10.6211H26.7341V9.62109ZM28.2341 8.12109C28.2341 8.94952 27.5625 9.62109 26.7341 9.62109V10.6211C28.1148 10.6211 29.2341 9.5018 29.2341 8.12109H28.2341ZM28.2341 5.1714V8.12109H29.2341V5.1714H28.2341ZM27.2912 3.77869C27.8606 4.00648 28.2341 4.55805 28.2341 5.1714H29.2341C29.2341 4.14914 28.6117 3.22987 27.6625 2.85021L27.2912 3.77869ZM19.8991 0.821855L27.2912 3.77869L27.6625 2.85021L20.2705 -0.106622L19.8991 0.821855ZM16.5566 0.821855C17.6294 0.392715 18.8262 0.392715 19.8991 0.821855L20.2705 -0.106622C18.9592 -0.631126 17.4964 -0.631126 16.1852 -0.106622L16.5566 0.821855ZM9.16447 3.77869L16.5566 0.821855L16.1852 -0.106622L8.79308 2.85021L9.16447 3.77869ZM8.22156 5.1714C8.22156 4.55805 8.59498 4.00648 9.16447 3.77869L8.79308 2.85021C7.84393 3.22987 7.22156 4.14914 7.22156 5.1714H8.22156ZM8.22156 8.12109V5.1714H7.22156V8.12109H8.22156ZM9.72156 9.62109C8.89313 9.62109 8.22156 8.94952 8.22156 8.12109H7.22156C7.22156 9.5018 8.34085 10.6211 9.72156 10.6211V9.62109ZM16.8683 2.57557V4.00824H17.8683V2.57557H16.8683ZM18.2279 1.21597C17.477 1.21597 16.8683 1.82468 16.8683 2.57557H17.8683C17.8683 2.37697 18.0293 2.21597 18.2279 2.21597V1.21597ZM19.5875 2.57557C19.5875 1.82468 18.9788 1.21597 18.2279 1.21597V2.21597C18.4265 2.21597 18.5875 2.37697 18.5875 2.57557H19.5875ZM19.5875 4.00824V2.57557H18.5875V4.00824H19.5875ZM20.5202 3.50824H19.0875V4.50824H20.5202V3.50824ZM21.8798 4.86784C21.8798 4.11696 21.271 3.50824 20.5202 3.50824V4.50824C20.7188 4.50824 20.8798 4.66924 20.8798 4.86784H21.8798ZM20.5202 6.22745C21.271 6.22745 21.8798 5.61873 21.8798 4.86784H20.8798C20.8798 5.06645 20.7188 5.22745 20.5202 5.22745V6.22745ZM19.0875 6.22745H20.5202V5.22745H19.0875V6.22745ZM19.5875 7.16012V5.72745H18.5875V7.16012H19.5875ZM18.2279 8.51972C18.9788 8.51972 19.5875 7.91101 19.5875 7.16012H18.5875C18.5875 7.35872 18.4265 7.51972 18.2279 7.51972V8.51972ZM16.8683 7.16012C16.8683 7.91101 17.477 8.51972 18.2279 8.51972V7.51972C18.0293 7.51972 17.8683 7.35872 17.8683 7.16012H16.8683ZM16.8683 5.72745V7.16012H17.8683V5.72745H16.8683ZM15.9356 6.22745H17.3683V5.22745H15.9356V6.22745ZM14.576 4.86784C14.576 5.61873 15.1847 6.22745 15.9356 6.22745V5.22745C15.737 5.22745 15.576 5.06645 15.576 4.86784H14.576ZM15.9356 3.50824C15.1847 3.50824 14.576 4.11696 14.576 4.86784H15.576C15.576 4.66924 15.737 4.50824 15.9356 4.50824V3.50824ZM17.3683 3.50824H15.9356V4.50824H17.3683V3.50824Z" fill="url(#paint5_linear_188_1777)" style="mix-blend-mode:overlay" mask="url(#path-8-inside-3_188_1777)"/>
<path d="M46.4801 20.2821C47.8027 19.6943 49.2924 20.6624 49.2924 22.1098V31.9812C49.2924 33.4285 47.8027 34.3966 46.4801 33.8088L35.3747 28.8731C33.7911 28.1693 33.7911 25.9217 35.3747 25.2179L46.4801 20.2821Z" fill="url(#paint6_linear_188_1777)"/>
<g filter="url(#filter0_bd_188_1777)">
<path d="M41.9251 17.7383C43.0297 17.7383 43.9251 18.6337 43.9251 19.7383V33.2673C43.9251 34.3718 43.0297 35.2673 41.9251 35.2673H18.8804C17.7758 35.2673 16.8804 34.3718 16.8804 33.2673V19.7383C16.8804 18.6337 17.7758 17.7383 18.8804 17.7383H41.9251Z" fill="url(#paint7_radial_188_1777)" fill-opacity="0.5" shape-rendering="crispEdges"/>
</g>
<circle cx="20.4924" cy="21.5362" r="1.50249" fill="white"/>
<path d="M41.9251 17.9883C42.8916 17.9883 43.6751 18.7718 43.6751 19.7383V33.2673C43.6751 34.2338 42.8916 35.0173 41.9251 35.0173H18.8804C17.9139 35.0173 17.1304 34.2338 17.1304 33.2673V19.7383C17.1304 18.7718 17.9139 17.9883 18.8804 17.9883H41.9251Z" stroke="white" stroke-width="0.5"/>
<defs>
<filter id="filter0_bd_188_1777" x="12.8804" y="15.7383" width="35.0447" height="27.5288" filterUnits="userSpaceOnUse" color-interpolation-filters="sRGB">
<feFlood flood-opacity="0" result="BackgroundImageFix"/>
<feGaussianBlur in="BackgroundImage" stdDeviation="1"/>
<feComposite in2="SourceAlpha" operator="in" result="effect1_backgroundBlur_188_1777"/>
<feColorMatrix in="SourceAlpha" type="matrix" values="0 0 0 0 0 0 0 0 0 0 0 0 0 0 0 0 0 0 127 0" result="hardAlpha"/>
<feOffset dy="4"/>
<feGaussianBlur stdDeviation="2"/>
<feComposite in2="hardAlpha" operator="out"/>
<feColorMatrix type="matrix" values="0 0 0 0 0 0 0 0 0 0 0 0 0 0 0 0 0 0 0.35 0"/>
<feBlend mode="normal" in2="effect1_backgroundBlur_188_1777" result="effect2_dropShadow_188_1777"/>
<feBlend mode="normal" in="SourceGraphic" in2="effect2_dropShadow_188_1777" result="shape"/>
</filter>
<linearGradient id="paint0_linear_188_1777" x1="12.5092" y1="14.5984" x2="21.2299" y2="21.1693" gradientUnits="userSpaceOnUse">
<stop stop-color="#4AC0AF"/>
<stop offset="1" stop-color="#0069A7"/>
</linearGradient>
<linearGradient id="paint1_linear_188_1777" x1="18.3422" y1="12.6172" x2="25.087" y2="23.0536" gradientUnits="userSpaceOnUse">
<stop stop-color="white" stop-opacity="0.51"/>
<stop offset="1" stop-opacity="0.44"/>
</linearGradient>
<linearGradient id="paint2_linear_188_1777" x1="8.68405" y1="29.2082" x2="21.3839" y2="40.5621" gradientUnits="userSpaceOnUse">
<stop stop-color="#4AC0AF"/>
<stop offset="1" stop-color="#0069A7"/>
</linearGradient>
<linearGradient id="paint3_linear_188_1777" x1="18.433" y1="26.4174" x2="27.1876" y2="42.4902" gradientUnits="userSpaceOnUse">
<stop stop-color="white" stop-opacity="0.51"/>
<stop offset="1" stop-opacity="0.44"/>
</linearGradient>
<linearGradient id="paint4_linear_188_1777" x1="12.4494" y1="2.62399" x2="19.3937" y2="9.39376" gradientUnits="userSpaceOnUse">
<stop stop-color="#4AC0AF"/>
<stop offset="1" stop-color="#0069A7"/>
</linearGradient>
<linearGradient id="paint5_linear_188_1777" x1="18.2278" y1="1.10699" x2="22.7566" y2="10.1734" gradientUnits="userSpaceOnUse">
<stop stop-color="white" stop-opacity="0.51"/>
<stop offset="1" stop-opacity="0.44"/>
</linearGradient>
<linearGradient id="paint6_linear_188_1777" x1="40.0199" y1="23.7229" x2="44.1377" y2="33.5338" gradientUnits="userSpaceOnUse">
<stop stop-color="#4AC0AF"/>
<stop offset="1" stop-color="#0069A7"/>
</linearGradient>
<radialGradient id="paint7_radial_188_1777" cx="0" cy="0" r="1" gradientUnits="userSpaceOnUse" gradientTransform="translate(13.6328 13.2763) rotate(74.426) scale(29.1469 19.6398)">
<stop stop-color="white"/>
<stop offset="1" stop-color="#C9C5C5"/>
</radialGradient>
</defs>
</svg>
