<svg width="14" height="19" viewBox="0 0 14 19" fill="none" xmlns="http://www.w3.org/2000/svg">
<path d="M12.25 2.375H9.33333C9.33333 1.07617 8.27604 0 7 0C5.6875 0 4.66667 1.07617 4.66667 2.375H1.75C0.765625 2.375 0 3.19141 0 4.15625V17.2188C0 18.2207 0.765625 19 1.75 19H12.25C13.1979 19 14 18.2207 14 17.2188V4.15625C14 3.19141 13.1979 2.375 12.25 2.375ZM7 1.48438C7.47396 1.48438 7.875 1.89258 7.875 2.375C7.875 2.89453 7.47396 3.26562 7 3.26562C6.48958 3.26562 6.125 2.89453 6.125 2.375C6.125 1.89258 6.48958 1.48438 7 1.48438ZM12.25 16.9961C12.25 17.1445 12.1406 17.2188 12.0312 17.2188H1.96875C1.82292 17.2188 1.75 17.1445 1.75 16.9961V4.37891C1.75 4.26758 1.82292 4.15625 1.96875 4.15625H3.5V5.49219C3.5 5.75195 3.68229 5.9375 3.9375 5.9375H10.0625C10.2812 5.9375 10.5 5.75195 10.5 5.49219V4.15625H12.0312C12.1406 4.15625 12.25 4.26758 12.25 4.37891V16.9961ZM10.2083 10.6875H8.16667V8.60938C8.16667 8.46094 8.02083 8.3125 7.875 8.3125H6.125C5.94271 8.3125 5.83333 8.46094 5.83333 8.60938V10.6875H3.79167C3.60938 10.6875 3.5 10.8359 3.5 10.9844V12.7656C3.5 12.9512 3.60938 13.0625 3.79167 13.0625H5.83333V15.1406C5.83333 15.3262 5.94271 15.4375 6.125 15.4375H7.875C8.02083 15.4375 8.16667 15.3262 8.16667 15.1406V13.0625H10.2083C10.3542 13.0625 10.5 12.9512 10.5 12.7656V10.9844C10.5 10.8359 10.3542 10.6875 10.2083 10.6875Z" fill="#5B5C5B"/>
</svg>
