<svg width="18" height="16" viewBox="0 0 18 16" fill="none" xmlns="http://www.w3.org/2000/svg">
<path d="M16.4853 0H1.83513C1.01106 0 0.370117 0.6875 0.370117 1.5V14.5C0.370117 15.3438 1.01106 16 1.83513 16H16.4853C17.2788 16 17.9503 15.3438 17.9503 14.5V1.5C17.9503 0.6875 17.2788 0 16.4853 0ZM15.9969 14H2.32347V2H15.9969V14Z" fill="#055293"/>
<path d="M3.30029 3H15.0204V13H3.30029V9.00002H5.92511L6.74918 10.75C6.93231 11.0938 7.45117 11.0938 7.63429 10.75L9.16035 7.62501L9.83182 9.00002H12.5787C12.8229 9.00002 13.0671 8.78127 13.0671 8.50002C13.0671 8.25002 12.8229 8.00002 12.5787 8.00002H10.4117L9.58765 6.28126C9.40452 5.93751 8.88566 5.93751 8.70253 6.28126L7.207 9.40627L6.59658 8.15627C6.53553 8.06252 6.44397 8.00002 6.35241 8.00002H3.30029V3Z" fill="#3CA70D"/>
</svg>
