<svg width="44" height="45" viewBox="0 0 44 45" fill="none" xmlns="http://www.w3.org/2000/svg">
<mask id="mask0_27154_8479" style="mask-type:alpha" maskUnits="userSpaceOnUse" x="11" y="16" width="22" height="22">
<rect x="11.3023" y="16.4183" width="21.3953" height="21.3953" rx="2" fill="#D9D9D9"/>
</mask>
<g mask="url(#mask0_27154_8479)">
<g filter="url(#filter0_f_27154_8479)">
<path d="M41.4709 32.5363L31.9769 19.1416C30.5601 16.8693 28.1987 15.4341 25.6012 15.4341H18.399C15.8015 15.4341 13.4401 16.8693 12.0233 19.1416L2.52931 32.5363C1.46669 34.3302 2.05703 36.7221 3.82806 37.9181C5.59909 38.9944 7.8424 38.3965 9.02309 36.6025L13.5582 31.1011C13.5582 33.4903 13.5582 37.2411 13.5582 39.5348C13.5582 40.6394 14.4536 41.5347 15.5582 41.5347H28.3239C29.4285 41.5347 30.3239 40.6394 30.3239 39.5348C30.3239 37.2411 30.3239 33.4903 30.3239 31.1011L34.859 36.6025C35.6855 37.7985 36.9843 38.3965 38.283 38.3965C38.8734 38.3965 39.5818 38.2769 40.1721 37.9181C41.9432 36.7221 42.5335 34.3302 41.4709 32.5363ZM22.0591 13.9461C25.1289 13.9461 27.7264 11.4346 27.7264 8.20548C27.7264 5.09599 25.1289 2.46489 22.0591 2.46489C18.8713 2.46489 16.3918 5.09599 16.3918 8.20548C16.3918 11.4346 18.8713 13.9461 22.0591 13.9461Z" fill="url(#paint0_linear_27154_8479)"/>
</g>
</g>
<path fill-rule="evenodd" clip-rule="evenodd" d="M32.6977 20.1586L41.4708 32.5362C42.5334 34.3302 41.9431 36.7221 40.172 37.918C39.5817 38.2768 38.8733 38.3964 38.2829 38.3964C36.9842 38.3964 35.6854 37.7984 34.8589 36.6025L32.6977 33.9807V20.1586ZM29.2021 16.4183C28.1172 15.7864 26.8881 15.4341 25.6011 15.4341H18.3989C17.1119 15.4341 15.8828 15.7864 14.7979 16.4183H29.2021ZM11.3023 20.1586V33.8375L9.02299 36.6025C7.8423 38.3964 5.59899 38.9944 3.82796 37.918C2.05693 36.7221 1.46659 34.3302 2.52921 32.5362L11.3023 20.1586ZM13.5581 37.8137V39.6767C13.5581 40.7042 14.391 41.5346 15.4186 41.5346H28.4634C29.4909 41.5346 30.3238 40.7042 30.3238 39.6767V37.8137H13.5581ZM27.7263 8.20543C27.7263 11.4345 25.1288 13.946 22.059 13.946C18.8712 13.946 16.3917 11.4345 16.3917 8.20543C16.3917 5.09595 18.8712 2.46484 22.059 2.46484C25.1288 2.46484 27.7263 5.09595 27.7263 8.20543Z" fill="url(#paint1_linear_27154_8479)"/>
<g filter="url(#filter1_dd_27154_8479)">
<rect x="11.3023" y="16.4183" width="21.3953" height="21.3953" rx="2" fill="#D9D9D9" fill-opacity="0.5"/>
<rect x="11.5523" y="16.6683" width="20.8953" height="20.8953" rx="1.75" stroke="url(#paint2_linear_27154_8479)" stroke-width="0.5"/>
<path fill-rule="evenodd" clip-rule="evenodd" d="M21.9998 19.2091C22.4879 19.2091 22.8835 19.6011 22.8835 20.0846V24.7966L26.767 26.6508C27.2035 26.8671 27.3805 27.3929 27.1622 27.8254C26.9439 28.2579 26.4131 28.4332 25.9766 28.217L21.9998 26.3166L17.9298 28.217C17.4932 28.4332 16.9624 28.2579 16.7441 27.8254C16.5259 27.3929 16.7028 26.8671 17.1393 26.6508L21.1161 24.7966V20.0846C21.1161 19.6011 21.5117 19.2091 21.9998 19.2091ZM16.6979 23.5867C15.7216 23.5867 14.93 24.3708 14.93 25.3377V31.4663C14.93 31.9498 15.3257 32.3418 15.8138 32.3418H16.6975C18.1617 32.3418 19.3486 31.1659 19.3486 29.7153V28.6494C19.3486 28.1659 19.7443 27.7739 20.2324 27.7739C20.7204 27.7739 21.1161 28.1659 21.1161 28.6494V29.7153C21.1161 32.1329 19.1378 34.0929 16.6975 34.0929H15.8138C14.3496 34.0929 13.1626 32.9169 13.1626 31.4663V25.3377C13.1626 23.4034 14.7459 21.8357 16.6979 21.8357C18.2332 21.8357 19.5216 22.1783 20.2324 23.5865C20.4506 24.019 20.2737 24.5449 19.8372 24.7611C19.4006 24.9774 18.8698 24.8021 18.6515 24.3696C18.0231 23.5865 17.5574 23.5867 16.6979 23.5867Z" fill="white"/>
<path fill-rule="evenodd" clip-rule="evenodd" d="M27.3017 23.5865C28.278 23.5865 29.0696 24.3707 29.0696 25.3375V31.4661C29.0696 31.9497 28.6739 32.3416 28.1859 32.3416H27.3021C25.8379 32.3416 24.651 31.1657 24.651 29.7151V28.6493C24.651 28.1657 24.2553 27.7738 23.7672 27.7738C23.2792 27.7738 22.8835 28.1657 22.8835 28.6493V29.7151C22.8835 32.1328 24.8618 34.0927 27.3021 34.0927H28.1859C29.6501 34.0927 30.837 32.9167 30.837 31.4661V25.3375C30.837 23.4032 29.2538 21.8355 27.3017 21.8355C25.7664 21.8355 24.478 22.1781 23.7672 23.5863C23.549 24.0188 23.7259 24.5447 24.1625 24.761C24.599 24.9772 25.1298 24.8019 25.3481 24.3694C25.9766 23.5863 26.4422 23.5865 27.3017 23.5865Z" fill="white"/>
</g>
<defs>
<filter id="filter0_f_27154_8479" x="9.91821e-05" y="0.46489" width="44" height="43.0698" filterUnits="userSpaceOnUse" color-interpolation-filters="sRGB">
<feFlood flood-opacity="0" result="BackgroundImageFix"/>
<feBlend mode="normal" in="SourceGraphic" in2="BackgroundImageFix" result="shape"/>
<feGaussianBlur stdDeviation="1" result="effect1_foregroundBlur_27154_8479"/>
</filter>
<filter id="filter1_dd_27154_8479" x="7.30235" y="12.4183" width="29.3953" height="32.3953" filterUnits="userSpaceOnUse" color-interpolation-filters="sRGB">
<feFlood flood-opacity="0" result="BackgroundImageFix"/>
<feColorMatrix in="SourceAlpha" type="matrix" values="0 0 0 0 0 0 0 0 0 0 0 0 0 0 0 0 0 0 127 0" result="hardAlpha"/>
<feOffset dy="3"/>
<feGaussianBlur stdDeviation="2"/>
<feComposite in2="hardAlpha" operator="out"/>
<feColorMatrix type="matrix" values="0 0 0 0 0 0 0 0 0 0 0 0 0 0 0 0 0 0 0.25 0"/>
<feBlend mode="normal" in2="BackgroundImageFix" result="effect1_dropShadow_27154_8479"/>
<feColorMatrix in="SourceAlpha" type="matrix" values="0 0 0 0 0 0 0 0 0 0 0 0 0 0 0 0 0 0 127 0" result="hardAlpha"/>
<feOffset dy="-2"/>
<feGaussianBlur stdDeviation="1"/>
<feComposite in2="hardAlpha" operator="out"/>
<feColorMatrix type="matrix" values="0 0 0 0 0 0 0 0 0 0 0 0 0 0 0 0 0 0 0.15 0"/>
<feBlend mode="normal" in2="effect1_dropShadow_27154_8479" result="effect2_dropShadow_27154_8479"/>
<feBlend mode="normal" in="SourceGraphic" in2="effect2_dropShadow_27154_8479" result="shape"/>
</filter>
<linearGradient id="paint0_linear_27154_8479" x1="8.0001" y1="12.5773" x2="40.0702" y2="44.3865" gradientUnits="userSpaceOnUse">
<stop stop-color="#49C3B1"/>
<stop offset="1" stop-color="#0071A3"/>
</linearGradient>
<linearGradient id="paint1_linear_27154_8479" x1="8" y1="12.5772" x2="40.0701" y2="44.3864" gradientUnits="userSpaceOnUse">
<stop stop-color="#49C3B1"/>
<stop offset="1" stop-color="#0071A3"/>
</linearGradient>
<linearGradient id="paint2_linear_27154_8479" x1="13.7475" y1="18.6316" x2="31.3715" y2="32.6383" gradientUnits="userSpaceOnUse">
<stop stop-color="#F8F4F4"/>
<stop offset="1" stop-color="#E0DDDD"/>
</linearGradient>
</defs>
</svg>
