<svg width="30" height="24" viewBox="0 0 30 24" fill="none" xmlns="http://www.w3.org/2000/svg">
<path d="M30 11.2268V12.7295C30 13.1521 29.625 13.4809 29.25 13.4809H23.3906L20.8125 18.6465C20.5312 19.21 19.9688 19.5388 19.3125 19.4448C18.7031 19.3979 18.1875 18.9752 18.0469 18.3648L15.1406 7.84562L11.9531 22.826C11.8125 23.4834 11.2031 24 10.5469 24H10.5C9.79688 24 9.23438 23.5774 9.04688 22.9199L6.32812 13.4809H0.75C0.328125 13.4809 0 13.1521 0 12.7765V11.2268C0 10.8511 0.328125 10.5224 0.75 10.5224H7.5C8.15625 10.5224 8.71875 10.992 8.90625 11.6494L10.2656 16.3455L13.5 1.17724C13.6406 0.472837 14.25 0.00323341 14.9531 0.00323341C15.6094 -0.043727 16.2656 0.425877 16.4062 1.08332L19.875 13.8096L21.1406 11.3677C21.375 10.8041 21.8906 10.4754 22.5 10.4754H29.25C29.625 10.4754 30 10.8511 30 11.2268Z" fill="url(#paint0_linear_33309_12432)"/>
<defs>
<linearGradient id="paint0_linear_33309_12432" x1="6.75" y1="6.22222" x2="21.1321" y2="14.6639" gradientUnits="userSpaceOnUse">
<stop stop-color="#4AC0AF"/>
<stop offset="1" stop-color="#0069A7"/>
<stop offset="1" stop-color="#0069A7"/>
</linearGradient>
</defs>
</svg>
