<svg width="24" height="24" viewBox="0 0 24 24" fill="none" xmlns="http://www.w3.org/2000/svg">
<path d="M12 12.3125C12.8594 12.3125 13.5625 11.6484 13.5625 10.75C13.5625 10.3594 13.3672 9.96875 13.1328 9.69531L14.4219 6.64844C14.5781 6.33594 14.4219 5.94531 14.1094 5.82812C13.7969 5.67188 13.4062 5.82812 13.2891 6.14062L11.9609 9.1875C11.1016 9.22656 10.4375 9.89062 10.4375 10.75C10.4375 11.6484 11.1016 12.3125 12 12.3125ZM19.1875 4.5H17.2734C16.0234 2.97656 14.1094 2 12 2C9.85156 2 7.9375 2.97656 6.6875 4.5H4.8125C3.25 4.5 2 5.78906 2 7.3125V19.1875C2 20.75 3.25 22 4.8125 22H19.1875C20.7109 22 22 20.75 22 19.1875V7.3125C22 5.78906 20.7109 4.5 19.1875 4.5ZM12 3.875C14.7344 3.875 17 6.14062 17 8.875C17 11.6484 14.7344 13.875 12 13.875C9.22656 13.875 7 11.6484 7 8.875C7 6.14062 9.22656 3.875 12 3.875ZM20.125 19.1875C20.125 19.7344 19.6953 20.125 19.1875 20.125H4.8125C4.26562 20.125 3.875 19.7344 3.875 19.1875V7.3125C3.875 6.80469 4.26562 6.375 4.8125 6.375H5.59375C5.28125 7.15625 5.125 8.01562 5.125 8.875C5.125 12.7031 8.17188 15.75 12 15.75C15.7891 15.75 18.875 12.7031 18.875 8.875C18.875 8.01562 18.6797 7.15625 18.3672 6.375H19.1875C19.6953 6.375 20.125 6.80469 20.125 7.3125V19.1875Z" fill="#757575"/>
</svg>
