<svg width="24" height="24" viewBox="0 0 24 24" fill="none" xmlns="http://www.w3.org/2000/svg">
<path d="M5 6.2C5 5.53726 5.53726 5 6.2 5H9.8C10.4627 5 11 5.53726 11 6.2V9.8C11 10.4627 10.4627 11 9.8 11H6.2C5.53726 11 5 10.4627 5 9.8V6.2Z" fill="white"/>
<path d="M5 14.2C5 13.5373 5.53726 13 6.2 13H9.8C10.4627 13 11 13.5373 11 14.2V17.8C11 18.4627 10.4627 19 9.8 19H6.2C5.53726 19 5 18.4627 5 17.8V14.2Z" fill="white"/>
<path d="M13 6.2C13 5.53726 13.5373 5 14.2 5H17.8C18.4627 5 19 5.53726 19 6.2V9.8C19 10.4627 18.4627 11 17.8 11H14.2C13.5373 11 13 10.4627 13 9.8V6.2Z" fill="white"/>
<path d="M13 14.2C13 13.5373 13.5373 13 14.2 13H17.8C18.4627 13 19 13.5373 19 14.2V17.8C19 18.4627 18.4627 19 17.8 19H14.2C13.5373 19 13 18.4627 13 17.8V14.2Z" fill="white"/>
<path fill-rule="evenodd" clip-rule="evenodd" d="M21.3077 13C21.69 13 22 13.31 22 13.6923V19.2308C22 20.7602 20.7602 22 19.2308 22H13.6923C13.31 22 13 21.69 13 21.3077C13 20.9253 13.31 20.6154 13.6923 20.6154H19.2308C19.9955 20.6154 20.6154 19.9955 20.6154 19.2308V13.6923C20.6154 13.31 20.9253 13 21.3077 13Z" fill="white"/>
<path fill-rule="evenodd" clip-rule="evenodd" d="M2.69231 11C2.30996 11 2 10.69 2 10.3077L2 4.76923C2 3.23983 3.23983 2 4.76923 2L10.3077 2C10.69 2 11 2.30996 11 2.69231C11 3.07466 10.69 3.38462 10.3077 3.38462L4.76923 3.38462C4.00453 3.38462 3.38462 4.00453 3.38462 4.76923L3.38461 10.3077C3.38461 10.69 3.07466 11 2.69231 11Z" fill="white"/>
<path fill-rule="evenodd" clip-rule="evenodd" d="M13 2.69231C13 2.30996 13.31 2 13.6923 2L19.2308 2C20.7602 2 22 3.23983 22 4.76923L22 10.3077C22 10.69 21.69 11 21.3077 11C20.9253 11 20.6154 10.69 20.6154 10.3077L20.6154 4.76923C20.6154 4.00453 19.9955 3.38462 19.2308 3.38462L13.6923 3.38462C13.31 3.38462 13 3.07466 13 2.69231Z" fill="white"/>
<path fill-rule="evenodd" clip-rule="evenodd" d="M11 21.3077C11 21.69 10.69 22 10.3077 22L4.76923 22C3.23983 22 2 20.7602 2 19.2308L2 13.6923C2 13.31 2.30996 13 2.69231 13C3.07466 13 3.38462 13.31 3.38462 13.6923L3.38462 19.2308C3.38462 19.9955 4.00453 20.6154 4.76923 20.6154L10.3077 20.6154C10.69 20.6154 11 20.9253 11 21.3077Z" fill="white"/>
</svg>
