<svg width="20" height="16" viewBox="0 0 20 16" fill="none" xmlns="http://www.w3.org/2000/svg">
<path d="M5.25 7H9.25V8H6.25C6.09375 8 6 8.125 6 8.25V8.75C6 8.90625 6.09375 9 6.25 9H9.25V10H7.5C6.65625 10 6 10.6875 6 11.5C6 12.3438 6.65625 13 7.5 13C8.3125 13 9 12.3438 9 11.5H11C11 12.3438 11.6562 13 12.5 13C13.3125 13 14 12.3438 14 11.5C14 10.6875 13.3125 10 12.5 10H10.75V9H13.75C13.875 9 14 8.90625 14 8.75V8.25C14 8.125 13.875 8 13.75 8H10.75V7H14.75C14.875 7 15 6.90625 15 6.75V6.25C15 6.125 14.875 6 14.75 6H10.75V5H13.75C13.875 5 14 4.90625 14 4.75V4.25C14 4.125 13.875 4 13.75 4H10.75V2.75C10.75 2.625 10.625 2.5 10.5 2.5H9.5C9.34375 2.5 9.25 2.625 9.25 2.75V4H6.25C6.09375 4 6 4.125 6 4.25V4.75C6 4.90625 6.09375 5 6.25 5H9.25V6H5.25C5.09375 6 5 6.125 5 6.25V6.75C5 6.90625 5.09375 7 5.25 7ZM7 11.5C7 10.8438 8 10.8438 8 11.5C8 12.1875 7 12.1875 7 11.5ZM13 11.5C13 12.1875 12 12.1875 12 11.5C12 10.8438 13 10.8438 13 11.5ZM19.75 1.5C19.875 1.5 20 1.40625 20 1.25V0.25C20 0.125 19.875 0 19.75 0H0.25C0.09375 0 0 0.125 0 0.25V1.25C0 1.40625 0.09375 1.5 0.25 1.5H2V14.5H0.25C0.09375 14.5 0 14.625 0 14.75V15.75C0 15.9062 0.09375 16 0.25 16H19.75C19.875 16 20 15.9062 20 15.75V14.75C20 14.625 19.875 14.5 19.75 14.5H18V1.5H19.75ZM16.5 14.5H3.5V1.5H16.5V14.5Z" fill="#4E9D2D"/>
</svg>
