<svg width="18" height="17" viewBox="0 0 18 17" fill="none" xmlns="http://www.w3.org/2000/svg">
<path d="M10.75 4.6701C10.75 4.26385 10.4062 3.9201 10 3.9201C9.5625 3.9201 9.25 4.26385 9.25 4.6701C9.25 5.1076 9.5625 5.4201 10 5.4201C10.4062 5.4201 10.75 5.1076 10.75 4.6701ZM10 11.7326C10.1562 11.7326 10.3125 11.6701 10.4062 11.5451C11.5 10.2951 14.375 6.8576 14.375 4.9826C14.375 2.63885 12.4062 0.732605 10 0.732605C7.5625 0.732605 5.59375 2.63885 5.59375 4.9826C5.59375 6.8576 8.46875 10.2951 9.5625 11.5451C9.6875 11.6701 9.84375 11.7326 10 11.7326ZM10 2.2326C11.5938 2.2326 12.875 3.4826 12.875 4.9826C12.875 5.63885 11.9062 7.45135 10 9.7326C8.09375 7.45135 7.09375 5.63885 7.09375 4.9826C7.09375 3.4826 8.375 2.2326 10 2.2326ZM17.5 5.7326C17.4375 5.7326 17.375 5.76385 17.3125 5.7951L15 6.63885C14.75 7.26385 14.375 7.95135 13.9375 8.63885L16.5 7.6701V13.7014L12.5 15.1076V10.6389C12.0625 11.1701 11.625 11.7014 11.1562 12.2326C11.0938 12.2639 11.0312 12.3264 11 12.3889V14.9201L7 13.5139V9.9826C6.40625 9.2326 5.90625 8.45135 5.5 7.70135V13.3264H5.46875L1.5 14.7951V8.76385L5.34375 7.4201C5.09375 6.95135 4.90625 6.4826 4.78125 6.0451L0.625 7.4826C0.25 7.63885 0 8.01385 0 8.4201V16.2326C0 16.5451 0.21875 16.7326 0.5 16.7326C0.5625 16.7326 0.625 16.7326 0.6875 16.7014L6 14.7326L11.375 16.6389C11.7812 16.7639 12.2188 16.7951 12.625 16.6389L17.3438 14.9826C17.75 14.8576 18 14.4826 18 14.0764V6.2326C18 5.95135 17.75 5.7326 17.5 5.7326Z" fill="#999999"/>
</svg>
