<svg width="19" height="17" viewBox="0 0 19 17" fill="none" xmlns="http://www.w3.org/2000/svg">
<path d="M9.48828 0.5C7.30078 0.5 5.55078 2.28125 5.55078 4.4375C5.55078 6.21875 8.11328 9.40625 9.08203 10.5938C9.30078 10.8125 9.64453 10.8125 9.86328 10.5938C10.832 9.40625 13.4258 6.21875 13.4258 4.4375C13.4258 2.28125 11.6445 0.5 9.48828 0.5ZM9.48828 5.75C8.73828 5.75 8.17578 5.1875 8.17578 4.4375C8.17578 3.71875 8.73828 3.125 9.48828 3.125C10.207 3.125 10.8008 3.71875 10.8008 4.4375C10.8008 5.1875 10.207 5.75 9.48828 5.75ZM1.11328 7.25C0.769531 7.40625 0.488281 7.8125 0.488281 8.1875V16C0.488281 16.375 0.832031 16.625 1.14453 16.4688L5.48828 14.5V7.21875C5.20703 6.71875 4.95703 6.25 4.80078 5.78125L1.11328 7.25ZM9.48828 11.75C9.01953 11.75 8.61328 11.5625 8.33203 11.2188C7.70703 10.5 7.05078 9.6875 6.48828 8.8125V14.5L12.4883 16.5V8.8125C11.8945 9.6875 11.2383 10.5 10.6133 11.2188C10.332 11.5625 9.92578 11.75 9.48828 11.75ZM17.8008 5.5625L13.4883 7.5V16.5L17.832 14.7812C18.1758 14.625 18.4883 14.2188 18.4883 13.8438V6.03125C18.4883 5.65625 18.1133 5.40625 17.8008 5.5625Z" fill="#5B5C5B"/>
</svg>
