<svg width="125" height="204" viewBox="0 0 125 204" fill="none" xmlns="http://www.w3.org/2000/svg">
<g id="Group 23982">
<path id="Vector" d="M26.6521 38.9741L36.9858 36.3652L33.1854 18.7033L22.8517 21.3122L26.6521 38.9741Z" fill="#B9D3ED"/>
<path id="Vector_2" d="M55.4909 91.1681C44.0832 85.0651 37.1421 77.3572 33.3326 72.3154C30.6616 68.7838 16.5229 50.089 22.1411 38.9027C23.4979 36.2044 25.6711 34.6065 26.969 33.6533C31.5698 30.2759 38.8689 28.2376 44.0799 31.2659C50.3988 34.9377 48.6196 42.5436 55.9297 51.7901C59.7719 56.6502 64.1861 59.5064 67.5 61.217C63.497 71.2007 59.4939 81.1844 55.4909 91.1681Z" fill="#B9D3ED"/>
<path id="Vector_3" d="M28.7821 31.5055C25.5413 32.0296 23.6042 33.3304 22.4197 34.4619C19.3972 37.3514 19.6532 40.7661 16.879 46.1631C15.5985 48.6503 14.0046 50.9429 12.1409 52.9784C10.0929 45.439 9.0703 37.6307 9.10386 29.7876L2.30065 30.0344C1.82693 33.8123 1.61818 37.622 1.6761 41.4324C1.80079 49.5519 1.99116 62.0322 6.77823 64.5139C11.5453 66.9815 21.1717 59.6962 30 46.9281C29.5948 41.7876 29.1888 36.6468 28.7821 31.5055Z" fill="#B9D3ED"/>
<path id="Vector_4" d="M30.2335 29.7124C25.5001 30.6396 20.2051 22.7588 19.3433 17.6317C19.1108 16.402 19.1078 15.1345 19.3345 13.9035C19.5611 12.6725 20.0129 11.5029 20.6633 10.4633C21.3136 9.42364 22.1495 8.5349 23.1218 7.84922C24.0941 7.16354 25.1832 6.69473 26.3254 6.47028C27.4675 6.24584 28.6396 6.2703 29.7728 6.54221C30.9061 6.81412 31.9777 7.32802 32.9248 8.05374C33.8719 8.77947 34.6755 9.7024 35.2882 10.7684C35.901 11.8344 36.3107 13.022 36.4933 14.2615C37.3551 19.3886 34.9627 28.7806 30.2335 29.7124Z" fill="#B9D3ED"/>
<path id="Vector_5" d="M31.6601 17.5219C31.6746 17.6096 31.6649 17.7 31.6321 17.7816C31.5993 17.8633 31.545 17.9327 31.4759 17.981C31.4068 18.0293 31.326 18.0543 31.2438 18.053C31.1616 18.0517 31.0816 18.024 31.0138 17.9735C30.9461 17.9231 30.8936 17.852 30.8631 17.7693C30.8326 17.6866 30.8253 17.5959 30.8423 17.5088C30.8592 17.4216 30.8996 17.3418 30.9583 17.2795C31.017 17.2171 31.0914 17.175 31.1722 17.1583C31.2263 17.1472 31.2819 17.1478 31.3358 17.1601C31.3897 17.1723 31.4408 17.1961 31.4862 17.2299C31.5315 17.2637 31.5703 17.3069 31.6001 17.357C31.63 17.4072 31.6504 17.4632 31.6601 17.5219Z" fill="#4EABD5"/>
<path id="Vector_6" d="M32.498 13.9646C32.545 14.1393 31.7419 13.9237 30.7546 14.1393C30.1826 14.2648 29.4382 14.5487 29.2658 14.4013C28.9249 14.1175 29.5009 13.7408 30.4176 13.5825C31.4206 13.4133 32.4432 13.7927 32.498 13.9646Z" fill="#4EABD5"/>
<path id="Vector_7" d="M25.825 15.3466C25.775 15.7764 24.8695 15.808 24.252 16.0166C23.1712 16.377 22.5954 17.4579 22.5078 17.066C22.4202 16.6741 23.0794 15.0937 24.1351 14.6323C25.1032 14.2151 25.9252 14.4995 25.825 15.3466Z" fill="#4EABD5"/>
<path id="Vector_8" d="M29.7177 22.5568C29.6833 22.5618 29.6482 22.5648 29.6127 22.566C29.5261 22.5665 29.4416 22.5505 29.3728 22.5204C29.304 22.4904 29.2549 22.448 29.2332 22.4002C29.2171 22.3771 27.9978 19.848 27.5053 18.3139C27.4884 18.2556 27.5125 18.1958 27.5723 18.1476C27.6322 18.0993 27.723 18.0665 27.825 18.0562C27.927 18.0459 28.0321 18.0589 28.1173 18.0925C28.2026 18.1261 28.2612 18.1775 28.2804 18.2356C28.7649 19.7466 29.9761 22.2573 29.9842 22.2804C29.9987 22.3085 30.0033 22.338 29.9977 22.3671C29.9922 22.3963 29.9765 22.4245 29.9518 22.4502C29.927 22.4759 29.8936 22.4986 29.8534 22.5168C29.8132 22.5351 29.7671 22.5487 29.7177 22.5568Z" fill="#4EABD5"/>
<path id="Vector_9" d="M35.8333 30.5831C35.8333 30.5831 42.8218 28.5216 46.6065 31.0357C50.3912 33.5498 60.8333 47.2456 60.8333 47.2456L51.734 58.6726L40.6037 39.5858L35.8333 30.5831Z" fill="#B9D3ED"/>
<path id="Vector_10" d="M45.7937 30.0557C45.5477 32.18 44.2115 35.0406 39.1807 38.024C40.2793 34.7196 39.9569 33.3365 39.3927 32.704C38.625 31.8448 37.3524 32.3169 36.1392 31.0659C35.4563 30.3579 35.2018 29.5318 35.0194 28.9275C34.031 25.6657 35.469 21.6863 36.4616 20.6855C36.8915 20.2802 37.2105 19.7486 37.3821 19.1514C37.3906 19.1136 37.5136 18.8304 37.4754 18.6038C37.1997 16.9233 34.9473 16.4985 33.9929 13.8833C33.7002 13.0855 33.8953 13.0147 33.6366 12.6796C32.6058 11.3484 30.0819 13.1941 27.2399 12.5616C26.2557 12.3444 24.8856 11.7496 23.401 10.0125C24.0839 14.0627 23.4392 16.1775 22.6587 17.367C22.4084 17.7494 21.9545 18.3206 21.7551 19.2647C21.4116 20.8744 22.0606 22.333 22.472 23.2157C25.0298 28.6868 26.1836 28.9181 26.523 31.099C26.9132 33.5631 25.2886 35.8195 24.0203 37.5897C22.8909 39.1617 21.5157 40.4938 19.9608 41.5219C19.1846 40.5778 18.2302 39.1238 17.8654 37.1743C17.3521 34.46 18.3956 33.0155 18.8198 30.5325C19.9015 24.259 15.0658 22.418 15.9396 15.5827C16.0753 14.5347 16.5377 11.2634 18.9258 8.7049C19.8466 7.72376 20.9339 6.95669 22.1242 6.4485C23.5087 5.22007 25.1236 4.35374 26.8496 3.91358C31.4563 2.76178 35.1 5.22589 35.889 5.74042C36.4956 6.13694 37.9463 7.26514 39.2485 9.25248C41.3907 12.5191 40.8816 14.7613 42.1627 19.6187C43.9315 26.2888 46.1585 26.8505 45.7937 30.0557Z" fill="#4EABD5"/>
<path id="Vector_11" d="M21.5222 23.1626C20.428 23.8527 18.8561 23.3363 18.0165 22.0095C17.1769 20.6828 17.3824 19.0488 18.4765 18.3587C19.5706 17.6687 21.1426 18.1851 21.9821 19.5119C22.8217 20.8386 22.6207 22.4726 21.5222 23.1626Z" fill="#B9D3ED"/>
<path id="Vector_12" d="M39.0882 17.6043C38.7539 19.0767 37.3928 20.0711 36.0552 19.8193C34.7177 19.5675 33.9076 18.1677 34.242 16.6953C34.5764 15.2229 35.9375 14.2328 37.275 14.4803C38.6126 14.7278 39.432 16.1319 39.0882 17.6043Z" fill="#B9D3ED"/>
<path id="Vector_13" d="M20.8058 21.5464C20.7855 21.5811 20.7565 21.61 20.7217 21.6305C20.6868 21.651 20.6472 21.6623 20.6066 21.6633C20.5647 21.6641 20.5235 21.6527 20.4881 21.6306C20.3791 21.5698 19.8101 21.2284 19.7532 20.7888C19.7153 20.4614 19.9429 20.2182 20.161 20.0779C19.995 19.4934 19.6205 18.8199 19.1795 18.5908C19.0999 18.5448 19.0105 18.5175 18.9185 18.511C18.8264 18.5045 18.734 18.519 18.6485 18.5534C18.6202 18.5643 18.5899 18.5696 18.5595 18.5689C18.529 18.5683 18.499 18.5617 18.4711 18.5496C18.4433 18.5374 18.4181 18.52 18.3971 18.4982C18.3761 18.4765 18.3597 18.4509 18.3487 18.4228C18.3378 18.3948 18.3326 18.3649 18.3334 18.3349C18.3342 18.3049 18.3411 18.2753 18.3535 18.2479C18.3659 18.2204 18.3837 18.1957 18.4059 18.1751C18.4281 18.1545 18.4541 18.1384 18.4826 18.1278C18.6299 18.0694 18.7887 18.0446 18.9472 18.0551C19.1056 18.0656 19.2596 18.1112 19.3976 18.1886C20.0377 18.5253 20.4976 19.4372 20.654 20.1434C20.6658 20.1954 20.6584 20.2498 20.6332 20.2969C20.608 20.3441 20.5667 20.3808 20.5166 20.4006C20.4502 20.4334 20.1942 20.5737 20.2131 20.7327C20.2321 20.8917 20.5213 21.1255 20.7204 21.2377C20.7717 21.2689 20.8091 21.3181 20.825 21.3754C20.8408 21.4328 20.834 21.4939 20.8058 21.5464Z" fill="#4EABD5"/>
<path id="Vector_14" d="M37.5 15.549C37.4973 15.6019 37.4831 15.6513 37.4602 15.6881C37.4372 15.7248 37.407 15.7464 37.3752 15.7487H37.3702C37.3224 15.7472 37.275 15.7641 37.2317 15.798C37.1884 15.8319 37.1504 15.8819 37.1205 15.9442C36.9483 16.2728 36.8883 16.9467 36.9158 17.4833C37.0506 17.5332 37.2104 17.6621 37.2503 17.9491C37.3053 18.3318 37.0906 18.7935 37.0481 18.885C37.0361 18.9071 37.0215 18.9248 37.0051 18.937C36.9888 18.9492 36.9711 18.9556 36.9532 18.9558C36.9249 18.9571 36.8973 18.9408 36.8758 18.91C36.8636 18.8932 36.8536 18.8724 36.8462 18.8491C36.8388 18.8257 36.8343 18.8001 36.8329 18.7738C36.8315 18.7475 36.8333 18.721 36.8381 18.6958C36.8429 18.6706 36.8506 18.6473 36.8609 18.6271C36.9333 18.4774 37.0356 18.1862 37.0157 18.049C36.9957 17.9117 36.8409 17.8701 36.801 17.8701C36.7728 17.8669 36.7461 17.8479 36.7252 17.8162C36.7043 17.7844 36.6906 17.7419 36.6861 17.6954C36.6312 17.059 36.6861 16.1563 36.9358 15.678C36.9911 15.5736 37.0591 15.49 37.1353 15.4326C37.2115 15.3753 37.2941 15.3455 37.3777 15.3452C37.4099 15.3463 37.4407 15.3681 37.4635 15.4061C37.4863 15.4441 37.4994 15.4953 37.5 15.549Z" fill="#4EABD5"/>
<path id="Vector_15" d="M34.9859 25.5548C34.6939 26.3233 33.7873 28.2121 31.704 29.1952C30.8568 29.5901 29.9304 29.7926 28.9931 29.7876C27.3369 29.7876 25.6371 29.178 24.2424 28.0146C24.2211 27.9973 24.2035 27.9759 24.1907 27.9518C24.1778 27.9276 24.1699 27.9012 24.1675 27.8741C24.165 27.8469 24.1681 27.8196 24.1765 27.7936C24.1849 27.7676 24.1984 27.7435 24.2163 27.7227C24.2533 27.681 24.3053 27.6551 24.3614 27.6503C24.4174 27.6455 24.4732 27.6622 24.517 27.697C26.5698 29.4141 29.32 29.852 31.5166 28.8174C33.4648 27.903 34.3103 26.1344 34.5849 25.4089C34.5948 25.3831 34.6098 25.3596 34.629 25.3396C34.6482 25.3196 34.6712 25.3035 34.6967 25.2924C34.7223 25.2812 34.7498 25.2751 34.7777 25.2745C34.8057 25.2738 34.8335 25.2787 34.8595 25.2887C34.8859 25.2974 34.9103 25.3113 34.9311 25.3296C34.952 25.3479 34.9688 25.3702 34.9806 25.3951C34.9924 25.42 34.999 25.447 34.9999 25.4744C35.0008 25.5019 34.996 25.5292 34.9859 25.5548Z" fill="#4EABD5"/>
<path id="Vector_16" d="M31.522 24.9761C31.1824 25.7707 30.325 26.1926 29.5462 26.1763C28.6308 26.1517 27.7982 25.5209 27.5 24.5952C28.082 24.8306 28.7187 24.9015 29.3391 24.8C30.2094 24.6416 30.9882 24.1667 31.522 23.4688C31.7149 23.9531 31.7149 24.4917 31.522 24.9761Z" fill="#4EABD5"/>
<path id="Vector_17" d="M0.657418 19.5954C1.2311 19.4249 1.2418 20.5213 1.46977 21.4649C1.59943 22.0124 1.81333 22.5352 2.10338 23.0134C2.03917 22.226 1.95461 20.9041 2.01883 20.0111C2.12051 18.599 2.42126 17.9897 3.05167 18.0733C3.51617 18.136 3.50547 18.6661 3.61678 20.2321C3.67458 21.0437 3.79231 21.9444 4.09627 22.7901C4.13801 22.2733 4.15621 21.2582 4.23755 20.2299C4.35528 18.7409 4.34458 17.1792 5.25219 17.1506C5.78734 17.1308 5.8751 18.4219 5.96393 19.8659C6.02815 20.8788 6.0913 21.9444 6.30643 22.6153C6.36101 21.7795 6.45734 21.3935 6.50015 20.7853C6.59434 19.4282 6.57079 17.596 7.63252 17.7445C8.25757 17.8292 8.16767 20.0309 8.2747 21.7344C8.37531 23.274 8.34962 24.7378 8.34962 24.7378C8.34962 24.7378 9.30646 21.5672 10.4164 22.083C11.2416 22.4657 10.5833 23.3719 10.6058 24.3529C10.6168 24.7842 10.6007 25.2159 10.5576 25.6451C10.4581 26.6008 10.3564 27.1286 10.0054 28.0436C9.65431 28.9586 8.3721 30.4048 6.46055 30.6566C4.02777 30.9767 1.79728 28.9465 1.04486 27.1935C0.771939 26.5568 0.120128 24.4552 0.0163099 22.6164C-0.0703839 21.0481 0.195051 19.7317 0.657418 19.5954Z" fill="#B9D3ED"/>
<path id="Vector_18" d="M10.6754 27.9158C10.6754 27.9158 9.8136 29.5249 9.55746 32.5126C8.32882 33.628 3.40017 33.6168 3.32853 32.8848C3.2569 32.1527 3.25364 30.9518 3.09409 30.0377C2.91718 29.0257 2.19107 28.1857 1.68311 26.951C1.18276 22.8221 12.2752 24.0241 10.6754 27.9158Z" fill="#B9D3ED"/>
<path id="Vector_19" d="M116.999 17.9576L106.607 15.6367L103.226 33.3985L113.618 35.7193L116.999 17.9576Z" fill="#B9D3ED"/>
<path id="Vector_20" d="M85.922 88.4601C97.0761 82.0894 103.768 74.2496 107.426 69.1405C109.988 65.564 123.554 46.6261 117.726 35.6846C116.32 33.0447 114.13 31.5191 112.823 30.6097C108.187 27.3819 100.91 25.5677 95.8198 28.7166C89.6498 32.5334 91.5893 40.0256 84.5674 49.4051C80.8764 54.3327 76.5735 57.2978 73.3333 59.0767L85.922 88.4601Z" fill="#B9D3ED"/>
<path id="Vector_21" d="M120.729 14.5576C119.986 19.7402 114.866 27.8269 110.104 27.0238C105.341 26.2208 102.714 16.8267 103.458 11.6441C103.635 10.4123 104.033 9.23032 104.63 8.1656C105.226 7.10089 106.011 6.17432 106.937 5.43879C107.864 4.70326 108.915 4.17317 110.03 3.8788C111.145 3.58444 112.303 3.53155 113.437 3.72315C114.571 3.91476 115.659 4.34711 116.64 4.99553C117.62 5.64394 118.473 6.49571 119.15 7.50221C119.827 8.50872 120.315 9.65024 120.586 10.8616C120.857 12.073 120.906 13.3304 120.729 14.5623V14.5576Z" fill="#B9D3ED"/>
<path id="Vector_22" d="M109.162 14.0612C109.149 14.1494 109.113 14.2315 109.057 14.2972C109.001 14.3628 108.928 14.409 108.848 14.43C108.768 14.451 108.684 14.4458 108.607 14.4151C108.529 14.3844 108.462 14.3295 108.413 14.2574C108.365 14.1853 108.337 14.0992 108.334 14.01C108.33 13.9208 108.351 13.8326 108.394 13.7564C108.437 13.6802 108.5 13.6194 108.575 13.5819C108.65 13.5444 108.733 13.5317 108.814 13.5454C108.923 13.5644 109.021 13.6293 109.086 13.7259C109.151 13.8225 109.179 13.943 109.162 14.0612Z" fill="#4EABD5"/>
<path id="Vector_23" d="M109.93 11.646C109.804 11.95 109.239 11.3926 108.811 11.1562C108.064 10.7508 107.469 11.2237 107.501 10.8634C107.533 10.5031 108.292 9.68114 109.045 10.002C109.734 10.2948 110.179 11.0436 109.93 11.646Z" fill="#4EABD5"/>
<path id="Vector_24" d="M114.995 14.9636C114.982 15.0518 114.945 15.1339 114.89 15.1995C114.834 15.2651 114.761 15.3114 114.681 15.3324C114.601 15.3534 114.517 15.3482 114.44 15.3174C114.362 15.2867 114.295 15.2318 114.247 15.1597C114.198 15.0876 114.17 15.0015 114.167 14.9123C114.164 14.8232 114.185 14.7349 114.228 14.6587C114.27 14.5825 114.333 14.5218 114.408 14.4843C114.483 14.4467 114.566 14.434 114.648 14.4478C114.702 14.4568 114.754 14.4773 114.8 14.5081C114.847 14.539 114.888 14.5795 114.92 14.6275C114.952 14.6754 114.976 14.7298 114.988 14.7874C115.001 14.8451 115.003 14.905 114.995 14.9636Z" fill="#4EABD5"/>
<path id="Vector_25" d="M116.661 13.482C116.582 13.7481 115.991 13.0195 114.915 12.8014C114.295 12.6748 113.402 12.6792 113.344 12.3825C113.232 11.8023 114.038 11.5797 115.006 11.8459C116.061 12.1338 116.739 13.2115 116.661 13.482Z" fill="#4EABD5"/>
<path id="Vector_26" d="M110.141 18.9558C110.129 18.9557 110.118 18.9541 110.107 18.9512C110.071 18.9387 110.04 18.9092 110.021 18.8689C110.002 18.8286 109.995 18.7805 110.003 18.7345C110.008 18.7143 110.404 16.7005 110.552 15.4892C110.56 15.4439 110.58 15.4039 110.61 15.3775C110.64 15.351 110.677 15.3402 110.713 15.3474C110.749 15.3545 110.782 15.3789 110.804 15.4156C110.826 15.4523 110.837 15.4984 110.832 15.5443C110.681 16.7712 110.282 18.8006 110.278 18.8208C110.27 18.8591 110.252 18.8929 110.227 18.9172C110.203 18.9415 110.172 18.9551 110.141 18.9558Z" fill="#4EABD5"/>
<path id="Vector_27" d="M105 27.7208C105 27.7208 97.6116 25.868 93.6968 28.4613C89.7821 31.0545 79.1667 44.898 79.1667 44.898L89.0126 55.9645L100.217 36.7623L105 27.7208Z" fill="#B9D3ED"/>
<path id="Vector_28" d="M122.171 26.7057C122.905 30.2486 123.928 31.0869 123.343 33.3368C122.422 36.8891 118.032 38.7222 114.415 39.7168C113.851 37.9069 113.512 36.0262 113.41 34.123C113.311 32.2663 113.186 30.0212 114.08 27.492C114.456 26.4168 115.019 25.2705 116.302 23.0728C116.977 21.905 117.596 20.702 118.157 19.4684C118.573 18.5684 119.221 17.0906 118.819 15.485C118.582 14.5377 118.09 13.9835 117.813 13.6046C116.959 12.4347 116.23 10.3317 116.847 6.24883C115.327 8.03448 113.897 8.66917 112.869 8.92021C109.887 9.63068 107.187 7.8545 106.132 9.22334C105.864 9.56437 106.074 9.63068 105.788 10.4406C104.845 13.0978 102.484 13.5856 102.234 15.2813C102.198 15.5087 102.332 15.7881 102.346 15.826C102.539 16.4193 102.888 16.9418 103.352 17.3322C104.42 18.3079 106.034 22.2581 105.068 25.5642C104.889 26.1705 104.643 27.0088 103.942 27.7383C102.69 29.0266 101.34 28.5908 100.553 29.4765C99.981 30.1254 99.6725 31.518 100.911 34.8051C94.7865 33.0431 93.0029 30.7554 92.5916 28.894C91.9523 26.0189 94.791 25.0669 97.0082 18.6584C98.9439 13.0646 97.938 10.4501 100.83 5.8036C101.555 4.63843 102.422 3.26958 104.049 2.07599C107.29 -0.301726 111.067 -0.183315 113.065 0.242969C114.084 0.472444 115.074 0.825263 116.016 1.29447C116.752 1.67434 117.453 2.12795 118.108 2.6491C119.373 3.12591 120.537 3.86316 121.532 4.81841C124.112 7.31927 124.679 10.5874 124.845 11.6342C125.935 18.4595 120.88 20.4441 122.171 26.7057Z" fill="#4EABD5"/>
<path id="Vector_29" d="M121.191 18.3426C120.384 19.6861 118.818 20.2403 117.701 19.5796C116.584 18.919 116.332 17.2963 117.14 15.9573C117.948 14.6183 119.513 14.0596 120.631 14.7203C121.748 15.3809 122.004 16.9992 121.191 18.3426Z" fill="#B9D3ED"/>
<path id="Vector_30" d="M104.321 17.9956C103.217 18.325 102.07 17.2021 101.749 15.4902C101.428 13.7783 102.078 12.1213 103.182 11.7919C104.286 11.4625 105.441 12.5805 105.754 14.2874C106.067 15.9943 105.429 17.6662 104.321 17.9956Z" fill="#B9D3ED"/>
<path id="Vector_31" d="M121.655 15.6075C121.633 15.6493 121.589 15.6834 121.532 15.7022C121.476 15.7211 121.41 15.7232 121.351 15.7081C121.262 15.6837 121.166 15.6741 121.071 15.6801C120.976 15.6861 120.884 15.7076 120.802 15.7428C120.356 15.9232 119.984 16.4366 119.822 16.8702C120.052 16.9674 120.298 17.1443 120.263 17.3906C120.219 17.7167 119.641 17.9803 119.528 18.0289C119.491 18.0449 119.449 18.0533 119.406 18.0532C119.364 18.0537 119.324 18.0466 119.288 18.0326C119.252 18.0186 119.221 17.9982 119.2 17.9734C119.168 17.9349 119.159 17.8893 119.173 17.8461C119.188 17.8028 119.225 17.7652 119.278 17.7409C119.474 17.6542 119.768 17.4738 119.788 17.3559C119.807 17.2379 119.533 17.1373 119.464 17.1165C119.412 17.1031 119.368 17.0768 119.341 17.0424C119.314 17.0079 119.306 16.9677 119.317 16.9292C119.459 16.4019 119.91 15.7151 120.562 15.4549C120.704 15.3957 120.862 15.3594 121.025 15.3486C121.189 15.3378 121.354 15.3528 121.508 15.3925C121.567 15.4081 121.615 15.4392 121.642 15.4792C121.67 15.5192 121.674 15.5652 121.655 15.6075Z" fill="#4EABD5"/>
<path id="Vector_32" d="M104.142 14.6459C104.136 14.706 104.11 14.7618 104.069 14.8031C104.028 14.8444 103.975 14.8685 103.918 14.871C103.846 14.871 103.544 14.9338 103.51 15.1065C103.476 15.2792 103.68 15.6404 103.831 15.8289C103.86 15.8658 103.879 15.911 103.885 15.9591C103.891 16.0072 103.885 16.0562 103.866 16.1003C103.847 16.1444 103.817 16.1817 103.779 16.2078C103.741 16.2339 103.696 16.2477 103.651 16.2476C103.618 16.2483 103.585 16.2411 103.555 16.2267C103.525 16.2122 103.498 16.1908 103.476 16.1639C103.384 16.0539 102.952 15.4886 103.049 15.0018C103.122 14.6406 103.428 14.4679 103.685 14.3999C103.724 13.7246 103.588 12.8714 103.243 12.4684C103.182 12.3913 103.105 12.3305 103.018 12.2906C102.931 12.2506 102.837 12.2327 102.743 12.2381C102.712 12.241 102.681 12.2369 102.651 12.2261C102.622 12.2153 102.595 12.198 102.572 12.1754C102.549 12.1527 102.531 12.1252 102.519 12.0945C102.506 12.0639 102.5 12.0307 102.5 11.9973C102.5 11.9305 102.523 11.8662 102.566 11.8176C102.608 11.7689 102.666 11.7396 102.728 11.7356C102.89 11.7277 103.052 11.7589 103.202 11.8268C103.351 11.8947 103.485 11.9976 103.593 12.1281C104.093 12.7092 104.229 13.845 104.142 14.6459Z" fill="#4EABD5"/>
<path id="Vector_33" d="M115.757 24.7323C114.349 26.2707 112.616 27.0799 110.913 27.0799C110.038 27.0848 109.173 26.8616 108.374 26.4251C106.276 25.2753 105.327 22.9649 105.015 22.0173C105.005 21.9859 105 21.9522 105 21.9183C105 21.8844 105.006 21.8509 105.017 21.8197C105.028 21.7885 105.044 21.7603 105.063 21.7366C105.083 21.713 105.107 21.6944 105.132 21.6819C105.185 21.6571 105.243 21.6582 105.295 21.685C105.346 21.7118 105.388 21.7622 105.41 21.8257C105.7 22.7094 106.588 24.8867 108.551 25.9513C110.761 27.1598 113.482 26.5316 115.484 24.3383C115.527 24.2939 115.582 24.2713 115.637 24.2753C115.693 24.2793 115.745 24.3095 115.783 24.3596C115.82 24.4135 115.837 24.4828 115.833 24.5525C115.828 24.6223 115.801 24.6868 115.757 24.7323Z" fill="#4EABD5"/>
<path id="Vector_34" d="M120.151 63.4678C118.303 65.3712 114.736 65.5078 112.701 63.7834C110.438 61.8659 110.708 58.1863 111.088 49.5314C111.268 45.456 111.516 39.1474 111.73 31.1804C113.539 31.0155 115.349 30.8522 117.161 30.6904C119.505 41.3335 120.728 49.5879 121.404 55.2134C121.733 57.9319 122.101 61.4654 120.151 63.4678Z" fill="#B9D3ED"/>
<path id="Vector_35" d="M118.315 25.6229C118.24 27.7112 117.147 31.9651 117.147 31.9651C117.147 31.9651 113.329 34.9622 111.717 32.289C111.717 32.289 110.862 30.5971 110.834 28.8762C110.806 27.1553 111.596 26.1546 111.717 24.9703C111.839 23.786 110.717 22.389 111.273 21.659C111.829 20.9291 113.227 23.6652 113.227 23.6652C113.181 22.8246 113.092 21.9872 112.96 21.1563C112.741 19.8076 113.241 19.3919 113.857 19.856C114.441 20.2959 114.867 22.5388 114.918 22.8144C114.909 22.5533 114.801 20.5956 114.857 19.6723C114.923 18.6861 115.647 18.749 116.026 19.6723C116.385 20.5376 116.689 22.3213 116.726 22.5388C116.703 22.2343 116.484 19.1405 117.348 19.1405C118.264 19.1405 118.39 23.5298 118.315 25.6229Z" fill="#B9D3ED"/>
<path id="Vector_36" d="M118.332 20.4171C118.335 20.4475 118.332 20.4781 118.324 20.5074C118.315 20.5366 118.301 20.5638 118.282 20.5875C118.263 20.6112 118.24 20.6309 118.214 20.6454C118.187 20.6599 118.158 20.669 118.129 20.6722C118.098 20.6757 118.068 20.6729 118.039 20.664C118.009 20.6552 117.982 20.6404 117.959 20.6207C117.936 20.6009 117.916 20.5765 117.902 20.549C117.888 20.5214 117.88 20.4913 117.878 20.4604C117.779 19.4066 117.523 18.8195 117.315 18.7136C117.296 18.704 117.253 18.6848 117.163 18.7377C116.941 18.8773 116.818 20.3209 116.899 21.8271C116.901 21.8845 116.883 21.9409 116.847 21.9853C116.811 22.0298 116.76 22.0591 116.705 22.0677C116.649 22.0745 116.592 22.0607 116.545 22.029C116.499 21.9972 116.464 21.9495 116.449 21.8945C116.009 20.1765 115.385 18.6078 115.105 18.526C114.855 18.6751 114.822 20.3305 115.063 22.0773C115.062 22.1315 115.043 22.1837 115.01 22.2257C114.976 22.2676 114.929 22.2968 114.877 22.3085C114.825 22.3202 114.771 22.3137 114.723 22.2901C114.675 22.2665 114.637 22.2271 114.613 22.1784C114.282 21.0764 113.624 19.4403 113.203 19.2574C113.17 19.243 113.161 19.2478 113.156 19.2574C112.801 19.4403 112.967 21.2785 113.345 22.8761C113.357 22.9321 113.349 22.9905 113.322 23.0408C113.295 23.091 113.251 23.1299 113.199 23.1504C113.145 23.1702 113.086 23.1689 113.034 23.1466C112.981 23.1243 112.939 23.0827 112.915 23.0301C112.584 22.3468 111.888 21.216 111.429 21.0957C111.403 21.088 111.375 21.0866 111.348 21.0916C111.321 21.0966 111.295 21.1079 111.273 21.1245C111.103 21.2448 111.141 21.471 111.306 22.0725C111.524 22.8858 111.855 24.1177 111.358 25.8934C110.559 28.7373 111.434 30.4023 111.443 30.4168C111.466 30.4577 111.476 30.5047 111.472 30.5515C111.472 30.643 110.658 39.9737 110.478 48.727C110.298 57.4562 111.174 61.9604 111.188 62.0037C111.199 62.0649 111.187 62.1281 111.153 62.1801C111.12 62.2322 111.068 62.269 111.008 62.2828C110.989 62.2828 110.975 62.2828 110.961 62.2828C110.908 62.282 110.856 62.263 110.815 62.229C110.774 62.1949 110.745 62.1478 110.734 62.0951C110.734 62.047 109.844 57.4995 110.024 48.7126C110.194 40.3346 110.942 31.437 111.013 30.5756C110.843 30.2147 110.147 28.5112 110.918 25.7634C111.382 24.1081 111.074 22.958 110.866 22.1928C110.696 21.5624 110.563 21.062 111.013 20.7347C111.09 20.6802 111.177 20.6433 111.27 20.6267C111.362 20.6101 111.457 20.6141 111.547 20.6385C111.926 20.7347 112.319 21.1726 112.636 21.6298C112.465 20.4989 112.385 19.1275 112.948 18.8339C113.016 18.7984 113.09 18.7787 113.166 18.7762C113.242 18.7737 113.318 18.7885 113.388 18.8195C113.771 18.9879 114.15 19.6616 114.452 20.3546C114.415 19.3681 114.49 18.3431 114.916 18.1073C114.973 18.0742 115.038 18.0555 115.104 18.053C115.17 18.0505 115.235 18.0642 115.295 18.0929C115.702 18.2709 116.123 19.2382 116.425 20.1621C116.463 19.3392 116.591 18.5356 116.927 18.3239C117.015 18.2644 117.116 18.2291 117.222 18.2216C117.327 18.214 117.433 18.2343 117.528 18.2805C118.086 18.5837 118.271 19.7483 118.332 20.4171Z" fill="#4EABD5"/>
<path id="Vector_37" d="M108.188 16.627C108.188 17.1788 108.261 17.4439 108.167 17.722C108.119 17.8578 108.052 17.9591 107.976 18.0121C107.899 18.065 107.817 18.0669 107.739 18.0174C107.687 17.9732 107.639 17.9056 107.6 17.8194C107.561 17.7332 107.531 17.6303 107.513 17.5178C107.428 16.9486 107.768 16.0926 108.333 15.3452C108.242 15.7464 108.193 16.1831 108.188 16.627Z" fill="#4EABD5"/>
<path id="Vector_38" d="M110.715 21.6582C110.698 21.6623 110.681 21.664 110.663 21.6632C110.628 21.6627 110.594 21.6545 110.566 21.6398C110.537 21.6251 110.516 21.6045 110.504 21.5808C110.386 21.3236 110.189 21.1512 109.916 21.0663C109.338 20.889 108.58 21.1463 108.573 21.1488C108.553 21.1556 108.532 21.1596 108.51 21.1606C108.488 21.1615 108.466 21.1592 108.445 21.154C108.425 21.1488 108.406 21.1407 108.389 21.1301C108.373 21.1196 108.36 21.1068 108.35 21.0926C108.34 21.0783 108.335 21.0628 108.334 21.047C108.332 21.0312 108.335 21.0153 108.343 21.0004C108.35 20.9854 108.361 20.9716 108.376 20.9598C108.39 20.948 108.408 20.9384 108.428 20.9315C108.462 20.919 109.324 20.6193 110.047 20.8441C110.414 20.9565 110.677 21.1787 110.826 21.5034C110.839 21.5345 110.835 21.5681 110.814 21.597C110.793 21.626 110.758 21.6479 110.715 21.6582Z" fill="#4EABD5"/>
<path id="Vector_39" d="M65.8333 36.1064C65.8333 36.1064 57.9085 36.678 54.9714 42.0265C52.0343 47.375 43.494 69.7126 47.9101 74.588C52.3262 79.4635 58.2234 75.8462 62.0394 65.3065C65.8553 54.7669 65.8333 36.1064 65.8333 36.1064Z" fill="#94BE53"/>
<path id="Vector_40" d="M75 36.1064C75 36.1064 82.9253 36.678 85.8625 42.0265C88.7998 47.375 97.3363 69.7126 92.9254 74.588C88.5145 79.4635 82.6049 75.8462 78.7942 65.3065C74.9835 54.7669 75 36.1064 75 36.1064Z" fill="#94BE53"/>
<path id="Vector_41" d="M55.6073 190.406L56.0567 196.988C56.065 197.1 56.0508 197.214 56.0153 197.32C55.9798 197.426 55.9237 197.522 55.8511 197.602C55.4067 198.078 55.0107 198.608 54.6701 199.18C53.9731 200.362 53.5193 201.7 53.3409 203.098C53.326 203.21 53.3331 203.324 53.3617 203.433C53.3903 203.542 53.4398 203.643 53.5066 203.728C53.5735 203.814 53.6563 203.882 53.7493 203.929C53.8422 203.976 53.9432 204 54.0454 204H67.62C67.7335 204.001 67.8455 203.971 67.9465 203.914C68.0476 203.856 68.1348 203.773 68.2008 203.671C68.2669 203.568 68.3098 203.45 68.326 203.325C68.3423 203.201 68.3313 203.074 68.2942 202.955L66.5716 197.43C66.5451 197.345 66.5318 197.256 66.5323 197.166C66.5488 194.894 66.5653 192.624 66.5817 190.354C66.5826 190.25 66.5649 190.146 66.5295 190.05C66.4942 189.953 66.4419 189.865 66.3758 189.791C66.3097 189.717 66.231 189.658 66.1442 189.618C66.0575 189.578 65.9645 189.558 65.8705 189.558H56.3196C56.2214 189.557 56.1242 189.579 56.034 189.622C55.9439 189.666 55.8628 189.729 55.7959 189.809C55.729 189.889 55.6776 189.983 55.6452 190.086C55.6127 190.188 55.5998 190.297 55.6073 190.406Z" fill="#212121"/>
<path id="Vector_42" d="M84.5181 190.406L84.0937 196.988C84.0859 197.1 84.0992 197.214 84.1328 197.32C84.1663 197.426 84.2192 197.522 84.2879 197.602C84.7076 198.078 85.0816 198.608 85.4032 199.18C86.0618 200.362 86.4907 201.7 86.6597 203.098C86.6736 203.21 86.6667 203.325 86.6395 203.433C86.6124 203.542 86.5656 203.643 86.5024 203.728C86.4391 203.814 86.3609 203.882 86.2731 203.929C86.1852 203.976 86.0898 204 85.9932 204H73.1737C73.0665 204.001 72.9608 203.971 72.8653 203.914C72.7699 203.856 72.6875 203.773 72.6251 203.671C72.5628 203.568 72.5222 203.45 72.5069 203.325C72.4916 203.201 72.5019 203.074 72.537 202.955L74.1638 197.43C74.1894 197.345 74.202 197.256 74.201 197.166C74.1854 194.894 74.1699 192.624 74.1543 190.354C74.1534 190.249 74.1702 190.146 74.2036 190.05C74.237 189.953 74.2863 189.865 74.3488 189.791C74.4112 189.717 74.4856 189.658 74.5675 189.618C74.6494 189.578 74.7373 189.558 74.826 189.558H83.8464C83.9391 189.557 84.0308 189.579 84.1158 189.623C84.2008 189.666 84.2773 189.73 84.3403 189.809C84.4034 189.889 84.4518 189.983 84.4824 190.086C84.513 190.189 84.5252 190.298 84.5181 190.406Z" fill="#212121"/>
<path id="Vector_43" d="M75.8333 22.5664H65V43.3275H75.8333V22.5664Z" fill="#FC9C86"/>
<path id="Vector_44" d="M57.2602 80.3364C57.2325 70.4825 56.8179 62.5843 56.4574 57.2633C55.7762 47.2878 55.0663 43.3524 57.7633 39.8643C61.7155 34.7543 69.4706 35.1538 71.3803 35.2527C73.5765 35.372 80.0057 35.6964 83.2303 40.358C85.6973 43.9212 85.0372 48.1941 84.4776 52.7889C83.6847 59.2953 82.841 68.51 82.653 80.3364H57.2602Z" fill="white"/>
<path id="Vector_45" d="M66.6674 77.7389C68.1706 116.528 69.6748 155.317 71.1801 194.107C71.1875 194.298 71.2618 194.48 71.3877 194.613C71.5135 194.746 71.6813 194.822 71.8566 194.824L84.7775 194.973C84.9556 194.975 85.1274 194.901 85.2566 194.767C85.3858 194.633 85.4624 194.449 85.4703 194.255C87.2888 149.091 87.7131 115.734 87.4111 104.946C87.2812 100.339 86.8504 93.7838 84.5816 86.127C83.6657 83.036 82.5292 80.0283 81.1828 77.1317C81.1244 77.0074 81.0353 76.9035 80.9257 76.8318C80.8161 76.76 80.6903 76.7233 80.5626 76.7257L67.3407 76.9541C67.2489 76.9558 67.1584 76.9775 67.0745 77.0182C66.9905 77.0588 66.9149 77.1174 66.8521 77.1906C66.7893 77.2638 66.7406 77.3501 66.7089 77.4443C66.6772 77.5384 66.6631 77.6386 66.6674 77.7389Z" fill="#306F9F"/>
<path id="Vector_46" d="M73.3325 77.7389C71.7678 116.528 70.2035 155.317 68.6395 194.107C68.6317 194.299 68.5543 194.48 68.4232 194.613C68.2921 194.747 68.1173 194.822 67.9348 194.824L54.4973 194.973C54.3122 194.975 54.1337 194.901 53.9995 194.767C53.8653 194.633 53.7859 194.449 53.778 194.255C51.8857 149.091 51.4445 115.734 51.7596 104.946C51.8936 100.339 52.3428 93.7838 54.7011 86.1271C55.654 83.0359 56.8362 80.0282 58.2369 77.1317C58.2975 77.0073 58.3901 76.9034 58.5042 76.8316C58.6182 76.7599 58.7491 76.7232 58.8819 76.7257L72.6312 76.9541C72.7268 76.9556 72.821 76.9773 72.9084 77.0178C72.9959 77.0584 73.0746 77.117 73.1401 77.1902C73.2055 77.2634 73.2562 77.3497 73.2893 77.444C73.3224 77.5382 73.3371 77.6385 73.3325 77.7389Z" fill="#306F9F"/>
<path id="Vector_47" d="M55 84.8496C55.7102 81.5403 56.4203 78.2305 57.1305 74.9204H82.2886C82.9146 78.1518 83.5406 81.3832 84.1667 84.6146L55 84.8496Z" fill="#306FC8"/>
<path id="Vector_48" d="M53.4825 73.6802L50.8333 98.131C50.8333 98.131 55.3959 103.022 59.9595 102.864C64.5231 102.706 65.6984 103.806 65.6984 103.806C65.6984 103.806 66.2585 72.5702 65.0965 62.0015C63.9344 51.4328 64.9866 36.1064 64.9866 36.1064C63.2545 36.296 60.6965 36.868 58.4877 38.8054C57.2499 39.8907 54.37 42.9427 53.4825 58.3668C53.191 63.4665 53.191 68.5805 53.4825 73.6802Z" fill="#94BE53"/>
<path id="Vector_49" d="M76.6493 36.1064C76.4582 39.0337 76.1481 43.6115 75.7158 49.2636C75.2007 55.9863 75.0297 57.4841 75.0032 59.9077C74.9224 67.534 76.4072 72.626 77.139 76.3062C78.3359 82.3336 78.8382 91.2741 75.5363 103.743C80.1339 103.889 83.4603 103.89 85.0385 102.482C87.6012 100.196 89.1667 100.905 89.1667 100.905C89.1667 100.905 87.1127 74.8614 86.9597 58.9606C86.8535 47.4518 86.1674 42.6256 82.6998 39.2066C80.6809 37.2183 78.3327 36.4453 76.6493 36.1064Z" fill="#94BE53"/>
<path id="Vector_50" d="M75.8333 35.9425C75.8333 35.9425 74.9974 37.614 71.2634 37.8884C67.5294 38.1629 65 35.9179 65 35.9179C65 35.9179 66.2347 33.7384 69.5014 33.4229C72.7681 33.1075 75.8333 35.9425 75.8333 35.9425Z" fill="#FC9C86"/>
<path id="Vector_51" d="M65.687 33.3984C65.687 33.3984 64.2626 33.7228 63.7022 34.7652C63.1417 35.8077 62.5 36.8501 62.5 36.8501L65.2341 42.425C65.2341 42.425 66.1901 36.1224 65.687 33.3984Z" fill="#94BE53"/>
<path id="Vector_52" d="M76.2454 33.3984L75.8333 43.3276L78.3333 36.7728C78.3333 36.7728 78.1134 33.4676 76.2454 33.3984Z" fill="#FECD50"/>
<path id="Vector_53" d="M79.1667 18.8358C79.1667 24.2641 75.2457 33.398 70.4167 33.398C65.5876 33.398 61.6667 24.2593 61.6667 18.8358C61.6667 16.2342 62.5885 13.7391 64.2295 11.8995C65.8704 10.0599 68.096 9.02637 70.4167 9.02637C72.7373 9.02637 74.9629 10.0599 76.6039 11.8995C78.2448 13.7391 79.1667 16.2342 79.1667 18.8358Z" fill="#FC9C86"/>
<path id="Vector_54" d="M75 20.3118C74.9992 20.4009 74.9498 20.4879 74.858 20.5618C74.7661 20.6357 74.6359 20.6932 74.4838 20.7271C74.3317 20.761 74.1644 20.7698 74.0031 20.7523C73.8419 20.7348 73.6937 20.6919 73.5774 20.6289C73.4611 20.5659 73.3818 20.4856 73.3495 20.3983C73.3173 20.3109 73.3335 20.2204 73.396 20.138C73.4586 20.0556 73.5648 19.9851 73.7013 19.9353C73.8377 19.8856 73.9983 19.8588 74.1628 19.8584C74.3848 19.8584 74.5978 19.9062 74.7548 19.9912C74.9118 20.0762 75 20.1916 75 20.3118Z" fill="#1D0A03"/>
<path id="Vector_55" d="M75.8319 17.9644C75.7961 18.3129 75.1361 17.5289 74.0826 17.469C73.4743 17.4364 72.6235 17.6215 72.528 17.2676C72.3452 16.5708 73.0807 16.1407 74.0349 16.2714C75.0765 16.4184 75.8717 17.616 75.8319 17.9644Z" fill="#1D0A03"/>
<path id="Vector_56" d="M68.3333 20.3119C68.3329 20.4011 68.3081 20.4882 68.262 20.5622C68.2159 20.6362 68.1506 20.6937 68.0743 20.7275C67.998 20.7613 67.9142 20.7698 67.8335 20.752C67.7527 20.7341 67.6787 20.6908 67.6207 20.6274C67.5627 20.5639 67.5233 20.4833 67.5076 20.3957C67.4919 20.3081 67.5006 20.2174 67.5325 20.1351C67.5644 20.0527 67.6181 19.9825 67.6868 19.9333C67.7555 19.884 67.8362 19.858 67.9186 19.8584C68.029 19.8595 68.1344 19.9078 68.2121 19.9927C68.2898 20.0776 68.3333 20.1923 68.3333 20.3119Z" fill="#1D0A03"/>
<path id="Vector_57" d="M69.1609 16.8567C69.1234 17.1448 68.4449 17.1618 67.979 17.2974C67.1691 17.5389 66.7345 18.2593 66.672 17.9966C66.6094 17.7338 67.1035 16.6744 67.8977 16.3736C68.62 16.0939 69.2328 16.2931 69.1609 16.8567Z" fill="#1D0A03"/>
<path id="Vector_58" d="M71.6654 25.0334C71.6689 25.0623 71.6652 25.0915 71.6547 25.1193C71.6442 25.1471 71.6271 25.173 71.6042 25.1953C71.5814 25.2177 71.5533 25.2362 71.5216 25.2497C71.49 25.2632 71.4553 25.2715 71.4197 25.274H71.3918C71.3244 25.2742 71.2594 25.2538 71.2097 25.2167C71.16 25.1797 71.1294 25.1288 71.1237 25.0742C71.1237 25.0515 70.8333 22.4772 70.8333 20.9426C70.8462 20.8913 70.8804 20.8451 70.9303 20.812C70.9801 20.7788 71.0426 20.7607 71.107 20.7607C71.1714 20.7607 71.2338 20.7788 71.2837 20.812C71.3335 20.8451 71.3678 20.8913 71.3806 20.9426C71.3806 22.4545 71.6598 25.0107 71.6654 25.0334Z" fill="#1D0A03"/>
<path id="Vector_59" d="M46.3868 52.1885L44.795 48.8013C44.795 48.8013 41.9429 48.4932 40.0432 47.1066C38.1436 45.72 36.0475 43.8713 36.838 43.4849C37.6285 43.0986 38.4298 43.4079 41.107 44.5646C43.7842 45.7212 47.4031 44.3346 48.7065 45.4119C50.01 46.4892 51.6667 49.9568 51.6667 49.9568C51.6667 49.9568 49.861 53.0979 46.3868 52.1885Z" fill="#FC9C86"/>
<path id="Vector_60" d="M45.8333 50.8502C47.0782 56.6859 47.3844 61.4273 47.4202 64.7741C47.4665 69.1325 47.075 72.8658 49.3237 75.1882C49.6626 75.5375 51.0579 76.8855 52.8194 76.7097C54.7556 76.5165 55.9941 74.5957 56.5161 73.7843C60.1906 68.0802 52.4311 50.0446 51.8629 48.7432L45.8333 50.8502Z" fill="#94BE53"/>
<path id="Vector_61" d="M94.7379 52.1884L96.4195 48.8007C96.4195 48.8007 99.4303 48.4925 101.436 47.1057C103.441 45.7188 105.654 43.8697 104.819 43.4845C103.985 43.0993 103.139 43.4075 100.312 44.5631C97.4843 45.7188 93.6652 44.3332 92.2903 45.4106C90.9155 46.4881 89.1667 49.9575 89.1667 49.9575C89.1667 49.9575 91.0705 53.098 94.7379 52.1884Z" fill="#FC9C86"/>
<path id="Vector_62" d="M95.8333 49.9479C94.4995 55.7847 94.1726 60.525 94.1342 63.8718C94.0835 68.2302 94.504 71.9647 92.0935 74.2859C91.7316 74.6351 90.2354 75.9832 88.348 75.8074C86.2734 75.6141 84.9475 73.6934 84.3872 72.882C80.4511 67.1778 88.764 49.1423 89.374 47.8408L95.8333 49.9479Z" fill="#94BE53"/>
<path id="Vector_63" d="M75.806 30.2998C75.2792 31.2503 74.5416 32.0344 73.6639 32.5769C72.7862 33.1194 71.7978 33.4021 70.7936 33.398H70.7759C67.3605 33.398 65.1264 29.4196 65.0335 29.2474C65.0183 29.221 65.0081 29.1914 65.0032 29.1605C64.9983 29.1296 64.999 29.098 65.0052 29.0674C65.0113 29.0368 65.0229 29.0078 65.0391 28.9822C65.0554 28.9565 65.076 28.9347 65.0998 28.9179C65.1489 28.8863 65.207 28.8768 65.2622 28.8915C65.3173 28.9061 65.3653 28.9438 65.3963 28.9966C65.4184 29.036 67.6083 32.921 70.7759 32.921H70.7936C73.9656 32.9111 75.4167 30.0933 75.43 30.0687C75.4587 30.0146 75.5049 29.9748 75.5592 29.9574C75.6135 29.9401 75.6717 29.9464 75.7219 29.9753C75.7468 29.9903 75.7687 30.0106 75.7864 30.0351C75.804 30.0596 75.8172 30.0878 75.825 30.118C75.8328 30.1482 75.8352 30.1798 75.8319 30.211C75.8286 30.2422 75.8198 30.2724 75.806 30.2998Z" fill="#1D0A03"/>
<path id="Vector_64" d="M83.6793 28.2126C83.2502 29.0447 83.0203 29.9775 83.0103 30.9278C83.0004 31.878 83.2105 32.8162 83.6221 33.6584C83.4327 36.2305 82.094 38.1337 80.5307 38.4164C78.7297 38.7367 77.2589 36.777 76.9286 36.3813C74.6035 33.6018 74.6255 29.786 75.9642 26.9736C77.3029 24.1612 79.7205 21.7587 78.6284 20.2512C77.9194 19.276 77.2456 18.8991 76.8669 18.1077C76.4266 17.1985 76.8449 16.8452 76.5543 16.2799C75.8321 14.8572 73.1987 15.8795 70.9133 14.7959C69.8652 14.3013 68.5705 13.2084 67.5533 10.575C65.4308 12.3416 64.7438 14.0045 64.5148 15.2105C64.1625 17.0619 64.4223 18.2961 63.7442 19.5492C62.9295 21.052 61.2958 20.2041 61.5688 22.2156C61.8418 24.2272 64.5016 26.0691 65.2546 28.4575C65.9152 30.5586 65.303 33.1449 64.0348 34.61C63.2774 35.4862 62.2073 36.0562 61.6569 36.3483C60.5295 36.9466 59.9791 36.9654 58.9883 37.38C58.1163 37.7427 56.9186 38.4023 55.6239 39.7166C54.6683 38.0065 53.6511 35.5333 54.4614 33.371C54.9149 32.165 55.6239 31.8777 56.3769 30.9732C58.8518 28.01 56.5971 24.5993 57.698 18.4375C57.9975 16.7651 58.953 11.4277 62.9823 8.68592C64.1934 7.87553 65.552 7.35039 66.9676 7.14545C68.2711 6.70263 73.4057 5.11977 77.5891 8.03581C80.6937 10.1981 81.5788 13.6465 83.1245 19.6953C83.8775 22.6396 84.723 25.9278 83.6793 28.2126Z" fill="#1D0A03"/>
<path id="Vector_65" d="M63.5925 23.3291C62.3585 23.802 60.8573 23.034 60.2541 21.6152C59.6509 20.1964 60.1574 18.6648 61.3961 18.1919C62.6347 17.719 64.1313 18.4913 64.7437 19.9057C65.3561 21.3202 64.8312 22.8562 63.5925 23.3291Z" fill="#FC9C86"/>
<path id="Vector_66" d="M80.6194 21.6148C80.1093 23.034 78.8628 23.8021 77.8311 23.3291C76.7994 22.856 76.3737 21.324 76.88 19.9049C77.3862 18.4858 78.6327 17.722 79.6682 18.1907C80.7037 18.6594 81.1256 20.1924 80.6194 21.6148Z" fill="#FC9C86"/>
<path id="Vector_67" d="M62.6382 22.3201C62.6382 22.4999 62.9404 22.8321 63.158 23.0009C63.2167 23.0472 63.2532 23.1122 63.26 23.1823C63.2668 23.2523 63.2432 23.322 63.1942 23.3767C63.1668 23.406 63.1325 23.4295 63.0939 23.4455C63.0552 23.4615 63.0132 23.4696 62.9706 23.4693C62.9025 23.469 62.8364 23.4479 62.7833 23.4094C62.6564 23.3114 62.0279 22.8049 62.052 22.2875C62.0762 21.9062 62.4207 21.672 62.7289 21.5576C62.6564 20.8551 62.3421 20.0054 61.8405 19.6514C61.7518 19.5829 61.6469 19.5335 61.5337 19.5071C61.4206 19.4807 61.3023 19.4779 61.1878 19.4989C61.111 19.512 61.0316 19.4977 60.9663 19.4591C60.9009 19.4205 60.8547 19.3606 60.8373 19.292C60.8247 19.2228 60.8422 19.152 60.8861 19.0942C60.93 19.0363 60.9969 18.996 61.073 18.9815C61.2706 18.9443 61.475 18.9479 61.6708 18.9923C61.8665 19.0366 62.0486 19.1205 62.2031 19.2375C62.9283 19.7549 63.297 20.8932 63.3332 21.7374C63.3349 21.8003 63.3124 21.8619 63.2694 21.9115C63.2264 21.9612 63.1657 21.9959 63.0975 22.0097C63.0008 22.026 62.6503 22.1336 62.6382 22.3201Z" fill="#1D0A03"/>
<path id="Vector_68" d="M79.9967 19.297C79.9851 19.3656 79.9543 19.4254 79.9107 19.4639C79.8672 19.5025 79.8143 19.5167 79.7631 19.5037C79.6868 19.4819 79.6078 19.4842 79.5324 19.5107C79.4569 19.5371 79.387 19.5869 79.3282 19.656C78.9939 20.0096 78.7845 20.8582 78.7362 21.56C78.9375 21.6742 79.1711 21.9081 79.1872 22.2889C79.2073 22.8057 78.7845 23.3116 78.6999 23.4095C78.6645 23.4479 78.6205 23.469 78.5751 23.4693C78.5468 23.4689 78.5189 23.4604 78.4933 23.4445C78.4676 23.4286 78.4447 23.4055 78.426 23.3769C78.3934 23.3222 78.3777 23.2526 78.3822 23.1826C78.3867 23.1127 78.4111 23.0478 78.4502 23.0015C78.5952 22.8383 78.8046 22.5065 78.7966 22.3215C78.7885 22.1366 78.5509 22.0278 78.4865 22.006C78.4418 21.9911 78.4022 21.956 78.3744 21.9065C78.3465 21.857 78.3321 21.7962 78.3334 21.734C78.3576 20.8909 78.6033 19.7539 79.0865 19.2372C79.1895 19.1203 79.3108 19.0365 79.4413 18.9922C79.5717 18.9479 79.708 18.9443 79.8396 18.9815C79.8911 18.9959 79.9364 19.037 79.9657 19.096C79.9951 19.155 80.0062 19.2271 79.9967 19.297Z" fill="#1D0A03"/>
<path id="Vector_69" d="M83.4319 43.6035C81.1037 46.3784 76.5516 46.8948 72.5 44.5494C73.7142 43.7338 75.2069 42.4066 75.6159 40.428C76.0511 38.319 74.9632 36.8954 74.5846 34.7719C74.219 32.6919 74.4758 29.6033 77.3654 25.2744C78.597 25.9838 80.712 27.4316 82.344 30.11C84.1543 33.0877 86.6828 39.7137 83.4319 43.6035Z" fill="#1D0A03"/>
<path id="Vector_70" d="M55.231 62.2829H55.2122C55.1522 62.277 55.0968 62.2483 55.0574 62.2029C55.018 62.1574 54.9975 62.0986 55.0002 62.0385L56.2095 46.247C56.2155 46.187 56.2444 46.1315 56.2902 46.0921C56.336 46.0527 56.3952 46.0324 56.4556 46.0354C56.5156 46.0417 56.5708 46.0706 56.61 46.1163C56.6492 46.162 56.6694 46.221 56.6664 46.2811L55.4595 62.0714C55.4537 62.1284 55.4274 62.1813 55.3853 62.2203C55.3432 62.2592 55.2884 62.2815 55.231 62.2829Z" fill="#1D0A03"/>
<path id="Vector_71" d="M52.6767 77.6283C52.6225 77.6289 52.5697 77.6113 52.5271 77.5784C52.4844 77.5455 52.4544 77.4993 52.4421 77.4474C52.4298 77.3955 52.4359 77.341 52.4594 77.2929C52.4829 77.2449 52.5223 77.2062 52.5712 77.1832C52.6056 77.1663 56.0246 75.4413 56.1829 70.4111C56.4037 63.3713 50.9077 50.1168 50.8574 49.9841C50.8431 49.9552 50.835 49.9237 50.8336 49.8916C50.8321 49.8595 50.8374 49.8275 50.849 49.7975C50.8606 49.7674 50.8784 49.7401 50.9012 49.7171C50.924 49.6941 50.9514 49.6759 50.9816 49.6637C51.0118 49.6514 51.0443 49.6454 51.0769 49.646C51.1096 49.6466 51.1418 49.6538 51.1715 49.6671C51.2013 49.6804 51.228 49.6995 51.2499 49.7233C51.2718 49.7472 51.2886 49.7752 51.2991 49.8056C51.3555 49.9395 56.8833 63.2869 56.6601 70.4256C56.4932 75.7501 52.9331 77.5318 52.7822 77.6042C52.7495 77.6202 52.7133 77.6285 52.6767 77.6283Z" fill="#1D0A03"/>
<path id="Vector_72" d="M86.1343 76.7256C86.0799 76.7255 86.0273 76.7057 85.9854 76.6699C82.9702 74.0021 82.5235 68.6449 84.6583 60.7606C86.2351 54.9401 88.7145 49.8168 88.7392 49.7659C88.7681 49.7131 88.8155 49.6738 88.8717 49.6562C88.9278 49.6386 88.9884 49.6439 89.0408 49.6712C89.0932 49.6985 89.1335 49.7455 89.1533 49.8027C89.1731 49.8598 89.1709 49.9226 89.1471 49.9781C89.0487 50.1794 79.4028 70.2176 86.282 76.3109C86.3176 76.3421 86.343 76.3839 86.3549 76.4305C86.3667 76.4772 86.3645 76.5265 86.3483 76.5717C86.3322 76.617 86.303 76.656 86.2647 76.6836C86.2265 76.7111 86.1809 76.7258 86.1343 76.7256Z" fill="#1D0A03"/>
<path id="Vector_73" d="M85.5371 60.4778C85.4646 60.4764 85.3952 60.4558 85.3413 60.4198C85.2875 60.3838 85.2528 60.3347 85.2434 60.2814L83.3351 47.1808C83.3266 47.123 83.3494 47.0651 83.3985 47.0198C83.4476 46.9745 83.5189 46.9456 83.5968 46.9393C83.6747 46.933 83.7528 46.9499 83.8139 46.9863C83.8749 47.0227 83.914 47.0756 83.9225 47.1334L85.8323 60.234C85.8388 60.2918 85.8151 60.3493 85.7661 60.3944C85.7171 60.4396 85.6465 60.4691 85.569 60.4767L85.5371 60.4778Z" fill="#1D0A03"/>
<path id="Vector_74" d="M61.5929 40.6194C61.5698 40.6196 61.5468 40.6158 61.5249 40.608C61.488 40.595 61.4551 40.5723 61.4295 40.5422C61.4038 40.5121 61.3865 40.4756 61.379 40.4365L60.8366 37.2677C60.8317 37.2392 60.8323 37.2099 60.8385 37.1816C60.8447 37.1533 60.8563 37.1265 60.8727 37.1027C60.889 37.079 60.9098 37.0588 60.9338 37.0432C60.9578 37.0277 60.9845 37.0171 61.0126 37.0121C61.0406 37.0071 61.0693 37.0078 61.097 37.0141C61.1248 37.0204 61.151 37.0322 61.1743 37.0489C61.1976 37.0656 61.2174 37.0868 61.2327 37.1112C61.2479 37.1357 61.2583 37.163 61.2632 37.1916L61.7366 39.9525L64.1269 37.629C64.1539 37.603 64.1869 37.5844 64.2229 37.5751C64.2589 37.5658 64.2966 37.5661 64.3325 37.5759C64.3684 37.5857 64.4012 37.6047 64.4278 37.6311C64.4544 37.6575 64.4739 37.6904 64.4845 37.7267L64.9913 39.4844C64.9993 39.5122 65.0018 39.5414 64.9987 39.5702C64.9957 39.599 64.987 39.6269 64.9734 39.6523C64.9597 39.6778 64.9413 39.7002 64.9192 39.7184C64.897 39.7365 64.8716 39.7501 64.8443 39.7582C64.817 39.7663 64.7884 39.7689 64.7602 39.7658C64.7319 39.7626 64.7045 39.7538 64.6796 39.7399C64.6547 39.726 64.6327 39.7072 64.6149 39.6846C64.5971 39.662 64.5838 39.636 64.5758 39.6082L64.1693 38.1994L61.7421 40.558C61.7021 40.5974 61.6485 40.6194 61.5929 40.6194Z" fill="#1D0A03"/>
<path id="Vector_75" d="M72.453 27.6801C72.4192 27.7109 72.373 27.7291 72.3242 27.731C72.2754 27.7328 72.2276 27.7182 72.1908 27.69C71.9325 27.4841 71.659 27.3879 71.3702 27.4078C70.7851 27.441 70.3254 27.9191 70.3254 27.9225C70.3089 27.9413 70.2876 27.9565 70.2632 27.9669C70.2388 27.9772 70.212 27.9825 70.1849 27.9822C70.142 27.982 70.1005 27.9691 70.0671 27.9457C70.0296 27.9179 70.0059 27.8786 70.001 27.8358C69.996 27.7931 70.0102 27.7504 70.0405 27.7166C70.0633 27.6933 70.6028 27.1289 71.3436 27.0824C71.7235 27.0591 72.1035 27.182 72.4416 27.4509C72.4768 27.4805 72.4977 27.5208 72.4998 27.5635C72.5019 27.6062 72.4852 27.6479 72.453 27.6801Z" fill="#1D0A03"/>
<path id="Vector_76" d="M75.1016 17.1504C74.2838 17.1504 73.4965 17.4534 72.8983 17.9983C72.3001 18.5432 71.9355 19.2894 71.878 20.0866H69.7911C69.7319 19.2701 69.3508 18.5079 68.7279 17.9605C68.1051 17.4132 67.2891 17.1234 66.452 17.1524C65.6149 17.1813 64.8219 17.5266 64.2402 18.1155C63.6585 18.7045 63.3333 19.4911 63.3333 20.3097C63.3333 21.1283 63.6585 21.9149 64.2402 22.5038C64.8219 23.0928 65.6149 23.4381 66.452 23.467C67.2891 23.4959 68.1051 23.2062 68.7279 22.6588C69.3508 22.1115 69.7319 21.3493 69.7911 20.5327H71.878C71.9227 21.1463 72.1497 21.7337 72.5312 22.2229C72.9128 22.7121 73.4321 23.0817 74.0256 23.2865C74.6191 23.4913 75.2609 23.5223 75.8722 23.3756C76.4834 23.229 77.0375 22.9111 77.4665 22.461C77.8955 22.0109 78.1806 21.4482 78.2869 20.8419C78.3932 20.2357 78.316 19.6123 78.0649 19.0483C77.8137 18.4844 77.3995 18.0043 76.8731 17.6672C76.3467 17.33 75.731 17.1504 75.1016 17.1504ZM66.5721 23.0274C66.0221 23.0274 65.4844 22.868 65.0271 22.5694C64.5697 22.2708 64.2133 21.8463 64.0028 21.3497C63.7923 20.8531 63.7372 20.3067 63.8445 19.7795C63.9518 19.2523 64.2167 18.768 64.6056 18.388C64.9946 18.0079 65.4901 17.749 66.0296 17.6442C66.569 17.5393 67.1282 17.5931 67.6364 17.7988C68.1446 18.0045 68.5789 18.3529 68.8845 18.7998C69.1901 19.2467 69.3532 19.7722 69.3532 20.3097C69.3519 21.0301 69.0585 21.7207 68.5373 22.2301C68.016 22.7395 67.3093 23.0262 66.5721 23.0274ZM75.1016 23.0274C74.3699 23.0266 73.668 22.7443 73.1475 22.2417C72.6271 21.7391 72.33 21.0565 72.3206 20.3415C72.3264 20.3319 72.3296 20.3209 72.3299 20.3097C72.3289 20.2986 72.3258 20.2877 72.3206 20.2778C72.3274 19.7424 72.4962 19.2208 72.8056 18.7788C73.115 18.3369 73.5512 17.9941 74.0593 17.7938C74.5675 17.5934 75.125 17.5443 75.6616 17.6528C76.1982 17.7612 76.6901 18.0222 77.0753 18.4031C77.4605 18.7839 77.7219 19.2676 77.8266 19.7932C77.9313 20.3189 77.8746 20.863 77.6636 21.3573C77.4527 21.8515 77.0969 22.2738 76.641 22.5709C76.1852 22.8681 75.6496 23.0269 75.1016 23.0274Z" fill="white"/>
<path id="Vector_77" d="M70.1161 154.354C70.0627 154.352 70.0122 154.326 69.9751 154.282C69.938 154.238 69.9173 154.179 69.9173 154.117L70.4324 98.4549L68.34 90.5553C68.3267 90.4975 68.3335 90.4361 68.3589 90.3839C68.3842 90.3317 68.4262 90.2929 68.476 90.2755C68.5258 90.2582 68.5795 90.2637 68.6258 90.291C68.6721 90.3182 68.7074 90.365 68.7243 90.4216L70.8249 98.3542C70.8313 98.3768 70.8341 98.4004 70.8332 98.4241L70.3181 154.121C70.3173 154.182 70.2958 154.241 70.2581 154.284C70.2204 154.328 70.1695 154.353 70.1161 154.354Z" fill="#1D0A03"/>
<path id="Vector_78" d="M72.0916 79.4339C68.7851 79.4339 66.077 79.226 66.0362 79.2224C65.9803 79.2178 65.9277 79.1776 65.8898 79.1106C65.8519 79.0435 65.8316 78.955 65.8335 78.8639C65.8337 78.8182 65.8397 78.773 65.8511 78.7312C65.8624 78.6893 65.8789 78.6517 65.8996 78.6206C65.9202 78.5896 65.9446 78.5657 65.9711 78.5505C65.9977 78.5353 66.0258 78.5291 66.0539 78.5323C66.1145 78.5323 72.1742 79.0055 77.2728 78.5323C77.3011 78.5287 77.3296 78.5343 77.3565 78.549C77.3833 78.5637 77.4081 78.587 77.4293 78.6177C77.4506 78.6483 77.4677 78.6856 77.4799 78.7273C77.492 78.769 77.4988 78.8142 77.4999 78.8603C77.5018 78.9522 77.4819 79.0417 77.4444 79.1105C77.4068 79.1792 77.3545 79.2218 77.2982 79.2296C75.5854 79.3819 73.7613 79.4339 72.0916 79.4339Z" fill="#1D0A03"/>
<path id="Vector_79" d="M60.2893 18.0527C60.216 18.0559 60.1444 18.0317 60.0902 17.9855C60.036 17.9393 60.0037 17.8748 60.0003 17.8063C59.9969 17.7377 60.0227 17.6707 60.0721 17.62C60.1215 17.5693 60.1904 17.5391 60.2636 17.5359C63.1633 17.2695 64.443 11.9749 64.4559 11.9217C64.4755 11.8583 64.5202 11.8044 64.5808 11.7707C64.6415 11.7371 64.7135 11.7263 64.7823 11.7405C64.8512 11.7547 64.9116 11.7929 64.9515 11.8474C64.9913 11.9018 65.0075 11.9684 64.9968 12.0335C64.9413 12.2666 63.616 17.7503 60.3177 18.0513L60.2893 18.0527Z" fill="white"/>
<path id="Vector_80" d="M60.2397 15.3453C60.1746 15.3422 60.1137 15.3229 60.0692 15.2911C60.0247 15.2594 60 15.2176 60 15.1742C60 15.1308 60.0247 15.089 60.0692 15.0573C60.1137 15.0255 60.1746 15.0061 60.2397 15.003C61.5832 14.9934 62.8275 13.654 62.8407 13.64C62.8559 13.618 62.8778 13.5985 62.9051 13.5826C62.9325 13.5667 62.9645 13.5548 62.9992 13.5476C63.0339 13.5405 63.0705 13.5384 63.1065 13.5413C63.1426 13.5442 63.1773 13.5522 63.2084 13.5646C63.2395 13.5771 63.2663 13.5938 63.2871 13.6136C63.3078 13.6334 63.322 13.6559 63.3288 13.6796C63.3356 13.7034 63.3347 13.7278 63.3264 13.7512C63.318 13.7747 63.3022 13.7968 63.2802 13.816C63.2232 13.8776 61.8744 15.3313 60.2449 15.3427L60.2397 15.3453Z" fill="white"/>
<path id="Vector_81" d="M76.6566 14.4423C73.9686 14.4423 72.5436 12.0572 72.5274 12.0287C72.5151 12.0075 72.5067 11.9838 72.5027 11.9591C72.4987 11.9343 72.4992 11.9089 72.5041 11.8844C72.5091 11.8598 72.5185 11.8366 72.5317 11.816C72.5448 11.7954 72.5616 11.7779 72.581 11.7644C72.6004 11.7509 72.622 11.7417 72.6446 11.7373C72.6673 11.7329 72.6905 11.7335 72.7129 11.7389C72.7354 11.7443 72.7566 11.7546 72.7754 11.769C72.7943 11.7834 72.8103 11.8017 72.8227 11.8229C72.8965 11.9489 74.6798 14.9188 78.1167 13.8192C78.1606 13.8077 78.2068 13.8151 78.2459 13.8398C78.2849 13.8646 78.3137 13.9048 78.3263 13.9522C78.3389 13.9995 78.3344 14.0504 78.3137 14.0942C78.2929 14.138 78.2575 14.1714 78.2149 14.1874C77.7092 14.3529 77.1845 14.4388 76.6566 14.4423Z" fill="white"/>
<path id="Vector_82" d="M77.2369 13.5397C75.7865 13.5397 75.0333 12.0645 75.0249 12.0467C75.002 12.0009 74.9945 11.9456 75.004 11.8929C75.0136 11.8402 75.0394 11.7945 75.0759 11.7657C75.1123 11.7369 75.1563 11.7275 75.1983 11.7395C75.2403 11.7515 75.2767 11.7839 75.2996 11.8296C75.3389 11.9072 76.2708 13.7169 78.1187 12.9389C78.1596 12.923 78.2039 12.9276 78.2423 12.9516C78.2807 12.9756 78.3103 13.0172 78.3249 13.0679C78.3317 13.0933 78.3344 13.1201 78.3329 13.1468C78.3315 13.1736 78.3258 13.1997 78.3162 13.2236C78.3067 13.2476 78.2935 13.269 78.2773 13.2865C78.2612 13.304 78.2425 13.3174 78.2222 13.3258C77.9052 13.464 77.5724 13.5362 77.2369 13.5397Z" fill="white"/>
<path id="Vector_83" d="M61.0484 35.2037C60.9953 35.2031 60.9442 35.1802 60.9047 35.1393C60.8653 35.0984 60.8404 35.0424 60.8346 34.9818C60.8288 34.9213 60.8427 34.8604 60.8735 34.8107C60.9042 34.761 60.9499 34.7261 61.0017 34.7124C64.5541 33.8191 63.6599 28.4964 63.6198 28.2706C63.6109 28.2071 63.6238 28.1422 63.6558 28.0894C63.6878 28.0366 63.7363 28 63.7913 27.9873C63.8463 27.9746 63.9034 27.9868 63.9507 28.0213C63.998 28.0558 64.0319 28.1099 64.0452 28.1723C64.0552 28.2323 65.063 34.1955 61.0952 35.1973C61.0798 35.2011 61.0642 35.2033 61.0484 35.2037Z" fill="white"/>
<path id="Vector_84" d="M75.2598 43.3272C75.196 43.3288 75.1339 43.3089 75.0859 43.2717C75.038 43.2344 75.0077 43.1825 75.0013 43.1263C74.9949 43.0701 75.0127 43.0138 75.0512 42.9688C75.0898 42.9238 75.1461 42.8934 75.209 42.8836C76.1298 42.7188 76.9947 41.9975 77.4635 41.002C78.0926 39.67 77.896 38.1502 76.9217 36.8331C74.7075 33.8511 76.1559 31.7829 76.2184 31.6964C76.2363 31.6716 76.2595 31.6502 76.2867 31.6333C76.314 31.6164 76.3447 31.6044 76.3772 31.5981C76.4097 31.5917 76.4432 31.5911 76.476 31.5962C76.5087 31.6013 76.54 31.6121 76.5681 31.6279C76.5961 31.6437 76.6204 31.6642 76.6395 31.6883C76.6586 31.7124 76.6721 31.7396 76.6793 31.7684C76.6865 31.7971 76.6872 31.8268 76.6814 31.8558C76.6756 31.8848 76.6635 31.9124 76.6456 31.9373C76.5909 32.0145 75.3262 33.8603 77.345 36.5877C78.4131 38.0315 78.6267 39.6988 77.9311 41.1748C77.3971 42.3063 76.3929 43.1336 75.3106 43.3226C75.2939 43.3258 75.2769 43.3274 75.2598 43.3272Z" fill="white"/>
<path id="Vector_85" d="M79.5759 43.3277C79.5156 43.328 79.4575 43.3059 79.4138 43.266C79.3699 43.224 79.3444 43.1674 79.3426 43.1079C79.3408 43.0484 79.3628 42.9905 79.4041 42.9461C82.0229 40.2819 78.4359 36.5218 78.3924 36.4834C78.3517 36.4391 78.3306 36.3813 78.3336 36.3223C78.3366 36.2633 78.3634 36.2078 78.4083 36.1675C78.4532 36.1272 78.5127 36.1053 78.5741 36.1065C78.6356 36.1077 78.6941 36.1319 78.7373 36.1739C78.776 36.2147 82.6691 40.2831 79.7466 43.2567C79.7247 43.2792 79.6983 43.2971 79.669 43.3093C79.6396 43.3215 79.6079 43.3278 79.5759 43.3277Z" fill="white"/>
<path id="Vector_86" d="M55.2266 198.584C55.1718 198.585 55.1186 198.546 55.0772 198.474C55.0358 198.401 55.009 198.301 55.0019 198.192C54.9948 198.082 55.0078 197.971 55.0386 197.88C55.0694 197.789 55.1157 197.723 55.1689 197.696C55.2647 197.643 57.5566 196.413 59.7838 196.887C59.8146 196.89 59.8448 196.905 59.8726 196.932C59.9003 196.959 59.925 196.997 59.9452 197.044C59.9653 197.091 59.9805 197.146 59.9897 197.205C59.9989 197.264 60.002 197.326 59.9987 197.388C59.9955 197.45 59.986 197.509 59.9708 197.563C59.9557 197.617 59.9351 197.664 59.9105 197.702C59.886 197.739 59.8578 197.766 59.8279 197.781C59.7979 197.795 59.7668 197.797 59.7364 197.787C57.6017 197.322 55.3086 198.556 55.2855 198.568C55.2664 198.579 55.2465 198.584 55.2266 198.584Z" fill="white"/>
<path id="Vector_87" d="M83.9532 198.584C83.9142 198.586 83.8756 198.566 83.842 198.527C82.7195 197.254 79.432 197.725 79.3987 197.729C79.3701 197.735 79.3413 197.73 79.3139 197.713C79.2865 197.696 79.2611 197.668 79.2394 197.63C79.2177 197.593 79.2001 197.547 79.1877 197.496C79.1753 197.444 79.1683 197.388 79.1673 197.332C79.1651 197.275 79.1686 197.219 79.1776 197.165C79.1865 197.111 79.2007 197.062 79.2193 197.019C79.2379 196.976 79.2606 196.942 79.286 196.916C79.3114 196.891 79.3391 196.876 79.3675 196.872C79.5077 196.85 82.8163 196.38 84.0567 197.782C84.0987 197.829 84.1315 197.902 84.1501 197.991C84.1686 198.079 84.1717 198.177 84.1589 198.269C84.1461 198.362 84.1182 198.443 84.0795 198.5C84.0408 198.557 83.9936 198.586 83.9455 198.584H83.9532Z" fill="white"/>
</g>
</svg>
