<svg width="218" height="218" viewBox="0 0 218 218" fill="none" xmlns="http://www.w3.org/2000/svg">
<g id="Anger 1">
<g id="Anger">
<path id="Vector" d="M179.122 108.668C179.122 108.668 176.043 97.7466 176.499 91.8155C176.499 91.8155 167.49 81.7968 168.971 80.4216C170.453 79.0463 173.531 80.9836 179.122 86.9147C179.122 86.9147 176.043 74.2562 178.206 73.3451C180.369 72.4339 184.138 84.7305 184.138 84.7305C184.138 84.7305 182.2 71.7484 184.138 70.4285C186.075 69.1085 189.954 83.1338 189.954 83.1338C189.954 83.1338 191.776 70.5477 193.828 70.3603C195.881 70.173 196.809 88.7371 196.907 93.3014C197.005 97.8658 193.828 108.668 193.828 108.668H179.122Z" fill="#FC9C86"/>
<path id="Vector_2" d="M39.7297 112.104C39.7297 112.104 42.8081 101.183 42.3525 95.2516C42.3525 95.2516 51.362 85.2329 49.8803 83.8576C48.3986 82.4824 45.3202 84.4197 39.7297 90.3508C39.7297 90.3508 42.8081 77.6923 40.6451 76.7812C38.4821 75.87 34.714 88.1836 34.714 88.1836C34.714 88.1836 36.6513 75.2015 34.714 73.8816C32.7767 72.5617 28.8978 86.5869 28.8978 86.5869C28.8978 86.5869 27.0754 74.0008 25.0232 73.8135C22.9709 73.6261 22.0427 92.1902 21.9448 96.7546C21.8469 101.319 25.0232 112.121 25.0232 112.121L39.7297 112.104Z" fill="#FC9C86"/>
<g id="Clip path group">
<mask id="mask0_1845_37894" style="mask-type:luminance" maskUnits="userSpaceOnUse" x="98" y="77" width="21" height="37">
<g id="clip-path">
<path id="Vector_3" d="M118.644 77.8071H98.1384V113.862H118.644V77.8071Z" fill="white"/>
</g>
</mask>
<g mask="url(#mask0_1845_37894)">
<g id="Group">
<path id="Vector_4" d="M118.644 77.8071H98.1384V113.862H118.644V77.8071Z" fill="#FC9C86"/>
<path id="Vector_5" d="M94.4298 95.0301C97.0782 96.4437 103.891 99.6328 112.577 98.3767C116.018 97.8697 119.337 96.7354 122.37 95.0301V78.6162H94.4298V95.0301Z" fill="#FC9C86"/>
</g>
</g>
</g>
<path id="Vector_6" d="M134.091 49.9226C134.091 49.9226 133.631 27.782 117.941 22.1617L117.516 22.0978C109.924 19.177 103.49 20.3181 98.9984 22.1574H98.9643C96.5348 23.0274 94.3019 24.3704 92.3945 26.1087C92.2072 26.2705 92.1093 26.3642 92.1093 26.3642C83.1295 34.7776 82.8059 49.9184 82.8059 49.9226C82.6961 50.7695 82.6548 51.6238 82.6825 52.4773C82.823 56.7011 85.3691 66.5281 85.9184 69.8875C89.133 80.4767 97.4145 93.4715 108.659 92.9138C122.31 92.1005 127.82 75.4142 129.369 70.3474C131.072 64.8974 132.426 59.6091 132.656 58.8087C133.188 56.9623 133.396 55.0376 133.27 53.1202C133.546 52.0004 133.823 50.9104 134.091 49.9226Z" fill="#FC9C86"/>
<path id="Vector_7" d="M87.6386 100.838C87.6386 100.838 80.2981 99.3518 74.1796 103.818C69.7217 107.071 68.1548 111.874 67.5204 113.862C50.0378 168.58 40.6664 189.473 50.7957 197.179C54.7129 200.16 59.5753 199.683 60.2225 199.611C75.5719 197.873 87.7067 169.248 92.4542 129.357L87.6386 100.838Z" fill="#94BE53"/>
<path id="Vector_8" d="M131.588 95.8983C131.588 95.8983 138.924 94.4124 145.047 98.8788C149.505 102.132 151.067 106.935 151.706 108.923C168.213 160.592 179.595 182.583 168.431 192.24C164.888 195.305 159.553 196.728 154.733 195.816C138.898 192.836 127.688 164.441 126.772 124.43L131.588 95.8983Z" fill="#94BE53"/>
<path id="Vector_9" d="M107.084 106.871C101.936 104.474 82.9209 96.1457 74.252 104.295C72.6596 105.79 71.4802 107.782 70.7052 110.499C65.3404 129.267 75.9849 194.101 77.637 204H143.114C144.638 192.364 152.31 132.18 146.946 107.369C146.307 104.427 145.119 100.297 141.606 97.7892C131.226 90.4062 110.652 104.389 107.084 106.871Z" fill="#94BE53"/>
<path id="Vector_10" d="M98.1384 102.737C98.1384 102.737 100.931 112.104 108.391 112.692C115.851 113.279 118.644 99.8031 118.644 99.8031C118.644 99.8031 103.465 97.7977 98.1384 102.737Z" fill="#FC9C86"/>
<path id="Vector_11" d="M109.507 26.824C108.655 30.1622 106.1 38.401 98.3853 45.0262C94.7938 48.0995 90.6102 50.4036 86.093 51.7961C86.093 51.7961 86.77 79.8977 98.1384 89.2649C97.1761 89.6055 86.8637 93.0543 77.8839 86.5612C77.2793 86.1354 70.0411 80.7194 69.215 71.7355C68.6913 66.0002 71.1481 62.7387 74.0051 56.2285C83.3382 34.982 77.7647 22.8473 87.4598 16.7799C91.015 14.553 95.1962 14.0378 97.0398 13.7994C102.283 13.1899 107.593 14.0124 112.406 16.1795C114.782 15.5579 120.637 14.3827 127.002 16.9374C136.25 20.6673 139.656 29.4852 140.367 31.3927C143.85 40.4491 138.805 42.2331 140.823 54.883C142.667 66.3791 147.733 70.5177 145.387 79.0546C144.962 80.6598 143.969 84.0533 141.053 86.8081C133.112 94.3189 119.261 89.0903 118.644 88.8519C120.447 86.9441 122.079 84.8826 123.523 82.6908C130.975 71.3821 131.532 59.3154 131.247 52.6775C126.614 51.5766 122.331 49.3292 118.793 46.1417C110.776 38.8694 109.707 29.2851 109.507 26.824Z" fill="#2D1929"/>
<path id="Vector_12" d="M91.5089 57.2889C89.8058 53.0907 85.6374 50.8212 82.18 52.2136C78.7227 53.6059 77.2963 58.1489 78.9952 62.3471C80.6941 66.5453 84.8667 68.819 88.3241 67.4225C91.7814 66.0259 93.2078 61.4871 91.5089 57.2889Z" fill="#FC9C86"/>
<path id="Vector_13" d="M85.0541 64.4504C85.0044 64.4527 84.9556 64.4359 84.9178 64.4035C84.8582 64.3525 83.4574 63.1603 83.517 62.1043C83.5681 61.1719 84.5644 60.7674 84.9774 60.6396C84.871 58.8045 84.1259 56.5138 82.9081 55.5303C82.6711 55.333 82.3923 55.1921 82.0928 55.1183C81.7934 55.0446 81.481 55.0398 81.1795 55.1045C81.1236 55.1145 81.0661 55.1023 81.0192 55.0705C80.9722 55.0387 80.9396 54.9897 80.9283 54.9342C80.9227 54.907 80.9226 54.8791 80.928 54.8519C80.9333 54.8247 80.9441 54.7989 80.9595 54.7759C80.975 54.7529 80.9949 54.7332 81.018 54.718C81.0411 54.7028 81.0671 54.6923 81.0943 54.6872C81.4574 54.6113 81.8329 54.6186 82.1928 54.7086C82.5527 54.7986 82.8875 54.9689 83.1721 55.2067C84.6113 56.3435 85.3393 58.8982 85.4075 60.7929C85.4106 60.843 85.3955 60.8926 85.365 60.9325C85.3345 60.9724 85.2906 60.9999 85.2414 61.0101C85.2414 61.0101 83.9896 61.2996 83.9641 62.1299C83.9215 62.8324 84.8497 63.7777 85.2116 64.08C85.2545 64.117 85.2812 64.1694 85.2859 64.2259C85.2907 64.2824 85.2732 64.3385 85.2372 64.3823C85.2139 64.4069 85.1853 64.4258 85.1535 64.4376C85.1218 64.4494 85.0878 64.4538 85.0541 64.4504Z" fill="#2D1929"/>
<path id="Vector_14" d="M132.955 52.2136C129.497 50.8212 125.32 53.0907 123.621 57.2889C121.923 61.4871 123.353 66.0259 126.81 67.4225C130.268 68.819 134.445 66.5453 136.139 62.3471C137.834 58.1489 136.408 53.6144 132.955 52.2136Z" fill="#FC9C86"/>
<path id="Vector_15" d="M130.08 64.4504C130.05 64.4501 130.02 64.4435 129.992 64.4311C129.964 64.4186 129.939 64.4005 129.919 64.378C129.883 64.3342 129.865 64.2781 129.87 64.2216C129.875 64.1651 129.901 64.1128 129.944 64.0757C130.306 63.7734 131.222 62.8281 131.192 62.1256C131.145 61.2953 129.914 61.01 129.893 61.0058C129.844 60.9949 129.8 60.9674 129.769 60.9277C129.738 60.8881 129.722 60.839 129.723 60.7886C129.795 58.8939 130.523 56.3392 131.962 55.2024C132.246 54.9649 132.58 54.7948 132.94 54.7049C133.299 54.6149 133.674 54.6074 134.036 54.6829C134.091 54.6933 134.14 54.7251 134.172 54.7713C134.204 54.8176 134.216 54.8746 134.206 54.9299C134.195 54.9855 134.162 55.0344 134.115 55.0662C134.068 55.098 134.011 55.1102 133.955 55.1002C133.654 55.0346 133.341 55.0388 133.041 55.1126C132.742 55.1864 132.463 55.3278 132.226 55.526C130.992 56.501 130.264 58.7917 130.157 60.6354C130.583 60.7631 131.566 61.1676 131.617 62.1001C131.677 63.156 130.276 64.3482 130.217 64.3993C130.179 64.4324 130.131 64.4506 130.08 64.4504Z" fill="#2D1929"/>
<path id="Vector_16" d="M143.539 55.986C143.539 55.986 142.628 41.8927 155.512 46.721C155.644 45.3974 156.017 44.109 156.611 42.9188C156.73 42.6846 158.88 38.9761 162.925 38.4353C166.574 37.9499 170.406 40.2279 172.16 44.1366C172.96 43.7819 173.843 43.6581 174.709 43.7792C175.575 43.9004 176.39 44.2616 177.061 44.8221C177.848 45.5451 178.366 46.5131 178.532 47.5684C178.699 48.6237 178.503 49.7042 177.977 50.634C179.068 51.2882 179.938 52.256 180.472 53.4115C181.005 54.5669 181.179 55.8563 180.969 57.1117C180.76 58.3671 180.177 59.5303 179.297 60.4497C178.417 61.3691 177.28 62.0022 176.035 62.2663C176.134 63.3266 175.863 64.3884 175.268 65.272C174.674 66.1557 173.793 66.8068 172.774 67.1153C171.754 67.4238 170.66 67.3708 169.675 66.9651C168.691 66.5594 167.876 65.8261 167.37 64.8891C165.05 68.8617 160.958 71.3823 156.662 71.3142C150.948 71.229 145.698 66.5752 144.68 60.0991L131.967 60.1587L143.539 55.986Z" fill="#B9D3ED"/>
<path id="Vector_17" d="M71.5951 55.986C71.5951 55.986 72.5063 41.8927 59.6221 46.721C59.49 45.3974 59.1178 44.109 58.5236 42.9188C58.4044 42.6846 56.2542 38.9761 52.2093 38.4353C48.5603 37.9499 44.7283 40.2279 42.9741 44.1366C42.1741 43.781 41.2906 43.6568 40.4236 43.7779C39.5566 43.8991 38.7409 44.2608 38.0691 44.8221C37.2833 45.5456 36.7656 46.5139 36.6002 47.5691C36.4347 48.6244 36.6313 49.7046 37.1579 50.634C36.0661 51.2879 35.1966 52.2554 34.6625 53.4105C34.1285 54.5656 33.9547 55.8548 34.1637 57.1101C34.3728 58.3655 34.955 59.5287 35.8347 60.4484C36.7143 61.3681 37.8505 62.0016 39.0952 62.2663C38.9994 63.326 39.2719 64.3864 39.8669 65.2685C40.4619 66.1507 41.3429 66.8006 42.3613 67.1088C43.3798 67.4169 44.4734 67.3644 45.4576 66.96C46.4418 66.5557 47.2565 65.8242 47.7641 64.8891C50.0846 68.8617 54.1764 71.3823 58.4725 71.3142C64.1865 71.229 69.4364 66.5752 70.454 60.0991L83.1678 60.1587L71.5951 55.986Z" fill="#B9D3ED"/>
<path id="Vector_18" d="M78.7951 115.544C77.9605 121.09 77.1246 126.64 76.2872 132.192C76.2872 132.192 61.8107 145.17 72.0294 161.486C73.8347 175.678 75.6415 189.884 77.4496 204.102L113.254 204C113.254 204 88.3964 196.958 85.4287 192.853C82.4611 188.749 96.1499 184.87 94.3233 180.995C92.4967 177.12 79.7275 175.749 76.994 163.206C76.994 163.206 66.5028 141.768 79.7275 134.7C79.4125 128.313 79.1016 121.928 78.7951 115.544Z" fill="#41711E"/>
<path id="Vector_19" d="M144.727 115.544C145.562 121.09 146.398 126.64 147.235 132.192C147.235 132.192 161.712 145.17 151.514 161.486L145.221 204H110.277C110.277 204 135.134 196.958 138.098 192.853C141.061 188.749 127.381 184.87 129.208 180.995C131.034 177.12 143.799 175.749 146.537 163.206C146.537 163.206 157.028 141.768 143.799 134.7C144.114 128.313 144.424 121.928 144.727 115.544Z" fill="#41711E"/>
<path id="Vector_20" d="M64.0461 153.656C71.9188 157.73 66.4389 169.239 74.5245 183.886C77.8839 189.962 78.9229 194.531 74.5245 197.869C70.1262 201.207 62.6793 208.002 55.5347 204C50.5786 201.224 47.0659 198.41 44.1152 194.343C42.08 191.537 37.7541 185.568 37.7285 176.886C37.7285 174.276 37.7285 165.765 44.3409 159.327C49.1693 154.652 58.0212 150.535 64.0461 153.656Z" fill="#41711E"/>
<path id="Vector_21" d="M156.798 148.325C148.926 152.4 154.405 163.913 146.32 178.555C142.96 184.636 141.921 189.2 146.32 192.538C150.718 195.876 158.165 202.672 165.31 198.669C170.266 195.893 173.778 193.079 176.729 189.013C178.764 186.207 183.09 180.242 183.116 171.556C183.116 168.946 183.116 160.439 176.503 153.996C171.675 149.326 162.823 145.191 156.798 148.325Z" fill="#41711E"/>
<path id="Vector_22" d="M24.0396 107.565C24.8188 117.899 31.2098 195.761 56.267 199.913C57.34 200.092 61.3764 200.764 64.4803 198.393C77.126 188.791 57.523 142.275 40.4492 107.173L24.0396 107.565Z" fill="#FC9C86"/>
<path id="Vector_23" d="M195.127 104.052C194.344 114.382 187.957 192.249 162.895 196.4C161.822 196.579 157.786 197.252 154.686 194.88C142.036 185.274 161.644 138.762 178.705 103.661L195.127 104.052Z" fill="#FC9C86"/>
<path id="Vector_24" d="M121.07 56.9486C121.069 57.2856 120.963 57.6146 120.765 57.8943C120.568 58.1739 120.288 58.3916 119.961 58.52C119.634 58.6485 119.275 58.6818 118.928 58.6159C118.581 58.5499 118.263 58.3877 118.013 58.1496C117.762 57.9114 117.592 57.6081 117.522 57.2777C117.452 56.9473 117.487 56.6046 117.621 56.2928C117.755 55.9811 117.983 55.7141 118.276 55.5256C118.57 55.3372 118.915 55.2356 119.268 55.2336C119.505 55.2323 119.74 55.2758 119.959 55.3615C120.178 55.4472 120.377 55.5734 120.545 55.7329C120.712 55.8923 120.845 56.0819 120.935 56.2906C121.025 56.4993 121.071 56.7229 121.07 56.9486Z" fill="black"/>
<path id="Vector_25" d="M97.545 56.9042C97.5484 57.1292 97.5048 57.3527 97.4167 57.5615C97.3286 57.7703 97.1977 57.9603 97.0318 58.1205C96.8658 58.2806 96.6681 58.4076 96.4501 58.4942C96.2321 58.5807 95.9982 58.625 95.7621 58.6245C95.5267 58.6249 95.2935 58.581 95.0759 58.4955C94.8583 58.41 94.6605 58.2844 94.4938 58.126C94.3271 57.9677 94.1947 57.7795 94.1043 57.5724C94.0139 57.3653 93.9672 57.1432 93.9668 56.9188C93.9664 56.6945 94.0124 56.4723 94.1021 56.2649C94.1919 56.0575 94.3236 55.8689 94.4898 55.7101C94.656 55.5512 94.8534 55.425 95.0707 55.3389C95.288 55.2527 95.521 55.2081 95.7564 55.2078C95.9909 55.2066 96.2234 55.2496 96.4403 55.3343C96.6573 55.4191 96.8546 55.5438 97.0208 55.7015C97.187 55.8591 97.3189 56.0466 97.4089 56.253C97.4988 56.4593 97.5451 56.6807 97.545 56.9042Z" fill="black"/>
<path id="Vector_26" d="M108.572 70.114C108.578 70.1816 108.573 70.2499 108.557 70.3151C108.541 70.3802 108.515 70.4408 108.48 70.4934C108.445 70.546 108.402 70.5895 108.354 70.6215C108.305 70.6535 108.252 70.6733 108.197 70.6797H108.155C108.05 70.6801 107.949 70.6316 107.872 70.5439C107.795 70.4562 107.747 70.3357 107.739 70.2066C107.739 70.1552 107.297 64.1387 107.297 60.5494C107.297 60.413 107.341 60.2822 107.419 60.1858C107.497 60.0893 107.603 60.0352 107.714 60.0352C107.824 60.0352 107.93 60.0893 108.008 60.1858C108.086 60.2822 108.13 60.413 108.13 60.5494C108.139 64.0873 108.572 70.0626 108.572 70.114Z" fill="#1D0A03"/>
<path id="Vector_27" d="M101.762 82.1758C102.952 78.0102 106.746 75.6173 110.124 76.344C112.602 76.8809 114.63 79.047 115.387 81.8518L101.762 82.1758Z" fill="#2D1929"/>
</g>
<path id="Vector_28" d="M119.967 88.9545C119.791 89.1126 115.696 92.8203 108.241 92.8203H108.054C100.485 92.7628 94.8493 87.23 94.6115 86.9929C94.5356 86.9146 94.5072 86.8186 94.5324 86.7259C94.5575 86.6331 94.6342 86.5509 94.7459 86.4971C94.8574 86.4437 94.9946 86.4228 95.128 86.4389C95.2614 86.455 95.3804 86.5069 95.4594 86.5833C95.5215 86.6408 101.033 92.0443 108.065 92.1018H108.23C115.179 92.1018 119.088 88.5593 119.14 88.5234C119.222 88.4472 119.344 88.3968 119.48 88.3833C119.616 88.3698 119.754 88.3944 119.863 88.4516C119.973 88.5087 120.046 88.5938 120.065 88.6882C120.085 88.7825 120.049 88.8783 119.967 88.9545Z" fill="#1D0A03"/>
<path id="Vector_29" d="M126.31 50.0124C126.613 50.7938 123.118 50.2927 119.113 51.9072C116.793 52.8456 113.848 54.6257 113.036 54.049C111.436 52.9437 113.619 50.8377 117.363 49.533C121.462 48.124 125.976 49.2486 126.31 50.0124Z" fill="black"/>
<path id="Vector_30" d="M104.745 53.1685C104.152 53.7276 101.053 51.8912 98.7558 50.9274C94.7398 49.2333 91.7241 49.7027 91.8134 48.9154C91.9028 48.1281 95.6933 47.0618 99.7241 48.5475C103.414 49.9192 105.919 52.0697 104.745 53.1685Z" fill="black"/>
</g>
</svg>
