<svg width="160" height="204" viewBox="0 0 160 204" fill="none" xmlns="http://www.w3.org/2000/svg">
<g id="Group 23980">
<g id="Pessimistic">
<g id="Clip path group">
<mask id="mask0_1845_34155" style="mask-type:luminance" maskUnits="userSpaceOnUse" x="71" y="84" width="21" height="37">
<g id="clip-path">
<path id="Vector" d="M91.7049 84.9453H71.7205V120.27H91.7049V84.9453Z" fill="white"/>
</g>
</mask>
<g mask="url(#mask0_1845_34155)">
<g id="Group">
<path id="Vector_2" d="M91.7049 84.9453H71.7205V120.27H91.7049V84.9453Z" fill="#FC9C86"/>
</g>
</g>
</g>
<path id="Vector_3" d="M109.34 52.9576C109.34 52.9576 108.864 30.8058 92.3942 25.1987C92.242 25.1715 92.0993 25.1579 91.9519 25.1352C83.9904 22.2116 77.237 23.3538 72.5239 25.1941H72.4906C69.9423 26.0612 67.6 27.4016 65.5992 29.1377C65.4042 29.3009 65.2996 29.3961 65.2996 29.3961C55.8733 37.809 55.5356 52.9667 55.5356 52.9667C55.4165 53.8169 55.372 54.675 55.4025 55.5323C55.5499 59.7568 58.2228 69.584 58.7982 72.9428C62.1702 83.5314 70.8545 96.5134 82.6588 95.974C96.9836 95.1581 102.748 78.4683 104.393 73.4006C106.158 67.9612 107.599 62.6624 107.841 61.8555C108.392 60.0047 108.601 58.0768 108.46 56.1578C108.764 55.0382 109.059 53.9639 109.34 52.9576Z" fill="#FC9C86"/>
<path id="Vector_4" d="M80.0431 107.31C80.0431 107.31 49.8191 98.6299 42.105 111.335C34.8522 123.279 55.8972 204 55.8972 204H114.034C114.034 204 130.765 122.477 123.802 109.051C116.298 94.5776 80.0431 107.31 80.0431 107.31Z" fill="#639B3F"/>
<path id="Vector_5" d="M74.6499 106.051C74.6499 106.051 37.6868 92.2393 34.7 113.036C32.0224 131.82 41.8149 204 41.8149 204H68.9999L74.6499 106.051Z" fill="#639B3F"/>
<path id="Vector_6" d="M92.0613 105.688C92.0613 105.688 128.23 93.4808 131.165 114.196C133.809 132.835 124.606 204 124.606 204H98.0633L92.0613 105.688Z" fill="#639B3F"/>
<path id="Vector_7" d="M71.7061 105.035C71.9581 111.254 76.9376 115.719 81.6935 115.66C86.887 115.592 90.4254 110.22 91.3528 106.44C91.5422 105.662 91.6442 104.868 91.6572 104.069C89.2836 102.868 86.6751 102.147 83.9954 101.953C79.6574 101.69 75.3468 102.772 71.7061 105.035Z" fill="#FC9C86"/>
<path id="Vector_8" d="M58.1136 60.0924L60.6628 48.1348C60.6628 48.1348 64.7719 47.3778 66.3699 40.5559C67.9679 33.7341 72.3339 34.3687 78.6926 36.5172C85.0513 38.6658 88.3233 29.1876 88.3233 29.1876C88.3233 29.1876 96.4084 27.8006 97.2122 35.6288C98.0159 43.4569 103.609 44.5901 103.609 44.5901L105.64 60.8176H111.161L112.269 50.927C112.269 50.927 118.053 48.3886 116.726 41.5668C115.399 34.7449 113.335 39.5451 109.268 29.8222C105.202 20.0994 94.6107 18.327 88.6277 19.9679C88.6277 19.9679 74.5549 16.2329 63.5544 19.4285C57.9852 21.0467 55.8498 23.0094 55.1554 24.9177C54.4611 26.8261 55.845 27.6374 55.4075 29.9492C54.5657 34.4185 49.0393 35.0123 47.9169 38.9151C47.4651 40.5015 47.6173 43.049 50.9654 46.9971L52.6919 60.8176L58.1136 60.0924Z" fill="#2D1929"/>
<path id="Vector_9" d="M64.6576 60.3101C62.8741 56.1127 58.4749 53.8372 54.8651 55.2333C51.2553 56.6294 49.743 61.1668 51.5359 65.3687C53.3289 69.5706 57.7187 71.837 61.3284 70.4409C64.9382 69.0448 66.4363 64.5256 64.6576 60.3101Z" fill="#FC9C86"/>
<path id="Vector_10" d="M108.146 55.2509C104.517 53.8548 100.137 56.1303 98.3536 60.3277C96.5701 64.525 98.073 69.0624 101.683 70.4585C105.292 71.8546 109.696 69.5837 111.475 65.3863C113.254 61.1889 111.77 56.6516 108.146 55.2509Z" fill="#FC9C86"/>
<path id="Vector_11" d="M156.918 82.4027L149.252 81.1607C149.252 81.1607 145.385 82.7608 143.235 85.3218C140.225 88.8937 140.857 93.567 139.14 93.8027C138.256 93.9206 137.428 92.8327 136.991 92.2616C134.76 89.3288 136.158 84.9275 136.515 83.8169C137.124 81.895 137.633 81.6729 137.362 81.0474C136.625 79.3476 132.577 80.2859 126.575 78.2098C123.18 77.0358 122.904 76.1837 122.837 75.7984C122.595 74.4385 123.983 73.0152 125.943 72.6254C125.943 72.6254 120.63 69.7244 126.209 67.5441C126.209 67.5441 121.872 64.2035 127.046 62.8119C126.67 62.4402 125.648 61.3342 125.943 60.2282C126.085 59.7701 126.389 59.3729 126.804 59.104C128.644 57.7759 136.957 56.4388 147.73 61.2617C149.224 61.9293 150.678 62.6754 152.086 63.4963L160 65.3593C159.848 67.2087 159.634 69.1397 159.339 71.1477C158.778 74.9437 157.97 78.7026 156.918 82.4027Z" fill="#4EABD5"/>
<path id="Vector_12" d="M9.29411 93.9617L16.233 90.4624C16.233 90.4624 20.4706 90.825 23.3907 92.6245C27.4665 95.1357 28.3987 99.8136 30.1394 99.5099C31.0287 99.3512 31.4568 98.0639 31.6851 97.384C32.8455 93.8937 30.0395 90.0998 29.3071 89.1434C28.0801 87.4889 27.5189 87.4299 27.5712 86.75C27.7091 84.8961 31.9038 84.5652 36.9594 80.7577C39.813 78.6046 39.813 77.7025 39.7369 77.3172C39.5181 75.9574 37.7108 74.9919 35.7086 75.2322C35.7086 75.2322 39.832 70.8444 33.7539 70.4455C33.7539 70.4455 36.7977 65.9127 31.3759 66.162C31.6137 65.7087 32.2225 64.3489 31.5709 63.3517C31.2815 62.9566 30.8583 62.6685 30.3724 62.5358C28.1609 61.8196 19.7524 63.0616 11.0205 70.9532C9.81303 72.0449 8.66985 73.1996 7.59624 74.4117L0.633545 78.6C1.39449 80.3225 2.24581 82.1084 3.20175 83.9442C5.01145 87.4012 7.0462 90.7469 9.29411 93.9617Z" fill="#B9D3ED"/>
<path id="Vector_13" d="M0.0911128 27.6736L7.18697 28.0271C7.18697 28.0271 10.3021 30.1893 11.6956 32.8772C13.636 36.6395 12.0761 40.6827 13.598 41.2222C14.3637 41.4941 15.3291 40.6827 15.838 40.2521C18.4395 38.0583 18.1066 33.8654 18.0258 32.8093C17.8783 30.9961 17.4741 30.6834 17.845 30.1757C18.858 28.8158 22.2728 30.4023 28.0655 29.6861C31.3376 29.2782 31.7609 28.5711 31.8988 28.2402C32.3744 27.0798 31.4565 25.5205 29.7872 24.836C29.7872 24.836 35.1281 23.2541 30.6052 20.2534C30.6052 20.2534 35.1709 18.0912 30.843 15.8701C31.2568 15.6118 32.3982 14.8185 32.3697 13.7714C32.3356 13.336 32.146 12.9248 31.8322 12.6065C30.4673 11.0744 23.3286 8.30941 12.6943 10.5713C11.2219 10.8849 9.7691 11.2769 8.34266 11.7453L0.894867 11.913C0.642803 13.5901 0.419273 15.3534 0.281351 17.1983C-0.0128747 20.6828 -0.0764138 24.1815 0.0911128 27.6736Z" fill="#4EABD5"/>
<path id="Vector_14" d="M144.524 15.7659L137.537 16.9218C137.537 16.9218 134.684 19.4194 133.652 22.2343C132.197 26.1869 134.246 30.0262 132.82 30.7287C132.097 31.0868 131.036 30.3933 130.48 30.0216C127.626 28.1405 127.426 23.9386 127.379 22.8779C127.293 21.0648 127.659 20.7112 127.227 20.2489C126.047 18.9933 122.856 20.9741 117.02 20.9197C113.72 20.888 113.216 20.2308 113.03 19.918C112.393 18.8256 113.135 17.1983 114.704 16.2917C114.704 16.2917 109.202 15.3263 113.32 11.8315C113.32 11.8315 108.517 10.2042 112.535 7.50715C112.093 7.29411 110.857 6.64139 110.757 5.59884C110.736 5.16181 110.874 4.73134 111.147 4.37952C112.312 2.70238 119.056 -0.851347 129.895 0.186666C131.395 0.333005 132.886 0.556954 134.36 0.857522L141.78 0.177601C142.255 1.81395 142.664 3.54548 143.05 5.3586C143.768 8.79507 144.26 12.271 144.524 15.7659Z" fill="#B9D3ED"/>
</g>
<path id="Vector_15" d="M82.3654 74.1883C82.374 74.2632 82.3663 74.3388 82.3428 74.4109C82.3193 74.483 82.2805 74.5501 82.2285 74.6083C82.1766 74.6666 82.1126 74.7148 82.0402 74.7502C81.9678 74.7856 81.8885 74.8075 81.8069 74.8146H81.7448C81.5885 74.8151 81.4377 74.7614 81.3227 74.6643C81.2076 74.5671 81.1368 74.4338 81.1242 74.2908C81.1242 74.2339 80.4664 67.5726 80.4664 63.5986C80.4664 63.4476 80.5318 63.3028 80.6482 63.1961C80.7646 63.0893 80.9224 63.0293 81.087 63.0293C81.2516 63.0293 81.4095 63.0893 81.5258 63.1961C81.6422 63.3028 81.7076 63.4476 81.7076 63.5986C81.72 67.5157 82.3654 74.1314 82.3654 74.1883Z" fill="#1D0A03"/>
<path id="Vector_16" d="M87.4542 80.7122C87.4007 80.7678 87.3358 80.813 87.2632 80.8454C87.1906 80.8777 87.1117 80.8965 87.0311 80.9007C86.9506 80.9049 86.8699 80.8943 86.7938 80.8697C86.7177 80.845 86.6476 80.8067 86.5878 80.757C85.5505 79.9169 84.4278 79.4912 83.2319 79.5697C80.7425 79.7153 78.7168 81.8436 78.6923 81.866C78.6356 81.9285 78.5648 81.9789 78.4847 82.0138C78.4046 82.0486 78.3172 82.067 78.2286 82.0677C78.0814 82.0673 77.939 82.0198 77.8259 81.9332C77.7646 81.885 77.7143 81.826 77.6779 81.7597C77.6416 81.6935 77.62 81.6213 77.6143 81.5473C77.6086 81.4733 77.619 81.399 77.6449 81.3287C77.6707 81.2585 77.7115 81.1936 77.7649 81.1379C77.8625 81.0371 80.1445 78.6175 83.1465 78.4495C84.6841 78.3711 86.0996 78.864 87.3932 79.9281C87.5135 80.0253 87.5873 80.162 87.5987 80.3087C87.6101 80.4554 87.5582 80.6004 87.4542 80.7122Z" fill="#1D0A03"/>
<path id="Vector_17" d="M96.0397 90.3574C95.8336 90.593 91.0309 96.119 82.2866 96.119H82.0683C73.1906 96.0333 66.5808 87.7871 66.3019 87.4337C66.2129 87.3169 66.1796 87.174 66.2091 87.0357C66.2386 86.8974 66.3286 86.7749 66.4595 86.6948C66.5903 86.6151 66.7512 86.584 66.9077 86.608C67.0642 86.632 67.2037 86.7093 67.2964 86.8233C67.3691 86.9089 73.8333 94.9624 82.0804 95.0481H82.2744C90.4245 95.0481 95.0088 89.7684 95.0695 89.7148C95.166 89.6012 95.3096 89.5261 95.4688 89.506C95.628 89.4859 95.7898 89.5225 95.9184 89.6077C96.0471 89.6929 96.1322 89.8198 96.1549 89.9603C96.1777 90.1009 96.1362 90.2437 96.0397 90.3574Z" fill="#1D0A03"/>
<path id="Vector_18" d="M54.3162 45.7155C54.0894 45.7172 53.8693 45.6416 53.6959 45.5023C53.5224 45.363 53.4068 45.1691 53.3701 44.9558C53.3334 44.7424 53.3779 44.5236 53.4955 44.3387C53.6132 44.1539 53.7963 44.0152 54.0118 43.9477C59.172 42.3114 59.6429 34.5195 59.6476 34.4288C59.6537 34.3097 59.6844 34.1929 59.7379 34.0851C59.7914 33.9774 59.8667 33.8807 59.9595 33.8007C60.0523 33.7207 60.1607 33.6589 60.2786 33.6189C60.3964 33.5789 60.5214 33.5615 60.6464 33.5676C60.897 33.5805 61.1322 33.6873 61.3006 33.8648C61.4689 34.0422 61.5569 34.2759 61.5452 34.5149C61.5452 34.8866 61.0078 43.6259 54.6158 45.6566C54.5199 45.6915 54.4188 45.7114 54.3162 45.7155Z" fill="white"/>
<path id="Vector_19" d="M111.594 44.168C111.707 44.2227 111.831 44.2557 111.957 44.2653C112.084 44.2749 112.211 44.2608 112.331 44.2237C112.452 44.1867 112.563 44.1275 112.659 44.0494C112.755 43.9714 112.834 43.8762 112.891 43.7691C112.948 43.662 112.982 43.5452 112.991 43.4253C113.001 43.3054 112.985 43.1848 112.945 43.0704C112.906 42.956 112.842 42.85 112.76 42.7584C112.677 42.6669 112.576 42.5916 112.463 42.5369C112.336 42.4801 99.8956 35.8968 98.2903 25.1427C98.2539 24.902 98.1184 24.6844 97.9134 24.5376C97.7084 24.3909 97.4508 24.327 97.1973 24.3601C96.9438 24.3932 96.7151 24.5205 96.5616 24.7141C96.408 24.9077 96.3421 25.1516 96.3785 25.3922C98.1067 37.0448 110.996 43.8545 111.544 44.1403L111.594 44.168Z" fill="white"/>
<path id="Vector_20" d="M54.3819 202.64H54.343C54.2703 202.635 54.1994 202.618 54.1345 202.59C54.0696 202.562 54.0119 202.524 53.9647 202.477C53.9175 202.431 53.8818 202.377 53.8596 202.319C53.8373 202.26 53.829 202.199 53.8351 202.138C55.8614 181.952 54.8565 147.246 54.8454 146.898C54.8454 146.774 54.9039 146.656 55.008 146.569C55.1122 146.482 55.2533 146.433 55.4006 146.433C55.5454 146.433 55.6846 146.48 55.7883 146.565C55.892 146.65 55.9521 146.765 55.9557 146.886C55.9557 147.234 56.9744 181.989 54.9426 202.227C54.9274 202.341 54.8615 202.447 54.7578 202.524C54.6541 202.6 54.5201 202.642 54.3819 202.64Z" fill="#1D0A03"/>
<path id="Vector_21" d="M110.347 204C110.203 204 110.065 203.954 109.961 203.871C109.857 203.788 109.796 203.675 109.79 203.555C109.088 190.953 109.79 139.262 109.79 138.74C109.79 138.617 109.848 138.498 109.953 138.411C110.057 138.323 110.199 138.274 110.347 138.274C110.494 138.274 110.636 138.323 110.741 138.411C110.845 138.498 110.904 138.617 110.904 138.74C110.904 139.262 110.202 190.928 110.904 203.502C110.911 203.625 110.859 203.745 110.759 203.837C110.66 203.928 110.522 203.982 110.374 203.989L110.347 204Z" fill="#1D0A03"/>
<path id="Vector_22" d="M57.4135 64.5744C57.3934 64.899 57.9159 65.5005 58.3077 65.806C58.3589 65.8464 58.4012 65.8962 58.432 65.9523C58.4628 66.0084 58.4816 66.0698 58.4872 66.1329C58.4928 66.196 58.4852 66.2595 58.4647 66.3197C58.4442 66.38 58.4114 66.4357 58.368 66.4838C58.3213 66.5371 58.263 66.58 58.197 66.6097C58.1311 66.6394 58.0592 66.6551 57.9862 66.6556C57.865 66.6553 57.7477 66.6148 57.6547 66.5411C57.4437 66.3692 56.3586 65.4527 56.3988 64.5172C56.4389 63.8202 57.0317 63.4002 57.5642 63.1997C57.4336 61.93 56.8911 60.3929 56.0371 59.7438C55.8828 59.6216 55.7014 59.5341 55.5066 59.4878C55.3118 59.4415 55.1084 59.4376 54.9118 59.4765C54.8471 59.489 54.7805 59.4893 54.7157 59.4774C54.651 59.4654 54.5893 59.4415 54.5342 59.4069C54.4231 59.3371 54.3456 59.2282 54.319 59.1041C54.2923 58.9801 54.3187 58.851 54.3921 58.7454C54.4656 58.6397 54.5803 58.5662 54.7108 58.5409C55.0512 58.4754 55.4025 58.4826 55.7396 58.5618C56.0767 58.6411 56.391 58.7904 56.66 58.9991C57.9159 59.9347 58.5287 61.9968 58.589 63.5147C58.5919 63.6251 58.5544 63.733 58.4829 63.82C58.4115 63.907 58.3105 63.9678 58.1972 63.9921C58.0465 64.0398 57.4336 64.2403 57.4135 64.5744Z" fill="#1D0A03"/>
<path id="Vector_23" d="M109.471 58.6332C109.459 58.6955 109.434 58.755 109.397 58.8081C109.361 58.8612 109.313 58.9068 109.258 58.9424C109.203 58.978 109.14 59.0028 109.075 59.0153C109.009 59.0278 108.942 59.0279 108.876 59.0154C108.679 58.976 108.475 58.9796 108.279 59.026C108.084 59.0724 107.902 59.1603 107.747 59.283C106.891 59.9329 106.346 61.4716 106.215 62.7428C106.739 62.9435 107.334 63.364 107.374 64.0617C107.435 64.9983 106.346 65.9158 106.114 66.0878C106.026 66.1628 105.911 66.2038 105.792 66.2025C105.691 66.1978 105.594 66.1645 105.513 66.1069C105.433 66.0493 105.372 65.97 105.339 65.8794C105.307 65.7887 105.304 65.6909 105.331 65.5985C105.357 65.5062 105.413 65.4236 105.49 65.3614C105.863 65.0556 106.407 64.4535 106.387 64.119C106.366 63.7845 105.752 63.5838 105.59 63.5456C105.477 63.5213 105.375 63.4604 105.304 63.3733C105.232 63.2862 105.194 63.1782 105.197 63.0677C105.258 61.5481 105.883 59.4837 107.132 58.5471C107.4 58.3378 107.714 58.188 108.05 58.1086C108.387 58.0292 108.738 58.0223 109.078 58.0884C109.205 58.1138 109.316 58.1846 109.389 58.2861C109.463 58.3875 109.492 58.5118 109.471 58.6332Z" fill="#1D0A03"/>
<path id="Vector_24" d="M93.7063 58.1717C93.705 58.4583 93.6148 58.738 93.447 58.9758C93.2792 59.2136 93.0413 59.3987 92.7633 59.5079C92.4854 59.617 92.1797 59.6454 91.8849 59.5893C91.59 59.5333 91.3192 59.3953 91.1064 59.1929C90.8937 58.9904 90.7486 58.7324 90.6893 58.4515C90.6301 58.1706 90.6594 57.8792 90.7735 57.6141C90.8877 57.3491 91.0816 57.1221 91.3308 56.9618C91.58 56.8016 91.8735 56.7152 92.1741 56.7135C92.3754 56.7124 92.575 56.7494 92.7613 56.8222C92.9476 56.8951 93.1168 57.0024 93.2593 57.138C93.4018 57.2736 93.5147 57.4348 93.5914 57.6122C93.6681 57.7896 93.7072 57.9798 93.7063 58.1717Z" fill="black"/>
<path id="Vector_25" d="M98.9448 50.0601C98.9478 50.9457 96.2747 49.3842 92.5338 49.8204C90.3658 50.0762 87.4305 50.9995 86.9524 50.1688C86.0001 48.5634 88.4198 47.0794 91.8539 46.8798C95.607 46.6808 98.911 49.1829 98.9448 50.0601Z" fill="black"/>
<path id="Vector_26" d="M73.7035 58.1338C73.7065 58.3252 73.6694 58.5151 73.5945 58.6927C73.5196 58.8703 73.4083 59.0318 73.2672 59.168C73.1261 59.3041 72.958 59.4122 72.7726 59.4857C72.5873 59.5593 72.3884 59.597 72.1876 59.5966C71.9874 59.5969 71.7892 59.5596 71.6042 59.4869C71.4192 59.4141 71.251 59.3074 71.1092 59.1727C70.9675 59.0381 70.8549 58.8781 70.7781 58.702C70.7012 58.5259 70.6615 58.337 70.6611 58.1463C70.6608 57.9555 70.6999 57.7666 70.7762 57.5902C70.8525 57.4139 70.9645 57.2536 71.1058 57.1185C71.2471 56.9834 71.415 56.8762 71.5997 56.8029C71.7845 56.7296 71.9827 56.6917 72.1828 56.6914C72.3822 56.6904 72.5798 56.727 72.7643 56.799C72.9488 56.8711 73.1165 56.9772 73.2579 57.1112C73.3992 57.2453 73.5113 57.4046 73.5878 57.5801C73.6643 57.7556 73.7036 57.9438 73.7035 58.1338Z" fill="black"/>
<path id="Vector_27" d="M77.6442 49.2272C77.3001 50.1073 74.2416 49.6398 72.0791 49.7168C68.2968 49.8414 65.9181 51.789 65.7835 50.9079C65.649 50.0269 68.5125 47.0718 72.252 46.7183C75.6786 46.4068 78.3273 47.4938 77.6442 49.2272Z" fill="black"/>
</g>
</svg>
