<svg width="152" height="187" viewBox="0 0 152 187" fill="none" xmlns="http://www.w3.org/2000/svg">
<g id="Group 23985">
<g id="Group 23984">
<path id="Vector" d="M56.9805 66.5689L54.498 68.1418L52.2917 63.7474L53.7424 62.6366L56.7172 62.3389L56.9805 66.5689Z" fill="#FC9C86"/>
<path id="Vector_2" d="M29.9683 49.8512C31.3483 49.5239 32.7897 49.6008 34.1293 50.0734C35.0645 50.4174 35.9218 50.9541 36.6485 51.6507C39.1063 53.9612 39.198 57.2837 40.2623 61.7591C40.9102 64.4628 41.7898 67.1021 42.8905 69.6459C44.878 68.427 46.9224 67.0881 49.0235 65.6292C50.1454 64.8457 51.229 64.063 52.2746 63.281C52.3852 63.1981 52.5114 63.1401 52.6451 63.1105C52.7788 63.0808 52.917 63.0804 53.0509 63.109C53.1848 63.1377 53.3113 63.1949 53.4225 63.2769C53.5336 63.3589 53.6268 63.464 53.6961 63.5853C54.7539 65.4433 55.8124 67.3017 56.8716 69.1605C55.761 70.9034 52.878 74.8923 47.6247 76.9751C45.6224 77.765 43.5037 78.1967 41.36 78.2514L27.6326 63.0332L29.9683 49.8512Z" fill="#639B3F"/>
<path id="Vector_3" d="M42.4395 186.999C42.3659 186.999 42.2934 186.98 42.2289 186.943C42.1645 186.907 42.1103 186.854 42.0715 186.789L22.4841 154.196L2.89678 186.789C2.83652 186.89 2.74001 186.961 2.62848 186.988C2.51694 187.015 2.39952 186.996 2.30205 186.934C2.20458 186.872 2.13503 186.772 2.10872 186.657C2.0824 186.543 2.10147 186.422 2.16173 186.322L21.9757 153.35L2.16173 120.38C2.12135 120.313 2.0992 120.236 2.09754 120.157C2.09589 120.077 2.11481 119.999 2.15233 119.93C2.18986 119.861 2.24463 119.804 2.31099 119.764C2.37735 119.724 2.45289 119.703 2.52979 119.703H42.4395C42.5163 119.703 42.5917 119.724 42.6579 119.764C42.7241 119.804 42.7788 119.862 42.8162 119.931C42.8536 120 42.8724 120.078 42.8707 120.157C42.869 120.236 42.8468 120.313 42.8065 120.38L22.9914 153.35L42.8054 186.322C42.8457 186.389 42.8679 186.466 42.8696 186.545C42.8713 186.624 42.8526 186.702 42.8154 186.771C42.7781 186.84 42.7236 186.897 42.6576 186.937C42.5915 186.978 42.5162 186.999 42.4395 186.999ZM3.3037 120.591L22.4841 152.506L41.6645 120.591H3.3037Z" fill="#1D0A03"/>
<path id="Vector_4" d="M44.1446 115.606H0.821927C0.460082 115.606 0.166748 115.908 0.166748 116.28V124.013C0.166748 124.385 0.460082 124.687 0.821927 124.687H44.1446C44.5065 124.687 44.7998 124.385 44.7998 124.013V116.28C44.7998 115.908 44.5065 115.606 44.1446 115.606Z" fill="#40C2D6"/>
<path id="Vector_5" d="M46.954 159.455L40.3439 173.733C40.2548 173.925 40.2235 174.14 40.2541 174.351C40.2846 174.562 40.3757 174.758 40.5156 174.916L50.5343 186.206C50.6316 186.316 50.7501 186.403 50.8823 186.464C51.0144 186.524 51.1573 186.555 51.3017 186.555H59.3074C59.4812 186.555 59.6523 186.51 59.805 186.425C59.9577 186.339 60.0871 186.215 60.1814 186.065C60.2756 185.915 60.3318 185.743 60.3447 185.564C60.3576 185.386 60.3268 185.207 60.2551 185.044L56.3812 176.211C56.3162 176.063 56.2848 175.902 56.2893 175.739C56.2938 175.577 56.3341 175.418 56.4071 175.274L60.7246 166.77C60.852 166.518 60.8769 166.224 60.7939 165.954C60.7109 165.683 60.5268 165.457 60.2821 165.326L48.3755 158.965C48.2515 158.899 48.1156 158.858 47.9761 158.847C47.8366 158.836 47.6963 158.853 47.5635 158.899C47.4308 158.945 47.3084 159.018 47.2037 159.113C47.099 159.209 47.014 159.325 46.954 159.455Z" fill="#1D0A03"/>
<path id="Vector_6" d="M72.2098 171.925L75.8678 185.765C75.9276 185.992 76.0583 186.192 76.2397 186.335C76.4212 186.478 76.6432 186.555 76.8716 186.555H94.9943C95.173 186.555 95.3487 186.507 95.5045 186.417C95.6602 186.327 95.7908 186.197 95.8836 186.039C95.9764 185.882 96.0283 185.703 96.0344 185.519C96.0404 185.335 96.0004 185.153 95.9182 184.99C95.6434 184.439 95.3158 183.918 94.9403 183.434C93.1842 181.175 90.8743 180.427 89.6265 180.169C89.4358 180.13 89.2596 180.036 89.1183 179.898C88.977 179.761 88.8763 179.585 88.8278 179.391C87.7981 175.254 86.768 171.116 85.7376 166.978C85.7015 166.832 85.6361 166.696 85.5456 166.579C85.4551 166.461 85.3416 166.364 85.2124 166.295C85.0832 166.225 84.9413 166.184 84.7958 166.175C84.6503 166.166 84.5045 166.188 84.3678 166.24L72.851 170.646C72.6085 170.739 72.4085 170.921 72.2899 171.158C72.1713 171.394 72.1428 171.668 72.2098 171.925Z" fill="#1D0A03"/>
<path id="Vector_7" d="M69.2875 82.8169L55.3345 76.9696C54.9319 76.8007 54.6934 76.032 54.7948 75.2511L58.795 45.178C58.9029 44.4005 59.3347 43.7229 59.7664 43.6718L74.7329 41.8945C75.3946 41.8156 75.8328 42.551 75.7044 43.5363L70.6497 81.5028C70.518 82.4892 69.9038 83.0757 69.2875 82.8169Z" fill="#1D0A03"/>
<path id="Vector_8" d="M56.1048 75.8319C56.0829 75.7001 56.0811 75.5655 56.0994 75.4331L60.0996 45.3611C60.1162 45.2288 60.1526 45.0999 60.2075 44.979L74.4023 43.2983C74.4023 43.3172 69.339 81.3593 69.3357 81.3782L56.1048 75.8319Z" fill="#4EABD5"/>
<path id="Vector_9" d="M58.1118 59.5485C58.1019 59.9867 58.0033 60.418 57.8226 60.8148C57.3433 61.8901 56.795 61.979 56.3892 62.9032C56.2285 63.2783 56.1349 63.6802 56.1128 64.0895L53.4619 62.9965C54.2448 61.9967 55.032 60.997 55.8236 59.9973C57.2354 58.7398 57.7664 58.6021 57.9694 58.7576C58.1248 58.8776 58.1205 59.1975 58.1118 59.5485Z" fill="#FC9C86"/>
<path id="Vector_10" d="M32.7722 37.3452H21.6201V55.4471H32.7722V37.3452Z" fill="#FC9C86"/>
<path id="Vector_11" d="M37.1156 37.5234C37.1156 41.5356 36.645 45.8811 33.3379 46.3743C28.2734 47.1297 19.1247 39.5228 18.3864 34.3153C18.1823 33.0631 18.2233 31.7814 18.5071 30.5457C18.7908 29.3099 19.3116 28.145 20.0388 27.1192C20.7659 26.0933 21.6849 25.2274 22.7417 24.572C23.7985 23.9167 24.9719 23.4852 26.1929 23.3029C27.414 23.1206 28.6581 23.1911 29.8523 23.5104C31.0465 23.8296 32.1667 24.3912 33.1472 25.162C34.1276 25.9329 34.9486 26.8975 35.5618 27.9993C36.1751 29.1012 36.5683 30.3179 36.7184 31.5783C36.9206 32.9768 37.0431 34.3862 37.0854 35.7994C37.1027 36.3548 37.1156 36.9369 37.1156 37.5234Z" fill="#FC9C86"/>
<path id="Vector_12" d="M34.9139 33.4224C34.9261 33.4888 34.925 33.5571 34.9109 33.6232C34.8967 33.6892 34.8697 33.7516 34.8314 33.8066C34.7932 33.8616 34.7445 33.9081 34.6884 33.9432C34.6322 33.9784 34.5697 34.0014 34.5047 34.011C34.4396 34.0206 34.3733 34.0166 34.3099 33.9991C34.2464 33.9817 34.187 33.9512 34.1352 33.9094C34.0835 33.8677 34.0405 33.8157 34.0089 33.7564C33.9772 33.6971 33.9576 33.6319 33.9511 33.5645C33.9387 33.4361 33.975 33.3077 34.0524 33.2061C34.1298 33.1045 34.2422 33.0376 34.3664 33.0192C34.4905 33.0009 34.6168 33.0326 34.7188 33.1077C34.8208 33.1828 34.8907 33.2955 34.9139 33.4224Z" fill="#1D0A03"/>
<path id="Vector_13" d="M36.1702 30.4053C36.2177 30.703 35.2981 30.2942 34.1324 30.6274C33.4632 30.8185 32.5824 31.2761 32.3881 31.0184C32.0082 30.5163 32.7033 29.8943 33.7783 29.6632C34.9527 29.41 36.1227 30.1076 36.1702 30.4053Z" fill="#1D0A03"/>
<path id="Vector_14" d="M28.5975 34.3641C28.6116 34.4621 28.5972 34.5622 28.556 34.6518C28.5148 34.7414 28.4487 34.8164 28.3661 34.8673C28.2835 34.9182 28.1881 34.9428 28.0919 34.9379C27.9958 34.933 27.9032 34.8989 27.8258 34.8398C27.7485 34.7808 27.6899 34.6994 27.6575 34.6061C27.6251 34.5128 27.6204 34.4117 27.6438 34.3156C27.6672 34.2195 27.7179 34.1327 27.7892 34.0662C27.8606 33.9996 27.9496 33.9564 28.0448 33.9419C28.1724 33.9235 28.3019 33.9574 28.4053 34.0364C28.5087 34.1154 28.5777 34.2331 28.5975 34.3641Z" fill="#1D0A03"/>
<path id="Vector_15" d="M29.1281 31.5718C29.0029 31.8695 28.0401 31.6606 27.345 31.6473C26.1361 31.6295 25.346 32.2605 25.3201 31.9583C25.2942 31.6562 26.2527 30.6787 27.4529 30.6254C28.5496 30.5654 29.3785 30.983 29.1281 31.5718Z" fill="#1D0A03"/>
<path id="Vector_16" d="M32.1979 37.9983C32.1824 38.0031 32.1665 38.0061 32.1504 38.0072C32.1005 38.0085 32.0517 37.9919 32.0123 37.9603C31.973 37.9287 31.9455 37.8841 31.9345 37.8339C31.9345 37.8117 31.3301 35.2169 31.1056 33.644C31.0982 33.5856 31.1136 33.5267 31.1484 33.4801C31.1832 33.4334 31.2346 33.4029 31.2912 33.3951C31.3193 33.3907 31.3479 33.392 31.3755 33.399C31.4031 33.406 31.429 33.4186 31.4519 33.4359C31.4747 33.4532 31.4941 33.475 31.5087 33.5001C31.5234 33.5251 31.5331 33.5528 31.5373 33.5817C31.7532 35.1369 32.3533 37.7051 32.3576 37.7317C32.3706 37.7889 32.3611 37.849 32.3312 37.8989C32.3012 37.9489 32.2533 37.9846 32.1979 37.9983Z" fill="#1D0A03"/>
<path id="Vector_17" d="M14.1934 98.1091C15.5745 89.0297 16.4903 79.8817 16.9371 70.7031C17.4962 59.014 17.0213 52.4002 21.2082 49.6287C24.6244 47.366 29.6996 48.3135 32.9247 50.4174C35.3933 52.027 38.3551 55.3328 40.2645 70.1399C41.128 76.8637 41.8393 86.4267 40.9488 98.1091H14.1934Z" fill="#E73F46"/>
<path id="Vector_18" d="M29.8414 91.9691C29.9783 91.5554 30.2574 91.2075 30.6261 90.9906C30.9948 90.7738 31.4278 90.703 31.8436 90.7916C39.9314 92.5156 46.9634 94.1107 52.6981 95.4437C62.7363 97.7764 65.5329 98.574 68.5152 100.908C74.9915 105.981 76.7886 113.962 77.9327 119.391C81.2194 134.989 84.7857 152.806 88.3346 172.8C88.4165 173.262 88.3197 173.738 88.0647 174.127C87.8097 174.516 87.417 174.787 86.9703 174.883L74.0578 177.602C73.6384 177.691 73.2016 177.618 72.8314 177.396C72.4611 177.175 72.1833 176.82 72.0513 176.401C68.6232 165.488 65.3473 153.925 62.3369 141.73C60.6538 134.917 59.1319 128.251 57.7712 121.73C57.7081 121.428 57.5702 121.149 57.3708 120.919C57.1714 120.688 56.9174 120.515 56.6335 120.416L25.8488 109.601C25.4118 109.448 25.0519 109.122 24.8481 108.696C24.6443 108.269 24.6133 107.777 24.7619 107.327L29.8414 91.9691Z" fill="#306F9F"/>
<path id="Vector_19" d="M16.4913 88.8134C16.1667 88.8612 15.8619 89.0028 15.6122 89.2216C15.3625 89.4404 15.1782 89.7275 15.0805 90.0497C13.7756 94.363 10.5688 107.074 16.827 113.301C19.5545 116.015 23.0744 116.496 30.5522 116.983C38.274 117.485 48.7526 117.896 61.4017 117.586C61.4132 117.586 61.4245 117.588 61.4347 117.594C61.445 117.599 61.4538 117.607 61.4605 117.616C61.4672 117.626 61.4715 117.637 61.4731 117.649C61.4747 117.66 61.4735 117.672 61.4697 117.683C55.8412 132.701 50.213 147.721 44.5851 162.745C44.4861 163.007 44.4487 163.29 44.4759 163.569C44.5031 163.849 44.5942 164.119 44.7416 164.355C45.8538 166.151 47.2814 167.717 48.9512 168.974C52.1472 171.374 55.4511 172.033 57.4491 172.216C57.7826 172.246 58.1176 172.177 58.4139 172.017C58.7101 171.856 58.9549 171.611 59.1188 171.31C70.7329 150.07 91.5604 108.941 81.6572 100.153C80.716 99.3161 79.4294 98.7085 59.3142 95.4949C52.906 94.4685 47.398 93.6265 43.1409 92.99C42.7558 92.9329 42.4004 92.7442 42.1319 92.4544C41.8633 92.1645 41.6972 91.7902 41.66 91.3916L41.2434 87.0016C41.2205 86.7603 41.1502 86.5262 41.0367 86.3136C40.9233 86.1011 40.7691 85.9144 40.5835 85.7649C40.398 85.6155 40.1848 85.5064 39.957 85.4442C39.7293 85.382 39.4916 85.368 39.2584 85.4032L16.4913 88.8134Z" fill="#306F9F"/>
<path id="Vector_20" d="M65.3648 63.6851C64.8251 64.0184 64.5272 64.285 63.7933 64.7293C64.5056 64.6182 65.2439 64.7026 65.4339 65.2447C65.6627 65.9023 65.5677 66.4799 65.1187 66.7599C65.8225 66.711 66.2844 67.3641 66.3147 67.6663C66.3492 68.0484 66.1376 68.6482 65.395 68.9548C65.7707 68.9015 66.2585 69.5413 66.211 70.0923C66.1722 70.5233 65.7059 70.8565 65.326 71.0298C63.6206 71.8252 62.7959 71.8918 62.0879 71.9274C60.145 72.0251 57.2523 70.8299 56.4061 68.3417C55.7412 66.3866 56.4579 64.476 57.1271 63.7118C57.7963 62.9475 58.228 62.601 59.0483 62.0589C59.4195 61.8176 59.8045 61.5995 60.2011 61.4057C61.1035 60.9703 61.6216 59.9128 62.3599 60.526C63.3011 61.3169 61.1121 63.5518 60.9221 63.7473C61.0732 63.6673 62.3253 63.0053 63.6767 62.4232C65.2785 61.7345 67.2472 60.6059 67.6056 61.1747C68.2359 62.1877 66.5564 62.9609 65.3648 63.6851Z" fill="#FC9C86"/>
<path id="Vector_21" d="M62.0838 71.9275C60.7541 72.0164 59.666 71.7054 58.6903 72.0075C57.8052 72.2741 56.7345 72.8206 56.048 73.0872C55.3615 73.3538 53.0862 68.6884 53.5093 67.0133C56.048 65.4004 57.0842 63.8452 57.0842 63.8452C59.8085 60.5528 65.9912 70.519 62.0838 71.9275Z" fill="#FC9C86"/>
<path id="Vector_22" d="M28.1159 48.4685C28.1159 48.4685 21.2079 46.2824 16.8267 52.5185C12.4456 58.7547 15.0641 62.1349 14.1931 76.8609C13.5228 88.2124 12.2405 98.0464 11.6889 101.956C11.614 102.486 11.7185 103.027 11.9848 103.486C12.2511 103.946 12.663 104.298 13.1515 104.482C16.559 105.755 24.3435 107.89 30.4063 103.759C38.4001 98.3163 40.4185 93.9131 43.1051 92.9844C43.1051 92.9844 44.2233 51.18 28.1159 48.4685Z" fill="#639B3F"/>
<path id="Vector_23" d="M24.4711 48.6581C24.2951 48.5327 24.0798 48.48 23.8678 48.5103C22.6928 48.6787 21.5596 49.0748 20.5282 49.6778C17.3073 51.5795 16.2938 54.9819 15.9517 56.1205C14.9446 59.4685 15.5199 62.4677 16.0596 64.6105C18.1536 72.825 21.0679 84.2919 29.202 86.5902C34.8838 88.1953 40.571 84.6196 48.9156 79.3777C51.7013 77.6273 54.3544 75.6625 56.8522 73.5003C56.994 73.3761 57.092 73.2072 57.131 73.0198C57.17 72.8325 57.1479 72.6371 57.0681 72.4639C56.1737 70.5015 55.2792 68.5391 54.3848 66.5766C54.2945 66.3808 54.1365 66.2267 53.9417 66.1445C53.7468 66.0623 53.5291 66.058 53.3313 66.1323L33.0392 73.6858C32.8316 73.7643 32.6024 73.7561 32.4007 73.6629C32.199 73.5697 32.0407 73.3989 31.9598 73.1871L26.3687 58.6121C26.3106 58.463 26.2942 58.3001 26.3213 58.1419C26.3484 57.9837 26.4179 57.8365 26.5219 57.7168C27.5614 56.5393 30.1432 52.7248 24.4711 48.6581Z" fill="#639B3F"/>
<path id="Vector_24" d="M32.7726 46.4273V48.76C32.7726 48.76 27.0994 48.0136 24.3535 42.6816C24.3578 42.6794 28.0191 46.3451 32.7726 46.4273Z" fill="#1D0A03"/>
<path id="Vector_25" d="M33.2268 47.4272H20.881C20.8196 47.4272 20.7698 47.4785 20.7698 47.5417V51.1551C20.7698 51.2183 20.8196 51.2696 20.881 51.2696H33.2268C33.2882 51.2696 33.338 51.2183 33.338 51.1551V47.5417C33.338 47.4785 33.2882 47.4272 33.2268 47.4272Z" fill="#639B3F"/>
<path id="Vector_26" d="M40.3645 71.1754C40.3158 71.1755 40.2685 71.1586 40.2303 71.1275C40.1921 71.0965 40.1652 71.0531 40.154 71.0043L36.646 55.4995C36.6396 55.4711 36.6386 55.4416 36.6433 55.4128C36.6479 55.384 36.658 55.3564 36.673 55.3316C36.6879 55.3068 36.7075 55.2852 36.7306 55.2682C36.7537 55.2512 36.7798 55.239 36.8074 55.2324C36.835 55.2257 36.8637 55.2248 36.8917 55.2295C36.9197 55.2343 36.9465 55.2447 36.9706 55.2601C36.9947 55.2755 37.0156 55.2957 37.0322 55.3194C37.0487 55.3431 37.0605 55.37 37.067 55.3984L40.5749 70.9032C40.5813 70.9317 40.5822 70.9611 40.5775 70.9899C40.5729 71.0187 40.5627 71.0463 40.5477 71.071C40.5326 71.0958 40.513 71.1173 40.4899 71.1342C40.4668 71.1512 40.4407 71.1633 40.413 71.1698C40.3971 71.1738 40.3808 71.1757 40.3645 71.1754Z" fill="#1D0A03"/>
<path id="Vector_27" d="M32.2682 74.1904C32.2339 74.1906 32.2 74.1823 32.1694 74.1663C32.1388 74.1502 32.1124 74.1269 32.0923 74.0983C32.0566 74.046 28.5476 68.9196 27.4186 63.0801C26.3338 57.4738 22.9101 57.1828 22.7643 57.1728C22.7071 57.1692 22.6535 57.1424 22.6155 57.0983C22.5774 57.0541 22.558 56.9962 22.5614 56.9373C22.5649 56.8783 22.5909 56.8232 22.6338 56.7841C22.6767 56.7449 22.733 56.7249 22.7902 56.7284C22.9489 56.7384 26.6889 57.0317 27.8417 62.9923C28.8509 68.2131 31.79 72.8497 32.3513 73.7006L53.2285 65.9249C53.2819 65.9067 53.34 65.9108 53.3905 65.936C53.4411 65.9613 53.48 66.0059 53.4991 66.0603C53.5183 66.1147 53.516 66.1746 53.4929 66.2273C53.4698 66.28 53.4276 66.3213 53.3753 66.3425L32.3416 74.1738C32.3184 74.1841 32.2935 74.1898 32.2682 74.1904Z" fill="#1D0A03"/>
<path id="Vector_28" d="M31.6315 86.6466C29.8236 86.6466 27.9703 86.2545 25.9961 85.3281C23.4315 84.1217 21.0915 81.2991 19.0396 76.9392C18.1075 74.947 17.3346 72.88 16.7286 70.7586C16.7189 70.7296 16.7151 70.6989 16.7175 70.6683C16.7199 70.6378 16.7283 70.6081 16.7424 70.581C16.7565 70.554 16.7759 70.5303 16.7993 70.5113C16.8227 70.4924 16.8497 70.4787 16.8785 70.471C16.9074 70.4633 16.9374 70.4618 16.9669 70.4667C16.9963 70.4715 17.0244 70.4826 17.0494 70.4992C17.0745 70.5158 17.096 70.5375 17.1124 70.563C17.1289 70.5886 17.1401 70.6173 17.1453 70.6475C17.1755 70.7586 20.2668 82.15 26.1764 84.9293C31.937 87.6374 36.7056 85.6135 42.341 82.6843C42.3664 82.6701 42.3943 82.6613 42.4231 82.6584C42.4519 82.6555 42.4809 82.6586 42.5085 82.6675C42.5361 82.6764 42.5617 82.6909 42.5837 82.7101C42.6058 82.7293 42.6238 82.7529 42.6368 82.7795C42.6499 82.8061 42.6576 82.8351 42.6595 82.8647C42.6614 82.8944 42.6575 82.9242 42.648 82.9523C42.6386 82.9804 42.6237 83.0063 42.6043 83.0284C42.585 83.0505 42.5615 83.0683 42.5353 83.0809C38.7035 85.067 35.2614 86.6466 31.6315 86.6466Z" fill="#1D0A03"/>
<path id="Vector_29" d="M33.3376 40.949C33.3376 41.4022 32.8885 41.7755 32.3316 41.7755C31.7746 41.7755 31.3213 41.4022 31.3213 40.949C31.3213 40.4958 31.7703 40.1226 32.3273 40.1226C32.8842 40.1226 33.3376 40.4913 33.3376 40.949Z" fill="#1D0A03"/>
<path id="Vector_30" d="M36.3945 30.0856C35.0604 27.6507 33.912 27.0776 33.0701 27.0465C31.9648 27.0109 31.2913 27.9218 30.2249 27.6507C29.288 27.4108 28.7137 26.4288 28.364 25.6202C28.364 25.6202 26.6845 25.2469 26.4212 27.2731C26.1578 29.2992 26.7061 31.3298 24.3531 31.8185C22.0001 32.3073 23.5414 34.5867 21.8619 35.7064C20.1824 36.8261 22.557 38.0213 22.7729 40.1274C22.9888 42.2335 22.557 43.6554 20.2385 42.4157C17.92 41.176 15.4418 36.5684 15.3943 34.0002C15.3943 34.0002 13.8659 34.9643 13.3737 32.0407C12.8815 29.117 16.8925 27.5974 17.7042 24.2161C18.5159 20.8348 23.9947 19.8217 26.6802 21.1725C26.6802 21.1725 30.2939 18.8886 33.3335 20.5948C36.373 22.301 36.2046 25.6246 37.5214 26.6377C38.8382 27.6507 36.3945 30.0856 36.3945 30.0856Z" fill="#1D0A03"/>
<path id="Vector_31" d="M21.7062 39.323C20.5664 40.0073 18.9862 39.4075 18.1745 37.9812C17.3628 36.5549 17.6348 34.8398 18.779 34.1511C19.9231 33.4624 21.5033 34.0711 22.3107 35.4974C23.118 36.9237 22.8504 38.6388 21.7062 39.323Z" fill="#FC9C86"/>
<path id="Vector_32" d="M21.8319 37.7853C21.8319 37.8443 21.8091 37.9008 21.7686 37.9424C21.7281 37.9841 21.6732 38.0075 21.616 38.0075H21.6074C21.2835 38.0075 20.6359 37.8209 20.4719 37.1188C20.3639 36.6567 20.7395 36.3324 21.0979 36.1547C20.8173 35.7592 20.1696 34.9861 19.4961 35.1194C18.8485 35.2482 18.9564 36.008 18.9694 36.088C18.9795 36.1457 18.967 36.2052 18.9346 36.2535C18.9023 36.3018 18.8527 36.3349 18.7967 36.3457C18.7406 36.3561 18.6828 36.3432 18.6359 36.31C18.589 36.2767 18.5568 36.2256 18.5463 36.168C18.4642 35.7325 18.5463 34.8572 19.4098 34.6839C20.5971 34.4484 21.5685 36.0747 21.6074 36.1458C21.6249 36.1739 21.6356 36.2059 21.6386 36.2391C21.6416 36.2724 21.6368 36.3059 21.6246 36.3368C21.6142 36.3691 21.5961 36.3982 21.572 36.4215C21.5478 36.4448 21.5185 36.4615 21.4865 36.4701C21.344 36.5146 20.8259 36.7412 20.8906 37.0122C21.0159 37.5587 21.5858 37.5676 21.6074 37.5676C21.6361 37.5664 21.6647 37.5711 21.6916 37.5815C21.7185 37.5919 21.7432 37.6076 21.7641 37.6279C21.785 37.6482 21.8017 37.6726 21.8134 37.6996C21.825 37.7266 21.8313 37.7558 21.8319 37.7853Z" fill="#1D0A03"/>
<path id="Vector_33" d="M22.3384 31.6582C22.2204 31.6578 22.1026 31.6503 21.9855 31.636C21.9282 31.6289 21.876 31.5987 21.8404 31.552C21.8048 31.5054 21.7886 31.4461 21.7955 31.3871C21.8024 31.3282 21.8317 31.2745 21.877 31.2379C21.9224 31.2012 21.98 31.1846 22.0373 31.1916C22.6417 31.2661 23.1415 31.1161 23.5246 30.7395C24.2921 29.9864 24.4734 28.4612 24.3881 27.2871C24.2284 25.1033 25.5916 24.9466 25.6057 24.9444C25.6625 24.9403 25.7187 24.9589 25.7625 24.9964C25.8063 25.0338 25.8344 25.0872 25.841 25.1455C25.8461 25.2037 25.8287 25.2617 25.7925 25.3069C25.7563 25.352 25.7043 25.3806 25.6478 25.3865C25.6035 25.3932 24.6925 25.5276 24.8188 27.2538C24.9408 28.9067 24.5684 30.3296 23.8236 31.0617C23.6265 31.2569 23.3938 31.4102 23.1389 31.5125C22.884 31.6149 22.612 31.6644 22.3384 31.6582Z" fill="white"/>
<path id="Vector_34" d="M20.8419 30.5719C20.7846 30.5719 20.7297 30.5485 20.6892 30.5068C20.6487 30.4652 20.626 30.4087 20.626 30.3497C20.626 30.2908 20.6487 30.2343 20.6892 30.1926C20.7297 30.151 20.7846 30.1276 20.8419 30.1276C21.5564 30.1187 22.0788 29.8876 22.3951 29.4433C23.1355 28.3991 22.5796 26.4919 22.5742 26.473C22.5606 26.4177 22.5682 26.3592 22.5954 26.3095C22.6226 26.2598 22.6673 26.2227 22.7203 26.206C22.7733 26.1893 22.8305 26.1942 22.88 26.2197C22.9296 26.2452 22.9677 26.2894 22.9866 26.343C23.0125 26.4297 23.6115 28.4791 22.7448 29.7032C22.3443 30.2686 21.7053 30.5608 20.8472 30.5719H20.8419Z" fill="white"/>
<path id="Vector_35" d="M35.8809 27.906C35.8279 27.9064 35.7765 27.8867 35.7367 27.8506C35.6969 27.8145 35.6714 27.7647 35.665 27.7105C35.665 27.7005 35.5452 26.7374 34.8274 26.2509C34.3342 25.9176 33.6617 25.8765 32.8306 26.132C29.8591 27.0429 28.9783 24.8201 28.9697 24.799C28.9579 24.7716 28.9516 24.742 28.9512 24.712C28.9508 24.6821 28.9563 24.6523 28.9674 24.6246C28.9784 24.5968 28.9948 24.5717 29.0156 24.5507C29.0364 24.5296 29.0611 24.5131 29.0882 24.5022C29.1153 24.4912 29.1443 24.486 29.1734 24.4869C29.2025 24.4878 29.2312 24.4947 29.2576 24.5073C29.2841 24.5199 29.3078 24.5379 29.3273 24.5601C29.3468 24.5824 29.3618 24.6085 29.3712 24.6368C29.4014 24.7135 30.1268 26.5008 32.7076 25.7077C33.6693 25.4144 34.4626 25.4733 35.0681 25.8854C35.9543 26.4875 36.0881 27.6138 36.0935 27.6627C36.0999 27.721 36.0837 27.7795 36.0483 27.8255C36.0129 27.8715 35.9613 27.9012 35.9047 27.9082L35.8809 27.906Z" fill="white"/>
<path id="Vector_36" d="M32.4497 24.7532C32.2761 24.7538 32.1031 24.7318 31.9348 24.6876C30.9699 24.4377 30.4928 23.5546 30.4723 23.5168C30.4448 23.4651 30.4384 23.4043 30.4545 23.3478C30.4706 23.2912 30.5079 23.2435 30.5581 23.2152C30.6083 23.187 30.6674 23.1804 30.7224 23.1969C30.7774 23.2135 30.8237 23.2519 30.8511 23.3036C30.8511 23.3113 31.2635 24.0578 32.0449 24.2589C32.5846 24.3977 33.1837 24.2489 33.828 23.8145C33.876 23.7852 33.9331 23.776 33.9874 23.789C34.0417 23.802 34.0891 23.8361 34.1195 23.8842C34.1499 23.9323 34.161 23.9907 34.1506 24.0471C34.1401 24.1034 34.1089 24.1535 34.0634 24.1867C33.5032 24.5654 32.9624 24.7532 32.4497 24.7532Z" fill="white"/>
<path id="Vector_37" d="M15.148 32.5289C15.1237 32.5292 15.0996 32.5251 15.0768 32.5166C14.9371 32.4726 14.8106 32.3929 14.709 32.2849C14.6075 32.1769 14.5342 32.0441 14.4961 31.899C14.1496 30.5894 16.3709 27.8501 16.6257 27.5424C16.6648 27.5069 16.7151 27.4871 16.7673 27.4868C16.8195 27.4865 16.8701 27.5057 16.9096 27.5408C16.9491 27.5759 16.9749 27.6246 16.9823 27.6778C16.9896 27.731 16.9779 27.7851 16.9495 27.8301C16.3019 28.6177 14.6634 30.8626 14.9073 31.7824C14.9269 31.8578 14.9655 31.9265 15.0191 31.9817C15.0727 32.0369 15.1395 32.0766 15.2128 32.0968C15.261 32.1139 15.3017 32.1481 15.3278 32.1932C15.3538 32.2384 15.3635 32.2915 15.3551 32.3433C15.3467 32.3951 15.3207 32.4421 15.2818 32.4761C15.2429 32.5101 15.1936 32.5288 15.1426 32.5289H15.148Z" fill="white"/>
<path id="Vector_38" d="M31.0635 78.4735C31.0431 78.4734 31.0228 78.4704 31.0031 78.4647C30.9758 78.4566 30.9503 78.4431 30.9281 78.4249C30.9058 78.4067 30.8873 78.3841 30.8736 78.3585C30.8599 78.3329 30.8512 78.3048 30.848 78.2757C30.8449 78.2467 30.8473 78.2173 30.8552 78.1892L32.0598 73.907C32.0677 73.8789 32.0808 73.8527 32.0985 73.8299C32.1163 73.807 32.1382 73.788 32.163 73.7738C32.1879 73.7597 32.2152 73.7508 32.2434 73.7475C32.2716 73.7442 32.3002 73.7467 32.3275 73.7548C32.3548 73.7629 32.3802 73.7765 32.4024 73.7947C32.4246 73.8129 32.4431 73.8354 32.4569 73.861C32.4706 73.8866 32.4793 73.9147 32.4825 73.9438C32.4856 73.9728 32.4832 74.0022 32.4754 74.0303L31.2708 78.3125C31.2579 78.3588 31.2307 78.3996 31.1933 78.4287C31.156 78.4577 31.1104 78.4735 31.0635 78.4735Z" fill="#1D0A03"/>
<path id="Vector_39" d="M61.4688 117.905C61.4186 117.905 61.3698 117.887 61.331 117.855C61.2922 117.822 61.2658 117.776 61.2563 117.725C61.2468 117.674 61.2549 117.621 61.2791 117.576C61.3034 117.531 61.3422 117.496 61.389 117.477L66.462 115.399C66.5152 115.378 66.5743 115.379 66.6265 115.403C66.6788 115.426 66.7198 115.47 66.7408 115.525C66.7617 115.579 66.7609 115.64 66.7384 115.694C66.7159 115.748 66.6736 115.791 66.6207 115.813L61.5476 117.89C61.5225 117.9 61.4958 117.905 61.4688 117.905Z" fill="#1D0A03"/>
<path id="Vector_40" d="M57.4144 121.194C57.3663 121.195 57.3192 121.179 57.2808 121.149C57.2424 121.119 57.2148 121.077 57.2024 121.029C57.1899 120.981 57.1935 120.931 57.2123 120.885C57.2312 120.839 57.2643 120.802 57.3065 120.778L60.0848 119.191C60.1349 119.163 60.194 119.156 60.249 119.172C60.2763 119.18 60.3017 119.194 60.3239 119.212C60.3461 119.23 60.3646 119.253 60.3784 119.278C60.3921 119.304 60.4008 119.332 60.4041 119.361C60.4073 119.39 60.4049 119.419 60.3971 119.447C60.3893 119.475 60.3761 119.501 60.3585 119.524C60.3408 119.547 60.319 119.566 60.2942 119.58L57.5159 121.166C57.4848 121.184 57.4499 121.194 57.4144 121.194Z" fill="#1D0A03"/>
<path id="Vector_41" d="M85.7443 181.367C85.6916 181.367 85.6409 181.347 85.6016 181.311C85.5622 181.275 85.537 181.226 85.5306 181.172C85.5243 181.118 85.5372 181.064 85.567 181.019C85.5968 180.975 85.6414 180.943 85.6925 180.929L89.5782 179.951C89.6058 179.944 89.6344 179.942 89.6626 179.946C89.6908 179.95 89.7179 179.96 89.7424 179.975C89.7669 179.99 89.7884 180.01 89.8055 180.033C89.8226 180.056 89.835 180.083 89.8421 180.111C89.8492 180.14 89.8508 180.169 89.8468 180.198C89.8428 180.227 89.8332 180.255 89.8188 180.28C89.8043 180.306 89.7851 180.328 89.7624 180.345C89.7396 180.363 89.7137 180.376 89.6861 180.383L85.8004 181.36C85.782 181.365 85.7632 181.367 85.7443 181.367Z" fill="white"/>
<path id="Vector_42" d="M56.3856 176.433H51.2898C51.2326 176.433 51.1777 176.41 51.1372 176.368C51.0967 176.326 51.074 176.27 51.074 176.211C51.074 176.152 51.0967 176.096 51.1372 176.054C51.1777 176.012 51.2326 175.989 51.2898 175.989H56.3899C56.4471 175.989 56.502 176.012 56.5425 176.054C56.583 176.096 56.6057 176.152 56.6057 176.211C56.6057 176.27 56.583 176.326 56.5425 176.368C56.502 176.41 56.4471 176.433 56.3899 176.433H56.3856Z" fill="white"/>
<path id="Vector_43" d="M150.687 0H91.964C91.5611 0 91.2344 0.336194 91.2344 0.750911V85.9549C91.2344 86.3696 91.5611 86.7058 91.964 86.7058H150.687C151.09 86.7058 151.417 86.3696 151.417 85.9549V0.750911C151.417 0.336194 151.09 0 150.687 0Z" fill="#1D0A03"/>
<path id="Vector_44" d="M94.2942 81.8175V4.70915C94.2942 3.73497 95.1145 2.94629 96.1291 2.94629H146.528C147.54 2.94629 148.363 3.73497 148.363 4.70915V81.8175C148.363 82.7917 147.543 83.5815 146.528 83.5815H96.1259C95.1123 83.5815 94.2942 82.7917 94.2942 81.8175Z" fill="#4EABD5"/>
<path id="Vector_45" d="M107.408 28.036C107.408 28.036 102.362 27.9505 100.848 34.0078C99.335 40.0651 105.558 41.8835 105.558 41.8835C105.558 41.8835 105.137 45.9513 109.258 46.1235C109.258 46.1235 111.864 52.5284 119.601 50.2779C119.601 50.2779 120.357 52.5284 123.721 52.8739C127.086 53.2193 128.178 58.7612 128.178 58.7612C128.178 58.7612 130.953 59.2811 131.794 57.9836C131.794 57.9836 129.861 54.6945 130.617 53.5704C131.374 52.4462 134.99 53.1371 134.906 49.5026C134.906 49.5026 138.522 50.4545 140.287 45.5214C142.053 40.5883 137.933 36.7804 137.933 36.7804C137.933 36.7804 139.531 33.9245 137.008 31.1552C134.486 28.386 132.215 29.2513 132.215 29.2513C132.215 29.2513 132.046 22.5009 123.301 24.0593C123.301 24.0593 118.508 21.1168 114.639 24.9247C114.639 24.9213 109.93 21.8921 107.408 28.036Z" fill="#306FC8"/>
<path id="Vector_46" d="M114.496 34.6442H114.488C114.46 34.6432 114.432 34.6364 114.406 34.6243C114.38 34.6122 114.357 34.595 114.338 34.5736C114.319 34.5523 114.303 34.5272 114.294 34.4999C114.284 34.4725 114.279 34.4434 114.28 34.4142C114.348 32.4014 112.013 32.2348 111.905 32.2281C111.855 32.2251 111.807 32.2039 111.77 32.1681C111.733 32.1324 111.71 32.0844 111.704 32.0326C111.272 28.2303 107.562 28.2559 107.408 28.2559C107.379 28.2582 107.35 28.2541 107.322 28.2437C107.295 28.2334 107.27 28.2171 107.25 28.196C107.229 28.1749 107.214 28.1494 107.204 28.1214C107.194 28.0934 107.19 28.0635 107.192 28.0337C107.192 27.9748 107.215 27.9183 107.255 27.8766C107.295 27.8349 107.35 27.8115 107.408 27.8115C107.467 27.8115 111.548 27.776 112.118 31.7983C113.136 31.9182 114.778 32.5814 114.716 34.4275C114.715 34.4863 114.691 34.542 114.649 34.5826C114.608 34.6232 114.553 34.6454 114.496 34.6442Z" fill="white"/>
<path id="Vector_47" d="M109.258 46.3453C109.201 46.3453 109.146 46.3219 109.105 46.2802C109.065 46.2385 109.042 46.182 109.042 46.1231C109.042 46.0753 109.102 41.4855 112.954 40.7234C113.069 40.2569 113.552 38.9683 115.186 39.0294C115.214 39.0306 115.242 39.0375 115.268 39.0497C115.294 39.0619 115.317 39.0793 115.336 39.1007C115.355 39.1222 115.37 39.1474 115.38 39.1748C115.39 39.2022 115.394 39.2313 115.393 39.2605C115.387 39.3181 115.361 39.3715 115.32 39.4108C115.279 39.4501 115.225 39.4725 115.168 39.4738C113.565 39.3982 113.356 40.8834 113.348 40.9467C113.341 40.9938 113.32 41.0375 113.288 41.0715C113.256 41.1055 113.214 41.1279 113.168 41.1355C109.53 41.7498 109.474 46.0809 109.474 46.1242C109.473 46.1829 109.451 46.2392 109.41 46.2806C109.37 46.322 109.315 46.3453 109.258 46.3453Z" fill="white"/>
<path id="Vector_48" d="M129.937 39.0062C129.901 39.0062 129.866 38.9972 129.835 38.98C129.804 38.9629 129.777 38.938 129.758 38.9077C129.738 38.8774 129.726 38.8426 129.722 38.8063C129.718 38.77 129.724 38.7333 129.737 38.6996C129.767 38.6252 130.485 36.8534 132.039 36.3002C132.868 36.0037 133.766 36.1136 134.723 36.6279C134.972 36.3158 135.586 35.6615 136.393 35.6338C137.007 35.6193 137.58 35.9514 138.102 36.6402C138.12 36.6631 138.133 36.6894 138.14 36.7175C138.148 36.7457 138.15 36.7751 138.147 36.804C138.143 36.833 138.134 36.861 138.12 36.8865C138.107 36.9119 138.088 36.9343 138.066 36.9523C138.043 36.9703 138.018 36.9836 137.99 36.9915C137.963 36.9993 137.934 37.0016 137.906 36.998C137.878 36.9945 137.851 36.9854 137.826 36.971C137.802 36.9567 137.78 36.9375 137.762 36.9145C137.331 36.3447 136.877 36.0592 136.409 36.0781C135.592 36.1047 134.967 37.03 134.96 37.04C134.93 37.0861 134.883 37.1186 134.831 37.1311C134.778 37.1437 134.722 37.1354 134.675 37.1078C133.776 36.5813 132.937 36.4513 132.183 36.719C130.814 37.2044 130.144 38.8518 130.132 38.8684C130.116 38.9085 130.089 38.9429 130.055 38.9673C130.02 38.9918 129.979 39.0053 129.937 39.0062Z" fill="white"/>
<path id="Vector_49" d="M117.75 30.1276C117.693 30.1276 117.638 30.1042 117.597 30.0625C117.557 30.0209 117.534 29.9644 117.534 29.9054C117.534 29.2389 117.723 28.7169 118.096 28.3503C118.427 28.0431 118.847 27.8582 119.291 27.8249C119.639 24.0481 123.254 23.837 123.291 23.8359C123.32 23.8324 123.349 23.8353 123.376 23.8444C123.404 23.8534 123.429 23.8685 123.451 23.8885C123.472 23.9086 123.489 23.9331 123.5 23.9604C123.511 23.9878 123.517 24.0173 123.516 24.047C123.518 24.1057 123.498 24.1632 123.46 24.2067C123.421 24.2502 123.368 24.2763 123.311 24.2792C123.173 24.2858 119.919 24.4869 119.707 28.0559C119.701 28.1127 119.675 28.1652 119.633 28.2035C119.592 28.2418 119.539 28.2632 119.483 28.2636C119.474 28.2636 118.836 28.2437 118.392 28.678C118.109 28.9579 117.96 29.3722 117.96 29.9088C117.959 29.9662 117.937 30.021 117.898 30.0618C117.859 30.1026 117.806 30.1262 117.75 30.1276Z" fill="white"/>
<path id="Vector_50" d="M140.294 5.57861H137.816C137.548 5.57861 137.33 5.80241 137.33 6.07848V17.0733C137.33 17.3494 137.548 17.5732 137.816 17.5732H140.294C140.562 17.5732 140.78 17.3494 140.78 17.0733V6.07848C140.78 5.80241 140.562 5.57861 140.294 5.57861Z" fill="white"/>
<path id="Vector_51" d="M144.395 9.80078H133.712C133.444 9.80078 133.226 10.0246 133.226 10.3006V12.85C133.226 13.126 133.444 13.3498 133.712 13.3498H144.395C144.664 13.3498 144.881 13.126 144.881 12.85V10.3006C144.881 10.0246 144.664 9.80078 144.395 9.80078Z" fill="white"/>
<path id="Vector_52" d="M115.632 68.876H103.712C103.516 68.876 103.356 69.0401 103.356 69.2425V73.9879C103.356 74.1904 103.516 74.3545 103.712 74.3545H115.632C115.829 74.3545 115.988 74.1904 115.988 73.9879V69.2425C115.988 69.0401 115.829 68.876 115.632 68.876Z" fill="white"/>
<path id="Vector_53" d="M138.938 68.876H127.019C126.822 68.876 126.663 69.0401 126.663 69.2425V73.9879C126.663 74.1904 126.822 74.3545 127.019 74.3545H138.938C139.135 74.3545 139.294 74.1904 139.294 73.9879V69.2425C139.294 69.0401 139.135 68.876 138.938 68.876Z" fill="white"/>
<path id="Vector_54" d="M53.4614 10.104C46.1465 10.104 40.2175 15.146 40.2175 21.3677C40.2175 24.7945 42.019 27.8626 44.8588 29.9287L43.95 34.3031C43.937 34.3664 43.9437 34.4322 43.9692 34.4913C43.9947 34.5504 44.0377 34.5996 44.0921 34.632C44.1464 34.6645 44.2094 34.6783 44.2719 34.6717C44.3343 34.6651 44.3932 34.6384 44.44 34.5953L47.7656 31.5394C49.5794 32.2677 51.5102 32.6381 53.4571 32.6313C60.7709 32.6313 66.6999 27.5882 66.6999 21.3677C66.6999 15.1471 60.7752 10.104 53.4614 10.104Z" fill="#4EABD5"/>
<path id="Vector_55" d="M55.1076 14.3142C53.3903 11.7338 49.076 11.9704 48.7911 15.4917C48.6896 16.7358 50.5645 17.0768 50.6659 15.8182C50.8063 14.092 52.7686 14.3298 53.5436 15.4284C54.025 16.1115 54.2128 17.3167 54.0476 18.1299C53.7616 19.5484 52.462 20.2182 51.727 21.339C50.6832 22.9308 50.8462 24.7681 51.7075 26.3788C52.298 27.484 53.8555 26.3588 53.2715 25.268C51.8241 22.5609 55.0061 21.3612 55.7401 19.1651C56.2549 17.6133 56.0088 15.6694 55.1076 14.3142Z" fill="white"/>
<path id="Vector_56" d="M53.0674 28.2026C51.8445 28.2026 52.0258 30.151 53.2434 30.151C54.4609 30.151 54.285 28.2026 53.0674 28.2026Z" fill="white"/>
</g>
</g>
</svg>
