<svg width="209" height="166" viewBox="0 0 209 166" fill="none" xmlns="http://www.w3.org/2000/svg">
<g clip-path="url(#clip0_2_236)">
<path d="M136.083 42.6869C136.083 42.6869 134.868 64.1756 125.86 64.1756C116.852 64.1756 125.175 37.6987 125.175 37.6987L136.083 42.6869Z" fill="#1D0A03"/>
<path d="M20.9058 140.558L11.96 155.049C11.8421 155.241 11.658 155.385 11.4417 155.453C9.74674 155.982 2.04009 158.662 0.0570236 164.102C0.00495099 164.244 -0.0118028 164.396 0.00818251 164.546C0.0281679 164.696 0.0843029 164.839 0.171831 164.962C0.259359 165.086 0.375701 165.187 0.510997 165.257C0.646293 165.326 0.796558 165.363 0.949056 165.363H27.3953C27.5583 165.363 27.7185 165.321 27.8604 165.242C28.0023 165.162 28.1211 165.048 28.2052 164.91L39.959 145.654C40.0359 145.528 40.0816 145.385 40.0925 145.238C40.1033 145.091 40.079 144.944 40.0215 144.808C39.9641 144.672 39.875 144.551 39.7616 144.455C39.6482 144.36 39.5137 144.292 39.3689 144.258L21.9263 140.135C21.7329 140.091 21.5303 140.108 21.3472 140.183C21.1641 140.259 21.0097 140.39 20.9058 140.558Z" fill="#1D0A03"/>
<path d="M33.2146 140.558L24.2677 155.049C24.15 155.241 23.9658 155.385 23.7493 155.452C22.0555 155.982 14.3477 158.662 12.3646 164.102C12.3126 164.244 12.2958 164.396 12.3158 164.546C12.3358 164.696 12.3919 164.838 12.4794 164.962C12.567 165.086 12.6833 165.187 12.8186 165.256C12.9539 165.326 13.1042 165.362 13.2567 165.362H39.7099C39.8728 165.362 40.0329 165.321 40.1748 165.241C40.3167 165.162 40.4355 165.048 40.5198 164.91L52.2724 145.654C52.3495 145.528 52.3955 145.385 52.4066 145.238C52.4176 145.091 52.3935 144.944 52.3361 144.807C52.2787 144.671 52.1897 144.551 52.0763 144.455C51.9629 144.36 51.8283 144.292 51.6835 144.258L34.2397 140.135C34.0456 140.089 33.8419 140.105 33.6577 140.181C33.4736 140.257 33.3184 140.389 33.2146 140.558Z" fill="#1D0A03"/>
<path d="M12.0226 165.588C11.9848 165.588 11.9476 165.579 11.9142 165.562C11.8808 165.544 11.8522 165.519 11.831 165.488C11.8097 165.457 11.7965 165.421 11.7924 165.384C11.7883 165.347 11.7935 165.309 11.8074 165.274C12.5192 163.485 13.5648 161.844 14.8896 160.439C17.9464 157.196 21.7274 156.092 23.7776 155.719L26.9222 150.313C26.9374 150.287 26.9577 150.264 26.9818 150.246C27.0059 150.227 27.0335 150.214 27.0628 150.206C27.0922 150.198 27.1229 150.196 27.153 150.2C27.1832 150.204 27.2123 150.214 27.2387 150.229C27.265 150.244 27.2881 150.264 27.3067 150.288C27.3252 150.312 27.3388 150.339 27.3467 150.368C27.3546 150.397 27.3567 150.428 27.3527 150.458C27.3488 150.487 27.3389 150.516 27.3237 150.542L24.1258 156.044C24.1092 156.074 24.0862 156.099 24.0584 156.119C24.0306 156.139 23.9987 156.153 23.965 156.159C21.9981 156.503 18.2472 157.557 15.2275 160.758C13.9433 162.122 12.9298 163.714 12.2401 165.45C12.222 165.492 12.1915 165.527 12.1528 165.552C12.114 165.577 12.0687 165.589 12.0226 165.588Z" fill="white"/>
<path d="M28.542 157.924C28.5135 157.923 28.4853 157.918 28.4587 157.908L23.8401 156.139C23.7827 156.117 23.7365 156.073 23.7116 156.018C23.6868 155.962 23.6853 155.898 23.7076 155.842C23.7298 155.785 23.774 155.739 23.8303 155.714C23.8866 155.69 23.9504 155.688 24.0078 155.71L28.6253 157.48C28.6761 157.499 28.7184 157.535 28.745 157.582C28.7716 157.629 28.7807 157.684 28.7708 157.736C28.7609 157.789 28.7325 157.837 28.6907 157.871C28.6489 157.905 28.5963 157.924 28.542 157.924Z" fill="white"/>
<path d="M16.9961 157.04C16.9746 157.039 16.9532 157.036 16.9325 157.031L11.9575 155.638C11.9282 155.63 11.9009 155.616 11.877 155.597C11.8532 155.579 11.8333 155.555 11.8185 155.529C11.8036 155.503 11.7942 155.474 11.7906 155.444C11.7871 155.414 11.7895 155.384 11.7978 155.355C11.8061 155.326 11.8201 155.299 11.8389 155.275C11.8577 155.252 11.8811 155.232 11.9076 155.217C11.9342 155.202 11.9634 155.193 11.9936 155.19C12.0238 155.186 12.0543 155.188 12.0836 155.197L17.0586 156.589C17.1129 156.604 17.1599 156.638 17.1909 156.684C17.222 156.73 17.2348 156.787 17.2272 156.842C17.2195 156.897 17.1919 156.947 17.1493 156.984C17.1068 157.02 17.0524 157.04 16.9961 157.04Z" fill="white"/>
<mask id="mask0_2_236" style="mask-type:luminance" maskUnits="userSpaceOnUse" x="43" y="54" width="140" height="112">
<path d="M44.0615 124.307C43.5157 121.349 44.0055 118.296 45.4499 115.651C49.136 108.906 58.1581 96.5866 75.4157 95.1195C99.3293 93.0861 112.587 105.357 124.173 87.2761C132.584 74.15 134.618 60.9138 143.543 56.3887C149.609 53.3158 156.235 55.1669 157.311 55.4717C173.819 60.1711 178.427 86.6675 179.888 95.0564C181.493 104.291 188.043 141.953 166.205 158.424C158.585 164.171 147.231 164.48 124.815 164.863C89.9161 165.46 72.4665 165.758 59.1393 153.68C55.2298 150.143 47.2443 141.563 44.0615 124.307Z" fill="white"/>
</mask>
<g mask="url(#mask0_2_236)">
<path d="M43.3994 120.027C43.3994 120.027 51.4983 97.1533 75.4131 95.12C99.3279 93.0866 112.585 105.358 124.171 87.2766C132.582 74.1505 134.616 60.9143 143.541 56.3892C149.607 53.3162 156.233 55.1673 157.309 55.4722C173.817 60.1716 178.425 86.668 179.885 95.0569C181.491 104.292 188.041 141.953 166.203 158.425C158.583 164.172 147.228 164.48 124.813 164.863C89.9135 165.46 72.4639 165.758 59.1367 153.681C54.9218 149.862 45.9506 140.167 43.3994 120.027Z" fill="#4EABD5"/>
<path d="M50.6686 149.699C56.7346 148.472 65.478 145.737 72.9879 138.77C78.0069 134.113 77.1866 132.466 80.8693 130.045C89.4853 124.37 98.0458 130.674 119.936 131.908C131.488 132.559 137.936 132.834 143.898 128.833C145.593 127.696 152.213 122.882 155.34 106.746C160.058 82.3912 151.425 60.0749 145.334 47.7832L108.392 54.6408L81.8365 84.8898L24.5 115.389L50.6686 149.699Z" fill="#4EABD5"/>
</g>
<path d="M136.611 54.6981C134.341 54.5514 130.972 54.6075 127.246 55.8443C123.555 57.0684 121.288 58.8713 118.858 60.6044C115.659 62.8876 110.949 65.9364 104.558 69.0495L87.1127 51.6802L81.1265 55.662C83.3708 60.2783 86.0935 64.6508 89.2508 68.7091C94.2698 75.146 97.1333 78.8058 101.907 79.6391C104.73 80.132 107.78 79.0362 113.878 76.8435C117.264 75.6274 120.501 74.4297 123.944 71.6605C126.02 69.9939 127.217 68.4661 129.007 66.3284C131.992 62.76 134.545 58.8564 136.611 54.6981Z" fill="#FC9C86"/>
<path d="M72.0094 45.5562C72.4803 45.0381 73.1537 46.088 73.9543 46.8594C74.4153 47.307 74.9458 47.6785 75.5255 47.9597C74.984 47.2411 74.0989 46.0192 73.6234 45.1183C72.8691 43.6948 72.802 42.9222 73.4811 42.6139C73.9844 42.3847 74.291 42.9062 75.3543 44.347C75.9038 45.0931 76.5668 45.8886 77.3836 46.5178C77.1117 45.9917 76.5147 45.0026 75.9733 43.9618C75.19 42.4546 74.2378 40.9554 75.1206 40.364C75.6447 40.0144 76.5089 41.2053 77.4773 42.5417C78.1542 43.4781 78.8657 44.4662 79.487 44.9842C79.3493 44.8433 78.4746 43.9137 78.6644 42.7732C78.9571 41.0207 81.5291 40.2161 81.9479 40.639C82.1064 40.7995 81.9849 41.1697 81.8889 41.462C81.6078 42.3159 81.0512 42.379 80.8835 42.9887C80.6926 43.6833 81.1276 44.6438 81.8172 44.8719C81.9754 44.9249 82.1439 44.9407 82.3094 44.9181C82.4749 44.8954 82.6328 44.8348 82.7705 44.7412C83.3398 44.3206 83.1616 43.3658 83.1465 43.2867C82.9857 42.4844 82.3679 42.2001 82.5102 41.807C82.6097 41.5377 83.0031 41.3898 83.3074 41.3852C84.3359 41.3726 85.0937 43.1045 85.3263 43.6294C85.4998 44.0226 85.7231 44.9097 86.1628 46.6703C86.3664 47.4818 86.4659 47.8875 86.4752 47.9311C86.68 49.0303 86.2715 51.2149 84.5083 52.6362C82.2707 54.4449 78.809 53.8626 76.996 52.6362C76.3377 52.1903 74.4125 50.5662 73.1953 48.8538C72.1598 47.405 71.6299 45.9722 72.0094 45.5562Z" fill="#FC9C86"/>
<path d="M86.4358 48.0858C86.4358 48.0858 86.5399 50.1272 88.0555 53.0992C87.5037 54.8976 82.6374 57.8834 82.1341 57.237C81.6308 56.5905 80.917 55.4546 80.2182 54.6947C79.4465 53.8523 78.2305 53.4981 77.0006 52.6419C74.0572 49.0589 85.7057 43.4495 86.4358 48.0858Z" fill="#FC9C86"/>
<path d="M81.896 49.4945C81.8558 49.494 81.8164 49.4832 81.7817 49.4631C81.747 49.443 81.7182 49.4143 81.6981 49.3799C81.3019 48.728 81.1117 47.9735 81.152 47.2136C81.1824 46.7211 81.3114 46.2395 81.5315 45.7969C80.5842 46.1153 79.739 46.6769 79.0822 47.4245C78.6832 47.8841 78.3641 48.4062 78.1381 48.9695C78.128 48.999 78.112 49.0262 78.091 49.0493C78.07 49.0725 78.0444 49.0911 78.0159 49.1042C77.9874 49.1172 77.9564 49.1244 77.925 49.1252C77.8936 49.126 77.8623 49.1205 77.8332 49.109C77.804 49.0975 77.7775 49.0801 77.7552 49.0581C77.733 49.0361 77.7156 49.0098 77.7039 48.9809C77.6923 48.952 77.6867 48.921 77.6876 48.8899C77.6884 48.8588 77.6957 48.8282 77.7089 48.7999C77.9533 48.1892 78.299 47.6232 78.7316 47.1253C79.5827 46.1628 80.7148 45.4862 81.9712 45.1894C82.0169 45.1781 82.0651 45.181 82.1092 45.1975C82.1533 45.2141 82.1912 45.2436 82.2179 45.2822C82.2446 45.3207 82.2587 45.3664 82.2585 45.4131C82.2582 45.4598 82.2435 45.5053 82.2164 45.5436C81.8605 46.0446 81.6525 46.634 81.616 47.2457C81.5795 47.9137 81.7459 48.5772 82.0938 49.1506C82.1096 49.1764 82.1202 49.2049 82.1249 49.2347C82.1295 49.2645 82.1282 49.2949 82.121 49.3241C82.1138 49.3534 82.1009 49.381 82.0829 49.4053C82.0649 49.4296 82.0423 49.4502 82.0163 49.4658C81.9796 49.486 81.938 49.4959 81.896 49.4945Z" fill="#1D0A03"/>
<path d="M103.96 72.4779H103.917C103.857 72.4668 103.803 72.4324 103.769 72.3823C103.734 72.3323 103.721 72.2706 103.732 72.2109L104.33 69.0096C104.343 68.9517 104.378 68.9011 104.428 68.8684C104.478 68.8358 104.539 68.8236 104.598 68.8344C104.657 68.8453 104.709 68.8783 104.744 68.9265C104.779 68.9748 104.793 69.0346 104.785 69.0932L104.187 72.2934C104.176 72.3454 104.148 72.3922 104.107 72.4258C104.065 72.4595 104.013 72.4779 103.96 72.4779Z" fill="#1D0A03"/>
<path d="M96.3027 26.4778C94.1576 25.499 92.9925 23.5447 92.3689 21.9091C95.8399 19.6477 98.0092 16.3994 98.0092 12.7901C98.0092 5.95651 90.2204 0.416992 80.6129 0.416992C71.0053 0.416992 63.2153 5.95651 63.2153 12.7958C63.2153 19.6351 71.0041 25.1746 80.6129 25.1746C83.4602 25.1883 86.2853 24.676 88.9431 23.6639C91.3091 26.4778 94.5649 26.887 96.209 26.8927C96.2645 26.9051 96.3227 26.895 96.3708 26.8648C96.4188 26.8346 96.4528 26.7867 96.4652 26.7317C96.4777 26.6767 96.4675 26.619 96.437 26.5714C96.4065 26.5238 96.3582 26.4901 96.3027 26.4778Z" fill="#4EABD5"/>
<path d="M79.7284 10.1666C80.4596 8.0966 82.1801 6.74983 83.9329 6.77275C85.8257 6.79682 87.3321 8.41409 87.7509 9.78034C88.6048 12.5885 85.5619 16.6747 79.8835 19.6536C74.2918 16.5016 71.3403 12.412 72.2532 9.70355C72.716 8.31666 74.4294 6.61458 76.379 6.84955C77.8992 7.03293 79.2286 8.34646 79.7284 10.1666Z" fill="white"/>
<path d="M186.796 2.16504C175.043 2.16504 165.516 8.94129 165.516 17.3004C165.516 22.4331 169.11 26.9651 174.604 29.7022C173.825 31.6667 172.405 33.9557 169.86 35.1202C169.804 35.1443 169.759 35.1869 169.732 35.2408C169.704 35.2946 169.697 35.3562 169.711 35.4148C169.724 35.4735 169.758 35.5256 169.807 35.562C169.855 35.5984 169.915 35.6169 169.976 35.6142C172.038 35.6142 176.173 35.0869 179.081 31.4031C181.596 32.0931 184.194 32.4401 186.803 32.4347C198.556 32.4347 208.083 25.6584 208.083 17.305C208.083 8.95161 198.549 2.16504 186.796 2.16504Z" fill="#4EABD5"/>
<path d="M142.724 37.9097H129.345V58.8207H142.724V37.9097Z" fill="#FC9C86"/>
<path d="M145.82 35.4253C145.019 41.2525 134.482 49.8398 128.604 49.0466C124.758 48.5285 124.166 43.6824 124.129 39.2031C124.129 38.5475 124.129 37.9011 124.143 37.273C124.177 35.696 124.304 34.1223 124.522 32.5598C124.906 29.7619 126.396 27.2296 128.664 25.5199C130.932 23.8101 133.793 23.0631 136.617 23.4431C139.442 23.8231 141.998 25.2989 143.724 27.5461C145.449 29.7932 146.204 32.6274 145.82 35.4253Z" fill="#FC9C86"/>
<path d="M129.609 31.7387C129.405 32.0413 128.345 31.6241 127.554 31.4682C126.175 31.2161 125.152 31.7525 125.18 31.4132C125.208 31.0739 126.494 30.1891 127.873 30.3633C129.137 30.5192 129.997 31.1427 129.609 31.7387Z" fill="#1D0A03"/>
<path d="M137.44 32.8808C137.403 33.2155 136.496 32.5003 135.098 32.4957C134.288 32.4957 133.168 32.7112 133.029 32.3811C132.756 31.7255 133.724 31.2716 134.996 31.3495C136.38 31.4366 137.477 32.5416 137.44 32.8808Z" fill="#1D0A03"/>
<path d="M130.704 36.0437C130.463 37.795 129.792 40.6972 129.787 40.7247C129.775 40.7764 129.746 40.8225 129.704 40.8551C129.662 40.8877 129.609 40.9048 129.556 40.9035C129.539 40.9056 129.522 40.9056 129.505 40.9035C129.446 40.8893 129.394 40.8525 129.362 40.8009C129.33 40.7494 129.32 40.6874 129.334 40.6284C129.334 40.6009 130.005 37.7171 130.241 35.9841C130.249 35.9233 130.282 35.8683 130.331 35.8314C130.381 35.7944 130.443 35.7784 130.505 35.7869C130.566 35.7954 130.621 35.8277 130.659 35.8767C130.696 35.9258 130.712 35.9874 130.704 36.0482V36.0437Z" fill="#1D0A03"/>
<path d="M133.149 42.8467C132.038 43.9516 131.02 44.2221 130.293 44.2221C129.915 44.2307 129.539 44.1522 129.197 43.9928C129.143 43.9637 129.102 43.9144 129.085 43.856C129.068 43.7975 129.075 43.7346 129.104 43.6811C129.133 43.6276 129.183 43.5879 129.242 43.5707C129.301 43.5535 129.365 43.5602 129.419 43.5894C129.483 43.6261 130.974 44.3642 132.82 42.5303C132.842 42.5089 132.867 42.492 132.896 42.4804C132.924 42.4688 132.954 42.4629 132.985 42.4629C133.015 42.4629 133.045 42.4688 133.073 42.4804C133.102 42.492 133.127 42.5089 133.149 42.5303C133.17 42.5517 133.187 42.5771 133.199 42.605C133.211 42.6329 133.217 42.6628 133.217 42.6931C133.217 42.7233 133.211 42.7532 133.199 42.7812C133.187 42.8091 133.17 42.8345 133.149 42.8558V42.8467Z" fill="#1D0A03"/>
<path d="M71.5812 96.1858C71.7596 95.9561 71.8754 95.6849 71.9178 95.3981C71.9601 95.1113 71.9275 94.8186 71.823 94.5479C71.7186 94.2772 71.5457 94.0376 71.3211 93.852C71.0964 93.6663 70.8275 93.5409 70.5399 93.4877C68.7096 93.1438 66.5078 92.7919 64.0134 92.5145C63.3365 92.4389 58.269 91.8727 55.7988 92.0068C48.415 92.4068 42.7619 100.259 39.6369 104.715C29.12 119.71 20.512 133.265 14.9759 142.237C14.8505 142.441 14.7699 142.668 14.7394 142.904C14.7089 143.141 14.7291 143.381 14.7988 143.609C14.8685 143.837 14.9861 144.048 15.1438 144.228C15.3015 144.408 15.4958 144.553 15.714 144.653L27.8762 150.27C28.2285 150.432 28.6261 150.471 29.0036 150.38C29.3811 150.289 29.7159 150.073 29.953 149.768L71.5812 96.1858Z" fill="#102D55"/>
<path d="M139.799 99.1242C140.456 99.3225 140.898 99.938 140.91 100.682C141.002 105.853 140.401 115.791 134.091 121.468C134.044 121.51 133.704 121.812 133.267 122.143C126.117 127.645 115.424 126.603 106.222 125.045C96.2515 123.346 86.444 120.816 76.9039 117.48C76.5732 117.366 76.2135 117.363 75.8807 117.471C75.5479 117.58 75.2605 117.794 75.0632 118.081L47.564 157.075C47.3611 157.355 47.0671 157.556 46.7315 157.646C46.396 157.736 46.0395 157.708 45.7221 157.568L27.399 149.9C26.4549 149.506 26.0396 148.372 26.5371 147.548C30.7358 140.601 36.8516 130.562 44.601 118.119C55.4315 100.729 60.1185 93.6214 68.8872 91.5273C70.3427 91.1834 72.2795 90.882 86.4918 92.4545C96.1249 93.5216 104.029 94.6323 109.463 95.4507C109.681 95.4816 109.903 95.4684 110.116 95.4119C110.328 95.3553 110.527 95.2566 110.701 95.1217L114.527 92.231C114.73 92.0713 114.969 91.9623 115.223 91.913C115.478 91.8637 115.74 91.8757 115.989 91.9479L139.799 99.1242Z" fill="#306F9F"/>
<path d="M108.467 96.2326C108.014 95.8457 107.714 95.3123 107.621 94.727C107.527 94.1418 107.646 93.5426 107.956 93.0359C110.852 88.3071 113.398 83.3762 115.573 78.2822C120.895 65.8231 120.941 59.5547 126.862 55.9167C131.587 53.0134 138.616 52.6707 142.511 55.9167C146.431 59.1821 146.106 65.1824 145.59 72.1822C144.896 81.5889 143.783 93.8382 141.905 108.419C141.861 108.756 141.748 109.082 141.573 109.375C141.398 109.668 141.166 109.923 140.889 110.125C140.612 110.327 140.297 110.471 139.962 110.548C139.628 110.626 139.281 110.636 138.942 110.577C127.663 108.607 117.133 103.651 108.467 96.2326Z" fill="#94BE53"/>
<path d="M131.83 61.7873L122.09 86.7019L88.0889 89.6178C88.3874 92.2441 88.6866 94.8704 88.9867 97.4967C93.5394 97.8406 99.823 98.2142 107.329 98.3862C125.426 98.7999 128.7 97.507 131.07 95.3866C134.095 92.677 135.282 88.8923 137.654 81.3229C138.766 77.778 139.595 74.1522 140.135 70.4788C142.733 65.5261 140.954 60.6755 138.244 59.6279C136.364 58.9012 133.806 59.911 131.83 61.7873Z" fill="#FC9C86"/>
<path d="M89.9 97.2503C89.9 97.2503 87.1105 98.267 84.6739 97.6951C82.2373 97.1231 81.1463 96.5489 79.6989 96.7781C78.2515 97.0074 76.1401 98.4974 75.3707 97.8739C74.6013 97.2503 76.9499 95.5712 77.8917 95.2846C77.8917 95.2846 75.8589 95.444 74.4127 95.9517C72.9665 96.4595 71.6186 95.507 72.9653 94.5855C74.312 93.6639 76.3645 93.2513 76.3645 93.2513C76.3645 93.2513 73.5739 93.3155 72.1994 93.5688C70.8249 93.8221 70.5634 92.4868 72.4875 91.9492C74.4115 91.4117 76.7209 91.4094 76.7209 91.4094C76.7209 91.4094 72.1346 91.5676 72.1346 90.6151C72.1346 89.6626 76.6248 89.3119 79.3819 89.0265C82.139 88.7411 89.7635 89.4735 89.7635 89.4735C89.7635 89.4735 92.9475 95.4703 89.9 97.2503Z" fill="#FC9C86"/>
<path d="M143.324 51.7646H128.562C128.482 51.7646 128.417 51.8288 128.417 51.9079V58.2291C128.417 58.3083 128.482 58.3724 128.562 58.3724H143.324C143.403 58.3724 143.468 58.3083 143.468 58.2291V51.9079C143.468 51.8288 143.403 51.7646 143.324 51.7646Z" fill="#94BE53"/>
<path d="M139.017 44.7949C139.017 44.7949 136.505 50.3241 129.308 51.4978L129.345 49.0908C129.345 49.0908 134.436 48.0696 139.017 44.7949Z" fill="#1D0A03"/>
<path d="M123.972 78.4426C124.85 75.4516 125.966 72.534 127.307 69.7167C130.009 64.0511 132.256 59.3403 136.372 58.5345C136.674 58.4749 139.051 58.076 141.061 59.3781C143.937 61.2429 144.289 65.4357 143.983 67.4713C143.555 70.3093 139.093 86.067 139.093 86.067C133.518 84.7374 128.338 82.1253 123.972 78.4426Z" fill="#94BE53"/>
<path d="M131.593 56.0138C131.571 55.8248 131.51 55.6423 131.415 55.4768C131.32 55.3114 131.193 55.1663 131.04 55.0502C130.888 54.9341 130.714 54.8492 130.528 54.8005C130.343 54.7519 130.149 54.7404 129.959 54.7667C127.486 55.086 125.085 55.8173 122.858 56.9296C120.449 58.1422 119.303 59.2953 117.043 60.9114C114.326 62.8433 111.4 64.4694 108.32 65.7598C107.992 65.8989 107.728 66.1525 107.577 66.4724C107.426 66.7922 107.399 67.1558 107.502 67.494L110.709 78.0607C110.809 78.3892 111.024 78.6716 111.316 78.8571C111.608 79.0426 111.956 79.1191 112.3 79.0727C115.905 78.6015 119.404 77.5251 122.644 75.8898C122.843 75.7908 123.015 75.6471 123.148 75.4703C124.727 73.3636 126.337 70.3995 128.133 66.9002C130.144 62.9837 131.904 58.6637 131.593 56.0138Z" fill="#94BE53"/>
<path d="M115.675 77.9197C115.652 77.9197 115.63 77.9162 115.608 77.9094C115.549 77.8919 115.5 77.852 115.471 77.7985C115.442 77.7449 115.435 77.6822 115.453 77.624L117.407 71.2271C117.032 66.5793 120.444 65.1798 121.074 64.962L123.925 59.7056C123.954 59.652 124.003 59.6119 124.062 59.5943C124.12 59.5767 124.184 59.5829 124.238 59.6116C124.292 59.6404 124.333 59.6892 124.35 59.7475C124.368 59.8057 124.362 59.8686 124.333 59.9223L121.44 65.2601C121.426 65.2878 121.406 65.3122 121.381 65.3319C121.357 65.3516 121.329 65.3662 121.298 65.3747C121.142 65.4182 117.47 66.4933 117.876 71.234C117.878 71.2629 117.875 71.2921 117.867 71.3199L115.9 77.7581C115.885 77.8054 115.855 77.8468 115.815 77.8759C115.774 77.905 115.725 77.9204 115.675 77.9197Z" fill="#1D0A03"/>
<path d="M124.129 78.1492C124.105 78.1487 124.082 78.1449 124.059 78.1377C124 78.1193 123.952 78.0786 123.923 78.0247C123.895 77.9708 123.89 77.9079 123.908 77.85C124.155 77.0821 130.009 59.0526 135.346 58.5941C135.377 58.5915 135.407 58.5949 135.436 58.6041C135.465 58.6132 135.492 58.628 135.516 58.6475C135.539 58.6669 135.558 58.6908 135.572 58.7176C135.586 58.7444 135.595 58.7737 135.597 58.8038C135.6 58.8339 135.596 58.8643 135.587 58.893C135.578 58.9218 135.563 58.9485 135.543 58.9716C135.524 58.9947 135.5 59.0138 135.473 59.0277C135.445 59.0415 135.416 59.05 135.386 59.0526C133.331 59.2291 130.774 62.5427 127.994 68.6335C126.619 71.6902 125.403 74.8142 124.349 77.9933C124.334 78.0388 124.304 78.0784 124.265 78.1063C124.225 78.1343 124.178 78.1493 124.129 78.1492Z" fill="#1D0A03"/>
<path d="M137.311 84.6957C137.283 84.6953 137.255 84.6902 137.228 84.6808C137.2 84.6702 137.174 84.6541 137.152 84.6335C137.129 84.613 137.111 84.5882 137.099 84.5607C137.086 84.5333 137.079 84.5036 137.078 84.4734C137.077 84.4433 137.082 84.4133 137.093 84.385L143.251 68.2914C143.272 68.2346 143.316 68.1887 143.372 68.1637C143.428 68.1388 143.492 68.1369 143.549 68.1585C143.606 68.1801 143.653 68.2233 143.678 68.2788C143.703 68.3343 143.705 68.3973 143.683 68.4542L137.529 84.5467C137.513 84.5907 137.483 84.6286 137.444 84.6553C137.404 84.682 137.358 84.696 137.311 84.6957Z" fill="#1D0A03"/>
<path d="M128.655 34.751C128.5 35.0065 128.28 35.2182 128.019 35.3659C127.757 35.5136 127.461 35.5923 127.16 35.5945C127.128 35.5945 127.1 35.5945 127.068 35.5945C126.17 35.5487 125.712 34.8335 125.665 34.7555C125.647 34.73 125.633 34.7008 125.626 34.6698C125.619 34.6388 125.619 34.6068 125.625 34.5756C125.631 34.5445 125.644 34.515 125.662 34.4889C125.68 34.4629 125.704 34.4409 125.731 34.4243C125.759 34.4078 125.789 34.397 125.821 34.3927C125.853 34.3884 125.885 34.3907 125.916 34.3995C125.946 34.4082 125.975 34.4232 126 34.4434C126.024 34.4637 126.045 34.4888 126.059 34.5171C126.073 34.5401 126.424 35.104 127.091 35.1361C127.324 35.1473 127.556 35.0957 127.763 34.9867C127.969 34.8777 128.141 34.7155 128.262 34.5171C128.276 34.4888 128.296 34.4637 128.321 34.4434C128.346 34.4232 128.374 34.4082 128.405 34.3995C128.436 34.3907 128.468 34.3884 128.5 34.3927C128.532 34.397 128.562 34.4078 128.589 34.4243C128.617 34.4409 128.64 34.4629 128.659 34.4889C128.677 34.515 128.689 34.5445 128.696 34.5756C128.702 34.6068 128.701 34.6388 128.694 34.6698C128.687 34.7008 128.674 34.73 128.655 34.7555V34.751Z" fill="#1D0A03"/>
<path d="M136.25 35.7183C135.91 36.0571 135.451 36.2525 134.968 36.2639C134.603 36.2676 134.246 36.1552 133.951 35.9431C133.655 35.7309 133.436 35.4304 133.325 35.0857C133.306 35.0285 133.31 34.9661 133.337 34.9121C133.364 34.858 133.411 34.8166 133.469 34.7968C133.498 34.7867 133.528 34.7824 133.559 34.784C133.589 34.7857 133.619 34.7934 133.647 34.8066C133.674 34.8198 133.699 34.8383 133.719 34.8611C133.74 34.8838 133.755 34.9102 133.765 34.9389C133.84 35.158 133.973 35.3529 134.151 35.503C134.328 35.6531 134.544 35.7529 134.774 35.7917C135.417 35.8926 135.866 35.4478 135.917 35.402C135.938 35.3805 135.964 35.3635 135.992 35.3518C136.02 35.3402 136.051 35.3342 136.081 35.3342C136.112 35.3342 136.142 35.3402 136.17 35.3518C136.198 35.3635 136.224 35.3805 136.246 35.402C136.287 35.444 136.311 35.5004 136.312 35.5593C136.313 35.6182 136.291 35.6751 136.25 35.7183Z" fill="#1D0A03"/>
<path d="M153.28 68.3712C148.596 72.5204 145.588 72.1812 145.588 72.1812C145.588 72.1812 145.963 61.2511 142.108 57.2303C138.253 53.2095 140.516 41.2204 142.654 39.7349C143.261 39.3131 144.362 38.3457 144.191 37.3875C143.959 36.1176 141.562 35.737 140.002 35.141C137.716 34.2653 134.815 32.005 132.501 25.7423C131.583 25.7258 130.67 25.8766 129.807 26.187C126.202 27.4891 124.878 31.1752 124.647 31.8492C124.647 31.8492 122.25 27.3928 124.647 24.9124C127.044 22.4321 128.766 23.835 131.145 21.6114C133.523 19.3878 137.439 21.6114 137.439 21.6114C137.439 21.6114 142.77 17.7969 146.625 24.4081C150.48 31.0193 147.319 34.7009 150.994 44.8011C154.668 54.9013 157.968 64.2266 153.28 68.3712Z" fill="#1D0A03"/>
<path d="M146.103 39.5146C145.177 41.1192 143.349 41.807 142.021 41.0505C140.693 40.294 140.355 38.3913 141.281 36.7867C142.206 35.182 144.034 34.4943 145.362 35.2508C146.691 36.0073 147.024 37.9179 146.103 39.5146Z" fill="#FC9C86"/>
<path d="M145.628 37.4928C145.624 37.5222 145.613 37.5504 145.597 37.5757C145.581 37.6009 145.56 37.6227 145.536 37.6398C145.511 37.6569 145.483 37.669 145.454 37.6752C145.424 37.6815 145.394 37.6818 145.364 37.6762C145.334 37.6712 145.305 37.6604 145.28 37.6443C145.254 37.6282 145.231 37.6072 145.214 37.5825C145.196 37.5577 145.183 37.5298 145.177 37.5002C145.17 37.4707 145.169 37.4401 145.175 37.4103C145.189 37.314 145.314 36.4567 144.536 36.31C143.735 36.1678 142.972 37.071 142.657 37.5112C143.074 37.6992 143.523 38.0568 143.402 38.5657C143.217 39.3543 142.477 39.5651 142.106 39.5651C142.045 39.5651 141.986 39.541 141.943 39.498C141.899 39.455 141.875 39.3967 141.875 39.3359C141.875 39.2751 141.899 39.2168 141.943 39.1738C141.986 39.1308 142.045 39.1067 142.106 39.1067C142.134 39.1067 142.801 39.0883 142.953 38.4648C143.037 38.098 142.245 37.8459 142.241 37.8413C142.207 37.8326 142.176 37.8159 142.15 37.7928C142.124 37.7696 142.105 37.7407 142.092 37.7083C142.079 37.676 142.073 37.6409 142.075 37.6058C142.077 37.5707 142.088 37.5367 142.106 37.5066C142.153 37.4287 143.263 35.6039 144.619 35.8607C145.617 36.0441 145.718 37.0069 145.628 37.4928Z" fill="#1D0A03"/>
<path d="M125.177 28.3165C125.154 28.3166 125.13 28.3127 125.108 28.305C125.049 28.2868 125.001 28.2465 124.972 28.1928C124.944 28.1391 124.938 28.0764 124.956 28.0185C124.967 27.9864 126.011 24.816 129.993 24.4263C130.053 24.4206 130.114 24.4389 130.161 24.4774C130.209 24.5158 130.239 24.5712 130.245 24.6315C130.248 24.6615 130.245 24.6917 130.236 24.7205C130.227 24.7494 130.213 24.7762 130.194 24.7995C130.174 24.8228 130.151 24.8421 130.124 24.8564C130.097 24.8706 130.068 24.8795 130.038 24.8825C126.37 25.2413 125.435 28.0368 125.397 28.156C125.382 28.2024 125.353 28.243 125.314 28.2718C125.274 28.3006 125.226 28.3163 125.177 28.3165Z" fill="white"/>
<path d="M139.191 31.3226C137.349 31.3226 135.24 26.9671 135.003 26.4673C134.978 26.4125 134.976 26.3502 134.997 26.2939C135.018 26.2376 135.061 26.1918 135.115 26.1663C135.17 26.1407 135.233 26.1376 135.29 26.1574C135.348 26.1773 135.395 26.2186 135.421 26.2725C136.029 27.5585 137.879 30.8641 139.186 30.8641H139.234C139.295 30.8626 139.354 30.8853 139.399 30.9272C139.443 30.9691 139.469 31.0268 139.471 31.0876C139.472 31.1484 139.449 31.2073 139.407 31.2514C139.365 31.2954 139.307 31.321 139.245 31.3226H139.191Z" fill="white"/>
<path d="M147.238 67.1513C147.209 67.1515 147.18 67.1461 147.153 67.1352C147.096 67.113 147.05 67.0693 147.026 67.0136C147.001 66.9579 147 66.8949 147.022 66.8384C147.047 66.7776 149.393 60.751 145.728 57.0075C141.883 53.0819 142.466 45.117 142.488 44.78C142.491 44.7499 142.499 44.7206 142.513 44.6937C142.526 44.6667 142.545 44.6428 142.569 44.6231C142.592 44.6035 142.619 44.5886 142.648 44.5792C142.677 44.5698 142.707 44.5662 142.738 44.5686C142.768 44.5709 142.798 44.5791 142.825 44.5928C142.852 44.6065 142.876 44.6253 142.896 44.6483C142.916 44.6712 142.931 44.6978 142.94 44.7265C142.95 44.7552 142.953 44.7855 142.951 44.8156C142.944 44.8958 142.359 52.9111 146.056 56.6889C149.932 60.6467 147.475 66.9438 147.445 67.0046C147.428 67.0464 147.4 67.0826 147.363 67.1087C147.327 67.1348 147.283 67.1496 147.238 67.1513Z" fill="white"/>
<path d="M148.026 56.0895C147.973 56.0899 147.923 56.072 147.882 56.039C146.126 54.6636 145.095 52.4446 144.897 49.6353C144.805 48.3474 144.883 47.0532 145.129 45.7852C145.142 45.7263 145.178 45.6749 145.23 45.6422C145.281 45.6096 145.343 45.5984 145.403 45.611C145.433 45.6174 145.461 45.6295 145.486 45.6467C145.511 45.6639 145.532 45.6857 145.548 45.7111C145.565 45.7364 145.576 45.7647 145.581 45.7943C145.587 45.824 145.586 45.8544 145.58 45.8838C145.566 45.9503 144.168 52.5317 148.169 55.6803C148.207 55.7098 148.234 55.7502 148.248 55.7959C148.261 55.8417 148.26 55.8904 148.244 55.9354C148.229 55.9804 148.199 56.0195 148.16 56.0471C148.121 56.0747 148.074 56.0895 148.026 56.0895Z" fill="white"/>
<path d="M123.563 55.7904C123.504 55.7904 123.447 55.7679 123.404 55.7273C123.36 55.6868 123.335 55.6314 123.332 55.5726C123.319 55.333 123.048 49.648 124.512 46.7401C124.539 46.6857 124.588 46.6443 124.646 46.6251C124.704 46.6058 124.768 46.6103 124.823 46.6375C124.878 46.6647 124.919 46.7124 124.939 46.7701C124.958 46.8278 124.954 46.8908 124.926 46.9452C123.517 49.7442 123.791 55.4924 123.793 55.5497C123.797 55.6103 123.775 55.6697 123.734 55.7148C123.693 55.7599 123.636 55.7871 123.575 55.7904H123.563Z" fill="white"/>
<path d="M76.0588 117.655C76.016 117.656 75.974 117.644 75.9374 117.622C75.9008 117.6 75.8712 117.568 75.8517 117.53L72.8817 111.764C72.8559 111.71 72.8523 111.648 72.8717 111.592C72.891 111.536 72.9319 111.489 72.9854 111.462C73.039 111.435 73.1012 111.429 73.1587 111.447C73.2162 111.464 73.2646 111.503 73.2936 111.555L76.2647 117.322C76.2926 117.376 76.2977 117.439 76.2788 117.497C76.2599 117.554 76.2187 117.603 76.1641 117.63C76.1315 117.647 76.0954 117.655 76.0588 117.655Z" fill="#1D0A03"/>
<path d="M198.618 16.0454H196.988C196.771 14.5651 196.198 13.1583 195.316 11.9443L196.438 10.8325C196.541 10.7297 196.6 10.5904 196.6 10.4451C196.6 10.2999 196.541 10.1606 196.438 10.0577L195.147 8.77858C195.096 8.72757 195.035 8.68709 194.967 8.65947C194.9 8.63185 194.828 8.61763 194.756 8.61763C194.683 8.61763 194.611 8.63185 194.544 8.65947C194.477 8.68709 194.416 8.72757 194.365 8.77858L193.256 9.87548C192.033 8.97526 190.608 8.38289 189.103 8.14933V6.61917C189.102 6.47375 189.044 6.3344 188.94 6.23169C188.836 6.12897 188.695 6.07129 188.549 6.07129H186.723C186.576 6.07129 186.435 6.12901 186.332 6.23176C186.228 6.3345 186.17 6.47386 186.17 6.61917V8.14933C184.665 8.38289 183.239 8.97526 182.016 9.87548L180.908 8.77858C180.857 8.72757 180.796 8.68709 180.729 8.65947C180.661 8.63185 180.589 8.61763 180.517 8.61763C180.444 8.61763 180.372 8.63185 180.305 8.65947C180.238 8.68709 180.177 8.72757 180.126 8.77858L178.833 10.0577C178.782 10.1085 178.741 10.1689 178.713 10.2354C178.685 10.3019 178.671 10.3731 178.671 10.4451C178.671 10.5171 178.685 10.5884 178.713 10.6549C178.741 10.7214 178.782 10.7817 178.833 10.8325L179.956 11.9443C179.074 13.1583 178.5 14.5651 178.284 16.0454H176.654C176.507 16.0454 176.366 16.1031 176.263 16.2059C176.159 16.3086 176.101 16.448 176.101 16.5933V18.402C176.101 18.5473 176.159 18.6866 176.263 18.7894C176.366 18.8921 176.507 18.9498 176.654 18.9498H178.314C178.561 20.4056 179.153 21.7824 180.041 22.9672L178.833 24.1638C178.782 24.2146 178.741 24.275 178.713 24.3415C178.685 24.408 178.671 24.4793 178.671 24.5513C178.671 24.6232 178.685 24.6945 178.713 24.761C178.741 24.8275 178.782 24.8879 178.833 24.9387L180.125 26.2178C180.228 26.3203 180.369 26.3778 180.516 26.3778C180.662 26.3778 180.803 26.3203 180.907 26.2178L182.13 25.0063C183.327 25.8596 184.711 26.4218 186.169 26.6476V28.3772C186.169 28.5225 186.227 28.6619 186.331 28.7646C186.434 28.8674 186.575 28.9251 186.722 28.9251H188.552C188.699 28.9251 188.84 28.8674 188.943 28.7647C189.047 28.662 189.106 28.5226 189.106 28.3772V26.6476C190.564 26.4218 191.947 25.8596 193.145 25.0063L194.368 26.2178C194.472 26.3203 194.613 26.3778 194.759 26.3778C194.906 26.3778 195.046 26.3203 195.15 26.2178L196.441 24.9387C196.545 24.8358 196.603 24.6965 196.603 24.5513C196.603 24.406 196.545 24.2667 196.441 24.1638L195.234 22.9672C196.122 21.7824 196.714 20.4056 196.961 18.9498H198.618C198.764 18.9498 198.905 18.8921 199.009 18.7894C199.113 18.6866 199.171 18.5473 199.171 18.402V16.599C199.172 16.5266 199.158 16.4547 199.13 16.3876C199.103 16.3205 199.062 16.2594 199.011 16.2079C198.959 16.1564 198.898 16.1155 198.831 16.0876C198.763 16.0598 198.691 16.0454 198.618 16.0454ZM187.637 23.5621C186.406 23.5621 185.203 23.2005 184.18 22.523C183.156 21.8455 182.359 20.8826 181.888 19.756C181.417 18.6295 181.294 17.3899 181.534 16.1941C181.775 14.9982 182.368 13.8999 183.238 13.0379C184.109 12.176 185.218 11.5892 186.425 11.3517C187.632 11.1143 188.883 11.2368 190.02 11.7039C191.157 12.171 192.129 12.9616 192.812 13.9758C193.495 14.9899 193.86 16.182 193.859 17.4013C193.856 19.0346 193.2 20.6002 192.034 21.755C190.868 22.9098 189.288 23.5597 187.639 23.5621H187.637Z" fill="white"/>
<path d="M124.636 90.5092C124.599 90.509 124.563 90.5001 124.53 90.4832C124.497 90.4662 124.469 90.4417 124.448 90.4117L121.902 86.8345C121.885 86.8099 121.872 86.7821 121.866 86.7527C121.859 86.7233 121.858 86.6929 121.863 86.6632C121.868 86.6335 121.879 86.6051 121.896 86.5796C121.912 86.5541 121.933 86.5321 121.958 86.5147C121.983 86.4973 122.011 86.4849 122.04 86.4783C122.07 86.4717 122.101 86.4709 122.131 86.476C122.161 86.4811 122.189 86.492 122.215 86.5081C122.241 86.5242 122.263 86.5451 122.281 86.5697L124.826 90.1481C124.861 90.1978 124.875 90.2593 124.864 90.319C124.853 90.3787 124.819 90.4319 124.769 90.4667C124.73 90.4941 124.684 90.5089 124.636 90.5092Z" fill="#1D0A03"/>
<path d="M77.8948 95.509C77.8424 95.5089 77.7916 95.4913 77.7507 95.4589C77.7097 95.4266 77.6811 95.3815 77.6694 95.3309C77.6577 95.2803 77.6637 95.2273 77.6863 95.1806C77.709 95.1338 77.747 95.096 77.7941 95.0734C77.9873 94.9806 79.6985 94.1748 80.3302 94.1748C80.3916 94.1748 80.4504 94.199 80.4938 94.242C80.5372 94.2849 80.5616 94.3432 80.5616 94.404C80.5616 94.4648 80.5372 94.5232 80.4938 94.5661C80.4504 94.6091 80.3916 94.6333 80.3302 94.6333C79.9345 94.6333 78.6873 95.1559 77.9954 95.486C77.9641 95.5013 77.9297 95.5092 77.8948 95.509Z" fill="#1D0A03"/>
<path d="M76.2098 93.4496C76.1552 93.4493 76.1025 93.4298 76.061 93.3946C76.0195 93.3595 75.9919 93.311 75.9831 93.2576C75.9742 93.2043 75.9847 93.1495 76.0126 93.1031C76.0405 93.0566 76.0841 93.0214 76.1357 93.0038C76.8507 92.7619 77.5877 92.5453 78.3236 92.3539C78.6834 92.261 79.0363 92.1774 79.3822 92.1006C79.4422 92.0875 79.505 92.0986 79.5567 92.1314C79.6085 92.1641 79.6449 92.2159 79.6581 92.2754C79.6713 92.3348 79.6602 92.397 79.6271 92.4482C79.594 92.4995 79.5417 92.5357 79.4817 92.5487C79.1416 92.6251 78.7945 92.7081 78.4404 92.7975C77.715 92.9843 76.9896 93.1998 76.285 93.4382C76.2607 93.4459 76.2353 93.4498 76.2098 93.4496Z" fill="#1D0A03"/>
<path d="M76.1679 91.5488C76.1126 91.5485 76.0594 91.5285 76.0177 91.4927C75.976 91.4568 75.9486 91.4073 75.9405 91.3532C75.9324 91.2991 75.9441 91.2439 75.9735 91.1976C76.0029 91.1513 76.048 91.1169 76.1008 91.1007C76.8463 90.8758 77.6027 90.6884 78.3673 90.539C78.6473 90.484 78.9215 90.437 79.1899 90.3935C79.2513 90.3839 79.314 90.3988 79.3642 90.4351C79.4144 90.4713 79.4481 90.5258 79.4577 90.5866C79.4674 90.6474 79.4523 90.7095 79.4157 90.7593C79.3792 90.809 79.3242 90.8424 79.2628 90.8519C79.0002 90.8932 78.7306 90.9402 78.4529 90.9941C77.703 91.1396 76.9612 91.3232 76.2303 91.5442C76.2098 91.5482 76.1888 91.5497 76.1679 91.5488Z" fill="#1D0A03"/>
<path d="M106.133 15.5593L114.177 14.0968L111.381 20.1945L120.082 23.076L115.394 18.9658L118.112 11.8193H108.674L106.133 15.5593Z" fill="#DDA639"/>
<path d="M129.251 7.17112L134.564 9.72138L130.312 12.0906L134.136 17.4478L133.178 13.0728L137.839 10.0652L132.345 6.07422L129.251 7.17112Z" fill="#DDA639"/>
<path d="M161.595 15.4024L154.548 14.121C155.364 15.9014 156.179 17.6822 156.993 19.4634L149.372 21.985L153.478 18.3848L151.098 12.1289H159.366L161.595 15.4024Z" fill="#DDA639"/>
<path d="M147.237 37.2132C147.236 38.0594 146.992 38.8879 146.535 39.6025C146.077 40.3171 145.424 40.8883 144.652 41.2498C143.88 41.6114 143.02 41.7483 142.172 41.6447C141.324 41.5411 140.524 41.2013 139.863 40.6647C139.203 40.1281 138.71 39.4169 138.441 38.6136C138.172 37.8103 138.14 36.948 138.346 36.1269C138.553 35.3058 138.99 34.5597 139.608 33.9753C140.226 33.3909 140.998 32.9922 141.836 32.8256C141.85 31.2389 141.575 29.6626 141.026 28.1721C140.517 26.7966 139.975 25.3066 138.504 24.1054C135.135 21.3729 129.859 22.6475 129.169 22.8217C128.868 22.8996 128.623 22.9776 128.457 23.028C128.791 22.436 129.225 21.9044 129.738 21.4554C132.811 18.7917 137.574 20.3505 137.902 20.4605C138.941 20.8179 139.91 21.3482 140.769 22.0285C144.092 24.7656 144.231 29.9051 143.976 32.9173C144.916 33.1863 145.743 33.7507 146.331 34.5256C146.919 35.3005 147.237 36.2437 147.237 37.2132Z" fill="#3B8569"/>
<path d="M142.923 40.7446C142.218 40.7449 141.528 40.5378 140.941 40.1497C140.354 39.7615 139.897 39.2097 139.627 38.564C139.357 37.9183 139.286 37.2078 139.423 36.5222C139.561 35.8367 139.901 35.207 140.399 34.7126C140.898 34.2183 141.534 33.8817 142.226 33.7452C142.918 33.6088 143.635 33.6787 144.287 33.9461C144.939 34.2135 145.496 34.6665 145.888 35.2476C146.28 35.8287 146.489 36.512 146.489 37.2109C146.488 38.1477 146.112 39.0458 145.444 39.7082C144.775 40.3707 143.869 40.7434 142.923 40.7446ZM142.923 34.1369C142.309 34.1366 141.709 34.3168 141.198 34.6547C140.687 34.9925 140.289 35.4728 140.054 36.0347C139.819 36.5967 139.758 37.2151 139.877 37.8118C139.997 38.4084 140.293 38.9564 140.727 39.3866C141.161 39.8167 141.714 40.1096 142.317 40.2283C142.919 40.3469 143.543 40.2859 144.11 40.053C144.678 39.8201 145.162 39.4258 145.503 38.9199C145.844 38.414 146.026 37.8193 146.026 37.2109C146.026 36.3957 145.698 35.6141 145.117 35.0375C144.535 34.461 143.746 34.1366 142.923 34.1357V34.1369Z" fill="white"/>
</g>
<defs>
<clipPath id="clip0_2_236">
<rect width="209" height="166" fill="white"/>
</clipPath>
</defs>
</svg>
