<svg width="204" height="204" viewBox="0 0 204 204" fill="none" xmlns="http://www.w3.org/2000/svg">
<path d="M112.249 87.8789C112.249 87.8789 111.444 93.3298 113.713 98.3278C115.981 103.326 109.65 110.466 109.65 110.466L98.5626 102.333L112.249 87.8789Z" fill="#1D0A03"/>
<path d="M80.6065 126.928C82.1896 129.551 93.6482 148.155 103.774 145.798C104.896 145.497 105.952 144.99 106.888 144.303C117.276 136.527 107.685 97.3315 106.016 90.6821L96.7674 91.9021C96.8612 102.707 96.9547 113.511 97.0479 124.317L88.2045 107.315C87.2192 107.452 82.7506 108.177 79.9833 112.048C77.0335 116.171 77.2232 122.19 80.6065 126.928Z" fill="#FECD50"/>
<path d="M80.6065 126.928C82.1896 129.551 93.6482 148.155 103.774 145.798C104.896 145.497 105.952 144.99 106.888 144.303C117.276 136.527 107.685 97.3315 106.016 90.6821L96.7674 91.9021C96.8612 102.707 96.9547 113.511 97.0479 124.317L88.2045 107.315C87.2192 107.452 82.7506 108.177 79.9833 112.048C77.0335 116.171 77.2232 122.19 80.6065 126.928Z" fill="#FECD50"/>
<path d="M108.124 82.8999L93.6758 80.6089L89.8854 104.514L104.334 106.805L108.124 82.8999Z" fill="#FC9C86"/>
<path d="M75.378 161.865H116.439C112.13 150.747 111.297 141.617 111.375 135.21C111.569 119.18 116.304 111.284 111.375 104.569C105.634 96.752 90.3098 98.9185 89.0174 99.0899C85.7269 99.5254 84.0857 100.342 83.1626 100.895C80.7289 102.353 77.471 105.461 75.5647 114.223C72.0355 130.44 74.9292 157.804 75.378 161.865Z" fill="#94BE53"/>
<path d="M122.367 114.783L110.662 123.253L105.888 106.59L105.06 93.7993L110.662 86.0269L122.367 114.783Z" fill="#94BE53"/>
<path d="M114.726 81.3021C114.476 82.9217 114.131 84.5252 113.693 86.1043C113.514 86.7326 113.326 87.3773 113.126 88.0301C111.751 92.4773 109.715 97.1285 105.766 96.4961C99.7315 95.5413 91.9142 83.8685 92.869 77.8301C93.3289 74.9317 94.9213 72.3347 97.2959 70.6105C99.6706 68.8862 102.633 68.1759 105.531 68.6358C108.43 69.0957 111.027 70.6881 112.751 73.0627C114.475 75.4374 115.185 78.3997 114.726 81.2981V81.3021Z" fill="#FC9C86"/>
<path d="M112.025 82.7017C112.001 82.8537 111.918 82.9901 111.795 83.0812C111.671 83.1722 111.516 83.2103 111.364 83.1872C111.214 83.1601 111.081 83.0756 110.993 82.9517C110.905 82.8279 110.869 82.6745 110.892 82.5244C110.916 82.3742 110.997 82.2392 111.118 82.1481C111.24 82.0569 111.392 82.017 111.543 82.0367C111.618 82.0487 111.691 82.0754 111.756 82.1154C111.82 82.1553 111.877 82.2077 111.922 82.2694C111.966 82.3312 111.998 82.4011 112.016 82.4753C112.034 82.5495 112.037 82.6264 112.025 82.7017Z" fill="#1D0A03"/>
<path d="M113.685 81.5104C113.461 81.7797 113.094 80.6454 111.894 79.8458C111.2 79.3888 110.111 78.9359 110.184 78.5687C110.327 77.8425 111.417 77.9975 112.461 78.789C113.604 79.654 113.91 81.2411 113.685 81.5104Z" fill="#1D0A03"/>
<path d="M104.497 81.5102C104.479 81.6235 104.427 81.7289 104.349 81.8131C104.271 81.8972 104.17 81.9563 104.058 81.9829C103.947 82.0095 103.83 82.0023 103.722 81.9624C103.614 81.9225 103.521 81.8516 103.454 81.7586C103.386 81.6656 103.348 81.5548 103.344 81.4401C103.34 81.3254 103.369 81.212 103.43 81.1142C103.49 81.0165 103.577 80.9387 103.682 80.8908C103.786 80.8429 103.902 80.8271 104.016 80.8452C104.091 80.8567 104.164 80.8831 104.229 80.9229C104.294 80.9627 104.351 81.015 104.395 81.0769C104.44 81.1388 104.472 81.209 104.49 81.2834C104.507 81.3578 104.51 81.4349 104.497 81.5102Z" fill="#1D0A03"/>
<path d="M106.61 77.9931C106.508 78.3562 105.329 78.2623 104.509 78.3603C103.081 78.5275 102.233 79.3803 102.155 79.0335C102.078 78.6867 103.073 77.4137 104.481 77.1607C105.774 76.9282 106.806 77.2791 106.61 77.9931Z" fill="#1D0A03"/>
<path d="M108.03 83.0036C107.745 84.7988 107.541 87.867 107.537 87.8996C107.532 87.9509 107.509 87.9986 107.471 88.0334C107.434 88.0682 107.384 88.0875 107.333 88.0873H107.32C107.294 88.0857 107.267 88.0789 107.243 88.0672C107.219 88.0555 107.197 88.0391 107.18 88.019C107.162 87.9989 107.148 87.9755 107.139 87.9501C107.131 87.9247 107.127 87.8979 107.129 87.8711C107.129 87.8384 107.341 84.7539 107.63 82.9383C107.632 82.9095 107.639 82.8813 107.652 82.8556C107.665 82.8298 107.683 82.8071 107.705 82.7889C107.728 82.7707 107.754 82.7575 107.782 82.75C107.81 82.7426 107.839 82.7412 107.867 82.7458C107.896 82.7505 107.923 82.7611 107.947 82.777C107.971 82.7929 107.991 82.8137 108.007 82.8381C108.022 82.8624 108.032 82.8898 108.036 82.9183C108.04 82.9468 108.038 82.9759 108.03 83.0036Z" fill="#1D0A03"/>
<path d="M107.712 91.0451C107.712 91.9427 107.304 92.6689 106.81 92.6689C106.317 92.6689 105.909 91.9427 105.909 91.0451C105.909 90.1475 106.317 89.4131 106.81 89.4131C107.304 89.4131 107.712 90.1434 107.712 91.0451Z" fill="#1D0A03"/>
<path d="M113.693 86.1042C113.693 86.1042 116.517 75.4268 107.83 71.6569C107.391 72.9071 106.745 74.075 105.921 75.1127C105.599 75.5207 101.959 79.9679 98.2423 79.2743C97.1489 79.0703 96.5165 78.5072 96.1003 78.854C95.423 79.4252 96.7898 81.2286 96.2961 83.5379C96.1289 84.3131 95.729 85.1576 94.9008 86.0756C92.057 89.2376 96.0717 95.6963 93.6564 99.3479C93.1872 100.075 92.5207 100.654 91.7347 101.017C89.4254 102.053 87.4181 100.352 85.3821 100.319C83.5461 100.286 80.8289 101.604 77.3772 108.23C76.5285 106.977 75.1332 104.505 74.9455 101.159C74.7129 97.0794 76.4021 93.5665 77.6057 92.4649C77.8301 92.2609 78.9643 91.2613 80.4984 89.7639C80.4984 89.7639 80.8941 89.3641 81.2613 89.0091C89.0419 81.5223 87.1488 69.5271 95.1905 65.3288C95.831 64.9943 98.6707 63.5132 102.273 64.0518C104.868 64.4394 106.733 65.7042 107.708 66.4916C108.932 66.7038 112.579 67.5035 114.925 70.6736C117.957 74.7536 117.594 81.1184 113.693 86.1042Z" fill="#1D0A03"/>
<path d="M94.9334 84.5661C93.3953 84.9211 91.8 83.693 91.3634 81.8244C90.9269 79.9557 91.8285 78.1524 93.3667 77.7974C94.9049 77.4425 96.5042 78.6705 96.9367 80.5392C97.3692 82.4078 96.4716 84.2112 94.9334 84.5661Z" fill="#FC9C86"/>
<path d="M95.8351 81.1918C95.8161 81.2159 95.792 81.2353 95.7644 81.2487C95.7369 81.2622 95.7067 81.2692 95.676 81.2693C95.522 81.274 95.3689 81.2945 95.2191 81.3305C94.9906 81.3877 94.7621 81.4978 94.7498 81.71C94.709 82.4036 95.3904 82.628 95.419 82.628C95.4448 82.6359 95.4688 82.6488 95.4895 82.6661C95.5103 82.6833 95.5274 82.7045 95.54 82.7284C95.5525 82.7523 95.5601 82.7785 95.5625 82.8053C95.5648 82.8322 95.5618 82.8593 95.5536 82.885C95.5407 82.926 95.5153 82.9618 95.4808 82.9875C95.4464 83.0131 95.4048 83.0272 95.3618 83.0278C95.3412 83.0271 95.3207 83.0244 95.3007 83.0197C94.9498 82.9177 94.2929 82.4933 94.3459 81.6773C94.3786 81.1388 94.9416 80.9266 95.4067 80.8736C95.2354 80.3554 94.7498 79.1559 93.8767 79.058C93.0362 78.9641 92.8934 79.8903 92.8812 79.9964C92.8741 80.0499 92.8461 80.0984 92.8032 80.1313C92.7604 80.1642 92.7063 80.1788 92.6527 80.1718C92.5993 80.1657 92.5504 80.1386 92.5167 80.0966C92.4831 80.0546 92.4675 80.0009 92.4732 79.9474C92.5344 79.4537 92.9138 78.548 93.9216 78.6541C95.321 78.805 95.8596 80.9225 95.8759 81.0123C95.8845 81.0433 95.8853 81.0759 95.8782 81.1072C95.8711 81.1386 95.8563 81.1676 95.8351 81.1918Z" fill="#1D0A03"/>
<path d="M140.836 167.454L144.214 182.557C144.255 182.743 144.359 182.909 144.507 183.027C144.655 183.146 144.84 183.21 145.03 183.21L168.898 183.08C169.039 183.079 169.178 183.042 169.302 182.973C169.425 182.904 169.529 182.805 169.604 182.685C169.679 182.565 169.721 182.427 169.729 182.286C169.736 182.145 169.707 182.004 169.645 181.877C169.218 181.002 168.674 180.189 168.028 179.461C165.843 177.002 163.084 176.208 161.687 175.937C161.534 175.907 161.392 175.836 161.278 175.73C161.163 175.625 161.081 175.489 161.04 175.339C160.191 172.201 159.341 169.063 158.49 165.925C158.439 165.739 158.325 165.576 158.167 165.464C158.009 165.353 157.818 165.299 157.625 165.313L141.593 166.442C141.473 166.451 141.356 166.485 141.251 166.542C141.146 166.599 141.054 166.679 140.982 166.775C140.911 166.871 140.86 166.981 140.835 167.099C140.81 167.216 140.81 167.337 140.836 167.454Z" fill="#212121"/>
<path d="M88.7961 155.142C82.5629 157.583 87.8781 175.316 88.7676 181.705L90.3996 183.263C93.1199 183.523 95.4904 183.6 97.4233 183.601C101.927 183.601 104.461 183.186 106.813 182.442L106.89 182.418C115.04 179.799 118.51 171.119 122.459 161.244C124.934 155.035 126.689 148.563 127.69 141.955L131.158 141.46C135.775 151.438 140.393 161.415 145.011 171.392L146.692 172.454C153.025 172.379 157.335 171.084 157.335 171.084C158.131 170.834 159.122 170.512 160.267 170.11C160.705 169.956 161.069 169.642 161.284 169.231C161.5 168.819 161.55 168.341 161.426 167.893C156.703 150.928 153.408 138.007 151.232 129.171C148.912 119.748 146.62 109.934 139.275 107.125C135.631 105.731 132.151 106.599 130.868 106.938C111.832 111.95 98.2362 152.334 98.2342 152.337C98.2342 152.337 90.118 154.623 88.7961 155.142Z" fill="#102D55"/>
<path d="M134.048 167.454L137.426 182.557C137.467 182.743 137.571 182.909 137.719 183.027C137.867 183.146 138.052 183.21 138.242 183.21L162.105 183.08C162.246 183.079 162.385 183.042 162.509 182.973C162.632 182.904 162.736 182.805 162.811 182.685C162.885 182.565 162.928 182.427 162.935 182.286C162.943 182.145 162.914 182.004 162.851 181.877C162.425 181.002 161.881 180.189 161.235 179.461C159.05 177.002 156.291 176.208 154.893 175.937C154.74 175.907 154.599 175.836 154.484 175.73C154.37 175.625 154.288 175.489 154.247 175.339C153.397 172.201 152.547 169.063 151.697 165.925C151.646 165.739 151.532 165.576 151.374 165.464C151.216 165.353 151.024 165.299 150.832 165.313L134.798 166.442C134.679 166.452 134.564 166.486 134.459 166.544C134.354 166.602 134.263 166.681 134.192 166.777C134.121 166.873 134.071 166.983 134.046 167.1C134.021 167.217 134.022 167.338 134.048 167.454Z" fill="#212121"/>
<path d="M114.865 80.0305H114.841C114.787 80.0241 114.738 79.9968 114.705 79.9545C114.672 79.9123 114.656 79.8586 114.662 79.805C115.216 75.0824 110.786 71.2554 110.74 71.2166C110.699 71.1817 110.674 71.1319 110.67 71.0782C110.665 71.0245 110.682 70.9712 110.717 70.93C110.734 70.9095 110.755 70.8926 110.779 70.8803C110.803 70.868 110.829 70.8604 110.856 70.8582C110.882 70.8559 110.909 70.8589 110.935 70.867C110.96 70.8752 110.984 70.8883 111.005 70.9055C111.194 71.0677 115.647 74.9111 115.067 79.852C115.061 79.9012 115.037 79.9465 115 79.9793C114.963 80.0122 114.915 80.0304 114.865 80.0305Z" fill="white"/>
<path d="M101.348 75.6462C101.303 75.6459 101.258 75.6303 101.223 75.6019C101.187 75.5735 101.162 75.5339 101.151 75.4894C101.14 75.445 101.145 75.3983 101.164 75.3568C101.183 75.3153 101.216 75.2814 101.256 75.2606C104.112 73.8183 105.778 69.5935 105.794 69.5486C105.814 69.4981 105.853 69.4576 105.902 69.4358C105.952 69.4139 106.008 69.4127 106.059 69.4323C106.109 69.4519 106.15 69.4908 106.171 69.5403C106.193 69.5899 106.194 69.6461 106.175 69.6965C106.106 69.876 104.436 74.109 101.44 75.6227C101.412 75.6379 101.38 75.646 101.348 75.6462Z" fill="white"/>
<path d="M100.337 72.4404C100.289 72.4401 100.242 72.4224 100.205 72.3905C100.168 72.3585 100.144 72.3145 100.137 72.2664C100.13 72.2182 100.14 72.1691 100.166 72.1278C100.192 72.0866 100.232 72.056 100.278 72.0416C102.811 71.2725 104.562 68.4247 104.577 68.3961C104.605 68.3497 104.65 68.3163 104.702 68.3033C104.755 68.2903 104.811 68.2988 104.857 68.3268C104.903 68.3548 104.937 68.4 104.95 68.4526C104.963 68.5052 104.954 68.5609 104.926 68.6073C104.852 68.7297 103.081 71.6173 100.397 72.4323C100.377 72.4375 100.357 72.4402 100.337 72.4404Z" fill="white"/>
<path d="M77.6098 102.978C77.5697 102.978 77.5306 102.966 77.4972 102.944C77.4638 102.922 77.4377 102.89 77.4221 102.854C77.4017 102.806 75.4219 98.0167 79.3366 95.428L79.5314 95.2994C83.181 92.8871 85.1914 91.5581 86.0299 87.8392C86.035 87.8123 86.0456 87.7868 86.0608 87.7641C86.076 87.7414 86.0956 87.722 86.1185 87.7071C86.1414 87.6921 86.167 87.6819 86.1939 87.6771C86.2208 87.6722 86.2484 87.6728 86.2751 87.6788C86.3017 87.6848 86.3269 87.6962 86.3491 87.7121C86.3713 87.728 86.3901 87.7482 86.4043 87.7716C86.4185 87.7949 86.4279 87.8208 86.432 87.8479C86.436 87.8749 86.4345 87.9025 86.4277 87.9289C85.5535 91.8049 83.4952 93.1697 79.7569 95.6391L79.56 95.7686C75.9247 98.1718 77.776 102.65 77.7954 102.694C77.8085 102.725 77.8138 102.759 77.8107 102.793C77.8076 102.826 77.7963 102.859 77.7777 102.887C77.7591 102.915 77.7338 102.938 77.7042 102.954C77.6745 102.97 77.6414 102.978 77.6077 102.978H77.6098Z" fill="white"/>
<path d="M79.0021 103.955C78.9555 103.954 78.9104 103.938 78.8742 103.909C78.838 103.88 78.8129 103.839 78.8032 103.793C78.7624 103.603 77.8454 99.1146 80.4627 97.503C80.5086 97.4773 80.5626 97.4704 80.6135 97.4836C80.6644 97.4968 80.7082 97.5291 80.7358 97.5739C80.7635 97.6186 80.7728 97.6723 80.7618 97.7237C80.7508 97.7751 80.7204 97.8203 80.6769 97.8498C78.3044 99.3115 79.1928 103.664 79.202 103.709C79.2083 103.739 79.2077 103.77 79.2003 103.8C79.1929 103.829 79.1789 103.857 79.1593 103.881C79.1397 103.904 79.115 103.923 79.0871 103.936C79.0591 103.949 79.0287 103.955 78.998 103.955H79.0021Z" fill="white"/>
<path d="M163.25 183.281C163.198 183.281 163.148 183.261 163.11 183.226C163.072 183.19 163.049 183.142 163.046 183.09C162.748 178.462 154.225 175.528 154.138 175.499C154.106 175.488 154.078 175.47 154.055 175.445C154.032 175.421 154.015 175.391 154.007 175.358L153.242 172.532C153.233 172.481 153.243 172.429 153.271 172.386C153.299 172.343 153.342 172.312 153.391 172.299C153.441 172.286 153.494 172.292 153.539 172.317C153.584 172.341 153.619 172.381 153.635 172.43L154.373 175.153C155.413 175.519 163.153 178.399 163.451 183.068C163.453 183.095 163.449 183.122 163.441 183.148C163.432 183.173 163.418 183.196 163.401 183.217C163.383 183.237 163.361 183.253 163.337 183.265C163.313 183.277 163.287 183.284 163.26 183.286L163.25 183.281Z" fill="white"/>
<path d="M150.762 176.643C150.713 176.643 150.665 176.626 150.628 176.595C150.59 176.563 150.566 176.519 150.558 176.471C150.55 176.422 150.56 176.373 150.586 176.331C150.612 176.289 150.652 176.259 150.699 176.244L154.141 175.112C154.193 175.095 154.249 175.099 154.297 175.123C154.345 175.148 154.382 175.19 154.399 175.242C154.416 175.293 154.412 175.349 154.387 175.398C154.363 175.446 154.32 175.482 154.269 175.499L150.826 176.633C150.806 176.639 150.784 176.642 150.762 176.643Z" fill="white"/>
<path d="M158.577 176.487C158.551 176.489 158.524 176.487 158.498 176.479C158.472 176.471 158.448 176.458 158.427 176.441C158.407 176.424 158.39 176.403 158.377 176.379C158.364 176.355 158.357 176.329 158.354 176.302C158.351 176.275 158.354 176.248 158.362 176.223C158.37 176.197 158.383 176.173 158.4 176.152C158.417 176.131 158.438 176.114 158.462 176.102C158.486 176.089 158.512 176.081 158.539 176.079L161.253 175.543C161.28 175.537 161.307 175.536 161.334 175.54C161.361 175.545 161.387 175.555 161.41 175.57C161.434 175.585 161.454 175.604 161.469 175.627C161.485 175.649 161.495 175.675 161.501 175.702C161.506 175.729 161.506 175.756 161.5 175.783C161.495 175.81 161.484 175.836 161.468 175.858C161.452 175.881 161.432 175.9 161.409 175.915C161.385 175.929 161.36 175.939 161.332 175.943L158.617 176.48C158.604 176.484 158.591 176.486 158.577 176.487Z" fill="white"/>
<path d="M75.888 154.503C75.5464 154.583 75.2366 154.764 74.9986 155.021C74.7605 155.279 74.6053 155.602 74.5528 155.949C72.6974 167.933 75.4708 178.218 81.3521 181.202C83.2249 182.153 86.6204 182.976 89.9456 183.164C89.9456 183.164 94.552 183.426 99.2878 182.042C106.245 180.011 117.342 164.457 123.731 140.683C123.733 140.676 123.737 140.67 123.743 140.665C123.749 140.661 123.756 140.658 123.764 140.658C123.771 140.658 123.779 140.661 123.784 140.665C123.79 140.67 123.795 140.676 123.796 140.683L132.906 172.759C132.991 173.055 133.152 173.323 133.373 173.536C133.594 173.75 133.868 173.902 134.166 173.976C137.361 174.796 140.701 174.87 143.929 174.192C147.158 173.513 150.186 172.101 152.781 170.065C153.047 169.857 153.246 169.576 153.355 169.257C153.464 168.937 153.477 168.593 153.393 168.266C151.266 159.907 149.634 153.204 148.614 148.974C142.172 122.295 139.995 110.576 131.052 107.31C130.382 107.069 129.695 106.882 128.996 106.749C113.885 103.985 93.4646 137.82 85.6525 151.67C85.5341 151.88 85.3732 152.063 85.18 152.208C84.9868 152.353 84.7656 152.455 84.5305 152.509L75.888 154.503Z" fill="#306F9F"/>
<path d="M74.0377 165.228C74.0785 159.063 74.1197 152.897 74.1611 146.732L90.9289 147.058L87.7057 160.65L74.0377 165.228Z" fill="#306F9F"/>
<path d="M99.8294 81.9062C99.348 83.4933 99.4826 84.0155 99.4826 84.0237C99.4967 84.0745 99.4906 84.1289 99.4655 84.1753C99.4404 84.2217 99.3983 84.2566 99.348 84.2726C99.3286 84.2805 99.3078 84.2847 99.2868 84.2848C99.2444 84.2845 99.2031 84.271 99.1687 84.2461C99.1344 84.2212 99.1086 84.1863 99.095 84.1461C99.0746 84.0849 98.9155 83.5137 99.4418 81.7879C99.9437 80.1436 99.8825 79.2623 99.8825 79.2542C99.8781 79.2001 99.8955 79.1465 99.9307 79.1051C99.9659 79.0638 100.016 79.0382 100.07 79.0339C100.124 79.0295 100.178 79.0469 100.219 79.0821C100.26 79.1173 100.286 79.1674 100.29 79.2215C100.29 79.2542 100.36 80.1722 99.8294 81.9062Z" fill="#1D0A03"/>
<path d="M84.5917 153.6C84.5558 153.6 84.5207 153.59 84.4897 153.572C84.4665 153.559 84.4462 153.541 84.4299 153.519C84.4136 153.498 84.4018 153.474 84.3949 153.448C84.3881 153.422 84.3865 153.395 84.3901 153.368C84.3938 153.341 84.4027 153.316 84.4162 153.293C84.4397 153.252 86.7857 149.219 88.1596 146.903C88.1734 146.88 88.1916 146.86 88.2131 146.844C88.2347 146.828 88.2592 146.816 88.2853 146.81C88.3113 146.803 88.3384 146.802 88.365 146.806C88.3916 146.81 88.4171 146.819 88.4401 146.833C88.4865 146.861 88.5199 146.906 88.5331 146.958C88.5463 147.011 88.5382 147.066 88.5105 147.112C87.1376 149.426 84.7916 153.458 84.7681 153.498C84.7502 153.529 84.7245 153.554 84.6936 153.572C84.6626 153.59 84.6275 153.6 84.5917 153.6Z" fill="#1D0A03"/>
<path d="M123.733 140.889C123.688 140.889 123.645 140.874 123.609 140.847C123.574 140.82 123.548 140.782 123.536 140.739C123.507 140.637 120.59 129.983 122.822 122.325C122.83 122.299 122.842 122.275 122.859 122.254C122.876 122.233 122.897 122.216 122.92 122.203C122.944 122.19 122.969 122.182 122.996 122.179C123.023 122.176 123.05 122.178 123.075 122.186C123.101 122.193 123.125 122.206 123.146 122.223C123.167 122.239 123.184 122.26 123.197 122.284C123.21 122.307 123.218 122.333 123.221 122.36C123.224 122.386 123.221 122.413 123.214 122.439C121.015 129.987 123.901 140.523 123.928 140.63C123.936 140.66 123.938 140.692 123.932 140.723C123.926 140.754 123.913 140.783 123.894 140.808C123.875 140.833 123.85 140.853 123.822 140.867C123.794 140.881 123.763 140.889 123.731 140.889H123.733Z" fill="#1D0A03"/>
<path d="M85.4291 26.9088C79.6345 20.7032 71.5571 20.4686 69.8955 20.4135C56.6763 19.9708 47.6136 30.8695 44.4149 34.7159C33.66 47.6567 33.15 63.9338 35.394 71.6644C35.4205 71.7552 35.443 71.8378 35.4797 71.9531C38.2735 80.7251 47.6677 79.6632 50.6573 87.6305C53.1359 94.239 48.7193 98.2272 51.002 103.677C52.0078 106.08 55.1728 108.726 64.9128 109.461C64.3814 109.313 58.9213 107.693 57.2781 102.604C57.0486 101.895 56.3193 99.5267 57.2159 96.9573C58.2471 93.9993 60.3238 93.9504 62.0293 91.1984C63.648 88.5872 64.363 84.4664 62.8759 81.4584C60.9256 77.511 56.6447 78.3587 53.9498 74.0849C52.5728 71.9031 51.7803 68.6564 52.4617 66.3329C55.1851 57.0509 80.9431 64.098 89.0705 51.9957C93.6564 45.1638 91.6868 33.6092 85.4291 26.9088ZM63.4695 32.7228C66.5948 29.774 71.3786 33.0584 71.3786 33.0584C71.3786 33.0584 73.4257 34.721 72.3986 37.0854C71.3714 39.4497 69.5487 37.9279 65.9502 38.1717C62.3516 38.4155 60.3452 35.6727 63.4695 32.7239V32.7228ZM69.3008 56.1573C66.5132 56.0247 66.198 52.7342 64.4518 52.8362C62.7055 52.9382 60.4136 52.3028 60.382 50.1659C60.3503 48.029 58.4725 49.5375 57.424 47.7882C56.3754 46.0389 59.1784 45.3515 57.9207 43.9439C56.663 42.5363 60.3126 39.1947 60.3126 39.1947C60.3126 39.1947 59.465 41.3459 60.7267 42.3119C61.9885 43.2778 64.9587 41.9385 65.0107 43.7582C65.0627 45.5779 64.6088 46.8968 66.91 47.1579C69.2111 47.419 67.6791 48.6297 68.9357 50.2893C70.1923 51.9488 72.0079 49.5039 73.4339 50.7626C74.8599 52.0212 73.6083 53.9511 77.1753 52.8474C77.1742 52.8464 72.0895 56.292 69.3008 56.1584V56.1573ZM84.0215 46.2909C82.3538 50.3352 79 49.2009 77.9127 45.5381C76.8254 41.8753 74.7017 40.5401 76.5816 38.7694C78.4615 36.9987 80.7993 38.5154 80.7993 38.5154C80.7993 38.5154 85.6892 42.2486 84.0215 46.2919V46.2909Z" fill="#4EABD5"/>
<path d="M145.583 38.9639C133.561 38.9639 123.815 47.0219 123.815 56.9526C123.815 62.2739 126.613 67.0506 131.057 70.3472L129.418 78.0411C129.396 78.142 129.407 78.2472 129.449 78.3415C129.491 78.4358 129.561 78.5145 129.651 78.5663C129.74 78.6181 129.843 78.6404 129.946 78.6299C130.049 78.6195 130.145 78.5769 130.222 78.5082L136.187 73.1828C139.18 74.3557 142.368 74.9523 145.583 74.9413C157.603 74.9413 167.349 66.8833 167.349 56.9526C167.349 47.0219 157.603 38.9639 145.583 38.9639Z" fill="#4EABD5"/>
<path d="M147.539 70.9051C147.107 70.9032 146.676 70.856 146.254 70.7643C138.336 69.0803 137.015 70.6684 137.002 70.6847C136.97 70.7278 136.922 70.7564 136.869 70.7644C136.816 70.7724 136.762 70.7592 136.719 70.7276C136.676 70.6968 136.647 70.6508 136.638 70.5991C136.628 70.5474 136.639 70.4941 136.668 70.4501C136.72 70.3736 138.039 68.6009 146.338 70.3655C148.564 70.8388 150.429 70.0115 151.73 67.9726C151.739 67.9583 151.748 67.945 151.757 67.9307C144.977 68.7743 135.669 67.2167 130.869 63.2561C128.347 61.1722 127.389 58.6079 128.1 55.8397C128.799 53.1549 130.238 50.7206 132.254 48.814C134.269 46.9075 136.78 45.6054 139.499 45.0562C141.641 44.6319 143.698 44.738 145.531 45.3245C146.586 45.1263 147.667 45.1139 148.726 45.2878C153.466 46.0385 157.09 49.1995 159.146 52.8225C158.847 51.5673 158.345 50.3698 157.657 49.278C157.638 49.2558 157.624 49.2298 157.616 49.2016C157.607 49.1734 157.605 49.1438 157.61 49.1148C157.614 49.0858 157.624 49.058 157.64 49.0334C157.656 49.0088 157.677 48.9879 157.702 48.9722C157.727 48.9565 157.755 48.9463 157.784 48.9423C157.813 48.9383 157.843 48.9407 157.871 48.9492C157.899 48.9577 157.925 48.9721 157.947 48.9916C157.969 49.011 157.986 49.0349 157.998 49.0618C158.95 50.5726 159.555 52.2757 159.77 54.0485C160.344 55.2778 160.738 56.5831 160.94 57.9245C161.514 61.9362 160.022 65.0982 156.841 66.5945C155.594 67.1841 154.028 67.6064 152.274 67.8614C152.208 67.9746 152.141 68.0848 152.07 68.1929C150.93 69.983 149.379 70.9051 147.539 70.9051ZM142.063 45.2062C141.228 45.2082 140.397 45.2919 139.579 45.4561C136.935 45.9901 134.494 47.2561 132.534 49.1097C130.574 50.9634 129.175 53.3303 128.495 55.9406C127.816 58.5824 128.698 60.9386 131.128 62.9419C135.931 66.9087 145.322 68.4203 152.015 67.4942C152.52 66.551 152.893 65.543 153.123 64.4984C152.152 64.7535 151.146 64.8568 150.143 64.8044C148.409 65.8244 146.048 65.9621 143.309 65.1359C137.844 63.4897 136.41 58.3336 137.411 53.9527C138 51.3782 139.417 48.9873 141.298 47.392C142.294 46.5328 143.461 45.8939 144.722 45.5173C143.851 45.3068 142.958 45.2024 142.063 45.2062ZM153.563 64.3679C153.347 65.4266 152.995 66.4531 152.516 67.4218C154.104 67.1668 155.523 66.769 156.669 66.2273C159.675 64.8075 161.085 61.8016 160.538 57.9796C160.401 57.0541 160.167 56.1456 159.839 55.2695C159.836 56.2147 159.699 57.1548 159.431 58.0612C158.777 60.2869 157.585 62.0198 155.888 63.2143C155.175 63.7135 154.392 64.1025 153.563 64.3679ZM145.566 45.7672C142.178 46.4597 138.924 49.1638 137.802 54.0475C136.374 60.2695 139.938 63.6998 143.419 64.7483C146.121 65.5643 148.042 65.3654 149.4 64.7483C147.666 64.5443 146.034 63.916 144.773 63.0358C143.549 62.181 140.755 59.8993 141.209 57.1963C141.432 55.8641 142.407 54.6585 143.953 53.8027C145.993 52.6705 148.585 52.4135 150.395 53.1632C152.786 54.1536 153.927 58.2224 152.741 61.5364C152.304 62.7604 151.619 63.7253 150.72 64.4148C151.563 64.408 152.402 64.2852 153.211 64.0496C154.176 59.2199 153.048 52.9378 150.151 49.0771C148.995 47.5335 147.395 46.379 145.566 45.7672ZM148.056 53.1418C146.691 53.1525 145.35 53.503 144.155 54.1618C142.719 54.9563 141.818 56.059 141.615 57.2666C141.188 59.8085 144.106 62.0708 145.01 62.7032C146.362 63.6488 148.162 64.2904 150.049 64.4005C151.418 63.5305 152.073 62.2208 152.366 61.4017C153.48 58.2754 152.449 54.4565 150.243 53.5416C149.547 53.2677 148.804 53.1319 148.056 53.1418ZM146.384 45.6386C148.012 46.3172 149.428 47.4196 150.485 48.8312C153.398 52.7072 154.558 58.9935 153.655 63.9079C154.365 63.6573 155.038 63.3107 155.654 62.8777C157.274 61.7383 158.408 60.0778 159.041 57.9429C159.402 56.7128 159.514 55.4235 159.373 54.1495C157.525 50.1715 153.757 46.4995 148.663 45.6907C147.909 45.5721 147.143 45.5546 146.384 45.6386Z" fill="#B9D3ED"/>
<path d="M99.805 79.3642C99.5357 80.9187 98.8992 82.0937 98.9604 83.3014C99.0175 84.3949 99.3358 85.778 99.45 86.6389C99.5642 87.4997 93.6972 88.891 91.9306 87.9526C91.1839 85.6964 90.2822 84.2317 89.7722 83.5136C89.5649 83.331 89.3788 83.1257 89.2174 82.9016C88.5442 81.9224 88.2749 81.3349 87.8914 80.2373C87.7243 79.7444 87.588 79.2416 87.4834 78.7318C87.2386 77.5731 86.1941 76.6918 87.0835 76.0105C88.2504 75.1169 90.2047 78.3565 90.3108 78.536C90.2782 78.3932 89.8661 76.7489 89.5764 74.9945C89.2418 72.9627 88.5197 70.4045 89.25 70.123C90.4944 69.6497 90.9677 71.8081 91.4573 73.3748C91.6776 74.0765 91.902 74.5049 92.1958 75.4719C92.2692 74.6151 92.053 73.3462 91.849 72.1385C91.5593 70.4127 91.3063 68.8745 91.9591 68.744C93.0648 68.5277 93.4891 70.3637 94.0358 72.0814C94.4194 73.2646 94.7213 74.4519 94.913 75.0517C95.0477 73.9705 94.9416 72.877 94.7866 71.906C94.4887 70.0373 94.3296 69.4131 94.8763 69.2091C95.6107 68.9317 96.1411 69.5641 96.6552 71.192C96.9816 72.2242 97.2427 73.8032 97.3814 74.7457C97.602 74.102 97.7164 73.4268 97.7201 72.7465C97.7364 71.5714 97.4467 70.2821 98.1852 70.3189C98.7809 70.3474 99.4663 71.8162 99.7927 73.6849C100.164 75.8881 99.96 78.5401 99.805 79.3642Z" fill="#FC9C86"/>
<path d="M114.983 135.24C109.25 142.062 87.0509 137.769 80.4209 125.06C79.8211 123.914 75.7166 116.048 79.6742 109.74C81.4531 106.9 84.1826 105.456 86.0635 104.742C86.4189 104.609 86.8086 104.601 87.1693 104.718C87.53 104.835 87.8406 105.071 88.0505 105.386L92.6486 112.249C93.7176 113.844 96.1901 112.71 95.676 110.862C94.9049 108.079 94.1474 105.244 93.4034 102.355C92.3059 98.0656 91.2954 93.8591 90.372 89.7356C90.2798 89.3285 90.3424 88.9017 90.5475 88.5382C90.7526 88.1747 91.0856 87.9006 91.4818 87.769C93.9746 86.9286 96.4675 86.0894 98.9604 85.2517C99.3409 85.1255 99.7538 85.1383 100.126 85.2877C100.498 85.437 100.805 85.7134 100.992 86.0677C106.184 95.9657 110.341 106.373 113.395 117.125C117.39 131.16 116.125 133.881 114.983 135.24Z" fill="#94BE53"/>
<path d="M94.8427 136.696C94.8212 136.696 94.7998 136.693 94.7794 136.686C86.8724 134.116 78.5318 122.616 78.4482 122.5C78.4318 122.478 78.42 122.454 78.4134 122.427C78.4067 122.401 78.4054 122.373 78.4095 122.346C78.4137 122.32 78.4231 122.294 78.4373 122.271C78.4515 122.247 78.4702 122.227 78.4923 122.212C78.5144 122.196 78.5395 122.184 78.566 122.178C78.5925 122.172 78.6199 122.172 78.6467 122.176C78.6735 122.181 78.699 122.191 78.7219 122.206C78.7447 122.221 78.7644 122.24 78.7797 122.262C78.8623 122.377 87.1253 133.769 94.9059 136.299C94.952 136.314 94.9911 136.345 95.0163 136.386C95.0416 136.428 95.0513 136.477 95.0437 136.524C95.0361 136.572 95.0117 136.616 94.9748 136.647C94.938 136.679 94.8911 136.696 94.8427 136.696Z" fill="#1D0A03"/>
<path d="M112.287 113.671C112.246 113.671 112.206 113.659 112.172 113.636C112.138 113.613 112.112 113.58 112.097 113.542L105.96 97.9843C105.94 97.934 105.941 97.8781 105.963 97.8288C105.985 97.7794 106.025 97.7406 106.075 97.7208C106.125 97.701 106.181 97.7018 106.23 97.7231C106.28 97.7444 106.319 97.7843 106.339 97.8343L112.476 113.392C112.486 113.417 112.491 113.444 112.491 113.471C112.49 113.498 112.485 113.524 112.474 113.549C112.463 113.574 112.448 113.596 112.428 113.615C112.409 113.633 112.386 113.648 112.361 113.658C112.337 113.666 112.312 113.671 112.287 113.671Z" fill="#1D0A03"/>
<path d="M102.093 128.906C102.054 128.907 102.015 128.895 101.982 128.874C101.949 128.853 101.922 128.823 101.906 128.787L98.5555 121.433C98.1791 120.99 92.4283 114.182 90.3955 109.035C88.3626 103.888 84.6396 103.908 84.5988 103.902C84.5451 103.901 84.494 103.879 84.456 103.841C84.418 103.803 84.3961 103.752 84.3948 103.698C84.3948 103.644 84.4163 103.592 84.4546 103.554C84.4928 103.516 84.5447 103.494 84.5988 103.494C84.6396 103.494 85.6351 103.485 86.902 104.152C88.0586 104.764 89.6713 106.077 90.778 108.885C92.8475 114.116 98.8298 121.125 98.89 121.189C98.9025 121.204 98.9128 121.22 98.9206 121.238L102.287 128.618C102.298 128.642 102.304 128.669 102.305 128.695C102.306 128.722 102.301 128.749 102.292 128.774C102.282 128.799 102.268 128.822 102.25 128.842C102.231 128.861 102.209 128.877 102.185 128.888C102.156 128.901 102.124 128.908 102.093 128.906Z" fill="#1D0A03"/>
<path d="M98.3402 120.245C98.2955 120.245 98.252 120.23 98.2165 120.203C98.1809 120.176 98.1552 120.138 98.1434 120.095L92.9628 101.021C92.9536 100.994 92.95 100.966 92.9522 100.938C92.9545 100.91 92.9625 100.882 92.9758 100.858C92.9891 100.833 93.0074 100.811 93.0296 100.794C93.0517 100.776 93.0772 100.764 93.1044 100.757C93.1317 100.749 93.1601 100.748 93.1879 100.753C93.2157 100.757 93.2423 100.767 93.2659 100.782C93.2896 100.798 93.3099 100.818 93.3255 100.841C93.3411 100.865 93.3516 100.891 93.3565 100.919L98.5371 119.993C98.5511 120.045 98.5439 120.1 98.5169 120.147C98.4899 120.194 98.4455 120.228 98.3933 120.243C98.3758 120.246 98.3579 120.246 98.3402 120.245Z" fill="#1D0A03"/>
</svg>
