<svg width="191" height="204" viewBox="0 0 191 204" fill="none" xmlns="http://www.w3.org/2000/svg">
<g id="Group 23983">
<path id="Vector" d="M49.3718 31.2007L60.436 29.2427L56.5964 37.4011L68.5646 41.2531L62.111 35.7581L65.8542 26.1914H52.874L49.3718 31.2007Z" fill="#4EABD5"/>
<path id="Vector_2" d="M85.7152 12.4462L93.0232 15.8564L87.1753 19.0282L92.4345 26.1913L91.1165 20.3411L97.5284 16.312L89.9742 10.9727L85.7152 12.4462Z" fill="#4EABD5"/>
<path id="Vector_3" d="M130.585 29.3364L120.892 27.6206C122.014 30.0045 123.135 32.3893 124.255 34.7749L113.771 38.1525L119.419 33.3302L116.143 24.9521H127.516L130.585 29.3364Z" fill="#4EABD5"/>
<path id="Vector_4" d="M138.592 0.50586H185.621C186.877 0.50586 188.082 0.986942 188.971 1.84327C189.86 2.69961 190.359 3.86104 190.359 5.07208V70.3258C190.359 70.4333 190.315 70.5365 190.236 70.6125C190.157 70.6885 190.05 70.7312 189.938 70.7312H134.89C134.779 70.7312 134.672 70.6885 134.593 70.6125C134.514 70.5365 134.47 70.4333 134.47 70.3258V4.47714C134.47 3.95552 134.576 3.43901 134.783 2.95711C134.991 2.47521 135.294 2.03736 135.677 1.66858C136.06 1.29979 136.514 1.0073 137.014 0.807795C137.515 0.608293 138.051 0.505695 138.592 0.50586Z" fill="#40C2D6"/>
<path id="Vector_5" d="M11.1072 99.479C6.79317 105.172 3.69428 111.633 1.99013 118.488C-2.22459 135.625 3.84481 149.773 6.24261 154.684L28.6707 154.945C32.4556 141.656 30.2584 134.11 27.4881 129.653C25.1437 125.887 22.6 124.658 20.5643 119.27C18.5494 113.94 19.3452 110.651 16.5111 105.728C15.1221 103.344 13.2904 101.226 11.1072 99.479Z" fill="#4EABD5"/>
<path id="Vector_6" d="M169.93 150.605H0.296957C0.132952 150.605 0 150.733 0 150.891V172.713C0 172.871 0.132952 172.999 0.296957 172.999H169.93C170.094 172.999 170.227 172.871 170.227 172.713V150.891C170.227 150.733 170.094 150.605 169.93 150.605Z" fill="#40C2D6"/>
<path id="Vector_7" d="M0.540509 204C0.402337 204 0.269824 203.947 0.172122 203.853C0.0744195 203.759 0.0195312 203.631 0.0195312 203.498V76.1456C0.0195312 76.0125 0.0744195 75.8848 0.172122 75.7906C0.269824 75.6964 0.402337 75.6436 0.540509 75.6436C0.678681 75.6436 0.811195 75.6964 0.908897 75.7906C1.0066 75.8848 1.06149 76.0125 1.06149 76.1456V203.498C1.06149 203.631 1.0066 203.759 0.908897 203.853C0.811195 203.947 0.678681 204 0.540509 204Z" fill="#1D0A03"/>
<path id="Vector_8" d="M170.214 173.501H0.540509C0.402337 173.501 0.269824 173.448 0.172122 173.354C0.0744195 173.26 0.0195312 173.132 0.0195312 172.999C0.0195312 172.866 0.0744195 172.738 0.172122 172.644C0.269824 172.55 0.402337 172.497 0.540509 172.497H170.214C170.352 172.497 170.485 172.55 170.582 172.644C170.68 172.738 170.735 172.866 170.735 172.999C170.735 173.132 170.68 173.26 170.582 173.354C170.485 173.448 170.352 173.501 170.214 173.501Z" fill="#1D0A03"/>
<path id="Vector_9" d="M170.226 204C170.088 204 169.955 203.947 169.857 203.853C169.76 203.759 169.705 203.631 169.705 203.498V132.551C169.705 132.418 169.76 132.29 169.857 132.196C169.955 132.102 170.088 132.049 170.226 132.049C170.364 132.049 170.496 132.102 170.594 132.196C170.692 132.29 170.747 132.418 170.747 132.551V203.498C170.747 203.631 170.692 203.759 170.594 203.853C170.496 203.947 170.364 204 170.226 204Z" fill="#1D0A03"/>
<path id="Vector_10" d="M101.289 57.625H87.8421V80.4787H101.289V57.625Z" fill="#FC9C86"/>
<path id="Vector_11" d="M105.717 53.0215C105.717 58.8453 100.82 68.6555 94.7867 68.6555C88.7538 68.6555 83.8618 58.8453 83.8618 53.0215C83.8618 50.2279 85.0134 47.5487 87.0632 45.5734C89.113 43.598 91.8931 42.4883 94.7919 42.4883C97.6908 42.4883 100.471 43.598 102.521 45.5734C104.57 47.5487 105.722 50.2279 105.722 53.0215H105.717Z" fill="#FC9C86"/>
<path id="Vector_12" d="M100.971 52.0071C100.919 52.3385 100.023 51.5954 98.6003 51.5352C97.7824 51.5051 96.631 51.6808 96.5008 51.3444C96.2507 50.6817 97.251 50.27 98.5378 50.3955C99.9496 50.5411 101.018 51.6707 100.971 52.0071Z" fill="#1D0A03"/>
<path id="Vector_13" d="M93.0727 50.9577C93.0102 51.3141 91.8432 51.3342 91.0409 51.4999C89.6499 51.7911 88.9049 52.6747 88.7955 52.3534C88.6861 52.0321 89.5353 50.7367 90.9003 50.3652C92.1454 50.0288 93.203 50.2698 93.0727 50.9577Z" fill="#1D0A03"/>
<path id="Vector_14" d="M95.6047 60.2908C95.6083 60.3238 95.6051 60.3571 95.5952 60.3889C95.5854 60.4207 95.5691 60.4503 95.5473 60.476C95.5255 60.5016 95.4986 60.5229 95.4682 60.5385C95.4378 60.5541 95.4045 60.5638 95.3703 60.5669H95.3442C95.2786 60.5671 95.2153 60.5434 95.167 60.5006C95.1187 60.4578 95.089 60.399 95.0837 60.336C95.0837 60.3109 94.8076 57.3738 94.8076 55.6216C94.8076 55.5551 94.8351 55.4912 94.8839 55.4441C94.9328 55.3971 94.999 55.3706 95.0681 55.3706C95.1372 55.3706 95.2035 55.3971 95.2523 55.4441C95.3012 55.4912 95.3286 55.5551 95.3286 55.6216C95.3338 57.3487 95.6047 60.2657 95.6047 60.2908Z" fill="#1D0A03"/>
<path id="Vector_15" d="M91.8485 73.42C90.0146 73.361 87.2899 73.5317 84.7111 74.9035C79.1236 77.8757 77.9813 84.484 77.3002 88.8909C74.9219 104.279 74.0141 119.657 73.6533 127.549H116.054C113.13 117.383 112.053 108.92 111.626 102.948C110.649 89.4507 112.462 81.5796 106.761 76.7724C102.599 73.2681 96.4201 73.0534 91.8485 73.42Z" fill="#94BE53"/>
<path id="Vector_16" d="M90.2751 73.9596C90.296 73.8962 90.3016 73.8291 90.2916 73.7633C90.2816 73.6975 90.2562 73.6348 90.2173 73.5798C90.1784 73.5249 90.127 73.4793 90.0671 73.4463C90.0071 73.4134 89.9402 73.394 89.8713 73.3897C86.5841 73.1481 83.3259 72.6239 80.1355 71.8233C71.1083 69.5565 64.1754 65.4773 59.4918 62.0533C59.4327 62.0098 59.3855 61.9532 59.3542 61.8883C59.3228 61.8234 59.3084 61.7522 59.3119 61.6807C59.3155 61.6092 59.3371 61.5396 59.3748 61.4779C59.4125 61.4162 59.4651 61.3643 59.5282 61.3265L80.8949 48.3421C80.9919 48.2831 81.0625 48.1913 81.0928 48.0847C81.1232 47.9781 81.1111 47.8644 81.059 47.7659L78.4541 42.8182C78.4055 42.7242 78.3237 42.6501 78.2234 42.6091C78.1231 42.5682 78.0109 42.5631 77.9071 42.5947C76.2855 43.0968 69.5818 45.218 62.7271 48.1576C53.7753 51.9995 47.0573 55.7662 45.9698 60.3161C44.1464 67.9725 58.5579 79.7332 79.948 90.2877C80.0366 90.3329 80.1381 90.3488 80.2369 90.3329C80.3357 90.317 80.4264 90.2703 80.495 90.1999C82.3246 88.3138 83.966 86.266 85.3974 84.0836C87.466 80.9238 89.1052 77.5214 90.2751 73.9596Z" fill="#94BE53"/>
<path id="Vector_17" d="M99.5706 74.2555C99.5376 74.1572 99.5282 74.0529 99.5431 73.9505C99.5579 73.8481 99.5968 73.7503 99.6566 73.6645C99.7164 73.5787 99.7957 73.5071 99.8884 73.4551C99.9811 73.4031 100.085 73.3721 100.192 73.3644C103.372 73.1139 106.524 72.5982 109.611 71.8231C118.45 69.604 125.281 65.6402 129.961 62.2664C130.054 62.2003 130.129 62.1132 130.179 62.0127C130.229 61.9122 130.253 61.8014 130.249 61.6899C130.244 61.5785 130.211 61.4698 130.153 61.3734C130.095 61.2769 130.013 61.1957 129.915 61.1368L109.042 48.4573C108.895 48.367 108.787 48.2272 108.74 48.065C108.693 47.9027 108.71 47.7295 108.788 47.5787L111.195 43.0062C111.27 42.8612 111.397 42.7471 111.553 42.6845C111.708 42.6218 111.881 42.6149 112.042 42.6648C113.963 43.2622 120.42 45.3332 127.02 48.1636C135.975 52.0056 142.691 55.7723 143.777 60.3222C145.6 67.9522 131.264 79.6778 109.967 90.2122C109.83 90.2807 109.673 90.3043 109.521 90.2794C109.369 90.2545 109.23 90.1824 109.124 90.0741C107.347 88.2237 105.748 86.2205 104.349 84.0896C102.338 81.0162 100.732 77.7126 99.5706 74.2555Z" fill="#94BE53"/>
<path id="Vector_18" d="M103.06 72.9528C102.56 73.5302 100.194 76.1308 96.2142 76.5124C90.8169 77.0245 87.3576 72.9829 87.0971 72.6716C87.9046 71.9788 90.3532 70.0559 94.0001 69.8802C95.5525 69.8103 97.1026 70.0584 98.5482 70.6082C100.052 71.3914 101.556 72.1729 103.06 72.9528Z" fill="#FC9C86"/>
<path id="Vector_19" d="M111.526 70.9549C111.179 71.624 110.691 72.2157 110.093 72.692C109.749 72.9933 106.795 75.5086 103.518 74.5999C102.776 74.4214 102.093 74.0637 101.533 73.5606C99.0223 71.216 100.231 66.1703 101.549 63.409C101.768 62.9571 102.232 62.0585 103.242 60.3163C104.743 57.7408 105.456 56.8822 105.196 55.8179C105.003 55.0748 104.487 54.874 103.289 53.8649C103.289 53.8649 100.705 51.696 98.9233 48.9196C97.3031 46.3942 97.3968 44.9232 96.0423 44.4914C95.0889 44.1902 94.0782 44.617 93.3853 45.0136C92.689 44.9284 91.9822 45.0492 91.3587 45.36C90.7752 45.6612 90.2542 46.1683 89.6916 47.3431C88.2693 50.3103 89.2175 52.188 87.7535 53.172C87.0137 53.6741 86.6751 53.3126 86.175 53.8247C85.6019 54.4071 85.4664 55.4715 86.8262 60.4318C87.1596 61.6417 87.2951 62.0484 87.4983 62.7764C88.8267 67.5108 89.9208 71.4168 88.1078 73.1238C87.3628 73.8267 86.3729 73.9171 84.9455 74.0727C82.7 74.3137 80.7672 73.9371 79.8242 73.2041C76.8443 70.8897 74.7135 70.1717 74.7135 70.1717C74.7135 70.1717 74.0622 66.6171 76.8495 62.6208C79.6367 58.6244 77.8393 54.5326 80.5432 50.3756C83.2471 46.2185 81.0173 43.2664 84.9246 40.49C88.832 37.7137 93.8281 39.9679 93.8281 39.9679C93.8281 39.9679 99.8298 38.4919 104.779 42.0514C109.728 45.611 107.295 48.9547 109.906 51.2341C114.099 54.8891 109.124 56.812 109.906 61.3204C110.703 65.8992 112.943 68.1785 111.526 70.9549Z" fill="#1D0A03"/>
<path id="Vector_20" d="M86.2063 59.0411C84.7632 59.6084 83.0127 58.6896 82.2989 56.9977C81.5852 55.3058 82.1843 53.4733 83.6326 52.911C85.081 52.3487 86.8262 53.2624 87.54 54.9543C88.2537 56.6463 87.6546 58.4788 86.2063 59.0411Z" fill="#FC9C86"/>
<path id="Vector_21" d="M107.394 56.9977C106.686 58.6896 104.935 59.6084 103.487 59.0411C102.039 58.4737 101.445 56.6563 102.153 54.9543C102.862 53.2523 104.612 52.3486 106.061 52.9109C107.509 53.4733 108.108 55.3007 107.394 56.9977Z" fill="#FC9C86"/>
<path id="Vector_22" d="M84.5443 56.917C84.5339 57.0877 84.8048 57.404 85.008 57.5647C85.0346 57.5859 85.0565 57.6121 85.0725 57.6416C85.0884 57.6711 85.0982 57.7034 85.1011 57.7366C85.104 57.7698 85.1 57.8031 85.0894 57.8348C85.0788 57.8665 85.0617 57.8958 85.0393 57.9211C85.015 57.9491 84.9848 57.9717 84.9506 57.9873C84.9164 58.0029 84.8791 58.0112 84.8413 58.0115C84.7784 58.0113 84.7176 57.99 84.6694 57.9512C84.56 57.8609 83.9973 57.3789 84.0181 56.8869C84.039 56.5204 84.3464 56.2995 84.6225 56.194C84.5547 55.5263 84.2734 54.718 83.8306 54.3766C83.7506 54.3123 83.6566 54.2663 83.5555 54.242C83.4545 54.2176 83.3491 54.2156 83.2471 54.236C83.2136 54.2426 83.179 54.2428 83.1454 54.2365C83.1118 54.2302 83.0799 54.2176 83.0513 54.1995C82.9937 54.1627 82.9535 54.1055 82.9397 54.0402C82.9259 53.975 82.9395 53.9071 82.9776 53.8515C83.0157 53.796 83.0752 53.7573 83.1429 53.744C83.3194 53.7096 83.5016 53.7133 83.6764 53.755C83.8511 53.7967 84.0141 53.8752 84.1536 53.985C84.8048 54.477 85.1226 55.5614 85.1539 56.3597C85.1553 56.4177 85.1359 56.4745 85.0989 56.5202C85.0618 56.566 85.0094 56.598 84.9507 56.6107C84.8725 56.6358 84.5547 56.7413 84.5443 56.917Z" fill="#1D0A03"/>
<path id="Vector_23" d="M106.629 54.0354C106.622 54.0681 106.609 54.0994 106.591 54.1272C106.572 54.1551 106.547 54.1791 106.519 54.1978C106.49 54.2165 106.458 54.2295 106.424 54.2361C106.39 54.2427 106.355 54.2427 106.321 54.2362C106.219 54.2155 106.114 54.2174 106.013 54.2417C105.912 54.2661 105.818 54.3123 105.738 54.3768C105.295 54.7182 105.014 55.5265 104.946 56.1942C105.217 56.2996 105.524 56.5205 105.545 56.887C105.576 57.3791 105.014 57.861 104.894 57.9514C104.848 57.9908 104.788 58.0123 104.727 58.0117C104.675 58.0092 104.625 57.9917 104.583 57.9615C104.541 57.9312 104.51 57.8896 104.493 57.8419C104.476 57.7943 104.475 57.7429 104.488 57.6944C104.502 57.6459 104.531 57.6025 104.571 57.5698C104.763 57.4092 105.045 57.0929 105.034 56.9172C105.024 56.7414 104.706 56.636 104.623 56.6159C104.564 56.6032 104.512 56.5712 104.475 56.5254C104.438 56.4797 104.418 56.4229 104.42 56.3649C104.451 55.5666 104.774 54.4822 105.42 53.9902C105.558 53.8802 105.72 53.8015 105.894 53.7598C106.068 53.7181 106.25 53.7145 106.425 53.7492C106.491 53.7625 106.549 53.7997 106.587 53.853C106.624 53.9063 106.639 53.9716 106.629 54.0354Z" fill="#1D0A03"/>
<path id="Vector_24" d="M100.783 66.2048C100.695 66.3152 98.6316 68.9058 94.8753 68.9058H94.7815C90.968 68.8657 88.1287 64.9998 88.0088 64.8342C87.9706 64.7794 87.9563 64.7124 87.969 64.6476C87.9817 64.5827 88.0203 64.5253 88.0766 64.4877C88.1327 64.4504 88.2018 64.4358 88.2691 64.4471C88.3363 64.4583 88.3962 64.4946 88.436 64.548C88.4673 64.5881 91.2441 68.3636 94.7868 68.4038H94.8701C98.3711 68.4038 100.34 65.9286 100.366 65.9035C100.408 65.8503 100.47 65.8151 100.538 65.8057C100.606 65.7962 100.676 65.8134 100.731 65.8533C100.786 65.8933 100.823 65.9527 100.833 66.0187C100.842 66.0846 100.825 66.1515 100.783 66.2048Z" fill="#1D0A03"/>
<path id="Vector_25" d="M92.5883 55.5263C92.5575 55.5406 92.5235 55.5475 92.4893 55.5464C92.4373 55.5457 92.3866 55.5301 92.3439 55.5014C92.3012 55.4728 92.2684 55.4325 92.2496 55.3857C91.9996 54.7732 91.6401 54.4017 91.1868 54.2711C90.395 54.0452 89.5301 54.6276 89.5197 54.6376C89.4631 54.6763 89.3928 54.6916 89.3244 54.6803C89.256 54.669 89.1951 54.632 89.155 54.5774C89.115 54.5228 89.099 54.4551 89.1108 54.3892C89.1225 54.3233 89.1609 54.2646 89.2175 54.226C89.2592 54.1958 90.296 53.498 91.3379 53.7892C91.9475 53.9649 92.4216 54.4368 92.7341 55.1999C92.7468 55.2306 92.7531 55.2634 92.7527 55.2964C92.7522 55.3294 92.745 55.362 92.7314 55.3923C92.7179 55.4226 92.6983 55.45 92.6737 55.473C92.6491 55.496 92.6201 55.5141 92.5883 55.5263Z" fill="#1D0A03"/>
<path id="Vector_26" d="M101.054 54.7284C101.037 54.7567 101.014 54.7814 100.987 54.8008C100.959 54.8203 100.928 54.8342 100.895 54.8417C100.862 54.8492 100.827 54.8502 100.794 54.8445C100.76 54.8389 100.728 54.8267 100.7 54.8088C100.689 54.8088 99.7881 54.2716 99.0067 54.5477C98.5638 54.7033 98.2356 55.1 98.022 55.7275C98.0044 55.7778 97.9707 55.8214 97.9258 55.8521C97.8808 55.8827 97.827 55.8989 97.7719 55.8982C97.7456 55.8974 97.7194 55.894 97.6938 55.8882C97.6282 55.8675 97.5738 55.8226 97.5425 55.7633C97.5113 55.704 97.5057 55.6352 97.5271 55.5719C97.7876 54.7887 98.2304 54.2866 98.8295 54.0758C99.8454 53.7193 100.929 54.3569 100.971 54.387C101 54.4036 101.026 54.4258 101.046 54.4522C101.066 54.4786 101.081 54.5086 101.088 54.5405C101.096 54.5725 101.097 54.6056 101.091 54.6379C101.085 54.6702 101.073 54.701 101.054 54.7284Z" fill="#1D0A03"/>
<path id="Vector_27" d="M97.7616 63.1027C97.7388 63.1276 97.7111 63.1479 97.6801 63.1624C97.6491 63.1769 97.6154 63.1853 97.581 63.1872C97.5466 63.1891 97.5121 63.1843 97.4796 63.1733C97.4471 63.1622 97.4172 63.1451 97.3917 63.1228C96.9488 62.7463 96.4695 62.5555 95.959 62.5906C94.8962 62.6559 94.0314 63.6098 94.0209 63.6199C93.9967 63.6479 93.9665 63.6705 93.9323 63.6861C93.8981 63.7017 93.8608 63.7099 93.823 63.7102C93.7601 63.7101 93.6993 63.6888 93.651 63.65C93.6249 63.6283 93.6034 63.6019 93.5879 63.5722C93.5724 63.5425 93.5631 63.5102 93.5607 63.477C93.5583 63.4438 93.5627 63.4105 93.5738 63.379C93.5848 63.3475 93.6022 63.3185 93.625 63.2935C93.6667 63.2483 94.6409 62.1639 95.9225 62.0886C96.5789 62.0534 97.1833 62.2743 97.7355 62.7513C97.7869 62.7948 97.8184 62.8561 97.8233 62.9219C97.8282 62.9876 97.806 63.0526 97.7616 63.1027Z" fill="#1D0A03"/>
<path id="Vector_28" d="M76.4001 43.2977C78.1404 42.6993 79.8148 41.9362 81.3989 41.0196C84.6472 39.1369 85.0302 37.834 87.0958 37.6997C89.1003 37.5742 93.3775 39.3314 93.6081 40.195C93.8386 41.0585 91.8524 40.5928 91.8524 40.5928C91.8524 40.5928 93.8243 41.0196 93.6263 41.6271C93.4283 42.2346 91.627 41.9748 91.627 41.9748C91.627 41.9748 92.8201 42.148 92.7302 42.6902C92.6403 43.2324 89.8023 42.8157 89.8023 42.8157C89.8023 42.8157 91.4955 43.1847 91.334 43.6403C91.1725 44.096 88.8802 43.7659 88.0466 43.9002C86.696 44.1123 85.9796 44.7286 84.4662 45.7013C83.2849 46.4544 81.5357 47.5351 79.2421 48.7613C77.7644 47.2433 76.7785 45.3427 76.4054 43.2927L76.4001 43.2977Z" fill="#FC9C86"/>
<path id="Vector_29" d="M81.8939 46.7921C81.8939 46.7921 82.2846 47.269 83.1963 46.9866C84.108 46.7042 87.2039 43.8487 88.7812 43.8726C88.7812 43.8726 87.7223 42.6174 85.1343 43.2299C82.5464 43.8425 81.8939 46.7921 81.8939 46.7921Z" fill="#FC9C86"/>
<path id="Vector_30" d="M89.9312 43.103C89.9034 43.103 89.8757 43.0988 89.8492 43.0904C89.099 42.8519 87.8656 42.9185 87.8538 42.9185C87.8196 42.9204 87.7854 42.9157 87.753 42.9049C87.7207 42.894 87.6908 42.8771 87.6653 42.8551C87.6397 42.8332 87.6188 42.8066 87.6039 42.7768C87.589 42.7471 87.5803 42.7148 87.5784 42.6819C87.5764 42.6489 87.5812 42.6159 87.5925 42.5847C87.6037 42.5535 87.6213 42.5248 87.6441 42.5001C87.6669 42.4755 87.6945 42.4554 87.7253 42.441C87.7562 42.4267 87.7897 42.4183 87.8239 42.4164C87.8786 42.4164 89.168 42.3449 90.012 42.6122C90.0708 42.6308 90.1208 42.669 90.153 42.72C90.1853 42.7709 90.1976 42.8312 90.1879 42.8901C90.1782 42.949 90.147 43.0027 90.1 43.0414C90.053 43.0802 89.9931 43.1016 89.9312 43.1017V43.103Z" fill="#1D0A03"/>
<path id="Vector_31" d="M91.6218 42.2259C91.6049 42.2272 91.5879 42.2272 91.571 42.2259L87.7939 41.5092C87.759 41.5044 87.7254 41.4927 87.6953 41.475C87.6651 41.4572 87.6391 41.4337 87.6187 41.406C87.5982 41.3782 87.5839 41.3467 87.5765 41.3135C87.5691 41.2802 87.5688 41.2458 87.5756 41.2124C87.5824 41.179 87.5961 41.1473 87.6161 41.1192C87.636 41.0911 87.6616 41.0672 87.6914 41.0489C87.7212 41.0307 87.7546 41.0185 87.7894 41.013C87.8243 41.0076 87.8599 41.009 87.8942 41.0172L91.6713 41.7339C91.7404 41.7402 91.804 41.7728 91.8482 41.8243C91.8924 41.8759 91.9136 41.9422 91.907 42.0088C91.9005 42.0754 91.8667 42.1367 91.8132 42.1793C91.7598 42.2219 91.6909 42.2423 91.6218 42.236V42.2259Z" fill="#1D0A03"/>
<path id="Vector_32" d="M92.0216 40.8762C91.9956 40.8761 91.9697 40.8723 91.9448 40.8649L88.1208 39.714C88.0548 39.6942 87.9997 39.6499 87.9676 39.591C87.9355 39.532 87.929 39.4631 87.9495 39.3996C87.9701 39.336 88.016 39.2829 88.0772 39.2519C88.1384 39.221 88.2098 39.2147 88.2758 39.2345L92.0998 40.3855C92.1594 40.4033 92.2103 40.4412 92.2434 40.4921C92.2765 40.5431 92.2895 40.6039 92.28 40.6633C92.2705 40.7227 92.2392 40.7769 92.1918 40.816C92.1444 40.8551 92.084 40.8764 92.0216 40.8762Z" fill="#1D0A03"/>
<path id="Vector_33" d="M113.395 43.7528C111.654 43.1549 109.98 42.3918 108.396 41.4747C105.148 39.592 104.763 38.2891 102.699 38.1548C100.695 38.0293 96.4161 39.7865 96.1869 40.65C95.9576 41.5136 97.9426 41.0479 97.9426 41.0479C97.9426 41.0479 95.9707 41.4747 96.1686 42.0822C96.3666 42.6897 98.1679 42.4298 98.1679 42.4298C98.1679 42.4298 96.9748 42.6031 97.0647 43.1453C97.1546 43.6875 99.9913 43.2708 99.9913 43.2708C99.9913 43.2708 98.2981 43.6398 98.4609 44.0954C98.6237 44.551 100.915 44.2209 101.748 44.3552C103.099 44.5674 103.815 45.1836 105.329 46.1564C106.509 46.9095 108.258 47.9901 110.553 49.2164C112.031 47.6984 113.016 45.7978 113.39 43.7477L113.395 43.7528Z" fill="#FC9C86"/>
<path id="Vector_34" d="M107.901 47.2471C107.901 47.2471 107.51 47.7241 106.599 47.4417C105.687 47.1593 102.591 44.3038 101.012 44.3277C101.012 44.3277 102.073 43.0725 104.659 43.685C107.246 44.2975 107.901 47.2471 107.901 47.2471Z" fill="#FC9C86"/>
<path id="Vector_35" d="M99.8637 43.5584C99.8018 43.5583 99.7419 43.5369 99.6949 43.4981C99.6479 43.4593 99.6167 43.4057 99.607 43.3468C99.5973 43.2879 99.6096 43.2276 99.6419 43.1766C99.6741 43.1257 99.7241 43.0875 99.7829 43.0689C100.627 42.8015 101.918 42.8706 101.971 42.8731C102.005 42.875 102.039 42.8834 102.07 42.8979C102.1 42.9123 102.128 42.9324 102.151 42.9571C102.174 42.9819 102.191 43.0107 102.202 43.0419C102.213 43.0732 102.218 43.1062 102.216 43.1392C102.215 43.1725 102.207 43.2052 102.193 43.2354C102.178 43.2657 102.158 43.2927 102.132 43.3148C102.106 43.337 102.076 43.3538 102.043 43.3641C102.01 43.3745 101.975 43.3783 101.941 43.3751C101.928 43.3751 100.695 43.3086 99.9457 43.5459C99.9192 43.5542 99.8915 43.5585 99.8637 43.5584Z" fill="#1D0A03"/>
<path id="Vector_36" d="M98.1732 42.681C98.1041 42.6875 98.0352 42.6673 97.9815 42.6248C97.9279 42.5823 97.894 42.521 97.8873 42.4545C97.8805 42.3879 97.9015 42.3215 97.9456 42.2698C97.9897 42.2181 98.0533 42.1854 98.1224 42.179L101.899 41.4635C101.934 41.4553 101.969 41.4538 102.004 41.4593C102.039 41.4647 102.072 41.477 102.102 41.4952C102.132 41.5135 102.158 41.5374 102.178 41.5655C102.198 41.5936 102.211 41.6253 102.218 41.6587C102.225 41.6921 102.225 41.7265 102.217 41.7597C102.21 41.793 102.195 41.8245 102.175 41.8523C102.155 41.88 102.129 41.9035 102.098 41.9212C102.068 41.939 102.035 41.9507 102 41.9555L98.2227 42.6722C98.2064 42.6763 98.1899 42.6793 98.1732 42.681Z" fill="#1D0A03"/>
<path id="Vector_37" d="M97.772 41.3354C97.7097 41.3353 97.6495 41.3137 97.6023 41.2746C97.5552 41.2354 97.5241 41.1812 97.5148 41.1219C97.5055 41.0625 97.5186 41.0019 97.5517 40.9511C97.5848 40.9002 97.6357 40.8625 97.6951 40.8447L101.518 39.695C101.55 39.6851 101.585 39.6816 101.619 39.6846C101.653 39.6876 101.686 39.697 101.716 39.7124C101.747 39.7277 101.774 39.7486 101.795 39.774C101.817 39.7993 101.834 39.8285 101.844 39.86C101.854 39.8915 101.858 39.9246 101.855 39.9574C101.852 39.9903 101.842 40.0222 101.826 40.0514C101.81 40.0806 101.788 40.1065 101.762 40.1276C101.736 40.1487 101.705 40.1646 101.673 40.1744L97.8501 41.3241C97.8248 41.3316 97.7985 41.3354 97.772 41.3354Z" fill="#1D0A03"/>
<path id="Vector_38" d="M84.6746 51.8491C84.6055 51.8539 84.5373 51.8321 84.4849 51.7884C84.4325 51.7447 84.4002 51.6828 84.3952 51.6162C84.3902 51.5497 84.4129 51.4839 84.4582 51.4334C84.5035 51.3829 84.5677 51.3518 84.6368 51.347C87.4045 50.9579 87.8239 47.3105 87.8278 47.2741C87.8347 47.2075 87.8688 47.1463 87.9225 47.1039C87.9763 47.0615 88.0453 47.0415 88.1144 47.0481C88.1834 47.0548 88.2469 47.0876 88.2909 47.1394C88.3349 47.1912 88.3557 47.2577 88.3488 47.3243C88.3306 47.4899 87.8864 51.3972 84.715 51.8428L84.6746 51.8491Z" fill="white"/>
<path id="Vector_39" d="M83.1481 50.8559C83.0335 50.8559 82.9149 50.8559 82.7912 50.8395C82.7221 50.833 82.6585 50.8004 82.6144 50.7487C82.5704 50.697 82.5494 50.6306 82.5561 50.564C82.5628 50.4975 82.5967 50.4362 82.6504 50.3937C82.704 50.3512 82.7729 50.331 82.842 50.3375C84.8699 50.5358 85.3479 48.7786 85.3674 48.7058C85.3847 48.6412 85.4279 48.5859 85.4875 48.552C85.5471 48.5181 85.6182 48.5084 85.6852 48.525C85.7522 48.5417 85.8097 48.5833 85.8448 48.6407C85.88 48.6982 85.8901 48.7667 85.8728 48.8313C85.8676 48.8489 85.3206 50.8559 83.1481 50.8559Z" fill="white"/>
<path id="Vector_40" d="M105.235 51.9965C102.163 51.9965 100.286 47.0952 100.204 46.8655C100.191 46.8343 100.185 46.8009 100.186 46.7674C100.186 46.7338 100.194 46.7008 100.209 46.6702C100.223 46.6396 100.243 46.6121 100.269 46.5893C100.295 46.5665 100.325 46.5488 100.357 46.5374C100.39 46.526 100.425 46.521 100.46 46.5228C100.494 46.5246 100.529 46.533 100.56 46.5477C100.591 46.5624 100.619 46.583 100.642 46.6082C100.665 46.6335 100.682 46.6629 100.693 46.6948C100.715 46.7526 102.874 52.4045 106.033 51.3602C106.098 51.3413 106.168 51.3473 106.228 51.3769C106.288 51.4065 106.333 51.4573 106.355 51.5188C106.377 51.5802 106.374 51.6475 106.345 51.7064C106.317 51.7653 106.266 51.8113 106.203 51.8346C105.892 51.9401 105.565 51.9948 105.235 51.9965Z" fill="white"/>
<path id="Vector_41" d="M105.37 50.2072C103.938 50.2072 102.68 48.1739 102.622 48.0735C102.594 48.0165 102.589 47.9513 102.608 47.8909C102.628 47.8305 102.67 47.7794 102.726 47.7477C102.783 47.716 102.85 47.7061 102.914 47.72C102.978 47.7338 103.034 47.7704 103.072 47.8224C103.447 48.4362 104.635 49.9562 105.64 49.6637C105.705 49.6464 105.775 49.6542 105.834 49.6856C105.894 49.7169 105.938 49.7693 105.958 49.8317C105.978 49.894 105.972 49.9614 105.941 50.0195C105.911 50.0777 105.858 50.122 105.794 50.1432C105.657 50.1846 105.514 50.2062 105.37 50.2072Z" fill="white"/>
<path id="Vector_42" d="M82.0032 72.5058C81.9341 72.5103 81.866 72.4882 81.8139 72.4443C81.7617 72.4004 81.7298 72.3383 81.7251 72.2718C81.7205 72.2052 81.7435 72.1396 81.789 72.0893C81.8346 72.039 81.899 72.0083 81.9681 72.0038C82.4509 71.9512 82.917 71.8019 83.3365 71.5654C83.7559 71.3289 84.1194 71.0105 84.4036 70.6307C86.0968 68.3865 85.3713 64.2294 85.3635 64.1893C85.3519 64.1238 85.3677 64.0566 85.4074 64.0024C85.4471 63.9481 85.5075 63.9112 85.5754 63.8998C85.6432 63.8883 85.713 63.9032 85.7695 63.9413C85.826 63.9793 85.8645 64.0373 85.8767 64.1026C85.9092 64.2821 86.6582 68.5082 84.8256 70.9256C84.5011 71.3618 84.0855 71.7277 83.6055 71.9999C83.1255 72.272 82.5917 72.4444 82.0384 72.5058H82.0032Z" fill="white"/>
<path id="Vector_43" d="M105.523 71.9548H105.515C104.631 71.9284 103.972 71.6059 103.561 70.9971C102.233 69.0441 103.97 64.7804 104.045 64.5959C104.07 64.534 104.12 64.4844 104.184 64.458C104.247 64.4316 104.319 64.4307 104.383 64.4553C104.447 64.4799 104.499 64.5282 104.526 64.5894C104.554 64.6506 104.555 64.7197 104.529 64.7816C104.512 64.8231 102.816 68.9839 103.998 70.7172C104.318 71.1892 104.821 71.4276 105.536 71.449C105.605 71.45 105.671 71.4774 105.719 71.5252C105.767 71.5729 105.793 71.6372 105.792 71.7038C105.791 71.7703 105.763 71.8338 105.713 71.8802C105.664 71.9265 105.597 71.952 105.528 71.951L105.523 71.9548Z" fill="white"/>
<path id="Vector_44" d="M77.3014 89.1413H77.2584C77.2246 89.136 77.1923 89.1243 77.1632 89.1069C77.1341 89.0895 77.1088 89.0668 77.0889 89.0399C77.0689 89.0131 77.0546 88.9828 77.0469 88.9507C77.0391 88.9185 77.0379 88.8852 77.0435 88.8527C77.2553 87.6034 77.8626 86.4478 78.7823 85.5441C79.3187 85.0289 79.9498 84.6143 80.6435 84.3216L81.6477 81.0494C81.6672 80.9855 81.7122 80.9317 81.7729 80.8998C81.8336 80.8679 81.905 80.8606 81.9713 80.8794C82.0376 80.8982 82.0935 80.9416 82.1266 81.0001C82.1597 81.0586 82.1673 81.1273 82.1478 81.1913L81.1124 84.5802C81.1009 84.6158 81.0816 84.6485 81.0557 84.6763C81.0299 84.704 80.9981 84.726 80.9626 84.7408C80.2868 85.0098 79.6725 85.4043 79.1548 85.9018C78.3118 86.73 77.7554 87.7892 77.5619 88.9342C77.5511 88.993 77.5189 89.046 77.4712 89.084C77.4235 89.1219 77.3633 89.1423 77.3014 89.1413Z" fill="#1D0A03"/>
<path id="Vector_45" d="M111.032 89.1419C110.97 89.1427 110.909 89.122 110.862 89.0836C110.814 89.0451 110.782 88.9915 110.772 88.9323C110.578 87.787 110.022 86.7274 109.179 85.8986C108.661 85.4017 108.047 85.0077 107.371 84.7389C107.335 84.7244 107.304 84.7024 107.278 84.6746C107.252 84.6468 107.233 84.6139 107.222 84.5782L106.181 81.1893C106.161 81.1254 106.169 81.0566 106.202 80.9981C106.235 80.9396 106.291 80.8962 106.357 80.8774C106.423 80.8586 106.495 80.8659 106.555 80.8978C106.616 80.9297 106.661 80.9836 106.681 81.0475L107.682 84.3196C108.376 84.6124 109.006 85.027 109.542 85.5422C110.462 86.4445 111.069 87.5989 111.281 88.8469C111.292 88.9125 111.276 88.9797 111.236 89.0338C111.196 89.088 111.135 89.1246 111.067 89.1356L111.032 89.1419Z" fill="#1D0A03"/>
<path id="Vector_46" d="M54.7822 63.1478C54.72 63.1474 54.66 63.1256 54.6131 63.0863C54.5661 63.047 54.5353 62.9929 54.5262 62.9336C54.5171 62.8743 54.5302 62.8139 54.5633 62.7632C54.5964 62.7124 54.6473 62.6748 54.7066 62.657L58.8914 61.427C58.9575 61.4075 59.029 61.4142 59.0901 61.4455C59.1511 61.4768 59.1968 61.5302 59.217 61.5939C59.2372 61.6577 59.2303 61.7265 59.1978 61.7854C59.1653 61.8442 59.1099 61.8882 59.0438 61.9077L54.859 63.1377C54.8339 63.1442 54.8081 63.1475 54.7822 63.1478Z" fill="#1D0A03"/>
<path id="Vector_47" d="M135.308 62.5325C135.296 62.5337 135.284 62.5337 135.272 62.5325L130.745 61.9175C130.677 61.9081 130.615 61.8732 130.574 61.8203C130.532 61.7673 130.514 61.7008 130.523 61.635C130.528 61.6023 130.539 61.5708 130.557 61.5422C130.574 61.5137 130.597 61.4888 130.624 61.4688C130.652 61.4489 130.683 61.4343 130.716 61.426C130.749 61.4177 130.784 61.4158 130.818 61.4204L135.345 62.0354C135.414 62.0401 135.478 62.071 135.524 62.1214C135.569 62.1718 135.592 62.2375 135.587 62.304C135.582 62.3706 135.55 62.4326 135.498 62.4764C135.446 62.5202 135.378 62.5422 135.308 62.5375V62.5325Z" fill="#1D0A03"/>
<path id="Vector_48" d="M78.4567 42.8219L81.0616 47.7659C81.1138 47.8644 81.1258 47.978 81.0955 48.0846C81.0651 48.1912 80.9945 48.283 80.8975 48.342L77.3327 50.5084C77.243 50.563 77.1364 50.586 77.0311 50.5737C76.9257 50.5613 76.828 50.5143 76.7544 50.4406L73.8643 47.535C73.797 47.467 73.7538 47.3801 73.741 47.287C73.7281 47.1939 73.7462 47.0992 73.7927 47.0166L75.8297 43.3867C75.8852 43.287 75.9785 43.2119 76.0902 43.1771L77.9032 42.6035C78.0073 42.5703 78.1203 42.574 78.2219 42.6141C78.3234 42.6541 78.4067 42.7278 78.4567 42.8219Z" fill="#287EEF"/>
<path id="Vector_49" d="M111.156 43.0428L108.421 47.9667C108.377 48.0459 108.349 48.1328 108.34 48.2222C108.331 48.3117 108.34 48.402 108.367 48.488C108.395 48.574 108.439 48.6539 108.499 48.7232C108.558 48.7925 108.631 48.8498 108.714 48.8917L114.607 51.9041C114.689 51.9462 114.779 51.9723 114.872 51.9809C114.964 51.9894 115.057 51.9803 115.146 51.9541C115.235 51.9279 115.318 51.885 115.389 51.828C115.461 51.7709 115.52 51.7008 115.563 51.6217L116.979 49.0574C117.028 48.968 117.056 48.8691 117.061 48.7679C117.066 48.6668 117.047 48.5659 117.006 48.4725L115.183 44.2992C115.114 44.1397 114.985 44.0117 114.821 43.9414L112.071 42.7478C111.908 42.6763 111.723 42.667 111.553 42.7217C111.384 42.7765 111.242 42.8912 111.156 43.0428Z" fill="#287EEF"/>
<g id="Clip path group">
<mask id="mask0_1845_34062" style="mask-type:luminance" maskUnits="userSpaceOnUse" x="27" y="90" width="135" height="86">
<g id="a">
<path id="Vector_50" d="M27.7499 150.605C27.7499 150.605 24.9575 133.071 45.8148 121.874C66.6722 110.676 86.7585 126.041 103.061 115.624C119.364 105.208 117.742 88.4353 135.577 90.4423C153.411 92.4492 161.247 144.442 161.247 150.605C161.247 156.768 137.055 183.762 116.052 172.999C95.0486 162.237 91.8068 152.601 78.5609 151.82C65.315 151.039 27.7499 150.605 27.7499 150.605Z" fill="white"/>
</g>
</mask>
<g mask="url(#mask0_1845_34062)">
<g id="Group">
<path id="Vector_51" d="M27.7499 150.605C27.7499 150.605 24.9575 133.071 45.8149 121.874C66.6722 110.676 86.7585 126.041 103.061 115.624C119.364 105.208 117.742 88.4353 135.577 90.4423C153.411 92.4492 161.247 144.442 161.247 150.605C161.247 156.768 137.055 183.762 116.052 172.999C95.0486 162.237 91.8068 152.601 78.5609 151.82C65.3151 151.039 27.7499 150.605 27.7499 150.605Z" fill="#306F9F"/>
<path id="Vector_52" d="M125.617 172.482C117.696 172.482 110.359 166.633 102.624 160.468C95.58 154.853 88.2967 149.046 80.1278 147.378C62.5448 143.782 23.6824 148.72 23.2917 148.77C23.2235 148.778 23.1546 148.761 23.0999 148.72C23.0453 148.68 23.0093 148.621 22.9999 148.555C22.9907 148.489 23.0089 148.422 23.0507 148.37C23.0924 148.317 23.1543 148.282 23.2226 148.273C23.3203 148.26 33.1408 147.004 45.0138 146.209C55.9817 145.476 70.995 144.998 80.2372 146.887C88.5312 148.583 95.8665 154.428 102.956 160.081C111.183 166.639 118.954 172.827 127.349 171.88C142.859 170.122 161.932 146.863 162.125 146.629C162.143 146.597 162.169 146.57 162.199 146.55C162.23 146.529 162.264 146.514 162.301 146.508C162.338 146.501 162.375 146.502 162.412 146.51C162.448 146.519 162.482 146.535 162.511 146.557C162.541 146.579 162.565 146.607 162.582 146.639C162.599 146.671 162.609 146.706 162.61 146.742C162.612 146.778 162.606 146.814 162.592 146.848C162.578 146.881 162.557 146.911 162.53 146.936C158.956 151.192 155.088 155.21 150.952 158.964C144.755 164.567 135.638 171.441 127.408 172.375C126.814 172.445 126.216 172.481 125.617 172.482Z" fill="white"/>
<path id="Vector_53" d="M118.999 108.46C118.225 108.465 117.467 108.246 116.823 107.832C112.673 105.197 113.046 95.1177 113.069 94.6897C113.069 94.6562 113.076 94.6231 113.09 94.5923C113.103 94.5616 113.124 94.534 113.149 94.5113C113.175 94.4886 113.205 94.4713 113.238 94.4605C113.271 94.4498 113.306 94.4457 113.34 94.4487C113.409 94.4516 113.474 94.4808 113.52 94.5297C113.567 94.5786 113.592 94.6434 113.589 94.7098C113.589 94.8114 113.198 104.937 117.105 107.413C118.278 108.157 119.756 108.126 121.499 107.319C124.535 105.914 127.099 103.723 129.367 101.79C132.145 99.4178 134.548 97.3732 136.791 97.7736C138.179 98.0246 139.416 99.1881 140.568 101.337C141.987 103.973 143.873 105.618 146.168 106.207C149.971 107.183 153.666 104.928 153.703 104.905C153.761 104.87 153.831 104.858 153.898 104.872C153.965 104.887 154.024 104.926 154.061 104.981C154.098 105.037 154.111 105.104 154.097 105.169C154.083 105.234 154.043 105.291 153.986 105.327C153.827 105.426 150.069 107.724 146.041 106.694C143.593 106.066 141.597 104.343 140.105 101.568C139.028 99.5597 137.912 98.4865 136.692 98.2681C134.687 97.9104 132.377 99.8822 129.701 102.167C127.41 104.122 124.816 106.339 121.714 107.773C120.747 108.233 119.835 108.46 118.999 108.46Z" fill="white"/>
<path id="Vector_54" d="M58.0982 131.685C56.0404 131.685 54.0606 130.226 52.219 127.345C47.4846 119.951 37.7553 119.267 37.6524 119.26C37.6182 119.258 37.5848 119.25 37.554 119.235C37.5232 119.221 37.4957 119.2 37.473 119.176C37.4503 119.151 37.4329 119.122 37.4218 119.091C37.4107 119.06 37.4061 119.027 37.4082 118.994C37.4104 118.961 37.4192 118.928 37.4343 118.899C37.4493 118.869 37.4703 118.843 37.496 118.821C37.5217 118.799 37.5516 118.782 37.5841 118.771C37.6165 118.761 37.6508 118.756 37.685 118.758C37.7853 118.758 47.7842 119.462 52.6631 127.079C54.4983 129.944 56.4272 131.318 58.3939 131.17C60.7773 130.988 63.1817 128.482 64.9934 124.293C66.5055 120.797 69.5194 120.613 72.179 120.453C74.862 120.289 76.9824 120.161 77.4044 117.064C77.4088 117.031 77.42 116.999 77.4372 116.97C77.4544 116.941 77.4773 116.916 77.5046 116.896C77.5319 116.876 77.5631 116.861 77.5965 116.852C77.6298 116.843 77.6645 116.841 77.6987 116.845C77.7329 116.85 77.7659 116.86 77.7958 116.877C77.8257 116.894 77.8519 116.916 77.873 116.942C77.894 116.968 77.9095 116.998 77.9185 117.03C77.9275 117.063 77.9298 117.096 77.9253 117.129C77.4473 120.633 74.9063 120.788 72.2154 120.951C69.5845 121.11 66.865 121.276 65.4779 124.484C63.5893 128.852 61.0235 131.472 58.4447 131.669C58.3209 131.68 58.2037 131.685 58.0982 131.685Z" fill="white"/>
<path id="Vector_55" d="M124.677 152.949C122.582 152.949 120.495 152.709 118.459 152.234C113.59 151.105 109.808 148.676 108.586 145.906C107.4 143.219 106.806 141.094 107.766 139.466C108.955 137.446 112.358 136.304 120.319 135.254C133.563 133.505 137.719 132.65 137.029 126.327C136.291 119.564 156.394 116.959 157.251 116.851C157.32 116.842 157.39 116.86 157.445 116.902C157.5 116.943 157.536 117.003 157.544 117.07C157.553 117.136 157.534 117.203 157.492 117.257C157.449 117.31 157.386 117.344 157.317 117.353C157.113 117.379 136.861 120 137.547 126.278C138.286 133.042 133.716 133.995 120.39 135.754C112.714 136.767 109.301 137.878 108.219 139.718C107.365 141.167 107.94 143.162 109.066 145.714C110.223 148.341 113.87 150.654 118.573 151.75C126.418 153.577 134.696 151.779 140.715 146.944C152.6 137.405 162.336 142.005 162.437 142.049C162.497 142.08 162.541 142.133 162.561 142.195C162.581 142.258 162.575 142.325 162.544 142.383C162.513 142.441 162.46 142.486 162.396 142.507C162.331 142.528 162.261 142.524 162.2 142.496C162.106 142.452 152.656 138.005 141.048 147.326C136.491 150.993 130.656 152.949 124.677 152.949Z" fill="white"/>
<path id="Vector_56" d="M32.6757 142.004C31.5217 142.004 30.2375 141.798 28.8361 141.384C25.7519 140.473 23.1444 138.853 23.1183 138.837C23.0896 138.819 23.0648 138.796 23.0454 138.769C23.026 138.742 23.0123 138.711 23.0052 138.679C22.9981 138.646 22.9976 138.613 23.0038 138.581C23.0101 138.548 23.0229 138.517 23.0415 138.489C23.0601 138.462 23.0843 138.438 23.1125 138.419C23.1407 138.4 23.1725 138.387 23.206 138.38C23.2395 138.374 23.2741 138.373 23.3077 138.379C23.3414 138.385 23.3735 138.397 23.4023 138.415C23.5026 138.478 33.5093 144.646 37.4596 139.348C41.4516 133.996 34.4639 123.418 34.3897 123.312C34.3525 123.256 34.3398 123.188 34.3545 123.123C34.3691 123.059 34.4099 123.002 34.4679 122.966C34.5258 122.93 34.5961 122.917 34.6635 122.931C34.7308 122.945 34.7898 122.984 34.8273 123.04C36.0702 124.979 37.1124 127.031 37.9389 129.166C39.649 133.677 39.632 137.3 37.8829 139.642C36.7133 141.211 34.9419 142.004 32.6757 142.004Z" fill="white"/>
<path id="Vector_57" d="M95.9017 155.195C95.8574 155.195 95.8139 155.184 95.7751 155.164C95.7364 155.143 95.7038 155.113 95.6803 155.077C95.6568 155.041 95.6433 155 95.641 154.957C95.6388 154.914 95.6478 154.872 95.6673 154.834C95.6972 154.776 98.5965 148.967 95.9786 143.412C94.2007 139.646 96.381 137.741 99.1409 135.33C100.807 133.876 102.695 132.228 104.282 129.807C106.105 127.035 105.148 125.028 103.653 124.074C100.999 122.382 96.1739 123.28 93.0064 127.687C88.9297 133.358 86.4551 132.865 83.0283 132.183C81.524 131.883 79.8165 131.542 77.6779 131.681C70.9351 132.109 68.4123 145.711 68.3875 145.848C68.3758 145.914 68.3375 145.972 68.2811 146.01C68.2246 146.049 68.1547 146.064 68.0867 146.053C68.0186 146.041 67.9581 146.004 67.9183 145.95C67.8784 145.896 67.8627 145.828 67.8744 145.763C68.3542 143.345 69.0725 140.976 70.0195 138.69C72.0578 133.898 74.6224 131.372 77.644 131.18C79.8582 131.04 81.5969 131.387 83.1338 131.694C86.4837 132.361 88.6966 132.802 92.5779 127.402C95.1828 123.779 100.262 121.316 103.939 123.657C106.078 125.02 106.385 127.54 104.721 130.077C103.096 132.556 101.181 134.229 99.4899 135.705C96.6845 138.154 94.8311 139.773 96.4513 143.207C99.1721 148.981 96.1648 154.993 96.1335 155.053C96.1124 155.095 96.0795 155.131 96.0386 155.156C95.9976 155.181 95.9502 155.195 95.9017 155.195Z" fill="white"/>
</g>
</g>
</g>
<path id="Vector_58" d="M177.289 11.1644C175.975 10.7376 174.591 10.5462 173.206 10.5995C174.966 12.031 176.197 13.9735 176.715 16.136C177.233 18.2985 177.009 20.5645 176.078 22.5945C175.147 24.6244 173.559 26.309 171.551 27.3957C169.543 28.4824 167.223 28.9127 164.94 28.6222C166.071 29.9193 167.498 30.9464 169.11 31.6231C170.721 32.2998 172.474 32.6077 174.23 32.5226C175.985 32.4376 177.697 31.9619 179.23 31.1329C180.763 30.3038 182.076 29.144 183.066 27.7441C184.056 26.3443 184.697 24.7425 184.937 23.0643C185.177 21.3861 185.011 19.6771 184.452 18.0711C183.892 16.4651 182.954 15.0058 181.711 13.8076C180.469 12.6093 178.955 11.7046 177.289 11.1644Z" fill="#DDA639"/>
<path id="Vector_59" d="M162.415 71.5433C162.277 71.5433 162.144 71.4904 162.047 71.3962C161.949 71.3021 161.894 71.1744 161.894 71.0412V0.502058C161.894 0.368904 161.949 0.241203 162.047 0.147049C162.144 0.0528949 162.277 0 162.415 0C162.553 0 162.686 0.0528949 162.783 0.147049C162.881 0.241203 162.936 0.368904 162.936 0.502058V71.0412C162.936 71.1744 162.881 71.3021 162.783 71.3962C162.686 71.4904 162.553 71.5433 162.415 71.5433Z" fill="white"/>
<path id="Vector_60" d="M190.359 38.3322H134.47C134.331 38.3322 134.199 38.2793 134.101 38.1852C134.004 38.091 133.949 37.9633 133.949 37.8302C133.949 37.697 134.004 37.5693 134.101 37.4752C134.199 37.381 134.331 37.3281 134.47 37.3281H190.359C190.497 37.3281 190.63 37.381 190.727 37.4752C190.825 37.5693 190.88 37.697 190.88 37.8302C190.88 37.9633 190.825 38.091 190.727 38.1852C190.63 38.2793 190.497 38.3322 190.359 38.3322Z" fill="white"/>
</g>
</svg>
